<svg width="134" height="44" viewBox="0 0 134 44" fill="none" xmlns="http://www.w3.org/2000/svg">
<g clip-path="url(#clip0_2439_1658)">
<path d="M66.3748 19.7516V20.9959H69.2187V9.88498H66.3748V15.883C66.3748 16.8012 66.1543 17.4903 65.7132 17.95C65.2722 18.4097 64.6844 18.6393 63.95 18.6387C63.2885 18.6387 62.7593 18.4425 62.3627 18.0501C61.966 17.6577 61.7674 17.0911 61.7668 16.3504V9.8868H55.719V9.77573C55.719 8.39831 56.4981 7.76873 58.0562 7.88685V5.13209C56.3371 5.02864 55.0437 5.384 54.1763 6.19819C53.3088 7.01237 52.875 8.20607 52.875 9.77938V9.89051H51.2859V12.6452H52.8732V21.0013H55.719V12.6452H58.9246V16.7122C58.9246 18.1489 59.3195 19.2747 60.1092 20.0896C60.8989 20.9043 61.8946 21.3114 63.0962 21.3108C64.5912 21.3078 65.6841 20.788 66.3748 19.7516Z" fill="#B1B1B1"/>
<path d="M74.2368 14.9969C74.2368 14.0787 74.4573 13.39 74.8983 12.9309C75.3396 12.4717 75.9276 12.2422 76.6623 12.2422C77.324 12.2422 77.8532 12.4384 78.25 12.8308C78.6467 13.2232 78.8447 13.7897 78.8447 14.5305V20.9959H81.6888V14.1751C81.6888 12.7383 81.2958 11.6125 80.5099 10.7978C79.7232 9.98294 78.7273 9.57556 77.522 9.57556C76.0232 9.57556 74.9296 10.0941 74.2413 11.1311V9.88682H71.392V20.9977H74.2358L74.2368 14.9969Z" fill="#B1B1B1"/>
<path d="M92.0768 19.6846V20.9959H94.9217V5.44339H92.0768V11.1972C91.2389 10.1167 90.0487 9.57615 88.5055 9.57554C87.0202 9.57554 85.7525 10.1421 84.7023 11.2752C83.6521 12.4084 83.1267 13.797 83.1259 15.4413C83.1259 17.0851 83.6514 18.4734 84.7023 19.6066C85.7532 20.7397 87.021 21.3062 88.5055 21.3062C90.048 21.3062 91.2382 20.7657 92.0768 19.6846ZM89.0347 18.5735C88.1532 18.5735 87.4214 18.2809 86.841 17.6957C86.2599 17.1104 85.97 16.359 85.9715 15.4413C85.9715 14.5231 86.2621 13.7713 86.8425 13.1861C87.4237 12.6008 88.1547 12.3082 89.037 12.3082C89.9185 12.3082 90.6472 12.6008 91.2239 13.1861C91.8005 13.7713 92.0866 14.5231 92.0828 15.4413C92.0828 16.3596 91.7968 17.1111 91.2239 17.6957C90.651 18.2803 89.9208 18.5729 89.0332 18.5735H89.0347Z" fill="#B1B1B1"/>
<path d="M99.9572 9.88681H97.1131V20.9959H99.9572V9.88681Z" fill="#B1B1B1"/>
<path d="M98.5239 8.55353C98.7557 8.55695 98.9861 8.51242 99.2006 8.42275C99.4144 8.333 99.6087 8.20002 99.7698 8.03198C99.9354 7.87275 100.066 7.68127 100.155 7.46921C100.244 7.25715 100.289 7.02899 100.288 6.79874C100.288 6.56695 100.243 6.33733 100.154 6.12356C100.066 5.90979 99.9346 5.71626 99.7698 5.5545C99.6102 5.38347 99.4167 5.24774 99.2022 5.1559C98.9876 5.06407 98.7565 5.01813 98.5239 5.021C98.2943 5.01971 98.0669 5.06647 97.8561 5.1583C97.6461 5.25014 97.4564 5.38506 97.3006 5.5545C97.1357 5.71609 97.0047 5.90957 96.9159 6.12336C96.8263 6.33715 96.7811 6.56687 96.7819 6.79874C96.7894 7.26185 96.9753 7.70395 97.3006 8.03145C97.625 8.35895 98.0639 8.54617 98.5239 8.55353Z" fill="#B1B1B1"/>
<path d="M108.28 9.57556C106.78 9.57556 105.687 10.0941 105 11.1311V9.88682H102.155V20.9977H105V14.9969C105 14.0787 105.22 13.39 105.661 12.9309C106.102 12.4717 106.69 12.2422 107.424 12.2422C108.086 12.2422 108.615 12.4384 109.012 12.8308C109.408 13.2232 109.607 13.7897 109.607 14.5305V20.9959H112.452V14.1751C112.452 12.7383 112.056 11.6125 111.267 10.7978C110.477 9.98294 109.482 9.57556 108.28 9.57556Z" fill="#B1B1B1"/>
<path d="M125.686 9.88682H122.909V11.2643C122.07 10.1385 120.894 9.57556 119.38 9.57556C117.837 9.57556 116.537 10.1311 115.479 11.2422C114.42 12.3533 113.891 13.6937 113.891 15.2632C113.891 16.8482 114.416 18.1924 115.467 19.2962C116.518 20.3999 117.823 20.9509 119.38 20.949C120.895 20.949 122.071 20.3861 122.909 19.2604V20.4606C122.909 21.3335 122.651 22.0069 122.137 22.4807C121.622 22.9545 120.917 23.1914 120.02 23.1914C118.653 23.1914 117.69 22.6729 117.132 21.6359L114.707 23.0353C115.178 23.9094 115.905 24.6151 116.79 25.0555C117.694 25.5146 118.741 25.7442 119.931 25.7442C121.519 25.7442 122.875 25.2924 124 24.3888C125.124 23.4853 125.686 22.1747 125.686 20.4568V9.88682ZM122.041 17.4514C121.46 18.0214 120.721 18.3066 119.825 18.3072C118.929 18.3078 118.191 18.0226 117.61 17.4514C117.029 16.8821 116.738 16.1527 116.739 15.2632C116.739 14.389 117.029 13.667 117.61 13.0971C118.191 12.5271 118.929 12.2422 119.825 12.2422C120.722 12.2422 121.46 12.5271 122.041 13.0971C122.622 13.667 122.913 14.389 122.913 15.2632C122.91 16.1545 122.618 16.884 122.038 17.4514H122.041Z" fill="#B1B1B1"/>
<path d="M57.607 33.4823L55.6342 32.9589C55.0416 32.8121 54.4766 32.5693 53.9613 32.2399C53.7453 32.1089 53.5677 31.9227 53.4464 31.7001C53.325 31.4775 53.2644 31.2266 53.2705 30.9728C53.2631 30.679 53.3288 30.3882 53.4618 30.1267C53.5947 29.8652 53.7905 29.6415 54.0314 29.476C54.538 29.105 55.1661 28.9192 55.9158 28.9186C56.5156 28.9113 57.107 29.0607 57.6326 29.352C58.1348 29.6272 58.525 30.0715 58.7351 30.6073L59.6618 30.0747C59.3565 29.3976 58.8524 28.8313 58.2175 28.4521C57.5633 28.053 56.7951 27.8531 55.9131 27.8525C54.8105 27.8525 53.9102 28.1562 53.2122 28.7634C52.5142 29.3707 52.1652 30.1188 52.1652 31.0076C52.1652 31.749 52.393 32.3415 52.8486 32.7853C53.3173 33.2369 53.895 33.5573 54.5244 33.7146L56.4972 34.238C57.0921 34.3848 57.6561 34.6383 58.1619 34.9864C58.3767 35.1286 58.5521 35.3235 58.6717 35.5526C58.7912 35.7818 58.851 36.0379 58.8453 36.2968C58.8453 36.9628 58.5772 37.477 58.0407 37.8394C57.5044 38.2018 56.8246 38.3833 56.0015 38.384C55.1777 38.384 54.4833 38.2098 53.9184 37.8615C53.3733 37.5402 52.962 37.0311 52.7602 36.4281L51.8153 36.9854C52.0942 37.7268 52.5974 38.323 53.3252 38.7742C54.053 39.2254 54.9459 39.4513 56.0042 39.4519C57.1797 39.4519 58.1313 39.1556 58.859 38.563C59.5868 37.9704 59.9513 37.215 59.9525 36.2968C59.9525 35.523 59.7271 34.9047 59.2764 34.4419C58.8183 33.9731 58.2406 33.641 57.607 33.4823Z" fill="#B1B1B1"/>
<path d="M67.0126 27.8525C65.3955 27.8525 64.0247 28.4117 62.9003 29.5302C61.7759 30.6486 61.2136 32.0223 61.2136 33.6513C61.2136 35.2815 61.7759 36.6552 62.9003 37.7724C64.0247 38.8896 65.3955 39.4488 67.0126 39.45C68.6133 39.45 69.9765 38.8909 71.1022 37.7724C72.2279 36.654 72.7901 35.2803 72.7889 33.6513C72.7889 32.0223 72.2266 30.6486 71.1022 29.5302C69.9777 28.4117 68.6145 27.8525 67.0126 27.8525ZM70.3194 37.0066C69.4228 37.9248 68.3205 38.384 67.0126 38.384C65.7047 38.384 64.5985 37.9248 63.694 37.0066C62.7901 36.0883 62.3381 34.9699 62.3381 33.6513C62.3381 32.3327 62.7901 31.2145 63.694 30.2969C64.5979 29.3787 65.7041 28.9195 67.0126 28.9195C68.3211 28.9195 69.4234 29.3787 70.3194 30.2969C71.2161 31.2151 71.6644 32.3333 71.6644 33.6513C71.6644 34.9693 71.2161 36.0877 70.3194 37.0066Z" fill="#B1B1B1"/>
<path d="M82.3264 37.7613C81.6075 38.1819 80.7884 38.3971 79.9573 38.3839C78.6354 38.3839 77.5258 37.9285 76.6284 37.0176C75.7318 36.1066 75.2832 34.9846 75.2839 33.6513C75.2839 32.3179 75.7318 31.1958 76.6284 30.2849C77.525 29.374 78.6347 28.9185 79.9573 28.9185C80.7884 28.9058 81.6075 29.1209 82.3264 29.5411C83.0002 29.9286 83.5362 30.5192 83.8592 31.2298L84.7633 30.6963C84.3658 29.8208 83.7048 29.0939 82.873 28.6192C81.9884 28.1023 80.9804 27.8373 79.9573 27.8525C78.2959 27.8525 76.9145 28.408 75.8131 29.5191C74.7118 30.6302 74.1606 32.0076 74.1594 33.6513C74.1594 35.2961 74.7106 36.6735 75.8131 37.7834C76.916 38.8933 78.2974 39.4488 79.9573 39.45C80.9819 39.4631 81.9907 39.1982 82.879 38.6833C83.7214 38.2065 84.4072 37.4922 84.8529 36.6283L83.9269 36.0727C83.5641 36.7781 83.0092 37.364 82.3264 37.7613Z" fill="#B1B1B1"/>
<path d="M87.7519 28.0967H86.6491V39.2058H87.7519V28.0967Z" fill="#B1B1B1"/>
<path d="M87.2009 23.6533C87.0864 23.6526 86.9728 23.6748 86.8666 23.7187C86.7605 23.7624 86.6641 23.827 86.5828 23.9086C86.4985 23.9862 86.4323 24.0808 86.3863 24.1861C86.3412 24.2914 86.3178 24.4052 86.3186 24.5202C86.3163 24.6384 86.3382 24.7559 86.3841 24.8649C86.4292 24.9739 86.497 25.072 86.5828 25.1528C86.7469 25.3169 86.969 25.409 87.2001 25.409C87.4312 25.409 87.6533 25.3169 87.8174 25.1528C87.9032 25.0722 87.9717 24.9741 88.0177 24.8651C88.0628 24.756 88.0854 24.6385 88.0824 24.5202C88.0839 24.4051 88.0606 24.2913 88.0147 24.1859C87.9695 24.0805 87.9017 23.986 87.8174 23.9086C87.7369 23.8269 87.6405 23.7624 87.5344 23.7185C87.429 23.6747 87.3153 23.6525 87.2009 23.6533Z" fill="#B1B1B1"/>
<path d="M95.5194 27.8525C93.8437 27.8525 92.4728 28.4035 91.4068 29.5054C90.3408 30.6073 89.8078 31.9883 89.8086 33.6485C89.8086 35.3369 90.3529 36.7256 91.4407 37.8146C92.5285 38.9037 93.9174 39.4479 95.6075 39.4473C96.6795 39.4473 97.6348 39.2214 98.4734 38.7696C99.2767 38.3503 99.9482 37.7145 100.413 36.9331L99.443 36.3556C99.0915 36.9783 98.5713 37.4878 97.9442 37.8248C97.2825 38.192 96.5109 38.3772 95.6293 38.3803C94.3646 38.3803 93.3016 37.9989 92.4404 37.2362C91.5785 36.4734 91.0839 35.4715 90.9551 34.2307H100.943C100.943 34.1719 100.943 34.0829 100.954 33.9644C100.964 33.846 100.964 33.7569 100.964 33.6981C100.964 32.1132 100.462 30.7428 99.4551 29.5871C98.4478 28.4313 97.1364 27.8531 95.5194 27.8525ZM90.9551 33.1407C91.0718 31.8962 91.5499 30.8815 92.3885 30.0967C93.2264 29.3119 94.2705 28.9192 95.5194 28.9186C96.5929 28.9023 97.631 29.3042 98.4177 30.0407C99.2323 30.7894 99.7005 31.8227 99.8217 33.1407H90.9551Z" fill="#B1B1B1"/>
<path d="M104.764 24.9866L103.638 25.3236V28.0967H101.214V29.1858H103.638V36.406C103.638 37.6353 104.003 38.4647 104.732 38.8945C105.461 39.3243 106.567 39.428 108.051 39.2058V38.2058C107.436 38.2766 106.816 38.2953 106.198 38.2618C105.712 38.2251 105.352 38.0656 105.118 37.7834C104.884 37.5012 104.767 37.0421 104.765 36.406V29.1858H108.046V28.0967H104.765L104.764 24.9866Z" fill="#B1B1B1"/>
<path d="M110.312 23.6533C110.198 23.6525 110.084 23.6747 109.978 23.7185C109.872 23.7624 109.776 23.8269 109.695 23.9086C109.61 23.986 109.543 24.0805 109.498 24.1859C109.452 24.2913 109.429 24.4051 109.43 24.5202C109.428 24.6385 109.449 24.756 109.495 24.8651C109.541 24.9741 109.609 25.0722 109.695 25.1528C109.859 25.3169 110.081 25.409 110.312 25.409C110.544 25.409 110.765 25.3169 110.93 25.1528C111.015 25.072 111.083 24.9739 111.129 24.8649C111.174 24.7559 111.197 24.6384 111.194 24.5202C111.195 24.4052 111.172 24.2914 111.127 24.1861C111.081 24.0808 111.014 23.9862 110.93 23.9086C110.849 23.827 110.752 23.7624 110.646 23.7187C110.54 23.6748 110.427 23.6526 110.312 23.6533Z" fill="#B1B1B1"/>
<path d="M110.863 28.0967H109.761V39.2058H110.863V28.0967Z" fill="#B1B1B1"/>
<path d="M118.631 27.8525C116.954 27.8525 115.584 28.4035 114.519 29.5054C113.454 30.6073 112.921 31.9883 112.921 33.6485C112.921 35.3369 113.465 36.7256 114.552 37.8146C115.639 38.9037 117.028 39.4479 118.719 39.4473C119.791 39.4473 120.746 39.2214 121.585 38.7696C122.388 38.3505 123.059 37.7147 123.525 36.9331L122.555 36.3556C122.203 36.9781 121.683 37.4875 121.056 37.8248C120.394 38.192 119.623 38.3772 118.741 38.3803C117.477 38.3803 116.414 37.9989 115.552 37.2362C114.689 36.4734 114.194 35.4715 114.067 34.2307H124.054C124.054 34.1719 124.054 34.0829 124.065 33.9644C124.076 33.846 124.076 33.7569 124.076 33.6981C124.076 32.1132 123.573 30.7428 122.566 29.5871C121.56 28.4313 120.248 27.8531 118.631 27.8525ZM114.067 33.1407C114.184 31.8962 114.661 30.8815 115.5 30.0967C116.338 29.3119 117.382 28.9192 118.631 28.9186C119.704 28.9021 120.743 29.3041 121.53 30.0407C122.346 30.7888 122.812 31.8221 122.93 33.1407H114.067Z" fill="#B1B1B1"/>
<path d="M132.647 34.44C132.189 33.9726 131.611 33.6412 130.978 33.4823L129.006 32.9589C128.413 32.8121 127.849 32.5694 127.334 32.2399C127.118 32.109 126.939 31.9228 126.818 31.7003C126.697 31.4777 126.636 31.2267 126.642 30.9728C126.635 30.6791 126.701 30.3882 126.833 30.1268C126.967 29.8653 127.162 29.6416 127.403 29.476C127.91 29.105 128.538 28.9192 129.288 28.9186C129.889 28.9111 130.481 29.0604 131.008 29.352C131.51 29.6272 131.9 30.0715 132.11 30.6073L133.036 30.0747C132.731 29.3975 132.226 28.831 131.592 28.4521C130.938 28.053 130.17 27.8531 129.288 27.8525C128.185 27.8525 127.285 28.1562 126.587 28.7634C125.889 29.3707 125.54 30.1188 125.54 31.0076C125.54 31.749 125.768 32.3415 126.223 32.7853C126.692 33.2371 127.269 33.5575 127.898 33.7146L129.872 34.238C130.466 34.3847 131.031 34.6382 131.537 34.9864C131.752 35.1286 131.928 35.3235 132.046 35.5526C132.166 35.7818 132.226 36.0379 132.22 36.2968C132.22 36.9628 131.952 37.477 131.416 37.8394C130.88 38.2018 130.2 38.3833 129.376 38.384C128.553 38.384 127.858 38.2098 127.292 37.8615C126.748 37.5398 126.337 37.0308 126.135 36.4281L125.188 36.9836C125.466 37.7249 125.97 38.3212 126.698 38.7724C127.425 39.2235 128.319 39.4494 129.376 39.45C130.552 39.45 131.504 39.1537 132.232 38.5612C132.959 37.9686 133.324 37.2132 133.325 36.2949C133.324 35.5211 133.097 34.9029 132.647 34.44Z" fill="#B1B1B1"/>
<path d="M3.74577 12.8864L12.7883 21.9986L3.74516 31.1116C1.34705 28.6946 -0.000115556 25.4167 7.43443e-09 21.9989C0.000115571 18.581 1.3475 15.3031 3.74577 12.8864Z" fill="#9D9393"/>
<path d="M30.8731 3.77407L21.8301 12.887L12.7876 3.77469C15.1859 1.35791 18.4386 0.000116675 21.8303 7.51918e-09C25.222 -0.000116661 28.4748 1.35745 30.8731 3.77407Z" fill="#9D9393"/>
<path d="M12.7877 3.77402L3.74465 12.8869L12.7877 21.9998L21.8309 12.8869L12.7877 3.77402Z" fill="#B4B1B1"/>
<path d="M39.9167 31.1116L30.8743 21.9992L39.9174 12.8864C42.3155 15.3033 43.6626 18.5813 43.6625 21.9991C43.6624 25.417 42.315 28.6947 39.9167 31.1116Z" fill="#B4B1B1"/>
<path d="M12.7878 40.2254L21.8309 31.1125L30.8734 40.2248C28.4751 42.6416 25.2223 43.9994 21.8307 43.9995C18.439 43.9996 15.1862 42.6421 12.7878 40.2254Z" fill="#8C7C7C"/>
<path d="M30.8733 40.2247L39.9164 31.1118L30.8733 21.9989L21.8303 31.1118L30.8733 40.2247Z" fill="#9D9393"/>
<path d="M3.74498 31.1123L12.788 21.9995L21.8312 31.1123C19.4328 33.5292 16.1799 34.8871 12.788 34.8871C9.39626 34.8871 6.14336 33.5292 3.74498 31.1123Z" fill="#8C7C7C"/>
<path d="M39.9172 12.8864L30.8742 21.9993L21.8311 12.8864C24.2295 10.4695 27.4823 9.11172 30.8742 9.11172C34.266 9.11172 37.5189 10.4695 39.9172 12.8864Z" fill="#A1A1A1"/>
<path d="M21.8309 31.1117L12.7883 21.9993L21.8309 12.8869V31.1117Z" fill="#A2A2A2"/>
<path d="M30.8735 21.9993L21.8309 31.1117V12.8869L30.8735 21.9993Z" fill="#B4B1B1"/>
</g>
<defs>
<clipPath id="clip0_2439_1658">
<rect width="134" height="44" fill="white"/>
</clipPath>
</defs>
</svg>
