<svg width="136" height="56" viewBox="0 0 136 56" fill="none" xmlns="http://www.w3.org/2000/svg">
<g clip-path="url(#clip0_2442_1694)">
<path d="M28.0768 39.3732C21.6825 41.6825 14.5907 38.4495 12.2073 32.099C9.88212 25.7484 13.1374 18.7051 19.5317 16.3381C25.926 13.9711 33.0179 17.2618 35.4012 23.6124C36.3894 26.3258 36.3894 29.2701 35.4012 31.9835L43.0163 39.5464C49.585 29.0392 46.2715 15.1835 35.6337 8.65979C24.9959 2.13607 11.0447 5.48453 4.53415 16.0495C-1.97642 26.6144 1.27887 40.4701 11.9167 46.9361C19.1829 51.3814 28.3675 51.3814 35.6337 46.9361L28.0768 39.3732Z" fill="#9D9393"/>
<path d="M25.5191 36.833L22.2057 33.5423L29.5882 26.2103L32.9016 29.501L25.9841 29.9629L25.5191 36.833ZM40.5167 37.0639L33.5992 37.5258L33.1341 44.3959L35.6919 46.9361L36.1569 40.066L43.0163 39.6041L40.5167 37.0639ZM41.2142 45.0886L46.6785 44.7423L47.4923 43.934L45.6321 42.0866L38.7146 42.5484L38.2496 49.4185L40.1098 51.266L40.9236 50.4577L41.2142 45.0886ZM28.5419 32.5031L28.0768 39.3732L30.6346 41.9134L31.0996 35.0433L38.0171 34.5814L35.4593 31.9835L28.5419 32.5031Z" fill="#E0E0E0"/>
<path d="M63.4199 45.8969H55.9793V30.0783H63.0711C65.4545 30.0783 67.3728 31.4062 67.3728 33.7732C67.3728 35.2165 66.559 36.5443 65.2801 37.2371C67.024 37.8722 68.1285 39.5464 68.0703 41.3361C68.0122 43.8185 66.3264 45.8969 63.4199 45.8969ZM62.7224 31.6371H57.6069V36.7175H62.7224C64.35 36.7175 65.6289 35.6206 65.6289 33.9464C65.6289 32.2722 64.35 31.6371 62.7224 31.6371ZM63.3618 38.2763H57.6069V44.3381H63.3618C64.9894 44.3381 66.2102 43.1835 66.2102 41.3938C66.2683 39.5464 65.0476 38.2763 63.3618 38.2763Z" fill="#C5B8B8"/>
<path d="M80.2195 46.0701C79.0569 46.0701 78.0106 45.435 77.8943 43.9917C76.6736 45.7237 75.1041 46.1856 73.4183 46.1856C71.0931 46.1856 69.4073 44.8 69.4073 42.6062C69.4073 39.7196 71.8488 39.1423 73.5346 38.9113C75.8016 38.6227 77.7781 38.5072 77.7781 36.833C77.7781 35.3319 76.1504 34.8701 74.6972 34.8701C73.302 34.8701 72.0232 35.3319 70.9187 36.1979L70.0467 35.0433C71.3837 34.0041 72.9532 33.4268 74.639 33.4268C77.4874 33.4268 79.3476 34.6392 79.3476 37.2948V43.299C79.3476 44.3381 79.6382 44.8 80.452 44.8C80.6845 44.8 80.9752 44.7423 81.2077 44.6845L81.4402 45.9546C81.0915 46.0124 80.6846 46.0701 80.2195 46.0701ZM77.8943 38.7381C77.0805 39.7773 76.0341 39.835 73.8833 40.1814C72.2557 40.4124 71.035 40.8742 71.035 42.433C71.035 44.1072 72.3138 44.7423 73.8252 44.7423C75.8598 44.7423 77.8362 43.7031 77.8362 41.0474V38.7381H77.8943Z" fill="#C5B8B8"/>
<path d="M82.8935 45.8969V33.6577H84.4049V35.9093C85.4512 34.2928 86.9626 33.4268 88.7065 33.4268C91.7874 33.4268 93.1825 35.5051 93.1825 38.1031V45.8969H91.6711V38.5649C91.6711 36.3134 90.8573 34.8701 88.474 34.8701C86.265 34.8701 84.4049 36.6598 84.4049 39.2V45.8969H82.8935Z" fill="#C5B8B8"/>
<path d="M106.785 45.8969L100.1 39.2L105.913 33.5423H103.878L97.0191 40.4124V28.9814H95.5077V45.8969H97.0191V42.2598L99.0537 40.2392L104.75 45.8969H106.785Z" fill="#C5B8B8"/>
<path d="M41.2142 45.0887L46.6785 44.7423L40.8654 50.5155L41.2142 45.0887ZM45.574 42.0866L43.0163 39.6041L36.0988 40.066L35.6337 46.9361L38.1915 49.4763L38.6565 42.6062L45.574 42.0866ZM40.5167 37.0639L37.9589 34.5237L31.0415 34.9856L30.5764 41.8557L33.1341 44.3959L33.5992 37.5258L40.5167 37.0639ZM35.4593 31.9835L32.9016 29.4433L25.9841 29.9052L25.5191 36.7753L28.0768 39.3155L28.5419 32.4454L35.4593 31.9835Z" fill="#948A8A"/>
<path d="M80.0451 25.9794V24.8247C79.0569 25.7484 77.7781 26.268 76.3829 26.268C73.4183 26.268 72.0813 24.1319 72.0813 21.7649V13.1629H76.4411V20.7835C76.4411 21.6495 76.7898 22.4577 78.0687 22.4577C79.0569 22.4577 79.987 21.8804 79.987 20.5526V13.1629H84.3468V25.9794H80.0451ZM95.5077 25.9794V24.8247C94.5195 25.8062 93.1825 26.3258 91.8455 26.268C88.2415 26.268 85.9744 23.3814 85.9744 19.5711C85.9744 15.7608 88.2415 12.8742 91.8455 12.8742C93.2407 12.8742 94.5195 13.3938 95.5077 14.3175V9.00616H99.8675V25.9794H95.5077ZM93.0081 16.6268C91.3805 16.6268 90.5667 18.0701 90.5667 19.6866C90.5667 21.3031 91.3224 22.6309 93.0081 22.6309C94.6358 22.6309 95.5077 21.3031 95.5077 19.6866C95.5077 18.0123 94.6358 16.6268 93.0081 16.6268ZM108.413 26.268C104.111 26.268 101.321 23.6701 101.321 19.6288C101.321 15.5876 104.111 12.9319 108.413 12.9319C112.714 12.9319 115.504 15.5876 115.504 19.6288C115.504 23.6701 112.714 26.268 108.413 26.268ZM108.413 16.5113C106.785 16.5113 105.971 17.7814 105.971 19.6288C105.971 21.4763 106.785 22.7464 108.413 22.7464C110.04 22.7464 110.854 21.534 110.854 19.6288C110.854 17.7237 110.04 16.5113 108.413 16.5113ZM122.48 26.268C119.399 26.268 117.074 25.2288 115.853 22.8041L119.341 21.5917C120.039 22.7464 121.143 23.266 122.771 23.266C123.701 23.266 124.398 22.9196 124.398 22.2845C124.398 21.534 123.526 21.3031 122.015 21.1299C119.225 20.7835 116.493 20.1484 116.493 17.1464C116.493 14.3175 118.992 12.9897 122.248 12.9897C125.154 12.9897 127.189 14.0866 128.526 15.934L125.387 17.3773C124.631 16.4536 123.41 15.934 122.189 15.9917C121.434 15.9917 120.794 16.2227 120.794 16.9154C120.794 17.6082 121.55 17.7814 122.945 17.9546C126.607 18.3587 128.642 19.3979 128.642 22.0536C128.7 24.4783 126.491 26.268 122.48 26.268ZM70.6281 24.8247L68.9423 23.0928C69.9886 21.5917 70.5118 19.802 70.4537 18.0124C70.4537 13.0474 67.1984 9.69895 62.1411 9.69895C57.0837 9.69895 53.8285 13.0474 53.8285 18.0124C53.8285 22.9773 57.0837 26.268 62.1411 26.268C63.5362 26.268 64.9313 25.9794 66.2102 25.402L68.0703 27.3072L70.6281 24.8247ZM62.1411 22.3422C59.7577 22.3422 58.2463 20.4371 58.2463 17.9546C58.2463 15.4721 59.7577 13.567 62.1411 13.567C64.5244 13.567 66.0358 15.4721 66.0358 17.9546C66.0358 18.5897 65.9195 19.2247 65.687 19.802L63.8268 17.8969L61.2691 20.3794L63.0711 22.1691C62.7805 22.3422 62.4317 22.3422 62.1411 22.3422Z" fill="#C5B8B8"/>
</g>
<defs>
<clipPath id="clip0_2442_1694">
<rect width="136" height="56" fill="white"/>
</clipPath>
</defs>
</svg>
