<svg width="135" height="31" viewBox="0 0 135 31" fill="none" xmlns="http://www.w3.org/2000/svg">
<path fill-rule="evenodd" clip-rule="evenodd" d="M122.224 7.4322C127.506 4.07342 134.137 3.42851 134.137 3.42851C134.137 3.42851 127.101 11.4258 125.381 15.1207C124.85 16.7325 125.962 18.0436 125.962 18.0436C125.962 18.0436 122.88 14.5922 122.224 7.4322Z" fill="#A39494"/>
<path fill-rule="evenodd" clip-rule="evenodd" d="M124.511 6.17009C123.736 6.54093 122.967 6.95971 122.224 7.4322C122.558 11.0741 123.519 13.7566 124.383 15.5133C124.846 16.3308 125.286 17.0149 125.617 17.5037C125.449 17.1778 125.276 16.7234 125.243 16.1935C124.795 14.4793 124.384 11.4498 124.511 6.17009Z" fill="#A39494"/>
<path fill-rule="evenodd" clip-rule="evenodd" d="M117.488 10.5568C117.488 10.5568 117.14 9.33542 117.02 8.98315C116.698 8.03429 116.368 7.06959 116.368 5.4231C116.368 3.16534 120.213 0.756477 122.557 0C121.921 8.21692 122.845 10.7319 123.695 13.4632C125.708 20.1838 130.306 21.1556 130.76 21.6112C129.587 21.3579 130.257 21.9047 130.257 21.9047C130.257 21.9047 128.385 20.6027 124.617 19.5367C120.849 18.4708 117.909 18.3077 116.111 17.2862C114.726 16.2458 114.681 15.3982 114.023 14.8293C111.861 12.9604 106.417 12.1745 106.417 12.1745L111.101 12.9376C111.101 12.9376 111.744 12.9376 112.504 12.6647C112.668 12.6433 113.189 12.0487 114.319 12.4246C114.784 12.5777 114.653 12.7441 115.983 13.1184C117.67 13.5926 117.488 10.5568 117.488 10.5568Z" fill="#A39494"/>
<path fill-rule="evenodd" clip-rule="evenodd" d="M1.87386 24.7382C1.87386 29.5428 5.5364 30.1114 7.38186 30.1114C7.9497 30.1114 8.34718 30.0546 8.34718 30.0546V27.6096C8.34718 27.6096 8.09166 27.6664 7.69417 27.6664C6.64368 27.6664 4.62786 27.2969 4.62786 24.4254V18.0287H8.09166V15.8111H4.62786V11.6603H1.95903V15.8111H0V18.0287H1.87386V24.7382ZM10.8844 29.9977H13.6384V24.1127C13.6384 23.2314 13.7236 22.35 13.9791 21.5256C14.6321 19.3933 16.2504 18.1424 18.0107 18.1424C18.4366 18.1424 18.8057 18.2277 18.8057 18.2277V15.4984C18.8057 15.4984 18.465 15.4415 18.0959 15.4415C15.8813 15.4415 14.2062 17.0905 13.5532 19.1943H13.4964C13.4964 19.1943 13.5532 18.711 13.5532 18.114V15.6121H10.8844V29.9977ZM19.7301 25.9606C19.7301 28.8321 22.1434 30.3389 24.6135 30.3389C28.0489 30.3389 29.2129 27.4959 29.2129 27.4959H29.2697C29.2697 27.4959 29.2129 27.9792 29.2129 28.6331V29.9977H31.7682V20.9001C31.7682 17.2611 29.724 15.271 26.0898 15.271C22.7964 15.271 20.7238 16.9768 20.7238 16.9768L21.8595 18.9953C21.8595 18.9953 23.6481 17.6022 25.8627 17.6022C27.6798 17.6022 29.0142 18.3983 29.0142 20.758V21.0138H28.3896C25.9763 21.0138 19.7301 21.2128 19.7301 25.9606ZM22.5125 25.8185C22.5125 23.2314 26.2602 23.0892 28.3328 23.0892H29.0426V23.5441C29.0426 25.6763 27.5378 28.1213 25.2097 28.1213C23.421 28.1213 22.5125 26.9841 22.5125 25.8185ZM38.7345 29.9977H41.9144L47.2236 15.6121H44.3277L40.8355 25.3352C40.5516 26.1312 40.3528 27.2969 40.3244 27.2969H40.2676C40.2393 27.2969 40.0689 26.1312 39.785 25.3352L36.2928 15.6121H33.3684L38.7345 29.9977ZM47.9493 22.8049C47.9493 27.0694 51.044 30.3389 55.5583 30.3389C58.9937 30.3389 61.1231 28.2919 61.1231 28.2919L59.9874 26.2734C59.9874 26.2734 58.1987 27.9507 55.7286 27.9507C53.1734 27.9507 50.9304 26.3587 50.7885 23.2029H61.265C61.265 23.2029 61.3502 22.3785 61.3502 22.0089C61.3502 18.2845 59.1924 15.271 55.1324 15.271C51.044 15.271 47.9493 18.2277 47.9493 22.8049ZM50.8736 21.1275C51.2711 18.7679 52.9746 17.4601 55.0756 17.4601C56.9211 17.4601 58.4542 18.6541 58.5394 21.1275H50.8736ZM63.8929 26.0744C63.8929 29.685 66.1927 30.1114 67.7542 30.1114C68.2369 30.1114 68.6627 30.0546 68.6627 30.0546V27.6096C68.6627 27.6096 68.4356 27.638 68.1801 27.638C67.3283 27.638 66.6469 27.3253 66.6469 25.5911V9.92612H63.8929V26.0744ZM69.8994 22.7765C69.8994 27.1547 73.3632 30.3389 77.6504 30.3389C81.9375 30.3389 85.4013 27.1547 85.4013 22.7765C85.4013 18.4267 81.9375 15.271 77.6504 15.271C73.3632 15.271 69.8994 18.4267 69.8994 22.7765ZM72.7102 22.7765C72.7102 19.7913 74.9532 17.6591 77.6504 17.6591C80.376 17.6591 82.5906 19.7913 82.5906 22.7765C82.5906 25.7901 80.376 27.9507 77.6504 27.9507C74.9532 27.9507 72.7102 25.7901 72.7102 22.7765ZM88.1089 29.9977H90.8629V23.2314H92.9355L97.251 29.9977H100.459L95.15 22.0089V21.952L99.9199 15.6121H96.7968L92.8787 20.9001H90.8629V9.92612H88.1089V29.9977ZM101.242 25.9606C101.242 28.8321 103.655 30.3389 106.125 30.3389C109.561 30.3389 110.725 27.4959 110.725 27.4959H110.781C110.781 27.4959 110.725 27.9792 110.725 28.6331V29.9977H113.28V20.9001C113.28 17.2611 111.236 15.271 107.602 15.271C104.308 15.271 102.235 16.9768 102.235 16.9768L103.371 18.9953C103.371 18.9953 105.16 17.6022 107.374 17.6022C109.191 17.6022 110.526 18.3983 110.526 20.758V21.0138H109.901C107.488 21.0138 101.242 21.2128 101.242 25.9606ZM104.024 25.8185C104.024 23.2314 107.772 23.0892 109.844 23.0892H110.554V23.5441C110.554 25.6763 109.049 28.1213 106.721 28.1213C104.933 28.1213 104.024 26.9841 104.024 25.8185Z" fill="#A39494"/>
</svg>
