<svg width="74" height="59" viewBox="0 0 74 59" fill="none" xmlns="http://www.w3.org/2000/svg">
<path d="M47.918 29.6061C47.918 26.9144 45.7905 24.7302 43.1697 24.7302C40.5427 24.7302 38.4152 26.9144 38.4152 29.6061C38.4152 32.301 40.5427 34.482 43.1697 34.482C45.7905 34.482 47.918 32.2979 47.918 29.6061ZM43.1697 32.181C41.8192 32.181 40.7246 31.0274 40.7246 29.6061C40.7246 28.191 41.8192 27.0344 43.1697 27.0344C44.5171 27.0344 45.6117 28.188 45.6117 29.6061C45.6117 31.0274 44.5171 32.181 43.1697 32.181ZM13.6159 25.3885L10.7576 34.2267C10.7304 34.2997 10.6823 34.3632 10.6193 34.4091C10.5562 34.4551 10.481 34.4815 10.403 34.4851H10.144C10.0631 34.4808 9.98442 34.4567 9.91505 34.4148C9.84567 34.373 9.7877 34.3147 9.74627 34.2452L6.81709 28.631L3.88792 34.2452C3.84678 34.3143 3.78929 34.3723 3.72049 34.4141C3.65169 34.4559 3.57368 34.4803 3.49325 34.4851H3.23117C3.15317 34.4815 3.07795 34.4551 3.0149 34.4091C2.95184 34.3632 2.90374 34.2997 2.87659 34.2267L0.0183295 25.3885C-0.049504 25.1732 0.076913 25.0009 0.298914 25.0009H2.05025C2.19825 25.0009 2.35858 25.1178 2.40483 25.2593L3.85092 29.7261L6.33301 24.9702C6.37444 24.9007 6.43241 24.8424 6.50179 24.8005C6.57116 24.7587 6.64981 24.7345 6.73076 24.7302H6.90651C6.98747 24.7345 7.06611 24.7587 7.13549 24.8005C7.20486 24.8424 7.26283 24.9007 7.30426 24.9702L9.78635 29.7261L11.2294 25.2593C11.2571 25.1861 11.3057 25.1225 11.3693 25.0766C11.4329 25.0306 11.5086 25.0043 11.587 25.0009H13.3353C13.5604 25.0009 13.6868 25.1763 13.6159 25.3885ZM17.8339 33.8053C17.8343 33.8588 17.824 33.912 17.8038 33.9616C17.7835 34.0112 17.7536 34.0563 17.7158 34.0944C17.6779 34.1324 17.6329 34.1626 17.5833 34.1832C17.5338 34.2038 17.4806 34.2144 17.4269 34.2144H15.6632C15.6095 34.2144 15.5563 34.2038 15.5067 34.1832C15.4571 34.1626 15.4121 34.1324 15.3743 34.0944C15.3365 34.0563 15.3066 34.0112 15.2863 33.9616C15.266 33.912 15.2558 33.8588 15.2562 33.8053V25.407C15.2562 25.1824 15.4381 25.0009 15.6632 25.0009H17.4269C17.5348 25.0009 17.6383 25.0437 17.7147 25.1199C17.791 25.196 17.8339 25.2993 17.8339 25.407V33.8053ZM20.1186 25.407V38.6812C20.1186 38.9088 20.3036 39.0903 20.5256 39.0903H22.2924C22.3461 39.0903 22.3993 39.0797 22.4488 39.0591C22.4984 39.0385 22.5434 39.0083 22.5813 38.9703C22.6191 38.9323 22.649 38.8871 22.6693 38.8375C22.6896 38.7879 22.6998 38.7347 22.6994 38.6812V34.076C23.4455 34.3375 24.2719 34.482 25.1414 34.482C27.6173 34.482 29.6246 32.2979 29.6246 29.6061C29.6246 26.9144 27.6173 24.7302 25.1414 24.7302C23.9266 24.7302 22.8289 25.2563 22.021 26.1115L21.7065 25.2563C21.6758 25.1835 21.625 25.1209 21.5601 25.0757C21.4951 25.0305 21.4187 25.0046 21.3396 25.0009H20.5256C20.4177 25.0009 20.3142 25.0437 20.2378 25.1199C20.1615 25.196 20.1186 25.2993 20.1186 25.407ZM22.6994 28.1757C22.9008 27.833 23.1874 27.548 23.5314 27.348C23.8755 27.1481 24.2654 27.0401 24.6635 27.0344C25.9677 27.0344 27.0284 28.1849 27.0284 29.6061C27.0284 31.0274 25.9677 32.181 24.6635 32.181C23.9235 32.181 23.2451 31.9872 22.6994 31.658V28.1757ZM33.7223 34.2144H31.9587C31.8507 34.2144 31.7472 34.1716 31.6709 34.0955C31.5945 34.0193 31.5517 33.916 31.5517 33.8083V25.407C31.5517 25.1824 31.7336 25.0009 31.9587 25.0009H32.7727C32.9207 25.0009 33.0872 25.1148 33.1365 25.2563L33.451 26.1084C33.451 26.1084 34.4377 24.7302 36.1335 24.7302C37.8293 24.7302 38.0359 25.3147 37.8941 25.6377L37.2867 27.0067C37.2096 27.1851 37.0092 27.3143 36.7409 27.2097C36.2864 27.0317 35.7864 27.0053 35.3156 27.1345C34.8448 27.2637 34.4286 27.5416 34.1293 27.9265V33.8053C34.1293 33.9129 34.0864 34.0162 34.0101 34.0924C33.9338 34.1685 33.8303 34.2113 33.7223 34.2113V34.2144ZM48.1832 2.39642C48.3327 1.84222 48.6967 1.36991 49.195 1.08323C49.6934 0.796558 50.2854 0.71897 50.841 0.867512C51.1198 0.937903 51.3817 1.06285 51.6117 1.2351C51.8416 1.40734 52.035 1.62345 52.1805 1.87088C52.3261 2.11831 52.4209 2.39212 52.4595 2.67641C52.4981 2.96071 52.4796 3.24981 52.4053 3.52695C52.331 3.80408 52.2022 4.06371 52.0264 4.29077C51.8506 4.51783 51.6314 4.70778 51.3815 4.8496C51.1315 4.99141 50.8558 5.08227 50.5704 5.11689C50.2849 5.15151 49.9954 5.1292 49.7187 5.05125C49.1624 4.90203 48.6883 4.53861 48.4003 4.04084C48.1124 3.54306 48.0343 2.95162 48.1832 2.39642ZM53.875 10.9792C54.2493 11.1948 54.5226 11.5499 54.6347 11.9663C54.7469 12.3827 54.6888 12.8266 54.4732 13.2003C54.3662 13.3853 54.2238 13.5474 54.0539 13.6774C53.8841 13.8073 53.6903 13.9026 53.4835 13.9577C53.2767 14.0129 53.0611 14.0268 52.8489 13.9987C52.6368 13.9706 52.4322 13.9011 52.247 13.794C52.0614 13.6876 51.8986 13.5456 51.7681 13.3763C51.6375 13.207 51.5417 13.0136 51.4861 12.8073C51.4305 12.601 51.4163 12.3858 51.4442 12.174C51.4722 11.9622 51.5417 11.7579 51.6489 11.573C51.7558 11.388 51.8983 11.2259 52.0681 11.0959C52.2379 10.966 52.4318 10.8707 52.6386 10.8155C52.8453 10.7604 53.061 10.7465 53.2731 10.7746C53.4853 10.8027 53.6898 10.8722 53.875 10.9792ZM55.9224 44.7199C55.5914 44.3894 55.4054 43.9412 55.4054 43.474C55.4054 43.0068 55.5914 42.5586 55.9224 42.2281C56.0862 42.0642 56.2808 41.9342 56.4951 41.8455C56.7094 41.7567 56.9391 41.7111 57.1711 41.7111C57.4031 41.7111 57.6328 41.7567 57.8471 41.8455C58.0614 41.9342 58.2561 42.0642 58.4199 42.2281C58.7509 42.5586 58.9368 43.0068 58.9368 43.474C58.9368 43.9412 58.7509 44.3894 58.4199 44.7199C58.0886 45.0501 57.6394 45.2357 57.1711 45.2357C56.7028 45.2357 56.2537 45.0501 55.9224 44.7199ZM48.3466 22.0262C48.2477 22.1975 48.0845 22.3226 47.8931 22.374C47.7018 22.4253 47.4977 22.3987 47.326 22.3C47.1543 22.2012 47.0289 22.0385 46.9774 21.8475C46.926 21.6566 46.9527 21.4531 47.0516 21.2817C47.1506 21.1104 47.3137 20.9853 47.5051 20.9339C47.6965 20.8826 47.9005 20.9092 48.0722 21.0079C48.2439 21.1066 48.3693 21.2694 48.4208 21.4603C48.4722 21.6513 48.4456 21.8548 48.3466 22.0262ZM47.0516 37.7152C47.0026 37.6304 46.9708 37.5367 46.9581 37.4397C46.9454 37.3426 46.952 37.2439 46.9774 37.1494C47.0029 37.0548 47.0468 36.9662 47.1066 36.8886C47.1664 36.811 47.241 36.7458 47.326 36.697C47.4111 36.6481 47.5049 36.6164 47.6022 36.6037C47.6995 36.591 47.7984 36.5975 47.8931 36.623C47.9879 36.6484 48.0767 36.6922 48.1545 36.7519C48.2323 36.8115 48.2976 36.8859 48.3466 36.9707C48.3959 37.0554 48.4279 37.1488 48.441 37.2458C48.454 37.3428 48.4477 37.4414 48.4225 37.536C48.3973 37.6306 48.3537 37.7193 48.2941 37.797C48.2345 37.8747 48.1602 37.94 48.0753 37.989C47.9034 38.0872 47.6996 38.1135 47.5084 38.0622C47.3171 38.0109 47.154 37.8861 47.0547 37.7152H47.0516ZM58.5525 29.5015C58.5519 29.8161 58.4578 30.1234 58.2821 30.3846C58.1064 30.6458 57.8571 30.8492 57.5656 30.969C57.274 31.0888 56.9535 31.1197 56.6444 31.0577C56.3353 30.9958 56.0515 30.8437 55.829 30.6209C55.6065 30.398 55.4552 30.1144 55.3943 29.8057C55.3334 29.4971 55.3656 29.1774 55.4868 28.887C55.608 28.5966 55.8128 28.3486 56.0753 28.1744C56.3378 28.0001 56.6462 27.9074 56.9615 27.908C57.3842 27.908 57.7897 28.0756 58.0887 28.3739C58.3876 28.6721 58.5555 29.0767 58.5555 29.4985L58.5525 29.5015ZM54.9357 4.54674C55.0826 4.27562 55.2825 4.03665 55.5237 3.844C55.7648 3.65134 56.0422 3.50891 56.3395 3.42513C56.6368 3.34135 56.9479 3.31793 57.2544 3.35625C57.5609 3.39457 57.8566 3.49386 58.124 3.64823C58.3914 3.80261 58.625 4.00893 58.811 4.25499C58.997 4.50106 59.1317 4.78185 59.207 5.08076C59.2823 5.37967 59.2968 5.69061 59.2495 5.99519C59.2022 6.29977 59.0941 6.59178 58.9317 6.85395C58.6158 7.36392 58.1131 7.73095 57.5303 7.87711C56.9475 8.02327 56.3306 7.93706 55.8105 7.63677C55.2904 7.33649 54.9081 6.84577 54.7448 6.26883C54.5815 5.69188 54.6499 5.07413 54.9357 4.54674ZM38.1932 37.0784C38.2226 37.0217 38.2633 36.9715 38.3127 36.9309C38.3622 36.8903 38.4193 36.8601 38.4807 36.842C38.5422 36.824 38.6066 36.8186 38.6702 36.8261C38.7338 36.8335 38.7952 36.8538 38.8508 36.8855C38.9063 36.9173 38.9548 36.9599 38.9935 37.0109C39.0321 37.0618 39.0599 37.1201 39.0754 37.1821C39.0909 37.244 39.0937 37.3085 39.0835 37.3716C39.0734 37.4347 39.0505 37.495 39.0164 37.5491C38.9535 37.658 38.8497 37.7375 38.728 37.7701C38.6063 37.8027 38.4765 37.7857 38.3674 37.7229C38.2582 37.6601 38.1785 37.5566 38.1458 37.4351C38.1132 37.3137 38.1302 37.1843 38.1932 37.0753V37.0784ZM46.8389 10.0318C46.8866 9.83982 46.9722 9.6593 47.0907 9.50074C47.2092 9.34218 47.3581 9.20875 47.5288 9.10826C47.6996 9.00776 47.8886 8.94219 48.085 8.9154C48.2814 8.88861 48.4812 8.90112 48.6727 8.9522C48.8642 9.00329 49.0435 9.09192 49.2003 9.21293C49.3571 9.33394 49.4882 9.4849 49.5858 9.65699C49.6835 9.82909 49.7458 10.0189 49.7692 10.2153C49.7925 10.4117 49.7764 10.6107 49.7218 10.8008C49.6713 10.99 49.584 11.1673 49.4647 11.3228C49.3455 11.4782 49.1967 11.6087 49.0269 11.7067C48.857 11.8047 48.6695 11.8683 48.475 11.8939C48.2805 11.9195 48.0829 11.9067 47.8934 11.856C47.704 11.8053 47.5266 11.7179 47.3712 11.5988C47.2157 11.4797 47.0853 11.3312 46.9874 11.1618C46.8894 10.9924 46.8259 10.8054 46.8004 10.6115C46.775 10.4176 46.788 10.2206 46.8389 10.0318ZM43.145 16.7319C42.8927 16.7319 42.6508 16.6319 42.4724 16.4539C42.294 16.2759 42.1938 16.0346 42.1938 15.7829C42.1938 15.5312 42.294 15.2898 42.4724 15.1118C42.6508 14.9338 42.8927 14.8338 43.145 14.8338C43.3973 14.8338 43.6392 14.9338 43.8176 15.1118C43.996 15.2898 44.0962 15.5312 44.0962 15.7829C44.0962 16.0346 43.996 16.2759 43.8176 16.4539C43.6392 16.6319 43.3973 16.7319 43.145 16.7319ZM43.145 19.8451C43.3073 19.8451 43.463 19.9094 43.5778 20.0239C43.6926 20.1385 43.7571 20.2938 43.7571 20.4557C43.7571 20.6177 43.6926 20.773 43.5778 20.8875C43.463 21.002 43.3073 21.0664 43.145 21.0664C42.9831 21.0664 42.8278 21.0022 42.7133 20.888C42.5988 20.7737 42.5345 20.6188 42.5345 20.4573C42.5345 20.2957 42.5988 20.1408 42.7133 20.0266C42.8278 19.9123 42.9831 19.8482 43.145 19.8482V19.8451ZM43.145 11.1085C42.7852 11.1085 42.4401 10.9658 42.1857 10.712C41.9313 10.4582 41.7883 10.1139 41.7883 9.75489C41.7883 9.3959 41.9313 9.05162 42.1857 8.79777C42.4401 8.54393 42.7852 8.40133 43.145 8.40133C43.5048 8.40133 43.8499 8.54393 44.1043 8.79777C44.3587 9.05162 44.5017 9.3959 44.5017 9.75489C44.5017 10.1139 44.3587 10.4582 44.1043 10.712C43.8499 10.9658 43.5048 11.1085 43.145 11.1085ZM38.1901 21.9247C38.1428 21.8436 38.1207 21.7504 38.1266 21.6568C38.1325 21.5632 38.1661 21.4734 38.2232 21.3989C38.2802 21.3244 38.3582 21.2684 38.4471 21.2381C38.5361 21.2078 38.632 21.2045 38.7229 21.2287C38.8137 21.2529 38.8953 21.3034 38.9573 21.3738C39.0193 21.4443 39.059 21.5316 39.0713 21.6245C39.0836 21.7175 39.0679 21.812 39.0263 21.8961C38.9847 21.9802 38.919 22.0501 38.8376 22.0969C38.7288 22.1595 38.5995 22.1765 38.4782 22.1442C38.3568 22.1119 38.2532 22.033 38.1901 21.9247ZM43.145 39.158C42.9831 39.158 42.8278 39.0938 42.7133 38.9796C42.5988 38.8654 42.5345 38.7104 42.5345 38.5489C42.5345 38.3873 42.5988 38.2324 42.7133 38.1182C42.8278 38.0039 42.9831 37.9398 43.145 37.9398C43.3069 37.9398 43.4622 38.0039 43.5767 38.1182C43.6912 38.2324 43.7555 38.3873 43.7555 38.5489C43.7555 38.7104 43.6912 38.8654 43.5767 38.9796C43.4622 39.0938 43.3069 39.158 43.145 39.158ZM43.145 42.2743C43.3969 42.2743 43.6384 42.3741 43.8165 42.5518C43.9946 42.7295 44.0947 42.9705 44.0947 43.2218C44.0947 43.473 43.9946 43.714 43.8165 43.8917C43.6384 44.0694 43.3969 44.1692 43.145 44.1692C42.8931 44.1692 42.6516 44.0694 42.4735 43.8917C42.2954 43.714 42.1953 43.473 42.1953 43.2218C42.1953 42.9705 42.2954 42.7295 42.4735 42.5518C42.6516 42.3741 42.8931 42.2743 43.145 42.2743ZM53.9182 35.6941C54.0076 35.54 54.1265 35.4051 54.2682 35.2969C54.4099 35.1888 54.5716 35.1096 54.744 35.0639C54.9164 35.0182 55.0961 35.0068 55.2729 35.0305C55.4498 35.0542 55.6202 35.1124 55.7744 35.2019C56.0846 35.3819 56.3106 35.6772 56.4031 36.0231C56.4955 36.3691 56.4469 36.7374 56.2677 37.0477C56.0851 37.3531 55.7893 37.5746 55.4443 37.6642C55.0994 37.7537 54.7329 37.7043 54.4242 37.5264C54.1155 37.3486 53.8893 37.0566 53.7946 36.7138C53.7 36.3709 53.7443 36.0046 53.9182 35.6941ZM43.145 47.8946C43.5048 47.8946 43.8499 48.0372 44.1043 48.2911C44.3587 48.5449 44.5017 48.8892 44.5017 49.2482C44.5017 49.6072 44.3587 49.9515 44.1043 50.2053C43.8499 50.4591 43.5048 50.6018 43.145 50.6018C42.7852 50.6018 42.4401 50.4591 42.1857 50.2053C41.9313 49.9515 41.7883 49.6072 41.7883 49.2482C41.7883 48.8892 41.9313 48.5449 42.1857 48.2911C42.4401 48.0372 42.7852 47.8946 43.145 47.8946ZM72.6742 21.614C72.7758 21.9917 72.8019 22.3857 72.7509 22.7734C72.6999 23.1612 72.5729 23.5352 72.377 23.874C72.1812 24.2128 71.9204 24.5098 71.6095 24.748C71.2986 24.9862 70.9437 25.161 70.5652 25.2624C70.1866 25.3638 69.7917 25.3898 69.403 25.339C69.0143 25.2881 68.6395 25.1613 68.2999 24.966C67.9604 24.7706 67.6627 24.5104 67.4239 24.2002C67.1852 23.89 67.0099 23.536 66.9083 23.1582C66.7031 22.3954 66.8099 21.5824 67.2055 20.8982C67.601 20.214 68.2527 19.7146 69.0173 19.5098C69.7819 19.305 70.5967 19.4116 71.2825 19.8062C71.9683 20.2008 72.4689 20.8511 72.6742 21.614ZM52.0343 40.0778C51.8091 39.8486 51.6837 39.5399 51.6853 39.219C51.687 38.898 51.8155 38.5907 52.043 38.3637C52.2704 38.1368 52.5785 38.0086 52.9002 38.0069C53.2219 38.0053 53.5312 38.1304 53.761 38.3551C53.9899 38.5835 54.1185 38.8934 54.1185 39.2164C54.1185 39.5395 53.9899 39.8493 53.761 40.0778C53.532 40.3062 53.2214 40.4346 52.8976 40.4346C52.5738 40.4346 52.2633 40.3062 52.0343 40.0778ZM55.0375 26.3268C54.9357 25.9458 54.9896 25.5401 55.1873 25.1987C55.385 24.8573 55.7103 24.608 56.092 24.5057C56.2825 24.4512 56.482 24.4351 56.6789 24.4584C56.8757 24.4817 57.0659 24.5439 57.2384 24.6413C57.4109 24.7387 57.5622 24.8695 57.6835 25.0259C57.8048 25.1823 57.8936 25.3613 57.9448 25.5524C57.996 25.7434 58.0086 25.9427 57.9817 26.1387C57.9548 26.3346 57.8891 26.5233 57.7884 26.6936C57.6877 26.8639 57.554 27.0125 57.395 27.1307C57.2361 27.2489 57.0552 27.3343 56.8628 27.382C56.4809 27.4835 56.0743 27.4297 55.7321 27.2325C55.3899 27.0353 55.1401 26.7107 55.0375 26.3299V26.3268ZM59.3757 17.9747C59.8112 17.7412 60.3207 17.6861 60.7963 17.8209C61.2719 17.9558 61.6762 18.2701 61.9235 18.6972C62.1708 19.1243 62.2418 19.6307 62.1213 20.1091C62.0008 20.5876 61.6984 21.0004 61.2781 21.2602C60.8426 21.4937 60.3331 21.5488 59.8575 21.414C59.3819 21.2791 58.9777 20.9648 58.7304 20.5377C58.483 20.1106 58.4121 19.6042 58.5326 19.1257C58.653 18.6473 58.9554 18.2345 59.3757 17.9747ZM58.4199 16.7719C58.2561 16.9358 58.0614 17.0658 57.8471 17.1545C57.6328 17.2432 57.4031 17.2889 57.1711 17.2889C56.9391 17.2889 56.7094 17.2432 56.4951 17.1545C56.2808 17.0658 56.0862 16.9358 55.9224 16.7719C55.5914 16.4414 55.4054 15.9932 55.4054 15.526C55.4054 15.0588 55.5914 14.6106 55.9224 14.2801C56.0862 14.1162 56.2808 13.9862 56.4951 13.8975C56.7094 13.8087 56.9391 13.7631 57.1711 13.7631C57.4031 13.7631 57.6328 13.8087 57.8471 13.8975C58.0614 13.9862 58.2561 14.1162 58.4199 14.2801C58.7509 14.6106 58.9368 15.0588 58.9368 15.526C58.9368 15.9932 58.7509 16.4414 58.4199 16.7719ZM55.0375 32.667C55.1452 32.2919 55.3963 31.9739 55.7367 31.7816C56.0771 31.5893 56.4796 31.5381 56.8575 31.6389C57.2354 31.7397 57.5585 31.9845 57.7573 32.3206C57.9561 32.6568 58.0147 33.0573 57.9204 33.4361C57.8726 33.628 57.787 33.8086 57.6685 33.9671C57.5501 34.1257 57.4011 34.2591 57.2304 34.3596C57.0597 34.4601 56.8706 34.5257 56.6742 34.5525C56.4778 34.5792 56.278 34.5667 56.0866 34.5157C55.8951 34.4646 55.7157 34.3759 55.5589 34.2549C55.4021 34.1339 55.2711 33.983 55.1734 33.8109C55.0757 33.6388 55.0134 33.449 54.9901 33.2526C54.9667 33.0562 54.9828 32.8571 55.0375 32.667ZM45.7258 15.9782C45.7601 15.8493 45.8196 15.7284 45.9008 15.6225C45.9821 15.5165 46.0834 15.4276 46.1991 15.3607C46.3148 15.2939 46.4425 15.2504 46.5751 15.2329C46.7076 15.2153 46.8423 15.224 46.9714 15.2584C47.2323 15.3277 47.4549 15.4976 47.5902 15.7307C47.7255 15.9638 47.7624 16.2409 47.6929 16.5012C47.6234 16.7614 47.4531 16.9835 47.2195 17.1185C46.9859 17.2535 46.7081 17.2904 46.4473 17.221C46.3181 17.1867 46.1969 17.1274 46.0907 17.0463C45.9845 16.9653 45.8954 16.8642 45.8284 16.7488C45.7614 16.6334 45.7178 16.5059 45.7002 16.3737C45.6826 16.2415 45.6913 16.1071 45.7258 15.9782ZM65.675 13.4095C65.9835 13.2312 66.3242 13.1153 66.6776 13.0684C67.031 13.0215 67.3902 13.0446 67.7347 13.1363C68.0792 13.228 68.4022 13.3865 68.6852 13.6029C68.9683 13.8192 69.2058 14.089 69.3842 14.397C69.5626 14.705 69.6784 15.0451 69.725 15.3978C69.7717 15.7505 69.7482 16.1089 69.656 16.4525C69.5638 16.7962 69.4047 17.1183 69.1877 17.4006C68.9707 17.6829 68.7001 17.9198 68.3914 18.0978C68.0827 18.2757 67.7418 18.3913 67.3883 18.4378C67.0348 18.4843 66.6756 18.4609 66.3312 18.3689C65.9867 18.277 65.6638 18.1182 65.3809 17.9017C65.0979 17.6852 64.8605 17.4152 64.6821 17.1072C64.3224 16.4855 64.2249 15.7467 64.4111 15.0532C64.5973 14.3598 65.0519 13.7685 65.675 13.4095ZM56.2708 21.9523C56.3629 22.1064 56.4234 22.2772 56.4488 22.4547C56.4741 22.6323 56.4639 22.8131 56.4186 22.9867C56.3733 23.1603 56.2939 23.3232 56.185 23.4659C56.076 23.6086 55.9398 23.7282 55.7841 23.8179C55.6284 23.9076 55.4564 23.9656 55.2781 23.9884C55.0997 24.0111 54.9186 23.9983 54.7453 23.9507C54.572 23.9031 54.4099 23.8215 54.2684 23.7108C54.127 23.6001 54.009 23.4625 53.9213 23.3059C53.8322 23.1518 53.7744 22.9817 53.7512 22.8053C53.7281 22.6289 53.7399 22.4496 53.7862 22.2778C53.8324 22.106 53.9121 21.9449 54.0207 21.8039C54.1294 21.6628 54.2648 21.5444 54.4192 21.4555C54.5737 21.3666 54.7442 21.309 54.921 21.2859C55.0978 21.2627 55.2775 21.2746 55.4497 21.3207C55.6219 21.3668 55.7833 21.4464 55.9247 21.5547C56.0662 21.6631 56.1848 21.7982 56.2739 21.9523H56.2708ZM60.3531 24.9056C60.2137 24.3859 60.2867 23.8322 60.5561 23.3661C60.8255 22.9001 61.2693 22.5598 61.79 22.4199C62.3113 22.2804 62.8668 22.3532 63.3343 22.6224C63.8018 22.8915 64.143 23.3349 64.2829 23.855C64.4227 24.3751 64.3497 24.9294 64.08 25.3958C63.8102 25.8623 63.3658 26.2027 62.8445 26.3422C62.3232 26.4812 61.7678 26.408 61.3006 26.1386C60.8335 25.8692 60.4926 25.4257 60.3531 24.9056ZM60.3531 34.0914C60.4185 33.8299 60.5354 33.584 60.6971 33.368C60.8587 33.1521 61.0618 32.9704 61.2945 32.8336C61.5272 32.6968 61.7849 32.6075 62.0526 32.5711C62.3202 32.5347 62.5924 32.5518 62.8534 32.6214C63.1144 32.6911 63.3588 32.8118 63.5725 32.9767C63.7862 33.1416 63.9648 33.3472 64.098 33.5817C64.2312 33.8161 64.3163 34.0747 64.3483 34.3423C64.3803 34.6099 64.3586 34.8812 64.2844 35.1404C64.219 35.4019 64.1021 35.6477 63.9405 35.8637C63.7788 36.0796 63.5758 36.2613 63.343 36.3981C63.1103 36.5349 62.8526 36.6242 62.585 36.6606C62.3173 36.697 62.0451 36.6799 61.7841 36.6103C61.5232 36.5407 61.2787 36.4199 61.065 36.255C60.8514 36.0902 60.6727 35.8845 60.5395 35.65C60.4063 35.4156 60.3212 35.157 60.2892 34.8894C60.2572 34.6218 60.279 34.3505 60.3531 34.0914ZM63.0017 31.8272C62.3827 31.8272 61.789 31.5819 61.3513 31.1451C60.9135 30.7084 60.6676 30.1161 60.6676 29.4985C60.6676 28.8808 60.9135 28.2885 61.3513 27.8518C61.789 27.4151 62.3827 27.1697 63.0017 27.1697C63.6208 27.1697 64.2144 27.4151 64.6522 27.8518C65.0899 28.2885 65.3358 28.8808 65.3358 29.4985C65.3358 30.1161 65.0899 30.7084 64.6522 31.1451C64.2144 31.5819 63.6208 31.8272 63.0017 31.8272ZM60.9174 11.7883C60.6902 11.562 60.5099 11.2932 60.387 10.9974C60.264 10.7015 60.2007 10.3844 60.2007 10.0641C60.2007 9.74375 60.264 9.4266 60.387 9.13073C60.5099 8.83486 60.6902 8.56609 60.9174 8.3398C61.1442 8.11312 61.4136 7.93329 61.7101 7.81059C62.0067 7.68789 62.3246 7.62474 62.6456 7.62474C62.9666 7.62474 63.2845 7.68789 63.5811 7.81059C63.8776 7.93329 64.147 8.11312 64.3738 8.3398C64.7937 8.80406 65.0189 9.4115 65.0029 10.0367C64.9868 10.6618 64.7308 11.257 64.2875 11.6992C63.8443 12.1414 63.2478 12.3969 62.6212 12.4129C61.9946 12.4289 61.3858 12.2042 60.9205 11.7852L60.9174 11.7883ZM50.9798 18.147C50.8354 18.3958 50.5979 18.5773 50.3195 18.6514C50.0411 18.7255 49.7446 18.6863 49.4952 18.5423C49.2457 18.3983 49.0639 18.1613 48.9896 17.8835C48.9153 17.6058 48.9546 17.3099 49.0989 17.0611C49.2429 16.8122 49.48 16.6306 49.7581 16.5562C49.8958 16.5193 50.0395 16.5099 50.1808 16.5284C50.3222 16.547 50.4585 16.5931 50.582 16.6642C50.7055 16.7353 50.8138 16.83 50.9006 16.9428C50.9874 17.0557 51.0511 17.1845 51.0881 17.3219C51.125 17.4593 51.1344 17.6026 51.1159 17.7436C51.0973 17.8847 51.051 18.0207 50.9798 18.1439V18.147ZM49.0095 35.3311C49.0852 35.2554 49.175 35.1953 49.274 35.1543C49.3729 35.1133 49.479 35.0922 49.5861 35.0922C49.6932 35.0922 49.7993 35.1133 49.8983 35.1543C49.9972 35.1953 50.0871 35.2554 50.1627 35.3311C50.3143 35.4837 50.3993 35.6899 50.3993 35.9048C50.3993 36.1197 50.3143 36.3259 50.1627 36.4785C50.0871 36.5543 49.9972 36.6143 49.8983 36.6553C49.7993 36.6963 49.6932 36.7174 49.5861 36.7174C49.479 36.7174 49.3729 36.6963 49.274 36.6553C49.175 36.6143 49.0852 36.5543 49.0095 36.4785C48.8572 36.3263 48.7717 36.1199 48.7717 35.9048C48.7717 35.6897 48.8572 35.4834 49.0095 35.3311ZM49.0095 22.5122C49.0852 22.4365 49.175 22.3764 49.274 22.3354C49.3729 22.2945 49.479 22.2734 49.5861 22.2734C49.6932 22.2734 49.7993 22.2945 49.8983 22.3354C49.9972 22.3764 50.0871 22.4365 50.1627 22.5122C50.2762 22.6259 50.3535 22.7706 50.3847 22.9281C50.4159 23.0856 50.3996 23.2487 50.3379 23.3969C50.2762 23.5452 50.1719 23.6718 50.0381 23.761C49.9042 23.8501 49.747 23.8976 49.5861 23.8976C49.4252 23.8976 49.268 23.8501 49.1342 23.761C49.0004 23.6718 48.896 23.5452 48.8343 23.3969C48.7726 23.2487 48.7564 23.0856 48.7875 22.9281C48.8187 22.7706 48.896 22.6259 49.0095 22.5122ZM50.5974 34.7927C50.3951 34.6756 50.2474 34.4834 50.1868 34.258C50.1261 34.0326 50.1574 33.7924 50.2737 33.5899C50.3315 33.4896 50.4086 33.4017 50.5005 33.3312C50.5924 33.2607 50.6974 33.209 50.8093 33.179C50.9213 33.149 51.0381 33.1413 51.1531 33.1564C51.2681 33.1715 51.3789 33.209 51.4793 33.2669C51.6821 33.3836 51.8301 33.5758 51.8908 33.8014C51.9516 34.027 51.92 34.2674 51.803 34.4697C51.6861 34.6721 51.4934 34.8198 51.2673 34.8803C51.0412 34.9409 50.8002 34.9094 50.5974 34.7927ZM49.0989 41.9297C48.9559 41.6812 48.9174 41.3862 48.992 41.1094C49.0665 40.8326 49.248 40.5966 49.4967 40.4531C49.7457 40.3091 50.0418 40.2697 50.32 40.3436C50.5981 40.4174 50.8354 40.5985 50.9798 40.8469C51.0511 40.9701 51.0974 41.1061 51.116 41.2471C51.1346 41.3882 51.1252 41.5315 51.0882 41.6689C51.0513 41.8064 50.9876 41.9352 50.9007 42.048C50.8139 42.1608 50.7056 42.2555 50.582 42.3266C50.4585 42.3977 50.3222 42.4439 50.1808 42.4625C50.0395 42.481 49.8958 42.4716 49.7581 42.4348C49.6203 42.3979 49.4912 42.3343 49.3781 42.2477C49.265 42.161 49.1702 42.053 49.0989 41.9297ZM51.803 24.521C51.861 24.6212 51.8987 24.7318 51.9138 24.8465C51.9289 24.9612 51.9212 25.0777 51.8912 25.1894C51.8611 25.3012 51.8092 25.4059 51.7386 25.4976C51.6679 25.5893 51.5798 25.6662 51.4793 25.7239C51.2763 25.8399 51.0356 25.8711 50.8097 25.8106C50.5838 25.7501 50.3911 25.6027 50.2737 25.4009C50.2158 25.3007 50.1782 25.1901 50.1632 25.0754C50.1481 24.9607 50.1558 24.8442 50.1859 24.7325C50.216 24.6209 50.2678 24.5162 50.3384 24.4244C50.409 24.3327 50.497 24.2558 50.5974 24.198C50.8002 24.0814 51.0412 24.0498 51.2673 24.1104C51.3792 24.1404 51.4842 24.1921 51.5761 24.2626C51.668 24.333 51.7451 24.4208 51.803 24.521ZM51.0353 27.3943C51.0029 27.2739 50.9946 27.1483 51.0108 27.0247C51.0271 26.9011 51.0676 26.782 51.13 26.674C51.1924 26.566 51.2755 26.4713 51.3746 26.3954C51.4737 26.3195 51.5868 26.2638 51.7075 26.2314C51.8281 26.1991 51.954 26.1908 52.0778 26.2071C52.2017 26.2233 52.3212 26.2637 52.4294 26.3259C52.5376 26.3882 52.6325 26.4711 52.7086 26.57C52.7847 26.6688 52.8406 26.7817 52.873 26.9021C52.9384 27.1452 52.9043 27.4043 52.7783 27.6224C52.6522 27.8405 52.4445 27.9996 52.2008 28.0649C51.9571 28.1302 51.6974 28.0962 51.4788 27.9704C51.2602 27.8447 51.1007 27.6374 51.0353 27.3943ZM51.0353 31.5965C51.1007 31.3534 51.2602 31.1461 51.4788 31.0203C51.6974 30.8946 51.9571 30.8606 52.2008 30.9259C52.4445 30.9911 52.6522 31.1503 52.7783 31.3684C52.9043 31.5865 52.9384 31.8456 52.873 32.0887C52.8406 32.2091 52.7847 32.3219 52.7086 32.4208C52.6325 32.5196 52.5376 32.6026 52.4294 32.6648C52.3212 32.7271 52.2017 32.7675 52.0778 32.7837C51.954 32.7999 51.8281 32.7916 51.7075 32.7593C51.5868 32.727 51.4737 32.6713 51.3746 32.5954C51.2755 32.5194 51.1924 32.4248 51.13 32.3168C51.0676 32.2088 51.0271 32.0896 51.0108 31.966C50.9946 31.8424 51.0029 31.7169 51.0353 31.5965ZM52.2717 30.5321C52.1307 30.5398 51.9896 30.5187 51.857 30.4701C51.7245 30.4216 51.6032 30.3466 51.5007 30.2497C51.3981 30.1528 51.3164 30.0361 51.2606 29.9067C51.2048 29.7772 51.176 29.6378 51.176 29.4969C51.176 29.356 51.2048 29.2166 51.2606 29.0872C51.3164 28.9578 51.3981 28.841 51.5007 28.7442C51.6032 28.6473 51.7245 28.5723 51.857 28.5237C51.9896 28.4752 52.1307 28.4541 52.2717 28.4618C52.5371 28.4762 52.7868 28.5916 52.9696 28.7841C53.1524 28.9766 53.2542 29.2317 53.2542 29.4969C53.2542 29.7621 53.1524 30.0172 52.9696 30.2097C52.7868 30.4023 52.5371 30.5177 52.2717 30.5321ZM53.761 18.9191C53.8745 19.0322 53.9647 19.1666 54.0262 19.3144C54.0878 19.4623 54.1195 19.6208 54.1196 19.7809C54.1198 19.9411 54.0883 20.0996 54.027 20.2476C53.9658 20.3956 53.8759 20.5301 53.7625 20.6434C53.6491 20.7567 53.5145 20.8466 53.3663 20.908C53.2181 20.9694 53.0592 21.0011 52.8987 21.0013C52.7382 21.0014 52.5793 20.97 52.431 20.9089C52.2827 20.8477 52.1479 20.758 52.0343 20.6449C51.8091 20.4157 51.6837 20.1071 51.6853 19.7861C51.687 19.4652 51.8155 19.1578 52.043 18.9309C52.2704 18.7039 52.5785 18.5757 52.9002 18.5741C53.2219 18.5725 53.5312 18.6976 53.761 18.9222V18.9191ZM30.8949 54.1487C30.6608 54.5531 30.2753 54.8483 29.8233 54.9694C29.3712 55.0905 28.8894 55.0277 28.4837 54.7947C28.0912 54.5545 27.8083 54.1708 27.6951 53.7255C27.5819 53.2802 27.6475 52.8084 27.8778 52.4106C28.1081 52.0128 28.485 51.7204 28.9282 51.5957C29.3713 51.471 29.8458 51.5239 30.2505 51.7431C30.6558 51.9767 30.9516 52.3612 31.073 52.8122C31.1944 53.2633 31.1315 53.7439 30.898 54.1487H30.8949ZM45.6764 20.1004C45.7625 20.1234 45.8431 20.1632 45.9138 20.2173C45.9845 20.2714 46.0437 20.3389 46.0883 20.4159C46.1328 20.4929 46.1617 20.5778 46.1733 20.666C46.1849 20.7541 46.179 20.8436 46.1559 20.9295C46.1328 21.0153 46.093 21.0958 46.0388 21.1663C45.9845 21.2368 45.9169 21.2959 45.8397 21.3404C45.7626 21.3848 45.6774 21.4136 45.5891 21.4252C45.5007 21.4368 45.411 21.4309 45.3249 21.4078C45.1512 21.3613 45.003 21.2479 44.9131 21.0924C44.8232 20.9369 44.7989 20.7522 44.8455 20.5788C44.8921 20.4054 45.0058 20.2576 45.1617 20.1679C45.3175 20.0782 45.5027 20.0539 45.6764 20.1004ZM37.8478 56.5144C37.717 56.9998 37.3982 57.4135 36.9617 57.6645C36.5251 57.9154 36.0065 57.9831 35.5199 57.8525C35.0333 57.722 34.6187 57.404 34.3672 56.9684C34.1156 56.5328 34.0478 56.0154 34.1787 55.53C34.2434 55.2896 34.355 55.0643 34.5071 54.867C34.6591 54.6696 34.8487 54.5041 35.0648 54.3798C35.281 54.2556 35.5196 54.175 35.767 54.1427C36.0143 54.1105 36.2657 54.1271 36.5066 54.1918C36.7475 54.2564 36.9733 54.3678 37.1711 54.5195C37.3689 54.6712 37.5348 54.8603 37.6593 55.0759C37.7839 55.2916 37.8646 55.5296 37.897 55.7764C37.9293 56.0232 37.9126 56.274 37.8478 56.5144ZM45.6764 38.8996C45.5902 38.9226 45.5002 38.9285 45.4117 38.9168C45.3232 38.9051 45.2379 38.8762 45.1606 38.8316C45.0833 38.7871 45.0155 38.7278 44.9612 38.6571C44.9069 38.5864 44.867 38.5057 44.8439 38.4197C44.8209 38.3336 44.815 38.2439 44.8267 38.1556C44.8383 38.0673 44.8674 37.9821 44.912 37.905C44.9567 37.8279 45.0161 37.7603 45.087 37.7061C45.1578 37.6519 45.2387 37.6121 45.3249 37.5891C45.4991 37.5426 45.6847 37.567 45.8408 37.657C45.9969 37.747 46.1108 37.8952 46.1574 38.069C46.204 38.2428 46.1796 38.4279 46.0894 38.5837C45.9991 38.7394 45.8506 38.8531 45.6764 38.8996ZM45.1831 56.9697C45.1831 57.5081 44.9687 58.0246 44.5871 58.4053C44.2054 58.7861 43.6878 59 43.1481 59C42.8806 59.0004 42.6156 58.9482 42.3684 58.8463C42.1211 58.7445 41.8964 58.595 41.7071 58.4064C41.5178 58.2178 41.3677 57.9939 41.2652 57.7473C41.1627 57.5008 41.11 57.2365 41.11 56.9697C41.11 56.4312 41.3244 55.9147 41.706 55.534C42.0877 55.1532 42.6053 54.9393 43.145 54.9393C43.6847 54.9393 44.2023 55.1532 44.584 55.534C44.9656 55.9147 45.18 56.4312 45.18 56.9697H45.1831ZM40.6506 38.7519C40.512 38.7138 40.3941 38.6225 40.3225 38.4981C40.2509 38.3737 40.2314 38.2261 40.2683 38.0874C40.3065 37.9491 40.3979 37.8315 40.5226 37.7601C40.6473 37.6886 40.7953 37.6692 40.9343 37.706C41.0733 37.7435 41.1917 37.8346 41.2634 37.9592C41.3351 38.0838 41.3542 38.2318 41.3166 38.3705C41.279 38.5092 41.1877 38.6273 41.0628 38.6988C40.9379 38.7703 40.7896 38.7894 40.6506 38.7519ZM40.4348 42.9695C40.3742 43.1951 40.2264 43.3875 40.0237 43.5043C39.821 43.6211 39.5802 43.6528 39.354 43.5924C39.1279 43.5321 38.9351 43.3845 38.818 43.1823C38.7009 42.9801 38.6692 42.7398 38.7297 42.5142C38.7977 42.2977 38.9471 42.1157 39.1464 42.0064C39.3458 41.8971 39.5797 41.8689 39.7995 41.9277C40.0192 41.9865 40.2076 42.1277 40.3254 42.3218C40.4432 42.516 40.4813 42.748 40.4317 42.9695H40.4348ZM31.8137 35.9771C31.9007 36.1324 31.9229 36.3155 31.8755 36.4869C31.8282 36.6584 31.7151 36.8043 31.5607 36.8933C31.4064 36.9822 31.2232 37.0069 31.0507 36.9621C30.8782 36.9173 30.7303 36.8066 30.639 36.6539C30.5494 36.4988 30.5251 36.3146 30.5713 36.1416C30.6175 35.9687 30.7306 35.821 30.8857 35.731C30.9628 35.6863 31.048 35.6572 31.1364 35.6453C31.2248 35.6335 31.3146 35.6391 31.4009 35.662C31.4871 35.6849 31.5679 35.7245 31.6387 35.7785C31.7096 35.8326 31.7691 35.9001 31.8137 35.9771ZM36.9629 41.7667C36.9112 41.8623 36.8408 41.9466 36.7559 42.0146C36.6709 42.0826 36.5732 42.1329 36.4684 42.1626C36.3637 42.1922 36.254 42.2005 36.1459 42.1871C36.0378 42.1737 35.9336 42.1388 35.8393 42.0844C35.745 42.0301 35.6626 41.9574 35.5969 41.8707C35.5313 41.784 35.4837 41.685 35.4571 41.5797C35.4305 41.4743 35.4254 41.3647 35.442 41.2573C35.4586 41.1499 35.4966 41.047 35.5538 40.9545C35.6618 40.7677 35.8397 40.6313 36.0484 40.5753C36.2572 40.5194 36.4796 40.5484 36.6669 40.6561C36.8542 40.7638 36.9909 40.9413 37.047 41.1496C37.1031 41.3579 37.0739 41.5798 36.966 41.7667H36.9629ZM37.0092 36.1525C36.9327 36.2287 36.829 36.2716 36.7209 36.2716C36.6127 36.2716 36.509 36.2287 36.4326 36.1525C36.3561 36.0762 36.3132 35.9727 36.3132 35.8648C36.3132 35.7569 36.3561 35.6535 36.4326 35.5772C36.5093 35.5015 36.6129 35.459 36.7209 35.459C36.8288 35.459 36.9324 35.5015 37.0092 35.5772C37.085 35.6538 37.1276 35.7571 37.1276 35.8648C37.1276 35.9725 37.085 36.0759 37.0092 36.1525ZM33.9382 38.6442C34.0074 38.7135 34.0623 38.7957 34.0997 38.8862C34.1371 38.9766 34.1562 39.0735 34.1561 39.1714C34.156 39.2692 34.1365 39.3661 34.0988 39.4564C34.0612 39.5467 34.0061 39.6288 33.9366 39.6979C33.8672 39.767 33.7848 39.8217 33.6941 39.859C33.6035 39.8963 33.5063 39.9155 33.4083 39.9153C33.3102 39.9152 33.2131 39.8958 33.1226 39.8582C33.0321 39.8206 32.9498 39.7656 32.8806 39.6963C32.7409 39.5567 32.6624 39.3675 32.6624 39.1703C32.6624 38.973 32.7409 38.7838 32.8806 38.6442C32.9499 38.5748 33.0323 38.5196 33.1231 38.482C33.2138 38.4444 33.3111 38.425 33.4094 38.425C33.5076 38.425 33.6049 38.4444 33.6957 38.482C33.7864 38.5196 33.8688 38.5748 33.9382 38.6442ZM34.1787 47.1225C34.1074 47.2457 34.0126 47.3538 33.8995 47.4404C33.7864 47.5271 33.6573 47.5907 33.5195 47.6275C33.3818 47.6644 33.2381 47.6738 33.0968 47.6552C32.9554 47.6367 32.8191 47.5905 32.6956 47.5193C32.5097 47.4122 32.3599 47.2526 32.265 47.0605C32.17 46.8684 32.1343 46.6526 32.1623 46.4403C32.1903 46.228 32.2808 46.0288 32.4223 45.8678C32.5638 45.7068 32.75 45.5912 32.9573 45.5357C33.1646 45.4803 33.3837 45.4874 33.5869 45.5561C33.7902 45.6249 33.9684 45.7522 34.0992 45.9221C34.2299 46.0919 34.3072 46.2966 34.3214 46.5102C34.3355 46.7239 34.2859 46.937 34.1787 47.1225ZM64.3707 47.2117C64.8279 47.669 65.0846 48.2885 65.0846 48.9344C65.0846 49.5803 64.8279 50.1998 64.3707 50.6571C63.9054 51.0761 63.2966 51.3008 62.67 51.2848C62.0434 51.2687 61.4469 51.0133 61.0037 50.5711C60.5604 50.1289 60.3044 49.5337 60.2883 48.9086C60.2723 48.2834 60.4974 47.676 60.9174 47.2117C61.3757 46.7556 61.9967 46.4994 62.6441 46.4994C63.2914 46.4994 63.9124 46.7556 64.3707 47.2117ZM59.3757 41.0284C58.9391 40.7762 58.6207 40.3614 58.4906 39.875C58.3605 39.3887 58.4293 38.8707 58.682 38.4351C58.9341 37.9997 59.3492 37.682 59.8359 37.5517C60.3227 37.4213 60.8414 37.489 61.2781 37.7398C61.6984 37.9996 62.0008 38.4124 62.1213 38.8909C62.2418 39.3693 62.1708 39.8757 61.9235 40.3028C61.6762 40.7299 61.2719 41.0442 60.7963 41.1791C60.3207 41.3139 59.8112 41.2588 59.3757 41.0253V41.0284ZM69.3812 44.5969C69.203 44.9049 68.9658 45.1749 68.683 45.3915C68.4003 45.608 68.0775 45.7669 67.7332 45.859C67.3889 45.9512 67.0298 45.9747 66.6764 45.9284C66.323 45.882 65.9822 45.7667 65.6734 45.5889C65.3647 45.4112 65.0941 45.1745 64.877 44.8924C64.6599 44.6103 64.5007 44.2883 64.4084 43.9448C64.316 43.6013 64.2924 43.243 64.3389 42.8904C64.3853 42.5378 64.5009 42.1978 64.6791 41.8897C65.0389 41.2676 65.6316 40.8136 66.327 40.6275C67.0223 40.4415 67.7632 40.5386 68.3868 40.8976C69.0103 41.2566 69.4654 41.848 69.6519 42.5418C69.8383 43.2355 69.741 43.9747 69.3812 44.5969ZM46.9745 43.7355C46.8434 43.777 46.7052 43.7915 46.5682 43.7782C46.4313 43.7649 46.2985 43.724 46.1779 43.658C46.0572 43.592 45.9512 43.5023 45.8663 43.3943C45.7814 43.2863 45.7194 43.1622 45.6839 43.0296C45.6484 42.8969 45.6403 42.7585 45.6599 42.6227C45.6796 42.4868 45.7267 42.3563 45.7983 42.2392C45.87 42.122 45.9647 42.0205 46.0768 41.9409C46.1888 41.8612 46.3159 41.8051 46.4504 41.7759C46.5795 41.7416 46.7142 41.7329 46.8467 41.7505C46.9792 41.7681 47.1069 41.8116 47.2226 41.8784C47.3383 41.9453 47.4396 42.0342 47.5209 42.1401C47.6021 42.246 47.6616 42.3669 47.696 42.4958C47.7304 42.6246 47.7391 42.759 47.7214 42.8912C47.7038 43.0234 47.6603 43.1508 47.5933 43.2662C47.5263 43.3817 47.4371 43.4828 47.331 43.5638C47.2248 43.6448 47.1037 43.7042 46.9745 43.7386V43.7355ZM74 29.4985C74 29.9259 73.9156 30.3491 73.7517 30.744C73.5877 31.1389 73.3475 31.4977 73.0445 31.7999C72.7416 32.1021 72.382 32.3419 71.9862 32.5054C71.5904 32.669 71.1662 32.7532 70.7378 32.7532C70.3094 32.7532 69.8852 32.669 69.4894 32.5054C69.0937 32.3419 68.734 32.1021 68.4311 31.7999C68.1282 31.4977 67.8879 31.1389 67.724 30.744C67.56 30.3491 67.4757 29.9259 67.4757 29.4985C67.4757 28.6353 67.8193 27.8074 68.4311 27.197C69.0429 26.5867 69.8726 26.2438 70.7378 26.2438C71.603 26.2438 72.4328 26.5867 73.0445 27.197C73.6563 27.8074 74 28.6353 74 29.4985ZM72.6742 37.386C72.5867 37.7794 72.4204 38.1509 72.1852 38.4784C71.95 38.8058 71.6507 39.0824 71.3055 39.2913C70.9603 39.5003 70.5762 39.6373 70.1765 39.6942C69.7767 39.751 69.3696 39.7266 68.9796 39.6222C68.5896 39.5179 68.2248 39.3358 67.9072 39.087C67.5896 38.8382 67.3258 38.5279 67.1317 38.1746C66.9376 37.8214 66.8172 37.4325 66.7777 37.0316C66.7383 36.6307 66.7806 36.2259 66.9022 35.8418C67.1341 35.1086 67.6407 34.4931 68.3164 34.1235C68.9921 33.7539 69.7846 33.6588 70.5289 33.8579C71.2732 34.057 71.9117 34.5351 72.3113 35.1924C72.711 35.8497 72.841 36.6355 72.6742 37.386ZM52.3765 55.4777C52.4547 55.7538 52.477 56.0426 52.4423 56.3274C52.4076 56.6122 52.3166 56.8872 52.1744 57.1366C52.0323 57.386 51.8419 57.6047 51.6143 57.7801C51.3867 57.9554 51.1265 58.0839 50.8487 58.1581C50.571 58.2323 50.2812 58.2507 49.9962 58.2122C49.7113 58.1737 49.4369 58.0791 49.1889 57.9339C48.9409 57.7887 48.7243 57.5957 48.5516 57.3663C48.379 57.1369 48.2537 56.8755 48.1832 56.5974C48.0344 56.0426 48.1126 55.4516 48.4006 54.9543C48.6885 54.457 49.1627 54.0942 49.7187 53.9457C50.2748 53.7972 50.8672 53.8752 51.3656 54.1625C51.864 54.4498 52.2277 54.9229 52.3765 55.4777ZM58.9286 52.146C59.0806 52.4079 59.1793 52.6972 59.2191 52.9972C59.2589 53.2972 59.239 53.6021 59.1606 53.8944C59.0821 54.1867 58.9466 54.4608 58.7618 54.7008C58.577 54.9408 58.3466 55.142 58.0838 55.2931C57.8214 55.4442 57.5318 55.5424 57.2314 55.5818C56.931 55.6213 56.6258 55.6013 56.3332 55.523C56.0405 55.4447 55.7662 55.3097 55.5259 55.1256C55.2856 54.9415 55.084 54.712 54.9326 54.4502C54.7806 54.1883 54.6819 53.8991 54.6421 53.599C54.6023 53.299 54.6222 52.9941 54.7007 52.7018C54.7792 52.4095 54.9147 52.1355 55.0994 51.8955C55.2842 51.6555 55.5146 51.4542 55.7775 51.3031C56.0398 51.152 56.3295 51.0539 56.6298 51.0144C56.9302 50.975 57.2354 50.995 57.5281 51.0732C57.8207 51.1515 58.095 51.2865 58.3353 51.4706C58.5756 51.6547 58.7772 51.8842 58.9286 52.146ZM46.8358 48.9652C46.7812 48.7751 46.765 48.576 46.7884 48.3796C46.8117 48.1832 46.8741 47.9934 46.9717 47.8213C47.0694 47.6492 47.2004 47.4983 47.3572 47.3773C47.514 47.2563 47.6934 47.1676 47.8849 47.1166C48.0764 47.0655 48.2761 47.053 48.4725 47.0798C48.6689 47.1065 48.858 47.1721 49.0287 47.2726C49.1994 47.3731 49.3484 47.5065 49.4668 47.6651C49.5853 47.8236 49.6709 48.0042 49.7187 48.1961C49.813 48.5749 49.7544 48.9754 49.5556 49.3116C49.3568 49.6477 49.0337 49.8925 48.6558 49.9933C48.2779 50.0941 47.8755 50.0429 47.5351 49.8506C47.1947 49.6583 46.9435 49.3403 46.8358 48.9652ZM53.875 48.0177C53.6898 48.1243 53.4853 48.1935 53.2733 48.2213C53.0612 48.2491 52.8457 48.235 52.6392 48.1797C52.4326 48.1245 52.2389 48.0291 52.0693 47.8992C51.8996 47.7692 51.7573 47.6072 51.6504 47.4224C51.5435 47.2376 51.4741 47.0336 51.4463 46.822C51.4184 46.6104 51.4326 46.3955 51.488 46.1894C51.5434 45.9833 51.6389 45.7901 51.7692 45.6208C51.8994 45.4515 52.0618 45.3095 52.247 45.2029C52.6212 44.9875 53.0657 44.9292 53.4829 45.0408C53.9001 45.1525 54.2558 45.4249 54.4717 45.7981C54.6875 46.1714 54.746 46.6149 54.6341 47.0312C54.5222 47.4474 54.2492 47.8023 53.875 48.0177ZM39.1983 48.879C39.1145 49.1915 38.9097 49.458 38.629 49.6198C38.3482 49.7816 38.0146 49.8256 37.7014 49.7419C37.3882 49.6583 37.1211 49.454 36.9589 49.1739C36.7967 48.8938 36.7527 48.5609 36.8365 48.2484C36.9203 47.9363 37.125 47.6703 37.4054 47.5087C37.6859 47.3472 38.0191 47.3034 38.3319 47.387C38.6447 47.4707 38.9114 47.6748 39.0733 47.9546C39.2352 48.2344 39.2791 48.567 39.1953 48.879H39.1983ZM36.4326 23.4197C36.3947 23.382 36.3647 23.3371 36.3442 23.2878C36.3237 23.2384 36.3132 23.1855 36.3132 23.1321C36.3132 23.0787 36.3237 23.0258 36.3442 22.9764C36.3647 22.9271 36.3947 22.8822 36.4326 22.8445C36.4704 22.8067 36.5154 22.7767 36.5648 22.7563C36.6143 22.7358 36.6673 22.7253 36.7209 22.7253C36.7744 22.7253 36.8274 22.7358 36.8769 22.7563C36.9264 22.7767 36.9713 22.8067 37.0092 22.8445C37.0856 22.9207 37.1286 23.0242 37.1286 23.1321C37.1286 23.24 37.0856 23.3434 37.0092 23.4197C36.9327 23.496 36.829 23.5389 36.7209 23.5389C36.6127 23.5389 36.509 23.496 36.4326 23.4197ZM36.6669 18.3408C36.4796 18.4489 36.257 18.4783 36.048 18.4227C35.8389 18.367 35.6606 18.2308 35.5523 18.0439C35.4439 17.8571 35.4144 17.635 35.4702 17.4264C35.526 17.2179 35.6626 17.04 35.8498 16.9319C35.9426 16.8783 36.0449 16.8435 36.1511 16.8295C36.2573 16.8154 36.3653 16.8224 36.4688 16.85C36.5723 16.8775 36.6693 16.9252 36.7544 16.9902C36.8394 17.0551 36.9108 17.1362 36.9645 17.2287C37.0181 17.3212 37.053 17.4234 37.0671 17.5293C37.0811 17.6353 37.0742 17.743 37.0465 17.8462C37.0189 17.9495 36.9712 18.0463 36.906 18.1312C36.8409 18.216 36.7596 18.2873 36.6669 18.3408ZM34.1787 3.46697C34.0478 2.98152 34.1156 2.4641 34.3672 2.02853C34.6187 1.59296 35.0333 1.27492 35.5199 1.14438C36.0065 1.01384 36.5251 1.08149 36.9617 1.33244C37.3982 1.5834 37.717 1.99711 37.8478 2.48256C37.9126 2.72293 37.9293 2.97368 37.897 3.22048C37.8646 3.46729 37.7839 3.70533 37.6593 3.921C37.4078 4.35657 36.9931 4.67461 36.5066 4.80515C36.02 4.93569 35.5014 4.86804 35.0648 4.61708C34.6283 4.36613 34.3095 3.95242 34.1787 3.46697ZM31.564 22.0939C31.6425 22.1376 31.7114 22.1965 31.7669 22.267C31.8224 22.3376 31.8632 22.4185 31.8871 22.5049C31.911 22.5914 31.9174 22.6817 31.906 22.7707C31.8946 22.8596 31.8655 22.9454 31.8206 23.0231C31.7756 23.1008 31.7157 23.1688 31.6442 23.2231C31.5726 23.2774 31.491 23.3171 31.404 23.3396C31.317 23.3622 31.2264 23.3674 31.1374 23.3547C31.0484 23.342 30.9629 23.3119 30.8857 23.2659C30.7306 23.1759 30.6175 23.0283 30.5713 22.8553C30.5251 22.6823 30.5494 22.4981 30.639 22.343C30.7287 22.1878 30.8764 22.0744 31.0498 22.0276C31.2233 21.9809 31.4082 22.0047 31.564 22.0939ZM33.9382 19.3006C34.0784 19.4405 34.1572 19.6303 34.1572 19.8282C34.1572 20.0261 34.0784 20.2158 33.9382 20.3558C33.7979 20.4957 33.6077 20.5743 33.4094 20.5743C33.211 20.5743 33.0208 20.4957 32.8806 20.3558C32.8111 20.2865 32.756 20.2042 32.7185 20.1137C32.6809 20.0232 32.6615 19.9262 32.6615 19.8282C32.6615 19.7302 32.6809 19.6332 32.7185 19.5426C32.756 19.4521 32.8111 19.3699 32.8806 19.3006C32.95 19.2313 33.0325 19.1763 33.1232 19.1389C33.2139 19.1014 33.3112 19.0821 33.4094 19.0821C33.5076 19.0821 33.6048 19.1014 33.6955 19.1389C33.7863 19.1763 33.8687 19.2313 33.9382 19.3006ZM32.2978 12.9573C32.1539 12.7085 32.1149 12.4128 32.1895 12.1353C32.2641 11.8578 32.4462 11.6212 32.6956 11.4776C32.945 11.334 33.2414 11.2951 33.5195 11.3696C33.7976 11.444 34.0347 11.6256 34.1787 11.8744C34.3226 12.1233 34.3615 12.419 34.2869 12.6965C34.2123 12.974 34.0303 13.2105 33.7809 13.3541C33.5315 13.4977 33.2351 13.5366 32.957 13.4622C32.6789 13.3877 32.4417 13.2061 32.2978 12.9573ZM41.11 2.03035C41.11 1.49186 41.3244 0.975438 41.706 0.594675C42.0877 0.213911 42.6053 0 43.145 0C43.6847 0 44.2023 0.213911 44.584 0.594675C44.9656 0.975438 45.18 1.49186 45.18 2.03035C45.18 2.56883 44.9656 3.08525 44.584 3.46602C44.2023 3.84678 43.6847 4.06069 43.145 4.06069C42.6053 4.06069 42.0877 3.84678 41.706 3.46602C41.3244 3.08525 41.11 2.56883 41.11 2.03035ZM40.6506 20.2481C40.7198 20.2286 40.7921 20.223 40.8635 20.2317C40.9349 20.2403 41.0038 20.263 41.0663 20.2985C41.1288 20.334 41.1836 20.3814 41.2275 20.4382C41.2715 20.495 41.3037 20.5599 41.3222 20.6292C41.3408 20.6984 41.3454 20.7707 41.3358 20.8418C41.3261 20.9129 41.3024 20.9813 41.2661 21.0432C41.2297 21.105 41.1813 21.1591 41.1238 21.2021C41.0664 21.2452 41.0009 21.2764 40.9312 21.294C40.7944 21.3243 40.6512 21.3006 40.5315 21.2279C40.4118 21.1552 40.325 21.0391 40.2891 20.904C40.2533 20.7688 40.2712 20.6251 40.3391 20.5029C40.4071 20.3806 40.5198 20.2893 40.6537 20.2481H40.6506ZM37.6998 9.25653C38.0121 9.17463 38.3441 9.21943 38.6233 9.38113C38.9025 9.54282 39.1061 9.80826 39.1897 10.1194C39.2733 10.4305 39.2299 10.762 39.0692 11.0413C38.9084 11.3206 38.6433 11.525 38.3319 11.6099C38.0191 11.6935 37.6859 11.6497 37.4054 11.4882C37.125 11.3267 36.9203 11.0606 36.8365 10.7485C36.7535 10.4365 36.7978 10.1044 36.9596 9.82477C37.1213 9.54519 37.3875 9.34088 37.6998 9.25653ZM39.3494 15.406C39.4614 15.3761 39.5781 15.3685 39.693 15.3836C39.8079 15.3988 39.9187 15.4363 40.0191 15.4942C40.1194 15.552 40.2074 15.629 40.2779 15.7208C40.3484 15.8125 40.4002 15.9173 40.4301 16.029C40.4601 16.1407 40.4677 16.2572 40.4525 16.3718C40.4374 16.4864 40.3997 16.597 40.3418 16.6971C40.2838 16.7972 40.2066 16.885 40.1146 16.9553C40.0227 17.0257 39.9177 17.0773 39.8058 17.1072C39.5796 17.1676 39.3388 17.1359 39.1361 17.019C38.9334 16.9022 38.7856 16.7098 38.725 16.4843C38.6645 16.2587 38.6963 16.0183 38.8134 15.8161C38.9305 15.6139 39.1233 15.4664 39.3494 15.406ZM27.8424 6.60785C27.609 6.20356 27.5462 5.72335 27.6676 5.27281C27.789 4.82228 28.0848 4.43829 28.4899 4.20528C28.8929 4.00207 29.3587 3.96055 29.7914 4.08926C30.2242 4.21796 30.5912 4.50712 30.8169 4.89734C31.0427 5.28755 31.1101 5.7492 31.0053 6.18746C30.9005 6.62572 30.6315 7.00732 30.2536 7.25387C30.0528 7.36963 29.8311 7.44476 29.6012 7.47494C29.3713 7.50512 29.1377 7.48977 28.9137 7.42977C28.6897 7.36976 28.4798 7.26628 28.296 7.12525C28.1122 6.98421 27.958 6.80839 27.8424 6.60785ZM26.7016 38.9242C26.755 39.0167 26.7897 39.1188 26.8036 39.2247C26.8175 39.3306 26.8103 39.4381 26.7825 39.5413C26.7548 39.6444 26.7069 39.741 26.6417 39.8257C26.5765 39.9104 26.4952 39.9814 26.4025 40.0347C26.3097 40.0881 26.2074 40.1226 26.1013 40.1365C25.9952 40.1504 25.8873 40.1432 25.784 40.1155C25.6806 40.0878 25.5838 40.0401 25.4989 39.975C25.414 39.9099 25.3428 39.8288 25.2894 39.7363C25.1814 39.5495 25.1523 39.3275 25.2084 39.1193C25.2645 38.911 25.4012 38.7335 25.5885 38.6258C25.7757 38.5181 25.9982 38.489 26.207 38.545C26.4157 38.6009 26.5936 38.7374 26.7016 38.9242ZM15.1699 21.6847C15.2182 21.5043 15.3016 21.3351 15.4155 21.1869C15.5294 21.0387 15.6714 20.9143 15.8335 20.8209C15.9956 20.7275 16.1745 20.6668 16.3601 20.6424C16.5457 20.6181 16.7342 20.6304 16.915 20.6788C17.0959 20.727 17.2654 20.8102 17.414 20.9239C17.5625 21.0375 17.6872 21.1792 17.7808 21.3409C17.8745 21.5026 17.9352 21.6811 17.9597 21.8663C17.9841 22.0514 17.9718 22.2396 17.9233 22.4199C17.875 22.6004 17.7915 22.7695 17.6776 22.9177C17.5638 23.066 17.4217 23.1903 17.2597 23.2838C17.0976 23.3772 16.9186 23.4378 16.7331 23.4622C16.5475 23.4866 16.3589 23.4742 16.1781 23.4259C15.9969 23.3777 15.8271 23.2943 15.6783 23.1805C15.5295 23.0667 15.4047 22.9247 15.311 22.7626C15.2173 22.6006 15.1566 22.4217 15.1324 22.2362C15.1082 22.0507 15.1209 21.8622 15.1699 21.6816V21.6847ZM17.9449 15.0092C18.0925 14.7544 18.3125 14.549 18.5771 14.4189C18.8417 14.2888 19.139 14.2399 19.4314 14.2783C19.7239 14.3166 19.9983 14.4406 20.2202 14.6346C20.4421 14.8285 20.6014 15.0837 20.6779 15.3678C20.7545 15.652 20.745 15.9525 20.6505 16.2313C20.5561 16.5101 20.3809 16.7547 20.1472 16.9342C19.9135 17.1138 19.6317 17.2202 19.3374 17.24C19.0431 17.2598 18.7495 17.1922 18.4937 17.0457C18.3234 16.9481 18.1741 16.818 18.0543 16.6628C17.9345 16.5076 17.8466 16.3303 17.7956 16.1411C17.7447 15.9519 17.7316 15.7545 17.7572 15.5603C17.7828 15.3661 17.8466 15.1788 17.9449 15.0092ZM24.8207 47.747C24.972 47.8978 25.0921 48.0769 25.174 48.2741C25.2559 48.4712 25.298 48.6825 25.298 48.896C25.298 49.1094 25.2559 49.3207 25.174 49.5178C25.0921 49.715 24.972 49.8941 24.8207 50.0449C24.5148 50.35 24.1001 50.5214 23.6676 50.5214C23.2351 50.5214 22.8203 50.35 22.5144 50.0449C22.3631 49.8941 22.243 49.715 22.1611 49.5178C22.0792 49.3207 22.0371 49.1094 22.0371 48.896C22.0371 48.6825 22.0792 48.4712 22.1611 48.2741C22.243 48.0769 22.3631 47.8978 22.5144 47.747C22.6656 47.5955 22.8453 47.4754 23.0432 47.3934C23.2411 47.3114 23.4533 47.2692 23.6676 47.2692C23.8818 47.2692 24.094 47.3114 24.2919 47.3934C24.4898 47.4754 24.6695 47.5955 24.8207 47.747ZM20.5873 42.4496C20.6855 42.6191 20.7493 42.8062 20.775 43.0002C20.8007 43.1943 20.7878 43.3915 20.7372 43.5806C20.6865 43.7697 20.599 43.947 20.4796 44.1024C20.3603 44.2578 20.2114 44.3881 20.0415 44.4861C19.8717 44.5841 19.6841 44.6477 19.4896 44.6734C19.2951 44.699 19.0975 44.6862 18.9079 44.6356C18.7184 44.5851 18.5407 44.4977 18.385 44.3787C18.2292 44.2596 18.0986 44.1111 18.0004 43.9416C17.8021 43.5993 17.7482 43.1925 17.8505 42.8106C17.9529 42.4287 18.2031 42.103 18.5461 41.9051C18.8892 41.7073 19.2969 41.6535 19.6797 41.7556C20.0625 41.8577 20.389 42.1073 20.5873 42.4496ZM22.5144 11.2561C22.2097 10.9516 22.0386 10.5389 22.0386 10.1087C22.0386 9.67841 22.2097 9.26573 22.5144 8.96121C22.8203 8.65613 23.2351 8.48475 23.6676 8.48475C24.1001 8.48475 24.5148 8.65613 24.8207 8.96121C24.972 9.11205 25.0921 9.29117 25.174 9.48832C25.2559 9.68547 25.298 9.89679 25.298 10.1102C25.298 10.3236 25.2559 10.5349 25.174 10.7321C25.0921 10.9292 24.972 11.1083 24.8207 11.2592C24.6695 11.4102 24.49 11.5299 24.2924 11.6116C24.0948 11.6933 23.883 11.7354 23.6691 11.7354C23.4552 11.7354 23.2434 11.6933 23.0458 11.6116C22.8482 11.5299 22.6687 11.4102 22.5175 11.2592L22.5144 11.2561ZM29.8126 16.2397C29.6341 16.417 29.3924 16.5166 29.1405 16.5166C28.8885 16.5166 28.6469 16.417 28.4683 16.2397C28.3799 16.1517 28.3098 16.0471 28.262 15.9321C28.2141 15.817 28.1895 15.6936 28.1895 15.5691C28.1895 15.4445 28.2141 15.3211 28.262 15.206C28.3098 15.091 28.3799 14.9864 28.4683 14.8984C28.6469 14.7211 28.8885 14.6215 29.1405 14.6215C29.3924 14.6215 29.6341 14.7211 29.8126 14.8984C29.901 14.9864 29.9711 15.091 30.019 15.206C30.0668 15.3211 30.0914 15.4445 30.0914 15.5691C30.0914 15.6936 30.0668 15.817 30.019 15.9321C29.9711 16.0471 29.901 16.1517 29.8126 16.2397ZM29.8126 42.7665C29.9035 42.8539 29.9759 42.9586 30.0257 43.0743C30.0755 43.19 30.1017 43.3144 30.1028 43.4404C30.1038 43.5663 30.0797 43.6912 30.0318 43.8077C29.9839 43.9242 29.9132 44.03 29.8239 44.119C29.7345 44.2079 29.6283 44.2782 29.5114 44.3257C29.3945 44.3732 29.2693 44.397 29.1431 44.3956C29.0169 44.3943 28.8922 44.3679 28.7763 44.3179C28.6605 44.268 28.5558 44.1955 28.4683 44.1046C28.29 43.9268 28.1899 43.6856 28.1899 43.434C28.1899 43.1825 28.29 42.9412 28.4683 42.7634C28.6466 42.5855 28.8884 42.4856 29.1405 42.4856C29.3926 42.4856 29.6344 42.5855 29.8126 42.7634V42.7665ZM25.2925 19.2637C25.3442 19.168 25.4146 19.0837 25.4995 19.0157C25.5844 18.9477 25.6822 18.8974 25.787 18.8678C25.8917 18.8382 26.0014 18.8298 26.1095 18.8432C26.2175 18.8567 26.3218 18.8916 26.4161 18.9459C26.5104 19.0003 26.5928 19.0729 26.6585 19.1596C26.7241 19.2463 26.7716 19.3453 26.7983 19.4507C26.8249 19.556 26.83 19.6656 26.8134 19.773C26.7968 19.8804 26.7588 19.9834 26.7016 20.0758C26.5936 20.2626 26.4157 20.399 26.207 20.455C25.9982 20.511 25.7757 20.4819 25.5885 20.3742C25.4012 20.2665 25.2645 20.089 25.2084 19.8807C25.1523 19.6725 25.1814 19.4505 25.2894 19.2637H25.2925Z" fill="#FCFCFC"/>
</svg>
