<svg width="94" height="76" viewBox="0 0 94 76" fill="none" xmlns="http://www.w3.org/2000/svg">
<path d="M60.8688 37.799C60.8688 34.3773 58.1663 31.6008 54.8372 31.6008C51.5002 31.6008 48.7976 34.3773 48.7976 37.799C48.7976 41.2246 51.5002 43.9972 54.8372 43.9972C58.1663 43.9972 60.8688 41.2207 60.8688 37.799ZM54.8372 41.0721C53.1217 41.0721 51.7312 39.6056 51.7312 37.799C51.7312 36.0001 53.1217 34.5298 54.8372 34.5298C56.5488 34.5298 57.9392 35.9962 57.9392 37.799C57.9392 39.6056 56.5488 41.0721 54.8372 41.0721ZM17.2958 32.4376L13.6651 43.6726C13.6306 43.7654 13.5695 43.8461 13.4894 43.9045C13.4093 43.9629 13.3137 43.9965 13.2146 44.0011H12.8856C12.7828 43.9956 12.6829 43.9649 12.5948 43.9117C12.5067 43.8585 12.433 43.7844 12.3804 43.696L8.65955 36.5593L4.93871 43.696C4.88645 43.7839 4.81342 43.8576 4.72603 43.9108C4.63864 43.964 4.53953 43.995 4.43738 44.0011H4.10446C4.00538 43.9965 3.90983 43.9629 3.82974 43.9045C3.74964 43.8461 3.68854 43.7654 3.65404 43.6726L0.0232834 32.4376C-0.0628834 32.1639 0.0977003 31.9449 0.379701 31.9449H2.60437C2.79237 31.9449 2.99604 32.0935 3.05479 32.2734L4.89171 37.9515L8.04463 31.9058C8.09727 31.8174 8.1709 31.7434 8.25903 31.6902C8.34715 31.637 8.44705 31.6063 8.54989 31.6008H8.77314C8.87597 31.6063 8.97587 31.637 9.064 31.6902C9.15212 31.7434 9.22576 31.8174 9.27839 31.9058L12.4313 37.9515L14.2643 32.2734C14.2995 32.1802 14.3613 32.0994 14.4421 32.0411C14.5229 31.9827 14.619 31.9492 14.7187 31.9449H16.9394C17.2253 31.9449 17.3859 32.1678 17.2958 32.4376ZM22.6538 43.1368C22.6544 43.205 22.6414 43.2725 22.6156 43.3356C22.5899 43.3987 22.5519 43.456 22.5038 43.5044C22.4557 43.5527 22.3986 43.5911 22.3356 43.6173C22.2726 43.6435 22.2051 43.6569 22.1368 43.6569H19.8965C19.8283 43.6569 19.7607 43.6435 19.6977 43.6173C19.6348 43.5911 19.5776 43.5527 19.5295 43.5044C19.4815 43.456 19.4435 43.3987 19.4177 43.3356C19.392 43.2725 19.379 43.205 19.3795 43.1368V32.4611C19.3795 32.1756 19.6106 31.9449 19.8965 31.9449H22.1368C22.274 31.9449 22.4055 31.9993 22.5024 32.0961C22.5994 32.1929 22.6538 32.3242 22.6538 32.4611V43.1368ZM25.5561 32.4611V49.335C25.5561 49.6244 25.7911 49.8551 26.0731 49.8551H28.3174C28.3856 49.8551 28.4531 49.8417 28.5161 49.8155C28.5791 49.7893 28.6363 49.7509 28.6843 49.7026C28.7324 49.6542 28.7704 49.5968 28.7961 49.5338C28.8219 49.4707 28.8349 49.4031 28.8344 49.335V43.481C29.7822 43.8134 30.8319 43.9972 31.9364 43.9972C35.0815 43.9972 37.6312 41.2207 37.6312 37.799C37.6312 34.3773 35.0815 31.6008 31.9364 31.6008C30.3932 31.6008 28.9989 32.2695 27.9727 33.3566L27.5732 32.2695C27.5341 32.177 27.4696 32.0974 27.3871 32.04C27.3046 31.9825 27.2076 31.9496 27.1071 31.9449H26.0731C25.936 31.9449 25.8045 31.9993 25.7075 32.0961C25.6106 32.1929 25.5561 32.3242 25.5561 32.4611ZM28.8344 35.9806C29.0902 35.545 29.4542 35.1826 29.8913 34.9285C30.3283 34.6744 30.8236 34.537 31.3293 34.5298C32.986 34.5298 34.3334 35.9923 34.3334 37.799C34.3334 39.6056 32.986 41.0721 31.3293 41.0721C30.3893 41.0721 29.5276 40.8257 28.8344 40.4073V35.9806ZM42.8365 43.6569H40.5961C40.459 43.6569 40.3275 43.6026 40.2306 43.5058C40.1336 43.409 40.0791 43.2777 40.0791 43.1408V32.4611C40.0791 32.1756 40.3102 31.9449 40.5961 31.9449H41.6301C41.8181 31.9449 42.0296 32.0896 42.0923 32.2695L42.4918 33.3527C42.4918 33.3527 43.7451 31.6008 45.8993 31.6008C48.0535 31.6008 48.3159 32.3438 48.1357 32.7544L47.3641 34.4946C47.2662 34.7214 47.0116 34.8856 46.6709 34.7527C46.0936 34.5264 45.4583 34.4929 44.8603 34.6571C44.2623 34.8214 43.7337 35.1745 43.3535 35.6638V43.1368C43.3535 43.2737 43.299 43.405 43.202 43.5018C43.1051 43.5986 42.9736 43.653 42.8365 43.653V43.6569ZM61.2057 3.21036C61.3956 2.50587 61.8579 1.90547 62.491 1.54105C63.124 1.17664 63.876 1.07801 64.5819 1.26683C64.9359 1.35631 65.2687 1.51514 65.5608 1.7341C65.8529 1.95306 66.0985 2.22778 66.2834 2.5423C66.4683 2.85683 66.5887 3.20489 66.6377 3.56628C66.6867 3.92767 66.6633 4.29518 66.5689 4.64747C66.4745 4.99976 66.3109 5.3298 66.0876 5.61843C65.8643 5.90706 65.5859 6.14853 65.2683 6.3288C64.9508 6.50908 64.6006 6.62458 64.238 6.66858C63.8754 6.71259 63.5077 6.68423 63.1562 6.58515C62.4496 6.39545 61.8472 5.93349 61.4815 5.30072C61.1158 4.66795 61.0166 3.91612 61.2057 3.21036ZM68.4359 14.1207C68.9113 14.3948 69.2584 14.8461 69.4009 15.3755C69.5433 15.9048 69.4696 16.469 69.1957 16.9441C69.0598 17.1793 68.8788 17.3853 68.6631 17.5505C68.4474 17.7157 68.2012 17.8369 67.9385 17.907C67.6759 17.9771 67.4019 17.9948 67.1324 17.9591C66.8629 17.9233 66.6031 17.8349 66.3679 17.6989C66.132 17.5635 65.9253 17.3831 65.7594 17.1678C65.5936 16.9526 65.4718 16.7068 65.4013 16.4446C65.3307 16.1823 65.3126 15.9087 65.3481 15.6394C65.3836 15.3702 65.4719 15.1106 65.608 14.8755C65.7439 14.6403 65.9249 14.4343 66.1406 14.2691C66.3563 14.1039 66.6025 13.9827 66.8652 13.9126C67.1278 13.8425 67.4018 13.8248 67.6713 13.8605C67.9408 13.8962 68.2006 13.9847 68.4359 14.1207ZM71.0365 57.0114C70.6161 56.5912 70.3799 56.0216 70.3799 55.4276C70.3799 54.8337 70.6161 54.264 71.0365 53.8439C71.2446 53.6355 71.4919 53.4702 71.7641 53.3575C72.0363 53.2447 72.3281 53.1866 72.6228 53.1866C72.9175 53.1866 73.2093 53.2447 73.4815 53.3575C73.7537 53.4702 74.0009 53.6355 74.209 53.8439C74.6295 54.264 74.8657 54.8337 74.8657 55.4276C74.8657 56.0216 74.6295 56.5912 74.209 57.0114C73.7882 57.4312 73.2177 57.667 72.6228 57.667C72.0279 57.667 71.4574 57.4312 71.0365 57.0114ZM61.4133 28.1634C61.2876 28.3812 61.0804 28.5403 60.8372 28.6055C60.5941 28.6708 60.335 28.637 60.1168 28.5115C59.8987 28.386 59.7394 28.1791 59.674 27.9364C59.6087 27.6936 59.6426 27.4349 59.7683 27.2171C59.8939 26.9993 60.1011 26.8403 60.3443 26.775C60.5874 26.7097 60.8465 26.7436 61.0647 26.869C61.2828 26.9945 61.4421 27.2014 61.5075 27.4442C61.5728 27.6869 61.539 27.9456 61.4133 28.1634ZM59.7683 48.1071C59.706 47.9993 59.6657 47.8803 59.6495 47.7568C59.6333 47.6334 59.6417 47.508 59.674 47.3878C59.7064 47.2677 59.7622 47.155 59.8382 47.0563C59.9141 46.9576 60.0088 46.8749 60.1168 46.8127C60.2249 46.7506 60.3441 46.7103 60.4677 46.6942C60.5913 46.678 60.7169 46.6864 60.8372 46.7187C60.9576 46.751 61.0705 46.8067 61.1693 46.8825C61.2681 46.9584 61.351 47.0529 61.4133 47.1608C61.4758 47.2683 61.5166 47.3872 61.5331 47.5105C61.5497 47.6338 61.5417 47.7591 61.5097 47.8793C61.4777 47.9995 61.4223 48.1123 61.3466 48.2111C61.2709 48.3099 61.1764 48.3928 61.0686 48.4552C60.8503 48.58 60.5914 48.6134 60.3485 48.5482C60.1055 48.483 59.8983 48.3244 59.7722 48.1071H59.7683ZM74.3775 37.666C74.3767 38.0659 74.2572 38.4565 74.034 38.7886C73.8109 39.1206 73.4941 39.3791 73.1238 39.5314C72.7535 39.6837 72.3463 39.723 71.9537 39.6442C71.561 39.5655 71.2006 39.3722 70.9179 39.0889C70.6353 38.8056 70.4431 38.445 70.3658 38.0527C70.2884 37.6604 70.3293 37.2539 70.4833 36.8848C70.6372 36.5157 70.8974 36.2004 71.2308 35.9789C71.5642 35.7574 71.956 35.6396 72.3565 35.6404C72.8935 35.6404 73.4085 35.8534 73.7883 36.2325C74.168 36.6117 74.3814 37.1259 74.3814 37.6621L74.3775 37.666ZM69.7832 5.94382C69.9698 5.59917 70.2238 5.2954 70.5301 5.0505C70.8364 4.8056 71.1888 4.62454 71.5664 4.51804C71.944 4.41154 72.3392 4.38177 72.7286 4.43048C73.1179 4.4792 73.4936 4.60541 73.8332 4.80165C74.1728 4.99789 74.4696 5.26016 74.7059 5.57295C74.9422 5.88574 75.1132 6.24269 75.2089 6.62266C75.3046 7.00262 75.3229 7.39789 75.2628 7.78507C75.2028 8.17224 75.0655 8.54345 74.8592 8.87672C74.4579 9.52498 73.8193 9.99154 73.079 10.1773C72.3388 10.3631 71.5551 10.2535 70.8944 9.87182C70.2338 9.4901 69.7482 8.86632 69.5407 8.13291C69.3332 7.3995 69.4202 6.61423 69.7832 5.94382ZM48.5156 47.2976C48.5531 47.2256 48.6048 47.1618 48.6675 47.1101C48.7303 47.0585 48.8029 47.0201 48.8809 46.9972C48.959 46.9743 49.0408 46.9674 49.1216 46.9768C49.2024 46.9863 49.2804 47.0121 49.351 47.0524C49.4215 47.0928 49.4832 47.147 49.5322 47.2118C49.5813 47.2766 49.6167 47.3506 49.6364 47.4294C49.656 47.5082 49.6595 47.5901 49.6466 47.6703C49.6337 47.7505 49.6048 47.8272 49.5614 47.896C49.4814 48.0344 49.3496 48.1355 49.195 48.1769C49.0404 48.2183 48.8756 48.1968 48.7369 48.1169C48.5983 48.037 48.497 47.9054 48.4555 47.7511C48.414 47.5967 48.4357 47.4322 48.5156 47.2937V47.2976ZM59.498 12.9163C59.5587 12.6723 59.6674 12.4428 59.8179 12.2413C59.9684 12.0397 60.1576 11.8701 60.3745 11.7424C60.5913 11.6146 60.8315 11.5313 61.081 11.4972C61.3304 11.4631 61.5842 11.479 61.8275 11.544C62.0707 11.6089 62.2986 11.7216 62.4977 11.8754C62.6969 12.0292 62.8633 12.2211 62.9874 12.4399C63.1115 12.6587 63.1906 12.8999 63.2203 13.1496C63.2499 13.3992 63.2295 13.6523 63.1601 13.8939C63.096 14.1344 62.985 14.3598 62.8336 14.5574C62.6821 14.755 62.4931 14.9208 62.2774 15.0454C62.0616 15.17 61.8234 15.2509 61.5764 15.2835C61.3293 15.316 61.0782 15.2996 60.8375 15.2352C60.597 15.1708 60.3716 15.0597 60.1742 14.9083C59.9767 14.7569 59.8111 14.5681 59.6867 14.3528C59.5623 14.1374 59.4816 13.8998 59.4492 13.6533C59.4169 13.4068 59.4334 13.1564 59.498 12.9163ZM54.8058 21.4334C54.4854 21.4334 54.178 21.3063 53.9514 21.0801C53.7248 20.8538 53.5975 20.547 53.5975 20.227C53.5975 19.9071 53.7248 19.6002 53.9514 19.374C54.178 19.1477 54.4854 19.0206 54.8058 19.0206C55.1263 19.0206 55.4336 19.1477 55.6602 19.374C55.8868 19.6002 56.0141 19.9071 56.0141 20.227C56.0141 20.547 55.8868 20.8538 55.6602 21.0801C55.4336 21.3063 55.1263 21.4334 54.8058 21.4334ZM54.8058 25.3909C55.012 25.3909 55.2098 25.4727 55.3556 25.6182C55.5014 25.7638 55.5833 25.9612 55.5833 26.1671C55.5833 26.373 55.5014 26.5704 55.3556 26.716C55.2098 26.8616 55.012 26.9433 54.8058 26.9433C54.6002 26.9433 54.4029 26.8618 54.2575 26.7166C54.112 26.5714 54.0303 26.3744 54.0303 26.1691C54.0303 25.9637 54.112 25.7668 54.2575 25.6216C54.4029 25.4764 54.6002 25.3948 54.8058 25.3948V25.3909ZM54.8058 14.285C54.3488 14.285 53.9104 14.1037 53.5872 13.781C53.2641 13.4583 53.0825 13.0207 53.0825 12.5643C53.0825 12.108 53.2641 11.6704 53.5872 11.3477C53.9104 11.025 54.3488 10.8437 54.8058 10.8437C55.2629 10.8437 55.7012 11.025 56.0244 11.3477C56.3476 11.6704 56.5292 12.108 56.5292 12.5643C56.5292 13.0207 56.3476 13.4583 56.0244 13.781C55.7012 14.1037 55.2629 14.285 54.8058 14.285ZM48.5117 28.0344C48.4517 27.9313 48.4236 27.8128 48.4311 27.6938C48.4386 27.5749 48.4813 27.4608 48.5538 27.366C48.6262 27.2713 48.7252 27.2002 48.8382 27.1616C48.9512 27.1231 49.0731 27.119 49.1885 27.1497C49.3039 27.1804 49.4075 27.2446 49.4863 27.3342C49.5651 27.4238 49.6155 27.5347 49.6311 27.6529C49.6467 27.7711 49.6268 27.8912 49.574 27.9981C49.5211 28.105 49.4377 28.1939 49.3342 28.2534C49.196 28.3329 49.0318 28.3545 48.8777 28.3135C48.7235 28.2724 48.5919 28.1721 48.5117 28.0344ZM54.8058 49.9412C54.6002 49.9412 54.4029 49.8596 54.2575 49.7144C54.112 49.5692 54.0303 49.3722 54.0303 49.1669C54.0303 48.9615 54.112 48.7646 54.2575 48.6194C54.4029 48.4742 54.6002 48.3926 54.8058 48.3926C55.0115 48.3926 55.2088 48.4742 55.3542 48.6194C55.4996 48.7646 55.5813 48.9615 55.5813 49.1669C55.5813 49.3722 55.4996 49.5692 55.3542 49.7144C55.2088 49.8596 55.0115 49.9412 54.8058 49.9412ZM54.8058 53.9025C55.1258 53.9025 55.4326 54.0294 55.6588 54.2553C55.8851 54.4812 56.0122 54.7875 56.0122 55.107C56.0122 55.4264 55.8851 55.7328 55.6588 55.9586C55.4326 56.1845 55.1258 56.3114 54.8058 56.3114C54.4859 56.3114 54.1791 56.1845 53.9528 55.9586C53.7266 55.7328 53.5995 55.4264 53.5995 55.107C53.5995 54.7875 53.7266 54.4812 53.9528 54.2553C54.1791 54.0294 54.4859 53.9025 54.8058 53.9025ZM68.4907 45.5379C68.6042 45.3421 68.7553 45.1705 68.9352 45.033C69.1152 44.8956 69.3206 44.7949 69.5396 44.7368C69.7586 44.6787 69.987 44.6643 70.2116 44.6944C70.4362 44.7245 70.6526 44.7985 70.8485 44.9122C71.2425 45.1411 71.5297 45.5164 71.6471 45.9562C71.7646 46.3959 71.7028 46.8642 71.4752 47.2585C71.2432 47.6468 70.8675 47.9283 70.4293 48.0422C69.9911 48.1561 69.5256 48.0932 69.1334 47.8671C68.7413 47.6411 68.454 47.27 68.3337 46.8341C68.2135 46.3982 68.2698 45.9326 68.4907 45.5379ZM54.8058 61.0471C55.2629 61.0471 55.7012 61.2283 56.0244 61.551C56.3476 61.8737 56.5292 62.3114 56.5292 62.7677C56.5292 63.224 56.3476 63.6617 56.0244 63.9844C55.7012 64.307 55.2629 64.4883 54.8058 64.4883C54.3488 64.4883 53.9104 64.307 53.5872 63.9844C53.2641 63.6617 53.0825 63.224 53.0825 62.7677C53.0825 62.3114 53.2641 61.8737 53.5872 61.551C53.9104 61.2283 54.3488 61.0471 54.8058 61.0471ZM92.3158 27.6394C92.4449 28.1196 92.4781 28.6204 92.4133 29.1134C92.3485 29.6063 92.1871 30.0817 91.9384 30.5123C91.6896 30.943 91.3583 31.3205 90.9634 31.6234C90.5685 31.9262 90.1177 32.1484 89.6368 32.2773C89.1559 32.4062 88.6543 32.4393 88.1606 32.3746C87.6669 32.3099 87.1907 32.1488 86.7594 31.9004C86.328 31.6521 85.9499 31.3213 85.6466 30.927C85.3433 30.5327 85.1208 30.0827 84.9917 29.6025C84.7309 28.6328 84.8667 27.5994 85.3691 26.7296C85.8715 25.8598 86.6994 25.2249 87.6707 24.9646C88.6419 24.7043 89.6769 24.8399 90.5481 25.3415C91.4192 25.8431 92.0551 26.6697 92.3158 27.6394ZM66.0976 51.1104C65.8116 50.819 65.6523 50.4267 65.6544 50.0187C65.6564 49.6107 65.8197 49.22 66.1086 48.9315C66.3976 48.643 66.7889 48.48 67.1975 48.478C67.6061 48.4759 67.9991 48.6349 68.2909 48.9205C68.5818 49.2109 68.7452 49.6048 68.7452 50.0155C68.7452 50.4261 68.5818 50.82 68.2909 51.1104C68.0001 51.4008 67.6056 51.5639 67.1943 51.5639C66.783 51.5639 66.3885 51.4008 66.0976 51.1104ZM69.9124 33.6304C69.7832 33.146 69.8517 32.6303 70.1028 32.1963C70.3539 31.7623 70.7672 31.4455 71.2519 31.3153C71.494 31.2461 71.7474 31.2256 71.9975 31.2552C72.2475 31.2848 72.4891 31.3639 72.7083 31.4877C72.9274 31.6116 73.1196 31.7778 73.2736 31.9767C73.4277 32.1755 73.5405 32.403 73.6056 32.6459C73.6706 32.8887 73.6866 33.1421 73.6524 33.3912C73.6183 33.6403 73.5349 33.8801 73.4069 34.0966C73.2789 34.3131 73.1091 34.502 72.9072 34.6522C72.7053 34.8025 72.4755 34.9111 72.2311 34.9717C71.746 35.1007 71.2295 35.0324 70.7948 34.7816C70.3601 34.5309 70.0428 34.1183 69.9124 33.6343V33.6304ZM75.4232 23.0133C75.9764 22.7165 76.6237 22.6463 77.2278 22.8178C77.8319 22.9892 78.3454 23.3887 78.6596 23.9317C78.9738 24.4746 79.0639 25.1184 78.9109 25.7265C78.7578 26.3347 78.3737 26.8595 77.8398 27.1897C77.2866 27.4865 76.6393 27.5566 76.0352 27.3852C75.4311 27.2138 74.9176 26.8143 74.6034 26.2713C74.2893 25.7283 74.1991 25.0846 74.3522 24.4764C74.5052 23.8683 74.8893 23.3435 75.4232 23.0133ZM74.209 21.4843C74.0009 21.6926 73.7537 21.8579 73.4815 21.9707C73.2093 22.0834 72.9175 22.1415 72.6228 22.1415C72.3281 22.1415 72.0363 22.0834 71.7641 21.9707C71.4919 21.8579 71.2446 21.6926 71.0365 21.4843C70.6161 21.0641 70.3799 20.4944 70.3799 19.9005C70.3799 19.3065 70.6161 18.7369 71.0365 18.3167C71.2446 18.1084 71.4919 17.9431 71.7641 17.8303C72.0363 17.7175 72.3281 17.6595 72.6228 17.6595C72.9175 17.6595 73.2093 17.7175 73.4815 17.8303C73.7537 17.9431 74.0009 18.1084 74.209 18.3167C74.6295 18.7369 74.8657 19.3065 74.8657 19.9005C74.8657 20.4944 74.6295 21.0641 74.209 21.4843ZM69.9124 41.6899C70.0494 41.213 70.3683 40.8089 70.8007 40.5644C71.2331 40.32 71.7444 40.2548 72.2244 40.383C72.7044 40.5111 73.1149 40.8223 73.3674 41.2496C73.6199 41.6769 73.6943 42.1861 73.5745 42.6676C73.5139 42.9116 73.4051 43.141 73.2546 43.3426C73.1041 43.5442 72.9149 43.7138 72.6981 43.8415C72.4812 43.9693 72.241 44.0526 71.9916 44.0867C71.7421 44.1207 71.4883 44.1048 71.2451 44.0399C71.0018 43.975 70.774 43.8623 70.5748 43.7085C70.3757 43.5546 70.2092 43.3627 70.0851 43.144C69.9611 42.9252 69.8819 42.684 69.8523 42.4343C69.8226 42.1847 69.8431 41.9316 69.9124 41.6899ZM58.0841 20.4753C58.1277 20.3115 58.2033 20.1578 58.3065 20.0231C58.4096 19.8885 58.5384 19.7754 58.6853 19.6904C58.8323 19.6054 58.9946 19.5502 59.1629 19.5279C59.3312 19.5055 59.5023 19.5166 59.6664 19.5603C59.9978 19.6484 60.2805 19.8644 60.4524 20.1607C60.6243 20.457 60.6712 20.8093 60.5829 21.1401C60.4946 21.471 60.2783 21.7533 59.9816 21.9249C59.6848 22.0965 59.332 22.1433 59.0006 22.0552C58.8365 22.0116 58.6826 21.9361 58.5477 21.8331C58.4128 21.7301 58.2996 21.6016 58.2144 21.4549C58.1293 21.3082 58.074 21.1461 58.0516 20.9781C58.0293 20.81 58.0403 20.6392 58.0841 20.4753ZM83.425 17.2101C83.8168 16.9834 84.2496 16.836 84.6986 16.7764C85.1475 16.7168 85.6038 16.7462 86.0414 16.8627C86.479 16.9793 86.8893 17.1809 87.2488 17.4558C87.6083 17.7308 87.9101 18.0739 88.1367 18.4653C88.3633 18.8569 88.5104 19.2892 88.5697 19.7375C88.6289 20.1859 88.5991 20.6415 88.482 21.0783C88.3649 21.5151 88.1627 21.9247 87.8871 22.2835C87.6115 22.6424 87.2678 22.9435 86.8756 23.1697C86.4834 23.3959 86.0504 23.5428 85.6014 23.6019C85.1523 23.6611 84.696 23.6313 84.2585 23.5144C83.821 23.3975 83.4108 23.1957 83.0514 22.9205C82.692 22.6453 82.3904 22.3021 82.1638 21.9105C81.7068 21.1202 81.583 20.181 81.8195 19.2995C82.056 18.418 82.6335 17.6665 83.425 17.2101ZM71.4791 28.0696C71.5961 28.2654 71.673 28.4825 71.7052 28.7082C71.7374 28.9339 71.7244 29.1638 71.6669 29.3845C71.6093 29.6051 71.5085 29.8122 71.3701 29.9936C71.2317 30.175 71.0586 30.3271 70.8609 30.4411C70.6631 30.5551 70.4446 30.6288 70.2181 30.6577C69.9916 30.6867 69.7615 30.6704 69.5414 30.6099C69.3212 30.5493 69.1153 30.4457 68.9356 30.305C68.7559 30.1642 68.606 29.9893 68.4946 29.7902C68.3815 29.5943 68.3081 29.378 68.2786 29.1538C68.2492 28.9296 68.2642 28.7017 68.323 28.4833C68.3817 28.2649 68.4829 28.0602 68.6209 27.8808C68.7589 27.7015 68.9309 27.551 69.1272 27.438C69.3234 27.3251 69.54 27.2518 69.7646 27.2224C69.9891 27.193 70.2173 27.208 70.4361 27.2667C70.6549 27.3253 70.8599 27.4264 71.0396 27.5642C71.2192 27.7019 71.3699 27.8737 71.483 28.0696H71.4791ZM76.6648 31.8237C76.4876 31.163 76.5804 30.4592 76.9226 29.8668C77.2648 29.2743 77.8285 28.8417 78.49 28.664C79.1522 28.4866 79.8578 28.5792 80.4517 28.9213C81.0455 29.2634 81.479 29.8271 81.6566 30.4882C81.8342 31.1494 81.7415 31.854 81.3989 32.4469C81.0562 33.0398 80.4917 33.4726 79.8295 33.6499C79.1673 33.8266 78.4619 33.7335 77.8684 33.3911C77.2749 33.0486 76.842 32.4848 76.6648 31.8237ZM76.6648 43.5005C76.7479 43.1681 76.8964 42.8556 77.1017 42.5811C77.307 42.3065 77.565 42.0756 77.8606 41.9017C78.1562 41.7277 78.4836 41.6143 78.8235 41.568C79.1635 41.5217 79.5093 41.5435 79.8408 41.632C80.1723 41.7205 80.4828 41.874 80.7542 42.0836C81.0257 42.2932 81.2526 42.5546 81.4218 42.8526C81.591 43.1507 81.6991 43.4794 81.7397 43.8196C81.7804 44.1597 81.7528 44.5046 81.6586 44.834C81.5755 45.1664 81.427 45.479 81.2217 45.7535C81.0164 46.028 80.7584 46.2589 80.4628 46.4329C80.1671 46.6068 79.8398 46.7202 79.4998 46.7665C79.1598 46.8128 78.814 46.7911 78.4825 46.7026C78.1511 46.614 77.8405 46.4605 77.5691 46.251C77.2977 46.0414 77.0707 45.7799 76.9015 45.4819C76.7323 45.1839 76.6243 44.8552 76.5836 44.515C76.543 44.1748 76.5706 43.8299 76.6648 43.5005ZM80.0292 40.6224C79.2429 40.6224 78.4887 40.3105 77.9327 39.7553C77.3767 39.2002 77.0643 38.4472 77.0643 37.6621C77.0643 36.877 77.3767 36.124 77.9327 35.5689C78.4887 35.0137 79.2429 34.7018 80.0292 34.7018C80.8156 34.7018 81.5697 35.0137 82.1257 35.5689C82.6818 36.124 82.9941 36.877 82.9941 37.6621C82.9941 38.4472 82.6818 39.2002 82.1257 39.7553C81.5697 40.3105 80.8156 40.6224 80.0292 40.6224ZM77.3815 15.1492C77.0929 14.8615 76.864 14.5199 76.7078 14.1438C76.5516 13.7677 76.4711 13.3645 76.4711 12.9574C76.4711 12.5502 76.5516 12.147 76.7078 11.7709C76.864 11.3948 77.0929 11.0532 77.3815 10.7655C77.6697 10.4774 78.0119 10.2488 78.3885 10.0928C78.7652 9.93681 79.169 9.85653 79.5768 9.85653C79.9846 9.85653 80.3884 9.93681 80.7651 10.0928C81.1418 10.2488 81.484 10.4774 81.7721 10.7655C82.3056 11.3557 82.5916 12.1278 82.5712 12.9225C82.5508 13.7172 82.2256 14.4738 81.6626 15.0359C81.0996 15.598 80.3418 15.9228 79.5459 15.9431C78.7499 15.9635 77.9766 15.6779 77.3855 15.1453L77.3815 15.1492ZM64.7581 23.2323C64.5748 23.5486 64.2731 23.7792 63.9194 23.8735C63.5657 23.9677 63.189 23.9178 62.8722 23.7348C62.5554 23.5517 62.3244 23.2505 62.23 22.8974C62.1356 22.5443 62.1856 22.1682 62.3689 21.8518C62.5518 21.5355 62.8529 21.3047 63.2062 21.2101C63.3812 21.1632 63.5637 21.1512 63.7432 21.1748C63.9228 21.1984 64.096 21.257 64.2529 21.3474C64.4097 21.4378 64.5472 21.5581 64.6575 21.7016C64.7678 21.845 64.8487 22.0087 64.8956 22.1834C64.9426 22.3581 64.9546 22.5402 64.931 22.7195C64.9074 22.8988 64.8486 23.0717 64.7581 23.2283V23.2323ZM62.2553 45.0765C62.3514 44.9802 62.4656 44.9039 62.5912 44.8517C62.7169 44.7996 62.8517 44.7728 62.9878 44.7728C63.1239 44.7728 63.2586 44.7996 63.3843 44.8517C63.51 44.9039 63.6241 44.9802 63.7202 45.0765C63.9127 45.2705 64.0207 45.5326 64.0207 45.8058C64.0207 46.0789 63.9127 46.341 63.7202 46.5351C63.6241 46.6313 63.51 46.7077 63.3843 46.7598C63.2586 46.8119 63.1239 46.8387 62.9878 46.8387C62.8517 46.8387 62.7169 46.8119 62.5912 46.7598C62.4656 46.7077 62.3514 46.6313 62.2553 46.5351C62.0619 46.3415 61.9532 46.0792 61.9532 45.8058C61.9532 45.5323 62.0619 45.27 62.2553 45.0765ZM62.2553 28.7813C62.3514 28.6851 62.4656 28.6087 62.5912 28.5566C62.7169 28.5045 62.8517 28.4777 62.9878 28.4777C63.1239 28.4777 63.2586 28.5045 63.3843 28.5566C63.51 28.6087 63.6241 28.6851 63.7202 28.7813C63.8644 28.9258 63.9626 29.1098 64.0022 29.3099C64.0418 29.5101 64.0211 29.7175 63.9427 29.9059C63.8643 30.0944 63.7318 30.2554 63.5618 30.3687C63.3919 30.482 63.1921 30.5424 62.9878 30.5424C62.7834 30.5424 62.5836 30.482 62.4137 30.3687C62.2437 30.2554 62.1112 30.0944 62.0328 29.9059C61.9544 29.7175 61.9338 29.5101 61.9734 29.3099C62.013 29.1098 62.1111 28.9258 62.2553 28.7813ZM64.2724 44.3921C64.0154 44.2433 63.8278 43.9989 63.7508 43.7123C63.6737 43.4258 63.7134 43.1205 63.8612 42.8631C63.9346 42.7356 64.0325 42.6239 64.1493 42.5343C64.266 42.4446 64.3994 42.3788 64.5416 42.3407C64.6838 42.3026 64.8322 42.2928 64.9783 42.312C65.1243 42.3312 65.2651 42.3789 65.3926 42.4525C65.6502 42.6008 65.8383 42.8452 65.9154 43.132C65.9925 43.4187 65.9524 43.7243 65.8039 43.9815C65.6553 44.2387 65.4105 44.4265 65.1233 44.5035C64.8361 44.5805 64.53 44.5404 64.2724 44.3921ZM62.3689 53.4645C62.1872 53.1486 62.1383 52.7736 62.233 52.4218C62.3278 52.0699 62.5583 51.7699 62.8742 51.5875C63.1905 51.4045 63.5667 51.3544 63.92 51.4483C64.2732 51.5421 64.5747 51.7723 64.7581 52.088C64.8487 52.2447 64.9075 52.4175 64.9311 52.5969C64.9548 52.7762 64.9428 52.9584 64.8959 53.1331C64.8489 53.3077 64.768 53.4715 64.6577 53.6149C64.5473 53.7584 64.4098 53.8787 64.2529 53.969C64.096 54.0595 63.9228 54.1182 63.7432 54.1418C63.5636 54.1654 63.3811 54.1534 63.2062 54.1065C63.0312 54.0597 62.8672 53.9789 62.7236 53.8687C62.5799 53.7586 62.4594 53.6212 62.3689 53.4645ZM65.8039 31.3349C65.8775 31.4622 65.9254 31.6028 65.9446 31.7486C65.9638 31.8944 65.954 32.0425 65.9158 32.1845C65.8776 32.3266 65.8118 32.4597 65.722 32.5762C65.6322 32.6928 65.5203 32.7906 65.3926 32.8639C65.1348 33.0114 64.829 33.0511 64.542 32.9741C64.2551 32.8972 64.0103 32.7099 63.8612 32.4533C63.7876 32.3259 63.7399 32.1853 63.7208 32.0396C63.7016 31.8938 63.7115 31.7457 63.7496 31.6037C63.7878 31.4618 63.8536 31.3287 63.9434 31.2121C64.0331 31.0955 64.1449 30.9977 64.2724 30.9243C64.53 30.776 64.8361 30.7359 65.1233 30.8129C65.2655 30.851 65.3988 30.9167 65.5156 31.0063C65.6323 31.0959 65.7303 31.2075 65.8039 31.3349ZM64.8286 34.9873C64.7875 34.8343 64.7769 34.6746 64.7975 34.5175C64.8182 34.3604 64.8696 34.2089 64.9489 34.0717C65.0282 33.9344 65.1338 33.8141 65.2596 33.7176C65.3855 33.621 65.5292 33.5502 65.6824 33.5091C65.8357 33.468 65.9956 33.4575 66.1529 33.4781C66.3103 33.4987 66.462 33.5501 66.5995 33.6292C66.737 33.7084 66.8575 33.8138 66.9542 33.9395C67.0509 34.0651 67.1218 34.2086 67.1629 34.3616C67.246 34.6707 67.2028 35.0001 67.0426 35.2773C66.8825 35.5545 66.6187 35.7568 66.3091 35.8398C65.9995 35.9228 65.6697 35.8796 65.392 35.7197C65.1144 35.5598 64.9117 35.2964 64.8286 34.9873ZM64.8286 40.3291C64.9117 40.02 65.1144 39.7566 65.392 39.5967C65.6697 39.4368 65.9995 39.3936 66.3091 39.4766C66.6187 39.5596 66.8825 39.7619 67.0426 40.0391C67.2028 40.3163 67.246 40.6457 67.1629 40.9548C67.1218 41.1078 67.0509 41.2512 66.9542 41.3769C66.8575 41.5026 66.737 41.608 66.5995 41.6872C66.462 41.7663 66.3103 41.8177 66.1529 41.8383C65.9956 41.8589 65.8357 41.8483 65.6824 41.8073C65.5292 41.7662 65.3855 41.6954 65.2596 41.5988C65.1338 41.5023 65.0282 41.382 64.9489 41.2447C64.8696 41.1075 64.8182 40.956 64.7975 40.7989C64.7769 40.6417 64.7875 40.4821 64.8286 40.3291ZM66.3992 38.976C66.2201 38.9858 66.0408 38.959 65.8724 38.8973C65.704 38.8355 65.55 38.7402 65.4198 38.617C65.2895 38.4939 65.1858 38.3455 65.1149 38.181C65.044 38.0165 65.0074 37.8393 65.0074 37.6602C65.0074 37.481 65.044 37.3038 65.1149 37.1393C65.1858 36.9748 65.2895 36.8264 65.4198 36.7033C65.55 36.5801 65.704 36.4848 65.8724 36.423C66.0408 36.3613 66.2201 36.3345 66.3992 36.3443C66.7363 36.3626 67.0536 36.5093 67.2857 36.754C67.5179 36.9988 67.6472 37.3231 67.6472 37.6602C67.6472 37.9972 67.5179 38.3215 67.2857 38.5663C67.0536 38.811 66.7363 38.9577 66.3992 38.976ZM68.2909 24.2138C68.4352 24.3576 68.5497 24.5283 68.6279 24.7163C68.7061 24.9043 68.7464 25.1058 68.7466 25.3093C68.7468 25.5129 68.7068 25.7144 68.6289 25.9025C68.5511 26.0906 68.4369 26.2616 68.2929 26.4057C68.1489 26.5497 67.9779 26.664 67.7896 26.7421C67.6013 26.8201 67.3995 26.8604 67.1957 26.8606C66.9918 26.8608 66.7899 26.8209 66.6015 26.7431C66.4131 26.6654 66.2419 26.5514 66.0976 26.4076C65.8116 26.1162 65.6523 25.7239 65.6544 25.3159C65.6564 24.9079 65.8197 24.5172 66.1086 24.2287C66.3976 23.9402 66.7889 23.7772 67.1975 23.7752C67.6061 23.7731 67.9991 23.9321 68.2909 24.2177V24.2138ZM39.2449 68.9972C38.9475 69.5112 38.4579 69.8864 37.8836 70.0404C37.3094 70.1944 36.6974 70.1145 36.182 69.8184C35.6835 69.513 35.324 69.0253 35.1803 68.4592C35.0365 67.8932 35.1198 67.2934 35.4123 66.7877C35.7049 66.282 36.1836 65.9103 36.7466 65.7518C37.3095 65.5933 37.9122 65.6605 38.4263 65.9391C38.9412 66.2361 39.317 66.7249 39.4712 67.2983C39.6254 67.8716 39.5454 68.4826 39.2488 68.9972H39.2449ZM58.0214 25.7154C58.1307 25.7447 58.2332 25.7952 58.3229 25.864C58.4127 25.9328 58.488 26.0186 58.5445 26.1164C58.6011 26.2143 58.6378 26.3223 58.6525 26.4344C58.6673 26.5464 58.6598 26.6602 58.6305 26.7693C58.6011 26.8785 58.5506 26.9807 58.4817 27.0704C58.4128 27.16 58.3268 27.2352 58.2288 27.2916C58.1308 27.3481 58.0226 27.3847 57.9104 27.3995C57.7982 27.4142 57.6842 27.4067 57.5749 27.3774C57.3542 27.3183 57.166 27.1741 57.0518 26.9764C56.9376 26.7788 56.9067 26.5439 56.9659 26.3235C57.0251 26.1031 57.1696 25.9153 57.3675 25.8012C57.5655 25.6872 57.8007 25.6563 58.0214 25.7154ZM48.077 72.0044C47.9108 72.6215 47.5059 73.1474 46.9513 73.4664C46.3967 73.7854 45.738 73.8714 45.1199 73.7054C44.5018 73.5395 43.9751 73.1352 43.6556 72.5815C43.3361 72.0278 43.2499 71.3701 43.4161 70.753C43.4984 70.4474 43.6402 70.1611 43.8333 69.9102C44.0265 69.6593 44.2672 69.4489 44.5418 69.291C44.8164 69.133 45.1195 69.0306 45.4337 68.9896C45.7479 68.9486 46.0672 68.9697 46.3732 69.0519C46.6793 69.1341 46.9661 69.2756 47.2173 69.4685C47.4686 69.6613 47.6793 69.9017 47.8375 70.1758C47.9957 70.45 48.0983 70.7526 48.1394 71.0663C48.1805 71.3801 48.1593 71.6988 48.077 72.0044ZM58.0214 49.6127C57.9119 49.6419 57.7976 49.6494 57.6852 49.6346C57.5727 49.6198 57.4643 49.583 57.3661 49.5263C57.2679 49.4697 57.1819 49.3943 57.1129 49.3044C57.0438 49.2146 56.9932 49.112 56.9639 49.0026C56.9346 48.8932 56.9271 48.7792 56.942 48.6669C56.9568 48.5547 56.9937 48.4464 57.0504 48.3484C57.1071 48.2503 57.1827 48.1644 57.2727 48.0955C57.3627 48.0266 57.4654 47.9761 57.5749 47.9468C57.7962 47.8877 58.0319 47.9187 58.2302 48.0331C58.4285 48.1475 58.5732 48.3359 58.6324 48.5568C58.6916 48.7777 58.6605 49.0131 58.5459 49.2111C58.4314 49.4091 58.2427 49.5536 58.0214 49.6127ZM57.3948 72.5831C57.3948 73.2676 57.1224 73.9241 56.6376 74.4081C56.1528 74.8921 55.4953 75.1641 54.8097 75.1641C54.4699 75.1646 54.1334 75.0982 53.8193 74.9687C53.5052 74.8392 53.2198 74.6492 52.9793 74.4095C52.7389 74.1698 52.5481 73.8851 52.418 73.5717C52.2878 73.2583 52.2208 72.9224 52.2208 72.5831C52.2208 71.8986 52.4932 71.2421 52.978 70.7581C53.4627 70.2741 54.1202 70.0022 54.8058 70.0022C55.4914 70.0022 56.1489 70.2741 56.6337 70.7581C57.1185 71.2421 57.3908 71.8986 57.3908 72.5831H57.3948ZM51.6372 49.425C51.4612 49.3765 51.3114 49.2605 51.2204 49.1024C51.1295 48.9442 51.1047 48.7566 51.1516 48.5803C51.2002 48.4045 51.3163 48.2549 51.4747 48.1641C51.6331 48.0733 51.821 48.0486 51.9976 48.0954C52.1742 48.1431 52.3245 48.2589 52.4156 48.4173C52.5067 48.5757 52.531 48.7638 52.4832 48.9401C52.4355 49.1164 52.3195 49.2665 52.1608 49.3575C52.0022 49.4484 51.8138 49.4727 51.6372 49.425ZM51.3631 54.7863C51.2862 55.0731 51.0984 55.3176 50.8409 55.4661C50.5835 55.6146 50.2775 55.6549 49.9903 55.5782C49.7031 55.5014 49.4581 55.3139 49.3094 55.0569C49.1607 54.7998 49.1203 54.4943 49.1971 54.2075C49.2836 53.9323 49.4733 53.701 49.7265 53.5621C49.9798 53.4231 50.277 53.3873 50.5561 53.462C50.8352 53.5367 51.0745 53.7162 51.2242 53.963C51.3739 54.2098 51.4222 54.5048 51.3592 54.7863H51.3631ZM40.412 45.8977C40.5225 46.095 40.5507 46.3278 40.4905 46.5458C40.4304 46.7637 40.2868 46.9492 40.0907 47.0623C39.8946 47.1753 39.6619 47.2068 39.4427 47.1498C39.2236 47.0929 39.0358 46.9521 38.9198 46.758C38.806 46.5608 38.7751 46.3267 38.8338 46.1068C38.8925 45.8869 39.0361 45.6993 39.2331 45.5848C39.3311 45.528 39.4393 45.491 39.5516 45.4759C39.6639 45.4608 39.7781 45.4681 39.8876 45.4971C39.9971 45.5262 40.0998 45.5765 40.1898 45.6452C40.2798 45.714 40.3553 45.7998 40.412 45.8977ZM46.9529 53.2573C46.8872 53.3789 46.7978 53.486 46.6899 53.5725C46.582 53.6589 46.4579 53.7229 46.3248 53.7605C46.1917 53.7982 46.0524 53.8088 45.9151 53.7917C45.7778 53.7747 45.6454 53.7303 45.5256 53.6612C45.4058 53.5921 45.3011 53.4997 45.2177 53.3895C45.1343 53.2793 45.074 53.1535 45.0401 53.0196C45.0063 52.8857 44.9998 52.7463 45.0209 52.6098C45.042 52.4733 45.0903 52.3424 45.163 52.2249C45.3001 51.9874 45.5261 51.814 45.7912 51.7429C46.0564 51.6717 46.339 51.7087 46.5769 51.8456C46.8148 51.9825 46.9884 52.2081 47.0597 52.4729C47.1309 52.7376 47.0939 53.0198 46.9568 53.2573H46.9529ZM47.0116 46.1206C46.9145 46.2175 46.7828 46.272 46.6454 46.272C46.5081 46.272 46.3764 46.2175 46.2792 46.1206C46.1821 46.0236 46.1275 45.8921 46.1275 45.7549C46.1275 45.6178 46.1821 45.4863 46.2792 45.3893C46.3767 45.2931 46.5083 45.2391 46.6454 45.2391C46.7825 45.2391 46.9141 45.2931 47.0116 45.3893C47.108 45.4867 47.1621 45.618 47.1621 45.7549C47.1621 45.8918 47.108 46.0232 47.0116 46.1206ZM43.1106 49.2881C43.1986 49.3762 43.2683 49.4807 43.3158 49.5957C43.3633 49.7106 43.3877 49.8338 43.3875 49.9582C43.3873 50.0826 43.3626 50.2057 43.3147 50.3205C43.2669 50.4353 43.1969 50.5396 43.1087 50.6275C43.0205 50.7153 42.9158 50.7849 42.8006 50.8323C42.6855 50.8797 42.5621 50.904 42.4375 50.9039C42.313 50.9037 42.1897 50.879 42.0746 50.8312C41.9596 50.7835 41.8552 50.7136 41.7672 50.6255C41.5897 50.4481 41.4901 50.2076 41.4901 49.9568C41.4901 49.706 41.5897 49.4655 41.7672 49.2881C41.8553 49.1998 41.96 49.1297 42.0752 49.0819C42.1905 49.034 42.3141 49.0094 42.4389 49.0094C42.5638 49.0094 42.6873 49.034 42.8026 49.0819C42.9179 49.1297 43.0226 49.1998 43.1106 49.2881ZM43.4161 60.0655C43.3257 60.2222 43.2052 60.3595 43.0615 60.4697C42.9178 60.5799 42.7538 60.6607 42.5789 60.7075C42.4039 60.7544 42.2214 60.7663 42.0418 60.7427C41.8622 60.7191 41.6891 60.6604 41.5322 60.57C41.2961 60.4338 41.1058 60.2309 40.9852 59.9867C40.8647 59.7426 40.8193 59.4682 40.8549 59.1984C40.8904 58.9285 41.0054 58.6752 41.1851 58.4705C41.3648 58.2659 41.6013 58.119 41.8646 58.0485C42.1279 57.978 42.4063 57.987 42.6645 58.0744C42.9227 58.1618 43.1491 58.3237 43.3152 58.5396C43.4812 58.7555 43.5794 59.0156 43.5974 59.2873C43.6154 59.5589 43.5523 59.8297 43.4161 60.0655ZM81.7682 60.1789C82.3489 60.7602 82.675 61.5478 82.675 62.3688C82.675 63.1899 82.3489 63.9774 81.7682 64.5587C81.1771 65.0913 80.4037 65.3769 79.6078 65.3566C78.8119 65.3362 78.0541 65.0114 77.4911 64.4493C76.9281 63.8872 76.6028 63.1307 76.5824 62.336C76.562 61.5413 76.8481 60.7691 77.3815 60.1789C77.9638 59.5991 78.7526 59.2735 79.5749 59.2735C80.3972 59.2735 81.186 59.5991 81.7682 60.1789ZM75.4232 52.3188C74.8685 51.9983 74.4641 51.4709 74.2988 50.8527C74.1336 50.2345 74.221 49.576 74.542 49.0222C74.8623 48.4688 75.3895 48.0649 76.0078 47.8992C76.6261 47.7335 77.285 47.8195 77.8398 48.1384C78.3737 48.4686 78.7578 48.9934 78.9109 49.6016C79.0639 50.2097 78.9738 50.8535 78.6596 51.3964C78.3454 51.9394 77.8319 52.3389 77.2278 52.5103C76.6237 52.6818 75.9764 52.6117 75.4232 52.3148V52.3188ZM88.1328 56.855C87.9065 57.2465 87.6052 57.5898 87.246 57.8651C86.8868 58.1404 86.4769 58.3423 86.0395 58.4594C85.6022 58.5766 85.146 58.6065 84.6971 58.5476C84.2481 58.4887 83.8152 58.3421 83.423 58.1161C83.0308 57.8902 82.6871 57.5893 82.4113 57.2307C82.1356 56.8721 81.9333 56.4628 81.816 56.0261C81.6987 55.5894 81.6687 55.134 81.7277 54.6858C81.7867 54.2375 81.9336 53.8053 82.1599 53.4137C82.6169 52.6229 83.3699 52.0457 84.2532 51.8092C85.1364 51.5727 86.0776 51.6962 86.8697 52.1526C87.6618 52.6089 88.2398 53.3607 88.4767 54.2426C88.7136 55.1244 88.5899 56.0642 88.1328 56.855ZM59.6703 55.76C59.5037 55.8128 59.3282 55.8312 59.1542 55.8143C58.9803 55.7974 58.8116 55.7454 58.6584 55.6615C58.5051 55.5776 58.3705 55.4636 58.2626 55.3263C58.1548 55.189 58.076 55.0312 58.0309 54.8627C57.9858 54.6941 57.9755 54.5181 58.0005 54.3454C58.0255 54.1727 58.0853 54.0069 58.1763 53.8579C58.2673 53.7089 58.3876 53.5799 58.5299 53.4787C58.6723 53.3775 58.8337 53.3062 59.0045 53.269C59.1686 53.2254 59.3397 53.2144 59.508 53.2368C59.6763 53.2591 59.8386 53.3144 59.9855 53.3993C60.1324 53.4843 60.2612 53.5974 60.3643 53.732C60.4675 53.8666 60.5431 54.0203 60.5868 54.1841C60.6306 54.3479 60.6415 54.5187 60.6191 54.6868C60.5967 54.8548 60.5414 55.0168 60.4563 55.1635C60.3712 55.3102 60.258 55.4388 60.1231 55.5418C59.9883 55.6448 59.8344 55.7203 59.6703 55.7639V55.76ZM94 37.6621C94 38.2054 93.8928 38.7434 93.6846 39.2454C93.4763 39.7474 93.1711 40.2035 92.7863 40.5876C92.4015 40.9718 91.9447 41.2766 91.4419 41.4845C90.9392 41.6924 90.4003 41.7994 89.8562 41.7994C89.312 41.7994 88.7731 41.6924 88.2704 41.4845C87.7676 41.2766 87.3108 40.9718 86.926 40.5876C86.5412 40.2035 86.236 39.7474 86.0277 39.2454C85.8195 38.7434 85.7123 38.2054 85.7123 37.6621C85.7123 36.5648 86.1489 35.5125 86.926 34.7366C87.7031 33.9607 88.7571 33.5248 89.8562 33.5248C90.9552 33.5248 92.0092 33.9607 92.7863 34.7366C93.5634 35.5125 94 36.5648 94 37.6621ZM92.3158 47.6887C92.2048 48.1887 91.9935 48.661 91.6947 49.0772C91.3959 49.4935 91.0158 49.845 90.5773 50.1106C90.1387 50.3763 89.6509 50.5505 89.1431 50.6228C88.6353 50.6951 88.1181 50.6639 87.6227 50.5313C87.1273 50.3987 86.6639 50.1672 86.2605 49.851C85.8571 49.5347 85.522 49.1402 85.2754 48.6911C85.0288 48.2421 84.8759 47.7478 84.8257 47.2381C84.7756 46.7285 84.8294 46.214 84.9838 45.7256C85.2785 44.7937 85.922 44.0112 86.7803 43.5414C87.6386 43.0716 88.6454 42.9506 89.5908 43.2038C90.5362 43.4569 91.3473 44.0646 91.8549 44.9001C92.3626 45.7357 92.5277 46.7346 92.3158 47.6887ZM66.5324 70.6865C66.6316 71.0375 66.66 71.4046 66.6159 71.7667C66.5718 72.1287 66.4562 72.4783 66.2756 72.7954C66.095 73.1124 65.8532 73.3904 65.5641 73.6133C65.275 73.8362 64.9445 73.9996 64.5916 74.0939C64.2388 74.1881 63.8707 74.2115 63.5087 74.1626C63.1468 74.1136 62.7982 73.9934 62.4832 73.8088C62.1681 73.6242 61.893 73.379 61.6737 73.0874C61.4544 72.7957 61.2953 72.4635 61.2057 72.1099C61.0167 71.4047 61.116 70.6534 61.4818 70.0212C61.8476 69.3891 62.4499 68.9279 63.1562 68.7391C63.8625 68.5504 64.615 68.6495 65.2482 69.0147C65.8813 69.38 66.3432 69.9813 66.5324 70.6865ZM74.8553 66.4514C75.0484 66.7843 75.1738 67.152 75.2243 67.5334C75.2749 67.9147 75.2496 68.3023 75.1499 68.6739C75.0502 69.0455 74.8781 69.3938 74.6434 69.6989C74.4087 70.004 74.116 70.2599 73.7821 70.4519C73.4488 70.644 73.0809 70.7688 72.6994 70.8189C72.3178 70.869 71.9301 70.8436 71.5584 70.7441C71.1866 70.6446 70.8382 70.473 70.5329 70.239C70.2277 70.005 69.9716 69.7132 69.7793 69.3804C69.5862 69.0475 69.4608 68.6798 69.4103 68.2984C69.3597 67.9171 69.385 67.5295 69.4847 67.1579C69.5844 66.7863 69.7565 66.438 69.9912 66.1329C70.2259 65.8278 70.5186 65.5719 70.8524 65.3799C71.1857 65.1878 71.5536 65.063 71.9352 65.0129C72.3168 64.9628 72.7045 64.9882 73.0762 65.0877C73.4479 65.1872 73.7964 65.3588 74.1016 65.5928C74.4069 65.8268 74.663 66.1186 74.8553 66.4514ZM59.4941 62.4079C59.4247 62.1662 59.4043 61.9132 59.4339 61.6636C59.4636 61.4139 59.5427 61.1727 59.6668 60.9539C59.7908 60.7351 59.9573 60.5432 60.1565 60.3894C60.3556 60.2356 60.5835 60.1229 60.8267 60.058C61.07 59.993 61.3237 59.9771 61.5732 60.0112C61.8227 60.0453 62.0629 60.1286 62.2797 60.2563C62.4966 60.3841 62.6858 60.5537 62.8363 60.7553C62.9867 60.9568 63.0955 61.1863 63.1562 61.4303C63.2759 61.9118 63.2016 62.421 62.949 62.8483C62.6965 63.2755 62.2861 63.5868 61.806 63.7149C61.326 63.8431 60.8148 63.7779 60.3824 63.5335C59.95 63.289 59.631 62.8848 59.4941 62.4079ZM68.4359 61.2035C68.2005 61.3391 67.9408 61.427 67.6714 61.4624C67.4021 61.4977 67.1284 61.4797 66.866 61.4095C66.6035 61.3392 66.3576 61.218 66.1421 61.0528C65.9266 60.8877 65.7458 60.6817 65.61 60.4468C65.4742 60.2118 65.3861 59.9525 65.3507 59.6836C65.3153 59.4146 65.3333 59.1413 65.4037 58.8794C65.474 58.6174 65.5954 58.3718 65.7608 58.1566C65.9263 57.9414 66.1325 57.7609 66.3679 57.6253C66.8431 57.3515 67.4078 57.2774 67.9378 57.4193C68.4677 57.5613 68.9195 57.9075 69.1937 58.382C69.468 58.8565 69.5422 59.4203 69.4001 59.9495C69.2579 60.4786 68.9111 60.9297 68.4359 61.2035ZM49.7925 62.2984C49.686 62.6956 49.4258 63.0344 49.0692 63.2401C48.7126 63.4458 48.2888 63.5016 47.8909 63.3953C47.4931 63.289 47.1538 63.0293 46.9478 62.6732C46.7418 62.3172 46.6858 61.894 46.7923 61.4968C46.8988 61.1001 47.1587 60.7618 47.515 60.5565C47.8712 60.3512 48.2946 60.2955 48.6919 60.4018C49.0892 60.5081 49.428 60.7677 49.6336 61.1234C49.8393 61.479 49.895 61.9017 49.7886 62.2984H49.7925ZM46.2792 29.9349C46.2311 29.8869 46.193 29.8299 46.167 29.7671C46.1409 29.7044 46.1275 29.6372 46.1275 29.5693C46.1275 29.5014 46.1409 29.4341 46.167 29.3714C46.193 29.3087 46.2311 29.2516 46.2792 29.2036C46.3273 29.1556 46.3844 29.1175 46.4472 29.0915C46.5101 29.0656 46.5774 29.0522 46.6454 29.0522C46.7134 29.0522 46.7808 29.0656 46.8436 29.0915C46.9065 29.1175 46.9636 29.1556 47.0116 29.2036C47.1088 29.3006 47.1633 29.4321 47.1633 29.5693C47.1633 29.7064 47.1088 29.8379 47.0116 29.9349C46.9145 30.0319 46.7828 30.0864 46.6454 30.0864C46.5081 30.0864 46.3764 30.0319 46.2792 29.9349ZM46.5769 23.4786C46.339 23.616 46.0562 23.6535 45.7907 23.5827C45.5251 23.5119 45.2987 23.3388 45.161 23.1013C45.0234 22.8638 44.9859 22.5814 45.0568 22.3163C45.1276 22.0512 45.3011 21.825 45.539 21.6876C45.6568 21.6196 45.7868 21.5753 45.9217 21.5575C46.0566 21.5396 46.1937 21.5485 46.3252 21.5835C46.4567 21.6185 46.5799 21.6791 46.688 21.7617C46.796 21.8443 46.8867 21.9474 46.9548 22.065C47.023 22.1826 47.0673 22.3124 47.0852 22.4471C47.1031 22.5818 47.0942 22.7187 47.0591 22.8499C47.024 22.9812 46.9634 23.1043 46.8806 23.2122C46.7979 23.32 46.6947 23.4106 46.5769 23.4786ZM43.4161 4.57123C43.2499 3.95413 43.3361 3.29639 43.6556 2.7427C43.9751 2.18901 44.5018 1.78472 45.1199 1.61878C45.738 1.45284 46.3967 1.53883 46.9513 1.85785C47.5059 2.17686 47.9108 2.70276 48.077 3.31986C48.1593 3.62541 48.1805 3.94416 48.1394 4.2579C48.0983 4.57164 47.9957 4.87423 47.8375 5.14839C47.518 5.70208 46.9913 6.10636 46.3732 6.27231C45.7552 6.43825 45.0964 6.35225 44.5418 6.03324C43.9873 5.71422 43.5823 5.18832 43.4161 4.57123ZM40.0948 28.2495C40.1945 28.3051 40.2821 28.3799 40.3526 28.4696C40.423 28.5593 40.4749 28.6621 40.5053 28.772C40.5356 28.8819 40.5437 28.9968 40.5292 29.1098C40.5147 29.2229 40.4778 29.332 40.4207 29.4307C40.3637 29.5295 40.2875 29.6159 40.1966 29.6849C40.1058 29.754 40.0021 29.8044 39.8916 29.8331C39.7811 29.8618 39.666 29.8683 39.5529 29.8522C39.4399 29.8361 39.3312 29.7978 39.2331 29.7394C39.0361 29.625 38.8925 29.4373 38.8338 29.2174C38.7751 28.9975 38.806 28.7634 38.9198 28.5662C39.0337 28.3689 39.2214 28.2247 39.4417 28.1653C39.662 28.1059 39.8968 28.1362 40.0948 28.2495ZM43.1106 24.6987C43.2888 24.8766 43.3889 25.1178 43.3889 25.3694C43.3889 25.6209 43.2888 25.8622 43.1106 26.04C42.9325 26.2179 42.6909 26.3178 42.4389 26.3178C42.187 26.3178 41.9454 26.2179 41.7672 26.04C41.679 25.9519 41.609 25.8474 41.5613 25.7323C41.5136 25.6172 41.489 25.4939 41.489 25.3694C41.489 25.2448 41.5136 25.1215 41.5613 25.0064C41.609 24.8913 41.679 24.7868 41.7672 24.6987C41.8554 24.6106 41.9601 24.5408 42.0754 24.4931C42.1907 24.4454 42.3142 24.4209 42.4389 24.4209C42.5637 24.4209 42.6872 24.4454 42.8025 24.4931C42.9177 24.5408 43.0224 24.6106 43.1106 24.6987ZM41.027 16.6352C40.8441 16.3189 40.7947 15.943 40.8894 15.5902C40.9842 15.2375 41.2154 14.9368 41.5322 14.7542C41.849 14.5717 42.2255 14.5223 42.5788 14.6169C42.9321 14.7115 43.2333 14.9424 43.4161 15.2587C43.599 15.575 43.6484 15.9509 43.5537 16.3037C43.4589 16.6564 43.2277 16.9571 42.9109 17.1397C42.5941 17.3222 42.2176 17.3716 41.8643 17.277C41.511 17.1824 41.2098 16.9515 41.027 16.6352ZM52.2208 2.74501C52.2208 2.0605 52.4932 1.40403 52.978 0.920005C53.4627 0.435983 54.1202 0.164063 54.8058 0.164062C55.4914 0.164063 56.1489 0.435983 56.6337 0.920005C57.1185 1.40403 57.3908 2.0605 57.3908 2.74501C57.3908 3.42952 57.1185 4.08599 56.6337 4.57002C56.1489 5.05404 55.4914 5.32596 54.8058 5.32596C54.1202 5.32596 53.4627 5.05404 52.978 4.57002C52.4932 4.08599 52.2208 3.42952 52.2208 2.74501ZM51.6372 25.9032C51.7251 25.8784 51.8171 25.8713 51.9077 25.8823C51.9983 25.8933 52.0859 25.9222 52.1653 25.9672C52.2447 26.0123 52.3143 26.0727 52.3701 26.1448C52.4259 26.217 52.4668 26.2995 52.4904 26.3876C52.514 26.4756 52.5199 26.5675 52.5076 26.6579C52.4954 26.7482 52.4653 26.8352 52.419 26.9139C52.3728 26.9925 52.3114 27.0612 52.2384 27.1159C52.1654 27.1707 52.0822 27.2104 51.9937 27.2327C51.8199 27.2712 51.638 27.2411 51.486 27.1487C51.3339 27.0562 51.2236 26.9087 51.1781 26.7369C51.1325 26.5651 51.1553 26.3824 51.2416 26.227C51.3279 26.0716 51.4711 25.9556 51.6412 25.9032H51.6372ZM47.889 11.9308C48.2856 11.8267 48.7073 11.8837 49.062 12.0892C49.4167 12.2948 49.6754 12.6322 49.7815 13.0277C49.8877 13.4232 49.8326 13.8445 49.6284 14.1996C49.4242 14.5547 49.0875 14.8145 48.6919 14.9224C48.2946 15.0287 47.8712 14.9731 47.515 14.7677C47.1587 14.5624 46.8988 14.2241 46.7923 13.8274C46.6869 13.4308 46.7431 13.0086 46.9486 12.6532C47.1541 12.2978 47.4922 12.0381 47.889 11.9308ZM49.9844 19.748C50.1266 19.71 50.2749 19.7003 50.4209 19.7195C50.5668 19.7388 50.7076 19.7865 50.8351 19.8601C50.9625 19.9336 51.0743 20.0315 51.1638 20.1481C51.2534 20.2648 51.3191 20.3979 51.3572 20.5399C51.3953 20.6819 51.4049 20.8299 51.3857 20.9757C51.3664 21.1214 51.3186 21.2619 51.2449 21.3892C51.1713 21.5165 51.0733 21.628 50.9564 21.7175C50.8396 21.8069 50.7063 21.8725 50.5641 21.9105C50.2768 21.9873 49.9709 21.9469 49.7134 21.7984C49.456 21.6499 49.2681 21.4054 49.1913 21.1186C49.1144 20.8319 49.1548 20.5263 49.3035 20.2693C49.4523 20.0123 49.6972 19.8247 49.9844 19.748ZM35.3674 8.56387C35.0709 8.04994 34.9911 7.43951 35.1453 6.86679C35.2995 6.29407 35.6753 5.80595 36.1899 5.50975C36.7018 5.25143 37.2935 5.19866 37.8432 5.36227C38.3929 5.52588 38.859 5.89345 39.1458 6.38949C39.4326 6.88553 39.5182 7.47237 39.3851 8.02948C39.252 8.58659 38.9103 9.07167 38.4302 9.38509C38.1752 9.53224 37.8936 9.62774 37.6015 9.6661C37.3095 9.70447 37.0127 9.68496 36.7282 9.60868C36.4437 9.5324 36.1771 9.40086 35.9436 9.22158C35.7101 9.0423 35.5143 8.8188 35.3674 8.56387ZM33.9182 49.644C33.9861 49.7616 34.0301 49.8914 34.0478 50.0259C34.0654 50.1605 34.0564 50.2973 34.0211 50.4284C33.9858 50.5595 33.925 50.6823 33.8422 50.79C33.7593 50.8976 33.6561 50.9879 33.5383 51.0557C33.4205 51.1234 33.2905 51.1674 33.1557 51.185C33.0209 51.2027 32.8839 51.1936 32.7526 51.1584C32.6213 51.1231 32.4983 51.0625 32.3905 50.9797C32.2827 50.897 32.1922 50.7939 32.1244 50.6763C31.9872 50.4388 31.9502 50.1567 32.0215 49.8919C32.0927 49.6272 32.2664 49.4015 32.5043 49.2646C32.7422 49.1277 33.0248 49.0908 33.2899 49.1619C33.5551 49.2331 33.7811 49.4065 33.9182 49.644ZM19.2698 27.7294C19.3312 27.5 19.4372 27.285 19.5819 27.0966C19.7265 26.9082 19.9069 26.75 20.1128 26.6313C20.3187 26.5125 20.546 26.4355 20.7817 26.4045C21.0175 26.3735 21.257 26.3891 21.4867 26.4506C21.7164 26.5119 21.9317 26.6178 22.1205 26.7622C22.3092 26.9066 22.4675 27.0867 22.5865 27.2923C22.7054 27.4978 22.7826 27.7248 22.8137 27.9602C22.8447 28.1955 22.829 28.4347 22.7674 28.664C22.7061 28.8933 22.6 29.1084 22.4554 29.2968C22.3107 29.4852 22.1303 29.6433 21.9244 29.7621C21.7185 29.8808 21.4912 29.9579 21.2555 29.9889C21.0198 30.0199 20.7802 30.0042 20.5506 29.9427C20.3204 29.8815 20.1047 29.7755 19.9157 29.6308C19.7266 29.4861 19.5681 29.3056 19.4491 29.0996C19.3301 28.8936 19.253 28.6662 19.2223 28.4304C19.1915 28.1946 19.2077 27.955 19.2698 27.7255V27.7294ZM22.7948 19.2435C22.9824 18.9197 23.2619 18.6586 23.5979 18.4932C23.934 18.3278 24.3117 18.2656 24.6831 18.3144C25.0546 18.3632 25.4033 18.5208 25.6851 18.7673C25.967 19.0138 26.1693 19.3382 26.2666 19.6995C26.3639 20.0607 26.3518 20.4427 26.2318 20.7971C26.1118 21.1515 25.8893 21.4624 25.5924 21.6906C25.2955 21.9188 24.9375 22.0541 24.5637 22.0793C24.1899 22.1045 23.8169 22.0186 23.492 21.8323C23.2757 21.7083 23.086 21.5429 22.9339 21.3456C22.7817 21.1482 22.67 20.9229 22.6053 20.6824C22.5405 20.4419 22.5239 20.191 22.5564 19.9441C22.589 19.6972 22.67 19.4591 22.7948 19.2435ZM31.529 60.8593C31.7212 61.0511 31.8737 61.2788 31.9777 61.5294C32.0818 61.78 32.1353 62.0486 32.1353 62.3199C32.1353 62.5912 32.0818 62.8599 31.9777 63.1105C31.8737 63.3611 31.7212 63.5888 31.529 63.7805C31.1405 64.1683 30.6136 64.3862 30.0642 64.3862C29.5148 64.3862 28.9879 64.1683 28.5993 63.7805C28.4071 63.5888 28.2547 63.3611 28.1506 63.1105C28.0466 62.8599 27.9931 62.5912 27.9931 62.3199C27.9931 62.0486 28.0466 61.78 28.1506 61.5294C28.2547 61.2788 28.4071 61.0511 28.5993 60.8593C28.7915 60.6669 29.0198 60.5141 29.2711 60.4099C29.5225 60.3057 29.792 60.2521 30.0642 60.2521C30.3364 60.2521 30.6059 60.3057 30.8572 60.4099C31.1086 60.5141 31.3369 60.6669 31.529 60.8593ZM26.1514 54.1254C26.2762 54.3409 26.3572 54.5787 26.3898 54.8254C26.4225 55.0721 26.4062 55.3228 26.3418 55.5632C26.2774 55.8035 26.1663 56.0289 26.0146 56.2264C25.863 56.4239 25.6739 56.5897 25.4582 56.7142C25.2424 56.8387 25.0042 56.9196 24.7571 56.9522C24.51 56.9848 24.2589 56.9685 24.0182 56.9043C23.7774 56.84 23.5517 56.729 23.3539 56.5776C23.1561 56.4262 22.9901 56.2375 22.8653 56.022C22.6134 55.5869 22.545 55.0698 22.675 54.5843C22.805 54.0988 23.1228 53.6848 23.5586 53.4333C23.9944 53.1818 24.5123 53.1134 24.9986 53.2432C25.4848 53.373 25.8995 53.6903 26.1514 54.1254ZM28.5993 14.4727C28.2124 14.0856 27.995 13.561 27.995 13.0141C27.995 12.4671 28.2124 11.9425 28.5993 11.5554C28.9879 11.1676 29.5148 10.9498 30.0642 10.9498C30.6136 10.9498 31.1405 11.1676 31.529 11.5554C31.7212 11.7472 31.8737 11.9749 31.9777 12.2255C32.0818 12.4761 32.1353 12.7447 32.1353 13.016C32.1353 13.2873 32.0818 13.5559 31.9777 13.8065C31.8737 14.0571 31.7212 14.2848 31.529 14.4766C31.337 14.6685 31.1089 14.8207 30.8579 14.9246C30.6069 15.0285 30.3379 15.0819 30.0661 15.0819C29.7944 15.0819 29.5254 15.0285 29.2744 14.9246C29.0234 14.8207 28.7953 14.6685 28.6033 14.4766L28.5993 14.4727ZM37.8701 20.8077C37.6433 21.0332 37.3363 21.1597 37.0163 21.1597C36.6963 21.1597 36.3893 21.0332 36.1624 20.8077C36.0502 20.6959 35.9611 20.563 35.9003 20.4167C35.8396 20.2704 35.8083 20.1136 35.8083 19.9552C35.8083 19.7969 35.8396 19.6401 35.9003 19.4938C35.9611 19.3475 36.0502 19.2146 36.1624 19.1027C36.3893 18.8773 36.6963 18.7508 37.0163 18.7508C37.3363 18.7508 37.6433 18.8773 37.8701 19.1027C37.9824 19.2146 38.0715 19.3475 38.1322 19.4938C38.193 19.6401 38.2243 19.7969 38.2243 19.9552C38.2243 20.1136 38.193 20.2704 38.1322 20.4167C38.0715 20.563 37.9824 20.6959 37.8701 20.8077ZM37.8701 54.5282C37.9855 54.6394 38.0775 54.7724 38.1408 54.9195C38.204 55.0666 38.2373 55.2248 38.2387 55.3848C38.24 55.5449 38.2093 55.7037 38.1485 55.8518C38.0877 55.9999 37.9979 56.1344 37.8844 56.2475C37.7709 56.3605 37.6359 56.4499 37.4875 56.5103C37.339 56.5707 37.1799 56.6009 37.0196 56.5992C36.8593 56.5975 36.7009 56.5639 36.5537 56.5004C36.4065 56.4369 36.2735 56.3447 36.1624 56.2293C35.936 56.0032 35.8088 55.6965 35.8088 55.3768C35.8088 55.057 35.936 54.7504 36.1624 54.5243C36.3889 54.2982 36.696 54.1712 37.0163 54.1712C37.3365 54.1712 37.6437 54.2982 37.8701 54.5243V54.5282ZM32.1283 24.6518C32.1939 24.5302 32.2834 24.423 32.3913 24.3366C32.4991 24.2502 32.6233 24.1862 32.7564 24.1485C32.8895 24.1109 33.0288 24.1003 33.1661 24.1173C33.3034 24.1344 33.4358 24.1788 33.5556 24.2479C33.6754 24.3169 33.7801 24.4093 33.8634 24.5195C33.9468 24.6298 34.0072 24.7555 34.041 24.8895C34.0748 25.0234 34.0814 25.1627 34.0603 25.2992C34.0392 25.4357 33.9909 25.5666 33.9182 25.6842C33.7811 25.9217 33.5551 26.0951 33.2899 26.1662C33.0248 26.2373 32.7422 26.2004 32.5043 26.0635C32.2664 25.9266 32.0927 25.7009 32.0215 25.4362C31.9502 25.1714 31.9872 24.8893 32.1244 24.6518H32.1283Z" fill="#C5B8B8"/>
</svg>
