<svg width="130" height="130" viewBox="0 0 130 130" fill="none" xmlns="http://www.w3.org/2000/svg">
<path d="M9.36722 89.9489C9.36722 89.9489 2.15142 86.0055 5.14732 77.0104C8.14322 68.0152 9.23122 75.7046 9.36722 70.0469C9.50322 64.3892 12.6338 66.7108 15.3577 62.5756C18.0816 58.4403 24.4788 56.6294 23.5942 52.3506C22.7095 48.0718 21.4156 47.1995 25.3635 43.4272C25.3635 43.4272 23.1175 35.8109 32.3746 29.7184C41.6317 23.626 46.6702 26.4541 54.6347 28.2001C62.5991 29.9462 63.9604 41.6922 63.8309 44.3768C63.7014 47.0614 60.4633 76.0028 60.4633 76.0028L50.6181 96.0166L9.36722 89.9489Z" fill="black"/>
<path d="M46.1249 30.8751C46.1249 30.8751 54.294 28.6998 57.4258 37.695C57.725 38.5563 57.9763 39.3416 58.1862 40.0621C60.1588 46.8558 58.3779 47.7764 58.3779 51.187C58.3779 54.9593 57.0645 65.4037 44.3789 65.9848L38.5011 78.7523L27.8801 70.6266L32.6453 60.1822C32.6453 60.1822 29.7854 57.2837 28.8321 53.5086C28.8321 53.5086 23.1149 53.0725 23.1149 47.9945C23.1149 42.9165 28.4254 44.5135 28.4254 44.5135C28.4254 44.5135 31.0158 48.2857 33.3266 47.1249C35.6373 45.9641 43.9476 36.5342 46.1249 30.8751Z" fill="white"/>
<path d="M46.1249 30.8751L46.235 31.3444C46.9043 31.1939 47.587 31.1212 48.2711 31.1277C49.5404 31.1277 51.2229 31.3664 52.8265 32.3188C53.7056 32.8399 54.4882 33.5275 55.1359 34.3478C55.944 35.3934 56.5748 36.5812 56.9997 37.8578C57.2976 38.7122 57.5463 39.4907 57.7523 40.2043C58.4465 42.5949 58.6589 44.2195 58.6589 45.4672C58.6589 46.5935 58.4867 47.4203 58.3028 48.2802C58.1188 49.1401 57.922 50.029 57.922 51.1856C57.9194 52.4356 57.7891 53.6815 57.5334 54.9013C57.2843 56.1022 56.8962 57.2654 56.378 58.3644C55.4678 60.3057 54.08 61.9473 52.3628 63.1139C50.4445 64.4182 47.8618 65.3402 44.3582 65.5003L44.09 65.5128L38.3301 78.0235L28.4539 70.472L33.1997 60.08L32.96 59.8371L32.9121 59.891L32.96 59.8371L32.9121 59.891L32.96 59.8371C32.4091 59.2507 31.902 58.6194 31.4433 57.9489C30.6351 56.7854 29.7232 55.1732 29.2725 53.3941L29.1896 53.0614L28.8671 53.0366L28.8567 53.1981L28.8684 53.0366L28.858 53.1981L28.8697 53.0366C28.5773 53.0081 28.2869 52.9592 28.0005 52.8903C27.536 52.7825 27.081 52.6324 26.6405 52.4417C25.8971 52.1242 25.1212 51.6425 24.5448 50.9358C24.2436 50.5693 24.0059 50.1487 23.8428 49.6936C23.6556 49.151 23.563 48.5766 23.5695 47.9986C23.5533 47.4176 23.654 46.8397 23.8648 46.3036C23.9848 46.0173 24.1564 45.7589 24.37 45.5431C24.6725 45.251 25.0362 45.0404 25.4308 44.9289C25.8326 44.8131 26.2476 44.7573 26.6639 44.7633C27.0547 44.7647 27.4447 44.8016 27.8296 44.8737C27.9798 44.9027 28.1003 44.9303 28.1819 44.951L28.2751 44.9745L28.2972 44.9814L28.4267 44.5162L28.0653 44.7978C28.4492 45.337 28.8803 45.8362 29.3528 46.2885C29.7645 46.6921 30.2202 47.0415 30.7102 47.3292C31.2244 47.6407 31.8027 47.8124 32.394 47.8288C32.7837 47.8304 33.1687 47.7389 33.5209 47.5611C33.9525 47.3228 34.359 47.0359 34.7332 46.7053C35.7654 45.8083 36.7459 44.8459 37.6695 43.8233C39.4939 41.8374 41.2041 39.7361 42.7909 37.5307C43.6004 36.4003 44.353 35.2629 44.9928 34.1684C45.5886 33.1792 46.1063 32.139 46.5407 31.0587L46.121 30.8751L46.2311 31.3444L46.121 30.8751L45.7026 30.6929C45.1845 32.0524 44.2675 33.6811 43.1575 35.3609C41.4352 37.9268 39.541 40.3564 37.4895 42.6308C36.5401 43.6853 35.6412 44.6073 34.8796 45.314C34.5001 45.6673 34.1529 45.9669 33.855 46.2001C33.6281 46.3857 33.3857 46.5487 33.131 46.6874C32.8996 46.8047 32.6463 46.8646 32.3901 46.8627C31.9468 46.8463 31.514 46.7141 31.1299 46.4776C30.5137 46.1023 29.9547 45.6295 29.4719 45.0752C29.2569 44.8378 29.0834 44.6225 28.9668 44.4679C28.9072 44.392 28.8619 44.3299 28.8373 44.2885L28.8036 44.2415L28.7958 44.2305L28.7026 44.0925L28.5523 44.0469C27.9358 43.878 27.3017 43.7927 26.6651 43.793C26.2209 43.7885 25.7778 43.8408 25.3453 43.9489C24.9973 44.0371 24.6625 44.1764 24.3506 44.363C23.8337 44.6727 23.4111 45.1341 23.133 45.6922C22.8286 46.2967 22.659 47.0587 22.659 47.9959C22.6537 48.6234 22.7447 49.2477 22.9284 49.844C23.209 50.7294 23.71 51.517 24.3778 52.1228C25.3013 52.9745 26.3996 53.4313 27.2674 53.6867C27.7683 53.8366 28.2806 53.9387 28.7984 53.9917L28.8295 53.51L28.3917 53.6356C28.8917 55.608 29.8748 57.3209 30.7296 58.548C31.2169 59.2528 31.7552 59.916 32.3396 60.5314L32.6531 60.1822L32.2451 59.971L27.3128 70.7826L38.6772 79.4783L44.7908 66.1987L44.3854 65.9848L44.4048 66.4679C47.6338 66.3202 50.1673 65.5417 52.1439 64.3809C53.5055 63.5886 54.712 62.5255 55.698 61.2491C56.926 59.6223 57.8097 57.7319 58.2885 55.7074C58.6502 54.2314 58.8352 52.7125 58.839 51.187C58.839 50.1477 59.0112 49.3609 59.1965 48.4969C59.438 47.5076 59.5654 46.4907 59.576 45.4686C59.576 44.0994 59.3389 42.3727 58.6266 39.9199C58.4141 39.1898 58.1603 38.4016 57.8585 37.5266C57.3959 36.1426 56.7094 34.8556 55.8301 33.7239C54.7952 32.4084 53.4519 31.4083 51.9366 30.8254C50.7604 30.3782 49.5199 30.1536 48.2711 30.1615C47.5128 30.1522 46.756 30.2337 46.0148 30.4044L45.7933 30.4638L45.7065 30.6901L46.1249 30.8751Z" fill="#231F20"/>
<path d="M52.627 53.2781L52.5208 53.5542L52.6309 53.2781L52.5247 53.5542L52.6348 53.2781C52.6102 53.2671 52.0442 53.0021 51.4859 52.2139C51.1462 51.7273 50.8857 51.1833 50.7153 50.6046C50.4676 49.7493 50.3478 48.8577 50.3604 47.9627C50.3641 47.2447 50.4195 46.5281 50.5262 45.8192C50.7062 44.5949 51.1077 43.6756 51.6336 42.9607C52.0134 42.4493 52.4757 42.0141 52.9988 41.6756C53.7346 41.2093 54.5418 40.8845 55.3833 40.7163C56.0476 40.5776 56.723 40.5078 57.4 40.5079C57.6332 40.5079 57.8223 40.5162 57.9505 40.5245L58.0968 40.5369H58.1318H58.1409L58.1577 40.3768L58.1409 40.5369L58.1577 40.3768L58.1409 40.5369L58.2406 39.5707C57.9612 39.5429 57.6806 39.53 57.4 39.5321C56.7594 39.532 56.1199 39.5892 55.4882 39.7032C54.3678 39.9089 53.0674 40.3437 51.9522 41.2643C51.357 41.7523 50.8549 42.3571 50.4731 43.0462C50.0341 43.8542 49.7448 44.7445 49.6208 45.6687C49.5061 46.4269 49.4468 47.1934 49.4433 47.9613C49.4297 48.9845 49.5728 50.0032 49.8669 50.9772C50.1492 51.9311 50.6547 52.7927 51.3357 53.481C51.6117 53.7661 51.931 53.9994 52.2799 54.1711L52.6219 53.2767L52.627 53.2781Z" fill="#231F20"/>
<path d="M46.9059 39.7501C46.5303 39.2003 46.1042 38.6916 45.634 38.2318C45.2179 37.8173 44.755 37.4598 44.2558 37.1676C43.72 36.8479 43.1198 36.6704 42.506 36.65L42.4969 37.6162C42.9652 37.635 43.4224 37.7737 43.8297 38.0206C44.4528 38.3975 45.0156 38.8779 45.4967 39.4437C45.7078 39.6838 45.8762 39.9005 45.9914 40.0551C46.0484 40.1324 46.0925 40.1932 46.121 40.2373L46.1534 40.2843L46.1598 40.2953L46.1793 40.2815L46.1598 40.2953L46.1793 40.2815L46.1598 40.2953L46.9046 39.7432L46.9059 39.7501Z" fill="#231F20"/>
<path d="M49.8435 55.568C49.6465 55.5903 49.4484 55.6009 49.2503 55.5997C48.5558 55.6059 47.8656 55.4816 47.2116 55.2326C46.8357 55.0845 46.4856 54.8708 46.1754 54.6004C45.8397 54.3035 45.5681 53.933 45.3788 53.5142L44.5628 53.9365C44.8095 54.4792 45.1629 54.9589 45.599 55.343C46.1697 55.8325 46.8371 56.1779 47.5509 56.3534C48.1077 56.4944 48.678 56.5653 49.2503 56.5645C49.4878 56.5661 49.7253 56.5527 49.9614 56.5245L49.8435 55.5666V55.568Z" fill="#231F20"/>
<path d="M38.7213 62.8171C38.7459 62.8613 39.0658 63.4369 39.9129 64.1657C40.76 64.8944 42.133 65.7792 44.2507 66.4472L44.5098 65.5211C42.4982 64.8848 41.238 64.0635 40.4841 63.4148C40.2021 63.1745 39.9419 62.9064 39.707 62.6143C39.6306 62.5176 39.5775 62.4417 39.5477 62.3934L39.5153 62.341V62.3313L39.334 62.4472L39.5179 62.3341L39.3366 62.45L39.5205 62.3368L38.7343 62.8199L38.7213 62.8171Z" fill="#231F20"/>
<path d="M26.827 106.758L0.687744 101.212C0.687744 101.212 13.4511 76.0635 19.6799 72.4251C25.9087 68.7867 28.972 68.2429 34.0765 71.7253C39.1811 75.2077 51.2307 111.654 51.2307 111.654L26.827 106.758Z" fill="#231F20"/>
<path d="M26.8271 106.758L26.9164 106.284L0.77585 100.734L0.687774 101.208L1.08671 101.438L1.12298 101.367C1.4973 100.634 4.72505 94.3424 8.60559 87.804C10.5485 84.5356 12.6493 81.205 14.6362 78.4831C15.5229 77.2478 16.4743 76.0667 17.4858 74.9455C18.3782 73.9793 19.2059 73.2464 19.8962 72.8448C21.58 71.862 23.0191 71.1125 24.313 70.6143C25.607 70.116 26.7532 69.8634 27.8646 69.8634C28.8275 69.8713 29.7817 70.0581 30.6843 70.4155C31.7906 70.8608 32.8464 71.4372 33.8317 72.1339C34.1819 72.396 34.4962 72.7086 34.7656 73.0628C35.4249 73.8813 36.1904 75.1153 36.996 76.6336C38.4208 79.292 39.9932 82.8268 41.5553 86.6281C43.8997 92.3299 46.2117 98.6363 47.9382 103.503C48.8009 105.939 49.5171 108.019 50.0171 109.489C50.2671 110.225 50.464 110.807 50.5974 111.206L50.7502 111.663C50.7839 111.767 50.802 111.819 50.802 111.821L51.2294 111.659L51.3136 111.184L26.9113 106.283L26.8271 106.758L26.9164 106.284L26.8271 106.758L26.7429 107.233L51.9198 112.284L51.6608 111.493C51.6608 111.493 48.6454 102.371 44.9903 92.8103C43.1627 88.0304 41.1745 83.1388 39.3184 79.2119C38.5198 77.4813 37.633 75.7985 36.6618 74.1712C36.2947 73.5645 35.8924 72.9827 35.4573 72.4293C35.1313 72.0019 34.7496 71.6264 34.3239 71.3141C33.2814 70.5772 32.1638 69.9688 30.9926 69.5004C29.9921 69.1071 28.9348 68.903 27.8684 68.8972C26.6276 68.8972 25.3725 69.1733 24.0086 69.706C22.6447 70.2388 21.1669 71.0035 19.4649 71.9973C18.6191 72.4928 17.7176 73.3113 16.7527 74.3658C15.0689 76.2126 13.2089 78.7827 11.3541 81.6274C8.57321 85.8813 5.81046 90.7164 3.73937 94.49C1.66827 98.2637 0.29402 100.977 0.29143 100.977L0 101.553L26.7429 107.23L26.8271 106.758Z" fill="#231F20"/>
<path d="M52.6036 46.254C52.6036 46.5575 52.6881 46.8543 52.8464 47.1067C53.0046 47.3591 53.2296 47.5558 53.4928 47.672C53.7559 47.7882 54.0455 47.8186 54.3249 47.7593C54.6043 47.7001 54.861 47.5539 55.0624 47.3393C55.2638 47.1246 55.401 46.8511 55.4566 46.5534C55.5122 46.2557 55.4836 45.9471 55.3746 45.6666C55.2656 45.3861 55.081 45.1464 54.8441 44.9778C54.6073 44.8091 54.3288 44.7191 54.0439 44.7191C53.662 44.7191 53.2956 44.8808 53.0255 45.1687C52.7554 45.4565 52.6036 45.8469 52.6036 46.254Z" fill="#231F20"/>
<path d="M42.0863 42.7591C42.086 43.063 42.1704 43.3601 42.3286 43.613C42.4869 43.8658 42.7119 44.0629 42.9753 44.1794C43.2387 44.2959 43.5286 44.3265 43.8084 44.2674C44.0881 44.2082 44.3451 44.062 44.5468 43.8472C44.7486 43.6325 44.886 43.3587 44.9417 43.0607C44.9974 42.7626 44.969 42.4537 44.8599 42.1729C44.7508 41.8921 44.5661 41.6521 44.329 41.4832C44.0919 41.3144 43.8131 41.2242 43.5279 41.2242C43.1458 41.2242 42.7793 41.3859 42.509 41.6737C42.2387 41.9615 42.0866 42.3519 42.0863 42.7591Z" fill="#231F20"/>
<path d="M113.681 77.0766H58.0255C57.5027 77.0766 56.9849 76.9668 56.5018 76.7536C56.0188 76.5404 55.5798 76.2278 55.2101 75.8338C54.8404 75.4398 54.5471 74.9721 54.347 74.4573C54.1469 73.9426 54.0439 73.3908 54.0439 72.8336V58.3616C54.0439 57.2363 54.4634 56.1571 55.2101 55.3614C55.9568 54.5657 56.9695 54.1187 58.0255 54.1187H113.681C114.737 54.1187 115.75 54.5657 116.496 55.3614C117.243 56.1571 117.662 57.2363 117.662 58.3616V72.8336C117.662 73.3908 117.559 73.9426 117.359 74.4573C117.159 74.9721 116.866 75.4398 116.496 75.8338C116.126 76.2278 115.688 76.5404 115.204 76.7536C114.721 76.9668 114.204 77.0766 113.681 77.0766Z" fill="#D9D9D8"/>
<path d="M113.681 77.0766V76.5935H58.0255C57.0899 76.5932 56.1927 76.1969 55.5311 75.4919C54.8695 74.7869 54.4977 73.8308 54.4973 72.8337V58.3616C54.4977 57.3646 54.8695 56.4085 55.5311 55.7034C56.1927 54.9984 57.0899 54.6022 58.0255 54.6018H113.681C114.616 54.6022 115.514 54.9984 116.175 55.7034C116.837 56.4085 117.209 57.3646 117.209 58.3616V72.8337C117.209 73.8308 116.837 74.7869 116.175 75.4919C115.514 76.1969 114.616 76.5932 113.681 76.5935V77.5597C114.857 77.5597 115.985 77.0618 116.817 76.1755C117.648 75.2892 118.116 74.0871 118.116 72.8337V58.3616C118.116 57.1082 117.648 55.9061 116.817 55.0198C115.985 54.1335 114.857 53.6356 113.681 53.6356H58.0255C56.8493 53.6356 55.7213 54.1335 54.8896 55.0198C54.0579 55.9061 53.5906 57.1082 53.5906 58.3616V72.8337C53.5906 74.0871 54.0579 75.2892 54.8896 76.1755C55.7213 77.0618 56.8493 77.5597 58.0255 77.5597H113.681V77.0766Z" fill="#231F20"/>
<path d="M113.428 77.0766H99.8826V54.1187H113.428C114.55 54.1187 115.625 54.5933 116.418 55.4382C117.211 56.2831 117.656 57.429 117.656 58.6238V72.5645C117.657 73.1567 117.548 73.7433 117.336 74.2907C117.124 74.838 116.813 75.3355 116.42 75.7546C116.027 76.1737 115.561 76.5061 115.048 76.733C114.534 76.9598 113.984 77.0766 113.428 77.0766Z" fill="#ED4D4E"/>
<path d="M113.428 77.0766V76.5935H100.34V54.6018H113.428C113.924 54.6014 114.415 54.7052 114.873 54.9072C115.331 55.1092 115.747 55.4055 116.098 55.779C116.448 56.1526 116.726 56.5961 116.916 57.0843C117.106 57.5724 117.203 58.0956 117.203 58.6239V72.5645C117.203 73.0928 117.105 73.616 116.916 74.1042C116.726 74.5923 116.448 75.0358 116.098 75.4095C115.747 75.7831 115.331 76.0795 114.873 76.2817C114.415 76.4839 113.924 76.588 113.428 76.588V77.5542C114.043 77.5542 114.652 77.4251 115.22 77.1743C115.788 76.9236 116.304 76.556 116.739 76.0927C117.173 75.6293 117.518 75.0793 117.753 74.4739C117.988 73.8685 118.109 73.2197 118.109 72.5645V58.6239C118.11 57.9687 117.989 57.3199 117.754 56.7145C117.519 56.1092 117.174 55.5591 116.739 55.0958C116.304 54.6326 115.788 54.2651 115.22 54.0146C114.652 53.764 114.043 53.6353 113.428 53.6356H99.4332V77.5597H113.428V77.0766Z" fill="#231F20"/>
<path d="M102.999 64.0207C103.578 67.1553 106.009 68.4858 108.638 68.0856L111.099 72.7094C111.099 72.7094 111.65 72.5383 112.347 72.236L109.783 67.4644C109.783 67.4644 112.562 65.7308 111.961 62.334C111.36 58.9372 108.952 58.2954 107.101 58.5328C105.25 58.7702 102.42 60.8847 102.999 64.0207ZM104.294 63.2436C104.294 62.5201 104.496 61.8129 104.874 61.2114C105.251 60.61 105.787 60.1414 106.415 59.8649C107.042 59.5884 107.733 59.5164 108.398 59.658C109.064 59.7997 109.676 60.1486 110.156 60.6606C110.635 61.1726 110.962 61.8247 111.094 62.5345C111.226 63.2442 111.157 63.9797 110.896 64.6479C110.636 65.3161 110.196 65.887 109.631 66.2884C109.066 66.6897 108.402 66.9035 107.723 66.9027C106.813 66.9019 105.94 66.5161 105.297 65.8299C104.654 65.1437 104.293 64.2134 104.293 63.2436H104.294Z" fill="white"/>
<path d="M59.041 73.7916C58.7974 73.7916 58.5636 73.6886 58.3912 73.5051C58.2188 73.3216 58.1217 73.0727 58.1214 72.813V59.4673C58.1303 59.2139 58.2311 58.9741 58.4024 58.7982C58.5738 58.6223 58.8025 58.524 59.0404 58.524C59.2783 58.524 59.507 58.6223 59.6783 58.7982C59.8497 58.9741 59.9504 59.2139 59.9593 59.4673V72.813C59.959 73.0725 59.8621 73.3211 59.69 73.5046C59.5179 73.688 59.2845 73.7913 59.041 73.7916Z" fill="#231F20"/>
<path d="M120.623 52.0607C118.219 51.1415 116.911 53.1166 115.128 55.2795C113.344 57.4424 112.035 54.4927 112.035 54.4927C110.004 55.5749 109.469 52.7343 109.469 52.7343C108.339 54.7964 107.706 52.4651 107.706 52.4651C107.411 53.8054 105.784 53.3002 105.784 53.3002C104.925 53.107 105.136 49.4603 105.245 48.8199C105.504 47.1939 106.837 44.1408 109.109 42.755C113.559 40.0414 113.316 42.4955 113.316 42.4955C117.223 41.9434 117.859 44.1408 117.859 44.1408C119.75 44.7094 119.543 45.971 119.543 45.971C119.543 45.971 121.378 46.0069 124.076 50.7633C126.774 55.5196 117.923 62.2194 117.923 62.2194" fill="white"/>
<path d="M120.761 51.6605C120.346 51.4955 119.908 51.4086 119.465 51.4037C118.994 51.4039 118.528 51.5157 118.101 51.7309C117.475 52.0414 116.936 52.5342 116.406 53.1111C115.876 53.6881 115.37 54.3409 114.822 55.0062C114.66 55.2138 114.465 55.3891 114.246 55.5238C114.113 55.6046 113.963 55.6482 113.81 55.6508C113.625 55.6472 113.445 55.5852 113.292 55.4728C113.036 55.281 112.816 55.0388 112.645 54.7592C112.563 54.6336 112.501 54.5204 112.458 54.4403L112.411 54.3478L112.401 54.3244L112.375 54.3368L112.401 54.3244L112.375 54.3368L112.401 54.3244L112.224 53.9241L111.852 54.1215C111.643 54.2444 111.409 54.313 111.171 54.3216C111.065 54.3228 110.959 54.3031 110.86 54.2636C110.69 54.1906 110.54 54.0734 110.423 53.9227C110.236 53.6791 110.09 53.4026 109.992 53.1056C109.945 52.9759 109.914 52.8627 109.894 52.7826C109.884 52.7426 109.877 52.7122 109.873 52.6915V52.6694L109.642 52.7191L109.873 52.6708L109.642 52.7205L109.873 52.6722L109.663 51.5556L109.124 52.5383C109.023 52.7435 108.892 52.93 108.736 53.0904C108.702 53.1208 108.665 53.1463 108.625 53.1663C108.613 53.1718 108.599 53.1755 108.585 53.1774C108.576 53.1759 108.566 53.1731 108.557 53.1691C108.501 53.1344 108.452 53.0874 108.414 53.0311C108.322 52.8988 108.246 52.7546 108.188 52.6018C108.16 52.5314 108.14 52.4638 108.126 52.4279C108.126 52.4058 108.114 52.3893 108.111 52.3782V52.3672L107.973 52.41L108.111 52.3672L107.973 52.41L108.111 52.3672L107.679 50.7799L107.325 52.3893C107.303 52.4997 107.259 52.6038 107.196 52.6943C107.16 52.7455 107.116 52.7898 107.066 52.8254C106.984 52.8839 106.892 52.9251 106.795 52.9469C106.686 52.9727 106.575 52.9852 106.464 52.9841C106.33 52.9829 106.196 52.9695 106.065 52.9441C106.013 52.9345 105.972 52.9234 105.944 52.9165L105.915 52.9096L105.847 53.1594L105.915 52.9096L105.847 53.1594L105.915 52.9096H105.9H105.885L105.873 52.969L105.9 52.9151H105.885L105.873 52.9745L105.9 52.9207L105.893 52.9345L105.902 52.9207L105.894 52.9345L105.903 52.9207C105.889 52.9091 105.877 52.8946 105.868 52.8779C105.81 52.7824 105.767 52.6781 105.738 52.5687C105.668 52.2914 105.623 52.0076 105.602 51.7212C105.574 51.3941 105.562 51.0311 105.562 50.6888C105.562 50.2913 105.578 49.9075 105.597 49.5942C105.608 49.4369 105.619 49.2975 105.63 49.1801C105.64 49.0628 105.652 48.9772 105.659 48.9303C105.742 48.4665 105.867 48.0125 106.034 47.5749C106.352 46.7105 106.777 45.8949 107.297 45.1498C107.84 44.349 108.53 43.6741 109.325 43.1663C109.928 42.7862 110.561 42.4629 111.217 42.2002C111.567 42.0521 111.938 41.9672 112.314 41.949C112.445 41.9429 112.575 41.9683 112.695 42.0235C112.741 42.0467 112.783 42.0795 112.817 42.1201C112.859 42.1726 112.889 42.235 112.905 42.3023C112.918 42.3573 112.925 42.4139 112.926 42.4707V42.4969L113.142 42.5149L112.926 42.4914L113.142 42.5093L112.926 42.4859L112.875 43.0297L113.384 42.9579C113.762 42.9029 114.142 42.8743 114.523 42.8723C115.063 42.861 115.602 42.9449 116.117 43.1208C116.557 43.2631 116.95 43.5337 117.253 43.902C117.328 43.9967 117.393 44.0999 117.446 44.2098C117.459 44.2361 117.471 44.2633 117.481 44.2913V44.3064L117.727 44.2195L117.478 44.3009L117.725 44.214L117.476 44.2954L117.542 44.5204L117.754 44.5839C118.039 44.6639 118.31 44.7876 118.561 44.951C118.773 45.0843 118.946 45.2779 119.06 45.51C119.114 45.6269 119.143 45.7551 119.145 45.8855C119.145 45.9062 119.145 45.9213 119.145 45.9282L119.359 45.96L119.147 45.92V45.9282L119.36 45.96L119.148 45.92L119.066 46.4182L119.54 46.4279V46.1422L119.526 46.4279H119.535V46.1422L119.521 46.4279C119.546 46.4279 119.963 46.4762 120.698 47.0697C121.434 47.6632 122.478 48.813 123.725 51.0104C124.027 51.5356 124.184 52.1406 124.179 52.7564C124.173 53.2816 124.086 53.8022 123.92 54.2968C123.623 55.2188 123.087 56.1657 122.447 57.0573C121.52 58.306 120.479 59.4531 119.338 60.4817C118.863 60.9193 118.449 61.2712 118.153 61.5142C118.006 61.6356 117.894 61.7281 117.809 61.7902L117.717 61.862L117.693 61.8786H117.687C117.603 61.9467 117.547 62.0468 117.531 62.1579C117.516 62.269 117.541 62.3823 117.602 62.4739C117.663 62.5656 117.755 62.6284 117.858 62.6492C117.962 62.6699 118.069 62.647 118.157 62.5853C119.363 61.6414 120.496 60.596 121.546 59.459C122.436 58.5127 123.223 57.4632 123.894 56.3299C124.218 55.7718 124.485 55.1781 124.69 54.559C124.888 53.9738 124.993 53.3576 125 52.7357C125.003 51.9624 124.806 51.2033 124.429 50.5425C123.057 48.1284 121.891 46.882 121.036 46.2333C120.182 45.5846 119.635 45.5432 119.553 45.5432L119.546 45.9752L119.946 46.0497C119.955 45.9877 119.96 45.9248 119.959 45.862C119.959 45.707 119.938 45.5528 119.898 45.4037C119.799 45.0519 119.611 44.7358 119.355 44.49C118.959 44.1225 118.486 43.8613 117.976 43.7281L117.866 44.1422L118.254 44.0138C118.213 43.8856 118.159 43.7629 118.091 43.6481C117.829 43.1999 117.462 42.8318 117.026 42.5797C116.454 42.2333 115.641 41.9738 114.515 41.9752C114.098 41.977 113.682 42.0079 113.269 42.0677L113.322 42.4969L113.726 42.5397C113.728 42.5043 113.728 42.4688 113.726 42.4334C113.726 42.3187 113.714 42.2044 113.69 42.0925C113.664 41.9722 113.623 41.8561 113.568 41.7474C113.463 41.5378 113.304 41.3644 113.11 41.2478C112.861 41.107 112.583 41.0376 112.301 41.0463C111.832 41.0631 111.368 41.1648 110.931 41.3472C110.23 41.6282 109.553 41.9742 108.908 42.381C107.69 43.1249 106.753 44.2899 106.078 45.4741C105.759 46.0312 105.486 46.6162 105.262 47.2229C105.076 47.7132 104.936 48.2218 104.843 48.7412C104.83 48.8227 104.819 48.9248 104.806 49.0518C104.77 49.4286 104.735 50.018 104.735 50.646C104.726 51.2571 104.773 51.8676 104.873 52.4693C104.918 52.73 104.999 52.9821 105.113 53.2174C105.171 53.3327 105.247 53.4367 105.338 53.5252C105.44 53.6237 105.565 53.6922 105.7 53.724L105.784 53.3002L105.67 53.7143C105.923 53.7862 106.184 53.8233 106.447 53.8247C106.6 53.8252 106.753 53.8099 106.904 53.7792C107.168 53.7266 107.414 53.6041 107.622 53.4231C107.864 53.1987 108.031 52.8963 108.097 52.5618L107.708 52.4638L107.32 52.5839C107.386 52.8097 107.472 53.0279 107.579 53.2354C107.671 53.4189 107.79 53.5857 107.931 53.7295C108.014 53.8111 108.108 53.8786 108.21 53.9296C108.325 53.9873 108.451 54.0174 108.579 54.018C108.7 54.0168 108.82 53.9906 108.931 53.9407C109.109 53.8564 109.269 53.7326 109.399 53.5777C109.563 53.3869 109.706 53.1767 109.825 52.951L109.474 52.7329L109.075 52.8185C109.158 53.2116 109.292 53.5906 109.473 53.9448C109.629 54.2586 109.841 54.5367 110.098 54.7633C110.244 54.8869 110.406 54.9857 110.58 55.0559C110.77 55.1324 110.972 55.1712 111.176 55.1705C111.541 55.1615 111.899 55.0613 112.221 54.8779L112.04 54.4914L111.672 54.6764C111.82 54.9915 112.001 55.2874 112.212 55.5583C112.397 55.8016 112.615 56.0138 112.86 56.1877C113.141 56.3887 113.471 56.498 113.81 56.5024C114.097 56.5001 114.378 56.4214 114.629 56.2733C114.935 56.0904 115.207 55.85 115.432 55.5639C116.175 54.6612 116.827 53.8095 117.475 53.2077C117.765 52.9271 118.091 52.6916 118.443 52.508C118.763 52.3459 119.112 52.2615 119.465 52.2609C119.814 52.2663 120.159 52.3359 120.485 52.4665C120.536 52.4891 120.59 52.5004 120.645 52.4998C120.7 52.4992 120.755 52.4867 120.805 52.4631C120.855 52.4395 120.901 52.4051 120.938 52.3623C120.976 52.3194 121.005 52.2688 121.024 52.2136C121.042 52.1584 121.05 52.0998 121.047 52.0412C121.044 51.9826 121.03 51.9254 121.005 51.8729C120.98 51.8204 120.946 51.7738 120.904 51.7358C120.862 51.6979 120.813 51.6694 120.761 51.6522V51.6605Z" fill="#231F20"/>
<path d="M119.364 45.5873C118.112 46.2612 116.925 47.0661 115.822 47.9903C114.845 48.7935 113.966 49.7236 113.205 50.7591C112.439 51.8371 111.838 53.0669 111.633 54.4306L112.435 54.5686C112.612 53.3885 113.141 52.2829 113.86 51.285C114.924 49.7874 116.396 48.5493 117.598 47.6963C118.2 47.2684 118.734 46.9358 119.116 46.7108C119.306 46.5976 119.459 46.5121 119.564 46.4555L119.683 46.392L119.713 46.3754L119.363 45.5942L119.364 45.5873Z" fill="#231F20"/>
<path d="M117.792 43.7129C116.483 44.006 115.232 44.5399 114.095 45.2905C112.839 46.0919 111.747 47.1543 110.885 48.4147C110.022 49.675 109.406 51.1074 109.074 52.6266L109.864 52.8337C110.211 51.2645 110.879 49.7964 111.82 48.5341C112.893 47.1322 114.265 46.0231 115.821 45.2988C116.313 45.0642 116.822 44.8681 117.341 44.7122C117.529 44.6556 117.679 44.6183 117.779 44.5949C117.83 44.5825 117.868 44.5742 117.893 44.57H117.92L117.889 44.3713L117.92 44.57L117.889 44.3713L117.92 44.57L117.791 43.7156L117.792 43.7129Z" fill="#231F20"/>
<path d="M113.09 42.1366L113.286 42.4486L113.11 42.1242L113.09 42.1366L113.286 42.4486L113.11 42.1242L113.176 42.2471L113.112 42.1228L113.178 42.2457L113.115 42.1215L113.081 42.1408C113.011 42.1794 112.866 42.2636 112.669 42.3892C111.442 43.1777 110.359 44.1972 109.474 45.3982C108.047 47.3315 107.28 49.7242 107.298 52.1836C107.298 52.2802 107.298 52.3768 107.298 52.4762L108.11 52.4541C108.11 52.363 108.11 52.2733 108.11 52.1781C108.1 50.7341 108.383 49.3049 108.938 47.9876C109.591 46.4874 110.557 45.1657 111.761 44.1228C112.147 43.7827 112.554 43.4709 112.979 43.1898C113.137 43.0876 113.264 43.0103 113.354 42.9565L113.461 42.8958L113.494 42.8765L113.511 42.8668L113.542 42.8461L113.09 42.1366Z" fill="#231F20"/>
<path d="M44.2947 105.342L46.4733 99.3471L50.6479 83.198C50.6479 83.198 46.9098 75.8675 46.9409 73.5086C46.972 71.1497 50.6246 71.4285 53.0026 76.5038C53.0026 76.5038 51.5778 64.1449 52.5609 63.764C54.1632 63.1428 55.0478 62.8502 55.3341 64.7688C55.3341 64.7688 55.8521 63.0559 57.7678 63.3885C59.6835 63.7212 59.4788 65.2629 59.4788 65.2629C59.4788 65.2629 59.5604 63.6356 61.3841 63.9448C63.2078 64.2539 63.1469 65.4755 63.1469 65.4755L64.0057 73.6673C64.0057 73.6673 65.0717 69.4658 66.275 70.8074C67.4782 72.149 67.5611 71.7115 67.3409 73.3609C67.1208 75.0103 63.2804 83.4451 63.2804 83.4451L58.826 108.224C55.698 121.121 51.8226 123.986 50.0909 124.778C36.5621 130.952 21.6202 96.4679 21.6202 96.4679L40.5877 83.8647L46.6326 100.051" fill="white"/>
<path d="M44.7143 105.516L46.902 99.4976L51.1309 83.1429L51.0442 82.9731L51.0338 82.9524C50.9276 82.744 50.0067 80.9193 49.1168 78.8682C48.6713 77.8427 48.2348 76.7605 47.9123 75.8026C47.7618 75.372 47.6321 74.9334 47.5237 74.4886C47.4433 74.1798 47.3973 73.862 47.3864 73.5418V73.5197C47.3863 73.3708 47.4113 73.223 47.4602 73.0835C47.5155 72.9261 47.6198 72.7936 47.7555 72.7081C47.9249 72.6087 48.1167 72.561 48.3099 72.5701C48.6191 72.5793 48.9236 72.6529 49.2062 72.7868C49.8434 73.0922 50.4161 73.5316 50.89 74.0787C51.5815 74.8647 52.1567 75.7583 52.5959 76.7288L53.7616 79.2298L53.452 76.45C53.452 76.45 53.452 76.4238 53.443 76.3727C53.4002 75.9945 53.2059 74.2526 53.0233 72.1795C52.8407 70.1063 52.6671 67.7005 52.6671 66.0166C52.6599 65.5185 52.6846 65.0204 52.7409 64.5259C52.756 64.4029 52.7825 64.2817 52.8199 64.1643C52.8238 64.1544 52.8281 64.1447 52.8329 64.1353L52.6904 64.0262L52.8018 64.1643C52.8132 64.1544 52.8237 64.1433 52.8329 64.1311L52.6904 64.0221L52.8018 64.1601L52.6205 63.931L52.7176 64.2071C52.7483 64.1948 52.7768 64.1771 52.8018 64.1546L52.6205 63.9255L52.7176 64.2015C53.057 64.0635 53.3575 63.9559 53.6139 63.8772C53.8133 63.8095 54.0201 63.77 54.2292 63.7599C54.3052 63.7577 54.3808 63.7713 54.452 63.7999C54.492 63.8171 54.5285 63.8424 54.5595 63.8744C54.6366 63.9594 54.6958 64.0611 54.733 64.1725C54.8085 64.3846 54.8615 64.605 54.891 64.8296L55.1864 66.8075L55.7653 64.9027L55.5685 64.8337L55.764 64.9055L55.5672 64.8365L55.7627 64.9082C55.8403 64.6985 55.9546 64.5065 56.0995 64.3423C56.2286 64.1919 56.3839 64.0695 56.5567 63.9821C56.7851 63.8697 57.0344 63.814 57.2859 63.8192C57.4231 63.8197 57.56 63.8321 57.6952 63.8565C57.9679 63.8972 58.2313 63.9908 58.4724 64.1325C58.5879 64.2065 58.6915 64.2997 58.7794 64.4086C58.8764 64.5289 58.948 64.6702 58.9892 64.8227C59.0168 64.9255 59.0312 65.0318 59.0319 65.1387C59.0319 65.1636 59.0319 65.1829 59.0319 65.1926V65.2008L59.2172 65.2216L59.0332 65.1953L59.2184 65.216L59.0345 65.1898L59.4814 65.2547L59.9321 65.2795L59.6886 65.2657L59.9308 65.2837L59.6873 65.2699L59.9295 65.2878V65.2781C59.9373 65.2093 59.9511 65.1413 59.971 65.0752C59.9938 64.9943 60.0256 64.9164 60.0655 64.8434C60.1329 64.7156 60.2302 64.6086 60.3479 64.5328C60.5312 64.424 60.7393 64.3719 60.9489 64.3824C61.0708 64.3832 61.1925 64.3938 61.3129 64.4141C61.6094 64.4565 61.8969 64.5531 62.1625 64.6998C62.2807 64.7677 62.3878 64.8553 62.4799 64.9593C62.5661 65.0558 62.6308 65.1719 62.669 65.2988C62.6849 65.3502 62.694 65.4036 62.6962 65.4576V65.4907L63.8217 76.2388L64.4422 73.7888C64.5801 73.266 64.751 72.7537 64.9538 72.2554C65.0865 71.9186 65.2556 71.5994 65.4576 71.3044C65.5228 71.2109 65.6005 71.1281 65.6882 71.0587C65.7103 71.0422 65.7342 71.0288 65.7594 71.0187C65.7692 71.014 65.7798 71.0117 65.7905 71.0118C65.8047 71.0122 65.8185 71.0164 65.8307 71.0242C65.8765 71.0509 65.9177 71.086 65.9524 71.1277C66.1804 71.3817 66.3708 71.5749 66.5236 71.7281C66.6376 71.8413 66.7309 71.9338 66.8008 72.0042C66.8707 72.0746 66.8902 72.1035 66.9161 72.1422C66.9402 72.1714 66.959 72.2051 66.9718 72.2416C66.9853 72.2941 66.991 72.3486 66.9886 72.4031C66.9745 72.6987 66.9437 72.9933 66.8966 73.285C66.8797 73.3936 66.8568 73.501 66.828 73.6066C66.7581 73.8703 66.6441 74.2264 66.4964 74.6391C65.9783 76.0911 65.0717 78.2457 64.2945 80.0221C63.9098 80.922 63.5549 81.7281 63.2959 82.3023C63.1663 82.5908 63.0627 82.824 62.9902 82.9841C62.9539 83.0656 62.9254 83.1222 62.906 83.1691L62.8775 83.2326L62.8516 83.2906L58.383 108.135L58.826 108.225L58.3895 108.105C56.8352 114.516 55.0996 118.406 53.5634 120.769C52.973 121.712 52.2649 122.565 51.4586 123.304C50.9936 123.727 50.473 124.076 49.9134 124.338C48.9105 124.801 47.8291 125.04 46.7362 125.039C45.2531 125.039 43.7571 124.609 42.2559 123.839C39.637 122.493 37.0426 120.101 34.6438 117.26C31.0443 112.999 27.8839 107.745 25.6302 103.558C24.5021 101.466 23.6019 99.6398 22.9827 98.3382C22.6732 97.6881 22.4336 97.1691 22.2729 96.813C22.1926 96.6349 22.1305 96.4969 22.0903 96.3989L22.0437 96.294C22.0333 96.2706 22.0294 96.2595 22.0294 96.2595L21.6201 96.461L21.8585 96.8751L40.3701 84.577L46.2155 100.229L47.0535 99.8744L40.8066 83.1525L21.0438 96.2844L21.2096 96.6695C21.2173 96.6846 24.3699 103.964 29.1105 111.267C31.4808 114.918 34.2462 118.582 37.2317 121.343C38.7251 122.723 40.2755 123.885 41.8648 124.704C43.4541 125.522 45.0886 126 46.7375 126C47.9525 126.001 49.1547 125.736 50.2696 125.222C50.9093 124.923 51.5045 124.525 52.0363 124.043C53.0725 123.125 54.2901 121.629 55.5425 119.151C56.795 116.674 58.0838 113.216 59.2638 108.345V108.33L63.7233 83.5376L63.2803 83.4465L63.6844 83.655C63.6844 83.655 64.6468 81.5418 65.6377 79.2202C66.1337 78.0594 66.635 76.8461 67.0301 75.8137C67.2282 75.2961 67.3979 74.8254 67.5287 74.4238C67.5935 74.2236 67.6492 74.04 67.6919 73.8717C67.7328 73.725 67.7644 73.5756 67.7865 73.4244C67.8403 73.088 67.874 72.7482 67.8875 72.4072C67.8877 72.3147 67.8807 72.2224 67.8668 72.1311C67.8426 71.9698 67.787 71.8156 67.7036 71.6784C67.6456 71.5832 67.5788 71.4944 67.5041 71.4134C67.3953 71.2919 67.2761 71.1774 67.1298 71.0297C66.9834 70.882 66.8099 70.7081 66.6 70.4776C66.4933 70.3556 66.3675 70.2543 66.2283 70.1781C66.0912 70.1047 65.94 70.066 65.7866 70.0649C65.6722 70.0652 65.5587 70.0867 65.4512 70.1284C65.2674 70.2031 65.1006 70.3184 64.9616 70.4665C64.723 70.7286 64.5226 71.0273 64.367 71.3527C64.1369 71.8232 63.942 72.3125 63.7842 72.8158C63.6469 73.2409 63.5692 73.5473 63.5666 73.5556L64.0018 73.6798L64.4499 73.6274L63.5912 65.4341L63.143 65.4879L63.5951 65.5017V65.4741C63.5936 65.3463 63.5766 65.2192 63.5446 65.0959C63.5045 64.9395 63.4448 64.7895 63.3671 64.6501C63.2032 64.3615 62.9761 64.1195 62.7052 63.9448C62.3209 63.7021 61.8944 63.5448 61.4514 63.4824C61.284 63.4531 61.1147 63.4379 60.945 63.4369C60.5783 63.4264 60.2158 63.5218 59.8959 63.7129C59.7055 63.831 59.5391 63.9882 59.4063 64.1753C59.2567 64.3878 59.1472 64.6292 59.0837 64.8861C59.0531 65.0039 59.0331 65.1246 59.0242 65.2464L59.9218 65.3361C59.9285 65.2747 59.9315 65.213 59.9308 65.1512C59.9309 64.7989 59.8475 64.4524 59.6886 64.1436C59.5318 63.8431 59.3098 63.587 59.041 63.3968C58.6781 63.1506 58.2701 62.9897 57.8442 62.9248C57.6602 62.8915 57.4739 62.8744 57.2872 62.8737C56.8908 62.8712 56.4991 62.9656 56.1422 63.1498C55.9265 63.2637 55.7279 63.4112 55.5529 63.5873C55.3554 63.7886 55.1884 64.0214 55.0581 64.2775C54.9982 64.3912 54.9479 64.5103 54.9079 64.6336L55.3366 64.7812L55.7822 64.7067C55.7452 64.4387 55.6836 64.1752 55.5982 63.92C55.5433 63.7553 55.4693 63.5986 55.3781 63.4534C55.2487 63.2466 55.0698 63.0803 54.86 62.9717C54.6612 62.8721 54.4436 62.8225 54.224 62.8268C53.9311 62.8357 53.6408 62.8877 53.3614 62.9814C53.0635 63.0711 52.7461 63.1926 52.4042 63.3251C52.3427 63.3482 52.2853 63.3823 52.2345 63.4258C52.1578 63.4919 52.0936 63.573 52.0454 63.6646C51.9749 63.8037 51.9239 63.9529 51.8939 64.1077C51.839 64.3832 51.8044 64.6629 51.7902 64.9441C51.7695 65.2657 51.7604 65.6273 51.7604 66.0249C51.7604 67.8896 51.9586 70.5162 52.1568 72.6901C52.355 74.8641 52.5518 76.5728 52.5518 76.5756L53 76.5162L53.4028 76.3023C52.6477 74.6915 51.763 73.5307 50.8758 72.7633C50.4765 72.4108 50.0321 72.1208 49.5559 71.902C49.1635 71.7187 48.7409 71.6202 48.3125 71.6122C48.0724 71.6102 47.8337 71.6517 47.6066 71.735C47.2741 71.8567 46.9877 72.0901 46.7906 72.4003C46.5897 72.7321 46.4843 73.1193 46.4875 73.5142L46.9382 73.5211L46.4875 73.5073V73.5501C46.4986 73.9627 46.5565 74.3724 46.6598 74.7702C46.8935 75.6789 47.1856 76.5695 47.5341 77.4355C48.0897 78.8668 48.7671 80.3644 49.3073 81.5073C49.8474 82.6501 50.2476 83.4396 50.2489 83.4396L50.6452 83.2105L50.2139 83.0752L46.0445 99.1967L43.8737 105.168L44.7143 105.516Z" fill="#231F20"/>
<path d="M54.8833 64.8033L55.2926 71.6701L56.1928 71.6094L55.7835 64.7426" fill="#231F20"/>
<path d="M59.1758 65.0325L58.9193 70.784L59.8208 70.8296L60.0773 65.078" fill="#231F20"/>
</svg>
