<svg width="130" height="130" viewBox="0 0 130 130" fill="none" xmlns="http://www.w3.org/2000/svg">
<path d="M60.583 23.6857H113.58L123.311 33.5717V94.9479H62.446L60.583 23.6857Z" fill="#ED4D4D"/>
<path d="M60.5832 23.6857V24.3713H113.292L122.622 33.8518V94.2606H63.1174L61.2724 23.6678L60.5832 23.6857V24.3713V23.6857L59.894 23.7036L61.775 95.6336H124V33.2915L113.87 23H59.876L59.894 23.7036L60.5832 23.6857Z" fill="#231F20"/>
<path d="M112.891 23.6857V34.0375L123.296 34.2573L123.326 32.886L114.271 32.6938V23.6857H112.891Z" fill="#231F20"/>
<path d="M83.2352 46.4902C83.2336 47.4885 82.9345 48.4638 82.3759 49.293C81.8173 50.1222 81.0241 50.7681 80.0967 51.149C79.1692 51.5299 78.1491 51.6287 77.1652 51.4329C76.1813 51.2372 75.2778 50.7557 74.5689 50.0493C73.8599 49.3429 73.3774 48.4432 73.1822 47.4641C72.9871 46.4849 73.0881 45.4702 73.4724 44.5481C73.8568 43.626 74.5072 42.838 75.3416 42.2835C76.176 41.7291 77.1569 41.4332 78.1602 41.4332C78.8274 41.4332 79.488 41.5641 80.1042 41.8183C80.7205 42.0726 81.2803 42.4452 81.7517 42.9149C82.223 43.3846 82.5967 43.9421 82.8512 44.5556C83.1058 45.1691 83.2362 45.8265 83.2352 46.4902Z" fill="white"/>
<path d="M75.1006 45.9592C75.1006 45.9592 76.8653 48.8908 77.5562 48.5651C78.247 48.2394 81.3689 44.7882 81.2052 44.4169C81.0415 44.0456 77.7821 47.3973 77.6217 47.5032C77.4612 47.6091 75.8029 45.1612 75.1006 45.9592Z" fill="#ED4D4D"/>
<path d="M76.4968 39.1727V41.0099H77.8752V39.1727" fill="#231F20"/>
<path d="M71.5709 42.9886L73.1425 43.9511L73.8661 42.7833L72.2945 41.8208" fill="#231F20"/>
<path d="M84.8804 46.9105C85.2225 47.3318 85.6028 47.7211 86.0165 48.0733C86.3848 48.3907 86.7891 48.664 87.2214 48.8877C87.6974 49.1433 88.2276 49.2829 88.7684 49.2948C89.063 49.2954 89.3554 49.2452 89.6328 49.1466C90.0951 48.9728 90.5057 48.6854 90.8262 48.3111C91.2224 47.8439 91.5367 47.3137 91.7561 46.7427C92.0483 46.0927 92.2112 45.3925 92.2357 44.6808C92.239 44.3917 92.1948 44.104 92.1048 43.829C91.99 43.4611 91.758 43.1404 91.4437 42.9153C91.1294 42.6902 90.7501 42.573 90.3629 42.5815C90.0042 42.5848 89.6507 42.6677 89.3283 42.8242C88.8061 43.0742 88.3661 43.4668 88.0596 43.9561C87.7033 44.5243 87.5182 45.1822 87.5259 45.8518C87.5254 46.1042 87.5478 46.356 87.593 46.6043C87.6554 46.9345 87.8045 47.2424 88.0252 47.4968C88.2137 47.7132 88.4345 47.8994 88.68 48.0489C89.1616 48.33 89.6808 48.5417 90.2221 48.6776C91.2261 48.9297 92.2506 49.0932 93.2835 49.1662C94.4294 49.2623 95.667 49.2997 96.9341 49.2997C99.7172 49.2997 102.62 49.1157 104.838 48.93C107.056 48.7444 108.58 48.5603 108.587 48.5603L108.423 47.1987H108.356C108.019 47.2378 106.441 47.4186 104.306 47.5896C102.171 47.7606 99.4847 47.9154 96.939 47.9154C95.8602 47.9154 94.8108 47.8877 93.8286 47.8193C93.0985 47.7672 92.4142 47.6939 91.8019 47.5961C91.0532 47.4991 90.3222 47.2962 89.6311 46.9935C89.436 46.9053 89.2581 46.7834 89.1057 46.6336C89.0615 46.5883 89.0235 46.5373 88.9927 46.4821C88.9702 46.441 88.9547 46.3964 88.9469 46.3502C88.9164 46.1814 88.901 46.0103 88.901 45.8388C88.898 45.5538 88.9497 45.2707 89.0533 45.0049C89.1772 44.6839 89.3901 44.4043 89.6672 44.1988C89.8657 44.0437 90.1075 43.9532 90.3596 43.9398C90.4278 43.9389 90.4955 43.9505 90.5594 43.974C90.5959 43.9882 90.6297 44.0086 90.6592 44.0343C90.7159 44.0853 90.7587 44.1497 90.7837 44.2215C90.8351 44.3646 90.859 44.516 90.854 44.6678C90.8276 45.201 90.6998 45.7243 90.4775 46.2101C90.1796 46.9382 89.8538 47.3698 89.5689 47.6043C89.4488 47.7073 89.3114 47.7883 89.1629 47.8437C89.0352 47.8886 88.9006 47.9112 88.7651 47.9105C88.4425 47.8972 88.1274 47.8091 87.8451 47.6531C87.3564 47.3874 86.9101 47.0509 86.5207 46.6548C86.3455 46.4919 86.2031 46.329 86.1082 46.2183C86.0591 46.1629 86.023 46.1189 85.9985 46.0896L85.9723 46.0571L85.7202 46.2525L85.9723 46.0587L85.7202 46.2541L85.9723 46.0603L84.882 46.9007L84.8804 46.9105Z" fill="white"/>
<path d="M84.8051 61.0325H108.508V59.6595H84.8051" fill="white"/>
<path d="M84.8051 75.0375H107.785V73.6661H84.8051" fill="white"/>
<path d="M81.5685 60.3469C81.5685 61.0192 81.3681 61.6763 80.9927 62.2353C80.6173 62.7943 80.0837 63.2299 79.4594 63.4872C78.8351 63.7445 78.1481 63.8118 77.4854 63.6806C76.8226 63.5495 76.2139 63.2257 75.736 62.7504C75.2582 62.275 74.9328 61.6694 74.801 61.01C74.6692 60.3507 74.7368 59.6672 74.9954 59.0461C75.254 58.4251 75.6919 57.8942 76.2538 57.5207C76.8156 57.1472 77.4762 56.9479 78.1519 56.9479C78.6007 56.9477 79.045 57.0354 79.4596 57.2062C79.8743 57.3769 80.251 57.6273 80.5683 57.9429C80.8856 58.2586 81.1372 58.6334 81.3089 59.0459C81.4805 59.4584 81.5687 59.9005 81.5685 60.3469Z" fill="white"/>
<path d="M81.5685 74.3518C81.5685 75.024 81.3681 75.6812 80.9927 76.2402C80.6173 76.7991 80.0837 77.2348 79.4594 77.4921C78.8351 77.7493 78.1481 77.8166 77.4854 77.6855C76.8226 77.5543 76.2139 77.2306 75.736 76.7553C75.2582 76.2799 74.9328 75.6742 74.801 75.0149C74.6692 74.3556 74.7368 73.6721 74.9954 73.051C75.254 72.4299 75.6919 71.8991 76.2538 71.5256C76.8156 71.1521 77.4762 70.9528 78.1519 70.9528C78.6007 70.9525 79.045 71.0403 79.4596 71.2111C79.8743 71.3818 80.251 71.6322 80.5683 71.9478C80.8856 72.2635 81.1372 72.6383 81.3089 73.0508C81.4805 73.4633 81.5687 73.9054 81.5685 74.3518Z" fill="white"/>
<path d="M69.0712 87.1727C69.0712 87.1727 72.3126 88.7687 71.9344 92.785C71.5563 96.8013 68.4507 98.0375 68.4507 98.0375C68.4507 98.0375 70.4152 100.353 69.8995 102.542C69.3839 104.731 66.2751 106.893 62.6539 106.893C60.2441 106.893 36.7652 107.075 21.2818 107.194L7.69409 107.305V66.0098H22.8059C24.2563 66.0098 29.328 64.3616 29.4311 58.6987C29.4491 57.7687 29.4459 56.6792 29.4688 55.5049C29.5867 49.5375 30.3757 41.4332 37.8178 41.4332C37.8751 41.4332 37.9324 41.4332 37.9897 41.4332C46.717 41.6726 46.6155 60.3437 46.6155 60.3437C46.6155 60.3437 61.4179 60.8567 63.5919 61.0635C65.7659 61.2704 71.941 63.5733 71.941 69.4756C71.941 74.1433 69.8275 74.4756 68.9435 74.4104C68.9251 74.4089 68.9067 74.4134 68.8912 74.4234C68.8756 74.4333 68.8639 74.4481 68.8577 74.4654C68.8515 74.4827 68.8513 74.5016 68.857 74.5191C68.8628 74.5365 68.8742 74.5516 68.8895 74.5619C69.9208 75.2687 73.0051 77.6727 72.7268 80.9381C72.383 84.8567 69.0712 87.1727 69.0712 87.1727Z" fill="white"/>
<path d="M69.0712 87.1726L68.7634 87.7867L68.9386 87.4365L68.7634 87.785L68.9386 87.4349L68.7634 87.785C69.7269 88.3378 70.4801 89.1914 70.9064 90.2134C71.1518 90.8256 71.2757 91.4793 71.2714 92.1384C71.2714 92.3241 71.2616 92.5163 71.2436 92.7166C71.1778 93.5094 70.9629 94.2829 70.6101 94.9967C70.2351 95.7403 69.6948 96.3892 69.0303 96.8941C68.8327 97.0452 68.6236 97.1808 68.4049 97.2997C68.3296 97.3404 68.269 97.3697 68.2314 97.386L68.1921 97.4039L68.2952 97.6482L68.1954 97.4023L68.2985 97.6466L68.1986 97.4007L67.3113 97.7541L67.9285 98.4805L68.1381 98.3029L67.9269 98.4788L68.1364 98.3013L67.9252 98.4772C68.1933 98.8103 68.4306 99.1668 68.6341 99.5424C68.8224 99.8821 68.978 100.239 69.099 100.608C69.2263 100.985 69.2942 101.379 69.3004 101.777C69.3015 101.981 69.2784 102.185 69.2316 102.384C69.1013 102.873 68.8612 103.326 68.5293 103.708C67.8709 104.468 67.0475 105.069 66.1212 105.466C65.0311 105.954 63.8494 106.207 62.6539 106.208C62.0449 106.208 60.1279 106.22 57.3465 106.238C48.9974 106.295 32.8886 106.42 21.2769 106.51L7.68921 106.619V107.306H8.37841V66.0098H7.68921V66.6954H22.801C23.0812 66.6909 23.3603 66.6593 23.6343 66.601C24.2914 66.4627 24.9287 66.2439 25.5317 65.9495C26.7334 65.3799 27.7787 64.5295 28.5782 63.4707C29.0464 62.8392 29.4131 62.1392 29.6653 61.3958C29.954 60.5308 30.1059 59.6264 30.1154 58.715C30.1335 57.7736 30.1302 56.6857 30.1531 55.5228C30.17 53.9697 30.2711 52.4185 30.456 50.8762C30.5928 49.7352 30.8295 48.6082 31.1632 47.5081C31.393 46.7515 31.7048 46.0219 32.093 45.3323C32.6137 44.3821 33.3707 43.5808 34.2916 43.0049C35.21 42.4495 36.3445 42.1205 37.8097 42.1189H37.9619C38.8385 42.1364 39.6935 42.3927 40.4339 42.8599C41.0982 43.2889 41.6789 43.8341 42.1479 44.4691C43.0434 45.6368 43.7457 47.1792 44.2761 48.8437C45.0734 51.3404 45.4892 54.1059 45.6987 56.2948C45.9083 58.4837 45.9165 60.101 45.9165 60.316V60.3469V61.0065L46.5713 61.0293L47.2114 61.0521C48.6422 61.1026 52.2487 61.2313 55.7356 61.3697C57.4791 61.4397 59.1915 61.5114 60.5846 61.5782C61.282 61.6108 61.8943 61.6417 62.4001 61.671C62.906 61.7003 63.2858 61.7248 63.5052 61.7459C63.8024 61.7783 64.0968 61.8327 64.3859 61.9088C65.1207 62.098 65.8339 62.3621 66.5141 62.6971C67.7628 63.2878 68.8663 64.1434 69.7473 65.2036C70.2042 65.7715 70.5662 66.4089 70.8196 67.0912C71.0981 67.8559 71.2378 68.6638 71.2321 69.4772C71.2501 70.2972 71.1559 71.1157 70.9522 71.9104C70.8571 72.2702 70.7075 72.6134 70.5085 72.9283C70.3326 73.214 70.0781 73.4434 69.7751 73.5896C69.564 73.6855 69.3344 73.7344 69.1023 73.7329C69.0565 73.7329 69.0139 73.7329 68.9746 73.7329H68.9271C68.8183 73.7329 68.7106 73.7556 68.6112 73.7997C68.4702 73.8613 68.3514 73.9641 68.2707 74.0945C68.1946 74.2169 68.1538 74.3577 68.1528 74.5016C68.1537 74.6264 68.1849 74.7491 68.2436 74.8594C68.3023 74.9697 68.3868 75.0643 68.49 75.1352C69.2935 75.687 70.0182 76.3445 70.6444 77.0896C71.0476 77.5715 71.383 78.1057 71.6414 78.6775C71.9038 79.2597 72.0421 79.8897 72.0474 80.5277C72.0474 80.645 72.0474 80.7639 72.031 80.886V80.9316V80.8844C71.956 81.715 71.7343 82.526 71.3762 83.2801C70.7928 84.4826 69.9598 85.5484 68.9321 86.4072C68.8437 86.4788 68.7683 86.5326 68.729 86.57C68.7129 86.5835 68.6959 86.596 68.6783 86.6075H68.6685L68.8453 86.8551L68.6701 86.6059L68.8469 86.8534L68.6718 86.6042L67.7223 87.2687L68.7618 87.7801L69.0679 87.1661L69.4641 87.7264C70.1501 87.2145 70.7673 86.6174 71.3009 85.9495C71.8292 85.3063 72.2756 84.6006 72.6302 83.8485C73.0536 82.9492 73.3152 81.9828 73.4029 80.9935V80.9446V80.9919C73.416 80.829 73.4225 80.6759 73.4225 80.5196C73.4168 79.6928 73.2396 78.876 72.9019 78.1205C72.4436 77.1252 71.8061 76.2216 71.0209 75.4544C70.4836 74.9132 69.8972 74.4226 69.2693 73.9886L68.9271 74.4772L69.4641 74.202C69.4183 74.1134 69.3514 74.0374 69.2693 73.9805L68.9271 74.4691L69.4641 74.1938L68.9222 74.4707H69.5329C69.5327 74.3742 69.5091 74.2793 69.4641 74.1938L68.9222 74.4707L69.3659 74.8795C69.47 74.7685 69.5284 74.6226 69.5296 74.4707H68.9271L69.3708 74.8795L68.9271 74.4935L69.1743 75.0472C69.2498 75.0138 69.3177 74.9656 69.3741 74.9055L68.9271 74.4935L69.1743 75.0472L68.9288 74.4967V75.101C69.0133 75.1005 69.0969 75.0828 69.1743 75.0489L68.9288 74.4984V74.5081L68.8813 75.0994H68.9271V74.5065L68.8797 75.0977C68.9501 75.0977 69.027 75.0977 69.1088 75.0977C69.4846 75.0992 69.8573 75.0301 70.2073 74.8941C70.5447 74.7607 70.8544 74.5663 71.1208 74.3209C71.6283 73.831 72.0009 73.2198 72.2029 72.5456C72.4649 71.7557 72.6171 70.7541 72.6171 69.4707C72.6301 68.0247 72.2531 66.6018 71.5252 65.3502C71.0358 64.5246 70.4168 63.7824 69.6916 63.1515C68.2984 61.9604 66.6559 61.093 64.8836 60.6124C64.4777 60.4999 64.0632 60.4209 63.6443 60.3762C63.3513 60.3485 62.8798 60.3176 62.2626 60.2834C60.1082 60.1645 56.2055 60.0082 52.8314 59.8795C49.4574 59.7508 46.6269 59.6531 46.6269 59.6531L46.6024 60.3388H47.2916V60.3143C47.2916 60.0994 47.2916 58.8176 47.1426 57.0049C47.0181 55.4114 46.8127 53.8253 46.5271 52.2524C46.0442 49.6466 45.2682 46.8779 43.9503 44.6857C43.3314 43.6049 42.4955 42.6625 41.4947 41.9169C40.4735 41.1802 39.2509 40.7706 37.9898 40.7427L37.9865 41.4365L38.034 40.7524C37.9456 40.7524 37.8703 40.7524 37.8146 40.7524C36.8998 40.7439 35.9892 40.8763 35.1151 41.145C34.4348 41.3591 33.7911 41.6748 33.2062 42.0814C32.2362 42.7744 31.436 43.6763 30.8652 44.7199C29.9861 46.2752 29.4901 48.1075 29.1954 49.9788C28.9332 51.8074 28.7937 53.6513 28.778 55.4984C28.755 56.6824 28.7583 57.7785 28.7403 58.6922C28.7385 59.8124 28.4656 60.9157 27.9447 61.9088C27.6168 62.5119 27.1922 63.0576 26.6874 63.5244C26.0303 64.1262 25.268 64.6032 24.4381 64.9316C24.1192 65.059 23.7908 65.1614 23.4558 65.2378C23.2413 65.2898 23.0218 65.3193 22.801 65.3257H7V108H7.69412L8.71892 107.992L21.2884 107.889C29.0301 107.831 38.7706 107.754 46.8758 107.694C50.9292 107.665 54.57 107.637 57.353 107.619C60.1361 107.601 62.0547 107.588 62.6522 107.588C64.4746 107.589 66.2607 107.081 67.8074 106.122C68.4813 105.706 69.0837 105.186 69.5918 104.58C70.058 104.035 70.3939 103.393 70.574 102.7C70.6447 102.399 70.6799 102.09 70.6788 101.78C70.6729 101.232 70.5806 100.689 70.4054 100.169C70.1879 99.5264 69.8904 98.9131 69.5198 98.3437C69.3549 98.084 69.1745 97.8343 68.9795 97.5961L68.454 98.0391L68.7094 98.6759C69.3933 98.3698 70.0136 97.9389 70.538 97.4056C71.07 96.8835 71.5124 96.2783 71.8477 95.614C72.2771 94.7502 72.5393 93.8137 72.6204 92.8534C72.6433 92.6108 72.6547 92.3762 72.6547 92.1466C72.6658 91.2257 72.4728 90.3136 72.0894 89.4754C71.706 88.6371 71.1417 87.8931 70.4365 87.2964C70.1136 87.0111 69.7581 86.7646 69.3773 86.5619L69.0712 87.1775L69.4674 87.7378L69.0712 87.1726Z" fill="#231F20"/>
<path d="M68.5539 73.6661H61.9091V75.0375H68.5539" fill="#231F20"/>
<path d="M69.0711 86.4869H63.4822V87.8583H69.0711" fill="#231F20"/>
<path d="M68.4508 97.3502H61.9091V98.7232H68.4508" fill="#231F20"/>
<path d="M37.9146 50.3583C37.7066 54.8876 33.5665 55.5049 33.5665 55.5049H29.464C29.5819 49.5375 30.3709 41.4332 37.8131 41.4332C37.8704 41.4332 37.9276 41.4332 37.9849 41.4332C38.016 44.1938 38.0275 47.8453 37.9146 50.3583Z" fill="#231F20"/>
<path d="M21.2885 107.194L7.70081 107.305V66.0098H16.1972L21.2885 107.194Z" fill="#231F20"/>
</svg>
