<svg width="130" height="130" viewBox="0 0 130 130" fill="none" xmlns="http://www.w3.org/2000/svg">
<path d="M85.93 17.3613H117.15C122.866 17.3613 127.5 21.995 127.5 27.711V58.9314C127.5 64.6473 122.866 69.281 117.15 69.281H85.93C80.214 69.281 75.5803 64.6473 75.5803 58.9314V27.711C75.5803 21.995 80.214 17.3613 85.93 17.3613Z" fill="#ED4D4D" stroke="black"/>
<path d="M85.93 70.281H117.15C122.866 70.281 127.5 74.9147 127.5 80.6306V111.851C127.5 117.567 122.866 122.201 117.15 122.201H85.93C80.214 122.201 75.5803 117.567 75.5803 111.851V80.6306C75.5803 74.9147 80.214 70.281 85.93 70.281Z" fill="#231F20" stroke="black"/>
<path d="M31.3634 70.281H66.7898C71.0951 70.281 74.5803 73.7501 74.5803 78.0233V114.458C74.5803 118.732 71.0951 122.201 66.7898 122.201H31.3634C27.0581 122.201 23.573 118.732 23.573 114.458V78.0233C23.573 73.7501 27.0581 70.281 31.3634 70.281Z" fill="#ED4D4D" stroke="black"/>
<path d="M91.0075 32.1763L90.7391 54.1415L112.186 54.4035L112.454 32.4383L91.0075 32.1763Z" fill="white"/>
<path d="M84.2043 31.4598L89.6788 26.0524L84.2707 25.9854L84.2043 31.4598Z" fill="white"/>
<path d="M118.809 31.4598L113.401 25.9854L118.876 26.0517L118.809 31.4598Z" fill="white"/>
<path d="M84.2715 55.1825L89.6788 60.6569L84.2043 60.5906L84.2715 55.1825Z" fill="white"/>
<path d="M118.876 55.1825L113.401 60.5898L118.81 60.6569L118.876 55.1825Z" fill="white"/>
<path d="M94.297 34.197L109.752 34.3716L109.699 38.5059C109.698 38.5288 109.69 38.5507 109.674 38.568C109.658 38.5852 109.637 38.5968 109.614 38.6007C109.59 38.6046 109.566 38.6006 109.545 38.5893C109.525 38.5781 109.509 38.5604 109.5 38.5391C109.17 37.5771 108.424 35.8172 107.326 35.688C105.822 35.5134 103.366 35.5868 103.366 35.5868L103.17 50.9106C103.17 50.9106 103.208 52.4173 105.607 52.4452L97.4546 52.3492C97.4546 52.3492 100.25 51.9511 100.322 50.715C100.395 49.4789 100.529 35.5658 100.529 35.5658L97.0144 35.5239C97.0144 35.5239 94.7227 35.819 94.2408 38.6107L94.297 34.197Z" fill="#ED4D4D"/>
<path d="M117.338 59.3238L112.216 59.2608V59.6834L117.349 59.7445L117.338 59.3238ZM117.195 53.5859L117.133 58.6207H117.561L117.625 53.5769L117.195 53.5859ZM117.321 43.4983L117.259 48.5331H117.687L117.75 43.4893L117.321 43.4983ZM117.448 33.4107L117.384 38.4545H117.814L117.876 33.4107H117.448ZM113.496 27.6566L117.521 27.7052V28.3741H117.949L117.964 27.2826L113.513 27.2305L113.496 27.6566ZM103.234 27.5326L108.365 27.5955V27.1729L103.243 27.1118L103.234 27.5326ZM92.9718 27.4103L98.0938 27.4714V27.0507L92.9718 26.9877V27.4103ZM85.9144 30.0877L85.9491 27.3258L87.8406 27.3474V26.9266L85.5193 26.8978L85.4827 30.0751H85.9126L85.9144 30.0877ZM85.7882 40.1753L85.8504 35.1315H85.4223L85.3601 40.1753H85.7882ZM85.662 50.2629L85.726 45.2191H85.2961L85.2339 50.2539L85.662 50.2629ZM86.551 58.9606L85.554 58.948L85.5998 55.3067H85.1717L85.1168 59.3561L86.5418 59.3741L86.551 58.9606ZM96.8133 59.0828L91.6821 59.0217V59.4425L96.8042 59.5054L96.8133 59.0828ZM107.076 59.2069L101.954 59.1458V59.5665L107.087 59.6295L107.076 59.2069Z" fill="#FDFEFE"/>
<path d="M43.5614 80.73H33.6065C32.3242 80.73 31.2847 81.8345 31.2847 83.1969V93.774C31.2847 95.1364 32.3242 96.2409 33.6065 96.2409H43.5614C44.8437 96.2409 45.8832 95.1364 45.8832 93.774V83.1969C45.8832 81.8345 44.8437 80.73 43.5614 80.73Z" fill="white"/>
<path d="M64.2566 80.73H53.0574C51.6148 80.73 50.4453 81.8345 50.4453 83.1969V93.774C50.4453 95.1364 51.6148 96.2409 53.0574 96.2409H64.2566C65.6992 96.2409 66.8687 95.1364 66.8687 93.774V83.1969C66.8687 81.8345 65.6992 80.73 64.2566 80.73Z" fill="white"/>
<path d="M43.146 88.7979C43.146 90.7303 41.309 92.2988 39.0425 92.2988C38.5239 92.3008 38.0084 92.2156 37.5157 92.0463L35.3813 92.5913L35.9602 91.1075C35.6444 90.8186 35.39 90.4639 35.2133 90.0661C35.0366 89.6683 34.9416 89.2363 34.9343 88.7979C34.9343 86.8605 36.7713 85.292 39.0425 85.292C41.3138 85.292 43.146 86.8605 43.146 88.7979Z" fill="#ED4D4D"/>
<path d="M63.2189 85.292V85.6523L58.9785 88.0292L54.0948 85.6326V85.292H63.2189Z" fill="#ED4D4D"/>
<path d="M59.0063 89.2533L63.2189 87.1597V91.6789H54.0948V87.1168L59.0063 89.2533Z" fill="#ED4D4D"/>
<path d="M43.5614 99.8905H33.6065C32.3242 99.8905 31.2847 100.93 31.2847 102.212V112.167C31.2847 113.45 32.3242 114.489 33.6065 114.489H43.5614C44.8437 114.489 45.8832 113.45 45.8832 112.167V102.212C45.8832 100.93 44.8437 99.8905 43.5614 99.8905Z" fill="white"/>
<path d="M43.146 104.085V104.453H34.9343V104.085C34.9343 104.013 34.9618 103.942 35.0151 103.876C35.0684 103.81 35.1466 103.75 35.2452 103.7C35.3437 103.649 35.4607 103.609 35.5895 103.582C35.7182 103.554 35.8562 103.54 35.9956 103.54H42.0847C42.2241 103.54 42.3621 103.554 42.4909 103.582C42.6196 103.609 42.7366 103.649 42.8352 103.7C42.9337 103.75 43.0119 103.81 43.0652 103.876C43.1186 103.942 43.146 104.013 43.146 104.085Z" fill="#ED4D4D"/>
<path d="M34.9343 105.365H43.146V109.784C43.146 110.064 43.0342 110.332 42.8352 110.53C42.6361 110.728 42.3662 110.839 42.0847 110.839H35.9956C35.7141 110.839 35.4442 110.728 35.2452 110.53C35.0461 110.332 34.9343 110.064 34.9343 109.784V105.365Z" fill="#ED4D4D"/>
<path d="M64.2566 99.8905H53.0574C51.6148 99.8905 50.4453 100.93 50.4453 102.212V112.167C50.4453 113.45 51.6148 114.489 53.0574 114.489H64.2566C65.6992 114.489 66.8687 113.45 66.8687 112.167V102.212C66.8687 100.93 65.6992 99.8905 64.2566 99.8905Z" fill="white"/>
<path d="M56.8322 103.54L60.4818 107.205L56.8322 110.839V103.54Z" fill="#ED4D4D"/>
<path d="M101.42 87.7966L109.541 95.4726C110.053 95.956 110.751 96.2322 111.483 96.2407C112.215 96.2491 112.921 95.9891 113.445 95.5177L113.481 95.4847C113.741 95.2507 113.949 94.9715 114.092 94.6633C114.235 94.355 114.31 94.0238 114.314 93.6886C114.317 93.3534 114.249 93.0208 114.113 92.7099C113.977 92.3991 113.776 92.1161 113.521 91.8773L105.363 84.2324C104.851 83.7497 104.151 83.4745 103.419 83.4673C102.686 83.4602 101.981 83.7217 101.457 84.1943C100.934 84.6669 100.636 85.312 100.628 85.9875C100.62 86.6631 100.904 87.3138 101.416 87.7966H101.42Z" fill="white"/>
<path d="M107.48 82.0386L111.547 77.6724C112.431 76.7237 113.626 76.1837 114.877 76.1682C116.127 76.1527 117.334 76.6629 118.238 77.5894L118.312 77.665C118.777 78.1419 119.147 78.7145 119.401 79.3485C119.655 79.9826 119.787 80.665 119.788 81.3548C119.79 82.0447 119.662 82.7278 119.411 83.3634C119.161 83.9989 118.793 84.5737 118.331 85.0533L114.191 89.3439C113.283 90.2752 112.07 90.7859 110.813 90.7658C109.557 90.7457 108.358 90.1963 107.476 89.2364C106.595 88.2764 106.101 86.9832 106.102 85.6363C106.103 84.2893 106.599 82.9969 107.482 82.0386H107.48Z" fill="white"/>
<path d="M103.456 89.8526L103.26 89.6255L94.3858 98.9695C94.1687 99.211 93.9711 99.473 93.7952 99.7525C93.4432 100.293 93.1353 100.867 92.8752 101.468C92.7462 101.762 92.6367 102.067 92.5475 102.378C92.4668 102.654 92.4225 102.941 92.4161 103.231C92.4147 103.366 92.4304 103.5 92.4629 103.63C92.4989 103.763 92.5603 103.887 92.643 103.992L92.6898 104.054C92.8043 104.199 92.9515 104.307 93.1165 104.369C93.2823 104.427 93.4556 104.455 93.6296 104.452C93.9857 104.442 94.3386 104.375 94.6775 104.253C95.2398 104.057 95.7827 103.798 96.2979 103.48C96.5481 103.327 96.7822 103.169 96.9838 103.016C97.1652 102.882 97.3367 102.732 97.497 102.568L106.332 93.1599C106.542 92.9375 106.71 92.6715 106.827 92.3772C106.944 92.0828 107.008 91.7658 107.014 91.4442C107.02 91.1227 106.969 90.8029 106.864 90.5032C106.759 90.2034 106.601 89.9296 106.4 89.6972C106.199 89.4649 105.959 89.2786 105.693 89.1491C105.427 89.0196 105.14 88.9493 104.85 88.9422C104.559 88.9352 104.27 88.9916 103.999 89.1081C103.728 89.2247 103.481 89.3991 103.271 89.6215L103.467 89.8486L103.663 90.0758C103.981 89.7535 104.4 89.5817 104.83 89.5972C105.26 89.6127 105.668 89.8144 105.966 90.1588C106.263 90.5033 106.427 90.9631 106.422 91.4396C106.417 91.9161 106.243 92.3714 105.937 92.7076L97.0865 102.119C96.8901 102.316 96.6772 102.491 96.4509 102.643C95.9941 102.963 95.512 103.235 95.0105 103.458C94.569 103.67 94.0975 103.796 93.617 103.829C93.506 103.831 93.3953 103.814 93.2893 103.777C93.2198 103.755 93.1573 103.711 93.1093 103.651L93.0625 103.59C93.0339 103.551 93.013 103.506 93.0012 103.458C92.983 103.384 92.9745 103.308 92.976 103.231C92.9925 102.91 93.0563 102.595 93.1651 102.297C93.3729 101.708 93.6341 101.145 93.9447 100.615C94.0977 100.35 94.2526 100.107 94.3948 99.9019C94.5098 99.734 94.6349 99.575 94.7693 99.4258L103.653 90.0798L103.456 89.8526Z" fill="white"/>
<path d="M96.9781 114.488L97.0225 110.417C98.1492 110.431 99.2712 110.266 100.347 109.927L101.54 113.811C100.064 114.278 98.5245 114.506 96.9781 114.488Z" fill="white"/>
<path d="M92.021 113.577C90.5254 113.072 89.1189 112.334 87.854 111.389L90.2969 108.102C91.218 108.787 92.2411 109.321 93.3285 109.686L92.021 113.577Z" fill="white"/>
<path d="M106.005 112.664L103.365 108.414C104.409 107.567 105.331 106.538 106.096 105.365L109.752 108.476C108.702 110.087 107.438 111.501 106.005 112.664Z" fill="white"/>
<path d="M83.9304 108.102C82.8531 106.59 82.0218 104.917 81.4672 103.145L86.0607 101.715C86.4656 103.004 87.0708 104.22 87.854 105.32L83.9304 108.102Z" fill="white"/>
<path d="M112.475 104.453L107.927 103.193C108.357 102.144 108.585 101.047 108.601 99.9406V99.8905L113.401 99.939V99.9891C113.38 101.508 113.067 103.014 112.475 104.453Z" fill="white"/>
<path d="M81.4672 98.0419V98.0164C81.4847 96.4816 81.7418 94.9591 82.2292 93.5037L86.0292 94.7794C85.6747 95.8393 85.4882 96.9481 85.4764 98.0657L81.4672 98.0419Z" fill="white"/>
<path d="M88.388 92.5912L84.2043 89.8761C85.4001 88.4639 86.8425 87.2249 88.4787 86.2043L91.5036 89.9128C90.3109 90.6574 89.2596 91.5613 88.388 92.5912Z" fill="white"/>
<path d="M93.62 88.0292L92.416 84.1565C93.8916 83.6864 95.4311 83.454 96.9781 83.4677L96.9406 87.5247C95.8144 87.5151 94.6937 87.6854 93.62 88.0292Z" fill="white"/>
</svg>
