<svg width="130" height="130" viewBox="0 0 130 130" fill="none" xmlns="http://www.w3.org/2000/svg">
<g clip-path="url(#clip0_2179_2090)">
<path d="M68.2558 65.1483C68.2558 65.1483 73.0417 63.7384 72.3686 57.6423C71.6955 51.5462 70.0973 56.2177 70.7165 52.6432C71.3357 49.0687 69.1838 50.0627 68.0708 47.0612C66.9577 44.0598 63.3723 41.9738 64.4285 39.4145C65.4848 36.8552 66.3633 36.5015 64.4766 33.5476C64.4766 33.5476 66.7567 29.0938 61.9999 23.8949C57.2431 18.6961 53.8864 19.7277 48.9227 19.6491C43.9591 19.5705 41.698 26.7457 41.4474 28.4519C41.1968 30.1581 39.5461 48.8231 39.5461 48.8231L42.9305 62.8575L68.2558 65.1483Z" fill="black"/>
<path d="M29.6321 54.7376C29.6321 54.7376 43.4143 46.9925 54.5931 46.9058C65.7719 46.819 86.4439 50.3443 86.4439 50.3443L76.4903 62.1338H37.1322L29.6321 54.7376Z" fill="#2F3841"/>
<path d="M29.6321 54.7376L29.8593 55.2501H29.8681C32.6181 53.7621 35.439 52.4458 38.3181 51.3072C40.9058 50.2648 43.5453 49.3928 46.2232 48.6955C49.0205 47.9816 51.8964 47.5034 54.596 47.4838H55.0011C57.7939 47.4838 61.1565 47.6983 64.6239 48.0192C69.8265 48.5105 75.2592 49.2293 79.3997 49.8335C81.4685 50.1348 83.211 50.4082 84.4362 50.6047L85.8625 50.8356L86.2384 50.8995L86.3681 50.9207L86.4439 50.3542L86.0753 49.9596L76.2718 61.5673H37.3274L29.9686 54.3086L29.6321 54.7409L29.8593 55.2534L29.6321 54.7409L29.2955 55.1715L36.9428 62.7135H76.7161L87.4972 49.9416L86.5211 49.7778C86.5211 49.7778 81.4685 48.9165 75.0116 48.0536C71.7802 47.623 68.1976 47.1923 64.7127 46.8681C61.2278 46.5439 57.8435 46.3278 55.0054 46.3278H54.5931C51.7478 46.3507 48.7568 46.8583 45.8663 47.6017C41.532 48.72 37.425 50.3722 34.3961 51.746C31.3672 53.1198 29.4106 54.2185 29.4106 54.2234L28.7332 54.605L29.3028 55.1682L29.6321 54.7376Z" fill="#231F20"/>
<path d="M10.7009 42.0819L11.2006 42.1899L10.9369 42.1326L11.2006 42.1916L10.9369 42.1343L11.2006 42.1932C11.2006 42.1932 11.2006 42.1654 11.2167 42.1113C11.3355 41.6052 11.5016 41.1145 11.712 40.6475C12.3708 39.1689 13.3648 37.9117 14.5938 37.0026C16.1395 35.8465 18.3817 34.9378 21.6554 34.9361C22.1303 34.9361 22.6271 34.9563 23.1458 34.9967C25.1257 35.1506 26.654 35.5714 27.8312 36.1429C28.6004 36.5019 29.3109 37.0028 29.9335 37.6248C30.6387 38.338 31.1732 39.2388 31.488 40.2447C31.7283 41.0251 31.8495 41.8455 31.8464 42.6713C31.8466 43.0252 31.8247 43.3787 31.7808 43.7291C31.7648 43.8552 31.7488 43.9534 31.7371 44.0173L31.724 44.0877V44.1024L31.9265 44.1581L31.724 44.1008L31.9265 44.1565L31.724 44.0992L31.708 44.1712L31.8537 55.6447L31.1077 61.3658L31.6118 61.4493L31.7794 60.9074H31.7662C28.1846 59.427 24.7285 57.5878 21.4397 55.4121C18.9208 53.7076 16.428 51.6919 14.5355 49.4257C13.6236 48.3624 12.8443 47.1649 12.219 45.8659C11.6478 44.6827 11.3039 43.378 11.2094 42.036L10.7009 42.0753L11.2006 42.1834L10.7009 42.0753L10.191 42.1146C10.2976 43.6392 10.6909 45.1209 11.3449 46.462C12.4769 48.8592 14.3038 51.0042 16.3974 52.8954C19.5385 55.7314 23.29 57.9927 26.2606 59.5548C29.2312 61.1169 31.4224 61.9733 31.4341 61.9782L32.0168 62.2075L32.8647 55.7102L32.7191 44.2187L32.2091 44.2269L32.703 44.3661C32.8116 43.804 32.8639 43.2301 32.8589 42.655C32.861 41.8206 32.7545 40.9904 32.5428 40.1906C32.3434 39.4472 32.0436 38.7425 31.6541 38.1013C31.0203 37.0615 30.0704 36.079 28.698 35.3176C27.3256 34.5562 25.538 34.0241 23.2084 33.844C22.6674 33.8036 22.1473 33.7828 21.6481 33.7817C19.1786 33.7817 17.2162 34.273 15.6748 35.036C14.6405 35.5343 13.6873 36.2227 12.8542 37.073C11.9534 37.9949 11.2236 39.1079 10.7068 40.3478C10.4835 40.8653 10.3134 41.4097 10.1998 41.9705L10.1866 42.0426V42.1179L10.7009 42.0819Z" fill="#231F20"/>
<path d="M31.7664 43.9568L31.947 44.0648L31.7664 43.9551L31.947 44.0632L31.7664 43.9535C31.7664 43.9633 31.2943 44.9196 30.1463 45.866C29.456 46.4293 28.6916 46.868 27.8808 47.1661C26.7515 47.5751 25.5707 47.7758 24.3842 47.7605C22.9477 47.7605 21.2534 47.5067 19.2662 46.8583L18.6018 46.6421L18.7344 54.5296L19.7542 54.5083L19.6347 47.3986L19.1248 47.4085L18.9791 47.9603C21.0465 48.6333 22.8385 48.9067 24.3813 48.9067C25.6953 48.9227 27.0026 48.6953 28.2509 48.2337C29.5226 47.7653 30.6833 46.9787 31.6454 45.9331C32.0434 45.5097 32.3867 45.0258 32.6653 44.4955L31.7664 43.9551V43.9568Z" fill="#231F20"/>
<path d="M7.51196 56.8777L10.7011 55.7544C10.7011 55.7544 8.80715 48.1813 9.57785 46.9761C10.3485 45.771 11.3946 45.771 11.3946 45.771L15.2947 57.6473L12.8442 60.7142L7.51196 56.8777Z" fill="white"/>
<path d="M7.5118 56.8777L7.66478 57.4246L11.3245 56.1343L11.1919 55.5988C11.1919 55.5988 11.1919 55.5808 11.1774 55.5415C11.1074 55.2566 10.7855 53.9303 10.4839 52.3993C10.3382 51.633 10.1925 50.8159 10.0803 50.0545C9.97829 49.396 9.91937 48.73 9.90403 48.0618C9.9017 47.877 9.9134 47.6924 9.939 47.51C9.94707 47.4577 9.95876 47.4062 9.97396 47.356C9.97779 47.343 9.98267 47.3304 9.98853 47.3184V47.3102H9.97833L9.98708 47.3184H9.97688L9.98562 47.3266C10.1221 47.1086 10.2888 46.9168 10.4795 46.7584C10.6777 46.5954 10.9017 46.4765 11.1395 46.408C11.206 46.3884 11.2737 46.3742 11.342 46.3654H11.3886V46.105V46.3392V46.0788V45.7661L10.9108 45.9642L14.6987 57.5163L12.7435 59.9642L7.7755 56.3897L7.50161 56.8728L7.65458 57.4197L7.50161 56.8728L7.22625 57.3558L12.9242 61.4494L15.8686 57.7635L11.7499 45.193H11.3944C11.1205 45.2052 10.8502 45.2683 10.5946 45.3797C10.3414 45.4871 10.1022 45.6325 9.88364 45.8119C9.60523 46.0422 9.36171 46.3214 9.16247 46.6388C9.10086 46.74 9.05185 46.8502 9.01678 46.9663C8.96607 47.1341 8.93187 47.3076 8.9148 47.4838C8.89558 47.6757 8.88634 47.8687 8.88712 48.0618C8.90496 48.8439 8.97558 49.6234 9.09837 50.3935C9.28631 51.6723 9.56312 53.0461 9.79477 54.1039C10.0264 55.1617 10.2114 55.905 10.2129 55.905L10.7039 55.7511L10.5509 55.2042L6.3186 56.6959L7.23937 57.3509L7.5118 56.8777Z" fill="#231F20"/>
<path d="M122.141 53.904L118.953 52.7808C118.953 52.7808 120.847 45.2077 120.075 44.0025C119.303 42.7974 118.258 42.7974 118.258 42.7974L114.358 54.6736L116.808 57.7405L122.141 53.904Z" fill="white"/>
<path d="M122.141 53.9041L122.286 53.3572L119.104 52.2339L118.959 52.7808L119.45 52.9347C119.45 52.9347 119.779 51.6133 120.108 49.9874C120.273 49.1686 120.438 48.2779 120.563 47.4248C120.686 46.6548 120.757 45.8753 120.774 45.0931C120.777 44.8403 120.76 44.5877 120.723 44.3382C120.705 44.223 120.679 44.1096 120.644 43.9993C120.61 43.8831 120.561 43.7729 120.499 43.6718C120.299 43.3544 120.056 43.0751 119.778 42.8449C119.472 42.5926 119.126 42.4101 118.758 42.3078C118.596 42.2588 118.429 42.2313 118.261 42.226H117.903L113.774 54.8014L116.718 58.4872L123.337 53.7272L122.294 53.3588L122.148 53.9057L121.874 53.4227L116.906 56.9972L114.951 54.5492L118.739 42.9972L118.261 42.7991V43.0021V43.3722V43.0021V43.3722C118.434 43.3873 118.603 43.4337 118.762 43.5097C119.129 43.6819 119.444 43.9689 119.67 44.3366H119.678H119.67H119.678H119.67C119.699 44.4042 119.717 44.4767 119.725 44.5511C119.749 44.7294 119.76 44.9095 119.759 45.0898C119.741 45.8094 119.675 46.5265 119.56 47.2348C119.381 48.4645 119.107 49.8187 118.88 50.8585C118.766 51.3792 118.664 51.8229 118.589 52.1357C118.552 52.2912 118.522 52.4157 118.501 52.4992L118.478 52.5958V52.6269L118.344 53.1623L122.005 54.4526L122.151 53.9057L121.877 53.4227L122.141 53.9041Z" fill="#231F20"/>
<path d="M10.7012 41.7544C10.7012 41.7544 12.3314 60.8599 60.4426 54.8358C108.554 48.8117 118.201 41.7544 118.201 41.7544V102.855C118.201 102.855 33.3647 133.147 10.7012 101.65V41.7544Z" fill="#ED4D4D"/>
<path d="M10.701 41.7544L10.1925 41.8084C10.1925 41.8657 10.2887 42.8302 10.9209 44.2416C11.5731 45.6419 12.4351 46.9054 13.4691 47.9766C15.3893 50.0185 18.4225 52.175 23.1706 53.8157C27.9186 55.4564 34.4062 56.5895 43.2597 56.5895C48.2219 56.5895 53.9301 56.2342 60.4992 55.4122C84.5716 52.3977 99.0342 49.1228 107.5 46.5913C115.966 44.0599 118.417 42.2849 118.484 42.2358L118.207 41.756H117.699V102.855H118.208L118.054 102.308L117.949 102.346C116.867 102.726 107.478 105.991 94.547 109.157C81.6155 112.324 65.1336 115.394 49.8974 115.394C41.7213 115.394 33.9035 114.51 27.1931 112.298C23.8422 111.193 20.7594 109.757 18.0481 107.939C15.3368 106.122 12.9927 103.924 11.0972 101.29L10.701 101.65H11.2109V41.7544H10.701L10.1925 41.8084L10.701 41.7544H10.191V101.848L10.3032 102.012C12.2846 104.764 14.7264 107.048 17.5251 108.925C21.7253 111.741 26.7298 113.641 32.2266 114.843C37.7235 116.044 43.7157 116.542 49.8974 116.542C65.7484 116.542 82.851 113.254 96.001 109.971C109.151 106.688 118.344 103.405 118.354 103.402L118.71 103.276V40.6982L117.923 41.2746L118.034 41.4678L117.924 41.2746L118.035 41.4678L117.926 41.2746C117.916 41.2828 115.449 43.043 107.036 45.5418C98.6219 48.0405 84.2365 51.2809 60.387 54.266C53.8514 55.0847 48.1797 55.4367 43.2612 55.4367C35.4595 55.4367 29.5489 54.5492 25.0806 53.2295C21.7297 52.2388 19.1874 51.0042 17.2628 49.7205C14.3723 47.7916 12.8674 45.753 12.0734 44.2105C11.7668 43.6251 11.5223 43.0014 11.3449 42.352C11.2995 42.1852 11.2621 42.0158 11.2327 41.8444C11.2225 41.7871 11.2167 41.7462 11.2138 41.72V41.6954L11.1103 41.7069L11.2138 41.6954L11.1103 41.7069L11.2138 41.6954L10.9443 41.7265L11.2138 41.6954L10.9443 41.7265L11.2138 41.6954L10.7315 41.7495L11.2138 41.6971L10.7315 41.7511L11.2138 41.6987L10.194 41.7544H10.701Z" fill="black"/>
<path d="M40.1756 79.4151C39.9931 79.738 39.7347 79.9978 39.429 80.1657C39.1232 80.3336 38.7821 80.4031 38.4433 80.3665L34.3786 79.9064C34.0397 79.8689 33.7167 79.7267 33.4454 79.4955C33.1741 79.2642 32.9651 78.9531 32.8416 78.5964L40.1756 79.4151Z" fill="#231F20"/>
<path d="M41.3411 67.6602L33.7812 66.8071C33.9342 66.3985 34.1997 66.0559 34.5388 65.8295C34.8779 65.6032 35.2726 65.505 35.665 65.5495L39.7225 66.0064C40.1141 66.0516 40.4824 66.2366 40.7737 66.5342C41.065 66.8318 41.2638 67.2264 41.3411 67.6602Z" fill="#231F20"/>
<path d="M41.3673 68.2807L40.8603 68.2234L39.9468 78.4622C39.9143 78.8317 39.7607 79.1744 39.516 79.4237C39.2713 79.673 38.9528 79.8112 38.6225 79.8115C38.5773 79.8115 38.5322 79.8115 38.487 79.8115L34.4295 79.3546C34.1801 79.3273 33.9427 79.2211 33.7448 79.0484C33.553 78.8799 33.405 78.6565 33.3165 78.4016C33.2581 78.2302 33.2279 78.0482 33.2276 77.8646C33.2278 77.8148 33.2302 77.7651 33.2349 77.7156V77.6959L34.1483 67.462C34.1608 67.3131 34.1937 67.1673 34.246 67.0297C34.3472 66.7579 34.5177 66.5257 34.7359 66.3622C34.9541 66.1988 35.2104 66.1115 35.4727 66.1111C35.5178 66.1111 35.563 66.1111 35.6082 66.1111L39.6656 66.568C39.9496 66.6004 40.2169 66.734 40.4284 66.9494C40.64 67.1647 40.7847 67.4505 40.8413 67.7649L40.8545 67.8337L40.8413 67.7633C40.8589 67.8597 40.8677 67.9579 40.8676 68.0564C40.8676 68.1071 40.8676 68.1579 40.8603 68.2103L41.3673 68.2676L41.8757 68.3249C41.883 68.2365 41.8874 68.1481 41.8874 68.058C41.8873 67.8842 41.8717 67.7109 41.8408 67.5406C41.7414 66.9859 41.4865 66.4816 41.1133 66.1017C40.7402 65.7218 40.2685 65.4864 39.7676 65.43L35.7101 64.9731C35.6313 64.9634 35.552 64.9584 35.4727 64.9584C35.0098 64.9593 34.5573 65.1133 34.1718 65.4013C33.7863 65.6893 33.4848 66.0984 33.3048 66.5778C33.2144 66.8212 33.1565 67.0784 33.1329 67.3408L32.2194 77.578C32.2108 77.6672 32.2064 77.7568 32.2063 77.8466C32.2059 78.172 32.2598 78.4947 32.3651 78.7979C32.5219 79.2547 32.7883 79.6538 33.1347 79.9506C33.4812 80.2475 33.8941 80.4306 34.3275 80.4795L38.385 80.9364C38.4651 80.9446 38.5438 80.9495 38.6225 80.9495C39.2059 80.9491 39.7683 80.705 40.2007 80.2648C40.6331 79.8246 40.9045 79.2195 40.9623 78.567L41.8757 68.3298L41.3673 68.2807Z" fill="white"/>
<path d="M39.0451 66.9429L35.9667 66.5957C35.9364 66.5925 35.907 66.5825 35.8802 66.5663C35.8534 66.5502 35.8296 66.5283 35.8104 66.5018C35.7912 66.4753 35.7768 66.4448 35.7681 66.412C35.7594 66.3792 35.7566 66.3448 35.7598 66.3108C35.7665 66.2424 35.7968 66.1797 35.8442 66.1362C35.8916 66.0927 35.9524 66.0719 36.0133 66.0783L39.0932 66.4254C39.152 66.4354 39.2052 66.4704 39.2416 66.5232C39.2781 66.5761 39.2951 66.6426 39.2891 66.7091C39.2831 66.7756 39.2546 66.8369 39.2094 66.8805C39.1643 66.924 39.106 66.9463 39.0466 66.9429H39.0451Z" fill="white"/>
<path d="M39.045 66.943L39.0959 66.3732L36.0161 66.026L35.9884 66.3371L36.1953 66.1275C36.1481 66.0709 36.0846 66.0349 36.0161 66.026L35.9884 66.3371L36.1953 66.1275L35.9884 66.3388H36.2666C36.2659 66.2611 36.2406 66.1862 36.1953 66.1275L35.9884 66.3388H35.9432L36.2637 66.383C36.2646 66.3683 36.2646 66.3535 36.2637 66.3388H35.9403L36.2608 66.383V66.3682L35.984 66.3371L36.1705 66.5696C36.2224 66.518 36.2548 66.4459 36.2608 66.3682L35.984 66.3371L36.1705 66.5696L35.984 66.3371V66.6433C36.0529 66.6438 36.1195 66.6151 36.1705 66.5631L35.984 66.3306L35.9665 66.6433H35.9957V66.3273L35.9665 66.6433L39.0464 66.9888L39.0741 66.6777L38.8658 66.8873C38.9124 66.9455 38.977 66.9818 39.0464 66.9888L39.0741 66.6777L38.8658 66.8873L39.0741 66.6777H38.7944C38.7947 66.755 38.8201 66.8295 38.8658 66.8873L39.0741 66.6777H39.0537L38.7958 66.6646V66.6777H39.0552L38.7973 66.6646H38.9357L38.7973 66.6548H38.9357L38.7973 66.645L39.3057 66.6859L38.7987 66.6286L39.0756 66.6597L38.8803 66.4518C38.8286 66.5036 38.7964 66.5756 38.79 66.6532L39.0668 66.6843L38.8803 66.4518L39.0668 66.6843V66.3715C38.998 66.3716 38.9316 66.4001 38.8803 66.4518L39.0668 66.6843L39.0945 66.3748H39.0668V66.6859L39.0945 66.3764L39.0435 66.9463L38.9925 67.5161C39.0173 67.5177 39.0421 67.5177 39.0668 67.5161C39.2504 67.5155 39.4273 67.4386 39.5635 67.3001C39.6996 67.1617 39.7853 66.9714 39.804 66.7661V66.7498C39.804 66.735 39.804 66.7121 39.804 66.6826C39.8042 66.4761 39.7359 66.2768 39.6126 66.1237C39.4893 65.9705 39.3196 65.8744 39.1367 65.8541L36.0583 65.507H35.9826C35.7987 65.5075 35.6216 65.5847 35.4854 65.7235C35.3493 65.8623 35.2637 66.053 35.2454 66.2585L35.7524 66.3142L35.2468 66.2422C35.2452 66.2754 35.2452 66.3088 35.2468 66.342C35.2473 66.5484 35.3157 66.7473 35.439 66.9002C35.5622 67.0532 35.7314 67.1495 35.9141 67.1706L38.994 67.5161L39.045 66.943Z" fill="white"/>
<path d="M26.7297 58.6216V108.018H27.7496V58.6216" fill="white"/>
<path d="M46.0237 62.0651V110.944H47.0435V62.0651" fill="white"/>
<path d="M66.6968 59.8267V109.051H67.7166V59.8267" fill="white"/>
<path d="M86.145 57.59V105.608H87.1648V57.59" fill="white"/>
<path d="M103.449 52.9429V100.788H104.469V52.9429" fill="white"/>
<path d="M14.6389 78.4868C14.6782 78.531 16.8723 80.8398 21.8724 83.1371C26.8725 85.4344 34.6742 87.7219 45.9244 87.7219C51.3305 87.693 56.7277 87.2262 62.0741 86.3252C96.5618 80.6973 114.355 73.9773 114.377 73.9675L114.056 72.8802L114.007 72.8983C112.959 73.288 95.2739 79.7493 61.9269 85.1904C55.942 86.1729 50.6243 86.5691 45.9244 86.5691C34.7966 86.5691 27.1304 84.3144 22.2585 82.076C20.4076 81.2465 18.6318 80.2195 16.9554 79.0091C16.3916 78.5932 15.9822 78.2494 15.717 78.0119C15.5844 77.8924 15.4868 77.8007 15.4256 77.7401L15.3572 77.6714L15.3411 77.6566L15.1328 77.8957L15.3368 77.6533L15.1328 77.8957L15.3368 77.6533L14.6375 78.4868H14.6389Z" fill="white"/>
<path d="M34.3013 70.2063L40.1172 70.9529L40.2323 69.8133L34.4178 69.0682" fill="white"/>
<path d="M34.0828 73.3223L39.8972 74.069L40.0123 72.9294L34.1979 72.1843" fill="white"/>
<path d="M33.8628 76.4401L39.6773 77.1851L39.7938 76.0471L33.9779 75.3004" fill="white"/>
<path d="M70.9715 64.4426L82.8132 63.4388L82.7374 62.2959L70.8943 63.2996" fill="white"/>
<path d="M71.2774 67.7551L83.1191 66.7513L83.0419 65.6084L71.2002 66.6121" fill="white"/>
<path d="M71.5819 71.0676L83.425 70.0638L83.3478 68.9209L71.5046 69.9246" fill="white"/>
<path d="M71.8878 74.3801L83.7294 73.3763L83.6522 72.2334L71.8105 73.2371" fill="white"/>
<path d="M72.1925 77.6926L84.0356 76.6888L83.9584 75.5459L72.1167 76.5496" fill="white"/>
<path d="M89.8719 99.5605L93.7108 93.1696L96.6158 96.957L102.496 85.4639L98.2927 88.3834L98.8289 89.3577L99.6025 88.8206L96.4483 94.9839L93.6117 91.2849L89.0269 98.9202L89.8719 99.5605Z" fill="white"/>
<path d="M100.539 87.1422V90.6348H101.559V87.1422" fill="white"/>
<path d="M61.6752 97.3466H61.1711C61.1711 98.6324 60.7744 99.8783 60.0486 100.872C59.3228 101.866 58.3129 102.546 57.1909 102.797C56.0689 103.048 54.9042 102.854 53.8953 102.247C52.8864 101.641 52.0958 100.661 51.658 99.4729C51.2203 98.285 51.1625 96.9633 51.4947 95.7329C51.8268 94.5026 52.5282 93.4397 53.4794 92.7254C54.4306 92.0111 55.5728 91.6896 56.7113 91.8157C57.8497 91.9418 58.9141 92.5076 59.723 93.4168C60.1832 93.932 60.5481 94.5445 60.7966 95.219C61.0451 95.8935 61.1724 96.6166 61.1711 97.3466H62.191C62.1904 95.7935 61.7107 94.2886 60.8335 93.0884C59.9564 91.8882 58.7362 91.0669 57.3807 90.7645C56.0252 90.4621 54.6184 90.6972 53.3999 91.4299C52.1814 92.1626 51.2266 93.3474 50.6983 94.7825C50.1699 96.2177 50.1006 97.8143 50.5022 99.3005C50.9038 100.787 51.7514 102.07 52.9007 102.933C54.05 103.795 55.4298 104.183 56.805 104.03C58.1802 103.878 59.4658 103.194 60.4427 102.095C60.9983 101.472 61.4388 100.732 61.7389 99.9172C62.0389 99.1022 62.1926 98.2286 62.191 97.3466H61.6752Z" fill="white"/>
<path d="M55.9901 93.2596H55.4802V99.2542H60.5954V96.8882H57.584V92.6865H55.4802V93.2596H55.9901V93.8327H56.5642V98.0344H59.5756V98.108H56.5001V93.2596H55.9901V93.8327V93.2596Z" fill="white"/>
<path d="M19.5941 91.1736L13.3921 93.7984L13.7519 94.8709L19.954 92.2461" fill="white"/>
<path d="M24.2705 92.8928L18.3744 95.3015L18.7226 96.3789L24.6187 93.9703" fill="white"/>
<path d="M19.9146 92.7865L19.1992 90.9788L20.5774 91.4667L19.9146 92.7865Z" fill="white"/>
<path d="M18.5057 94.8872L18.9661 96.7948L17.6709 96.0776L18.5057 94.8872Z" fill="white"/>
<path d="M16.4689 88.0297L16.5913 87.6793L16.8958 87.8365L17.3227 86.7951L16.0392 86.132L15.5205 87.6089L16.4689 88.0297Z" fill="white"/>
<path d="M21.5171 90.2223L23.0585 91.0181L23.484 89.9767L21.944 89.1809L21.5171 90.2223ZM18.4373 88.6291L19.9772 89.4248L20.4041 88.3834L18.8627 87.5876L18.4373 88.6291Z" fill="white"/>
<path d="M24.5984 91.8203L24.9131 91.9824L24.7572 92.3312L25.6692 92.8454L26.2971 91.4372L25.0253 90.7789L24.5984 91.8203Z" fill="white"/>
<path d="M22.6258 97.0995L21.9148 98.6911L22.8254 99.2052L23.5363 97.6136L22.6258 97.0995ZM24.0462 93.918L23.3353 95.5095L24.2473 96.0237L24.9583 94.4321L24.0462 93.918Z" fill="white"/>
<path d="M21.2038 100.284L21.0377 100.656L20.7056 100.474L20.2583 101.504L21.4967 102.184L22.1144 100.8L21.2038 100.284Z" fill="white"/>
<path d="M16.5899 98.2162L15.219 97.4646L14.7717 98.4945L16.1427 99.2461L16.5899 98.2162ZM19.3347 99.7193L17.9653 98.9678L17.5165 99.9977L18.8875 100.749L19.3347 99.7193Z" fill="white"/>
<path d="M13.8539 96.7114L13.4911 96.5133L13.6397 96.0924L12.6913 95.6716L12.1974 97.0782L13.4066 97.7413L13.8539 96.7114Z" fill="white"/>
<path d="M15.3368 91.2538L15.9035 89.6426L14.9536 89.2218L14.3884 90.833L15.3368 91.2538ZM14.2048 94.4796L14.7715 92.8667L13.8216 92.4459L13.2549 94.0588L14.2048 94.4796Z" fill="white"/>
<path d="M14.9712 66.8757L5.94568 60.3047C5.74925 60.1699 5.57884 59.9922 5.44451 59.7821C5.31019 59.572 5.21467 59.3338 5.16358 59.0816C5.1125 58.8293 5.10689 58.5681 5.14709 58.3134C5.18729 58.0587 5.27248 57.8156 5.39764 57.5984C5.52279 57.3813 5.68537 57.1946 5.87579 57.0492C6.06621 56.9039 6.2806 56.8029 6.50632 56.7522C6.73203 56.7015 6.9645 56.7021 7.19 56.754C7.4155 56.8059 7.62946 56.9081 7.81925 57.0545L16.8447 63.6254C17.2151 63.9111 17.4717 64.348 17.5597 64.843C17.6477 65.3381 17.5603 65.8522 17.3161 66.2759C17.0719 66.6996 16.6901 66.9994 16.2521 67.1114C15.8141 67.2235 15.3545 67.1389 14.9712 66.8757Z" fill="white"/>
<path d="M14.9712 66.8758L15.248 66.396L6.22247 59.8234C6.04924 59.6985 5.9077 59.5253 5.81162 59.3207C5.71709 59.1233 5.66707 58.903 5.66593 58.6788C5.66566 58.416 5.73349 58.1589 5.86116 57.9387C5.97267 57.7443 6.12666 57.5854 6.30843 57.477C6.48454 57.3707 6.68111 57.3145 6.88099 57.3132H6.98588C7.18275 57.333 7.37231 57.4067 7.53805 57.5277L16.5708 64.0987C16.7415 64.2219 16.8817 64.3916 16.9785 64.592C17.0753 64.7923 17.1255 65.0169 17.1244 65.2449C17.1244 65.5094 17.055 65.768 16.9249 65.9883C16.8131 66.1818 16.6598 66.3406 16.479 66.4501C16.2876 66.5636 16.0727 66.618 15.8564 66.6077C15.6401 66.5973 15.4301 66.5226 15.248 66.3911L14.9712 66.8709L14.6958 67.3572C15.0327 67.6029 15.4224 67.7419 15.8237 67.7596C16.225 67.7772 16.6231 67.6728 16.9761 67.4573C17.329 67.2419 17.6237 66.9234 17.8291 66.5355C18.0344 66.1475 18.1428 65.7045 18.1428 65.2531C18.1439 64.8339 18.051 64.421 17.8728 64.0528C17.6946 63.6845 17.4367 63.3725 17.123 63.1457L8.09021 56.5731C7.78387 56.3506 7.43376 56.2157 7.07039 56.1801C7.00482 56.1801 6.94072 56.1703 6.87662 56.1703C6.50375 56.17 6.13675 56.2747 5.8092 56.475C5.48164 56.6752 5.20398 56.9645 5.00159 57.3165C4.84195 57.5931 4.73238 57.9023 4.67915 58.2265C4.62592 58.5507 4.63007 58.8835 4.69136 59.2059C4.75266 59.5283 4.86989 59.834 5.03637 60.1054C5.20284 60.3768 5.41529 60.6087 5.66156 60.7878L14.6943 67.3588L14.9712 66.8758Z" fill="#231F20"/>
<path d="M13.1909 70.9399L3.34658 63.7729C3.11369 63.6192 2.91088 63.4142 2.75035 63.17C2.58983 62.9259 2.47492 62.6479 2.41253 62.3525C2.35015 62.0572 2.34158 61.7507 2.38735 61.4516C2.43312 61.1524 2.53227 60.8668 2.67884 60.6118C2.82541 60.3569 3.01637 60.1379 3.24022 59.9681C3.46407 59.7983 3.71618 59.6811 3.98137 59.6237C4.24656 59.5662 4.51936 59.5697 4.78333 59.6338C5.0473 59.698 5.29699 59.8215 5.51736 59.997L15.3616 67.164C15.7982 67.4929 16.1021 68.0014 16.2079 68.5799C16.3138 69.1585 16.2129 69.7606 15.9272 70.2562C15.6414 70.7519 15.1937 71.1014 14.6807 71.2294C14.1677 71.3573 13.6305 71.2533 13.185 70.9399H13.1909Z" fill="white"/>
<path d="M13.1907 70.9399L13.4675 70.4585L3.62326 63.2915C3.4142 63.1394 3.24239 62.9308 3.12354 62.6848C3.00469 62.4388 2.94258 62.1632 2.94289 61.8833C2.94474 61.5806 3.01903 61.2841 3.15796 61.0248C3.2969 60.7655 3.49536 60.553 3.73253 60.4096C3.9493 60.2805 4.19089 60.2131 4.43621 60.2131C4.72337 60.213 5.00436 60.3068 5.24479 60.4833L15.0891 67.6503C15.3022 67.8043 15.4763 68.0175 15.5946 68.2693C15.7158 68.5242 15.7762 68.8101 15.77 69.099C15.7638 69.388 15.6911 69.6702 15.5591 69.9182C15.4271 70.1663 15.2403 70.3718 15.0167 70.5146C14.7932 70.6575 14.5406 70.7329 14.2834 70.7336C13.9962 70.734 13.7152 70.6401 13.4748 70.4634L13.1965 70.9448L12.9197 71.4262C13.4787 71.8332 14.1585 71.9739 14.8097 71.8174C15.461 71.6609 16.0302 71.2201 16.3923 70.592C16.7543 69.9638 16.8795 69.1997 16.7403 68.4678C16.6011 67.7359 16.2089 67.0961 15.65 66.6892L5.8057 59.5205C5.52924 59.3186 5.2201 59.1799 4.89593 59.1122C4.57176 59.0446 4.23892 59.0494 3.9164 59.1263C3.59388 59.2032 3.288 59.3508 3.01622 59.5606C2.74445 59.7704 2.5121 60.0383 2.33245 60.349C2.1528 60.6598 2.02936 61.0072 1.96918 61.3715C1.909 61.7359 1.91326 62.11 1.98171 62.4725C2.05017 62.8349 2.18148 63.1787 2.36814 63.4842C2.55481 63.7896 2.79318 64.0508 3.06964 64.2527L12.9139 71.4213L13.1907 70.9399Z" fill="#231F20"/>
<path d="M10.0077 73.1488L2.34002 67.5668C2.16572 67.4399 2.01539 67.2755 1.89759 67.0833C1.7798 66.891 1.69686 66.6745 1.6535 66.4462C1.61014 66.2179 1.60721 65.9823 1.64489 65.7527C1.68257 65.5231 1.76011 65.3041 1.87308 65.1082C2.10125 64.7126 2.4599 64.4351 2.87014 64.3366C3.07327 64.2879 3.28296 64.2846 3.48722 64.327C3.69148 64.3693 3.88632 64.4565 4.06062 64.5834L11.7283 70.1671C11.9047 70.2928 12.0572 70.4566 12.177 70.6489C12.2967 70.8413 12.3814 71.0584 12.426 71.2878C12.4707 71.5172 12.4744 71.7542 12.4371 71.9852C12.3997 72.2162 12.322 72.4366 12.2084 72.6336C12.0948 72.8307 11.9476 73.0004 11.7752 73.1331C11.6029 73.2658 11.4089 73.3588 11.2044 73.4067C10.9999 73.4546 10.7889 73.4565 10.5838 73.4122C10.3786 73.368 10.1833 73.2784 10.0091 73.1488H10.0077Z" fill="white"/>
<path d="M10.0075 73.1488L10.2843 72.6674L2.61664 67.0854C2.46636 66.9762 2.34292 66.8263 2.25764 66.6495C2.17236 66.4727 2.12798 66.2746 2.12858 66.0735C2.12723 65.8409 2.18703 65.613 2.30049 65.4185C2.39906 65.247 2.53496 65.1067 2.69531 65.0108C2.85118 64.9185 3.02468 64.8701 3.20086 64.8699C3.40763 64.8698 3.61004 64.9369 3.78362 65.0632L11.4513 70.6468C11.6038 70.7576 11.7287 70.9103 11.814 71.0905C11.8962 71.2657 11.9392 71.4607 11.9393 71.6587C11.939 71.8764 11.886 72.0899 11.7862 72.2765C11.6864 72.463 11.5435 72.6157 11.3726 72.7181C11.204 72.8197 11.0142 72.8686 10.823 72.8597C10.6318 72.8508 10.4463 72.7843 10.2858 72.6674L10.0089 73.1471L9.73213 73.6285C9.96258 73.7968 10.2203 73.9124 10.4905 73.9686C10.7607 74.0249 11.0382 74.0207 11.3069 73.9563C11.5757 73.8919 11.8306 73.7686 12.0569 73.5934C12.2833 73.4183 12.4766 73.1947 12.626 72.9354C12.7754 72.6761 12.8778 72.3863 12.9275 72.0825C12.9771 71.7788 12.9729 71.4669 12.9153 71.165C12.8576 70.863 12.7475 70.5767 12.5913 70.3226C12.4351 70.0685 12.2358 69.8515 12.0049 69.684L4.33724 64.102C3.99946 63.8551 3.60522 63.7238 3.20231 63.7238C2.85903 63.7243 2.52102 63.8187 2.21745 63.9988C1.90435 64.1866 1.63908 64.4611 1.44675 64.7963C1.29703 65.055 1.19422 65.3444 1.14423 65.6479C1.09424 65.9513 1.09805 66.2629 1.15544 66.5648C1.21283 66.8666 1.32268 67.1527 1.47867 67.4067C1.63466 67.6607 1.83374 67.8776 2.06447 68.0449L9.73213 73.6285L10.0075 73.1488Z" fill="#231F20"/>
<path d="M114.682 63.9022L123.714 57.3312C124.037 57.096 124.28 56.7464 124.406 56.3378C124.531 55.9293 124.531 55.4854 124.406 55.0767C124.281 54.6681 124.038 54.3181 123.716 54.0825C123.394 53.8468 123.011 53.7391 122.627 53.7764C122.347 53.8053 122.077 53.9098 121.841 54.081L112.808 60.652C112.438 60.9376 112.181 61.3745 112.093 61.8695C112.005 62.3646 112.092 62.8787 112.337 63.3024C112.581 63.7261 112.963 64.0259 113.401 64.1379C113.839 64.25 114.298 64.1654 114.682 63.9022Z" fill="white"/>
<path d="M114.681 63.9023L114.96 64.3837L123.985 57.8127C124.311 57.5747 124.576 57.2453 124.754 56.8569C124.932 56.4686 125.017 56.0347 125 55.5983C124.983 55.1619 124.865 54.738 124.658 54.3685C124.45 53.999 124.161 53.6967 123.818 53.4915C123.494 53.2984 123.132 53.1972 122.766 53.1968C122.702 53.1968 122.638 53.1968 122.572 53.2066C122.209 53.2422 121.858 53.3771 121.552 53.5996L112.519 60.1722C112.206 60.3994 111.948 60.7114 111.77 61.0796C111.592 61.4478 111.499 61.8604 111.5 62.2796C111.5 62.7344 111.61 63.1807 111.818 63.5706C112.027 63.9605 112.325 64.2795 112.683 64.4934C113.006 64.6857 113.367 64.7869 113.733 64.7881C114.164 64.7876 114.585 64.6471 114.947 64.3837L114.668 63.9023L114.391 63.4225C114.258 63.5199 114.108 63.5867 113.952 63.6191C113.795 63.6516 113.634 63.649 113.479 63.6116C113.323 63.5742 113.175 63.5027 113.044 63.4011C112.913 63.2995 112.801 63.1699 112.715 63.0197C112.587 62.7998 112.519 62.5424 112.519 62.2796C112.519 62.0518 112.57 61.8275 112.666 61.6273C112.763 61.4271 112.903 61.2573 113.073 61.1334L122.098 54.5624C122.264 54.4414 122.454 54.3677 122.651 54.3479C122.686 54.3479 122.721 54.3479 122.756 54.3479C122.955 54.3492 123.152 54.4054 123.328 54.5116C123.522 54.6278 123.684 54.801 123.797 55.0127C123.91 55.2243 123.97 55.4666 123.971 55.7135C123.969 55.9376 123.919 56.158 123.825 56.3554C123.729 56.56 123.587 56.7331 123.414 56.8581L114.381 63.4307L114.681 63.9023Z" fill="#231F20"/>
<path d="M116.462 67.9663L126.306 60.7993C126.737 60.468 127.036 59.9606 127.138 59.3852C127.241 58.8098 127.14 58.2121 126.856 57.7195C126.572 57.2269 126.129 56.8784 125.619 56.7483C125.11 56.6183 124.576 56.717 124.131 57.0234L114.285 64.1871C113.848 64.5159 113.545 65.0245 113.439 65.603C113.333 66.1816 113.434 66.7836 113.719 67.2793C114.005 67.775 114.453 68.1245 114.966 68.2524C115.479 68.3804 116.016 68.2764 116.462 67.963V67.9663Z" fill="white"/>
<path d="M116.462 67.9664L116.738 68.4478L126.586 61.2791C127.144 60.8722 127.537 60.2324 127.676 59.5005C127.815 58.7686 127.69 58.0045 127.328 57.3763C126.966 56.7481 126.396 56.3073 125.745 56.1509C125.094 55.9944 124.414 56.1351 123.855 56.542L114.011 63.7107C113.723 63.9058 113.472 64.1641 113.275 64.4702C113.077 64.7763 112.936 65.1239 112.86 65.4924C112.784 65.861 112.775 66.2429 112.833 66.6154C112.892 66.988 113.016 67.3436 113.199 67.6611C113.382 67.9786 113.62 68.2515 113.898 68.4636C114.177 68.6757 114.491 68.8227 114.821 68.8958C115.151 68.9688 115.491 68.9665 115.82 68.889C116.15 68.8115 116.462 68.6603 116.738 68.4445L116.462 67.9631L116.185 67.4817C116.021 67.622 115.834 67.723 115.635 67.7782C115.435 67.8334 115.227 67.8416 115.025 67.8024C114.822 67.7632 114.629 67.6773 114.457 67.5502C114.286 67.4232 114.139 67.2576 114.027 67.0639C113.915 66.8702 113.84 66.6526 113.806 66.4247C113.773 66.1969 113.781 65.9636 113.832 65.7396C113.882 65.5157 113.973 65.3058 114.099 65.1231C114.225 64.9405 114.383 64.7891 114.563 64.6784L124.407 57.5114C124.648 57.3349 124.929 57.241 125.216 57.2412C125.461 57.2419 125.703 57.3093 125.92 57.4377C126.157 57.5807 126.356 57.7931 126.495 58.0525C126.634 58.3118 126.708 58.6086 126.709 58.9114C126.709 59.1871 126.649 59.4586 126.535 59.7023C126.415 59.9529 126.241 60.1653 126.029 60.3196L116.185 67.4866L116.462 67.9664Z" fill="#231F20"/>
<path d="M119.645 70.1752L127.314 64.5932C127.489 64.4664 127.639 64.3022 127.757 64.11C127.875 63.9178 127.958 63.7014 128.001 63.4732C128.045 63.245 128.048 63.0094 128.01 62.7799C127.972 62.5503 127.895 62.3314 127.782 62.1355C127.669 61.9396 127.523 61.7706 127.352 61.6382C127.181 61.5057 126.989 61.4124 126.785 61.3636C126.582 61.3148 126.373 61.3115 126.169 61.3537C125.964 61.3959 125.77 61.483 125.595 61.6099L117.928 67.1935C117.58 67.4519 117.338 67.854 117.253 68.3123C117.168 68.7706 117.247 69.2481 117.474 69.6409C117.7 70.0338 118.055 70.3103 118.462 70.4104C118.869 70.5104 119.295 70.4259 119.647 70.1752H119.645Z" fill="white"/>
<path d="M119.645 70.1752L119.922 70.6566L127.591 65.073C127.897 64.8505 128.145 64.5423 128.312 64.1788C128.479 63.8153 128.559 63.4091 128.543 63.0003C128.527 62.5916 128.417 62.1946 128.223 61.8485C128.029 61.5023 127.758 61.2192 127.437 61.0269C127.133 60.8468 126.795 60.7524 126.452 60.7518C126.049 60.7518 125.655 60.8832 125.317 61.1301L117.649 66.7121C117.419 66.8799 117.22 67.097 117.064 67.3512C116.908 67.6054 116.799 67.8916 116.741 68.1934C116.684 68.4952 116.68 68.8068 116.73 69.1103C116.78 69.4139 116.882 69.7034 117.031 69.9624C117.224 70.2979 117.49 70.572 117.804 70.7581C118.132 70.9557 118.503 71.0505 118.875 71.0326C119.248 71.0148 119.609 70.8849 119.922 70.6566L119.645 70.1752L119.368 69.6938C119.195 69.8213 118.993 69.889 118.786 69.8887C118.61 69.8906 118.437 69.8445 118.281 69.7544C118.121 69.6586 117.985 69.5182 117.887 69.3467C117.774 69.1518 117.714 68.9242 117.715 68.6917C117.715 68.4911 117.76 68.2937 117.844 68.117C117.93 67.9368 118.055 67.784 118.207 67.6732L125.876 62.0896C126.05 61.9628 126.252 61.8956 126.459 61.8964C126.635 61.8966 126.809 61.9449 126.965 62.0372C127.129 62.1357 127.268 62.2808 127.368 62.4581C127.467 62.6355 127.524 62.839 127.531 63.0484C127.539 63.2579 127.499 63.466 127.413 63.6522C127.327 63.8385 127.2 63.9963 127.043 64.1102L119.376 69.6922L119.645 70.1752Z" fill="#231F20"/>
<path d="M53.6591 22.5965C53.6591 22.5965 49.0626 20.0192 46.0832 25.2082C45.7918 25.6994 45.5514 26.1611 45.3373 26.582C43.3224 30.5593 44.2694 31.4009 43.8483 33.5443C43.3821 35.9137 42.8737 42.6713 50.3578 44.9146L51.9108 52.0931C51.9566 52.3038 52.0426 52.5007 52.163 52.6702C52.2834 52.8398 52.4351 52.9778 52.6077 53.0747C52.7804 53.1716 52.9697 53.2251 53.1626 53.2315C53.3555 53.2379 53.5473 53.1969 53.7247 53.1116C55.3724 52.3173 56.7173 50.8941 57.5219 49.0934C58.3264 47.2927 58.5388 45.2303 58.1216 43.2706L58.0648 43.0054C58.0648 43.0054 60.1263 41.6054 61.1607 39.3768C61.1607 39.3768 64.6208 39.9499 65.2487 36.7569C65.8766 33.564 62.5156 33.7834 62.5156 33.7834C62.5156 33.7834 60.508 35.7712 59.274 34.6987C58.04 33.6262 54.2579 26.4657 53.6591 22.5965Z" fill="white"/>
<path d="M53.6591 22.5965L53.7829 22.3181C52.909 21.8756 51.9616 21.6462 51.0031 21.6452C50.1017 21.6386 49.2118 21.8732 48.4069 22.3296C47.5095 22.8421 46.6222 23.6969 45.853 25.0395C45.5616 25.5406 45.3154 26.0023 45.0983 26.4297C44.4514 27.7053 44.1003 28.6763 43.9109 29.4802C43.7568 30.1372 43.6853 30.8151 43.6982 31.4943C43.6982 31.6777 43.6982 31.8529 43.6982 32.0281C43.7076 32.5147 43.6671 33.001 43.5773 33.4772C43.419 34.2927 43.3389 35.1249 43.3384 35.9595C43.3384 37.5053 43.621 39.385 44.6408 41.1043C45.6607 42.8236 47.409 44.3563 50.2863 45.2143L50.3577 44.9146L50.0897 44.9883L51.6427 52.1651C51.7281 52.5653 51.934 52.9199 52.2255 53.1689C52.5063 53.4113 52.8504 53.5431 53.2045 53.5439C53.4215 53.5436 53.6362 53.4935 53.8353 53.3965C55.5446 52.5758 56.9401 51.1015 57.7745 49.2348C58.609 47.3682 58.8284 45.2297 58.394 43.1986L58.3372 42.9333L58.0676 43.0054L58.2133 43.2707C58.6357 42.97 59.0366 42.6328 59.4123 42.262C60.223 41.4943 60.9006 40.565 61.4112 39.5209L61.1665 39.3769L61.1257 39.6847C61.3412 39.7149 61.5583 39.7291 61.7754 39.7273C62.4884 39.7395 63.1952 39.5757 63.8457 39.2475C64.2376 39.0382 64.5853 38.7373 64.8655 38.3649C65.1913 37.9192 65.4154 37.3909 65.5182 36.8257C65.5734 36.5572 65.6018 36.2826 65.6027 36.007C65.6147 35.4974 65.4753 34.9979 65.2064 34.5874C65.0289 34.3297 64.8063 34.1158 64.5523 33.9586C64.2093 33.7508 63.8373 33.6101 63.4523 33.5427C63.1862 33.491 62.9167 33.4647 62.6467 33.4641C62.5578 33.4641 62.501 33.4641 62.501 33.4641H62.4063L62.3349 33.5361C62.0959 33.7626 61.8405 33.9663 61.5715 34.1453C61.3493 34.2959 61.1152 34.4231 60.8722 34.5252C60.6395 34.6263 60.3931 34.6817 60.1437 34.6889C59.8933 34.6962 59.6481 34.6073 59.4488 34.4367C59.2542 34.2511 59.0775 34.0431 58.9214 33.8161C58.4327 33.1204 57.9812 32.3927 57.5694 31.6367C56.7412 30.1404 55.9935 28.5897 55.3301 26.993C54.6556 25.3556 54.1238 23.7492 53.9359 22.5245L53.9126 22.3705L53.7873 22.3001L53.6634 22.5785L53.391 22.6309C53.5469 23.6379 53.9024 24.8283 54.3642 26.0695C55.0847 27.9658 55.9261 29.8012 56.8817 31.5614C57.3188 32.3801 57.7559 33.1022 58.1317 33.6802C58.3211 33.9684 58.4989 34.2206 58.6621 34.4285C58.7978 34.6076 58.948 34.772 59.1108 34.9198C59.4067 35.175 59.7708 35.31 60.1437 35.3029C60.4681 35.2955 60.7887 35.2234 61.0907 35.0901C61.4923 34.9139 61.8735 34.6835 62.2256 34.404C62.517 34.178 62.6991 33.9979 62.7049 33.993L62.5214 33.7588L62.5374 34.0699C62.5374 34.0699 62.584 34.0699 62.651 34.0699C63.1426 34.0703 63.6294 34.1776 64.0846 34.386C64.3515 34.5081 64.5862 34.7048 64.7665 34.9574C64.9628 35.26 65.0628 35.6279 65.0506 36.0021C65.0486 36.2303 65.0247 36.4576 64.9792 36.68C64.8947 37.1474 64.7102 37.5847 64.4416 37.9539C64.0909 38.4037 63.6304 38.7277 63.1172 38.8856C62.6793 39.0276 62.2254 39.0977 61.7696 39.0936C61.5948 39.0936 61.4506 39.0936 61.35 39.0756L61.2364 39.0625H61.2087L61.1985 39.1394L61.2087 39.0625L61.1985 39.1394L61.2087 39.0625L61.0135 39.0297L60.9232 39.2262C60.4435 40.2007 59.809 41.0682 59.051 41.7855C58.7364 42.0917 58.4537 42.3308 58.2512 42.4912C58.1492 42.5715 58.0676 42.632 58.0123 42.673L57.9482 42.7188L57.9336 42.7303L57.7602 42.8482L57.8637 43.3394C58.2674 45.2275 58.0635 47.2153 57.288 48.9506C56.5126 50.6859 55.2156 52.0567 53.627 52.8201C53.4965 52.8842 53.3556 52.9171 53.2132 52.9167C52.9809 52.9163 52.7551 52.83 52.5708 52.6711C52.3815 52.508 52.2478 52.2768 52.192 52.0161L50.5894 44.6526L50.4306 44.6052C47.6625 43.7733 46.0438 42.334 45.1027 40.7506C44.1615 39.1673 43.8935 37.4136 43.8935 35.9514C43.8961 35.1616 43.9738 34.3745 44.1251 33.6033C44.2232 33.0829 44.2681 32.5517 44.2591 32.0199C44.2591 31.8398 44.2591 31.6629 44.2591 31.4861C44.2458 30.8632 44.3086 30.2412 44.4456 29.6374C44.619 28.899 44.9497 27.9787 45.5791 26.7343C45.7903 26.3184 46.0336 25.8681 46.3177 25.3752C47.0462 24.1144 47.8504 23.3432 48.659 22.8814C49.3857 22.4696 50.1893 22.2585 51.0031 22.2657C51.6186 22.2699 52.2304 22.373 52.8199 22.5719C53.0472 22.6489 53.2293 22.7259 53.3531 22.7832C53.4143 22.811 53.4624 22.8339 53.4988 22.8503L53.5323 22.8683H53.541L53.5629 22.8159L53.541 22.8683L53.5629 22.8159L53.541 22.8683L53.6634 22.5899L53.391 22.6423L53.6591 22.5965Z" fill="#231F20"/>
<path d="M47.1103 36.3148C47.5912 36.1825 48.0284 35.8984 48.3705 35.4961C48.7479 35.0648 49.0451 34.5532 49.2446 33.9913C49.5391 33.1552 49.7075 32.2698 49.7429 31.3715C49.7429 31.2519 49.7516 31.134 49.7516 31.0211C49.7683 30.1119 49.523 29.221 49.0523 28.4814C48.42 27.4989 47.4978 26.9619 46.7402 26.654C46.2961 26.4705 45.8354 26.342 45.3664 26.2709L45.3066 26.8882C46.0106 27.0012 46.6919 27.2505 47.3201 27.625C47.832 27.9246 48.2764 28.3513 48.6196 28.8727C49.0126 29.5007 49.2168 30.2534 49.2024 31.0211C49.2024 31.1226 49.2024 31.2257 49.1937 31.3322C49.1621 32.1612 49.008 32.9785 48.7376 33.7506C48.4011 34.6496 47.9597 35.131 47.6071 35.3995C47.4708 35.5035 47.3241 35.5893 47.17 35.655C47.1299 35.6716 47.0891 35.6858 47.0476 35.6975H47.02L47.0389 35.8056L47.0229 35.6959L47.0418 35.804L47.0258 35.6943L47.119 36.3083L47.1103 36.3148Z" fill="#231F20"/>
<path d="M52.4733 28.506C52.6992 28.2791 52.943 28.0758 53.2017 27.8985C53.4276 27.7405 53.6667 27.6078 53.9156 27.5023C54.1615 27.3974 54.4219 27.342 54.6848 27.3385C54.7851 27.3379 54.8852 27.3488 54.9835 27.3713L55.0971 26.7638C54.9615 26.732 54.8234 26.7161 54.6848 26.7163C54.3511 26.723 54.0211 26.7962 53.7102 26.9325C53.1179 27.2009 52.571 27.5814 52.093 28.0574L52.4689 28.5142L52.4733 28.506Z" fill="#231F20"/>
<path d="M48.2046 38.1373C48.6462 38.3 49.1078 38.384 49.5726 38.3862C49.953 38.391 50.331 38.3189 50.6886 38.1733C51.1031 37.9989 51.4673 37.7005 51.7419 37.3104L51.3049 36.924C51.093 37.2266 50.8106 37.4573 50.489 37.5904C50.1941 37.7112 49.8821 37.7705 49.5682 37.7656C49.2854 37.7636 49.0036 37.7273 48.7276 37.6575C48.6198 37.6297 48.5338 37.6035 48.4741 37.5822L48.4086 37.5593H48.3925L48.2046 38.1373Z" fill="#231F20"/>
<path d="M47.8998 31.2912C47.8617 31.4803 47.7748 31.6525 47.6498 31.7861C47.5248 31.9198 47.3675 32.0089 47.1975 32.0422C47.0276 32.0755 46.8527 32.0516 46.6949 31.9735C46.537 31.8953 46.4033 31.7664 46.3104 31.603C46.2176 31.4396 46.1699 31.249 46.1733 31.0552C46.1766 30.8613 46.231 30.673 46.3294 30.5138C46.4278 30.3545 46.566 30.2316 46.7264 30.1605C46.8869 30.0893 47.0625 30.0731 47.2311 30.1139C47.3441 30.1412 47.4511 30.1935 47.546 30.2676C47.641 30.3417 47.7218 30.4362 47.784 30.5457C47.8462 30.6552 47.8885 30.7775 47.9084 30.9054C47.9282 31.0334 47.9253 31.1645 47.8998 31.2912Z" fill="#231F20"/>
<path d="M54.596 30.6526C54.5579 30.8418 54.4708 31.014 54.3458 31.1476C54.2207 31.2812 54.0633 31.3702 53.8933 31.4034C53.7233 31.4366 53.5483 31.4125 53.3905 31.3342C53.2326 31.2559 53.099 31.1268 53.0063 30.9633C52.9136 30.7997 52.866 30.609 52.8696 30.4151C52.8731 30.2212 52.9277 30.0329 53.0263 29.8738C53.125 29.7147 53.2633 29.5919 53.4239 29.521C53.5845 29.4501 53.7602 29.4342 53.9288 29.4753C54.0416 29.5028 54.1485 29.5552 54.2433 29.6294C54.338 29.7036 54.4187 29.7982 54.4808 29.9076C54.5428 30.0171 54.585 30.1393 54.6047 30.2672C54.6245 30.395 54.6216 30.5261 54.596 30.6526Z" fill="#231F20"/>
</g>
<defs>
<clipPath id="clip0_2179_2090">
<rect width="127" height="96" fill="white" transform="translate(2 20)"/>
</clipPath>
</defs>
</svg>
