<svg width="130" height="130" viewBox="0 0 130 130" fill="none" xmlns="http://www.w3.org/2000/svg">
<g clip-path="url(#clip0_2179_1261)">
<path d="M81.3872 24.424H125.236V82.0683H80.3957L81.3872 24.424Z" fill="#EE4947"/>
<path d="M81.3872 24.424V25.1298H124.531V81.3624H81.1128L82.0927 24.4356L81.3872 24.424V25.1298V24.424L80.6817 24.4109L79.6785 82.7741H125.942V23.7181H80.6933L80.6817 24.4109L81.3872 24.424Z" fill="#231F20"/>
<path d="M107.544 40.7065C107.544 42.7172 106.948 44.6828 105.831 46.3547C104.715 48.0266 103.128 49.3296 101.271 50.0991C99.4141 50.8686 97.3709 51.0699 95.3996 50.6776C93.4284 50.2854 91.6177 49.3171 90.1965 47.8953C88.7753 46.4735 87.8075 44.662 87.4154 42.6898C87.0233 40.7177 87.2246 38.6736 87.9937 36.8159C88.7628 34.9582 90.0653 33.3704 91.7364 32.2533C93.4076 31.1362 95.3723 30.5399 97.3821 30.5399C100.077 30.5399 102.662 31.611 104.568 33.5176C106.473 35.4242 107.544 38.0101 107.544 40.7065Z" fill="white"/>
<path d="M107.544 40.7064H106.839C106.839 42.8965 106.079 45.0189 104.691 46.7118C103.302 48.4048 101.369 49.5636 99.2221 49.9908C97.075 50.418 94.8463 50.0872 92.9157 49.0548C90.985 48.0223 89.472 46.3521 88.6343 44.3287C87.7966 42.3052 87.6861 40.0538 88.3216 37.958C88.9571 35.8622 90.2993 34.0517 92.1195 32.835C93.9398 31.6182 96.1254 31.0706 98.3039 31.2853C100.483 31.5 102.519 32.4638 104.067 34.0125C104.947 34.8904 105.645 35.9338 106.121 37.0826C106.597 38.2314 106.84 39.463 106.839 40.7064H108.25C108.248 38.1903 107.375 35.7525 105.779 33.8082C104.182 31.864 101.962 30.5336 99.4948 30.0436C97.028 29.5537 94.4677 29.9345 92.25 31.1212C90.0324 32.3079 88.2945 34.2272 87.3326 36.552C86.3707 38.8767 86.2441 41.4633 86.9745 43.8709C87.7049 46.2786 89.247 48.3584 91.3382 49.7562C93.4294 51.1539 95.9403 51.7831 98.4432 51.5365C100.946 51.29 103.286 50.1829 105.065 48.4039C106.076 47.3942 106.879 46.1943 107.425 44.8733C107.972 43.5523 108.252 42.1361 108.25 40.7064H107.544Z" fill="white"/>
<path d="M94.3756 35.5186C94.3756 35.5186 95.701 34.9028 97.1179 35.1482C98.5348 35.3936 99.5858 36.0109 99.3666 37.8307C99.1474 39.6505 96.44 40.4188 96.1017 41.0361C95.7635 41.6533 95.0231 43.9016 96.379 44.086C97.7349 44.2705 97.3023 42.2677 97.7654 41.8668C98.2285 41.466 101.395 39.5852 101.395 37.4894C101.395 35.3936 100.502 33.5128 97.266 33.3284C94.0301 33.1439 93.1373 34.0371 93.1373 34.7154C93.1373 35.3936 93.6164 35.7756 94.3756 35.5186Z" fill="#231F20"/>
<path d="M94.3756 35.5186L94.4003 35.5709L94.441 35.5535C95.07 35.2945 95.7424 35.157 96.4226 35.1482C96.6522 35.1478 96.8815 35.1672 97.1078 35.2063C97.7494 35.3182 98.3083 35.5055 98.7046 35.8396C99.101 36.1736 99.3376 36.6543 99.3376 37.3762C99.3373 37.5257 99.3281 37.6751 99.31 37.8235C99.2499 38.2526 99.0617 38.6535 98.77 38.9738C98.3446 39.4705 97.7349 39.8583 97.1978 40.1792C96.9292 40.3404 96.6795 40.4842 96.4719 40.6149C96.3026 40.712 96.1564 40.8448 96.0437 41.0042C95.7346 41.6137 95.5589 42.2821 95.5283 42.9649C95.5179 43.2333 95.5795 43.4996 95.7069 43.7361C95.7778 43.8499 95.874 43.9458 95.9881 44.0164C96.1022 44.0869 96.231 44.1302 96.3645 44.1427C96.4232 44.1507 96.4824 44.1546 96.5416 44.1543C96.6693 44.1597 96.7964 44.1335 96.9116 44.078C97.0268 44.0225 97.1266 43.9395 97.2021 43.8363C97.4141 43.5458 97.4809 43.129 97.5404 42.7485C97.5709 42.5582 97.5984 42.3766 97.6376 42.2285C97.6599 42.1091 97.7152 41.9984 97.7973 41.909C97.9062 41.8146 98.1936 41.6185 98.5566 41.3542C99.2294 40.878 99.8507 40.3328 100.41 39.7275C100.991 39.0638 101.453 38.297 101.453 37.488C101.453 36.4321 101.229 35.4242 100.582 34.653C99.9342 33.8818 98.8905 33.3604 97.2616 33.2689C96.9713 33.2515 96.6926 33.2442 96.4356 33.2442C95.1465 33.2442 94.3118 33.4432 93.7921 33.7249C93.2723 34.0067 93.0662 34.3814 93.0662 34.714C93.0555 34.96 93.1344 35.2015 93.2883 35.3937C93.3669 35.4799 93.4633 35.548 93.5709 35.5931C93.6784 35.6383 93.7945 35.6594 93.9111 35.6551C94.0695 35.6524 94.2264 35.624 94.3756 35.5709L94.351 35.5186L94.3321 35.4634C94.1948 35.5117 94.0507 35.5377 93.9053 35.5404C93.8055 35.545 93.7059 35.5277 93.6136 35.4895C93.5213 35.4514 93.4385 35.3934 93.3711 35.3196C93.2357 35.1488 93.167 34.9346 93.178 34.7169C93.178 34.4337 93.3449 34.1011 93.8371 33.831C94.3292 33.5608 95.1436 33.3633 96.424 33.3633C96.6795 33.3633 96.9524 33.372 97.2442 33.388C98.8513 33.4809 99.8573 33.9907 100.48 34.7314C101.103 35.4721 101.318 36.451 101.318 37.4909C101.318 38.5076 100.54 39.4952 99.6918 40.2722C99.3025 40.6242 98.8945 40.9548 98.4695 41.2627C98.1065 41.527 97.8235 41.7187 97.7015 41.8233C97.569 41.9756 97.4873 42.1655 97.4678 42.3665C97.3996 42.7121 97.3647 43.1391 97.2413 43.4732C97.1917 43.6285 97.1038 43.7688 96.9858 43.8813C96.8569 43.9905 96.6915 44.0471 96.5227 44.0396C96.4688 44.0397 96.415 44.0363 96.3616 44.0294C96.2451 44.0196 96.1325 43.9825 96.0329 43.9212C95.9333 43.8599 95.8495 43.7761 95.7882 43.6765C95.6716 43.4591 95.6159 43.2142 95.627 42.9678C95.665 42.3025 95.8441 41.6529 96.1525 41.0623C96.2222 40.9301 96.4516 40.7645 96.755 40.5786C97.2108 40.2998 97.8336 39.9643 98.3664 39.5242C98.8992 39.0841 99.3419 38.5395 99.4247 37.8351C99.4432 37.6823 99.4529 37.5286 99.4537 37.3747C99.4537 36.6267 99.1997 36.1039 98.7787 35.7495C98.3577 35.3951 97.7785 35.2034 97.1281 35.0887C96.8949 35.0496 96.6589 35.0302 96.4226 35.0306C95.7102 35.0391 95.0064 35.1871 94.351 35.4663L94.3756 35.52L94.3568 35.4649L94.3756 35.5186Z" fill="#231F20"/>
<path d="M96.5532 45.9465C96.5532 45.9465 97.5796 46.07 97.5288 47.1288C97.4779 48.1875 96.604 48.0002 96.4704 48.0118C96.3369 48.0234 95.5675 48.0118 95.5573 47.0256C95.5472 46.0395 96.5532 45.9465 96.5532 45.9465Z" fill="#231F20"/>
<path d="M96.5532 45.9465V46.0046H96.5619C96.7407 46.0353 96.9109 46.1036 97.0613 46.2051C97.1972 46.2986 97.307 46.4254 97.3801 46.5734C97.4533 46.7213 97.4875 46.8855 97.4794 47.0503C97.4794 47.075 97.4794 47.0997 97.4794 47.1244H97.5375H97.4794C97.4591 47.5136 97.3343 47.7141 97.176 47.8244C97.0299 47.9191 96.8578 47.9658 96.6839 47.9581C96.6011 47.9581 96.5387 47.9508 96.4937 47.9508H96.4734V48.0089V47.9508H96.4313C96.2617 47.9506 96.096 47.9001 95.9551 47.8056C95.7824 47.6821 95.6285 47.4584 95.6227 47.0198V47.0169C95.6137 46.846 95.6529 46.676 95.7358 46.5263C95.8187 46.3766 95.942 46.2532 96.0916 46.1702C96.1947 46.1119 96.305 46.0674 96.4197 46.038L96.5271 46.0162H96.5561H96.5663V45.9582V46.0162V45.9582V45.9001C96.3827 45.9228 96.2055 45.9821 96.0451 46.0743C95.8745 46.1642 95.7324 46.3002 95.6352 46.4668C95.5379 46.6335 95.4893 46.824 95.4949 47.0169V47.0329C95.4949 47.4962 95.6721 47.7678 95.8782 47.9116C96.0383 48.0203 96.2276 48.078 96.4211 48.0771H96.4821C96.5126 48.0771 96.5852 48.0844 96.6723 48.0844C96.8707 48.0924 97.0667 48.0381 97.2326 47.929C97.4199 47.7954 97.5651 47.5514 97.584 47.1389C97.584 47.1128 97.584 47.0866 97.584 47.0605C97.5922 46.867 97.5487 46.6747 97.4578 46.5036C97.367 46.3326 97.2321 46.1889 97.0671 46.0874C96.9105 45.9909 96.7364 45.9262 96.5547 45.8972H96.5416L96.5532 45.9465Z" fill="#231F20"/>
<path d="M123.719 33.3052H109.173V34.9841H123.719V33.3052Z" fill="white"/>
<path d="M123.719 36.2723H109.173V37.9513H123.719V36.2723Z" fill="white"/>
<path d="M123.719 39.2395H109.173V40.9184H123.719V39.2395Z" fill="white"/>
<path d="M123.719 42.2067H109.173V43.8857H123.719V42.2067Z" fill="white"/>
<path d="M123.719 45.1739H109.173V46.8528H123.719V45.1739Z" fill="white"/>
<path d="M123.719 55.2591H85.677V56.6897H123.719V55.2591Z" fill="white"/>
<path d="M123.719 57.8022H85.677V59.2328H123.719V57.8022Z" fill="white"/>
<path d="M123.719 60.3453H85.677V61.7758H123.719V60.3453Z" fill="white"/>
<path d="M123.719 62.8884H85.677V64.3189H123.719V62.8884Z" fill="white"/>
<path d="M123.719 65.4314H85.677V66.862H123.719V65.4314Z" fill="white"/>
<path d="M123.719 67.9745H85.677V69.4051H123.719V67.9745Z" fill="white"/>
<path d="M123.719 70.5176H85.677V71.9482H123.719V70.5176Z" fill="white"/>
<path d="M123.719 73.0607H85.677V74.4912H123.719V73.0607Z" fill="white"/>
<path d="M123.719 75.6052H85.677V77.0358H123.719V75.6052Z" fill="white"/>
<path d="M123.719 78.1483H85.677V79.5789H123.719V78.1483Z" fill="white"/>
<path d="M98.9906 18.3691C89.2642 17.1956 76.6009 20.3632 73.4405 37.1336C70.2802 53.904 84.8887 62.4628 84.8887 62.4628L71.3878 86.0041C75.0534 87.4942 77.9437 88.341 77.9437 88.341L90.9104 65.5127C104.741 67.5054 117.519 60.9392 120.566 45.46C123.613 29.9807 108.719 19.5426 98.9906 18.3691ZM95.7083 59.6888C92.1375 59.689 88.6469 58.63 85.6778 56.6454C82.7087 54.6609 80.3945 51.8401 79.0279 48.5397C77.6613 45.2393 77.3037 41.6076 78.0002 38.1039C78.6968 34.6002 80.4162 31.3818 82.9411 28.8557C85.466 26.3297 88.683 24.6095 92.1852 23.9126C95.6873 23.2157 99.3174 23.5735 102.616 24.9408C105.915 26.308 108.735 28.6232 110.718 31.5936C112.702 34.5641 113.761 38.0563 113.76 41.6286C113.76 44.0003 113.293 46.3488 112.386 48.54C111.479 50.7311 110.149 52.722 108.473 54.3991C106.797 56.0761 104.807 57.4064 102.617 58.314C100.426 59.2216 98.0789 59.6888 95.7083 59.6888Z" fill="#231F20"/>
<path d="M8.6958 7.54468L8.79742 7.56211L8.74516 8.0501L8.6958 7.54468Z" fill="#231F20"/>
<path d="M13.0509 18.6204L12.9188 19.2725L12.942 18.6058H13.0015C13.0175 18.6131 13.0378 18.616 13.0509 18.6204Z" fill="#231F20"/>
<path d="M73.2446 104.507C73.2446 104.507 77.3093 49.9463 38.781 45.0388C-10.8835 38.8082 6.47173 104.507 6.47173 104.507H73.2446Z" fill="#2F3841"/>
<path d="M73.2446 104.507L73.8035 104.549C73.8035 104.538 73.9283 102.868 73.9283 100.091C73.9283 93.5085 73.2373 80.703 68.5251 68.9679C66.1675 63.1019 62.7995 57.4943 57.9857 53.0965C53.1718 48.6988 46.9135 45.5065 38.8521 44.4811C36.726 44.2075 34.585 44.0669 32.4414 44.0599C26.4211 44.0599 21.5419 45.2901 17.6238 47.4207C14.8097 48.9496 12.3392 51.0401 10.3652 53.5627C7.47488 57.23 5.62976 61.6626 4.50468 66.3537C3.37961 71.0448 2.97168 76.0003 2.97168 80.7321C2.97168 87.1021 3.7106 93.0771 4.44807 97.4575C5.18554 101.838 5.92446 104.638 5.92446 104.651L6.03479 105.068H73.7643L73.8035 104.549L73.2446 104.507V103.95H6.46594V104.512L7.00888 104.366L7.00017 104.337C6.83468 103.7 4.08804 92.913 4.09675 80.7364C4.09675 76.5856 4.41613 72.275 5.25812 68.1546C5.88962 65.064 6.81581 62.0794 8.11799 59.3489C10.0734 55.2504 12.868 51.7226 16.8036 49.21C20.7392 46.6974 25.8376 45.187 32.4414 45.1855C34.5384 45.1927 36.6329 45.3305 38.7128 45.598C46.552 46.6001 52.5751 49.6719 57.2308 53.9273C60.7221 57.1225 63.4441 60.9829 65.5636 65.1453C68.7428 71.3905 70.5575 78.2935 71.5737 84.5576C72.3945 89.697 72.8076 94.8933 72.8091 100.098C72.8091 101.47 72.7786 102.567 72.7481 103.319C72.7321 103.695 72.7176 103.984 72.706 104.18L72.6929 104.401C72.6929 104.424 72.6929 104.443 72.6929 104.455V104.472L73.2533 104.514L73.2446 104.507Z" fill="#231F20"/>
<path d="M43.0751 112.908C26.935 121.577 19.8057 120.242 17.1229 119.879C3.21411 117.991 3.66414 76.2704 3.66414 76.2704L30.0998 76.8906L32.7419 96.053L63.0245 81.1387C63.0245 81.1387 63.4121 72.869 71.4967 74.3794C79.5813 75.8899 88.7125 78.0771 88.1115 81.1373C87.5105 84.1974 84.3951 84.2119 84.3951 84.2119C84.3951 84.2119 87.0895 83.8822 86.4812 86.7143C85.873 89.5465 83.1699 90.1114 83.1699 90.1114C83.1699 90.1114 85.182 90.3641 84.9308 93.3211C84.6797 96.2781 81.8488 96.8925 81.8488 96.8925C81.8488 96.8925 71.2339 96.6093 69.2524 96.0429L43.0751 112.908Z" fill="white"/>
<path d="M43.0751 112.908L42.7775 112.354C37.0883 115.404 32.5401 117.208 28.9311 118.241C25.3222 119.273 22.6525 119.548 20.7057 119.548C20.0201 119.549 19.335 119.514 18.653 119.443C18.0723 119.385 17.6049 119.314 17.2013 119.259C16.4678 119.16 15.7568 118.935 15.0992 118.595C13.8609 117.962 12.7402 116.921 11.7385 115.545C9.98195 113.14 8.61009 109.727 7.57066 105.913C6.00862 100.189 5.1826 93.5681 4.75289 88.0491C4.32319 82.5301 4.28399 78.0902 4.28399 76.7207C4.28399 76.5754 4.28399 76.4665 4.28399 76.3924V76.2835L3.65685 76.2762L3.64234 76.9051L29.5437 77.5122L32.2308 97.0072L63.6357 81.5367L63.6531 81.1663L63.3845 81.1533L63.6531 81.1678L63.3845 81.1547L63.6531 81.1692C63.6784 80.8207 63.7269 80.4743 63.7983 80.1323C63.9104 79.576 64.0727 79.0311 64.2831 78.5042C64.4682 78.0384 64.7018 77.5935 64.98 77.1767C65.4253 76.4993 66.0216 75.9345 66.722 75.5268C67.4696 75.1013 68.4045 74.8253 69.6254 74.8239C70.2156 74.8275 70.8041 74.8858 71.3834 74.9981C73.336 75.3627 75.3466 75.7665 77.2614 76.2109C78.6972 76.5449 80.0777 76.9007 81.3393 77.2813C82.2843 77.5717 83.1612 77.8622 83.9393 78.1716C85.1079 78.6334 86.0559 79.1272 86.6685 79.6109C86.9247 79.8006 87.1474 80.0318 87.3276 80.2949C87.3884 80.385 87.4372 80.4827 87.4727 80.5854C87.5 80.6733 87.5127 80.765 87.5105 80.857C87.5099 80.9125 87.5046 80.9679 87.4945 81.0226C87.3999 81.5686 87.1614 82.0795 86.8035 82.5025C86.5857 82.7496 86.3275 82.9578 86.0399 83.1183C85.6818 83.3167 85.2941 83.456 84.8916 83.5308C84.7658 83.5549 84.6389 83.5724 84.5113 83.5831H84.4125H84.3922V84.2119L84.4692 84.8365L84.4358 84.5721L84.4648 84.8365L84.4314 84.5721L84.4605 84.8365C84.4605 84.8365 84.5316 84.8365 84.6361 84.8365C84.7778 84.8364 84.9193 84.8495 85.0586 84.8757C85.1756 84.8968 85.2896 84.9319 85.3983 84.9802C85.4735 85.0133 85.5442 85.0558 85.6088 85.1066C85.7054 85.1838 85.7816 85.2836 85.8309 85.3971C85.9059 85.5741 85.9416 85.7654 85.9354 85.9577C85.9326 86.1718 85.9073 86.385 85.8599 86.5938C85.7501 87.1296 85.5241 87.6348 85.1979 88.0738C84.8205 88.5671 84.3328 88.9651 83.7738 89.2357C83.5958 89.3229 83.412 89.3977 83.2236 89.4593L83.0784 89.5029L83.0436 89.5116L83.0944 89.7411L83.0465 89.5116L83.0973 89.7411L83.0494 89.5116L79.365 90.2828L83.0915 90.733L83.1394 90.3424L83.0828 90.733H83.0915L83.1394 90.3424L83.0828 90.733C83.1586 90.7482 83.2326 90.7716 83.3034 90.8028C83.4126 90.8481 83.5155 90.9072 83.6098 90.9785C83.8108 91.1313 83.9717 91.3307 84.0787 91.5594C84.2542 91.9568 84.3381 92.3887 84.324 92.823C84.324 92.9595 84.324 93.1135 84.3037 93.2587C84.2674 93.7982 84.0989 94.3204 83.813 94.7793C83.6362 95.0527 83.4188 95.2975 83.1684 95.5055C82.8625 95.7579 82.5198 95.9622 82.1522 96.1111C82.0417 96.1578 81.9288 96.1985 81.814 96.2331L81.7254 96.2578H81.708L81.7792 96.5715L81.7109 96.2564L81.7821 96.5701L81.7138 96.2549L81.8474 96.8693L81.8633 96.2418H81.7443C81.1636 96.2259 78.5099 96.1474 75.7778 96.0066C74.4117 95.9354 73.0195 95.8497 71.8727 95.7495C71.292 95.7001 70.7795 95.6449 70.3556 95.5883C70.1437 95.5607 69.955 95.5316 69.7967 95.5026C69.6385 95.4736 69.5064 95.4445 69.4236 95.4198L69.1493 95.3414L42.7354 112.373L43.0751 112.902L42.7775 112.349L43.0751 112.902L43.4163 113.431L69.592 96.5715L69.2523 96.0429L69.0738 96.6471C69.2486 96.6959 69.426 96.7351 69.6051 96.7647C69.9782 96.8315 70.4413 96.8911 70.9741 96.9463C72.8323 97.1394 75.5368 97.2817 77.7869 97.382C80.0371 97.4822 81.8242 97.5272 81.8256 97.5272H81.9011L81.9751 97.5112C82.1586 97.4679 82.3386 97.4111 82.5137 97.3413C83.1784 97.0887 83.7824 96.6987 84.2862 96.1968C84.6245 95.8551 84.9036 95.4595 85.1123 95.0262C85.3567 94.5084 85.5043 93.9502 85.5478 93.3792C85.5638 93.189 85.571 93.006 85.571 92.8317C85.5852 92.2364 85.4713 91.645 85.2371 91.0976C85.0983 90.7847 84.9056 90.4986 84.668 90.2523C84.4043 89.9821 84.0868 89.7703 83.7361 89.6307C83.5766 89.5623 83.4094 89.5135 83.2381 89.4855L83.1612 90.1085L83.3005 90.733C83.8869 90.5886 84.4435 90.3429 84.9453 90.0069C85.4323 89.6883 85.861 89.2884 86.2127 88.8246C86.6485 88.2403 86.9513 87.5676 87.0997 86.8538C87.1642 86.5579 87.1987 86.2562 87.2027 85.9533C87.2124 85.5165 87.1072 85.0848 86.8979 84.7014C86.7595 84.4604 86.5733 84.2503 86.3506 84.0841C86.0684 83.8789 85.7465 83.7349 85.4055 83.6615C85.1563 83.6055 84.9017 83.5778 84.6463 83.5787C84.5377 83.5785 84.4291 83.5838 84.3211 83.5947L84.4009 84.8481C84.6 84.843 84.7984 84.8236 84.9947 84.79C85.728 84.675 86.4261 84.3966 87.0372 83.9752C87.4444 83.6877 87.7948 83.3272 88.0709 82.9121C88.3976 82.4122 88.6216 81.8524 88.7299 81.2651C88.7565 81.1316 88.7701 80.996 88.7706 80.8599C88.7686 80.6 88.7195 80.3426 88.6254 80.1003C88.4367 79.6403 88.1429 79.2309 87.7675 78.905C87.0953 78.2892 86.1706 77.7649 85.0339 77.274C83.3397 76.5478 81.1985 75.8943 78.8699 75.3133C76.5414 74.7324 74.0285 74.2211 71.6114 73.7709C70.9559 73.6441 70.2901 73.5785 69.6225 73.5748C68.8531 73.5686 68.0871 73.6788 67.3506 73.9016C66.283 74.2306 65.3237 74.8411 64.5735 75.6691C64.0883 76.2098 63.683 76.8173 63.37 77.473C62.9929 78.2644 62.7192 79.101 62.5556 79.9623C62.479 80.3405 62.4276 80.7233 62.4017 81.1082L63.0289 81.1373L62.7472 80.5665L33.2456 95.0901L30.6485 76.2733L3.04278 75.6285L3.03552 76.2646C3.03552 76.2646 3.03552 76.4229 3.03552 76.7163C3.03552 78.9762 3.13279 89.3518 4.87629 99.4211C5.74732 104.461 7.02918 109.426 8.94108 113.298C9.90211 115.233 11.0228 116.9 12.3584 118.158C13.0044 118.776 13.7346 119.3 14.5273 119.713C15.3134 120.118 16.1627 120.387 17.0387 120.506C17.4205 120.559 17.917 120.634 18.5267 120.695C19.2502 120.77 19.977 120.807 20.7043 120.807C22.7701 120.807 25.5646 120.517 29.2694 119.455C32.9741 118.393 37.6109 116.559 43.3655 113.468L43.3872 113.455L43.409 113.442L43.0751 112.908Z" fill="#231F20"/>
<path d="M84.3951 83.5831H79.6785V84.8408H84.3951" fill="#231F20"/>
<path d="M83.1699 89.484H79.6785V90.7403H83.1699" fill="#231F20"/>
<path d="M56.0781 30.0417C55.7805 37.472 50.852 41.9801 47.3984 43.1261C44.3164 44.1427 39.8785 44.0265 38.9436 43.9975L38.7679 43.9888L38.7302 44.6539L38.376 45.7461L37.9797 46.2109C36.5465 47.1496 34.8474 47.5975 33.1379 47.4872C31.4284 47.377 29.8009 46.7145 28.5 45.5994L27.4838 44.728L27.3386 44.6946L27.0251 44.2066L26.9743 42.0978L27.1819 38.8445C27.0514 38.7628 26.9259 38.6736 26.8059 38.5773C25.5327 37.5853 21.3982 33.6392 20.6535 23.7777C19.903 13.8058 28.5058 9.64767 31.0478 8.64263C31.4833 8.46835 31.7431 8.38992 31.7431 8.38992L31.2481 7.91209L31.206 7.86852L29.5554 6.27092L31.6517 7.36746L32.9321 8.037L34.3257 5.37482L33.7247 7.6376L33.5491 8.29987V8.31294L34.2459 8.2839L40.2516 8.037C52.3095 8.59906 55.3494 16.5319 55.991 23.5961C56.2015 25.9432 56.1536 28.19 56.0781 30.0417Z" fill="white"/>
<path d="M56.0781 30.0417L55.3726 30.0127C55.2274 33.5768 53.9833 36.4133 52.3661 38.509C51.6174 39.4804 50.738 40.3435 49.753 41.0739C48.9699 41.6648 48.1002 42.1312 47.1748 42.4565C45.9974 42.8162 44.7852 43.0498 43.5586 43.1537C42.3144 43.2771 41.1226 43.3076 40.2443 43.3076C39.6506 43.3076 39.1991 43.2931 38.9683 43.2844L38.9421 43.9902L38.977 43.2858L38.8013 43.2757L38.1016 43.2408L38.029 44.516L37.7387 45.3874L37.4338 45.7447L37.9709 46.2036L37.5833 45.6125C36.2782 46.4676 34.7308 46.8757 33.1739 46.7754C31.617 46.6751 30.1347 46.0718 28.95 45.0563L27.7959 44.0658L27.7669 44.0585L27.7161 43.9801L27.6769 42.1123L27.9091 38.4553L27.5346 38.2345L27.3009 38.6354L27.5375 38.2374L27.3038 38.6383L27.5404 38.2403L27.5288 38.2592L27.5404 38.2403L27.5288 38.2592L27.5404 38.2403C27.5404 38.2403 27.4257 38.1692 27.2399 38.0239C26.6694 37.5795 25.3861 36.4263 24.1492 34.1694C22.9124 31.9124 21.7263 28.572 21.3605 23.724C21.3314 23.327 21.3169 22.9397 21.3169 22.5621C21.2985 20.6349 21.7153 18.7285 22.5364 16.985C23.0747 15.8655 23.7687 14.8279 24.5978 13.9031C25.6915 12.6918 26.9545 11.6449 28.3476 10.795C29.2906 10.2112 30.2824 9.71017 31.3119 9.29766C31.521 9.21488 31.685 9.15243 31.7954 9.11757L31.9188 9.07545L31.9478 9.06674L33.0946 8.71672L31.7431 7.40959L31.7068 7.37183L30.049 5.77423L29.5597 6.28111L29.2331 6.90708L31.3294 7.99344L32.6272 8.67315L32.6519 8.68331L33.2572 8.9549L34.9586 5.70452L34.333 5.37774L33.6521 5.19619L33.0511 7.45897L32.8754 8.11689L32.6011 9.05947L33.581 9.01881L34.2778 8.99121L40.2821 8.74431L40.2545 8.03846L40.2211 8.74431C43.1608 8.88083 45.5169 9.47049 47.4114 10.3521C48.729 10.961 49.9294 11.7967 50.9579 12.8211C52.4009 14.2633 53.3939 15.9931 54.0733 17.8593C54.7527 19.7256 55.1142 21.7212 55.2913 23.6688C55.4016 24.8888 55.4364 26.087 55.4364 27.2184C55.4364 28.2132 55.4074 29.1573 55.374 30.02L56.0796 30.049L56.7836 30.0752C56.817 29.2037 56.8475 28.2423 56.8475 27.2198C56.8475 26.0579 56.8083 24.8176 56.6922 23.5424C56.5408 21.6802 56.1839 19.8405 55.6281 18.0569C55.1934 16.6797 54.5824 15.3646 53.8105 14.1442C52.5596 12.1769 50.8225 10.5656 48.7673 9.46614C46.5476 8.26649 43.7589 7.504 40.2835 7.34278H40.253L34.2168 7.59114L33.52 7.61873L33.549 8.32458L34.227 8.52065V8.50903V8.50177L34.4055 7.83078L35.0065 5.568L36.6281 -0.531921L32.3064 7.72476L32.9306 8.05154L33.2209 7.40814L32.9306 8.05299L33.2572 7.42702L31.9768 6.75748L25.5472 3.39962L30.7109 8.38413L30.7487 8.42189L31.251 8.90553L31.7402 8.39865L31.5341 7.7233C31.5181 7.7233 31.2437 7.81335 30.785 7.9949C28.4266 8.9336 26.2671 10.3105 24.4207 12.0528C23.1132 13.2969 22.041 14.767 21.256 16.3925C20.3441 18.3249 19.8801 20.4383 19.8986 22.5752C19.8986 22.9867 19.9146 23.4078 19.9465 23.8387C20.3254 28.861 21.5739 32.4178 22.9109 34.8534C24.2479 37.289 25.6691 38.5962 26.3703 39.1422C26.5145 39.2592 26.6663 39.3664 26.8247 39.4632L27.1804 38.8547L26.4777 38.8097L26.2731 42.0789L26.3224 44.4027L26.9031 45.3003L27.1542 45.3583L28.0456 46.1237C29.4623 47.3385 31.235 48.0601 33.0969 48.18C34.9589 48.3 36.8094 47.8118 38.3702 46.7889L38.4544 46.7337L39.0075 46.086L39.4343 44.7789L39.4764 44.0222L38.7723 43.983L38.7331 44.6932L38.9102 44.7019H38.9174C39.1613 44.7121 39.6302 44.7266 40.2472 44.7266C41.1589 44.7266 42.3928 44.6946 43.7008 44.5654C45.0308 44.4523 46.3448 44.1972 47.6204 43.8043C48.6861 43.4322 49.688 42.8978 50.5906 42.2198C52.2876 40.9555 53.6981 39.3464 54.7295 37.4982C55.9947 35.2231 56.699 32.6787 56.7836 30.0766L56.0781 30.0417Z" fill="#231F20"/>
<path d="M32.1205 55.7645C32.1365 55.7645 32.1554 55.7645 32.1713 55.7747L32.0654 56.4326V55.7645H32.1249H32.1205Z" fill="#231F20"/>
<path d="M55.9896 23.5991C54.0457 21.0328 51.1525 17.4149 51.1525 17.4149C51.1525 17.4149 48.355 20.0292 43.5905 21.133C38.826 22.2368 34.4259 19.9043 34.4259 19.9043C34.9107 21.9899 32.9045 24.3775 32.9045 24.3775C32.9045 24.3775 25.958 21.0545 25.4267 27.6918C24.8954 34.3291 31.3584 33.0656 30.7893 33.8847C30.3887 34.4656 28.1037 37.0973 26.8117 38.5773C25.5371 37.5868 21.4011 33.6393 20.6579 23.7777C19.7781 12.0877 31.7475 8.38268 31.7475 8.38268L29.5583 6.27531L32.9364 8.03993L34.3286 5.37775L33.5476 8.31587L40.2501 8.04138C52.308 8.60054 55.3479 16.5348 55.9896 23.5991Z" fill="#231F20"/>
<path d="M27.7785 26.9308C28.0059 27.4146 28.299 27.8647 28.6495 28.2684C29.4655 29.2266 30.5002 29.9739 31.6662 30.4469L32.1743 29.2153C31.2083 28.823 30.3508 28.2038 29.6744 27.41C29.4793 27.1786 29.3045 26.9308 29.1518 26.6693C29.0981 26.5778 29.0604 26.5052 29.0371 26.4602C29.0255 26.437 29.0183 26.4195 29.0125 26.4108V26.4021L28.6118 26.5764L29.0139 26.405L28.6132 26.5793L29.0154 26.4079L27.7901 26.9337L27.7785 26.9308Z" fill="#231F20"/>
<path d="M37.1362 24.0246L36.9707 23.6339L37.1275 24.0246H37.1391L36.9707 23.6339L37.1275 24.0246L37.1101 23.981L37.1275 24.0246L37.1101 23.981L37.1275 24.0246C37.1376 24.0246 37.6559 23.8242 39.0408 23.7675C40.2385 23.7181 42.0822 23.7675 44.7998 24.1422L44.9783 22.8206C42.1997 22.443 40.2791 22.3849 38.9857 22.4342C37.3394 22.5025 36.7021 22.7552 36.6049 22.7973L37.1391 24.0202L37.1362 24.0246Z" fill="#231F20"/>
<path d="M55.7181 24.2381C55.1381 24.0115 54.5459 23.8175 53.9441 23.6572C52.9033 23.3783 51.5416 23.1038 50.1944 23.1575C49.6308 23.1746 49.0722 23.2679 48.5336 23.4349C48.1264 23.5638 47.7415 23.7549 47.3926 24.0014C46.8305 24.4038 46.3945 24.9579 46.1354 25.599C45.8329 26.385 45.7055 27.2276 45.7623 28.068C45.8059 29.0963 46.0352 30.2974 46.4882 31.7207L47.7584 31.3169C47.3316 29.9764 47.1298 28.8828 47.095 28.0142C47.0538 27.4252 47.1253 26.8337 47.3055 26.2714C47.4198 25.9199 47.6147 25.6 47.8746 25.3373C48.1344 25.0745 48.4521 24.8762 48.8022 24.758C49.2692 24.5942 49.7591 24.505 50.2539 24.4937C51.3804 24.4458 52.6405 24.6883 53.603 24.9498C54.085 25.079 54.4929 25.2126 54.7789 25.3128C54.9241 25.3637 55.0344 25.4058 55.1099 25.4348L55.1941 25.4668L55.2144 25.4755L55.7196 24.241L55.7181 24.2381Z" fill="#231F20"/>
<path d="M49.573 31.2312L49.949 31.3198L49.573 31.2283L49.949 31.3169L49.573 31.2254V31.2472C49.4598 31.6465 49.2797 32.0237 49.0402 32.3626C48.8733 32.5999 48.663 32.8034 48.4204 32.9624C48.1526 33.1318 47.8442 33.2261 47.5275 33.2355C47.4956 33.2355 47.4637 33.2355 47.4288 33.2355V34.5702H47.5856C48.1776 34.5486 48.7512 34.3587 49.2391 34.0227C49.7993 33.6191 50.2466 33.0785 50.5384 32.4527C50.6835 32.1606 50.7983 31.8545 50.881 31.5391L49.5832 31.2327L49.573 31.2312Z" fill="#231F20"/>
<path d="M52.7174 27.5016C52.7315 27.8431 52.644 28.1811 52.466 28.4728C52.288 28.7645 52.0274 28.9968 51.7173 29.1403C51.4073 29.2838 51.0616 29.332 50.7241 29.2788C50.3866 29.2255 50.0725 29.0733 49.8216 28.8414C49.5706 28.6095 49.3941 28.3083 49.3144 27.9759C49.2347 27.6436 49.2553 27.295 49.3737 26.9744C49.4921 26.6538 49.703 26.3755 49.9796 26.1749C50.2562 25.9743 50.5861 25.8603 50.9275 25.8473C51.3837 25.8308 51.8279 25.9954 52.1632 26.3054C52.4986 26.6153 52.6978 27.0453 52.7174 27.5016Z" fill="#231F20"/>
<path d="M42.2563 27.0746C42.2955 28.0273 41.4666 26.6984 40.5143 26.7376C39.562 26.7768 38.8463 28.1697 38.8071 27.2169C38.7975 26.9903 38.8327 26.7641 38.9106 26.5511C38.9884 26.3381 39.1075 26.1426 39.2609 25.9756C39.4143 25.8086 39.5991 25.6735 39.8046 25.578C40.0102 25.4825 40.2326 25.4284 40.4591 25.4189C40.6856 25.4093 40.9117 25.4445 41.1246 25.5224C41.3375 25.6003 41.533 25.7194 41.6999 25.8729C41.8668 26.0264 42.0018 26.2112 42.0973 26.4169C42.1927 26.6226 42.2468 26.8451 42.2563 27.0717V27.0746Z" fill="#231F20"/>
</g>
<defs>
<clipPath id="clip0_2179_1261">
<rect width="130" height="130" fill="white"/>
</clipPath>
</defs>
</svg>
