<svg width="130" height="130" viewBox="0 0 130 130" fill="none" xmlns="http://www.w3.org/2000/svg">
<g clip-path="url(#clip0_2262_1095)">
<path d="M19.9141 19.8839C19.9141 19.8839 23.4647 18.8129 26.9367 19.9433C30.4088 21.0736 32.8218 22.9971 31.6248 27.4845C30.4279 31.972 23.348 32.9284 22.2635 34.3557C21.179 35.7829 18.5198 41.1632 21.8602 42.1154C25.2007 43.0676 24.8314 37.8739 26.1451 37.0426C27.4588 36.2113 36.1028 32.6251 36.8563 27.3636C37.6097 22.1021 36.0434 17.0612 27.9788 15.4325C19.9141 13.8038 17.3483 15.7273 17.1042 17.4281C16.8602 19.1289 17.9171 20.2571 19.9141 19.8839Z" fill="#EE4947"/>
<path d="M100.669 55.7749L69.8492 74.1849C69.0943 77.7023 67.4499 80.9677 65.0729 83.6694C62.696 86.3712 59.6658 88.4192 56.2716 89.6179C52.8773 90.8167 49.2322 91.1262 45.6842 90.517C42.1362 89.9078 38.8036 88.4001 36.0045 86.1379C33.2054 83.8757 31.0332 80.9344 29.6952 77.5948C28.3571 74.2551 27.8979 70.6285 28.3613 67.0611C28.8247 63.4936 30.1953 60.1044 32.3423 57.2168C34.4893 54.3292 37.3411 52.0396 40.6254 50.5664C40.4938 45.4131 40.8928 40.3616 42.3359 36.5973C46.9095 24.6704 59.1783 20.2126 59.1783 20.2126L57.6163 18.7642L60.9632 20.2126L61.7442 17.5384L62.487 19.9899C62.487 19.9899 78.3637 15.9775 85.1656 21.8837C91.9675 27.7899 99.665 47.1839 100.669 55.7749Z" fill="#231F20"/>
<path d="M123.199 112.107C123.199 112.107 118.33 73.3217 115.559 67.636C112.787 61.9504 105.128 53.0922 95.1149 53.5926C85.102 54.0931 47.6905 62.1201 41.572 71.816C35.4534 81.5119 33.9211 94.0517 33.3651 112.11L123.199 112.107Z" fill="#2F3841"/>
<path d="M123.199 112.108L123.963 112.012C123.963 112.012 122.745 102.308 121.179 91.8886C120.395 86.6801 119.525 81.285 118.676 76.8315C118.252 74.6048 117.828 72.6113 117.424 70.9847C117.212 70.1725 117.025 69.4514 116.83 68.8322C116.671 68.3051 116.474 67.7899 116.242 67.2904C115.419 65.6419 114.435 64.0791 113.303 62.6248C111.294 59.9818 108.841 57.7071 106.053 55.9022C103.124 54.0508 99.699 52.7911 95.9192 52.7911C95.637 52.7911 95.3526 52.7911 95.0703 52.8123C93.7821 52.8759 92.0843 53.0604 90.0766 53.3488C83.0498 54.3583 72.2113 56.6656 62.417 59.7937C57.5188 61.3588 52.8858 63.1275 49.1103 65.0552C47.3755 65.9179 45.7182 66.9283 44.1569 68.0751C42.7668 69.1355 41.6569 70.2191 40.9141 71.394C37.7901 76.3459 35.8482 81.9976 34.6194 88.6757C33.3906 95.3539 32.8706 103.027 32.5905 112.072L32.5671 112.865H124.073L123.963 111.999L123.199 112.095V111.338H33.3566V112.108L34.127 112.131C34.405 103.12 34.9271 95.5045 36.1304 88.9663C37.3338 82.4281 39.2205 76.9715 42.215 72.2275C42.8963 71.1438 44.0763 70.0092 45.6531 68.9001C48.4121 66.9511 52.3637 65.07 56.8545 63.3671C63.5948 60.8095 71.5555 58.6337 78.6397 57.0622C82.1817 56.2775 85.5052 55.6413 88.347 55.1832C90.5953 54.7948 92.862 54.5209 95.1382 54.3625C95.3993 54.3498 95.6561 54.3434 95.9129 54.3434C98.1298 54.3546 100.321 54.8164 102.354 55.7007C105.349 56.9731 107.987 59.0345 110.119 61.2867C112.015 63.2733 113.61 65.5268 114.852 67.9754C115.05 68.4064 115.217 68.8507 115.353 69.3051C115.695 70.3846 116.068 71.8797 116.452 73.6526C117.125 76.7615 117.836 80.7294 118.524 84.9284C119.555 91.2291 120.531 98.0493 121.251 103.294C121.609 105.915 121.904 108.144 122.1 109.715L122.337 111.55C122.39 111.974 122.42 112.203 122.42 112.203L123.184 112.108H123.199Z" fill="#231F20"/>
<path d="M87.1372 64.5695C85.8973 66.5025 84.1124 68.0255 82.0076 68.9463C79.9028 69.8672 77.5723 70.1448 75.3098 69.7441C74.446 69.585 73.8688 69.3729 73.8391 69.1079C73.6799 67.6552 73.3806 66.0625 72.8416 65.9713C71.8377 65.8038 61.2964 69.1524 56.4449 61.6238C51.5933 54.0953 50.4218 46.5795 51.258 42.7325C51.258 42.7325 62.9688 39.0552 67.1518 28.5237C67.1518 28.5237 71.8378 40.3997 77.5255 39.5514C80.537 37.2186 85.3779 36.3703 87.3962 39.5514C89.4145 42.7325 87.3962 48.5793 87.3962 48.5793L88.2875 62.7881L87.1372 64.5695Z" fill="white"/>
<path d="M87.1373 64.5695L86.5133 64.1666C85.5269 65.6992 84.173 66.9614 82.5745 67.8384C80.976 68.7154 79.1835 69.1795 77.3599 69.1884C76.7192 69.1881 76.0799 69.1292 75.4499 69.0124C75.1443 68.965 74.8442 68.8869 74.5543 68.7791C74.5224 68.7668 74.4912 68.7526 74.4609 68.7367H74.4461L74.2911 68.9488L74.5034 68.8003C74.4886 68.7774 74.4699 68.7573 74.4482 68.741L74.2933 68.953L74.5055 68.8046L74.0959 69.0951L74.5925 69.0421C74.5837 68.9569 74.5538 68.8753 74.5055 68.8046L74.0959 69.0951L74.5925 69.0421C74.5216 68.302 74.3954 67.5683 74.2147 66.8472C74.134 66.5313 74.015 66.2265 73.8603 65.9395C73.7785 65.7906 73.6732 65.656 73.5483 65.5408C73.4747 65.4711 73.3919 65.4119 73.3021 65.3648C73.2007 65.3104 73.091 65.2732 72.9774 65.2545C72.9074 65.2424 72.8363 65.2367 72.7652 65.2375C72.6232 65.2397 72.4815 65.2503 72.3408 65.2693C72.0818 65.3011 71.772 65.352 71.3985 65.4114C69.888 65.6767 68.3585 65.8186 66.825 65.8356C65.1271 65.8356 63.2744 65.6235 61.5681 64.93C59.7143 64.207 58.1402 62.9112 57.0752 61.2315C55.3223 58.5312 53.9431 55.6064 52.975 52.5365C52.1261 49.8051 51.7589 47.3196 51.7589 45.3388C51.7502 44.5165 51.8277 43.6956 51.9902 42.8894L51.2644 42.7303L51.4766 43.4387C53.7884 42.6324 55.9917 41.544 58.0366 40.1982C60.021 38.9258 61.8383 37.4105 63.4463 35.6874C65.3236 33.6805 66.813 31.3437 67.8394 28.7951L67.1539 28.5173L66.4642 28.7887C67.2752 30.7584 68.2551 32.6543 69.3929 34.4553C70.3012 35.8741 71.3879 37.3077 72.6379 38.4168C73.242 38.9661 73.9207 39.4274 74.654 39.7868C75.3686 40.1392 76.1535 40.3262 76.9503 40.3339C77.179 40.3346 77.4074 40.3183 77.6337 40.2852L77.829 40.2576L77.9839 40.1367C78.755 39.544 79.6115 39.0713 80.5243 38.7349C81.3965 38.4026 82.3201 38.2254 83.2535 38.2111C83.957 38.2005 84.6541 38.3453 85.2951 38.6352C85.9076 38.9221 86.4236 39.3803 86.7807 39.9543C87.069 40.4262 87.2716 40.9453 87.3792 41.4876C87.5032 42.0868 87.5629 42.6975 87.5575 43.3093C87.5419 44.4805 87.3996 45.6466 87.133 46.7873C87.0248 47.2602 86.9208 47.6546 86.838 47.9282C86.7977 48.0639 86.7637 48.17 86.7425 48.2421L86.7149 48.3206V48.3396L86.6661 48.4796L87.5278 62.5909L86.5091 64.1666L87.133 64.5695L87.757 64.9724L89.0303 62.9853L88.122 48.5326L87.3813 48.5793L88.0838 48.8189C88.0838 48.7998 88.3215 48.1276 88.5528 47.1075C88.8441 45.8597 88.9993 44.5841 89.0155 43.3029C89.0219 42.5841 88.9507 41.8667 88.8033 41.1631C88.658 40.4525 88.3894 39.7728 88.0095 39.1548C87.5032 38.3431 86.7728 37.695 85.9063 37.2886C85.0668 36.9061 84.1527 36.7149 83.2302 36.7287C82.1216 36.7418 81.024 36.9492 79.9873 37.3416C78.9332 37.7311 77.9443 38.2781 77.0543 38.964L77.5106 39.5514L77.4024 38.8155C77.2471 38.8383 77.0903 38.8497 76.9334 38.8494C76.3569 38.8411 75.7897 38.7034 75.2737 38.4465C74.2954 37.9863 73.3085 37.1274 72.4108 36.0819C71.0568 34.5147 69.9001 32.5424 69.0937 30.9731C68.6883 30.1863 68.37 29.5013 68.1556 29.0135C68.0474 28.7697 67.9646 28.5746 67.9094 28.4431C67.8818 28.3773 67.8606 28.3264 67.8479 28.2925L67.833 28.2543V28.2437L67.1539 26.509L66.462 28.2543C65.5028 30.6331 64.1112 32.8138 62.3576 34.6865C60.1891 36.9825 57.6493 38.8974 54.8447 40.3509C53.9475 40.8221 53.0267 41.2468 52.0857 41.6233C51.7483 41.7591 51.4809 41.8566 51.2984 41.9223L51.0861 41.9923L51.0352 42.0093H51.0225L51.0734 42.1662L51.0225 42.0093L51.0734 42.1662L51.0225 42.0093L50.6108 42.1387L50.5195 42.5628C50.3347 43.47 50.2458 44.394 50.2542 45.3197C50.2542 47.4786 50.649 50.0977 51.5276 52.9543C52.5373 56.1492 53.9743 59.1931 55.7997 62.0034C57.0328 63.941 58.8498 65.4373 60.9887 66.2767C62.9369 67.0571 64.9701 67.2883 66.7974 67.2883C68.1062 67.2797 69.4127 67.1762 70.7066 66.9786C71.2372 66.9023 71.6935 66.8259 72.0479 66.7666C72.224 66.739 72.3768 66.7178 72.4957 66.7029C72.6145 66.6881 72.7079 66.6817 72.727 66.6817V66.4357L72.6867 66.6775H72.7206V66.4315L72.6803 66.6733L72.7482 66.2618L72.553 66.6308C72.5928 66.6519 72.6358 66.6663 72.6803 66.6733L72.7482 66.2618L72.553 66.6308L72.6888 66.3742L72.4936 66.5863C72.5115 66.6017 72.5315 66.6145 72.553 66.6245L72.6888 66.3679L72.4936 66.5799L72.5763 66.4866L72.4872 66.5714L72.57 66.4781L72.4808 66.563L72.4914 66.5524L72.4787 66.563L72.4893 66.5524L72.4766 66.563C72.5328 66.6431 72.5772 66.731 72.6082 66.8238C72.7228 67.1524 72.8094 67.4901 72.8671 67.8333C72.9435 68.2405 73.005 68.6943 73.0538 69.1375C73.0695 69.2886 73.1204 69.4338 73.2024 69.5617C73.3083 69.7231 73.4499 69.8581 73.6162 69.9561C73.8316 70.0808 74.062 70.1777 74.3017 70.2445C74.5739 70.324 74.8502 70.3884 75.1294 70.4375C75.8498 70.5698 76.5808 70.6365 77.3132 70.6369C79.3846 70.6272 81.4207 70.1008 83.2367 69.1053C85.0528 68.1098 86.5912 66.6768 87.7124 64.9364L87.1373 64.5695Z" fill="#231F20"/>
<path d="M51.5849 46.2804L51.396 46.1256L51.5849 46.2826L51.396 46.1278L51.5849 46.2847C52.0193 45.7881 52.5116 45.3453 53.0513 44.9656C53.5385 44.6122 54.0674 44.3202 54.6261 44.0961C55.2333 43.8509 55.8812 43.7221 56.5361 43.7165C57.39 43.7238 58.2273 43.9526 58.9661 44.3803C59.5692 44.7062 60.0996 45.1512 60.5254 45.6882C60.9511 46.2251 61.2632 46.8429 61.4428 47.5041C61.6354 48.1901 61.7304 48.8997 61.7251 49.6121C61.7234 50.173 61.6744 50.7327 61.5787 51.2853C61.5405 51.4974 61.5044 51.6607 61.4789 51.771C61.4662 51.8261 61.4556 51.8685 61.4471 51.894V51.9237L61.5893 51.964L61.4471 51.9237L61.5893 51.964L61.4471 51.9237L62.8733 52.3372C63.1054 51.446 63.2216 50.5287 63.2192 49.6079C63.2359 48.4375 63.0098 47.2764 62.5549 46.1977C62.2842 45.5797 61.919 45.0073 61.4725 44.5012C60.9646 43.9334 60.3639 43.4559 59.6962 43.0888C58.7357 42.5392 57.6493 42.2469 56.5425 42.2405C55.6894 42.247 54.8454 42.4154 54.0552 42.7367C53.1 43.1317 52.216 43.6805 51.4384 44.3612C51.0812 44.6641 50.749 44.9953 50.4452 45.3516L51.5849 46.2804Z" fill="#231F20"/>
<path d="M64.6326 43.2308L64.2082 43.0739L64.6326 43.2351L64.2082 43.0782L64.6326 43.2393C64.8744 42.6963 65.2238 42.2079 65.6598 41.8036C66.0597 41.4271 66.5241 41.1254 67.0308 40.9129C67.7102 40.6362 68.4385 40.4992 69.1722 40.51C70.1719 40.527 71.1626 40.7024 72.1073 41.0295L72.5678 39.6171C71.4743 39.242 70.3282 39.0423 69.1722 39.0255C68.2006 39.0138 67.2374 39.2067 66.3453 39.5917C65.3874 40.0165 64.5555 40.6812 63.9301 41.5216C63.6461 41.8899 63.4133 42.2952 63.2383 42.7261L64.6305 43.2414L64.6326 43.2308Z" fill="#231F20"/>
<path d="M83.0031 41.1419L83.1665 41.1907L83.0052 41.1419L83.1686 41.1907L83.0073 41.1419C82.8385 41.6542 82.6254 42.1509 82.3707 42.6264C82.1582 43.0289 81.9027 43.4071 81.6088 43.7547C81.3452 44.0751 81.0197 44.3391 80.6516 44.5308L81.2883 45.869C81.8485 45.5851 82.3441 45.1887 82.7442 44.7047C83.2625 44.077 83.691 43.3804 84.0176 42.6349C84.1767 42.2857 84.3148 41.9274 84.4314 41.5618L83.0095 41.1377L83.0031 41.1419Z" fill="#231F20"/>
<path d="M59.5986 53.9829C59.8806 54.3751 60.2281 54.7158 60.6258 54.9902C61.0165 55.2693 61.4453 55.4907 61.8992 55.6477C62.4798 55.846 63.0895 55.9456 63.7031 55.9424C64.5684 55.9313 65.4251 55.7699 66.235 55.4653L65.7299 54.0783C65.0812 54.3242 64.3947 54.4555 63.701 54.4664C63.2535 54.4707 62.8086 54.399 62.3852 54.2543C61.9415 54.1016 61.5331 53.8614 61.184 53.5481C61.0847 53.4579 60.9912 53.3615 60.9038 53.2597L60.8444 53.1834V53.1707L60.4412 53.4442L60.8486 53.1749L60.4454 53.4485L60.8529 53.1791L59.6135 53.9977L59.5986 53.9829Z" fill="#231F20"/>
<path d="M73.0835 66.6669C74.1436 66.285 75.1797 65.8395 76.1863 65.333C77.0584 64.8997 77.8951 64.3983 78.6884 63.8337C79.4716 63.3012 80.144 62.622 80.6685 61.8338L79.3951 61.0619C78.9713 61.6815 78.4333 62.2148 77.8098 62.6333C76.7389 63.3777 75.5964 64.0135 74.3993 64.5314C73.8751 64.7647 73.4209 64.9555 73.0984 65.0722L72.7227 65.2143L72.623 65.2482H72.5996L73.0856 66.6521L73.0835 66.6669Z" fill="#231F20"/>
<path d="M9.88148 7.76628L15.3042 14.5035L17.9876 12.3444L12.5648 5.6071" fill="#EE4947"/>
<path d="M36.6059 4.42596L32.3295 13.6193L35.4556 15.072L39.7298 5.87654" fill="#EE4947"/>
<path d="M58.5481 48.1636C58.5481 48.5215 58.4419 48.8713 58.2429 49.1689C58.0438 49.4664 57.761 49.6983 57.4301 49.8351C57.0992 49.972 56.7351 50.0077 56.3838 49.9377C56.0326 49.8677 55.7101 49.6952 55.457 49.442C55.2039 49.1888 55.0316 48.8663 54.962 48.5153C54.8924 48.1642 54.9286 47.8004 55.0659 47.4699C55.2032 47.1394 55.4356 46.857 55.7336 46.6585C56.0316 46.46 56.3818 46.3543 56.7399 46.3547C56.9776 46.3544 57.2131 46.401 57.4327 46.4918C57.6523 46.5827 57.8519 46.716 58.0199 46.884C58.1879 47.0521 58.321 47.2516 58.4116 47.4712C58.5023 47.6908 58.5487 47.9261 58.5481 48.1636Z" fill="#231F20"/>
<path d="M69.6476 45.2158C69.6476 46.0493 68.9728 44.5796 68.1366 44.5796C67.3004 44.5796 66.6276 46.045 66.6276 45.2158C66.62 45.0129 66.6534 44.8105 66.7259 44.6208C66.7984 44.4311 66.9084 44.258 67.0493 44.1117C67.1903 43.9655 67.3593 43.8492 67.5463 43.7697C67.7333 43.6902 67.9344 43.6493 68.1376 43.6493C68.3408 43.6493 68.542 43.6902 68.729 43.7697C68.916 43.8492 69.085 43.9655 69.226 44.1117C69.3669 44.258 69.4769 44.4311 69.5494 44.6208C69.6218 44.8105 69.6553 45.0129 69.6476 45.2158Z" fill="white"/>
<path d="M69.6476 45.2158H69.187C69.1887 45.2363 69.1887 45.2569 69.187 45.2773L69.3229 45.2985L69.1934 45.254V45.2773L69.3292 45.2985L69.1998 45.254L69.5266 45.3664L69.2995 45.1119C69.2542 45.1496 69.2198 45.1986 69.1998 45.254L69.5266 45.3664L69.2995 45.1119L69.5627 45.4088L69.4269 45.0356C69.3796 45.052 69.3363 45.078 69.2995 45.1119L69.5627 45.4088L69.4269 45.0356L69.5627 45.4046V45.0101C69.5162 45.0099 69.4701 45.0185 69.4269 45.0356L69.5627 45.4046V45.3537L69.6922 45.0356C69.6513 45.0181 69.6071 45.0094 69.5627 45.0101V45.3537L69.6922 45.0356L69.6306 45.1883L69.7219 45.0483L69.6922 45.0356L69.6306 45.1883L69.7219 45.0483L69.6688 45.0059C69.6136 44.9592 69.5372 44.8808 69.4438 44.7938C69.2852 44.6362 69.1118 44.4941 68.926 44.3697C68.8152 44.2991 68.6971 44.2408 68.5737 44.1958C68.4377 44.1461 68.2941 44.1203 68.1493 44.1194C67.9051 44.1242 67.6666 44.1929 67.4574 44.3188C67.2118 44.4691 66.9858 44.6493 66.7846 44.8553C66.704 44.9338 66.6339 44.9995 66.5979 45.0292L66.5767 45.0441L66.6679 45.1819L66.6064 45.0292L66.5767 45.0441L66.6679 45.1819L66.6064 45.0292L66.7358 45.3494V45.0059C66.6916 45.0054 66.6476 45.0133 66.6064 45.0292L66.7358 45.3494V45.4046L66.9884 45.0971C66.9167 45.0393 66.8278 45.0072 66.7358 45.0059V45.4046L66.9884 45.0971L66.7549 45.3791L67.0839 45.2158C67.0606 45.1701 67.0281 45.1296 66.9884 45.0971L66.7549 45.3791L67.0839 45.2158L66.8462 45.3346L67.103 45.2625C67.0977 45.2465 67.0913 45.2309 67.0839 45.2158L66.8462 45.3346L67.103 45.2625L66.9947 45.2922L67.1051 45.2731V45.2625L66.9969 45.2922L67.1072 45.2731C67.105 45.2519 67.105 45.2306 67.1072 45.2095C67.1067 45.0716 67.1334 44.9351 67.1858 44.8076C67.2383 44.6801 67.3155 44.5642 67.4129 44.4667C67.5103 44.3691 67.6261 44.2918 67.7536 44.2391C67.8811 44.1864 68.0177 44.1594 68.1556 44.1597C68.4352 44.1597 68.7035 44.27 68.9022 44.4665C69.1009 44.6631 69.214 44.9301 69.2168 45.2095H70.1378C70.121 44.6984 69.9061 44.2139 69.5384 43.8583C69.1706 43.5028 68.679 43.304 68.1673 43.304C67.6556 43.304 67.1639 43.5028 66.7962 43.8583C66.4285 44.2139 66.2135 44.6984 66.1968 45.2095C66.1935 45.2674 66.1935 45.3254 66.1968 45.3834C66.2076 45.4911 66.2432 45.5949 66.3007 45.6866C66.347 45.7576 66.4096 45.8165 66.4833 45.8584C66.5627 45.902 66.6516 45.9253 66.7422 45.9263C66.8151 45.9249 66.8871 45.9098 66.9544 45.8817C67.0315 45.8482 67.1031 45.8031 67.1666 45.7481C67.2643 45.6718 67.347 45.5891 67.4362 45.5043C67.5611 45.3782 67.6967 45.2633 67.8415 45.1607C67.8973 45.1219 67.9571 45.0892 68.0198 45.0631C68.0611 45.0467 68.1048 45.0374 68.1493 45.0356C68.2347 45.0417 68.3173 45.0694 68.3891 45.1162C68.5672 45.2299 68.731 45.3644 68.8772 45.517C68.9578 45.5933 69.0342 45.6697 69.1213 45.729C69.1697 45.7695 69.2215 45.8057 69.2762 45.8372C69.365 45.8874 69.465 45.9143 69.5669 45.9157C69.6887 45.9156 69.8067 45.8728 69.9001 45.7948C69.9594 45.7459 70.0079 45.6853 70.0423 45.6166C70.0744 45.5495 70.0966 45.4781 70.1081 45.4046C70.1177 45.3393 70.122 45.2733 70.1208 45.2074L69.6476 45.2158Z" fill="#231F20"/>
<path d="M61.4471 112.211L64.9594 87.2739L63.4887 87.066L59.9763 112.004" fill="#231F20"/>
<path d="M102.908 112.004L99.3935 87.066L97.9227 87.2739L101.435 112.211" fill="#231F20"/>
<path d="M49.3396 123.36C58.1109 122.471 63.4145 113.234 59.7536 105.217C52.472 89.2822 38.8682 61.1891 38.1169 60.2878C36.937 58.869 29.7764 58.0059 28.9148 56.5807C28.0531 55.1556 23.0976 42.917 19.1098 45.8945C19.1098 45.8945 18.4031 43.6316 15.937 45.0653C13.4709 46.4989 14.1968 47.5974 14.1968 47.5974C14.1968 47.5974 9.21577 47.6631 9.64022 52.8631C9.64022 52.8631 3.63842 54.0571 6.60961 60.7352C6.60961 60.7352 9.36857 66.1494 14.1522 66.9362C14.1522 66.9362 7.63255 68.3168 11.4527 70.6623C15.2728 73.0078 23.8383 74.6175 23.8383 74.6175L35.5469 113.67C36.2956 116.673 38.1022 119.305 40.6354 121.085C43.1686 122.864 46.2588 123.672 49.3396 123.36Z" fill="white"/>
<path d="M49.3396 123.36L49.4138 124.098C52.8338 123.765 55.9979 122.141 58.2616 119.558C60.4497 117.068 61.6606 113.871 61.67 110.557C61.6675 108.608 61.244 106.681 60.4285 104.91C56.7845 96.9317 51.5616 85.9231 47.1557 76.7912C44.9528 72.2253 42.9536 68.1302 41.4553 65.1167C40.7083 63.6089 40.0843 62.3746 39.6238 61.4818C39.3925 61.0364 39.1993 60.6759 39.055 60.4087C38.9807 60.273 38.9171 60.1627 38.8619 60.0694L38.7834 59.9421C38.7558 59.9018 38.7303 59.8637 38.69 59.8128C38.5658 59.6663 38.4231 59.5366 38.2655 59.4268C37.9531 59.2124 37.6187 59.0318 37.2681 58.8881C36.5306 58.5894 35.7767 58.3331 35.01 58.1204C33.7748 57.762 32.4399 57.4185 31.3766 57.0601C30.9238 56.9184 30.4819 56.744 30.0544 56.5384C29.9209 56.472 29.7931 56.3947 29.6724 56.3072C29.6393 56.282 29.6081 56.2543 29.579 56.2245L29.5515 56.1927C29.5217 56.1418 29.4644 56.0379 29.3965 55.9043C29.2671 55.6498 29.0888 55.2829 28.8744 54.8439C28.5009 54.0699 28.0107 53.0647 27.4419 51.9916C26.593 50.3819 25.5467 48.6218 24.3986 47.2221C23.87 46.554 23.2548 45.9593 22.5692 45.4534C22.2524 45.2273 21.9088 45.0414 21.5462 44.8999C21.1895 44.7617 20.8104 44.6898 20.4278 44.6878C20.1185 44.6882 19.8114 44.7405 19.5194 44.8426C19.2144 44.9504 18.928 45.1049 18.6705 45.3007L19.1162 45.8966L19.8251 45.674C19.7133 45.3497 19.5468 45.047 19.3327 44.779C19.1311 44.5218 18.8817 44.3058 18.5984 44.1428C18.2419 43.9434 17.8396 43.8403 17.4311 43.8438C16.7707 43.867 16.1283 44.0653 15.5699 44.4185C14.9025 44.7741 14.3147 45.2619 13.8424 45.8521C13.6827 46.0634 13.5568 46.298 13.4688 46.5477C13.3982 46.7524 13.3616 46.9673 13.3606 47.1839C13.3597 47.3722 13.3906 47.5593 13.4519 47.7374C13.4852 47.8316 13.5286 47.9219 13.5813 48.0067L14.2031 47.5974L14.1925 46.8552C13.9112 46.8657 13.631 46.8969 13.3542 46.9485C12.9119 47.0279 12.4788 47.1522 12.0618 47.3196C11.6716 47.4754 11.3006 47.6753 10.9561 47.9156C10.344 48.3403 9.84265 48.9053 9.49381 49.5633C9.07239 50.3975 8.8625 51.3224 8.88259 52.2567C8.88259 52.4687 8.88259 52.6935 8.91018 52.9226L9.65085 52.8632L9.50654 52.1358C9.26464 52.1889 9.02701 52.2597 8.79558 52.3479C7.93046 52.6527 7.14242 53.1427 6.48654 53.7836C6.05776 54.211 5.71231 54.7144 5.46785 55.2681C5.18198 55.9316 5.03743 56.6473 5.04339 57.3697C5.04339 58.4301 5.3108 59.6346 5.93262 61.0322V61.047L5.94323 61.0682C6.52231 62.1346 7.22232 63.1309 8.02944 64.0373C8.76842 64.8819 9.61293 65.6281 10.5422 66.2576C11.5899 66.9715 12.7779 67.4537 14.027 67.6722L14.148 66.9405L13.993 66.2131C13.2877 66.3732 12.5953 66.5859 11.9217 66.8493C11.3807 67.0538 10.8696 67.3298 10.4021 67.67C10.1659 67.847 9.96078 68.062 9.79517 68.3063C9.60995 68.5803 9.50888 68.9024 9.50442 69.233C9.50588 69.4394 9.5462 69.6438 9.62327 69.8353C9.75001 70.1316 9.93639 70.3987 10.1708 70.62C10.4424 70.8808 10.7429 71.1099 11.0664 71.3028C12.2361 71.9816 13.4702 72.5428 14.7507 72.9782C16.7203 73.6638 18.7252 74.2436 20.7567 74.7151C22.48 75.1265 23.6961 75.3513 23.7046 75.3513L23.8425 74.6218L23.1294 74.8338L34.8359 113.883L35.5469 113.671L34.8253 113.851C35.5591 116.796 37.2573 119.412 39.65 121.283C42.0427 123.153 44.9924 124.17 48.0301 124.172C48.4923 124.172 48.9541 124.149 49.4138 124.102L49.3396 123.364L49.2653 122.626C48.8507 122.666 48.439 122.686 48.0301 122.688C45.3241 122.686 42.6964 121.78 40.5651 120.113C38.4338 118.447 36.9214 116.117 36.2685 113.492V113.475L24.424 73.9728L23.9783 73.888H23.9571C23.7152 73.8413 21.5632 73.4257 19.0271 72.7407C17.7537 72.3992 16.3955 71.9921 15.1306 71.5319C13.9897 71.1398 12.8895 70.6384 11.8453 70.0346C11.5703 69.88 11.3228 69.6808 11.1131 69.4451C11.072 69.3966 11.0384 69.3423 11.0134 69.2839C11.0063 69.2654 11.0013 69.2462 10.9985 69.2266C11.0031 69.1862 11.0193 69.1479 11.0452 69.1164C11.1078 69.0264 11.1837 68.9463 11.2702 68.8788C11.5224 68.6853 11.7967 68.5223 12.0872 68.3932C12.5686 68.1771 13.0651 67.9963 13.5728 67.8524C13.7851 67.7909 13.9761 67.7443 14.1055 67.7124L14.2541 67.6764H14.2923L18.1548 66.8599L14.2604 66.2237C13.2191 66.0389 12.2293 65.634 11.3572 65.0361C10.1835 64.226 9.15644 63.2219 8.32019 62.0671C7.96789 61.5942 7.69836 61.1743 7.52009 60.8774C7.43096 60.7289 7.36304 60.6102 7.31847 60.5317C7.29725 60.4914 7.28027 60.4617 7.27178 60.4426L7.25905 60.4214L7.18265 60.4617L7.25905 60.4214L7.18265 60.4617L7.25905 60.4214L6.59902 60.7607L7.27815 60.4575C6.71999 59.2063 6.51625 58.1989 6.51625 57.3994C6.4984 56.8615 6.60631 56.3269 6.83141 55.8381C7.0565 55.3492 7.39259 54.9195 7.81297 54.5831C8.2178 54.2574 8.67106 53.997 9.15636 53.8111C9.34949 53.7369 9.51079 53.686 9.62114 53.6542L9.74636 53.6224H9.77395L9.7124 53.3255L9.77182 53.6224L9.71028 53.3255L9.7697 53.6224L10.417 53.493L10.3639 52.8335C10.3491 52.6426 10.3406 52.4602 10.3406 52.2885C10.309 51.4926 10.5159 50.7054 10.9348 50.0278C11.1787 49.6583 11.4967 49.3435 11.8686 49.1032C12.3499 48.7945 12.8847 48.5787 13.4455 48.4669C13.6283 48.4275 13.8133 48.3985 13.9994 48.38L14.148 48.3694H14.1862V48.0916V48.3694V48.0916V48.3694L15.5444 48.3524L14.7974 47.22L14.4175 47.4702L14.8228 47.2581L14.7974 47.2157L14.4175 47.466L14.8228 47.2539L14.7337 47.2921L14.8419 47.2496L14.7337 47.2921L14.8419 47.2496C14.8394 47.2306 14.8394 47.2114 14.8419 47.1924C14.843 47.141 14.8523 47.0902 14.8695 47.0418C14.947 46.851 15.0634 46.6784 15.2112 46.535C15.5383 46.212 15.909 45.9364 16.3127 45.7164C16.6445 45.4954 17.0289 45.3659 17.4269 45.341C17.5803 45.3375 17.7319 45.3748 17.8662 45.4492C17.9543 45.4991 18.0338 45.5629 18.1018 45.6379C18.1975 45.7413 18.2783 45.8577 18.3416 45.9836C18.3671 46.0345 18.384 46.0769 18.3946 46.1023V46.1278L18.8085 45.9921L18.384 46.1214L18.7979 45.9857L18.3734 46.1151L18.6854 47.116L19.5343 46.4798C19.6716 46.3753 19.824 46.2924 19.9863 46.2338C20.1229 46.1865 20.2663 46.1621 20.4108 46.1617C20.7727 46.1783 21.1236 46.2911 21.4274 46.4883C21.8149 46.726 22.1713 47.011 22.4885 47.3366C23.2053 48.082 23.8452 48.8977 24.3986 49.7712C25.2948 51.171 26.1097 52.6211 26.8392 54.1144C27.1745 54.7824 27.4631 55.3868 27.6881 55.8682C27.8041 56.1114 27.9081 56.3235 28.0001 56.5045C28.0913 56.6868 28.1677 56.831 28.242 56.9541C28.3468 57.1217 28.4779 57.2714 28.6304 57.3973C28.9169 57.628 29.2331 57.8191 29.5706 57.9656C30.2944 58.2744 31.0382 58.5344 31.7968 58.7439C33.0129 59.1045 34.3563 59.448 35.462 59.8043C35.9448 59.9524 36.4182 60.1294 36.8797 60.3345C37.0374 60.4064 37.1899 60.4893 37.336 60.5826C37.4151 60.6295 37.4867 60.6881 37.5482 60.7565L37.7604 60.5741L37.527 60.7395L37.5397 60.7565L37.7519 60.5741L37.5185 60.7395C37.5185 60.7395 37.5588 60.7989 37.6055 60.8795C37.6989 61.0407 37.8432 61.3036 38.0299 61.6536C38.7197 62.9663 39.9761 65.4709 41.5678 68.7156C46.3408 78.4369 54.1487 94.758 59.0638 105.521C59.8651 107.273 60.2367 109.191 60.1479 111.115C60.0591 113.04 59.5125 114.916 58.5533 116.587C57.5942 118.258 56.2501 119.677 54.6326 120.725C53.0151 121.774 51.1708 122.422 49.2526 122.616L49.3396 123.36Z" fill="#231F20"/>
<path d="M17.8195 66.3128H17.7707L17.6264 66.3276C17.1637 66.3743 15.9286 66.493 14.6552 66.5566C14.0185 66.5885 13.3818 66.6075 12.8343 66.5969C12.5605 66.5969 12.3101 66.58 12.1021 66.5609C11.9428 66.5487 11.7846 66.5247 11.6288 66.4888L11.2468 67.9224C11.4822 67.9816 11.7222 68.0207 11.9642 68.039C12.4774 68.0801 12.9924 68.0943 13.5071 68.0814C15.1815 68.056 17.1468 67.8694 17.7749 67.8036L17.9744 67.7824L17.8174 66.2979L17.8195 66.3128Z" fill="#231F20"/>
<path d="M8.90161 52.8864C8.90161 52.9013 8.90161 53.1345 8.95043 53.5226C9.13652 55.3084 9.58712 57.0565 10.2875 58.7099C10.7749 59.8575 11.4254 60.9289 12.2187 61.891C13.1083 62.9646 14.2083 63.8451 15.451 64.4783L16.1216 63.1528C15.0599 62.6114 14.1208 61.8578 13.3626 60.9388C12.3495 59.6813 11.5898 58.2395 11.1258 56.6931C10.7865 55.6139 10.5561 54.5035 10.4381 53.3784C10.419 53.2003 10.4084 53.0624 10.4021 52.9691C10.4021 52.9246 10.4021 52.8885 10.4021 52.8673V52.8376H10.3235H10.4021H10.3235H10.4021L8.91647 52.8864H8.90161Z" fill="#231F20"/>
<path d="M13.4603 47.6462C13.4603 47.6462 13.4603 47.7904 13.4943 48.0343C13.7453 50.3566 14.293 52.6373 15.1242 54.8206C15.7256 56.4177 16.5424 57.9254 17.5521 59.3016C18.6397 60.7914 20.0435 62.0225 21.6629 62.9069L22.3633 61.5963C20.9358 60.8158 19.6987 59.7295 18.7406 58.4152C17.3017 56.5065 16.3848 54.214 15.8203 52.2312C15.4136 50.8125 15.1296 49.3615 14.9714 47.8943C14.9587 47.7819 14.9523 47.6971 14.948 47.6419C14.9438 47.5868 14.948 47.5932 14.948 47.5783V47.5613L13.4625 47.6568L13.4603 47.6462Z" fill="#231F20"/>
<path d="M18.3669 45.9433C18.3669 45.9433 18.3797 46.1235 18.4115 46.4247C18.625 48.4877 19.0459 50.5239 19.6679 52.5026C20.0903 53.8568 20.6663 55.1582 21.3848 56.3814C22.0967 57.6199 23.0674 58.6904 24.2308 59.5201L25.067 58.2922C24.0804 57.5834 23.2581 56.6706 22.6561 55.6159C21.665 53.9744 20.9986 51.9915 20.5741 50.242C20.2584 48.9359 20.0294 47.6104 19.8886 46.2741C19.8738 46.1341 19.8653 46.0238 19.8589 45.9517C19.8589 45.9136 19.8589 45.886 19.8589 45.869V45.8457L18.3733 45.9433H18.3669Z" fill="#231F20"/>
</g>
<defs>
<clipPath id="clip0_2262_1095">
<rect width="125.851" height="130" fill="white" transform="translate(2)"/>
</clipPath>
</defs>
</svg>
