<svg width="130" height="130" viewBox="0 0 130 130" fill="none" xmlns="http://www.w3.org/2000/svg">
<path d="M123.931 28.2243H22.5988C21.0034 28.2243 19.71 29.5364 19.71 31.155V93.3375C19.71 94.9561 21.0034 96.2683 22.5988 96.2683H123.931C125.526 96.2683 126.82 94.9561 126.82 93.3375V31.155C126.82 29.5364 125.526 28.2243 123.931 28.2243Z" fill="#231F20"/>
<path d="M121.398 33.9103V90.3469C121.398 91.0513 121.122 91.7268 120.631 92.2249C120.14 92.7229 119.474 93.0028 118.78 93.0028H26.7977C26.1034 93.0028 25.4375 92.7229 24.9466 92.2249C24.4556 91.7268 24.1798 91.0513 24.1798 90.3469V33.9103C24.1798 33.2059 24.4556 32.5304 24.9466 32.0323C25.4375 31.5343 26.1034 31.2545 26.7977 31.2545H118.776C119.12 31.2539 119.461 31.3222 119.779 31.4555C120.097 31.5887 120.386 31.7843 120.629 32.0309C120.873 32.2776 121.066 32.5705 121.198 32.893C121.33 33.2155 121.398 33.5612 121.398 33.9103Z" fill="#F6F8FA"/>
<path d="M29.0742 31.3649V93.1278H25.7023C25.008 93.1278 24.3421 92.848 23.8511 92.3499C23.3602 91.8518 23.0844 91.1763 23.0844 90.4719V34.0353C23.0844 33.3309 23.3602 32.6554 23.8511 32.1574C24.3421 31.6593 25.008 31.3795 25.7023 31.3795L29.0742 31.3649Z" fill="#808285"/>
<path d="M30.6475 37.9714H59.4027H121.875V37.0418H59.4027H30.6475V37.9714Z" fill="#231F20"/>
<path d="M58.9446 37.5065V93.1277H59.8609V37.5065" fill="#231F20"/>
<path d="M92.1021 37.5065V93.1277H93.0183V37.5065" fill="#231F20"/>
<path d="M52.5238 35.901H36.6317C36.3946 35.901 36.1672 35.8054 35.9995 35.6353C35.8319 35.4652 35.7377 35.2346 35.7377 34.994C35.7377 34.7535 35.8319 34.5228 35.9995 34.3527C36.1672 34.1826 36.3946 34.087 36.6317 34.087H52.5238C52.7609 34.087 52.9883 34.1826 53.1559 34.3527C53.3236 34.5228 53.4178 34.7535 53.4178 34.994C53.4178 35.2346 53.3236 35.4652 53.1559 35.6353C52.9883 35.8054 52.7609 35.901 52.5238 35.901Z" fill="white"/>
<path d="M84.2074 35.901H68.318C68.0809 35.901 67.8535 35.8054 67.6858 35.6353C67.5181 35.4652 67.424 35.2346 67.424 34.994C67.424 34.7535 67.5181 34.5228 67.6858 34.3527C67.8535 34.1826 68.0809 34.087 68.318 34.087H84.2074C84.4445 34.087 84.6719 34.1826 84.8396 34.3527C85.0073 34.5228 85.1015 34.7535 85.1015 34.994C85.1015 35.2346 85.0073 35.4652 84.8396 35.6353C84.6719 35.8054 84.4445 35.901 84.2074 35.901Z" fill="white"/>
<path d="M114.883 35.901H98.9919C98.7548 35.901 98.5274 35.8054 98.3597 35.6353C98.1921 35.4652 98.0979 35.2346 98.0979 34.994C98.0979 34.7535 98.1921 34.5228 98.3597 34.3527C98.5274 34.1826 98.7548 34.087 98.9919 34.087H114.883C115.12 34.087 115.347 34.1826 115.515 34.3527C115.683 34.5228 115.777 34.7535 115.777 34.994C115.777 35.2346 115.683 35.4652 115.515 35.6353C115.347 35.8054 115.12 35.901 114.883 35.901Z" fill="white"/>
<path d="M35.0507 40.2512C35.0507 40.2512 35.4172 45.6956 34.408 47.0913L42.7094 47.6955V40.2512H35.0507Z" fill="#FFD37A"/>
<path d="M35.0504 40.2511L34.5923 40.283V40.2936C34.5988 40.3972 34.6551 41.3081 34.6551 42.4382C34.6619 43.3054 34.6182 44.1723 34.5242 45.0343C34.4826 45.4057 34.4148 45.7736 34.3213 46.1351C34.265 46.3767 34.1689 46.607 34.0373 46.8163L33.5477 47.4936L43.166 48.1947V39.7823H34.5596L34.5923 40.279L35.0504 40.2471V40.7119H42.2497V47.1921L34.4391 46.6238L34.4064 47.0872L34.7755 47.3621C34.9748 47.0629 35.1201 46.7302 35.2049 46.3795C35.3607 45.753 35.4597 45.1134 35.5007 44.4686C35.5544 43.782 35.5714 43.0729 35.5714 42.4342C35.5714 41.1966 35.5059 40.2232 35.5059 40.2153L35.0491 40.2471L35.0504 40.2511Z" fill="#231F20"/>
<path d="M45.9192 47.6954H53.074C53.074 47.6954 52.7991 53.3722 54.4497 54.7214C54.4497 54.7214 49.956 55.9311 45.9192 55.0003V47.6954Z" fill="#FFD37A"/>
<path d="M45.9192 47.6955V48.1603H53.074V47.6955L52.6158 47.6729C52.6158 47.6729 52.5988 48.0407 52.5988 48.6025C52.5916 49.7327 52.6712 50.8617 52.8371 51.9794C52.9264 52.5797 53.0759 53.1693 53.2834 53.7389C53.3799 53.9995 53.5023 54.2495 53.6486 54.4851C53.7874 54.7106 53.9611 54.912 54.163 55.0814L54.4497 54.7202L54.3319 54.27C52.6782 54.6729 50.9839 54.8797 49.2832 54.8862C48.1869 54.8952 47.0929 54.7812 46.0213 54.5462L45.9192 54.999H46.3773V47.6955H45.9192H45.4611V55.3709L45.8184 55.4532C46.9565 55.7042 48.1186 55.8262 49.2832 55.817C51.0656 55.8108 52.8412 55.5938 54.574 55.1703L55.4484 54.9353L54.7442 54.359C54.6191 54.2522 54.5117 54.1258 54.4261 53.9845C54.2205 53.6344 54.0657 53.2561 53.9667 52.8611C53.7794 52.1283 53.6576 51.3799 53.6028 50.6249C53.5373 49.8627 53.5216 49.1376 53.5216 48.6038C53.5216 48.3316 53.5216 48.1085 53.5295 47.9544C53.5295 47.8774 53.5295 47.8216 53.5295 47.7778C53.5295 47.7579 53.5295 47.742 53.5295 47.7327V47.7181L53.5531 47.2307H45.4611V47.6955H45.9192Z" fill="#231F20"/>
<path d="M51.2396 59.3733H43.6267V66.957H51.2396V59.3733Z" fill="#EE4947"/>
<path d="M43.6267 59.3734H43.1686V67.4219H51.6965V58.9086H43.1686V59.3734H43.6267V59.8382H50.7802V66.4924H44.0849V59.3734H43.6267V59.8382V59.3734Z" fill="#231F20"/>
<path d="M46.0918 73.9365L44.4752 80.5655C44.4752 80.5655 45.6782 82.2055 52.4599 82.3104L53.3539 74.809L46.0918 73.9365Z" fill="#EE4947"/>
<path d="M46.0915 73.9368L45.6465 73.8252L43.9775 80.668L44.1084 80.8433C44.2199 80.9838 44.3524 81.1056 44.5011 81.2045C44.886 81.478 45.5902 81.8499 46.8376 82.1646C48.0851 82.4793 49.8757 82.7356 52.4439 82.7754H52.8562L53.855 74.3949L45.7394 73.4202L45.6425 73.8186L46.0876 73.9302L46.0339 74.3909L52.8405 75.2089L52.0015 82.2469L52.4557 82.3027L52.4622 81.8379C49.11 81.7875 47.1635 81.3545 46.081 80.9548C45.7114 80.8283 45.3594 80.6538 45.0339 80.4356C44.9726 80.3925 44.9144 80.345 44.8598 80.2935L44.8362 80.2696L44.649 80.4303L44.8454 80.2816L44.8362 80.2696L44.649 80.4303L44.8454 80.2816L44.4789 80.5591L44.9226 80.6707L46.5352 74.043L46.0915 73.9315L46.0378 74.3923L46.0915 73.9368Z" fill="#231F20"/>
<path d="M39.3152 77.3785L40.1411 84.9158L32.8489 85.6143L32.1604 78.1235L39.3152 77.3785Z" fill="white"/>
<path d="M39.3155 77.3786L38.86 77.4304L39.6349 84.4976L33.2629 85.1084L32.6594 78.5392L39.3626 77.842L39.3155 77.3786L38.86 77.4304L39.3155 77.3786L39.2684 76.9165L31.6633 77.7079L32.4356 86.1203L40.648 85.3342L39.72 76.87L39.2684 76.9165L39.3155 77.3786Z" fill="#231F20"/>
<path d="M71.3733 47.1377L78.5268 46.5441L79.1812 54.1159L71.8196 54.7095L71.3733 47.1377Z" fill="#FFD37A"/>
<path d="M71.3729 47.138L71.4095 47.6015L78.1101 47.0451L78.6834 53.69L72.2486 54.2092L71.8297 47.1101L71.3729 47.138L71.4095 47.6015L71.3729 47.138L70.9147 47.1659L71.3899 55.2105L79.6769 54.5425L78.9426 46.0438L70.8885 46.7118L70.9147 47.1659L71.3729 47.138Z" fill="#231F20"/>
<path d="M80.7977 42.2868L81.6224 49.8241L89.018 49.1269L88.2274 41.5538L80.7977 42.2868Z" fill="#FFD37A"/>
<path d="M80.7978 42.2867L80.3423 42.3385L81.2167 50.3286L89.522 49.5451L88.6346 41.0464L80.2913 41.8697L80.3423 42.3385L80.7978 42.2867L80.841 42.7501L87.8191 42.0609L88.5128 48.7072L82.0283 49.3193L81.252 42.2362L80.7978 42.2867L80.841 42.7501L80.7978 42.2867Z" fill="#231F20"/>
<path d="M82.7922 56.4185L81.7594 63.9213C81.7594 63.9213 88.1916 65.8401 89.8435 64.5148L90.0831 57.3959L82.7922 56.4185Z" fill="#FFD37A"/>
<path d="M82.7924 56.4186L82.3381 56.3549L81.2517 64.2547L81.6313 64.3676C81.6313 64.3676 82.5345 64.6331 83.7518 64.9054C84.3605 65.0381 85.049 65.1709 85.7493 65.2758C86.4353 65.3812 87.1276 65.438 87.8214 65.4458C88.2487 65.4518 88.6755 65.4131 89.095 65.3303C89.4705 65.2625 89.8257 65.1081 90.133 64.8788L90.2992 64.746L90.561 56.991L82.4062 55.8981L82.3434 56.3549L82.7976 56.4186L82.7374 56.8794L89.6173 57.8023L89.3921 64.499L89.8503 64.5149L89.5649 64.1498C89.3691 64.287 89.1455 64.3777 88.9104 64.4154C88.5534 64.485 88.1902 64.517 87.8266 64.511C87.1779 64.5038 86.5306 64.4502 85.8894 64.3503C84.8828 64.2042 83.8814 63.9838 83.1405 63.8005C82.7662 63.7076 82.456 63.6252 82.24 63.5655L81.9913 63.4951L81.9258 63.4765L81.9049 63.4699L81.774 63.9161L82.2282 63.9798L83.24 56.4837L82.7871 56.4186L82.7269 56.8794L82.7924 56.4186Z" fill="#231F20"/>
<path d="M68.5183 79.4873L75.8786 78.7197L76.7045 86.2597C76.7045 86.2597 69.3744 87.0963 69.3744 86.9568C69.3744 86.8174 68.5183 79.4873 68.5183 79.4873Z" fill="#EE4947"/>
<path d="M68.5184 79.4874L68.5642 79.9495L75.4729 79.2218L76.2491 86.301L76.7047 86.2505L76.6523 85.7884L76.3827 85.8189C75.7805 85.8867 74.2582 86.058 72.783 86.2107C72.0461 86.2877 71.3209 86.3594 70.7293 86.4125C70.4334 86.4391 70.1716 86.4617 69.9596 86.4763C69.7475 86.4909 69.5839 86.4988 69.5014 86.4988H69.4609L69.4504 86.6396L69.4687 86.5068H69.4609L69.4504 86.6476L69.4687 86.5148L69.4242 86.8335L69.4962 86.5201H69.4687L69.4242 86.8388L69.4962 86.5254L69.402 86.9384L69.6114 86.5719C69.5757 86.5503 69.5368 86.5346 69.4962 86.5254L69.402 86.9384L69.6114 86.5719L69.3863 86.9702L69.7397 86.6901C69.7035 86.6443 69.6591 86.606 69.6088 86.5772L69.3836 86.9756L69.7371 86.6954L69.3797 86.9795L69.8038 86.8175C69.7873 86.7738 69.7649 86.7327 69.7371 86.6954L69.3797 86.9795L69.8038 86.8175L69.3784 86.9795H69.8326C69.8332 86.9242 69.8234 86.8692 69.8038 86.8175L69.3784 86.9795H69.8326V86.9238C69.8326 86.8999 69.8326 86.8853 69.8326 86.86C69.8235 86.7724 69.8051 86.5944 69.7776 86.3475C69.5839 84.6132 68.9753 79.4316 68.9753 79.4303L68.521 79.4861L68.5669 79.9482L68.521 79.4861L68.0655 79.5405C68.0655 79.5405 68.0786 79.6547 68.1022 79.8553C68.1846 80.5577 68.3901 82.3159 68.576 83.9121C68.6676 84.7088 68.7553 85.4684 68.8195 86.0367C68.8522 86.3196 68.8784 86.5533 68.8967 86.7206C68.9059 86.8043 68.9124 86.8707 68.9177 86.9171C68.9177 86.9397 68.9177 86.957 68.9177 86.9689V86.9769L69.2384 86.9543H68.9163V86.9769L69.237 86.9543H68.915C68.9152 87.0339 68.9355 87.112 68.9739 87.1814C68.9987 87.2315 69.0325 87.2765 69.0734 87.3142C69.1123 87.3494 69.1565 87.3781 69.2043 87.3992C69.2403 87.4132 69.2775 87.4235 69.3156 87.4297C69.3463 87.4349 69.3774 87.438 69.4085 87.439H69.4923C69.6376 87.439 69.8431 87.4271 70.1114 87.4071C71.0434 87.3381 72.6966 87.1668 74.1234 87.0088C75.5502 86.8507 76.7413 86.7179 76.7413 86.7179L77.1955 86.6662L76.2688 78.21L67.9935 79.0731L68.0485 79.5419L68.5184 79.4874Z" fill="#231F20"/>
<path d="M82.8264 82.6252H75.5001L75.2252 90.197L82.5855 89.8823L82.8264 82.6252Z" fill="#EE4947"/>
<path d="M82.8264 82.6254V82.1606H75.059L74.7488 90.6818L83.0293 90.3286L83.3002 82.1606H82.8264V82.6254L82.3682 82.6094L82.1418 89.4363L75.7004 89.7111L75.9412 83.0901H82.8264V82.6254L82.3682 82.6094L82.8264 82.6254Z" fill="#231F20"/>
<path d="M95.3126 41.5538C95.3126 41.5538 95.4147 48.1495 94.7275 49.5452C94.7275 49.5452 102.398 50.3818 103.67 48.4988L102.81 41.5538H95.3126Z" fill="#EE4947"/>
<path d="M95.3123 41.5539L94.8542 41.5619V41.6243C94.8542 41.7464 94.8542 42.0465 94.8542 42.4622C94.8542 43.3917 94.8385 44.8817 94.7587 46.2707C94.7181 46.9638 94.6605 47.6318 94.5833 48.1815C94.5453 48.4551 94.5008 48.6994 94.4524 48.8999C94.4206 49.0502 94.3732 49.1967 94.311 49.3368L94.0165 49.9357L94.671 50.0074C94.6814 50.0074 96.3909 50.1947 98.3504 50.1947C99.4564 50.2099 100.561 50.1263 101.653 49.945C102.129 49.8633 102.595 49.726 103.04 49.536C103.239 49.4488 103.428 49.3402 103.603 49.212C103.773 49.0873 103.921 48.9347 104.042 48.7605L104.14 48.6158L103.208 41.0891H94.8464L94.8542 41.5619L95.3123 41.5539V42.0187H102.406L103.216 48.556L103.67 48.4989L103.292 48.2333C103.229 48.3212 103.153 48.398 103.065 48.4604C102.825 48.6262 102.56 48.7517 102.28 48.8322C101.689 49.0073 101.081 49.1208 100.467 49.1708C99.7851 49.2386 99.0534 49.2625 98.3518 49.2625C97.4001 49.2625 96.5022 49.2173 95.8438 49.1708C95.5152 49.1483 95.2456 49.1257 95.0584 49.1084L94.8437 49.0885L94.7888 49.0819H94.7704L94.722 49.544L95.1317 49.7511C95.2249 49.5479 95.2965 49.3351 95.3451 49.1164C95.4547 48.6222 95.533 48.1215 95.5794 47.6172C95.6645 46.762 95.7103 45.782 95.7417 44.8617C95.7731 43.9415 95.7757 43.081 95.7757 42.4715C95.7757 41.9111 95.7757 41.5579 95.7757 41.5565H95.3176L95.3123 41.5539Z" fill="#231F20"/>
<path d="M95.0719 62.766L102.604 62.2468L102.914 69.8186L95.5876 70.3072L95.0719 62.9094V62.766Z" fill="#FFD37A"/>
<path d="M95.0719 62.7659L95.102 63.2307L102.166 62.742L102.437 69.3843L96.0117 69.8132L95.53 62.8921V62.7659H95.0719L95.102 63.2307L95.0719 62.7659H94.6138V62.9093V62.9266L95.1622 70.8012L103.39 70.2527L103.042 61.7501L94.6138 62.3317V62.7659H95.0719Z" fill="#231F20"/>
<path d="M100.266 80.2177L107.66 80.6705C107.66 80.6705 107.488 85.9397 108.589 87.0219C108.589 87.0219 104.978 89.3245 99.8873 87.0219L100.266 80.2177Z" fill="#FFD37A"/>
<path d="M100.266 80.2175L100.237 80.681L107.633 81.1351L107.66 80.6703L107.202 80.6557C107.202 80.6557 107.193 80.9625 107.193 81.4392C107.188 82.4749 107.241 83.5101 107.35 84.5399C107.408 85.0813 107.508 85.6172 107.648 86.1427C107.712 86.371 107.795 86.5932 107.897 86.8067C107.99 87.0079 108.116 87.1916 108.27 87.3498L108.59 87.0165L108.345 86.6181C107.996 86.8178 107.629 86.9815 107.248 87.1068C106.333 87.4228 105.373 87.5851 104.406 87.5875C102.91 87.5741 101.433 87.2387 100.073 86.6035L99.8876 87.0284L100.344 87.0537L100.723 80.2494L100.266 80.2242L100.237 80.6876L100.266 80.2242L99.8077 80.1976L99.415 87.3219L99.7043 87.4547C101.183 88.1441 102.789 88.5063 104.417 88.517C105.508 88.5226 106.593 88.3431 107.626 87.9859C108.05 87.8428 108.458 87.6559 108.843 87.4281L109.338 87.1134L108.918 86.7004C108.84 86.6164 108.777 86.52 108.73 86.4149C108.586 86.0903 108.482 85.7492 108.419 85.3991C108.291 84.7133 108.209 84.0194 108.173 83.3222C108.13 82.6118 108.12 81.9385 108.12 81.4525C108.12 81.2214 108.12 81.0315 108.12 80.9014C108.12 80.835 108.12 80.7846 108.12 80.75C108.12 80.7328 108.12 80.7208 108.12 80.7115V80.6823L108.134 80.2295L99.8352 79.7209L99.809 80.187L100.266 80.2175Z" fill="#231F20"/>
<path d="M37.2678 41.5538H35.7377V42.9322H37.2678V41.5538Z" fill="#231F20"/>
<path d="M37.2 44.8166H35.6698V46.195H37.2V44.8166Z" fill="#231F20"/>
<path d="M41.2251 41.6416H37.5613V41.8859H41.2251V41.6416Z" fill="#231F20"/>
<path d="M51.7664 48.7191H46.8827V49.0564H51.7664V48.7191Z" fill="#231F20"/>
<path d="M49.9862 60.8154H44.5436V61.0942H49.9862V60.8154Z" fill="#231F20"/>
<path d="M49.9862 61.8165H44.5436V62.0954H49.9862V61.8165Z" fill="#231F20"/>
<path d="M49.9862 64.9915H44.5436V65.2704H49.9862V64.9915Z" fill="#231F20"/>
<path d="M38.2266 79.1181L32.809 79.6473L32.8353 79.9249L38.2529 79.3957L38.2266 79.1181Z" fill="#231F20"/>
<path d="M38.2266 80.1187L32.809 80.6479L32.8353 80.9255L38.2529 80.3963L38.2266 80.1187Z" fill="#231F20"/>
<path d="M47.6131 62.4871H44.5436V62.766H47.6131V62.4871Z" fill="#231F20"/>
<path d="M52.1225 51.9647H47.2388V52.302H52.1225V51.9647Z" fill="#231F20"/>
<path d="M51.9193 53.1484L47.4327 53.4276L47.4531 53.7642L51.9396 53.485L51.9193 53.1484Z" fill="#231F20"/>
<path d="M48.855 49.941H46.9858V50.2783H48.855V49.941Z" fill="#231F20"/>
<path d="M41.2251 42.3217H37.5613V42.5661H41.2251V42.3217Z" fill="#231F20"/>
<path d="M41.2251 45.0439H37.5613V45.2882H41.2251V45.0439Z" fill="#231F20"/>
<path d="M41.2251 45.8284H37.5613V46.0728H41.2251V45.8284Z" fill="#231F20"/>
<path d="M66.1097 42.7757L73.6087 43.7876L72.4739 51.046L65.1816 50.1032L66.1097 42.7757Z" fill="#FFD37A"/>
<path d="M66.1097 42.7754L66.0495 43.2361L73.0826 44.1856L72.0904 50.5278L65.6935 49.7005L66.564 42.8351L66.1097 42.7754L66.0495 43.2361L66.1097 42.7754L65.6555 42.7156L64.6686 50.5052L72.8561 51.5635L74.1337 43.3889L65.7144 42.2535L65.6555 42.7156L66.1097 42.7754Z" fill="#231F20"/>
<path d="M66.798 44.2352L66.7571 44.5579L72.4435 45.2999L72.4844 44.9773L66.798 44.2352Z" fill="#231F20"/>
<path d="M87.597 43.2707L81.8804 43.7139L81.9048 44.0383L87.6214 43.5951L87.597 43.2707Z" fill="#231F20"/>
<path d="M87.7508 44.212L82.0342 44.6552L82.0586 44.9795L87.7752 44.5364L87.7508 44.212Z" fill="#231F20"/>
<path d="M86.8412 45.082L82.536 45.4314L82.5617 45.7567L86.8668 45.4073L86.8412 45.082Z" fill="#231F20"/>
<path d="M102.024 42.692H96.2906V43.0174H102.024V42.692Z" fill="#231F20"/>
<path d="M102.108 43.6428H96.3744V43.9681H102.108V43.6428Z" fill="#231F20"/>
<path d="M100.68 44.5881H96.3744V44.9134H100.68V44.5881Z" fill="#231F20"/>
<path d="M86.5868 46.7662L82.2942 47.099L82.3186 47.4234L86.6113 47.0906L86.5868 46.7662Z" fill="#231F20"/>
<path d="M66.7007 45.0061L66.6598 45.3287L72.3462 46.0708L72.3871 45.7481L66.7007 45.0061Z" fill="#231F20"/>
<path d="M83.6667 58.1194L83.6469 58.4149L88.7087 58.764L88.7285 58.4686L83.6667 58.1194Z" fill="#231F20"/>
<path d="M75.4182 80.4537L69.4952 80.7381L69.509 81.0339L75.432 80.7495L75.4182 80.4537Z" fill="#231F20"/>
<path d="M74.301 81.0825L69.8833 81.3066L69.8979 81.6027L74.3156 81.3786L74.301 81.0825Z" fill="#231F20"/>
<path d="M74.1392 82.2098L69.7264 82.4217L69.7402 82.7175L74.153 82.5056L74.1392 82.2098Z" fill="#231F20"/>
<path d="M75.8252 84.8816L70.1167 85.1557L70.1305 85.4515L75.839 85.1774L75.8252 84.8816Z" fill="#231F20"/>
<path d="M83.5286 61.2077L83.5088 61.5032L88.5706 61.8524L88.5904 61.5569L83.5286 61.2077Z" fill="#231F20"/>
<path d="M83.5292 62.1211L83.5094 62.4165L88.5712 62.7657L88.591 62.4702L83.5292 62.1211Z" fill="#231F20"/>
<path d="M35.73 106.135L43.8468 73.7519L28.3501 68.0113L28.0241 67.8905L3.53479 106.135H35.73Z" fill="#2F3841"/>
<path d="M35.7299 106.135L36.1736 106.249L44.3926 73.4598L28.5071 67.5744L27.8395 67.3261L2.69043 106.599H36.0846L36.1736 106.249L35.7299 106.135V105.67H4.37768L28.4089 68.1428L28.024 67.8905L27.867 68.326L28.1929 68.4469L43.3009 74.0441L35.2848 106.019L35.7299 106.135V105.67V106.135Z" fill="#231F20"/>
<path d="M29.0737 68.2782C29.0737 68.2782 35.4628 53.2887 35.6369 52.9554C36.0727 52.0949 37.7927 52.3498 38.1134 52.5371C38.4341 52.7243 39.2718 51.7337 40.2012 51.7337C41.1306 51.7337 41.1293 52.4667 41.1293 52.4667C41.1293 52.4667 41.4735 51.6288 42.6778 51.7337C43.882 51.8386 43.8467 52.5371 43.8467 52.5371C43.8467 52.5371 44.3624 50.8267 45.1556 50.7922C45.9488 50.7577 52.6546 51.9435 52.7581 52.2224C52.8615 52.5012 52.3444 53.4786 52.3444 53.4786C52.3444 53.4786 46.3599 53.1652 46.2224 53.1652C46.085 53.1652 43.4369 56.898 45.0182 57.1489C46.5994 57.3999 50.3849 53.7295 50.7972 53.6963C51.2096 53.6631 52.3444 53.626 52.3444 54.2195C52.3444 54.8131 47.4267 63.7806 46.4292 64.3383C45.4318 64.896 44.5024 64.8615 44.3349 65.1058C44.1673 65.3502 42.4618 73.2447 42.4618 73.2447L29.0737 68.2782Z" fill="white"/>
<path d="M29.0742 68.2781L29.4943 68.4653L29.7692 67.8212C30.3831 66.3844 31.9172 62.7871 33.3178 59.5138C34.0181 57.8765 34.6844 56.3268 35.1857 55.1555C35.4357 54.5739 35.6438 54.0932 35.7944 53.7413C35.8703 53.5673 35.9253 53.4279 35.975 53.3283C35.9973 53.2792 36.0143 53.238 36.0274 53.2101C36.0405 53.1823 36.0392 53.1849 36.0418 53.1769V53.169L35.8886 53.092L36.0405 53.1716L35.8873 53.0946L36.0392 53.1743C36.0669 53.122 36.1058 53.0766 36.153 53.0415C36.2615 52.9632 36.3851 52.9089 36.5156 52.8821C36.6875 52.8433 36.8631 52.8246 37.0392 52.8264C37.2315 52.8261 37.4234 52.8439 37.6125 52.8795C37.6796 52.8916 37.746 52.9071 37.8115 52.926L37.8691 52.9459H37.8809L37.9201 52.8689L37.8782 52.9432L37.9175 52.8662L37.8756 52.9406C37.9736 52.9962 38.0841 53.0251 38.1963 53.0242C38.3064 53.0225 38.4151 53 38.517 52.9578C38.6659 52.8954 38.8091 52.8199 38.945 52.7321C39.1518 52.5976 39.3655 52.4744 39.5851 52.3629C39.7726 52.2643 39.9789 52.2081 40.1899 52.1983C40.3019 52.1923 40.4136 52.2137 40.5158 52.2607C40.548 52.2772 40.5765 52.3002 40.5996 52.3284C40.6249 52.3609 40.6432 52.3985 40.6532 52.4386C40.6532 52.4559 40.6532 52.4692 40.6598 52.4758L40.8849 52.4625H40.6598V52.4758L40.8849 52.4625H40.6598V54.7877L41.5407 52.6431L41.326 52.5515L41.5368 52.6511V52.6431L41.3221 52.5515L41.5329 52.6511C41.5867 52.5526 41.6608 52.467 41.7501 52.4001C41.832 52.3385 41.923 52.2905 42.0198 52.258C42.1603 52.2106 42.3077 52.1877 42.4557 52.1903C42.508 52.1903 42.5617 52.1903 42.6193 52.1983C42.7961 52.2081 42.97 52.2481 43.1337 52.3165C43.1926 52.3412 43.247 52.3758 43.2947 52.4187C43.3254 52.4458 43.3492 52.4799 43.3641 52.5183V52.5409L43.4623 52.5302H43.3641V52.5409L43.4623 52.5302H43.3641V55.6416L44.2607 52.6723L44.194 52.6524L44.2594 52.6723L44.1927 52.6524L44.2581 52.6723C44.3462 52.3976 44.4575 52.131 44.5906 51.8756C44.6795 51.7015 44.7908 51.5403 44.9218 51.3962C44.9642 51.3505 45.0132 51.3116 45.067 51.2807C45.0918 51.2655 45.1195 51.2559 45.1482 51.2528H45.1652C45.2032 51.2528 45.2752 51.2528 45.3668 51.2647C45.7163 51.2939 46.3538 51.3816 47.0959 51.4998C48.2125 51.6764 49.583 51.9221 50.6733 52.1465C51.2192 52.258 51.6956 52.3656 52.0307 52.4532C52.1983 52.497 52.3305 52.5369 52.4064 52.5648L52.4509 52.582H52.464L52.5059 52.497L52.4587 52.578L52.5006 52.4931L52.4535 52.5741L52.608 52.3085L52.4051 52.5369C52.4195 52.5511 52.4358 52.5632 52.4535 52.5727L52.608 52.3072L52.4051 52.5356L52.6839 52.2222L52.2912 52.3696C52.3141 52.4331 52.3518 52.4901 52.4012 52.5356L52.68 52.2222L52.2873 52.3696L52.4731 52.2979H52.2716C52.2733 52.3224 52.2786 52.3466 52.2873 52.3696L52.4731 52.2979H52.2716C52.2688 52.3243 52.264 52.3505 52.2572 52.3762C52.2351 52.4644 52.2071 52.5509 52.1734 52.6352C52.1184 52.7812 52.0425 52.9366 51.9928 53.0508C51.9653 53.1092 51.9417 53.157 51.9247 53.1902C51.9188 53.2029 51.9122 53.2154 51.9051 53.2274V53.2367L52.3082 53.4558L52.3318 52.9924L49.3212 52.8343L47.2268 52.7268L46.5135 52.6909L46.3001 52.6816H46.236H46.1888C46.1225 52.6812 46.0569 52.6953 45.9964 52.7228C45.9689 52.7353 45.9426 52.7504 45.9179 52.7679C45.891 52.7856 45.866 52.8061 45.8433 52.829C45.8091 52.8603 45.7772 52.8941 45.7477 52.9299C45.6901 52.9963 45.6247 53.0787 45.5501 53.1783C45.2014 53.6537 44.8881 54.1548 44.6128 54.6775C44.4566 54.9715 44.321 55.2764 44.2071 55.5898C44.097 55.8793 44.0351 56.1853 44.0238 56.4954C44.0239 56.6146 44.0388 56.7333 44.0683 56.8486C44.0923 56.9418 44.1289 57.0312 44.177 57.1142C44.2549 57.2449 44.3626 57.3546 44.4911 57.4343C44.6209 57.5133 44.7652 57.5648 44.9152 57.5856C44.9906 57.5973 45.0667 57.6031 45.143 57.6029C45.4369 57.5942 45.7273 57.5349 46.0016 57.4276C46.554 57.2077 47.0808 56.9267 47.5724 56.5897C48.3735 56.0585 49.1759 55.4304 49.8094 54.9271C50.1262 54.6762 50.4011 54.4584 50.604 54.3083C50.7047 54.2326 50.7885 54.1755 50.8409 54.1423C50.8559 54.1323 50.8717 54.1234 50.888 54.1158L50.8644 54.0627L50.8854 54.1171L50.8618 54.064L50.8828 54.1184L50.7728 53.8369L50.7977 54.137C50.8267 54.1343 50.8552 54.1281 50.8828 54.1184L50.7728 53.8369L50.7977 54.137C50.8854 54.1291 51.011 54.1211 51.1472 54.1211C51.2604 54.1206 51.3736 54.1268 51.4862 54.1397C51.5612 54.1474 51.6356 54.1607 51.7087 54.1795C51.7478 54.1891 51.786 54.2024 51.8226 54.2194C51.8374 54.2256 51.8515 54.2336 51.8645 54.2433L51.8907 54.2154L51.8606 54.2379L51.8867 54.2101L51.8566 54.2326L51.9312 54.1782L51.8435 54.2061L51.8566 54.2326L51.9312 54.1782L51.8435 54.2061L51.9037 54.1875H51.8396V54.2061L51.8998 54.1875H52.1053L51.8435 54.1384C51.8435 54.1384 51.8435 54.1556 51.8435 54.1875H52.1132L51.8514 54.1384L51.9352 54.1543L51.8527 54.1357L51.9365 54.1516L51.854 54.133C51.8335 54.2047 51.8082 54.2748 51.7781 54.3429C51.6943 54.5447 51.5529 54.8501 51.3697 55.2193C50.7296 56.5167 49.5843 58.6201 48.5057 60.4433C47.9664 61.3556 47.4428 62.1975 47.0109 62.8336C46.7949 63.1496 46.6025 63.4152 46.4467 63.6051C46.3695 63.6994 46.3014 63.7751 46.2504 63.8255C46.2304 63.8457 46.2094 63.8647 46.1875 63.8826L46.1718 63.8959L46.1967 63.9358L46.1744 63.8946L46.1993 63.9344L46.177 63.8933C45.7847 64.1026 45.3658 64.2563 44.9322 64.3501C44.749 64.3939 44.5827 64.4297 44.4243 64.4829C44.3412 64.5079 44.2606 64.5408 44.1835 64.5811C44.08 64.6321 43.9902 64.7078 43.9217 64.8016C43.9012 64.8302 43.8836 64.8609 43.8694 64.8932C43.8534 64.9296 43.8394 64.9668 43.8275 65.0047C43.8039 65.0751 43.779 65.1601 43.7502 65.2703C43.6442 65.6687 43.4819 66.3406 43.296 67.148C42.7384 69.5661 41.974 73.1157 41.974 73.1157L42.4216 73.2153L42.5787 72.7784L29.2312 67.8425L29.0742 68.2781L29.4943 68.4653L29.0742 68.2807L28.9171 68.7176L42.7921 73.858L42.9046 73.3388C42.9046 73.3388 42.9308 73.2153 42.978 72.9988C43.1416 72.2432 43.5539 70.343 43.9427 68.6167C44.1377 67.7509 44.3275 66.9262 44.4767 66.3074C44.5513 65.998 44.6155 65.7404 44.6652 65.5585C44.6888 65.4668 44.7097 65.3951 44.7241 65.35L44.7385 65.3088L44.5723 65.2398L44.7333 65.3208V65.3088L44.567 65.2398L44.728 65.3208L44.3982 65.1455L44.7018 65.3646C44.713 65.348 44.7231 65.3307 44.732 65.3128L44.3982 65.1455L44.7018 65.3646L44.5003 65.2185L44.6547 65.4151C44.6726 65.4005 44.6885 65.3835 44.7018 65.3646L44.5003 65.2185L44.6547 65.4151L44.567 65.3035L44.6429 65.423L44.6547 65.4151L44.567 65.3035L44.6429 65.423L44.6076 65.3672L44.6416 65.4243L44.6063 65.3686L44.6403 65.4257C44.6595 65.4151 44.6796 65.4067 44.7005 65.4004C44.766 65.3792 44.872 65.3513 45.0029 65.3208C45.5759 65.2063 46.1296 65.0086 46.647 64.7338C46.7111 64.6954 46.7716 64.6509 46.8276 64.601C46.9403 64.4994 47.0453 64.3893 47.1418 64.2717C47.3446 64.0287 47.5776 63.7073 47.8368 63.3249C48.2897 62.6609 48.8198 61.7978 49.3644 60.8749C50.1798 59.4925 51.0254 57.9681 51.6694 56.7398C51.9914 56.1263 52.2624 55.5858 52.4548 55.1715C52.5517 54.9634 52.6289 54.7864 52.6865 54.6403C52.7153 54.5659 52.7389 54.5009 52.7572 54.4371C52.7664 54.4053 52.7755 54.3734 52.7834 54.3375C52.792 54.2938 52.7964 54.2493 52.7965 54.2047C52.7979 54.0898 52.7756 53.9758 52.731 53.8701C52.6943 53.7822 52.6429 53.7013 52.5792 53.6311C52.4815 53.5244 52.3635 53.439 52.2323 53.3801C52.0596 53.3048 51.8771 53.2551 51.6904 53.2327C51.5207 53.2098 51.3497 53.1987 51.1786 53.1995C51.0097 53.1995 50.8605 53.2088 50.7532 53.2181C50.6921 53.224 50.6321 53.2387 50.5752 53.2619C50.5001 53.2939 50.4282 53.333 50.3605 53.3788C50.2296 53.4611 50.0856 53.5687 49.9128 53.7028C49.6105 53.9352 49.2335 54.234 48.8146 54.5673C48.167 55.0872 47.4919 55.5708 46.7923 56.016C46.4932 56.2059 46.1803 56.3724 45.8564 56.514C45.6416 56.6125 45.4109 56.6705 45.1757 56.6853C45.1455 56.6854 45.1153 56.6832 45.0854 56.6787C45.0573 56.6758 45.0298 56.6681 45.0042 56.6561L44.9964 56.6495C44.9964 56.6495 44.9964 56.6495 44.9859 56.6269C44.9754 56.5889 44.9706 56.5495 44.9715 56.51C44.9754 56.3917 44.9938 56.2744 45.0265 56.1608C45.1112 55.8637 45.2248 55.5759 45.3655 55.3016C45.5878 54.8593 45.8397 54.4329 46.1195 54.0255C46.2373 53.8529 46.3433 53.7108 46.4166 53.6191C46.4532 53.5727 46.482 53.5395 46.4925 53.5288L46.3132 53.3323L46.4611 53.5541C46.4725 53.547 46.4831 53.5385 46.4925 53.5288L46.3132 53.3323L46.4611 53.5541L46.2333 53.2141L46.3983 53.5899C46.4201 53.5796 46.4411 53.5676 46.4611 53.5541L46.2333 53.2141L46.3983 53.5899L46.2176 53.1783V53.6284C46.2798 53.6281 46.3412 53.615 46.3983 53.5899L46.2176 53.1783V53.3668V53.6324V53.3668V53.6324H46.3132C46.7255 53.651 48.2308 53.728 49.6288 53.8011L51.4993 53.898L52.0975 53.9299L52.3213 53.9418L52.6119 53.9564L52.7493 53.6908C52.7493 53.6842 52.8632 53.4744 52.9784 53.2101C53.037 53.0747 53.089 52.9365 53.1342 52.7958C53.1577 52.7215 53.1787 52.6458 53.1957 52.5688C53.2134 52.4872 53.2226 52.404 53.2232 52.3204C53.2244 52.234 53.2102 52.1481 53.1813 52.0668C53.1566 51.999 53.1173 51.9378 53.0661 51.8875C53.0393 51.8603 53.0099 51.8359 52.9784 51.8145C52.9369 51.7872 52.8931 51.7637 52.8475 51.7441C52.7703 51.7109 52.6891 51.683 52.5936 51.6525C52.4142 51.5967 52.1852 51.537 51.9142 51.4732C50.9639 51.2475 49.4887 50.966 48.1497 50.7389C47.4795 50.6247 46.8407 50.5238 46.3302 50.452C46.0684 50.4162 45.8446 50.387 45.6535 50.3671C45.4624 50.3471 45.3118 50.3339 45.1875 50.3339H45.1299C44.9598 50.3428 44.7941 50.3914 44.6456 50.476C44.4199 50.6098 44.2249 50.7909 44.0735 51.0071C43.8737 51.2922 43.7077 51.6002 43.5788 51.9247C43.4675 52.1903 43.4086 52.3895 43.4047 52.4001L43.8432 52.5329H44.3013V52.5302C44.3005 52.4379 44.2864 52.3462 44.2594 52.258C44.2267 52.1487 44.1781 52.0449 44.1154 51.9499C43.9848 51.76 43.8087 51.6069 43.6036 51.5051C43.3243 51.3689 43.0216 51.2891 42.7122 51.27C42.625 51.2621 42.5438 51.2581 42.4688 51.2581C42.1901 51.255 41.9134 51.3055 41.6533 51.4068C41.3712 51.5171 41.121 51.6974 40.9255 51.9314C40.8341 52.0377 40.7587 52.1572 40.7017 52.2859L41.1245 52.4652H41.5826C41.5818 52.3941 41.5734 52.3233 41.5577 52.254C41.5367 52.1518 41.5028 52.0527 41.4569 51.9592C41.3586 51.7598 41.2066 51.5926 41.0184 51.4772C40.7688 51.3316 40.4843 51.259 40.1964 51.2674C39.927 51.2708 39.6607 51.3253 39.411 51.4281C39.1047 51.5585 38.8103 51.7163 38.5314 51.8995C38.4162 51.9712 38.3181 52.0323 38.2487 52.0641C38.216 52.0801 38.1898 52.0907 38.1793 52.0947L38.2055 52.2275V52.0947C38.1968 52.0932 38.188 52.0932 38.1793 52.0947L38.2055 52.2275V52.3603L38.3364 52.1239C38.2965 52.1005 38.2515 52.0873 38.2055 52.0854V52.3603L38.3364 52.1239C38.2944 52.1001 38.2506 52.0797 38.2055 52.0628C38.1289 52.0329 38.0507 52.0076 37.9712 51.9871C37.6655 51.9129 37.3522 51.8759 37.0379 51.8769C36.7039 51.8711 36.3713 51.9237 36.0549 52.0323C35.8869 52.0925 35.7292 52.179 35.5876 52.2886C35.4349 52.408 35.3099 52.5598 35.2211 52.7334L35.2014 52.7759C35.1752 52.8317 35.1307 52.9326 35.0705 53.0827C34.5823 54.2034 32.9762 57.9508 31.4944 61.422C30.0127 64.8932 28.6566 68.0935 28.6566 68.0935L28.4629 68.5463L28.9197 68.7149L29.0742 68.2781Z" fill="#231F20"/>
<path d="M37.7787 52.395L36.9292 54.675L37.7866 55.0043L38.6361 52.723" fill="#231F20"/>
<path d="M40.707 52.2875L39.5944 54.9859L40.4399 55.3444L41.5526 52.6461" fill="#231F20"/>
<path d="M43.4492 52.3059L41.8667 55.1211L42.6625 55.5819L44.2451 52.7667" fill="#231F20"/>
<path d="M102.307 78.182C102.307 78.182 102.765 75.9604 102.307 72.6048C101.848 69.2491 101.343 67.6729 101.343 67.6729L111.249 65.017C111.249 65.017 115.227 72.9035 114.437 74.8569C113.524 77.1184 102.307 78.182 102.307 78.182Z" fill="#EE4947"/>
<path d="M102.306 78.1818L102.754 78.2775C102.909 77.3748 102.981 76.4594 102.968 75.5433C102.966 74.5406 102.896 73.5392 102.759 72.5461C102.297 69.1706 101.787 67.5611 101.779 67.5346L101.343 67.678L101.46 68.1282L111.366 65.4723L111.252 65.0261L110.844 65.2386L110.853 65.2559C110.946 65.4418 111.769 67.0818 112.554 68.9847C112.947 69.9355 113.34 70.9526 113.622 71.8809C113.765 72.343 113.884 72.7852 113.964 73.1809C114.039 73.5158 114.08 73.8575 114.087 74.2007C114.094 74.367 114.071 74.5332 114.018 74.6907C113.974 74.7868 113.912 74.873 113.834 74.9444C113.553 75.1956 113.232 75.3984 112.886 75.5446C112.129 75.8978 111.075 76.2205 109.932 76.4941C108.216 76.9057 106.296 77.2138 104.808 77.417C104.064 77.5192 103.428 77.5949 102.975 77.6454L102.452 77.7011L102.313 77.7157H102.266L102.309 78.1792L102.757 78.2748L102.309 78.1792L102.351 78.6413C102.359 78.6413 105.172 78.3757 108.11 77.8233C109.583 77.5471 111.086 77.2005 112.299 76.7716C112.851 76.587 113.382 76.3449 113.884 76.0492C114.093 75.9234 114.287 75.7741 114.463 75.6044C114.631 75.4457 114.764 75.2535 114.855 75.04C114.952 74.7706 114.997 74.4847 114.986 74.1981C114.978 73.777 114.928 73.3579 114.836 72.9472C114.636 72.0657 114.377 71.1992 114.06 70.3537C113.349 68.4657 112.543 66.6161 111.645 64.8123L111.489 64.4817L100.755 67.354L100.905 67.8214L100.944 67.8081L100.905 67.8214L100.944 67.8081L100.905 67.8214C100.905 67.844 101.402 69.403 101.85 72.6736C101.981 73.6244 102.047 74.5832 102.049 75.5433C102.05 76.1732 102.018 76.8027 101.95 77.4289C101.926 77.648 101.901 77.8153 101.884 77.9269C101.875 77.9827 101.867 78.0238 101.861 78.0504C101.856 78.0769 101.861 78.0743 101.861 78.0796V78.0862L102.02 78.1194L101.861 78.0862L102.02 78.1194L101.861 78.0862L101.731 78.7024L102.348 78.644L102.306 78.1818Z" fill="#231F20"/>
<path d="M76.8756 59.368L77.6322 69.4522L88.6733 69.7311V59.368H76.8756Z" fill="#EE4947"/>
<path d="M76.8757 59.3681L76.4188 59.4026L77.2068 69.9065L89.1314 70.2079V58.9033H76.3809L76.4188 59.4026L76.8757 59.3681V59.8329H88.2152V69.2545L78.0576 68.9982L77.3325 59.3322L76.8757 59.3681V59.8329V59.3681Z" fill="#231F20"/>
<path d="M107.007 106.201L104.393 98.7339L122.278 91.9828L126.819 106.201H107.007Z" fill="#2F3841"/>
<path d="M107.007 106.201L107.439 106.046L104.975 99.0103L121.99 92.5872L126.188 105.736H107.007V106.201L107.439 106.046L107.007 106.201V106.666H127.449L122.566 91.3774L103.81 98.4579L106.683 106.666H107.007V106.201Z" fill="#231F20"/>
<path d="M121.265 92.368L120.153 87.3591C120.153 87.3591 122.247 76.4024 121.272 74.6576C120.296 72.9127 119.327 73.9591 119.327 73.9591C119.327 73.9591 118.743 72.5289 117.264 73.331C117.264 73.331 116.713 72.5634 115.612 72.9127L113.892 71.2382C113.892 71.2382 114.58 74.4477 114.443 74.866C114.305 75.2843 113.308 75.9483 113.308 75.9483C113.308 75.9483 112.414 71.691 110.659 71.4466C108.903 71.2023 109.386 73.4704 109.386 73.4704C109.386 73.4704 110.659 86.4521 111.35 86.9753C112.041 87.4985 113.585 88.7893 113.585 89.2076C113.585 89.6259 112.146 95.8113 112.146 95.8113L121.265 92.368Z" fill="white"/>
<path d="M121.266 92.3682L121.712 92.2659L120.593 87.2597L120.146 87.3633L120.595 87.4522C120.595 87.4522 120.942 85.6436 121.289 83.3768C121.463 82.2441 121.636 80.9959 121.767 79.7915C121.895 78.6996 121.968 77.6017 121.985 76.5022C121.989 76.1072 121.967 75.7124 121.92 75.3203C121.899 75.1586 121.868 74.9985 121.826 74.841C121.789 74.6967 121.734 74.5575 121.663 74.4267C121.471 74.0574 121.204 73.7342 120.878 73.4785C120.747 73.3814 120.602 73.3053 120.449 73.2528C120.171 73.1589 119.871 73.1589 119.594 73.2528C119.438 73.3073 119.292 73.3857 119.159 73.4852C119.097 73.5318 119.039 73.5837 118.985 73.6405L119.32 73.9566L119.745 73.7786C119.651 73.5691 119.526 73.3759 119.373 73.2063C119.229 73.0452 119.058 72.9104 118.869 72.8079C118.632 72.6833 118.37 72.6186 118.103 72.6194C117.73 72.6284 117.365 72.7316 117.04 72.9195L117.258 73.3285L117.628 73.0549C117.517 72.9129 117.385 72.7901 117.235 72.6911C117.096 72.5928 116.943 72.5146 116.782 72.4587C116.58 72.389 116.368 72.3536 116.154 72.3538C115.919 72.3554 115.686 72.3935 115.463 72.4667L115.594 72.9102L115.912 72.5742L113.108 69.8453L113.426 71.3339C113.426 71.3339 113.435 71.3738 113.451 71.4468C113.505 71.7044 113.64 72.3604 113.761 73.0337C113.822 73.371 113.878 73.7122 113.92 74.0084C113.941 74.1558 113.956 74.2912 113.968 74.4067C113.98 74.5223 113.985 74.6205 113.985 74.6843C113.986 74.7037 113.986 74.7232 113.985 74.7427L114.057 74.752L113.986 74.7361V74.7427L114.058 74.752L113.988 74.7361L114.209 74.7852L113.993 74.7135V74.7361L114.214 74.7852L113.998 74.7135L114.04 74.7281L113.998 74.7108L114.04 74.7254L113.998 74.7082C113.983 74.7365 113.965 74.7631 113.945 74.7879C113.873 74.8763 113.795 74.958 113.709 75.0322C113.568 75.1602 113.419 75.2803 113.265 75.3921C113.201 75.4399 113.145 75.4797 113.106 75.5063L113.061 75.5368L113.051 75.5448L113.302 75.9338L113.75 75.8369C113.578 75.0732 113.347 74.3245 113.058 73.598C112.832 73.0182 112.533 72.4705 112.168 71.9687C111.989 71.7271 111.776 71.5129 111.536 71.3326C111.294 71.1524 111.012 71.0344 110.715 70.9887C110.611 70.9742 110.506 70.9666 110.401 70.9661C110.127 70.9599 109.856 71.0282 109.616 71.164C109.458 71.2565 109.321 71.3813 109.213 71.5305C109.072 71.7291 108.973 71.9552 108.923 72.1944C108.879 72.4025 108.857 72.6149 108.859 72.8278C108.859 73.0762 108.882 73.3239 108.93 73.5675L109.378 73.4692L108.922 73.5157C108.922 73.5157 109.24 76.7651 109.646 80.0823C109.848 81.7422 110.071 83.418 110.29 84.7207C110.4 85.3727 110.506 85.9304 110.612 86.3567C110.656 86.542 110.711 86.7247 110.776 86.9038C110.803 86.9784 110.837 87.0507 110.875 87.1202C110.896 87.158 110.919 87.194 110.946 87.2278C110.98 87.2717 111.02 87.3114 111.064 87.346C111.395 87.5983 111.948 88.0471 112.404 88.4721C112.604 88.6542 112.793 88.8485 112.971 89.0537C113.022 89.1137 113.068 89.1776 113.109 89.2449L113.123 89.2688V89.2755L113.212 89.2409L113.119 89.2622V89.2755L113.208 89.2409L113.115 89.2622L113.354 89.2064H113.109C113.107 89.2249 113.107 89.2437 113.109 89.2622L113.349 89.2064H113.323L113.104 89.1971V89.2064H113.323L113.104 89.1971H113.15H113.104H113.15H113.104C113.104 89.1971 113.104 89.2569 113.086 89.3299C113.064 89.4627 113.026 89.6645 112.975 89.9155C112.795 90.7933 112.469 92.2447 112.189 93.473C112.049 94.0865 111.927 94.6469 111.827 95.0519C111.781 95.2538 111.742 95.4184 111.715 95.5326L111.675 95.7092L111.477 96.5538L121.787 92.663L121.698 92.2646L121.251 92.3669L121.091 91.9313L111.961 95.3839L112.121 95.8195L112.566 95.927C112.566 95.927 112.927 94.3787 113.287 92.7785C113.468 91.9818 113.649 91.1651 113.785 90.5211C113.853 90.1997 113.909 89.9208 113.95 89.7057C113.971 89.5982 113.986 89.5065 113.998 89.4295C113.998 89.391 114.01 89.3578 114.013 89.3246C114.018 89.2881 114.02 89.2513 114.02 89.2144C114.019 89.131 114.004 89.0484 113.976 88.97C113.931 88.8538 113.872 88.744 113.799 88.6434C113.659 88.4541 113.504 88.2765 113.336 88.1122C112.789 87.5759 112.21 87.0752 111.602 86.613L111.435 86.8374L111.654 86.6621C111.638 86.644 111.621 86.6275 111.602 86.613L111.435 86.8374L111.654 86.6621L111.561 86.7365L111.659 86.6701V86.6621L111.566 86.7365L111.664 86.6701C111.652 86.6479 111.641 86.6248 111.632 86.601C111.585 86.4754 111.546 86.3473 111.514 86.2173C111.43 85.8972 111.34 85.4497 111.245 84.9199C110.918 83.0608 110.562 80.1819 110.29 77.777C110.159 76.5739 110.037 75.4877 109.956 74.7029C109.916 74.3045 109.883 73.9924 109.861 73.7733C109.838 73.5542 109.827 73.4347 109.827 73.4347V73.4081V73.3816L109.565 73.4387L109.827 73.3829L109.565 73.44L109.827 73.3842L109.819 73.3417C109.791 73.1758 109.777 73.008 109.777 72.8398C109.776 72.7088 109.788 72.5781 109.812 72.4494C109.827 72.3654 109.851 72.2835 109.884 72.205C109.919 72.1166 109.978 72.0401 110.054 71.9846C110.094 71.9575 110.139 71.9373 110.185 71.9249C110.256 71.9054 110.329 71.896 110.403 71.897C110.466 71.8979 110.529 71.9027 110.592 71.9116C110.742 71.9367 110.884 71.9987 111.005 72.0922C111.149 72.201 111.279 72.3287 111.391 72.472C111.637 72.7911 111.845 73.1388 112.011 73.5077C112.265 74.0634 112.476 74.6378 112.643 75.2261C112.714 75.4717 112.774 75.6802 112.803 75.825L112.842 75.9936C112.842 76.0122 112.85 76.0268 112.852 76.0361V76.0467L112.992 76.7107L113.552 76.3389C113.552 76.3389 113.814 76.1623 114.104 75.9272C114.256 75.8042 114.399 75.6711 114.532 75.5288C114.601 75.4572 114.664 75.3804 114.721 75.2991C114.784 75.211 114.834 75.1139 114.87 75.0109C114.888 74.9548 114.899 74.8969 114.905 74.8383C114.905 74.7865 114.912 74.7374 114.912 74.6869C114.91 74.5444 114.901 74.4022 114.884 74.2607C114.827 73.7096 114.689 72.9328 114.566 72.294C114.443 71.6553 114.333 71.1401 114.332 71.1374L113.884 71.237L113.568 71.5716L115.483 73.4374L115.744 73.355C115.879 73.3099 116.02 73.2861 116.162 73.2846C116.275 73.2841 116.386 73.3025 116.493 73.3391C116.607 73.3798 116.714 73.4415 116.806 73.521C116.832 73.5432 116.856 73.5672 116.878 73.5927L116.891 73.6087L117.051 73.4759L116.886 73.5967L117.045 73.4639L116.881 73.5848L117.116 73.9128L117.468 73.7215C117.659 73.606 117.876 73.5408 118.098 73.5316C118.217 73.5303 118.334 73.5591 118.44 73.6153C118.577 73.6938 118.695 73.8027 118.785 73.934C118.817 73.9799 118.847 74.0278 118.873 74.0774L118.891 74.1146L119.047 74.0455L118.89 74.1106L119.046 74.0416L118.889 74.1066L119.161 74.7706L119.646 74.2394L119.458 74.0602L119.642 74.2434L119.454 74.0641L119.639 74.2474C119.678 74.2109 119.722 74.1793 119.769 74.1531C119.845 74.107 119.93 74.0818 120.018 74.0801C120.063 74.0804 120.107 74.088 120.149 74.1026C120.26 74.1437 120.36 74.2095 120.442 74.2952C120.606 74.4596 120.745 74.648 120.855 74.8542C120.887 74.9184 120.913 74.9861 120.93 75.0561C120.978 75.2473 121.009 75.4424 121.023 75.6391C121.046 75.8794 121.056 76.1596 121.056 76.469C121.039 77.5344 120.968 78.5981 120.843 79.656C120.65 81.4261 120.36 83.3237 120.118 84.7765C119.997 85.5028 119.889 86.1177 119.81 86.5519C119.771 86.7684 119.739 86.9397 119.717 87.0565C119.707 87.1149 119.697 87.1601 119.692 87.1893C119.687 87.2185 119.683 87.2345 119.683 87.2345L119.665 87.3301L120.806 92.4319L121.252 92.3284L121.093 91.8928L121.266 92.3682Z" fill="#231F20"/>
<path d="M115.606 72.9128C115.606 72.9128 116.776 74.5183 116.844 74.9884C116.881 75.2137 116.905 75.4412 116.913 75.6696" fill="white"/>
<path d="M115.238 73.189L115.249 73.205C115.311 73.2913 115.598 73.691 115.873 74.1159C116.01 74.3271 116.144 74.5462 116.242 74.7294C116.284 74.8057 116.323 74.8842 116.357 74.9645C116.37 74.995 116.38 75.0216 116.386 75.0388V75.0574C116.418 75.2832 116.434 75.4425 116.442 75.5421C116.442 75.5926 116.442 75.6271 116.442 75.6484V75.6723H116.657H116.442H116.657H117.358C117.35 75.4212 117.325 75.171 117.284 74.9233C117.275 74.8623 117.26 74.8023 117.24 74.744C117.204 74.6379 117.16 74.5345 117.11 74.4346C117.019 74.2514 116.904 74.0535 116.78 73.853C116.411 73.2554 115.964 72.6446 115.962 72.6393L115.225 73.1917L115.238 73.189Z" fill="#231F20"/>
<path d="M117.257 73.3312C117.257 73.3312 118.237 74.1864 118.304 74.4825L117.257 73.3312Z" fill="white"/>
<path d="M116.958 73.684C116.982 73.7052 117.219 73.9164 117.456 74.1501C117.573 74.2656 117.688 74.3878 117.768 74.4861C117.8 74.5235 117.83 74.563 117.857 74.6042C117.861 74.611 117.865 74.6181 117.869 74.6255L118.026 74.5471L117.857 74.5883C117.865 74.6162 117.869 74.6242 117.869 74.6255L118.026 74.5471L117.857 74.5883L118.749 74.3745C118.736 74.3188 118.716 74.2648 118.691 74.2138C118.654 74.1372 118.61 74.0643 118.56 73.9961C118.467 73.8748 118.368 73.7591 118.263 73.6495C118.1 73.4782 117.926 73.3122 117.791 73.1874C117.657 73.0625 117.561 72.9789 117.558 72.9775L116.96 73.6827L116.958 73.684Z" fill="#231F20"/>
<path d="M119.32 73.9591C119.32 73.9591 119.854 74.5182 119.888 74.8488L119.32 73.9591Z" fill="white"/>
<path d="M118.992 74.2832L119.144 74.1331L118.992 74.2819L119.144 74.1318L118.992 74.2805C118.992 74.2805 119.123 74.4133 119.234 74.57C119.29 74.6427 119.342 74.7195 119.387 74.7998C119.402 74.8263 119.415 74.8538 119.426 74.8821V74.902L119.483 74.8887L119.426 74.8954L119.483 74.8821L119.426 74.8887L120.343 74.7918C120.333 74.7052 120.312 74.6203 120.28 74.5395C120.231 74.4184 120.171 74.3027 120.099 74.1942C120.009 74.0549 119.91 73.9218 119.802 73.7959C119.716 73.6936 119.653 73.6272 119.649 73.6232L118.994 74.2699L118.992 74.2832Z" fill="#231F20"/>
</svg>
