<svg width="131" height="130" viewBox="0 0 131 130" fill="none" xmlns="http://www.w3.org/2000/svg">
<g clip-path="url(#clip0_2240_1095)">
<path d="M118.756 10.4573H86.5396C84.1972 10.4595 81.9514 11.3929 80.2951 13.0527C78.6388 14.7124 77.7073 16.9629 77.7051 19.3101V101.398C77.7073 103.745 78.6388 105.996 80.2951 107.656C81.9514 109.315 84.1972 110.249 86.5396 110.251H118.756C121.099 110.249 123.345 109.315 125.001 107.656C126.657 105.996 127.589 103.745 127.591 101.398V19.3101C127.588 16.9631 126.656 14.7129 125 13.0533C123.344 11.3937 121.099 10.4601 118.756 10.4573ZM125.713 101.385C125.711 103.234 124.978 105.006 123.674 106.313C122.369 107.62 120.601 108.355 118.756 108.357H86.5396C84.6983 108.354 82.9329 107.622 81.6296 106.318C80.3262 105.015 79.5911 103.247 79.585 101.402V19.3144C79.5889 17.4678 80.323 15.6981 81.6266 14.393C82.9302 13.0879 84.6969 12.3538 86.5396 12.3516H91.7046C91.9243 13.4778 92.5278 14.4926 93.4117 15.2221C94.2957 15.9516 95.4052 16.3506 96.5504 16.3508H108.536C109.681 16.3509 110.79 15.952 111.674 15.2224C112.557 14.4928 113.16 13.4779 113.379 12.3516H118.756C120.601 12.3538 122.369 13.089 123.673 14.3959C124.977 15.7027 125.711 17.4746 125.713 19.3228V101.385Z" fill="#231F20"/>
<path d="M119.449 103.187H91.1836C90.6232 103.187 90.0857 102.964 89.6895 102.567C89.2932 102.17 89.0706 101.631 89.0706 101.07C89.0706 100.508 89.2932 99.9696 89.6895 99.5725C90.0857 99.1754 90.6232 98.9523 91.1836 98.9523H119.449C120.01 98.9523 120.547 99.1754 120.944 99.5725C121.34 99.9696 121.562 100.508 121.562 101.07C121.562 101.631 121.34 102.17 120.944 102.567C120.547 102.964 120.01 103.187 119.449 103.187Z" fill="white"/>
<path d="M119.45 103.187V103.069H91.1839C90.6569 103.069 90.1515 102.86 89.7789 102.486C89.4062 102.113 89.1969 101.606 89.1969 101.078C89.1969 100.55 89.4062 100.044 89.7789 99.6702C90.1515 99.2968 90.6569 99.087 91.1839 99.087H119.45C119.977 99.087 120.482 99.2968 120.855 99.6702C121.227 100.044 121.437 100.55 121.437 101.078C121.437 101.606 121.227 102.113 120.855 102.486C120.482 102.86 119.977 103.069 119.45 103.069V103.322C120.044 103.322 120.613 103.085 121.033 102.665C121.453 102.244 121.689 101.673 121.689 101.078C121.689 100.483 121.453 99.9124 121.033 99.4916C120.613 99.0708 120.044 98.8344 119.45 98.8344H91.1839C90.5901 98.8344 90.0205 99.0708 89.6006 99.4916C89.1807 99.9124 88.9448 100.483 88.9448 101.078C88.9448 101.673 89.1807 102.244 89.6006 102.665C90.0205 103.085 90.5901 103.322 91.1839 103.322H119.45V103.187Z" fill="#231F20"/>
<path d="M118.053 89.1038H87.9869C87.056 89.1038 86.1633 88.7333 85.5051 88.0737C84.8468 87.4141 84.4771 86.5195 84.4771 85.5867V79.3459C84.4771 78.4131 84.8468 77.5185 85.5051 76.8589C86.1633 76.1993 87.056 75.8287 87.9869 75.8287H118.053C118.984 75.8287 119.876 76.1993 120.535 76.8589C121.193 77.5185 121.563 78.4131 121.563 79.3459V85.5867C121.563 86.0486 121.472 86.5059 121.296 86.9326C121.119 87.3594 120.861 87.7471 120.535 88.0737C120.209 88.4003 119.822 88.6594 119.396 88.8361C118.97 89.0129 118.514 89.1038 118.053 89.1038Z" fill="#EE4947"/>
<path d="M118.053 89.1038V88.5145H87.9869C87.212 88.5145 86.4689 88.206 85.9209 87.6569C85.373 87.1079 85.0652 86.3632 85.0652 85.5867V79.3459C85.0652 78.5694 85.373 77.8247 85.9209 77.2756C86.4689 76.7265 87.212 76.4181 87.9869 76.4181H118.053C118.828 76.4181 119.571 76.7265 120.119 77.2756C120.667 77.8247 120.975 78.5694 120.975 79.3459V85.5867C120.975 86.3632 120.667 87.1079 120.119 87.6569C119.571 88.206 118.828 88.5145 118.053 88.5145V89.6932C119.14 89.6932 120.182 89.2605 120.951 88.4904C121.719 87.7203 122.151 86.6758 122.151 85.5867V79.3459C122.151 78.2568 121.719 77.2123 120.951 76.4421C120.182 75.672 119.14 75.2394 118.053 75.2394H87.9869C86.9004 75.2405 85.8587 75.6735 85.0904 76.4434C84.3221 77.2132 83.89 78.2571 83.8889 79.3459V85.5867C83.89 86.6754 84.3221 87.7193 85.0904 88.4892C85.8587 89.259 86.9004 89.6921 87.9869 89.6932H118.053V89.1038Z" fill="#231F20"/>
<path d="M115.923 73.3072H107.464C106.496 73.3072 105.568 72.9218 104.883 72.2357C104.198 71.5497 103.814 70.6192 103.814 69.649V62.3642C103.814 61.394 104.198 60.4636 104.883 59.7775C105.568 59.0915 106.496 58.7061 107.464 58.7061H115.923C116.891 58.7061 117.82 59.0915 118.504 59.7775C119.189 60.4636 119.573 61.394 119.573 62.3642V69.649C119.573 70.6192 119.189 71.5497 118.504 72.2357C117.82 72.9218 116.891 73.3072 115.923 73.3072Z" fill="#EE4947"/>
<path d="M115.923 73.3072V72.7178H107.464C106.652 72.7178 105.873 72.3945 105.299 71.819C104.725 71.2435 104.402 70.4629 104.402 69.649V62.3642C104.401 61.9607 104.48 61.561 104.633 61.1879C104.787 60.8148 105.012 60.4758 105.297 60.1902C105.581 59.9045 105.919 59.6779 106.291 59.5233C106.663 59.3687 107.062 59.2891 107.464 59.2891H115.923C116.735 59.2891 117.514 59.6124 118.088 60.1879C118.663 60.7634 118.985 61.544 118.985 62.3579V69.6427C118.986 70.0462 118.908 70.446 118.754 70.819C118.6 71.1921 118.375 71.5311 118.091 71.8168C117.806 72.1024 117.468 72.329 117.096 72.4836C116.724 72.6383 116.326 72.7178 115.923 72.7178V73.8965C117.047 73.8965 118.125 73.449 118.92 72.6525C119.715 71.8559 120.162 70.7755 120.162 69.649V62.3642C120.162 61.2377 119.715 60.1573 118.92 59.3608C118.125 58.5642 117.047 58.1167 115.923 58.1167H107.464C106.34 58.1167 105.262 58.5642 104.467 59.3608C103.672 60.1573 103.226 61.2377 103.226 62.3642V69.649C103.226 70.7755 103.672 71.8559 104.467 72.6525C105.262 73.449 106.34 73.8965 107.464 73.8965H115.923V73.3072Z" fill="#231F20"/>
<path d="M115.234 41.236H107.849C106.088 41.236 104.66 42.6665 104.66 44.4311V50.7898C104.66 52.5544 106.088 53.9849 107.849 53.9849H115.234C116.995 53.9849 118.423 52.5544 118.423 50.7898V44.4311C118.423 42.6665 116.995 41.236 115.234 41.236Z" fill="#EE4947"/>
<path d="M98.3086 58.5292H89.8459C87.8297 58.5292 86.1953 60.1671 86.1953 62.1874V69.4722C86.1953 71.4925 87.8297 73.1304 89.8459 73.1304H98.3086C100.325 73.1304 101.959 71.4925 101.959 69.4722V62.1874C101.959 60.1671 100.325 58.5292 98.3086 58.5292Z" fill="#EE4947"/>
<path d="M98.3063 73.1304V72.5494H89.8456C89.0334 72.5494 88.2545 72.2261 87.6802 71.6506C87.1058 71.0751 86.7832 70.2945 86.7832 69.4806V62.1874C86.7832 61.3735 87.1058 60.5929 87.6802 60.0174C88.2545 59.4419 89.0334 59.1186 89.8456 59.1186H98.3063C98.7086 59.1183 99.1071 59.1975 99.4789 59.3516C99.8507 59.5057 100.189 59.7317 100.473 60.0167C100.758 60.3017 100.983 60.6401 101.138 61.0125C101.292 61.385 101.371 61.7842 101.371 62.1874V69.4722C101.372 69.8761 101.293 70.2762 101.14 70.6497C100.986 71.0231 100.761 71.3625 100.476 71.6484C100.191 71.9343 99.8532 72.161 99.4808 72.3156C99.1085 72.4703 98.7093 72.5497 98.3063 72.5494V73.7281C98.8631 73.7284 99.4145 73.6188 99.929 73.4054C100.444 73.1921 100.911 72.8792 101.305 72.4848C101.699 72.0904 102.011 71.622 102.224 71.1065C102.437 70.5911 102.547 70.0386 102.547 69.4806V62.1874C102.547 61.6294 102.437 61.0769 102.224 60.5615C102.011 60.046 101.699 59.5777 101.305 59.1832C100.911 58.7888 100.444 58.4759 99.929 58.2626C99.4145 58.0493 98.8631 57.9396 98.3063 57.9399H89.8456C88.7215 57.9399 87.6433 58.3874 86.8484 59.184C86.0535 59.9805 85.6069 61.0609 85.6069 62.1874V69.4722C85.6069 70.5987 86.0535 71.6791 86.8484 72.4756C87.6433 73.2722 88.7215 73.7197 89.8456 73.7197H98.3063V73.1304Z" fill="#231F20"/>
<path d="M113.165 40.8445C111.745 40.6013 110.293 40.6184 108.88 40.895C107.541 41.1424 106.295 41.7532 105.278 42.661C104.196 43.6587 103.364 45.1426 103.072 47.2263C103.007 47.6788 102.974 48.1353 102.971 48.5924C102.958 49.3376 103.076 50.0793 103.32 50.7835C103.688 51.8049 104.389 52.6714 105.311 53.2419C105.955 53.6397 106.658 53.933 107.393 54.1112C108.421 54.3571 109.474 54.4884 110.531 54.5027C111.004 54.5153 111.434 54.5153 111.791 54.5153C112.148 54.5153 112.447 54.5153 112.631 54.5322C112.747 54.5427 112.871 54.5469 113.003 54.5469C113.694 54.5363 114.381 54.4473 115.051 54.2817C116.338 53.9996 117.545 53.4281 118.58 52.6105C119.122 52.1653 119.569 51.6156 119.895 50.994C120.244 50.3034 120.423 49.5391 120.418 48.765C120.418 48.4832 120.397 48.2018 120.357 47.923C120.25 47.0413 120.003 46.1822 119.626 45.3783C119.186 44.4228 118.449 43.6357 117.525 43.1346C116.668 42.6998 115.716 42.483 114.755 42.5031C113.994 42.5105 113.236 42.6002 112.495 42.7704C111.778 42.9186 111.082 43.1511 110.42 43.4629C109.68 43.7955 109.046 44.3238 108.584 44.991C108.234 45.5312 108.034 46.1555 108.006 46.7991L109.031 46.8559C109.048 46.4333 109.166 46.0211 109.376 45.6545C109.587 45.2879 109.883 44.9779 110.239 44.7511C110.783 44.368 111.579 44.0186 112.715 43.7681C113.385 43.6141 114.068 43.5323 114.755 43.524C115.292 43.5155 115.827 43.5865 116.343 43.7345C117.096 43.9533 117.758 44.4085 118.233 45.0331C118.75 45.7067 119.153 46.6749 119.344 48.0451C119.377 48.2766 119.394 48.5101 119.395 48.7439C119.407 49.5453 119.163 50.3295 118.698 50.9813C118.361 51.44 117.945 51.8343 117.469 52.1453C116.738 52.6245 115.934 52.98 115.089 53.1977C114.412 53.3853 113.714 53.4878 113.012 53.5029C112.904 53.5029 112.802 53.5029 112.726 53.4924C112.472 53.4713 112.161 53.4713 111.789 53.4713C111.14 53.4713 110.319 53.4713 109.445 53.3935C108.779 53.3397 108.12 53.2249 107.475 53.0504C107.004 52.923 106.55 52.7407 106.122 52.5073C105.499 52.1766 104.975 51.6836 104.608 51.0803C104.18 50.3177 103.971 49.4517 104.003 48.5776C104.005 48.1691 104.035 47.7612 104.093 47.3568C104.215 46.2982 104.574 45.2809 105.143 44.3806C105.492 43.8519 105.931 43.3894 106.441 43.0146C107.153 42.5052 107.96 42.1431 108.813 41.9496C109.574 41.7714 110.353 41.6838 111.134 41.6886C111.578 41.6884 112.022 41.7137 112.463 41.7643C112.625 41.7833 112.751 41.8043 112.837 41.817L112.934 41.8338H112.955L113.165 40.8256V40.8445Z" fill="#231F20"/>
<path d="M95.4727 55.7635L95.1618 55.8561L95.4727 55.7656L95.1618 55.8582L95.4727 55.7677C95.4735 55.7544 95.4735 55.7411 95.4727 55.7277C95.3096 55.0539 95.2292 54.3626 95.2332 53.6692C95.2282 52.9977 95.3101 52.3284 95.4769 51.6781C95.7698 50.5072 96.4046 49.4504 97.3001 48.6429C98.3125 47.7273 99.8206 46.9591 102.091 46.5549L101.898 45.4225C100.498 45.637 99.1464 46.0988 97.9071 46.7865C96.5395 47.5493 95.4499 48.7289 94.7963 50.1542C94.3118 51.2611 94.0669 52.4584 94.078 53.6671C94.0723 54.4828 94.1726 55.2958 94.3763 56.0856L95.4769 55.7635H95.4727Z" fill="#231F20"/>
<path d="M101.503 44.5743L103.247 45.6519L102.169 47.399" fill="#231F20"/>
<path d="M95.5254 58.2556L94.2861 59.889L92.6541 58.645" fill="#231F20"/>
<path d="M25.4417 110.255C25.4417 110.255 21.2408 73.2672 34.9651 71.5665C48.6895 69.8658 60.2735 69.6596 67.7091 70.613C73.6471 71.375 79.7699 86.9864 80.6605 100.598C81.0029 105.822 77.0351 110.255 72.0192 110.255H25.4417Z" fill="#2F3841"/>
<path d="M25.4419 110.255L25.7885 110.215L25.7633 109.977C25.6477 108.87 25.1835 104.059 25.1835 98.203C25.1835 92.7305 25.5889 86.3676 27.0424 81.2655C27.7692 78.7166 28.7564 76.4876 30.0629 74.85C30.6751 74.0631 31.421 73.3904 32.2663 72.8631C33.0987 72.3556 34.0296 72.032 34.9969 71.9138C43.3735 70.8782 50.9477 70.3962 57.2617 70.3983C60.7357 70.3685 64.2082 70.5562 67.6589 70.9603C68.41 71.0814 69.1198 71.3857 69.7258 71.8464C70.9566 72.7242 72.2022 74.2207 73.3722 76.1592C75.1302 79.0681 76.7224 82.9662 77.9428 87.2453C79.1942 91.6091 79.9862 96.0923 80.3058 100.621C80.3205 100.832 80.3268 101.026 80.3268 101.226C80.337 103.505 79.4695 105.7 77.9049 107.355C77.149 108.158 76.2376 108.799 75.2264 109.237C74.2153 109.676 73.1255 109.903 72.0237 109.906H25.4419V110.255L25.7885 110.215L25.4419 110.255V110.605H72.0237C73.2202 110.603 74.4038 110.356 75.502 109.88C76.6003 109.404 77.5901 108.709 78.4111 107.837C80.103 106.054 81.0428 103.686 81.0346 101.226C81.0346 101.015 81.0346 100.805 81.0136 100.575C80.5641 93.7261 78.8039 86.3929 76.4031 80.6509C75.2017 77.7799 73.8406 75.3089 72.3891 73.4945C71.7417 72.6585 70.9826 71.9155 70.1333 71.2866C69.4345 70.757 68.6152 70.4098 67.7493 70.2763C64.2694 69.8675 60.7674 69.677 57.2638 69.7058C50.9183 69.7058 43.3189 70.19 34.917 71.2276C33.8483 71.3592 32.82 71.718 31.9008 72.28C30.3255 73.2377 29.0841 74.7532 28.1032 76.616C26.6329 79.4112 25.7318 83.0062 25.194 86.8054C24.6951 90.5886 24.4571 94.4017 24.482 98.2177C24.4793 102.256 24.6826 106.292 25.0911 110.31L25.1268 110.619H25.4377L25.4419 110.255Z" fill="#231F20"/>
<path d="M27.3235 65.1026L7.15917 67.9652C6.21159 68.0997 5.24948 67.8515 4.48451 67.2752C3.71953 66.6989 3.21435 65.8417 3.08009 64.8921L0.223471 44.6859C0.156699 44.2155 0.183068 43.7366 0.301068 43.2765C0.419068 42.8164 0.626384 42.3841 0.911176 42.0043C1.19597 41.6245 1.55265 41.3047 1.96084 41.0631C2.36903 40.8214 2.82074 40.6628 3.29014 40.5962L23.4545 37.7336C23.9238 37.6671 24.4017 37.6938 24.8607 37.8123C25.3198 37.9308 25.751 38.1388 26.1298 38.4244C26.5086 38.7099 26.8276 39.0675 27.0684 39.4766C27.3093 39.8858 27.4674 40.3384 27.5336 40.8088L30.3902 61.0151C30.5244 61.9646 30.2768 62.9287 29.7017 63.6953C29.1266 64.4618 28.2711 64.9681 27.3235 65.1026Z" fill="#EE4947"/>
<path d="M27.3237 65.1026L27.2459 64.5596L7.08158 67.4221C6.93824 67.4423 6.79363 67.4522 6.64888 67.4516C5.91181 67.4516 5.19955 67.1847 4.64334 66.7001C4.08714 66.2154 3.72446 65.5457 3.62213 64.8142L0.765509 44.608C0.651603 43.8025 0.861524 42.9846 1.34913 42.3342C1.83674 41.6838 2.56214 41.2539 3.36587 41.1392L23.5302 38.2767C23.9284 38.2199 24.3339 38.2423 24.7235 38.3427C25.113 38.443 25.479 38.6194 25.8005 38.8616C26.122 39.1038 26.3927 39.4071 26.5971 39.7542C26.8015 40.1014 26.9356 40.4854 26.9918 40.8845L29.8484 61.0908C29.9599 61.8953 29.7485 62.7112 29.2607 63.3599C28.7729 64.0085 28.0484 64.4369 27.2459 64.5511L27.3237 65.0942L27.4014 65.6372C28.3913 65.4955 29.2972 65.0011 29.953 64.2446C30.6088 63.4881 30.9706 62.5202 30.9721 61.5181C30.9727 61.3209 30.9587 61.1239 30.9301 60.9287L28.0735 40.7225C27.9321 39.7305 27.4387 38.8227 26.6838 38.1656C25.9289 37.5084 24.9629 37.1459 23.9629 37.1443C23.7662 37.1448 23.5696 37.1588 23.3748 37.1864L3.21044 40.0489C2.22049 40.1906 1.31464 40.685 0.658852 41.4415C0.00305846 42.198 -0.358768 43.166 -0.360335 44.1681C-0.360907 44.3653 -0.346866 44.5623 -0.318326 44.7574L2.53829 64.9637C2.67971 65.9557 3.17307 66.8634 3.928 67.5206C4.68294 68.1777 5.64889 68.5403 6.64888 68.5419C6.84565 68.5413 7.04216 68.5273 7.23701 68.4998L27.4014 65.6372L27.3237 65.1026Z" fill="#231F20"/>
<path d="M62.1259 59.7627C61.7353 64.6038 58.4123 67.4053 56.1291 68.0578C53.8459 68.7103 50.4936 68.384 50.4936 68.384L50.3613 69.7564L56.7656 70.0595C55.9674 71.375 54.5013 73.1978 53.136 73.9702C49.0926 76.2582 44.1776 76.3571 39.9683 74.3912C36.5508 72.7978 35.1372 71.7833 35.1372 71.7833L41.4092 70.392L43.0895 64.7238C43.0069 64.6674 42.9277 64.6063 42.8522 64.5406C42.0498 63.8608 39.4662 61.1729 39.2436 54.7322C38.9831 47.0917 46.8703 45.0016 46.8703 45.0016L46.7212 45.0458L47.6517 44.8058H47.7462L48.0424 44.9953H52.4092C60.2397 45.6815 62.0041 50.933 62.2352 55.5531C62.2902 56.9572 62.2537 58.3634 62.1259 59.7627Z" fill="white"/>
<path d="M62.1262 59.7626L61.6935 59.729C61.5546 61.738 60.789 63.6524 59.5048 65.2015C58.9904 65.816 58.3938 66.3564 57.732 66.8075C57.2049 67.1745 56.6247 67.4585 56.0117 67.6494C54.9405 67.9567 53.5563 68.0409 52.4536 68.0388C51.9012 68.0388 51.4202 68.0198 51.0778 67.9988C50.9055 67.9988 50.769 67.9798 50.6766 67.9714H50.5695H50.5359L50.1032 67.9293L49.8931 70.1878L56.7511 70.5141L56.7721 70.0784L56.4024 69.8531C55.9452 70.5951 55.4244 71.2959 54.846 71.9474C54.2963 72.5976 53.6494 73.1585 52.9283 73.6102C50.8763 74.7663 48.5609 75.371 46.2068 75.3657C44.1188 75.3631 42.0566 74.9041 40.1638 74.0207C38.4646 73.2293 37.2673 72.581 36.4985 72.1369C36.1141 71.9138 35.8369 71.7391 35.6583 71.6233L35.4609 71.4928L35.4147 71.4612L35.1626 71.8148L35.2551 72.2358L41.777 70.7898L43.6044 64.5511L43.3313 64.3743L43.1843 64.6016L43.3334 64.3743L43.1864 64.6016L43.3355 64.3743C43.3229 64.3743 43.2536 64.3175 43.1444 64.2249C42.781 63.9176 41.9765 63.124 41.2308 61.6212C40.4852 60.1184 39.7983 57.902 39.6891 54.7342C39.6891 54.6149 39.6891 54.4971 39.6891 54.3806C39.6617 52.8546 40.0495 51.3498 40.8108 50.0278C41.8295 48.2893 43.3733 47.1316 44.6714 46.4139C45.2032 46.1187 45.7556 45.8627 46.3244 45.6477C46.5345 45.5677 46.7025 45.513 46.8181 45.4772L46.9483 45.4372H46.9798L46.8706 45.0163L46.7487 44.5953L46.5996 44.6374L46.8286 45.4793L47.6918 45.2562H47.7149L47.7465 44.8226L47.5196 45.1868L47.9229 45.4435H52.4158V45.01L52.378 45.4435C54.2894 45.6098 55.8101 46.0539 57.0221 46.6854C58.6534 47.5193 59.9517 48.8864 60.7021 50.5604C61.4267 52.1242 61.7229 53.8923 61.8069 55.5888C61.8258 55.9719 61.8342 56.3507 61.8342 56.7233C61.8342 57.8115 61.7649 58.8281 61.6935 59.7332L62.1262 59.7668L62.5589 59.8026C62.6303 58.9018 62.7017 57.8472 62.7017 56.7233C62.7017 56.3381 62.7017 55.9445 62.6744 55.5467C62.5568 53.1914 62.0442 50.6382 60.5277 48.5566C59.7117 47.4459 58.6488 46.5408 57.4232 45.9129C56.0937 45.2225 54.4574 44.7511 52.4536 44.5764H48.1749L47.8935 44.3953L47.6834 44.3806H47.612L46.6122 44.6374L46.7214 45.0584L46.8433 45.4793L46.9903 45.4351L46.7592 44.5932C45.3329 45.0258 43.9919 45.7022 42.7957 46.5928C41.6944 47.4011 40.7659 48.4224 40.0651 49.5964C39.2213 51.0462 38.7857 52.6982 38.8048 54.3764C38.8048 54.5027 38.8048 54.6311 38.8048 54.7595C38.9161 58.0388 39.6324 60.3857 40.4369 62.0043C41.2413 63.6229 42.1172 64.5111 42.5667 64.8837C42.6561 64.9596 42.7501 65.0299 42.8482 65.0941L43.0834 64.73L42.6634 64.6058L41.0649 70.0236L34.0935 71.5707L34.8833 72.139C34.9085 72.1558 36.3536 73.1914 39.7857 74.7868C41.7906 75.7246 43.9754 76.2131 46.1879 76.2181C48.6893 76.2216 51.1492 75.5778 53.3295 74.349C54.1344 73.8515 54.856 73.23 55.4677 72.5073C56.0813 71.8165 56.6337 71.0735 57.1187 70.2867L57.4968 69.6553L50.8194 69.3396L50.9055 68.4219L50.4749 68.3798L50.4329 68.8134C50.4329 68.8134 51.2899 68.8976 52.4347 68.8976C53.5794 68.8976 55.0182 68.8176 56.2302 68.4766C56.9311 68.2636 57.5949 67.9434 58.1983 67.5273C59.3335 66.7512 60.2913 65.7425 61.0087 64.5679C61.8903 63.1227 62.4152 61.4876 62.54 59.7984L62.1262 59.7626Z" fill="#231F20"/>
<path d="M43.7998 56.9738C43.9353 57.2965 44.1156 57.5983 44.3354 57.8704C44.8402 58.5161 45.493 59.0302 46.2384 59.3691L46.6018 58.5798C45.9825 58.2985 45.44 57.8718 45.0202 57.3358C44.8975 57.1808 44.7885 57.0152 44.6946 56.8412C44.6631 56.7801 44.64 56.7317 44.6253 56.7002L44.6127 56.6686L44.4888 56.7191L44.6148 56.6707L44.4909 56.7212L44.6169 56.6728L43.7998 56.9738Z" fill="#231F20"/>
<path d="M49.3658 53.8018L49.349 53.7155L49.3658 53.8018L49.349 53.7155L49.3658 53.8018C50.4072 53.6233 51.4745 53.6678 52.4976 53.9323C53.1945 54.1118 53.8411 54.4487 54.388 54.9174L54.9593 54.2628C54.3153 53.7085 53.554 53.3083 52.7328 53.0925C52.0525 52.9108 51.3511 52.8209 50.6471 52.8252C50.1612 52.821 49.6759 52.8626 49.1978 52.9494L49.37 53.8018H49.3658Z" fill="#231F20"/>
<path d="M62.2269 52.8989C62.2269 52.8989 62.105 52.8989 61.9139 52.8989C60.6591 52.8928 59.417 53.1502 58.2675 53.6545C57.4015 54.0348 56.6712 54.6697 56.1735 55.4752C55.6757 56.2808 55.4339 57.2188 55.4802 58.1652C55.492 58.9915 55.6135 59.8125 55.8415 60.6068L56.6817 60.3773C56.4739 59.6579 56.3623 58.914 56.3498 58.1652C56.3185 57.3059 56.5588 56.4588 57.0366 55.7446C57.3435 55.3185 57.7346 54.9603 58.1856 54.6922C58.8397 54.3116 59.5569 54.052 60.3029 53.9261C60.835 53.8279 61.3749 53.7778 61.916 53.7766H62.1743L62.229 52.9094L62.2269 52.8989Z" fill="#231F20"/>
<path d="M54.2809 62.2022L54.2935 62.3053V62.2022L54.3061 62.3053V62.2022C54.3061 62.2022 54.2368 62.2022 54.1402 62.2022C53.8527 62.2046 53.5675 62.1517 53.3 62.0464C53.1488 61.9843 53.0106 61.8943 52.8925 61.7812C52.7604 61.6523 52.661 61.4935 52.6026 61.3182L51.7834 61.6086C51.888 61.9088 52.0597 62.1809 52.2855 62.4043C52.5723 62.6743 52.9228 62.8669 53.3042 62.9641C53.5783 63.037 53.8608 63.0731 54.1444 63.0715C54.2313 63.0725 54.3183 63.0683 54.4048 63.0589L54.3082 62.1959L54.2809 62.2022Z" fill="#231F20"/>
<path d="M60.7018 56.9043C60.7018 57.1271 60.6359 57.3448 60.5124 57.53C60.389 57.7151 60.2135 57.8595 60.0081 57.9447C59.8028 58.0299 59.5768 58.0522 59.3589 58.0088C59.1409 57.9653 58.9406 57.8581 58.7835 57.7006C58.6263 57.5431 58.5193 57.3425 58.4759 57.124C58.4326 56.9056 58.4548 56.6792 58.5399 56.4734C58.6249 56.2676 58.769 56.0918 58.9538 55.968C59.1386 55.8443 59.3558 55.7783 59.5781 55.7783C59.7257 55.778 59.872 55.8069 60.0085 55.8634C60.1449 55.9199 60.2689 56.0028 60.3733 56.1075C60.4777 56.2121 60.5605 56.3363 60.6169 56.4731C60.6732 56.6098 60.7021 56.7564 60.7018 56.9043Z" fill="#231F20"/>
<path d="M52.882 56.8265C52.882 57.0492 52.8161 57.2669 52.6926 57.4521C52.5691 57.6373 52.3936 57.7816 52.1883 57.8668C51.983 57.952 51.757 57.9743 51.539 57.9309C51.321 57.8874 51.1208 57.7802 50.9637 57.6227C50.8065 57.4652 50.6995 57.2646 50.6561 57.0461C50.6128 56.8277 50.635 56.6013 50.7201 56.3955C50.8051 56.1898 50.9491 56.0139 51.1339 55.8902C51.3187 55.7664 51.536 55.7004 51.7583 55.7004C52.0563 55.7004 52.3421 55.819 52.5529 56.0302C52.7636 56.2414 52.882 56.5278 52.882 56.8265Z" fill="#231F20"/>
<path d="M60.4857 49.2597C60.4857 49.2597 64.9954 47.2012 59.383 40.3857C53.7705 33.5703 56.9401 43.3704 54.5645 41.8591C52.1889 40.3479 50.5316 37.4685 48.0531 38.9818C45.5746 40.4952 48.3178 42.7705 44.5411 43.4146C40.7645 44.0587 39.6345 43.3093 39.2018 44.4986C38.7691 45.6878 38.2314 47.8515 37.1517 48.3925C36.0721 48.9334 36.5027 63.9682 43.1948 66.7802C43.1948 66.7802 43.9509 62.3453 43.4048 60.9393C42.8587 59.5333 40.5335 57.8137 42.3294 55.0984C44.4151 51.9412 46.1102 55.2058 46.1102 55.2058C46.1102 55.2058 46.44 48.9482 50.9706 49.7648C55.5559 50.5899 57.7593 50.4594 60.4857 49.2597Z" fill="#231F20"/>
<path d="M2.82812 45.2538L26.3301 62.2165L27.0149 61.2652L3.51077 44.3024" fill="white"/>
<path d="M6.93231 65.378L23.8599 41.8272L22.9105 41.1411L5.98291 64.694" fill="white"/>
<path d="M112.056 65.814L111.703 66.1845L116.095 70.411L116.274 70.2257L116.45 70.0405L112.056 65.814ZM107.294 61.2339L106.939 61.6044L111.334 65.8288L111.686 65.4583L107.294 61.2339Z" fill="white"/>
<path d="M115.904 61.0656L111.688 65.4667L111.333 65.8372L107.116 70.2405L107.301 70.4173L107.485 70.5962L111.701 66.1929L112.056 65.8224L116.274 61.4213L115.904 61.0656Z" fill="white"/>
<path d="M104.112 82.5368L102.48 83.0462L117.734 87.4095L117.864 86.9569L117.992 86.5044L104.129 82.5368M87.2244 77.6957L86.9661 78.6008L100.829 82.5705L102.47 82.0611L87.216 77.6957" fill="white"/>
<path d="M117.097 77.5168L102.461 82.0632L100.821 82.5726L87.5583 86.6917L87.697 87.1421L87.8356 87.5926L102.472 83.0461L104.112 82.5368L117.374 78.4155L117.236 77.9672L117.097 77.5168Z" fill="white"/>
<path d="M14.6811 76.096L13.7212 67.5126L17.9893 67.0327C18.6745 65.9571 19.7028 65.1455 20.9068 64.73C20.9068 64.73 20.8417 60.2762 23.293 60.3415C25.7442 60.4067 24.8116 64.9721 24.8116 64.9721L25.9878 76.5275C26.1454 78.0577 25.2296 79.4069 23.9357 79.5522L18.9387 80.112C16.8593 80.3373 14.9563 78.546 14.6811 76.096Z" fill="white"/>
<path d="M14.6809 76.0961L15.0212 76.0582L14.0991 67.8157L18.1992 67.3547L18.2874 67.2053L18.2265 67.1716L18.2853 67.2053L18.2244 67.1716L18.2832 67.2053C18.4849 66.8884 18.7209 66.5947 18.9868 66.3297C19.5484 65.751 20.2418 65.3176 21.0075 65.0668L21.2532 64.9889V64.73V64.7027C21.2565 63.9409 21.3567 63.1827 21.5515 62.4463C21.6701 61.9855 21.8849 61.555 22.1816 61.1834C22.3084 61.0306 22.4649 60.9052 22.6416 60.8151C22.8276 60.7229 23.0328 60.6767 23.2403 60.6804H23.2823C23.5179 60.6802 23.7478 60.7538 23.9397 60.8908C24.0704 60.9916 24.1797 61.1175 24.2611 61.2613C24.4095 61.5286 24.5097 61.82 24.5572 62.1222C24.6144 62.4636 24.6418 62.8094 24.6392 63.1556C24.6377 63.5653 24.6103 63.9744 24.5572 64.3806C24.5362 64.5406 24.5152 64.6732 24.5005 64.7637L24.4816 64.8669V64.8921V64.9447L25.6642 76.5507C25.6743 76.6521 25.6792 76.754 25.6789 76.8559C25.6866 77.4318 25.5059 77.9945 25.1643 78.4577C25.0165 78.6615 24.8282 78.8325 24.6113 78.96C24.3945 79.0875 24.1537 79.1687 23.904 79.1986L18.907 79.7606C18.7996 79.7725 18.6916 79.7781 18.5835 79.7774C18.1455 79.768 17.7139 79.6699 17.3147 79.489C16.9155 79.3082 16.5569 79.0483 16.2604 78.725C15.5691 77.9915 15.1392 77.0494 15.038 76.0455L14.6977 76.0834L14.3553 76.1213C14.4738 77.2774 14.9709 78.3617 15.7689 79.2049C16.1292 79.5942 16.5642 79.9067 17.0478 80.1237C17.5314 80.3407 18.0538 80.4577 18.5835 80.4678C18.7169 80.4681 18.8501 80.4611 18.9826 80.4467L23.9796 79.8847C24.3192 79.8427 24.6466 79.7318 24.942 79.5588C25.2374 79.3858 25.4945 79.1544 25.6978 78.8786C26.1323 78.2956 26.3633 77.5856 26.3552 76.858C26.3552 76.7338 26.3552 76.6096 26.3363 76.4834L25.1601 64.9279L24.8177 64.9637L25.1538 65.031C25.2709 64.4113 25.3306 63.7821 25.3323 63.1514C25.355 62.4605 25.2342 61.7724 24.9773 61.1308C24.8378 60.8159 24.621 60.5414 24.3472 60.3331C24.0413 60.1122 23.674 59.993 23.297 59.9921V60.3352L23.3096 59.9921H23.2445C22.9311 59.9906 22.6218 60.0627 22.3413 60.2026C21.8941 60.4419 21.5317 60.8139 21.3036 61.2676C20.9722 61.9268 20.7589 62.6393 20.6735 63.3724C20.612 63.814 20.579 64.259 20.5748 64.7048C20.5748 64.73 20.5748 64.7448 20.5748 64.7469H20.9172L20.8142 64.4185C19.9295 64.7107 19.1302 65.2167 18.4869 65.8919C18.1896 66.1912 17.9268 66.523 17.7035 66.8812L17.9996 67.0538L17.9618 66.7128L13.3513 67.2306L14.349 76.155L14.6809 76.0961Z" fill="#231F20"/>
<path d="M81.3327 84.8942C80.6245 84.718 80.015 84.2677 79.6374 83.642C79.2599 83.0164 79.1451 82.2662 79.3184 81.556C80.4547 76.898 84.6472 61.4339 85.2836 60.2489C86.1385 58.6576 91.2846 56.3487 92.8453 56.9127C94.4059 57.4768 93.8955 60.1247 92.8453 61.4339C91.7951 62.7431 95.6662 62.0653 95.641 63.3493C95.6436 64.0628 95.4673 64.7655 95.1285 65.3931C95.1285 65.3931 95.8258 65.1973 95.5717 65.9677C95.3175 66.738 93.8598 67.3926 93.8598 67.3926L89.9719 81.5665C89.6271 82.9375 88.7543 84.1157 87.5445 84.8431C86.3347 85.5706 84.8866 85.788 83.5172 85.4478L81.3327 84.8942Z" fill="white"/>
<path d="M81.3325 84.8942L81.406 84.6038C80.775 84.4459 80.2318 84.0444 79.895 83.4869C79.5582 82.9294 79.455 82.261 79.608 81.6275C80.1751 79.3122 81.4984 74.2733 82.7755 69.6806C83.4056 67.3821 84.0358 65.1931 84.5294 63.5071C84.7772 62.6652 84.9978 61.9475 85.1742 61.4023C85.2624 61.1329 85.3402 60.9056 85.4032 60.7309C85.444 60.6138 85.4917 60.4992 85.546 60.3878C85.6503 60.2081 85.7797 60.0444 85.9304 59.9016C86.3218 59.5306 86.7537 59.2051 87.218 58.9313C88.0609 58.4223 88.9516 57.9972 89.8771 57.6621C90.7866 57.3274 91.6604 57.1232 92.2549 57.1253C92.4249 57.1199 92.5946 57.1434 92.7569 57.1948C93.0161 57.2826 93.2309 57.4684 93.3555 57.7126C93.4942 57.9995 93.5613 58.3159 93.5508 58.6345C93.542 59.1086 93.4525 59.5777 93.2862 60.0216C93.1281 60.4642 92.8989 60.878 92.6077 61.2466C92.5362 61.3313 92.4755 61.4246 92.4271 61.5244C92.3815 61.619 92.3571 61.7225 92.3557 61.8275C92.3557 61.9237 92.3795 62.0185 92.425 62.1032C92.5065 62.2408 92.6272 62.3507 92.7716 62.419C93.0297 62.5334 93.3015 62.614 93.5802 62.6589C94.0136 62.7264 94.4422 62.8213 94.8636 62.9431C95.0016 62.9839 95.1302 63.0519 95.2417 63.143C95.271 63.1684 95.2952 63.1991 95.3131 63.2335C95.3287 63.2656 95.3359 63.301 95.3341 63.3367V63.3493H95.6345H95.3341C95.3269 63.8265 95.2447 64.2996 95.0905 64.7511C95.0471 64.8763 94.9959 64.9986 94.9371 65.1173C94.9182 65.1594 94.9014 65.1889 94.8909 65.2078L94.8783 65.2268L94.9392 65.2626L94.8783 65.2268L94.9392 65.2626L94.8783 65.2268L94.4582 65.8856L95.2039 65.6751L95.1724 65.5615L95.2018 65.6772L95.1703 65.5636L95.1997 65.6793C95.2313 65.6712 95.2637 65.6669 95.2963 65.6667H95.3404L95.3635 65.6141L95.3173 65.6435L95.3404 65.6667L95.3635 65.6141L95.3173 65.6435L95.3572 65.6183L95.3131 65.6372L95.353 65.612L95.3089 65.6309H95.3215H95.3383H95.3509H95.3383C95.339 65.6407 95.339 65.6506 95.3383 65.6604C95.3345 65.7279 95.3211 65.7945 95.2984 65.8582C95.2303 66.0195 95.127 66.1634 94.9959 66.2792C94.754 66.5071 94.4844 66.7037 94.1936 66.8643C94.0654 66.9401 93.952 66.999 93.8722 67.039L93.7777 67.0853H93.7546L93.6264 67.1422L89.7028 81.4549C89.3789 82.7497 88.5555 83.8627 87.4135 84.5497C86.2715 85.2367 84.9041 85.4416 83.6115 85.1194L81.4228 84.5764L81.3493 84.8669L81.2653 85.1784L83.456 85.7214C84.1721 85.9011 84.9165 85.9376 85.6467 85.8288C86.3768 85.7201 87.0784 85.4682 87.7114 85.0876C88.3444 84.707 88.8963 84.2052 89.3357 83.6108C89.7751 83.0164 90.0932 82.341 90.272 81.6233L89.9822 81.5497L90.2699 81.6296L94.1579 67.4558L93.8701 67.3758L93.9919 67.6494C94.2698 67.5195 94.538 67.3697 94.7943 67.2011C95.0196 67.0583 95.2306 66.894 95.4244 66.7107C95.6241 66.5272 95.778 66.2994 95.8739 66.0456C95.9169 65.9208 95.941 65.7902 95.9454 65.6583C95.947 65.5608 95.9262 65.4643 95.8844 65.3762C95.8283 65.2543 95.7275 65.1586 95.603 65.1089C95.5135 65.0728 95.418 65.0542 95.3215 65.0542C95.2349 65.0552 95.1488 65.0672 95.0653 65.09L95.1283 65.3931L95.3803 65.553C95.7447 64.8822 95.934 64.1299 95.9306 63.3661V63.3535C95.9285 63.153 95.8538 62.9601 95.7206 62.8104C95.6159 62.6894 95.488 62.5907 95.3446 62.52C95.0837 62.3967 94.8085 62.3062 94.5254 62.2506C94.0906 62.1559 93.6369 62.0927 93.3156 62.0043C93.1965 61.9776 93.0823 61.9321 92.9774 61.8696C92.9623 61.8607 92.9488 61.8493 92.9375 61.8359H92.9228H92.9396H92.9249H92.9417H92.9249H92.9417H92.9249H92.9417C92.9452 61.8178 92.9509 61.8001 92.9585 61.7833C92.9867 61.7294 93.0205 61.6786 93.0593 61.6318C93.391 61.2117 93.6508 60.7394 93.8281 60.2342C94.0188 59.7249 94.1211 59.1867 94.1306 58.6429C94.1396 58.2266 94.0481 57.8143 93.8638 57.4411C93.6695 57.0651 93.3387 56.7781 92.9396 56.6391C92.7125 56.565 92.4747 56.5294 92.2359 56.5339C91.5858 56.5606 90.9426 56.6774 90.3245 56.8812C89.2116 57.2307 88.1408 57.7029 87.1318 58.2893C86.676 58.5515 86.242 58.85 85.8338 59.1817C85.499 59.4392 85.2143 59.7559 84.9936 60.1163C84.9268 60.2531 84.8679 60.3937 84.8171 60.5372C84.5651 61.2276 84.145 62.5979 83.6367 64.347C82.1139 69.5943 79.8055 78.2093 79.0031 81.4949C78.91 81.8857 78.8946 82.2909 78.958 82.6876C79.0213 83.0842 79.1621 83.4645 79.3722 83.8066C79.5823 84.1487 79.8576 84.4459 80.1824 84.6813C80.5073 84.9167 80.8752 85.0856 81.2653 85.1784L81.3325 84.8942Z" fill="#231F20"/>
<path d="M95.4286 62.6715C94.9996 62.7694 94.5783 62.8988 94.1683 63.0588C93.8241 63.1902 93.4947 63.3574 93.1853 63.5576C92.8762 63.7472 92.6266 64.0199 92.4648 64.3448L93.0131 64.5827C93.1309 64.3639 93.3059 64.1813 93.5193 64.0544C93.9271 63.7998 94.3663 63.5996 94.8258 63.4587C95.0358 63.3914 95.2185 63.3408 95.3488 63.3072L95.5 63.2693H95.5399H95.5483L95.4244 62.6841L95.4286 62.6715Z" fill="#231F20"/>
<path d="M95.1284 65.1342L93.5867 65.7699L93.8156 66.3213L95.3553 65.6857" fill="#231F20"/>
<path d="M79.7656 61.295C79.7656 61.295 78.9548 59.2891 81.8346 59.0386C84.7143 58.7881 97.3317 57.8367 97.3317 57.8367L100.564 60.4362L97.5313 62.6147C97.5313 62.6147 82.1097 63.6797 81.4334 63.3514C80.757 63.023 79.7656 61.295 79.7656 61.295Z" fill="white"/>
<path d="M79.7656 61.295L80.1122 61.1519L79.9652 61.2129L80.1122 61.154L79.9652 61.215L80.1122 61.1561C80.0603 61.0065 80.0333 60.8493 80.0324 60.6909C80.0313 60.5655 80.0519 60.4409 80.0933 60.3226C80.1758 60.0988 80.3332 59.9106 80.5386 59.7901C80.9458 59.5612 81.4016 59.4327 81.8682 59.4154C83.307 59.2849 87.1823 58.9944 90.6901 58.7166L95.3384 58.363L96.8087 58.2514L97.3569 58.2114L97.3296 57.8368L97.0944 58.1294L99.9426 60.4194L97.3107 62.3137L97.5208 62.6189L97.4956 62.2443L96.9915 62.278C95.8593 62.3558 92.9796 62.5453 89.9991 62.7179C87.0185 62.8905 83.9329 63.0441 82.4101 63.042C82.1413 63.042 81.9228 63.042 81.78 63.0294C81.7023 63.0294 81.6413 63.0294 81.6035 63.0125H81.5678L81.5195 63.1851L81.5972 63.0231L81.5678 63.0125L81.5195 63.1851L81.5972 63.0231C81.53 62.989 81.4679 62.9458 81.4124 62.8947C81.2506 62.7499 81.1022 62.5907 80.9692 62.419C80.7499 62.14 80.5452 61.8499 80.3559 61.5497C80.274 61.4234 80.2067 61.314 80.1605 61.2361L80.108 61.1477L80.0933 61.1245L79.7677 61.3118L80.1143 61.1687L79.7677 61.3118L79.4422 61.4992C79.4422 61.4992 79.6984 61.9433 80.0408 62.4337C80.2173 62.6872 80.408 62.9303 80.6121 63.162C80.7108 63.2714 80.816 63.3748 80.9272 63.4714C81.0319 63.5648 81.1484 63.6441 81.2738 63.7071C81.3119 63.7257 81.3521 63.7399 81.3935 63.7492C81.4552 63.7626 81.5176 63.7725 81.5804 63.7787C81.7905 63.7997 82.0593 63.8061 82.4206 63.8061C83.3154 63.8061 84.7017 63.7555 86.2876 63.6819C91.0409 63.4567 97.5544 63.0062 97.5565 63.0062H97.6636L101.184 60.4804L97.4515 57.4769L97.3023 57.4895C97.3023 57.4895 84.6996 58.4325 81.8031 58.6913C81.3851 58.7214 80.9735 58.8107 80.5806 58.9566C80.1551 59.1069 79.7905 59.3931 79.543 59.7711C79.369 60.0551 79.2794 60.383 79.2846 60.7162C79.2831 60.9714 79.3287 61.2248 79.4191 61.4634V61.4865L79.4317 61.5097L79.7656 61.295Z" fill="#231F20"/>
<path d="M84.1641 63.766L87.4954 63.4377C87.4954 63.4377 88.3104 59.9626 89.1757 59.6322C90.0411 59.3017 92.2718 59.0702 92.2907 60.2089C92.3096 61.3476 91.8433 63.223 91.8433 63.223L93.8682 67.3821" fill="white"/>
<path d="M84.1935 64.0649L87.7391 63.7092L87.7874 63.4987C87.7874 63.4987 87.7874 63.4861 87.7874 63.4608C87.8315 63.2756 88.0458 62.4084 88.344 61.5791C88.4796 61.1852 88.6453 60.8024 88.8397 60.4341C88.9112 60.2994 88.9964 60.1724 89.0939 60.0552C89.1418 59.9916 89.2036 59.9397 89.2745 59.9037C89.4939 59.8262 89.7195 59.7678 89.9488 59.729C90.2263 59.6804 90.5073 59.655 90.789 59.6532C91.0968 59.6405 91.4038 59.6928 91.6901 59.8069C91.7721 59.846 91.844 59.9036 91.9001 59.9753C91.9475 60.0429 91.9719 60.1241 91.9694 60.2068C91.9694 60.2278 91.9694 60.2489 91.9694 60.2699C91.9506 60.89 91.8803 61.5074 91.7594 62.1159C91.7048 62.4084 91.648 62.6673 91.6081 62.8525C91.5871 62.943 91.5703 63.0167 91.5577 63.063L91.5388 63.1409L91.5136 63.2461L93.5805 67.5021L94.1182 67.2411L92.0975 63.082L91.8287 63.2125L92.1185 63.284C92.1185 63.284 92.232 62.8252 92.3454 62.2316C92.4778 61.5869 92.5544 60.932 92.5744 60.2741V60.2026C92.5732 59.9962 92.5079 59.7953 92.3874 59.628C92.2072 59.4021 91.9577 59.2423 91.6775 59.1733C91.3866 59.0941 91.0861 59.0565 90.7848 59.0618C90.4672 59.0636 90.1504 59.0918 89.8375 59.146C89.5706 59.193 89.3085 59.2634 89.054 59.3564C88.8787 59.4318 88.726 59.5514 88.6108 59.7037C88.3772 60.0099 88.1858 60.3462 88.0416 60.7035C87.8027 61.2796 87.5979 61.8692 87.4282 62.4695C87.2791 62.9915 87.1888 63.3703 87.1888 63.3745L87.4786 63.4419L87.4492 63.1451L84.1179 63.4735L84.1767 64.0691L84.1935 64.0649Z" fill="#231F20"/>
<path d="M25.324 71.817L14.3386 73.0798C14.3386 73.0798 10.8561 107.216 18.4471 114.048C26.0382 120.88 32.5349 115.067 34.5072 111.411C36.4795 107.755 40.7266 100.137 40.7266 100.137L30.0143 87.2474L25.324 71.817Z" fill="#2F3841"/>
<path d="M81.9375 70.0468L92.9228 71.3097C92.9228 71.3097 96.4054 105.446 88.8143 112.276C81.2233 119.106 74.7266 113.295 72.7543 109.643C70.7819 105.991 66.5432 98.3693 66.5432 98.3693L77.2555 85.4794L81.9375 70.0468Z" fill="#2F3841"/>
<path d="M14.3784 73.425L25.0697 72.1979L33.4715 101.796L34.1437 101.604L25.578 71.436L14.2986 72.7304L14.3784 73.425Z" fill="#231F20"/>
<path d="M92.6666 70.9624L81.3871 69.6658L72.4014 101.322L73.0735 101.514L81.8975 70.4299L92.5867 71.657L92.6666 70.9624Z" fill="#231F20"/>
</g>
<defs>
<clipPath id="clip0_2240_1095">
<rect width="128" height="128" fill="white" transform="translate(0 2)"/>
</clipPath>
</defs>
</svg>
