<svg width="130" height="130" viewBox="0 0 130 130" fill="none" xmlns="http://www.w3.org/2000/svg">
<g clip-path="url(#clip0_2179_1450)">
<path d="M58.8588 62.5769V69.0848C58.7686 65.8983 53.5923 63.5322 53.5923 63.5322L51.9128 64.2606C51.9128 64.2606 50.8681 69.9956 50.8681 70.5875C50.8681 71.1794 55.3177 79.144 55.772 79.8264C56.2263 80.5088 62.9459 82.329 63.8989 82.329C64.8519 82.329 72.2981 80.6452 73.4331 80.0088C74.5681 79.3724 78.6537 73.4995 79.2441 72.5442C79.8346 71.5888 80.1068 61.985 78.2453 61.939C76.3837 61.893 74.2499 64.3971 74.2499 64.3971C72.9776 65.4782 72.0644 66.9225 71.6322 68.5374L71.7521 59.8014C71.7521 59.8014 70.6644 60.4081 71.6322 59.1917C72.6 57.9753 74.1744 54.4595 74.1744 54.4595C74.1744 54.4595 79.4409 54.636 80.2296 50.334C80.6928 47.7988 79.3314 46.5023 78.6567 45.9267C78.4419 45.736 78.1948 45.5853 77.9271 45.4817C77.9271 45.4817 77.5646 43.663 77.4447 37.4711C77.3249 31.2792 73.9332 28.1254 73.9332 28.1254C73.9332 28.1254 75.265 27.6418 75.3849 26.55C75.5047 25.4582 73.0898 26.0649 73.0898 26.0649C73.0898 26.0649 71.0299 22.6663 71.0299 24.9968C71.0299 27.3273 69.821 26.553 69.821 26.553C66.1852 24.2462 56.6244 24.7313 52.8672 26.553C49.1101 28.3746 44.9993 27.888 44.9993 27.888C44.9993 27.888 46.5767 31.1561 44.6368 34.0755C42.6968 36.9949 44.6368 39.1711 47.179 39.539C47.521 39.5875 47.8309 39.7673 48.0432 40.0404C49.4401 41.7241 48.6351 46.9414 48.6351 46.9414C48.9932 66.1179 67.0345 61.8619 67.0345 61.8619L58.8588 62.5769Z" fill="white"/>
<path d="M58.859 62.5769H58.3411V69.0848H58.859L59.3769 69.07C59.3593 68.6107 59.259 68.1584 59.081 67.7349C58.765 67.0068 58.3129 66.3462 57.7492 65.7886C56.9741 65.0204 56.1073 64.3513 55.1685 63.7963C54.7275 63.5252 54.2726 63.2776 53.8056 63.0546L53.5969 62.9582L51.4602 63.8927L51.4113 64.1657C51.4113 64.1657 51.1494 65.6017 50.8875 67.1118C50.7573 67.8669 50.6256 68.6412 50.5279 69.2658C50.4776 69.5788 50.4376 69.8591 50.408 70.0742C50.3932 70.186 50.3814 70.2849 50.3725 70.3709C50.3635 70.4448 50.3586 70.5191 50.3577 70.5934C50.3582 70.6332 50.3617 70.6729 50.3681 70.7121C50.3786 70.7683 50.3924 70.8238 50.4095 70.8783C50.4421 70.9791 50.485 71.0889 50.5397 71.2165C50.6418 71.4538 50.7839 71.755 50.957 72.1066C51.5667 73.3363 52.5685 75.1936 53.4652 76.8165C53.9092 77.6264 54.3354 78.3786 54.6683 78.9616C54.834 79.2582 54.979 79.503 55.093 79.7033L55.241 79.954C55.2839 80.0237 55.3164 80.0786 55.3475 80.1231C55.3895 80.1846 55.4393 80.2404 55.4955 80.2892C55.5866 80.3696 55.6857 80.4402 55.7914 80.4999C56.0354 80.6348 56.288 80.7532 56.5476 80.8544C57.07 81.068 57.7314 81.2995 58.4447 81.5205C59.516 81.8572 60.7058 82.188 61.7076 82.4358C62.2077 82.5604 62.6605 82.6627 63.0305 82.7325C63.2154 82.7681 63.3812 82.7977 63.5232 82.8185C63.6485 82.8391 63.7751 82.8505 63.9021 82.8526C64.006 82.8511 64.1097 82.8437 64.2128 82.8304C64.4333 82.8051 64.7189 82.7592 65.0622 82.6983C66.2593 82.4818 68.146 82.0679 69.8626 81.6407C70.7208 81.427 71.5347 81.209 72.2006 81.0117C72.5321 80.9123 72.828 80.8173 73.0766 80.7283C73.2009 80.6838 73.3134 80.6393 73.414 80.5978C73.5082 80.5591 73.6001 80.515 73.6892 80.4658C73.8053 80.398 73.9148 80.3196 74.0163 80.2314C74.2509 80.0255 74.4723 79.805 74.6792 79.5712C75.1024 79.104 75.5908 78.5047 76.0983 77.849C76.8604 76.8669 77.6624 75.7721 78.318 74.8302C78.648 74.3629 78.9409 73.9401 79.1762 73.593C79.4115 73.2458 79.5861 72.9833 79.6853 72.8216C79.7493 72.7143 79.799 72.5991 79.8332 72.4789C79.9039 72.2304 79.9564 71.977 79.9901 71.7209C80.0582 71.2758 80.1114 70.721 80.1484 70.1024C80.1854 69.4838 80.2062 68.8 80.2062 68.0968C80.2062 66.6238 80.1159 65.0721 79.8806 63.8438C79.8263 63.5541 79.7571 63.2674 79.6734 62.9849C79.5724 62.6195 79.4114 62.2736 79.1969 61.9613C79.0908 61.8157 78.9589 61.691 78.8078 61.5934C78.6443 61.4886 78.4556 61.4302 78.2617 61.4243H78.1981C77.6284 61.4438 77.0711 61.5962 76.5704 61.8693C75.8751 62.2396 75.2338 62.7038 74.6644 63.2489C74.3817 63.5078 74.1134 63.7822 73.8609 64.0707L74.2486 64.3971L73.9127 64.001C72.9716 64.8093 72.2087 65.805 71.6723 66.9249C71.4343 67.4054 71.2502 67.9109 71.1233 68.4321L71.6309 68.5374L72.1488 68.5448L72.282 58.9128L71.5007 59.3475L71.6398 59.5996L71.5007 59.3475L71.6398 59.5996L71.5007 59.3475L71.4666 59.3653C71.4257 59.3858 71.3837 59.4041 71.3409 59.4201L71.2965 59.435L71.3305 59.6071V59.4335H71.2965L71.3305 59.6056V59.7895L71.4193 59.4439C71.3903 59.4363 71.3605 59.4323 71.3305 59.432V59.7895L71.4193 59.4439L71.3127 59.8578L71.5317 59.4914C71.4968 59.4701 71.4589 59.4541 71.4193 59.4439L71.3127 59.8578L71.5317 59.4914L71.3024 59.8874L71.7049 59.6827C71.666 59.6074 71.6071 59.5442 71.5347 59.5003L71.3024 59.8874L71.7049 59.6827L71.329 59.8741H71.7522C71.7515 59.8075 71.7353 59.7419 71.7049 59.6827L71.329 59.8741H71.437L71.7478 59.9423C71.7504 59.9196 71.7504 59.8967 71.7478 59.8741H71.437L71.7478 59.9423L71.5998 59.9112L71.7374 59.9601V59.9423L71.5895 59.9112L71.7271 59.9601C71.7493 59.913 71.7756 59.8678 71.8055 59.8251C71.8543 59.7495 71.9268 59.6501 72.026 59.5284C72.1754 59.3378 72.3152 59.1398 72.4448 58.9351C72.6934 58.5464 72.9523 58.0895 73.2024 57.6207C73.9541 56.2144 74.6348 54.6924 74.6378 54.6865L74.1643 54.4743L74.148 54.9935H74.2516C75.3338 54.9832 76.4053 54.7761 77.4138 54.3824C78.1823 54.0823 78.8772 53.6198 79.4515 53.0265C80.121 52.3089 80.5651 51.4097 80.7285 50.4409C80.7957 50.0808 80.8298 49.7153 80.8306 49.349C80.8476 48.4625 80.6114 47.5896 80.1499 46.8331C79.8357 46.3409 79.4462 45.9014 78.9957 45.5307C78.7311 45.2931 78.4244 45.1075 78.0916 44.9833L77.9317 45.4773L78.4408 45.3749L78.2307 45.4179L78.4408 45.3764L78.2307 45.4194L78.4408 45.3779C78.4408 45.369 78.0842 43.5339 77.9658 37.4592C77.9051 34.2698 76.998 31.8459 76.1013 30.223C75.2045 28.6001 74.3256 27.7709 74.29 27.7427L73.9379 28.1224L74.1154 28.6105C74.4041 28.4987 74.6768 28.349 74.9263 28.1655C75.1585 27.9957 75.3632 27.7911 75.533 27.5587C75.7357 27.2787 75.8636 26.9514 75.9045 26.6079C75.9045 26.5633 75.9119 26.5188 75.9119 26.4743C75.9122 26.3698 75.8967 26.2657 75.866 26.1658C75.8145 25.9938 75.7161 25.8397 75.5819 25.7207C75.4936 25.6429 75.3937 25.5793 75.2859 25.5324C75.14 25.469 74.9862 25.4256 74.8287 25.4033C74.6788 25.3812 74.5274 25.3708 74.3759 25.3721C74.0533 25.3758 73.7316 25.4061 73.414 25.4626C73.1521 25.5086 72.9701 25.5531 72.9701 25.5546L73.0959 26.059L73.5398 25.789C73.5398 25.7801 73.2438 25.2995 72.865 24.801C72.6763 24.5472 72.4675 24.3091 72.2406 24.089C72.1298 23.9825 72.0077 23.8885 71.8765 23.8086C71.8062 23.7662 71.7319 23.7309 71.6546 23.7033C71.5634 23.6726 71.4681 23.6566 71.3719 23.6558C71.2935 23.6545 71.2155 23.6665 71.1411 23.6914C71.007 23.7343 70.8876 23.814 70.7963 23.9213C70.7352 23.9924 70.6853 24.0725 70.6483 24.1587C70.5964 24.2814 70.5616 24.4107 70.5447 24.5429C70.5238 24.6903 70.514 24.8391 70.5151 24.9879C70.519 25.2366 70.4981 25.4851 70.453 25.7297C70.4341 25.8318 70.4034 25.9314 70.3612 26.0263C70.3139 26.1198 70.2843 26.1376 70.2769 26.142C70.2695 26.1465 70.2769 26.142 70.2488 26.142C70.2116 26.1407 70.1751 26.1326 70.1408 26.1183L70.1008 26.099L69.9795 26.3052L70.1082 26.1035H70.1008L69.9795 26.3097L70.1082 26.1079C69.1641 25.5146 67.9255 25.114 66.5242 24.8515C65.0193 24.5886 63.494 24.4616 61.9665 24.4717C60.2237 24.4711 58.4837 24.6125 56.7637 24.8945C55.999 25.0203 55.2417 25.1877 54.4952 25.3959C53.8592 25.5696 53.2394 25.7979 52.6425 26.0783C51.5335 26.6037 50.3573 26.9726 49.1473 27.1745C48.2084 27.3368 47.2574 27.4182 46.3046 27.4178C45.9125 27.4178 45.5973 27.4045 45.3827 27.3896C45.2747 27.3896 45.1919 27.3763 45.1371 27.3718H45.0764H45.0602L45.0528 27.4267L45.0602 27.3718L45.0528 27.4267L45.0602 27.3718L44.1235 27.2621L44.5334 28.1135L44.5511 28.1046L44.5319 28.1135L44.5496 28.1046L44.5304 28.1135C44.8925 28.9602 45.0808 29.8714 45.0838 30.7926C45.0855 31.2894 45.0218 31.7842 44.8944 32.2642C44.7498 32.8031 44.5184 33.3147 44.2093 33.7788C43.6174 34.6689 43.3347 35.5397 43.3347 36.3467C43.3326 36.835 43.4398 37.3176 43.6485 37.7589C43.9623 38.3946 44.4485 38.9288 45.0513 39.3002C45.6778 39.6896 46.3792 39.9423 47.1096 40.0419C47.21 40.0558 47.3066 40.0896 47.3938 40.1413C47.4899 40.2008 47.5755 40.276 47.6468 40.3638C47.7816 40.5358 47.8885 40.7281 47.9635 40.9335C48.1139 41.3536 48.2133 41.7904 48.2594 42.2344C48.319 42.7465 48.3477 43.2617 48.3452 43.7772C48.3452 44.5783 48.2875 45.3526 48.2313 45.9223C48.2017 46.2071 48.1736 46.4415 48.1529 46.6047C48.1425 46.6848 48.1336 46.753 48.1262 46.7901C48.1188 46.8272 48.1262 46.8272 48.1262 46.8376V46.8524V46.8969V46.9429C48.1899 50.3207 48.7951 53.0117 49.7673 55.1493C50.4205 56.6141 51.3455 57.9412 52.493 59.0597C53.9883 60.4747 55.802 61.5072 57.7803 62.0696C59.47 62.5531 61.22 62.7924 62.9772 62.7801C64.3847 62.7885 65.7893 62.6493 67.1679 62.3648L66.9977 61.3457L58.3514 62.1007V62.5769H58.859L58.9049 63.0932L67.0776 62.3796L67.0318 61.8619L66.9134 61.3575V61.3724V61.3575V61.3724V61.3575C65.6127 61.6227 64.2882 61.7525 62.9609 61.7447C61.5017 61.7526 60.0471 61.5807 58.6296 61.2329C57.4467 60.9412 56.3108 60.4832 55.2558 59.8726C53.4647 58.8214 52.0067 57.2837 51.0503 55.4371C49.9464 53.3603 49.2183 50.5981 49.1488 46.9236L48.6308 46.934L49.1428 47.0141C49.298 45.943 49.3801 44.8625 49.3885 43.7802C49.3972 43.0391 49.3382 42.2987 49.2124 41.5684C49.1509 41.2242 49.0578 40.8866 48.9342 40.5596C48.8198 40.2493 48.6559 39.9598 48.4488 39.7022C48.3018 39.5257 48.1262 39.3753 47.9294 39.2572C47.7237 39.1341 47.4951 39.0544 47.2576 39.0228C46.4929 38.9272 45.7728 38.6096 45.1859 38.109C44.9387 37.8876 44.7375 37.6194 44.594 37.3198C44.4502 37.0184 44.3769 36.6881 44.3795 36.3541C44.3795 35.7918 44.5733 35.1258 45.0809 34.3618C45.4548 33.8004 45.7347 33.1816 45.9095 32.5298C46.0606 31.9617 46.1362 31.3761 46.1345 30.7882C46.1312 30.0379 46.0226 29.2919 45.8119 28.5719C45.7246 28.2592 45.6133 27.9537 45.4789 27.6581L45.0128 27.8836L44.9521 28.3998C45.4061 28.4437 45.8619 28.464 46.318 28.4607C47.3302 28.461 48.3406 28.3746 49.3382 28.2026C50.6427 27.9833 51.9105 27.5839 53.1057 27.0158C53.6483 26.762 54.2117 26.5555 54.7896 26.3987C56.7444 25.8424 59.3991 25.5086 61.9798 25.5086C63.4409 25.4979 64.8999 25.619 66.3392 25.8706C67.6577 26.1139 68.7897 26.4936 69.5563 26.9832C69.6242 27.0247 69.6955 27.0604 69.7693 27.09C69.9254 27.1535 70.0922 27.1867 70.2606 27.1879C70.4396 27.1892 70.616 27.1459 70.7741 27.0618C70.9107 26.9877 71.0309 26.8868 71.1278 26.7651C71.2879 26.553 71.4 26.3085 71.4563 26.0486C71.5332 25.7015 71.5689 25.3464 71.5628 24.9909C71.5619 24.8917 71.5679 24.7926 71.5806 24.6942C71.579 24.6566 71.5805 24.6189 71.585 24.5815V24.5696L71.4045 24.4747L71.514 24.6408C71.5431 24.6232 71.5675 24.5988 71.585 24.5696L71.4045 24.4747L71.514 24.6408L71.3557 24.4005V24.6898C71.4122 24.69 71.4674 24.673 71.514 24.6408L71.3557 24.4005V24.5325L71.3039 24.6809C71.321 24.6832 71.3385 24.6832 71.3557 24.6809V24.5236L71.3039 24.672C71.3452 24.693 71.384 24.7189 71.4193 24.7491C71.5596 24.8682 71.6889 24.9997 71.8055 25.1422C72.0108 25.3919 72.2034 25.6519 72.3826 25.921C72.461 26.0367 72.5306 26.1361 72.5691 26.2058L72.6209 26.2859L72.6327 26.3067L72.8295 26.6346L73.2009 26.5411C73.2113 26.5411 73.3711 26.4996 73.5945 26.4625C73.8471 26.417 74.103 26.3926 74.3596 26.3898C74.4586 26.389 74.5575 26.3955 74.6555 26.4091C74.7083 26.4167 74.7603 26.4291 74.8109 26.4462C74.8297 26.4533 74.848 26.4617 74.8657 26.4714L74.916 26.4209L74.8509 26.4476L74.8657 26.4714L74.916 26.4209L74.8509 26.4476L74.9012 26.4269L74.8464 26.4373V26.4476L74.8967 26.4269L74.842 26.4373V26.4654C74.8367 26.6391 74.7851 26.8081 74.6925 26.955C74.5319 27.1645 74.3305 27.3391 74.1006 27.4682C74.0186 27.517 73.9341 27.5616 73.8476 27.6018L73.7766 27.6314H73.7618L73.8491 27.8658L73.7632 27.6314L73.8505 27.8658L73.7647 27.6314L72.9686 27.9207L73.5901 28.4992L73.7973 28.2738L73.5886 28.4978L73.7958 28.2723L73.5871 28.4963L73.596 28.5052C73.6878 28.5942 74.4972 29.3952 75.2948 30.898C76.0924 32.4007 76.8767 34.5888 76.9344 37.4741C77.0557 43.6823 77.4183 45.5247 77.4271 45.5752L77.4863 45.8718L77.7823 45.9653L77.88 45.6686L77.7764 45.9653L77.874 45.6686L77.7705 45.9653L77.7793 45.9386L77.7705 45.9653L77.7793 45.9386L77.7705 45.9653C77.9752 46.0511 78.1642 46.1704 78.3298 46.3184C78.6989 46.62 79.0185 46.978 79.2769 47.379C79.6384 47.9649 79.8248 48.6424 79.814 49.3312C79.8122 49.638 79.782 49.9439 79.7237 50.245C79.5978 51.0166 79.246 51.7333 78.7131 52.3041C78.3594 52.6724 77.9455 52.9774 77.4893 53.206C76.8636 53.5144 76.1951 53.7264 75.5064 53.835C75.0966 53.9046 74.682 53.9418 74.2664 53.9462H74.1953V54.0946V53.9462V54.0946V53.9462L73.8491 53.9359L73.7011 54.2533L73.6833 54.2919C73.5975 54.4818 73.195 55.3659 72.7052 56.3375C72.4596 56.8226 72.1932 57.33 71.9342 57.7809C71.724 58.1612 71.4871 58.5261 71.2254 58.8727C71.0949 59.0322 70.9757 59.2008 70.8688 59.3771C70.828 59.4472 70.7934 59.5206 70.7652 59.5967C70.7303 59.6839 70.7122 59.7771 70.712 59.8711C70.7111 59.9557 70.7278 60.0395 70.7608 60.1174C70.7903 60.1863 70.8331 60.2488 70.8866 60.3013C70.9557 60.3701 71.0405 60.421 71.1337 60.4496C71.1971 60.4684 71.2629 60.4779 71.329 60.4778C71.424 60.4765 71.5183 60.461 71.6087 60.4319C71.7017 60.403 71.7922 60.3668 71.8795 60.3236C71.949 60.2909 71.9964 60.2642 72.0023 60.2613L71.7507 59.8073H71.2328L71.113 68.5448L72.137 68.6576L71.9224 68.613L72.137 68.659L71.9224 68.6145L72.137 68.6605C72.2513 68.2089 72.4146 67.7712 72.6238 67.3551C73.0959 66.3796 73.7633 65.5121 74.5845 64.8065L74.6156 64.7813L74.6422 64.7487L74.5179 64.6419L74.6422 64.7487L74.5179 64.6419L74.6422 64.7487C75.0194 64.3241 75.4302 63.9307 75.8704 63.5723C76.2318 63.2732 76.6237 63.0132 77.0394 62.7965C77.3947 62.6022 77.7894 62.4916 78.1937 62.4731H78.244C78.2878 62.4995 78.3257 62.5349 78.355 62.5769C78.5133 62.8126 78.6294 63.0742 78.6983 63.3498C78.8834 64.0498 79.0042 64.7653 79.0593 65.4874C79.1363 66.3182 79.1703 67.226 79.1703 68.1057C79.1703 69.1441 79.123 70.144 79.046 70.9243C79.0075 71.3114 78.9617 71.6452 78.9128 71.8915C78.8944 71.9915 78.8707 72.0906 78.8418 72.1881C78.8341 72.2159 78.8247 72.2431 78.8137 72.2697L78.8063 72.2875L78.8699 72.3217L78.8092 72.2846L78.8729 72.3187L78.8122 72.2816C78.7456 72.3884 78.6184 72.5783 78.4497 72.8334C77.8578 73.7102 76.7509 75.2915 75.6721 76.7126C75.1335 77.4232 74.6023 78.0952 74.1509 78.6144C73.926 78.874 73.7203 79.0965 73.5502 79.2627C73.4643 79.3458 73.3874 79.411 73.3237 79.4674C73.2816 79.5043 73.236 79.5371 73.1876 79.5653C73.115 79.6045 73.0399 79.6387 72.9627 79.6677C72.7659 79.7478 72.4803 79.8457 72.1384 79.9525C70.9384 80.3234 69.0413 80.7966 67.3603 81.1719C66.5183 81.3603 65.7325 81.5249 65.1066 81.6407C64.7958 81.6985 64.5265 81.7445 64.3149 81.7756C64.2098 81.792 64.1196 81.8038 64.0486 81.8112C63.9995 81.8175 63.95 81.8204 63.9006 81.8201C63.8416 81.8193 63.7828 81.8143 63.7245 81.8053C63.5573 81.7831 63.3057 81.7371 63.0053 81.6733C61.9473 81.4493 60.2648 81.0043 58.8191 80.5518C58.0954 80.3248 57.4281 80.0949 56.9338 79.8932C56.732 79.814 56.5344 79.7244 56.3419 79.6246C56.2907 79.5971 56.2413 79.5664 56.1939 79.5327C56.1866 79.5279 56.1796 79.5224 56.1732 79.5164L56.0445 79.6514L56.1925 79.549C56.1762 79.5253 56.1673 79.5178 56.1673 79.5164L56.0386 79.6514L56.1865 79.549C56.1673 79.5208 56.1244 79.4526 56.0696 79.3591C55.8595 79.009 55.4541 78.2999 54.9672 77.4306C54.2377 76.1282 53.3232 74.4638 52.5996 73.0752C52.2341 72.381 51.9159 71.7565 51.6925 71.2877C51.58 71.0533 51.4912 70.8575 51.435 70.7181C51.4069 70.6483 51.3877 70.5934 51.3773 70.5623V70.543L51.1228 70.6009H51.3817C51.3848 70.5817 51.3848 70.5622 51.3817 70.543L51.1272 70.6009H51.3862C51.3862 70.6009 51.3862 70.5504 51.3951 70.4852C51.4084 70.3605 51.435 70.1632 51.4705 69.9214C51.5948 69.0774 51.8331 67.6844 52.0402 66.5095C52.1438 65.9161 52.2385 65.3851 52.3095 64.9964C52.3436 64.8036 52.3717 64.6463 52.3924 64.5365L52.422 64.3689L51.913 64.2755L52.1187 64.7516L53.7982 64.0233L53.5925 63.5471L53.3839 64.004C54.2865 64.4397 55.1436 64.9645 55.9424 65.5705C56.5709 66.0374 57.1317 66.5896 57.6086 67.2112C57.8231 67.4979 58.0011 67.8104 58.1384 68.1413C58.2635 68.4454 58.3336 68.7694 58.3455 69.0981L59.3814 69.0833V62.5769H58.859L58.9049 63.0932L58.859 62.5769Z" fill="#231F20"/>
<path d="M78.6597 45.9267C77.2983 46.9043 75.6365 47.8255 75.0239 48.5124C73.9881 49.665 74.4794 39.0436 72.4225 38.1372C70.3656 37.2308 74.4794 33.1587 70.9679 34.617C67.4564 36.0752 52.3834 34.433 51.0531 34.617C49.9862 34.7653 48.5612 38.5525 48.0433 40.0345C47.831 39.7613 47.5211 39.5816 47.1791 39.5331C44.6369 39.1652 42.6984 36.983 44.6369 34.0696C46.5754 31.1561 44.9994 27.8792 44.9994 27.8792C44.9994 27.8792 49.1146 28.3642 52.8673 26.5441C56.62 24.7239 66.1853 24.2373 69.821 26.5441C69.821 26.5441 71.03 27.3199 71.03 24.9879C71.03 22.6559 73.0898 26.056 73.0898 26.056C73.0898 26.056 75.5078 25.4493 75.3879 26.5441C75.2681 27.6388 73.9363 28.1195 73.9363 28.1195C73.9363 28.1195 77.3264 31.2762 77.4478 37.4652C77.5691 43.6541 77.9302 45.4758 77.9302 45.4758C78.1983 45.5811 78.4454 45.7339 78.6597 45.9267Z" fill="#231F20"/>
<path d="M99.776 58.7867C99.776 58.7867 109.227 57.4338 111.528 60.7152C111.528 60.7152 95.8428 42.4481 96.818 40.5062C96.818 40.5062 93.5491 40.9913 92.0353 39.7779C90.5215 38.5644 85.1959 33.7091 82.7128 32.9214C80.2297 32.1337 80.2919 28.8553 83.318 28.612C86.3441 28.3687 89.8571 32.3132 92.3446 32.1322C94.8321 31.9512 94.7122 30.0687 94.7122 30.0687C94.7122 30.0687 91.0128 29.0303 90.6562 25.6985C90.2996 22.3667 92.352 21.2081 92.352 21.2081C92.352 21.2081 87.8727 19.1446 84.9665 20.6622C82.0602 22.1798 79.2753 20.8447 79.1554 18.9622C79.0356 17.0797 81.9389 15.2536 86.7822 15.3218C91.6254 15.39 96.1047 17.8095 97.074 18.3554C98.0432 18.9013 99.0716 18.9622 99.9787 19.8122C100.886 20.6622 103.067 20.723 104.035 22.1857C105.003 23.6484 107.734 24.491 108.152 25.7044C108.569 26.9179 108.514 30.2571 111.178 32.9273C113.841 35.5975 129.444 54.0352 129.024 61.1958C128.603 68.3564 124.888 75.3716 103.529 78.1456L99.776 58.7867Z" fill="white"/>
<path d="M13.0163 16.7757L26.0775 15.8598L38.8775 18.2149L41.0979 23.0561V28.1589L41.0639 28.2088C39.7825 30.0915 38.3526 31.8687 36.7877 33.5234L23.4653 35.2243L17.0653 35.7477L10.5347 33.5234L9.88159 24.6262L13.0163 16.7757Z" fill="#EE4947"/>
<path d="M99.7761 58.7867L99.8486 59.2941C101.237 59.1153 102.636 59.0246 104.036 59.0226C105.421 59.0226 106.947 59.125 108.245 59.4365C108.846 59.57 109.427 59.7798 109.975 60.061C110.418 60.2834 110.803 60.6059 111.101 61.003L111.524 60.7063L111.916 60.3666L111.756 60.1841C110.948 59.2377 107.304 54.9476 103.868 50.5744C102.15 48.3878 100.483 46.1804 99.2553 44.3662C98.7278 43.6054 98.2393 42.8181 97.7918 42.0075C97.6458 41.739 97.5168 41.4615 97.4055 41.1768C97.3697 41.0829 97.3401 40.9868 97.3168 40.889C97.3034 40.835 97.2955 40.7799 97.2931 40.7243V40.7036L97.1658 40.6828L97.2798 40.7406C97.2866 40.7293 97.2911 40.7167 97.2931 40.7036L97.1658 40.6828L97.2798 40.7406L97.7311 39.8506L96.7426 39.9989C96.2715 40.0597 95.797 40.0899 95.322 40.0894C94.7783 40.0941 94.2355 40.0444 93.7017 39.9411C93.4454 39.8891 93.1943 39.8141 92.9514 39.7171C92.7392 39.633 92.5399 39.5191 92.3595 39.3788C91.9955 39.0822 91.3755 38.554 90.6252 37.9162C89.4962 36.9564 88.0608 35.7518 86.6639 34.7075C85.9669 34.1838 85.2774 33.7017 84.6366 33.3056C84.0836 32.9464 83.4907 32.6531 82.8698 32.4319C82.4444 32.3071 82.0687 32.0519 81.7955 31.702C81.578 31.4242 81.4584 31.082 81.4551 30.7289C81.4544 30.5382 81.4922 30.3494 81.5662 30.1737C81.6402 29.9981 81.7489 29.8392 81.8857 29.7068C82.053 29.5444 82.2499 29.416 82.4658 29.3285C82.7489 29.2131 83.0487 29.1439 83.3537 29.1238C83.4291 29.1238 83.5016 29.1149 83.583 29.1149C84.2001 29.1149 84.8852 29.3077 85.6 29.6237C86.6728 30.094 87.8019 30.8298 88.8998 31.4632C89.4282 31.7779 89.9775 32.056 90.5439 32.2954C91.0588 32.5182 91.611 32.6415 92.1716 32.6588C92.2397 32.6588 92.3092 32.6588 92.3773 32.6514C92.9101 32.6249 93.4314 32.4864 93.9074 32.245C94.1813 32.0998 94.4265 31.9058 94.631 31.6723C94.8659 31.4009 95.0368 31.08 95.1311 30.7333C95.1885 30.5311 95.2184 30.322 95.2199 30.1118C95.2199 30.0732 95.2199 30.048 95.2199 30.0391L95.1977 29.6697L94.8411 29.5703L94.7686 29.8314L94.8426 29.5703L94.7701 29.8314L94.8441 29.5703L94.8056 29.5584C94.1287 29.3339 93.4922 29.0018 92.9204 28.5749C92.4774 28.247 92.0935 27.8457 91.7854 27.3882C91.4411 26.8663 91.2274 26.2689 91.1624 25.6466C91.1366 25.4101 91.1233 25.1724 91.1225 24.9345C91.1161 24.4 91.1986 23.868 91.3666 23.3606C91.5312 22.8622 91.8036 22.4063 92.1642 22.0255C92.2652 21.9181 92.3746 21.8189 92.4912 21.7288C92.5297 21.6992 92.5608 21.6799 92.5785 21.668L92.5978 21.6561L92.4498 21.4025L92.5978 21.6591L92.4498 21.4054L92.5978 21.6621L93.4856 21.1636L92.5593 20.7364C92.0498 20.5123 91.5269 20.3201 90.9937 20.1608C89.8712 19.8027 88.7029 19.6088 87.5251 19.5853C86.5521 19.5614 85.5877 19.7731 84.7136 20.2024C84.0064 20.5827 83.218 20.7863 82.4155 20.7957C81.7098 20.8109 81.0172 20.6034 80.4356 20.2024C80.2123 20.0435 80.0227 19.8418 79.8777 19.609C79.7506 19.4011 79.6755 19.1654 79.6587 18.9222C79.6587 18.894 79.6587 18.8673 79.6587 18.842C79.6593 18.6764 79.6909 18.5124 79.7519 18.3584C79.9019 18.0111 80.134 17.7056 80.4282 17.4684C80.9431 17.0233 81.7348 16.608 82.7677 16.3113C83.9937 15.9768 85.2602 15.8146 86.5307 15.8292H86.7601C89.0966 15.8574 91.3755 16.4626 93.1852 17.1316C94.4325 17.5914 95.6422 18.1479 96.8033 18.7961C97.3005 19.0509 97.8165 19.2671 98.3467 19.4428C98.5745 19.5256 98.7961 19.6247 99.0096 19.7395C99.2243 19.859 99.4231 20.0051 99.6015 20.1742C99.9085 20.4397 100.259 20.65 100.637 20.7957C101.195 21.0316 101.798 21.217 102.327 21.4663C102.581 21.5822 102.823 21.7239 103.048 21.889C103.257 22.044 103.439 22.2337 103.585 22.4498C103.891 22.8811 104.266 23.259 104.695 23.5683C105.33 24.0504 106.04 24.4584 106.608 24.847C106.859 25.0128 107.096 25.1989 107.317 25.4033C107.396 25.479 107.469 25.5614 107.535 25.6496C107.58 25.712 107.617 25.7803 107.644 25.8528C107.695 26.0115 107.736 26.173 107.768 26.3364C107.841 26.6895 107.916 27.1508 108.02 27.6715C108.193 28.5949 108.464 29.4971 108.829 30.3625C109.296 31.4523 109.964 32.4435 110.799 33.2834C111.113 33.5979 111.635 34.1631 112.299 34.9152C115.831 38.958 119.134 43.1959 122.193 47.609C123.935 50.1516 125.529 52.7284 126.678 55.0499C127.21 56.0976 127.664 57.1835 128.035 58.2987C128.353 59.2896 128.522 60.1767 128.521 60.9021C128.521 60.9926 128.521 61.0801 128.513 61.1662C128.41 62.9181 128.106 64.6345 127.398 66.2692C126.822 67.5847 126.011 68.7833 125.005 69.8058C123.368 71.4969 120.98 73.0693 117.496 74.4044C114.013 75.7395 109.441 76.8536 103.462 77.6309L103.529 78.1457L104.036 78.0463L100.284 58.6873L99.7761 58.7867L99.8486 59.2941L99.7761 58.7808L99.2671 58.8802L103.115 78.7168L103.595 78.6545C108.961 77.9573 113.232 76.993 116.634 75.8182C119.185 74.937 121.249 73.9372 122.917 72.8409C125.419 71.1957 127.031 69.3236 128.029 67.3403C129.028 65.3569 129.42 63.2786 129.542 61.2211C129.542 61.1157 129.551 61.0075 129.551 60.8977C129.551 59.8889 129.295 58.7556 128.861 57.5184C128.102 55.357 126.789 52.8782 125.202 50.3222C122.834 46.489 119.849 42.4881 117.248 39.2231C115.946 37.5913 114.732 36.1434 113.747 34.9938C113.251 34.4197 112.81 33.9198 112.436 33.5103C112.061 33.1009 111.758 32.7686 111.533 32.5476C110.956 31.9701 110.468 31.309 110.087 30.5865C109.619 29.6754 109.283 28.7025 109.087 27.6967C108.994 27.2517 108.924 26.8482 108.856 26.4833C108.803 26.1567 108.726 25.8344 108.627 25.519C108.547 25.3022 108.429 25.1013 108.279 24.9256C108.006 24.6145 107.693 24.3402 107.35 24.1098C106.821 23.7374 106.223 23.3873 105.692 23.0209C105.439 22.849 105.197 22.6617 104.967 22.4602C104.772 22.2922 104.599 22.0998 104.452 21.8876C104.172 21.4771 103.807 21.1308 103.384 20.8714C102.783 20.4946 102.135 20.278 101.574 20.0614C101.294 19.9561 101.035 19.8567 100.821 19.7514C100.639 19.6698 100.469 19.5613 100.319 19.4295C100.076 19.2032 99.8071 19.0075 99.5172 18.8465C99.1402 18.6471 98.7477 18.4784 98.3437 18.3421C97.9866 18.2231 97.6401 18.0743 97.3079 17.8971C96.099 17.222 94.8393 16.6427 93.5404 16.1644C91.6581 15.4687 89.2757 14.8293 86.7704 14.7967H86.5307C84.1631 14.7967 82.2394 15.2417 80.8691 15.9404C80.2448 16.2437 79.6904 16.6741 79.2414 17.2043C79.0491 17.4396 78.8943 17.7033 78.7827 17.9861C78.6753 18.2597 78.6196 18.551 78.6184 18.845C78.6184 18.8954 78.6184 18.9449 78.6184 18.9934C78.6462 19.4023 78.7716 19.7986 78.9839 20.149C79.3189 20.6844 79.8002 21.1122 80.3704 21.3817C81.0066 21.6873 81.7042 21.8426 82.4096 21.8356C83.3836 21.8259 84.3407 21.5795 85.1989 21.1176C85.9241 20.7678 86.7222 20.5969 87.5266 20.6192C88.602 20.6431 89.6684 20.8215 90.6933 21.1488C91.1284 21.2823 91.4909 21.4158 91.7425 21.5152C91.8682 21.5642 91.9674 21.6057 92.0384 21.6339L92.1124 21.6665H92.1302L92.1775 21.5612L92.1302 21.6665L92.1775 21.5612L92.1302 21.6665L92.3462 21.1948L92.0932 20.7423C91.6872 20.9949 91.3351 21.3257 91.0573 21.7155C90.7684 22.1087 90.5422 22.5446 90.387 23.0076C90.1836 23.6231 90.0836 24.2683 90.0911 24.9167C90.0916 25.1923 90.1069 25.4676 90.1369 25.7415C90.2263 26.5819 90.5289 27.3852 91.0159 28.075C91.6097 28.8873 92.3838 29.5501 93.277 30.0109C93.6886 30.2347 94.1213 30.4171 94.5688 30.5553L94.7079 30.0554L94.1915 30.0851L94.5156 30.0658L94.1915 30.0806L94.5156 30.0613L94.1915 30.0762V30.0925C94.1901 30.1924 94.1777 30.2919 94.1545 30.3892C94.1256 30.51 94.0813 30.6267 94.0228 30.7363C93.9046 30.9544 93.7297 31.1364 93.5167 31.2629C93.1471 31.4714 92.733 31.5879 92.3092 31.6026C92.2668 31.6026 92.2224 31.6026 92.1761 31.6026C91.9078 31.597 91.6417 31.553 91.3858 31.4721C90.7966 31.2753 90.2296 31.0168 89.6945 30.7007C88.777 30.1904 87.7871 29.5436 86.766 29.0155C86.2623 28.7539 85.7382 28.5336 85.1989 28.3569C84.6801 28.1801 84.1368 28.086 83.5889 28.078C83.4854 28.078 83.3803 28.078 83.2752 28.0898C82.8602 28.1187 82.4525 28.2144 82.0677 28.3732C81.5711 28.5741 81.1441 28.9165 80.8395 29.3582C80.567 29.7635 80.4221 30.2415 80.4237 30.7304C80.4272 31.3121 80.6222 31.8764 80.9786 32.3354C81.3811 32.8479 81.9315 33.2234 82.5546 33.4109C82.8873 33.5254 83.2088 33.6704 83.515 33.8441C84.2743 34.2745 85.0053 34.7531 85.7035 35.2771C86.8873 36.142 88.1363 37.167 89.215 38.0734C89.7551 38.5259 90.2509 38.9501 90.6756 39.3121C91.1003 39.674 91.4524 39.9722 91.7114 40.1784C91.9681 40.3811 92.2527 40.5454 92.5563 40.6665C93.0085 40.8457 93.4813 40.9673 93.9636 41.0284C94.4133 41.0895 94.8667 41.1192 95.3206 41.1174C95.8461 41.1184 96.3711 41.0842 96.8921 41.0151L96.8166 40.5018L96.3549 40.2674C96.2864 40.4082 96.2524 40.5633 96.2558 40.7199C96.2577 40.864 96.2766 41.0074 96.312 41.1471C96.3968 41.4597 96.5118 41.7633 96.6553 42.0535C97.0392 42.8221 97.4716 43.5654 97.9501 44.2787C98.9194 45.7621 100.225 47.5422 101.641 49.3965C105.888 54.9402 111.13 61.0475 111.135 61.052L111.95 60.4141C111.561 59.8848 111.055 59.4536 110.47 59.1546C109.583 58.677 108.513 58.3951 107.398 58.223C106.287 58.0622 105.165 57.9853 104.042 57.9931C102.592 57.9948 101.142 58.089 99.7036 58.275L99.165 58.3521L99.2686 58.8891L99.7761 58.7867Z" fill="#231F20"/>
<path d="M97.4973 18.1077C96.2432 18.4104 95.0328 18.8726 93.8955 19.4829C92.93 19.9881 92.0652 20.6669 91.3444 21.4855C90.9754 21.918 90.6758 22.4055 90.4566 22.9304C90.2225 23.4912 90.0956 24.091 90.0822 24.6987C90.0822 24.755 90.0822 24.8114 90.0822 24.8693C90.0624 25.8942 90.3055 26.9071 90.788 27.8109C91.0826 28.3435 91.4672 28.8208 91.9245 29.2217C92.4554 29.6838 93.0622 30.0502 93.718 30.3046C94.005 30.4218 94.3022 30.5122 94.6058 30.5746L94.7893 29.5525L94.7642 29.7008L94.7908 29.5525L94.7656 29.7008L94.7923 29.5525C94.5856 29.5084 94.3827 29.4478 94.1856 29.3715C93.448 29.1022 92.7847 28.6614 92.25 28.0854C91.9072 27.705 91.6373 27.2644 91.4539 26.7859C91.2238 26.1736 91.1099 25.5235 91.118 24.8693C91.118 24.8218 91.118 24.7728 91.118 24.7209C91.1284 24.2416 91.2288 23.7685 91.414 23.3265C91.7449 22.5734 92.2525 21.9118 92.8937 21.398C93.86 20.5836 95.0749 20.0021 96.0427 19.6372C96.528 19.4532 96.9498 19.3227 97.2487 19.2381C97.3967 19.1966 97.518 19.1654 97.5979 19.1461L97.6882 19.1239H97.7104L97.4899 18.1092L97.4973 18.1077Z" fill="#231F20"/>
<path d="M100.621 19.8077C99.4573 20.2115 98.3464 20.7544 97.3123 21.4247C96.4271 21.9838 95.643 22.6895 94.9935 23.5119C94.6621 23.9426 94.3949 24.4193 94.2004 24.9271C93.9977 25.4611 93.8934 26.0276 93.8926 26.5989C93.8926 26.7577 93.9015 26.9179 93.9177 27.0825C93.9975 28.0892 94.3904 29.0455 95.0409 29.8165C95.4631 30.3022 95.9719 30.7047 96.5414 31.0033C97.279 31.3831 98.0722 31.643 98.8912 31.7732C99.3802 31.8567 99.875 31.9003 100.371 31.9037H100.481L100.448 30.8653V30.9588V30.8653V30.9588V30.8653H100.371C100.003 30.8625 99.6347 30.8342 99.2701 30.7808C98.823 30.7175 98.3824 30.6152 97.9531 30.4752C97.2213 30.2527 96.5525 29.8597 96.0012 29.3285C95.717 29.0432 95.4837 28.711 95.3117 28.3464C95.1118 27.9152 94.9881 27.4524 94.9462 26.9787C94.9343 26.8511 94.9269 26.725 94.9269 26.6004C94.9281 26.1543 95.0098 25.712 95.1681 25.295C95.4631 24.5607 95.9181 23.9018 96.4999 23.3665C97.3878 22.5195 98.4976 21.8653 99.3899 21.438C99.8339 21.2229 100.225 21.0612 100.5 20.9544C100.637 20.8996 100.747 20.861 100.821 20.8343L100.904 20.8061L100.924 20.7987L100.608 19.8107L100.621 19.8077Z" fill="#231F20"/>
<path d="M104.337 22.2079C103.365 22.5098 102.435 22.9314 101.567 23.4629C100.823 23.9079 100.163 24.4803 99.6164 25.1541C99.3333 25.5132 99.1063 25.9134 98.9431 26.3408C98.7698 26.7919 98.681 27.2712 98.6812 27.7545C98.6939 28.4992 98.8756 29.2313 99.2124 29.8952C99.5806 30.7117 100.179 31.4026 100.933 31.883C101.568 32.2686 102.297 32.4694 103.039 32.463C103.739 32.4641 104.431 32.3053 105.06 31.9987C105.341 31.8629 105.603 31.693 105.842 31.4928C106.063 31.3104 106.251 31.0898 106.395 30.8416C106.56 30.5348 106.643 30.1903 106.636 29.8417C106.636 29.561 106.593 29.282 106.509 29.014C106.388 28.605 106.168 28.2321 105.87 27.9281C105.716 27.7721 105.536 27.6449 105.337 27.5528C105.126 27.4554 104.897 27.4048 104.665 27.4044C104.322 27.4095 103.986 27.509 103.695 27.6922C103.341 27.9146 103.029 28.1978 102.773 28.5289L103.576 29.1831C103.757 28.9496 103.976 28.7489 104.224 28.5897C104.356 28.5023 104.51 28.4536 104.668 28.4488C104.782 28.4495 104.893 28.483 104.988 28.5452C105.179 28.6774 105.33 28.8602 105.424 29.0733C105.54 29.3148 105.601 29.5786 105.604 29.8462C105.61 30.0164 105.573 30.1854 105.495 30.3372C105.41 30.478 105.302 30.6029 105.174 30.7066C104.9 30.9306 104.588 31.1048 104.254 31.2214C103.865 31.363 103.455 31.4363 103.042 31.4379C102.49 31.4391 101.948 31.2866 101.476 30.9973C100.891 30.6203 100.428 30.0799 100.145 29.4427C99.8761 28.9198 99.7299 28.3425 99.717 27.7545C99.7179 27.3995 99.7836 27.0475 99.9108 26.7161C100.15 26.1326 100.521 25.6126 100.994 25.1971C101.7 24.5768 102.499 24.0712 103.362 23.6988C103.729 23.5341 104.048 23.4125 104.275 23.3339C104.387 23.2938 104.477 23.2642 104.537 23.2449L104.605 23.2241H104.621L104.337 22.2079Z" fill="#231F20"/>
<path d="M48.6012 41.1248L48.5849 41.0833L48.6012 41.1248L48.5849 41.0833L48.6012 41.1248C49.3484 40.8464 50.139 40.7027 50.9362 40.7006C51.6757 40.6902 52.4086 40.8421 53.0834 41.1456C53.9205 41.5496 54.6254 42.1846 55.1151 42.9762C55.8021 44.0535 56.2903 45.2459 56.5564 46.4964C56.783 47.5392 56.8961 48.6037 56.8938 49.671C56.8938 50.2643 56.8597 50.7554 56.8272 51.0951C56.8094 51.2657 56.7931 51.3918 56.7813 51.4867C56.7813 51.5312 56.771 51.5653 56.7665 51.5861V51.6098L57.7876 51.7849C57.8913 51.0831 57.9408 50.3744 57.9355 49.665C57.9379 48.5219 57.8164 47.3818 57.573 46.265C57.2802 44.8918 56.7428 43.5827 55.9867 42.4006C55.3901 41.4514 54.5374 40.6911 53.5273 40.2081C52.7159 39.8381 51.8334 39.6513 50.9421 39.6607C50.0072 39.6615 49.0802 39.8324 48.2061 40.165L48.6086 41.1234L48.6012 41.1248Z" fill="#231F20"/>
<path d="M63.1607 41.1856L62.8648 41.0759L63.1607 41.1886L62.8648 41.0788L63.1607 41.1916C63.1741 41.1604 63.4567 40.4795 64.3046 39.8105C64.8327 39.4026 65.4275 39.0898 66.0626 38.8863C67.0057 38.5883 67.9905 38.4446 68.9792 38.4606C69.6575 38.4637 70.3349 38.5132 71.0065 38.6089L71.147 37.5794C70.4286 37.4805 69.7043 37.4309 68.9792 37.431C67.8497 37.4113 66.7249 37.5808 65.6512 37.9325C64.6043 38.272 63.6641 38.8801 62.924 39.6963C62.615 40.0281 62.3647 40.4104 62.1841 40.8267L63.1533 41.1931L63.1607 41.1856Z" fill="#231F20"/>
<path d="M58.3455 54.415C58.5975 54.5637 58.8625 54.6894 59.1371 54.7903C59.746 55.0254 60.3921 55.149 61.0446 55.1553C61.6246 55.1576 62.1993 55.0452 62.7359 54.8245C63.3881 54.5473 63.9723 54.1312 64.448 53.6051L63.6889 52.8975C63.3154 53.3141 62.8559 53.6441 62.3423 53.8647C61.9303 54.0329 61.4894 54.1186 61.0446 54.1169C60.5175 54.1115 59.9957 54.011 59.5041 53.8202C59.3465 53.7612 59.1924 53.6934 59.0424 53.6169C58.9906 53.5902 58.9507 53.568 58.9255 53.5531L58.8974 53.5368L58.7228 53.8216L58.8989 53.5383L58.7243 53.8231L58.9004 53.5398L58.3514 54.421L58.3455 54.415Z" fill="#231F20"/>
<path d="M76.943 48.4797L77.1591 48.5316L76.943 48.4753L77.1591 48.5272L76.943 48.4708C76.8474 48.7819 76.697 49.0732 76.4991 49.3312C76.0056 49.9736 75.3267 50.4481 74.5547 50.6901L74.8906 51.6721C75.446 51.4862 75.9673 51.2106 76.434 50.8562C76.9322 50.4801 77.347 50.0042 77.6518 49.4588C77.7848 49.2255 77.8877 48.9763 77.9582 48.7171L76.9504 48.4782L76.943 48.4797Z" fill="#231F20"/>
<path d="M48.3288 44.8423C48.0975 44.88 47.8691 44.9335 47.6451 45.0026C46.8103 45.2432 46.0404 45.6697 45.3929 46.2501C44.9759 46.6345 44.6389 47.0978 44.4014 47.6134C44.1248 48.2343 43.986 48.908 43.9945 49.5879C43.9993 50.0368 44.0488 50.484 44.1425 50.923C44.2531 51.5258 44.4525 52.1088 44.7344 52.6527C45.0139 53.2242 45.4506 53.7036 45.9932 54.0343C46.5357 54.365 47.1613 54.5331 47.796 54.5189C48.3021 54.513 48.8044 54.431 49.2862 54.2756C49.5049 54.2093 49.7182 54.126 49.9239 54.0263L49.4608 53.0992L49.5289 53.2357L49.4608 53.0977L49.5303 53.2342L49.4623 53.0962C49.2953 53.1748 49.1226 53.2408 48.9458 53.2935C48.5741 53.4112 48.1873 53.4736 47.7975 53.479C47.5354 53.481 47.2745 53.4435 47.0236 53.3677C46.6025 53.2374 46.2313 52.9812 45.9596 52.6334C45.6341 52.2299 45.3396 51.6232 45.1561 50.7153C45.078 50.3445 45.0373 49.9668 45.0348 49.5879C45.0142 49.0386 45.129 48.4927 45.369 47.9985C45.6091 47.5043 45.9669 47.077 46.411 46.7545C46.84 46.4411 47.3167 46.1991 47.8227 46.038C47.9841 45.9852 48.1481 45.9407 48.314 45.9045C48.3731 45.8911 48.419 45.8822 48.4486 45.8778H48.4797H48.4871L48.4457 45.593L48.4856 45.8778L48.4442 45.593L48.4841 45.8778L48.3362 44.8498L48.3288 44.8423Z" fill="#231F20"/>
<path d="M45.9346 49.6769C45.9367 49.7743 45.9511 49.8709 45.9775 49.9647C46.0724 50.2815 46.2454 50.5693 46.4806 50.8013C46.8857 51.1942 47.3737 51.4908 47.9086 51.6692L48.2682 50.696C47.9774 50.5933 47.702 50.451 47.4499 50.2732C47.2616 50.15 47.1087 49.9797 47.0059 49.7792C46.9887 49.7428 46.9758 49.7045 46.9675 49.665V49.6517L46.7277 49.6754H46.9689C46.9696 49.6675 46.9696 49.6596 46.9689 49.6517L46.7292 49.6754H45.9346V49.6769Z" fill="#231F20"/>
<path d="M102.894 58.6117C102.894 58.6117 107.629 76.459 106.17 77.3683C104.711 78.2777 92.1878 80.0993 92.1878 80.0993L93.2769 107.318L44.2433 106.407C44.2433 106.407 41.7913 82.5574 41.2497 81.4656C40.7081 80.3738 32.0751 85.4709 30.8913 85.1964C29.7075 84.922 20.2681 66.8997 20.2681 66.8997C20.2681 66.8997 31.0704 59.1932 40.6386 58.3432C50.2067 57.4931 54.501 63.6227 54.501 63.6227C54.501 63.6227 52.5981 75.3419 63.356 76.6103C74.1139 77.8786 75.934 69.5699 76.4135 69.0848C76.8929 68.5997 76.5999 62.706 76.5999 62.706C76.5999 62.706 81.5601 58.763 86.1 59.0686C90.64 59.3741 102.894 58.6117 102.894 58.6117Z" fill="#2F3841"/>
<path d="M102.894 58.6117L102.394 58.7452L102.434 58.8935C102.627 59.6352 103.505 63.0101 104.332 66.6816C104.746 68.5166 105.147 70.4273 105.443 72.1155C105.591 72.9581 105.714 73.7472 105.799 74.44C105.876 75.0185 105.92 75.601 105.93 76.1845C105.935 76.4098 105.917 76.6349 105.877 76.8566C105.868 76.8985 105.855 76.9393 105.837 76.9782L105.873 76.999L105.84 76.9752L105.875 76.996L105.843 76.9723L106.006 77.0909L105.901 76.9218C105.878 76.9341 105.858 76.9513 105.843 76.9723L106.006 77.0909L105.901 76.9218C105.806 76.9758 105.707 77.021 105.605 77.0568C105.188 77.2 104.765 77.3218 104.337 77.4217C103.395 77.6532 102.157 77.9053 100.832 78.1516C98.8466 78.521 96.6669 78.8785 94.9859 79.1425C94.1454 79.276 93.4292 79.3843 92.9231 79.4615L92.3312 79.549L92.1196 79.5802L91.6579 79.6469L92.744 106.782L44.2594 105.882L44.2505 106.401L44.7655 106.347C44.7655 106.347 44.1455 100.385 43.4692 94.287C43.1289 91.2371 42.7708 88.1515 42.4644 85.7572C42.3165 84.5586 42.1685 83.532 42.0486 82.7696C41.988 82.3868 41.9332 82.0679 41.8829 81.8216C41.8577 81.697 41.8341 81.5902 41.8089 81.4982C41.7971 81.4523 41.7838 81.4092 41.7704 81.3662C41.7551 81.3206 41.7368 81.276 41.7157 81.2327C41.6713 81.1448 41.61 81.0666 41.5352 81.0028C41.4373 80.92 41.3219 80.8607 41.1978 80.8292C41.0937 80.8033 40.9868 80.7909 40.8796 80.7921C40.718 80.7944 40.5569 80.8123 40.3987 80.8455C40.0411 80.9232 39.6895 81.0263 39.3466 81.1541C38.6644 81.3989 37.8668 81.7475 37.0263 82.1243C35.7685 82.6954 34.4204 83.3481 33.2899 83.854C32.7261 84.1061 32.2156 84.3227 31.8101 84.4711C31.6059 84.5452 31.4283 84.6031 31.2863 84.6387C31.1962 84.6653 31.1033 84.6818 31.0096 84.6876H31.0022L30.9844 84.836L31.017 84.6876H31.0022L30.9844 84.836L31.017 84.6876L30.9518 84.9695L31.0998 84.7173C31.0753 84.7036 31.0489 84.6936 31.0214 84.6876L30.9563 84.9695L31.1043 84.7173L31.0392 84.8093L31.0939 84.7247L31.0392 84.8093L31.0939 84.7247C31.0624 84.7003 31.0331 84.673 31.0066 84.6431C30.8679 84.4938 30.7389 84.3358 30.6204 84.1699C30.3244 83.7649 29.9367 83.1805 29.4987 82.4744C27.9612 80 25.7653 76.0407 23.957 72.7059C23.0543 71.0385 22.2464 69.5268 21.6648 68.4321L20.9767 67.1341L20.7903 66.781L20.7266 66.6594L20.2679 66.8997L20.5639 67.3239C22.7153 65.849 24.9571 64.5113 27.2761 63.3186C29.3487 62.2346 31.4924 61.2929 33.6924 60.5001C35.9875 59.6872 38.3788 59.0745 40.6739 58.8683C41.2777 58.8149 41.8602 58.7887 42.4215 58.7897C44.2007 58.7732 45.9709 59.0437 47.6644 59.5907C49.4507 60.1736 51.1064 61.1003 52.5387 62.3188C52.9562 62.6746 53.3487 63.0587 53.7137 63.4685C53.8409 63.6168 53.9356 63.7296 53.9963 63.8082L54.0629 63.8957L54.0777 63.915L54.2996 63.7577L54.0762 63.915L54.2982 63.7577L54.0747 63.915L54.4994 63.6183L53.9874 63.5352C53.8913 64.2262 53.8458 64.9233 53.8513 65.621C53.849 66.6665 53.9481 67.7098 54.1472 68.7362C54.3256 69.6549 54.6066 70.5506 54.9848 71.4064C55.6155 72.8483 56.5994 74.1072 57.8452 75.066C59.1962 76.0941 60.9823 76.8462 63.2937 77.1147C64.0302 77.204 64.7714 77.2496 65.5133 77.2511C67.7951 77.2511 69.6374 76.7853 71.1128 76.0644C72.1207 75.5757 73.0415 74.9242 73.8385 74.1359C74.7536 73.2149 75.5124 72.1501 76.0848 70.9836C76.3156 70.5252 76.4858 70.1262 76.6116 69.8354C76.6737 69.6871 76.7255 69.5714 76.7596 69.4942C76.7788 69.4556 76.7936 69.4275 76.801 69.4156L76.5998 69.2791L76.7714 69.4512C76.7824 69.4403 76.7923 69.4284 76.801 69.4156L76.5998 69.2791L76.7714 69.4512C76.8193 69.4019 76.8606 69.3466 76.8942 69.2865C76.9427 69.1991 76.98 69.1059 77.0052 69.0091C77.0525 68.8325 77.0861 68.6525 77.1058 68.4706C77.1428 68.174 77.165 67.815 77.1798 67.4322C77.1946 67.0495 77.2005 66.6223 77.2005 66.1965C77.2005 64.4876 77.1088 62.6897 77.1088 62.6837L76.5909 62.7104L76.9135 63.1169C77.812 62.4356 78.7642 61.8284 79.7605 61.3012C80.647 60.8251 81.5735 60.428 82.5292 60.1144C83.5125 59.7814 84.5412 59.6028 85.579 59.5848C85.7388 59.5848 85.8971 59.5848 86.054 59.6011C86.8309 59.6531 87.8105 59.6738 88.9114 59.6738C91.6594 59.6738 95.1561 59.5418 97.9691 59.4083C100.782 59.2748 102.91 59.1427 102.912 59.1427L102.879 58.625L102.379 58.7585L102.879 58.625L102.848 58.1058L102.472 58.1296C100.775 58.2304 93.6674 58.6354 88.9114 58.6354C87.8253 58.6354 86.8605 58.6146 86.1221 58.5642C85.9396 58.5523 85.7576 58.5464 85.576 58.5464C84.4127 58.5638 83.2592 58.764 82.1578 59.1398C80.04 59.8803 78.0516 60.9501 76.2653 62.3099L76.0567 62.476L76.07 62.7431C76.07 62.7431 76.07 62.7698 76.07 62.8217C76.0878 63.1837 76.1573 64.7383 76.1573 66.2025C76.1573 66.8804 76.141 67.5376 76.1011 68.0404C76.0879 68.2396 76.0627 68.4377 76.0256 68.6338C76.0165 68.6842 76.0036 68.7338 75.9871 68.7822V68.7911L76.2032 68.8994L76.0345 68.7302C76.0158 68.7481 75.9999 68.7686 75.9871 68.7911L76.2032 68.8994L76.0345 68.7302C75.9883 68.778 75.9476 68.8307 75.9131 68.8875C75.8585 68.978 75.8091 69.0716 75.7652 69.1679C75.6779 69.3607 75.5772 69.6055 75.447 69.8977C74.9912 70.9168 74.1789 72.5012 72.6547 73.8259C71.8146 74.5544 70.8508 75.1257 69.8091 75.5126C68.4326 76.0051 66.9791 76.2458 65.5178 76.2231C64.8159 76.2218 64.1147 76.1787 63.418 76.0941C61.4943 75.8671 60.0293 75.3019 58.8869 74.5424C58.0832 74.0091 57.3835 73.3329 56.8226 72.5471C56.0684 71.4634 55.5353 70.2408 55.2541 68.9498C55.0079 67.859 54.8858 66.7438 54.8901 65.6254C54.8901 65.0424 54.9211 64.5573 54.9522 64.2206C54.9685 64.0529 54.9833 63.9239 54.9951 63.8334L55.0084 63.7355V63.7118L54.7746 63.6747L55.0084 63.7132L54.7746 63.6761L55.0084 63.7147L55.0425 63.5056L54.9211 63.332C54.896 63.2964 53.9179 61.9079 51.8699 60.5134C50.6675 59.7026 49.3594 59.0617 47.9825 58.6087C46.1907 58.0255 44.3173 57.7335 42.4334 57.7439C41.8415 57.7439 41.2283 57.7715 40.594 57.8269C38.142 58.045 35.6353 58.6977 33.247 59.5492C29.6689 60.8294 26.3557 62.5576 23.9363 63.9684C21.5168 65.3791 19.9838 66.471 19.9734 66.4769L19.605 66.7395L19.8151 67.1415C19.8151 67.1415 22.1827 71.6511 24.6895 76.1979C25.9458 78.472 27.2391 80.7536 28.2971 82.4936C28.8269 83.3644 29.2975 84.0972 29.6807 84.6357C29.8425 84.8654 30.0164 85.0862 30.2016 85.2973C30.2747 85.3799 30.3543 85.4563 30.4398 85.5258C30.4837 85.5622 30.5307 85.5944 30.5804 85.6222C30.6428 85.6596 30.7107 85.6866 30.7817 85.7023C30.8551 85.7178 30.9301 85.7253 31.0051 85.7246C31.1508 85.7224 31.2958 85.7035 31.4372 85.6682C31.7621 85.5869 32.081 85.4834 32.3917 85.3582C33.0235 85.1149 33.7871 84.7648 34.6113 84.391C35.841 83.8213 37.195 83.1701 38.3625 82.6657C38.9456 82.4135 39.4827 82.1984 39.9266 82.0501C40.1486 81.9759 40.3469 81.9195 40.5186 81.881C40.6393 81.8512 40.7628 81.8338 40.887 81.8291C40.9042 81.8277 40.9216 81.8277 40.9388 81.8291L40.958 81.7445L40.9255 81.8231H40.9388L40.958 81.7386L40.9255 81.8172L41.0143 81.6006L40.8663 81.7771C40.8845 81.7948 40.9062 81.8084 40.9299 81.8172L41.0187 81.6006L40.8707 81.7771L41.0646 81.5516L40.7997 81.6852C40.8166 81.7205 40.8408 81.7519 40.8707 81.7771L41.0646 81.5516L40.7997 81.6852L40.9196 81.6243L40.7938 81.6748V81.6852L40.9137 81.6243L40.7879 81.6748C40.8029 81.7175 40.8153 81.7611 40.8249 81.8053C40.8619 81.9537 40.9077 82.1851 40.9595 82.4877C41.1549 83.624 41.4271 85.7023 41.7246 88.1648C42.1685 91.8601 42.6746 96.4321 43.0667 100.078C43.262 101.903 43.4307 103.49 43.5491 104.631L43.6882 105.966L43.7385 106.448L43.7844 106.905L93.8257 107.835L92.7144 80.0667L92.198 80.0875L92.272 80.6008C92.272 80.6008 95.4091 80.1453 98.7312 79.5757C100.393 79.2894 102.101 78.9823 103.493 78.6753C104.189 78.5269 104.806 78.3786 105.304 78.2302C105.554 78.159 105.773 78.0908 105.963 78.0196C106.134 77.9608 106.299 77.8848 106.456 77.7926C106.526 77.7482 106.589 77.6931 106.642 77.6294C106.721 77.534 106.784 77.4256 106.827 77.309C106.887 77.1403 106.926 76.965 106.944 76.7868C106.967 76.5819 106.978 76.3759 106.976 76.1697C106.958 75.5003 106.901 74.8326 106.803 74.17C106.63 72.8082 106.33 71.1542 105.978 69.4304C104.927 64.2621 103.4 58.4826 103.4 58.4782L103.29 58.0672L102.867 58.0925L102.894 58.6117Z" fill="#231F20"/>
<path d="M20.271 66.8997C20.271 66.8997 3.4727 76.4886 2.32144 79.7047C1.17018 82.9209 0.809119 89.4762 4.92436 93.0557C9.03959 96.6353 33.259 114.296 37.6746 115.024C42.0902 115.752 48.2046 114.417 53.2358 112.415C58.2671 110.412 61.9872 110.655 63.3619 112.536C64.7366 114.417 64.7973 117.088 67.9492 115.631C71.1011 114.174 64.377 105.922 56.259 106.892C56.259 106.892 59.3458 103.98 63.9538 104.889C68.5618 105.799 68.3724 107.985 71.218 107.62C74.0636 107.255 70.342 100.664 63.3649 100.46C57.4458 100.285 55.5384 103.069 55.5384 103.069C55.5384 103.069 59.7764 97.4319 71.2239 102.887C73.1003 101.916 70.6779 96.9394 63.9597 96.0909C57.2416 95.2423 55.8994 99.0029 55.8994 99.0029C55.8994 99.0029 56.697 95.312 66.6144 95.8476C77.072 96.4113 70.3139 90.8706 65.3418 90.9923C60.3698 91.1139 49.2405 100.83 46.0294 100.945C42.8183 101.059 20.9059 84.075 20.9059 84.075C20.9059 84.075 25.0832 88.377 27.3236 87.4127C29.564 86.4485 30.6339 85.0006 30.6339 85.0006L20.271 66.8997Z" fill="white"/>
<path d="M20.2711 66.8997L20.0151 66.4546C20.0151 66.4546 15.8051 68.8578 11.4472 71.666C9.26899 73.0649 7.0523 74.5735 5.29137 75.9368C4.50768 76.5341 3.76053 77.1781 3.05396 77.8653C2.78273 78.1329 2.52962 78.4183 2.29632 78.7198C2.10185 78.9654 1.94523 79.2389 1.83168 79.5312C1.29108 81.1433 1.02105 82.8341 1.0326 84.5349C1.02097 86.1419 1.28063 87.7394 1.8006 89.2596C2.35024 90.8739 3.3101 92.3168 4.58552 93.4459C5.11528 93.9072 5.94691 94.5763 7.0153 95.407C10.7547 98.3101 17.3737 103.159 23.5576 107.371C26.6489 109.476 29.6247 111.421 32.0856 112.885C33.3152 113.618 34.4147 114.229 35.341 114.683C35.8037 114.909 36.222 115.095 36.5959 115.241C36.9177 115.373 37.2518 115.472 37.5933 115.537C38.501 115.682 39.4191 115.752 40.3382 115.747C42.401 115.747 44.6399 115.45 46.8803 114.938C49.1117 114.429 51.3004 113.747 53.4268 112.898C55.7752 111.962 57.8202 111.535 59.4213 111.536C60.1737 111.519 60.923 111.64 61.6321 111.893C62.1527 112.075 62.6088 112.406 62.9446 112.845C63.1935 113.198 63.4138 113.571 63.6031 113.959C63.7511 114.256 63.8991 114.552 64.056 114.839C64.2739 115.282 64.5674 115.683 64.9231 116.025C65.1149 116.197 65.3353 116.333 65.5742 116.427C65.8343 116.528 66.1109 116.578 66.3895 116.576C66.9134 116.576 67.4875 116.427 68.1653 116.11C68.5072 115.959 68.7953 115.708 68.991 115.389C69.1724 115.078 69.2646 114.723 69.2573 114.362C69.248 113.933 69.1592 113.509 68.9954 113.112C68.636 112.266 68.1322 111.489 67.5068 110.816C66.3322 109.526 64.9268 108.47 63.3634 107.7C61.5752 106.795 59.6028 106.316 57.5997 106.3C57.1338 106.3 56.6684 106.328 56.2058 106.383L56.2679 106.898L56.6231 107.276L56.5299 107.177L56.6231 107.278L56.5299 107.178L56.6231 107.279C57.0914 106.871 57.6077 106.523 58.1606 106.241C59.905 105.308 61.9181 105.012 63.8562 105.402C64.6834 105.555 65.4896 105.805 66.2579 106.149C67.1738 106.573 67.7465 107.039 68.3606 107.439C68.6711 107.653 69.0059 107.83 69.358 107.964C69.7629 108.112 70.191 108.184 70.6217 108.179C70.8434 108.179 71.0648 108.164 71.2846 108.135C71.49 108.112 71.6901 108.054 71.8765 107.964C72.1438 107.834 72.3638 107.624 72.5054 107.362C72.6379 107.107 72.7045 106.822 72.6993 106.534C72.6934 106.195 72.6298 105.859 72.5114 105.54C72.2569 104.87 71.8884 104.248 71.4222 103.704C70.5338 102.653 69.4432 101.792 68.2156 101.173C66.7141 100.405 65.0602 99.9841 63.3753 99.9404C63.1903 99.9404 63.0083 99.9404 62.8307 99.9404C59.9925 99.9404 58.0703 100.617 56.8569 101.317C55.6435 102.017 55.1403 102.732 55.1048 102.783L55.9468 103.389L55.7293 103.225L55.9453 103.391L55.7278 103.226L55.9439 103.392L55.9646 103.366C56.4265 102.85 56.9781 102.423 57.5923 102.105C58.6015 101.556 60.1005 101.035 62.2092 101.034C64.42 101.034 67.3085 101.609 70.9842 103.364L71.2166 103.475L71.4444 103.357C71.7409 103.206 71.9818 102.964 72.1325 102.667C72.2738 102.376 72.3448 102.056 72.3397 101.732C72.3127 101.085 72.1162 100.456 71.77 99.9093C71.2195 98.9777 70.2902 98.0297 68.9954 97.2391C67.7006 96.4484 66.0359 95.8342 64.0071 95.5776C63.3613 95.4937 62.7109 95.4506 62.0597 95.4485C60.9452 95.4311 59.8357 95.6016 58.7776 95.9529C57.7498 96.289 56.8302 96.8944 56.114 97.7063C55.8166 98.0384 55.5784 98.4193 55.4097 98.8323L55.898 99.0058L56.4041 99.1156L56.1362 99.0578L56.4011 99.126V99.1156L56.1333 99.0578L56.3981 99.126C56.4598 98.9526 56.5498 98.7907 56.6645 98.6469C56.9605 98.2567 57.5524 97.6856 58.7924 97.199C60.0325 96.7124 61.8999 96.3223 64.7204 96.3223C65.2985 96.3223 65.9185 96.3396 66.5804 96.3742C67.0954 96.4024 67.5704 96.4157 68.0084 96.4157C68.6663 96.4213 69.3238 96.3827 69.9765 96.3C70.3463 96.2534 70.7116 96.176 71.0686 96.0686C71.4851 95.9574 71.8694 95.749 72.1902 95.4604C72.3281 95.3285 72.4396 95.1714 72.5188 94.9976C72.5929 94.8278 72.6312 94.6444 72.6312 94.4591C72.626 94.1745 72.5491 93.8959 72.4078 93.6491C72.2838 93.4235 72.1311 93.2151 71.9535 93.029C71.5966 92.6579 71.1944 92.3334 70.7563 92.0633C69.9874 91.586 69.1609 91.2086 68.297 90.9404C67.3924 90.6478 66.4492 90.4928 65.4987 90.4805H65.3241C64.5427 90.5247 63.7726 90.6888 63.0408 90.9671C61.6099 91.4729 60.0043 92.317 58.3396 93.2975C55.8447 94.7691 53.2226 96.5611 50.9718 97.9734C49.8472 98.6839 48.8143 99.3085 47.9487 99.7402C47.5746 99.9335 47.1891 100.104 46.7944 100.25C46.5417 100.349 46.2761 100.411 46.0057 100.434H45.9909C45.9071 100.431 45.8238 100.419 45.7423 100.399C45.435 100.318 45.1354 100.211 44.8471 100.077C43.9456 99.6579 43.0691 99.1868 42.222 98.6661C40.4122 97.5817 38.1881 96.1013 35.8782 94.4902C32.4111 92.0752 28.7457 89.3694 25.9475 87.2688C24.5476 86.2171 23.3668 85.3181 22.5336 84.6817L21.5644 83.94L21.3084 83.7427C21.2507 83.6967 21.2211 83.6744 21.2196 83.6744L20.533 84.4369C21.1709 85.0767 21.8496 85.6743 22.5647 86.226C23.1674 86.6987 23.8112 87.1163 24.4884 87.4736C24.8208 87.6459 25.1674 87.7893 25.5243 87.9023C25.8669 88.0102 26.2232 88.0681 26.5823 88.0743C26.9044 88.0777 27.2237 88.0146 27.5205 87.8889C28.4781 87.4771 29.3658 86.9181 30.1515 86.2319C30.4765 85.9544 30.7738 85.6458 31.0394 85.3107L31.2421 85.0377L20.4546 66.198L20.0106 66.4532L20.2666 66.8982L19.8227 67.1578L30.1811 85.2558L30.625 84.9977L30.2092 84.6876L30.4297 84.8523L30.2092 84.6862L30.4297 84.8508L30.2092 84.6847C30.2092 84.6847 30.1944 84.7054 30.1633 84.744C29.9414 85.014 28.9366 86.1399 27.1091 86.9306C26.9419 87.0007 26.762 87.035 26.5808 87.0315C26.3234 87.0261 26.0682 86.9831 25.8232 86.9039C25.2778 86.7238 24.7577 86.4745 24.2753 86.1622C23.533 85.6862 22.8298 85.1515 22.1726 84.563C21.8944 84.3168 21.6665 84.1032 21.5096 83.9504L21.338 83.7709L21.2921 83.7234L21.2803 83.713L20.9089 84.075L20.5922 84.4844C20.5922 84.4844 26.0377 88.7078 31.9021 92.9311C34.835 95.0436 37.8729 97.1575 40.3959 98.7492C41.6597 99.5458 42.7917 100.21 43.7299 100.678C44.1388 100.889 44.5598 101.075 44.9906 101.237C45.1623 101.301 45.3378 101.354 45.5159 101.396C45.6735 101.434 45.8347 101.455 45.9969 101.458H46.0516C46.33 101.443 46.6054 101.393 46.8714 101.31C47.5 101.103 48.1083 100.838 48.6886 100.519C49.865 99.8989 51.2486 99.0355 52.7342 98.0728C54.9539 96.6353 57.4133 94.9976 59.6744 93.7174C60.699 93.1233 61.7612 92.597 62.8544 92.1419C63.8251 91.7503 64.6893 91.5263 65.3522 91.5115H65.5002C66.2337 91.5207 66.9627 91.6274 67.6681 91.8289C68.6843 92.1048 69.6472 92.5496 70.5166 93.1448C70.8305 93.3589 71.1121 93.6172 71.3527 93.9117C71.4298 94.0101 71.4944 94.1177 71.5451 94.2321C71.5764 94.3012 71.594 94.3758 71.5969 94.4517C71.5975 94.4877 71.5909 94.5235 71.5776 94.557C71.5351 94.6505 71.4661 94.7294 71.3793 94.784C71.1929 94.9249 70.8274 95.0806 70.2695 95.1919C69.5237 95.3231 68.767 95.3827 68.0099 95.3699C67.5926 95.3699 67.1354 95.3581 66.6367 95.3299C65.9589 95.2943 65.3207 95.2765 64.7218 95.2765C62.6502 95.2765 61.0446 95.4797 59.7868 95.7927C57.9001 96.2615 56.7992 96.9795 56.1732 97.6262C55.5473 98.273 55.4037 98.813 55.3889 98.8946L56.3834 99.1779L56.0874 99.0711L56.3834 99.1824L56.0874 99.0756L56.3834 99.1868C56.4487 99.0302 56.5305 98.881 56.6275 98.7418C57.0349 98.153 57.5781 97.6716 58.2109 97.3385C59.0617 96.8727 60.2825 96.4914 62.0583 96.4899C62.6664 96.4919 63.2739 96.5326 63.8769 96.6116C66.3925 96.929 68.2689 97.8443 69.5 98.8738C70.0427 99.3118 70.5067 99.8396 70.8718 100.434C71.1232 100.822 71.2701 101.268 71.2979 101.729C71.3033 101.888 71.2713 102.046 71.2047 102.191C71.1531 102.295 71.0683 102.38 70.9635 102.431L71.2018 102.892L71.4237 102.424C67.6385 100.617 64.5961 99.9923 62.2033 99.9923C59.7321 99.9923 57.9623 100.663 56.814 101.347C55.6657 102.031 55.1389 102.722 55.1093 102.763L55.5221 103.075L55.9498 103.372L55.6938 103.195L55.9483 103.375L55.6923 103.198L55.9468 103.378C55.9661 103.352 56.3907 102.757 57.4606 102.167C58.5305 101.577 60.2263 100.98 62.8189 100.98C62.9861 100.98 63.1577 100.98 63.3323 100.98C64.5208 101.012 65.6948 101.25 66.8024 101.683C68.1751 102.212 69.4076 103.052 70.4042 104.136C70.7764 104.542 71.0925 104.996 71.3438 105.487C71.5194 105.81 71.6205 106.168 71.6398 106.536C71.6414 106.62 71.6299 106.704 71.6057 106.785C71.5845 106.865 71.5377 106.935 71.4725 106.985C71.3717 107.056 71.2535 107.098 71.1307 107.107C70.9541 107.131 70.7762 107.143 70.598 107.144C70.194 107.151 69.7942 107.061 69.432 106.881C69.149 106.735 68.8775 106.567 68.6196 106.38C68.08 105.985 67.5106 105.633 66.9163 105.327C66.0013 104.883 65.0307 104.565 64.0308 104.382C63.4125 104.258 62.7835 104.196 62.153 104.196C60.5663 104.202 59.0051 104.597 57.6056 105.346C56.9917 105.664 56.4187 106.056 55.8995 106.514L54.7541 107.595L56.3168 107.408C56.7381 107.357 57.1621 107.332 57.5864 107.332C59.0035 107.34 60.4074 107.605 61.7298 108.116C63.5056 108.792 65.1152 109.845 66.4487 111.201C66.9677 111.724 67.4155 112.314 67.7805 112.955C68.0765 113.505 68.2245 114.002 68.2245 114.355C68.231 114.526 68.1906 114.696 68.1076 114.846C68.0183 114.986 67.8881 115.096 67.7347 115.159C67.1427 115.432 66.7077 115.531 66.4029 115.53C66.2683 115.531 66.1343 115.511 66.0063 115.469C65.8002 115.392 65.6176 115.263 65.4765 115.094C65.3358 114.928 65.2104 114.75 65.1021 114.561C64.9172 114.245 64.7352 113.865 64.528 113.463C64.3142 113.033 64.0668 112.621 63.7881 112.229C63.3343 111.631 62.7176 111.177 62.0124 110.922C61.1846 110.623 60.3087 110.478 59.4287 110.497C57.653 110.497 55.4925 110.961 53.0509 111.933C50.9747 112.76 48.838 113.425 46.6598 113.923C44.4786 114.416 42.3078 114.707 40.3456 114.707C39.483 114.712 38.6214 114.647 37.7693 114.512C37.4464 114.446 37.131 114.346 36.8282 114.216C35.8123 113.778 34.824 113.279 33.8687 112.72C31.7866 111.534 29.1615 109.874 26.3485 107.998C22.1297 105.18 17.4847 101.894 13.581 99.0355C11.6292 97.6055 9.86238 96.2837 8.42848 95.1786C6.99459 94.0734 5.88328 93.1996 5.26474 92.6715C4.12248 91.658 3.26445 90.3626 2.77577 88.914C2.29517 87.5043 2.0565 86.0231 2.06992 84.5334C2.05962 82.9519 2.30961 81.3797 2.8098 79.8798C2.88905 79.6869 2.99571 79.5065 3.12647 79.3443C3.56935 78.795 4.06499 78.2907 4.60624 77.8386C5.75454 76.8373 7.3305 75.6742 9.04555 74.4994C11.6129 72.7385 14.4852 70.9495 16.7152 69.604C17.8295 68.9305 18.7869 68.3668 19.4587 67.9722L20.2474 67.5138L20.4575 67.3937L20.5286 67.3536L20.2726 66.9012L19.8286 67.1608L20.2711 66.8997Z" fill="#231F20"/>
<path d="M72.0954 12.0745C71.3296 11.0996 70.4581 10.213 69.4969 9.43103C68.6187 8.70395 67.6521 8.09136 66.6203 7.60788C65.4773 7.06758 64.2318 6.78021 62.9682 6.76528C61.9522 6.76445 60.9462 6.96616 60.0086 7.35866C58.085 8.1612 56.6747 9.29752 55.7469 10.4739C55.3194 11.0081 54.9705 11.6011 54.7111 12.2347C54.4915 12.7513 54.3725 13.3052 54.3604 13.8665C54.3576 14.1138 54.3905 14.3601 54.458 14.5979C54.5068 14.7695 54.5795 14.9333 54.6741 15.0844C54.8178 15.3146 55.0194 15.5029 55.2586 15.6303C55.5086 15.7598 55.7866 15.8255 56.068 15.8217C56.4481 15.8119 56.8226 15.7278 57.1705 15.574C57.5684 15.4044 57.9297 15.1591 58.2344 14.8515C58.7039 14.3726 59.0639 13.7971 59.2895 13.1649C59.7863 11.7945 59.7805 10.2917 59.2732 8.92518C58.8509 7.79917 58.075 6.84123 57.0624 6.19564C55.9689 5.49249 54.5217 5.06822 52.6956 5.06971C52.4722 5.06971 52.2413 5.06971 52.0046 5.08899C49.8412 5.20767 48.1838 5.48952 46.9053 5.85445C46.1097 6.06951 45.3431 6.38033 44.622 6.78012C43.7519 7.27855 43.2518 7.81111 42.975 8.24131C42.8044 8.48688 42.6892 8.76685 42.6376 9.06165C42.6299 9.12984 42.6356 9.19889 42.6544 9.26486C42.6733 9.33084 42.7049 9.39244 42.7475 9.44617C42.7901 9.49989 42.8428 9.54467 42.9027 9.57797C42.9625 9.61126 43.0284 9.6324 43.0964 9.6402C43.1644 9.64799 43.2333 9.64228 43.2991 9.62338C43.3649 9.60449 43.4263 9.57279 43.4799 9.53008C43.5335 9.48738 43.5782 9.43451 43.6114 9.3745C43.6446 9.31449 43.6657 9.24851 43.6735 9.18033L43.3583 9.14473L43.672 9.19516V9.18033L43.3568 9.14473L43.6705 9.19516L43.6276 9.18775L43.6705 9.19516L43.6276 9.18775L43.6705 9.19516C43.7067 9.05097 43.77 8.91502 43.857 8.79463C44.0937 8.43267 44.6294 7.8571 45.8709 7.31861C47.1125 6.78012 49.0584 6.29058 52.0653 6.13185C52.2828 6.11998 52.4944 6.11405 52.6986 6.11405C53.6486 6.09644 54.594 6.25072 55.4894 6.56947C56.4796 6.91699 57.3261 7.58505 57.8955 8.46828C58.3749 9.25456 58.6226 10.1607 58.6103 11.0821C58.617 11.8588 58.4368 12.6256 58.085 13.3177C57.9295 13.6165 57.73 13.89 57.493 14.1291C57.2809 14.3424 57.0297 14.5126 56.7532 14.6305C56.5312 14.7311 56.2921 14.788 56.0488 14.7981C55.9471 14.8011 55.846 14.7813 55.7528 14.7403C55.6979 14.7171 55.6478 14.6839 55.6049 14.6424C55.5306 14.5635 55.4754 14.4686 55.4436 14.365C55.3939 14.2087 55.3699 14.0454 55.3725 13.8814C55.3862 13.4513 55.48 13.0277 55.6493 12.6323C56.0164 11.7726 56.557 10.9983 57.237 10.3582C58.1509 9.48852 59.2202 8.79952 60.389 8.32735C61.2021 7.98358 62.0754 7.80557 62.9578 7.80369C64.0773 7.82001 65.1801 8.07805 66.1911 8.56025C67.6842 9.24115 68.9642 10.281 69.8609 11.1518C70.3049 11.5865 70.6645 11.9781 70.8968 12.2585C71.0166 12.4068 71.1084 12.5121 71.1691 12.5893L71.2371 12.6753L71.2534 12.6976L71.3822 12.6026L71.2534 12.6976L71.3822 12.6026L71.2534 12.6976C71.294 12.7523 71.345 12.7985 71.4034 12.8335C71.4618 12.8685 71.5266 12.8916 71.5939 12.9015C71.6612 12.9114 71.7298 12.908 71.7958 12.8913C71.8618 12.8746 71.9239 12.8451 71.9785 12.8044C72.0331 12.7637 72.0792 12.7126 72.1141 12.654C72.149 12.5954 72.1721 12.5306 72.1819 12.4631C72.1918 12.3956 72.1884 12.3268 72.1717 12.2606C72.1551 12.1945 72.1257 12.1322 72.085 12.0775L72.0954 12.0745Z" fill="#EE4947"/>
<path d="M29.089 40.6902C28.3468 41.7364 27.7028 42.8493 27.1653 44.0146C26.2079 46.0454 25.2416 48.8358 25.2416 51.9006C25.2321 53.6511 25.5743 55.3856 26.2479 57.0006C26.9685 58.717 28.1287 60.4125 29.8585 61.9998C32.2484 64.1909 34.209 65.6491 35.859 66.5703C36.5752 66.9801 37.332 67.3142 38.1171 67.5672C38.7263 67.7633 39.3611 67.8673 40.0009 67.8758C40.5403 67.8798 41.076 67.7868 41.5827 67.6013C42.2482 67.341 42.8528 66.9456 43.3585 66.4398C43.8111 65.9845 44.2352 65.5014 44.6281 64.9934C44.8315 64.7465 44.998 64.4711 45.1223 64.176C45.2299 63.9195 45.2867 63.6444 45.2896 63.3661C45.2905 63.0851 45.2245 62.8079 45.0972 62.5576C44.9121 62.2049 44.6227 61.9183 44.2685 61.7373C43.9121 61.5518 43.5159 61.4565 43.1143 61.4599C42.5895 61.4597 42.0758 61.6111 41.6345 61.896C41.1236 62.2341 40.7211 62.7132 40.4759 63.2756C39.9724 64.4147 39.7157 65.6478 39.7227 66.8937C39.7281 68.8123 40.3171 70.6836 41.4111 72.2579C42.6585 74.0899 44.6991 75.8596 47.857 77.3164C50.1536 78.3756 52.7002 78.8725 55.3002 79.144C57.2505 79.3457 59.2349 79.4214 61.1704 79.5015C64.0752 79.6217 66.8779 79.7567 69.2884 80.3307C70.4369 80.5862 71.5444 81.0001 72.5794 81.5605C73.5638 82.1021 74.4285 82.8379 75.1217 83.7234C75.1636 83.7772 75.2156 83.8221 75.2748 83.8557C75.334 83.8893 75.3993 83.9109 75.4668 83.9193C75.5343 83.9276 75.6029 83.9225 75.6684 83.9043C75.734 83.8861 75.7954 83.8551 75.849 83.8131C75.9026 83.7711 75.9475 83.719 75.981 83.6596C76.0145 83.6003 76.0361 83.5349 76.0444 83.4672C76.0527 83.3995 76.0476 83.3308 76.0295 83.265C76.0113 83.1993 75.9804 83.1378 75.9385 83.084C75.2476 82.1969 74.4018 81.443 73.4422 80.8589C71.7937 79.8486 69.8626 79.3027 67.785 78.9779C64.6686 78.4942 61.2059 78.5061 57.8128 78.2984C56.143 78.2137 54.4797 78.0289 52.8319 77.7451C51.2668 77.478 49.7411 77.0155 48.2905 76.3685C45.2659 74.9725 43.391 73.32 42.2664 71.6674C41.2898 70.2659 40.7637 68.5988 40.7585 66.8893C40.7519 65.793 40.9763 64.7076 41.417 63.7043C41.58 63.3226 41.8498 62.9965 42.1939 62.7653C42.4666 62.5891 42.7839 62.4949 43.1084 62.4938C43.4092 62.4868 43.7038 62.5802 43.9459 62.7594C44.0386 62.8309 44.1144 62.9221 44.1679 63.0264C44.221 63.129 44.2479 63.2431 44.2463 63.3587C44.2432 63.5026 44.2125 63.6446 44.1561 63.777C44.0702 63.9776 43.9555 64.1645 43.8157 64.3318C43.3126 64.9578 42.8021 65.5957 42.1983 66.0615C41.9009 66.2966 41.5696 66.4852 41.2158 66.6208C40.8235 66.7654 40.4084 66.8378 39.9905 66.8344C39.4541 66.8263 38.9219 66.7378 38.4116 66.5718C37.5075 66.2929 36.4228 65.7693 35.1221 64.9074C33.8213 64.0455 32.3105 62.8469 30.5466 61.2299C28.9189 59.7376 27.8549 58.1696 27.192 56.5942C26.5722 55.1068 26.2577 53.5095 26.2671 51.8976C26.2671 49.0553 27.1742 46.397 28.0917 44.4551C28.4653 43.6621 28.8853 42.8918 29.3495 42.1484C29.5211 41.8754 29.6632 41.6633 29.7609 41.5209L29.8733 41.3622L29.9029 41.3221V41.3132C29.9458 41.2589 29.9773 41.1966 29.9958 41.1299C30.0143 41.0632 30.0192 40.9935 30.0104 40.9248C30.0016 40.8561 29.9792 40.7899 29.9445 40.7301C29.9098 40.6703 29.8635 40.618 29.8083 40.5763C29.7532 40.5347 29.6903 40.5045 29.6233 40.4876C29.5563 40.4707 29.4867 40.4674 29.4184 40.4778C29.3502 40.4883 29.2847 40.5123 29.2258 40.5486C29.167 40.5848 29.1159 40.6324 29.0757 40.6887L29.089 40.6902Z" fill="#EE4947"/>
<path d="M34.7579 16.964L34.826 16.4493C34.826 16.4493 32.7321 16.1748 29.8347 15.9004C26.9373 15.6259 23.2335 15.3515 19.9854 15.3515C18.5196 15.3342 17.0542 15.416 15.5994 15.5963C15.0328 15.6691 14.473 15.7882 13.9257 15.9523C13.4813 16.076 13.0645 16.2834 12.6975 16.5635C12.3626 16.8493 12.0705 17.182 11.8304 17.5515C11.3511 18.307 10.9706 19.1211 10.6984 19.9739C10.2227 21.4461 9.88097 22.9585 9.67733 24.4925C9.47129 25.9303 9.36301 27.3805 9.35326 28.833C9.3485 29.4278 9.37963 30.0222 9.44648 30.6132C9.47428 30.8379 9.51529 31.0608 9.5693 31.2807C9.61376 31.4694 9.68608 31.6504 9.78387 31.8177C9.85108 31.9376 9.9009 32.0665 9.93185 32.2005C10.0152 32.5891 10.126 32.9713 10.2633 33.3442C10.4219 33.7234 10.6596 34.0643 10.9603 34.344C11.2485 34.6072 11.5754 34.8243 11.9295 34.9879C12.6896 35.324 13.494 35.5488 14.3179 35.6554C15.6156 35.8355 16.9249 35.9178 18.2348 35.9017C19.4186 35.9017 20.7756 35.8542 22.3471 35.7533C25.6292 35.5338 28.3343 35.3913 30.5791 35.1926C32.0314 35.0859 33.4753 34.8842 34.9015 34.5888C35.7345 34.415 36.5441 34.1431 37.3135 33.7788C37.8212 33.534 38.294 33.2222 38.7193 32.8517C39.3495 32.2854 39.8537 31.5925 40.199 30.8179C40.6029 29.9009 40.8874 28.9357 41.0455 27.9459C41.3414 26.3053 41.5072 24.8915 41.5072 23.6558C41.5249 22.7525 41.4036 21.8519 41.1476 20.9856C40.9684 20.4081 40.6943 19.8646 40.3367 19.3776C39.7627 18.6308 39.0257 18.0259 38.1821 17.6093C37.275 17.1376 36.1829 16.7682 34.8763 16.4596H34.8512H34.826L34.7579 16.9744L34.6395 17.4803C35.5992 17.6899 36.5345 17.9992 37.4304 18.403C37.9397 18.6355 38.4159 18.9348 38.8465 19.293C39.4063 19.7684 39.8327 20.382 40.0836 21.0732C40.3485 21.7793 40.4772 22.6322 40.4772 23.6692C40.4772 24.8099 40.3204 26.1703 40.0333 27.7753C39.9104 28.5072 39.7192 29.2259 39.4621 29.9219C39.2817 30.4092 39.0389 30.8709 38.74 31.2956C38.2437 31.98 37.5788 32.5238 36.8104 32.8739C36.0894 33.204 35.3326 33.4489 34.5552 33.6038C33.2234 33.8931 31.569 34.08 29.5432 34.2372C27.5174 34.3945 25.1172 34.5339 22.2835 34.7179C20.7312 34.8217 19.3935 34.8662 18.2407 34.8662C16.104 34.8662 14.6064 34.7045 13.5691 34.4553C12.9882 34.3373 12.4335 34.1141 11.9325 33.7966C11.7188 33.6535 11.5348 33.4701 11.3909 33.2567C11.2218 32.9777 11.1036 32.6708 11.0417 32.3503C11.0017 32.1841 10.9618 32.0091 10.907 31.8266C10.8519 31.631 10.7702 31.4438 10.6643 31.2703C10.6247 31.1912 10.5948 31.1075 10.5755 31.0211C10.5061 30.7287 10.4611 30.431 10.4409 30.1311C10.4083 29.7572 10.3921 29.3166 10.3921 28.8286C10.4103 26.627 10.6583 24.4335 11.1319 22.2836C11.3533 21.2487 11.6714 20.237 12.082 19.2619C12.2524 18.8663 12.4564 18.4862 12.6916 18.1255C12.8759 17.8398 13.1002 17.582 13.3575 17.3601C13.6223 17.1669 13.9203 17.0241 14.2365 16.9388C15.0338 16.7139 15.8519 16.5713 16.6781 16.513C17.6636 16.424 18.7897 16.3855 19.9869 16.3855C23.1773 16.3855 26.8604 16.6569 29.7386 16.9299C31.1784 17.0664 32.4184 17.2028 33.2974 17.3052C33.7413 17.3556 34.0861 17.3987 34.3258 17.4283L34.5996 17.4624L34.6928 17.4743L34.7594 16.9596L34.641 17.4654L34.7579 16.964Z" fill="#EE4947"/>
<path d="M76.4386 99.0414C76.4386 99.0414 101.5 96.9335 103.074 99.0414C104.649 101.149 108.332 109.934 105.352 113.097C102.372 116.26 84.3243 116.786 80.4636 116.435C76.6029 116.083 72.2317 113.8 76.4386 99.0414Z" fill="#EE4947"/>
<path d="M76.4385 99.0414L76.4815 99.5592L76.6072 99.5488C77.2317 99.4968 80.1039 99.2654 83.7427 99.0474C87.3814 98.8293 91.7882 98.6231 95.4699 98.6246C97.1493 98.6053 98.8286 98.6726 100.501 98.8263C101.035 98.8745 101.564 98.9658 102.083 99.0993C102.236 99.1393 102.384 99.194 102.527 99.2625C102.565 99.2813 102.601 99.3037 102.635 99.3292L102.659 99.3485L102.67 99.3381L102.66 99.347L102.672 99.3366L102.66 99.347C102.82 99.5673 102.968 99.7955 103.104 100.031C103.866 101.388 104.493 102.818 104.976 104.299C105.549 106.018 105.966 107.898 105.964 109.501C105.974 110.131 105.894 110.76 105.726 111.367C105.587 111.876 105.331 112.345 104.977 112.735C104.623 113.069 104.21 113.335 103.76 113.518C102.774 113.963 101.355 114.362 99.7109 114.684C97.2426 115.168 94.2579 115.5 91.3635 115.708C88.4691 115.916 85.6619 116.005 83.54 116.005C82.2082 116.005 81.1427 115.969 80.5138 115.913C79.8582 115.862 79.2118 115.727 78.5901 115.512C77.9581 115.291 77.3833 114.931 76.9081 114.459C76.4329 113.986 76.0692 113.413 75.8437 112.781C75.4708 111.844 75.2385 110.603 75.2399 108.967C75.2399 106.601 75.7253 103.418 76.9343 99.1764L76.4371 99.0281L76.48 99.5458L76.4371 99.0281L75.9384 98.8797C74.7131 103.182 74.2041 106.445 74.2041 108.954C74.2041 110.494 74.3965 111.749 74.7427 112.777C74.971 113.477 75.3174 114.133 75.7667 114.715C76.3448 115.448 77.1025 116.017 77.9657 116.368C78.7508 116.68 79.5785 116.87 80.4206 116.933C81.1087 116.996 82.1889 117.03 83.54 117.03C87.7122 117.018 91.8804 116.77 96.0248 116.288C98.2059 116.021 100.263 115.672 101.953 115.217C102.717 115.031 103.465 114.784 104.19 114.478C104.763 114.239 105.287 113.894 105.732 113.461C106.197 112.953 106.535 112.343 106.721 111.68C106.917 110.977 107.012 110.248 107.002 109.518C106.988 108.453 106.859 107.392 106.618 106.355C106.265 104.799 105.77 103.279 105.139 101.814C104.852 101.141 104.557 100.531 104.277 100.01C104.047 99.5689 103.786 99.1445 103.496 98.7403C103.362 98.5738 103.193 98.4395 103 98.3472C102.824 98.2604 102.641 98.1894 102.453 98.135C102.043 98.0184 101.625 97.9322 101.202 97.8769C100.482 97.7746 99.6206 97.7048 98.6528 97.6603C97.6851 97.6158 96.6122 97.5966 95.4743 97.5966C91.507 97.5966 86.7437 97.8309 82.9658 98.0653C79.188 98.2997 76.4016 98.5341 76.3986 98.5356L76.0435 98.5652L75.9443 98.9094L76.4385 99.0414Z" fill="#EE4947"/>
<path d="M20.4412 21.4469L13.8813 25.6955L20.0594 28.6757C20.1213 28.7116 20.1899 28.7342 20.2609 28.7422C20.332 28.7502 20.4039 28.7433 20.4722 28.722C20.5404 28.7008 20.6036 28.6656 20.6576 28.6187C20.7117 28.5718 20.7554 28.5141 20.7861 28.4494C20.8169 28.3847 20.8339 28.3144 20.8362 28.2427C20.8385 28.1711 20.8259 28.0998 20.7994 28.0332C20.7728 27.9667 20.7328 27.9064 20.6818 27.8562C20.6309 27.8059 20.5701 27.7667 20.5033 27.7412L15.99 25.5635L20.999 22.3192C21.0562 22.2822 21.1055 22.2342 21.1441 22.1781C21.1828 22.122 21.21 22.0588 21.2243 21.9921C21.2386 21.9255 21.2397 21.8566 21.2274 21.7896C21.2152 21.7225 21.1899 21.6585 21.1529 21.6012C21.116 21.5439 21.0682 21.4945 21.0122 21.4558C20.9562 21.417 20.8932 21.3897 20.8267 21.3754C20.7602 21.361 20.6915 21.36 20.6246 21.3723C20.5577 21.3845 20.4939 21.4099 20.4367 21.4469H20.4412Z" fill="white"/>
<path d="M26.1324 19.6149L22.4566 30.9469C22.4318 31.0126 22.4206 31.0827 22.4236 31.1529C22.4266 31.2231 22.4438 31.292 22.4741 31.3554C22.5044 31.4187 22.5472 31.4752 22.6 31.5215C22.6528 31.5678 22.7143 31.6028 22.781 31.6245C22.8477 31.6462 22.9181 31.6542 22.9879 31.6478C23.0577 31.6414 23.1255 31.6209 23.1872 31.5876C23.2488 31.5542 23.3031 31.5086 23.3467 31.4535C23.3903 31.3985 23.4222 31.3351 23.4407 31.2673L27.1209 19.9353C27.1457 19.8696 27.1569 19.7995 27.1539 19.7293C27.1509 19.6591 27.1338 19.5902 27.1034 19.5269C27.0731 19.4635 27.0303 19.407 26.9775 19.3607C26.9247 19.3145 26.8632 19.2794 26.7965 19.2577C26.7298 19.236 26.6595 19.2281 26.5896 19.2344C26.5198 19.2408 26.452 19.2613 26.3904 19.2947C26.3287 19.3281 26.2744 19.3737 26.2308 19.4287C26.1872 19.4838 26.1553 19.5471 26.1368 19.6149" fill="white"/>
<path d="M30.0213 22.9497L34.5064 25.6658L29.5596 29.0985C29.4465 29.1772 29.3693 29.2977 29.3449 29.4335C29.3205 29.5692 29.3509 29.7091 29.4294 29.8224C29.5078 29.9358 29.628 30.0132 29.7635 30.0377C29.8989 30.0621 30.0385 30.0317 30.1515 29.953L36.4168 25.5991L30.5569 22.0596C30.4392 21.9884 30.2981 21.967 30.1646 22.0001C30.0311 22.0332 29.9162 22.1181 29.8452 22.2361C29.7741 22.3542 29.7528 22.4956 29.7858 22.6294C29.8188 22.7633 29.9035 22.8784 30.0213 22.9497Z" fill="white"/>
<path d="M81.3974 110.233C82.2511 110.579 83.1636 110.756 84.0846 110.755C84.6254 110.757 85.1642 110.688 85.6872 110.55C86.6333 110.299 87.4994 109.809 88.2028 109.127C88.9975 108.366 89.7078 107.289 90.2508 105.81C90.5072 105.16 90.6489 104.471 90.6696 103.772C90.6747 103.399 90.61 103.029 90.4787 102.68C90.3869 102.448 90.2569 102.232 90.094 102.042C89.8602 101.778 89.5656 101.574 89.2357 101.449C88.9113 101.327 88.5671 101.266 88.2206 101.27C87.7655 101.274 87.3147 101.358 86.8888 101.519C86.2194 101.763 85.6234 102.176 85.1575 102.716C84.9188 102.995 84.7278 103.311 84.5922 103.652C84.4502 104.01 84.3773 104.392 84.3776 104.778C84.3792 105.183 84.4529 105.585 84.5951 105.965C84.7623 106.402 84.9921 106.812 85.2773 107.183C86.2525 108.479 87.1759 109.449 88.1288 110.109C88.5782 110.424 89.0693 110.674 89.5879 110.851C90.0794 111.017 90.5947 111.102 91.1135 111.102C92.0517 111.102 93.0062 110.833 94.0124 110.345C95.0186 109.857 96.0841 109.15 97.2679 108.242C97.737 107.898 98.1516 107.485 98.4976 107.016C98.6272 106.833 98.7331 106.633 98.8128 106.423C98.8844 106.233 98.922 106.032 98.9237 105.83C98.9251 105.542 98.8406 105.261 98.6811 105.023C98.5662 104.854 98.4219 104.707 98.2549 104.589C98.0018 104.414 97.719 104.286 97.4203 104.211C97.103 104.131 96.7768 104.091 96.4496 104.093C95.9946 104.093 95.5422 104.161 95.1074 104.296C94.4051 104.493 93.773 104.886 93.2844 105.429C93.0281 105.725 92.8275 106.066 92.6924 106.433C92.5452 106.842 92.472 107.273 92.4764 107.708C92.4764 107.786 92.4764 107.865 92.4764 107.945C92.4923 108.461 92.6205 108.967 92.8523 109.428C93.0092 109.73 93.2216 109.999 93.4782 110.222C93.8518 110.538 94.2919 110.765 94.7656 110.885C95.2488 111.01 95.7464 111.07 96.2454 111.063C96.8913 111.056 97.5353 110.99 98.1691 110.864C99.375 110.625 100.555 110.271 101.694 109.807C101.758 109.781 101.816 109.743 101.865 109.694C101.914 109.646 101.953 109.588 101.979 109.524C102.005 109.46 102.019 109.392 102.018 109.323C102.018 109.254 102.004 109.185 101.977 109.122C101.95 109.058 101.911 109.001 101.861 108.953C101.812 108.905 101.754 108.867 101.689 108.842C101.625 108.816 101.557 108.804 101.488 108.806C101.419 108.808 101.351 108.823 101.288 108.851C100.727 109.078 100.154 109.276 99.5719 109.445C98.5938 109.741 97.3389 110.019 96.2409 110.017C95.8768 110.022 95.5134 109.985 95.1577 109.906C94.9291 109.856 94.7082 109.776 94.5007 109.667C94.2208 109.522 93.9859 109.303 93.8215 109.034C93.6239 108.684 93.5165 108.29 93.5093 107.887C93.5093 107.828 93.5093 107.769 93.5093 107.709C93.5013 107.305 93.5917 106.905 93.7727 106.543C93.8935 106.311 94.0532 106.1 94.2447 105.922C94.5416 105.653 94.89 105.448 95.2687 105.319C95.6469 105.187 96.0445 105.119 96.4451 105.118C96.6596 105.116 96.8736 105.139 97.0829 105.186C97.3156 105.231 97.5336 105.333 97.7177 105.483C97.7703 105.528 97.8135 105.584 97.845 105.646C97.8713 105.701 97.885 105.761 97.8849 105.822C97.8819 105.906 97.8649 105.989 97.8346 106.067C97.7489 106.28 97.6267 106.475 97.4736 106.646C97.2208 106.932 96.9392 107.192 96.6331 107.42C95.4862 108.31 94.4711 108.973 93.5596 109.414C92.648 109.854 91.8475 110.066 91.1121 110.066C90.7054 110.067 90.3013 110.001 89.9164 109.869C89.2429 109.625 88.6239 109.249 88.0948 108.765C87.3551 108.1 86.6871 107.359 86.1015 106.554C85.8778 106.264 85.6974 105.943 85.5659 105.601C85.4685 105.338 85.4184 105.06 85.4179 104.779C85.4177 104.44 85.5027 104.107 85.665 103.809C85.9241 103.35 86.3065 102.973 86.7689 102.72C87.2118 102.462 87.7128 102.321 88.225 102.309C88.4213 102.307 88.6168 102.336 88.8036 102.397C89.0437 102.47 89.2522 102.622 89.3955 102.829C89.4753 102.946 89.5348 103.077 89.5716 103.214C89.6199 103.398 89.6433 103.588 89.6412 103.778C89.6207 104.354 89.5005 104.922 89.286 105.457C89.0115 106.237 88.6268 106.973 88.1436 107.642C87.6287 108.365 86.9338 108.939 86.1282 109.308C85.4885 109.588 84.7972 109.729 84.0994 109.722C83.5497 109.72 83.0025 109.646 82.4717 109.503C82.266 109.446 82.1032 109.391 81.9937 109.354C81.939 109.335 81.8975 109.319 81.8709 109.307L81.8428 109.295L81.7155 109.592L81.8443 109.295L81.717 109.592L81.8457 109.295C81.7212 109.244 81.5816 109.243 81.4566 109.293C81.3317 109.344 81.2311 109.441 81.1763 109.564C81.1214 109.687 81.1166 109.827 81.1629 109.954C81.2091 110.08 81.3028 110.184 81.424 110.243L81.3974 110.233Z" fill="white"/>
<path d="M54.017 45.3764C54.017 45.6442 53.9378 45.9061 53.7893 46.1288C53.6409 46.3515 53.4299 46.5251 53.183 46.6276C52.9361 46.7302 52.6645 46.757 52.4024 46.7047C52.1403 46.6525 51.8996 46.5235 51.7107 46.3341C51.5217 46.1446 51.393 45.9033 51.3409 45.6406C51.2888 45.3779 51.3155 45.1055 51.4178 44.8581C51.52 44.6106 51.6932 44.3991 51.9154 44.2502C52.1376 44.1014 52.3988 44.022 52.666 44.022C53.0243 44.022 53.3679 44.1647 53.6213 44.4187C53.8747 44.6727 54.017 45.0172 54.017 45.3764Z" fill="#231F20"/>
<path d="M68.0202 44.022C68.0202 44.2899 67.9409 44.5517 67.7925 44.7744C67.644 44.9972 67.433 45.1708 67.1862 45.2733C66.9393 45.3758 66.6676 45.4026 66.4056 45.3503C66.1435 45.2981 65.9028 45.1691 65.7138 44.9797C65.5249 44.7903 65.3962 44.5489 65.3441 44.2862C65.2919 44.0235 65.3187 43.7512 65.421 43.5037C65.5232 43.2562 65.6964 43.0447 65.9186 42.8959C66.1407 42.747 66.4019 42.6676 66.6691 42.6676C67.0275 42.6676 67.3711 42.8103 67.6245 43.0643C67.8778 43.3183 68.0202 43.6628 68.0202 44.022Z" fill="#231F20"/>
</g>
<defs>
<clipPath id="clip0_2179_1450">
<rect width="128" height="128" fill="white" transform="translate(1)"/>
</clipPath>
</defs>
</svg>
