<svg width="130" height="130" viewBox="0 0 130 130" fill="none" xmlns="http://www.w3.org/2000/svg">
<path d="M95.892 40.9133H28.0262C22.0856 40.9133 17.2698 45.7289 17.2698 51.6692V94.5391C17.2698 100.479 22.0856 105.295 28.0262 105.295H95.892C101.833 105.295 106.648 100.479 106.648 94.5391V51.6692C106.648 45.7289 101.833 40.9133 95.892 40.9133Z" fill="#EE4947"/>
<path d="M95.8921 105.295V104.764H28.0337C25.3195 104.764 22.7164 103.686 20.7971 101.766C18.8778 99.8472 17.7996 97.2442 17.7996 94.5301V51.6692C17.7996 48.9551 18.8778 46.3521 20.7971 44.4329C22.7164 42.5137 25.3195 41.4355 28.0337 41.4355H95.8921C98.6063 41.4355 101.209 42.5137 103.129 44.4329C105.048 46.3521 106.126 48.9551 106.126 51.6692V94.5376C106.126 97.2517 105.048 99.8547 103.129 101.774C101.209 103.693 98.6063 104.771 95.8921 104.771V105.825C98.8858 105.825 101.757 104.636 103.874 102.519C105.991 100.402 107.18 97.5311 107.18 94.5376V51.6692C107.18 48.6757 105.991 45.8047 103.874 43.688C101.757 41.5713 98.8858 40.3821 95.8921 40.3821H28.0337C25.0401 40.3821 22.169 41.5713 20.0522 43.688C17.9353 45.8047 16.7461 48.6757 16.7461 51.6692V94.5376C16.7461 97.5311 17.9353 100.402 20.0522 102.519C22.169 104.636 25.0401 105.825 28.0337 105.825H95.8921V105.295Z" fill="#231F20"/>
<path d="M60.7722 49.1393H23.9143V73.1041H60.7722V49.1393Z" fill="white"/>
<path d="M23.9145 73.1041V73.6309H61.2991V48.6126H23.3877V73.6309H23.9145V73.1041H24.4412V49.6661H60.2456V72.5774H23.9145V73.1041H24.4412H23.9145Z" fill="#231F20"/>
<path d="M100.479 59.1051H55.0774C54.0704 59.1051 53.1045 58.7051 52.3924 57.993C51.6803 57.281 51.2803 56.3152 51.2803 55.3082C51.2803 54.3011 51.6803 53.3354 52.3924 52.6233C53.1045 51.9112 54.0704 51.5112 55.0774 51.5112H100.479C101.486 51.5112 102.452 51.9112 103.164 52.6233C103.876 53.3354 104.277 54.3011 104.277 55.3082C104.277 56.3152 103.876 57.281 103.164 57.993C102.452 58.7051 101.486 59.1051 100.479 59.1051Z" fill="white"/>
<path d="M100.479 59.1051V58.5783H55.0773C54.21 58.5783 53.3781 58.2338 52.7648 57.6205C52.1515 57.0072 51.8069 56.1754 51.8069 55.3081C51.8069 54.4408 52.1515 53.609 52.7648 52.9957C53.3781 52.3824 54.21 52.0378 55.0773 52.0378H100.479C101.347 52.0378 102.178 52.3824 102.792 52.9957C103.405 53.609 103.75 54.4408 103.75 55.3081C103.75 56.1754 103.405 57.0072 102.792 57.6205C102.178 58.2338 101.347 58.5783 100.479 58.5783V59.6318C101.626 59.6318 102.726 59.1763 103.537 58.3654C104.348 57.5546 104.803 56.4548 104.803 55.3081C104.803 54.1614 104.348 53.0616 103.537 52.2508C102.726 51.4399 101.626 50.9844 100.479 50.9844H55.0773C53.9306 50.9844 52.8308 51.4399 52.0199 52.2508C51.209 53.0616 50.7534 54.1614 50.7534 55.3081C50.7534 56.4548 51.209 57.5546 52.0199 58.3654C52.8308 59.1763 53.9306 59.6318 55.0773 59.6318H100.479V59.1051Z" fill="#231F20"/>
<path d="M84.2913 80.5521L84.7534 80.8035L86.9056 76.8605L85.7542 76.2359L89.7501 73.0319L89.288 78.3489L87.8312 77.7048L85.9303 80.9615L84.5728 80.1052L84.2913 80.5521L84.7534 80.8035L84.2913 80.5521L84.0099 80.9976L86.2915 82.4348L88.2661 79.0487L90.2106 79.908L91.0128 70.6707L83.8579 76.4045L85.4743 77.2819L83.593 80.7327L84.0099 80.9976L84.2913 80.5521Z" fill="white"/>
<path d="M44.3602 36.0884L43.2932 33.9529H40.1688C40.1688 33.9529 38.0331 33.5977 37.994 31.0664C37.9549 28.5351 41.1771 28.496 41.1771 28.496H45.784C45.784 28.496 48.1183 28.812 48.0415 31.1462C47.9648 33.4804 44.881 33.9138 44.881 33.9138L44.3602 36.0884Z" fill="white"/>
<path d="M44.36 36.0884L44.8311 35.8537L43.618 33.4292H40.1685V33.9559L40.2543 33.4367L40.2242 33.6248L40.2588 33.4367L40.2287 33.6248L40.2633 33.4367C40.1633 33.4168 40.0655 33.3871 39.9714 33.3479C39.6223 33.2152 39.3119 32.9974 39.0683 32.7143C38.9068 32.5204 38.78 32.2999 38.6936 32.0627C38.581 31.7405 38.523 31.4017 38.522 31.0604V31.0213C38.519 30.803 38.5547 30.586 38.6274 30.3802C38.7369 30.0864 38.9306 29.8315 39.1842 29.6473C39.3784 29.5044 39.591 29.3885 39.8163 29.3026C40.1237 29.1863 40.4433 29.1055 40.769 29.0618C40.9 29.0438 41.0083 29.0347 41.0821 29.0287H41.1648H41.1874V28.8662V29.0287V28.8662V29.0287V28.502V29.0287H45.7943V28.502L45.7235 29.0242L45.7657 28.7142L45.722 29.0227L45.7642 28.7127L45.7205 29.0212C45.8385 29.0418 45.9548 29.0714 46.0682 29.11C46.422 29.222 46.7446 29.4153 47.0103 29.6743C47.1641 29.8297 47.2858 30.0138 47.3685 30.2161C47.4735 30.4755 47.5247 30.7535 47.519 31.0333C47.519 31.0649 47.519 31.098 47.519 31.1311C47.5135 31.3412 47.4723 31.5489 47.3971 31.7452C47.2704 32.055 47.0674 32.3278 46.8072 32.5383C46.4188 32.8468 45.9755 33.0792 45.5008 33.223C45.2961 33.2892 45.1185 33.3329 44.9936 33.36L44.8506 33.3886H44.816V33.4111V33.3886V33.4111V33.3886L44.4593 33.4397L43.8573 35.965L44.369 36.0854L44.8401 35.8506L44.369 36.0854L44.8822 36.2073L45.3864 34.0312L44.8747 33.9108L44.9485 34.4315C45.1322 34.4036 45.3141 34.3649 45.4933 34.3156C46.1504 34.1489 46.7702 33.8599 47.3204 33.4638C47.6617 33.2119 47.9501 32.8954 48.1692 32.5322C48.4159 32.1159 48.5522 31.6435 48.565 31.1597C48.565 31.1161 48.565 31.0709 48.565 31.0273C48.5766 30.4597 48.4273 29.9004 48.1346 29.414C47.9505 29.1239 47.7161 28.8691 47.4423 28.6615C47.1244 28.4199 46.7683 28.2332 46.3888 28.1092C46.2162 28.0505 46.039 28.0067 45.859 27.9783H45.8244H41.1709C40.9814 27.9832 40.7924 27.9998 40.605 28.0279C40.3062 28.0705 40.0112 28.137 39.723 28.2266C39.1638 28.3899 38.6521 28.6857 38.2316 29.0889C37.9949 29.3262 37.8067 29.6073 37.6777 29.9166C37.5335 30.2695 37.4614 30.6476 37.4655 31.0288C37.4655 31.0484 37.4655 31.0664 37.4655 31.0845C37.4648 31.6904 37.6082 32.2877 37.8839 32.8272C38.0517 33.1452 38.2732 33.4318 38.5386 33.6745C38.8375 33.9477 39.1838 34.1639 39.5605 34.3126C39.7284 34.3807 39.9029 34.4311 40.0812 34.4631L40.1249 34.4706H42.9663L44.5391 37.6144L44.8732 36.2013L44.36 36.0884Z" fill="#231F20"/>
<path d="M54.8411 55.8348H100.637V54.7814H54.8411" fill="#231F20"/>
<path d="M85.1418 55.3081H84.615C84.6149 55.5097 84.545 55.7051 84.417 55.8609C84.289 56.0167 84.1109 56.1233 83.9131 56.1626C83.7153 56.2018 83.51 56.1712 83.3323 56.076C83.1545 55.9808 83.0152 55.827 82.9382 55.6406C82.8612 55.4543 82.8512 55.247 82.91 55.0541C82.9687 54.8612 83.0925 54.6946 83.2603 54.5828C83.4281 54.4709 83.6295 54.4208 83.8301 54.4408C84.0308 54.4608 84.2183 54.5498 84.3607 54.6926C84.4416 54.7733 84.5058 54.8692 84.5494 54.9749C84.5931 55.0805 84.6154 55.1938 84.615 55.3081H85.6685C85.6696 54.8633 85.5162 54.4319 85.2347 54.0875C84.9532 53.7431 84.561 53.507 84.1248 53.4194C83.6887 53.3319 83.2357 53.3983 82.8431 53.6075C82.4505 53.8166 82.1425 54.1554 81.9718 54.5662C81.8011 54.9769 81.7782 55.4342 81.907 55.86C82.0358 56.2857 82.3082 56.6537 82.678 56.901C83.0477 57.1483 83.4918 57.2597 83.9345 57.2163C84.3772 57.1728 84.7911 56.9771 85.1056 56.6626C85.284 56.4849 85.4255 56.2738 85.5221 56.0414C85.6187 55.809 85.6684 55.5598 85.6685 55.3081H85.1418Z" fill="#231F20"/>
<path d="M114.846 19.5989L112.126 24.1137C112.126 24.1137 113.339 29.7031 112.814 31.9169C112.388 33.7077 110.203 36.5671 109.381 37.5965C109.364 37.6183 109.354 37.6451 109.353 37.6729C109.352 37.7006 109.361 37.7279 109.377 37.7505C109.393 37.7731 109.416 37.7899 109.443 37.7982C109.469 37.8065 109.498 37.806 109.524 37.7967C110.69 37.3828 113.622 36.7222 112.6 41.0654C111.336 46.4441 104.774 45.201 104.774 45.201C102.321 47.8332 99.4734 46.3644 99.4734 46.3644C92.0386 48.4999 93.1523 41.4612 93.1523 41.4612C88.249 43.5968 85.9553 55.3068 84.9259 55.9087C83.8965 56.5107 79.6132 57.5913 80.7344 50.1568C83.2659 39.2414 94.9719 24.2943 95.5257 23.5027C95.8644 23.0181 96.0254 20.103 96.0992 17.9148C96.1458 16.5288 96.1579 15.4347 96.1579 15.4347L117.883 14.5648L114.846 19.5989Z" fill="white"/>
<path d="M114.846 19.5989L114.394 19.328L111.566 24.0204L111.611 24.2251C111.611 24.2251 111.611 24.2371 111.62 24.2657C111.664 24.4704 111.864 25.4365 112.054 26.645C112.267 27.9073 112.389 29.1833 112.42 30.4631C112.429 30.9096 112.389 31.3557 112.301 31.7934C112.17 32.2731 111.984 32.7358 111.745 33.172C111.31 33.9837 110.822 34.7664 110.285 35.5152C109.766 36.2511 109.273 36.8862 108.969 37.2669C108.891 37.3631 108.843 37.4791 108.828 37.6016C108.814 37.724 108.835 37.8481 108.888 37.9595C108.94 38.0709 109.024 38.1651 109.128 38.2313C109.232 38.2975 109.352 38.3331 109.476 38.3339C109.551 38.3337 109.626 38.3204 109.697 38.2948C109.905 38.2203 110.118 38.1589 110.334 38.1112C110.571 38.0565 110.813 38.0272 111.056 38.0239C111.224 38.0213 111.391 38.0431 111.553 38.0886C111.653 38.1181 111.748 38.1639 111.834 38.2241C111.969 38.3252 112.074 38.4624 112.135 38.6199C112.24 38.8955 112.288 39.1891 112.278 39.4837C112.268 39.9773 112.201 40.4681 112.079 40.9465C111.921 41.6786 111.597 42.3646 111.131 42.9511C110.834 43.317 110.478 43.6313 110.078 43.8812C109.497 44.2353 108.859 44.4849 108.192 44.6186C107.59 44.7418 106.978 44.8028 106.363 44.8007C105.999 44.8005 105.635 44.7809 105.272 44.742C105.14 44.727 105.036 44.7119 104.971 44.7014L104.893 44.6893H104.875L104.864 44.7435L104.875 44.6893L104.864 44.7435L104.875 44.6893L104.589 44.6367L104.392 44.8489C103.955 45.3342 103.417 45.7175 102.816 45.9715C102.36 46.1588 101.871 46.2544 101.377 46.253C100.966 46.2515 100.558 46.1901 100.164 46.0709C100.014 46.0257 99.8978 45.9806 99.821 45.949L99.7367 45.9113L99.7187 45.9023L99.6103 46.116L99.7202 45.9023L99.6118 46.116L99.7217 45.9023L99.5366 45.806L99.3349 45.8647C98.5668 46.1013 97.7695 46.2299 96.966 46.247C96.3409 46.2716 95.7203 46.132 95.166 45.8421C94.8595 45.6708 94.5916 45.4382 94.3789 45.1589C94.0779 44.7453 93.8672 44.2731 93.7603 43.7728C93.6587 43.3168 93.6082 42.8509 93.6098 42.3838C93.6098 42.1309 93.6234 41.9172 93.6369 41.7682C93.6369 41.6945 93.6504 41.6373 93.655 41.5997C93.6595 41.5621 93.655 41.5681 93.655 41.559V41.55L93.4352 41.5169L93.655 41.5515L93.4352 41.5184L93.655 41.553L93.8055 40.6049L92.925 40.9872C92.2236 41.3075 91.587 41.7538 91.0468 42.304C90.0519 43.2852 89.2136 44.581 88.4882 45.9821C87.3941 48.089 86.5468 50.4292 85.8876 52.2923C85.5595 53.2224 85.2765 54.0351 85.0417 54.622C84.951 54.8562 84.8475 55.0853 84.7317 55.3082C84.7015 55.3657 84.6673 55.421 84.6294 55.4738L84.6158 55.4903L84.6309 55.5054L84.6158 55.4888L84.6309 55.5039L84.6158 55.4873L84.7498 55.6378L84.6489 55.4678C84.6372 55.4748 84.6261 55.4828 84.6158 55.4918L84.7498 55.6423L84.6489 55.4723C84.4664 55.5739 84.2724 55.6532 84.071 55.7086C83.7988 55.7893 83.5166 55.8308 83.2327 55.832C82.9727 55.8359 82.7142 55.7904 82.4712 55.698C82.2847 55.6265 82.1132 55.5209 81.9655 55.3865C81.6746 55.1107 81.46 54.7644 81.3424 54.3812C81.1428 53.737 81.0508 53.0643 81.07 52.3901C81.0763 51.6703 81.1361 50.952 81.2491 50.2411L80.7283 50.1628L81.2416 50.2817C81.8601 47.6134 83.0476 44.6637 84.5014 41.7396C86.6777 37.3497 89.4349 33.0109 91.6984 29.7106C92.8302 28.0552 93.8386 26.6601 94.5896 25.6397C94.9658 25.1295 95.2774 24.7142 95.5076 24.4057L95.7921 24.0279C95.8658 23.9286 95.917 23.8609 95.9516 23.8112C95.9985 23.7419 96.0379 23.6677 96.069 23.59C96.1244 23.4431 96.1682 23.2922 96.2 23.1385C96.2704 22.7962 96.3236 22.4507 96.3595 22.1031C96.4964 20.9127 96.5732 19.2858 96.6198 17.9329C96.6665 16.5408 96.6785 15.4437 96.6785 15.4407H96.1518L96.1729 15.9674L116.918 15.1412L114.394 19.3325L114.846 19.6034L115.297 19.8758L118.829 14.0065L95.628 14.935V15.4347C95.628 15.4347 95.628 15.5024 95.628 15.6258C95.628 15.996 95.607 16.8689 95.5724 17.9028C95.5362 18.9924 95.4775 20.2625 95.3872 21.3085C95.3421 21.8307 95.2879 22.2987 95.2277 22.6509C95.206 22.794 95.1758 22.9357 95.1374 23.0753C95.1269 23.1145 95.1143 23.1532 95.0998 23.1912L95.0892 23.2152L95.175 23.2634L95.0953 23.2077V23.2152L95.181 23.2634L95.1013 23.2077L95.026 23.3101C94.8755 23.5072 94.5745 23.912 94.1531 24.4779C92.6722 26.4704 89.7404 30.5127 86.9065 35.2247C85.4492 37.6226 84.1175 40.0946 82.9166 42.6306C81.7397 45.1559 80.778 47.6797 80.2287 50.0439V50.065V50.0846C80.1008 50.8468 80.0299 51.6174 80.0165 52.3901C80.0044 53.1014 80.0931 53.8107 80.2798 54.4971C80.3925 54.8935 80.5656 55.2701 80.7931 55.6137C81.0783 56.0432 81.4768 56.3853 81.9444 56.6025C82.3502 56.7828 82.7901 56.8737 83.2342 56.8689C83.6167 56.8666 83.9971 56.8114 84.3645 56.7048C84.6526 56.6253 84.9297 56.51 85.1892 56.3617C85.2755 56.3086 85.3527 56.2421 85.418 56.1646C85.5314 56.026 85.6279 55.8744 85.7054 55.7131C85.8989 55.3145 86.0702 54.9055 86.2187 54.488C86.5422 53.6227 86.9215 52.5 87.37 51.275C88.0412 49.4389 88.875 47.3711 89.8789 45.6284C90.339 44.8064 90.8865 44.0365 91.5118 43.3319C92.0234 42.7435 92.6518 42.2679 93.357 41.9353L93.1463 41.4522L92.6255 41.3709C92.5801 41.7015 92.5584 42.035 92.5608 42.3687C92.5593 42.8485 92.6041 43.3273 92.6948 43.7984C92.7749 44.2136 92.9043 44.6178 93.08 45.0024C93.3054 45.5168 93.6442 45.9735 94.0711 46.3384C94.498 46.7033 95.002 46.9668 95.5453 47.1093C96.0062 47.2316 96.4816 47.2914 96.9585 47.2869C97.8608 47.2703 98.7564 47.128 99.6194 46.864L99.4688 46.3568L99.2281 46.8249C99.4283 46.9233 99.6368 47.0039 99.8511 47.0656C100.344 47.215 100.855 47.2916 101.37 47.2929C102 47.2944 102.624 47.1722 103.207 46.9332C103.947 46.6234 104.61 46.1554 105.15 45.5622L104.765 45.2025L104.667 45.7202C105.226 45.8136 105.792 45.8584 106.359 45.8542C106.964 45.8582 107.569 45.8079 108.165 45.7037C109.231 45.5297 110.239 45.1007 111.103 44.4531C111.582 44.08 111.993 43.6274 112.319 43.1152C112.689 42.5239 112.957 41.8741 113.11 41.1933C113.25 40.6359 113.326 40.0644 113.336 39.4897C113.344 39.097 113.284 38.7058 113.157 38.3339C113.073 38.0978 112.948 37.8787 112.787 37.6868C112.567 37.4285 112.282 37.2333 111.962 37.121C111.672 37.0197 111.366 36.9688 111.059 36.9705C110.74 36.973 110.422 37.0103 110.111 37.0818C109.852 37.1397 109.598 37.2131 109.348 37.3015L109.479 37.6703V37.279C109.434 37.2779 109.39 37.2856 109.348 37.3015L109.479 37.6703V37.6823L109.644 37.3136C109.592 37.2897 109.536 37.2779 109.479 37.279V37.6823L109.644 37.3136L109.482 37.6748L109.813 37.4581C109.773 37.3923 109.714 37.3399 109.644 37.3076L109.482 37.6688L109.813 37.452L109.48 37.6703H109.879C109.879 37.5926 109.856 37.5167 109.813 37.452L109.48 37.6703L109.792 37.9216C109.85 37.8506 109.881 37.7618 109.881 37.6703H109.48L109.792 37.9216C110.209 37.3979 110.969 36.4166 111.684 35.3271C112.043 34.7886 112.374 34.2321 112.675 33.6596C112.954 33.1474 113.17 32.6038 113.32 32.0403C113.428 31.5228 113.479 30.9948 113.47 30.4661C113.47 29.1252 113.259 27.5224 113.053 26.2417C112.847 24.961 112.639 24.0099 112.638 24.0038L112.123 24.1152L112.575 24.3876L115.294 19.8728L114.846 19.5989Z" fill="#231F20"/>
<path d="M99.9822 46.238C99.9822 46.238 99.9823 46.2109 99.9612 46.1567C99.8619 45.7534 99.4058 43.8993 98.9784 41.8104C98.7632 40.766 98.5555 39.6613 98.4035 38.65C98.2609 37.801 98.1769 36.9431 98.1521 36.0826H97.0986C97.1289 37.0662 97.2295 38.0464 97.3996 39.0157C97.6615 40.6892 98.0528 42.5539 98.3794 44.0046C98.706 45.4554 98.9649 46.4893 98.9664 46.4923L99.9883 46.235L99.9822 46.238Z" fill="#231F20"/>
<path d="M105.271 45.0385L105.248 44.9678C105.135 44.6171 104.618 42.9993 104.1 41.1257C103.841 40.1881 103.582 39.1873 103.373 38.2497C103.181 37.4345 103.039 36.6082 102.949 35.7756L101.895 35.8674C101.997 36.8121 102.16 37.7492 102.384 38.6726C103.089 41.7683 104.262 45.3576 104.265 45.3666L105.266 45.0385H105.271Z" fill="#231F20"/>
<path d="M108.549 38.0736V38.0826C108.558 38.1293 108.597 38.3641 108.633 38.6696C108.675 39.0005 108.699 39.3337 108.704 39.6673C108.706 39.8079 108.696 39.9483 108.675 40.0872C108.67 40.1216 108.662 40.1553 108.651 40.1881V40.1956L108.791 40.2708L108.672 40.1655C108.664 40.1749 108.657 40.185 108.651 40.1956L108.791 40.2708L108.672 40.1655L108.904 40.3837L108.708 40.1339C108.695 40.1428 108.683 40.1534 108.672 40.1655L108.904 40.3837L108.708 40.1339L109.002 40.5101L108.788 40.0827C108.759 40.0968 108.733 40.114 108.708 40.1339L109.002 40.5101L108.788 40.0827L109.015 40.5342L108.872 40.0481C108.843 40.0565 108.815 40.0676 108.788 40.0812L109.015 40.5327L108.872 40.0466L109.023 40.5432V40.0255C108.972 40.0253 108.921 40.0324 108.872 40.0466L109.023 40.5432L109.173 40.0421C109.124 40.0289 109.073 40.0223 109.023 40.0225V40.5432L109.173 40.0421L109.023 40.5447L109.4 40.1866C109.337 40.1163 109.256 40.0644 109.166 40.0361L109.015 40.5387L109.393 40.1805L109.018 40.5357L109.521 40.4153C109.5 40.3269 109.456 40.2457 109.393 40.1805L109.018 40.5357L109.521 40.4153L109.039 40.5297H109.534C109.535 40.4911 109.53 40.4527 109.521 40.4153L109.039 40.5297H109.136L109.53 40.5989C109.531 40.5759 109.531 40.5527 109.53 40.5297H109.131L109.525 40.5989L109.384 40.5748L109.524 40.6049L109.382 40.5809L109.522 40.6109C109.522 40.6109 109.522 40.5914 109.534 40.5658C109.56 40.471 109.614 40.2859 109.659 40.0541C109.716 39.7762 109.744 39.4934 109.745 39.2098C109.747 38.7213 109.651 38.2372 109.464 37.7862C109.215 37.2115 108.834 36.704 108.351 36.3053L107.671 37.1135C108.028 37.4062 108.311 37.7797 108.496 38.203C108.63 38.5243 108.697 38.8693 108.695 39.2174C108.693 39.4785 108.661 39.7385 108.6 39.9924C108.576 40.0963 108.552 40.1835 108.531 40.2573C108.521 40.2949 108.511 40.328 108.502 40.3656C108.493 40.4033 108.493 40.4048 108.488 40.4304C108.482 40.4676 108.478 40.5054 108.478 40.5432C108.475 40.5733 108.475 40.6035 108.478 40.6335C108.484 40.6701 108.493 40.7059 108.506 40.7404C108.521 40.779 108.541 40.8159 108.564 40.8502C108.614 40.9249 108.682 40.9855 108.762 41.0263C108.839 41.0687 108.926 41.0904 109.014 41.0895C109.076 41.0897 109.138 41.079 109.197 41.0579C109.248 41.0397 109.295 41.0139 109.337 40.9812C109.367 40.9603 109.394 40.9366 109.418 40.9104L109.467 40.8593C109.542 40.7704 109.601 40.6684 109.64 40.5583C109.69 40.4172 109.722 40.2707 109.738 40.1218C109.753 39.9719 109.761 39.8212 109.76 39.6704C109.755 39.2727 109.726 38.8757 109.674 38.4815C109.631 38.1428 109.589 37.9005 109.589 37.8945L108.55 38.0766L108.549 38.0736Z" fill="#231F20"/>
<path d="M26.7273 121.929C26.7273 121.929 25.2223 106.174 25.7641 105.647C26.3059 105.12 34.5941 102.226 38.0421 101.484C41.4901 100.742 40.0874 98.0847 35.9531 98.5754C31.8188 99.066 26.5091 99.0043 25.892 95.415C25.275 91.8257 27.9464 87.3093 29.6712 87.5366C31.3959 87.7638 36.4919 90.2726 37.1044 88.0392C37.717 85.8059 30.4086 83.1662 28.7982 83.273C27.1879 83.3799 23.6481 86.0241 23.6481 86.0241C23.6481 86.0241 28.6673 78.23 28.9623 76.5926C29.2573 74.9552 29.2091 73.515 28.0593 73.1312C26.9094 72.7474 23.028 78.6107 23.028 78.6107C23.028 78.6107 25.8875 75.0786 23.2372 74.0101C20.5869 72.9416 14.7429 86.9827 14.7429 86.9827C14.7429 86.9827 17.2818 76.8138 16.1681 76.1893C15.0544 75.5647 12.0338 76.6799 10.8057 89.6014C9.57763 102.523 13.5855 104.482 12.0639 119.678L26.7273 121.929Z" fill="white"/>
<path d="M26.7273 121.929L27.251 121.879C27.251 121.879 27.2345 121.703 27.2044 121.389C27.1005 120.284 26.8432 117.468 26.6024 114.519C26.4865 113.042 26.3766 111.534 26.3014 110.189C26.2261 108.844 26.1704 107.664 26.1704 106.856C26.1704 106.521 26.1795 106.254 26.196 106.075C26.2004 106.015 26.209 105.955 26.2216 105.897V105.888L26.026 105.826L26.2081 105.92C26.2138 105.91 26.2183 105.899 26.2216 105.888L26.026 105.826L26.2081 105.92L25.8439 105.733L26.1268 106.034C26.1598 106.003 26.1872 105.966 26.2081 105.926L25.8439 105.739L26.1268 106.04L26.0109 105.92L26.1117 106.052L26.1268 106.04L26.0109 105.92L26.1117 106.052L26.1554 106.025C26.2081 105.993 26.2954 105.947 26.4082 105.894C26.6219 105.792 26.9229 105.662 27.2872 105.515C28.5664 104.997 30.6253 104.261 32.6902 103.585C33.7241 103.248 34.7596 102.925 35.7002 102.651C36.6409 102.377 37.4942 102.153 38.1489 102.011C38.8728 101.861 39.4297 101.62 39.839 101.299C40.0366 101.148 40.2028 100.959 40.3282 100.744C40.4465 100.536 40.5097 100.301 40.5118 100.062C40.5068 99.7417 40.3974 99.4316 40.2002 99.1789C40.0488 98.9832 39.8657 98.8143 39.6584 98.6792C39.3 98.4475 38.9045 98.279 38.489 98.1811C37.9777 98.0566 37.453 97.996 36.9268 98.0005C36.5792 98.0014 36.2319 98.023 35.8868 98.0652C34.7883 98.2013 33.6827 98.2731 32.5758 98.2804C31.0076 98.2804 29.5071 98.0968 28.4009 97.6257C27.8936 97.4266 27.4363 97.1183 27.0614 96.7228C26.7129 96.3345 26.4845 95.8536 26.4037 95.3382C26.3478 95.0035 26.3201 94.6647 26.3209 94.3254C26.3209 92.8205 26.8402 91.1876 27.5415 89.9746C27.8359 89.4409 28.2099 88.9552 28.6507 88.5344C28.8045 88.3902 28.9771 88.2677 29.1639 88.1702C29.2789 88.1054 29.407 88.0673 29.5387 88.0588C29.5577 88.0572 29.5768 88.0572 29.5959 88.0588C29.7511 88.0815 29.9048 88.1131 30.0564 88.1536C30.3785 88.2349 30.7773 88.3583 31.2153 88.4982C31.8715 88.7059 32.6164 88.9497 33.3599 89.1439C34.0622 89.3454 34.7865 89.4601 35.5166 89.4855C35.7367 89.4875 35.9565 89.4678 36.1728 89.4268C36.4949 89.3718 36.7985 89.2379 37.0562 89.037C37.1884 88.9308 37.3023 88.8037 37.3934 88.6608C37.4876 88.5117 37.5591 88.3494 37.6056 88.1792C37.6426 88.0454 37.6614 87.9072 37.6613 87.7683C37.6601 87.571 37.6244 87.3755 37.5559 87.1904C37.4196 86.8419 37.2149 86.5241 36.9539 86.2559C36.4208 85.7191 35.8125 85.2628 35.1479 84.9014C34.0453 84.2825 32.8862 83.77 31.6863 83.3709C31.1174 83.1798 30.5801 83.0263 30.1091 82.9194C29.8728 82.8652 29.6576 82.8231 29.4514 82.7945C29.2687 82.7654 29.0841 82.7498 28.899 82.7478C28.8524 82.7478 28.8072 82.7478 28.7606 82.7478C28.4836 82.772 28.2106 82.8301 27.9479 82.9209C27.421 83.1062 26.9109 83.3363 26.4233 83.6087C25.6467 84.0285 24.8791 84.5237 24.2997 84.9165C23.7203 85.3093 23.335 85.5982 23.3305 85.6012L23.645 86.0241L24.089 86.3085C24.089 86.3085 25.3472 84.3521 26.6475 82.1925C27.2962 81.112 27.9554 79.9787 28.4731 79.005C28.7335 78.5174 28.9577 78.0705 29.1308 77.6837C29.2181 77.4896 29.2918 77.312 29.3505 77.1479C29.4075 76.9984 29.4518 76.8444 29.483 76.6874C29.5816 76.1693 29.635 75.6436 29.6425 75.1163C29.659 74.6047 29.5619 74.0958 29.3581 73.6264C29.247 73.3989 29.0938 73.1947 28.9066 73.0244C28.7102 72.8468 28.4791 72.712 28.2278 72.6286C28.1342 72.5972 28.0361 72.5815 27.9373 72.5819C27.7765 72.584 27.6177 72.6189 27.4708 72.6843C27.1971 72.8092 26.9435 72.974 26.7183 73.1734C26.2301 73.6068 25.7772 74.0783 25.3637 74.5835C24.6699 75.4022 23.9806 76.3322 23.4614 77.0591C22.9422 77.786 22.5945 78.3113 22.5915 78.3143L23.4403 78.9373C23.7048 78.5991 23.9443 78.2419 24.1567 77.8688C24.3524 77.5326 24.5186 77.1802 24.6534 76.8153C24.8032 76.4202 24.8842 76.0023 24.8927 75.5798C24.8935 75.3767 24.8682 75.1744 24.8174 74.9778C24.7337 74.6614 24.5735 74.3704 24.3509 74.1305C24.0943 73.8644 23.7817 73.6588 23.4358 73.5285C23.2772 73.4641 23.1074 73.4314 22.9362 73.4322C22.6631 73.4372 22.395 73.5063 22.1535 73.6339C21.9146 73.7574 21.6913 73.9089 21.4883 74.0854C21.0396 74.4818 20.6331 74.9236 20.2753 75.4037C19.4905 76.4623 18.7795 77.5735 18.1472 78.7296C17.1072 80.5852 16.138 82.5958 15.4261 84.1474C14.7142 85.699 14.2612 86.7871 14.2597 86.7916L14.7458 86.9933L15.256 87.1212C15.256 87.1212 15.685 85.4026 16.1154 83.3303C16.3291 82.2949 16.5443 81.1692 16.7069 80.1202C16.864 79.2044 16.9551 78.2785 16.9793 77.3496C16.9859 77.0531 16.9591 76.7567 16.8995 76.4662C16.8713 76.3332 16.8242 76.205 16.7596 76.0854C16.7243 76.0182 16.6803 75.9559 16.6286 75.9003C16.5731 75.8289 16.5059 75.7673 16.43 75.7182C16.1903 75.5861 15.921 75.5172 15.6473 75.5181C15.388 75.5213 15.132 75.5771 14.8948 75.6821C14.4433 75.8778 13.9918 76.2435 13.5644 76.8138C12.9142 77.6717 12.2821 78.999 11.7132 81.0382C11.1443 83.0774 10.6462 85.8315 10.294 89.5412C10.1254 91.3185 10.0547 92.8942 10.0547 94.3269C10.0547 98.0035 10.5227 100.742 10.9833 103.533C11.4438 106.323 11.8968 109.17 11.8968 113.152C11.8885 115.314 11.7719 117.474 11.5477 119.624L11.498 120.12L27.3233 122.552L27.2586 121.878L26.7348 121.928L26.8146 121.408L12.1512 119.151L12.0714 119.672L12.5952 119.724C12.8238 117.54 12.9424 115.345 12.9503 113.148C12.9503 109.084 12.4838 106.15 12.0217 103.357C11.5597 100.563 11.1082 97.9087 11.1082 94.3269C11.1082 92.9288 11.1774 91.3877 11.343 89.6405C11.8712 84.0571 12.7427 80.7162 13.611 78.8229C14.043 77.8763 14.4734 77.2969 14.8346 76.9719C14.9752 76.8387 15.1369 76.7299 15.3132 76.6498C15.4205 76.6005 15.5368 76.5739 15.6549 76.5715C15.748 76.5697 15.8399 76.5925 15.9213 76.6378L16.0417 76.4241L15.8595 76.5896C15.8779 76.6083 15.8987 76.6245 15.9213 76.6378L16.0417 76.4241L15.8595 76.5896L15.9348 76.5219L15.8475 76.573L15.8595 76.5896L15.9348 76.5219L15.8475 76.573C15.8769 76.6426 15.8957 76.7161 15.9032 76.7913C15.9268 76.9693 15.9374 77.1489 15.9348 77.3285C15.9096 78.2034 15.8225 79.0755 15.6744 79.9381C15.4381 81.4716 15.0724 83.2038 14.7804 84.5462C14.6299 85.219 14.496 85.7938 14.3997 86.2017C14.3515 86.4049 14.3124 86.5659 14.2853 86.6758C14.2713 86.7309 14.2607 86.7731 14.2537 86.8022C14.2537 86.8308 14.2432 86.8458 14.2432 86.8458L15.241 87.1754L15.256 87.1393C15.4065 86.7645 16.7821 83.5274 18.4376 80.3986C19.2639 78.8365 20.1639 77.2999 21.0037 76.1848C21.3449 75.7068 21.7382 75.2682 22.1761 74.877C22.3185 74.7518 22.4757 74.6447 22.6442 74.5579C22.7368 74.5074 22.8398 74.4786 22.9452 74.4736C22.9818 74.4729 23.0181 74.4795 23.052 74.4932C23.196 74.5493 23.3317 74.6247 23.4554 74.7174C23.5865 74.8148 23.6902 74.9444 23.7564 75.0937C23.8196 75.2446 23.8503 75.4072 23.8467 75.5707C23.8375 75.8721 23.7775 76.1698 23.6691 76.4511C23.5009 76.8981 23.2828 77.3247 23.0189 77.7228C22.9091 77.8944 22.8082 78.0343 22.7375 78.1307L22.6562 78.239L22.6351 78.2661L22.7766 78.379L22.6351 78.2646L22.7766 78.3775L22.6351 78.2631L23.0445 78.5957L23.484 78.8861L23.493 78.8711C23.5969 78.7206 24.5089 77.3526 25.5383 76.0433C26.0123 75.4268 26.5234 74.8397 27.0689 74.2855C27.2614 74.0921 27.4704 73.9158 27.6935 73.7588C27.7586 73.7141 27.8277 73.6753 27.8997 73.6429L27.9524 73.6264H27.9614V73.5902V73.6264V73.5902V73.4653L27.9102 73.6158C27.9266 73.6223 27.9439 73.6258 27.9614 73.6264V73.4653L27.9102 73.6158C28.0241 73.6533 28.1291 73.7138 28.2188 73.7934C28.3559 73.9258 28.4538 74.0935 28.5017 74.278C28.5772 74.5488 28.6122 74.8292 28.6056 75.1102C28.5955 75.5747 28.5452 76.0375 28.4551 76.4933C28.4336 76.5921 28.4049 76.6891 28.3693 76.7837C28.2436 77.1137 28.1004 77.4367 27.9403 77.7514C27.6047 78.4317 27.1397 79.2744 26.6325 80.1593C25.8724 81.4762 25.0176 82.8682 24.3524 83.9383C24.0213 84.471 23.7368 84.9225 23.5351 85.2385L23.3004 85.6072L23.2161 85.7382L21.6373 88.1912L23.9701 86.444H23.9791C24.0755 86.3718 24.9619 85.7186 26.0034 85.079C26.5167 84.7581 27.0478 84.4667 27.5942 84.2061C27.8256 84.0968 28.0633 84.0013 28.3061 83.9202C28.4786 83.861 28.6574 83.8216 28.8388 83.8028H28.9066C29.1568 83.8116 29.4057 83.8433 29.65 83.8976C30.3611 84.0522 31.0606 84.2558 31.7435 84.5071C32.9369 84.9212 34.0803 85.4674 35.1524 86.1355C35.5655 86.3929 35.9417 86.7053 36.2706 87.064C36.38 87.1858 36.4721 87.322 36.5445 87.4689C36.5912 87.5626 36.6174 87.6652 36.6213 87.7698C36.6213 87.8141 36.6152 87.8582 36.6032 87.9008C36.5818 87.9881 36.5418 88.0697 36.4858 88.1401C36.4498 88.1854 36.4066 88.2245 36.3579 88.2559C36.2584 88.3186 36.1482 88.3625 36.0328 88.3854C35.8675 88.4198 35.699 88.4359 35.5302 88.4335C35.0592 88.4208 34.591 88.3578 34.1335 88.2454C33.3554 88.0723 32.5081 87.7939 31.7375 87.5561C31.3522 87.4327 30.985 87.3169 30.6524 87.222C30.3565 87.1324 30.0548 87.0635 29.7494 87.0159C29.6795 87.0073 29.6091 87.0038 29.5387 87.0053C29.246 87.0111 28.9587 87.0842 28.6989 87.219C28.2091 87.4853 27.778 87.8477 27.4316 88.2845C26.7828 89.0893 26.2717 89.9961 25.9191 90.9679C25.509 92.0358 25.2914 93.168 25.2765 94.3119C25.2759 94.7107 25.3086 95.1089 25.3743 95.5023C25.4894 96.2137 25.8065 96.8771 26.2878 97.4135C26.6401 97.797 27.0568 98.1158 27.5189 98.3556C28.262 98.7293 29.0595 98.9832 29.8818 99.1081C30.7773 99.2543 31.6836 99.3237 32.5909 99.3158C33.738 99.3083 34.8838 99.2339 36.0223 99.0931C36.3264 99.0558 36.6325 99.0367 36.9389 99.0359C37.8419 99.0359 38.5206 99.2165 38.939 99.4482C39.1052 99.5321 39.2519 99.65 39.3695 99.7944C39.4292 99.8645 39.4646 99.9522 39.4703 100.044C39.4681 100.103 39.451 100.16 39.4206 100.21C39.314 100.373 39.166 100.505 38.9917 100.592C38.6612 100.768 38.306 100.893 37.9382 100.964C37.0502 101.155 35.8778 101.477 34.6001 101.867C32.6827 102.446 30.5365 103.168 28.8072 103.798C27.9434 104.112 27.1848 104.4 26.6084 104.643C26.3209 104.764 26.0786 104.871 25.886 104.965C25.7882 105.014 25.7039 105.057 25.6286 105.102C25.591 105.125 25.5549 105.147 25.5188 105.173C25.4788 105.201 25.441 105.231 25.4059 105.265C25.341 105.327 25.2897 105.402 25.2554 105.485C25.2184 105.574 25.1931 105.668 25.1801 105.765C25.1563 105.92 25.1412 106.077 25.135 106.234C25.126 106.415 25.1229 106.621 25.1229 106.853C25.1229 107.823 25.1907 109.242 25.293 110.839C25.594 115.625 26.2066 121.976 26.2066 121.976L26.7318 121.925L26.8116 121.405L26.7273 121.929Z" fill="#231F20"/>
<path d="M22.5616 78.3654L18.7192 86.0497L19.6629 86.5207L23.5037 78.8365" fill="#231F20"/>
<path d="M33.2471 55.3081H32.7203C32.7196 56.0646 32.4567 56.7975 31.9763 57.3819C31.4959 57.9663 30.8277 58.3661 30.0856 58.5131C29.3435 58.6602 28.5733 58.5454 27.9063 58.1883C27.2394 57.8313 26.7168 57.254 26.4277 56.5549C26.1386 55.8558 26.1008 55.0781 26.3208 54.3543C26.5408 53.6305 27.0049 53.0053 27.6342 52.5853C28.2634 52.1653 29.0188 51.9764 29.7717 52.0508C30.5245 52.1253 31.2283 52.4584 31.7631 52.9935C32.0674 53.2965 32.3086 53.6568 32.4729 54.0536C32.6372 54.4503 32.7213 54.8757 32.7203 55.3051H33.7738C33.7738 54.3047 33.427 53.3353 32.7923 52.562C32.1576 51.7888 31.2744 51.2595 30.2932 51.0644C29.312 50.8693 28.2936 51.0204 27.4113 51.492C26.5291 51.9637 25.8377 52.7266 25.4549 53.6509C25.0722 54.5751 25.0218 55.6035 25.3123 56.5607C25.6029 57.518 26.2164 58.3449 27.0483 58.9005C27.8802 59.4561 28.879 59.7061 29.8746 59.6078C30.8702 59.5096 31.8009 59.0692 32.5081 58.3616C32.9099 57.9606 33.2286 57.4841 33.4458 56.9596C33.663 56.4351 33.7745 55.8728 33.7738 55.3051L33.2471 55.3081Z" fill="#231F20"/>
<path d="M26.8627 70.4705C27.9436 69.0979 29.1125 67.7969 30.3619 66.5757C31.3097 65.6334 32.3454 64.7838 33.4547 64.0383C33.9382 63.7168 34.4531 63.445 34.9913 63.2272C35.4187 63.049 35.8754 62.9515 36.3383 62.9397C36.403 62.9397 36.4662 62.9397 36.5264 62.9473C36.9463 62.9854 37.3549 63.1034 37.7305 63.2949C38.4363 63.6365 39.1497 64.2189 39.845 64.9127C40.3688 65.4334 40.8835 66.0128 41.3892 66.5937C42.1492 67.4636 42.8942 68.3335 43.6347 69.0092C43.9843 69.3346 44.3713 69.6175 44.7875 69.852C45.1767 70.0732 45.6147 70.1942 46.0623 70.2041C46.2048 70.2043 46.347 70.1901 46.4867 70.162C46.9845 70.0385 47.4477 69.8033 47.8412 69.4742C48.5937 68.8843 49.3658 68.0144 50.1725 67.0226C51.3765 65.5358 52.6633 63.775 53.9636 62.3408C54.5488 61.6742 55.1953 61.064 55.8945 60.5183C56.5297 60.0427 57.1452 59.7297 57.7081 59.6228L57.5094 58.5889C56.8927 58.7205 56.3062 58.9665 55.7802 59.3143C54.8079 59.9344 53.8823 60.8373 52.9808 61.8517C51.6338 63.3716 50.3485 65.1445 49.1776 66.5667C48.6732 67.2007 48.124 67.7976 47.5342 68.353C47.3167 68.5535 47.0814 68.7338 46.8313 68.8918C46.6599 69.0035 46.4705 69.085 46.2714 69.1326C46.2006 69.147 46.1285 69.1541 46.0562 69.1537C45.7775 69.142 45.506 69.0613 45.2661 68.9189C44.9664 68.7487 44.6859 68.5469 44.4293 68.3169C43.845 67.7813 43.295 67.2092 42.7828 66.6043C41.9174 65.6185 40.9994 64.5169 39.994 63.617C39.5099 63.1731 38.9761 62.7868 38.4032 62.4657C37.8521 62.1546 37.2421 61.9624 36.6122 61.9013C36.5204 61.8938 36.4286 61.8908 36.3383 61.8908C35.736 61.9035 35.1414 62.0286 34.585 62.2595C33.5601 62.6598 32.5336 63.3355 31.5478 64.1181C30.1624 65.2543 28.8718 66.5015 27.689 67.8474C26.6791 68.9806 26.0334 69.8219 26.0334 69.8294L26.8687 70.4705H26.8627Z" fill="#231F20"/>
<path d="M82.4446 97.4165H37.0441C36.5392 97.4266 36.0374 97.3358 35.568 97.1495C35.0986 96.9633 34.671 96.6853 34.3104 96.3317C33.9498 95.9782 33.6633 95.5564 33.4677 95.0908C33.2721 94.6252 33.1714 94.1253 33.1714 93.6203C33.1714 93.1153 33.2721 92.6154 33.4677 92.1498C33.6633 91.6842 33.9498 91.2623 34.3104 90.9088C34.671 90.5553 35.0986 90.2773 35.568 90.091C36.0374 89.9048 36.5392 89.814 37.0441 89.8241H82.4446C82.9495 89.814 83.4513 89.9048 83.9207 90.091C84.3901 90.2773 84.8177 90.5553 85.1783 90.9088C85.5389 91.2623 85.8254 91.6842 86.021 92.1498C86.2166 92.6154 86.3173 93.1153 86.3173 93.6203C86.3173 94.1253 86.2166 94.6252 86.021 95.0908C85.8254 95.5564 85.5389 95.9782 85.1783 96.3317C84.8177 96.6853 84.3901 96.9633 83.9207 97.1495C83.4513 97.3358 82.9495 97.4266 82.4446 97.4165Z" fill="white"/>
<path d="M82.4447 97.4166V96.8898H37.0442C36.1892 96.8715 35.3754 96.519 34.7772 95.9078C34.179 95.2967 33.844 94.4755 33.844 93.6203C33.844 92.7652 34.179 91.944 34.7772 91.3329C35.3754 90.7217 36.1892 90.3692 37.0442 90.3508H82.4447C82.88 90.3415 83.3127 90.4192 83.7176 90.5793C84.1224 90.7394 84.4913 90.9787 84.8024 91.2833C85.1136 91.5878 85.3608 91.9514 85.5295 92.3527C85.6983 92.754 85.7852 93.185 85.7852 93.6203C85.7852 94.0557 85.6983 94.4867 85.5295 94.888C85.3608 95.2893 85.1136 95.6529 84.8024 95.9574C84.4913 96.262 84.1224 96.5013 83.7176 96.6614C83.3127 96.8215 82.88 96.8992 82.4447 96.8898V97.9433C83.0192 97.954 83.5901 97.8501 84.124 97.6377C84.6579 97.4253 85.1441 97.1085 85.5542 96.7061C85.9642 96.3036 86.29 95.8234 86.5124 95.2936C86.7347 94.7638 86.8493 94.1949 86.8493 93.6203C86.8493 93.0458 86.7347 92.4769 86.5124 91.9471C86.29 91.4173 85.9642 90.9371 85.5542 90.5346C85.1441 90.1321 84.6579 89.8154 84.124 89.603C83.5901 89.3906 83.0192 89.2867 82.4447 89.2974H37.0442C36.4697 89.2867 35.8988 89.3906 35.3649 89.603C34.831 89.8154 34.3448 90.1321 33.9347 90.5346C33.5247 90.9371 33.1989 91.4173 32.9765 91.9471C32.7542 92.4769 32.6396 93.0458 32.6396 93.6203C32.6396 94.1949 32.7542 94.7638 32.9765 95.2936C33.1989 95.8234 33.5247 96.3036 33.9347 96.7061C34.3448 97.1085 34.831 97.4253 35.3649 97.6377C35.8988 97.8501 36.4697 97.954 37.0442 97.9433H82.4447V97.4166Z" fill="#231F20"/>
<path d="M37.0636 92.849C37.0636 93.0719 36.9975 93.2899 36.8736 93.4752C36.7498 93.6606 36.5737 93.8051 36.3677 93.8904C36.1617 93.9757 35.9351 93.998 35.7164 93.9546C35.4978 93.9111 35.2969 93.8037 35.1393 93.6461C34.9816 93.4884 34.8742 93.2876 34.8307 93.0689C34.7872 92.8502 34.8096 92.6236 34.8949 92.4176C34.9802 92.2117 35.1247 92.0356 35.3101 91.9118C35.4954 91.7879 35.7134 91.7218 35.9363 91.7218C36.2353 91.7218 36.522 91.8406 36.7334 92.0519C36.9448 92.2633 37.0636 92.5501 37.0636 92.849Z" fill="white"/>
<path d="M37.0637 92.849H36.6875C36.6882 92.9731 36.6583 93.0954 36.6003 93.2052C36.5424 93.3149 36.4582 93.4085 36.3553 93.4778C36.2523 93.5471 36.1339 93.5899 36.0104 93.6024C35.8869 93.6148 35.7623 93.5965 35.6476 93.5491C35.5329 93.5018 35.4318 93.4268 35.3531 93.3308C35.2744 93.2349 35.2207 93.1209 35.1967 92.9992C35.1727 92.8775 35.1791 92.7517 35.2155 92.6331C35.2519 92.5144 35.3171 92.4066 35.4052 92.3193C35.5462 92.1787 35.7373 92.0997 35.9365 92.0997C36.1356 92.0997 36.3267 92.1787 36.4677 92.3193C36.5377 92.3886 36.5931 92.4711 36.6309 92.5621C36.6686 92.653 36.6878 92.7506 36.6875 92.849H37.44C37.44 92.5008 37.3194 92.1634 37.0985 91.8942C36.8777 91.625 36.5704 91.4407 36.2289 91.3727C35.8874 91.3047 35.5329 91.3572 35.2257 91.5213C34.9186 91.6854 34.6779 91.9509 34.5446 92.2725C34.4113 92.5942 34.3936 92.9521 34.4947 93.2853C34.5957 93.6185 34.8091 93.9064 35.0986 94.0999C35.3881 94.2934 35.7357 94.3805 36.0822 94.3464C36.4288 94.3123 36.7528 94.1592 36.999 93.913C37.1391 93.7736 37.2502 93.6077 37.3259 93.4251C37.4016 93.2425 37.4403 93.0467 37.44 92.849H37.0637Z" fill="#231F20"/>
<path d="M37.4776 95.4165L36.7793 93.755L36.0854 94.0455L36.7838 95.7069" fill="#231F20"/>
<path d="M38.3369 90.2198V97.4165H39.3904V90.2198" fill="#231F20"/>
<path d="M9.17245 120.654C8.65006 119.716 10.4617 109.719 11.5979 109.319C12.7341 108.919 28.3713 112.035 28.9849 112.969C29.5986 113.903 27.7718 121.246 26.6649 122.12C25.5581 122.994 10.3438 122.763 9.17245 120.654Z" fill="#231F20"/>
<path d="M121.958 6.3945C121.958 6.3945 118.834 18.5872 116.788 19.323C114.742 20.0589 94.9633 22.0032 94.4159 20.4015C93.8685 18.7998 96.4583 9.14558 97.2537 8.87571C98.0491 8.60583 121.008 4.36952 121.958 6.3945Z" fill="#231F20"/>
</svg>
