<svg width="130" height="130" viewBox="0 0 130 130" fill="none" xmlns="http://www.w3.org/2000/svg">
<g clip-path="url(#clip0_2179_2125)">
<path d="M108.757 75.4737C108.757 75.4737 108.057 65.9847 100.362 73.3033C92.666 80.622 85.2003 83.0643 84.2677 91.9515C83.3351 100.839 83.2756 106.591 83.2756 106.591H99.1925C99.1925 105.72 100.634 97.4712 101.216 96.4167C101.799 95.3622 105.964 95.4418 109.223 87.0802C112.482 78.7186 112.14 78.0172 110.506 75.7523C108.872 73.4874 103.626 84.5616 103.626 84.5616C103.626 84.5616 109.654 85.9013 97.4977 91.857" fill="white"/>
<path d="M109.246 75.4154C109.246 75.4021 109.221 75.0832 109.135 74.5849C108.978 73.6119 108.653 72.6737 108.174 71.8128C107.891 71.3194 107.508 70.8915 107.049 70.5571C106.538 70.203 105.931 70.0166 105.31 70.0239C104.613 70.0239 103.837 70.2365 102.969 70.7032C102.1 71.17 101.131 71.8908 100.035 72.9306C96.224 76.5648 92.4357 78.9965 89.4395 81.6723C87.948 83.011 86.6438 84.4162 85.6562 86.0689C84.5995 87.8496 83.9524 89.8441 83.762 91.9072C82.8257 100.83 82.7677 106.605 82.7677 106.617V107.098H99.6709V106.622C99.6709 106.599 99.6709 106.522 99.6841 106.422C99.7222 106.039 99.8333 105.275 99.9857 104.35C100.214 102.959 100.538 101.194 100.854 99.6773C101.012 98.9232 101.169 98.2339 101.308 97.694C101.378 97.425 101.444 97.1958 101.504 97.0114C101.532 96.9217 101.56 96.8453 101.583 96.7838C101.599 96.7417 101.618 96.7007 101.64 96.6609C101.655 96.6344 101.676 96.6108 101.699 96.5912C101.819 96.4895 101.95 96.4025 102.09 96.3321C102.422 96.1477 102.907 95.9185 103.477 95.5763C104.617 94.8932 105.63 94.017 106.47 92.9868C107.552 91.6846 108.669 89.8592 109.69 87.2432C110.59 84.9378 111.22 83.2087 111.627 81.8517C112.035 80.4947 112.222 79.5097 112.224 78.6842C112.233 78.0766 112.105 77.4748 111.849 76.9236C111.585 76.4019 111.271 75.9069 110.911 75.4453C110.805 75.2937 110.666 75.1673 110.505 75.0749C110.346 74.9866 110.166 74.9409 109.983 74.942C109.773 74.9459 109.566 74.9964 109.377 75.0899C108.999 75.2872 108.657 75.5485 108.368 75.8622C107.71 76.575 107.119 77.3474 106.603 78.1693C105.723 79.5197 104.876 81.0594 104.245 82.2636C103.613 83.4678 103.202 84.3365 103.201 84.3415L102.945 84.8813L103.527 85.0109L103.585 84.7517L103.525 85.0109L103.583 84.7517L103.524 85.0109H103.539C103.773 85.0727 103.996 85.169 104.202 85.2965C104.33 85.373 104.442 85.4734 104.533 85.5922C104.608 85.6946 104.649 85.8186 104.649 85.946C104.631 86.199 104.542 86.4417 104.391 86.6453C104.087 87.1186 103.451 87.7664 102.316 88.5637C101.181 89.3609 99.5532 90.311 97.2746 91.4272L97.6922 92.2826C100.771 90.7728 102.708 89.5536 103.903 88.5454C104.397 88.1497 104.83 87.6836 105.189 87.1618C105.44 86.8048 105.583 86.3824 105.599 85.946C105.6 85.7645 105.568 85.5844 105.504 85.4145C105.405 85.152 105.243 84.918 105.032 84.7335C104.779 84.5142 104.491 84.341 104.178 84.2219C104.032 84.162 103.881 84.1137 103.728 84.0774L103.625 84.5425L104.054 84.7468C104.059 84.7387 104.062 84.7304 104.066 84.7218C104.19 84.4611 105.282 82.1922 106.576 80.0063C107.168 78.9784 107.833 77.9943 108.565 77.0614C108.828 76.7302 109.126 76.4278 109.453 76.1595C109.555 76.0751 109.666 76.0032 109.785 75.9453C109.845 75.914 109.912 75.8954 109.98 75.8904C110.002 75.8901 110.023 75.8952 110.041 75.9054C110.08 75.9296 110.113 75.9619 110.138 76.0001C110.458 76.4157 110.739 76.8606 110.976 77.3289C111.173 77.7546 111.271 78.2198 111.263 78.6892C111.263 79.3635 111.097 80.2704 110.706 81.5826C110.315 82.8948 109.69 84.6072 108.794 86.8977C107.988 88.9606 107.136 90.4904 106.308 91.6415C105.057 93.3672 103.864 94.2442 102.914 94.7973C102.438 95.078 102.022 95.2773 101.671 95.4617C101.504 95.5501 101.343 95.6505 101.191 95.7623C101.035 95.8744 100.904 96.0182 100.808 96.1842C100.748 96.2962 100.698 96.4129 100.657 96.533C100.567 96.7805 100.476 97.0978 100.377 97.4781C100.035 98.8069 99.6245 100.881 99.2964 102.728C99.1306 103.65 98.9898 104.514 98.887 105.193C98.8357 105.535 98.7942 105.829 98.7661 106.065C98.7511 106.183 98.7395 106.288 98.7313 106.376C98.723 106.464 98.7197 106.542 98.7197 106.608H99.1936V106.133H83.2367V106.608H83.7106C83.7106 106.608 83.7106 106.589 83.7106 106.544C83.7206 105.889 83.825 100.318 84.7049 91.9886C84.8821 90.0632 85.485 88.2016 86.4698 86.5389C87.1845 85.373 88.0425 84.3016 89.0235 83.3499C90.5266 81.855 92.3379 80.4565 94.3397 78.9151C96.3416 77.3737 98.4976 75.6861 100.688 73.6C101.739 72.6034 102.647 71.939 103.416 71.5188C104.185 71.0985 104.808 70.9524 105.309 70.9524C105.6 70.947 105.889 71.0036 106.157 71.1185C106.375 71.2155 106.575 71.348 106.75 71.5105C107.079 71.8253 107.347 72.198 107.541 72.61C107.829 73.2188 108.038 73.8618 108.164 74.5235C108.219 74.8008 108.253 75.0384 108.275 75.2028C108.285 75.2858 108.293 75.3506 108.296 75.3938C108.3 75.437 108.296 75.432 108.296 75.442V75.4536L109.244 75.3839L109.246 75.4154Z" fill="#231F20"/>
<path d="M70.0522 60.4116L51.7837 58.0117C50.9906 61.7165 48.9498 65.0343 46.0047 67.4069C43.0596 69.7795 39.3898 71.0621 35.6127 71.0391C26.3502 70.9827 18.8921 63.1121 19.2994 53.8281C19.4337 50.7763 20.4105 47.822 22.1209 45.2947C23.8313 42.7674 26.2079 40.7665 28.9857 39.5152C28.8831 35.4794 29.1943 31.5234 30.3201 28.5754C33.8877 19.235 43.4582 15.7439 43.4582 15.7439L42.2397 14.6096L44.8504 15.7439L45.458 13.6497L46.0374 15.5696C46.0374 15.5696 57.9786 12.9953 63.7282 17.0527C75.4458 25.3235 72.0057 32.4982 74.2853 41.191C75.3664 45.3015 73.9973 58.857 70.0522 60.4116Z" fill="#231F20"/>
<path d="M84.4112 117.223C84.4112 117.223 88.1688 56.3447 52.5309 50.8676C6.60495 43.9174 22.0636 117.223 22.0636 117.223H84.4112Z" fill="#2F3841"/>
<path d="M83.8938 116.613L84.4109 116.658C84.4109 116.647 84.5252 114.817 84.5252 111.776C84.5252 104.566 83.8888 90.5425 79.5386 77.6892C77.3626 71.2645 74.2519 65.1269 69.8089 60.3055C65.3658 55.484 59.5886 51.9943 52.1459 50.8631C50.1821 50.5643 48.2045 50.4105 46.2246 50.4028C40.5651 50.4028 35.9861 51.7956 32.3153 54.2014C29.674 55.9314 27.3611 58.2885 25.5206 61.1258C22.821 65.2568 21.1041 70.2337 20.0517 75.486C18.9994 80.7382 18.6331 86.2581 18.6331 91.4986C18.6331 105.058 21.1389 116.731 21.1438 116.761L21.2433 117.223H84.3744L84.4109 116.654L83.8938 116.609V115.993H21.6659V116.609L22.163 116.458V116.426C22.0222 115.759 19.6904 104.464 19.6904 91.4986C19.6904 86.9033 19.9838 82.0975 20.766 77.4865C21.3149 74.0834 22.2057 70.7707 23.4192 67.6193C25.2422 63.0123 27.8557 59.0327 31.5397 56.1941C35.2238 53.3555 40.0116 51.648 46.2196 51.6461C48.1563 51.6537 50.0907 51.8042 52.0117 52.0965C59.2539 53.1942 64.809 56.56 69.1062 61.2202C72.3295 64.7158 74.8419 68.9471 76.7991 73.505C79.7324 80.3409 81.4079 87.9065 82.3459 94.766C83.1035 100.393 83.4848 106.083 83.4861 111.782C83.4861 113.285 83.4579 114.485 83.4298 115.309C83.4165 115.722 83.4016 116.039 83.3916 116.253C83.3916 116.359 83.3817 116.44 83.3784 116.493C83.3751 116.546 83.3784 116.54 83.3784 116.554V116.574L83.8954 116.619L83.8938 116.613Z" fill="#231F20"/>
<path d="M40.0012 52.1018C40.9799 53.6209 42.3898 54.8182 44.053 55.5425C45.7163 56.2668 47.5583 56.4856 49.3467 56.1715C50.0293 56.0466 50.4854 55.8801 50.5089 55.6719C50.6346 54.5329 50.8711 53.2807 51.297 53.2091C52.0902 53.0792 60.4196 55.7069 64.253 49.7972C68.0865 43.8875 69.0122 37.9828 68.3515 34.9638C68.3515 34.9638 59.0965 32.0747 55.7929 23.8071C55.7929 23.8071 52.0902 33.1321 47.596 32.466C45.2164 30.6343 41.383 29.9683 39.7966 32.466C38.2102 34.9638 39.7966 39.5547 39.7966 39.5547L39.0906 50.7113L40.0012 52.1018Z" fill="white"/>
<path d="M40.0763 52.0482L39.5857 52.3631C40.4672 53.7236 41.677 54.8438 43.1051 55.6219C44.5332 56.4 46.1343 56.8115 47.7631 56.8189C48.3397 56.8187 48.915 56.7665 49.4821 56.6631C49.8044 56.6115 50.1205 56.5265 50.425 56.4094C50.5658 56.3551 50.697 56.279 50.8138 56.184C50.8857 56.1257 50.9477 56.0563 50.9974 55.9785C51.0622 55.8787 51.1022 55.765 51.1142 55.6469C51.1637 55.1296 51.2512 54.6165 51.3762 54.1119C51.4148 53.9607 51.4708 53.8144 51.5431 53.676C51.5502 53.6634 51.558 53.6512 51.5665 53.6395L51.5515 53.6262L51.5665 53.6412L51.5515 53.6279L51.5665 53.6428L51.4313 53.5119L51.5264 53.6776C51.541 53.6694 51.5545 53.6594 51.5665 53.6478L51.4313 53.5168L51.5264 53.6826L51.3596 53.4041L51.413 53.7224C51.4523 53.7157 51.4901 53.7022 51.5248 53.6826L51.3579 53.4041L51.4113 53.7224L51.3679 53.4771L51.3846 53.7257H51.4113L51.3679 53.4804L51.3846 53.729V53.6727V53.729V53.6727V53.729C51.4046 53.729 51.473 53.729 51.5665 53.7456C51.7334 53.7655 51.972 53.8053 52.2641 53.8517C53.5131 54.0694 54.7778 54.1864 56.0457 54.2015C57.4826 54.2015 59.0831 54.0208 60.6151 53.4108C62.297 52.7547 63.7258 51.5851 64.6955 50.0706C66.131 47.8742 67.2605 45.4949 68.0532 42.9974C68.7525 40.7629 69.0546 38.7174 69.0546 37.0299C69.0622 36.3036 68.9929 35.5785 68.8476 34.8667L68.7742 34.5351L68.4521 34.434C66.7119 33.8253 65.0539 33.0058 63.5156 31.9939C62.0465 31.0527 60.701 29.9335 59.5103 28.6621C58.146 27.2052 57.0627 25.5117 56.3144 23.6659L55.7954 22.2834L55.253 23.6493C54.6272 25.1533 53.87 26.5998 52.99 27.9725C52.3225 29.0102 51.5181 30.028 50.6703 30.764C50.2826 31.1102 49.8484 31.4014 49.3803 31.6293C48.9799 31.8242 48.5411 31.9289 48.0953 31.9359C47.9719 31.9353 47.8486 31.9264 47.7264 31.9094L47.6413 32.483L48.0001 32.0254C47.3011 31.4881 46.5233 31.0604 45.6938 30.7573C44.8783 30.4493 44.0145 30.2866 43.1421 30.2766C42.4171 30.2658 41.6989 30.4153 41.0393 30.7142C40.3579 31.0319 39.7836 31.5385 39.3854 32.173C39.0869 32.6569 38.8751 33.1886 38.7596 33.7444C38.6444 34.2939 38.5884 34.8541 38.5927 35.4153C38.625 36.8798 38.8723 38.3317 39.327 39.7252L39.8794 39.5379L39.297 39.5014L38.5827 50.8L39.5924 52.3515L40.083 52.0366L40.5737 51.7216L39.7726 50.49L40.4702 39.4583L40.4318 39.3489C40.4318 39.3324 40.2649 38.8351 40.098 38.0974C39.8907 37.2172 39.7788 36.3175 39.7643 35.4137C39.76 34.9354 39.807 34.4581 39.9044 33.9898C39.9907 33.5661 40.1505 33.1605 40.3767 32.7913C40.6572 32.3427 41.0631 31.985 41.5449 31.7619C42.0481 31.5345 42.596 31.4212 43.1487 31.4303C43.8792 31.4468 44.6011 31.5904 45.2815 31.8547C46.0011 32.117 46.6764 32.4865 47.2842 32.9504L47.406 33.0449L47.5579 33.0664C47.7363 33.0928 47.9165 33.1061 48.0969 33.1062C48.7235 33.0988 49.3405 32.9521 49.9026 32.6769C50.8923 32.2094 51.7634 31.4303 52.5378 30.5385C53.6893 29.1992 54.6272 27.5879 55.2948 26.3182C55.9623 25.0484 56.3311 24.0936 56.3361 24.0803L55.7954 23.8682L55.2514 24.082C56.0584 26.0741 57.2297 27.9006 58.7059 29.4694C60.5034 31.3631 62.6082 32.9438 64.9325 34.1456C65.9541 34.6932 67.0197 35.1556 68.1183 35.5281L68.2852 34.9761L67.7145 35.0987C67.8424 35.7294 67.9029 36.3717 67.8947 37.015C67.8947 38.5615 67.6077 40.5043 66.9401 42.6394C66.1781 45.036 65.0936 47.3193 63.7159 49.4274C62.8775 50.74 61.64 51.7532 60.1829 52.32C58.8478 52.8538 57.3858 53.0278 56.0474 53.0278C55.0746 53.0204 54.1036 52.9434 53.1419 52.7974C52.7397 52.7394 52.3892 52.6797 52.1022 52.6317C51.957 52.6101 51.8285 52.5902 51.7117 52.5753C51.6037 52.5616 51.4951 52.5533 51.3863 52.5504C51.3304 52.5516 51.2747 52.556 51.2194 52.5637C51.1295 52.5783 51.0427 52.6074 50.9624 52.6499C50.8396 52.7181 50.7318 52.81 50.6453 52.9201C50.5216 53.0862 50.4242 53.2701 50.3566 53.4655C50.2449 53.7832 50.1606 54.1099 50.1046 54.4418C50.0395 54.7932 49.9894 55.1645 49.9494 55.5243L50.3466 55.5674L50.0128 55.3552C49.981 55.4054 49.9611 55.462 49.9544 55.5209L50.3516 55.564L50.0178 55.3519L50.2464 55.4944L50.0645 55.2938C50.0468 55.3114 50.0311 55.3308 50.0178 55.3519L50.2464 55.4944L50.0645 55.2938L50.1263 55.3618L50.0712 55.2889L50.1329 55.3568L50.0779 55.2839C49.9978 55.3278 49.9126 55.3618 49.8242 55.385C49.648 55.436 49.4692 55.4775 49.2885 55.5093C48.7929 55.5992 48.2903 55.6447 47.7865 55.6453C46.3528 55.6381 44.9436 55.2753 43.6868 54.5898C42.4301 53.9043 41.3657 52.9178 40.5904 51.72L40.0763 52.0482Z" fill="#231F20"/>
<path d="M69.0551 36.9735C68.6552 36.5057 68.2022 36.0871 67.7055 35.7264C67.2363 35.3796 66.7263 35.0931 66.1873 34.8733C65.5585 34.613 64.8862 34.4769 64.2068 34.4724C63.3268 34.4766 62.463 34.7117 61.6999 35.1548C61.0863 35.4917 60.5461 35.9501 60.1113 36.5026C59.6766 37.0551 59.3563 37.6904 59.1694 38.3708C58.9843 39.0311 58.8928 39.7147 58.8978 40.401C58.8942 41.1425 58.9866 41.8812 59.1728 42.5984L60.3065 42.2572L60.1867 42.293L60.3065 42.2572L60.1867 42.293L60.3065 42.2572C60.1555 41.6515 60.0801 41.029 60.0821 40.4044C60.0702 39.6288 60.2155 38.8589 60.5089 38.1422C60.6747 37.7573 60.899 37.401 61.1736 37.0861C61.4893 36.7301 61.8623 36.4308 62.2769 36.2007C62.8632 35.8557 63.5285 35.6717 64.2068 35.6667C64.7347 35.6714 65.2568 35.778 65.7453 35.9806C66.3833 36.2475 66.9732 36.6194 67.4913 37.081C67.7039 37.2669 67.8709 37.4341 67.9822 37.5519C68.0379 37.6116 68.0784 37.6576 68.1054 37.6883L68.134 37.7225V37.731L69.0467 36.9735H69.0551Z" fill="#231F20"/>
<path d="M58.8977 35.0553C58.6731 34.4616 58.3432 33.9239 57.9274 33.4739C57.5246 33.027 57.0503 32.6667 56.5287 32.4112C55.8491 32.0861 55.1151 31.9233 54.3747 31.9336C53.4939 31.9486 52.6208 32.117 51.7874 32.4327L52.1383 33.6241C52.8578 33.3489 53.612 33.201 54.3731 33.1858C54.9557 33.1766 55.5336 33.3027 56.0694 33.5561C56.6215 33.8279 57.101 34.2524 57.4617 34.7887C57.5728 34.9532 57.6717 35.1273 57.7576 35.3093C57.7883 35.3737 57.8094 35.4238 57.8223 35.456L57.8336 35.4882L58.0665 35.3898L57.8336 35.4846L58.0665 35.3863L57.8336 35.4811L58.8944 35.0464L58.8977 35.0553Z" fill="#231F20"/>
<path d="M42.1464 34.2789C42.2999 34.7277 42.4957 35.1629 42.7315 35.5794C42.9452 35.9589 43.2022 36.3157 43.498 36.6437C43.8202 37.0082 44.2198 37.3064 44.6718 37.5197L45.1851 36.5129C44.8835 36.3658 44.6169 36.1633 44.4014 35.9177C44.0594 35.5264 43.7768 35.0931 43.5613 34.63C43.4655 34.4321 43.3903 34.2598 43.3475 34.1385C43.3235 34.0779 43.3064 34.0316 43.2961 33.9997C43.2961 33.9837 43.2859 33.9726 43.2842 33.9646L43.0463 34.0332L43.2842 33.9662L43.0463 34.0348L43.2842 33.9678L42.1378 34.2869L42.1464 34.2789Z" fill="#231F20"/>
<path d="M60.8976 43.1279L61.1764 43.2826L60.9012 43.117L61.18 43.2717L60.9048 43.1062L60.8958 43.117C60.7123 43.3192 60.4898 43.4925 60.2382 43.6291C59.7161 43.9157 59.1084 44.0636 58.4903 44.0546C57.9062 44.0467 57.3281 43.9509 56.7818 43.7715L56.3583 44.7895C57.0402 45.0119 57.7617 45.1297 58.4903 45.1376C59.0064 45.14 59.5193 45.0673 60.0076 44.9226C60.5403 44.7639 61.0303 44.5134 61.4481 44.1861C61.6347 44.0441 61.8014 43.8837 61.9449 43.7081L60.9012 43.1108L60.8976 43.1279Z" fill="#231F20"/>
<path d="M62.4528 39.2958C62.4524 39.547 62.5415 39.7927 62.7088 40.0017C62.8761 40.2108 63.114 40.3737 63.3925 40.47C63.671 40.5663 63.9775 40.5916 64.2732 40.5426C64.5689 40.4937 64.8406 40.3727 65.0537 40.1951C65.2669 40.0174 65.4121 39.791 65.4708 39.5446C65.5295 39.2982 65.4992 39.0428 65.3837 38.8107C65.2681 38.5786 65.0726 38.3804 64.8217 38.241C64.5709 38.1015 64.2761 38.0273 63.9746 38.0276C63.571 38.0276 63.1839 38.1612 62.8985 38.399C62.6131 38.6369 62.4528 38.9594 62.4528 39.2958Z" fill="#231F20"/>
<path d="M53.8189 36.8598C53.8189 37.3551 54.3864 36.4817 55.0877 36.4817C55.789 36.4817 56.3583 37.3526 56.3583 36.8598C56.346 36.6278 56.2068 36.4082 55.97 36.2471C55.7333 36.0861 55.4173 35.9961 55.0886 35.9961C54.7599 35.9961 54.4439 36.0861 54.2072 36.2471C53.9704 36.4082 53.8312 36.6278 53.8189 36.8598Z" fill="white"/>
<path d="M53.7418 36.9627H53.3263C53.3234 37.0082 53.3234 37.0539 53.3263 37.0995C53.3365 37.1826 53.3686 37.2627 53.4202 37.3335C53.4619 37.3887 53.5183 37.4345 53.5848 37.467C53.6564 37.5009 53.7366 37.519 53.8184 37.5198C53.8841 37.5187 53.9491 37.5069 54.0098 37.4852C54.0792 37.4596 54.1438 37.4251 54.2012 37.383C54.2893 37.322 54.364 37.2577 54.4444 37.1918C54.5564 37.0939 54.6781 37.0045 54.8081 36.9248C54.8593 36.8949 54.9138 36.8695 54.9709 36.8489C55.0082 36.8366 55.0477 36.8299 55.0876 36.8292C55.1642 36.8324 55.2383 36.8535 55.3021 36.8901C55.4633 36.9785 55.6118 37.0831 55.7443 37.2017C55.817 37.261 55.886 37.3203 55.9644 37.3747C56.0081 37.4062 56.0549 37.4343 56.1042 37.4588C56.1839 37.4985 56.2744 37.5196 56.3665 37.5198C56.4759 37.5193 56.5819 37.4867 56.667 37.4275C56.7207 37.3894 56.7638 37.3415 56.7934 37.2874C56.8237 37.2355 56.8444 37.1799 56.8547 37.1226C56.8624 37.0717 56.8662 37.0205 56.8662 36.9693C56.851 36.5721 56.6571 36.1955 56.3254 35.9191C55.9937 35.6428 55.5502 35.4883 55.0886 35.4883C54.627 35.4883 54.1835 35.6428 53.8518 35.9191C53.5201 36.1955 53.3262 36.5721 53.311 36.9693H54.14C54.1425 36.7535 54.2431 36.5473 54.4203 36.3947C54.5975 36.2422 54.8371 36.1555 55.0876 36.1534C55.3382 36.1555 55.5778 36.2422 55.755 36.3947C55.9321 36.5473 56.0328 36.7535 56.0353 36.9693C56.0353 36.9956 56.0353 37.0121 56.0353 37.0171L56.1578 37.0352L56.041 36.9989V37.0171L56.1636 37.0352L56.0468 36.9989L56.3416 37.0879L56.1348 36.8885C56.0949 36.9182 56.0646 36.9562 56.0468 36.9989L56.3416 37.0879L56.1348 36.8885L56.3741 37.1193L56.2497 36.8292C56.2077 36.843 56.1688 36.8631 56.1348 36.8885L56.3741 37.1193L56.2497 36.8292L56.3741 37.1176V36.8094C56.3317 36.81 56.2896 36.8167 56.2497 36.8292L56.3741 37.1176V37.078L56.4909 36.8308C56.4537 36.8181 56.4142 36.8114 56.3741 36.811V37.078L56.4909 36.8308L56.4335 36.9511L56.5158 36.8407L56.4909 36.8308L56.4335 36.9511L56.5158 36.8407C56.4997 36.8305 56.4844 36.8195 56.4699 36.8077C56.4201 36.7715 56.3493 36.7105 56.2669 36.6429C56.123 36.5212 55.9666 36.4109 55.7998 36.3133C55.6997 36.2588 55.5931 36.2135 55.482 36.1781C55.359 36.1403 55.2297 36.1203 55.0991 36.1188C54.8789 36.1225 54.6637 36.1759 54.475 36.2737C54.2543 36.3916 54.0506 36.5316 53.8681 36.6907C53.7954 36.7517 53.7322 36.8028 53.6978 36.8259L53.6805 36.8391L53.7628 36.9478L53.7073 36.8292L53.6805 36.8391L53.7628 36.9478L53.7073 36.8292L53.8241 37.0764V36.8094C53.784 36.8093 53.7444 36.816 53.7073 36.8292L53.8241 37.0764V37.1193L54.0519 36.8803C53.9873 36.8354 53.9071 36.8104 53.8241 36.8094V37.1193L54.0519 36.8803L53.8413 37.1011L54.1381 36.9726C54.1164 36.9374 54.0872 36.906 54.0519 36.8803L53.8413 37.1011L54.1381 36.9726L53.9237 37.0649L54.1553 37.0088C54.1553 37.0088 54.1553 36.9907 54.1381 36.9726L53.9237 37.0649L54.1553 37.0088L54.0577 37.0319L54.1572 37.0171V37.0088L54.0596 37.0319L54.1591 37.0171V37.0055C54.1591 37.0055 54.1591 36.9841 54.1591 36.9676L53.7418 36.9627Z" fill="#231F20"/>
<path d="M101.302 41.5828H69.8198C65.7511 41.5828 62.4528 44.8409 62.4528 48.86V81.0299C62.4528 85.049 65.7511 88.3072 69.8198 88.3072H101.302C105.371 88.3072 108.669 85.049 108.669 81.0299V48.86C108.669 44.8409 105.371 41.5828 101.302 41.5828Z" fill="#ED4D4D"/>
<path d="M98.1892 46.1536H72.9328C69.6693 46.1536 67.0236 48.8093 67.0236 52.0853V78.3124C67.0236 81.5884 69.6693 84.2441 72.9328 84.2441H98.1892C101.453 84.2441 104.098 81.5884 104.098 78.3124V52.0853C104.098 48.8093 101.453 46.1536 98.1892 46.1536Z" fill="#ED4D4D"/>
<path d="M100.958 87.8073V87.3074H70.1639C68.3869 87.3074 66.6827 86.6099 65.426 85.3684C64.1693 84.1268 63.463 82.4428 63.4624 80.6867V49.2052C63.4624 47.4488 64.1685 45.7643 65.4253 44.5223C66.682 43.2803 68.3866 42.5826 70.1639 42.5826H100.958C102.735 42.5826 104.44 43.2803 105.697 44.5223C106.954 45.7643 107.66 47.4488 107.66 49.2052V80.6867C107.659 82.4428 106.953 84.1268 105.696 85.3684C104.439 86.6099 102.735 87.3074 100.958 87.3074V88.3072C103.003 88.3072 104.965 87.5043 106.411 86.0752C107.857 84.6461 108.669 82.7078 108.669 80.6867V49.2052C108.67 48.2043 108.47 47.2132 108.083 46.2884C107.695 45.3636 107.128 44.5233 106.411 43.8154C105.695 43.1076 104.845 42.5461 103.91 42.163C102.974 41.7799 101.971 41.5828 100.958 41.5828H70.1639C68.1188 41.5828 66.1574 42.3856 64.7113 43.8147C63.2652 45.2438 62.4528 47.1821 62.4528 49.2032V80.6867C62.4528 82.7078 63.2652 84.6461 64.7113 86.0752C66.1574 87.5043 68.1188 88.3072 70.1639 88.3072H100.958V87.8073Z" fill="#231F20"/>
<path d="M76.1653 56.8189C78.4093 56.8189 80.2283 54.8862 80.2283 52.502C80.2283 50.1178 78.4093 48.1851 76.1653 48.1851C73.9214 48.1851 72.1024 50.1178 72.1024 52.502C72.1024 54.8862 73.9214 56.8189 76.1653 56.8189Z" fill="white"/>
<path d="M68.5472 67.6812C68.5472 67.6812 71.8299 58.5698 79.5162 60.6732C85.8029 62.3931 87.3842 63.9287 89.958 63.6884C97.2305 63.0086 97.9645 53.2637 101.559 53.2637V81.1967H68.5472V67.6812Z" fill="white"/>
<path d="M101.197 10.6024H82.6214C79.0558 10.6024 76.1653 13.4929 76.1653 17.0585V35.6345C76.1653 39.2001 79.0558 42.0906 82.6214 42.0906H101.197C104.763 42.0906 107.654 39.2001 107.654 35.6345V17.0585C107.654 13.4929 104.763 10.6024 101.197 10.6024Z" fill="#ED4D4D"/>
<path d="M101.153 42.0179V41.4357H82.6639C81.8965 41.4355 81.1367 41.2841 80.4278 40.9903C79.7189 40.6964 79.0748 40.2658 78.5323 39.723C77.9898 39.1803 77.5596 38.536 77.2661 37.8269C76.9726 37.1179 76.8217 36.358 76.8219 35.5906V17.1023C76.8219 15.5525 77.4376 14.0662 78.5335 12.9703C79.6294 11.8745 81.1158 11.2588 82.6656 11.2588H101.153C102.703 11.2588 104.189 11.8745 105.285 12.9703C106.381 14.0662 106.997 15.5525 106.997 17.1023V35.5906C106.997 37.1404 106.381 38.6267 105.285 39.7226C104.189 40.8184 102.703 41.4341 101.153 41.4341V42.5984C103.012 42.5984 104.794 41.8601 106.109 40.5459C107.423 39.2317 108.161 37.4492 108.161 35.5906V17.1023C108.161 15.2437 107.423 13.4612 106.109 12.147C104.794 10.8328 103.012 10.0945 101.153 10.0945H82.6639C80.8056 10.0949 79.0234 10.8334 77.7095 12.1476C76.3956 13.4618 75.6575 15.244 75.6575 17.1023V35.5906C75.6575 37.4492 76.3958 39.2317 77.7101 40.5459C79.0244 41.8601 80.8069 42.5984 82.6656 42.5984H101.153V42.0179Z" fill="#231F20"/>
<path d="M83.2756 15.6812V39.0434H84.2913V15.6812" fill="white"/>
<path d="M101.051 15.6812V39.0434H102.067V15.6812" fill="white"/>
<path d="M104.098 17.7126H80.7362V18.7284H104.098" fill="white"/>
<path d="M104.098 35.4883H80.7362V36.504H104.098" fill="white"/>
<path d="M40.9526 102.746L47.0405 97.7848L61.4451 83.4414C61.4451 83.4414 61.3351 73.6182 62.757 71.1828C64.179 68.7474 68.3248 71.1828 68.1514 77.8596C68.1514 77.8596 72.9741 63.0521 75.0328 63.9702C77.0916 64.8882 78.5802 64.8565 77.7917 67.0215C77.7917 67.0215 79.4121 65.5442 81.4708 67.0215C83.5296 68.4987 82.391 69.9743 82.391 69.9743C82.391 69.9743 83.4429 68.3301 85.4133 69.7223C87.3837 71.1144 86.5968 72.3512 86.5968 72.3512L82.8011 81.3783C82.8011 81.3783 90.1876 74.8 90.8227 76.9048C91.4578 79.0097 91.8096 78.6007 90.5826 80.1865C89.3557 81.7722 76.2147 91.1164 76.2147 91.1164L56.4107 114.282C45.1501 125.861 38.8922 126.568 36.3867 126.373C16.7944 124.848 19.3983 80.1931 19.3983 80.1931L44.3633 80.8074L46.8155 98.6194" fill="white"/>
<path d="M41.3501 103.18L47.4508 98.2147L62.0197 83.7087V83.4322C62.0197 83.3705 62.0197 83.2156 62.0197 82.9858C62.0197 81.9864 62.0397 79.5912 62.2127 77.191C62.2975 75.9917 62.4223 74.7925 62.5987 73.7781C62.6738 73.3221 62.7737 72.8706 62.8981 72.4256C62.9799 72.1145 63.0983 71.8143 63.2508 71.5312C63.3593 71.3327 63.5161 71.1648 63.7067 71.0431C63.8681 70.9469 64.0528 70.8967 64.2407 70.8982C64.6017 70.9151 64.9494 71.0399 65.2389 71.2563C65.7913 71.6344 66.3769 72.3407 66.8178 73.3833C67.2586 74.426 67.5548 75.8019 67.5548 77.4991C67.5548 77.6274 67.5548 77.7557 67.5548 77.8856L67.455 81.8831L68.6911 78.0855C68.6911 78.0855 68.6911 78.0738 68.7044 78.0471C68.8341 77.6474 69.9788 74.1895 71.3413 70.8499C71.9497 69.307 72.6497 67.8019 73.4376 66.3427C73.7035 65.85 74.0172 65.3847 74.3742 64.9535C74.475 64.8348 74.5901 64.729 74.7169 64.6387C74.745 64.6193 74.7751 64.6031 74.8068 64.5904H74.8201V64.5488V64.5904V64.5488V64.4805L74.7752 64.5804L74.8201 64.5904V64.4805L74.7752 64.5804C75.2144 64.777 75.622 64.9286 75.9763 65.0618C76.2425 65.1617 76.4754 65.2534 76.6768 65.34C76.8049 65.3953 76.9289 65.4599 77.0477 65.5332C77.1567 65.5942 77.2505 65.6791 77.3223 65.7814C77.3459 65.8202 77.3639 65.8623 77.3755 65.9063C77.3912 65.9678 77.3984 66.0311 77.3971 66.0945C77.3833 66.3692 77.3231 66.6395 77.2191 66.894L76.4089 69.1176L78.1574 67.5236L77.9212 67.2638L78.1541 67.527L77.9179 67.2671L78.1508 67.5303C78.2803 67.4242 78.4222 67.3341 78.5733 67.2621C78.8333 67.1299 79.117 67.0508 79.4078 67.0297C79.6986 67.0085 79.9907 67.0456 80.267 67.1389C80.5647 67.2392 80.8452 67.3847 81.0988 67.5703C81.4268 67.7853 81.7039 68.0696 81.9107 68.4031C82.012 68.5701 82.0712 68.7593 82.0831 68.9543C82.095 69.1493 82.0592 69.3443 81.9789 69.5224C81.9582 69.5687 81.9349 69.6137 81.909 69.6573L81.8907 69.6856L82.1536 69.8772L81.8957 69.679L82.1586 69.8705L81.9007 69.6723L82.3632 70.0271L82.8623 70.3419L82.5396 70.1353L82.859 70.3452L82.5362 70.1387L82.8557 70.3485L82.7625 70.2886L82.8557 70.3502L82.7625 70.2902L82.8557 70.3519C82.8608 70.3429 82.8669 70.3345 82.874 70.3269C82.9677 70.2052 83.08 70.0989 83.2067 70.0121C83.2978 69.9501 83.3969 69.9008 83.5012 69.8655C83.6208 69.8255 83.7461 69.8053 83.8722 69.8055C84.0425 69.8074 84.2113 69.8384 84.3713 69.8972C84.6085 69.9861 84.8324 70.1072 85.0368 70.2569C85.402 70.4937 85.7124 70.806 85.9468 71.173C86.0593 71.3513 86.1214 71.5568 86.1265 71.7677C86.1272 71.8601 86.112 71.9519 86.0816 72.0392C86.0745 72.0591 86.0662 72.0786 86.0566 72.0975L86.3012 72.2357L86.0649 72.0858L86.0566 72.0975L86.3012 72.2357L86.0649 72.0858L86.0383 72.1258L81.2336 83.5537L83.1551 81.8431L83.1684 81.8298C83.3232 81.6932 84.6974 80.484 86.2479 79.3197C86.988 78.7528 87.7607 78.23 88.5621 77.754C88.8751 77.5678 89.2016 77.4053 89.5387 77.2676C89.736 77.1796 89.9471 77.1267 90.1626 77.111C90.1863 77.1078 90.2104 77.1078 90.2341 77.111L90.2491 77.0694L90.2241 77.1061H90.2341L90.2491 77.0644L90.2241 77.1011L90.2707 77.0328L90.2025 77.0794L90.2241 77.1011L90.2707 77.0328L90.2025 77.0794L90.2258 77.0644L90.2025 77.0777L90.2258 77.0627L90.2025 77.0761V77.0961C90.3689 77.6557 90.5236 78.0505 90.6234 78.327C90.6733 78.4652 90.7099 78.5718 90.7299 78.6484C90.7448 78.6948 90.7532 78.743 90.7548 78.7917C90.7549 78.8151 90.7504 78.8383 90.7415 78.86C90.696 78.9739 90.635 79.0809 90.5602 79.1781C90.4487 79.3447 90.2824 79.5595 90.0611 79.8444C89.9674 79.9571 89.8662 80.0634 89.7583 80.1625C89.4721 80.434 89.0313 80.8121 88.4872 81.2535C87.5356 82.0264 86.2679 83.0024 84.902 84.0285C82.854 85.5658 80.5897 87.2182 78.8362 88.4841C77.9611 89.117 77.2125 89.65 76.6834 90.0331L76.0662 90.4745L75.8449 90.6311L75.7867 90.6727L55.9689 113.86L56.4114 114.238L55.9938 113.832C50.8364 119.139 46.7521 122.12 43.6377 123.771C42.3839 124.457 41.0553 124.995 39.6781 125.376C38.8264 125.612 37.9479 125.735 37.0644 125.744C36.8448 125.744 36.6485 125.744 36.4705 125.723C34.7346 125.597 33.0518 125.068 31.556 124.177C30.257 123.388 29.0996 122.385 28.1321 121.212C26.3487 119.1 24.9295 116.36 23.8199 113.295C22.1562 108.697 21.1779 103.373 20.6256 98.3646C20.1631 94.0272 19.9342 89.668 19.9402 85.306C19.9402 83.7536 19.9684 82.4894 19.9967 81.6149C20.0117 81.1769 20.025 80.8371 20.0366 80.6056C20.0366 80.4906 20.0466 80.4024 20.0483 80.3441C20.0483 80.3157 20.0483 80.2924 20.0483 80.2791V80.2574L19.4677 80.2225L19.4527 80.8054L43.8739 81.4067L46.253 98.6861L47.4076 98.5195L44.8971 80.2658L18.9236 79.6212L18.8904 80.1842C18.8904 80.1925 18.7756 82.1679 18.7756 85.301C18.7756 88.2475 18.8771 92.2184 19.2747 96.5408C19.8686 103.027 21.1164 110.301 23.7067 116.129C25.0044 119.044 26.6398 121.6 28.7244 123.506C29.753 124.456 30.9255 125.237 32.1982 125.819C33.5207 126.414 34.9366 126.773 36.3823 126.88C36.587 126.895 36.8149 126.905 37.0661 126.905C38.05 126.896 39.0286 126.759 39.9776 126.499C41.7527 126.031 44.0087 125.077 46.7987 123.236C49.5887 121.395 52.9127 118.667 56.8307 114.64L56.844 114.626L76.6185 91.5072L76.176 91.1291L76.5087 91.6038C76.5087 91.6038 79.7912 89.2719 83.2283 86.7385C84.9469 85.4726 86.7038 84.1567 88.1129 83.0541C88.8183 82.5027 89.4439 82.0047 89.9213 81.59C90.1665 81.3823 90.3761 81.1952 90.5502 81.0286C90.7014 80.8894 90.8426 80.7397 90.9728 80.5806C91.2102 80.2857 91.4323 79.9788 91.6383 79.6611C91.7179 79.5342 91.7837 79.3991 91.8346 79.2581C91.8832 79.1142 91.9085 78.9635 91.9094 78.8117C91.9079 78.6613 91.8867 78.5118 91.8462 78.3669C91.7896 78.1604 91.7131 77.9639 91.6233 77.7157C91.5334 77.4675 91.4253 77.1693 91.3072 76.7796C91.2718 76.6524 91.2156 76.5319 91.1408 76.4231C91.0241 76.2587 90.8639 76.1301 90.6783 76.0517C90.5092 75.9814 90.3274 75.9468 90.1443 75.9501C89.9629 75.9525 89.7825 75.9765 89.6069 76.0217C89.2449 76.1195 88.8941 76.2551 88.5604 76.4265C87.8558 76.7906 87.1781 77.2048 86.5324 77.6657C85.4909 78.3903 84.4528 79.2148 83.6709 79.861C82.8889 80.5073 82.3665 80.9737 82.3616 80.977L82.7492 81.4117L83.2866 81.6383L87.0731 72.6255L86.5374 72.399L87.0365 72.7121C87.0918 72.6207 87.137 72.5235 87.1713 72.4223C87.2459 72.2081 87.2836 71.9828 87.2827 71.756C87.2794 71.3391 87.1645 70.9307 86.95 70.5734C86.6315 70.0622 86.2072 69.6254 85.7056 69.2925C85.4101 69.0824 85.0871 68.9143 84.7456 68.7928C84.4615 68.6911 84.1623 68.6382 83.8605 68.6363C83.5625 68.6355 83.2672 68.6921 82.9904 68.8028C82.6793 68.9309 82.3965 69.1194 82.1586 69.3575C82.0476 69.4649 81.9483 69.5838 81.8624 69.7123L82.8157 70.3785C82.9049 70.2542 82.9808 70.1207 83.042 69.9804C83.1761 69.6772 83.2458 69.3493 83.2466 69.0177C83.2441 68.5971 83.1323 68.1844 82.9222 67.8201C82.6339 67.3345 82.2419 66.9187 81.7743 66.6025C81.4254 66.3477 81.0393 66.1482 80.6297 66.0112C80.2874 65.9001 79.9297 65.8439 79.5699 65.8446C79.0198 65.8476 78.4784 65.9824 77.9911 66.2377C77.7685 66.3508 77.5601 66.49 77.3705 66.6525L77.7631 67.0839L78.3105 67.2821C78.4622 66.9004 78.5461 66.4951 78.5584 66.0845C78.5612 65.8884 78.5319 65.6932 78.4719 65.5065C78.4195 65.3498 78.3444 65.2016 78.2489 65.0668C78.0867 64.8492 77.8831 64.6659 77.65 64.5271C77.2968 64.3257 76.9252 64.1584 76.5403 64.0274C76.1377 63.8742 75.7085 63.716 75.246 63.5128C75.111 63.4522 74.9647 63.421 74.8168 63.4211C74.6768 63.4219 74.5382 63.4478 74.4075 63.4978C74.1732 63.5914 73.9591 63.7294 73.777 63.9042C73.3825 64.2947 73.0403 64.7348 72.7588 65.2134C72.084 66.348 71.487 67.5272 70.972 68.7429C70.0852 70.7583 69.2417 73.0002 68.6179 74.7392C67.994 76.4781 67.5897 77.719 67.588 77.7223L68.1421 77.9039L68.7243 77.9189C68.7243 77.7773 68.7243 77.6391 68.7243 77.5025C68.7243 75.0573 68.157 73.1552 67.3252 71.8393C66.9599 71.2362 66.4759 70.7137 65.9027 70.3036C65.4181 69.9512 64.8378 69.7548 64.2391 69.7406C63.8388 69.7391 63.4458 69.8474 63.1028 70.0537C62.7457 70.2764 62.45 70.585 62.2426 70.9515C62.0414 71.3201 61.885 71.7116 61.7768 72.1175C61.537 73.017 61.3657 73.9336 61.2644 74.8591C61.0747 76.3932 60.9732 78.0938 60.9167 79.5812C60.8601 81.0686 60.8535 82.3378 60.8535 83.0008C60.8535 83.3122 60.8535 83.4888 60.8535 83.4905H61.4357L61.0248 83.0774L46.6706 97.3686L40.6164 102.274L41.3501 103.178V103.18Z" fill="#231F20"/>
<path d="M77.1515 66.9763L73.626 74.1045L74.6714 74.5944L78.1968 67.4646" fill="#231F20"/>
<path d="M81.801 69.5156L78.1968 75.4813L79.1636 76.118L82.7677 70.154" fill="#231F20"/>
</g>
<defs>
<clipPath id="clip0_2179_2125">
<rect width="130" height="130" fill="white"/>
</clipPath>
</defs>
</svg>
