<svg width="130" height="130" viewBox="0 0 130 130" fill="none" xmlns="http://www.w3.org/2000/svg">
<rect x="27.5" y="76.5" width="65" height="43" fill="#2F3841" stroke="black"/>
<path d="M111.52 38.8988H110.953C110.954 43.8467 109.238 48.6416 106.099 52.4666C102.961 56.2915 98.5928 58.9098 93.74 59.8753C88.8872 60.8408 83.8498 60.0937 79.486 57.7614C75.1223 55.4291 71.7022 51.6559 69.8086 47.0847C67.915 42.5134 67.6651 37.427 69.1013 32.6921C70.5376 27.9573 73.5712 23.8669 77.6852 21.1179C81.7992 18.369 86.7391 17.1316 91.6632 17.6166C96.5873 18.1016 101.191 20.279 104.69 23.7777C106.679 25.7611 108.256 28.118 109.331 30.713C110.406 33.308 110.957 36.0899 110.953 38.8988H112.087C112.087 33.6887 110.281 28.6397 106.975 24.612C103.67 20.5844 99.071 17.8274 93.9611 16.8108C88.8511 15.7942 83.5467 16.5809 78.9517 19.0368C74.3568 21.4927 70.7555 25.4659 68.7616 30.2793C66.7677 35.0928 66.5045 40.4487 68.0169 45.4345C69.5292 50.4203 72.7236 54.7274 77.0556 57.622C81.3877 60.5166 86.5894 61.8195 91.7744 61.3088C96.9594 60.7981 101.807 58.5053 105.491 54.8212C107.585 52.7327 109.246 50.2508 110.378 47.5183C111.51 44.7858 112.091 41.8565 112.087 38.8988H111.52Z" fill="#231F20"/>
<path d="M82.4016 36.8504C82.4016 37.1541 82.3115 37.4509 82.1428 37.7034C81.9741 37.9559 81.7343 38.1527 81.4537 38.2689C81.1731 38.3851 80.8644 38.4155 80.5666 38.3563C80.2687 38.2971 79.9951 38.1508 79.7804 37.9361C79.5657 37.7214 79.4194 37.4478 79.3602 37.1499C79.3009 36.8521 79.3314 36.5434 79.4476 36.2628C79.5638 35.9822 79.7606 35.7424 80.0131 35.5737C80.2656 35.405 80.5624 35.3149 80.8661 35.3149C81.2733 35.3149 81.6639 35.4767 81.9518 35.7647C82.2398 36.0526 82.4016 36.4432 82.4016 36.8504Z" fill="#231F20"/>
<path d="M98.7795 42.4787C98.7799 42.8837 98.6601 43.2797 98.4353 43.6165C98.2106 43.9534 97.8909 44.2161 97.5169 44.3713C97.1428 44.5265 96.7311 44.5673 96.3339 44.4885C95.9367 44.4096 95.5717 44.2148 95.2853 43.9285C94.9988 43.6423 94.8036 43.2775 94.7245 42.8803C94.6454 42.4832 94.6858 42.0715 94.8407 41.6973C94.9956 41.3231 95.258 41.0033 95.5947 40.7782C95.9314 40.5532 96.3273 40.4331 96.7323 40.4331C97.275 40.4331 97.7955 40.6486 98.1793 41.0321C98.5632 41.4157 98.7791 41.936 98.7795 42.4787Z" fill="#231F20"/>
<path d="M87.3154 44.0156C87.8452 43.3142 88.3082 42.5654 88.6985 41.7789C89.3821 40.416 90.0769 38.542 90.0785 36.4761C90.0901 34.8131 89.5932 33.1857 88.6535 31.8093C87.6129 30.2755 85.9338 28.8424 83.3958 27.6377L82.9133 28.6474C85.313 29.7882 86.8152 31.0983 87.7207 32.434C88.5362 33.6253 88.9666 35.0355 88.9543 36.4761C88.9543 38.2879 88.3286 40.0134 87.6917 41.2804C87.4306 41.7992 87.139 42.3023 86.8184 42.787C86.6994 42.966 86.6013 43.1066 86.5337 43.196L86.4565 43.2999L86.4372 43.3238L86.6109 43.4596L86.4372 43.3222L86.6109 43.458L86.4372 43.3207L87.3218 44.014L87.3154 44.0156Z" fill="#231F20"/>
<path d="M94.3817 36.5469C94.9635 36.4594 95.5517 36.4173 96.1406 36.421C97.248 36.421 98.6991 36.5784 99.9564 37.1479C100.603 37.4355 101.182 37.8466 101.66 38.3562C102.2 38.9544 102.591 39.6652 102.8 40.4331L103.898 40.1357C103.64 39.2045 103.164 38.3431 102.507 37.6183C102.07 37.1478 101.559 36.7464 100.994 36.4289C100.207 35.9961 99.351 35.6915 98.4613 35.5274C97.0464 35.269 95.5961 35.2461 94.1732 35.4597L94.3784 36.5422L94.3817 36.5469Z" fill="#231F20"/>
<path d="M94.2207 24.2703C94.2207 24.2703 90.6116 19.8389 86.5813 20.5089C82.9918 21.1073 74.0676 23.4166 71.3319 36.9142C68.5963 50.4118 67.6529 58.1949 67.6529 58.1949C67.6529 58.1949 54.4789 55.4596 53.7909 55.2889C53.1029 55.1181 58.9613 -5.72854 98.9438 14.2707C98.9438 14.2707 111.758 16.4499 113.112 24.5257C115.561 39.1616 108.514 56.5264 106.359 58.8828C94.8826 71.4275 91.2329 68.8824 91.2329 68.8824L86.7358 66.0967C84.989 65.0153 86.3845 64.2119 88.2403 63.3322C105.562 55.0726 114.951 23.4524 94.2207 24.2703Z" fill="#231F20"/>
<path d="M94.1983 24.3006L94.6382 23.9354C94.0062 23.1964 93.299 22.5251 92.528 21.9325C91.828 21.383 91.0651 20.9188 90.2554 20.5496C89.3655 20.1367 88.3988 19.9154 87.4179 19.9003C87.1047 19.9001 86.792 19.9256 86.4829 19.9766C84.647 20.2833 81.42 21.03 78.2984 23.4469C76.5278 24.8341 75.0334 26.5415 73.8929 28.4803C72.5781 30.652 71.4921 33.387 70.7925 36.8119C68.0589 50.3067 67.1158 58.0849 67.1142 58.0979L67.6774 58.166L67.7927 57.6093L67.2262 57.4924C65.9633 57.2295 62.7946 56.5721 59.8695 55.9602C58.4086 55.655 57.0028 55.3612 55.9282 55.134L54.5988 54.8516L54.1832 54.7607L53.9787 54.7152L53.8456 55.2509L54.1962 54.824C54.1335 54.7718 54.0596 54.7346 53.9803 54.7152L53.8456 55.2509L54.1962 54.824L53.8537 55.2395L54.3001 54.9376C54.2723 54.8979 54.2389 54.8624 54.2011 54.8321L53.8586 55.2476L54.3001 54.9376L53.8992 55.22L54.3602 55.0577C54.3458 55.0166 54.3255 54.9778 54.3001 54.9425L53.8992 55.2249L54.3602 55.0626L54.0355 55.1827L54.3813 55.1032C54.3781 55.0893 54.3737 55.0757 54.3683 55.0626L54.0436 55.1827L54.3894 55.1032L54.2579 55.134L54.391 55.1113V55.1032L54.2595 55.134L54.3926 55.1113C54.3926 55.1113 54.3926 55.0804 54.3926 55.0382C54.3926 54.996 54.3926 54.9343 54.3926 54.8646C54.3926 54.6048 54.4105 54.1926 54.4543 53.6602C54.6167 51.6572 55.1117 47.9516 56.1263 43.5382C57.6473 36.919 60.3468 28.6994 64.8091 22.1857C67.0395 18.928 69.7065 16.0989 72.8751 14.0894C76.1958 11.9645 80.0619 10.8492 84.0042 10.8788C88.249 10.8788 93.114 12.0589 98.685 14.8458L98.7597 14.8831L98.8441 14.8977C101.111 15.3387 103.317 16.051 105.413 17.0192C107.037 17.7788 108.67 18.7771 109.959 20.0415C110.602 20.6603 111.155 21.3662 111.603 22.1386C112.052 22.9207 112.359 23.7765 112.509 24.6659C112.852 26.7736 113.021 28.9061 113.012 31.0416C113.012 37.3881 111.673 43.793 110.101 48.8492C109.436 51.0259 108.642 53.1609 107.722 55.2427C107.343 56.0787 106.988 56.7864 106.675 57.3382C106.512 57.6142 106.374 57.8512 106.243 58.0443C106.146 58.1976 106.037 58.3436 105.918 58.4809C101.86 62.9089 98.8149 65.4248 96.5894 66.819C95.734 67.376 94.8173 67.8324 93.8574 68.1792C93.3415 68.3688 92.7982 68.4735 92.2488 68.4893C92.0473 68.4937 91.8463 68.4669 91.653 68.4097C91.618 68.3995 91.5838 68.3865 91.5508 68.3708L91.3998 68.6272L91.5621 68.3838L91.5426 68.3708L91.3917 68.6272L91.554 68.3838L91.541 68.3756L87.0251 65.566C86.8505 65.4671 86.6931 65.3405 86.5592 65.191C86.5358 65.1638 86.5166 65.1332 86.5024 65.1001C86.5014 65.0931 86.5014 65.086 86.5024 65.079C86.5012 65.0715 86.5012 65.0638 86.5024 65.0563C86.5422 64.9788 86.5975 64.9103 86.6647 64.855C86.8819 64.6619 87.121 64.4952 87.3773 64.3583C87.702 64.1782 88.0721 63.9915 88.4795 63.7967C93.7584 61.2776 98.2678 56.6792 101.474 51.4852C103.042 48.9539 104.3 46.2439 105.223 43.4132C106.102 40.6912 106.582 37.9968 106.582 35.5036C106.601 33.9425 106.382 32.3876 105.933 30.8923C105.612 29.8516 105.134 28.8662 104.514 27.9706C103.56 26.6106 102.259 25.5311 100.747 24.8444C99.1558 24.1107 97.2387 23.7082 94.9775 23.7082C94.7161 23.7082 94.4499 23.7082 94.1788 23.7244L94.2015 24.2925L94.6382 23.9354L94.1983 24.2942L94.221 24.8606C94.4775 24.8509 94.7291 24.846 94.9742 24.846C96.8669 24.846 98.4594 25.1398 99.7823 25.6576C100.715 26.0199 101.577 26.5435 102.328 27.2045C103.397 28.1713 104.206 29.3907 104.683 30.751C105.214 32.2755 105.472 33.8815 105.446 35.4955C105.446 37.8426 104.991 40.4283 104.147 43.0561C102.774 47.2162 100.672 51.0995 97.9415 54.5253C95.1593 58.0183 91.752 60.966 87.9861 62.7579C87.3925 63.0268 86.8215 63.3427 86.2784 63.7026C86.0461 63.8595 85.8378 64.0492 85.6599 64.2658C85.5719 64.3776 85.4998 64.5011 85.4457 64.6327C85.3889 64.7747 85.3592 64.9261 85.358 65.079C85.3588 65.2298 85.388 65.379 85.444 65.5189C85.5311 65.7276 85.6604 65.9161 85.8239 66.0724C86.0067 66.2469 86.2081 66.401 86.4245 66.5317L90.9209 69.3122L91.2212 68.8253L90.8966 69.2927C91.0173 69.3709 91.1484 69.4316 91.2862 69.4729C91.5924 69.5652 91.911 69.61 92.2309 69.606C92.9046 69.5905 93.5713 69.4655 94.2048 69.2359C95.4287 68.8204 97.026 67.9942 99.0843 66.4376C101.143 64.881 103.667 62.5875 106.74 59.2292C106.899 59.0501 107.045 58.8597 107.176 58.6595C107.52 58.1322 107.833 57.5854 108.113 57.0217C108.842 55.5472 109.489 54.0338 110.051 52.4883C112.064 47.0247 114.134 39.0307 114.134 31.0254C114.142 28.8273 113.969 26.6324 113.616 24.463C113.441 23.4257 113.081 22.4283 112.553 21.5186C111.66 19.9701 110.355 18.7219 108.918 17.7139C106.761 16.2028 104.293 15.2224 102.362 14.6121C101.263 14.2585 100.144 13.9739 99.0097 13.7599L98.9155 14.3199L99.1687 13.8119C93.4776 10.9649 88.4373 9.72477 83.9799 9.72477C80.9857 9.70652 78.0205 10.3112 75.2727 11.5005C73.014 12.4969 70.9276 13.8451 69.0913 15.4951C65.861 18.3518 63.2654 22.0201 61.1811 25.966C58.0531 31.884 56.0727 38.4285 54.865 43.8206C54.2628 46.5216 53.8537 48.9352 53.5956 50.8408C53.4674 51.7952 53.3749 52.6262 53.3164 53.2966C53.258 53.967 53.2288 54.4896 53.2288 54.8467C53.2269 54.9714 53.2323 55.096 53.245 55.22C53.2522 55.285 53.2658 55.3492 53.2856 55.4116C53.3042 55.4692 53.331 55.5239 53.3651 55.5739C53.3979 55.6204 53.4366 55.6624 53.4804 55.6989C53.5473 55.7535 53.6255 55.7928 53.7092 55.8141C53.7661 55.8287 53.8553 55.8482 53.9933 55.8774C55.0046 56.0998 58.3924 56.8091 61.535 57.4648L67.567 58.7195L68.1725 58.8445L68.2456 58.231C68.2456 58.231 68.2456 58.2034 68.2569 58.1433C68.3689 57.2538 69.3559 49.6542 71.9109 37.0424C72.5829 33.7295 73.6299 31.1211 74.8669 29.0613C76.7255 25.9774 79.0159 24.1059 81.1732 22.9421C82.891 22.0326 84.7478 21.4145 86.668 21.1128C86.9153 21.0714 87.1656 21.0507 87.4163 21.0511C88.2381 21.0661 89.0476 21.253 89.7928 21.5997C90.8353 22.0867 91.7954 22.7335 92.6383 23.5167C92.9938 23.8413 93.2779 24.1302 93.4695 24.338C93.5668 24.4419 93.6318 24.5263 93.6886 24.5815L93.7422 24.6464L93.7551 24.661L93.9337 24.8801L94.2178 24.8687L94.1983 24.3006Z" fill="#231F20"/>
<path d="M93.8849 88.5913L108.244 119.78H76.5118C76.5118 119.78 88.4055 76.6873 93.8849 88.5913Z" fill="#2F3841"/>
<path d="M94.1017 88.5369L93.6986 88.7166L107.895 119.433H76.5809V119.87L77.0071 119.984C77.0071 119.984 77.017 119.953 77.0351 119.89C77.3066 118.918 79.6681 110.59 82.6664 102.525C84.1672 98.4936 85.8342 94.5255 87.4732 91.5887C88.296 90.1219 89.104 88.9125 89.8643 88.0933C90.18 87.7389 90.5438 87.4289 90.9455 87.1721C91.2099 86.9967 91.5187 86.8969 91.8374 86.884C91.9873 86.8835 92.1357 86.9133 92.2735 86.9714C92.5455 87.0945 92.784 87.2793 92.9696 87.5105C93.2661 87.8765 93.5113 88.2799 93.6986 88.7101L94.1017 88.5304L94.5049 88.3491C94.1528 87.5898 93.7693 87.0183 93.3283 86.6201C93.1204 86.4284 92.8805 86.2734 92.619 86.1619C92.3722 86.0566 92.1064 86.0016 91.8374 86C91.3395 86.0142 90.8561 86.1675 90.4435 86.442C89.9868 86.7371 89.5722 87.091 89.211 87.4943C88.4507 88.3135 87.6904 89.4241 86.9285 90.7468C85.5989 93.0587 84.2643 96.0198 83.007 99.1654C79.2369 108.607 76.1563 119.726 76.153 119.741L76 120.291H109.268L94.5049 88.3556L94.1017 88.5369Z" fill="#231F20"/>
<path d="M19.8299 90.4228C19.3467 91.0272 19.1332 91.7975 18.9687 92.5537L15.6368 107.875C14.2813 114.108 19.0295 120 25.4084 120H28.937C33.2655 120 37.1611 117.206 37.7076 112.912C38.1683 109.291 38.2302 104.905 36.799 101.313C33.9471 94.1557 23.719 85.5586 19.8299 90.4228Z" fill="#2F3841"/>
<path d="M18.7862 90.9639L18.3137 90.8777L12 121H36.0772L36.1797 120.669C36.1797 120.659 36.6365 119.212 37.0916 116.994C37.6675 114.257 37.9717 111.473 38 108.681C38 106.092 37.6856 103.421 36.772 101.042C36.1275 99.426 35.2825 97.8892 34.2552 96.4646C32.6899 94.2394 30.7802 92.2534 28.5911 90.5744C27.6285 89.8395 26.5792 89.2143 25.4646 88.7116C24.4225 88.2641 23.4081 88.0022 22.4372 88.0006C21.5923 87.9868 20.7634 88.2211 20.0628 88.6718C19.3576 89.1325 18.7757 89.8319 18.3432 90.775L18.3224 90.8214L18.312 90.8711L18.7844 90.9606L19.2256 91.1462C19.6042 90.3258 20.0767 89.7789 20.6151 89.4292C21.1556 89.0845 21.7942 88.9068 22.4441 88.9204C23.4863 88.9204 24.7351 89.3115 26.0326 90.0209C27.9797 91.0816 30.0379 92.8384 31.8027 94.8703C33.5674 96.9022 35.0507 99.2125 35.874 101.359C36.7303 103.591 37.0412 106.165 37.0412 108.681C37.0128 111.414 36.7144 114.139 36.1502 116.819C35.9279 117.907 35.7055 118.807 35.5388 119.432C35.4554 119.745 35.3859 119.989 35.3373 120.155C35.313 120.238 35.2939 120.301 35.2817 120.344L35.2661 120.39V120.405L35.7264 120.538V120.08H13.1759L19.2551 91.0534L18.7827 90.9639L19.2239 91.1495L18.7862 90.9639Z" fill="white"/>
<path d="M72.6422 119.175L16.7451 90.6455C14.3665 89.4314 12.5688 87.3249 11.7476 84.7893C10.9264 82.2536 11.1487 79.4966 12.3658 77.1244L30.4928 41.8091C31.0957 40.6344 31.9246 39.5896 32.9324 38.7344C33.9401 37.8792 35.1069 37.2304 36.3662 36.8248C37.6254 36.4193 38.9524 36.2651 40.2714 36.371C41.5904 36.477 42.8756 36.8409 44.0535 37.4421L99.9507 65.9669C102.328 67.1829 104.124 69.2898 104.945 71.825C105.766 74.3603 105.545 77.1168 104.33 79.4896L86.2029 114.81C84.9832 117.18 82.8703 118.971 80.3279 119.789C77.7856 120.608 75.0215 120.387 72.6422 119.175Z" fill="#ED4D4D"/>
<path d="M69.5552 109.703L26.7233 87.785C24.9003 86.8523 23.5227 85.2338 22.8933 83.2856C22.264 81.3375 22.4345 79.2191 23.3674 77.3967L37.2548 50.2661C37.7166 49.3635 38.3517 48.5608 39.1239 47.9037C39.8961 47.2466 40.7902 46.7481 41.7551 46.4365C42.7201 46.1249 43.7369 46.0065 44.7477 46.0879C45.7584 46.1694 46.7432 46.4491 47.6458 46.9111L90.4827 68.8295C92.3053 69.7625 93.6826 71.3811 94.3116 73.3293C94.9407 75.2774 94.7699 77.3956 93.8369 79.2179L79.9495 106.348C79.0159 108.171 77.3965 109.548 75.4472 110.178C73.498 110.807 71.3787 110.636 69.5552 109.703Z" fill="#ED4D4D"/>
<path d="M72.9818 118.613L73.2388 118.11L18.0065 89.7924C16.9079 89.2301 15.9308 88.4564 15.131 87.5155C14.3312 86.5746 13.7245 85.485 13.3455 84.309C12.9665 83.133 12.8226 81.8937 12.9222 80.662C13.0217 79.4303 13.3628 78.2303 13.9257 77.1307L31.833 42.0768C32.3945 40.9766 33.1671 39.9981 34.1064 39.1971C35.0458 38.3961 36.1335 37.7885 37.3074 37.4088C38.4814 37.0292 39.7185 36.8851 40.9481 36.9847C42.1777 37.0842 43.3756 37.4256 44.4734 37.9892L99.71 66.3071C101.275 67.1052 102.584 68.3297 103.485 69.8397C104.361 71.3067 104.824 72.984 104.825 74.6934C104.825 76.1814 104.471 77.648 103.791 78.9709L85.8835 114.023C85.0859 115.591 83.8628 116.903 82.3547 117.806C80.9869 118.63 79.4322 119.09 77.8374 119.143C76.2427 119.197 74.6606 118.842 73.2409 118.112L72.9839 118.615L72.729 119.115C74.2089 119.877 75.8491 120.275 77.5134 120.275C79.4509 120.277 81.3511 119.742 83.0043 118.73C84.6575 117.717 85.9994 116.267 86.882 114.54L104.789 79.4879C105.419 78.2561 105.8 76.9122 105.911 75.5328C106.022 74.1535 105.86 72.7657 105.436 71.4489C105.011 70.132 104.332 68.9118 103.437 67.8579C102.541 66.8041 101.448 65.9372 100.218 65.3068L44.9896 36.9847C43.76 36.3539 42.4185 35.972 41.0415 35.8608C39.6646 35.7495 38.2793 35.9111 36.9647 36.3364C35.6502 36.7617 34.4321 37.4423 33.3803 38.3392C32.3284 39.2362 31.4633 40.332 30.8344 41.564L12.9271 76.6158C12.2976 77.8476 11.9165 79.1916 11.8056 80.5709C11.6946 81.9503 11.856 83.338 12.2806 84.6549C12.7051 85.9718 13.3844 87.192 14.2798 88.2458C15.1751 89.2997 16.2689 90.1665 17.4987 90.7969L72.7269 119.113L72.9818 118.613Z" fill="#231F20"/>
<path d="M18.7266 78.8539C18.7266 78.8539 21.3138 75.1003 20.0472 72.8268C18.7806 70.5534 14.5048 70.1305 11.6558 74.4135C8.80687 78.6965 7.64504 81.1798 9.8558 84.0335C12.0666 86.8872 12.5755 85.2563 12.5755 85.2563C12.5755 85.2563 10.206 89.5852 14.5391 92.0701C14.5391 92.0701 14.8059 96.8383 19.2977 96.6171C19.2977 96.6171 22.4069 100.331 25.7369 96.6171C29.067 92.9028 27.1622 90.0016 26.4226 89.3148C25.6829 88.628 23.8894 88.5739 23.8894 88.5739C23.8894 88.5739 24.1529 87.6756 22.8863 85.7726C21.6198 83.8696 20.8818 84.0269 20.8818 84.0269C20.8818 84.0269 22.0518 79.4341 18.7266 78.8539Z" fill="white"/>
<path d="M18.971 78.6301L19.2576 78.8288C19.5764 78.3438 19.8616 77.8373 20.111 77.3128C20.3457 76.8271 20.5417 76.3234 20.6972 75.8066C20.8689 75.256 20.9611 74.6835 20.9709 74.1066C20.9811 73.5393 20.8468 72.9787 20.5806 72.4783C20.2515 71.8989 19.7635 71.4269 19.175 71.1187C18.5445 70.7898 17.8432 70.6221 17.1329 70.6302C16.1442 70.6427 15.1767 70.9198 14.3298 71.4329C13.2613 72.0866 12.3561 72.9779 11.6837 74.0382C10.7785 75.4044 10.04 76.5915 9.52022 77.6841C9.0004 78.7767 8.71052 79.7797 8.70081 80.7648C8.70034 81.3247 8.80188 81.8799 9.00039 82.4029C9.22535 82.9807 9.53602 83.5209 9.92183 84.0052C10.305 84.5307 10.7565 85.0022 11.2643 85.4072C11.4292 85.5327 11.6093 85.6367 11.8003 85.7166C11.9544 85.7808 12.1193 85.8145 12.2861 85.8159C12.4461 85.8179 12.6038 85.7787 12.7444 85.7019C12.8995 85.6144 13.029 85.4875 13.1201 85.3339C13.1642 85.2636 13.1996 85.1882 13.2254 85.1092L14.2407 81.7939L12.589 84.8226C12.4512 85.0882 12.3358 85.3649 12.244 85.6498C12.0262 86.2889 11.9125 86.9592 11.9072 87.6347C11.8984 88.4351 12.0936 89.2243 12.474 89.9274C12.895 90.7025 13.5946 91.4466 14.6682 92.0621L14.8415 91.7593L14.4933 91.7788C14.5667 92.6166 14.7992 93.4325 15.1783 94.1822C15.5473 94.9443 16.1296 95.5814 16.8537 96.0153C17.5778 96.4492 18.4122 96.661 19.2543 96.6247C19.3564 96.6247 19.4616 96.6247 19.5669 96.6247L19.5507 96.2762L19.2851 96.501C19.5789 96.8326 19.9104 97.1282 20.2729 97.3819C20.616 97.6279 20.9873 97.8313 21.379 97.9876C21.8354 98.1693 22.3213 98.2642 22.8121 98.2677C23.3848 98.2654 23.9493 98.1312 24.4623 97.8753C25.1174 97.5385 25.7014 97.0773 26.1821 96.5172C26.823 95.822 27.3421 95.0226 27.7172 94.1529C27.9975 93.4922 28.1445 92.7821 28.1496 92.0638C28.1479 91.3341 27.9818 90.6142 27.6638 89.9584C27.5436 89.7071 27.4011 89.4673 27.2379 89.2419C27.1173 89.0726 26.9812 88.9151 26.8314 88.7713C26.5941 88.5629 26.3192 88.4021 26.0218 88.2975C25.6059 88.1505 25.1753 88.0501 24.7376 87.9978C24.3716 87.9506 24.1109 87.9441 24.1028 87.9425L24.0931 88.2926L24.4267 88.3919C24.4538 88.2856 24.4663 88.176 24.4639 88.0662C24.4639 87.6071 24.302 86.7001 23.3903 85.3241C22.8364 84.4888 22.37 84.0215 21.9927 83.7544C21.7551 83.5625 21.4645 83.4488 21.1604 83.4288C21.1201 83.4277 21.0799 83.4315 21.0405 83.4402L21.1166 83.7805L21.4535 83.8668C21.5883 83.2738 21.6567 82.6676 21.6575 82.0594C21.68 81.2775 21.5133 80.5019 21.1717 79.7992C20.9762 79.4229 20.6996 79.0952 20.362 78.8402C19.9678 78.5546 19.5124 78.3661 19.0325 78.2898L18.9726 78.635L19.2592 78.8337L18.9726 78.635L18.9127 78.9786C19.286 79.0364 19.6406 79.182 19.9474 79.4036C20.3333 79.6996 20.6166 80.1104 20.7571 80.5776C20.9041 81.0574 20.9751 81.5574 20.9677 82.0594C20.9661 82.4488 20.9347 82.8374 20.8737 83.222C20.8511 83.3718 20.8284 83.4923 20.8106 83.5737C20.8106 83.6144 20.796 83.647 20.7911 83.6665V83.6893L20.6535 84.2381L21.2041 84.1159L21.1523 83.8782L21.1782 84.1208H21.2041L21.1523 83.8831L21.1782 84.1257L21.1685 84.0296V84.1257L21.1587 84.0296V84.1257C21.3187 84.1499 21.4689 84.2181 21.5927 84.3227C21.8729 84.5214 22.2891 84.922 22.8089 85.7068C23.6655 86.9997 23.7659 87.7666 23.7659 88.0614C23.7664 88.1033 23.7636 88.1452 23.7578 88.1867V88.2063L23.9392 88.2502L23.7611 88.1981V88.2063L23.9425 88.2502L23.7643 88.1981L23.638 88.6329L24.0882 88.6459C24.4144 88.6618 24.739 88.7004 25.0598 88.7615C25.313 88.8077 25.5617 88.8758 25.8031 88.9651C26.0091 89.0372 26.1997 89.1477 26.3651 89.2907C26.4846 89.4032 26.593 89.527 26.6889 89.6604C26.9023 89.963 27.0729 90.294 27.1958 90.6439C27.3611 91.0988 27.4455 91.5794 27.4452 92.0638C27.4412 92.6896 27.3135 93.3084 27.0695 93.8842C26.724 94.6804 26.2471 95.412 25.659 96.0483C25.2385 96.5408 24.7271 96.9466 24.153 97.2435C23.7351 97.454 23.2747 97.5654 22.8073 97.5691C22.4026 97.5658 22.0022 97.4863 21.6267 97.3347C21.1445 97.1378 20.6975 96.8627 20.3037 96.5205C20.1418 96.3853 20.0187 96.2632 19.9345 96.1769C19.8924 96.133 19.86 96.0988 19.8406 96.076L19.8179 96.0499L19.7207 96.1329L19.8195 96.0499L19.7223 96.1329L19.8211 96.0499L19.7094 95.918H19.5377C19.4422 95.918 19.3483 95.918 19.2576 95.918C18.4591 95.942 17.6732 95.7143 17.0099 95.2667C16.6182 94.9887 16.2838 94.637 16.0253 94.2311C15.6984 93.7074 15.4614 93.1322 15.3241 92.5295C15.2775 92.3333 15.2407 92.135 15.214 91.9351C15.2043 91.8635 15.1994 91.8065 15.1962 91.7723C15.1929 91.7381 15.1962 91.7397 15.1962 91.73H15.1055H15.1962H15.1055H15.1962L15.1864 91.5394L15.0245 91.445C14.0529 90.8816 13.4537 90.2368 13.0942 89.5822C12.7705 88.9827 12.6034 88.3104 12.6084 87.6282C12.6148 87.0286 12.7165 86.4338 12.9096 85.8664C12.9857 85.64 13.0618 85.4593 13.1169 85.3355C13.1444 85.2737 13.1671 85.2264 13.1833 85.1955C13.1884 85.1837 13.1944 85.1723 13.2011 85.1613V85.1532L13.0942 85.0946L13.2011 85.1548L13.0942 85.0962L13.2011 85.1564L12.8966 84.9936L12.5647 84.891L12.7266 84.9415L12.5647 84.8861L12.7266 84.9366L12.5647 84.8812C12.5589 84.8962 12.5525 84.9109 12.5452 84.9252C12.5206 84.9716 12.4877 85.013 12.4481 85.0473C12.429 85.0638 12.407 85.0765 12.3833 85.0848C12.3528 85.0965 12.3204 85.102 12.2877 85.1011C12.2101 85.0983 12.1337 85.0806 12.0627 85.049C11.8314 84.9446 11.6195 84.8014 11.4359 84.6256C11.0855 84.3001 10.7646 83.9437 10.4773 83.5607C10.1355 83.1309 9.85931 82.6524 9.65786 82.1408C9.48901 81.6963 9.40284 81.2244 9.40362 80.7486C9.40362 79.9116 9.66272 79.0079 10.155 77.969C10.6473 76.9301 11.3696 75.7659 12.2683 74.4111C12.8828 73.4406 13.7098 72.6241 14.6861 72.024C15.4269 71.5734 16.2737 71.3295 17.1394 71.3173C17.7359 71.3106 18.3248 71.4515 18.8544 71.7277C19.3256 71.9726 19.7164 72.3492 19.9798 72.8121C20.189 73.2099 20.2928 73.6552 20.281 74.105C20.271 74.6139 20.1892 75.1189 20.0381 75.6047C19.8252 76.2931 19.5425 76.9577 19.1944 77.588C19.0535 77.8469 18.9272 78.0602 18.8349 78.2067C18.7896 78.28 18.754 78.3354 18.728 78.3696L18.7005 78.4119V78.4217L18.3928 78.8711L18.9272 78.9639L18.971 78.6301Z" fill="#231F20"/>
<path d="M18.5578 78.3071C17.6136 78.9621 16.7106 79.6809 15.8546 80.459C15.0997 81.1319 14.3974 81.8676 13.7544 82.6591C13.1104 83.4688 12.5678 84.3354 12.2834 85.233L12.947 85.4725C13.1954 84.7058 13.6906 83.8995 14.3003 83.1346C15.2061 82.0398 16.2153 81.0452 17.3124 80.1661C17.7799 79.7853 18.1884 79.4769 18.481 79.2616C18.6265 79.1548 18.7425 79.0721 18.8226 79.0169L18.9141 78.9549L18.937 78.9377L18.5595 78.314L18.5578 78.3071Z" fill="#231F20"/>
<path d="M20.741 83.4253C19.7463 83.8879 18.8279 84.5154 18.0207 85.2841C16.134 87.0298 14.8384 89.3781 14.3307 91.9723L15.0028 92.1261C15.3135 90.5336 15.9421 89.0293 16.8465 87.7134C17.751 86.3976 18.9106 85.3004 20.2481 84.4949C20.4802 84.3564 20.6706 84.2567 20.8002 84.1942L20.9474 84.1232L20.9842 84.108L20.949 84.0134L20.9826 84.108L20.9474 84.0134L20.981 84.108L20.733 83.4321L20.741 83.4253Z" fill="#231F20"/>
<path d="M23.6243 88.0315C22.8634 88.7183 22.1775 89.4914 21.579 90.3367C20.5141 91.8116 19.3435 93.9531 18.937 96.618L19.6264 96.7323C20.0068 94.2276 21.1173 92.1901 22.1366 90.7783C22.5489 90.2042 23.0005 89.6623 23.4877 89.1568C23.6649 88.971 23.8129 88.8312 23.912 88.7374L24.0259 88.6334L24.0551 88.6078L23.6162 88.0383L23.6243 88.0315Z" fill="#231F20"/>
<path d="M106.853 69.2556C106.853 69.2556 100.878 64.0787 99.5067 66.8289C98.1351 69.5791 102.126 70.346 102.875 70.6792C103.625 71.0125 104.6 72.9441 104.6 72.9441C104.6 72.9441 101.15 70.8248 98.14 71.2616C95.1299 71.6984 94.4752 71.7259 94.4932 73.4925C94.5112 75.2591 95.3902 75.5309 95.3902 75.5309C95.3902 75.5309 92.5373 75.298 92.1804 77.4722C91.8236 79.6465 93.2313 80.4231 96.0727 80.5654C98.9142 80.7078 98.1318 81.2611 98.1318 81.2611C98.1318 81.2611 95.2167 80.8955 94.832 82.8481C94.4474 84.8008 95.7356 86.1419 98.1056 86.6175L100.469 87.0932L98.2497 92.126C98.2497 92.126 103.815 90.67 104.777 88.0913C105.74 85.5126 105.06 84.474 105.06 84.474C105.06 84.474 107.502 84.0097 106.339 80.093C106.339 80.093 109.391 78.5222 107.157 75.0197C107.151 75.0391 110.385 74.9032 106.853 69.2556Z" fill="white"/>
<path d="M106.557 69.0802L106.76 68.8468C106.073 68.2536 105.352 67.701 104.601 67.1918C103.974 66.7599 103.313 66.3779 102.626 66.0492C101.942 65.7358 101.263 65.5139 100.631 65.5122C100.299 65.5046 99.9717 65.5833 99.6798 65.7407C99.3752 65.9174 99.1322 66.1842 98.9841 66.5046C98.7862 66.8827 98.6783 67.3017 98.6688 67.7288C98.668 67.9955 98.7205 68.2597 98.8232 68.5057C99.0036 68.9076 99.2833 69.2566 99.6359 69.5193C100.146 69.8951 100.709 70.1916 101.307 70.399C101.578 70.4986 101.83 70.5818 102.036 70.6504C102.243 70.7189 102.409 70.7744 102.485 70.8136C102.561 70.8535 102.631 70.9029 102.695 70.9605C102.867 71.1214 103.023 71.2997 103.16 71.4926C103.387 71.8064 103.595 72.1334 103.784 72.4719C103.867 72.6156 103.932 72.7396 103.979 72.8261L104.031 72.9273L104.044 72.9534V72.9616L104.32 72.8228L104.483 72.5601C103.907 72.215 103.307 71.9133 102.687 71.6574C101.616 71.2102 100.192 70.7548 98.7501 70.7548C98.4526 70.7543 98.1555 70.775 97.861 70.8169C97.1247 70.9262 96.5266 71.0095 96.0374 71.1025C95.7172 71.1573 95.4024 71.2398 95.0963 71.349C94.9087 71.4168 94.7323 71.5125 94.573 71.633C94.3418 71.809 94.1713 72.0533 94.0854 72.3315C93.9942 72.6496 93.9536 72.9801 93.9651 73.3109V73.3859H94.2756H93.9651C93.9651 74.3261 94.2138 74.9153 94.4803 75.2679C94.6276 75.4795 94.8341 75.6425 95.0736 75.7363L95.1662 75.4392L95.1922 75.1291C95.1922 75.1291 95.0882 75.121 94.9306 75.121C94.333 75.1139 93.7399 75.2248 93.185 75.4474C92.8225 75.5983 92.4978 75.828 92.2341 76.1199C91.9332 76.4668 91.7385 76.8936 91.6734 77.3489C91.6356 77.5738 91.616 77.8015 91.6149 78.0295C91.6043 78.465 91.7062 78.8957 91.9107 79.2798C92.0618 79.5481 92.2672 79.7816 92.5137 79.9653C92.933 80.2626 93.4079 80.4714 93.9099 80.579C94.5399 80.7229 95.182 80.8071 95.8277 80.8304C96.7233 80.8745 97.2418 80.9642 97.5018 81.0507C97.5746 81.0691 97.6435 81.1006 97.705 81.1438L97.7684 81.0818L97.6887 81.116C97.693 81.1259 97.6985 81.1352 97.705 81.1438L97.7684 81.0818L97.6887 81.116L97.8334 81.0524H97.6709C97.6706 81.0743 97.675 81.096 97.6839 81.116L97.8285 81.0524H97.8171L97.6839 80.992C97.6745 81.0107 97.67 81.0315 97.6709 81.0524H97.8171L97.6839 80.992L97.731 81.0132L97.692 80.9757C97.692 80.9757 97.692 80.9757 97.692 80.992L97.7391 81.0132L97.7001 80.9757L97.7668 81.0491L97.7099 80.9675L97.7001 80.9757L97.7668 81.0491L97.7099 80.9675L97.8903 81.2205L97.9293 80.912C97.7382 80.891 97.5461 80.8812 97.3539 80.8826C96.7711 80.8716 96.1917 80.9736 95.6473 81.183C95.3317 81.3104 95.0469 81.504 94.8119 81.751C94.5531 82.0335 94.379 82.3837 94.3097 82.7613C94.2633 83.0012 94.2393 83.2449 94.2382 83.4892C94.2344 83.9138 94.3203 84.3343 94.4901 84.7232C94.7579 85.3037 95.189 85.7927 95.7302 86.1301C96.3622 86.5241 97.0625 86.7948 97.7944 86.9283L100.141 87.4081L100.203 87.1046L99.9187 86.9805L97.4661 92.6377L98.0853 92.4745C99.0868 92.192 100.065 91.8318 101.011 91.3972C101.805 91.0412 102.558 90.5978 103.255 90.0752C103.935 89.5512 104.504 88.9326 104.777 88.2047C105.186 87.098 105.312 86.246 105.312 85.6274C105.312 84.7477 105.058 84.3217 105.029 84.2776L104.769 84.4408L104.827 84.746C105.177 84.6618 105.499 84.49 105.765 84.2466C106.032 84.007 106.244 83.7118 106.386 83.3815C106.576 82.9244 106.669 82.4324 106.659 81.937C106.645 81.2574 106.536 80.5831 106.334 79.9343L106.036 80.0208L106.179 80.2967C106.514 80.1057 106.817 79.8627 107.077 79.5769C107.328 79.3042 107.535 78.9929 107.689 78.6547C107.877 78.2376 107.972 77.7851 107.971 77.3277C107.971 76.5867 107.73 75.72 107.112 74.7358L106.851 74.899L106.864 75.2091C106.954 75.2034 107.044 75.1892 107.132 75.1667C107.457 75.0926 107.755 74.9274 107.99 74.6901C108.151 74.5243 108.277 74.3271 108.359 74.1106C108.459 73.8379 108.508 73.5491 108.504 73.2586C108.484 72.6496 108.357 72.0489 108.128 71.4844C107.777 70.5821 107.338 69.7166 106.818 68.9007L106.794 68.8599L106.758 68.8305L106.555 69.0639L106.292 69.2271C106.793 70.0132 107.216 70.847 107.554 71.7162C107.757 72.2119 107.871 72.7396 107.891 73.275C107.904 73.5426 107.848 73.809 107.728 74.0486C107.663 74.1676 107.576 74.2725 107.47 74.3571C107.343 74.4555 107.199 74.5276 107.044 74.5693C106.995 74.5826 106.945 74.5929 106.895 74.6003H106.857L106.867 74.7962V74.6003L106.877 74.7962V74.6003L106.344 74.6232L106.628 75.0753C107.197 75.9844 107.39 76.7303 107.392 77.3359C107.394 77.7051 107.316 78.0703 107.164 78.4066C106.982 78.7993 106.717 79.1475 106.387 79.4267C106.286 79.5185 106.177 79.6025 106.062 79.6781C106.022 79.7058 105.989 79.7254 105.967 79.7385L105.944 79.7515L105.955 79.7727L105.944 79.7515L105.955 79.7727L105.944 79.7515L105.718 79.8707L105.789 80.1155C105.975 80.7074 106.077 81.323 106.09 81.9436C106.1 82.3524 106.025 82.7588 105.869 83.1367C105.724 83.482 105.475 83.773 105.157 83.9691C105.064 84.0269 104.964 84.075 104.861 84.1127L104.778 84.1389H104.759L104.307 84.227L104.559 84.6138L104.694 84.5257L104.556 84.6106L104.691 84.5224L104.553 84.6073C104.563 84.6257 104.573 84.6448 104.582 84.6644C104.7 84.9689 104.755 85.2943 104.744 85.6209C104.744 86.1595 104.635 86.9266 104.247 87.981C104.039 88.549 103.556 89.0942 102.929 89.5757C101.991 90.302 100.746 90.8815 99.7415 91.2683C99.2393 91.4625 98.7956 91.6111 98.4786 91.7106C98.3161 91.7612 98.1942 91.7988 98.1081 91.8232L97.965 91.8706H97.9407L98.0203 92.1709L98.3031 92.2949L100.66 86.8646L100.286 86.7879L97.939 86.308C96.9427 86.1056 96.1691 85.74 95.6636 85.2618C95.4176 85.0374 95.2201 84.7646 95.0833 84.4604C94.9489 84.1517 94.8808 83.818 94.8834 83.4811C94.8849 83.2766 94.9056 83.0728 94.9452 82.8723C94.9915 82.6082 95.1122 82.3629 95.293 82.1655C95.5671 81.8934 95.9127 81.7055 96.2893 81.6236C96.6467 81.5356 97.0136 81.4923 97.3815 81.4947C97.5343 81.4947 97.6595 81.4947 97.7472 81.5078L97.848 81.5175H97.8789L97.9992 81.5322L98.0983 81.462C98.1376 81.4317 98.1735 81.3972 98.2056 81.3592C98.2369 81.3224 98.2627 81.2812 98.282 81.2368C98.3122 81.1731 98.3272 81.1032 98.3258 81.0326C98.3244 80.9621 98.3066 80.8928 98.2739 80.8304C98.2125 80.7185 98.1198 80.6271 98.0073 80.5676C97.7782 80.4516 97.5317 80.3744 97.2775 80.3391C96.8179 80.2612 96.3537 80.2138 95.8879 80.1971C95.3419 80.1745 94.7985 80.1095 94.2625 80.0029C93.5653 79.8527 93.0631 79.6177 92.7477 79.3059C92.5918 79.1533 92.4709 78.9684 92.3934 78.764C92.3057 78.5249 92.2633 78.2713 92.2683 78.0165C92.2695 77.8218 92.2864 77.6274 92.3187 77.4354C92.3666 77.0958 92.511 76.7773 92.7347 76.5181C93.0471 76.1921 93.4477 75.9651 93.8871 75.8653C94.2397 75.7747 94.6023 75.7292 94.9663 75.7298H95.1288H95.1792V75.6563V75.7298V75.6563V75.7298L97.9683 75.9616L95.2979 75.1226L95.2573 75.2532L95.3044 75.1259L95.2638 75.2564L95.3109 75.1291C95.1765 75.0617 95.0639 74.9576 94.9858 74.8288C94.8233 74.5889 94.638 74.1514 94.6299 73.3598V73.2945C94.6123 72.9958 94.6549 72.6966 94.755 72.4148C94.81 72.2825 94.9021 72.1691 95.02 72.0883C95.2085 71.9496 95.5319 71.8337 96.0212 71.7342C96.5104 71.6346 97.1589 71.5416 97.9878 71.4191C98.2526 71.3804 98.5199 71.3613 98.7875 71.362C100.099 71.362 101.459 71.7864 102.485 72.2173C102.999 72.4327 103.428 72.6482 103.728 72.8098C103.878 72.8898 103.997 72.9567 104.075 73.004L104.166 73.0562L104.188 73.0709L105.118 73.652L104.631 72.6727C104.631 72.6727 104.382 72.1716 104.036 71.6264C103.861 71.3449 103.668 71.0755 103.457 70.8201C103.357 70.6997 103.248 70.5868 103.132 70.4823C103.024 70.3842 102.902 70.3022 102.771 70.2391C102.669 70.1934 102.548 70.1509 102.404 70.102C102.15 70.0171 101.825 69.9159 101.481 69.7837C100.944 69.596 100.441 69.3239 99.9902 68.9774C99.7941 68.8206 99.6287 68.6285 99.5026 68.411C99.3842 68.2016 99.3225 67.9647 99.3238 67.7239C99.3336 67.3916 99.4192 67.066 99.5741 66.7723C99.6682 66.567 99.8232 66.396 100.018 66.2826C100.218 66.1772 100.442 66.126 100.668 66.1341C101.156 66.1341 101.768 66.3185 102.404 66.614C103.362 67.0854 104.273 67.6501 105.121 68.3C105.5 68.584 105.819 68.8386 106.041 69.0215L106.3 69.2385L106.368 69.2973L106.389 69.3169L106.594 69.0835L106.331 69.2467L106.557 69.0802Z" fill="#231F20"/>
<path d="M97.8341 81.4726V81.4229V81.4726V81.4229V81.4726C97.8341 81.4726 97.9709 81.4586 98.199 81.4586C99.0899 81.4668 99.9723 81.6246 100.806 81.9249C102.231 82.4448 103.486 83.3157 104.444 84.4489L104.921 84.0712C103.894 82.8634 102.551 81.9355 101.027 81.3809C100.122 81.0515 99.1618 80.8774 98.1925 80.8665C98.0467 80.8648 97.9009 80.871 97.7559 80.8851L97.8275 81.4726H97.8341Z" fill="#231F20"/>
<path d="M95.3609 75.9311C95.6978 75.8664 96.041 75.8371 96.3844 75.8437C97.2143 75.8437 98.5166 75.982 100.165 76.6151C101.813 77.2481 103.813 78.3647 106.034 80.3544L106.457 79.9091C104.185 77.8827 102.12 76.7121 100.388 76.052C98.656 75.3919 97.2717 75.2377 96.3778 75.2377C95.9812 75.2287 95.5848 75.265 95.1969 75.3458L95.3527 75.9311H95.3609Z" fill="#231F20"/>
<path d="M104.409 73.2603C104.723 73.4218 105.024 73.6141 105.309 73.835C105.549 74.0175 105.774 74.226 105.981 74.4578C106.184 74.6825 106.353 74.9457 106.481 75.2363L106.968 74.963C106.809 74.595 106.595 74.2625 106.336 73.9808C105.993 73.6064 105.611 73.2832 105.199 73.0185C105.01 72.8922 104.814 72.7783 104.614 72.6772L104.409 73.2603Z" fill="#231F20"/>
<path d="M81.7969 45.2966L81.553 45.8098L88.4566 49.4005L88.7006 48.8857L88.2925 48.5118L88.5036 48.7004L88.2925 48.5102L88.5036 48.6988L88.2925 48.5102L88.233 48.5758C87.9217 48.9064 87.5693 49.1915 87.1854 49.4235C86.6484 49.7691 86.0395 49.9729 85.4109 50.0175C84.7823 50.062 84.1528 49.946 83.5764 49.6793C83.2792 49.5527 83.0024 49.379 82.7554 49.1644C82.4767 48.9196 82.2616 48.6049 82.13 48.2495C82.0144 47.925 81.9571 47.5809 81.9611 47.2346C81.966 46.8264 82.0244 46.4209 82.1346 46.0295C82.1784 45.8655 82.2222 45.7442 82.2535 45.6573L82.291 45.5622L82.3004 45.5409L82.144 45.4655L82.3004 45.5425L82.144 45.4671L82.3004 45.5441L81.8047 45.3031L81.5608 45.8163L81.8047 45.3031L81.3075 45.0621C81.219 45.2752 81.1443 45.4943 81.0838 45.7179C80.9444 46.2132 80.8712 46.7264 80.8665 47.2428C80.8569 47.9131 81.0189 48.5738 81.3356 49.1562C81.5213 49.4877 81.7586 49.7842 82.0377 50.0334C82.3702 50.3246 82.7437 50.5602 83.1448 50.7319C83.7742 51.021 84.4529 51.1738 85.1401 51.1811C85.7008 51.18 86.2572 51.0779 86.7851 50.8794C87.3993 50.6485 87.9726 50.3122 88.4817 49.8842C88.7067 49.6974 88.916 49.4906 89.1072 49.2661L89.5669 48.707L81.5279 44.5276L81.2918 45.0621L81.7969 45.2966Z" fill="#231F20"/>
<path d="M55.5925 64.506L39.8454 67.7334C39.566 67.7901 39.3038 67.911 39.0799 68.0866C38.856 68.2621 38.6766 68.4874 38.5563 68.7443C38.4359 69.0012 38.3778 69.2825 38.3868 69.5657C38.3957 69.849 38.4713 70.1261 38.6076 70.375L46.4958 84.6675C46.5317 84.7326 46.5802 84.79 46.6385 84.8364C46.6968 84.8828 46.7637 84.9174 46.8354 84.9382C46.9071 84.9589 46.9822 84.9654 47.0565 84.9574C47.1308 84.9493 47.2027 84.9267 47.2682 84.891C47.3337 84.8553 47.3914 84.8071 47.4382 84.7492C47.4849 84.6914 47.5197 84.6249 47.5406 84.5536C47.5615 84.4824 47.5681 84.4078 47.5599 84.334C47.5518 84.2602 47.5291 84.1888 47.4932 84.1237L39.605 69.8328C39.5494 69.7342 39.5198 69.6232 39.5189 69.5101C39.5193 69.3542 39.5725 69.203 39.67 69.0809C39.7701 68.9553 39.9116 68.869 40.0696 68.8372L55.8264 65.6098C55.9016 65.597 55.9736 65.5694 56.0378 65.5284C56.1021 65.4874 56.1574 65.434 56.2004 65.3713C56.2434 65.3087 56.2733 65.2381 56.2882 65.1637C56.3032 65.0893 56.3029 65.0127 56.2874 64.9384C56.2719 64.8642 56.2415 64.7938 56.198 64.7314C56.1545 64.6691 56.0989 64.6161 56.0343 64.5756C55.9698 64.5351 55.8977 64.5079 55.8223 64.4957C55.7469 64.4834 55.6699 64.4864 55.5957 64.5044L55.5925 64.506Z" fill="white"/>
<path d="M65.0406 69.2809L50.8145 85.0416C50.7143 85.1528 50.6624 85.2993 50.6701 85.4488C50.6778 85.5983 50.7445 85.7386 50.8556 85.8389C50.9667 85.9392 51.1131 85.9912 51.2625 85.9835C51.4119 85.9758 51.5522 85.909 51.6524 85.7978L65.8784 70.0371C65.9786 69.9259 66.0306 69.7795 66.0229 69.6299C66.0152 69.4804 65.9484 69.3401 65.8373 69.2398C65.7262 69.1395 65.5799 69.0875 65.4304 69.0952C65.281 69.1029 65.1408 69.1697 65.0406 69.2809Z" fill="white"/>
<path d="M69.1802 71.9678L77.0699 86.8553C77.1231 86.953 77.151 87.062 77.1511 87.1728C77.1492 87.3343 77.0906 87.4901 76.9854 87.6141C76.8778 87.7432 76.7257 87.829 76.558 87.8551L60.3676 90.4815C60.2157 90.5061 60.0801 90.589 59.9905 90.7119C59.9008 90.8348 59.8645 90.9877 59.8896 91.1369C59.9146 91.2861 59.999 91.4194 60.124 91.5075C60.2491 91.5956 60.4046 91.6313 60.5564 91.6067L76.7518 88.9802C77.0412 88.9329 77.3152 88.819 77.5512 88.6478C77.7873 88.4765 77.9789 88.2529 78.1102 87.995C78.2415 87.7372 78.309 87.4525 78.307 87.1641C78.305 86.8758 78.2337 86.592 78.0988 86.3359L70.209 71.4483C70.1738 71.3819 70.1256 71.323 70.0672 71.2749C70.0088 71.2268 69.9413 71.1905 69.8686 71.1681C69.7959 71.1456 69.7194 71.1375 69.6435 71.1441C69.5676 71.1507 69.4938 71.1719 69.4262 71.2065C69.3586 71.2412 69.2987 71.2885 69.2498 71.3459C69.2008 71.4034 69.1639 71.4697 69.141 71.5411C69.1182 71.6126 69.1099 71.6877 69.1166 71.7623C69.1233 71.8369 69.1449 71.9095 69.1802 71.9759V71.9678Z" fill="white"/>
</svg>
