<svg width="130" height="130" viewBox="0 0 130 130" fill="none" xmlns="http://www.w3.org/2000/svg">
<g clip-path="url(#clip0_2179_2223)">
<path d="M55.6235 52.9212L38.3265 50.6453C37.5757 54.1584 35.6439 57.3046 32.856 59.5546C30.0681 61.8047 26.5942 63.0212 23.0185 62.9997C14.2415 62.9462 7.18861 55.4806 7.57417 46.6762C7.70079 43.7824 8.62521 40.9808 10.2443 38.5842C11.8633 36.1877 14.1133 34.2904 16.743 33.1042C16.6458 29.2769 16.9405 25.5252 18.0062 22.7296C21.3838 13.8716 30.4445 10.5609 30.4445 10.5609L29.291 9.48519L31.7626 10.5609L32.3394 8.57483L32.888 10.3956C32.888 10.3956 44.1946 7.95427 49.6363 11.802C60.7298 19.6457 57.4729 26.4498 59.6311 34.6919C60.6546 38.5916 59.3584 51.447 55.6235 52.9212Z" fill="#231F20"/>
<path d="M67.2161 107.883C67.2161 107.883 70.7968 49.5657 36.8495 44.3245C-7.90494 37.6972 8.91566 107.883 8.91566 107.883H67.2161Z" fill="#2F3841"/>
<path d="M66.7316 107.291L67.217 107.337C67.217 107.324 67.3247 105.551 67.3247 102.6C67.3247 95.6037 66.7269 81.9958 62.6422 69.5235C60.5975 63.2893 57.6772 57.3338 53.5019 52.6572C49.3267 47.9806 43.8996 44.5905 36.9071 43.4948C35.0327 43.2072 33.1458 43.0593 31.2568 43.052C26.1061 43.052 21.9121 44.2737 18.5391 46.4039C16.1301 47.9177 13.998 50.0147 12.2723 52.5675C9.77497 56.2591 8.15482 60.7391 7.16836 65.515C6.18191 70.2909 5.81824 75.3702 5.81824 80.2835C5.81824 87.4111 6.58461 94.195 7.35098 99.2019C8.11735 104.209 8.88217 107.438 8.88529 107.452L8.98831 107.883H67.1827L67.217 107.332L66.7316 107.286V106.69H9.34886V107.286L9.81711 107.12C9.81389 107.108 9.81128 107.097 9.80931 107.085C9.72346 106.717 8.96645 103.42 8.23286 98.5128C7.49926 93.6052 6.78752 87.0885 6.78752 80.2835C6.78752 75.9811 7.07159 71.564 7.80987 67.3685C8.33141 64.2783 9.17052 61.2812 10.3072 58.4485C12.0023 54.3217 14.42 50.7789 17.8117 48.2688C21.2034 45.7587 25.5894 44.2507 31.2506 44.2507C33.0999 44.258 34.9472 44.4027 36.7822 44.684C43.5859 45.7473 48.8007 49.0133 52.8417 53.5352C55.8697 56.9272 58.2313 61.0331 60.0684 65.4558C62.8248 72.089 64.3997 79.4303 65.2816 86.0864C65.9934 91.5477 66.3519 97.0692 66.3539 102.6C66.3539 104.058 66.3274 105.222 66.3008 106.022C66.2883 106.421 66.2743 106.73 66.2649 106.936C66.2649 107.041 66.2556 107.127 66.2524 107.171C66.2493 107.215 66.2524 107.217 66.2524 107.23V107.248L66.7394 107.291H66.7316Z" fill="#231F20"/>
<path d="M112.894 30.748H59.452C54.1709 30.748 49.8898 34.9989 49.8898 40.2427V71.6472C49.8898 76.8909 54.1709 81.1417 59.452 81.1417H112.894C118.176 81.1417 122.457 76.8909 122.457 71.6472V40.2427C122.457 34.9989 118.176 30.748 112.894 30.748Z" fill="#ED4D4D"/>
<path d="M108.137 35.2834H64.7131C60.4228 35.2834 56.9448 38.7688 56.9448 43.0681V68.8216C56.9448 73.121 60.4228 76.6063 64.7131 76.6063H108.137C112.427 76.6063 115.905 73.121 115.905 68.8216V43.0681C115.905 38.7688 112.427 35.2834 108.137 35.2834Z" fill="#ED4D4D"/>
<path d="M112.41 80.9916V80.3357H59.9364C58.79 80.3359 57.6548 80.1114 56.5956 79.675C55.5364 79.2385 54.574 78.5987 53.7633 77.792C52.9525 76.9854 52.3094 76.0277 51.8707 74.9736C51.4319 73.9196 51.2061 72.7898 51.2061 71.6489V40.7467C51.2058 39.6056 51.4315 38.4757 51.8701 37.4214C52.3088 36.3672 52.9519 35.4092 53.7626 34.6024C54.5733 33.7955 55.5359 33.1555 56.5952 32.719C57.6545 32.2824 58.7899 32.0578 59.9364 32.0581H112.41C114.725 32.0586 116.946 32.9741 118.583 34.6035C120.22 36.2328 121.14 38.4425 121.14 40.7467V71.6489C121.139 73.9528 120.219 76.162 118.582 77.7909C116.945 79.4198 114.725 80.3352 112.41 80.3357V81.6457C113.729 81.6459 115.036 81.3875 116.255 80.8853C117.473 80.383 118.581 79.6467 119.514 78.7184C120.447 77.7901 121.187 76.6879 121.692 75.475C122.197 74.262 122.457 72.9619 122.457 71.6489V40.7467C122.456 38.0951 121.398 35.5522 119.514 33.6771C117.63 31.8021 115.074 30.7485 112.41 30.748H59.9364C58.617 30.7478 57.3105 31.0063 56.0914 31.5086C54.8724 32.011 53.7648 32.7475 52.8318 33.676C51.8988 34.6045 51.1588 35.7069 50.654 36.9201C50.1492 38.1333 49.8895 39.4336 49.8898 40.7467V71.6489C49.8895 72.9619 50.1492 74.2621 50.6541 75.4753C51.1589 76.6884 51.8989 77.7906 52.8319 78.7189C53.7649 79.6473 54.8726 80.3836 56.0916 80.8858C57.3106 81.388 58.6171 81.6462 59.9364 81.6457H112.41V80.9916Z" fill="#231F20"/>
<path d="M27.0623 44.9093C27.9832 46.3457 29.3096 47.4778 30.8743 48.1628C32.439 48.8477 34.172 49.0548 35.8545 48.758C36.4968 48.6399 36.926 48.4825 36.948 48.2856C37.068 47.2069 37.2889 46.0227 37.6912 45.9566C38.4376 45.8322 46.2736 48.3187 49.8807 42.7283C53.4878 37.138 54.3589 31.5555 53.7372 28.7005C53.7372 28.7005 45.0302 25.9699 41.9201 18.1497C41.9201 18.1497 38.4376 26.9682 34.2088 26.3383C31.9697 24.6061 28.361 23.9762 26.8683 26.3383C25.3755 28.7005 26.8683 33.0421 26.8683 33.0421L26.2055 43.5929L27.0623 44.9093Z" fill="white"/>
<path d="M27.115 44.8651L26.6525 45.1641C27.4828 46.4561 28.623 47.5199 29.9692 48.2586C31.3154 48.9974 32.825 49.3876 34.3604 49.3937C34.9033 49.394 35.4451 49.345 35.9791 49.2474C36.2834 49.1978 36.5817 49.1171 36.8695 49.0066C37.0019 48.9545 37.1255 48.8823 37.236 48.7926C37.3033 48.7369 37.3617 48.671 37.409 48.5975C37.4686 48.5022 37.5057 48.3946 37.5176 48.2828C37.5645 47.7917 37.6475 47.3047 37.7661 46.8257C37.8025 46.6817 37.8553 46.5423 37.9234 46.4103C37.9299 46.3983 37.9372 46.3867 37.9454 46.3757L37.9313 46.3631L37.9439 46.3757L37.9297 46.3631L37.9423 46.3757L37.8149 46.253L37.9045 46.4103C37.9186 46.403 37.9313 46.3934 37.9423 46.382L37.8149 46.2593L37.9045 46.4166L37.7472 46.1538L37.796 46.4544C37.8332 46.4487 37.869 46.4359 37.9014 46.4166L37.7441 46.1538L37.7928 46.4544L37.7535 46.2199L37.7692 46.4575H37.7928L37.7535 46.2231L37.7692 46.4607V46.4072V46.4607V46.4072V46.4607C37.8261 46.4625 37.8829 46.4678 37.9391 46.4764C38.0964 46.4953 38.3214 46.5315 38.5982 46.5755C39.7754 46.783 40.9675 46.8945 42.1628 46.9091C43.5172 46.9091 45.0257 46.736 46.4682 46.1586C48.054 45.5359 49.4013 44.4257 50.3159 42.9879C51.6684 40.9027 52.7331 38.6442 53.4809 36.2737C54.14 34.1526 54.4247 32.2093 54.4247 30.6091C54.4318 29.9222 54.3659 29.2365 54.2281 28.5635L54.1604 28.2488L53.8553 28.1528C52.2157 27.5745 50.6534 26.7965 49.2037 25.8366C47.819 24.9437 46.5508 23.8818 45.4284 22.6754C44.1416 21.2924 43.1205 19.6842 42.416 17.9312L41.9016 16.6378L41.392 17.9328C40.8062 19.3546 40.0983 20.7229 39.2762 22.0224C38.647 23.0058 37.8888 23.9736 37.0897 24.6722C36.7243 25.0013 36.3144 25.2772 35.8721 25.492C35.4951 25.6781 35.0813 25.7776 34.6609 25.7831C34.5446 25.7832 34.4284 25.7748 34.3133 25.7579L34.2346 26.3024L34.5728 25.8681C33.913 25.3585 33.1794 24.9526 32.3973 24.6643C31.6287 24.3734 30.8153 24.219 29.9937 24.208C29.3097 24.1983 28.6322 24.3407 28.01 24.625C27.3684 24.9275 26.8273 25.4081 26.4511 26.0097C26.1702 26.4686 25.9712 26.9728 25.8628 27.4998C25.7542 28.0219 25.7015 28.5542 25.7055 29.0875C25.7214 30.0386 25.8412 30.9852 26.0626 31.9104C26.2341 32.6672 26.404 33.1692 26.4087 33.1802L26.9294 33.0008L26.3804 32.9662L25.7008 43.6913L26.6525 45.1641L27.115 44.8651L27.5775 44.5662L26.8224 43.3986L27.4784 32.9269L27.4437 32.823C27.4437 32.8073 27.2864 32.3336 27.1291 31.6334C26.9338 30.7984 26.8283 29.9449 26.8145 29.0875C26.8105 28.633 26.8548 28.1794 26.9467 27.7343C27.0274 27.3322 27.1775 26.9472 27.3903 26.5966C27.6552 26.1713 28.0377 25.8319 28.4914 25.6194C28.9659 25.4042 29.4821 25.2967 30.0031 25.3047C30.6949 25.3153 31.3795 25.4469 32.026 25.6934C32.7022 25.9418 33.3361 26.2926 33.9058 26.7335L34.0207 26.8216L34.1638 26.8436C34.3315 26.8682 34.5008 26.8803 34.6703 26.8798C35.2614 26.8734 35.8435 26.7346 36.3739 26.4739C37.3052 26.0286 38.1279 25.289 38.8578 24.444C39.9511 23.1726 40.8383 21.6495 41.4612 20.4363C42.0841 19.2231 42.4396 18.3246 42.4444 18.3136L41.9315 18.1122L41.4203 18.3152C42.181 20.2062 43.285 21.94 44.6765 23.4291C46.3697 25.2275 48.3539 26.7277 50.5456 27.8664C51.5083 28.3861 52.5121 28.8255 53.5469 29.1803L53.7121 28.6548L53.1741 28.7712C53.2953 29.3698 53.3528 29.9795 53.3456 30.5902C53.3456 32.0583 53.075 33.904 52.4458 35.9291C51.7269 38.2066 50.7041 40.3766 49.4051 42.3805C48.615 43.6263 47.4485 44.5876 46.075 45.1248C44.8165 45.633 43.4385 45.7966 42.1785 45.7966C41.2594 45.7894 40.342 45.7158 39.4335 45.5764C39.0544 45.5213 38.7241 45.4662 38.452 45.419C38.3167 45.397 38.194 45.3797 38.0854 45.3655C37.9838 45.351 37.8813 45.3431 37.7787 45.3419C37.726 45.3414 37.6733 45.3456 37.6214 45.3545C37.5372 45.3684 37.4559 45.396 37.3807 45.4363C37.2644 45.5002 37.1626 45.5875 37.0818 45.6928C36.9636 45.8497 36.8712 46.0244 36.8081 46.2105C36.7041 46.5119 36.6252 46.8213 36.5722 47.1357C36.5092 47.4693 36.462 47.8233 36.4243 48.1632L36.7987 48.2057L36.4841 48.0027C36.4536 48.0502 36.4342 48.104 36.4274 48.1601L36.8018 48.2026L36.4872 47.9996L36.7027 48.1365L36.5313 47.9461C36.5135 47.9612 36.4986 47.9793 36.4872 47.9996L36.7027 48.1365L36.5313 47.9461L36.5895 48.0106L36.536 47.9414L36.5942 48.0059L36.5407 47.9366C36.4643 47.9775 36.3836 48.0097 36.3 48.0326C36.134 48.0807 35.9654 48.1196 35.7951 48.1491C35.328 48.2344 34.8541 48.2776 34.3793 48.2781C33.0277 48.2722 31.6991 47.9282 30.5144 47.2774C29.3297 46.6266 28.3266 45.6897 27.5963 44.552L27.115 44.8651Z" fill="#231F20"/>
<path d="M54.4236 30.5522C54.0462 30.1177 53.6193 29.7288 53.1514 29.3934C52.7087 29.0713 52.2281 28.8047 51.7202 28.5997C51.1289 28.3586 50.4968 28.2326 49.8581 28.2283C49.0282 28.2328 48.2136 28.4516 47.4934 28.8632C46.915 29.1762 46.4056 29.6023 45.9958 30.1162C45.586 30.63 45.2841 31.221 45.1081 31.8538C44.9331 32.4687 44.8463 33.1052 44.8505 33.7444C44.8487 34.4336 44.9358 35.1203 45.1097 35.7873L46.1783 35.4699L46.067 35.5032L46.1799 35.4714L46.0686 35.5048L46.1815 35.473C46.0365 34.9082 45.9633 34.3274 45.9636 33.7444C45.9543 33.0221 46.0939 32.3056 46.3739 31.6395C46.5302 31.2814 46.7416 30.9499 47.0004 30.6569C47.297 30.3252 47.6482 30.0466 48.0389 29.8331C48.593 29.513 49.221 29.3418 49.8612 29.3363C50.3589 29.3408 50.851 29.44 51.3115 29.6283C52.106 29.9686 52.8228 30.4665 53.4185 31.0919C53.471 31.1459 53.5108 31.1903 53.5362 31.2189L53.5632 31.2506L54.4251 30.5458L54.4236 30.5522Z" fill="#231F20"/>
<path d="M44.8504 28.8681C44.6272 28.3634 44.2999 27.9061 43.8877 27.523C43.4881 27.1429 43.0174 26.8364 42.4998 26.6192C41.8253 26.3431 41.0971 26.2046 40.3625 26.213C39.4885 26.225 38.622 26.3683 37.7953 26.6375L38.1435 27.6493C38.8574 27.4156 39.6058 27.2903 40.3609 27.2781C40.9387 27.2686 41.5119 27.376 42.0425 27.593C42.5913 27.8232 43.0679 28.1844 43.4256 28.6414C43.5362 28.781 43.6344 28.9291 43.7192 29.0841C43.7497 29.1389 43.769 29.1815 43.7818 29.2089L43.7946 29.2363L44.016 29.1556L43.793 29.2332L44.0144 29.1526L43.7914 29.2302L44.8456 28.8605L44.8504 28.8681Z" fill="#231F20"/>
<path d="M29.2318 28.0436C29.3843 28.4885 29.5808 28.9191 29.8189 29.3301C30.0301 29.7059 30.2844 30.0594 30.5773 30.3843C30.8965 30.7462 31.2936 31.0418 31.743 31.2519L32.252 30.2547C31.9516 30.1109 31.6869 29.9101 31.4749 29.6652C31.1345 29.2781 30.8536 28.8489 30.6401 28.3897C30.5468 28.1938 30.4704 28.0231 30.4297 27.9045C30.4059 27.8445 30.389 27.7971 30.3771 27.767C30.3652 27.737 30.3686 27.7402 30.3652 27.7323V27.7244L30.1039 27.7986L30.3652 27.7244L30.1039 27.7986L30.3652 27.7244L29.2284 28.0405L29.2318 28.0436Z" fill="#231F20"/>
<path d="M46.9228 36.8105L47.1743 36.964L46.9261 36.8028L47.1775 36.9564L46.9293 36.7952V36.8044C46.7635 37.0052 46.5628 37.1776 46.336 37.3141C45.8651 37.5984 45.317 37.7452 44.7594 37.7362C44.2324 37.728 43.7109 37.6324 43.2183 37.4538L42.8346 38.4654C43.4503 38.686 44.1016 38.8028 44.7594 38.8109C45.2251 38.8133 45.6879 38.7407 46.1281 38.5959C46.608 38.438 47.0498 38.19 47.4274 37.8667C47.5951 37.7256 47.7449 37.5664 47.874 37.3923L46.9325 36.7998L46.9228 36.8105Z" fill="#231F20"/>
<path d="M48.3779 32.7638C48.3779 33.0628 48.4666 33.3551 48.6327 33.6037C48.7988 33.8523 49.0349 34.0461 49.3112 34.1605C49.5874 34.2749 49.8914 34.3049 50.1847 34.2465C50.4779 34.1882 50.7473 34.0442 50.9588 33.8328C51.1702 33.6213 51.3142 33.352 51.3725 33.0587C51.4308 32.7654 51.4009 32.4615 51.2865 32.1852C51.172 31.909 50.9783 31.6729 50.7297 31.5067C50.481 31.3406 50.1887 31.252 49.8897 31.252C49.6911 31.2517 49.4944 31.2907 49.3109 31.3666C49.1274 31.4425 48.9606 31.5538 48.8202 31.6942C48.6798 31.8347 48.5684 32.0014 48.4925 32.1849C48.4166 32.3685 48.3777 32.5652 48.3779 32.7638Z" fill="#231F20"/>
<path d="M39.811 30.4962C39.811 30.7453 39.8849 30.9889 40.0234 31.1961C40.1618 31.4033 40.3586 31.5648 40.5888 31.6601C40.819 31.7555 41.0723 31.7804 41.3167 31.7318C41.561 31.6832 41.7855 31.5632 41.9617 31.387C42.1379 31.2108 42.2579 30.9863 42.3065 30.742C42.3551 30.4976 42.3302 30.2443 42.2348 30.0141C42.1395 29.7838 41.978 29.5871 41.7708 29.4486C41.5636 29.3102 41.32 29.2363 41.0709 29.2363C40.7367 29.2363 40.4163 29.3691 40.18 29.6053C39.9438 29.8416 39.811 30.162 39.811 30.4962Z" fill="#231F20"/>
<path d="M24.7466 94.4489L30.003 89.7386L51.5325 73.0226L56.0434 68.3361L57.8487 70.5025L75.3917 68.0396C75.3917 68.0396 78.1068 71.0037 75.3917 72.0044C75.3917 72.0044 75.8908 72.0425 75.9651 72.8577C76.0393 73.6729 75.7771 73.9679 75.7771 73.9679C75.7771 73.9679 76.3299 74.4674 76.243 75.1764C76.1562 75.8853 75.9651 76.009 75.9651 76.009C76.1938 76.2838 76.3308 76.6239 76.3568 76.9812C76.4073 77.5934 75.2859 81.2633 58.8406 83.0078L55.1731 83.4075L38.0882 105.409C28.3698 116.413 22.9697 117.084 20.8074 116.898C3.90729 115.45 6.14538 73.0226 6.14538 73.0226L27.6907 73.6063L29.8072 90.5316" fill="white"/>
<path d="M25.1068 94.8584L30.3433 90.1687L51.8715 73.4664L56.0049 69.1773L57.6209 71.1152L75.4389 68.62L75.3663 68.0975L74.978 68.4553L75.0948 68.3476L74.978 68.4537L75.0948 68.346L74.978 68.4521C75.1836 68.6878 75.3704 68.9392 75.5367 69.2042C75.6786 69.4263 75.7996 69.6611 75.8981 69.9056C75.9869 70.1209 76.0366 70.3504 76.0449 70.5833C76.0461 70.6765 76.0333 70.7693 76.007 70.8587C75.9645 70.9946 75.8872 71.1168 75.7829 71.2134C75.6084 71.3669 75.4051 71.4837 75.1848 71.557L72.8901 72.4009L75.3284 72.5814L75.3426 72.3787L75.2779 72.5735C75.2947 72.5747 75.3116 72.5747 75.3284 72.5735L75.3426 72.3708L75.2779 72.5655C75.2779 72.5655 75.2953 72.5655 75.3237 72.6115C75.3817 72.7134 75.4137 72.8282 75.4168 72.9455C75.4168 73.031 75.4278 73.1039 75.4278 73.1767C75.4337 73.3284 75.4112 73.4798 75.3615 73.6232C75.355 73.6412 75.347 73.6586 75.3379 73.6754L75.5525 73.8179L75.3631 73.6453C75.3542 73.6549 75.3457 73.665 75.3379 73.6754L75.5525 73.8179L75.3631 73.6453L75.0064 74.038L75.3994 74.3943L75.5462 74.2359L75.3963 74.3943L75.543 74.2359L75.3931 74.3943C75.4536 74.4587 75.5066 74.5299 75.5509 74.6064C75.5911 74.6734 75.6239 74.7445 75.6488 74.8186C75.6746 74.8956 75.688 74.9764 75.6882 75.0577C75.6898 75.0872 75.6898 75.1168 75.6882 75.1463C75.675 75.3232 75.634 75.4969 75.5667 75.6609L75.5557 75.6815L75.8113 75.8541L75.6535 75.6007C75.6185 75.6214 75.5879 75.6488 75.5636 75.6815L75.8192 75.8541L75.6614 75.6007L75.1232 75.9538L75.5557 76.413L75.7719 76.2056L75.5509 76.4066L75.7671 76.1992L75.5462 76.4003C75.5924 76.4583 75.6326 76.5209 75.6661 76.5871C75.7409 76.7352 75.786 76.8966 75.7987 77.0621H75.895H75.7987H75.895H75.7987C75.7941 77.1274 75.7792 77.1915 75.7545 77.2521C75.6724 77.4516 75.4641 77.7888 74.9654 78.2021C74.2126 78.8354 72.8001 79.6366 70.2561 80.4187C67.712 81.2009 64.0411 81.9545 58.7778 82.515L54.8906 82.9377L37.6709 105.08L38.0859 105.397L37.6914 105.047C33.2329 110.091 29.7041 112.925 27.0196 114.491C25.9488 115.136 24.8035 115.647 23.609 116.013C22.8821 116.234 22.1276 116.351 21.368 116.36C21.1818 116.36 21.0129 116.36 20.863 116.339C19.3553 116.215 17.9029 115.713 16.6397 114.878C15.5038 114.115 14.5044 113.165 13.6837 112.069C12.1418 110.06 10.914 107.449 9.95284 104.531C8.51036 100.155 7.6676 95.088 7.19098 90.3238C6.71436 85.5597 6.59758 81.0916 6.59758 77.9028C6.59758 76.4272 6.62125 75.2239 6.6465 74.3911C6.65913 73.9747 6.67175 73.6517 6.67964 73.4316C6.67964 73.3224 6.68911 73.2384 6.69069 73.183C6.69069 73.1545 6.69069 73.134 6.69069 73.1197V73.0991L6.16357 73.0722L6.14937 73.601L27.2247 74.171L29.2843 90.612L30.3306 90.4806L28.1637 73.1355L5.66959 72.5275L5.64276 73.0421C5.64276 73.05 5.54333 74.9262 5.54333 77.9013C5.54333 80.7005 5.63014 84.4735 5.97261 88.579C6.22506 91.7779 6.64651 94.9611 7.23517 98.1152C8.15684 102.898 9.55198 107.503 11.7015 111.038C12.7778 112.805 14.0467 114.308 15.5507 115.416C17.0705 116.554 18.8783 117.242 20.7683 117.4C20.9466 117.414 21.1455 117.425 21.3633 117.425C22.2222 117.416 23.0755 117.285 23.8979 117.036C25.4398 116.588 27.3936 115.679 29.8067 113.928C32.2197 112.177 35.0921 109.583 38.4757 105.755L38.4868 105.742L55.4367 83.9384L58.8803 83.5631C66.975 82.7002 71.4002 81.3814 73.8575 80.1432C75.0838 79.5241 75.8208 78.9225 76.2643 78.3889C76.4537 78.1668 76.609 77.9176 76.7251 77.6495C76.806 77.4623 76.8505 77.2613 76.8561 77.0574C76.8561 77.0304 76.8561 77.0051 76.8561 76.9766C76.829 76.6518 76.7344 76.3363 76.5783 76.0504C76.5085 75.9188 76.4227 75.7965 76.3227 75.6862L75.9392 76.0488L76.2296 76.4905C76.3565 76.3986 76.4563 76.2738 76.5184 76.1295C76.638 75.8613 76.7126 75.5751 76.7393 75.2825C76.749 75.2106 76.7532 75.1381 76.7519 75.0656C76.7528 74.8606 76.7181 74.657 76.6494 74.4639C76.5726 74.245 76.4607 74.0401 76.3179 73.8575C76.2531 73.772 76.1813 73.692 76.1033 73.6184L75.7545 74.0111L76.1443 74.3658C76.2325 74.2619 76.3009 74.1428 76.3463 74.0143C76.4428 73.7491 76.4893 73.4684 76.4837 73.1862C76.4837 73.0833 76.4837 72.974 76.4679 72.8569C76.4503 72.6283 76.392 72.4046 76.2958 72.1966C76.2342 72.0694 76.1527 71.9529 76.0544 71.8515C75.9423 71.7346 75.806 71.6438 75.6551 71.5855C75.5756 71.5546 75.4922 71.5349 75.4073 71.5269L75.3694 72.0541L75.5509 72.5513C75.7938 72.4642 76.0249 72.3472 76.239 72.203C76.5195 72.0155 76.7476 71.7594 76.9019 71.4588C77.0365 71.1874 77.1052 70.888 77.1023 70.5848C77.0944 70.215 77.0178 69.8499 76.8766 69.5082C76.6961 69.0658 76.4612 68.6478 76.1775 68.2637C76.047 68.0816 75.9069 67.9067 75.7577 67.7396L75.5699 67.5354L58.0518 69.9927L56.0601 67.6035L51.1677 72.67L29.6709 89.3549L24.406 94.0683L25.1083 94.86L25.1068 94.8584Z" fill="#231F20"/>
<path d="M71.0552 45.1103C71.0552 45.8579 70.8187 46.5886 70.3758 47.2101C69.9328 47.8317 69.3031 48.3161 68.5665 48.6022C67.8298 48.8882 67.0192 48.9631 66.2372 48.8172C65.4551 48.6714 64.7368 48.3114 64.173 47.7829C63.6092 47.2543 63.2252 46.5808 63.0697 45.8477C62.9141 45.1145 62.9939 44.3546 63.2991 43.664C63.6042 42.9734 64.1209 42.3831 64.7839 41.9678C65.4469 41.5525 66.2263 41.3308 67.0237 41.3308C67.5532 41.3306 68.0775 41.4282 68.5667 41.6181C69.0559 41.808 69.5005 42.0864 69.8749 42.4374C70.2493 42.7884 70.5462 43.2051 70.7487 43.6637C70.9513 44.1224 71.0554 44.614 71.0552 45.1103Z" fill="white"/>
<path d="M103.307 49.1402C103.307 49.6884 103.145 50.2245 102.841 50.6805C102.536 51.1365 102.104 51.492 101.597 51.702C101.091 51.912 100.533 51.9671 99.9957 51.8604C99.4579 51.7536 98.9639 51.4897 98.5762 51.1022C98.1884 50.7146 97.9242 50.2208 97.8172 49.6831C97.7101 49.1454 97.7649 48.588 97.9746 48.0815C98.1844 47.5749 98.5396 47.142 98.9954 46.8373C99.4513 46.5327 99.9872 46.3701 100.535 46.3701C101.27 46.3701 101.975 46.6619 102.495 47.1814C103.014 47.7008 103.307 48.4054 103.307 49.1402Z" fill="white"/>
<path d="M104.819 73.5827C107.602 73.5827 109.858 71.2137 109.858 68.2913C109.858 65.369 107.602 63 104.819 63C102.036 63 99.7795 65.369 99.7795 68.2913C99.7795 71.2137 102.036 73.5827 104.819 73.5827Z" fill="white"/>
<path d="M53.9213 67.1826C53.9213 67.1826 54.6132 71.0346 57.9982 71.0624C61.3833 71.0903 89.7142 69.9299 89.7142 69.9299C89.7142 69.9299 95.521 67.9722 95.2338 66.8659C94.9465 65.7595 89.9269 64.2098 88.1812 64.0754C86.4355 63.9409 56.9048 63.9996 56.0177 64.3195C55.1305 64.6393 53.9213 67.1826 53.9213 67.1826Z" fill="#231F20"/>
<path d="M67.0237 45.4725L100.003 49.3887L104.244 68.5432L105.323 68.2954L100.91 48.3622L67.1516 44.3542L67.0237 45.4725Z" fill="white"/>
</g>
<defs>
<clipPath id="clip0_2179_2223">
<rect width="130" height="130" fill="white"/>
</clipPath>
</defs>
</svg>
