<svg width="139" height="131" viewBox="0 0 139 131" fill="none" xmlns="http://www.w3.org/2000/svg">
<path d="M97.6832 52.6654C93.7686 54.248 90.1478 55.879 87.9581 56.8341C87.2011 57.1652 86.6187 57.413 86.2298 57.5604C85.6295 57.8152 85.0443 58.1046 84.4773 58.427C83.6216 58.8928 82.7386 59.3061 81.833 59.6646L81.6498 59.7357C81.0381 62.3149 79.8329 64.7146 78.1306 66.743C76.4284 68.7713 74.2765 70.3719 71.8469 71.4166C71.386 71.6135 70.8878 71.7076 70.387 71.6923C69.8862 71.6769 69.3947 71.5526 68.9466 71.3279C68.4984 71.1032 68.1044 70.7834 67.7917 70.3908C67.479 69.9982 67.2551 69.5421 67.1356 69.0541L65.0945 60.6353C63.603 60.4169 62.0008 60.1326 60.2794 59.7686L60.1827 59.7478L60.0997 59.6993C53.3766 55.7872 47.3881 53.1213 42.262 51.3065C42.2827 51.102 42.3034 50.894 42.3242 50.686L42.3864 50.0654C43.4649 39.4054 44.8907 25.5405 45.2173 23.561C45.7548 20.2885 50.6217 6.51023 61.2905 6.67316C71.9593 6.8361 79.1559 4.86183 89.3908 14.8354C99.6258 24.809 94.7278 33.3526 94.7278 33.3526C95.0476 33.8016 95.331 34.2193 95.5816 34.6076C96.8191 36.5489 97.2062 37.8298 97.0818 39.0154C97.0602 39.2213 97.0232 39.4252 96.9712 39.6256C96.9642 39.6602 96.9556 39.6949 96.9452 39.7296C96.7309 40.5148 96.3161 41.3069 95.8028 42.2758C95.4451 42.9484 95.0406 43.7076 94.6241 44.6089C93.4783 47.0858 94.8765 49.334 96.8484 51.693C96.985 51.8542 97.1215 52.0154 97.2632 52.1784L97.6832 52.6654Z" fill="black"/>
<path d="M111.335 85.5503C111.305 85.6554 111.274 85.7594 111.242 85.8623C110.213 89.1712 108.024 91.2217 106.14 92.4333C105.936 92.5651 105.735 92.6864 105.54 92.7991C105.345 92.9117 105.13 93.0279 104.937 93.1267C104.271 93.4774 103.572 93.7619 102.851 93.976L100.355 93.7732L99.2439 93.6848L96.9453 93.4976L96.5132 93.4629L96.012 93.4231L95.6249 93.3919L95.0493 93.3451L94.5896 93.3069L92.3428 93.1336L91.2903 93.0487L90.8755 93.014L90.6854 92.9984L90.0788 92.9499L83.4231 92.4108L68.1329 91.1749L52.8738 89.9408L50.2122 89.7241L49.4984 89.6669L48.7379 89.6063L48.4044 89.5785L48.1832 88.7725V88.7639L47.1548 84.9505L45.4438 78.6221L45.1258 77.44L44.4829 75.0619L44.3204 74.4604L44.158 73.8607C44.5295 73.6683 44.9288 73.4741 45.3557 73.2817C47.0806 72.4739 48.9584 72.0472 50.862 72.0303C52.5548 72.0487 54.2302 72.3752 55.8067 72.994C57.4592 73.6498 59.0455 74.4623 60.5439 75.4207C61.3165 75.8698 61.9777 76.4884 62.4779 77.2303C62.7607 77.6597 62.9509 78.1436 63.0363 78.6511C63.1217 79.1585 63.1005 79.6782 62.9739 80.1769C63.0927 80.4693 63.1487 80.7835 63.1381 81.0991H68.1346V81.0384H72.9479C72.9479 81.0384 73.0378 79.0433 74.8991 78.5008C74.9979 78.2472 75.1212 78.004 75.2673 77.7745C75.7675 77.0327 76.4287 76.4141 77.2012 75.9649C78.7001 75.0073 80.2863 74.1947 81.9385 73.5383C83.5149 72.9195 85.1904 72.593 86.8831 72.5745C88.787 72.5912 90.665 73.0186 92.3895 73.8277C95.179 75.0861 96.7344 76.3827 97.5986 77.4019C97.9062 77.7579 98.1702 78.1495 98.385 78.5684C98.4748 78.5285 98.5733 78.4835 98.6822 78.4315L98.7047 78.4211L99.2024 77.7087L98.9259 78.3153C99.8007 77.8849 100.644 77.3938 101.451 76.8455C103.478 75.4744 105.898 73.3251 107.5 70.2328C107.833 69.5897 108.122 68.9243 108.364 68.2412C108.331 68.8271 108.256 69.4099 108.139 69.9849C108.103 70.1687 108.072 70.342 108.043 70.5049C107.941 71.0198 107.874 71.541 107.842 72.0649C106.88 73.5736 105.71 74.938 104.367 76.1175C103.708 76.7004 103.016 77.2433 102.293 77.7433C102.614 77.9548 103.293 78.4141 104.166 79.0659L104.189 79.0815C105.029 79.7072 106.045 80.5097 107.094 81.4388C107.249 81.574 107.405 81.7144 107.562 81.8583C107.719 82.0021 107.866 82.1373 108.018 82.2812C108.319 82.5655 108.62 82.8584 108.917 83.16C109.698 83.888 110.486 84.6576 111.24 85.4463C111.275 85.4861 111.302 85.5173 111.335 85.5503Z" fill="black"/>
<path d="M110.495 62.6963C110.521 65.5113 109.862 68.2902 108.577 70.7927C108.347 71.2347 108.101 71.6593 107.844 72.0649C106.882 73.5736 105.712 74.938 104.368 76.1175C103.71 76.7004 103.017 77.2433 102.294 77.7433C102.616 77.9548 103.295 78.4141 104.168 79.0659L104.19 79.0815C105.03 79.7072 106.046 80.5097 107.096 81.4388C107.251 81.574 107.407 81.7144 107.564 81.8583L107.519 81.8877L105.462 83.2276L105.545 92.7991L105.588 97.9506V98.6092V99.2627L105.813 125.313H35.6997L36.467 100.32L36.486 99.6908L36.505 99.0581L36.9855 83.2848L37.0183 82.2621L37.1393 78.2529L37.1514 77.8629V77.7641L33.9558 76.0707C33.3457 75.5681 32.7646 75.0311 32.2154 74.4621C31.0027 73.2128 29.9764 71.7941 29.1684 70.2502C27.8822 67.7479 27.2238 64.9688 27.25 62.1537C27.25 62.0567 27.25 61.9596 27.25 61.8625L27.8549 61.8729L28.4598 61.8816C28.4598 61.9717 28.4598 62.0549 28.4598 62.1537C28.4598 62.3548 28.4598 62.5541 28.4702 62.75C28.5287 65.1492 29.1259 67.5043 30.2175 69.64C31.2005 71.5201 32.5198 73.2028 34.1096 74.6043C35.5305 75.8661 37.1139 76.9306 38.8175 77.7694L38.541 77.1661L39.0353 77.8716L39.2427 77.9687L39.3567 78.019C39.5715 77.6006 39.8355 77.2095 40.1431 76.8541C40.8742 75.9875 42.103 74.9267 44.1545 73.8572C44.5261 73.6648 44.9253 73.4707 45.3522 73.2783C47.0771 72.4705 48.9549 72.0437 50.8585 72.0268C52.5513 72.0452 54.2267 72.3718 55.8032 72.9906C57.4557 73.6463 59.042 74.4589 60.5404 75.4172C61.313 75.8663 61.9742 76.485 62.4744 77.2268C62.7572 77.6562 62.9474 78.1402 63.0328 78.6476C63.1182 79.155 63.097 79.6748 62.9704 80.1735C63.0893 80.4658 63.1452 80.7801 63.1346 81.0956H68.1311V81.0349H72.9444C72.9444 81.0349 73.0343 79.0399 74.8957 78.4973C74.9944 78.2438 75.1177 78.0005 75.2638 77.7711C75.764 77.0293 76.4252 76.4106 77.1977 75.9615C78.6966 75.0038 80.2828 74.1913 81.935 73.5348C83.5115 72.916 85.1869 72.5895 86.8797 72.5711C88.7835 72.5878 90.6615 73.0152 92.386 73.8243C95.1755 75.0827 96.7309 76.3792 97.5951 77.3984C97.9027 77.7544 98.1667 78.146 98.3815 78.5649C98.4713 78.5251 98.5698 78.48 98.6787 78.428L98.7012 78.4176L99.1989 77.7052L98.9224 78.3119C99.7983 77.8827 100.643 77.3927 101.451 76.8455C103.478 75.4744 105.898 73.3251 107.5 70.2328C107.833 69.5897 108.122 68.9243 108.364 68.2412C108.92 66.6492 109.227 64.9804 109.273 63.2943C109.273 63.0984 109.284 62.8991 109.284 62.698C109.284 62.6079 109.284 62.516 109.284 62.4241H109.888L110.493 62.4155C110.493 62.5021 110.495 62.5992 110.495 62.6963Z" fill="#2F3841"/>
<path d="M112.723 47.6994V47.9993L112.118 49.3287V48.3199C112.006 48.3199 111.89 48.3355 111.772 48.3477C111.3 48.391 110.785 48.4638 110.239 48.5643C109.301 48.7377 108.267 48.9855 107.173 49.2941C104.985 49.9111 102.557 50.7605 100.149 51.6861C99.3216 52.0033 98.4955 52.3309 97.6832 52.6585C93.7686 54.241 90.1479 55.8721 87.9581 56.8271C87.2011 57.1582 86.6187 57.4061 86.2298 57.5534C85.6295 57.8082 85.0444 58.0976 84.4773 58.4201C83.6216 58.8858 82.7386 59.2991 81.833 59.6577L81.6498 59.7287C81.0381 62.3079 79.8329 64.7077 78.1306 66.736C76.4284 68.7643 74.2765 70.3649 71.8469 71.4097C71.386 71.6066 70.8878 71.7006 70.387 71.6853C69.8862 71.67 69.3947 71.5456 68.9466 71.3209C68.4985 71.0962 68.1044 70.7765 67.7917 70.3838C67.479 69.9912 67.2551 69.5351 67.1356 69.0471L65.0945 60.6283C63.603 60.4099 62.0008 60.1257 60.2795 59.7617L60.1827 59.7409L60.0997 59.6923C53.3766 55.7802 47.3881 53.1143 42.262 51.2995C34.7353 48.6371 29.0664 47.8121 25.6582 47.585C25.4543 47.5711 25.2573 47.559 25.0689 47.5503L24.865 47.5399L24.8477 47.767H24.8304H24.7699L24.5297 47.7549C24.3171 47.7549 24.0025 47.7375 23.6085 47.7375C23.3285 47.7375 23.007 47.7375 22.6493 47.7549C22.4557 47.7549 22.2518 47.7635 22.0375 47.7809L21.9995 47.5642V47.5417L21.9338 47.1777L21.8958 46.9662H21.9079C21.958 46.9662 22.1585 46.9419 22.5041 46.9263C23.007 46.9055 23.8159 46.8917 24.9151 46.9419C28.2403 47.0945 34.2133 47.8311 42.3294 50.6859C47.5229 52.5146 53.5927 55.2082 60.4073 59.1793C62.025 59.5259 63.5356 59.7911 64.9459 60.0026C65.1602 60.0338 65.371 60.065 65.5801 60.0927C65.7893 60.1205 66.0036 60.1517 66.2127 60.1794C73.1501 61.0773 77.5261 60.4481 80.4901 59.4999C80.7183 59.4271 80.9378 59.3526 81.1503 59.2763C81.3629 59.2001 81.598 59.1117 81.8088 59.025C83.767 58.2398 84.9958 57.3783 86.0224 56.9935C87.4223 56.4735 92.0611 54.2947 97.2667 52.1818C102.574 50.0307 108.47 47.9403 112.13 47.7219C112.327 47.7063 112.529 47.6994 112.723 47.6994Z" fill="#2F3841"/>
<path d="M107.98 82.3055L106.064 83.5535L106.14 92.4334L106.187 97.6923V98.351V99.0079L106.42 125.92H35.0844L35.8725 100.121L35.8916 99.4898L35.9106 98.8537L36.3824 83.4443L36.4152 82.3801L36.5449 78.1213L35.4837 77.5597L35.3662 77.4973L35.6219 77.3049C35.0896 76.9443 34.5314 76.5335 33.9645 76.0673C33.3544 75.5647 32.7733 75.0277 32.2241 74.4587L34.2981 75.5629L37.7702 77.4019L37.7547 77.8994V77.9895L37.7357 78.5754L37.625 82.2154L37.5939 83.2225L37.3468 91.2981L37.2949 93.0175L37.1031 99.2489L37.0841 99.8798L37.0651 100.507L36.3254 124.708H105.21L104.992 99.5123V98.8606V98.2071L104.947 93.1285L104.859 82.9018L107.051 81.4735L107.099 81.4406C107.255 81.5758 107.41 81.7162 107.567 81.8601C107.725 82.0039 107.872 82.1391 108.024 82.283L107.98 82.3055Z" fill="#231F20"/>
<path d="M113.328 47.0929V48.3062C113.072 48.3149 112.923 48.3253 112.899 48.327L112.863 47.8434H112.797L112.726 47.9994L112.122 49.3289V48.3201C112.009 48.3201 111.893 48.3357 111.776 48.3478C111.304 48.3912 110.789 48.464 110.243 48.5645C109.304 48.7378 108.271 48.9857 107.177 49.2942C104.989 49.9113 102.561 50.7606 100.153 51.6862C99.3252 52.0034 98.4991 52.331 97.6868 52.6586C93.7722 54.2412 90.1515 55.8722 87.9617 56.8273C87.2047 57.1584 86.6223 57.4062 86.2334 57.5536C85.6331 57.8084 85.048 58.0978 84.4809 58.4202C83.6252 58.886 82.7422 59.2992 81.8366 59.6578L81.6534 59.7289C81.4374 59.8104 81.2144 59.8901 80.9811 59.9681C80.7478 60.0461 80.5369 60.1137 80.3036 60.1848C78.3368 60.7724 75.8101 61.2109 72.4433 61.2092C70.4114 61.2026 68.3819 61.0688 66.3667 60.8088L65.7341 60.7256L65.0998 60.6372C63.6083 60.4188 62.0062 60.1345 60.2848 59.7705L60.188 59.7497L60.105 59.7012C53.382 55.789 47.3934 53.1232 42.2673 51.3084C34.7406 48.646 29.0718 47.8209 25.6636 47.5938C25.4596 47.58 25.2626 47.5678 25.0742 47.5592L24.8703 47.5488C24.3328 47.5245 23.8679 47.5158 23.4756 47.5158C23.1299 47.5158 22.8413 47.5158 22.6114 47.5314L22.6529 47.7585C22.4593 47.7585 22.2554 47.7672 22.0411 47.7845C21.8458 47.7932 21.6436 47.807 21.4344 47.8226L21.3964 47.6129L21.3256 47.2229L21.2996 47.0773L21.2167 46.6214L21.1838 46.4377L21.8285 46.3666C21.8492 46.3666 22.4109 46.3025 23.4738 46.3025C26.3566 46.3025 32.9293 46.7566 42.39 50.0673C47.6285 51.9012 53.7536 54.6104 60.6287 58.604C62.1064 58.9125 63.4908 59.1638 64.7905 59.3632L65.4247 59.4568L66.059 59.5452C68.1749 59.8376 70.3075 59.9904 72.4433 60.0028C75.5715 60.0028 77.9186 59.6128 79.7402 59.091C80.0548 59.0009 80.3537 58.9073 80.6372 58.8102C80.8619 58.734 81.0762 58.656 81.2836 58.5762C81.491 58.4965 81.7226 58.4029 81.9282 58.3162C82.6939 57.9921 83.3402 57.6593 83.9158 57.3542C84.5303 57.0055 85.1651 56.6941 85.8169 56.4217C86.0381 56.3385 86.3665 56.2033 86.7761 56.0282C87.1857 55.8532 87.68 55.6365 88.24 55.3904C89.3633 54.8964 90.7598 54.2776 92.3222 53.6016C93.7256 52.9966 95.2603 52.3432 96.859 51.6949C98.8154 50.8993 100.858 50.1089 102.848 49.4121C105.257 48.5697 107.586 47.8642 109.605 47.4586C110.634 47.2363 111.681 47.1138 112.733 47.0929H113.328Z" fill="#231F20"/>
<path d="M71.4719 12.3291C71.4719 12.3291 61.5878 7.38565 55.1862 17.3384C54.5743 18.2918 54.0438 19.1688 53.584 19.9766C49.2512 27.6032 51.2871 29.2204 50.3798 33.3232C49.3791 37.8698 48.2851 50.8299 64.379 55.1355L67.7163 68.9068C67.8146 69.3111 67.9995 69.6889 68.2582 70.0142C68.5169 70.3394 68.8431 70.6042 69.2142 70.7902C69.5854 70.9761 69.9924 71.0787 70.4071 71.0908C70.8217 71.1029 71.2341 71.0243 71.6153 70.8603C75.1577 69.337 78.0493 66.607 79.7792 63.1527C81.509 59.6984 81.9659 55.742 81.0691 51.9826L80.9464 51.473C80.9464 51.473 85.3795 48.788 87.6038 44.5119C87.6038 44.5119 95.0355 45.6108 96.3922 39.4852C97.7489 33.3596 90.516 33.7808 90.516 33.7808C90.516 33.7808 86.1952 37.5942 83.5458 35.535C80.8963 33.4758 72.7612 19.7668 71.4719 12.3291Z" fill="white"/>
<path d="M96.9245 36.5472C96.6862 35.8077 96.2418 35.1521 95.6438 34.6579L95.5816 34.6076C95.1917 34.2942 94.7593 34.038 94.2975 33.8467C93.644 33.5765 92.9586 33.3918 92.2581 33.2972C91.7743 33.2281 91.2864 33.1928 90.7977 33.1915C90.6059 33.1915 90.4901 33.1915 90.4797 33.1915L90.2758 33.2036L90.1219 33.3405C89.6261 33.7592 89.0979 34.1376 88.5423 34.4724C88.0557 34.7713 87.5425 35.0243 87.0093 35.2281C86.4973 35.4306 85.9539 35.5415 85.4037 35.5557C85.1367 35.558 84.871 35.5194 84.6156 35.4413C84.3592 35.3612 84.1192 35.2355 83.907 35.0704C83.7327 34.9292 83.5681 34.7763 83.4144 34.6128C82.957 34.1179 82.5282 33.597 82.1303 33.0528C81.28 31.9123 80.2845 30.4077 79.2579 28.7021C77.6057 25.9594 76.1123 23.1236 74.785 20.2088C74.1248 18.7441 73.5372 17.3003 73.0671 15.9448C72.6335 14.7335 72.296 13.4897 72.0578 12.2251L72.0059 11.9287L71.7381 11.7935C71.1796 11.5318 70.6018 11.3139 70.0098 11.1417C68.6329 10.7251 67.2032 10.5103 65.7651 10.5039C63.8269 10.4895 61.9132 10.9388 60.1827 11.8143C58.2522 12.7971 56.3441 14.4385 54.6884 17.0143C54.0714 17.9745 53.5339 18.8603 53.069 19.6801C51.6777 22.1276 50.9207 23.9892 50.5146 25.5336C50.1856 26.7948 50.0315 28.0955 50.0566 29.3989C50.0566 29.7456 50.0566 30.0923 50.0566 30.4216C50.0756 31.3529 49.9886 32.2834 49.7974 33.1949C49.4545 34.7594 49.2807 36.3563 49.2789 37.9581C49.275 39.5813 49.4718 41.1987 49.8648 42.7733C50.5565 45.5913 51.9993 48.1677 54.0386 50.2267C56.256 52.4696 59.4309 54.3867 63.8899 55.6295L64.7955 59.3665L64.9493 60.0027L65.1031 60.6388L67.1443 69.0576C67.3281 69.8234 67.7686 70.5026 68.3921 70.9816C68.8773 71.3564 69.4534 71.5947 70.061 71.6718C70.6686 71.7489 71.2857 71.662 71.8487 71.4201C74.2782 70.3754 76.4302 68.7748 78.1324 66.7465C79.8346 64.7181 81.0398 62.3184 81.6516 59.7392C81.7086 59.5017 81.7604 59.2643 81.8054 59.0251C81.8503 58.7859 81.8918 58.5553 81.9264 58.3196C82.0511 57.49 82.1135 56.6522 82.113 55.8132C82.1125 54.4798 81.9559 53.1511 81.6464 51.8543L81.6222 51.7555C82.3901 51.2345 83.1249 50.666 83.8223 50.0533C85.1669 48.8833 86.7725 47.2228 87.927 45.1532C88.169 45.174 88.5043 45.1913 88.9035 45.1913C89.5933 45.1923 90.2819 45.1343 90.9619 45.018C92.2445 44.8204 93.4625 44.3222 94.517 43.5637C95.0042 43.1993 95.4352 42.7647 95.7959 42.2741C95.8703 42.1736 95.9428 42.0696 96.012 41.9621C96.448 41.2771 96.7615 40.521 96.9383 39.7279C96.9487 39.6932 96.9573 39.6585 96.9643 39.6239C97.0109 39.4141 97.0472 39.2113 97.0749 39.0137C97.1214 38.7004 97.1451 38.3841 97.1457 38.0673C97.1525 37.5521 97.0779 37.039 96.9245 36.5472ZM93.3383 42.9311C92.6218 43.3502 91.8391 43.6433 91.0241 43.7977C90.3279 43.9347 89.6199 44.0026 88.9104 44.0005C88.5354 44.0005 88.2191 43.9832 88.01 43.9641C87.9028 43.9555 87.8198 43.9468 87.7645 43.9399H87.7041H87.6885L87.2703 43.8792L87.075 44.2553C86.0155 46.2955 84.4013 47.9907 83.0498 49.1641C82.4997 49.6442 81.9257 50.096 81.3301 50.5179C81.1123 50.6739 80.9361 50.79 80.8116 50.8645L80.6751 50.9529L80.6422 50.9737L80.2689 51.1991L80.4936 52.1333C81.0181 54.324 81.0676 56.6021 80.6388 58.8136C80.5938 59.0441 80.5454 59.2729 80.4901 59.5069C80.4348 59.7409 80.3726 59.9715 80.3052 60.2003C79.6569 62.4447 78.5198 64.5168 76.9761 66.267C75.4324 68.0172 73.5206 69.4019 71.3786 70.3212C71.0091 70.4818 70.6033 70.5398 70.2038 70.4891C69.8043 70.4385 69.4257 70.2811 69.1076 70.0335C68.6996 69.7204 68.4116 69.2761 68.2918 68.7751L66.3613 60.8017L66.2075 60.1708L66.0554 59.5399L64.8698 54.6519L64.5242 54.5617C61.5463 53.7644 59.1872 52.6724 57.3224 51.4036C54.5242 49.4969 52.8288 47.1968 51.8091 44.8377C50.9006 42.6598 50.4449 40.3188 50.4697 37.9581C50.4701 36.4428 50.6329 34.9319 50.9553 33.4515C51.165 32.4533 51.2613 31.4346 51.2422 30.4147C51.2422 30.068 51.2422 29.73 51.2422 29.392C51.2168 28.1916 51.3576 26.9934 51.6605 25.8317C52.0148 24.4849 52.6732 22.8261 53.8986 20.6179L54.0991 20.2625C54.2362 20.0222 54.3791 19.7755 54.5277 19.5224C54.8734 18.9348 55.2605 18.3091 55.6857 17.6539C57.2411 15.2272 58.9832 13.7573 60.7185 12.8699C62.282 12.0797 64.0109 11.675 65.7616 11.6895C67.0844 11.6963 68.3993 11.8942 69.6658 12.2771C70.1549 12.4244 70.5455 12.5717 70.8117 12.6809L70.9413 12.7347C71.3008 14.598 72.0353 16.7647 72.9772 19.0267C73.1501 19.4253 73.3229 19.8257 73.4957 20.2296C73.6686 20.6335 73.8552 21.0339 74.0436 21.4429C75.3445 24.2277 76.795 26.9397 78.3885 29.5671C79.3391 31.1271 80.2603 32.5241 81.076 33.6317C81.4839 34.1847 81.8659 34.6717 82.2167 35.0687C82.5081 35.4146 82.8309 35.7326 83.1811 36.0185C83.5052 36.2702 83.8716 36.4615 84.263 36.5836C84.6323 36.699 85.0169 36.7575 85.4037 36.7569C86.1004 36.7426 86.7891 36.6047 87.4379 36.3496C88.2992 36.0108 89.1163 35.5685 89.8713 35.0323C90.2602 34.7636 90.5627 34.5279 90.7355 34.384H90.7942C91.235 34.3852 91.6752 34.4182 92.1112 34.4828C92.563 34.5459 93.0079 34.6509 93.4403 34.7965C94.1118 35.0024 94.7189 35.3785 95.2031 35.8885C95.4402 36.1537 95.6255 36.4612 95.7493 36.7951C95.895 37.2037 95.9664 37.6352 95.9601 38.0691C95.956 38.5073 95.9044 38.9438 95.8063 39.3708C95.6261 40.2669 95.2304 41.1053 94.6535 41.8131C94.2804 42.2567 93.8358 42.6346 93.3383 42.9311Z" fill="#231F20"/>
<path d="M57.3914 38.6619C57.6959 38.5977 57.9917 38.4976 58.2728 38.3638C59.4258 37.812 60.4025 36.9489 61.0934 35.8713C62.0561 34.4378 62.8597 32.3058 63.0568 29.1702C63.0706 28.9397 63.0775 28.7161 63.0775 28.4959C63.0842 27.5733 62.9454 26.6554 62.6662 25.7763C62.2378 24.4669 61.4744 23.2931 60.4522 22.3721C59.0402 21.0755 57.3413 20.3406 56.007 19.9177C55.2382 19.669 54.4487 19.4904 53.6479 19.3838L53.52 20.5694V20.5035V20.5694V20.5035V20.5694C53.9808 20.6307 54.4373 20.7204 54.8871 20.8381C55.6172 21.0222 56.3306 21.2674 57.0198 21.5713C58.1899 22.0913 59.4152 22.8609 60.333 23.9685C60.8153 24.5452 61.1942 25.2014 61.4529 25.9081C61.751 26.7377 61.8985 27.6141 61.8884 28.4959C61.8884 28.6901 61.8884 28.8894 61.8694 29.0939C61.745 31.0734 61.3682 32.5831 60.8895 33.7323C60.167 35.4657 59.2165 36.3826 58.4595 36.8957C58.1665 37.0958 57.8509 37.2604 57.5193 37.3862C57.4334 37.419 57.3457 37.4468 57.2566 37.4694L57.1961 37.485H57.1857V37.5127V37.485V37.5127V37.485L57.2566 37.8733L57.1909 37.4833L57.2618 37.8715L57.1961 37.4815L57.3966 38.6585L57.3914 38.6619Z" fill="#231F20"/>
<path d="M68.9192 23.6807C69.4112 23.2481 69.9391 22.8584 70.4971 22.5159C70.9832 22.2135 71.4971 21.9587 72.0318 21.7549C72.5592 21.5494 73.1184 21.4379 73.6841 21.4256C73.9 21.4249 74.1154 21.4464 74.327 21.4897L74.5707 20.3232C74.279 20.2624 73.9819 20.2322 73.6841 20.233C72.9669 20.2457 72.2576 20.3859 71.5894 20.6473C70.3162 21.1618 69.1406 21.8917 68.1138 22.8053L68.9192 23.6807Z" fill="#231F20"/>
<path d="M59.742 42.158C60.028 42.2558 60.3194 42.3368 60.6148 42.4007C61.2926 42.5547 61.9851 42.6344 62.6801 42.6381C63.4989 42.6469 64.3127 42.5078 65.0824 42.2273C65.9737 41.8926 66.7567 41.3195 67.3465 40.5703L66.4149 39.8267C65.9584 40.407 65.3515 40.8501 64.6607 41.1076C64.0258 41.3372 63.3549 41.4505 62.6801 41.4421C62.0729 41.4382 61.4679 41.3685 60.8757 41.2341C60.6441 41.1821 60.4575 41.1301 60.3313 41.092L60.1879 41.0469L60.155 41.0348H60.1447V41.0487V41.0348V41.0487V41.0348L59.7402 42.1563L59.742 42.158Z" fill="#231F20"/>
<path d="M57.5505 30.4877C58.5798 30.3168 59.2761 29.3415 59.1057 28.3092C58.9353 27.2769 57.9628 26.5786 56.9335 26.7495C55.9042 26.9204 55.208 27.8958 55.3784 28.9281C55.5487 29.9603 56.5213 30.6586 57.5505 30.4877Z" fill="#231F20"/>
<path d="M73.4854 27.8008C73.4057 28.1672 73.2193 28.5016 72.95 28.7617C72.6807 29.0218 72.3404 29.1959 71.9723 29.2619C71.6043 29.3279 71.2249 29.2829 70.8824 29.1326C70.5399 28.9822 70.2495 28.7333 70.0481 28.4174C69.8467 28.1014 69.7434 27.7326 69.7511 27.3577C69.7589 26.9828 69.8774 26.6186 70.0917 26.3113C70.306 26.004 70.6064 25.7673 70.9548 25.6314C71.3033 25.4954 71.6841 25.4662 72.0492 25.5475C72.5373 25.6557 72.9627 25.9537 73.232 26.3762C73.5012 26.7987 73.5924 27.311 73.4854 27.8008Z" fill="#231F20"/>
<path d="M133.523 65.3275C132.069 84.3265 115.685 94.2274 106.192 98.351L105.599 98.6092C105.393 98.6959 105.193 98.7826 104.996 98.8588C103.359 99.542 101.686 100.132 99.9836 100.627C95.986 101.719 97.621 100.809 92.1147 102.36C82.8043 104.979 78.634 101.743 79.8524 98.0545C80.0466 97.444 80.412 96.9024 80.9049 96.4945C81.6066 95.9156 82.5157 95.6487 83.4352 95.5481C85.1635 95.3592 86.9229 95.7492 87.4293 95.7492C88.3815 95.7492 90.6992 94.9294 90.6992 93.1492C90.6992 93.0972 90.6992 93.0452 90.6992 92.9967C90.6992 92.9013 90.6992 92.8112 90.6871 92.728C90.6301 91.9272 90.3933 91.6291 89.9958 91.4003C89.7331 91.246 89.4012 91.1247 89.0037 90.9028C87.9166 90.2962 85.2654 86.4343 88.3124 82.0784L88.3418 82.0351L88.2779 82.0524C87.8803 82.1564 85.6958 82.7215 83.4386 83.1773C81.9367 83.4789 80.4055 83.732 79.3477 83.7667C77.101 83.8395 74.2666 80.9934 75.6319 78.3726C75.9776 77.7122 76.5807 77.0639 77.533 76.4798C82.2565 73.5643 86.7068 71.9246 92.1561 74.3842C96.2384 76.2267 97.5139 78.1056 97.9027 78.9324C97.969 79.0687 98.0205 79.2116 98.0565 79.3588L98.5992 79.0364L98.741 78.7227L98.9259 78.3136C99.8006 77.8837 100.644 77.3932 101.451 76.8455C103.478 75.4744 105.898 73.3251 107.5 70.2328C107.833 69.5897 108.122 68.9243 108.364 68.2412C108.92 66.6492 109.227 64.9804 109.273 63.2943C109.273 63.0984 109.284 62.8991 109.284 62.698C109.284 62.6079 109.284 62.516 109.284 62.4242H109.888L110.493 62.4155C110.493 62.5108 110.493 62.6079 110.493 62.705C110.519 65.5199 109.86 68.2988 108.575 70.8014C108.345 71.2434 108.1 71.668 107.842 72.0736C106.88 73.5823 105.71 74.9467 104.367 76.1261C103.708 76.7091 103.016 77.252 102.293 77.752C102.614 77.9635 103.293 78.4228 104.166 79.0746L104.189 79.0902C105.028 79.7159 106.045 80.5184 107.094 81.4475C107.249 81.5827 107.405 81.7231 107.562 81.8669C107.719 82.0108 107.866 82.146 108.018 82.2899C108.319 82.5742 108.62 82.8671 108.917 83.1687C109.698 83.8967 110.486 84.6663 111.24 85.4549C111.271 85.4879 111.302 85.5191 111.332 85.552C114.242 88.672 113.772 92.2461 113.383 93.7645C115.836 92.3981 118.149 90.7935 120.289 88.9736L120.517 88.7795C123.2 86.4708 125.563 83.8126 127.543 80.8755C130.662 76.2344 132.518 70.857 132.928 65.2755C132.974 64.67 132.997 64.0864 132.997 63.5248C132.997 60.5036 132.353 58.1116 131.314 56.1928C130.324 54.3867 128.91 52.85 127.194 51.7156C126.108 50.991 124.943 50.3926 123.722 49.932C122.192 49.3566 120.608 48.9374 118.995 48.6805C117.391 48.4188 115.769 48.2866 114.144 48.2853C113.813 48.2853 113.54 48.2854 113.336 48.2975C113.081 48.3062 112.932 48.3166 112.908 48.3183L112.871 47.8347H112.806L112.863 47.7099C112.863 47.7099 113.036 47.6978 113.34 47.6874C116.541 47.5886 134.868 47.7463 133.523 65.3275Z" fill="white"/>
<path d="M134.199 63.53C134.199 64.124 134.174 64.7382 134.126 65.3726C133.803 69.7837 132.604 74.0857 130.6 78.0259C128.77 81.5703 126.39 84.8005 123.549 87.5956C118.124 93.0106 111.698 96.5691 106.878 98.708L106.197 99.0044C105.993 99.0934 105.792 99.1784 105.595 99.2592C105.39 99.3459 105.189 99.4326 104.992 99.5071C103.405 100.163 101.782 100.731 100.132 101.208C99.3752 101.416 98.8118 101.554 98.3607 101.65C97.9097 101.745 97.5657 101.8 97.2615 101.844C96.5788 101.921 95.9004 102.033 95.2291 102.18C94.5619 102.326 93.6425 102.556 92.2737 102.941C89.8714 103.617 87.7905 103.915 86.0276 103.915C84.9301 103.931 83.836 103.789 82.7784 103.494C81.9377 103.263 81.1542 102.86 80.4781 102.308C80.0886 101.983 79.7612 101.589 79.5119 101.147C79.1933 100.577 79.0266 99.9337 79.028 99.28C79.0307 98.7952 79.1118 98.314 79.2683 97.8552C79.4313 97.3525 79.6901 96.8862 80.0304 96.4824L80.1601 96.3386C80.5325 95.9504 80.9769 95.6389 81.4684 95.4216C82.09 95.1529 82.7505 94.9856 83.4248 94.9259C83.7705 94.8912 84.104 94.8791 84.4307 94.8774C85.0037 94.8805 85.5762 94.9164 86.1451 94.9848C86.6412 95.0403 87.0525 95.101 87.2841 95.1218L87.4189 95.1304C87.5666 95.1268 87.7136 95.1088 87.8579 95.0767C88.0603 95.0346 88.2591 94.9767 88.4524 94.9034C88.8751 94.7511 89.263 94.5154 89.5931 94.21C89.782 94.0342 89.926 93.8155 90.0131 93.5722C90.0595 93.4348 90.0835 93.2908 90.0839 93.1458C90.0839 93.0747 90.0839 93.0071 90.0839 92.9447C90.0801 92.7577 90.0592 92.5715 90.0217 92.3883C90.0035 92.281 89.9616 92.1791 89.899 92.0902C89.866 92.0493 89.8276 92.0132 89.7849 91.9827C89.6817 91.9158 89.573 91.8578 89.46 91.8094C89.2647 91.7158 89.0037 91.6014 88.703 91.435C88.5609 91.353 88.4272 91.2572 88.3038 91.149C88.1648 91.0252 88.0332 90.8932 87.9097 90.7538C87.6143 90.4101 87.357 90.0353 87.1424 89.6358C86.5781 88.6002 86.281 87.4394 86.2782 86.2592C86.2848 85.1214 86.5527 84.0004 87.0611 82.9832C86.1054 83.2172 84.7746 83.5275 83.4317 83.7979C82.9634 83.8898 82.4933 83.9799 82.0353 84.0579C81.1493 84.2197 80.2539 84.325 79.3547 84.3734H79.2492C78.3871 84.3477 77.5516 84.068 76.8469 83.5691C76.0996 83.0673 75.4932 82.3816 75.0858 81.5775C74.8097 81.026 74.6648 80.4179 74.6624 79.8008C74.663 79.3533 74.7456 78.9098 74.906 78.4922C75.0048 78.2386 75.1281 77.9953 75.2742 77.7659C75.7744 77.0241 76.4356 76.4054 77.2081 75.9563C78.707 74.9987 80.2932 74.1861 81.9454 73.5296C83.5219 72.9109 85.1972 72.5843 86.89 72.5659C88.7939 72.5826 90.6719 73.01 92.3964 73.8191C95.1859 75.0775 96.7413 76.374 97.6055 77.3932C97.9131 77.7492 98.1771 78.1409 98.3918 78.5598C98.4247 78.6256 98.4541 78.6863 98.48 78.7435C98.5163 78.8284 98.5457 78.903 98.5681 78.9688L98.6044 79.0295L98.6511 79.1075L98.9121 79.5512L98.321 79.8979L97.6141 80.3174L97.462 79.4698V79.4576C97.4573 79.4446 97.4533 79.4313 97.4499 79.4178C97.4226 79.3344 97.3903 79.2528 97.3531 79.1734C97.1765 78.8114 96.9528 78.4745 96.6877 78.1715C95.9619 77.3152 94.5654 76.1192 91.9056 74.918C90.3363 74.1796 88.6268 73.7889 86.8935 73.7723C85.3425 73.7919 83.808 74.095 82.3654 74.6667C80.7849 75.292 79.268 76.0681 77.8355 76.9842C77.2346 77.3301 76.7162 77.8033 76.3163 78.3708L76.287 78.4142C76.0147 78.8253 75.8681 79.3073 75.8653 79.8008C75.8665 80.1196 75.9251 80.4355 76.0381 80.7334C76.1558 81.0482 76.3194 81.3438 76.5237 81.6104C76.9371 82.1594 77.4791 82.5976 78.1017 82.8862C78.4608 83.0549 78.851 83.1469 79.2475 83.1566H79.3132C80.0952 83.1152 80.8739 83.0249 81.6447 82.8862C82.2202 82.7908 82.8251 82.6764 83.4231 82.5534C83.7515 82.4875 84.0781 82.4182 84.3961 82.3488C85.9084 82.0195 87.2547 81.6833 87.8527 81.529L88.1068 81.4631L88.1759 81.4458L89.638 81.0575L89.7884 81.0176L88.824 82.3835C87.8302 83.7927 87.4932 85.1014 87.4915 86.254C87.4937 86.9237 87.6106 87.588 87.8371 88.2179C88.0189 88.7324 88.2732 89.218 88.5924 89.66C88.7409 89.8657 88.9107 90.0551 89.0988 90.2251C89.1589 90.2796 89.2243 90.3278 89.2941 90.369C89.4496 90.4574 89.5983 90.5285 89.7452 90.596L89.8783 90.6584C90.0775 90.7463 90.2694 90.8501 90.4521 90.9687C90.5906 91.0619 90.7152 91.1746 90.8219 91.3032C90.9814 91.4944 91.0992 91.717 91.1676 91.9567C91.2632 92.3109 91.3091 92.6766 91.3041 93.0435C91.3041 93.0764 91.3041 93.1111 91.3041 93.1458C91.3048 93.2583 91.2968 93.3708 91.2799 93.482C91.2494 93.7278 91.1818 93.9674 91.0794 94.1927C90.9399 94.4968 90.7487 94.7743 90.5143 95.0126C90.0742 95.4492 89.5479 95.7887 88.9692 96.0092C88.6382 96.1427 88.2941 96.2409 87.9426 96.3022C87.7713 96.3317 87.5979 96.3474 87.4241 96.349C87.3421 96.3486 87.2602 96.344 87.1787 96.3351C87.094 96.3351 87.0058 96.316 86.9021 96.3039C86.7034 96.2796 86.4718 96.2484 86.2108 96.219C85.621 96.1425 85.0271 96.1014 84.4324 96.0959C84.0963 96.0953 83.7605 96.1138 83.4265 96.1514C83.2779 96.1687 83.131 96.1912 82.9875 96.219C82.6745 96.2774 82.3682 96.3674 82.0733 96.4876C81.9485 96.5384 81.8268 96.5963 81.7086 96.661C81.0901 97 80.6272 97.5668 80.4176 98.2418C80.3043 98.5768 80.2459 98.928 80.2447 99.2818C80.2432 99.6147 80.3054 99.9448 80.4279 100.254C80.557 100.576 80.7458 100.87 80.9845 101.121C81.4891 101.66 82.2807 102.123 83.392 102.405C84.2555 102.613 85.1413 102.714 86.0294 102.703C87.6557 102.703 89.6328 102.426 91.9488 101.774C93.5042 101.336 94.5014 101.091 95.2239 100.942C95.9463 100.793 96.3991 100.738 96.8208 100.684C97.1025 100.648 97.3722 100.611 97.7282 100.545C98.2017 100.457 98.8308 100.313 99.8211 100.043C101.297 99.6167 102.749 99.1145 104.173 98.5382C104.437 98.4342 104.709 98.3238 104.989 98.2071C105.186 98.1262 105.386 98.0413 105.59 97.9523L106.193 97.694C107.821 96.9782 109.65 96.0942 111.551 95.0264C112.136 94.6983 112.729 94.3516 113.328 93.9864C115.782 92.5108 118.111 90.8341 120.289 88.9736L120.517 88.7795C123.2 86.4708 125.563 83.8126 127.543 80.8755C130.662 76.2344 132.518 70.857 132.928 65.2755C132.974 64.67 132.998 64.0864 132.998 63.5248C132.998 60.5036 132.353 58.1116 131.314 56.1928C130.324 54.3868 128.91 52.85 127.194 51.7156C126.108 50.991 124.943 50.3927 123.722 49.932C122.192 49.3567 120.608 48.9374 118.995 48.6806C117.391 48.4188 115.769 48.2866 114.144 48.2854C113.813 48.2854 113.54 48.2854 113.336 48.2975C113.081 48.3062 112.932 48.3166 112.908 48.3183L112.872 47.8347V47.7134L112.806 47.1067C112.806 47.1067 112.954 47.0963 113.21 47.0859C113.435 47.0772 113.748 47.0703 114.135 47.0703C116.095 47.0732 118.05 47.2594 119.975 47.6267C122.381 48.0912 125.065 48.9302 127.463 50.4503C129.139 51.4909 130.581 52.8698 131.696 54.4994C133.233 56.7787 134.2 59.7462 134.199 63.53Z" fill="#231F20"/>
<path d="M88.5458 82.262C88.939 81.7652 89.3688 81.2988 89.8316 80.8667C90.2477 80.4742 90.6932 80.1144 91.1641 79.7903C91.6478 79.4557 92.1746 79.1886 92.73 78.9964C93.0045 78.9061 93.2914 78.8598 93.5803 78.8595C94.2062 78.8602 94.8119 79.0817 95.2913 79.4852C95.7862 79.9041 96.1149 80.4871 96.2177 81.1284C96.2381 81.2469 96.2491 81.3669 96.2505 81.4872C96.2522 81.5954 96.2388 81.7033 96.2108 81.8079C96.1892 81.8868 96.1529 81.961 96.1036 82.0263L95.6404 82.6191L96.3646 82.8201C96.5931 82.8904 96.8146 82.9815 97.0265 83.0923C97.1917 83.1772 97.347 83.2801 97.4897 83.3991C97.607 83.4937 97.7035 83.6118 97.7731 83.7457L97.9633 84.1669L98.3988 84.0109L98.3556 83.8896L98.3971 84.0109L98.3539 83.8896L98.3953 84.0109C98.9179 83.8441 99.4629 83.7588 100.011 83.7579C100.415 83.7553 100.817 83.8137 101.204 83.9312C101.513 84.0254 101.804 84.1688 102.068 84.3559C102.546 84.7059 102.923 85.1765 103.16 85.72C103.463 86.3648 103.679 87.2349 103.746 88.398L104.747 88.3425C104.713 87.3936 104.524 86.4566 104.187 85.5692C103.986 85.0637 103.702 84.5951 103.349 84.1825C102.902 83.6702 102.333 83.2801 101.695 83.0489C101.154 82.8581 100.584 82.7631 100.011 82.7681C99.3474 82.7683 98.6877 82.8736 98.0566 83.0801L98.2294 83.5533L98.6857 83.3332C98.5531 83.0561 98.3606 82.8122 98.1223 82.6191C97.8261 82.377 97.4959 82.1802 97.1423 82.0349C96.9731 81.9633 96.8 81.9014 96.6238 81.8495L96.489 82.3348L96.8848 82.6433C97.0144 82.4758 97.1102 82.2844 97.1665 82.08C97.2195 81.8863 97.2457 81.6863 97.2443 81.4855C97.2432 81.3111 97.2276 81.1372 97.1976 80.9655C97.0561 80.0863 96.6055 79.287 95.9273 78.7121C95.2681 78.1544 94.4341 77.8476 93.5717 77.8455C93.1771 77.8459 92.7851 77.9091 92.4103 78.0327C91.7564 78.2567 91.1369 78.5712 90.5696 78.9669C89.8347 79.4823 89.1563 80.0744 88.5458 80.7332C88.264 81.0266 87.9975 81.3344 87.7473 81.6553L88.5458 82.262Z" fill="#231F20"/>
<path d="M96.4389 81.8374C95.5779 81.9698 94.7407 82.2273 93.9536 82.6018C93.1988 82.9511 92.4999 83.4108 91.8797 83.9659C91.1336 84.6343 90.5364 85.4529 90.1272 86.3683C89.7518 87.2079 89.558 88.1176 89.5586 89.0377C89.5578 90.6049 90.1142 92.1211 91.1279 93.3138C91.4291 93.6778 91.7862 93.9914 92.1856 94.2429C92.6008 94.5026 93.0789 94.6435 93.5682 94.6502C94.0394 94.643 94.5011 94.5173 94.9111 94.2845C95.4243 93.9875 95.8832 93.6047 96.2678 93.1526L95.5212 92.4835C95.2116 92.8489 94.8429 93.1594 94.4307 93.4022C94.168 93.5559 93.8705 93.6394 93.5665 93.6449C93.2597 93.6392 92.9605 93.5479 92.7024 93.3814C92.3942 93.1864 92.1193 92.943 91.8883 92.6603C91.0294 91.65 90.5581 90.3654 90.5593 89.0377C90.5586 88.2609 90.7224 87.4929 91.0397 86.7843C91.3912 85.9982 91.9035 85.2948 92.5434 84.7199C93.326 84.0306 94.2387 83.506 95.2274 83.1773C95.5456 83.068 95.8699 82.9777 96.1987 82.9069C96.318 82.8809 96.4096 82.8653 96.4718 82.8549L96.5409 82.8445H96.5582L96.5409 82.7023L96.5582 82.8445L96.5409 82.7023L96.5582 82.8445L96.4389 81.8374Z" fill="#231F20"/>
<path d="M97.9943 83.1011C97.3559 83.4794 96.7895 83.9683 96.3213 84.5449C95.8447 85.1154 95.4631 85.7592 95.191 86.4516C94.8427 87.3342 94.6667 88.2757 94.6725 89.2249C94.6889 90.4337 94.911 91.6307 95.3293 92.7644C95.496 93.2549 95.7616 93.7057 96.1094 94.0889C96.4573 94.4721 96.88 94.7794 97.3514 94.9917C97.6691 95.1389 98.0142 95.2174 98.3641 95.2223C98.6356 95.2215 98.9037 95.1624 99.1505 95.049C99.3486 94.9573 99.5312 94.8351 99.6915 94.6867C99.9517 94.4372 100.166 94.1438 100.326 93.82C100.532 93.4096 100.687 92.9753 100.787 92.5269C100.838 92.319 100.877 92.1083 100.905 91.896L99.9092 91.7799H99.9645H99.9092H99.9645H99.9092C99.9092 91.7799 99.8868 91.9636 99.8315 92.2149C99.7349 92.686 99.5633 93.1384 99.3233 93.5548C99.213 93.7424 99.0661 93.9057 98.8913 94.0349C98.7388 94.1482 98.5539 94.209 98.3641 94.2083C98.1517 94.2021 97.9428 94.1519 97.7506 94.0609C97.406 93.9027 97.0973 93.6755 96.8434 93.3932C96.5896 93.1109 96.396 92.7796 96.2746 92.4195C95.894 91.3933 95.6911 90.3093 95.6749 89.2145C95.6678 88.3935 95.8174 87.5786 96.1156 86.8139C96.4448 85.9886 96.9524 85.2468 97.602 84.642C97.7977 84.458 98.0068 84.2888 98.2276 84.1359C98.3054 84.0804 98.3676 84.0423 98.4004 84.0163L98.4454 83.9903H98.454L98.3296 83.7615L98.454 83.992L98.3296 83.7632L98.454 83.9937L97.9943 83.1011Z" fill="#231F20"/>
<path d="M93.2069 97.5744C93.3857 96.9343 93.6502 96.3215 93.9933 95.7527C94.2668 95.2839 94.6174 94.8648 95.0303 94.5134C95.4635 94.1492 95.9909 93.916 96.5512 93.8408L96.4389 92.884C95.69 92.9838 94.9853 93.2965 94.4081 93.7854C93.694 94.4103 93.1262 95.1856 92.7455 96.056C92.5512 96.47 92.3939 96.9004 92.2754 97.3422L93.2087 97.5744H93.2069Z" fill="#231F20"/>
<path d="M109.889 62.4155C109.961 65.2251 109.326 68.0076 108.044 70.5067C106.041 74.3738 102.834 76.7953 100.587 78.1091C99.9584 78.4791 99.3105 78.8147 98.646 79.1145C98.3159 79.2618 98.1068 79.3415 98.0566 79.3589L98.4835 78.747L98.6685 78.4835L98.7117 78.4211L99.2094 77.7087L98.9329 78.3154C99.8053 77.8847 100.647 77.3935 101.451 76.8455C103.478 75.4745 105.898 73.3251 107.5 70.2329C107.834 69.5898 108.122 68.9243 108.364 68.2413C108.92 66.6492 109.227 64.9805 109.273 63.2943L109.889 62.4155Z" fill="white"/>
<path d="M62.4795 79.4247C62.3655 81.4839 60.2034 83.2727 58.4111 83.2155C57.006 83.1687 54.7679 82.7405 52.8806 82.3193C51.8523 82.0905 50.9259 81.8652 50.2881 81.7057L49.4828 81.5012L49.4205 81.4839L49.4499 81.5255C49.6227 81.7629 49.7645 82.0004 49.8975 82.2344C51.7382 85.4688 50.5716 88.3392 49.5018 89.66C49.296 89.9344 49.0425 90.1693 48.7534 90.3533C48.3542 90.5752 48.0206 90.7 47.7579 90.8525C47.3639 91.0813 47.1288 91.3726 47.0666 92.1786C47.058 92.3068 47.0528 92.4472 47.0528 92.6015C47.0528 94.3781 49.3687 95.2015 50.3227 95.2015C50.6857 95.2015 51.695 95.0004 52.8719 94.9571C54.4533 94.8981 56.3389 95.1304 57.3655 96.4928C57.5927 96.8012 57.7678 97.145 57.884 97.5103C59.1094 101.201 54.9321 104.444 45.6217 101.818C40.1154 100.268 41.7504 101.18 37.7528 100.084C37.5696 100.034 37.338 99.9681 37.0615 99.8832C36.88 99.8277 36.6813 99.7636 36.4635 99.6943L35.8638 99.4949C28.4321 96.9573 5.91763 87.2056 4.20316 64.7849C3.10742 50.4416 15.1052 47.696 21.3046 47.2297C21.5086 47.2141 21.7073 47.2003 21.8974 47.1899H21.9113C22.1238 47.1795 22.3295 47.1691 22.5231 47.1621C23.9645 47.1119 24.8753 47.1795 24.8753 47.1795L24.9669 47.3823L25.0516 47.5677L24.8476 47.5573L24.8304 47.7844H24.8131H24.7526L24.5124 47.7723C24.2998 47.7723 23.9852 47.7549 23.5912 47.7549C23.3112 47.7549 22.9897 47.7549 22.632 47.7723C22.4384 47.7723 22.2345 47.7809 22.0202 47.7983C21.8249 47.8069 21.6226 47.8208 21.4135 47.8364C20.2616 47.9197 19.1156 48.0702 17.9811 48.2871C16.9276 48.4882 15.8883 48.7586 14.8702 49.0965C14.8479 49.1028 14.826 49.1103 14.8045 49.1191C12.7703 49.8453 10.7517 50.8784 9.06312 52.3396L9.03201 52.3673C8.27862 53.0422 7.61055 53.8071 7.04275 54.6449C5.64456 56.7249 4.74411 59.4151 4.74239 62.9961C4.74239 63.5577 4.76543 64.1407 4.81152 64.7451C5.12187 68.998 6.27713 73.1457 8.20935 76.9443C9.98148 80.374 12.2852 83.5 15.0344 86.2055C17.9041 89.028 21.1026 91.4933 24.5607 93.5479C24.0526 92.26 24.0803 90.9184 24.4657 89.5837C24.7581 87.8682 25.5689 86.2841 26.7885 85.0459C27.3485 84.46 27.9292 83.8845 28.5168 83.3281C30.0669 81.7301 31.743 80.2601 33.5289 78.9324C34.3688 78.2529 35.0169 77.7537 35.3539 77.4972L35.6097 77.3048C35.0774 76.9443 34.5192 76.5335 33.9523 76.0672C33.3422 75.5647 32.7611 75.0276 32.2119 74.4587C30.9992 73.2093 29.9729 71.7906 29.1649 70.2467C27.8787 67.7444 27.2202 64.9653 27.2465 62.1503C27.2465 62.0532 27.2465 61.9561 27.2465 61.8591L27.8514 61.8695L28.4563 61.8781C28.4563 61.9683 28.4563 62.0515 28.4563 62.1503C28.4563 62.3513 28.4563 62.5507 28.4667 62.7465C28.5257 65.1472 29.1242 67.5036 30.2175 69.64C31.2004 71.52 32.5198 73.2028 34.1096 74.6043C35.5304 75.8661 37.1139 76.9306 38.8175 77.7693L39.0473 78.2703L39.1476 78.4921H39.1596L39.6885 78.8076C39.7229 78.6586 39.7751 78.5142 39.8441 78.3777C39.8631 78.3361 39.8855 78.2911 39.9097 78.2425C40.3142 77.4625 41.4099 75.9892 44.3065 74.4552C44.7006 74.2472 45.1275 74.0392 45.5906 73.8295C51.04 71.3699 55.4903 73.0096 60.2137 75.9251C61.9438 76.9859 62.5452 78.2495 62.4795 79.4247Z" fill="white"/>
<path d="M63.0828 79.2547C63.0825 79.5627 63.0442 79.8695 62.9687 80.1681C62.9327 80.318 62.8876 80.4656 62.8339 80.6101C62.6742 81.0343 62.4541 81.433 62.1806 81.794C61.6484 82.5044 60.9489 83.0714 60.1446 83.4441C59.6302 83.6853 59.0706 83.8141 58.5028 83.822H58.3973C57.4979 83.7755 56.6025 83.6701 55.7168 83.5065C54.7766 83.3471 53.788 83.146 52.8754 82.9432L52.7285 82.9103C51.9646 82.7369 51.2578 82.5723 50.684 82.4319C51.1918 83.4499 51.4596 84.5713 51.4669 85.7096C51.4664 86.518 51.3267 87.3202 51.0538 88.0808C50.8479 88.6624 50.5654 89.2139 50.2139 89.7205C50.1879 89.7587 50.162 89.7968 50.1344 89.8332C49.9322 90.1129 49.7004 90.3697 49.443 90.5993C49.32 90.7076 49.1863 90.8028 49.0438 90.8836C48.7897 91.0257 48.5633 91.128 48.3819 91.2129C48.243 91.2737 48.109 91.345 47.9809 91.4261C47.9346 91.4552 47.8932 91.4915 47.8582 91.5336C47.8051 91.6004 47.7668 91.6778 47.7459 91.7607C47.6787 92.0356 47.6496 92.3184 47.6594 92.6013C47.6597 92.7902 47.6998 92.9768 47.777 93.1491C47.8594 93.3249 47.9711 93.4855 48.1071 93.624C48.4287 93.9364 48.8111 94.1789 49.2305 94.3364C49.4821 94.4372 49.7432 94.5121 50.0099 94.56C50.1138 94.5783 50.219 94.5887 50.3245 94.5912H50.4593L50.6995 94.5635L51.3908 94.4768C51.8177 94.4265 52.3241 94.3745 52.8737 94.3555C53.0172 94.3555 53.1641 94.3555 53.3127 94.3555C53.873 94.3509 54.4326 94.3991 54.984 94.4993C55.5585 94.6024 56.1129 94.7973 56.6258 95.0765C56.9808 95.2728 57.3036 95.5224 57.5833 95.8167C57.7824 96.0268 57.9564 96.2595 58.1018 96.51C58.2558 96.7712 58.3809 97.0484 58.4751 97.3368C58.6302 97.7958 58.7107 98.2769 58.7136 98.7616C58.7167 99.249 58.6251 99.7323 58.444 100.185C58.2582 100.646 57.9873 101.068 57.6455 101.429C56.9456 102.175 55.9362 102.731 54.6556 103.057C53.6938 103.29 52.7069 103.402 51.7175 103.391C49.9529 103.391 47.8738 103.093 45.4714 102.419C43.9315 101.986 42.9602 101.748 42.2775 101.606C41.5949 101.464 41.2025 101.419 40.7722 101.363C40.487 101.327 40.1846 101.285 39.7974 101.214C39.2789 101.117 38.617 100.965 37.6077 100.694C37.4556 100.653 37.2707 100.599 37.0564 100.535C36.8835 100.481 36.6779 100.419 36.4584 100.348C36.2734 100.289 36.073 100.223 35.8586 100.15C35.1017 99.8969 34.1787 99.5624 33.1279 99.1464C30.5445 98.119 28.0308 96.9234 25.6029 95.5671C20.005 92.4315 13.6587 87.7341 9.19797 81.0313C5.96506 76.2186 4.04029 70.6431 3.61385 64.8559C3.56546 64.2215 3.54126 63.6073 3.54126 63.0133C3.54126 59.8205 4.23258 57.2101 5.3698 55.1024C6.45323 53.1242 8.0009 51.4406 9.87892 50.1971C11.0412 49.4218 12.2878 48.7821 13.5948 48.2904C15.2004 47.6856 16.8628 47.2448 18.5567 46.9748C19.509 46.8188 20.406 46.7183 21.2096 46.6559C22.1585 46.5831 22.9777 46.5623 23.605 46.5623C24.4312 46.5623 24.922 46.5987 24.9341 46.6004L24.9064 46.9783L24.8892 47.2053L24.8736 47.4099L24.8615 47.5832L24.8442 47.8103H24.8269H24.7664L24.5262 47.7981C24.3136 47.7981 23.9991 47.7808 23.605 47.7808C23.325 47.7808 23.0036 47.7808 22.6458 47.7981C22.4523 47.7981 22.2483 47.8068 22.034 47.8241C21.8387 47.8328 21.6365 47.8467 21.4274 47.8623C20.2755 47.9455 19.1294 48.096 17.995 48.3129C16.9414 48.514 15.9022 48.7844 14.8841 49.1224C14.8617 49.1286 14.8398 49.1361 14.8184 49.1449C13.4538 49.5967 12.1478 50.21 10.928 50.9719C10.274 51.3822 9.65491 51.846 9.07699 52.3585L9.04588 52.3863C8.29249 53.0611 7.62442 53.826 7.05661 54.6639C5.65842 56.7439 4.75798 59.434 4.75625 63.0151C4.75625 63.5767 4.77929 64.1596 4.82538 64.764C5.13574 69.0169 6.291 73.1646 8.22321 76.9632C9.99535 80.393 12.299 83.5189 15.0482 86.2244C17.9179 89.0469 21.1165 91.5122 24.5746 93.5668L24.7215 93.6552C26.8624 94.9318 29.0781 96.0779 31.3564 97.0872C33.1435 97.8793 34.7059 98.4739 35.9019 98.8847L36.5016 99.0875C36.7176 99.1585 36.9164 99.2227 37.0996 99.2781C37.4452 99.3856 37.7217 99.4688 37.9309 99.526C38.6723 99.7288 39.2133 99.8605 39.6367 99.9507C40.0601 100.041 40.3643 100.089 40.6495 100.124C41.3647 100.203 42.0754 100.319 42.7787 100.471C43.4787 100.623 44.4206 100.859 45.8033 101.249C48.1192 101.899 50.0946 102.176 51.7227 102.176C52.7043 102.191 53.683 102.066 54.6297 101.805C55.3102 101.618 55.9437 101.289 56.4893 100.84C56.7673 100.609 57.0015 100.329 57.1806 100.015C57.3974 99.6263 57.5094 99.1877 57.5055 98.7425C57.5033 98.3889 57.4449 98.0378 57.3327 97.7025C57.2064 97.3055 56.9939 96.9414 56.7105 96.6365C56.6621 96.5863 56.6137 96.5377 56.5619 96.4927C56.3288 96.2867 56.066 96.1173 55.7824 95.99C55.0721 95.6659 54.1786 95.5532 53.3179 95.5549C53.171 95.5549 53.0241 95.5549 52.8789 95.5653C52.4745 95.5792 52.0856 95.6139 51.7365 95.6537C51.2629 95.7075 50.8723 95.7664 50.5751 95.7941C50.4904 95.7941 50.4126 95.8063 50.3297 95.808C50.0972 95.8038 49.8657 95.7771 49.6383 95.7283C49.3736 95.6714 49.1136 95.5943 48.8606 95.4977C48.2825 95.286 47.7533 94.9587 47.3051 94.5357C46.9812 94.2262 46.7349 93.8443 46.5862 93.4212C46.5333 93.2658 46.4957 93.1055 46.4738 92.9428C46.4584 92.8314 46.4509 92.719 46.4514 92.6065C46.4446 92.2574 46.4764 91.9086 46.5464 91.5665C46.6051 91.2891 46.7231 91.0277 46.8921 90.8004C46.9966 90.6681 47.1194 90.5513 47.2567 90.4537C47.4175 90.3418 47.5882 90.2449 47.7666 90.1643L48.0051 90.0516C48.152 89.984 48.3006 89.9112 48.4579 89.8228C48.5274 89.7818 48.5928 89.7342 48.6532 89.6807L48.7396 89.6027C48.7984 89.5437 48.8641 89.4779 48.9297 89.4016C49.1663 89.1263 49.372 88.8258 49.5433 88.5055C50.0091 87.6474 50.2544 86.6865 50.2571 85.7096C50.2571 84.5569 49.9114 83.2483 48.9245 81.8373L47.9602 80.4732L48.1088 80.5131L49.5727 80.9013H49.6107L49.7248 80.9325L49.8976 80.9759L50.1568 81.0417C50.5267 81.1353 51.0486 81.2653 51.6622 81.4109C52.0372 81.5011 52.4468 81.5964 52.872 81.6917C53.845 81.9101 54.9148 82.1303 55.9155 82.3019C56.396 82.3833 56.8592 82.4544 57.2843 82.5064C57.7095 82.5584 58.1001 82.5931 58.4267 82.6035H58.4924C59.1142 82.5783 59.715 82.371 60.2207 82.0072C60.7946 81.6241 61.2606 81.0994 61.5739 80.4836C61.7692 80.1014 61.8734 79.6789 61.8781 79.2495C61.8822 78.7551 61.7357 78.2713 61.4581 77.8628C61.0545 77.274 60.5226 76.785 59.9027 76.4328C58.4694 75.518 56.9526 74.742 55.3728 74.1153C53.9329 73.5478 52.4021 73.2477 50.8551 73.2296C49.1217 73.2461 47.4123 73.6369 45.843 74.3753C45.3435 74.6007 44.889 74.826 44.4742 75.0479C42.7839 75.9579 41.7694 76.828 41.1662 77.5075C40.4646 78.2979 40.3021 78.8335 40.2865 78.9149L40.1327 79.7625L39.4414 79.3483L38.84 78.9912L39.1009 78.5475L39.1476 78.4695L39.1839 78.4088C39.196 78.3724 39.2115 78.3308 39.2288 78.2875C39.2461 78.2441 39.2565 78.2216 39.2703 78.1852C39.2841 78.1488 39.298 78.1263 39.3118 78.0951C39.3256 78.0639 39.3429 78.0309 39.3602 77.998C39.575 77.5796 39.839 77.1886 40.1465 76.8332C40.8776 75.9665 42.1064 74.9057 44.1579 73.8363C44.5295 73.6439 44.9287 73.4497 45.3556 73.2573C47.0805 72.4495 48.9583 72.0228 50.862 72.0059C52.5548 72.0243 54.2302 72.3508 55.8066 72.9696C57.4591 73.6254 59.0454 74.4379 60.5439 75.3963C61.3165 75.8454 61.9776 76.464 62.4778 77.2059C62.8734 77.8155 63.0835 78.5273 63.0828 79.2547Z" fill="#231F20"/>
<path d="M49.9961 81.1078C49.5809 80.5793 49.1262 80.0833 48.6359 79.6241C48.1779 79.187 47.6861 78.7871 47.1651 78.4281C46.5984 78.0329 45.9795 77.7191 45.3262 77.4956C44.9507 77.3721 44.5582 77.3089 44.1631 77.3083C43.3011 77.3103 42.4676 77.6172 41.8091 78.175C41.1297 78.7489 40.6789 79.5487 40.5388 80.4283C40.5088 80.6001 40.4932 80.774 40.4922 80.9483C40.4902 81.1491 40.5158 81.3491 40.5682 81.5429C40.6263 81.7475 40.7224 81.9392 40.8516 82.108L41.2457 81.796L41.1126 81.3124C40.8298 81.3961 40.5556 81.5063 40.2934 81.6417C40.0533 81.7615 39.8277 81.9087 39.6211 82.0802C39.3837 82.2746 39.1919 82.519 39.0594 82.7961L39.5157 83.0041L39.6885 82.5309C39.0574 82.3244 38.3977 82.2191 37.7338 82.2189C37.2298 82.2151 36.7282 82.2875 36.2457 82.4338C35.8356 82.5595 35.4482 82.7503 35.0981 82.9989C34.4782 83.4487 33.9881 84.0551 33.6775 84.7565C33.3094 85.5452 33.0691 86.5435 33 87.8054L34.0007 87.8609C34.0267 87.0208 34.1914 86.1908 34.4881 85.4048C34.6459 85.0004 34.8703 84.6254 35.1517 84.2954C35.4862 83.9094 35.9142 83.6163 36.3944 83.4444C36.8244 83.2924 37.2779 83.2179 37.7338 83.2242C38.1244 83.2251 38.5138 83.2681 38.8952 83.3525C39.0421 83.3854 39.1596 83.4184 39.2409 83.4409L39.3273 83.4686H39.348L39.3895 83.349L39.348 83.4669L39.3895 83.3473L39.348 83.4652L39.7818 83.6229L39.9737 83.2017C40.0441 83.0599 40.1451 82.9356 40.2692 82.8377C40.4895 82.6614 40.734 82.5178 40.9951 82.4113C41.1109 82.3628 41.2111 82.3263 41.2803 82.3021L41.3598 82.2761H41.3788L41.3459 82.1634L41.3788 82.2778L41.3459 82.1652L41.3788 82.2795L42.1029 82.0768L41.638 81.484C41.5881 81.4191 41.5517 81.3448 41.5309 81.2656C41.5036 81.1615 41.4902 81.0542 41.4911 80.9466C41.4925 80.8263 41.5035 80.7063 41.524 80.5878C41.6269 79.9462 41.9563 79.3631 42.452 78.9446C42.9307 78.5409 43.5359 78.3193 44.1613 78.3189C44.4508 78.3192 44.7383 78.3654 45.0134 78.4558C45.5775 78.6508 46.112 78.9232 46.6017 79.2653C47.2795 79.7375 47.9058 80.2801 48.47 80.8842C48.7016 81.1286 48.8865 81.3401 49.0109 81.4909C49.0731 81.5654 49.1198 81.6244 49.1509 81.6642C49.182 81.7041 49.1786 81.6989 49.1872 81.7093V81.7197L49.9961 81.1078Z" fill="#231F20"/>
<path d="M41.187 82.2934C41.9625 82.4151 42.7163 82.6487 43.4252 82.9867C44.0829 83.2999 44.6909 83.7087 45.2295 84.2001C45.8578 84.7715 46.3619 85.4666 46.7107 86.2419C47.1361 87.2025 47.2822 88.2642 47.1321 89.3044C46.9819 90.3447 46.5417 91.3212 45.8621 92.1214C45.6302 92.4037 45.3555 92.6476 45.0481 92.8442C44.7894 93.0095 44.4905 93.1006 44.1839 93.1077C43.8799 93.101 43.5825 93.0169 43.3198 92.8633C42.9073 92.6221 42.5391 92.312 42.2309 91.9463L41.4791 92.6067C41.8635 93.0592 42.3231 93.4416 42.8376 93.7369C43.2463 93.9713 43.7079 94.0972 44.1787 94.1026C44.668 94.0973 45.1463 93.9569 45.5614 93.697C45.9618 93.4454 46.3195 93.1312 46.6208 92.7662C47.6339 91.5732 48.1897 90.0571 48.1884 88.4901C48.1897 87.5705 47.9959 86.6611 47.6198 85.8225C47.2105 84.9075 46.614 84.089 45.869 83.4201C44.9854 82.6399 43.9545 82.0457 42.8376 81.6729C42.3392 81.4967 41.8254 81.3685 41.3028 81.2898L41.1836 82.2882L41.187 82.2934Z" fill="#231F20"/>
<path d="M39.279 83.439L39.3688 83.2656L39.2773 83.439L39.3671 83.2656L39.2755 83.439C39.8152 83.7678 40.2931 84.189 40.6875 84.6835C41.0869 85.168 41.4067 85.7134 41.6346 86.299C41.9254 87.0545 42.0709 87.8585 42.0633 88.6684C42.047 89.7632 41.8442 90.8472 41.4635 91.8734C41.3429 92.2338 41.1496 92.5656 40.8957 92.8479C40.6418 93.1303 40.3327 93.3573 39.9876 93.5148C39.7951 93.6049 39.5863 93.6544 39.374 93.6604C39.2454 93.662 39.118 93.6354 39.0007 93.5824C38.8983 93.535 38.8044 93.4712 38.7225 93.3935C38.5502 93.2263 38.4081 93.0304 38.3025 92.8146C38.1352 92.4773 38.0087 92.1212 37.9257 91.7538C37.8894 91.5995 37.8652 91.466 37.8497 91.3742L37.8341 91.2702V91.2442L36.8386 91.3603C36.8386 91.3724 36.8628 91.5666 36.925 91.856C37.0427 92.4431 37.2552 93.0069 37.5541 93.5252C37.7355 93.834 37.9778 94.1024 38.2662 94.3139C38.5906 94.5471 38.98 94.6721 39.3792 94.671C39.7296 94.6653 40.0751 94.5868 40.3937 94.4404C40.8647 94.2278 41.287 93.9204 41.6346 93.5372C41.9821 93.1541 42.2475 92.7034 42.4141 92.2131C42.832 91.0793 43.0541 89.8823 43.0709 88.6736C43.0754 87.7245 42.8994 86.7833 42.5524 85.9003C42.1697 84.9381 41.5795 84.0727 40.8241 83.3662C40.5001 83.053 40.1397 82.7801 39.7508 82.5532L39.2773 83.439H39.279Z" fill="#231F20"/>
<path d="M45.4714 96.796C45.2759 96.0791 44.9852 95.3918 44.6073 94.7524C44.2736 94.1797 43.8459 93.6675 43.3422 93.2375C42.7654 92.7492 42.0613 92.4364 41.3131 92.3362L41.1904 93.2947C41.7597 93.3718 42.2946 93.6126 42.7303 93.988C43.3325 94.522 43.8109 95.1817 44.132 95.9207C44.2525 96.1816 44.3587 96.4489 44.45 96.7215C44.4828 96.822 44.507 96.8948 44.5226 96.9572L44.5381 97.0162V97.0301L44.6367 97.004L44.5364 97.0301L44.6349 97.004L44.5347 97.0301L45.4697 96.7978L45.4714 96.796Z" fill="#231F20"/>
<path d="M39.6972 78.8164C39.6506 78.7991 39.4535 78.7263 39.1424 78.5876L39.1096 78.572C38.8331 78.4489 38.4701 78.2773 38.045 78.052C37.9534 78.0052 37.86 77.9549 37.7615 77.9012C36.5377 77.2347 35.3802 76.4523 34.3049 75.5647C31.137 72.9404 27.7685 68.5689 27.8653 61.8713L28.4789 62.7484C28.5344 65.1475 29.1287 67.5032 30.2175 69.6401C31.2005 71.5202 32.5198 73.2029 34.1096 74.6044C35.5305 75.8662 37.1139 76.9307 38.8175 77.7695L38.541 77.1663L39.0353 77.8717L39.2669 78.2063L39.2911 78.2392L39.3602 78.3363L39.6972 78.8164Z" fill="white"/>
<path d="M25.66 47.5955C25.4561 47.5816 25.2591 47.5695 25.0707 47.5608L24.8667 47.5504L24.8494 47.7775H24.8322H24.7717L24.5314 47.7653C24.3189 47.7653 24.0043 47.748 23.6103 47.748C23.3303 47.748 23.0088 47.748 22.6511 47.7653C22.4575 47.7653 22.2535 47.774 22.0392 47.7913C21.8439 47.8 21.6417 47.8139 21.4326 47.8295C20.2807 47.9127 19.1347 48.0632 18.0002 48.2801C16.9467 48.4812 15.9074 48.7516 14.8893 49.0896C16.9993 48.3622 19.1825 47.8693 21.3998 47.6197C21.5916 47.5955 21.78 47.5747 21.9615 47.5573H22.0012C22.2103 47.5365 22.4126 47.5175 22.6078 47.5019C23.5774 47.4204 24.3655 47.3927 24.884 47.3875H24.9912C25.3628 47.3875 25.5684 47.3875 25.5684 47.3875L25.66 47.5955Z" fill="#2F3841"/>
<path d="M24.7146 93.8703C24.7146 93.8703 3.45656 83.2155 4.75797 61.483C4.94808 57.349 6.65909 54.4248 9.04068 52.3552C8.28729 53.0301 7.61922 53.795 7.05141 54.6328C5.65322 56.7128 4.75278 59.403 4.75105 62.984C4.75105 63.5456 4.7741 64.1286 4.82019 64.733C5.13054 68.9859 6.2858 73.1336 8.21801 76.9322C9.99015 80.3619 12.2938 83.4879 15.043 86.1934C17.9127 89.0159 21.1113 91.4812 24.5694 93.5358C24.6195 93.6484 24.6679 93.7594 24.7146 93.8703Z" fill="#2F3841"/>
<path d="M28.5168 83.3333C26.7211 85.2157 25.1189 87.3875 24.4829 89.5733C24.7725 87.8634 25.5771 86.2835 26.7885 85.0458C27.3519 84.4599 27.9326 83.8845 28.5168 83.3333Z" fill="#2F3841"/>
<path d="M39.4155 78.3483L39.3636 78.3362L39.2513 78.3137H39.2288L39.0473 78.2738L38.0363 78.0554L37.7511 77.9947L37.148 77.8647L36.1213 77.6359L35.5476 77.5129L35.4767 77.5597C35.2537 77.7053 34.5244 78.1906 33.5341 78.9325C34.374 78.253 35.0221 77.7538 35.3592 77.4973L35.615 77.3049C35.0826 76.9443 34.5244 76.5335 33.9575 76.0673C33.3474 75.5647 32.7663 75.0277 32.2171 74.4587C31.0044 73.2093 29.9781 71.7907 29.1701 70.2467C27.8839 67.7445 27.2255 64.9654 27.2517 62.1503C27.2517 62.0533 27.2517 61.9562 27.2517 61.8591L27.8566 61.8695L28.4615 61.8782C28.4615 61.9683 28.4615 62.0515 28.4615 62.1503C28.4615 62.3514 28.4615 62.5507 28.4719 62.7466C28.5293 65.1469 29.126 67.5032 30.2175 69.6401C31.2005 71.5201 32.5198 73.2028 34.1096 74.6043C35.5304 75.8661 37.1139 76.9307 38.8175 77.7694L38.541 77.1662L39.0352 77.8717L39.2426 77.9687L39.3083 78.1161L39.3325 78.1698L39.4155 78.3483Z" fill="#2F3841"/>
<path d="M132.989 63.5299C132.989 64.0915 132.966 64.6751 132.92 65.2806C132.509 70.8621 130.653 76.2395 127.534 80.8806C125.554 83.8177 123.192 86.4759 120.509 88.7846L120.289 88.9735C118.153 90.7921 115.844 92.3962 113.395 93.7627C113.784 92.2443 114.259 88.6771 111.344 85.5502C111.314 85.5173 111.283 85.4861 111.252 85.4531C110.499 84.6645 109.71 83.8931 108.929 83.1669C108.632 82.8653 108.331 82.5723 108.03 82.2881C107.878 82.1442 107.726 82.0038 107.574 81.8651C107.422 81.7265 107.261 81.5809 107.106 81.4457C106.057 80.5166 105.032 79.7123 104.201 79.0883L104.178 79.0727C103.305 78.421 102.623 77.9617 102.305 77.7502C103.028 77.2502 103.72 76.7072 104.379 76.1243C105.719 74.9427 106.887 73.5765 107.846 72.0666C108.103 71.661 108.349 71.2363 108.578 70.7943C109.864 68.2918 110.522 65.5129 110.497 62.6979C110.497 62.6009 110.497 62.5038 110.497 62.4085L109.892 62.4171H109.287C109.287 62.509 109.287 62.6009 109.287 62.691C109.287 62.8921 109.287 63.0914 109.277 63.2873C109.23 64.9759 108.922 66.6471 108.364 68.2411C108.122 68.9242 107.833 69.5897 107.5 70.2327C105.898 73.325 103.478 75.4743 101.451 76.8454C100.644 77.3907 99.8004 77.879 98.9258 78.3066L99.2024 77.6999L98.7046 78.4123L98.6821 78.4227C98.5733 78.4747 98.4748 78.5198 98.3849 78.5597C98.1701 78.1408 97.9061 77.7491 97.5985 77.3931C96.7344 76.3739 95.1789 75.0774 92.3894 73.819C90.6649 73.0099 88.7869 72.5825 86.8831 72.5658C85.1903 72.5842 83.5149 72.9108 81.9384 73.5295C80.2862 74.186 78.7 74.9986 77.2012 75.9562C76.4286 76.4053 75.7675 77.024 75.2672 77.7658C75.1211 77.9952 74.9978 78.2385 74.8991 78.4921C73.0377 79.0346 72.9478 81.0297 72.9478 81.0297H68.1345V81.0903H63.138C63.1486 80.7748 63.0927 80.4606 62.9738 80.1682C63.1004 79.6695 63.1216 79.1498 63.0362 78.6423C62.9508 78.1349 62.7606 77.6509 62.4778 77.2215C61.9776 76.4797 61.3164 75.861 60.5439 75.4119C59.0454 74.4536 57.4591 73.641 55.8066 72.9853C54.2301 72.3665 52.5548 72.04 50.862 72.0215C48.9578 72.0406 47.08 72.4698 45.3556 73.2799C44.9287 73.4723 44.5295 73.6665 44.1579 73.8589C42.1064 74.9283 40.8741 75.9909 40.1465 76.8558C39.839 77.2112 39.575 77.6022 39.3601 78.0206L39.2461 77.9703L39.0387 77.8733L38.5409 77.1661L38.814 77.7675C37.1104 76.9288 35.527 75.8642 34.1061 74.6025C32.5177 73.2012 31.1996 71.5191 30.2175 69.6399C29.1256 67.5037 28.5284 65.148 28.4702 62.7482C28.4702 62.5523 28.4598 62.353 28.4598 62.1519C28.4598 62.0601 28.4598 61.9786 28.4598 61.8798L27.8549 61.8711L27.25 61.8607C27.25 61.9578 27.25 62.0549 27.25 62.1519C27.2237 64.967 27.8822 67.7461 29.1684 70.2483C29.9764 71.7923 31.0026 73.2109 32.2154 74.4603C32.7645 75.0293 33.3456 75.5663 33.9558 76.0689C34.5227 76.5351 35.0809 76.9459 35.6132 77.3065L35.3574 77.4989C35.0204 77.7554 34.3723 78.2546 33.5323 78.9341C31.7452 80.2627 30.0679 81.7339 28.5168 83.3333C27.9361 83.8897 27.3554 84.4651 26.7885 85.051C25.5768 86.2868 24.7711 87.8649 24.4795 89.5733C24.0941 90.9079 24.0665 92.2495 24.5746 93.5374C21.1164 91.4828 17.9179 89.0176 15.0482 86.195C12.299 83.4895 9.99532 80.3636 8.22319 76.9338C6.29097 73.1353 5.13571 68.9875 4.82536 64.7346C4.77927 64.1291 4.75623 63.5461 4.75623 62.9857C4.75623 59.4046 5.6584 56.7075 7.05659 54.6345C7.62439 53.7966 8.29246 53.0317 9.04585 52.3569L9.07696 52.3291C10.7655 50.8679 12.7842 49.8349 14.8184 49.1086C14.8398 49.0998 14.8617 49.0923 14.884 49.0861C15.9022 48.7481 16.9414 48.4777 17.995 48.2766C19.1294 48.0597 20.2755 47.9092 21.4274 47.8259C21.6365 47.8103 21.8387 47.7965 22.034 47.7878C22.2293 47.7791 22.4522 47.767 22.6458 47.7618C23.0036 47.7479 23.325 47.7445 23.605 47.7445C23.9991 47.7445 24.3136 47.7531 24.5262 47.7618L24.7664 47.7739H24.8269H24.8442L24.8615 47.5469L25.0654 47.5573C25.2538 47.5659 25.4508 47.5781 25.6548 47.5919C29.063 47.819 34.7318 48.6441 42.2585 51.3065C47.3846 53.1213 53.3732 55.7871 60.0962 59.6993L60.1792 59.7478L60.276 59.7686C62.0043 60.1309 63.5995 60.4151 65.091 60.6353L67.1321 69.0541C67.316 69.8199 67.7565 70.4991 68.38 70.9781C68.8651 71.3529 69.4412 71.5912 70.0489 71.6682C70.6565 71.7453 71.2736 71.6585 71.8365 71.4166C74.2661 70.3718 76.418 68.7713 78.1203 66.7429C79.8225 64.7146 81.0277 62.3148 81.6394 59.7357L81.8226 59.6646C82.7282 59.306 83.6112 58.8927 84.4669 58.427C85.034 58.1045 85.6191 57.8152 86.2194 57.5603C86.6066 57.413 87.189 57.1651 87.9477 56.8341C90.1375 55.879 93.7582 54.2479 97.6728 52.6654C98.4851 52.3378 99.3112 52.0102 100.139 51.693C102.547 50.7674 104.978 49.9181 107.163 49.301C108.257 48.9925 109.29 48.7429 110.229 48.5713C110.775 48.4707 111.29 48.3979 111.762 48.3546C111.879 48.3425 111.995 48.3338 112.108 48.3269V49.3287L112.712 47.9993L112.783 47.8433H112.849L112.885 48.3269C112.909 48.3269 113.058 48.3147 113.314 48.3061C113.518 48.3061 113.791 48.2939 114.121 48.2939C115.746 48.2952 117.368 48.4274 118.972 48.6891C120.586 48.946 122.17 49.3652 123.699 49.9406C124.92 50.4012 126.085 50.9996 127.171 51.7242C128.887 52.8586 130.301 54.3953 131.292 56.2014C132.344 58.1167 132.987 60.5087 132.989 63.5299Z" fill="#2F3841"/>
<path d="M110.495 62.6963C110.521 65.5113 109.862 68.2902 108.577 70.7927C108.347 71.2347 108.101 71.6594 107.844 72.065C106.882 73.5737 105.712 74.9381 104.368 76.1175C103.71 76.7004 103.017 77.2433 102.294 77.7434L102.09 77.6099L100.587 78.1091L98.7426 78.7227L98.5266 78.7955L98.6614 78.487L98.6822 78.435L98.7046 78.4246L99.2024 77.7122L98.9258 78.3189C99.8007 77.8873 100.644 77.395 101.451 76.8455C103.478 75.4745 105.898 73.3251 107.5 70.2329C107.833 69.5898 108.122 68.9243 108.364 68.2413C108.92 66.6492 109.226 64.9805 109.273 63.2943C109.273 63.0985 109.284 62.8991 109.284 62.6981C109.284 62.6079 109.284 62.5161 109.284 62.4242H109.888L110.493 62.4155C110.493 62.5022 110.495 62.5993 110.495 62.6963Z" fill="#2F3841"/>
<path d="M113.387 93.7627C113.134 93.8996 112.998 93.9672 112.998 93.9672C114.247 91.3395 113.148 88.4622 111.242 85.8622C110.533 84.9071 109.758 84.004 108.921 83.1599C109.702 83.8879 110.49 84.6575 111.243 85.4462C111.275 85.4791 111.306 85.5103 111.335 85.5432C114.24 88.6771 113.775 92.2443 113.387 93.7627Z" fill="#2F3841"/>
<path d="M112.794 47.8433L112.723 47.9993L112.118 49.3288V48.32C112.006 48.32 111.89 48.3356 111.772 48.3477L111.971 47.8919L112.118 47.878C112.244 47.8676 112.45 47.8537 112.723 47.8381L112.794 47.8433Z" fill="#2F3841"/>
<path d="M120.509 88.7793C123.192 86.4706 125.554 83.8124 127.534 80.8753C130.653 76.2342 132.509 70.8569 132.92 65.2753C132.966 64.6698 132.989 64.0863 132.989 63.5247C132.989 60.5035 132.344 58.1115 131.305 56.1927C130.315 54.3866 128.901 52.8498 127.185 51.7155C126.099 50.9909 124.934 50.3925 123.713 49.9319C122.183 49.3565 120.6 48.9372 118.986 48.6804C117.382 48.4186 115.76 48.2864 114.135 48.2852C113.805 48.2852 113.532 48.2852 113.328 48.2973C113.072 48.306 112.923 48.3164 112.899 48.3181L112.863 47.8345L113.331 47.8172C117.782 47.6959 131.739 48.3753 133.115 61.5747C133.893 74.5799 126.542 83.6157 120.509 88.7793Z" fill="#2F3841"/>
<path d="M39.9063 78.2477L39.8579 78.3794L39.7024 78.8093L39.4967 79.3795L39.4448 79.3605C38.8604 79.1289 38.2897 78.8639 37.7356 78.5666C37.5489 78.4678 37.3484 78.3586 37.1393 78.2407C36.8213 78.0674 36.4808 77.8559 36.1231 77.6271C35.9502 77.5231 35.7878 77.4122 35.6167 77.2961C35.0843 76.9355 34.5261 76.5247 33.9592 76.0585C33.3491 75.5559 32.768 75.0189 32.2188 74.4499C31.0061 73.2005 29.9798 71.7819 29.1719 70.2379C27.8857 67.7357 27.2272 64.9566 27.2534 62.1415C27.2534 62.0445 27.2534 61.9474 27.2534 61.8503L27.8583 61.8607L28.4632 61.8694C28.4632 61.9595 28.4632 62.0427 28.4632 62.1415C28.4632 62.3426 28.4632 62.5419 28.4736 62.7378C28.5292 65.1409 29.1253 67.5003 30.2175 69.6399C31.2005 71.52 32.5198 73.2027 34.1096 74.6042C35.5304 75.866 37.1139 76.9305 38.8175 77.7693L39.0387 77.8733L39.2461 77.9703L39.3601 78.0206L39.4103 78.0449C39.7162 78.1766 39.8942 78.2442 39.9063 78.2477Z" fill="#231F20"/>
<path d="M28.93 83.7667C30.7361 82.0333 32.5698 80.4907 33.9127 79.4039L33.1522 78.4609C31.792 79.5616 29.9358 81.1268 28.0952 82.8896L28.93 83.7667Z" fill="#231F20"/>
<path d="M23.8833 89.4712C23.7962 89.9895 23.7529 90.5143 23.7537 91.0399C23.7531 91.9716 23.8834 92.8988 24.1408 93.7941C24.2376 94.1252 24.3136 94.3141 24.3223 94.3349L25.4405 93.8704L25.2296 93.9588L25.4405 93.8721L25.2296 93.9605L25.4405 93.8739C25.4405 93.8739 25.3783 93.7196 25.3022 93.4544C25.0742 92.6705 24.9579 91.8582 24.9566 91.0416C24.9562 90.5833 24.9944 90.1258 25.0706 89.674L23.8781 89.4729L23.8833 89.4712Z" fill="#231F20"/>
<path d="M103.807 79.5547C104.588 80.1839 105.576 80.9968 106.643 81.9293L106.816 82.0784H107.044V81.4717L106.648 81.9293L107.113 82.3401C107.267 82.4771 107.422 82.614 107.578 82.7544C107.884 83.0317 108.193 83.3125 108.502 83.602L109.329 82.7145C109.011 82.4181 108.694 82.1304 108.387 81.8479L107.915 81.4267C107.754 81.2828 107.593 81.1407 107.436 81.0037L107.263 80.8564H107.037V81.4631L107.434 81.0055C106.351 80.0591 105.35 79.2357 104.56 78.5996L103.803 79.546L103.807 79.5547Z" fill="#231F20"/>
<path d="M102.063 78.1993L102.092 78.2218C102.232 78.3258 102.865 78.8025 103.784 79.5391L104.539 78.591C103.473 77.7365 102.787 77.2269 102.782 77.2234L102.063 78.1993Z" fill="#231F20"/>
<path d="M112.799 93.6137C112.782 93.6865 112.763 93.7523 112.745 93.813C112.702 93.9673 112.662 94.0869 112.635 94.1597L112.604 94.2446V94.2637L112.801 94.3434L112.604 94.2619L112.801 94.3417L112.604 94.2602L113.722 94.7247C113.798 94.5321 113.863 94.3353 113.917 94.1354L113.336 93.9621L113.915 94.1354C113.938 94.0574 113.962 93.9742 113.984 93.8841L112.813 93.5859L112.799 93.6137Z" fill="#231F20"/>
<path d="M110.495 62.6963C110.521 65.5113 109.862 68.2902 108.577 70.7927C108.347 71.2347 108.101 71.6594 107.844 72.065C106.882 73.5737 105.712 74.9381 104.368 76.1175C103.71 76.7004 103.017 77.2434 102.294 77.7434C101.054 78.6129 99.7211 79.3397 98.3192 79.9101L98.2604 79.9326L98.053 79.3623L97.8992 78.9359L97.8508 78.8025H97.8629L97.9113 78.7834L98.1153 78.7019L98.3434 78.6031L98.3952 78.5806C98.4851 78.5407 98.5836 78.4957 98.6925 78.4437L98.715 78.4333L98.8878 78.3518L98.9379 78.3275C99.8089 77.8927 100.649 77.3975 101.451 76.8455C103.478 75.4745 105.898 73.3251 107.5 70.2329C107.833 69.5898 108.122 68.9243 108.364 68.2413C108.92 66.6492 109.226 64.9805 109.273 63.2943C109.273 63.0985 109.284 62.8991 109.284 62.6981C109.284 62.6079 109.284 62.5161 109.284 62.4242H109.888L110.493 62.4155C110.493 62.5022 110.495 62.5993 110.495 62.6963Z" fill="#231F20"/>
<path d="M67.6346 91.5035V95.9893H53.3755V81.5904H57.1444H57.6444V81.0929L57.6447 81.0823C57.6452 81.0709 57.6462 81.0515 57.6485 81.0251C57.6531 80.9722 57.6628 80.8927 57.6826 80.7958C57.7226 80.6001 57.8018 80.3455 57.9558 80.0975C58.2424 79.6361 58.8425 79.1042 60.2235 79.1445L60.2316 79.1447L60.2398 79.1447C60.7273 79.1429 61.2096 79.2451 61.6547 79.4445C61.8297 79.5296 61.9904 79.6415 62.1311 79.7763C62.2951 79.938 62.424 80.1322 62.5095 80.3466L62.5095 80.3466L62.5107 80.3496C62.6031 80.5769 62.6466 80.8213 62.6384 81.0667L62.621 81.5835H63.1381H67.6346V84.6938C67.0307 84.8795 66.4856 85.2259 66.0591 85.6991L66.0017 85.7629L65.9873 85.7974C65.5079 86.4095 65.2563 87.1709 65.2771 87.95C65.2752 88.1398 65.2842 88.3295 65.3042 88.5183L65.3042 88.5183C65.4462 89.8629 66.1249 90.6509 66.784 91.0903C67.0992 91.3004 67.4043 91.4277 67.6346 91.5035Z" fill="#ED4D4D" stroke="black"/>
<path d="M67.2171 90.4642C66.8391 90.2749 66.3329 89.8028 66.3013 88.4565V88.4565V88.4562V88.456V88.4557V88.4554V88.4551V88.4549V88.4546V88.4543V88.454V88.4538V88.4535V88.4532V88.453V88.4527V88.4524V88.4521V88.4519V88.4516V88.4513V88.451V88.4508V88.4505V88.4502V88.4499V88.4497V88.4494V88.4491V88.4488V88.4486V88.4483V88.448V88.4477V88.4475V88.4472V88.4469V88.4466V88.4464V88.4461V88.4458V88.4455V88.4453V88.445V88.4447V88.4444V88.4442V88.4439V88.4436V88.4434V88.4431V88.4428V88.4425V88.4423V88.442V88.4417V88.4414V88.4412V88.4409V88.4406V88.4403V88.4401V88.4398V88.4395V88.4392V88.439V88.4387V88.4384V88.4381V88.4379V88.4376V88.4373V88.437V88.4368V88.4365V88.4362V88.4359V88.4357V88.4354V88.4351V88.4348V88.4346V88.4343V88.434V88.4337V88.4335V88.4332V88.4329V88.4326V88.4324V88.4321V88.4318V88.4315V88.4313V88.431V88.4307V88.4304V88.4302V88.4299V88.4296V88.4293V88.4291V88.4288V88.4285V88.4282V88.428V88.4277V88.4274V88.4271V88.4269V88.4266V88.4263V88.426V88.4258V88.4255V88.4252V88.4249V88.4247V88.4244V88.4241V88.4239V88.4236V88.4233V88.423V88.4227V88.4225V88.4222V88.4219V88.4216V88.4214V88.4211V88.4208V88.4205V88.4203V88.42V88.4197V88.4194V88.4192V88.4189V88.4186V88.4183V88.4181V88.4178V88.4175V88.4172V88.417V88.4167V88.4164V88.4161V88.4159V88.4156V88.4153V88.415V88.4148V88.4145V88.4142V88.4139V88.4137V88.4134V88.4131V88.4128V88.4126V88.4123V88.412V88.4117V88.4115V88.4112V88.4109V88.4106V88.4104V88.4101V88.4098V88.4095V88.4093V88.409V88.4087V88.4084V88.4082V88.4079V88.4076V88.4073V88.4071V88.4068V88.4065V88.4062V88.4059V88.4057V88.4054V88.4051V88.4048V88.4046V88.4043V88.404V88.4037V88.4035V88.4032V88.4029V88.4026V88.4024V88.4021V88.4018V88.4015V88.4013V88.401V88.4007V88.4004V88.4002V88.3999V88.3996V88.3993V88.399V88.3988V88.3985V88.3982V88.3979V88.3977V88.3974V88.3971V88.3968V88.3966V88.3963V88.396V88.3957V88.3955V88.3952V88.3949V88.3946V88.3943V88.3941V88.3938V88.3935V88.3932V88.393V88.3927V88.3924V88.3921V88.3919V88.3916V88.3913V88.391V88.3908V88.3905V88.3902V88.3899V88.3896V88.3894V88.3891V88.3888V88.3885V88.3883V88.388V88.3877V88.3874V88.3872V88.3869V88.3866V88.3863V88.386V88.3858V88.3855V88.3852V88.3849V88.3847V88.3844V88.3841V88.3838V88.3835V88.3833V88.383V88.3827V88.3824V88.3822V88.3819V88.3816V88.3813V88.381V88.3808V88.3805V88.3802V88.3799V88.3797V88.3794V88.3791V88.3788V88.3786V88.3783V88.378V88.3777V88.3774V88.3772V88.3769V88.3766V88.3763V88.376V88.3758V88.3755V88.3752V88.3749V88.3747V88.3744V88.3741V88.3738V88.3735V88.3733V88.373V88.3727V88.3724V88.3722V88.3719V88.3716V88.3713V88.371V88.3708V88.3705V88.3702V88.3699V88.3696V88.3694V88.3691V88.3688V88.3685V88.3683V88.368V88.3677V88.3674V88.3671V88.3669V88.3666V88.3663V88.366V88.3657V88.3655V88.3652V88.3649V88.3646V88.3644V88.3641V88.3638V88.3635V88.3632V88.363V88.3627V88.3624V88.3621V88.3618V88.3616V88.3613V88.361V88.3607V88.3604V88.3602V88.3599V88.3596V88.3593V88.359V88.3588V88.3585V88.3582V88.3579V88.3576V88.3574V88.3571V88.3568V88.3565V88.3562V88.356V88.3557V88.3554V88.3551V88.3548V88.3546V88.3543V88.354V88.3537V88.3534V88.3532V88.3529V88.3526V88.3523V88.352V88.3518V88.3515V88.3512V88.3509V88.3506V88.3504V88.3501V88.3498V88.3495V88.3492V88.349V88.3487V88.3484V88.3481V88.3478V88.3476V88.3473V88.347V88.3467V88.3464V88.3461V88.3459V88.3456V88.3453V88.345V88.3447V88.3445V88.3442V88.3439V88.3436V88.3433V88.3431V88.3428V88.3425V88.3422V88.3419V88.3416V88.3414V88.3411V88.3408V88.3405V88.3402V88.34V88.3397V88.3394V88.3391V88.3388V88.3385V88.3383V88.338V88.3377V88.3374V88.3371V88.3369V88.3366V88.3363V88.336V88.3357V88.3354V88.3352V88.3349V88.3346V88.3343V88.334V88.3337V88.3335V88.3332V88.3329V88.3326V88.3323V88.3321V88.3318V88.3315V88.3312V88.3309V88.3306V88.3304V88.3301V88.3298V88.3295V88.3292V88.3289V88.3287V88.3284V88.3281V88.3278V88.3275V88.3272V88.327V88.3267V88.3264V88.3261V88.3258V88.3255V88.3253V88.325V88.3247V88.3244V88.3241V88.3238V88.3236V88.3233V88.323V88.3227V88.3224V88.3221V88.3218V88.3216V88.3213V88.321V88.3207V88.3204V88.3201C66.3013 87.3357 66.5476 86.7299 66.8265 86.3547L66.9186 86.2308C67.0585 86.0714 67.2246 85.9366 67.4098 85.8325L67.1649 85.3966L67.4098 85.8325C67.6315 85.708 67.876 85.63 68.1283 85.6031H68.1293H68.6293V85.1031V81.5297H72.9426H73.4206L73.442 81.0544L73.442 81.0539L73.4426 81.0448C73.4433 81.0354 73.4447 81.0193 73.4471 80.9974C73.4519 80.9535 73.4608 80.8868 73.4768 80.8037C73.5089 80.6364 73.5683 80.4091 73.6761 80.1697C73.8894 79.6961 74.2811 79.1915 75.0338 78.9722L75.0341 78.9721C75.2323 78.9141 75.4364 78.8787 75.6425 78.8665L75.6425 78.8665L75.649 78.866C75.7319 78.86 75.8183 78.8569 75.9083 78.8569C76.0559 78.8569 76.1509 78.8579 76.2356 78.8705L76.2485 78.8725L76.2614 78.8737C77.3037 78.974 77.8456 79.5188 78.1448 80.0406C78.2986 80.3089 78.3885 80.5739 78.4397 80.7729C78.465 80.8717 78.4803 80.9521 78.489 81.0057C78.4934 81.0325 78.4961 81.0524 78.4976 81.0643L78.4989 81.0761L78.499 81.0765L78.499 81.077L78.4991 81.0772L78.5402 81.5297H78.9968H82.9247V95.9859H68.6345V91.1125V90.5302L68.0622 90.6178L68.0549 90.6186C68.046 90.6196 68.03 90.6211 68.0078 90.6224C67.9633 90.625 67.8957 90.6266 67.8129 90.621C67.6449 90.6097 67.429 90.5703 67.2171 90.4642Z" fill="#ED4D4D" stroke="black"/>
</svg>
