<svg width="130" height="130" viewBox="0 0 130 130" fill="none" xmlns="http://www.w3.org/2000/svg">
<path d="M94.4592 46.6428C94.4592 46.6428 93.8017 37.667 86.5682 44.5914C79.3347 51.5158 72.3173 53.8228 71.4407 62.2293C70.5641 70.6358 52.7166 97.6745 52.7166 97.6745L60.0822 105.577C64.8631 110.708 73.3415 108.805 75.5175 102.115C80.2937 87.4157 87.019 67.0928 87.3733 66.4545C87.922 65.4601 91.8294 65.5276 94.899 57.6151C97.9687 49.7027 97.6392 49.044 96.1036 46.9C94.568 44.7561 91.2776 52.0317 91.2776 52.0317C91.2776 52.0317 94.2867 56.682 83.8763 62.1383" fill="white"/>
<path d="M94.508 46.9917C94.508 46.9794 94.4849 46.6822 94.4049 46.2257C94.2592 45.3192 93.9574 44.4451 93.513 43.643C93.2507 43.1834 92.8948 42.7847 92.4688 42.4731C91.9949 42.1396 91.4293 41.9632 90.851 41.9686C90.2035 41.9686 89.4838 42.1667 88.678 42.6015C87.8722 43.0364 86.9741 43.708 85.956 44.6783C82.4189 48.0626 78.9034 50.3281 76.1245 52.8211C74.7405 54.0683 73.5286 55.3775 72.6121 56.9172C71.6321 58.5766 71.0316 60.4347 70.8543 62.3566C70.7544 63.33 70.393 64.6299 69.8347 66.1325C68.8567 68.7632 67.2758 72.0299 65.4565 75.4328C62.7268 80.5395 59.4589 85.9665 56.8784 90.1137C55.5881 92.1889 54.467 93.9422 53.6704 95.1771C53.2706 95.796 52.9538 96.2835 52.7354 96.6162L52.4847 96.9984L52.3986 97.1284L52.2048 97.4209L59.7326 105.477C60.6166 106.434 61.6876 107.197 62.8785 107.718C64.0694 108.239 65.3544 108.506 66.6529 108.504C68.6105 108.503 70.5217 107.904 72.1338 106.786C73.838 105.599 75.1055 103.879 75.7401 101.893C78.1022 94.6432 80.9488 86.0052 83.2463 79.1003C84.3966 75.6494 85.4085 72.6303 86.1544 70.4345C86.5281 69.3373 86.8341 68.4475 87.0586 67.813C87.1709 67.4958 87.2616 67.2436 87.3293 67.0625C87.3616 66.9727 87.3908 66.9078 87.4108 66.849L87.4354 66.7902V66.7778L87.317 66.719L87.4323 66.784L87.3139 66.7251L87.4293 66.7902C87.4439 66.7655 87.4626 66.7435 87.4846 66.7251C87.5956 66.6304 87.7175 66.5494 87.8476 66.4837C88.1551 66.312 88.6057 66.0984 89.1363 65.7796C90.1902 65.142 91.1267 64.3258 91.9044 63.3671C92.9086 62.1539 93.9451 60.4532 94.894 58.016C95.729 55.8681 96.3119 54.2571 96.6902 52.9928C97.0685 51.7286 97.2423 50.8109 97.2438 50.0418C97.252 49.4757 97.1332 48.915 96.8963 48.4015C96.6531 47.9147 96.3642 47.4525 96.0335 47.0211C95.9143 46.8496 95.7602 46.7056 95.5814 46.5987C95.4093 46.4986 95.2142 46.4453 95.0155 46.4439C94.8576 46.4462 94.7014 46.4766 94.5541 46.5337C94.2708 46.6471 94.0103 46.8112 93.7852 47.018C93.3316 47.4422 92.9286 47.9178 92.5841 48.4355C92.047 49.2301 91.5586 50.057 91.1216 50.9115C90.7449 51.6357 90.5065 52.1588 90.5065 52.1634L90.4065 52.3862L90.5388 52.5905L90.7664 52.4358L90.5372 52.5812L90.7649 52.4265L90.5357 52.5719C90.6072 52.6955 90.6645 52.8268 90.7064 52.9634C90.8118 53.2955 90.8637 53.6424 90.8602 53.991C90.856 54.4799 90.767 54.9643 90.5972 55.4224C90.302 56.2456 89.7114 57.2298 88.5842 58.3316C87.4569 59.4334 85.8207 60.6529 83.3939 61.9171L83.7999 62.7048C87.1017 60.9794 89.084 59.3205 90.2589 57.8287C90.7653 57.1983 91.1682 56.4904 91.4523 55.7319C91.6543 55.1771 91.7584 54.5911 91.7598 54.0003C91.7624 53.5343 91.6865 53.0712 91.5353 52.6307C91.4737 52.4444 91.3911 52.2658 91.2893 52.0984L90.9202 52.3398L91.3216 52.524V52.51C91.7676 51.5556 92.264 50.6257 92.8087 49.7246C93.1724 49.112 93.5914 48.5344 94.0605 47.9991C94.2323 47.8054 94.427 47.6334 94.6402 47.4869C94.7123 47.4385 94.7897 47.3985 94.8709 47.3678C94.9202 47.3491 94.9721 47.3387 95.0247 47.3368C95.07 47.336 95.1148 47.3478 95.1539 47.3709C95.2229 47.4155 95.2821 47.474 95.3277 47.5426C95.625 47.9298 95.8856 48.3443 96.1058 48.7806C96.2889 49.1773 96.3799 49.6107 96.3718 50.048C96.3718 50.6763 96.2181 51.5212 95.8551 52.7437C95.4922 53.9662 94.9124 55.5617 94.082 57.6956C93.3331 59.6176 92.5441 61.0428 91.7752 62.1152C90.6126 63.723 89.5054 64.5401 88.6242 65.0554C88.1828 65.3169 87.7968 65.5026 87.4723 65.6744C87.3164 65.7564 87.1668 65.85 87.0248 65.9545C86.8802 66.0589 86.7592 66.1928 86.6696 66.3476C86.6526 66.3785 86.6419 66.4017 86.6311 66.4265C86.6096 66.4776 86.585 66.5364 86.5558 66.6137C86.442 66.9093 86.2482 67.4525 85.9837 68.2154C84.1383 73.5433 78.8481 89.5071 74.9035 101.61C74.3296 103.412 73.1802 104.973 71.634 106.05C70.1672 107.066 68.428 107.611 66.6468 107.611C65.4691 107.613 64.3037 107.37 63.2239 106.897C62.144 106.424 61.1732 105.732 60.3724 104.863L53.0845 97.065L52.7631 97.3745L53.1291 97.6205C53.1291 97.6205 57.5504 90.9432 62.0809 83.229C64.3461 79.3696 66.6391 75.2487 68.4245 71.5641C69.318 69.7226 70.0839 67.9894 70.6575 66.4466C71.2311 64.9038 71.6125 63.5544 71.734 62.4526C71.8956 60.6583 72.4525 58.9228 73.3641 57.3722C74.0279 56.2859 74.8245 55.2877 75.7355 54.4011C77.1287 53.0083 78.8112 51.7054 80.6673 50.2693C82.5235 48.8332 84.5258 47.261 86.5588 45.3174C87.5338 44.3889 88.3766 43.7622 89.0901 43.3784C89.8037 42.9946 90.3819 42.8507 90.8464 42.8507C91.1167 42.8457 91.3851 42.8984 91.6337 43.0054C91.836 43.0959 92.022 43.2193 92.1843 43.3706C92.4892 43.664 92.7378 44.0112 92.9178 44.3951C93.1848 44.9623 93.3791 45.5613 93.4961 46.1778C93.5468 46.4377 93.5807 46.6575 93.5991 46.8107C93.6083 46.8881 93.616 46.9484 93.6191 46.9886C93.6222 47.0289 93.6191 47.0242 93.6191 47.0335V47.0443L94.4972 46.9794L94.508 46.9917Z" fill="#231F20"/>
<path d="M70.63 116.698C70.63 116.698 66.7233 53.7197 35.0603 55.3051C3.39729 56.8904 1.53895 75.3031 1.13422 78.756C0.516314 84.148 2.29897 115.929 11.3466 117.246C20.3943 118.563 70.63 116.698 70.63 116.698Z" fill="#2F3841"/>
<path d="M71.132 116.247L71.6145 116.218C71.6145 116.196 70.6526 101.048 65.8198 85.8576C63.4011 78.2615 60.0173 70.65 55.2623 64.904C52.884 62.0318 50.1602 59.6255 47.0395 57.9342C43.8054 56.1735 40.1647 55.2581 36.4665 55.2759C36.0711 55.2759 35.6716 55.2861 35.268 55.3064C27.246 55.6976 21.0886 57.1321 16.3569 59.1259C12.8098 60.6247 10.0642 62.4412 7.9427 64.3678C4.34477 67.5894 1.90063 71.8637 0.972854 76.5564C0.773626 77.551 0.686465 78.3394 0.630432 78.816C0.54112 79.7642 0.502155 80.7163 0.513697 81.6684C0.513697 86.3801 1.10049 94.8838 2.70364 102.397C3.50522 106.154 4.55895 109.661 5.94264 112.339C6.63683 113.677 7.41195 114.811 8.30069 115.663C8.72319 116.076 9.20194 116.43 9.7233 116.714C10.2225 116.984 10.7663 117.164 11.3296 117.248C11.9522 117.335 12.7304 117.4 13.6643 117.466C16.4566 117.646 20.5936 117.717 25.4 117.717C43.525 117.717 71.16 116.714 71.16 116.714L71.6535 116.696L71.6239 116.212L71.1414 116.241L71.1242 115.769L70.813 115.779C67.714 115.889 42.3686 116.769 25.4062 116.769C22.2093 116.769 19.3096 116.739 16.9157 116.665C15.7204 116.629 14.6495 116.581 13.7343 116.522C12.8191 116.462 12.044 116.4 11.465 116.319C11.0144 116.251 10.5796 116.106 10.1809 115.889C9.40266 115.475 8.66334 114.78 7.97539 113.844C6.77224 112.206 5.74342 109.842 4.89981 107.109C3.63441 103.009 2.77524 98.0753 2.23515 93.4568C1.76782 89.546 1.51428 85.6135 1.47559 81.6761C1.46356 80.7582 1.49993 79.8403 1.58455 78.926C1.63591 78.4998 1.70751 77.8566 1.85693 77.0514C2.20056 75.1694 2.79996 73.3411 3.63908 71.6156C5.17686 68.4607 7.89445 64.8933 12.8222 61.9615C17.75 59.0297 24.9019 56.7548 35.3116 56.2476C35.6996 56.2282 36.0831 56.2185 36.4618 56.2185C39.9973 56.2003 43.4781 57.0752 46.5695 58.7592C49.1843 60.1755 51.5284 62.1204 53.6249 64.4701C57.2966 68.5661 60.2088 73.8553 62.4968 79.4837C65.9334 87.9278 67.974 97.1327 69.1522 104.222C69.7406 107.766 70.1141 110.782 70.3398 112.91C70.4519 113.98 70.5281 114.815 70.5764 115.391C70.5997 115.679 70.6168 115.9 70.6277 116.048C70.6277 116.123 70.6371 116.18 70.6402 116.216C70.6433 116.253 70.6402 116.273 70.6402 116.273L71.1211 116.242L71.104 115.77L71.132 116.247Z" fill="#231F20"/>
<path d="M17.697 102.362C17.6881 102.362 16.6321 102.581 15.3107 102.964C14.6469 103.155 13.9146 103.386 13.2106 103.656C12.5322 103.904 11.8791 104.213 11.2598 104.579L11.8206 105.433C12.3832 105.102 12.9764 104.822 13.5925 104.597C14.548 104.242 15.5229 103.938 16.5128 103.687C16.9289 103.578 17.2824 103.494 17.53 103.438L17.8193 103.373L17.8939 103.357H17.9133L17.6956 102.367L17.697 102.362Z" fill="#231F20"/>
<path d="M122.854 83.431C123.32 86.2408 123.786 90.0572 122.986 90.4899C122.093 90.9657 117.318 89.6444 114.494 88.8019C110.244 90.1089 105.659 89.8524 101.586 88.0797C97.513 86.3071 94.2274 83.1381 92.3363 79.1585C90.4452 75.1789 90.0766 70.6577 91.2985 66.4306C92.5205 62.2034 95.2503 58.5559 98.9837 56.1623C102.717 53.7688 107.201 52.7908 111.608 53.4093C116.015 54.0278 120.046 56.2009 122.956 59.5269C125.867 62.853 127.46 67.1071 127.441 71.5032C127.422 75.8992 125.793 80.14 122.854 83.4417V83.431Z" fill="#ED4D4D"/>
<path d="M123.27 83.4165L122.724 83.5041C122.867 84.3528 123.009 85.2921 123.117 86.1962C123.222 87.019 123.281 87.8469 123.293 88.6761C123.301 89.0368 123.271 89.3973 123.205 89.7523C123.188 89.8407 123.16 89.9265 123.12 90.0075L123.107 90.029L123.161 90.0736L123.115 90.0213L123.107 90.029L123.161 90.0736L123.115 90.0213L123.225 90.149L123.145 89.9952L123.115 90.0137L123.225 90.1413L123.145 89.9875L123.173 90.0398L123.148 89.986L123.177 90.0382L123.151 89.9844C123.111 89.9952 123.071 90.0029 123.03 90.0075C122.948 90.0164 122.866 90.0205 122.784 90.0198C122.279 90.0035 121.776 89.9464 121.281 89.8491C120.353 89.6862 119.23 89.4202 118.103 89.1281C116.976 88.836 115.865 88.5131 114.947 88.2456L114.789 88.1979L114.631 88.2471C110.442 89.5188 105.922 89.2701 101.906 87.547C97.8903 85.8239 94.6507 82.7428 92.7858 78.8732C90.9209 75.0036 90.5568 70.6071 91.7609 66.4963C92.965 62.3855 95.6558 58.8383 99.336 56.5103C103.016 54.1823 107.437 53.2309 111.781 53.8319C116.126 54.4329 120.1 56.5457 122.969 59.7798C125.839 63.0139 127.41 67.1507 127.391 71.4256C127.373 75.7004 125.767 79.8243 122.87 83.0352L122.697 83.2273L122.739 83.478L123.285 83.3903L123.699 83.747C126.756 80.3529 128.448 75.9959 128.465 71.4807C128.481 66.9654 126.819 62.5969 123.787 59.182C120.755 55.7671 116.557 53.5365 111.968 52.9021C107.38 52.2677 102.71 53.2723 98.8228 55.7305C94.9352 58.1887 92.0919 61.9344 90.818 66.2758C89.5442 70.6172 89.9259 75.261 91.8925 79.3496C93.8592 83.4382 97.2781 86.6954 101.518 88.5196C105.757 90.3438 110.531 90.6118 114.958 89.2741L114.8 88.7606L114.642 89.2757C115.872 89.6401 117.465 90.0921 118.966 90.4534C119.717 90.6348 120.445 90.7947 121.098 90.9146C121.658 91.0244 122.226 91.0871 122.796 91.1022C122.95 91.104 123.103 91.0937 123.255 91.0714C123.407 91.0507 123.553 91.0055 123.689 90.9377C123.787 90.8854 123.875 90.8173 123.95 90.7363C124.062 90.609 124.149 90.4625 124.207 90.3042C124.294 90.0622 124.351 89.8108 124.376 89.5555C124.408 89.2557 124.424 88.9544 124.422 88.653C124.409 87.7837 124.348 86.9158 124.237 86.0532C124.128 85.1307 123.983 84.1698 123.838 83.3104L123.293 83.3965L123.707 83.7532L123.27 83.4165Z" fill="#231F20"/>
<path d="M105.99 17.8109L105.898 17.6576L105.99 17.8109L105.898 17.6576L105.99 17.8109C106.667 17.4429 107.37 17.1227 108.094 16.8529C109.35 16.3777 111.004 15.9147 112.629 15.9163C113.217 15.9125 113.802 15.9799 114.373 16.1171C115.248 16.3265 116.054 16.7514 116.713 17.3511C117.414 17.9903 118.032 18.884 118.497 20.1655C118.905 21.2187 119.124 22.3323 119.147 23.4581C119.158 24.1917 119.024 24.9205 118.751 25.6042C118.427 26.4132 117.856 27.1056 117.115 27.5877C116.486 27.9995 115.747 28.2237 114.99 28.2331C114.527 28.2428 114.07 28.1334 113.665 27.9158C113.305 27.7174 113.027 27.4023 112.88 27.0251C112.796 26.8092 112.752 26.5802 112.751 26.3491C112.771 25.8221 112.948 25.312 113.258 24.8806C113.762 24.128 114.637 23.3953 115.718 22.8649C116.859 22.3006 118.118 22.0025 119.396 21.9942C120.751 21.9828 122.08 22.3556 123.222 23.0672C124.929 24.1341 126.346 25.5889 127.352 27.3072C128.366 29.0407 128.901 31.0023 128.903 32.9988C128.885 35.1227 128.311 37.2069 127.237 39.0538C125.397 42.3004 123.743 44.494 122.555 45.8736C121.96 46.5619 121.481 47.0462 121.154 47.3559C120.997 47.5092 120.867 47.6226 120.784 47.6931L120.693 47.7698L120.672 47.7866L120.877 48.035L120.672 47.7851L120.877 48.0334L120.672 47.7836L121.36 48.6221C121.413 48.5791 124.463 46.1786 128.196 39.578C129.361 37.5726 129.982 35.3102 130 33.005C129.998 30.8231 129.414 28.6793 128.306 26.7845C127.213 24.914 125.672 23.3307 123.814 22.1705C122.495 21.3464 120.961 20.9125 119.396 20.9212C117.489 20.9274 115.63 21.5041 114.068 22.5736C113.39 23.0359 112.805 23.6164 112.342 24.2859C111.912 24.8909 111.673 25.6054 111.654 26.3415C111.654 26.7047 111.723 27.0649 111.857 27.4038C112.094 28.008 112.537 28.5137 113.112 28.8355C113.688 29.148 114.338 29.3066 114.996 29.2954C115.629 29.2925 116.256 29.1685 116.841 28.9305C117.817 28.5358 118.65 27.8647 119.233 27.0037C119.861 26.084 120.253 24.8914 120.252 23.455C120.23 22.2066 119.989 20.971 119.539 19.8022C119.241 18.9539 118.812 18.1548 118.268 17.4323C117.588 16.5391 116.677 15.8382 115.629 15.4012C114.677 15.019 113.655 14.8292 112.626 14.8433C110.777 14.8433 108.995 15.3583 107.662 15.8642C106.895 16.1518 106.15 16.4935 105.433 16.8866L105.99 17.8063V17.8109Z" fill="#231F20"/>
<path d="M47.6549 32.9589C49.5005 41.1647 45.3659 47.5151 41.8684 49.7665C38.3709 52.0179 32.5579 53.1952 32.5579 53.1952L33.0825 55.6932L39.0689 55.4574C39.3046 55.442 39.5232 55.5129 39.403 55.7148C38.6502 56.9947 37.7535 58.1867 36.7299 59.2683C34.8698 61.2307 32.5516 62.7142 29.9773 63.5896C27.403 64.4649 24.6509 64.7055 21.9608 64.2904C17.3688 63.5723 16.6974 61.2485 15.8573 59.7614C15.6918 59.4686 15.976 59.464 16.2977 59.3577L20.4665 57.6903L18.226 50.9254C18.058 50.874 17.8932 50.8127 17.7326 50.742C16.0322 50.0285 10.2957 46.9111 6.58584 36.3476C2.19211 23.827 14.3693 16.327 14.3693 16.327L11.3262 14.6489L15.5841 15.6012L16.3476 12.2834V15.7199L23.6861 13.4839C37.2077 10.6115 42.8911 18.4043 45.6735 25.9382C46.5947 28.4454 47.1943 30.9156 47.6549 32.9589Z" fill="white"/>
<path d="M47.1226 32.7823L46.5957 32.9C46.8837 34.1876 47.0304 35.503 47.0332 36.8227C47.0423 39.5466 46.375 42.2299 45.0919 44.6294C43.9503 46.7503 42.4589 48.337 41.1169 49.2132C40.2269 49.7777 39.2885 50.261 38.3128 50.6575C36.933 51.2239 35.5195 51.7037 34.0805 52.0941C33.4919 52.2489 33.002 52.3774 32.6538 52.4594L32.2547 52.5507L32.15 52.5724H32.1253H32.1161L31.5876 52.6808L32.3071 56.1716L38.678 55.9162H38.7088C38.7179 55.9143 38.7274 55.9143 38.7365 55.9162L38.755 55.8063L38.718 55.91H38.7365L38.755 55.8001L38.718 55.9038L38.832 55.5833L38.5871 55.8217C38.6233 55.8617 38.6681 55.893 38.718 55.9131L38.832 55.5926L38.5871 55.8217L38.8952 55.5323L38.5023 55.6871C38.5222 55.7347 38.5498 55.7786 38.584 55.8171L38.8921 55.5276L38.4992 55.6824L38.8937 55.5276H38.4684C38.4692 55.5807 38.4797 55.6331 38.4992 55.6824L38.8937 55.5276H38.8459L38.4854 55.4131C38.4737 55.4501 38.468 55.4888 38.4684 55.5276H38.8459L38.4854 55.4131L38.735 55.492L38.5069 55.3604C38.4977 55.3771 38.4905 55.3947 38.4854 55.4131L38.735 55.492L38.5069 55.3604C37.7843 56.6105 36.9238 57.7747 35.9417 58.8311C34.1701 60.741 31.9593 62.1851 29.5031 63.0369C27.0469 63.8887 24.4203 64.1221 21.8534 63.7167C20.959 63.5917 20.0875 63.3361 19.2665 62.9582C18.8306 62.7515 18.4239 62.4876 18.0571 62.1733C17.6202 61.7882 17.2491 61.3338 16.9585 60.8281C16.6812 60.3637 16.4655 59.8869 16.2175 59.4349L16.1589 59.4643L16.219 59.4395L16.1604 59.4689L16.2205 59.4441L15.9386 59.5587H16.2467C16.2473 59.5196 16.2405 59.4807 16.2267 59.4441L15.9448 59.5587H15.8338L16.2113 59.7259C16.2342 59.6731 16.2462 59.6163 16.2467 59.5587H15.8338L16.2113 59.7259L15.8369 59.5603L16.1343 59.8435C16.1663 59.809 16.1924 59.7692 16.2113 59.7259L15.8369 59.5603L16.1343 59.8435L15.9216 59.6408L16.048 59.9086C16.0808 59.893 16.1102 59.8709 16.1343 59.8435L15.9216 59.6408L16.048 59.9086L16.0264 59.8637L16.0464 59.9101L16.0249 59.8652L16.0449 59.9117C16.0449 59.9117 16.085 59.8977 16.1404 59.8822C16.1959 59.8668 16.2729 59.8451 16.3592 59.8157H16.3746L20.9706 57.9441L18.507 50.3881L18.2296 50.3092C18.0866 50.2656 17.9462 50.2139 17.809 50.1544C17.0294 49.82 15.2591 48.9005 13.2331 46.7595C11.2071 44.6186 8.9191 41.2547 7.10876 36.0146C6.51451 34.3359 6.20564 32.5686 6.19512 30.7869C6.1995 28.7167 6.64279 26.6713 7.49548 24.7867C8.66796 22.155 10.4398 20.0822 11.9219 18.6751C12.5193 18.106 13.1484 17.5716 13.8062 17.0744C14.0451 16.8948 14.2376 16.7648 14.3686 16.6703L14.5227 16.5697L14.5596 16.5465H14.5674L14.518 16.4676L14.5674 16.5465L14.518 16.4676L14.5674 16.5465L15.3377 16.0604L14.8 15.7586L15.8785 16.0047L16.7521 12.1516L16.2267 12.0309H15.6874V16.2183L23.6329 13.7554L23.4788 13.2384L23.5928 13.7678C25.3128 13.3814 27.0689 13.1801 28.8313 13.1671C31.1624 13.1671 33.1607 13.5712 34.8924 14.2693C37.4885 15.3174 39.4915 17.0279 41.0753 19.0868C42.6592 21.1457 43.8101 23.5452 44.6744 25.9354C45.5711 28.4122 46.1566 30.8689 46.6095 32.9139L47.1365 32.7962L47.6634 32.6786C47.2012 30.6182 46.6111 28.1134 45.6882 25.5576C44.5003 22.2773 42.7732 18.9196 40.0877 16.3607C38.6959 15.0267 37.064 13.9712 35.2792 13.2507C33.4133 12.4984 31.2733 12.0711 28.8159 12.0711C26.9791 12.0835 25.1488 12.2911 23.3556 12.6903H23.334L16.7644 14.7369V12.0185L16.7721 7.16541L15.065 14.6966L11.3981 13.8591L7.75586 13.0294L14.0173 16.5465L14.2808 16.0821L13.9957 15.6177C12.3433 16.7316 10.8508 18.0682 9.56004 19.5899C8.32121 21.0174 7.29471 22.6177 6.51251 24.3409C5.59809 26.3648 5.12278 28.5611 5.11816 30.7838C5.12884 32.6862 5.45801 34.5733 6.09189 36.366C7.94075 41.7377 10.315 45.2471 12.452 47.5026C14.5889 49.7581 16.4902 50.7643 17.3822 51.1482C17.5625 51.2281 17.7471 51.2973 17.9353 51.3557L18.0817 50.834L17.5702 51.0027L19.624 57.3172L15.9771 58.8033L16.1789 59.3048L16.0095 58.7909L15.8554 58.8389C15.8107 58.8512 15.7629 58.8652 15.7013 58.8838C15.6555 58.8987 15.6107 58.9168 15.5673 58.9379C15.4678 58.9845 15.3795 59.0521 15.3084 59.1361C15.2092 59.2562 15.1548 59.4073 15.1544 59.5634C15.1547 59.6433 15.1677 59.7228 15.1929 59.7987C15.213 59.8598 15.2388 59.9189 15.2699 59.9751C15.464 60.3219 15.6643 60.7491 15.9263 61.2136C16.3781 62.0493 17.0097 62.7733 17.7751 63.3328C18.6795 63.9861 19.9229 64.5109 21.6839 64.7911C22.5548 64.9298 23.4352 64.9997 24.317 65C26.6457 64.9975 28.9493 64.5154 31.0853 63.5835C33.2214 62.6516 35.1448 61.2897 36.7367 59.5819C37.7745 58.4658 38.6836 57.2356 39.4468 55.9146C39.4766 55.8627 39.5009 55.8077 39.5192 55.7505C39.54 55.6828 39.5509 55.6124 39.5515 55.5415C39.5516 55.4666 39.5386 55.3922 39.513 55.3217C39.4734 55.2076 39.403 55.1069 39.3097 55.0307C39.2132 54.955 39.101 54.9021 38.9815 54.8759C38.8915 54.8555 38.7995 54.8451 38.7072 54.8449H38.6148L38.6487 55.3867L38.6271 54.8449L33.1761 55.0632L32.7524 53.0043L32.2239 53.1142L32.3333 53.6437C32.3441 53.6437 33.7924 53.3341 35.6828 52.7566C36.6273 52.4625 37.6857 52.0987 38.7273 51.6606C39.7634 51.2379 40.76 50.7235 41.7055 50.1234C43.2277 49.1234 44.8146 47.4159 46.0379 45.1496C47.407 42.5914 48.1193 39.7304 48.1102 36.8258C48.1076 35.427 47.9526 34.0327 47.648 32.6678L47.1226 32.7823Z" fill="#231F20"/>
<path d="M45.0393 26.0987C42.1814 23.8327 37.9851 20.677 37.9851 20.677C37.9851 20.677 35.691 24.3906 30.8125 26.9963C25.934 29.6019 20.4671 28.3163 20.4671 28.3163C21.5979 30.4793 20.0983 33.7036 20.0983 33.7036C20.0983 33.7036 11.5659 32.0611 12.8981 39.5554C14.2303 47.0498 20.908 43.7631 20.5254 44.8337C20.2566 45.5973 18.5279 49.1692 17.54 51.1811C15.8667 50.4595 10.2214 47.3069 6.57063 36.6241C2.24682 23.9621 14.2303 16.3774 14.2303 16.3774L11.2386 14.6756L15.4288 15.6387L16.1801 12.2834V15.7587L23.4018 13.4974C36.7144 10.5988 42.3058 18.4796 45.0393 26.0987Z" fill="#231F20"/>
<path d="M15.3542 37.5712C15.7584 38.0548 16.2254 38.4802 16.7424 38.8357C17.9595 39.6941 19.362 40.242 20.8312 40.433L20.9842 39.2722C19.6974 39.106 18.4688 38.6276 17.4019 37.8773C17.0907 37.6571 16.798 37.4109 16.5269 37.1414C16.4315 37.046 16.3625 36.9741 16.3181 36.9172L16.2704 36.8621L16.2621 36.8503L16.2457 36.8621L16.2621 36.8503L16.2457 36.8621L16.2621 36.8503L15.3542 37.5712Z" fill="#231F20"/>
<path d="M24.7241 31.7324L24.7152 31.7231L24.7241 31.7324L24.7152 31.7231L24.7241 31.7324C25.1211 31.4254 25.5536 31.1719 26.0114 30.978C27.1149 30.4966 28.3002 30.2532 29.4961 30.2624C30.5043 30.268 31.5069 30.4182 32.4759 30.7089L32.756 29.6589C31.6941 29.3425 30.5959 29.1792 29.4917 29.1736C28.1226 29.164 26.7666 29.451 25.5093 30.0167C24.9908 30.2432 24.5021 30.5381 24.0552 30.894L24.7197 31.7324H24.7241Z" fill="#231F20"/>
<path d="M45.0394 26.8463C45.0272 26.8463 44.4692 26.6569 43.6262 26.4721C42.597 26.2399 41.5474 26.1161 40.4936 26.1026C39.8875 26.0973 39.2826 26.1588 38.6893 26.2858C38.2457 26.3813 37.816 26.5352 37.4111 26.7438C36.7825 27.0614 36.2562 27.5572 35.8948 28.1722C35.4912 28.9104 35.2915 29.7472 35.3171 30.5928C35.3171 32.2727 35.91 34.4494 37.3231 37.3621L38.2723 36.8777C36.8986 34.0535 36.3755 32.0041 36.377 30.5928C36.3597 30.0034 36.4786 29.4182 36.7242 28.8849C36.8737 28.5788 37.0827 28.3073 37.3383 28.0868C37.7454 27.7513 38.2212 27.5141 38.7302 27.3928C39.309 27.2504 39.9029 27.1826 40.4982 27.191C41.4771 27.2041 42.4521 27.3201 43.4079 27.5372C43.8066 27.6242 44.1372 27.7111 44.3661 27.7763L44.63 27.854L44.6982 27.8757H44.7134L45.0394 26.8417V26.8463Z" fill="#231F20"/>
<path d="M40.5417 35.8509H40.6728H40.5417H40.6728H40.5417V35.8734C40.5338 36.4364 40.4531 36.9935 40.3031 37.5207C40.1929 37.9097 40.0248 38.2656 39.8088 38.5676C39.5607 38.9072 39.2448 39.1471 38.8977 39.2598L39.1284 40.433C39.6369 40.2653 40.1002 39.9149 40.467 39.4207C40.8932 38.8134 41.1896 38.0675 41.3257 37.2594C41.4097 36.8062 41.4537 36.3417 41.4568 35.8751V35.8267L40.5391 35.8526L40.5417 35.8509Z" fill="#231F20"/>
<path d="M42.9124 30.9482C43.0169 31.2867 43.0187 31.6486 42.9175 31.9882C42.8163 32.3277 42.6167 32.6296 42.3439 32.8557C42.0711 33.0817 41.7373 33.2218 41.3849 33.2582C41.0325 33.2947 40.6771 33.2258 40.3639 33.0602C40.0506 32.8947 39.7934 32.64 39.6249 32.3284C39.4564 32.0167 39.3842 31.6621 39.4172 31.3094C39.4503 30.9566 39.5873 30.6216 39.8108 30.3467C40.0343 30.0718 40.3343 29.8694 40.6729 29.765C40.8976 29.6955 41.1339 29.6709 41.3681 29.6928C41.6023 29.7147 41.8299 29.7825 42.0379 29.8924C42.2459 30.0023 42.4302 30.1521 42.5803 30.3333C42.7303 30.5144 42.8432 30.7234 42.9124 30.9482Z" fill="#231F20"/>
<path d="M31.6411 33.6875C31.7605 34.0744 31.7626 34.4881 31.6469 34.8761C31.5312 35.2642 31.3031 35.6092 30.9913 35.8676C30.6796 36.126 30.2982 36.2862 29.8954 36.3278C29.4926 36.3694 29.0865 36.2906 28.7285 36.1015C28.3705 35.9123 28.0766 35.6212 27.884 35.265C27.6914 34.9087 27.6088 34.5034 27.6466 34.1003C27.6844 33.6971 27.841 33.3142 28.0964 33C28.3518 32.6858 28.6947 32.4544 29.0816 32.3351C29.6004 32.1751 30.1614 32.2277 30.6414 32.4813C31.1214 32.7349 31.481 33.1688 31.6411 33.6875Z" fill="#231F20"/>
<path d="M99.8032 37.5655C99.8 41.4948 98.8685 45.3693 97.0824 48.8811C95.2963 52.3928 92.705 55.4451 89.5144 57.7954C86.3237 60.1457 82.6216 61.7292 78.7023 62.4202C74.7829 63.1111 70.7543 62.8904 66.9365 61.7757C62.959 63.9317 56.7252 66.8977 54.3831 65.7796C51.5166 64.4229 53.9149 57.0017 54.9573 54.1743C52.2319 51.1016 50.3022 47.4226 49.3334 43.4526C48.3646 39.4825 48.3857 35.3398 49.3949 31.3795C50.404 27.4193 52.3711 23.7596 55.1276 20.7141C57.8841 17.6686 61.3478 15.3283 65.2217 13.8935C69.0956 12.4588 73.2643 11.9726 77.3703 12.4765C81.4764 12.9804 85.3975 14.4594 88.7974 16.7867C92.1973 19.114 94.9747 22.2203 96.8916 25.8393C98.8084 29.4582 99.8075 33.4819 99.8032 37.5655Z" fill="#ED4D4D"/>
<path d="M93.6614 37.6386C93.6592 40.7089 92.9419 43.7365 91.5664 46.4806C90.1909 49.2248 88.1951 51.6099 85.7377 53.4465C83.2803 55.283 80.4289 56.5204 77.4102 57.0604C74.3914 57.6003 71.2885 57.4279 68.348 56.5568C65.2843 58.2388 60.4827 60.5594 58.679 59.6949C56.471 58.6358 58.3201 52.8349 59.1209 50.6273C57.025 48.2266 55.5415 45.353 54.7974 42.2527C54.0533 39.1524 54.0708 35.9177 54.8483 32.8256C55.6259 29.7335 57.1403 26.8762 59.262 24.4983C61.3837 22.1205 64.0494 20.2929 67.0308 19.1722C70.0122 18.0514 73.2205 17.6709 76.3809 18.0632C79.5413 18.4555 82.5597 19.6089 85.1775 21.4246C87.7953 23.2404 89.9346 25.6643 91.4122 28.489C92.8897 31.3136 93.6615 34.4547 93.6614 37.6433V37.6386Z" fill="#ED4D4D"/>
<path d="M98.2181 37.3401H97.6507C97.6458 41.0633 96.7725 44.7341 95.1002 48.0613C93.4278 51.3885 91.0025 54.2805 88.0166 56.5079C85.0307 58.7353 81.5663 60.2368 77.8984 60.8932C74.2305 61.5496 70.46 61.3429 66.886 60.2895L66.6598 60.2213L66.4649 60.3343C64.6709 61.3312 62.826 62.2337 60.9377 63.0382C60.0391 63.4176 59.1185 63.7428 58.181 64.0122C57.4506 64.238 56.6933 64.3651 55.9292 64.3901C55.5881 64.4048 55.248 64.3443 54.9329 64.2128C54.7714 64.134 54.628 64.0225 54.5118 63.8855C54.3068 63.6227 54.1635 63.3171 54.0927 62.9914C53.9906 62.5442 53.9428 62.0864 53.9503 61.6278C53.9503 60.3538 54.2389 58.7876 54.6152 57.3422C54.9914 55.8968 55.4496 54.5332 55.7693 53.6527L55.8824 53.341L55.664 53.0916C53.1163 50.1795 51.3128 46.6937 50.4082 42.9328C49.5036 39.1719 49.5248 35.248 50.4699 31.4971C51.415 27.7461 53.2558 24.2799 55.8349 21.3954C58.4139 18.5108 61.6542 16.2938 65.2784 14.9342C68.9025 13.5745 72.8024 13.1129 76.6442 13.5886C80.4859 14.0644 84.155 15.4635 87.3373 17.666C90.5196 19.8685 93.1201 22.8089 94.9163 26.2353C96.7125 29.6617 97.6507 33.4721 97.6507 37.3401H98.7737C98.7739 33.2907 97.7919 29.3017 95.9117 25.7145C94.0315 22.1273 91.3092 19.049 87.9778 16.743C84.6465 14.437 80.8054 12.9721 76.7835 12.4739C72.7617 11.9756 68.6789 12.4587 64.8847 13.8819C61.0906 15.3051 57.6983 17.6259 54.9982 20.6456C52.2981 23.6653 50.3707 27.2939 49.3811 31.2207C48.3915 35.1474 48.3692 39.2554 49.3161 43.1926C50.263 47.1299 52.1508 50.7792 54.8179 53.828L55.241 53.4598L54.7126 53.265C54.3851 54.1708 53.9172 55.552 53.5273 57.0597C53.1374 58.5675 52.8293 60.198 52.8274 61.6337C52.8101 62.3533 52.9237 63.0701 53.1627 63.7492C53.2791 64.0607 53.4472 64.3505 53.6598 64.6063C53.8775 64.8656 54.148 65.0754 54.4533 65.2219C54.9195 65.4273 55.4258 65.5258 55.935 65.5102C56.7945 65.4845 57.6468 65.345 58.4695 65.0953C59.9676 64.6504 61.429 64.0903 62.8405 63.42C64.3222 62.7401 65.7649 61.9882 66.9912 61.3161L66.7261 60.8272L66.5662 61.3648C70.3082 62.4712 74.2569 62.6903 78.0985 62.0046C81.9401 61.319 85.5687 59.7476 88.696 57.4153C91.8233 55.0829 94.3631 52.0539 96.1135 48.569C97.864 45.0841 98.7768 41.2393 98.7796 37.3401H98.2181Z" fill="#231F20"/>
<path d="M62.1851 41.9686C64.5878 41.9686 66.5355 40.0209 66.5355 37.6182C66.5355 35.2156 64.5878 33.2678 62.1851 33.2678C59.7824 33.2678 57.8347 35.2156 57.8347 37.6182C57.8347 40.0209 59.7824 41.9686 62.1851 41.9686Z" fill="white"/>
<path d="M73.9566 41.9686C76.3593 41.9686 78.307 40.0209 78.307 37.6182C78.307 35.2156 76.3593 33.2678 73.9566 33.2678C71.5539 33.2678 69.6062 35.2156 69.6062 37.6182C69.6062 40.0209 71.5539 41.9686 73.9566 41.9686Z" fill="white"/>
<path d="M85.2166 41.9686C87.6193 41.9686 89.567 40.0209 89.567 37.6182C89.567 35.2156 87.6193 33.2678 85.2166 33.2678C82.8139 33.2678 80.8662 35.2156 80.8662 37.6182C80.8662 40.0209 82.8139 41.9686 85.2166 41.9686Z" fill="white"/>
<path d="M102.224 68.2958C102.224 68.2958 100.232 67.0379 102.224 64.2435C104.215 61.4491 108.201 60.6793 110.265 60.9595C112.328 61.2397 117.735 62.8455 117.163 68.2958C116.59 73.7461 112.459 73.258 111.613 74.3003C110.766 75.3427 111.338 77.7953 109.271 77.7953C107.203 77.7953 106.419 77.2349 106.419 73.8123C106.419 70.3897 109.62 71.0409 111.47 69.3474C113.32 67.6538 111.196 64.8686 109.275 65.6369C107.355 66.4051 105.996 71.0209 102.224 68.2958Z" fill="white"/>
<path d="M110.551 80.8646C110.551 81.2696 110.417 81.6655 110.164 82.0024C109.911 82.3393 109.551 82.6019 109.131 82.7571C108.71 82.9123 108.247 82.953 107.8 82.8742C107.353 82.7954 106.942 82.6005 106.62 82.3142C106.298 82.028 106.078 81.6632 105.989 81.266C105.9 80.8689 105.946 80.4572 106.12 80.083C106.294 79.7088 106.589 79.389 106.968 79.164C107.347 78.939 107.792 78.8188 108.248 78.8188C108.858 78.8192 109.444 79.0349 109.875 79.4184C110.307 79.8019 110.55 80.322 110.551 80.8646Z" fill="white"/>
<path d="M20.427 100.449L25.7431 95.8571L38.3159 82.5781C38.3159 82.5781 38.2213 73.4828 39.4608 71.2279C40.7002 68.973 44.3224 71.2279 44.1719 77.4099C44.1719 77.4099 48.3804 63.7013 50.1768 64.5498C51.9731 65.3983 53.2792 65.3705 52.5858 67.375C52.5858 67.375 54.0006 66.0072 55.7985 67.375C57.5964 68.7427 56.6005 70.109 56.6005 70.109C56.6005 70.109 57.5188 68.5867 59.2376 69.8756C60.9564 71.1646 60.2707 72.3098 60.2707 72.3098L56.9573 80.6694C56.9573 80.6694 63.4058 74.577 63.9596 76.5259C64.5134 78.4748 64.8205 78.0977 63.7502 79.5659C62.6798 81.0342 51.2083 89.6843 51.2083 89.6843L33.9228 111.13C24.091 121.851 18.6306 122.505 16.4418 122.324C-0.660675 120.913 1.6119 79.5675 1.6119 79.5675L23.4054 80.1362L25.5461 96.6299" fill="white"/>
<path d="M20.775 100.844L26.1087 96.2404L38.8397 82.8056V82.5941V82.4798C38.8397 82.4041 38.8397 82.2929 38.8397 82.1509C38.8397 81.2243 38.8583 79.0006 39.0087 76.7754C39.0847 75.662 39.1933 74.5486 39.3468 73.6066C39.4129 73.1829 39.5009 72.7628 39.6103 72.3481C39.6818 72.0584 39.7858 71.7776 39.9204 71.5111C40.0124 71.3286 40.1495 71.1723 40.3189 71.0571C40.4512 70.9713 40.606 70.9261 40.7639 70.9274C41.0749 70.9444 41.3727 71.0584 41.6151 71.2532C42.0942 71.6007 42.6105 72.2601 42.9966 73.2314C43.3827 74.2027 43.6447 75.4844 43.6447 77.0642C43.6447 77.1831 43.6447 77.3035 43.6447 77.424L43.5532 81.2212L44.6711 77.583L44.682 77.5475C44.7967 77.1754 45.7968 73.9695 46.9876 70.8718C47.5189 69.4439 48.1324 68.0477 48.8249 66.69C49.0561 66.2341 49.3313 65.8018 49.6467 65.3991C49.7324 65.2896 49.832 65.1915 49.9428 65.1072C49.9652 65.0906 49.9897 65.0771 50.0157 65.0671L49.9986 64.9945V65.0686H50.0157L49.9986 64.996V64.9373L49.9413 65.0578C49.9591 65.0666 49.9788 65.0709 49.9986 65.0701V64.9373L49.9413 65.0578C50.3258 65.24 50.6824 65.3805 50.9925 65.5041C51.2251 65.5967 51.4328 65.6817 51.6034 65.762C51.7147 65.8116 51.8225 65.8689 51.9259 65.9334C52.0223 65.9925 52.1044 66.0721 52.1662 66.1666C52.2175 66.2612 52.2422 66.3679 52.2375 66.4754C52.2258 66.7336 52.1735 66.9884 52.0825 67.2305L51.3693 69.2998L52.9399 67.7818L52.7197 67.5564L52.9368 67.7849L52.7166 67.5594L52.9337 67.788C53.0445 67.6915 53.1669 67.609 53.2981 67.5425C53.5601 67.403 53.8522 67.3288 54.1493 67.3263C54.3522 67.3267 54.5536 67.3617 54.7447 67.4297C55.003 67.5228 55.2448 67.6563 55.461 67.8251C55.7524 68.0312 55.9948 68.2984 56.1711 68.608C56.2715 68.7925 56.3247 68.9988 56.3262 69.2087C56.3254 69.3719 56.2927 69.5335 56.2301 69.6843C56.2114 69.7282 56.1901 69.771 56.1665 69.8125L56.151 69.8403L56.3882 69.9947L56.1556 69.8295L56.3929 69.9839L56.1603 69.8187L56.5867 70.1275L57.0379 70.3977L56.7479 70.2263L57.0348 70.4024L56.7479 70.2263L57.0348 70.4024C57.1074 70.2998 57.1941 70.2078 57.2921 70.129C57.3745 70.0654 57.4653 70.0135 57.5619 69.9746C57.6712 69.9304 57.7882 69.9078 57.9061 69.9082C58.05 69.9105 58.1922 69.9382 58.3263 69.9901C58.5349 70.0723 58.7306 70.1835 58.9078 70.3205C59.2314 70.5448 59.5032 70.8354 59.7047 71.1729C59.805 71.3469 59.8584 71.5437 59.8598 71.7443C59.8602 71.8349 59.8466 71.925 59.8194 72.0115C59.8086 72.0408 59.8008 72.0609 59.7962 72.0701L60.0846 72.2246L59.8024 72.0562V72.0655L60.0908 72.2199L59.8086 72.0516L59.7869 72.0887L55.585 82.6929L57.3077 81.0653L57.32 81.0545C57.4549 80.9263 58.655 79.8067 60.0102 78.7273C60.6526 78.2042 61.3257 77.7195 62.0258 77.2757C62.2974 77.1056 62.5814 76.9559 62.8755 76.8279C62.9803 76.7841 63.0881 76.7475 63.198 76.7183C63.265 76.6987 63.3343 76.6878 63.4042 76.6858C63.4206 76.6835 63.4373 76.6835 63.4538 76.6858L63.4693 76.6411L63.4445 76.6812H63.4538L63.4693 76.6364L63.4445 76.6766L63.4864 76.6117L63.4212 76.6565L63.4445 76.6766L63.4864 76.6117L63.4212 76.6565L63.4336 76.6472L63.4212 76.655L63.4336 76.6457L63.4212 76.6534C63.4255 76.6617 63.4286 76.6705 63.4305 76.6797C63.5856 77.197 63.7096 77.5614 63.798 77.8178C63.843 77.9459 63.874 78.0463 63.8926 78.1189C63.9061 78.1662 63.9139 78.2149 63.9158 78.264C63.915 78.2908 63.9103 78.3173 63.9019 78.3428C63.8636 78.4519 63.8115 78.5557 63.7468 78.6516C63.6492 78.8061 63.5034 79.0053 63.3096 79.2693C63.2272 79.3733 63.1381 79.4718 63.0429 79.5643C62.7933 79.816 62.4072 80.165 61.9328 80.5742C60.2691 82.0103 57.4999 84.1892 55.154 86.0022C53.9803 86.9102 52.912 87.7271 52.1368 88.3185L51.2189 89.0165L50.8809 89.2713L50.8281 89.3099L33.5092 110.792L33.92 111.121L33.5309 110.767C29.0189 115.687 25.4497 118.451 22.7317 119.98C21.6442 120.611 20.4844 121.109 19.2772 121.464C18.5387 121.68 17.7739 121.794 17.0042 121.804C16.815 121.804 16.6445 121.794 16.491 121.782C14.9681 121.663 13.498 121.173 12.2101 120.355C11.0643 119.614 10.0531 118.684 9.21915 117.606C7.65781 115.647 6.41587 113.103 5.44526 110.259C3.98625 105.992 3.13348 101.052 2.65437 96.4056C2.24927 92.3812 2.049 88.3389 2.05433 84.2942C2.05433 82.855 2.07914 81.683 2.10395 80.8707C2.11635 80.4646 2.12876 80.1495 2.13806 79.9349C2.13806 79.8283 2.13806 79.7465 2.14891 79.6924C2.14891 79.6647 2.14891 79.6446 2.14891 79.6307V79.6106L1.6233 79.5828L1.60934 80.1063L22.9426 80.6622L25.0264 96.6944L26.0683 96.5601L23.8713 79.6461L1.12869 79.0531L1.10078 79.5612C1.10078 79.5689 1 81.3988 1 84.302C1 87.0337 1.08838 90.7121 1.43414 94.7178C1.69112 97.8401 2.11917 100.946 2.71639 104.022C3.64669 108.688 5.06229 113.181 7.23918 116.632C8.32452 118.355 9.61143 119.821 11.1325 120.902C12.6793 122.014 14.5026 122.682 16.4041 122.834C16.584 122.847 16.784 122.858 17.0042 122.858C17.8704 122.849 18.7312 122.721 19.5625 122.478C21.113 122.043 23.0961 121.158 25.5365 119.45C27.977 117.742 30.8826 115.213 34.3077 111.479L34.3185 111.466L51.6158 90.0218L51.2065 89.6944L51.5166 90.1114C51.5166 90.1114 54.3865 87.9494 57.3914 85.6007C58.8938 84.4271 60.4303 83.2071 61.6614 82.1848C62.2816 81.6737 62.8181 81.212 63.2429 80.8275C63.4569 80.6349 63.6399 80.4615 63.7918 80.3071C63.9247 80.1776 64.048 80.0388 64.1608 79.8917C64.4213 79.5334 64.6058 79.274 64.7438 79.0423C64.8133 78.9257 64.8699 78.802 64.9128 78.6733C64.9539 78.5444 64.9753 78.4101 64.9764 78.2748C64.9746 78.1398 64.9564 78.0055 64.9221 77.8749C64.8741 77.6865 64.8074 77.5043 64.7283 77.2742C64.6492 77.0441 64.5546 76.7677 64.4508 76.4048C64.4199 76.2906 64.3707 76.1821 64.305 76.0836C64.2039 75.9319 64.0621 75.8115 63.8957 75.7361C63.7433 75.6697 63.5783 75.6365 63.4119 75.6388C63.2489 75.6406 63.0868 75.6635 62.9297 75.7068C62.6063 75.7977 62.2943 75.9246 61.9994 76.0851C61.3807 76.4256 60.7874 76.8101 60.2241 77.2356C59.3124 77.9089 58.4054 78.6733 57.7216 79.2724C57.0379 79.8716 56.5805 80.3024 56.5774 80.3071L56.9386 80.6869L57.4286 80.8784L60.7389 72.5272L60.2505 72.3342L60.7017 72.6029C60.7492 72.5197 60.7877 72.4317 60.8164 72.3404C60.8802 72.1481 60.9122 71.9468 60.911 71.7443C60.9086 71.3652 60.8088 70.9931 60.6211 70.6633C60.3488 70.1956 59.9786 69.7916 59.5357 69.4789C59.2781 69.2805 58.9929 69.1203 58.6891 69.0033C58.438 68.9054 58.1712 68.8531 57.9015 68.8489C57.6352 68.8475 57.3715 68.9 57.1262 69.0033C56.8495 69.1244 56.6005 69.3004 56.3944 69.5206C56.2975 69.6206 56.2113 69.7303 56.137 69.848L57.0146 70.4225C57.0918 70.3086 57.1568 70.1869 57.2084 70.0596C57.3405 69.7455 57.3998 69.4058 57.3821 69.0658C57.3644 68.7258 57.2701 68.3941 57.1061 68.0953C56.8583 67.6515 56.5159 67.2672 56.1029 66.9695C55.7991 66.7323 55.4588 66.5456 55.0951 66.4167C54.7927 66.3105 54.4746 66.2557 54.1539 66.2546C53.6649 66.258 53.1848 66.385 52.7585 66.6236C52.5608 66.7287 52.3774 66.8584 52.2127 67.0097L52.5786 67.3849L53.0764 67.5548C53.2073 67.2039 53.28 66.8341 53.2919 66.46C53.293 66.2827 53.2673 66.1062 53.2159 65.9365C53.1724 65.795 53.1081 65.6608 53.0252 65.5381C52.8856 65.3388 52.7081 65.1688 52.5027 65.0377C52.1938 64.8491 51.8671 64.6908 51.5274 64.5652C51.1739 64.4231 50.794 64.2764 50.3971 64.0896C50.274 64.0313 50.1396 64.0008 50.0033 64C49.8751 64.0009 49.7483 64.026 49.6296 64.0741C49.4197 64.1625 49.2298 64.2923 49.0714 64.4555C48.7249 64.8199 48.4263 65.2267 48.183 65.6662C47.5913 66.7207 47.0697 67.8128 46.6217 68.9354C45.8464 70.8023 45.1099 72.8793 44.5642 74.4946C44.0184 76.1098 43.6664 77.2572 43.6649 77.2603L44.1688 77.4147L44.6928 77.4271C44.6928 77.2974 44.6928 77.1692 44.6928 77.0426C44.6928 74.7834 44.1998 73.0276 43.4742 71.8092C43.1609 71.2569 42.739 70.7732 42.2338 70.3869C41.8118 70.0602 41.2966 69.8752 40.7624 69.8588C40.4028 69.8586 40.0508 69.9616 39.7483 70.1553C39.4293 70.368 39.17 70.6582 38.9948 70.9984C38.8198 71.337 38.6845 71.6945 38.5917 72.064C38.3811 72.8973 38.2313 73.7447 38.1436 74.5996C37.9792 76.0187 37.8893 77.5938 37.8412 78.9713C37.7932 80.3487 37.7839 81.527 37.7839 82.1416C37.7839 82.4304 37.7839 82.5941 37.7839 82.5956H38.3095L37.9281 82.2358L25.3799 95.4853L20.085 100.053L20.7734 100.845L20.775 100.844Z" fill="#231F20"/>
<path d="M52.2372 67.5828L49.1104 73.8415L50.078 74.2363L53.2048 67.9761" fill="#231F20"/>
<path d="M56.3999 69.6299L53.2048 75.2184L54.1043 75.7716L57.2993 70.1831" fill="#231F20"/>
</svg>
