<svg width="126" height="130" viewBox="0 0 126 130" fill="none" xmlns="http://www.w3.org/2000/svg">
<g clip-path="url(#clip0_2176_1256)">
<path d="M115.531 92.566C114.901 94.33 30.872 97.692 30.0347 91.072C29.3907 85.99 30.6049 58.34 31.9586 45.732C32.3693 41.912 32.7899 39.472 33.1767 39.462C33.1767 39.462 114.407 37.014 114.339 38.342C114.323 38.65 114.415 41.63 114.552 46.048C115.013 60.708 116.014 91.216 115.531 92.566Z" fill="#EE4947"/>
<path d="M115.531 92.566L114.873 92.332L115.422 92.532L115.035 92.084C114.959 92.1505 114.902 92.2361 114.869 92.332L115.418 92.532L115.035 92.084L115.252 92.336L115.097 92.04C115.074 92.0518 115.053 92.0666 115.035 92.084L115.252 92.336L115.097 92.04C115.049 92.0594 115.001 92.0761 114.951 92.09C114.694 92.1586 114.434 92.214 114.172 92.256C113.522 92.368 112.589 92.486 111.43 92.606C107.369 93.022 100.507 93.446 92.4525 93.766C84.3981 94.086 75.1435 94.3 66.2756 94.3C56.8914 94.3 47.9339 94.058 41.3089 93.45C37.9974 93.148 35.2641 92.75 33.3841 92.25C32.65 92.0823 31.9399 91.8222 31.2708 91.476C31.1013 91.3865 30.9471 91.2704 30.8142 91.132C30.7325 91.038 30.7245 90.994 30.7225 90.974C30.6647 90.532 30.6208 89.86 30.5929 89.014C30.565 88.168 30.5491 87.148 30.5491 85.988C30.5491 76.068 31.5559 55.968 32.6464 45.788C32.8458 43.888 33.0591 42.334 33.2565 41.28C33.3243 40.8877 33.4176 40.5002 33.5356 40.12C33.5555 40.062 33.5735 40.016 33.5874 39.986L33.6073 39.944L33.3123 39.744L33.5276 40.022C33.5589 40.0006 33.586 39.9734 33.6073 39.942L33.3123 39.742L33.5276 40.02L33.1927 39.588L33.392 40.096C33.4386 40.077 33.4822 40.0514 33.5216 40.02L33.1867 39.588L33.386 40.096L33.1628 39.542L33.1767 40.142C33.2486 40.1421 33.3197 40.1278 33.386 40.1L33.1628 39.546L33.1767 40.146L33.7469 40.13C36.538 40.046 49.2975 39.672 63.8713 39.318C78.445 38.964 94.813 38.632 104.839 38.632C107.734 38.632 110.099 38.66 111.727 38.722C112.541 38.754 113.173 38.794 113.573 38.84C113.708 38.8527 113.841 38.8741 113.972 38.904H113.984L114.104 38.546L113.888 38.852C113.918 38.8735 113.95 38.891 113.984 38.904L114.104 38.546L113.888 38.852L114.241 38.348L113.739 38.698C113.779 38.7579 113.83 38.8101 113.888 38.852L114.241 38.348L113.739 38.698L114.277 38.324L113.657 38.536C113.677 38.5934 113.705 38.6479 113.739 38.698L114.277 38.324L113.657 38.536L114.287 38.322H113.639C113.64 38.3948 113.652 38.4671 113.675 38.536L114.305 38.322H113.639C113.638 38.352 113.638 38.382 113.639 38.412V38.434L114.327 38.318L113.631 38.28C113.631 38.33 113.631 38.374 113.631 38.436C113.631 38.614 113.631 38.916 113.645 39.342C113.677 40.618 113.749 42.986 113.845 46.046C114.03 52.008 114.307 60.59 114.536 68.766C114.766 76.942 114.949 84.71 114.949 89.032C114.949 90.032 114.949 90.832 114.919 91.414C114.909 91.706 114.895 91.94 114.881 92.106C114.881 92.188 114.867 92.254 114.859 92.294C114.861 92.3066 114.861 92.3194 114.859 92.332L115.121 92.398L114.867 92.306V92.332L115.129 92.398L114.875 92.306L115.533 92.54L116.189 92.778C116.206 92.7309 116.219 92.6828 116.229 92.634C116.247 92.5535 116.26 92.472 116.269 92.39C116.287 92.242 116.299 92.064 116.311 91.852C116.345 91.218 116.359 90.252 116.359 89.03C116.359 84.674 116.175 76.904 115.946 68.724C115.717 60.544 115.44 51.962 115.252 46C115.188 43.96 115.135 42.228 115.097 40.924C115.079 40.272 115.063 39.724 115.053 39.306C115.043 38.888 115.039 38.584 115.039 38.434V38.352V38.274L115.027 38.198L114.393 38.306L115.027 38.202L114.393 38.31L115.027 38.206L114.345 38.318H115.035C115.038 38.2807 115.038 38.2433 115.035 38.206L114.353 38.318H115.035C115.036 38.2212 115.017 38.1252 114.979 38.036C114.951 37.9632 114.911 37.8957 114.861 37.836C114.802 37.764 114.73 37.7036 114.648 37.658C114.561 37.6073 114.467 37.5689 114.369 37.544C114.202 37.4993 114.032 37.4672 113.861 37.448C113.52 37.406 113.075 37.372 112.521 37.342C110.858 37.254 108.213 37.218 104.857 37.218C94.1352 37.218 76.2141 37.598 60.9665 37.976C45.7189 38.354 33.1528 38.734 33.1528 38.734C33.0549 38.7363 32.9582 38.7566 32.8677 38.794C32.7409 38.8472 32.6283 38.9294 32.5387 39.034C32.4302 39.1641 32.3439 39.3115 32.2835 39.47C32.1658 39.7759 32.0731 40.091 32.0064 40.412C31.8788 40.978 31.7552 41.708 31.6296 42.584C31.504 43.46 31.3804 44.484 31.2588 45.628C30.1643 55.916 29.1595 76 29.1575 86C29.1575 87.172 29.1714 88.2 29.2013 89.074C29.2312 89.948 29.2751 90.642 29.3409 91.164C29.3897 91.5038 29.5406 91.8205 29.7735 92.072C29.9903 92.3103 30.2433 92.5128 30.5231 92.672C31.175 93.0323 31.8687 93.3104 32.5886 93.5C34.0499 93.918 35.9778 94.258 38.2646 94.542C41.7056 94.966 45.994 95.256 50.7808 95.442C55.5676 95.628 60.8529 95.708 66.2796 95.708C77.8708 95.708 90.104 95.342 99.4922 94.854C104.187 94.612 108.169 94.338 111.012 94.054C112.433 93.916 113.568 93.778 114.381 93.64C114.717 93.5889 115.05 93.5174 115.378 93.426C115.507 93.3883 115.632 93.3395 115.753 93.28C115.824 93.2412 115.891 93.1949 115.952 93.142C116.058 93.0511 116.138 92.9338 116.185 92.802L115.531 92.566Z" fill="#231F20"/>
<path d="M114.552 46.048C92.4544 46.958 40.7865 45.92 31.9585 45.732C32.3692 41.912 32.7899 39.472 33.1766 39.462C33.1766 39.462 114.407 37.014 114.339 38.342C114.323 38.65 114.415 41.63 114.552 46.048Z" fill="#231F20"/>
<path d="M42.0485 61.456C42.0485 61.456 36.5439 64.684 35.6986 66.472C34.8533 68.26 44.6402 74.358 44.6402 74.358C44.6402 74.358 44.3193 74.99 44.6402 72.73C44.9612 70.47 39.3052 67.05 39.6202 66.472C39.9352 65.894 44.3452 61.6 44.6582 61.456C44.9712 61.312 44.0043 58.752 42.0485 61.456Z" fill="white"/>
<path d="M49.8418 59.352C49.8418 59.352 45.7747 69.502 45.996 71.01C46.2173 72.518 48.4462 72.4 49.8418 67.332C51.2374 62.264 52.6828 57.538 49.8418 59.352Z" fill="white"/>
<path d="M55.4599 60.224C55.4599 60.224 62.8804 62.39 63.0359 65.404C63.1914 68.418 56.7499 73.464 55.9643 72.834C55.1788 72.204 55.4221 71.258 55.4579 70.468C55.4938 69.678 60.2627 66.332 58.9788 65.404C57.6949 64.476 52.28 62.12 55.4599 60.224Z" fill="white"/>
<path d="M69.3239 54.072L68.6282 54.036C68.6282 54.036 68.3829 58.946 68.3829 64.2C68.3829 67.112 68.4587 70.128 68.6979 72.5C68.7834 73.5165 68.9535 74.524 69.2063 75.512C69.3027 75.8784 69.4447 76.2312 69.629 76.562C69.7179 76.716 69.8273 76.8573 69.954 76.982C70.0948 77.1191 70.2644 77.223 70.4504 77.286C70.6954 77.3585 70.9462 77.4093 71.2 77.438C71.6266 77.494 72.151 77.53 72.761 77.552C73.3711 77.574 74.0689 77.586 74.8285 77.586C77.195 77.586 80.1875 77.492 83.0783 77.398C85.9691 77.304 88.7602 77.21 90.7001 77.21C91.2543 77.21 91.7368 77.21 92.1276 77.234C92.4138 77.2422 92.6994 77.2669 92.9828 77.308C93.0485 77.3207 93.1153 77.3267 93.1822 77.326C93.3718 77.3242 93.5577 77.274 93.7225 77.18C93.8558 77.1026 93.9745 77.0024 94.0734 76.884C94.2424 76.6755 94.377 76.4412 94.4721 76.19C94.671 75.654 94.8153 75.0992 94.9028 74.534C95.0897 73.3584 95.2108 72.1732 95.2656 70.984C95.3434 69.624 95.3792 68.114 95.3792 66.544C95.3792 62.84 95.1799 58.806 94.8609 55.654C94.7411 54.3324 94.5488 53.0184 94.2847 51.718C94.1955 51.2879 94.0674 50.8668 93.9019 50.46C93.8329 50.289 93.741 50.1282 93.6288 49.982C93.5631 49.8989 93.4866 49.8249 93.4015 49.762C93.2903 49.68 93.1622 49.624 93.0267 49.598C92.933 49.582 92.8413 49.572 92.7296 49.562C92.3489 49.528 91.7547 49.508 90.9752 49.496C90.1957 49.484 89.2367 49.476 88.1562 49.476C85.385 49.476 81.8223 49.512 78.5267 49.548C75.2312 49.584 72.2008 49.62 70.5062 49.62C70.0736 49.62 69.7287 49.62 69.4934 49.62C69.3778 49.62 69.294 49.62 69.2382 49.61H69.2023L69.1585 49.996L69.2382 49.616H69.2023L69.1585 50.002L69.2382 49.622L69.1106 50.222L69.31 49.636C69.2881 49.6277 69.2654 49.6217 69.2422 49.618L69.1146 50.218L69.314 49.632L69.0987 50.278L69.4974 49.722C69.4432 49.6842 69.3842 49.6539 69.322 49.632L69.1066 50.278L69.5054 49.722C69.4553 49.6856 69.4002 49.6567 69.3419 49.636C69.263 49.606 69.1791 49.591 69.0947 49.592C68.9114 49.5919 68.7354 49.6637 68.6042 49.792C68.5388 49.8536 68.4854 49.9268 68.4467 50.008C68.4157 50.0717 68.3922 50.1388 68.377 50.208C68.3649 50.2741 68.3569 50.3409 68.353 50.408C68.353 50.47 68.353 50.532 68.353 50.608C68.353 50.872 68.373 51.208 68.4029 51.588C68.4906 52.716 68.664 54.164 68.666 54.168L69.3578 54.086L68.6621 54.05L69.3578 54.086L70.0516 54.002C70.0516 54.002 70.0516 53.962 70.0377 53.892C70.0098 53.642 69.936 53.002 69.8702 52.33C69.8383 51.994 69.8064 51.65 69.7845 51.346C69.7626 51.042 69.7486 50.772 69.7486 50.608C69.7486 50.568 69.7486 50.534 69.7486 50.512V50.48L69.4974 50.446L69.7446 50.502V50.48L69.4934 50.446L69.7406 50.502L69.1864 50.378L69.6728 50.666C69.7034 50.615 69.7263 50.5597 69.7406 50.502L69.1864 50.378L69.6728 50.666L69.1007 50.328L69.4994 50.86C69.5695 50.8057 69.6278 50.7377 69.6709 50.66L69.0987 50.322L69.4974 50.854L69.0887 50.308L69.316 50.952C69.3809 50.9284 69.4421 50.8954 69.4974 50.854L69.0887 50.308L69.316 50.952L69.0867 50.306V50.992C69.1648 50.9909 69.2421 50.9774 69.316 50.952L69.0867 50.306L68.8514 50.948C68.9268 50.9757 69.0064 50.9899 69.0867 50.99V50.3L68.8514 50.942L69.0827 50.312L68.6999 50.862C68.7472 50.8944 68.798 50.9213 68.8514 50.942L69.0827 50.312L68.6999 50.862C68.7529 50.8993 68.8106 50.9296 68.8714 50.952C68.9149 50.967 68.9596 50.9784 69.005 50.986C69.0459 50.9929 69.0871 50.9975 69.1286 51C69.2542 51.01 69.4196 51.014 69.6549 51.018C69.8902 51.022 70.1812 51.018 70.5281 51.018C72.2407 51.018 75.2691 50.982 78.5646 50.946C81.8602 50.91 85.4188 50.874 88.1781 50.874C89.4062 50.874 90.4768 50.874 91.2902 50.9C91.689 50.9 92.0378 50.918 92.301 50.932C92.4326 50.932 92.5422 50.946 92.63 50.954C92.7177 50.962 92.7775 50.97 92.7974 50.974L92.8812 50.512L92.608 50.896C92.6677 50.9368 92.7359 50.9635 92.8074 50.974L92.8891 50.512L92.616 50.896L92.7536 50.696L92.5682 50.846C92.5822 50.8621 92.5983 50.8762 92.616 50.888L92.7536 50.688L92.5682 50.838C92.6062 50.9012 92.6376 50.9683 92.6619 51.038C92.769 51.3239 92.855 51.6174 92.919 51.916C93.0706 52.586 93.2181 53.496 93.3497 54.562C93.7484 57.762 93.9976 62.362 93.9976 66.522C93.9976 69.206 93.89 71.708 93.6567 73.5C93.5989 73.948 93.5331 74.35 93.4573 74.7C93.4117 74.9281 93.3544 75.1537 93.2859 75.376C93.2334 75.5714 93.1528 75.758 93.0466 75.93L93.0207 75.962L93.0785 76.026L93.0307 75.954L93.0885 76.018L93.0407 75.946L93.1822 76.146L93.1045 75.91C93.082 75.9172 93.0606 75.9273 93.0407 75.94L93.1822 76.14L93.1045 75.904L93.2061 76.214V75.888C93.1716 75.8881 93.1373 75.8935 93.1045 75.904L93.2061 76.214V76.196L93.26 75.892H93.2061V76.2L93.26 75.896C92.916 75.843 92.5691 75.8117 92.2213 75.802C91.7986 75.784 91.2982 75.776 90.732 75.776C88.7503 75.776 85.9472 75.87 83.0643 75.964C80.1815 76.058 77.191 76.152 74.8604 76.152C73.8635 76.152 72.9843 76.134 72.2925 76.094C71.9476 76.074 71.6486 76.048 71.4113 76.016C71.2422 75.998 71.0748 75.9659 70.9109 75.92L70.8571 76.088L70.9508 75.938C70.9384 75.9301 70.925 75.9241 70.9109 75.92L70.8571 76.088L70.9508 75.938L70.9229 75.982L70.9568 75.94L70.9289 75.984L70.9627 75.942C70.9393 75.9212 70.9191 75.8969 70.9029 75.87C70.7987 75.7028 70.7169 75.5226 70.6597 75.334C70.4733 74.7166 70.3399 74.0843 70.261 73.444C70.0935 72.266 69.9819 70.79 69.9141 69.19C69.8463 67.59 69.7785 65.892 69.7785 64.2C69.7785 61.6 69.8403 59.07 69.9021 57.2C69.932 56.264 69.9639 55.49 69.9878 54.952C69.9978 54.682 70.0078 54.472 70.0158 54.328C70.0237 54.184 70.0257 54.11 70.0257 54.11V54.052V53.992L69.3239 54.072Z" fill="white"/>
<path d="M71.2398 71.4L71.2517 71.382C71.3754 71.198 72.4898 69.554 73.7877 67.982C74.3919 67.23 75.051 66.5241 75.7594 65.87C76.0162 65.6333 76.2953 65.4224 76.5928 65.24C76.6882 65.1828 76.789 65.1352 76.8938 65.098C76.9426 65.078 76.9947 65.0672 77.0474 65.066H77.0573L77.0733 65.008L77.0474 65.062H77.0573L77.0733 65.004L77.0474 65.058C77.3205 65.188 77.7551 65.458 78.2635 65.752C79.1398 66.2969 80.0442 66.7949 80.9729 67.244C81.468 67.4773 81.9798 67.6732 82.504 67.83C83.0107 67.9833 83.5359 68.0661 84.0651 68.076C84.5306 68.0815 84.9922 67.9903 85.4208 67.808C85.8738 67.6065 86.2683 67.2926 86.5671 66.896C87.0722 66.225 87.542 65.5281 87.9747 64.808C88.6266 63.742 89.2147 62.692 89.7171 61.942C89.9083 61.6408 90.1279 61.3588 90.373 61.1C90.4318 61.0388 90.4989 60.9863 90.5724 60.944H90.5904L90.5445 60.81V60.95C90.5596 60.9532 90.5752 60.9532 90.5904 60.95L90.5445 60.816V60.724L90.4628 60.942C90.4892 60.9507 90.5167 60.9554 90.5445 60.956V60.724L90.4628 60.942L90.9592 59.632C90.8266 59.582 90.6861 59.5563 90.5445 59.556C90.3861 59.5569 90.2292 59.5874 90.082 59.646C89.8408 59.7485 89.6215 59.8965 89.436 60.082C89.089 60.4351 88.7809 60.8247 88.5169 61.244C88.0624 61.932 87.5879 62.766 87.0775 63.616C86.5866 64.4607 86.0481 65.2767 85.4646 66.06C85.3097 66.2699 85.1038 66.4365 84.8665 66.544C84.6138 66.6483 84.3423 66.6994 84.0691 66.694C83.5182 66.6729 82.9746 66.5607 82.4602 66.362C81.5325 66.0045 80.6385 65.5648 79.7886 65.048C79.368 64.802 78.9712 64.56 78.6144 64.348C78.2575 64.136 77.9385 63.948 77.6574 63.814C77.4705 63.725 77.2662 63.6793 77.0593 63.68C76.8472 63.6819 76.6368 63.7197 76.4373 63.792C76.0622 63.9395 75.7108 64.1416 75.3946 64.392C74.7409 64.9082 74.1362 65.484 73.5883 66.112C72.6912 67.112 71.8239 68.236 71.178 69.112C70.532 69.988 70.1074 70.63 70.1034 70.636L71.2617 71.416L71.2398 71.4Z" fill="white"/>
<path d="M78.5965 55.438L77.9725 55.75L78.1719 55.648L77.9725 55.75L78.1719 55.648L77.9725 55.75C78.1257 56.0748 78.2588 56.4088 78.3712 56.75C78.6014 57.4002 78.7292 58.0824 78.75 58.772C78.7523 59.0152 78.7242 59.2578 78.6663 59.494C78.6277 59.6479 78.5687 59.7959 78.4909 59.934C78.3734 60.1384 78.2077 60.3108 78.0084 60.436C77.72 60.6099 77.399 60.7222 77.0654 60.766C76.8201 60.8055 76.5722 60.8262 76.3237 60.828C76.0262 60.8319 75.7298 60.7908 75.4445 60.706C75.0558 60.588 74.7095 60.3594 74.4477 60.048C74.2488 59.8068 74.0868 59.5371 73.9672 59.248C73.7754 58.7871 73.6415 58.304 73.5685 57.81C73.4927 57.328 73.4608 56.878 73.4329 56.53H73.3651H73.4329H73.3651H73.4329C73.4424 56.4959 73.4572 56.4635 73.4768 56.434C73.5943 56.2659 73.7416 56.1208 73.9114 56.006C74.3141 55.7242 74.7562 55.5038 75.2232 55.352C75.7049 55.183 76.2103 55.0919 76.7205 55.082C77.0103 55.0701 77.2989 55.1255 77.5638 55.244C77.6466 55.2842 77.7211 55.3398 77.7831 55.408C77.8423 55.477 77.887 55.5573 77.9147 55.644L77.9306 55.692L77.9526 55.736L78.5766 55.424L79.2405 55.202C79.1525 54.9356 79.0114 54.69 78.8258 54.48C78.5609 54.1866 78.2231 53.9692 77.8469 53.85C77.483 53.7329 77.1026 53.6762 76.7205 53.682C76.202 53.6871 75.6865 53.7611 75.1873 53.902C74.4544 54.0937 73.7602 54.4118 73.1359 54.842C72.8542 55.035 72.6046 55.2712 72.3962 55.542C72.3022 55.6845 72.2265 55.8384 72.1709 56C72.1024 56.1718 72.0666 56.355 72.0653 56.54C72.0632 56.5766 72.0632 56.6134 72.0653 56.65C72.0932 56.992 72.1271 57.5 72.2188 58.064C72.2891 58.5214 72.3991 58.9718 72.5477 59.41C72.6688 59.7661 72.8279 60.1081 73.0222 60.43C73.3344 60.9567 73.7722 61.3972 74.2962 61.712C74.9172 62.0654 75.6219 62.2437 76.3357 62.228C76.6576 62.2268 76.9789 62.2001 77.2967 62.148C77.7656 62.0796 78.2186 61.9279 78.6344 61.7C79.2939 61.3284 79.7809 60.7112 79.9901 59.982C80.1042 59.5924 80.1606 59.1881 80.1576 58.782C80.1353 57.9298 79.9778 57.0865 79.691 56.284C79.5595 55.8913 79.4037 55.5072 79.2245 55.134L78.6005 55.448L79.2644 55.226L78.5965 55.438Z" fill="white"/>
<path d="M96.0431 52.252L95.3453 52.27C95.3453 52.27 95.5008 58.438 95.8737 64.61C96.0611 67.698 96.3003 70.786 96.6053 73.126C96.7168 74.0938 96.8886 75.0537 97.1197 76C97.1999 76.325 97.317 76.6397 97.4686 76.938C97.5446 77.083 97.6443 77.2142 97.7637 77.326C97.8404 77.3962 97.9279 77.4536 98.0228 77.496C98.1376 77.5478 98.2618 77.5751 98.3877 77.576H98.4435C98.6788 77.562 99.0177 77.53 99.4403 77.484C100.93 77.322 103.456 76.98 105.671 76.55C106.661 76.369 107.641 76.1319 108.605 75.84C108.963 75.7319 109.31 75.5913 109.642 75.42C109.79 75.3428 109.928 75.2474 110.053 75.136C110.121 75.0762 110.184 75.0092 110.238 74.936C110.303 74.8422 110.353 74.7381 110.384 74.628C110.402 74.5584 110.416 74.4875 110.425 74.416C110.443 74.286 110.459 74.13 110.473 73.934C110.525 73.254 110.569 72.098 110.603 70.634C110.637 69.17 110.657 67.41 110.657 65.54C110.657 62.082 110.585 58.258 110.388 55.276C110.323 54.0322 110.19 52.7929 109.989 51.564C109.945 51.326 109.897 51.11 109.845 50.914C109.779 50.643 109.678 50.3815 109.546 50.136C109.472 50.0045 109.375 49.8873 109.259 49.79C109.185 49.7277 109.102 49.6778 109.012 49.642C108.908 49.5991 108.796 49.5774 108.683 49.578C108.578 49.5778 108.474 49.5961 108.376 49.632C108.274 49.6654 108.17 49.6914 108.065 49.71C107.788 49.764 107.387 49.814 106.913 49.856C106.081 49.934 105.015 49.994 103.88 50.056C102.174 50.158 100.314 50.276 98.7844 50.502C98.1004 50.591 97.4258 50.7416 96.7688 50.952C96.4987 51.0402 96.2403 51.1611 95.9993 51.312C95.8815 51.3884 95.7719 51.4769 95.6723 51.576C95.5647 51.6841 95.4763 51.8099 95.4111 51.948L95.3394 52.1V52.266L96.0371 52.248L96.6671 52.55L96.5714 52.504L96.6592 52.562V52.55L96.5635 52.504L96.6512 52.562H96.6372H96.6512H96.6372H96.6512C96.6875 52.5242 96.7292 52.4918 96.7748 52.466C97.0459 52.3218 97.3348 52.2142 97.6341 52.146C98.5284 51.9378 99.4365 51.7948 100.351 51.718C101.946 51.556 103.757 51.466 105.308 51.37C106.085 51.32 106.797 51.27 107.393 51.208C107.69 51.176 107.959 51.14 108.191 51.098C108.409 51.0638 108.623 51.0109 108.833 50.94L108.659 50.466V50.97C108.718 50.9694 108.777 50.9592 108.833 50.94L108.659 50.466L108.42 50.912C108.494 50.9509 108.576 50.9714 108.659 50.972V50.466L108.42 50.912L108.595 50.586L108.322 50.838C108.35 50.8684 108.383 50.8934 108.42 50.912L108.595 50.586L108.322 50.838L108.42 50.746L108.312 50.826L108.322 50.838L108.42 50.746L108.312 50.826C108.345 50.8854 108.371 50.9476 108.392 51.012C108.48 51.2851 108.546 51.5646 108.591 51.848C108.707 52.484 108.809 53.346 108.892 54.352C109.142 57.37 109.231 61.68 109.231 65.526C109.231 67.794 109.199 69.902 109.153 71.496C109.132 72.296 109.104 72.958 109.076 73.448C109.062 73.692 109.048 73.892 109.034 74.036C109.034 74.108 109.02 74.166 109.014 74.206C109.015 74.2193 109.015 74.2327 109.014 74.246L109.237 74.296L109.018 74.236L109.241 74.286L109.022 74.226L109.385 74.326L109.082 74.096C109.054 74.1355 109.034 74.1795 109.022 74.226L109.385 74.326L109.082 74.096L109.209 74.192L109.096 74.08L109.082 74.096L109.209 74.192L109.096 74.08C109.047 74.1177 108.995 74.1505 108.94 74.178C108.673 74.3097 108.396 74.4181 108.111 74.502C107.309 74.7435 106.496 74.9437 105.675 75.102C104.263 75.386 102.668 75.636 101.304 75.824C100.623 75.918 99.9966 75.994 99.4842 76.052C98.9718 76.11 98.5631 76.148 98.3338 76.162L98.3777 76.862L98.3438 76.162L98.3657 76.634V76.162H98.3438L98.3657 76.634V76.666L98.5651 76.206C98.5023 76.1781 98.4345 76.1631 98.3657 76.162V76.666L98.5651 76.206L98.4056 76.566L98.6688 76.27C98.6377 76.2435 98.6027 76.2219 98.5651 76.206L98.4056 76.566L98.6688 76.27L98.5252 76.432L98.6847 76.286L98.6688 76.27L98.5252 76.432L98.6847 76.286L98.6209 76.346L98.6887 76.29L98.6249 76.35L98.6927 76.294C98.6667 76.2564 98.6447 76.2162 98.6269 76.174C98.5361 75.953 98.4634 75.7249 98.4096 75.492C98.2289 74.7174 98.0899 73.9336 97.9929 73.144C97.7657 71.458 97.5703 69.298 97.4068 67.018C97.1636 63.594 96.9901 59.892 96.8785 57.048C96.8226 55.624 96.7828 54.416 96.7549 53.564C96.7429 53.138 96.7329 52.802 96.7249 52.564C96.717 52.326 96.7249 52.212 96.7249 52.212L96.0272 52.228L96.6572 52.53L96.0431 52.252Z" fill="white"/>
<path d="M94.4702 14.55C94.4104 14.988 93.9079 16.254 93.1025 18.096C92.7038 18.988 92.2472 20.014 91.7289 21.146C86.0868 33.432 73.726 58.172 73.726 58.172L71.4213 59.116L68.5923 60.274L68.3232 57.33L67.8586 52.254L84.755 16.966L85.9512 14.45L87.3229 11.6C87.7036 10.814 94.8988 11.6 94.4702 14.55Z" fill="white"/>
<path d="M94.4701 14.55L93.7803 14.452C93.7736 14.4932 93.7643 14.534 93.7524 14.574C93.7245 14.684 93.6727 14.848 93.6009 15.05C93.3836 15.65 92.9889 16.612 92.4625 17.814C92.0738 18.7 91.6132 19.722 91.0949 20.852C88.2798 26.984 83.7781 36.238 79.9841 43.956C78.0882 47.816 76.3676 51.292 75.1196 53.802C74.4976 55.056 73.9912 56.07 73.6423 56.772L73.2435 57.572L73.104 57.854L73.728 58.168L73.4628 57.52L71.1582 58.462L69.2024 59.262L69.019 57.262L68.5724 52.378L85.387 17.264L86.5832 14.748L87.9449 11.906L87.5122 11.706L87.8332 12.064C87.881 12.0228 87.9191 11.9716 87.9449 11.914L87.5122 11.714L87.8332 12.072L87.6339 11.854L87.7774 12.112C87.7968 12.1016 87.8143 12.0881 87.8292 12.072L87.6299 11.854L87.7734 12.112L87.7375 12.048L87.7674 12.114L87.7315 12.05L87.7615 12.116C87.8397 12.0897 87.9206 12.0722 88.0027 12.064C88.1845 12.0411 88.3677 12.0304 88.5509 12.032C89.1115 12.0381 89.6705 12.093 90.2216 12.196C91.1187 12.3423 91.9853 12.6377 92.7855 13.07C93.076 13.2301 93.3332 13.4447 93.5431 13.702C93.6156 13.7949 93.674 13.898 93.7165 14.008C93.7526 14.108 93.7708 14.2136 93.7704 14.32C93.7709 14.3689 93.7675 14.4177 93.7604 14.466L94.4502 14.564L95.142 14.664C95.1578 14.55 95.1658 14.4351 95.1659 14.32C95.1668 13.9625 95.0842 13.6097 94.9247 13.29C94.7904 13.0226 94.6155 12.7777 94.4064 12.564C94.03 12.1941 93.5955 11.8886 93.1204 11.66C92.376 11.3023 91.5897 11.0402 90.7799 10.88C90.0469 10.7236 89.3003 10.6406 88.5509 10.632C88.2164 10.6254 87.8821 10.6556 87.5541 10.722C87.4016 10.7532 87.2541 10.805 87.1155 10.876C87.033 10.9184 86.956 10.9708 86.8862 11.032C86.7969 11.1126 86.7238 11.2097 86.6709 11.318L85.3292 14.146L84.133 16.662L67.1449 52.124L67.6274 57.4L67.9842 61.278L71.6865 59.764L74.2344 58.72L74.35 58.484C74.35 58.484 77.4422 52.298 81.2382 44.576C85.0341 36.854 89.5358 27.594 92.3628 21.438C92.8852 20.304 93.3597 19.274 93.7425 18.376C94.1252 17.478 94.4781 16.666 94.7174 16.05C94.837 15.742 94.9347 15.474 95.0104 15.25C95.0463 15.136 95.0782 15.032 95.1041 14.934C95.1296 14.8413 95.1496 14.7471 95.164 14.652L94.4701 14.55Z" fill="#231F20"/>
<path d="M44.9094 32.524C37.2637 32.524 32.8636 33.258 30.872 36.204C28.8803 39.15 28.4616 50.498 27.6243 53.966C26.9245 56.866 27.395 60.428 24.5062 61.272C23.8144 61.4526 23.0957 61.5062 22.3849 61.43C21.3681 61.148 20.8797 59.52 20.6803 57.48C20.2995 53.606 20.9614 48.242 21.0172 47.796C20.8896 48.35 19.0076 56.396 15.3652 56.908C14.9246 56.972 14.5159 57.012 14.1391 57.032C12.3448 57.128 11.2802 56.738 11.011 55.722C10.8535 55.122 10.9671 54.322 11.3659 53.282C11.2522 53.56 10.5445 54.926 8.01053 54.056C7.85103 54.002 7.68157 53.938 7.50613 53.856C4.85853 52.742 6.52724 49.116 7.233 47.81C7.3586 47.582 7.4543 47.426 7.49018 47.366C7.19331 47.7778 6.83645 48.1425 6.43154 48.448C5.52442 49.134 4.09097 49.708 2.30066 48.706C2.18901 48.644 2.07338 48.572 1.95575 48.494C-0.219347 47.064 0.8692 44.392 1.90192 42.694C2.2319 42.1496 2.60035 41.6296 3.00442 41.138C3.00442 41.138 11.1785 29.894 12.8532 22.954C14.5278 16.014 14.5298 11.71 14.5298 11.71L32.8716 9.76199C32.8716 9.76199 35.91 18.646 41.6697 22.85C47.4294 27.054 52.8841 25.794 53.5121 28.632C54.1401 31.47 53.8291 33.05 44.9094 32.524Z" fill="white"/>
<path d="M44.9095 32.524V31.824C41.0637 31.824 38.0113 32.006 35.607 32.58C34.5083 32.8202 33.4518 33.2247 32.4729 33.78C31.6084 34.2864 30.8673 34.9799 30.3038 35.81C29.9811 36.3186 29.7258 36.8673 29.5442 37.442C29.1327 38.7493 28.8228 40.0867 28.6172 41.442C28.2364 43.702 27.9553 46.242 27.7001 48.504C27.5725 49.634 27.4509 50.692 27.3293 51.604C27.2076 52.516 27.082 53.28 26.9545 53.804C26.7847 54.57 26.655 55.3444 26.5657 56.124C26.4899 56.69 26.4181 57.236 26.3225 57.74C26.2239 58.3994 26.0027 59.0344 25.6705 59.612C25.5262 59.843 25.3419 60.0462 25.1263 60.212C24.8875 60.3939 24.6171 60.5296 24.3288 60.612C23.9182 60.7232 23.494 60.7758 23.0688 60.768C22.88 60.768 22.6767 60.76 22.4587 60.744L22.4049 61.442L22.5903 60.766C22.536 60.7512 22.4846 60.7268 22.4388 60.694C22.3108 60.5994 22.2041 60.4788 22.1258 60.34C21.9171 59.9732 21.7652 59.5766 21.6752 59.164C21.5391 58.591 21.4451 58.0088 21.3941 57.422C21.3124 56.596 21.2805 55.686 21.2805 54.77C21.3013 52.4714 21.451 50.1758 21.729 47.894L20.3355 47.64C19.976 49.1623 19.4857 50.6506 18.8701 52.088C18.4511 53.0954 17.8993 54.0419 17.2293 54.902C16.9499 55.2502 16.6231 55.5572 16.2584 55.814C15.961 56.022 15.6199 56.1588 15.2616 56.214C14.8389 56.274 14.4501 56.3127 14.0953 56.33C13.9318 56.33 13.7763 56.344 13.6288 56.344C13.3329 56.347 13.0374 56.3242 12.7456 56.276C12.4677 56.2401 12.2021 56.1394 11.97 55.982C11.8993 55.9302 11.8379 55.8666 11.7886 55.794C11.7385 55.7159 11.7014 55.6301 11.6789 55.54L11.0051 55.72H11.7009V55.626L11.6789 55.538C11.6467 55.4126 11.6313 55.2835 11.6331 55.154C11.6626 54.5947 11.7901 54.0449 12.0099 53.53L10.714 53.014C10.6527 53.144 10.5635 53.2587 10.4528 53.35C10.3515 53.437 10.2354 53.5047 10.1099 53.55C9.91742 53.6158 9.71517 53.6482 9.51182 53.646C9.07506 53.6335 8.64333 53.549 8.23388 53.396C8.09033 53.348 7.93483 53.29 7.77534 53.222C7.59484 53.1495 7.42721 53.0482 7.27891 52.922C7.09943 52.7703 6.96208 52.5746 6.88018 52.354C6.79105 52.1025 6.74782 51.8369 6.75258 51.57C6.78021 50.9293 6.915 50.2979 7.15132 49.702C7.34649 49.1708 7.58038 48.6548 7.8511 48.158C7.90692 48.05 7.95875 47.958 7.99863 47.892C8.0385 47.826 8.0684 47.774 8.09033 47.74L6.92204 46.974C6.83019 47.1023 6.73101 47.2252 6.62499 47.342C6.43878 47.548 6.23388 47.7361 6.01293 47.904L6.43359 48.464V47.764H6.19635L6.01094 47.904C5.76215 48.0951 5.48848 48.2513 5.19752 48.368C4.88471 48.4963 4.55056 48.5641 4.21265 48.568C3.65883 48.5561 3.11755 48.4004 2.64163 48.116C2.55192 48.068 2.44227 48.004 2.3386 47.932C2.03884 47.7539 1.79271 47.4978 1.62633 47.1907C1.45996 46.8837 1.37953 46.5372 1.39359 46.188C1.40938 45.6486 1.52288 45.1166 1.72853 44.618C1.93786 44.0823 2.19544 43.5668 2.49809 43.078C2.76325 42.642 3.02641 42.278 3.2198 42.012C3.31749 41.882 3.39724 41.78 3.45306 41.712C3.47898 41.678 3.50091 41.654 3.51486 41.636L3.53081 41.618L3.54875 41.598L3.5647 41.576C3.5647 41.576 5.62416 38.742 7.89097 35.04C9.02536 33.186 10.2136 31.114 11.2304 29.058C12.2471 27.002 13.0885 24.962 13.5291 23.144C15.2197 16.144 15.2237 11.778 15.2237 11.734H14.5279L14.5997 12.43L32.9414 10.484L32.8697 9.786L32.2018 10C32.8387 11.7431 33.6037 13.4365 34.4905 15.066C35.3103 16.6057 36.2517 18.0771 37.3056 19.466C38.4302 20.9649 39.7598 22.2973 41.255 23.424C44.2456 25.61 47.1723 26.372 49.3354 26.938C50.416 27.218 51.3051 27.46 51.8873 27.756C52.1294 27.8675 52.3485 28.0235 52.5332 28.216C52.6795 28.3779 52.78 28.5761 52.8243 28.79C52.932 29.221 52.9949 29.662 53.0117 30.106C53.0138 30.2452 52.9997 30.3841 52.9699 30.52C52.9327 30.7074 52.8427 30.8803 52.7107 31.018C52.5706 31.1592 52.4057 31.2731 52.2242 31.354C51.7283 31.5704 51.2027 31.7107 50.6652 31.77C49.7575 31.8862 48.8428 31.939 47.9279 31.928C47.0706 31.928 46.0837 31.896 44.9533 31.83H44.9114V32.53L44.8716 33.23C46.0219 33.298 47.0347 33.33 47.9279 33.33C48.9216 33.3421 49.915 33.2833 50.9004 33.154C51.4333 33.0828 51.9572 32.9555 52.4635 32.774C52.7728 32.6609 53.0663 32.5083 53.3367 32.32C53.7015 32.0653 53.9908 31.7163 54.174 31.31C54.3357 30.9311 54.4152 30.5221 54.4073 30.11C54.3909 29.5643 54.3167 29.022 54.186 28.492C54.0891 28.0447 53.8766 27.6309 53.57 27.292C53.3089 27.009 53.0014 26.7729 52.6608 26.594C52.0085 26.2675 51.3217 26.0152 50.6133 25.842C49.465 25.526 48.1292 25.224 46.6778 24.706C45.0349 24.1354 43.4841 23.3269 42.0745 22.306C40.6851 21.25 39.4515 20.0023 38.4101 18.6C36.9813 16.6993 35.7576 14.6518 34.7597 12.492C34.347 11.616 34.036 10.872 33.8306 10.348C33.7269 10.086 33.6492 9.88 33.5974 9.748C33.5714 9.678 33.5535 9.62601 33.5395 9.59001L33.5256 9.55001L33.3442 9.022L13.8321 11.094V11.724C13.8321 11.812 13.8122 16.038 12.1754 22.804C11.7766 24.456 10.9792 26.426 9.98233 28.426C8.51397 31.3234 6.88251 34.1346 5.09584 36.846C4.33825 38.01 3.67236 38.986 3.19787 39.67C2.96062 40.01 2.77122 40.28 2.64163 40.47L2.49211 40.67L2.45423 40.724L2.44227 40.74L3.00647 41.152L2.47616 40.698C2.047 41.2167 1.65715 41.7669 1.30986 42.344C0.962571 42.9059 0.666956 43.4984 0.426667 44.114C0.161584 44.7685 0.0170266 45.4658 1.87587e-05 46.172C-0.00670279 46.7214 0.115549 47.2647 0.356888 47.758C0.638913 48.3008 1.0592 48.759 1.57502 49.086C1.69863 49.166 1.82821 49.246 1.97375 49.322L2.3067 48.708L1.96777 49.318C2.65123 49.7195 3.4267 49.9365 4.21863 49.948C4.73165 49.9468 5.23977 49.8477 5.71588 49.656C6.12365 49.4931 6.50732 49.2751 6.85626 49.008L6.43758 48.45V49.15H6.67284L6.85825 49.008C7.14937 48.7873 7.41965 48.5403 7.66569 48.27C7.80787 48.1124 7.941 47.9468 8.06442 47.774L7.49622 47.374L6.89812 47.012C6.88217 47.038 6.84429 47.098 6.79844 47.178C6.75258 47.258 6.69277 47.364 6.62499 47.486C6.3208 48.0444 6.05825 48.6247 5.83948 49.222C5.55003 49.9713 5.39024 50.7647 5.36698 51.568C5.35365 52.1569 5.49458 52.7389 5.77568 53.256C5.93275 53.5296 6.13499 53.7744 6.37378 53.98C6.63406 54.2013 6.92738 54.3801 7.24302 54.51C7.44239 54.592 7.61784 54.66 7.79328 54.72C8.34882 54.9213 8.93326 55.0307 9.52378 55.044C9.88958 55.0479 10.2532 54.9876 10.5984 54.866C10.993 54.7273 11.3457 54.4898 11.6231 54.176C11.7903 53.9907 11.9251 53.7783 12.0219 53.548L11.3639 53.28L10.712 53.028C10.4287 53.7024 10.2693 54.4227 10.2415 55.154C10.2403 55.4056 10.2711 55.6563 10.3332 55.9L11.0091 55.72H10.3113V55.81L10.3332 55.898C10.4157 56.2167 10.5675 56.5131 10.7778 56.766C10.9362 56.9515 11.1234 57.1102 11.332 57.236C11.6555 57.4286 12.0095 57.5639 12.3787 57.636C12.792 57.7149 13.212 57.7531 13.6327 57.75C13.8082 57.75 13.9876 57.75 14.173 57.734C14.5718 57.7127 15.0004 57.67 15.4589 57.606C16.0247 57.5206 16.5634 57.3065 17.0339 56.98C17.8593 56.42 18.5212 55.604 19.0874 54.696C19.8777 53.3591 20.5144 51.9367 20.9854 50.456C21.414 49.16 21.6493 48.152 21.6951 47.954L21.0153 47.8L20.3215 47.712C20.0374 50.0516 19.8843 52.4053 19.863 54.762C19.863 55.712 19.8949 56.664 19.9826 57.552C20.0552 58.5153 20.2564 59.4644 20.5807 60.374C20.7234 60.761 20.9296 61.1213 21.1907 61.44C21.3226 61.592 21.4734 61.7265 21.6393 61.84C21.8114 61.9571 22.0013 62.0456 22.2015 62.102L22.2653 62.12H22.3331C22.5843 62.14 22.8236 62.15 23.0528 62.15C23.6111 62.1582 24.1677 62.0861 24.7056 61.936C25.1103 61.8198 25.4939 61.6396 25.842 61.402C26.3916 61.0152 26.8302 60.4904 27.1139 59.88C27.5366 58.996 27.712 58.006 27.8516 57.014C27.9912 56.022 28.0948 55.014 28.3101 54.132C28.4218 53.662 28.5235 53.09 28.6192 52.43C28.7906 51.276 28.9501 49.858 29.1216 48.334C29.3788 46.05 29.6638 43.534 30.0446 41.362C30.2072 40.382 30.4215 39.4113 30.6866 38.454C30.8526 37.8007 31.1118 37.1749 31.4562 36.596C31.909 35.9397 32.5023 35.393 33.1926 34.996C34.2931 34.34 35.7844 33.89 37.7382 33.614C39.692 33.338 42.0665 33.232 44.9154 33.232V32.532L44.8756 33.232L44.9095 32.524Z" fill="#231F20"/>
<path d="M5.30518 2.77799C5.30518 2.77799 10.9652 14.76 13.1582 15.076C15.3513 15.392 35.4754 13.076 35.6867 11.292C35.8981 9.50798 31.3007 0.0459858 30.4513 -0.0600142C29.602 -0.166014 5.82951 0.465986 5.30518 2.77799Z" fill="#231F20"/>
<path d="M12.4724 33.902L12.6917 33.64L12.4206 33.852C12.4358 33.8707 12.4532 33.8875 12.4724 33.902L12.6917 33.64L12.4206 33.852C12.4487 33.8973 12.4702 33.9465 12.4844 33.998C12.5285 34.1602 12.5487 34.328 12.5442 34.496C12.5286 35.0074 12.4372 35.5136 12.273 35.998C11.9716 36.9133 11.5844 37.7979 11.1167 38.64C8.6645 43.212 6.32194 48.068 6.31995 48.072L7.57596 48.682L7.67963 48.466C8.15811 47.48 10.2156 43.266 12.3468 39.302C12.8569 38.381 13.2781 37.4133 13.6048 36.412C13.8123 35.794 13.9252 35.148 13.9398 34.496C13.952 34.0902 13.8751 33.6866 13.7145 33.314C13.6357 33.1279 13.5165 32.9619 13.3656 32.828L12.4724 33.902Z" fill="#1D153C"/>
<path d="M16.1488 36.2C16.1587 36.24 16.2644 36.672 16.3641 37.276C16.487 37.9674 16.5537 38.6677 16.5634 39.37C16.5665 39.7051 16.5392 40.0398 16.4817 40.37C16.4455 40.6017 16.3657 40.8243 16.2464 41.026C16.1169 41.226 15.9354 41.506 15.7161 41.868C14.9446 43.132 13.6906 45.32 12.598 47.582C12.0633 48.676 11.5849 49.7968 11.1646 50.94C10.9799 51.4442 10.8208 51.9576 10.6881 52.478C10.5694 52.9278 10.4933 53.3879 10.4608 53.852L11.8564 53.932C11.8904 53.4918 11.9692 53.0561 12.0916 52.632C12.3897 51.6002 12.7622 50.5916 13.2061 49.614C13.9238 47.982 14.821 46.262 15.6184 44.834C16.0172 44.12 16.388 43.48 16.699 42.96C17.01 42.44 17.2632 42.038 17.4147 41.812C17.6371 41.4562 17.7875 41.06 17.8573 40.646C17.9336 40.2251 17.9696 39.7978 17.965 39.37C17.9574 38.5692 17.8834 37.7705 17.7437 36.982C17.632 36.322 17.5184 35.87 17.5164 35.858L16.1488 36.2Z" fill="#1D153C"/>
<path d="M20.6046 37.014C20.6046 37.014 20.6046 37.228 20.6046 37.598C20.6046 37.968 20.6046 38.49 20.6046 39.108C20.6046 40.532 20.5946 42.454 20.5548 44.132C20.5348 44.972 20.5069 45.75 20.469 46.368C20.4511 46.678 20.4291 46.948 20.4072 47.168C20.3953 47.276 20.3833 47.368 20.3713 47.44C20.3594 47.512 20.3474 47.57 20.3414 47.596L21.6911 47.95C21.7154 47.8544 21.7347 47.7576 21.749 47.66C21.7809 47.46 21.8048 47.238 21.8267 46.974C21.9025 46.052 21.9443 44.684 21.9703 43.24C21.9962 41.796 22.0002 40.288 22.0002 39.116C22.0002 37.876 22.0002 37.012 22.0002 37.012L20.6046 37.022V37.014Z" fill="#1D153C"/>
<path d="M4.41598 44.958C4.35218 45.558 3.1819 47.398 2.2987 48.712C2.18706 48.65 2.07142 48.578 1.9538 48.5C-0.2213 47.07 0.867247 44.398 1.89997 42.7C2.81706 43.212 4.49174 44.256 4.41598 44.958Z" fill="#1D153C"/>
<path d="M6.43164 48.454C6.48001 48.2279 6.48945 47.9952 6.45955 47.766C6.68749 47.7589 6.91562 47.7717 7.14139 47.804C6.92527 48.0421 6.68767 48.2597 6.43164 48.454Z" fill="#1D153C"/>
<path d="M9.44603 50.13C9.41613 51.504 8.67847 52.988 8.01059 54.054C7.85109 54 7.68163 53.936 7.50619 53.854C4.85859 52.74 6.5273 49.114 7.23306 47.808C8.13021 47.954 9.47993 48.442 9.44603 50.13Z" fill="#1D153C"/>
<path d="M14.6315 54.65C14.5932 55.465 14.427 56.2689 14.1391 57.032C12.3448 57.128 11.2801 56.738 11.011 55.722L12.0636 53.076C12.0636 53.076 14.6315 52.812 14.6315 54.65Z" fill="#1D153C"/>
<path d="M24.5062 61.272C23.8144 61.4526 23.0957 61.5062 22.3849 61.43C21.3681 61.148 20.8797 59.52 20.6803 57.48C21.8765 57.28 23.93 57.016 24.1134 57.646C24.2729 58.186 24.5081 59.916 24.5062 61.272Z" fill="#1D153C"/>
<path d="M58.9688 102.176C58.7416 106.662 53.574 107.292 53.574 107.292C53.574 107.292 49.5208 107.642 48.8928 103.93C48.8928 103.93 48.2628 110.306 43.5857 114.3C38.9085 118.294 35.7605 117.524 35.7605 117.524L29.4745 124.04L17.8793 113.142C17.8793 113.142 22.1716 110 22.5943 108.52C23.017 107.04 32.3394 89.92 34.3291 86.762C36.3187 83.604 38.8328 74.254 41.5581 71.836C41.6199 71.78 41.6837 71.724 41.7455 71.672C43.9844 69.672 45.2205 68.516 46.6998 69.604C46.9664 69.8063 47.2104 70.037 47.4275 70.292C49.3135 72.466 42.7463 81.224 42.4672 83.048C42.1881 84.872 42.0485 88.514 42.0485 88.514C42.0485 88.514 47.4972 84.8 48.827 86.272C50.1568 87.744 49.6664 89.072 49.6664 89.072C49.6664 89.072 54.206 88.56 55.0493 91.164C55.8926 93.768 55.4679 96.71 55.4679 96.71C55.4679 96.71 59.1981 97.692 58.9688 102.176Z" fill="white"/>
<path d="M58.9688 102.176L58.273 102.142C58.2485 102.974 57.9702 103.779 57.4756 104.448C57.1484 104.875 56.7505 105.242 56.2993 105.534C55.7066 105.915 55.061 106.206 54.3834 106.398C54.1103 106.476 53.881 106.526 53.7215 106.558L53.5421 106.588H53.4982L53.5082 106.662L53.4982 106.588L53.5082 106.662L53.4982 106.588L53.5839 107.284L53.5221 106.586L53.56 107.018L53.5241 106.586L53.562 107.018L53.5261 106.586H53.5141C53.4862 106.586 53.4125 106.586 53.3148 106.586C53.018 106.585 52.7219 106.559 52.4296 106.508C51.8113 106.414 51.225 106.171 50.721 105.8C50.4464 105.587 50.2138 105.325 50.0352 105.026C49.8151 104.648 49.6684 104.231 49.6026 103.798L48.7313 98.656L48.219 103.846L48.4761 103.872L48.219 103.846L48.4761 103.872L48.219 103.846C48.0582 105.065 47.7634 106.262 47.3398 107.416C46.622 109.426 45.3461 111.882 43.153 113.752C41.5182 115.152 40.0987 115.922 38.9663 116.352C38.1737 116.672 37.3303 116.846 36.4762 116.866C36.333 116.867 36.1898 116.859 36.0476 116.842L35.9539 116.828H35.9399L35.926 116.89L35.9399 116.828L35.926 116.89L35.9399 116.828L35.8323 117.3L35.9459 116.83L35.8383 117.302L35.9519 116.832L35.5651 116.736L29.4745 123.046L18.3817 112.62L17.9052 113.13L18.3159 113.696C18.3259 113.696 19.4084 112.896 20.5588 111.896C21.1405 111.402 21.6943 110.876 22.2175 110.32C22.4516 110.068 22.6687 109.801 22.8674 109.52C23.0514 109.269 23.1941 108.99 23.2901 108.694C23.2901 108.694 23.308 108.64 23.332 108.578C23.3818 108.454 23.4655 108.26 23.5792 108.02C24.0038 107.114 24.8212 105.516 25.828 103.604C27.3392 100.734 29.2851 97.14 31.0216 94.004C31.8888 92.432 32.7042 90.974 33.386 89.776C34.0679 88.578 34.6181 87.64 34.9431 87.124C35.2444 86.6328 35.516 86.1239 35.7565 85.6C36.231 84.588 36.7215 83.376 37.2298 82.09C37.9894 80.162 38.7909 78.064 39.6222 76.272C39.9914 75.4494 40.4061 74.6482 40.8643 73.872C41.1893 73.3074 41.592 72.7917 42.0605 72.34C42.1163 72.29 42.1742 72.238 42.236 72.186C43.0613 71.45 43.7412 70.84 44.3034 70.44C44.5352 70.2686 44.7844 70.1225 45.047 70.004C45.2155 69.9262 45.3979 69.8834 45.5833 69.878C45.6963 69.8782 45.8084 69.8985 45.9143 69.938C46.057 69.9927 46.1912 70.0675 46.313 70.16C46.5381 70.3312 46.7434 70.527 46.9251 70.744C46.9792 70.8102 47.0187 70.8872 47.0407 70.97C47.0782 71.1047 47.0956 71.2442 47.0925 71.384C47.077 71.7751 47.0099 72.1625 46.8932 72.536C46.5995 73.4856 46.2226 74.4072 45.7667 75.29C45.0231 76.788 44.0921 78.376 43.3225 79.728C42.9357 80.404 42.5908 81.022 42.3257 81.55C42.1921 81.816 42.0785 82.058 41.9887 82.282C41.8974 82.4902 41.8304 82.7083 41.7894 82.932C41.7156 83.414 41.6538 83.994 41.6 84.6C41.4405 86.418 41.3627 88.472 41.3627 88.478L41.3089 89.862L42.4513 89.084H42.4612C43.17 88.6115 43.9019 88.175 44.6543 87.776C45.2256 87.4666 45.8163 87.1947 46.4227 86.962C46.6892 86.8617 46.9615 86.7776 47.2381 86.71C47.4503 86.6578 47.6676 86.6289 47.886 86.624C47.9932 86.6217 48.1001 86.6359 48.203 86.666C48.2483 86.6795 48.2894 86.7043 48.3226 86.738C48.5874 87.0211 48.7947 87.3533 48.9327 87.716C49.0194 87.9483 49.0652 88.194 49.0683 88.442C49.0688 88.5501 49.0588 88.6579 49.0384 88.764C49.0336 88.787 49.0276 88.8097 49.0204 88.832L49.3573 88.944L49.0244 88.822V88.832L49.3613 88.944L49.0284 88.822L48.6297 89.886L49.7541 89.758L49.7202 89.466L49.7521 89.758L49.7182 89.466L49.7501 89.758C49.7501 89.758 50.085 89.722 50.5735 89.722C51.3528 89.71 52.1291 89.8207 52.8742 90.05C53.2253 90.163 53.553 90.3392 53.8411 90.57C54.0971 90.7775 54.287 91.0556 54.3874 91.37C54.7288 92.5162 54.8942 93.7079 54.8778 94.904C54.8778 95.412 54.8519 95.842 54.828 96.142C54.816 96.292 54.8041 96.41 54.7941 96.49C54.7941 96.528 54.7941 96.558 54.7941 96.578V96.598L54.7064 97.216L55.3045 97.374L55.4042 96.99L55.3005 97.374L55.4002 96.99L55.2965 97.374C55.888 97.5658 56.4318 97.8822 56.8914 98.302C57.2989 98.6704 57.6284 99.1173 57.8603 99.616C58.1642 100.292 58.3146 101.028 58.301 101.77C58.301 101.884 58.301 102.004 58.291 102.126L58.9868 102.16L59.6846 102.196C59.6925 102.052 59.6965 101.91 59.6965 101.77C59.712 100.783 59.4983 99.8059 59.0725 98.916C58.8143 98.3897 58.4737 97.9082 58.0637 97.49C57.6005 97.0187 57.0613 96.6292 56.4688 96.338C56.2092 96.2069 55.9383 96.0998 55.6593 96.018L55.4839 96.696L56.1737 96.794C56.2522 96.1651 56.2895 95.5318 56.2854 94.898C56.3013 93.556 56.1138 92.2194 55.7291 90.934C55.5465 90.3701 55.2077 89.8699 54.7522 89.492C54.4371 89.2311 54.085 89.0188 53.7075 88.862C53.1736 88.6414 52.6133 88.4915 52.0408 88.416C51.5587 88.3482 51.0723 88.3148 50.5854 88.316C50.2586 88.3143 49.9318 88.3296 49.6066 88.362L49.6863 89.058L50.3402 89.298C50.4315 89.0172 50.476 88.7233 50.4718 88.428C50.4681 88.0183 50.3939 87.6124 50.2525 87.228C50.0512 86.6973 49.75 86.2105 49.3653 85.794C49.1752 85.5849 48.935 85.4279 48.6675 85.338C48.4182 85.255 48.1567 85.2145 47.894 85.218C47.5578 85.2221 47.2232 85.2657 46.8972 85.348C46.2841 85.5052 45.6868 85.7188 45.1128 85.986C44.2975 86.3627 43.5041 86.7854 42.7364 87.252C42.1024 87.636 41.6837 87.92 41.6757 87.926L42.0745 88.506L42.7703 88.532C42.7703 88.532 42.7703 88.476 42.7703 88.374C42.7862 88.018 42.8281 87.094 42.8959 86.066C42.9636 85.038 43.0593 83.9 43.175 83.146C43.1909 83.069 43.2129 82.9934 43.2408 82.92C43.3574 82.6195 43.4905 82.3257 43.6395 82.04C43.9685 81.404 44.437 80.596 44.9414 79.706C45.7069 78.37 46.5762 76.85 47.262 75.398C47.5926 74.7143 47.8796 74.0102 48.1213 73.29C48.3362 72.6766 48.4566 72.0338 48.4781 71.384C48.4814 71.1073 48.4438 70.8316 48.3665 70.566C48.289 70.2931 48.1529 70.0405 47.9678 69.826C47.7175 69.5284 47.4346 69.26 47.1244 69.026L47.1025 69.01L47.1244 69.026C46.8946 68.8541 46.6416 68.7161 46.3728 68.616C46.1171 68.5232 45.8473 68.4752 45.5754 68.474C45.2028 68.4791 44.8352 68.5601 44.4948 68.712C43.9492 68.9648 43.4402 69.2904 42.9816 69.68C42.4652 70.092 41.919 70.586 41.3009 71.136L41.7654 71.66L41.3069 71.13L41.1075 71.304L41.5741 71.824L41.1135 71.298C40.6845 71.6962 40.3055 72.1456 39.9851 72.636C39.3062 73.6916 38.7148 74.8014 38.2167 75.954C37.3694 77.83 36.566 79.954 35.8143 81.848C35.4375 82.796 35.0747 83.692 34.7278 84.468C34.4473 85.1249 34.1222 85.7617 33.7549 86.374C33.4957 86.784 33.1309 87.4 32.6823 88.174C31.1133 90.892 28.5354 95.574 26.3025 99.728C25.1841 101.81 24.1534 103.762 23.3758 105.278C22.9771 106.038 22.6601 106.678 22.4189 107.194C22.2973 107.448 22.1976 107.664 22.1178 107.846C22.0779 107.936 22.0441 108.018 22.0161 108.094C21.9882 108.17 21.9623 108.236 21.9404 108.31C21.8865 108.459 21.8105 108.598 21.7151 108.724C21.3971 109.155 21.0407 109.557 20.6505 109.924C19.9806 110.574 19.1851 111.24 18.5591 111.74C18.2461 111.99 17.977 112.198 17.7856 112.34L17.5623 112.508L17.5025 112.552L17.4845 112.566L16.8047 113.064L29.5064 125.02L36.2729 118.01L35.7705 117.524L35.605 118.204C35.8885 118.261 36.1772 118.287 36.4663 118.282C37.4911 118.265 38.5043 118.062 39.4568 117.682C40.7507 117.192 42.3097 116.326 44.0522 114.838C46.5204 112.728 47.898 110.024 48.6675 107.856C49.1205 106.611 49.4348 105.319 49.6046 104.004L48.9088 103.936L48.221 104.052C48.3387 104.833 48.6499 105.571 49.1261 106.2C49.4358 106.597 49.8131 106.935 50.2405 107.2C50.7819 107.527 51.3765 107.756 51.997 107.876C52.4249 107.963 52.8603 108.007 53.2968 108.008C53.4962 108.008 53.6178 108.008 53.6358 107.996H53.6597C54.6608 107.844 55.6285 107.52 56.5206 107.04C57.3271 106.615 58.0329 106.021 58.59 105.298C59.2519 104.406 59.628 103.333 59.6686 102.222L58.9688 102.176Z" fill="#231F20"/>
<path d="M35.9857 94.176L36.2429 93.976C36.8191 93.516 38.2625 92.364 39.6202 91.29C40.3 90.752 40.9559 90.234 41.4703 89.834L42.1162 89.334L42.3276 89.178C42.3814 89.138 42.4213 89.108 42.4272 89.106L41.6677 87.926C41.6078 87.964 41.552 88.004 41.4683 88.062C41.1812 88.274 40.6509 88.686 40.0029 89.196C38.0651 90.718 35.1105 93.08 35.1105 93.08L35.9797 94.176H35.9857Z" fill="#1D153C"/>
<path d="M40.029 96.63L40.4417 96.332C41.3628 95.666 43.6714 94.002 45.7967 92.502C46.8593 91.752 47.8741 91.042 48.6436 90.524C49.0284 90.264 49.3514 90.052 49.5807 89.908C49.6943 89.838 49.78 89.784 49.8398 89.754L49.8717 89.738H49.8817L49.7701 89.49L49.8558 89.748L49.8817 89.738L49.7701 89.49L49.8558 89.748L49.6684 89.186L49.7103 89.786C49.7598 89.783 49.8087 89.7736 49.8558 89.758L49.6684 89.196L49.7103 89.796L49.6126 88.396C49.5446 88.4014 49.4776 88.4155 49.4132 88.438C49.3487 88.4605 49.2861 88.4879 49.2258 88.52C49.1221 88.574 49.0085 88.64 48.8709 88.72C48.6137 88.88 48.2728 89.1 47.8741 89.37C46.4785 90.314 44.3154 91.846 42.4912 93.146C40.667 94.446 39.2036 95.51 39.2036 95.512L40.021 96.646L40.029 96.63Z" fill="#1D153C"/>
<path d="M44.429 99.152H44.4469C44.6304 99.098 46.2692 98.614 48.2549 98.152C49.2517 97.92 50.3263 97.69 51.351 97.522C52.2561 97.3575 53.1727 97.2646 54.0923 97.244C54.3188 97.2422 54.5452 97.2542 54.7702 97.28C54.9228 97.2962 55.0732 97.3291 55.2187 97.378L55.6992 96.064C55.4548 95.9772 55.2013 95.9188 54.9436 95.89C54.661 95.8578 54.3768 95.8424 54.0923 95.844C53.0615 95.8663 52.0342 95.9713 51.0201 96.158C49.3633 96.436 47.6308 96.852 46.2911 97.196C44.9513 97.54 44.0363 97.818 44.0303 97.82L44.429 99.162V99.152Z" fill="#1D153C"/>
<path d="M50.9722 94.748V96.752H52.3677V94.748" fill="#1D153C"/>
<path d="M53.231 100.876C53.231 100.876 53.231 100.888 53.231 100.914C53.231 101.1 53.1931 101.962 53.1153 102.764C53.0859 103.112 53.0373 103.459 52.9698 103.802C52.9548 103.88 52.9335 103.957 52.906 104.032L53.1991 104.176L52.9638 103.954C52.9401 103.976 52.9205 104.003 52.906 104.032L53.1991 104.176L52.9638 103.954L53.3626 104.332L53.0834 103.856C53.038 103.882 52.9969 103.915 52.9618 103.954L53.3606 104.332L53.0814 103.856L53.3905 104.384L53.3167 103.784C53.2338 103.795 53.1539 103.822 53.0814 103.864L53.3905 104.392L53.3167 103.792L53.3845 104.364V103.788H53.3167L53.3845 104.36V104.4L53.6875 103.852C53.5948 103.8 53.4906 103.773 53.3845 103.772V104.4L53.6875 103.852L53.3785 104.412L53.8869 104.024C53.8328 103.954 53.765 103.895 53.6875 103.852L53.3785 104.412L53.8869 104.024L53.4124 104.386L53.9946 104.254C53.9754 104.171 53.9387 104.092 53.8869 104.024L53.4124 104.386L53.9946 104.254L53.5639 104.352H54.0065C54.0064 104.319 54.0024 104.286 53.9946 104.254L53.5639 104.352H53.847L54.0065 104.366V104.352H53.847L54.0065 104.366C54.0065 104.366 54.0065 104.31 54.0304 104.238C54.0544 104.13 54.0922 103.978 54.1261 103.808C54.1673 103.618 54.1893 103.424 54.1919 103.23C54.1936 103.095 54.1782 102.961 54.1461 102.83C54.1161 102.712 54.0691 102.6 54.0065 102.496C53.8957 102.317 53.7367 102.174 53.548 102.082C53.3607 101.995 53.1561 101.953 52.9499 101.958C52.8288 101.959 52.7081 101.97 52.589 101.992C51.8234 102.126 50.9941 102.276 50.2524 102.486C49.896 102.583 49.548 102.709 49.2117 102.862C48.8916 103.003 48.6028 103.207 48.3624 103.462L49.4031 104.394C49.5194 104.283 49.6544 104.194 49.8019 104.13C50.2313 103.944 50.6781 103.802 51.1356 103.704C51.6679 103.578 52.2541 103.472 52.8203 103.374C52.8604 103.366 52.9011 103.362 52.9419 103.362H52.9658L52.9997 103.162L52.894 103.324C52.916 103.339 52.9403 103.349 52.9658 103.356L52.9997 103.156L52.894 103.318L53.0635 103.056L52.8183 103.246C52.8395 103.274 52.8651 103.298 52.894 103.318L53.0635 103.056L52.8183 103.246L52.9878 103.114L52.7764 103.168C52.784 103.197 52.7983 103.224 52.8183 103.246L52.9878 103.114L52.7764 103.168C52.7764 103.168 52.7764 103.19 52.7764 103.216C52.775 103.283 52.7683 103.35 52.7565 103.416C52.7365 103.54 52.7026 103.686 52.6688 103.834C52.6508 103.908 52.6349 103.984 52.6189 104.064C52.6019 104.155 52.5926 104.247 52.591 104.34C52.591 104.401 52.597 104.462 52.6089 104.522C52.6206 104.587 52.64 104.65 52.6668 104.71C52.6941 104.771 52.7296 104.828 52.7724 104.88C52.848 104.973 52.9443 105.047 53.0535 105.096C53.1519 105.138 53.2576 105.16 53.3645 105.16C53.3977 105.162 53.431 105.162 53.4642 105.16C53.5838 105.145 53.6983 105.102 53.7992 105.036C53.869 104.99 53.9316 104.934 53.9846 104.87C54.0546 104.786 54.1117 104.693 54.154 104.592C54.2191 104.439 54.2685 104.279 54.3016 104.116C54.3676 103.795 54.4175 103.47 54.4511 103.144C54.5647 102.102 54.5986 100.922 54.6006 100.912L53.2051 100.87L53.231 100.876Z" fill="#1D153C"/>
<path d="M46.6998 69.6C46.0857 70.942 45.3042 72.382 44.6403 72.726C43.9086 73.104 42.6885 72.384 41.7455 71.668C43.9844 69.674 45.2204 68.516 46.6998 69.6Z" fill="#1D153C"/>
<path d="M7.19109 119.134C7.28479 117.858 15.6443 109.114 17.0398 109.464C18.4354 109.814 31.9924 123.198 31.9924 124.53C31.9924 125.862 25.3574 131.958 23.6807 132.098C22.0041 132.238 6.97777 122 7.19109 119.134Z" fill="#231F20"/>
<path d="M106.52 24.43C106.52 24.43 102.853 31.684 101.492 31.684C100.13 31.684 78.126 27.484 76.3436 29.16C74.5613 30.836 68.2773 42.93 71.6286 47.344C73.6223 47.544 76.868 37.254 78.3353 37.044C79.8027 36.834 80.64 37.148 80.64 37.148C80.64 37.148 75.4006 50.182 83.0504 47.976C83.0504 47.976 82.6317 51.234 87.4504 50.288C87.4504 50.288 89.1271 53.44 93.3178 51.76C97.5085 50.08 96.0431 46.084 96.0431 46.084C96.0431 46.084 100.652 48.922 106.52 48.284C112.387 47.646 120.246 33.044 120.246 33.044L106.52 24.43Z" fill="white"/>
<path d="M106.52 24.43L105.898 24.114V24.134C105.794 24.334 104.873 26.134 103.828 27.864C103.355 28.6654 102.833 29.4374 102.267 30.176C102.079 30.4211 101.868 30.648 101.637 30.854C101.582 30.9032 101.521 30.9461 101.456 30.982H101.44L101.472 31.072L101.454 30.98H101.44L101.472 31.07L101.454 30.978L101.504 31.232V30.974H101.454L101.504 31.228V30.97H101.416C101.314 30.96 101.151 30.94 100.94 30.912C100.142 30.804 98.7087 30.57 96.9224 30.282C94.2409 29.85 90.7659 29.296 87.4325 28.846C85.7638 28.622 84.131 28.426 82.6477 28.284C81.1644 28.142 79.8286 28.056 78.7421 28.056C78.19 28.0474 77.6381 28.0815 77.0913 28.158C76.8724 28.1893 76.6568 28.2409 76.4474 28.312C76.237 28.3821 76.043 28.4943 75.8772 28.642C75.6038 28.9173 75.3562 29.2172 75.1375 29.538C74.557 30.3807 74.0296 31.2591 73.5585 32.168C72.5978 33.9765 71.7843 35.86 71.1262 37.8C70.4444 39.84 69.9659 41.942 69.9639 43.836C69.9557 44.5505 70.0395 45.263 70.2131 45.956C70.3779 46.6143 70.6706 47.2334 71.0744 47.778L71.2578 48.02L71.5569 48.05C71.6013 48.053 71.646 48.053 71.6905 48.05C71.9454 48.0468 72.1953 47.978 72.4161 47.85C72.6087 47.7401 72.7863 47.6057 72.9445 47.45C73.271 47.1232 73.5611 46.7618 73.8097 46.372C74.347 45.5302 74.8343 44.6574 75.2691 43.758C75.9948 42.31 76.7065 40.742 77.3325 39.542C77.5805 39.0449 77.8616 38.5652 78.1739 38.106C78.2588 37.9815 78.3556 37.8656 78.463 37.76L78.5008 37.728H78.5148L78.4011 37.528L78.433 37.756C78.4617 37.754 78.4896 37.7458 78.5148 37.732L78.4011 37.532L78.433 37.76C78.7249 37.7177 79.0194 37.6963 79.3143 37.696C79.5991 37.6935 79.8834 37.7183 80.1636 37.77C80.2553 37.79 80.3217 37.806 80.3629 37.818L80.4008 37.83L80.5284 37.466L80.3928 37.828L80.5204 37.464L80.3849 37.826L80.6301 37.17L79.9841 36.91C79.9841 36.924 79.5336 38.03 79.085 39.558C78.8617 40.322 78.6384 41.19 78.4689 42.084C78.2908 42.9699 78.1947 43.8704 78.1819 44.774C78.1772 45.2796 78.2253 45.7844 78.3254 46.28C78.3982 46.6347 78.5155 46.9788 78.6743 47.304C78.9117 47.7988 79.2852 48.2152 79.7509 48.504C80.2735 48.8095 80.8707 48.9625 81.4754 48.946C82.0716 48.9361 82.6635 48.8425 83.2338 48.668L83.0344 47.996L82.3426 47.906C82.3308 47.9988 82.3255 48.0924 82.3267 48.186C82.3272 48.4477 82.36 48.7084 82.4244 48.962C82.4895 49.227 82.593 49.481 82.7314 49.716C82.9971 50.1634 83.3844 50.5255 83.8479 50.76C84.4697 51.057 85.1531 51.201 85.8415 51.18C86.421 51.1742 86.9986 51.1119 87.566 50.994L87.4325 50.308L86.8164 50.638C87.0781 51.0874 87.4154 51.488 87.8133 51.822C88.1978 52.1572 88.6341 52.4274 89.1052 52.622C89.6998 52.863 90.3359 52.9847 90.9772 52.98C91.8639 52.967 92.7397 52.783 93.557 52.438C94.1681 52.2001 94.7385 51.8681 95.2477 51.454C95.8617 50.9529 96.3374 50.3021 96.6293 49.564C96.8582 48.9703 96.9732 48.3385 96.9682 47.702C96.9709 47.0795 96.8726 46.4608 96.6771 45.87L96.0232 46.112L95.6584 46.712C96.4933 47.1941 97.3701 47.5991 98.2781 47.922C100.36 48.6991 102.56 49.1052 104.781 49.122C105.381 49.1222 105.98 49.0902 106.576 49.026C107.484 48.9026 108.355 48.5862 109.132 48.098C110.591 47.23 112.022 45.884 113.38 44.35C115.414 42.052 117.272 39.328 118.627 37.172C119.983 35.016 120.836 33.432 120.842 33.422L121.153 32.844L106.243 23.43L105.898 24.114L106.52 24.43L106.149 25.03L119.875 33.648L120.246 33.048L119.632 32.716C118.205 35.3043 116.622 37.8035 114.893 40.2C113.571 42.014 112.08 43.828 110.595 45.2C109.925 45.835 109.19 46.3968 108.402 46.876C107.806 47.251 107.138 47.4969 106.442 47.598C105.896 47.6565 105.347 47.6859 104.797 47.686C102.741 47.6715 100.703 47.2972 98.7745 46.58C98.1738 46.3603 97.5861 46.1065 97.0141 45.82C96.8147 45.718 96.6532 45.634 96.5495 45.576L96.4359 45.51L96.408 45.494V45.504V45.494V45.504V45.494L94.6994 44.43L95.3952 46.326L95.768 46.188L95.3952 46.322L95.768 46.184L95.3952 46.318V46.344C95.5276 46.7735 95.5948 47.2205 95.5946 47.67C95.6042 48.3008 95.4445 48.9225 95.132 49.47C94.9326 49.8007 94.6784 50.095 94.3804 50.34C93.9827 50.6613 93.5374 50.9184 93.0606 51.102C92.4078 51.3797 91.7081 51.5297 90.9992 51.544C90.5383 51.5487 90.0811 51.4624 89.6534 51.29C89.1871 51.0965 88.7692 50.8022 88.4293 50.428C88.3253 50.3149 88.2294 50.1946 88.1422 50.068L88.0784 49.968L88.0665 49.948L87.7196 50.148L88.0685 49.962L87.7216 50.162L88.0705 49.976L87.8272 49.52L87.3228 49.6C86.8433 49.7005 86.3553 49.7541 85.8655 49.76C85.4363 49.7753 85.0086 49.7011 84.6094 49.542C84.4336 49.4675 84.2738 49.3595 84.1389 49.224C83.987 49.0661 83.876 48.8731 83.816 48.662C83.7691 48.5008 83.7449 48.3339 83.7442 48.166C83.7426 48.136 83.7426 48.106 83.7442 48.076V48.058L83.2936 48.004L83.7442 48.064L83.2936 48.01L83.7442 48.07L83.8818 47.012L82.859 47.306C82.4147 47.4456 81.9528 47.521 81.4873 47.53C81.1699 47.5396 80.855 47.471 80.5703 47.33C80.408 47.2498 80.2636 47.1375 80.1456 47C79.9419 46.7355 79.7995 46.4287 79.7289 46.102C79.6264 45.6623 79.5782 45.2115 79.5854 44.76C79.599 43.9444 79.6864 43.1317 79.8466 42.332C80.075 41.1807 80.376 40.0451 80.7477 38.932C80.8972 38.472 81.0328 38.092 81.1305 37.83C81.1803 37.698 81.2182 37.596 81.2461 37.526C81.2581 37.492 81.27 37.466 81.276 37.448V37.43L81.5432 36.766L80.8733 36.514C80.3657 36.3523 79.8347 36.2772 79.3023 36.292C78.9414 36.293 78.581 36.3191 78.2237 36.37C78.0975 36.389 77.9754 36.4296 77.8629 36.49C77.6796 36.5895 77.5145 36.7193 77.3744 36.874C77.0928 37.1927 76.8449 37.5399 76.6348 37.91C76.2061 38.63 75.7516 39.548 75.2751 40.534C74.5633 42.01 73.8077 43.634 73.1 44.856C72.8199 45.3654 72.4922 45.8469 72.1211 46.294C72.017 46.4092 71.8999 46.5118 71.7722 46.6C71.7436 46.6177 71.7136 46.6331 71.6825 46.646H71.6725L71.6845 46.708V46.646H71.6725L71.6845 46.708V46.764L71.6964 46.646H71.6845V46.764L71.6964 46.646L71.6227 47.342L72.1789 46.918C71.8856 46.5198 71.6741 46.067 71.5569 45.586C71.4144 45.0098 71.3474 44.4175 71.3575 43.824C71.3923 42.4008 71.6149 40.9885 72.0194 39.624C72.6522 37.4311 73.4976 35.3056 74.5434 33.278C75.0119 32.36 75.4744 31.552 75.8792 30.922C76.0785 30.608 76.2679 30.338 76.4294 30.122C76.5509 29.9603 76.6842 29.8079 76.8281 29.666L76.7444 29.576L76.8162 29.678L76.8281 29.666L76.7444 29.576L76.8162 29.678C76.8713 29.6495 76.9295 29.6274 76.9896 29.612C77.2152 29.555 77.4454 29.5182 77.6774 29.502C77.9745 29.474 78.3334 29.462 78.7361 29.462C80.7138 29.5059 82.6877 29.6561 84.6493 29.912C88.1203 30.324 92.1076 30.938 95.2975 31.45C96.9024 31.708 98.3139 31.938 99.3825 32.106C99.9168 32.19 100.365 32.256 100.712 32.306C100.886 32.33 101.035 32.35 101.159 32.362C101.283 32.374 101.38 32.384 101.486 32.386C101.695 32.3807 101.9 32.3252 102.084 32.224C102.238 32.1416 102.382 32.0424 102.515 31.928C102.786 31.6906 103.035 31.4296 103.26 31.148C103.737 30.5451 104.179 29.9161 104.586 29.264C105.246 28.222 105.88 27.096 106.35 26.23C106.821 25.364 107.13 24.754 107.132 24.75L106.51 24.432L106.139 25.032L106.52 24.43Z" fill="#231F20"/>
<path d="M86.8523 32.62C86.8523 32.62 85.4568 33.25 83.9156 34.06C83.1521 34.46 82.3526 34.916 81.6708 35.364C81.3495 35.5727 81.04 35.799 80.7437 36.042C80.4847 36.248 80.2552 36.489 80.0619 36.758L81.2182 37.54C81.3398 37.3824 81.4804 37.2407 81.6369 37.118C82.1269 36.7278 82.6461 36.3761 83.19 36.066C84.119 35.516 85.1836 34.97 86.007 34.566C86.4217 34.366 86.7766 34.196 87.0258 34.08L87.3188 33.946L87.3966 33.91L87.4205 33.9L86.8523 32.62Z" fill="#231F20"/>
<path d="M88.533 35.356C87.3827 36.3989 86.3462 37.5614 85.4408 38.824C84.5873 39.9909 83.8721 41.2533 83.3095 42.586C82.6801 44.0645 82.3462 45.6525 82.3267 47.26C82.3267 47.514 82.3267 47.77 82.3546 48.028L83.7501 47.922C83.7342 47.7 83.7262 47.48 83.7262 47.26C83.7448 45.8356 84.0428 44.4288 84.6034 43.12C85.3601 41.3647 86.383 39.7375 87.6358 38.296C88.1442 37.696 88.6007 37.226 88.9297 36.896C89.0932 36.734 89.2248 36.61 89.3145 36.528L89.4162 36.438L89.4401 36.416L89.2826 36.232L89.4401 36.416L89.2826 36.232L89.4401 36.416L88.531 35.354L88.533 35.356Z" fill="#231F20"/>
<path d="M92.4944 38.892C91.4163 39.7084 90.4368 40.6481 89.5756 41.692C88.7701 42.6445 88.0924 43.6988 87.56 44.828C86.9593 46.0954 86.6402 47.4787 86.625 48.882C86.6249 49.3985 86.6717 49.914 86.7646 50.422L88.1382 50.17C88.0594 49.7452 88.02 49.3141 88.0206 48.882C88.0319 47.6822 88.304 46.4994 88.818 45.416C89.5214 43.963 90.4689 42.6423 91.6191 41.512C91.9988 41.1256 92.3981 40.7592 92.8153 40.414C92.9669 40.288 93.0885 40.192 93.1702 40.128L93.2639 40.058L93.2858 40.042L92.4764 38.902L92.4944 38.892Z" fill="#231F20"/>
<path d="M93.5032 48.324C93.7489 47.9072 94.0206 47.5064 94.3166 47.124C94.5198 46.8548 94.7496 46.6069 95.0024 46.384C95.0854 46.3113 95.1764 46.2482 95.2736 46.196L95.3453 46.166H95.3593V46.11V46.166V46.11V46.03L95.3114 46.156C95.3266 46.1622 95.3429 46.1656 95.3593 46.166V46.03L95.3114 46.156L95.3533 46.044L95.2835 46.142L95.3114 46.156L95.3533 46.044L95.2835 46.142L95.2975 46.12L95.2815 46.14L95.2955 46.118L95.2795 46.138C95.3299 46.1967 95.3685 46.2646 95.3932 46.338L96.691 45.824C96.5874 45.5358 96.4157 45.2771 96.1906 45.07C96.0729 44.968 95.9378 44.8881 95.7919 44.834C95.6515 44.782 95.503 44.7556 95.3533 44.756C95.1052 44.7603 94.8615 44.8226 94.6416 44.938C94.299 45.1256 93.9897 45.3689 93.7265 45.658C93.3549 46.0595 93.0168 46.4909 92.7157 46.948C92.4585 47.33 92.295 47.614 92.291 47.624L93.5012 48.322L93.5032 48.324Z" fill="#231F20"/>
<path d="M108.406 16.022C108.406 16.022 101.91 25.062 102.853 26.222C103.796 27.382 118.045 37.152 120.246 35.892C122.447 34.632 126.227 25.802 125.904 24.434C125.581 23.066 110.501 14.97 108.406 16.022Z" fill="#231F20"/>
<path d="M93.1044 18.096C92.7057 18.988 92.2491 20.014 91.7308 21.146L84.7529 16.966L85.9491 14.45L93.1044 18.096Z" fill="#1D153C"/>
<path d="M71.4213 57.854V59.116L68.5903 60.274L68.3231 57.328L69.0089 57.854H71.4213Z" fill="#1D153C"/>
<path d="M68.3231 53.404H69.9639V55.414L74.988 56.13L75.1853 54.744L71.3595 54.2V52.004H68.3231V53.404Z" fill="#1D153C"/>
<path d="M36.7293 42.386C36.7293 42.6198 36.6602 42.8483 36.5307 43.0427C36.4013 43.2371 36.2173 43.3886 36.002 43.478C35.7867 43.5675 35.5498 43.5909 35.3212 43.5453C35.0926 43.4997 34.8827 43.3871 34.7179 43.2218C34.5531 43.0565 34.4409 42.8459 34.3954 42.6166C34.35 42.3873 34.3733 42.1496 34.4625 41.9337C34.5517 41.7177 34.7027 41.5331 34.8965 41.4032C35.0902 41.2733 35.318 41.204 35.5511 41.204C35.8636 41.204 36.1633 41.3285 36.3842 41.5502C36.6052 41.7719 36.7293 42.0725 36.7293 42.386Z" fill="white"/>
</g>
<defs>
<clipPath id="clip0_2176_1256">
<rect width="126" height="132" fill="white"/>
</clipPath>
</defs>
</svg>
