<svg width="128" height="130" viewBox="0 0 128 130" fill="none" xmlns="http://www.w3.org/2000/svg">
<g clip-path="url(#clip0_2176_1637)">
<path d="M124.391 97.6268C124.391 97.6268 134.92 92.1042 130.553 79.5066C126.185 66.9091 124.589 77.678 124.391 69.7545C124.192 61.831 119.622 65.0804 115.648 59.291C111.673 53.5016 102.331 50.9597 103.623 44.9653C104.914 38.971 106.803 37.7532 101.04 32.4702C101.04 32.4702 104.318 21.8038 90.8051 13.2695C77.2919 4.73514 69.9368 8.69784 58.3106 11.1431C46.6843 13.5884 44.6971 30.0385 44.8975 33.7963C45.0979 37.5541 49.8135 78.0897 49.8135 78.0897L64.1719 106.128L124.391 97.6268Z" fill="black"/>
<path d="M70.7328 14.8951C70.7328 14.8951 58.8078 11.8486 54.2378 24.4443C53.8067 25.6524 53.4286 26.7504 53.1279 27.7613C50.2464 37.2757 52.8462 38.565 52.8462 43.3416C52.8462 48.6226 54.7653 63.2518 73.2815 64.0656L81.8617 81.9442L97.366 70.5663L90.408 55.9391C90.408 55.9391 94.5809 51.8797 95.9725 46.5929C95.9725 46.5929 104.318 45.984 104.318 38.8724C104.318 31.7608 96.5662 33.9954 96.5662 33.9954C96.5662 33.9954 92.7846 39.2783 89.4115 37.6527C86.0384 36.027 73.913 22.8186 70.7328 14.8951Z" fill="white"/>
<path d="M70.7326 14.8951L70.8933 14.2398C69.8108 13.9992 68.7054 13.8838 67.5977 13.8957C65.5916 13.8957 62.9086 14.2514 60.3031 15.734C58.8847 16.5445 57.6221 17.6114 56.5765 18.883C55.2936 20.4686 54.2922 22.2717 53.6174 24.2104C53.175 25.4263 52.8044 26.5397 52.4943 27.5603C51.4544 30.9972 51.1084 33.4155 51.1084 35.3311C51.1084 37.0612 51.3939 38.3679 51.6624 39.5741C51.9309 40.7803 52.1842 41.8937 52.1842 43.3416C52.1894 45.1918 52.3922 47.0359 52.7893 48.841C53.1766 50.6324 53.7806 52.3674 54.5874 54.0061C56.0226 56.9394 58.209 59.4198 60.9139 61.1834C63.9391 63.1551 67.9512 64.5063 73.2529 64.7383L73.2813 64.0578L72.6876 64.3555L81.612 82.9532L98.2015 70.7751L91.0015 55.6337L90.4078 55.9391L90.8634 56.4301C91.7113 55.567 92.4921 54.6377 93.1985 53.6504C94.4464 51.93 95.8815 49.5331 96.6019 46.7688L95.9628 46.5929L96.0101 47.2676C96.4785 47.2241 96.9439 47.1511 97.4036 47.0491C98.153 46.8888 98.8879 46.6644 99.6006 46.3784C100.82 45.8854 102.151 45.12 103.193 43.9079C103.744 43.2713 104.178 42.5387 104.475 41.7449C104.81 40.8263 104.976 39.8526 104.967 38.8724C104.991 37.8646 104.804 36.8632 104.416 35.9361C104.17 35.3754 103.818 34.8697 103.38 34.4477C102.789 33.891 102.076 33.4879 101.3 33.2724C100.596 33.0758 99.8678 32.9795 99.1374 32.9863C98.2087 32.9882 97.2838 33.109 96.3844 33.3459L96.1651 33.4077L96.029 33.601L96.1935 33.7228L96.0309 33.601L96.1954 33.7228L96.0328 33.601C95.5175 34.2877 94.9415 34.9244 94.3122 35.5031C93.7914 35.9892 93.2164 36.411 92.5992 36.7596C92.0422 37.0856 91.416 37.268 90.7746 37.2912C90.4007 37.293 90.0311 37.2091 89.6931 37.0457C89.1554 36.7528 88.6486 36.4043 88.1805 36.0057C86.7188 34.7848 85.3298 33.4758 84.0208 32.0855C81.3939 29.3457 78.9314 26.446 76.6468 23.4024C75.484 21.8444 74.4082 20.2825 73.4968 18.794C72.6667 17.474 71.9451 16.0858 71.3395 14.6438L71.2109 14.3287L70.8876 14.2456L70.7269 14.9009L70.12 15.1522C70.9462 17.209 72.3227 19.5498 73.9771 21.9545C76.5302 25.6034 79.3377 29.059 82.3777 32.2943C83.7863 33.7943 85.1212 35.1107 86.2727 36.1372C86.8399 36.6494 87.3788 37.0902 87.8552 37.4478C88.2551 37.7593 88.6824 38.0324 89.1315 38.2635C89.6458 38.5117 90.2077 38.6398 90.7765 38.6385C91.6395 38.6145 92.4835 38.3742 93.2345 37.9388C94.2577 37.3466 95.1862 36.5975 95.9874 35.7177C96.3827 35.2992 96.7533 34.8571 97.0973 34.3936L96.5622 33.9934L96.7513 34.6449C97.5341 34.444 98.3378 34.3408 99.1449 34.3375C99.6845 34.3331 100.223 34.3941 100.748 34.5192C101.137 34.6116 101.511 34.7593 101.86 34.958C102.398 35.2658 102.837 35.7255 103.125 36.2821C103.446 36.8968 103.66 37.7281 103.66 38.8705C103.667 39.6034 103.558 40.3326 103.337 41.0297C103.002 42.04 102.405 42.9381 101.609 43.6277C100.486 44.6251 99.0561 45.2127 97.9065 45.5336C97.436 45.6672 96.958 45.7717 96.4752 45.8468C96.2975 45.8758 96.1576 45.8932 96.063 45.9028L95.9571 45.9144H95.9288V45.9705V45.9144V45.9705V45.9144L95.458 45.9492L95.337 46.4132C94.6752 48.9261 93.3271 51.209 92.1397 52.8405C91.6567 53.5071 91.1411 54.1484 90.595 54.7619C90.3945 54.9881 90.2319 55.1601 90.1204 55.2761C90.0655 55.3341 90.0221 55.3785 89.9937 55.4056L89.9634 55.4385L90.0315 55.5119L89.9634 55.4385L90.0315 55.5119L89.9634 55.4385L89.6137 55.7787L96.5376 70.3402L82.1111 80.9293L73.7029 63.4064L73.3097 63.389C68.7718 63.1957 65.2796 62.1461 62.5966 60.6344C60.7555 59.6078 59.1239 58.2298 57.7903 56.5751C56.1193 54.447 54.9177 51.975 54.2679 49.3282C53.7698 47.3712 53.5157 45.3578 53.5115 43.3358C53.5115 41.7159 53.2242 40.4672 52.9576 39.2667C52.691 38.0663 52.4357 36.9026 52.4357 35.3253C52.4357 33.5856 52.7496 31.3046 53.7592 27.9547C54.0599 26.9611 54.4229 25.8709 54.8578 24.6685C55.4815 22.8819 56.4054 21.2204 57.588 19.7586C58.9486 18.0922 60.7174 16.8248 62.7139 16.0859C64.282 15.5158 65.9353 15.23 67.5996 15.2411C68.3264 15.2391 69.0525 15.2908 69.7721 15.3958C70.0349 15.4344 70.2391 15.4731 70.3771 15.5002L70.5302 15.533L70.5662 15.5427L70.7269 14.8854L70.12 15.1522L70.7326 14.8951Z" fill="#231F20"/>
<path d="M61.7479 47.5227C61.8216 47.4918 62.8578 47.0453 63.8807 45.725C64.4925 44.9233 64.9628 44.0186 65.2704 43.0516C65.6998 41.6868 65.9087 40.2596 65.8887 38.826C65.8836 37.7512 65.797 36.6784 65.6296 35.6172C65.4074 33.9329 64.7589 32.3371 63.7483 30.9876C63.095 30.1471 62.3004 29.4323 61.4019 28.8767C60.1938 28.14 58.8683 27.6264 57.4861 27.3593C56.4312 27.1468 55.3584 27.04 54.2832 27.0404C53.8729 27.0374 53.4627 27.0554 53.0542 27.0945L53.1998 28.4476L53.1771 28.2292L53.1998 28.4476L53.1771 28.2292L53.1998 28.4476C53.5599 28.4133 53.9215 28.3978 54.2832 28.4012C55.143 28.4009 56.0013 28.4746 56.8489 28.6216C58.3464 28.8845 60.0387 29.4412 61.4246 30.543C62.1544 31.1188 62.7704 31.8312 63.2397 32.6423C63.7938 33.627 64.159 34.7109 64.3155 35.8356C64.4712 36.8279 64.5521 37.8308 64.5576 38.8357C64.5794 40.119 64.3967 41.3973 64.0168 42.6206C63.6744 43.7401 63.0596 44.7524 62.23 45.5626C62.0061 45.7767 61.7616 45.9671 61.5002 46.131C61.4095 46.187 61.3414 46.2237 61.296 46.2469L61.2506 46.2682L61.3622 46.5369L61.2544 46.2663L61.366 46.535L61.2582 46.2643L61.7592 47.5169L61.7479 47.5227Z" fill="#231F20"/>
<path d="M70.6798 28.1035L70.4775 27.9585L70.6798 28.1035L70.4775 27.9585L70.6798 28.1035C71.1778 27.4076 71.7428 26.7645 72.3664 26.184C72.8899 25.6871 73.4716 25.2586 74.0983 24.9082C74.6897 24.5669 75.3521 24.3747 76.0307 24.3476L76.0156 22.9945C75.1231 23.0234 74.2503 23.2707 73.4706 23.7155C72.4288 24.3115 71.4878 25.0752 70.6836 25.9772C70.2913 26.4032 69.9269 26.8553 69.5927 27.3303L70.6798 28.1035Z" fill="#231F20"/>
<path d="M65.1323 50.8185C65.4771 50.8566 65.8236 50.8747 66.1704 50.8726C67.3451 50.8834 68.5124 50.6798 69.6172 50.2715C70.3031 50.011 70.942 49.6361 71.508 49.1619C72.1441 48.6235 72.6599 47.9518 73.0206 47.1922L71.8313 46.6006C71.5544 47.1874 71.1571 47.7062 70.6666 48.1219C69.9846 48.6768 69.189 49.0673 68.339 49.2644C67.6297 49.4359 66.9031 49.5215 66.1741 49.5195C65.9019 49.5195 65.6806 49.5079 65.5294 49.4963C65.4538 49.4963 65.3951 49.4867 65.3573 49.4809H65.3176H65.3082L65.1361 50.8224L65.1323 50.8185Z" fill="#231F20"/>
<path d="M80.3945 58.9527L80.7613 59.1692L80.3964 58.9488L80.7632 59.1653L80.3983 58.945C80.3832 58.9701 79.9766 59.6525 78.8668 60.5475C77.7569 61.4425 75.938 62.552 73.0924 63.4161L73.4706 64.7131C76.5601 63.7756 78.5643 62.5404 79.8008 61.5178C81.0374 60.4953 81.5025 59.6911 81.5403 59.6273L80.3945 58.9527Z" fill="#231F20"/>
<path d="M137.061 112.878C137.061 112.878 118.429 77.6586 109.336 72.5632C100.244 67.4677 95.7815 66.7061 88.3206 71.5831C80.8597 76.4602 63.2794 127.508 63.2794 127.508L71.7689 131.926H90.4004L98.8956 120.651L137.061 112.878Z" fill="#2F3841"/>
<path d="M68.5 112L74.5 99L100.5 117.5L90 132H72.5L67 122.5L68.5 112Z" fill="white"/>
<path d="M137.06 112.878L137.643 112.558C137.643 112.558 132.976 103.735 127.168 94.273C124.264 89.539 121.074 84.6446 118.028 80.5988C116.655 78.7446 115.181 76.9711 113.613 75.2868C112.206 73.81 110.889 72.6637 109.656 71.9697C107.17 70.5779 105.014 69.4974 103.021 68.759C101.028 68.0206 99.1981 67.6281 97.3867 67.6281C95.8303 67.6367 94.2871 67.9218 92.8262 68.471C91.1167 69.1297 89.4853 69.9837 87.9632 71.0167C87.3423 71.454 86.7852 71.9792 86.3088 72.5767C85.2538 73.839 84.1155 75.6193 82.9054 77.7959C80.7935 81.5924 78.4792 86.5718 76.1876 91.9205C69.3147 107.965 62.6573 127.295 62.6536 127.295L62.4645 127.854L71.6176 132.603H90.7332L99.2756 121.264L138.07 113.364L137.643 112.558L137.06 112.878L136.932 112.215L98.5306 120.036L90.0809 131.248H71.9296L63.5744 126.903L63.2737 127.506L63.8977 127.73L63.9487 127.585C64.4649 126.093 68.9063 113.335 74.1134 100.374C76.717 93.8941 79.5134 87.3624 82.1 82.1742C83.2008 79.9112 84.4228 77.7119 85.7605 75.5864C86.2465 74.8237 86.7788 74.0928 87.3544 73.3982C87.7373 72.9223 88.1827 72.5028 88.6779 72.1514C90.1155 71.1759 91.6561 70.3693 93.2706 69.7467C94.5882 69.2462 95.9811 68.9846 97.3867 68.9735C99.009 68.9735 100.68 69.3253 102.571 70.0251C104.462 70.7249 106.559 71.79 109.017 73.1566C110.057 73.7365 111.31 74.8055 112.662 76.2301C115.033 78.7218 117.722 82.2902 120.414 86.2297C124.442 92.139 128.463 98.8872 131.473 104.153C132.986 106.786 134.234 109.049 135.111 110.654C135.55 111.456 135.894 112.094 136.128 112.53C136.246 112.747 136.334 112.917 136.395 113.029L136.486 113.201L137.068 112.878L136.939 112.215L137.06 112.878Z" fill="#231F20"/>
<path d="M113.252 102.612L108.47 103.426L99.5951 119.402L100.703 120.137C100.883 119.878 101.042 119.605 101.178 119.319C101.309 119.05 101.417 118.77 101.503 118.482C101.603 118.15 101.656 117.804 101.66 117.456C101.667 117.035 101.566 116.62 101.367 116.251C101.168 115.883 100.878 115.575 100.525 115.357L98.9126 114.317C96.0764 112.49 90.2151 108.711 84.9909 105.121C82.3836 103.329 79.9351 101.586 78.118 100.167C77.2105 99.4593 76.458 98.8311 75.9323 98.3324C75.7181 98.1346 75.5166 97.9228 75.3292 97.6983C75.2769 97.6369 75.2283 97.5724 75.1836 97.505C75.1738 97.4888 75.165 97.472 75.1571 97.4548L75.072 97.4876L75.159 97.4625L75.0739 97.4954L75.1609 97.4702L73.8846 97.8298C73.9318 97.9905 74.0026 98.143 74.0945 98.2821C74.2934 98.5737 74.5208 98.8438 74.7733 99.0882C75.475 99.7686 76.2135 100.408 76.9855 101.004C78.6021 102.283 80.7405 103.828 83.0662 105.45C86.5565 107.876 90.4666 110.462 93.6449 112.536C95.2351 113.572 96.6399 114.479 97.7176 115.173C98.7954 115.867 99.5479 116.348 99.8183 116.526C99.985 116.621 100.122 116.762 100.215 116.933C100.307 117.104 100.351 117.298 100.342 117.493C100.338 117.71 100.303 117.925 100.24 118.132C100.148 118.44 100.021 118.736 99.8617 119.014C99.7975 119.13 99.7407 119.225 99.701 119.286L99.6538 119.356L99.6443 119.371L99.8504 119.524L99.6443 119.37L99.8504 119.522L99.6443 119.368L100.177 119.77L100.745 120.102L109.31 104.651L113.47 103.942L113.252 102.608V102.612Z" fill="#231F20"/>
<path d="M30.488 84.7896C30.488 84.7896 24.9235 61.5256 22.439 61.6783C19.9546 61.831 10.3174 65.2834 9.82013 64.6745C9.32286 64.0656 22.7378 33.7905 23.7304 33.69C24.7231 33.5895 51.7855 46.448 51.7703 48.5472C51.7552 50.6465 40.8229 55.9391 40.8229 55.9391C40.8229 55.9391 48.2743 76.0542 47.4802 76.7656C46.6861 77.477 33.6682 85.7078 30.488 84.7896Z" fill="#ED4D4D"/>
<path d="M30.4883 84.7896L31.1312 84.6291C31.1312 84.6291 29.7471 78.8301 28.0454 73.031C27.1946 70.1314 26.2681 67.2319 25.3833 65.0244C25.023 64.088 24.5893 63.1829 24.0862 62.3181C23.8993 62.002 23.6745 61.7111 23.4169 61.4521C23.295 61.3329 23.1575 61.2314 23.0085 61.1506C22.8405 61.06 22.6538 61.0117 22.4639 61.0095H22.3996C21.9938 61.0463 21.5908 61.1109 21.1933 61.2028C20.3784 61.3709 19.3707 61.6377 18.2816 61.9412C16.6517 62.3974 14.848 62.9386 13.3165 63.3658C12.5602 63.5785 11.8549 63.7621 11.2915 63.8897C11.0097 63.9535 10.7601 64.0037 10.5578 64.0385C10.4104 64.0654 10.2613 64.0809 10.1116 64.0849H10.0644L10.0284 64.3517L10.1249 64.1042C10.1055 64.0955 10.0852 64.089 10.0644 64.0849L10.0284 64.3517L10.1249 64.1042L9.93578 64.5972L10.3328 64.2589C10.2788 64.1903 10.2085 64.1371 10.1286 64.1042L9.93956 64.5972L10.3366 64.2589L9.86204 64.6378L10.4557 64.5044C10.4314 64.4098 10.3846 64.3229 10.3196 64.2512L9.86204 64.6378L10.4557 64.5044L9.97927 64.6126H10.469C10.4671 64.5763 10.4626 64.5401 10.4557 64.5044L9.97927 64.6126H10.2364L10.4671 64.6358V64.6126H10.2345L10.4652 64.6358V64.6242C10.4789 64.5484 10.4972 64.4735 10.52 64.4C10.5805 64.1854 10.6864 63.8645 10.8301 63.4663C11.3709 61.9644 12.4354 59.3625 13.7343 56.3141C15.6837 51.7483 18.17 46.1793 20.2442 41.7507C21.2822 39.5374 22.2181 37.6063 22.9291 36.2358C23.2845 35.5515 23.5852 35.0064 23.8045 34.6487C23.8813 34.5179 23.9659 34.392 24.0578 34.2718L24.0862 34.2389L24.0597 34.2138L24.0843 34.2389L24.0578 34.2138L24.0824 34.2389L23.8517 33.9857L24.0276 34.2795C24.0475 34.2684 24.0659 34.2548 24.0824 34.2389L23.8517 33.9857L24.0276 34.2795L23.744 33.7886L23.7988 34.3685C23.8841 34.3617 23.9665 34.3338 24.0389 34.2873L23.744 33.7886L23.7988 34.3685L23.744 33.8253V34.3704H23.7988L23.744 33.8272V33.9722L23.6967 34.3704H23.744V33.9703L23.6967 34.3685L23.7156 34.2119L23.691 34.3685L23.7099 34.2119L23.6854 34.3685C23.7137 34.3685 23.7894 34.3955 23.8877 34.4284C24.0767 34.4922 24.3698 34.6024 24.7291 34.7493C26.0809 35.2982 28.4387 36.3595 31.1992 37.6681C35.3438 39.6302 40.4053 42.1489 44.4194 44.3448C46.4236 45.4428 48.1688 46.4615 49.3921 47.2772C49.8794 47.5914 50.345 47.9395 50.7856 48.3191C50.8961 48.414 50.9974 48.5195 51.0881 48.6342L51.1108 48.6709L51.3717 48.5414H51.0881C51.0859 48.5858 51.0937 48.6301 51.1108 48.6709L51.3717 48.5414H51.0881C51.086 48.5723 51.086 48.6033 51.0881 48.6342L51.7442 48.5434H51.0824H51.1599H51.1127H51.1599H51.1127C51.0874 48.6221 51.0504 48.6965 51.003 48.7637C50.7759 49.0751 50.511 49.3558 50.2146 49.5988C49.3826 50.2879 48.503 50.9145 47.5826 51.4738C46.0303 52.4403 44.2662 53.4069 42.8936 54.1337C42.2072 54.4952 41.6192 54.7928 41.2032 55.0016L40.7173 55.2413L40.5887 55.3051L40.5452 55.3264L39.9931 55.5931L40.2106 56.173C40.2106 56.173 40.2352 56.2445 40.2843 56.3663C40.653 57.3657 42.3112 61.8813 43.8768 66.4297C44.6595 68.701 45.4196 70.9839 45.9793 72.8299C46.2591 73.7539 46.4898 74.5697 46.6486 75.2114C46.728 75.5323 46.7885 75.8126 46.8282 76.0349C46.8591 76.1877 46.8774 76.3429 46.8831 76.4988V76.5259H46.9152H46.8831H46.9152H46.8831L47.1988 76.5703L46.9038 76.4505C46.8947 76.4749 46.8878 76.5002 46.8831 76.5259L47.1988 76.5703L46.9038 76.4505L47.4011 76.6535L47.0494 76.2437C46.9853 76.2996 46.9354 76.3706 46.9038 76.4505L47.4011 76.6535L47.0494 76.2437L46.987 76.292C46.9152 76.3461 46.798 76.4312 46.6448 76.5355C46.0776 76.9222 45.0055 77.6161 43.6877 78.4125C41.7118 79.611 39.1499 81.0666 36.7789 82.2129C35.6954 82.7466 34.5845 83.2202 33.4511 83.6317C33.0057 83.7922 32.5518 83.9271 32.0917 84.0357C31.757 84.1177 31.4147 84.1631 31.0707 84.171C30.9363 84.1755 30.802 84.1605 30.6717 84.1266L30.4921 84.778L31.1349 84.6175L30.4921 84.778L30.3125 85.4294C30.5592 85.4961 30.8136 85.528 31.0688 85.5241C31.7435 85.502 32.4121 85.3856 33.0559 85.1781C34.5486 84.7035 36.0026 84.1102 37.4047 83.4036C39.753 82.265 42.2299 80.8578 44.1906 79.6767C45.17 79.0871 46.019 78.5536 46.6486 78.1303C46.9681 77.9235 47.2366 77.7437 47.4427 77.6006C47.5461 77.5298 47.6349 77.4653 47.7093 77.4073C47.775 77.3594 47.8382 77.3077 47.8984 77.2527C47.9763 77.1856 48.0405 77.1035 48.0875 77.0111C48.1314 76.9205 48.1608 76.8232 48.1744 76.7231C48.1849 76.6469 48.1899 76.57 48.1896 76.493C48.1835 76.2376 48.1543 75.9833 48.1026 75.7333C48.0043 75.194 47.8265 74.4943 47.5921 73.6631C47.1799 72.2114 46.59 70.3769 45.9358 68.411C43.9751 62.5462 41.432 55.682 41.4301 55.6782L40.8232 55.9391L41.1049 56.5519C41.1144 56.5519 43.8559 55.222 46.6165 53.6234C47.9433 52.8746 49.2239 52.0431 50.4509 51.1336C50.9342 50.7738 51.3825 50.3673 51.7896 49.9197C51.9586 49.7307 52.1058 49.5225 52.2282 49.2992C52.3543 49.071 52.4243 48.815 52.4324 48.553V48.5047V48.4564L51.7915 48.5472H52.44C52.4422 48.517 52.4422 48.4866 52.44 48.4564L51.799 48.5472H52.4475C52.4463 48.4353 52.4271 48.3243 52.3908 48.2186C52.3311 48.0533 52.2441 47.8997 52.1337 47.7643C51.9012 47.4857 51.6393 47.2342 51.3528 47.0143C50.5471 46.3949 49.7062 45.8249 48.8343 45.3075C47.0154 44.194 44.6179 42.8757 42.0276 41.5207C38.1364 39.4949 33.8104 37.382 30.3616 35.7738C28.6373 34.9696 27.1341 34.2931 26.0129 33.8137C25.4457 33.574 24.9843 33.3845 24.627 33.2492C24.4473 33.1835 24.2942 33.1294 24.1637 33.0907C24.0975 33.0695 24.0352 33.054 23.9746 33.0405C23.8996 33.0225 23.8229 33.0128 23.7459 33.0115H23.6665C23.5839 33.0205 23.5035 33.0434 23.4282 33.0791C23.3436 33.1209 23.2658 33.1756 23.1975 33.2415C23.1013 33.334 23.0145 33.4364 22.9385 33.5469C22.7466 33.8262 22.5687 34.1152 22.4053 34.4129C22.0272 35.0914 21.5337 36.0386 20.9646 37.1849C18.9812 41.194 16.0486 47.658 13.5906 53.2909C12.3654 56.1073 11.2669 58.713 10.469 60.7002C10.07 61.6957 9.74859 62.5346 9.52359 63.1764C9.41015 63.4973 9.32129 63.7679 9.257 63.9921C9.22486 64.1042 9.19839 64.2048 9.17759 64.2995C9.15474 64.4009 9.1427 64.5046 9.14166 64.6088C9.14089 64.6705 9.14724 64.7322 9.16057 64.7924C9.18379 64.907 9.23446 65.0139 9.30805 65.1036C9.37759 65.1847 9.4625 65.2504 9.55763 65.2969C9.65198 65.3458 9.75354 65.3784 9.85826 65.3936C9.9409 65.4058 10.0243 65.4117 10.1078 65.411C10.2698 65.4088 10.4315 65.3959 10.5919 65.3723C10.919 65.3278 11.3066 65.2486 11.749 65.1442C12.5242 64.9606 13.4677 64.7015 14.4831 64.4116C16.0051 63.9767 17.686 63.476 19.1532 63.0739C19.8868 62.8806 20.5656 62.6873 21.1423 62.5694C21.581 62.4621 22.0263 62.3859 22.4753 62.3413L22.4583 62.061V62.3413H22.4753L22.4583 62.061V62.1364L22.4053 62.3297C22.4229 62.3313 22.4406 62.3313 22.4583 62.3297V62.1248L22.4053 62.3181L22.428 62.2331L22.3978 62.3143L22.4204 62.2292L22.3902 62.3104C22.4212 62.3287 22.4503 62.35 22.4772 62.3742C22.6325 62.5267 22.769 62.6981 22.8837 62.8845C23.2906 63.5495 23.6416 64.2485 23.933 64.9741C24.5816 66.507 25.2812 68.5309 25.9599 70.6959C26.9791 73.9434 27.9547 77.5098 28.6732 80.2624C29.0324 81.6387 29.3293 82.8121 29.5335 83.6394C29.6375 84.0531 29.7225 84.3817 29.7717 84.6059C29.8001 84.7181 29.8209 84.7992 29.8341 84.863C29.8473 84.9268 29.8549 84.95 29.8549 84.95L29.9475 85.3366L30.3257 85.4449L30.4883 84.7896Z" fill="#231F20"/>
<path d="M12.6015 59.2736C12.6015 59.2736 1.27395 50.5537 2.86407 42.0194C4.4542 33.4851 7.2355 32.3697 7.2355 32.3697C7.2355 32.3697 6.24285 30.6416 8.82563 28.7124C8.82563 28.7124 8.63655 25.1228 14.8874 23.6653C14.8874 23.6653 14.8874 20.1858 23.2351 20.4835C31.5828 20.7812 32.9725 28.3046 32.9725 29.3213C32.9725 30.3381 34.0578 36.6668 32.0781 36.5335C30.0985 36.4001 29.0964 36.4329 29.0964 34.0959C29.0964 34.0959 29.0378 38.799 26.2149 36.4329C26.2149 36.4329 26.9107 40.9021 23.2351 40.4923C23.2351 40.4923 24.3279 46.5871 20.4519 44.455C16.5758 42.3229 12.0059 39.172 8.82563 41.915" fill="white"/>
<path d="M13.0004 58.7343C11.2036 57.287 9.54489 55.6689 8.04661 53.9017C6.78673 52.4385 5.69963 50.8288 4.80775 49.1058C3.93611 47.3661 3.37644 45.522 3.37833 43.7069C3.37788 43.188 3.42536 42.6702 3.52014 42.1605C4.30291 37.9581 5.37119 35.6346 6.19934 34.3878C6.47614 33.9497 6.81297 33.5546 7.19955 33.2144C7.27993 33.1475 7.36457 33.0862 7.45291 33.0308L7.49829 33.0056L7.36594 32.7099L7.48128 33.0114H7.49829L7.36594 32.7157L7.48128 33.0172L8.20354 32.7273L7.81027 32.0449L7.55123 32.2015L7.81783 32.0565V32.0449L7.5588 32.2015L7.82539 32.0565C7.7533 31.8926 7.71778 31.7143 7.7214 31.5346C7.728 31.2104 7.81659 30.8934 7.97854 30.6145C8.29631 30.082 8.72258 29.6258 9.22833 29.2768L9.51951 29.0584L9.49871 28.6892L9.13947 28.7124L9.49871 28.7008V28.6892L9.13947 28.7124L9.49871 28.7008C9.50532 28.5099 9.53647 28.3208 9.59136 28.1383C9.81932 27.4121 10.249 26.7693 10.8279 26.2884C11.622 25.5828 12.9191 24.8483 15.0462 24.3553L15.5605 24.2355V23.6575H15.1369L15.5605 23.6749V23.6575H15.1369L15.5605 23.6749H15.4527H15.5605H15.4527H15.5605C15.5634 23.641 15.5691 23.6074 15.5775 23.5744C15.6256 23.3801 15.7097 23.197 15.8252 23.0351C16.0672 22.6852 16.5361 22.2232 17.5269 21.8289C18.5176 21.4345 19.9905 21.1446 22.2311 21.1446C22.5424 21.1446 22.8695 21.1504 23.2124 21.162C25.2033 21.2374 26.7405 21.7419 27.9506 22.4397C28.7878 22.9303 29.535 23.5661 30.159 24.3186C30.9214 25.2449 31.5099 26.3072 31.8947 27.4521C32.0337 27.8534 32.1449 28.2642 32.2275 28.6815C32.2596 28.8458 32.2823 28.9888 32.2956 29.1009C32.305 29.1753 32.3106 29.2502 32.3126 29.3252C32.3126 29.4237 32.3126 29.5185 32.3277 29.6402C32.358 30.0462 32.4279 30.657 32.4922 31.3645C32.5565 32.072 32.6094 32.8626 32.6094 33.5972C32.611 33.947 32.5952 34.2967 32.5622 34.6449C32.5416 34.8584 32.5068 35.0702 32.4582 35.2789C32.4319 35.3955 32.3952 35.5094 32.3485 35.6191C32.3167 35.703 32.2684 35.7793 32.2067 35.8433L32.1802 35.8588C32.1683 35.8609 32.1562 35.8609 32.1443 35.8588H32.1254C31.6243 35.824 31.2008 35.7989 30.8699 35.7525C30.676 35.73 30.4855 35.6833 30.3027 35.6133C30.2221 35.5823 30.1478 35.5364 30.0834 35.478C30.0396 35.4369 30.002 35.3893 29.9718 35.3369C29.8998 35.2028 29.8512 35.0569 29.8281 34.9058C29.7813 34.6386 29.7598 34.3673 29.7638 34.0959L28.4403 34.0862C28.4403 34.0959 28.4403 34.2795 28.4119 34.5366C28.3903 34.7645 28.3562 34.991 28.3098 35.2151C28.2512 35.5487 28.136 35.8692 27.9695 36.1623C27.9208 36.2447 27.8565 36.3163 27.7804 36.373C27.7304 36.4061 27.6717 36.423 27.6122 36.4213C27.4915 36.4154 27.3735 36.3831 27.2662 36.3266C27.0414 36.2156 26.8317 36.0752 26.6422 35.9091L25.296 34.7802L25.5701 36.5392L25.9483 36.4774L25.5701 36.5373L25.9483 36.4754L25.5701 36.5354V36.5856C25.5961 36.8056 25.6087 37.027 25.608 37.2486C25.6092 37.5474 25.5839 37.8457 25.5323 38.1398C25.494 38.3686 25.4306 38.5923 25.3433 38.8067C25.2826 38.9554 25.2038 39.0957 25.1088 39.2242C24.9736 39.4109 24.7958 39.5609 24.5907 39.6611C24.3088 39.7907 24.0016 39.8528 23.6926 39.8428C23.5663 39.8426 23.4401 39.8355 23.3145 39.8215L22.4334 39.7249L22.5922 40.616C22.6778 41.1399 22.722 41.6699 22.7246 42.2011C22.7266 42.4856 22.7082 42.7698 22.6697 43.0516C22.6447 43.2384 22.6043 43.4227 22.5487 43.6025C22.4973 43.7887 22.4011 43.9589 22.2689 44.0974C22.2242 44.1392 22.1723 44.172 22.1157 44.194C22.0411 44.2209 21.9623 44.234 21.8832 44.2327C21.7329 44.2284 21.5839 44.2024 21.4407 44.1554C21.2098 44.0796 20.9869 43.9805 20.7752 43.8596C19.393 43.0999 17.8937 42.1914 16.3716 41.4607C15.6285 41.0974 14.86 40.7911 14.0725 40.5445C13.3249 40.3081 12.5482 40.1818 11.7657 40.1695C11.1731 40.1653 10.584 40.262 10.0225 40.4555C9.43165 40.6649 8.8841 40.9848 8.40775 41.3989L9.26237 42.433C9.6125 42.1262 10.0159 41.8895 10.4517 41.7352C10.8751 41.5901 11.3192 41.5182 11.7657 41.5226C12.4221 41.5353 13.0734 41.6433 13.7 41.8435C14.8064 42.2036 15.877 42.6703 16.8972 43.2372C17.9882 43.8171 19.0867 44.4666 20.1475 45.0523C20.4363 45.215 20.7403 45.3477 21.055 45.4486C21.3229 45.5359 21.602 45.5821 21.8832 45.5858C22.0963 45.587 22.3083 45.5531 22.5109 45.4853C22.8422 45.373 23.135 45.1657 23.3542 44.888C23.5055 44.6974 23.6284 44.4851 23.7191 44.2578C23.85 43.9275 23.9384 43.5811 23.9819 43.2275C24.0278 42.8874 24.0499 42.5444 24.0481 42.2011C24.0454 41.5883 23.9941 40.9767 23.8949 40.3724L23.2445 40.4942L23.1727 41.1669C23.3473 41.1858 23.5227 41.1955 23.6983 41.1959C24.2942 41.212 24.8829 41.0602 25.4 40.7571C25.7265 40.5549 26.0085 40.2857 26.2281 39.9665C26.5172 39.5374 26.7179 39.0527 26.818 38.5418C26.9607 37.8117 26.9831 37.0623 26.8842 36.3247L26.23 36.431L25.8103 36.9529C26.0889 37.1945 26.3972 37.3979 26.7273 37.5579C27.0064 37.6937 27.3107 37.7669 27.6197 37.7725C27.9041 37.7735 28.1838 37.6981 28.4309 37.5541C28.625 37.4381 28.7968 37.2868 28.9376 37.1075C29.159 36.8181 29.3286 36.4909 29.4386 36.141C29.5836 35.6937 29.6806 35.2315 29.7279 34.7628C29.7695 34.3762 29.7733 34.1113 29.7733 34.0959L29.1115 34.0862H28.4498C28.4315 34.6272 28.5103 35.1671 28.6823 35.679C28.802 36.0056 29.0011 36.2957 29.2609 36.5218C29.4449 36.6771 29.6533 36.7993 29.8773 36.8833C30.2071 37.0016 30.5501 37.0769 30.8983 37.1075C31.2556 37.1481 31.6357 37.1694 32.0479 37.1984C32.0844 37.2003 32.121 37.2003 32.1575 37.1984C32.5194 37.2034 32.8691 37.0648 33.1332 36.8118C33.3248 36.6225 33.476 36.3948 33.5775 36.143C33.7301 35.7602 33.8294 35.3574 33.8725 34.9464C33.9242 34.4973 33.9488 34.0454 33.9462 33.5933C33.9462 32.677 33.8687 31.7241 33.7949 30.9334C33.7571 30.5372 33.7193 30.1834 33.6928 29.8993C33.6796 29.7582 33.6683 29.6344 33.6607 29.5339C33.6531 29.4334 33.6493 29.3561 33.6493 29.3213C33.6485 29.2082 33.6409 29.0952 33.6267 28.983C33.5309 28.2449 33.3527 27.5204 33.0954 26.8238C32.4937 25.1127 31.4807 23.5838 30.1496 22.3779C29.2987 21.625 28.3271 21.0279 27.2775 20.613C25.9962 20.1178 24.6423 19.8472 23.2729 19.8127C22.9155 19.7992 22.5733 19.7934 22.2443 19.7934C20.3535 19.7934 18.926 19.9983 17.818 20.3192C17.119 20.5092 16.453 20.8092 15.8441 21.2084C15.2497 21.5871 14.7715 22.129 14.4638 22.7722C14.3298 23.0529 14.2538 23.3589 14.2407 23.6711H14.9025L14.755 23.0119C13.4877 23.2823 12.2681 23.7483 11.138 24.394C9.75207 25.2039 8.99577 26.1705 8.59871 26.9804C8.33099 27.5042 8.18234 28.083 8.16384 28.6737C8.1625 28.7008 8.1625 28.7279 8.16384 28.7549L8.82371 28.7124L8.42854 28.1653C7.76879 28.6283 7.21475 29.2317 6.80439 29.9341C6.53117 30.4146 6.38459 30.9595 6.37897 31.5153C6.37836 31.7981 6.4211 32.0792 6.50565 32.3484C6.54319 32.475 6.59457 32.5969 6.6588 32.7118L7.22602 32.3697L6.98401 31.7395C6.85922 31.7878 6.03863 32.1686 5.09325 33.6146C4.14787 35.0605 3.01342 37.5618 2.20796 41.8937C2.09812 42.489 2.04304 43.0934 2.04346 43.6992C2.04346 45.8255 2.70333 47.9035 3.66195 49.8017C5.10459 52.651 7.23359 55.1369 9.00144 56.9269C10.0122 57.9557 11.0838 58.9201 12.2101 59.8148L13.0061 58.7343H13.0004Z" fill="#231F20"/>
<path d="M7.1767 33.0424C9.40536 33.3029 11.6028 33.7918 13.7357 34.5018C15.524 35.0767 17.2346 35.8787 18.8275 36.8891C20.4139 37.931 21.7809 39.2281 22.6658 40.8286L23.8172 40.1637C22.7792 38.2848 21.2061 36.8292 19.4685 35.6984C16.8479 34.0012 13.8227 33.0115 11.4441 32.4335C10.0778 32.0956 8.69152 31.849 7.29392 31.6951L7.1748 33.0482L7.1767 33.0424Z" fill="#231F20"/>
<path d="M8.95038 29.3754C9.75257 29.2453 10.5641 29.1845 11.3762 29.1937C13.7074 29.1864 16.0182 29.6372 18.1829 30.5217C20.7676 31.6003 23.4563 33.4908 25.6703 36.8137L26.7651 36.0521C24.3998 32.4992 21.4748 30.4231 18.6821 29.2633C16.3589 28.3126 13.8786 27.8276 11.3762 27.8348C10.4802 27.8246 9.58509 27.8938 8.70081 28.0416L8.95038 29.3696V29.3754Z" fill="#231F20"/>
<path d="M14.9308 24.3418C14.9441 24.3418 15.1388 24.3283 15.4716 24.3283C16.4256 24.3323 17.3777 24.4137 18.3191 24.5719C20.1626 24.8792 22.439 25.5674 24.3695 27.0268C25.3847 27.7917 26.2478 28.7476 26.9126 29.8432C27.7001 31.1776 28.2207 32.6586 28.4441 34.2003L29.7506 33.9838C29.346 31.4264 28.4025 29.4238 27.1716 27.8947C26.2935 26.8111 25.2347 25.8949 24.0443 25.1885C22.4906 24.282 20.7976 23.6519 19.0376 23.3251C17.8622 23.0944 16.6684 22.976 15.4716 22.9713C15.0821 22.9713 14.8571 22.9868 14.8439 22.9868L14.9308 24.3399V24.3418Z" fill="#231F20"/>
<path d="M78.0444 132.841C78.0444 132.841 71.0826 105.869 68.8213 102.365C66.5599 98.8601 51.9519 73.723 43.4568 71.125C39.1326 72.8647 43.3074 77.6103 44.8975 78.8977C46.4877 80.1851 53.7066 91.358 54.304 92.916C54.9015 94.4741 49.4013 89.2587 44.8975 89.2587C40.3938 89.2587 37.1454 90.8168 37.7429 95.2859C37.7429 95.2859 32.9725 96.3027 32.9725 101.044C32.9725 105.786 35.4305 105.243 35.4305 105.243C35.4305 105.243 32.5169 111.947 37.6843 115.198C42.8517 118.449 46.2948 113.099 46.2948 113.099C46.2948 113.099 46.361 121.971 52.4568 124.003C58.5526 126.035 58.1555 125.764 58.1555 125.764L60.0103 134.84" fill="white"/>
<path d="M78.6834 132.669C78.6834 132.669 76.942 125.921 74.917 118.73C73.9036 115.134 72.8202 111.429 71.8446 108.394C71.3567 106.876 70.8992 105.525 70.4832 104.435C70.2752 103.89 70.0805 103.41 69.8971 103.003C69.747 102.653 69.572 102.315 69.3733 101.992C69.0992 101.566 68.617 100.789 67.9893 99.7609C65.7733 96.1596 61.6307 89.4636 57.0966 83.3649C54.8277 80.3165 52.4643 77.417 50.1803 75.1186C49.138 74.0495 48.0152 73.0658 46.8223 72.1766C45.7313 71.3821 44.6744 70.7925 43.6458 70.4774L43.4265 70.4098L43.2128 70.4967C42.8512 70.638 42.5077 70.8237 42.1899 71.0496C41.7744 71.3382 41.4342 71.7265 41.1992 72.1804C40.9921 72.5998 40.8864 73.0638 40.891 73.5335C40.9073 74.1731 41.0527 74.8022 41.3183 75.3815C41.7202 76.2516 42.2395 77.0598 42.8611 77.7823C43.3521 78.378 43.8958 78.9261 44.4853 79.4196C44.5873 79.5082 44.6839 79.6031 44.7746 79.7038C45.0147 79.9647 45.3418 80.361 45.7067 80.8443C46.3553 81.6929 47.1551 82.8179 47.9927 84.0434C49.25 85.8817 50.5962 87.9501 51.6721 89.6724C52.209 90.5345 52.678 91.3097 53.0334 91.9224C53.2111 92.2298 53.3586 92.5023 53.4721 92.7092C53.5855 92.916 53.6611 93.0958 53.6876 93.1557V93.175L53.733 93.1615L53.6857 93.1731L53.7311 93.1596L53.6838 93.1712L54.009 93.09H53.6763C53.674 93.117 53.674 93.1442 53.6763 93.1712L54.0015 93.09H54.1906L53.6971 92.916C53.678 92.972 53.6677 93.0307 53.6668 93.09H54.1906L53.6971 92.916L54.2435 93.1093L53.8067 92.7478C53.7634 92.8011 53.7301 92.862 53.7084 92.9276L54.2548 93.1209L53.8067 92.7478L54.2586 93.1229L54.0563 92.5642C53.9586 92.6015 53.8724 92.6649 53.8067 92.7478L54.2586 93.1229L54.0563 92.5642L54.2359 93.0591V92.5294C54.1746 92.5304 54.1138 92.5422 54.0563 92.5642L54.2359 93.0591V92.8387L54.304 92.5371C54.2813 92.5354 54.2586 92.5354 54.2359 92.5371V92.8464L54.304 92.5449C54.2615 92.5299 54.2198 92.5125 54.1792 92.4927C54.0487 92.4308 53.8483 92.3187 53.612 92.1757C53.1903 91.9224 52.6382 91.5726 52.0048 91.1918C50.9429 90.5393 49.8372 89.9644 48.696 89.4714C47.4765 88.9668 46.1813 88.5918 44.8937 88.5899C43.8878 88.578 42.8833 88.6687 41.895 88.8605C41.2286 88.9922 40.58 89.2044 39.9626 89.4926C39.0534 89.8874 38.284 90.5568 37.7575 91.4112C37.231 92.2656 36.9725 93.2642 37.0168 94.273C37.0184 94.6429 37.0443 95.0123 37.0943 95.3787L37.7504 95.2859L37.6143 94.6248C37.3288 94.6915 37.0483 94.7787 36.7748 94.8858C35.7403 95.2676 34.7991 95.8744 34.0162 96.6642C33.5093 97.1901 33.1011 97.8066 32.8118 98.4831C32.4773 99.2933 32.3093 100.165 32.3183 101.044C32.302 101.878 32.3993 102.71 32.6076 103.517C32.7225 103.95 32.9023 104.362 33.1408 104.738C33.41 105.166 33.7913 105.506 34.2412 105.722C34.5448 105.863 34.874 105.937 35.2074 105.939C35.3292 105.939 35.4507 105.927 35.5704 105.904L35.4305 105.243L34.8273 104.968C34.6499 105.396 34.502 105.836 34.3849 106.285C34.1048 107.291 33.9586 108.331 33.95 109.378C33.9343 110.54 34.1693 111.692 34.6382 112.751C35.2252 114.008 36.1643 115.059 37.3364 115.77C38.6296 116.586 39.87 116.93 40.9931 116.918C41.8478 116.915 42.6924 116.728 43.4719 116.369C44.4023 115.931 45.2443 115.319 45.9544 114.564C46.283 114.226 46.5823 113.859 46.8488 113.468L46.2948 113.095H45.633C45.6863 114.757 45.9624 116.404 46.4536 117.989C46.8716 119.385 47.5291 120.695 48.3954 121.855C49.3764 123.157 50.7167 124.127 52.2431 124.641C54.6519 125.443 56.0511 125.888 56.8679 126.133C57.2763 126.257 57.541 126.326 57.7187 126.375C57.8076 126.398 57.8756 126.413 57.9343 126.425L58.0231 126.439C58.0603 126.441 58.0975 126.441 58.1347 126.439C58.1643 126.441 58.194 126.441 58.2235 126.439C58.2592 126.434 58.2946 126.427 58.3294 126.417C58.4327 126.386 58.5273 126.331 58.6055 126.255C58.6697 126.193 58.7212 126.119 58.7567 126.037C58.7932 125.95 58.8125 125.856 58.8135 125.762C58.8123 125.607 58.7604 125.458 58.666 125.337C58.6361 125.3 58.6032 125.266 58.5677 125.234C58.5514 125.22 58.5343 125.208 58.5166 125.196L57.1647 124.264L59.3523 134.969L60.6494 134.693L58.7927 125.607L58.146 125.747L57.7679 126.307L58.1271 125.762L57.679 126.232C57.7063 126.26 57.736 126.285 57.7679 126.307L58.1271 125.762L57.679 126.232L58.1328 125.756L57.5882 126.129C57.6154 126.173 57.6478 126.213 57.6847 126.249L58.1385 125.774L57.5882 126.129L58.1422 125.772L57.5259 125.996C57.5425 126.042 57.5634 126.087 57.5882 126.129L58.1422 125.772L57.5259 125.996L58.146 125.77H57.488C57.4873 125.847 57.5001 125.923 57.5259 125.996L58.146 125.77L57.5334 125.528C57.504 125.604 57.4893 125.686 57.4899 125.768H58.1555L57.5334 125.528L58.1479 125.768L57.6393 125.335C57.5939 125.393 57.5581 125.458 57.5334 125.528L58.1479 125.768L57.6393 125.335L58.146 125.762L57.853 125.161C57.7706 125.203 57.6978 125.262 57.6393 125.335L58.146 125.762L57.853 125.161L58.1403 125.75L58.0458 125.099C57.9797 125.108 57.9157 125.129 57.8567 125.161L58.1441 125.75L58.0496 125.099L58.1385 125.706V125.091C58.1089 125.088 58.0791 125.088 58.0496 125.091L58.1385 125.698V125.528L58.1914 125.095C58.1738 125.093 58.156 125.093 58.1385 125.095V125.528L58.1914 125.095L58.1763 125.211L58.1933 125.095L58.1782 125.211L58.1952 125.095C58.1952 125.095 58.1006 125.078 57.921 125.029C57.3746 124.883 55.983 124.461 52.659 123.352C51.3824 122.92 50.2624 122.106 49.4448 121.015C48.8585 120.238 48.3847 119.379 48.038 118.465C47.5825 117.27 47.2683 116.024 47.1021 114.753C47.034 114.247 46.9981 113.824 46.9792 113.53C46.9792 113.385 46.966 113.271 46.9641 113.193C46.9641 113.157 46.9641 113.128 46.9641 113.11V113.085L46.9471 110.858L45.7502 112.72L45.9223 112.834L45.7502 112.718L45.9223 112.832L45.7502 112.716C45.3699 113.261 44.9211 113.753 44.4153 114.179C43.9621 114.571 43.4575 114.897 42.916 115.146C42.3133 115.422 41.6609 115.565 41.0006 115.567C40.1328 115.567 39.1534 115.32 38.0378 114.62C37.0803 114.055 36.3109 113.208 35.8294 112.19C35.4418 111.311 35.2481 110.355 35.2622 109.391C35.2686 108.467 35.3957 107.548 35.6403 106.658C35.7368 106.302 35.8294 106.014 35.9051 105.817C35.941 105.718 35.9693 105.643 35.9901 105.595L36.0109 105.541V105.529L35.7954 105.43L36.0109 105.529L35.7954 105.43L36.0109 105.529L36.5403 104.313L35.2773 104.582L35.3416 104.887L35.2906 104.578H35.2773L35.3416 104.883L35.2906 104.574C35.2578 104.577 35.2249 104.577 35.1922 104.574C35.0679 104.573 34.9448 104.549 34.8292 104.503C34.6999 104.451 34.5813 104.375 34.4794 104.278C34.212 104.012 34.0166 103.679 33.9122 103.312C33.6975 102.573 33.5992 101.803 33.621 101.033C33.6003 100.31 33.743 99.5915 34.0382 98.934C34.3333 98.2765 34.7729 97.6975 35.3227 97.2421C35.8441 96.8067 36.4283 96.4566 37.0546 96.2041C37.3023 96.1036 37.5122 96.0359 37.6559 95.9934C37.7277 95.9721 37.7826 95.9567 37.8185 95.9489H37.8582L37.7769 95.5623L37.8563 95.9489L37.775 95.5623L37.8544 95.9489L38.4595 95.8214L38.3744 95.1951C38.3328 94.8895 38.3113 94.5815 38.3101 94.273C38.2907 93.5733 38.4497 92.8805 38.7714 92.2626C38.9925 91.8619 39.2926 91.5124 39.6525 91.2362C40.3013 90.7556 41.0424 90.4209 41.8269 90.2542C42.8275 90.0283 43.8502 89.9212 44.8748 89.9353C45.8273 89.9662 46.7678 90.1623 47.6561 90.5152C49.0874 91.0448 50.4922 91.8567 51.6267 92.5429C52.1939 92.887 52.6836 93.1982 53.0864 93.4341C53.2887 93.552 53.4645 93.6506 53.6366 93.7298C53.7204 93.7688 53.8062 93.803 53.8937 93.8323C54 93.8677 54.111 93.8859 54.2227 93.8864C54.3891 93.8896 54.552 93.8366 54.6859 93.7356C54.7952 93.653 54.8802 93.5414 54.9317 93.4128C54.9696 93.315 54.9889 93.2107 54.9885 93.1055C54.9885 93.0239 54.9783 92.9427 54.9582 92.8638C54.9434 92.798 54.9238 92.7334 54.8996 92.6705C54.8353 92.5108 54.7627 92.3546 54.6822 92.2027C54.5101 91.8664 54.2643 91.4295 53.958 90.9095C52.8878 89.0905 51.0822 86.2703 49.3729 83.7399C48.5183 82.4796 47.6882 81.2985 46.9849 80.3571C46.6313 79.8855 46.3118 79.4757 46.0395 79.1432C45.8977 78.975 45.7672 78.8281 45.6462 78.6986C45.5354 78.5809 45.418 78.4699 45.2945 78.3661C44.9726 78.0995 44.6676 77.8122 44.3813 77.5059C43.812 76.9107 43.3091 76.2526 42.8819 75.5439C42.6803 75.2077 42.5124 74.8515 42.3809 74.4807C42.2692 74.1756 42.2085 73.8534 42.2013 73.5277C42.2 73.3574 42.2242 73.188 42.2731 73.0252C42.3524 72.7727 42.4945 72.5456 42.6853 72.366C42.9777 72.0992 43.3172 71.8919 43.6855 71.7552L43.4435 71.125L43.2544 71.7745C44.1998 72.0606 45.3021 72.6946 46.4801 73.607C48.5429 75.2017 50.8288 77.6374 53.1128 80.4306C56.537 84.6214 59.9536 89.6221 62.6933 93.8593C64.0641 95.9857 65.2666 97.9052 66.2195 99.4477C66.696 100.221 67.1101 100.896 67.4523 101.45C67.7946 102.005 68.063 102.44 68.254 102.738C68.4167 103.003 68.5595 103.28 68.6813 103.567C68.9971 104.265 69.3752 105.262 69.7893 106.467C70.5172 108.562 71.3567 111.276 72.2076 114.16C73.4819 118.488 74.779 123.205 75.7565 126.837C76.2443 128.654 76.6527 130.2 76.9401 131.283C77.0838 131.828 77.1973 132.261 77.2729 132.555L77.392 133.011L78.6702 132.665L78.6834 132.669Z" fill="#231F20"/>
<path d="M37.7467 95.9625H37.828C40.2187 95.9756 42.6071 96.1201 44.9826 96.3955C46.6772 96.5824 48.3553 96.901 50.0026 97.3484C50.7073 97.5452 51.3952 97.7999 52.0597 98.1101C52.5796 98.3442 53.0606 98.6599 53.4853 99.0456L54.3929 98.0598C53.8668 97.5757 53.2696 97.1791 52.6232 96.8845C51.4301 96.3046 49.9761 95.8948 48.4635 95.5797C46.2316 95.1479 43.9741 94.8683 41.7059 94.7427C39.7131 94.619 38.1986 94.6093 37.8223 94.6093H37.7354L37.7448 95.9625H37.7467Z" fill="#231F20"/>
<path d="M35.6859 105.863C36.673 105.453 37.6832 105.103 38.7111 104.816C40.4865 104.307 42.8443 103.811 45.2078 103.811C46.6982 103.785 48.1815 104.027 49.5905 104.524L50.0443 103.252C48.4897 102.701 46.8529 102.432 45.2078 102.457C42.625 102.457 40.1273 103.001 38.2668 103.538C37.2126 103.836 36.1766 104.198 35.1641 104.621L35.6878 105.863H35.6859Z" fill="#231F20"/>
<path d="M39.6678 111.009H39.6943C39.8286 110.992 40.4601 110.909 41.2599 110.831C42.0596 110.754 43.0296 110.681 43.8199 110.681C44.1651 110.675 44.5103 110.696 44.8523 110.744C44.9298 110.756 45.0058 110.776 45.0792 110.804L45.187 110.611L45.0376 110.779C45.0503 110.791 45.0643 110.801 45.0792 110.81L45.187 110.617L45.0376 110.785L45.3136 110.474L44.9525 110.667C44.9747 110.71 45.0034 110.748 45.0376 110.781L45.3136 110.47L44.9525 110.663C44.9956 110.747 45.0329 110.835 45.0641 110.924C45.1359 111.117 45.2115 111.361 45.2796 111.616C45.3817 112.003 45.4687 112.405 45.533 112.712C45.5632 112.865 45.5878 112.994 45.6048 113.085C45.6143 113.13 45.6199 113.165 45.6237 113.188V113.215L46.9264 112.979C46.9264 112.979 46.8357 112.463 46.6958 111.848C46.6239 111.541 46.5407 111.206 46.4462 110.882C46.3989 110.723 46.3479 110.57 46.2949 110.424C46.24 110.282 46.1769 110.144 46.1059 110.01C46.0458 109.897 45.9641 109.797 45.8657 109.716C45.7271 109.611 45.5707 109.533 45.4044 109.486C45.1646 109.418 44.9189 109.375 44.6708 109.356C44.4061 109.333 44.1187 109.324 43.8143 109.324C42.8916 109.324 41.8195 109.411 40.9668 109.496C40.1141 109.581 39.492 109.668 39.4863 109.668L39.6622 111.009H39.6678Z" fill="#231F20"/>
<path d="M61.277 36.4329C61.2785 36.8588 61.1564 37.2755 60.9261 37.6303C60.6958 37.9851 60.3676 38.2621 59.9832 38.4261C59.5988 38.5901 59.1755 38.6338 58.7667 38.5517C58.358 38.4696 57.9823 38.2653 57.6873 37.9647C57.3922 37.6641 57.191 37.2808 57.1092 36.8632C57.0274 36.4457 57.0686 36.0127 57.2277 35.6191C57.3868 35.2255 57.6565 34.8891 58.0027 34.6523C58.3489 34.4156 58.7561 34.2892 59.1726 34.2892C59.7296 34.2887 60.264 34.5141 60.6586 34.916C61.0531 35.318 61.2755 35.8635 61.277 36.4329Z" fill="#231F20"/>
<path d="M76.6281 31.5385C76.6285 31.9642 76.5054 32.3804 76.2743 32.7345C76.0432 33.0886 75.7145 33.3647 75.3299 33.5278C74.9453 33.6908 74.522 33.7336 74.1136 33.6507C73.7052 33.5677 73.3301 33.3628 73.0357 33.0618C72.7413 32.7607 72.5408 32.3772 72.4597 31.9597C72.3785 31.5422 72.4203 31.1094 72.5799 30.7162C72.7394 30.323 73.0094 29.987 73.3558 29.7508C73.7021 29.5145 74.1092 29.3886 74.5256 29.389C75.0832 29.389 75.618 29.6154 76.0123 30.0186C76.4066 30.4217 76.6281 30.9684 76.6281 31.5385Z" fill="#231F20"/>
</g>
<defs>
<clipPath id="clip0_2176_1637">
<rect width="128" height="130" fill="white"/>
</clipPath>
</defs>
</svg>
