<svg width="130" height="130" viewBox="0 0 130 130" fill="none" xmlns="http://www.w3.org/2000/svg">
<g clip-path="url(#clip0_2176_1519)">
<path d="M73.7019 32.0275L72.2871 21.6029L82.909 26.8152L85.4666 17.5707L90.1874 29.6671L113.397 9.01495L107.888 29.6671L123.231 28.684L115.561 37.3396L126.38 39.8946L102.776 51.502L73.7019 32.0275Z" fill="white"/>
<path d="M73.7023 32.0276L74.5656 31.9103L73.3729 23.11L83.4684 28.0628L85.6067 20.3354L89.8286 31.1543L111.803 11.6024L106.733 30.6178L121.173 29.6921L113.939 37.8537L123.81 40.1866L102.843 50.494L74.1864 31.3015L73.7023 32.0276L74.5656 31.9103L73.7023 32.0276L73.2157 32.7536L102.709 52.5075L128.948 39.6053L117.183 36.8257L125.292 27.6785L109.046 28.719L114.992 6.42755L90.5447 28.1801L85.3248 14.8062L82.3481 25.5677L71.2021 20.0984L72.8889 32.5341L73.2157 32.7536L73.7023 32.0276Z" fill="#8C8C8C"/>
<path d="M41.8887 32.7037C45.5416 32.2371 93.2891 31.3913 97.4909 34.2756C101.693 37.16 104.298 71.0039 99.3249 72.0519C94.352 73.0998 42.9342 73.1023 40.3167 72.0519C37.6993 71.0014 31.923 75.4627 31.661 57.8895C31.399 40.3163 27.4642 34.5476 41.8887 32.7037Z" fill="#ED4D4D"/>
<path d="M41.8891 32.7037L41.9988 33.5695C42.161 33.5496 42.4979 33.5221 42.9345 33.4947C44.504 33.3999 47.5606 33.3001 51.4455 33.2227C55.3305 33.1454 60.0539 33.0905 64.9743 33.0905C72.0855 33.0905 79.6209 33.2028 85.6493 33.5147C88.6634 33.6718 91.3033 33.8765 93.3094 34.1409C94.1481 34.2422 94.981 34.3871 95.8046 34.5751C96.0731 34.6379 96.338 34.7154 96.598 34.8071C96.7389 34.8545 96.8737 34.9182 96.9998 34.9968C97.1089 35.0761 97.2049 35.172 97.2842 35.2812C97.5826 35.6917 97.8275 36.1386 98.0128 36.6111C98.5476 37.9821 98.965 39.3961 99.2604 40.8379C99.898 43.8258 100.361 46.8484 100.648 49.8902C100.98 53.1962 101.164 56.642 101.164 59.7908C101.164 63.0195 100.967 65.9413 100.545 68.0422C100.407 68.8815 100.155 69.6982 99.7968 70.47C99.6931 70.6778 99.5585 70.8688 99.3976 71.0364C99.3307 71.11 99.2441 71.1628 99.1481 71.1886C99.0283 71.2135 98.8462 71.2435 98.6191 71.2709C97.7583 71.3807 96.2537 71.483 94.315 71.5678C88.4813 71.8173 78.6328 71.9546 68.9391 71.9546C62.0425 71.9546 55.2157 71.8897 49.9759 71.76C47.3485 71.6926 45.1128 71.6127 43.4635 71.5104C42.6401 71.4605 41.9664 71.4081 41.4674 71.3532C41.2179 71.3258 41.0158 71.2984 40.8685 71.2734L40.6989 71.2385L40.6565 71.226L40.619 71.3408L40.6639 71.2285L40.6265 71.3433L40.6714 71.231C40.3844 71.1205 40.0841 71.0483 39.7782 71.0164C39.4923 70.9859 39.2048 70.9726 38.9173 70.9765C38.6029 70.9765 38.296 70.9765 37.9941 70.9765C37.3824 71.0071 36.7705 70.9225 36.1901 70.727C35.7311 70.5486 35.3231 70.2598 35.0024 69.8861C34.6479 69.4692 34.3562 69.0026 34.1366 68.5013C33.6075 67.2478 33.2467 65.9297 33.0637 64.5815C32.7407 62.3577 32.574 60.1141 32.5646 57.8671C32.5172 54.6234 32.3451 51.7915 32.1854 49.3163C32.0257 46.8411 31.881 44.7278 31.881 42.9462C31.8463 41.64 31.9771 40.3347 32.2702 39.0613C32.4482 38.3359 32.7623 37.6509 33.1959 37.0428C33.5263 36.5953 33.9245 36.2021 34.3761 35.8775C35.2747 35.26 36.2697 34.7963 37.3204 34.5052C38.8606 34.0609 40.4357 33.7478 42.0288 33.5695L41.919 32.7037L41.8092 31.8354C39.4837 32.1324 37.6024 32.5316 36.0703 33.083C35.0235 33.4362 34.0396 33.9543 33.156 34.6175C32.5769 35.0648 32.0717 35.6003 31.6589 36.2044C31.0569 37.1199 30.6461 38.1477 30.4512 39.226C30.2259 40.4529 30.1231 41.699 30.1443 42.9462C30.1443 44.8201 30.294 46.9584 30.4512 49.4336C30.6084 51.9087 30.7806 54.7058 30.828 57.897C30.8779 61.258 31.1274 63.8404 31.5266 65.8465C31.7502 67.1005 32.1361 68.32 32.6744 69.4744C32.9751 70.1084 33.3715 70.6925 33.8496 71.206C34.4293 71.8187 35.1625 72.265 35.973 72.4985C36.6349 72.6771 37.3187 72.7611 38.0041 72.748C38.3384 72.748 38.6503 72.748 38.9273 72.748C39.1472 72.7446 39.3672 72.7538 39.586 72.7755C39.7387 72.7904 39.8887 72.8248 40.0327 72.8778C40.121 72.9129 40.212 72.9413 40.3046 72.9626C40.4793 73.005 40.6689 73.0375 40.896 73.0699C41.3202 73.1281 41.8683 73.1805 42.5403 73.2271C44.8858 73.3968 48.7408 73.519 53.3943 73.6039C58.0477 73.6887 63.4872 73.7261 68.9766 73.7261C75.8832 73.7261 82.8622 73.6612 88.4388 73.529C91.2234 73.4641 93.6562 73.3818 95.5575 73.2795C96.5082 73.2296 97.3266 73.1747 97.9928 73.1173C98.3272 73.0874 98.6216 73.0574 98.8811 73.025C99.1406 72.9925 99.3577 72.9576 99.5498 72.9177C99.9639 72.8249 100.344 72.6173 100.645 72.3189C100.906 72.0612 101.128 71.767 101.304 71.4456C101.639 70.7917 101.89 70.0985 102.052 69.3821C102.39 67.9835 102.613 66.56 102.721 65.1254C102.861 63.5061 102.926 61.7071 102.926 59.8133C102.908 54.4141 102.466 49.0246 101.603 43.6948C101.266 41.5318 100.772 39.3962 100.126 37.3048C99.8855 36.5304 99.5766 35.7789 99.203 35.0591C99.0464 34.7642 98.8653 34.4829 98.6615 34.2183C98.4726 33.9718 98.2481 33.7549 97.9953 33.5745C97.7493 33.4133 97.4845 33.2826 97.2069 33.1853C96.5413 32.9633 95.8587 32.7964 95.1658 32.6863C93.7336 32.4368 91.8772 32.2222 89.6989 32.0525C83.1691 31.5535 73.7598 31.3738 64.9843 31.3738C59.3452 31.3738 53.9731 31.4437 49.8037 31.541C47.7178 31.5884 45.9362 31.6433 44.5639 31.6982C43.8802 31.7257 43.2988 31.7531 42.8347 31.7805C42.3706 31.808 42.0288 31.8354 41.7843 31.8654L41.8891 32.7037Z" fill="#231F20"/>
<path d="M79.1316 136.833C79.1316 136.833 78.3432 127.913 79.7854 125.423C81.2276 122.932 104.964 113.618 113.75 109.164C119.928 106.028 122.8 99.5182 123.96 93.9691C124.391 91.9367 124.617 89.8661 124.633 87.7886C124.646 87.0113 124.475 86.242 124.134 85.543C122.513 82.2594 117.215 82.8558 116.11 86.5985C114.8 91.0572 112.045 94.7276 112.045 94.7276C115.848 80.443 107.325 78.8636 107.325 78.8636C108.243 67.1914 102.604 68.1345 102.604 68.1345C103.529 63.6657 103.285 60.3597 102.327 58.1141C101.149 55.3295 98.8834 54.1618 96.3957 54.4113C95.7383 54.4816 95.0926 54.6359 94.4744 54.8704C89.2346 56.8366 91.1958 69.0328 88.4411 76.2437C85.6864 83.4546 72.3123 89.4928 71.2619 89.0936C70.2114 88.6944 72.3124 81.4859 77.2952 76.7652C82.278 72.0444 79.8153 63.4961 75.1518 63.5185H75.067C72.8064 63.5809 70.5158 66.111 68.108 69.3496C65.4881 72.8728 62.7309 77.2317 59.7242 80.1735C53.9529 85.8125 49.4941 89.877 47.3956 95.1218C45.2972 100.367 44.5112 136.823 44.5112 136.823" fill="white"/>
<path d="M80.0028 136.75V136.725C79.9803 136.461 79.7932 134.183 79.7932 131.713C79.7841 130.538 79.8407 129.363 79.9628 128.195C80.0155 127.715 80.0988 127.239 80.2123 126.77C80.2823 126.451 80.3948 126.143 80.5467 125.854L80.4943 125.824L80.5467 125.857L80.4943 125.827L80.5467 125.859C80.669 125.718 80.8081 125.592 80.9609 125.485C81.6509 124.988 82.3755 124.541 83.1292 124.148C84.8209 123.224 87.1689 122.094 89.8337 120.874C93.826 119.04 98.5668 116.992 102.966 115.063C107.365 113.134 111.434 111.32 114.147 109.948C117.408 108.291 119.788 105.746 121.487 102.927C123.078 100.208 124.203 97.2428 124.818 94.1536C125.261 92.0605 125.492 89.928 125.507 87.7886C125.523 86.8744 125.324 85.9692 124.926 85.1462C124.514 84.305 123.856 83.6088 123.039 83.1501C122.266 82.7294 121.397 82.5138 120.517 82.5239C119.389 82.5235 118.287 82.8616 117.353 83.4945C116.349 84.1804 115.615 85.1939 115.277 86.3614C114.681 88.2984 113.862 90.1598 112.837 91.908C112.422 92.6266 112.046 93.208 111.779 93.6072C111.644 93.8068 111.529 93.9615 111.462 94.0638C111.424 94.1162 111.397 94.1561 111.377 94.1811L111.357 94.2085L112.056 94.7325L112.899 94.9571C113.527 92.7286 113.863 90.4279 113.897 88.1129C113.934 86.3194 113.607 84.537 112.936 82.8732C112.265 81.2243 111.093 79.8279 109.585 78.881C108.941 78.4689 108.23 78.1709 107.485 78.0002L107.325 78.861L108.196 78.9284C108.265 78.0301 108.3 77.1984 108.3 76.4333C108.334 74.8107 108.131 73.1919 107.699 71.6276C107.469 70.813 107.108 70.0412 106.631 69.3421C106.12 68.5772 105.404 67.9719 104.565 67.5955C104.037 67.3644 103.467 67.2438 102.891 67.2412C102.747 67.2404 102.604 67.2496 102.462 67.2687L102.604 68.132L103.46 68.3091C103.839 66.5582 104.04 64.7734 104.059 62.982C104.059 60.9111 103.732 59.177 103.13 57.7672L102.327 58.1115H103.2V57.9319L103.13 57.7697C102.618 56.4824 101.741 55.3725 100.608 54.5759C99.5544 53.8707 98.3124 53.5002 97.0447 53.513C96.7989 53.5132 96.5532 53.5257 96.3086 53.5504C95.5771 53.6299 94.8586 53.8018 94.1703 54.0619C93.3866 54.3597 92.6937 54.8558 92.1592 55.5016C91.6856 56.0771 91.3012 56.7206 91.0189 57.4104C90.4838 58.7754 90.1136 60.1994 89.916 61.6521C89.5443 63.9801 89.3571 66.57 89.0652 69.0776C88.7733 71.5852 88.374 74.0055 87.628 75.9517C87.0316 77.5211 85.824 79.118 84.2919 80.5951C81.9989 82.8133 79.0022 84.762 76.4372 86.1343C75.3413 86.7275 74.2144 87.2614 73.0612 87.7337C72.6021 87.9158 72.2079 88.0556 71.9084 88.1454C71.7587 88.1878 71.6315 88.2202 71.5392 88.2377C71.5038 88.2456 71.4679 88.2515 71.4319 88.2552H71.4019V88.7542L71.5741 88.2901C71.5197 88.2664 71.4612 88.2537 71.4019 88.2527V88.7517L71.5741 88.2876L71.362 88.844L71.8211 88.4647C71.7549 88.3849 71.6688 88.3238 71.5716 88.2876L71.362 88.844L71.8211 88.4647L71.4992 88.7292L71.8835 88.5621C71.8665 88.5273 71.8456 88.4947 71.8211 88.4647L71.4992 88.7292L71.8835 88.5621L71.7038 88.6394L71.8885 88.577V88.5621L71.7088 88.6394L71.8935 88.577L71.861 88.5945H71.9009H71.861H71.9009C71.8879 88.5271 71.8829 88.4585 71.886 88.3899C71.8924 88.1384 71.9208 87.8879 71.9708 87.6414C72.117 86.9294 72.3223 86.2308 72.5846 85.5529C73.1212 84.1294 73.7983 82.7628 74.6057 81.4734C75.5303 79.9869 76.6367 78.6215 77.8993 77.4088C78.9015 76.4595 79.6849 75.3032 80.1949 74.0205C80.6651 72.8288 80.9055 71.5589 80.9035 70.2778C80.9285 68.4272 80.4002 66.6114 79.3864 65.063C78.9167 64.3595 78.3026 63.7641 77.5849 63.3164C76.8588 62.871 76.0239 62.6345 75.1721 62.6327H75.1447V63.506V62.6452H75.0523V62.8673V62.6452V62.8673V62.6452H75.0274C74.2984 62.6773 73.5865 62.8762 72.9464 63.2265C71.888 63.8242 70.9347 64.5912 70.1244 65.4971C69.1454 66.553 68.2289 67.6652 67.3797 68.8281C66.0548 70.6096 64.7124 72.5708 63.3301 74.4621C61.9477 76.3534 60.533 78.1349 59.0883 79.5472C56.2089 82.3617 53.6413 84.7869 51.503 87.2172C49.3646 89.6474 47.6604 92.0453 46.5601 94.7974C46.3813 95.2753 46.2411 95.7667 46.1409 96.267C45.9038 97.3574 45.6918 98.7896 45.4971 100.479C45.1578 103.433 44.8708 107.173 44.6313 111.128C43.9127 122.995 43.6133 136.798 43.6133 136.803L45.3599 136.84C45.3599 136.84 45.3599 136.698 45.3599 136.431C45.4073 134.435 45.6344 125.335 46.0935 116.143C46.3255 111.55 46.6125 106.929 46.9668 103.169C47.1414 101.287 47.3336 99.618 47.5407 98.2831C47.643 97.6144 47.7503 97.0355 47.8576 96.5365C47.9353 96.1633 48.0404 95.7964 48.1719 95.4386C49.17 92.9435 50.742 90.6979 52.803 88.3675C54.864 86.037 57.409 83.6267 60.2885 80.7922C61.8504 79.2652 63.3126 77.4063 64.7174 75.4901C66.1222 73.5738 67.4621 71.6052 68.762 69.8636C69.9497 68.2642 71.1025 66.8694 72.1804 65.8863C72.6442 65.4508 73.1616 65.076 73.7199 64.771C74.1452 64.5372 74.6197 64.4073 75.1047 64.3918L75.0798 63.521V64.3918H75.1721V64.1697V64.3918V64.1697V64.3918H75.1896C75.7189 64.395 76.237 64.5443 76.6867 64.8234C77.4735 65.3412 78.0898 66.0799 78.4582 66.9468C78.9307 67.996 79.1716 69.1346 79.1644 70.2853C79.164 71.3432 78.9625 72.3915 78.5705 73.3742C78.1548 74.4219 77.5142 75.3656 76.6942 76.1388C74.6833 78.0921 73.0298 80.3822 71.8086 82.9056C71.3124 83.9053 70.8953 84.9422 70.561 86.0071C70.4315 86.4295 70.3241 86.8584 70.2392 87.2921C70.1673 87.647 70.1289 88.0078 70.1244 88.3699C70.1173 88.6357 70.1562 88.9008 70.2392 89.1534C70.2912 89.305 70.3698 89.4461 70.4712 89.5701C70.5985 89.726 70.7646 89.8456 70.9528 89.9169C71.0926 89.968 71.2406 89.9934 71.3894 89.9918C71.4981 89.9905 71.6065 89.9813 71.7138 89.9643C71.9363 89.9273 72.1563 89.8765 72.3725 89.8121C72.9221 89.644 73.4626 89.4474 73.9919 89.2233C76.9503 87.954 79.7567 86.3562 82.3582 84.4601C83.8444 83.3884 85.2225 82.1742 86.4727 80.8347C87.6576 79.5947 88.6003 78.1443 89.2523 76.558C89.9809 74.6467 90.3801 72.4735 90.6696 70.2553C90.8867 68.5911 91.0389 66.9019 91.2085 65.285C91.458 62.8648 91.7575 60.6017 92.3189 58.895C92.5432 58.1435 92.8905 57.4344 93.3469 56.7966C93.707 56.2981 94.2035 55.9143 94.7766 55.6913C95.3247 55.4826 95.8976 55.3459 96.4808 55.2846C96.6673 55.2648 96.8547 55.2548 97.0422 55.2546C97.9613 55.2413 98.8628 55.5076 99.6272 56.0181C100.481 56.6257 101.14 57.4695 101.521 58.4459L102.325 58.1065H101.451V58.2837L101.521 58.4484C102.02 59.5887 102.31 61.0907 102.31 62.977C102.291 64.6495 102.102 66.3157 101.746 67.9498L101.496 69.1974L102.744 68.9903L102.649 68.4089L102.734 68.9928L102.639 68.4114L102.724 68.9953L102.709 68.893L102.724 68.9953L102.709 68.893L102.724 68.9953C102.775 68.991 102.827 68.991 102.878 68.9953C103.166 68.9965 103.452 69.0489 103.722 69.15C104.038 69.2693 104.33 69.4442 104.585 69.6665C105.197 70.2352 105.648 70.9557 105.893 71.7549C106.272 72.8278 106.541 74.3448 106.541 76.4532C106.541 77.1693 106.509 77.9503 106.442 78.8111L106.379 79.5946L107.155 79.7393L107.242 79.2552L107.148 79.7368L107.235 79.2527L107.14 79.7343C107.452 79.8109 107.755 79.9205 108.043 80.0612C109.081 80.5575 109.966 81.3247 110.603 82.2818C111.08 82.9988 111.44 83.7871 111.669 84.6173C111.981 85.7591 112.133 86.9391 112.118 88.1229C112.08 90.2874 111.761 92.4379 111.17 94.5204L110.037 98.862L112.737 95.2615C113.315 94.4649 113.849 93.6369 114.336 92.7813C115.435 90.9121 116.312 88.9208 116.949 86.8479C117.173 86.0659 117.665 85.3877 118.338 84.9317C118.982 84.4978 119.741 84.2658 120.517 84.2655C121.1 84.26 121.674 84.4034 122.186 84.6821C122.696 84.9684 123.107 85.4037 123.364 85.9297C123.639 86.5091 123.774 87.1449 123.758 87.7861C123.74 89.8039 123.521 91.815 123.104 93.7894C122.529 96.6877 121.476 99.4702 119.988 102.023C118.416 104.628 116.27 106.906 113.353 108.386C111.187 109.486 108.063 110.901 104.585 112.438C99.3652 114.743 93.3569 117.323 88.4813 119.567C86.0485 120.689 83.9077 121.727 82.2833 122.613C81.5853 122.986 80.9066 123.394 80.2498 123.836C80.0046 124.003 79.7697 124.184 79.5461 124.38C79.3428 124.554 79.1677 124.758 79.0271 124.986C78.7938 125.416 78.62 125.876 78.5107 126.353C78.3169 127.19 78.1917 128.041 78.1364 128.898C78.0665 129.819 78.0416 130.787 78.0416 131.72C78.0416 134.447 78.2586 136.895 78.2611 136.91L80.0078 136.758L80.0028 136.75Z" fill="#231F20"/>
<path d="M101.74 67.9998C101.17 71.3598 100.299 74.6617 99.1376 77.8655C98.2175 80.4756 96.9958 82.9693 95.4972 85.296C93.9776 87.5715 92.1512 89.4653 90.0078 90.5632L90.8063 92.1177C92.0783 91.4494 93.2411 90.5912 94.2546 89.5726C96.0586 87.7911 97.5183 85.5804 98.7084 83.245C100.495 79.7518 101.675 76.0266 102.419 73.1622C103.162 70.2978 103.462 68.2917 103.464 68.2717L101.738 68.0222L101.74 67.9998Z" fill="#231F20"/>
<path d="M106.454 78.8236H106.541H106.454H106.541H106.454C106.261 80.9981 105.793 83.1393 105.061 85.1962C104.418 87.068 103.515 88.8402 102.379 90.4609C101.122 92.2571 99.4844 93.7546 97.5835 94.8473L98.4443 96.3694C100.582 95.1408 102.422 93.4546 103.831 91.4315C105.828 88.6045 106.92 85.4931 107.509 83.0828C107.855 81.7172 108.085 80.325 108.198 78.9209L106.451 78.8261L106.454 78.8236Z" fill="#231F20"/>
<path d="M111.369 94.1861L103.894 103.366L105.248 104.469L112.721 95.289" fill="#231F20"/>
<path d="M76.6392 67.0691C76.442 67.7253 71.3294 72.1616 71.3294 72.1616C70.1644 71.342 69.0881 70.4029 68.1182 69.3596C70.526 66.1159 72.8166 63.5909 75.0772 63.5285H75.162C75.8906 64.9308 76.7539 66.6873 76.6392 67.0691Z" fill="#231F20"/>
<path d="M76.6387 67.0691L75.8028 66.8196L76.3019 66.9643L75.8577 66.7148C75.8392 66.7469 75.825 66.7813 75.8153 66.8171L76.3143 66.9618L75.8702 66.7123L75.97 66.7672L75.8702 66.7073L75.97 66.7622L75.8702 66.7023C75.8469 66.7398 75.821 66.7756 75.7928 66.8096C75.7005 66.9244 75.5433 67.0966 75.3462 67.3087C75.0044 67.663 74.5428 68.1071 74.0487 68.5712C73.3002 69.2623 72.4867 69.9984 71.8555 70.5673C71.5411 70.8467 71.2716 71.0838 71.082 71.2485L70.8599 71.4431L70.7826 71.5104L71.3539 72.1717L71.853 71.4531C71.8056 71.4206 71.3265 71.0838 70.7127 70.5897C70.026 70.0451 69.3851 69.4451 68.7964 68.7957L68.1177 69.3597L68.8189 69.8786C70.0066 68.2793 71.1593 66.8845 72.2372 65.9014C72.7011 65.4659 73.2184 65.0911 73.7768 64.7861C74.1836 64.5556 74.6375 64.4208 75.1042 64.3919L75.0792 63.5211V64.3919H75.1716V64.1698V64.3919V64.1698V63.5186L74.398 63.9228C74.7424 64.574 75.1092 65.3026 75.3961 65.9189C75.5333 66.2208 75.6456 66.4952 75.718 66.7023C75.7554 66.8071 75.7804 66.892 75.7953 66.9519C75.7974 66.9701 75.7974 66.9885 75.7953 67.0067L76.0049 66.9818H75.7928V67.0067L76.0024 66.9818H76.3518L75.8003 66.8171C75.7846 66.8707 75.7754 66.926 75.7729 66.9818H76.3518L75.8003 66.8171L76.6362 67.0666L77.4746 67.3161C77.5054 67.2082 77.5205 67.0965 77.5195 66.9843C77.5182 66.8327 77.4981 66.6818 77.4596 66.5352C77.3933 66.2804 77.3099 66.0303 77.2101 65.7866C77.0504 65.3899 76.8458 64.9433 76.6212 64.4842C76.3967 64.0251 76.1522 63.5485 75.9226 63.1119L75.6731 62.6453H75.0518V62.8673V62.6453V62.8673V62.6453H75.0268C74.2978 62.6774 73.5859 62.8762 72.9459 63.2266C71.8875 63.8243 70.9342 64.5913 70.1238 65.4972C69.1448 66.5531 68.2283 67.6653 67.3791 68.8282L66.96 69.3921L67.4241 69.9236C68.0971 70.6692 68.8326 71.3562 69.6223 71.977C70.291 72.5135 70.7925 72.8603 70.805 72.8703L71.3639 73.2545L71.863 72.8104C71.863 72.8104 73.1455 71.6951 74.4604 70.4949C75.1167 69.8936 75.7804 69.2723 76.3044 68.7483C76.5539 68.4839 76.8034 68.2493 76.9756 68.0347C77.0648 67.9367 77.1482 67.8334 77.2251 67.7253C77.2645 67.6707 77.3012 67.614 77.3349 67.5557C77.38 67.4772 77.4152 67.3934 77.4397 67.3062L76.6387 67.0691Z" fill="#231F20"/>
<path d="M102.327 58.1066L102.052 62.9396C102.052 62.9396 101.171 65.0355 98.3518 63.5959C96.2334 62.5105 96.2608 57.0611 96.4056 54.4163C98.8833 54.1618 101.149 55.3295 102.327 58.1066Z" fill="#231F20"/>
<path d="M102.327 58.1066L101.456 58.0542L101.172 62.8947L102.042 62.9471L101.236 62.6078L101.653 62.7824L101.244 62.5928V62.6078L101.661 62.7824L101.251 62.5928C101.176 62.7307 101.075 62.8534 100.954 62.9546C100.861 63.0351 100.753 63.0984 100.638 63.1417C100.483 63.2009 100.319 63.2297 100.154 63.2266C99.6604 63.2022 99.18 63.062 98.7512 62.8174C98.6304 62.7545 98.5221 62.6699 98.4318 62.5679C98.1905 62.281 98.0043 61.9519 97.8829 61.5973C97.6131 60.8202 97.438 60.0134 97.3614 59.1945C97.2646 58.2828 97.2179 57.3666 97.2217 56.4498C97.2217 55.7013 97.2466 55.0251 97.2791 54.4687L96.4058 54.4213L96.4931 55.2896C96.6796 55.2698 96.867 55.2599 97.0545 55.2596C97.9736 55.2464 98.8751 55.5126 99.6395 56.0231C100.494 56.6307 101.152 57.4745 101.533 58.4509L102.337 58.1116L103.14 57.7697C102.628 56.4824 101.751 55.3725 100.618 54.576C99.5642 53.8707 98.3222 53.5002 97.0545 53.513C96.8087 53.5132 96.563 53.5257 96.3184 53.5505L95.5699 53.6253L95.53 54.3739C95.4975 54.9577 95.4701 55.6738 95.4701 56.4523C95.4482 57.9591 95.582 59.4642 95.8693 60.9435C96.0088 61.6373 96.2422 62.3089 96.563 62.9396C96.7208 63.2387 96.9153 63.517 97.1418 63.768C97.3722 64.0222 97.646 64.2334 97.9503 64.3918C98.6249 64.7639 99.3784 64.97 100.149 64.9931C100.577 64.9994 101.003 64.9144 101.396 64.7436C101.831 64.5473 102.212 64.2485 102.506 63.8728C102.646 63.6989 102.763 63.5077 102.853 63.3039L102.911 63.1667L103.205 58.1615V57.9544L103.135 57.7922L102.327 58.1066Z" fill="#231F20"/>
<path d="M124.634 87.7886C124.617 89.8661 124.391 91.9367 123.96 93.9691L120.11 93.6871C120.11 93.6871 118.535 89.6225 120.359 87.6589C121.44 86.5011 123.017 85.8674 124.132 85.538C124.474 86.2383 124.646 87.0094 124.634 87.7886Z" fill="#231F20"/>
<path d="M124.634 87.7886H123.76C123.743 89.8065 123.524 91.8175 123.106 93.7919L123.96 93.969L124.025 93.0983L120.175 92.8163L120.11 93.6871L120.926 93.3727C120.808 93.0535 120.709 92.7278 120.629 92.3971C120.457 91.7367 120.365 91.0583 120.354 90.3761C120.349 89.9673 120.402 89.5599 120.512 89.1659C120.604 88.8266 120.775 88.5139 121.011 88.2527C121.484 87.7666 122.037 87.3642 122.645 87.0625C123.205 86.7805 123.789 86.5508 124.392 86.3764L124.142 85.538L123.363 85.9323C123.639 86.5116 123.774 87.1475 123.758 87.7886H125.504C125.521 86.8744 125.321 85.9692 124.923 85.1463L124.594 84.4976L123.897 84.7022C123.189 84.9062 122.501 85.1769 121.844 85.5106C121.055 85.9023 120.34 86.4273 119.731 87.0625C119.31 87.5212 119.003 88.0726 118.835 88.6719C118.677 89.2261 118.6 89.8 118.605 90.3761C118.634 91.6149 118.867 92.8406 119.294 94.004L119.494 94.518L124.656 94.8972L124.813 94.1487C125.257 92.0573 125.49 89.9266 125.507 87.7886H124.634Z" fill="#231F20"/>
<path d="M38.1758 44.5581C38.9306 46.446 39.9198 48.2315 41.1201 49.8727C42.1467 51.3089 43.4068 52.563 44.8478 53.5829C45.6184 54.1144 46.4579 54.5383 47.343 54.843C48.2779 55.163 49.2592 55.3265 50.2474 55.327C52.1737 55.327 54.2821 54.7082 56.5227 53.2686C59.9112 51.0953 62.2841 49.2764 63.8485 47.7793C64.5157 47.1588 65.1085 46.463 65.6151 45.7058C65.8065 45.4111 65.9654 45.0965 66.0892 44.7677C66.2025 44.4668 66.2624 44.1485 66.2663 43.827C66.2702 43.4322 66.1555 43.0454 65.937 42.7167C65.7764 42.481 65.5702 42.28 65.3307 42.1253C64.973 41.8999 64.5759 41.7442 64.1604 41.6662C63.6978 41.5757 63.227 41.5331 62.7556 41.539C62.566 41.539 62.3714 41.544 62.1718 41.5539C61.6266 41.5957 61.0954 41.7468 60.6098 41.9981C59.6436 42.508 58.7671 43.1721 58.0148 43.9642C56.6903 45.324 55.5677 46.8667 54.6813 48.5453C54.2442 49.3606 53.8826 50.2141 53.6009 51.0953C53.3388 51.895 53.1967 52.7291 53.1792 53.5705C53.1771 54.093 53.2614 54.6124 53.4287 55.1075C53.5925 55.5875 53.8621 56.0247 54.2175 56.3866C54.573 56.7485 55.0052 57.0259 55.4822 57.1984C56.158 57.445 56.8739 57.5635 57.5932 57.5477C58.8146 57.519 60.0268 57.3294 61.1987 56.9838C66.7729 55.4593 70.4932 53.2037 72.8336 50.8608C73.8708 49.8493 74.7274 48.6679 75.3662 47.3676C75.8534 46.3884 76.1208 45.3146 76.1497 44.2212C76.1543 43.7648 76.0852 43.3107 75.9451 42.8763C75.8163 42.469 75.5941 42.0973 75.2963 41.791C75.1186 41.6179 74.9022 41.4896 74.6651 41.4167C74.4541 41.3524 74.2344 41.3212 74.0138 41.3244C73.5478 41.335 73.0863 41.4192 72.6465 41.5739C71.6955 41.9121 70.7883 42.3628 69.9442 42.9163C68.4418 43.8655 67.086 45.0288 65.9195 46.3695C65.3592 47.016 64.8823 47.7302 64.4998 48.4954C64.1308 49.2144 63.9303 50.0079 63.9134 50.8158C63.9138 51.2732 63.9984 51.7265 64.1629 52.1532C64.4309 52.8455 64.8778 53.4542 65.4579 53.9173C66.169 54.4802 66.9717 54.9166 67.8308 55.2073C69.6457 55.8381 71.5561 56.1496 73.4774 56.128C78.0111 56.128 82.7095 54.6309 86.315 52.55C87.9829 51.6254 89.4924 50.4402 90.7863 49.0393C91.3228 48.4447 91.7745 47.7789 92.1287 47.0607C92.4554 46.4042 92.631 45.683 92.6427 44.9498C92.6428 44.7637 92.6303 44.5778 92.6053 44.3934C92.5533 44.0164 92.4178 43.6558 92.2086 43.3379C92.0517 43.1109 91.8587 42.9112 91.6372 42.7466C91.3095 42.5097 90.938 42.34 90.5443 42.2476C90.1359 42.1491 89.7168 42.1022 89.2967 42.1078C87.9039 42.1571 86.5306 42.451 85.2396 42.9762C82.9414 43.8484 80.8316 45.1527 79.0241 46.8186C78.1469 47.6298 77.4004 48.5716 76.8109 49.6107C76.2405 50.6088 75.9315 51.7349 75.9126 52.8843C75.9185 53.913 76.1873 54.9231 76.6936 55.8186C77.3175 56.8836 78.144 57.816 79.1264 58.5632C80.1369 59.3917 81.2655 60.0645 82.4749 60.5593C83.4789 60.9619 84.5497 61.1719 85.6313 61.1781C86.5686 61.1757 87.4979 61.0067 88.376 60.6791C89.844 60.1113 91.1756 59.2397 92.2834 58.1216C93.7697 56.6177 95.0303 54.9066 96.0262 53.0415C96.51 52.1725 96.9392 51.2742 97.3112 50.3518L95.6818 49.7255C94.9502 51.4907 94.0166 53.1652 92.8997 54.7157C92.0129 55.9778 90.9305 57.0904 89.6934 58.0118C89.0957 58.4444 88.4417 58.7936 87.7497 59.0498C87.0629 59.3006 86.3376 59.4298 85.6064 59.4315C84.7424 59.4254 83.8873 59.2561 83.0862 58.9325C82.0393 58.5036 81.0628 57.9199 80.1894 57.2009C79.3836 56.5949 78.7053 55.8361 78.1932 54.9677C77.8293 54.3315 77.6351 53.6123 77.6293 52.8793C77.6345 52.3245 77.7393 51.7752 77.9387 51.2575C78.3653 50.2061 79.0041 49.254 79.8151 48.4604C81.2019 47.0794 82.8199 45.952 84.5958 45.1294C85.4187 44.7407 86.2736 44.4235 87.1509 44.1813C87.844 43.9806 88.5603 43.8707 89.2817 43.8544C89.533 43.851 89.784 43.8744 90.0303 43.9243C90.2584 43.9611 90.4727 44.0575 90.6516 44.2038C90.706 44.2525 90.7508 44.3108 90.7838 44.3759C90.8247 44.4583 90.8516 44.5468 90.8637 44.6379C90.8768 44.7405 90.8834 44.8439 90.8836 44.9473C90.8698 45.4211 90.7522 45.8861 90.5393 46.3096C90.1276 47.1829 89.3217 48.1585 88.2113 49.0992C86.5495 50.5139 84.219 51.8438 81.6316 52.8119C79.0226 53.8103 76.2581 54.3407 73.4649 54.3789C71.746 54.4003 70.0364 54.1234 68.4122 53.5605C67.3018 53.1613 66.6057 52.6847 66.2065 52.2256C66.0248 52.0249 65.8818 51.7922 65.7848 51.5394C65.7 51.3068 65.6578 51.0609 65.66 50.8133C65.672 50.4147 65.7566 50.0215 65.9095 49.6531C66.2703 48.7972 66.7768 48.0103 67.4066 47.3277C68.477 46.1406 69.7112 45.1122 71.072 44.2736C71.6364 43.9194 72.2299 43.6139 72.8461 43.3604C73.0751 43.2672 73.3102 43.1897 73.5497 43.1284C73.7049 43.0891 73.8638 43.0665 74.0238 43.061C74.0658 43.0592 74.1078 43.0634 74.1486 43.0735V43.0335L74.1311 43.071V43.031L74.1136 43.0685L74.206 42.8564L74.0463 43.0186C74.0655 43.0392 74.0883 43.0561 74.1136 43.0685L74.206 42.8564L74.0463 43.0186C74.1504 43.1329 74.2272 43.2694 74.2708 43.4178C74.3488 43.6741 74.3867 43.9409 74.3831 44.2087C74.3534 45.044 74.1432 45.8629 73.7668 46.6091C73.1056 48.0063 71.8505 49.6282 69.7546 51.1726C67.6586 52.7171 64.7268 54.1918 60.7196 55.2871C59.6973 55.5913 58.6394 55.7591 57.5732 55.7861C57.1146 55.7973 56.6572 55.7349 56.2183 55.6015C55.9974 55.5322 55.7898 55.4259 55.6045 55.2871C55.3802 55.1108 55.2078 54.8772 55.1055 54.6109C54.976 54.2745 54.9141 53.9159 54.9233 53.5555C54.9233 52.6972 55.2028 51.5868 55.7018 50.4341C56.5041 48.6262 57.6001 46.9635 58.9455 45.5137C59.5041 44.8959 60.134 44.3464 60.8219 43.8769C61.0756 43.7018 61.3465 43.553 61.6303 43.4328C61.8317 43.3494 62.0445 43.2972 62.2616 43.2781C62.4338 43.2781 62.5985 43.2656 62.7606 43.2656C63.079 43.2617 63.3972 43.286 63.7113 43.3379C63.8743 43.3641 64.0341 43.4076 64.1879 43.4677C64.2994 43.506 64.4003 43.5701 64.4823 43.6548L64.5122 43.7097C64.521 43.7414 64.5252 43.7742 64.5247 43.807C64.52 43.9261 64.4947 44.0434 64.4499 44.1539C64.2721 44.5813 64.0279 44.9779 63.7263 45.3291C62.8664 46.3416 61.903 47.2615 60.8518 48.0737C59.1628 49.4064 57.4046 50.649 55.5845 51.7964C53.5635 53.0914 51.8019 53.5779 50.2524 53.5779C49.4569 53.5786 48.6668 53.4471 47.9144 53.1887C46.6268 52.7185 45.4526 51.9823 44.4686 51.0279C43.0814 49.6733 41.9101 48.114 40.9953 46.4045C40.6036 45.6909 40.3091 45.0696 40.1145 44.6304C40.0147 44.4084 39.9424 44.2337 39.895 44.1164L39.8425 43.9842L39.8301 43.9517L38.1758 44.5581Z" fill="#231F20"/>
<path d="M1.49707 77.4289C1.49707 77.4289 27.856 61.4301 27.4618 60.7739C27.0675 60.1177 20.5127 48.71 21.2987 48.71C22.0847 48.71 61.9499 51.1103 62.2194 52.5325C62.4889 53.9547 45.9609 90.0168 44.5037 90.0168C43.0465 90.0168 37.1779 79.5672 36.644 79.6121C36.11 79.657 11.0735 95.8304 9.8933 95.6059C8.71309 95.3813 -1.84395 79.4674 1.49707 77.4289Z" fill="#2F3841"/>
<path d="M1.49705 77.4289L1.95117 78.1774C1.95117 78.1774 8.4386 74.2351 14.9435 70.1805C18.1872 68.1545 21.4434 66.101 23.8887 64.4916C25.1113 63.6882 26.1343 62.9946 26.8629 62.4681C27.2297 62.2011 27.5216 61.9691 27.7437 61.7869C27.8509 61.6975 27.9518 61.6008 28.0456 61.4975C28.1023 61.4348 28.1532 61.3672 28.1978 61.2954C28.2319 61.2384 28.2603 61.1782 28.2826 61.1157C28.3209 61.0127 28.3403 60.9037 28.34 60.7938C28.3407 60.6323 28.2976 60.4737 28.2153 60.3347L28.0905 60.1227C27.6214 59.3142 26.0944 56.6519 24.6996 54.0695C24.0009 52.7795 23.3297 51.5045 22.8432 50.5039C22.5937 50.0049 22.4015 49.5683 22.2718 49.2564C22.2069 49.0942 22.1595 48.962 22.1321 48.8746C22.1196 48.8322 22.1121 48.7998 22.1096 48.7873L21.7129 48.8372H22.1121C22.1121 48.8098 22.1121 48.7948 22.1121 48.7873L21.7154 48.8372H21.4658L22.0996 48.9645C22.1071 48.9224 22.1112 48.8799 22.1121 48.8372H21.4584L22.0921 48.9645L21.3436 48.8123L22.0298 49.1391C22.056 49.0832 22.0761 49.0247 22.0896 48.9645L21.3411 48.8123L22.0273 49.1391L21.2912 48.7898L21.7303 49.4735C21.8592 49.3927 21.9623 49.2766 22.0273 49.1391L21.2912 48.7898L21.7303 49.4735L21.2887 48.7823L21.5008 49.5758C21.5822 49.5538 21.6596 49.5193 21.7303 49.4735L21.2887 48.7823L21.5008 49.5758L21.2912 48.7973V49.6032C21.362 49.604 21.4326 49.5948 21.5008 49.5758L21.2912 48.7973V49.6032H21.4758C22.2893 49.6431 25.2335 49.8153 29.1784 50.0723C35.0994 50.459 43.2911 51.0379 50.0155 51.6467C53.3765 51.9511 56.3732 52.2655 58.5215 52.5624C59.5945 52.7121 60.4578 52.8569 61.0167 52.9891C61.2142 53.0311 61.4084 53.087 61.5981 53.1563L61.638 53.1737L61.8376 52.8094L61.5507 53.1039C61.5766 53.1309 61.606 53.1544 61.638 53.1737L61.8376 52.8094L61.5507 53.1039L62.0322 52.6048L61.4434 52.9666C61.4728 53.0163 61.5089 53.0616 61.5507 53.1014L62.0322 52.6024L61.4434 52.9641L62.1021 52.5599L61.3411 52.6997C61.358 52.7935 61.3927 52.8833 61.4434 52.9641L62.1021 52.5599L61.3411 52.6997L61.9798 52.5824H61.3311C61.3275 52.6214 61.3275 52.6607 61.3311 52.6997L61.9698 52.5824H61.6829L61.3211 52.5475V52.5824H61.6829L61.3211 52.5475C61.3079 52.6235 61.2895 52.6985 61.2662 52.772C61.1988 53.0215 61.0716 53.3908 60.8969 53.8624C60.2357 55.6389 58.9008 58.7878 57.2665 62.4806C54.8087 68.0247 51.6598 74.8165 49.0075 80.2134C47.6825 82.9106 46.4799 85.2611 45.5592 86.9178C45.1 87.7462 44.7083 88.4149 44.4214 88.8266C44.3254 88.9778 44.2178 89.1213 44.0995 89.2558L44.072 89.2857L44.3216 89.5527L44.1494 89.2408C44.1253 89.2532 44.1027 89.2683 44.082 89.2857L44.3315 89.5527L44.1594 89.2408L44.4788 89.8172L44.2816 89.1884C44.2391 89.2013 44.1981 89.2189 44.1594 89.2408L44.4788 89.8172L44.2816 89.1884L44.5087 89.9145V89.1659C44.4317 89.1658 44.3551 89.1776 44.2816 89.2009L44.5087 89.927V89.5926L44.6634 89.1734C44.614 89.155 44.5614 89.1465 44.5087 89.1485V89.5926L44.6634 89.1734L44.6085 89.3256L44.6734 89.1759L44.6185 89.3281L44.6834 89.1784L44.6634 89.2283L44.6858 89.1784L44.6659 89.2283L44.6883 89.1784C44.6883 89.1784 44.6684 89.1784 44.6384 89.1485C44.5402 89.0776 44.4476 88.9992 44.3615 88.9139C44.0711 88.6194 43.7987 88.3078 43.5456 87.9807C42.9991 87.2921 42.3604 86.3889 41.7091 85.4282C40.7335 83.9861 39.7329 82.4166 38.9295 81.1865C38.5278 80.5752 38.181 80.0562 37.8915 79.667C37.7692 79.4937 37.6376 79.3271 37.4973 79.168C37.43 79.0906 37.3556 79.0196 37.2752 78.9559C37.2143 78.9085 37.1491 78.8667 37.0806 78.8311C36.9141 78.7474 36.7265 78.7152 36.5416 78.7388L36.6539 79.6046L36.5791 78.7338C36.5069 78.7406 36.4357 78.7557 36.367 78.7787C36.3114 78.7964 36.2572 78.818 36.2048 78.8436C36.1224 78.8835 36.0426 78.9259 35.9428 78.9833C35.561 79.1954 34.9048 79.5896 34.019 80.1361C30.9275 82.0349 25.1013 85.7127 19.8939 88.9164C17.279 90.5258 14.8312 92.0079 12.9748 93.0858C12.0441 93.6247 11.2581 94.0614 10.6817 94.3558C10.3948 94.503 10.1603 94.6053 10.0006 94.6802C9.92072 94.7126 9.86084 94.7351 9.83339 94.7425H9.82091L9.83589 94.7974L9.82341 94.7425L9.83838 94.7974L9.82591 94.7425L9.92821 95.2241V94.7251C9.89428 94.7203 9.85984 94.7203 9.82591 94.7251L9.92821 95.2066V95.4362L10.053 94.7251C10.0114 94.722 9.96974 94.722 9.92821 94.7251V95.4462L10.053 94.7351L9.95815 95.259L10.2451 94.8024C10.1867 94.7663 10.1211 94.7433 10.053 94.7351L9.95815 95.259L10.2451 94.8024L10.1952 94.8798L10.2451 94.8024L10.1952 94.8798L10.2451 94.8024H10.2301C10.1362 94.7264 10.0486 94.643 9.96814 94.5529C9.73608 94.3034 9.4192 93.9241 9.0549 93.4476C7.32431 91.1088 5.76493 88.648 4.38894 86.0845C3.66674 84.7637 3.02676 83.3996 2.47266 81.9999C2.25199 81.4346 2.06616 80.8563 1.91623 80.2683C1.80266 79.8388 1.73903 79.3975 1.72661 78.9534C1.71974 78.7524 1.7502 78.5519 1.81643 78.362C1.83397 78.3183 1.85748 78.2771 1.88629 78.2398C1.90713 78.2145 1.93251 78.1933 1.96115 78.1774L1.50703 77.4289L1.05291 76.6803C0.85932 76.7995 0.686536 76.9495 0.541404 77.1245C0.334469 77.38 0.184719 77.6769 0.102253 77.9953C0.0195173 78.3061 -0.0207737 78.6267 -0.0175175 78.9484C0.00663657 79.7109 0.135083 80.4664 0.364242 81.194C0.873125 82.8044 1.52531 84.3659 2.31297 85.8599C3.54478 88.2533 4.92479 90.5674 6.44496 92.7889C7.11117 93.7595 7.72248 94.5854 8.22651 95.1942C8.44073 95.4566 8.66983 95.7065 8.91268 95.9427C9.01345 96.0408 9.12101 96.1317 9.23456 96.2147C9.2986 96.2607 9.36618 96.3016 9.43666 96.3369C9.53373 96.3877 9.63811 96.4231 9.74606 96.4417C9.80383 96.451 9.86222 96.4561 9.92073 96.4567C10.014 96.4563 10.1069 96.4454 10.1977 96.4243C10.334 96.3916 10.4675 96.3482 10.5969 96.2945C10.8464 96.1922 11.1533 96.045 11.5201 95.8604C12.1988 95.5085 13.0921 95.0095 14.1425 94.3982C17.8229 92.2599 23.457 88.7542 28.2302 85.7751C30.6131 84.278 32.7839 82.9281 34.3783 81.9426C35.1743 81.4435 35.828 81.0518 36.2896 80.7773C36.5192 80.6401 36.7038 80.5278 36.8236 80.4704L36.9434 80.4055L36.7612 79.9939L36.9084 80.4205L36.9434 80.4055L36.7612 79.9939L36.9084 80.4205L36.6589 79.7344L36.8411 80.438L36.8984 80.4205L36.6489 79.7344L36.8311 80.438L36.6265 79.6445L36.6963 80.4604C36.7637 80.4604 36.8011 80.443 36.8311 80.438L36.6265 79.6445L36.6963 80.4604H36.7338L36.6265 79.6221V80.4679C36.6622 80.4701 36.698 80.4701 36.7338 80.4679L36.6265 79.6296V79.6745L36.2971 80.4055C36.4006 80.4523 36.5129 80.4761 36.6265 80.4754V79.6745L36.2971 80.4055L36.5666 79.8017L36.2023 80.3606C36.2391 80.3861 36.2784 80.4078 36.3196 80.4255L36.589 79.8217L36.2023 80.3606L36.4144 80.0662L36.1649 80.3357L36.1948 80.3606L36.4069 80.0662L36.1574 80.3357C36.2151 80.3957 36.2693 80.459 36.3196 80.5253C36.4743 80.7274 36.7013 81.0468 36.9658 81.4385C37.4324 82.1272 38.0238 83.0454 38.665 84.0285C39.6282 85.5056 40.6986 87.1349 41.6592 88.4174C42.0718 88.9852 42.5193 89.5269 42.9991 90.0392C43.1906 90.242 43.4012 90.4258 43.6279 90.5882C43.742 90.6701 43.865 90.7388 43.9947 90.7928C44.1522 90.8613 44.3219 90.8978 44.4937 90.9C44.5997 90.9003 44.705 90.8835 44.8056 90.8501C44.9302 90.8078 45.0466 90.7445 45.15 90.663C45.2899 90.549 45.4171 90.4202 45.5292 90.2788C45.7901 89.9428 46.0301 89.5912 46.2478 89.2258C46.7469 88.4024 47.3831 87.2597 48.1117 85.8699C50.6568 81.0169 54.3721 73.1697 57.4611 66.333C59.0056 62.9147 60.3929 59.7509 61.396 57.3381C61.895 56.1305 62.3042 55.1125 62.5887 54.344C62.7334 53.9547 62.8382 53.6254 62.9255 53.3459C62.9679 53.2087 63.0004 53.0964 63.0253 52.9691C63.0557 52.8424 63.0724 52.7127 63.0752 52.5824C63.0732 52.5172 63.0673 52.4523 63.0577 52.3878C63.0376 52.271 62.9953 52.1592 62.933 52.0584C62.8536 51.9292 62.7483 51.8179 62.6236 51.7316C62.5452 51.6755 62.4616 51.6271 62.3741 51.5868C62.2125 51.5131 62.0457 51.4514 61.875 51.4022C61.4295 51.2804 60.9782 51.1813 60.5227 51.1053C59.5046 50.9231 58.1548 50.7385 56.5529 50.5514C50.9562 49.9001 42.3179 49.2264 34.9921 48.7149C31.3292 48.4654 28.0057 48.2434 25.5404 48.0912C24.3128 48.0138 23.2948 47.9539 22.5812 47.914L21.7229 47.8666L21.4733 47.8541H21.3136C21.1576 47.8548 21.0041 47.8943 20.867 47.9689C20.7509 48.032 20.6496 48.1191 20.57 48.2246C20.4904 48.33 20.4343 48.4513 20.4054 48.5802C20.3855 48.6619 20.3754 48.7457 20.3755 48.8297C20.3765 48.9346 20.3882 49.0391 20.4104 49.1416C20.4511 49.3188 20.5036 49.493 20.5676 49.6631C20.6948 50.0049 20.877 50.4116 21.1016 50.8932C21.4958 51.7241 22.0223 52.7471 22.5987 53.8324C23.462 55.4568 24.4351 57.2108 25.2236 58.6056C25.6178 59.3043 25.9721 59.9131 26.2216 60.3697C26.3514 60.5992 26.4711 60.7889 26.5485 60.9361L26.7232 61.2355L27.4493 60.8088H26.6084C26.6093 60.9586 26.6489 61.1055 26.7232 61.2355L27.4493 60.8088H27.4143L26.6658 60.5344C26.6343 60.6224 26.6183 60.7153 26.6184 60.8088H27.4243L26.6758 60.5344L27.2696 60.7489L26.7706 60.3647C26.732 60.4162 26.7017 60.4735 26.6807 60.5344L27.2746 60.7489L26.7756 60.3647L26.9203 60.477L26.783 60.3547L26.9278 60.467L26.7905 60.3447C26.7523 60.3855 26.7114 60.4239 26.6683 60.4595C26.5236 60.5843 26.284 60.7714 25.9746 60.9985C25.3907 61.4251 24.5549 61.9965 23.5493 62.6627C20.0261 65.0006 14.407 68.5113 9.6762 71.4331C7.31078 72.8927 5.16494 74.2077 3.61295 75.1558L1.77152 76.2786L1.09782 76.6903L1.49705 77.4289Z" fill="#231F20"/>
<path d="M7.20604 18.2744C7.20604 18.2744 10.7467 20.6348 13.1071 19.26C15.4675 17.8851 17.4337 9.62128 17.4337 9.62128C17.4337 9.62128 16.8823 19.0628 20.0112 21.029C23.1402 22.9952 26.8754 25.1609 26.8754 25.1609C26.8754 25.1609 19.7941 25.1609 18.4168 26.7329C17.0395 28.3048 13.696 33.814 13.696 33.814C13.696 33.814 12.91 22.6034 11.1384 21.7177C9.36686 20.8319 6.26536 18.5364 7.20604 18.2744Z" fill="white"/>
<path d="M7.20605 18.2744L6.71949 19.003C7.18082 19.2977 7.66376 19.5571 8.16419 19.779C8.63968 19.9943 9.131 20.1728 9.63384 20.3129C10.2025 20.4728 10.7898 20.5567 11.3805 20.5624C12.1385 20.5763 12.8864 20.3867 13.5463 20.0135C13.977 19.7438 14.3536 19.396 14.6566 18.988C15.2529 18.1762 15.7497 17.2958 16.1362 16.3656C16.7434 14.9417 17.2626 13.4818 17.6907 11.9942C18.065 10.7291 18.2796 9.8259 18.2821 9.81592L17.4337 9.61381L16.5604 9.56142C16.5604 9.57639 16.523 10.2301 16.523 11.2332C16.5043 13.0974 16.653 14.9596 16.9671 16.7973C17.1376 17.7763 17.4249 18.7312 17.823 19.6417C18.0144 20.0663 18.2529 20.4681 18.5341 20.8394C18.8097 21.205 19.1475 21.5192 19.5322 21.7676C22.6786 23.7487 26.4213 25.912 26.4238 25.9145L26.863 25.1659V24.2926C26.8455 24.2926 25.0564 24.2926 23.0628 24.4923C22.0605 24.5855 21.0664 24.7523 20.0886 24.9913C19.6457 25.1007 19.2133 25.2485 18.7961 25.4329C18.3981 25.6062 18.0411 25.8612 17.7481 26.1815C17.551 26.406 17.3364 26.6805 17.1044 26.9924C16.2959 28.0827 15.2629 29.6696 14.4221 30.9971C13.5812 32.3245 12.9399 33.3799 12.925 33.3824L13.6735 33.8365L14.5443 33.7766C14.5443 33.7766 14.3472 30.9472 13.923 27.9954C13.7343 26.5723 13.461 25.1618 13.1046 23.7712C12.9596 23.2083 12.7642 22.6596 12.5207 22.1319C12.4108 21.902 12.2779 21.6838 12.124 21.4806C11.9593 21.2637 11.7489 21.0857 11.5077 20.9592C10.6323 20.5003 9.79756 19.9678 9.01254 19.3673C8.67723 19.1166 8.35959 18.8432 8.06189 18.5489C7.98544 18.4721 7.91613 18.3886 7.85479 18.2993V18.2819L7.76496 18.3293L7.85728 18.2894L7.76746 18.3368L7.85978 18.2969L7.40566 18.494H7.90469C7.90648 18.4266 7.8946 18.3595 7.86976 18.2969L7.41564 18.494H7.23599L7.87725 18.721C7.90317 18.6481 7.91667 18.5714 7.91717 18.494H7.23599L7.87725 18.721L7.21603 18.4865L7.65019 19.0379C7.75481 18.9564 7.83366 18.8463 7.87725 18.721L7.21603 18.4865L7.65019 19.0379L7.29837 18.5913L7.45057 19.1452C7.52326 19.1223 7.59098 19.0859 7.65019 19.0379L7.29837 18.5913L7.45057 19.1452L7.21852 18.3018L6.73197 19.0304L7.21852 18.3018L6.98397 17.461C6.88909 17.4872 6.79776 17.5249 6.712 17.5733C6.548 17.6639 6.41106 17.7965 6.31527 17.9575C6.2193 18.1199 6.16927 18.3053 6.17056 18.494C6.17225 18.6496 6.2027 18.8035 6.26038 18.9481C6.34318 19.1434 6.45507 19.3251 6.59224 19.487C6.84035 19.7812 7.11424 20.0526 7.41065 20.2979C7.93651 20.7357 8.48629 21.1438 9.05746 21.5206C9.60548 21.8863 10.1745 22.2196 10.7617 22.5186L10.849 22.344L10.7292 22.4737L10.7542 22.4887L10.8415 22.314L10.7292 22.4737L10.7642 22.4263L10.7292 22.4737L10.7642 22.4263L10.7292 22.4737L10.7617 22.5061C10.8294 22.5903 10.8879 22.6815 10.9363 22.7781C11.1079 23.1274 11.2473 23.4915 11.353 23.866C11.6286 24.831 11.8461 25.8117 12.0042 26.8027C12.2837 28.447 12.5033 30.2186 12.6305 31.5734C12.6979 32.2521 12.7478 32.821 12.7827 33.2302C12.8002 33.4323 12.8127 33.592 12.8202 33.7018C12.8202 33.7542 12.8202 33.7966 12.8202 33.824V33.8664L13.0123 36.6111L14.437 34.2632L14.472 34.2008C14.6566 33.8989 15.5025 32.5191 16.4681 31.0345C16.9447 30.2859 17.4512 29.5249 17.9128 28.8587C18.1448 28.5244 18.3644 28.2175 18.564 27.9505C18.7636 27.6835 18.9383 27.4515 19.0755 27.3043C19.2114 27.1748 19.3706 27.0724 19.5446 27.0024C20.171 26.7439 20.8261 26.5613 21.4959 26.4584C22.6842 26.262 23.8832 26.1362 25.0864 26.0816C25.6129 26.0542 26.0645 26.0417 26.3814 26.0342H26.7507H30.1291L27.3146 24.4049L27.1499 24.3076C26.4013 23.871 23.1976 21.9996 20.4778 20.2905C20.2655 20.1505 20.0789 19.975 19.9264 19.7715C19.5599 19.2587 19.2808 18.6887 19.1005 18.0848C18.7524 16.9322 18.5258 15.7464 18.4243 14.5467C18.3045 13.3216 18.2721 12.1339 18.2721 11.2406C18.2721 10.7616 18.2721 10.3649 18.2896 10.0929C18.2896 9.95565 18.2896 9.84336 18.2896 9.776C18.2896 9.70863 18.2896 9.71362 18.2896 9.69616V9.6712L16.5679 9.42169V9.44165C16.5155 9.66621 16.009 11.7172 15.248 13.8406C14.8975 14.872 14.4713 15.8761 13.9729 16.8447C13.7701 17.2292 13.5347 17.5957 13.2693 17.9401C13.1061 18.1615 12.905 18.3524 12.6754 18.504C12.283 18.7216 11.839 18.8293 11.3904 18.8158C10.9539 18.8101 10.5201 18.7463 10.1004 18.6262C9.51037 18.4597 8.93922 18.2323 8.39624 17.9475C8.17417 17.8328 7.99452 17.7305 7.87225 17.6581L7.73752 17.5733L7.70508 17.5533L7.65268 17.6307L7.70508 17.5533L7.65268 17.6307L7.70508 17.5533L7.37073 17.3312L6.98647 17.4385L7.20605 18.2744Z" fill="#8C8C8C"/>
</g>
<defs>
<clipPath id="clip0_2176_1519">
<rect width="129" height="130" fill="white"/>
</clipPath>
</defs>
</svg>
