<svg id="eEj7MqHgvIr1" xmlns="http://www.w3.org/2000/svg" xmlns:xlink="http://www.w3.org/1999/xlink" viewBox="0 0 250 209" shape-rendering="geometricPrecision" text-rendering="geometricPrecision" width="250" height="209"><g transform="matrix(.384889 0 0 0.384889 8.286616 6.662775)" clip-path="url(#eEj7MqHgvIr34)"><g><g transform="translate(.000001 0)"><g id="eEj7MqHgvIr5" transform="matrix(0 0 0 1 157.873061 0)"><path d="M236.221,172.309L0.168091,89.4165L59.1813,424.326L315.354,505.884L236.221,172.309Z" fill="#2f3841"/><path d="M236.221,172.309l.753-2.135L-2.73987,85.9961L57.1825,426.07L318.486,509.261L238.145,170.583l-1.171-.409-.753,2.135-2.211.521l78.205,329.677L61.1802,422.588L3.07615,92.8428L235.468,174.444l.753-2.135-2.211.521l2.211-.521Z" fill="#231f20"/></g><path d="M235.549,172.967l80.477,335.58l292.383-74.426-86.512-322.656-286.348,61.502Z" fill="#ee4947"/><path id="eEj7MqHgvIr9" d="M235.549,172.967l80.477,335.58l292.383-74.426-86.512-322.656-286.348,61.502Z" fill="#2f3841"/><path d="M235.549,172.967l-.312.074l80.546,335.897l293.024-74.587-86.674-323.265-286.977,61.633.081.322.312-.074.068.317l286.049-61.441L608.01,433.885L316.263,508.15L235.866,172.892l-.317.075.068.317-.068-.317Z" fill="#231f20"/></g><g id="eEj7MqHgvIr11" transform="matrix(0 0 0 1 324.765809 0)"><path d="M562.36,261.663l-77.458,1.738c0,0-9.695,36.959-34.971,44.128-25.275,7.17-37.785-28.932-37.785-28.932l-3.58,15.152-156.024-25.4c0,0,2.235,34.761-15.648,48.131c0,0,170.333,47.238,170.781,44.569s-3.63-24.333-3.63-24.333s15.225,48.094,27.399,75.996c9.041,20.757,22.784,39.727,27.255,53.526s15.848.621,25.867-1.36c13.749-2.731,122.51-33.42,122.51-33.42L562.36,261.663Z" fill="#2f3841"/><path d="M421.5,381.5c-4.209-8.802-9.28-17.217-10.5-26-.878-6.325-2.379-12.417-2.41-18.803c0-.478,0-.844,0-1.092c0-.124,0-.217,0-.279v-.081l-2.272-.068-2.261.173c0,0,0,.286.056.795.137,1.788.473,6.35.779,11.099.149,2.377.292,4.798.398,6.946.106,2.147.168,4.022.168,5.245c0,.354,0,.621,0,.869c0,.105,0,.198,0,.26v.094l2.242.372-2.26-.385l2.173.385-1.812-1.241c-.186.262-.31.564-.361.881l2.173.385-1.812-1.242l1.762,1.242-.94-1.993c-.334.163-.621.406-.835.708l1.762,1.241-.927-1.949.778,1.633-.237-1.8c-.187.029-.37.085-.541.167l.778,1.633-.237-1.8.131.962-.056-.968h-.075l.131.962-.056-.969c-.328-.013-.654-.048-.978-.105-1.021-.149-2.634-.46-4.695-.9-7.752-1.676-21.937-5.245-38.781-9.646-25.282-6.605-56.61-15.09-81.618-21.925-12.503-3.42-23.426-6.418-31.222-8.572l-9.153-2.526-3.307-.919-.623,2.185l1.364,1.812c3.79-2.926,6.902-6.633,9.123-10.869c3.4-6.207,5.249-13.283,6.283-19.664.826-5.188,1.242-10.433,1.245-15.686c0-2.39-.093-3.83-.093-3.867l-2.267.142-.367,2.235l158.115,25.742l4.067-17.207-2.211-.521-2.148.745c2.048,5.484,4.767,10.697,8.095,15.518c2.8,4.157,6.284,7.813,10.306,10.813c2.119,1.543,4.446,2.78,6.912,3.675c2.595.936,5.334,1.417,8.095,1.421c2.421-.01,4.829-.357,7.154-1.03c6.782-1.924,12.454-5.829,17.118-10.497c6.993-7.02,11.832-15.791,14.908-22.824c1.804-4.025,3.315-8.174,4.521-12.415l-2.198-.577.049,2.266l77.458-1.738-.05-2.266-.05-2.266-79.17,1.782-.436,1.651c-1.95,6.715-4.651,13.191-8.051,19.305-2.799,5.142-6.299,9.873-10.399,14.059-4.222,4.178-9.173,7.505-14.945,9.137-1.92.56-3.909.849-5.909.857-2.242,0-4.467-.389-6.576-1.148-3.637-1.397-6.925-3.568-9.633-6.363-4.235-4.165-7.473-9.41-9.665-13.6-1.083-2.092-1.868-3.917-2.434-5.214-.268-.621-.467-1.161-.623-1.509l-.149-.397v-.093l-2.56-7.387-4.888,20.702-156.765-25.525.187,2.837c0,.118.081,1.434.081,3.569.022,7.118-.795,14.214-2.435,21.142-.997,4.188-2.52,8.234-4.533,12.043-1.907,3.665-4.588,6.875-7.858,9.41l-3.693,2.762l4.446,1.242c0,0,40.276,11.173,81.717,22.346c20.724,5.586,41.721,11.173,58.16,15.363c8.214,2.098,15.275,3.842,20.599,5.071c2.665.621,4.888,1.099,6.626,1.434.865.168,1.606.304,2.235.391.542.089,1.089.141,1.638.155h.38c.293-.02.582-.089.853-.204.277-.116.53-.283.747-.491.161-.158.299-.338.411-.534.129-.227.218-.475.262-.732.042-.298.069-.599.08-.9c0-.317,0-.664,0-1.062c0-1.57,1.509-3.73-.224-6.412-.398-7.703-1.195-18.001-1.195-18.001l-4.534.112c0,0,0,.577,0,1.583.046,9.803,1.078,19.577,3.083,29.174c1.386,6.779,4.975,12.246,7.879,18.529" fill="#231f20"/><path d="M238.456,316.915c0,0-92.427-25.283-101.817-29.628c0,0-24.478.671-34.535,3.346c0,0-18.1082,12.365-31.1848,9.025-13.0767-3.339,12.4041-14.711,16.763-17.045s18.4448-12.706,17.0998-25.742c-1.345-13.035-18.121-37.101-37.5617-35.76s-19.1044,8.69-23.7996,2.005c-4.6951-6.685,11.4017-14.041,16.7694-14.376c0,0-3.3564-8.691,10.3928-9.019c13.7492-.329,26.4896,5.822,26.4896,5.822s9.0545-6.598,24.4785-1.862s25.481,43.172,25.481,43.172l105.51,21.502c0,0,2.229,32.39-14.086,48.56Z" fill="#fff"/><path d="M238.457,316.915l.622-2.185-1.04-.286c-5.087-1.397-28.077-7.709-50.887-14.184-11.401-3.234-22.759-6.511-31.807-9.23-4.521-1.359-8.469-2.576-11.539-3.575-1.532-.503-2.852-.95-3.904-1.329-1.052-.378-1.868-.689-2.285-.894l-.48-.223h-.535c0,0-6.165.168-13.588.67-3.736.255-7.752.621-11.513,1.037-3.356.348-6.684.918-9.964,1.707l-.379.099-.324.224c-2.7101,1.777-5.5444,3.357-8.4814,4.73-2.5999,1.239-5.2917,2.277-8.0515,3.103-2.7618.849-5.6291,1.309-8.5185,1.366-1.4435.011-2.8827-.158-4.2842-.503-.4551-.112-.9007-.259-1.3326-.44-.2656-.096-.5091-.244-.7161-.435l-.2678.192.3114-.105-.0436-.087-.2678.192.3114-.105-.4172.136h.4421v-.136l-.4172.136h.2304.2117-.2117.2117c.0221-.081.0534-.161.0934-.235.2768-.461.6186-.879,1.015-1.242c1.2402-1.163,2.5917-2.203,4.0351-3.104c2.4908-1.626,5.4984-3.252,8.0951-4.599c1.3139-.677,2.5344-1.285,3.5618-1.794s1.8681-.925,2.441-1.241c1.6691-.933,3.2601-1.998,4.7574-3.185c3.3936-2.595,6.3856-5.674,8.8801-9.137c1.387-1.957,2.521-4.08,3.375-6.319.895-2.346,1.36-4.833,1.37-7.343.003-.662-.03-1.323-.1-1.98-.374-3.563-1.7-7.586-3.736-11.726-3.3827-6.71-8.0689-12.684-13.7868-17.573-2.9117-2.494-6.1713-4.554-9.6767-6.114-3.4892-1.555-7.2625-2.374-11.0841-2.409-.5729,0-1.1458,0-1.7249.062-5.0279.256-9.9944,1.22-14.7517,2.862-1.5817.565-2.8084,1.099-3.7362,1.446-.4484.174-.8158.298-1.0835.373-.1644.047-.3336.076-.5044.087-.0309.006-.0625.006-.0934,0-.1763-.083-.3332-.201-.4608-.348-.4328-.444-.8246-.926-1.1707-1.44-.147-.205-.2624-.431-.3425-.67-.0637-.178-.0953-.365-.0934-.553.0157-.411.1265-.812.3238-1.173.647-1.114,1.5159-2.083,2.5531-2.849c2.0841-1.6,4.3756-2.911,6.8123-3.898c1.1042-.467,2.2354-.867,3.3875-1.198.7851-.239,1.5926-.397,2.4099-.472l3.1135-.193-1.1147-2.88-1.3574.522l1.3637-.497-1.3575.521l1.3637-.496-.3363.124.3425-.124-.3362.124.3424-.124c-.0159-.036-.0284-.074-.0373-.112-.12-.422-.1807-.859-.1806-1.297-.006-.451.0721-.9.2304-1.322.1365-.353.3347-.679.5853-.963.6444-.668,1.4476-1.163,2.3352-1.44c1.74-.56,3.5578-.842,5.3863-.838h1.0337c5.7811.098,11.5159,1.048,17.0184,2.819c2.2666.707,4.1347,1.415,5.4237,1.936.6227.267,1.1457.484,1.482.621l.3736.168.0872.043.3612-.745-.3612.745.3612-.745-.3612.745l1.2454.621l1.1022-.807-.5667-.776.5542.782-.5666-.776.5542.782c1.0146-.65,2.1012-1.181,3.2382-1.583c2.905-1.084,5.983-1.638,9.085-1.632c3.449.024,6.875.566,10.162,1.607c1.744.591,3.349,1.531,4.714,2.763c2.759,2.365,5.436,5.996,7.803,10.099c3.555,6.164,6.438,13.377,8.406,19.019.99,2.825,1.75,5.258,2.261,6.983.255.863.448,1.546.579,2.012.068.229.112.409.149.527s0,.106.031.137v.037l.355,1.366l106.899,21.781.455-2.216-2.267.155c0,.137.093,1.546.093,3.836.014,6.877-.733,13.734-2.229,20.447-.934,4.174-2.314,8.236-4.116,12.117-1.764,3.867-4.187,7.399-7.161,10.441l1.607,1.607.622-2.185-.622,2.185l1.6,1.602c3.355-3.391,6.095-7.338,8.095-11.664c2.806-6.158,4.708-12.686,5.648-19.385.755-5.005,1.136-10.06,1.139-15.121c0-2.564-.105-4.109-.105-4.153l-.119-1.719-107.204-21.85-.454,2.222l2.198-.571c-1.893-6.868-4.256-13.598-7.074-20.143-2.219-5.304-5.002-10.357-8.301-15.071-1.538-2.167-3.323-4.15-5.317-5.909-1.835-1.647-3.994-2.894-6.34-3.663-3.721-1.174-7.598-1.785-11.501-1.812-3.729-.029-7.432.63-10.9219,1.943-1.4341.518-2.7979,1.213-4.06,2.067l1.3388,1.831.9901-2.042c-2.6034-1.189-5.2827-2.205-8.0204-3.042-5.9389-1.91-12.1301-2.926-18.3696-3.017-.3799,0-.766,0-1.1458,0-2.0965.015-4.1812.316-6.1959.894-1.1577.345-2.2559.864-3.2567,1.54-1.097.728-1.9936,1.718-2.6081,2.881-.6146,1.162-.9274,2.459-.9101,3.773-.0053,1.025.1675,2.044.5106,3.01l2.1234-.813-.1432-2.259c-.8409.066-1.6743.205-2.4908.416-1.7663.445-3.4928,1.035-5.1622,1.763-2.82,1.18-5.4608,2.747-7.846,4.655-1.1295.915-2.1159,1.992-2.9267,3.197-.3922.598-.7081,1.242-.9403,1.918-.2443.696-.3705,1.428-.3736,2.166.0002.671.1095,1.338.3238,1.974.2169.665.5339,1.293.9403,1.862.6448.993,1.4363,1.882,2.3475,2.639.4411.347.9352.621,1.4634.813.523.188,1.0754.283,1.6315.279.5729-.004,1.1426-.086,1.6937-.242.9364-.281,1.8554-.617,2.7523-1.006c1.8924-.793,3.8378-1.455,5.8223-1.98c3.3105-.83,6.6922-1.348,10.1002-1.545.467-.038.9278-.05,1.401-.05c4.3149.084,8.532,1.295,12.2299,3.513c5.8284,3.315,11.0466,8.69,14.8638,14.389c1.8117,2.675,3.3551,5.521,4.6077,8.498c1.023,2.355,1.709,4.841,2.036,7.386.055.505.082,1.013.081,1.521-.035,2.641-.674,5.24-1.868,7.598-1.8462,3.547-4.3328,6.724-7.3351,9.373-1.2465,1.138-2.5585,2.204-3.9292,3.19-.9213.68-1.8842,1.302-2.8831,1.863-.3798.205-1.0212.527-1.8183.925-1.3886.689-3.2691,1.62-5.2991,2.681-3.1838,1.624-6.2544,3.459-9.1911,5.494-1.2951.899-2.4856,1.94-3.5494,3.103-.4898.534-.9083,1.129-1.2454,1.769-.3633.688-.5595,1.451-.5729,2.229.0001.661.1603,1.313.4671,1.899.2302.432.5288.824.8842,1.161.5274.495,1.1334.9,1.7934,1.198.7284.328,1.4849.59,2.2604.782c1.7706.432,3.5885.64,5.4112.621c3.3806-.054,6.7359-.591,9.9632-1.595c4.2961-1.323,8.446-3.079,12.3855-5.239c3.2066-1.738,5.2436-3.104,5.2926-3.16l-1.282-1.862.585,2.185c3.075-.732,6.195-1.263,9.34-1.589c5.48-.621,11.67-1.068,16.471-1.329c2.403-.124,4.465-.211,5.915-.266l1.7-.063h.623l-.062-2.265-.959,2.054c.716.329,1.656.696,2.883,1.13c2.298.813,5.536,1.862,9.49,3.104c13.811,4.27,36.247,10.645,55.246,15.965c18.998,5.32,34.547,9.503,34.547,9.51l1.246.341.934-.925-1.594-1.601Z" fill="#231f20"/><path d="M60.1342,211.005c7.1954.336,14.3344,1.434,21.2963,3.278c5.3739,1.459,10.9159,3.569,15.5114,6.524c2.2395,1.411,4.2811,3.112,6.0711,5.059c1.711,1.88,3.064,4.055,3.992,6.418l4.24-1.626c-1.143-2.922-2.819-5.608-4.944-7.921-3.636-4.004-8.3565-6.958-13.3444-9.193-7.4723-3.346-15.6235-5.084-21.919-6.021-3.5809-.549-7.19-.897-10.81-1.043l-.1121,4.525h.0187Z" fill="#231f20"/><path d="M95.9952,207.535c3.2055,1.807,6.2618,3.864,9.1408,6.152c2.387,1.866,4.58,3.966,6.545,6.269c1.817,2.052,3.173,4.467,3.979,7.083l4.39-1.161c-.99-3.304-2.69-6.355-4.981-8.938-3.211-3.658-6.88-6.889-10.916-9.616-1.936-1.354-3.939-2.61-6.0032-3.761l-2.1546,3.991v-.019Z" fill="#231f20"/><path d="M112.522,202.023c0,0,10.368,10.733,10.704,15.742l-10.704-15.742Z"/><path d="M107.465,253.532c0,6.412-1.907,12.68-5.481,18.012-3.5735,5.331-8.653,9.487-14.5959,11.941-5.943,2.453-12.4824,3.096-18.7913,1.845-6.309-1.251-12.1041-4.339-16.6526-8.873s-7.6461-10.311-8.901-16.6-.6109-12.808,1.8507-18.732s6.6303-10.988,11.9788-14.55c5.3485-3.563,11.6366-5.464,18.0691-5.464c4.2713-.001,8.5009.837,12.4472,2.466s7.532,4.017,10.5523,7.028c3.0207,3.011,5.4157,6.585,7.0497,10.519c1.635,3.934,2.475,8.15,2.474,12.408Z" fill="#f57379"/><path d="M554.464,271.477c0,0-37.985-65.344-40.251-91.359-2.267-26.015-28.302-56.592-64.512-64.184c0,0-3.113-9.584-8.942-10.248-5.828-.664,2.902,10.248-1.793,10.248s-34.983-12.892-58.061.894c-23.077,13.786-43.084,51.471-42.082,83.892c1.003,32.421,17.436,59.162,14.086,94.258s21.458,46.462,38.221,31.75c0,0,19.111,4.346,25.487-22.06c0,0,13.077,2.439,9.72-17.046c0,0,15.088,26.071,21.129,36.437c6.04,10.366,13.076,10.025,19.777,1c6.7-9.026,69.785-64.501,87.221-53.582Z" fill="#231f20"/><path d="M554.464,271.477l1.687-.975-.105-.186c-1.109-1.906-10.586-18.367-20.039-37.467-4.726-9.547-9.452-19.752-13.077-29.106-1.83-4.668-3.393-9.125-4.558-13.166-1.063-3.466-1.797-7.024-2.192-10.627-.723-7.202-2.802-14.204-6.127-20.639-5.125-10.249-13.158-20.093-23.382-28.126-10.696-8.441-23.2-14.31-36.54-17.15l-.399,1.899l1.868-.621c-.644-1.84-1.479-3.608-2.491-5.276-.858-1.459-1.926-2.784-3.169-3.935-.667-.605-1.41-1.12-2.211-1.534-.847-.437-1.767-.719-2.715-.831-.233-.027-.468-.042-.703-.044-.481-.005-.959.073-1.414.23-.446.159-.851.416-1.184.752-.333.337-.586.744-.74,1.191-.143.436-.213.894-.206,1.353.016.74.129,1.474.337,2.185.274,1.049.654,2.092.94,3.023.149.459.268.887.349,1.241.066.258.103.523.112.789v.08l.517.093-.461-.248c-.026.049-.045.101-.056.155l.517.093-.461-.248.797.435-.623-.652c-.065.064-.122.138-.168.217l.797.435-.623-.652.561.583-.255-.769c-.114.04-.218.103-.306.186l.561.583-.255-.769.124.372-.087-.385h-.037l.124.373-.087-.385h-.069c-.137,0-.275-.013-.411-.037-.404-.063-1.021-.193-1.774-.373-1.327-.323-3.114-.801-5.169-1.341-6.227-1.607-15.405-3.724-25.35-3.724-8.643,0-17.927,1.614-26.359,6.66-5.853,3.501-11.439,8.43-16.557,14.339-7.715,8.895-14.322,19.988-19.042,31.912s-7.523,24.711-7.523,36.959c0,.806,0,1.613.038,2.42.467,14.997,4.153,28.697,7.665,42.365c3.512,13.669,6.85,27.312,6.85,42.309c0,3.054-.137,6.158-.442,9.311-.212,2.235-.312,4.383-.312,6.437c0,10.82,2.846,19.243,7.436,24.96c2.162,2.753,4.909,4.994,8.045,6.561c2.962,1.461,6.222,2.219,9.527,2.216c5.773,0,11.682-2.284,16.813-6.76l-1.289-1.458-.43,1.862c1.14.226,2.3.333,3.463.316c3.05.004,6.067-.63,8.856-1.862s5.287-3.033,7.334-5.288c3.375-3.632,6.326-8.964,8.188-16.661l-1.868-.459-.361,1.912c.56.09,1.126.133,1.694.13c1.051.003,2.098-.135,3.113-.41c1.396-.376,2.69-1.057,3.79-1.993c1.099-.936,1.976-2.104,2.568-3.419c1.022-2.348,1.511-4.891,1.432-7.449-.015-2.059-.207-4.113-.573-6.139l-1.918.322-1.768,1.018c0,0,15.088,26.071,21.128,36.444c1.323,2.454,3.097,4.637,5.231,6.437.907.722,1.919,1.304,3.001,1.725c1.03.404,2.126.615,3.232.621c2.194-.05,4.319-.769,6.09-2.061c2.106-1.521,3.947-3.377,5.449-5.493.311-.422.846-1.056,1.544-1.819c1.32-1.434,3.238-3.358,5.604-5.587c11.382-10.623,23.482-20.454,36.216-29.422c6.5-4.637,13.335-8.786,20.45-12.415c2.883-1.453,5.875-2.681,8.948-3.675c2.333-.784,4.769-1.221,7.23-1.297.878-.009,1.754.089,2.609.292.713.166,1.394.447,2.017.832l6.676,4.177-3.955-6.828-1.687.975l1.04-1.645c-.978-.602-2.046-1.044-3.163-1.31-1.159-.278-2.346-.414-3.537-.404-3.158,0-6.638.801-10.387,2.142-6.557,2.352-13.967,6.412-21.552,11.285-11.358,7.312-23.077,16.48-32.486,24.506-4.701,4.016-8.824,7.747-12.037,10.826-1.606,1.539-2.989,2.917-4.103,4.09-.907.931-1.762,1.911-2.56,2.937-1.245,1.768-2.772,3.321-4.52,4.599-1.122.849-2.479,1.332-3.886,1.384-.639-.001-1.272-.118-1.868-.347-1.148-.47-2.182-1.179-3.033-2.08-1.264-1.317-2.354-2.79-3.244-4.382-3.014-5.177-8.294-14.277-12.821-22.098-2.267-3.905-4.359-7.486-5.847-10.093l-1.794-3.104-.66-1.142-5.436-9.392l1.831,10.689c.325,1.812.498,3.647.517,5.488.056,1.82-.238,3.634-.866,5.344-.309.8-.765,1.534-1.345,2.166-.669.708-1.51,1.232-2.441,1.521-.755.241-1.543.36-2.335.354-.256.001-.512-.011-.766-.037h-.187-.037l-.224,1.241.236-1.241-.224,1.241.237-1.241-1.819-.342-.429,1.794c-.885,3.981-2.402,7.795-4.496,11.298-2.653,4.233-5.698,6.561-8.562,7.902-2.342,1.079-4.892,1.639-7.473,1.638-.657.002-1.314-.035-1.967-.111l-.505-.081h-.112l-.149.676.155-.676-.149.676.156-.676-.972-.217-.747.658c-4.484,3.923-9.471,5.785-14.21,5.791-2.707.001-5.377-.621-7.803-1.819-3.68-1.812-6.974-4.966-9.384-9.64-2.409-4.674-3.904-10.769-3.904-18.38c0-1.924.1-3.945.299-6.064.318-3.309.461-6.536.461-9.708c0-15.568-3.469-29.578-6.987-43.272-3.518-13.693-7.105-27.094-7.547-41.527c0-.763-.037-1.527-.037-2.296c0-15.519,4.801-32.278,12.391-46.766c3.631-6.997,8.05-13.559,13.17-19.559c4.895-5.655,10.2-10.311,15.611-13.545c7.647-4.581,16.191-6.102,24.354-6.102c7.635,0,14.901,1.335,20.655,2.688c2.877.677,5.368,1.36,7.373,1.862.996.255,1.868.478,2.634.621.38.081.729.149,1.065.199.323.048.65.075.977.08.461.008.918-.068,1.352-.223.354-.126.682-.318.965-.565.409-.355.714-.814.884-1.328.138-.415.205-.849.199-1.285-.02-.731-.133-1.457-.336-2.16-.28-1.037-.654-2.08-.946-3.005-.144-.465-.268-.893-.343-1.241-.068-.266-.108-.539-.118-.813v-.118l-.218-.044.212.075v-.031l-.218-.044.211.075-.622-.224.535.41c.044-.057.08-.119.106-.186l-.623-.224.536.41-.623-.459.287.714c.124-.059.233-.147.317-.255l-.623-.459.287.714-.137-.342.093.354h.044l-.137-.341.093.353v-.068.068-.068.068h.125c.087-.005.174-.005.261,0c.486.06.956.207,1.389.435.913.504,1.719,1.181,2.373,1.992c1.061,1.307,1.948,2.744,2.64,4.277.305.621.541,1.242.691,1.62l.168.46.044.118.728-.236-.728.236.728-.236-.728.236.348,1.067l1.103.23c16.812,3.609,32.142,12.189,43.987,24.618c5.319,5.508,9.787,11.773,13.257,18.591c3.101,6.001,5.044,12.528,5.729,19.243.433,4.001,1.252,7.95,2.447,11.794c2.23,7.622,5.723,16.418,9.708,25.369c11.95,26.828,28.339,54.997,28.358,55.028l1.681-.975l1.04-1.645-1.077,1.602Z"/><path d="M410.359,139.106c0,0-43.384,3.104-48.963,34.761s6.937,98.491,48.963,95.375c21.016-4.456,30.406-10.254,30.406-10.254s-28.644,12.483-28.644,19.609s27.156,51.999,40.681,20.056c2.123-5.016,0-28.076,0-28.076l2.391-69.187c-.753-2.259,4.048-12.954-4.016-18.622-11.681-8.16-21.953-18.16-30.413-29.609l-10.405-14.053Z" fill="#fff"/><path d="M544.638,336.685c0,0,12.828-15.065,35.095-12.042l-35.095,12.042Z" fill="#fff"/><path d="M546.375,338.15l-1.065-.9l1.059.906-1.065-.9l1.058.906c2.246-2.38,4.818-4.43,7.641-6.089c5.983-3.644,12.859-5.57,19.87-5.568c1.854.001,3.706.128,5.542.378l.623-4.488c-2.041-.28-4.098-.421-6.158-.422-8.067,0-15.969,2.277-22.791,6.568-3.027,1.824-5.781,4.064-8.183,6.654l3.469,2.93v.025Z" fill="#231f20"/><path d="M447.098,144.444c0,0-13.008-26.784,32.069,1.018c34.124,21.055,34.784,58.783,40.476,72.061c5.691,13.277,16.812,29.696,27.398,44.146c6.047,8.287,17.803,33.756,22.368,50.069c4.564,16.312,18.917,52.458,11.078,68.702-11.078,22.967-44.33,28.281-57.65,30.174s-40.394-7.107-47.792-29.87c0,0-36.067-.384-33.526-29.975c2.54-29.59,24.609-60.031,24.609-117.318.006-39.249-19.03-89.007-19.03-89.007Z" fill="#231f20"/><path d="M404.207,362.247l55.003,113.24l150.008-40.95-14.851-56.406-6.906,1.813l13.058,49.59-137.467,37.523-52.425-107.914-6.42,3.104Z" fill="#231f20"/><path d="M410.359,139.106l-.162-2.253c-7.93.779-15.706,2.692-23.09,5.679-5.959,2.446-12.161,5.928-17.292,10.938-2.648,2.568-4.906,5.508-6.7,8.727-1.934,3.516-3.27,7.327-3.954,11.279-.894,5.397-1.323,10.861-1.283,16.331.017,8.993.91,17.964,2.665,26.785c2.759,13.73,7.678,27.312,15.306,37.629c3.628,5.071,8.258,9.348,13.606,12.569c5.477,3.191,11.714,4.855,18.058,4.817.984,0,1.974-.037,2.983-.111h.156.149c21.271-4.513,30.917-10.41,31.135-10.553l-2.111-4.004c-.037,0-7.236,3.154-14.509,7.232-3.558,1.93-6.952,4.145-10.15,6.623-1.341,1.046-2.555,2.244-3.618,3.569-.474.606-.874,1.267-1.189,1.968-.323.721-.494,1.501-.504,2.291.009.588.086,1.173.23,1.744.329,1.276.767,2.522,1.308,3.724c1.288,2.909,2.795,5.716,4.508,8.399c2.979,4.821,6.57,9.238,10.685,13.141c1.973,1.855,4.179,3.448,6.564,4.736c2.218,1.21,4.695,1.874,7.223,1.936c1.436,0,2.861-.26,4.203-.769c2.222-.892,4.185-2.324,5.71-4.165c1.941-2.346,3.504-4.978,4.633-7.803.268-.666.465-1.359.586-2.067.221-1.254.363-2.521.423-3.793.081-1.403.112-2.936.112-4.531c0-4.24-.237-8.92-.473-12.551-.237-3.631-.473-6.207-.48-6.207l-2.26.204l2.273.075l2.36-69.59-.131-.385-.679.223.716-.08c-.007-.049-.019-.097-.037-.143l-.679.223.716-.08c-.002-.036-.002-.071,0-.106.016-.374.053-.747.113-1.117.105-.776.28-1.794.435-2.955.177-1.273.27-2.557.281-3.842.04-2.122-.339-4.231-1.115-6.208-.952-2.299-2.552-4.275-4.608-5.686-11.483-8.017-21.578-17.845-29.89-29.099l-11.127-15.078-1.246.093.162,2.253-1.824,1.347l10.386,14.072c8.607,11.646,19.055,21.82,30.936,30.124c1.351.907,2.402,2.192,3.02,3.694.544,1.422.806,2.935.772,4.457-.023,1.433-.152,2.862-.386,4.276-.099.671-.205,1.304-.286,1.9-.089.575-.139,1.156-.15,1.738-.011.469.057.937.2,1.384l2.154-.707-2.273-.081-2.366,69.317v.137c0,0,0,.037,0,.111.106,1.124.928,10.602.928,18.25c0,2.036-.062,3.941-.199,5.487-.069.77-.156,1.453-.262,1.999-.063.39-.165.772-.305,1.142-1.65,3.898-3.456,6.431-5.206,7.927-.758.67-1.628,1.202-2.571,1.57-.825.316-1.701.476-2.585.472-1.422-.032-2.822-.353-4.116-.944-2.547-1.098-5.286-3.159-7.877-5.741-3.89-3.997-7.257-8.469-10.019-13.309-1.123-1.908-2.117-3.888-2.977-5.928-.293-.695-.546-1.406-.759-2.129-.109-.356-.18-.722-.212-1.092.016-.173.063-.341.137-.497.42-.812.978-1.545,1.65-2.166c2.029-1.896,4.252-3.575,6.632-5.01c4.041-2.506,8.21-4.799,12.491-6.871c1.868-.913,3.45-1.658,4.577-2.179l1.32-.621.349-.155.118-.05-.909-2.079-1.195-1.924.348.571-.348-.571.348.571-.348-.571c-.081.049-9.254,5.63-29.678,9.931l.467,2.216-.162-2.259c-.903.062-1.787.099-2.653.099-3.733.018-7.439-.634-10.941-1.924-5.859-2.179-10.928-6.108-15.262-11.322-6.495-7.809-11.271-18.492-14.372-29.895-2.988-11.136-4.518-22.612-4.552-34.14-.03-5.199.386-10.39,1.245-15.518.596-3.462,1.764-6.801,3.456-9.882c2.805-4.903,6.725-9.081,11.446-12.198c6.849-4.705,14.944-7.448,21.215-8.969c3.151-.764,5.866-1.242,7.784-1.502.959-.137,1.712-.224,2.229-.273.255-.031.448-.044.579-.056h.143.038l-.187-2.241-1.825,1.347l1.825-1.347Z" fill="#231f20"/><path d="M346.906,188.231c.788,4.142,2.295,8.117,4.452,11.744c1.905,3.268,4.509,6.076,7.628,8.225c3.855,2.555,8.398,3.882,13.027,3.805.38,0,.76,0,1.14,0c4.72-.187,8.493-1.316,11.439-3.054c2.041-1.196,3.827-2.78,5.255-4.662c1.74-2.356,2.97-5.047,3.612-7.902.445-1.89.673-3.825.679-5.767c0-.664-.032-1.061-.032-1.111l-2.266.18v2.266h19.222v-2.266l-2.272.05c.052,1.166.184,2.327.392,3.476.321,1.854.813,3.674,1.469,5.438c1.241,3.464,3.35,6.554,6.128,8.975c1.658,1.396,3.557,2.479,5.604,3.197c2.413.83,4.951,1.239,7.504,1.211h.685c4.422-.065,8.781-1.061,12.79-2.924c4.312-2.039,8.035-5.133,10.822-8.994c1.258-1.676,2.29-3.508,3.07-5.45l-4.271-1.54.828.298-.828-.31.828.298-.828-.311c-1.135,2.664-2.775,5.084-4.833,7.126-1.972,2.012-4.293,3.652-6.849,4.842-3.398,1.538-7.079,2.351-10.81,2.39h-.573c-4.185,0-7.124-1.111-9.372-2.707-1.601-1.169-2.952-2.647-3.973-4.345-1.329-2.263-2.26-4.736-2.752-7.312-.212-1.055-.324-1.949-.386-2.563l-.056-.708c0-.081,0-.137,0-.168v-.037l-.05-2.216h-23.943l.193,2.446l1.426-.112-1.426.106l1.426-.112-1.426.105v.044c0,.099,0,.347,0,.714-.007,1.367-.146,2.731-.417,4.072-.28,1.424-.726,2.811-1.326,4.134-1.039,2.301-2.685,4.277-4.764,5.717-2.31,1.57-5.505,2.749-10.119,2.936h-.971c-3.726.08-7.387-.977-10.493-3.03-1.95-1.338-3.651-3.006-5.025-4.928-1.768-2.489-3.148-5.23-4.091-8.132-.386-1.167-.623-2.154-.797-2.836-.081-.342-.137-.621-.168-.783-.031-.161,0-.155-.037-.192v-.043l-.878.142.878-.136-.878.143.878-.137-4.49.701.025.007Z" fill="#f1ab1e"/><path d="M361.894,160.844l-.075-.472.075.472-.075-.472.075.472c1.652-.217,3.316-.32,4.982-.31c2.606-.008,5.207.242,7.765.745c2.173.419,4.287,1.101,6.295,2.029c3.175,1.433,5.875,3.736,7.784,6.642c2.005,3.104,3.338,7.319,3.344,13.172c0,.677,0,1.378-.056,2.111-.66,12.756-2.952,20.279-5.262,24.599-.829,1.65-1.939,3.143-3.282,4.414-.655.621-1.422,1.113-2.26,1.452-.372.14-.709.361-.985.647s-.484.63-.609,1.007c-.125.376-.165.776-.115,1.17.049.394.187.771.401,1.105.301.462.735.822,1.246,1.031l6.576,2.57l1.656-4.221-6.576-2.564-.691,1.738l1.575-1.018c-.214-.324-.523-.575-.884-.72l-.691,1.738l1.575-1.018-1.575,1.018h1.868c0-.361-.104-.714-.299-1.018l-1.575,1.018l1.569,1.037c.204-.308.313-.668.311-1.037h-1.868l1.569,1.037-1.569-1.037.66,1.757c.372-.138.691-.39.909-.72l-1.569-1.037.66,1.757c1.384-.537,2.652-1.331,3.736-2.34c2.099-1.894,4.359-5.016,6.227-10.094c1.869-5.077,3.307-12.141,3.824-22.036.043-.8.062-1.582.062-2.34c0-5.816-1.208-10.552-3.263-14.277-1.438-2.629-3.403-4.936-5.772-6.778-3.21-2.408-6.9-4.102-10.823-4.966-3.239-.742-6.553-1.108-9.876-1.092-1.907-.014-3.813.106-5.704.36l.698,4.475.012-.006Z" fill="#231f20"/><path d="M386.105,236.151l.784,2.123.274-.099c1.339-.491,7.473-2.725,14.322-4.904c3.413-1.086,6.981-2.166,10.181-2.998c1.595-.422,3.114-.776,4.434-1.043c1.112-.239,2.237-.411,3.369-.515l-.174-2.26-2.223-.453c-.607,2.709-1.44,5.363-2.491,7.933-.773,1.944-1.781,3.787-3.002,5.488-.519.706-1.121,1.348-1.793,1.911-.526.448-1.132.792-1.787,1.012-1.731.502-3.528.741-5.331.708-3.393.033-6.753-.666-9.851-2.049-1.219-.547-2.315-1.332-3.225-2.309-.346-.391-.633-.83-.853-1.303-.202-.452-.327-.935-.368-1.428l-2.26.186.785,2.123-.785-2.123-2.267.186c.086,1.001.338,1.981.748,2.899.707,1.538,1.775,2.883,3.113,3.923c2.084,1.577,4.464,2.721,6.999,3.365c2.587.704,5.257,1.061,7.94,1.061c2.403,0,4.302-.621,6.308-1.272c1.245-.398,2.758-.708,3.736-1.509c1.673-1.456,3.071-3.198,4.128-5.146c1.484-2.695,2.678-5.539,3.562-8.485.76-2.452,1.121-4.209,1.133-4.258l.623-2.949-3.008.236c-1.416.119-2.824.326-4.215.621-2.728.565-5.922,1.421-9.191,2.384-9.82,2.917-20.381,6.809-20.406,6.809l-1.619.621.143,1.713l2.267-.199Z" fill="#231f20"/><path d="M412.028,171.688l-.43-.335.43.335-.43-.335.43.335c1.276-1.563,2.682-3.017,4.203-4.345c3.274-2.945,7.029-5.311,11.103-6.996l-1.688-4.202c-4.618,1.902-8.872,4.586-12.572,7.933-1.679,1.476-3.232,3.087-4.646,4.817l3.6,2.768v.025Z" fill="#231f20"/><path id="eEj7MqHgvIr32" d="M381.472,180.559c0,1.183-.352,2.34-1.012,3.325-.66.984-1.598,1.751-2.695,2.204-1.097.452-2.305.57-3.469.339-1.165-.231-2.234-.802-3.074-1.639-.839-.838-1.41-1.905-1.641-3.066s-.111-2.364.344-3.458c.455-1.093,1.226-2.027,2.214-2.684s2.149-1.007,3.336-1.005c.788,0,1.569.155,2.297.455.728.301,1.389.742,1.946,1.298.557.555.998,1.215,1.299,1.941s.456,1.504.455,2.29Z" transform="matrix(1 0 0 0 0 180.558601)" fill="#231f20"/><path id="eEj7MqHgvIr33" d="M432.091,180.559c0,1.183-.352,2.34-1.012,3.324-.659.984-1.597,1.751-2.694,2.204-1.096.453-2.303.571-3.468.34-1.164-.23-2.234-.8-3.073-1.637-.84-.837-1.412-1.903-1.643-3.064-.232-1.161-.113-2.364.341-3.457.455-1.094,1.224-2.028,2.211-2.686.987-.657,2.148-1.008,3.335-1.008c1.592,0,3.119.63,4.245,1.752c1.126,1.123,1.758,2.645,1.758,4.232Z" transform="matrix(1 0 0 0 0 180.558594)" fill="#231f20"/></g></g><clipPath id="eEj7MqHgvIr34"><rect width="609" height="509" rx="0" ry="0" fill="#fff"/></clipPath></g><g id="eEj7MqHgvIr36" transform="matrix(.205184 0 0 0.205184 64.427055 24.502551)" opacity="0"><path d="M273.321,94.1899q-48.199578-12.3686-52.772-44.6045c-4.572422-32.2359,37.707-45.27125,57.997-45.27125s61.369035,11.89065,60.241017,43.53375q-1.128018,31.6431-42.301018,43.7473q4.619,22.9798,2.35,22.8618t-25.514999-20.2671Z" transform="translate(.000001 0)" fill="#fff" stroke="#070707" stroke-width="3"/><path d="M281.899,26.462L267.827,69.7666c-.095.2511-.138.519-.126.7872.011.2683.077.5315.193.7736s.28.4581.482.6349.438.3108.693.3937c.255.083.525.1133.792.089s.527-.1027.763-.2303.444-.3019.611-.5122c.166-.2103.289-.4524.359-.7114l14.089-43.3046c.095-.2511.138-.519.126-.7873-.011-.2682-.077-.5314-.193-.7735s-.28-.4581-.482-.6349-.438-.3108-.693-.3938-.525-.1132-.792-.0889-.527.1027-.763.2303-.444.3019-.611.5122c-.166.2103-.289.4524-.359.7114"/><path d="M296.786,39.2057l17.169,10.3797-18.937,13.1178c-.433.3007-.728.761-.822,1.2799-.093.5188.023,1.0535.324,1.4865.3.433.76.7288,1.279.8223.518.0936,1.052-.0228,1.485-.3235l23.985-16.6381-22.433-13.5259c-.451-.2722-.991-.354-1.502-.2275s-.951.451-1.223.9021-.353.9917-.227,1.503c.127.5114.451.9516.902,1.2237Z"/><path d="M260.112,33.4633L235,49.6989l23.65,11.3888c.237.137.5.2235.772.2539.272.0305.547.0043.809-.077.261-.0812.503-.2157.709-.395.207-.1793.375-.3995.492-.6467.118-.2473.183-.5162.192-.7899.009-.2738-.039-.5463-.141-.8006-.102-.2542-.255-.4846-.45-.6767s-.428-.3417-.683-.4394l-17.278-8.3219l19.175-12.3978c.219-.1415.408-.3247.556-.5391s.252-.4559.307-.7107c.054-.2548.059-.5179.012-.7742s-.144-.5009-.285-.7198c-.142-.2188-.325-.4077-.539-.5558s-.456-.2525-.71-.3072c-.255-.0548-.518-.0588-.774-.0119s-.5.1439-.719.2854h.017Z"/></g><script><![CDATA[!function(t,n){"object"==typeof exports&&"undefined"!=typeof module?module.exports=n():"function"==typeof define&&define.amd?define(n):((t="undefined"!=typeof globalThis?globalThis:t||self).__SVGATOR_PLAYER__=t.__SVGATOR_PLAYER__||{},t.__SVGATOR_PLAYER__["5c7f360c"]=n())}(this,(function(){"use strict";function t(t,n){var e=Object.keys(t);if(Object.getOwnPropertySymbols){var r=Object.getOwnPropertySymbols(t);n&&(r=r.filter((function(n){return Object.getOwnPropertyDescriptor(t,n).enumerable}))),e.push.apply(e,r)}return e}function n(n){for(var e=1;e<arguments.length;e++){var r=null!=arguments[e]?arguments[e]:{};e%2?t(Object(r),!0).forEach((function(t){o(n,t,r[t])})):Object.getOwnPropertyDescriptors?Object.defineProperties(n,Object.getOwnPropertyDescriptors(r)):t(Object(r)).forEach((function(t){Object.defineProperty(n,t,Object.getOwnPropertyDescriptor(r,t))}))}return n}function e(t){return(e="function"==typeof Symbol&&"symbol"==typeof Symbol.iterator?function(t){return typeof t}:function(t){return t&&"function"==typeof Symbol&&t.constructor===Symbol&&t!==Symbol.prototype?"symbol":typeof t})(t)}function r(t,n){if(!(t instanceof n))throw new TypeError("Cannot call a class as a function")}function i(t,n){for(var e=0;e<n.length;e++){var r=n[e];r.enumerable=r.enumerable||!1,r.configurable=!0,"value"in r&&(r.writable=!0),Object.defineProperty(t,r.key,r)}}function u(t,n,e){return n&&i(t.prototype,n),e&&i(t,e),t}function o(t,n,e){return n in t?Object.defineProperty(t,n,{value:e,enumerable:!0,configurable:!0,writable:!0}):t[n]=e,t}function a(t){return(a=Object.setPrototypeOf?Object.getPrototypeOf:function(t){return t.__proto__||Object.getPrototypeOf(t)})(t)}function l(t,n){return(l=Object.setPrototypeOf||function(t,n){return t.__proto__=n,t})(t,n)}function s(){if("undefined"==typeof Reflect||!Reflect.construct)return!1;if(Reflect.construct.sham)return!1;if("function"==typeof Proxy)return!0;try{return Boolean.prototype.valueOf.call(Reflect.construct(Boolean,[],(function(){}))),!0}catch(t){return!1}}function f(t,n,e){return(f=s()?Reflect.construct:function(t,n,e){var r=[null];r.push.apply(r,n);var i=new(Function.bind.apply(t,r));return e&&l(i,e.prototype),i}).apply(null,arguments)}function c(t,n){if(n&&("object"==typeof n||"function"==typeof n))return n;if(void 0!==n)throw new TypeError("Derived constructors may only return object or undefined");return function(t){if(void 0===t)throw new ReferenceError("this hasn't been initialised - super() hasn't been called");return t}(t)}function h(t,n,e){return(h="undefined"!=typeof Reflect&&Reflect.get?Reflect.get:function(t,n,e){var r=function(t,n){for(;!Object.prototype.hasOwnProperty.call(t,n)&&null!==(t=a(t)););return t}(t,n);if(r){var i=Object.getOwnPropertyDescriptor(r,n);return i.get?i.get.call(e):i.value}})(t,n,e||t)}function v(t){return function(t){if(Array.isArray(t))return y(t)}(t)||function(t){if("undefined"!=typeof Symbol&&null!=t[Symbol.iterator]||null!=t["@@iterator"])return Array.from(t)}(t)||function(t,n){if(!t)return;if("string"==typeof t)return y(t,n);var e=Object.prototype.toString.call(t).slice(8,-1);"Object"===e&&t.constructor&&(e=t.constructor.name);if("Map"===e||"Set"===e)return Array.from(t);if("Arguments"===e||/^(?:Ui|I)nt(?:8|16|32)(?:Clamped)?Array$/.test(e))return y(t,n)}(t)||function(){throw new TypeError("Invalid attempt to spread non-iterable instance.\nIn order to be iterable, non-array objects must have a [Symbol.iterator]() method.")}()}function y(t,n){(null==n||n>t.length)&&(n=t.length);for(var e=0,r=new Array(n);e<n;e++)r[e]=t[e];return r}Number.isInteger||(Number.isInteger=function(t){return"number"==typeof t&&isFinite(t)&&Math.floor(t)===t}),Number.EPSILON||(Number.EPSILON=2220446049250313e-31);var g=d(Math.pow(10,-6));function d(t){var n=arguments.length>1&&void 0!==arguments[1]?arguments[1]:6;if(Number.isInteger(t))return t;var e=Math.pow(10,n);return Math.round((+t+Number.EPSILON)*e)/e}function p(t,n){var e=arguments.length>2&&void 0!==arguments[2]?arguments[2]:g;return Math.abs(t-n)<e}var m=Math.PI/180;function b(t){return t}function w(t,n,e){var r=1-e;return 3*e*r*(t*r+n*e)+e*e*e}function x(){var t=arguments.length>0&&void 0!==arguments[0]?arguments[0]:0,n=arguments.length>1&&void 0!==arguments[1]?arguments[1]:0,e=arguments.length>2&&void 0!==arguments[2]?arguments[2]:1,r=arguments.length>3&&void 0!==arguments[3]?arguments[3]:1;return t<0||t>1||e<0||e>1?null:p(t,n)&&p(e,r)?b:function(i){if(i<=0)return t>0?i*n/t:0===n&&e>0?i*r/e:0;if(i>=1)return e<1?1+(i-1)*(r-1)/(e-1):1===e&&t<1?1+(i-1)*(n-1)/(t-1):1;for(var u,o=0,a=1;o<a;){var l=w(t,e,u=(o+a)/2);if(p(i,l))break;l<i?o=u:a=u}return w(n,r,u)}}function A(){return 1}function k(t){return 1===t?1:0}function _(){var t=arguments.length>0&&void 0!==arguments[0]?arguments[0]:1,n=arguments.length>1&&void 0!==arguments[1]?arguments[1]:0;if(1===t){if(0===n)return k;if(1===n)return A}var e=1/t;return function(t){return t>=1?1:(t+=n*e)-t%e}}var S=Math.sin,O=Math.cos,j=Math.acos,M=Math.asin,P=Math.tan,E=Math.atan2,I=Math.PI/180,R=180/Math.PI,F=Math.sqrt,N=function(){function t(){var n=arguments.length>0&&void 0!==arguments[0]?arguments[0]:1,e=arguments.length>1&&void 0!==arguments[1]?arguments[1]:0,i=arguments.length>2&&void 0!==arguments[2]?arguments[2]:0,u=arguments.length>3&&void 0!==arguments[3]?arguments[3]:1,o=arguments.length>4&&void 0!==arguments[4]?arguments[4]:0,a=arguments.length>5&&void 0!==arguments[5]?arguments[5]:0;r(this,t),this.m=[n,e,i,u,o,a],this.i=null,this.w=null,this.s=null}return u(t,[{key:"determinant",get:function(){var t=this.m;return t[0]*t[3]-t[1]*t[2]}},{key:"isIdentity",get:function(){if(null===this.i){var t=this.m;this.i=1===t[0]&&0===t[1]&&0===t[2]&&1===t[3]&&0===t[4]&&0===t[5]}return this.i}},{key:"point",value:function(t,n){var e=this.m;return{x:e[0]*t+e[2]*n+e[4],y:e[1]*t+e[3]*n+e[5]}}},{key:"translateSelf",value:function(){var t=arguments.length>0&&void 0!==arguments[0]?arguments[0]:0,n=arguments.length>1&&void 0!==arguments[1]?arguments[1]:0;if(!t&&!n)return this;var e=this.m;return e[4]+=e[0]*t+e[2]*n,e[5]+=e[1]*t+e[3]*n,this.w=this.s=this.i=null,this}},{key:"rotateSelf",value:function(){var t=arguments.length>0&&void 0!==arguments[0]?arguments[0]:0;if(t%=360){var n=S(t*=I),e=O(t),r=this.m,i=r[0],u=r[1];r[0]=i*e+r[2]*n,r[1]=u*e+r[3]*n,r[2]=r[2]*e-i*n,r[3]=r[3]*e-u*n,this.w=this.s=this.i=null}return this}},{key:"scaleSelf",value:function(){var t=arguments.length>0&&void 0!==arguments[0]?arguments[0]:1,n=arguments.length>1&&void 0!==arguments[1]?arguments[1]:1;if(1!==t||1!==n){var e=this.m;e[0]*=t,e[1]*=t,e[2]*=n,e[3]*=n,this.w=this.s=this.i=null}return this}},{key:"skewSelf",value:function(t,n){if(n%=360,(t%=360)||n){var e=this.m,r=e[0],i=e[1],u=e[2],o=e[3];t&&(t=P(t*I),e[2]+=r*t,e[3]+=i*t),n&&(n=P(n*I),e[0]+=u*n,e[1]+=o*n),this.w=this.s=this.i=null}return this}},{key:"resetSelf",value:function(){var t=arguments.length>0&&void 0!==arguments[0]?arguments[0]:1,n=arguments.length>1&&void 0!==arguments[1]?arguments[1]:0,e=arguments.length>2&&void 0!==arguments[2]?arguments[2]:0,r=arguments.length>3&&void 0!==arguments[3]?arguments[3]:1,i=arguments.length>4&&void 0!==arguments[4]?arguments[4]:0,u=arguments.length>5&&void 0!==arguments[5]?arguments[5]:0,o=this.m;return o[0]=t,o[1]=n,o[2]=e,o[3]=r,o[4]=i,o[5]=u,this.w=this.s=this.i=null,this}},{key:"recomposeSelf",value:function(){var t=arguments.length>0&&void 0!==arguments[0]?arguments[0]:null,n=arguments.length>1&&void 0!==arguments[1]?arguments[1]:null,e=arguments.length>2&&void 0!==arguments[2]?arguments[2]:null,r=arguments.length>3&&void 0!==arguments[3]?arguments[3]:null,i=arguments.length>4&&void 0!==arguments[4]?arguments[4]:null;return this.isIdentity||this.resetSelf(),t&&(t.x||t.y)&&this.translateSelf(t.x,t.y),n&&this.rotateSelf(n),e&&(e.x&&this.skewSelf(e.x,0),e.y&&this.skewSelf(0,e.y)),!r||1===r.x&&1===r.y||this.scaleSelf(r.x,r.y),i&&(i.x||i.y)&&this.translateSelf(i.x,i.y),this}},{key:"decompose",value:function(){var t=arguments.length>0&&void 0!==arguments[0]?arguments[0]:0,n=arguments.length>1&&void 0!==arguments[1]?arguments[1]:0,e=this.m,r=e[0]*e[0]+e[1]*e[1],i=[[e[0],e[1]],[e[2],e[3]]],u=F(r);if(0===u)return{origin:{x:d(e[4]),y:d(e[5])},translate:{x:d(t),y:d(n)},scale:{x:0,y:0},skew:{x:0,y:0},rotate:0};i[0][0]/=u,i[0][1]/=u;var o=e[0]*e[3]-e[1]*e[2]<0;o&&(u=-u);var a=i[0][0]*i[1][0]+i[0][1]*i[1][1];i[1][0]-=i[0][0]*a,i[1][1]-=i[0][1]*a;var l=F(i[1][0]*i[1][0]+i[1][1]*i[1][1]);if(0===l)return{origin:{x:d(e[4]),y:d(e[5])},translate:{x:d(t),y:d(n)},scale:{x:d(u),y:0},skew:{x:0,y:0},rotate:0};i[1][0]/=l,i[1][1]/=l,a/=l;var s=0;return i[1][1]<0?(s=j(i[1][1])*R,i[0][1]<0&&(s=360-s)):s=M(i[0][1])*R,o&&(s=-s),a=E(a,F(i[0][0]*i[0][0]+i[0][1]*i[0][1]))*R,o&&(a=-a),{origin:{x:d(e[4]),y:d(e[5])},translate:{x:d(t),y:d(n)},scale:{x:d(u),y:d(l)},skew:{x:d(a),y:0},rotate:d(s)}}},{key:"clone",value:function(){var t=this.m;return new this.constructor(t[0],t[1],t[2],t[3],t[4],t[5])}},{key:"toString",value:function(){var t=arguments.length>0&&void 0!==arguments[0]?arguments[0]:" ";if(null===this.s){var n=this.m.map((function(t){return d(t)}));1===n[0]&&0===n[1]&&0===n[2]&&1===n[3]?this.s="translate("+n[4]+t+n[5]+")":this.s="matrix("+n.join(t)+")"}return this.s}}],[{key:"create",value:function(t){return t?Array.isArray(t)?f(this,v(t)):t instanceof this?t.clone():(new this).recomposeSelf(t.origin,t.rotate,t.skew,t.scale,t.translate):new this}}]),t}();function T(t,n,e){return t>=.5?e:n}function q(t,n,e){return 0===t||n===e?n:t*(e-n)+n}function B(t,n,e){var r=q(t,n,e);return r<=0?0:r}function L(t,n,e){var r=q(t,n,e);return r<=0?0:r>=1?1:r}function C(t,n,e){return 0===t?n:1===t?e:{x:q(t,n.x,e.x),y:q(t,n.y,e.y)}}function D(t,n,e){var r=function(t,n,e){return Math.round(q(t,n,e))}(t,n,e);return r<=0?0:r>=255?255:r}function z(t,n,e){return 0===t?n:1===t?e:{r:D(t,n.r,e.r),g:D(t,n.g,e.g),b:D(t,n.b,e.b),a:q(t,null==n.a?1:n.a,null==e.a?1:e.a)}}function V(t,n){for(var e=[],r=0;r<t;r++)e.push(n);return e}function G(t,n){if(--n<=0)return t;var e=(t=Object.assign([],t)).length;do{for(var r=0;r<e;r++)t.push(t[r])}while(--n>0);return t}var Y,$=function(){function t(n){r(this,t),this.list=n,this.length=n.length}return u(t,[{key:"setAttribute",value:function(t,n){for(var e=this.list,r=0;r<this.length;r++)e[r].setAttribute(t,n)}},{key:"removeAttribute",value:function(t){for(var n=this.list,e=0;e<this.length;e++)n[e].removeAttribute(t)}},{key:"style",value:function(t,n){for(var e=this.list,r=0;r<this.length;r++)e[r].style[t]=n}}]),t}(),U=/-./g,Q=function(t,n){return n.toUpperCase()};function H(t){return"function"==typeof t?t:T}function J(t){return t?"function"==typeof t?t:Array.isArray(t)?function(t){var n=arguments.length>1&&void 0!==arguments[1]?arguments[1]:b;if(!Array.isArray(t))return n;switch(t.length){case 1:return _(t[0])||n;case 2:return _(t[0],t[1])||n;case 4:return x(t[0],t[1],t[2],t[3])||n}return n}(t,null):function(t,n){var e=arguments.length>2&&void 0!==arguments[2]?arguments[2]:b;switch(t){case"linear":return b;case"steps":return _(n.steps||1,n.jump||0)||e;case"bezier":case"cubic-bezier":return x(n.x1||0,n.y1||0,n.x2||0,n.y2||0)||e}return e}(t.type,t.value,null):null}function Z(t,n,e){var r=arguments.length>3&&void 0!==arguments[3]&&arguments[3],i=n.length-1;if(t<=n[0].t)return r?[0,0,n[0].v]:n[0].v;if(t>=n[i].t)return r?[i,1,n[i].v]:n[i].v;var u,o=n[0],a=null;for(u=1;u<=i;u++){if(!(t>n[u].t)){a=n[u];break}o=n[u]}return null==a?r?[i,1,n[i].v]:n[i].v:o.t===a.t?r?[u,1,a.v]:a.v:(t=(t-o.t)/(a.t-o.t),o.e&&(t=o.e(t)),r?[u,t,e(t,o.v,a.v)]:e(t,o.v,a.v))}function K(t,n){var e=arguments.length>2&&void 0!==arguments[2]?arguments[2]:null;return t&&t.length?"function"!=typeof n?null:("function"!=typeof e&&(e=null),function(r){var i=Z(r,t,n);return null!=i&&e&&(i=e(i)),i}):null}function W(t,n){return t.t-n.t}function X(t,n,r,i,u){var o,a="@"===r[0],l="#"===r[0],s=Y[r],f=T;switch(a?(o=r.substr(1),r=o.replace(U,Q)):l&&(r=r.substr(1)),e(s)){case"function":if(f=s(i,u,Z,J,r,a,n,t),l)return f;break;case"string":f=K(i,H(s));break;case"object":if((f=K(i,H(s.i),s.f))&&"function"==typeof s.u)return s.u(n,f,r,a,t)}return f?function(t,n,e){if(arguments.length>3&&void 0!==arguments[3]&&arguments[3])return t instanceof $?function(r){return t.style(n,e(r))}:function(r){return t.style[n]=e(r)};if(Array.isArray(n)){var r=n.length;return function(i){var u=e(i);if(null==u)for(var o=0;o<r;o++)t[o].removeAttribute(n);else for(var a=0;a<r;a++)t[a].setAttribute(n,u)}}return function(r){var i=e(r);null==i?t.removeAttribute(n):t.setAttribute(n,i)}}(n,r,f,a):null}function tt(t,n,r,i){if(!i||"object"!==e(i))return null;var u=null,o=null;return Array.isArray(i)?o=function(t){if(!t||!t.length)return null;for(var n=0;n<t.length;n++)t[n].e&&(t[n].e=J(t[n].e));return t.sort(W)}(i):(o=i.keys,u=i.data||null),o?X(t,n,r,o,u):null}function nt(t,n,e){if(!e)return null;var r=[];for(var i in e)if(e.hasOwnProperty(i)){var u=tt(t,n,i,e[i]);u&&r.push(u)}return r.length?r:null}function et(t,n){if(!n.settings.duration||n.settings.duration<0)return null;var e,r,i,u,o,a=function(t,n){if(!n)return null;var e=[];if(Array.isArray(n))for(var r=n.length,i=0;i<r;i++){var u=n[i];if(2===u.length){var o=null;if("string"==typeof u[0])o=t.getElementById(u[0]);else if(Array.isArray(u[0])){o=[];for(var a=0;a<u[0].length;a++)if("string"==typeof u[0][a]){var l=t.getElementById(u[0][a]);l&&o.push(l)}o=o.length?1===o.length?o[0]:new $(o):null}if(o){var s=nt(t,o,u[1]);s&&(e=e.concat(s))}}}else for(var f in n)if(n.hasOwnProperty(f)){var c=t.getElementById(f);if(c){var h=nt(t,c,n[f]);h&&(e=e.concat(h))}}return e.length?e:null}(t,n.elements);return a?(e=a,r=n.settings,i=r.duration,u=e.length,o=null,function(t,n){var a=r.iterations||1/0,l=(r.alternate&&a%2==0)^r.direction>0?i:0,s=t%i,f=1+(t-s)/i;n*=r.direction,r.alternate&&f%2==0&&(n=-n);var c=!1;if(f>a)s=l,c=!0,-1===r.fill&&(s=r.direction>0?0:i);else if(n<0&&(s=i-s),s===o)return!1;o=s;for(var h=0;h<u;h++)e[h](s);return c}):null}function rt(t,n){if(Y=n,!t||!t.root||!Array.isArray(t.animations))return null;var e=function(t){for(var n=document.getElementsByTagName("svg"),e=0;e<n.length;e++)if(n[e].id===t.root&&!n[e].svgatorAnimation)return n[e].svgatorAnimation=!0,n[e];return null}(t);if(!e)return null;var r=t.animations.map((function(t){return et(e,t)})).filter((function(t){return!!t}));return r.length?{svg:e,animations:r,animationSettings:t.animationSettings,options:t.options||void 0}:null}function it(t){return+("0x"+(t.replace(/[^0-9a-fA-F]+/g,"")||27))}function ut(t,n,e){return!t||!e||n>t.length?t:t.substring(0,n)+ut(t.substring(n+1),e,e)}function ot(t){var n=arguments.length>1&&void 0!==arguments[1]?arguments[1]:27;return!t||t%n?t%n:ot(t/n,n)}function at(t,n,e){if(t&&t.length){var r=it(e),i=it(n),u=ot(r)+5,o=ut(t,ot(r,5),u);return o=o.replace(/\x7c$/g,"==").replace(/\x2f$/g,"="),o=function(t,n,e){var r=+("0x"+t.substring(0,4));t=t.substring(4);for(var i=n%r+e%27,u=[],o=0;o<t.length;o+=2)if("|"!==t[o]){var a=+("0x"+t[o]+t[o+1])-i;u.push(a)}else{var l=+("0x"+t.substring(o+1,o+1+4))-i;o+=3,u.push(l)}return String.fromCharCode.apply(String,u)}(o=(o=atob(o)).replace(/[\x41-\x5A]/g,""),i,r),o=JSON.parse(o)}}var lt=[{key:"alternate",def:!1},{key:"fill",def:1},{key:"iterations",def:0},{key:"direction",def:1},{key:"speed",def:1},{key:"fps",def:100}],st=function(){function t(n,e){var i=this,u=arguments.length>2&&void 0!==arguments[2]?arguments[2]:null;r(this,t),this._id=0,this._running=!1,this._rollingBack=!1,this._animations=n,this._settings=e,(!u||u<"2022-05-02")&&delete this._settings.speed,lt.forEach((function(t){i._settings[t.key]=i._settings[t.key]||t.def})),this.duration=e.duration,this.offset=e.offset||0,this.rollbackStartOffset=0}return u(t,[{key:"alternate",get:function(){return this._settings.alternate}},{key:"fill",get:function(){return this._settings.fill}},{key:"iterations",get:function(){return this._settings.iterations}},{key:"direction",get:function(){return this._settings.direction}},{key:"speed",get:function(){return this._settings.speed}},{key:"fps",get:function(){return this._settings.fps}},{key:"maxFiniteDuration",get:function(){return this.iterations>0?this.iterations*this.duration:this.duration}},{key:"_apply",value:function(t){for(var n=arguments.length>1&&void 0!==arguments[1]?arguments[1]:{},e=this._animations,r=e.length,i=0,u=0;u<r;u++)n[u]?i++:(n[u]=e[u](t,1),n[u]&&i++);return i}},{key:"_rollback",value:function(t){var n=this,e=1/0,r=null;this.rollbackStartOffset=t,this._rollingBack=!0,this._running=!0;this._id=window.requestAnimationFrame((function i(u){if(n._rollingBack){null==r&&(r=u);var o=Math.round(t-(u-r)*n.speed);if(o>n.duration&&e!==1/0){var a=!!n.alternate&&o/n.duration%2>1,l=o%n.duration;o=(l+=a?n.duration:0)||n.duration}var s=(n.fps?1e3/n.fps:0)*n.speed,f=Math.max(0,o);f<e-s&&(n.offset=f,e=f,n._apply(f));var c=n.iterations>0&&-1===n.fill&&o>=n.maxFiniteDuration;(o<=0||n.offset<o||c)&&n.stop(),n._id=window.requestAnimationFrame(i)}}))}},{key:"_start",value:function(){var t=this,n=arguments.length>0&&void 0!==arguments[0]?arguments[0]:0,e=-1/0,r=null,i={};this._running=!0;var u=function u(o){null==r&&(r=o);var a=Math.round((o-r)*t.speed+n),l=(t.fps?1e3/t.fps:0)*t.speed;if(a>e+l&&!t._rollingBack&&(t.offset=a,e=a,t._apply(a,i)===t._animations.length))return void t.pause(!0);t._id=window.requestAnimationFrame(u)};this._id=window.requestAnimationFrame(u)}},{key:"_pause",value:function(){this._id&&window.cancelAnimationFrame(this._id),this._running=!1}},{key:"play",value:function(){if(!this._running)return this._rollingBack?this._rollback(this.offset):this._start(this.offset)}},{key:"stop",value:function(){this._pause(),this.offset=0,this.rollbackStartOffset=0,this._rollingBack=!1,this._apply(0)}},{key:"reachedToEnd",value:function(){return this.iterations>0&&this.offset>=this.iterations*this.duration}},{key:"restart",value:function(){var t=arguments.length>0&&void 0!==arguments[0]&&arguments[0];this.stop(t),this.play(t)}},{key:"pause",value:function(){this._pause()}},{key:"reverse",value:function(){this.direction=-this.direction}}],[{key:"build",value:function(t,n){delete t.animationSettings,t.options=at(t.options,t.root,"5c7f360c"),t.animations.map((function(n){n.settings=at(n.s,t.root,"5c7f360c"),delete n.s,t.animationSettings||(t.animationSettings=n.settings)}));var e=t.version;if(!(t=rt(t,n)))return null;var r=t.options||{},i=new this(t.animations,t.animationSettings,e);return{el:t.svg,options:r,player:i}}},{key:"push",value:function(t){return this.build(t)}},{key:"init",value:function(){var t=this,n=window.__SVGATOR_PLAYER__&&window.__SVGATOR_PLAYER__["5c7f360c"];Array.isArray(n)&&n.splice(0).forEach((function(n){return t.build(n)}))}}]),t}();function ft(t){return d(t)+""}function ct(t){var n=arguments.length>1&&void 0!==arguments[1]?arguments[1]:" ";return t&&t.length?t.map(ft).join(n):""}function ht(t){if(!t)return"transparent";if(null==t.a||t.a>=1){var n=function(t){return 1===(t=parseInt(t).toString(16)).length?"0"+t:t},e=function(t){return t.charAt(0)===t.charAt(1)},r=n(t.r),i=n(t.g),u=n(t.b);return e(r)&&e(i)&&e(u)&&(r=r.charAt(0),i=i.charAt(0),u=u.charAt(0)),"#"+r+i+u}return"rgba("+t.r+","+t.g+","+t.b+","+t.a+")"}function vt(t){return t?"url(#"+t+")":"none"}!function(){for(var t=0,n=["ms","moz","webkit","o"],e=0;e<n.length&&!window.requestAnimationFrame;++e)window.requestAnimationFrame=window[n[e]+"RequestAnimationFrame"],window.cancelAnimationFrame=window[n[e]+"CancelAnimationFrame"]||window[n[e]+"CancelRequestAnimationFrame"];window.requestAnimationFrame||(window.requestAnimationFrame=function(n){var e=Date.now(),r=Math.max(0,16-(e-t)),i=window.setTimeout((function(){n(e+r)}),r);return t=e+r,i},window.cancelAnimationFrame=window.clearTimeout)}();var yt={f:null,i:function(t,n,e){return 0===t?n:1===t?e:{x:B(t,n.x,e.x),y:B(t,n.y,e.y)}},u:function(t,n){return function(e){var r=n(e);t.setAttribute("rx",ft(r.x)),t.setAttribute("ry",ft(r.y))}}},gt={f:null,i:function(t,n,e){return 0===t?n:1===t?e:{width:B(t,n.width,e.width),height:B(t,n.height,e.height)}},u:function(t,n){return function(e){var r=n(e);t.setAttribute("width",ft(r.width)),t.setAttribute("height",ft(r.height))}}};Object.freeze({M:2,L:2,Z:0,H:1,V:1,C:6,Q:4,T:2,S:4,A:7});var dt={},pt=null;function mt(t){var n=function(){if(pt)return pt;if("object"!==("undefined"==typeof document?"undefined":e(document))||!document.createElementNS)return{};var t=document.createElementNS("http://www.w3.org/2000/svg","svg");return t&&t.style?(t.style.position="absolute",t.style.opacity="0.01",t.style.zIndex="-9999",t.style.left="-9999px",t.style.width="1px",t.style.height="1px",pt={svg:t}):{}}().svg;if(!n)return function(t){return null};var r=document.createElementNS(n.namespaceURI,"path");r.setAttributeNS(null,"d",t),r.setAttributeNS(null,"fill","none"),r.setAttributeNS(null,"stroke","none"),n.appendChild(r);var i=r.getTotalLength();return function(t){var n=r.getPointAtLength(i*t);return{x:n.x,y:n.y}}}function bt(t){return dt[t]?dt[t]:dt[t]=mt(t)}function wt(t,n,e,r){if(!t||!r)return!1;var i=["M",t.x,t.y];if(n&&e&&(i.push("C"),i.push(n.x),i.push(n.y),i.push(e.x),i.push(e.y)),n?!e:e){var u=n||e;i.push("Q"),i.push(u.x),i.push(u.y)}return n||e||i.push("L"),i.push(r.x),i.push(r.y),i.join(" ")}function xt(t,n,e,r){var i=arguments.length>4&&void 0!==arguments[4]?arguments[4]:1,u=wt(t,n,e,r),o=bt(u);try{return o(i)}catch(t){return null}}function At(t,n,e){return t+(n-t)*e}function kt(t,n,e){var r=arguments.length>3&&void 0!==arguments[3]&&arguments[3],i={x:At(t.x,n.x,e),y:At(t.y,n.y,e)};return r&&(i.a=_t(t,n)),i}function _t(t,n){return Math.atan2(n.y-t.y,n.x-t.x)}function St(t,n,e,r){var i=1-r;return i*i*t+2*i*r*n+r*r*e}function Ot(t,n,e,r){return 2*(1-r)*(n-t)+2*r*(e-n)}function jt(t,n,e,r){var i=arguments.length>4&&void 0!==arguments[4]&&arguments[4],u=xt(t,n,null,e,r);return u||(u={x:St(t.x,n.x,e.x,r),y:St(t.y,n.y,e.y,r)}),i&&(u.a=Mt(t,n,e,r)),u}function Mt(t,n,e,r){return Math.atan2(Ot(t.y,n.y,e.y,r),Ot(t.x,n.x,e.x,r))}function Pt(t,n,e,r,i){var u=i*i;return i*u*(r-t+3*(n-e))+3*u*(t+e-2*n)+3*i*(n-t)+t}function Et(t,n,e,r,i){var u=1-i;return 3*(u*u*(n-t)+2*u*i*(e-n)+i*i*(r-e))}function It(t,n,e,r,i){var u=arguments.length>5&&void 0!==arguments[5]&&arguments[5],o=xt(t,n,e,r,i);return o||(o={x:Pt(t.x,n.x,e.x,r.x,i),y:Pt(t.y,n.y,e.y,r.y,i)}),u&&(o.a=Rt(t,n,e,r,i)),o}function Rt(t,n,e,r,i){return Math.atan2(Et(t.y,n.y,e.y,r.y,i),Et(t.x,n.x,e.x,r.x,i))}function Ft(t,n,e){var r=arguments.length>3&&void 0!==arguments[3]&&arguments[3];if(Tt(n)){if(qt(e))return jt(n,e.start,e,t,r)}else if(Tt(e)){if(Bt(n))return jt(n,n.end,e,t,r)}else{if(Bt(n))return qt(e)?It(n,n.end,e.start,e,t,r):jt(n,n.end,e,t,r);if(qt(e))return jt(n,e.start,e,t,r)}return kt(n,e,t,r)}function Nt(t,n,e){var r=Ft(t,n,e,!0);return r.a=function(t){return arguments.length>1&&void 0!==arguments[1]&&arguments[1]?t+Math.PI:t}(r.a)/m,r}function Tt(t){return!t.type||"corner"===t.type}function qt(t){return null!=t.start&&!Tt(t)}function Bt(t){return null!=t.end&&!Tt(t)}var Lt=new N;var Ct={f:ft,i:q},Dt={f:ft,i:L};function zt(t,n,e){return t.map((function(t){return function(t,n,e){var r=t.v;if(!r||"g"!==r.t||r.s||!r.v||!r.r)return t;var i=e.getElementById(r.r),u=i&&i.querySelectorAll("stop")||[];return r.s=r.v.map((function(t,n){var e=u[n]&&u[n].getAttribute("offset");return{c:t,o:e=d(parseInt(e)/100)}})),delete r.v,t}(t,0,e)}))}var Vt={gt:"gradientTransform",c:{x:"cx",y:"cy"},rd:"r",f:{x:"x1",y:"y1"},to:{x:"x2",y:"y2"}};function Gt(t,n,r,i,u,o,a,l){return zt(t,0,l),n=function(t,n,e){for(var r,i,u,o=t.length-1,a={},l=0;l<=o;l++)(r=t[l]).e&&(r.e=n(r.e)),r.v&&"g"===(i=r.v).t&&i.r&&(u=e.getElementById(i.r))&&(a[i.r]={e:u,s:u.querySelectorAll("stop")});return a}(t,i,l),function(i){var u=r(i,t,Yt);if(!u)return"none";if("c"===u.t)return ht(u.v);if("g"===u.t){if(!n[u.r])return vt(u.r);var o=n[u.r];return function(t,n){for(var e=t.s,r=e.length;r<n.length;r++){var i=e[e.length-1].cloneNode();i.id=Qt(i.id),t.e.appendChild(i),e=t.s=t.e.querySelectorAll("stop")}for(var u=0,o=e.length,a=n.length-1;u<o;u++)e[u].setAttribute("stop-color",ht(n[Math.min(u,a)].c)),e[u].setAttribute("offset",n[Math.min(u,a)].o)}(o,u.s),Object.keys(Vt).forEach((function(t){if(void 0!==u[t])if("object"!==e(Vt[t])){var n,r="gt"===t?(n=u[t],Array.isArray(n)?"matrix("+n.join(" ")+")":""):u[t],i=Vt[t];o.e.setAttribute(i,r)}else Object.keys(Vt[t]).forEach((function(n){if(void 0!==u[t][n]){var e=u[t][n],r=Vt[t][n];o.e.setAttribute(r,e)}}))})),vt(u.r)}return"none"}}function Yt(t,e,r){if(0===t)return e;if(1===t)return r;if(e&&r){var i=e.t;if(i===r.t)switch(e.t){case"c":return{t:i,v:z(t,e.v,r.v)};case"g":if(e.r===r.r){var u={t:i,s:$t(t,e.s,r.s),r:e.r};return e.gt&&r.gt&&(u.gt=function(t,n,e){var r=n.length;if(r!==e.length)return T(t,n,e);for(var i=new Array(r),u=0;u<r;u++)i[u]=q(t,n[u],e[u]);return i}(t,e.gt,r.gt)),e.c?(u.c=C(t,e.c,r.c),u.rd=B(t,e.rd,r.rd)):e.f&&(u.f=C(t,e.f,r.f),u.to=C(t,e.to,r.to)),u}}if("c"===e.t&&"g"===r.t||"c"===r.t&&"g"===e.t){var o="c"===e.t?e:r,a="g"===e.t?n({},e):n({},r),l=a.s.map((function(t){return{c:o.v,o:t.o}}));return a.s="c"===e.t?$t(t,l,a.s):$t(t,a.s,l),a}}return T(t,e,r)}function $t(t,n,e){if(n.length===e.length)return n.map((function(n,r){return Ut(t,n,e[r])}));for(var r=Math.max(n.length,e.length),i=[],u=0;u<r;u++){var o=Ut(t,n[Math.min(u,n.length-1)],e[Math.min(u,e.length-1)]);i.push(o)}return i}function Ut(t,n,e){return{o:L(t,n.o,e.o||0),c:z(t,n.c,e.c||{})}}function Qt(t){return t.replace(/-fill-([0-9]+)$/,(function(t,n){return"-fill-"+(+n+1)}))}var Ht={fill:Gt,"fill-opacity":Dt,stroke:Gt,"stroke-opacity":Dt,"stroke-width":Ct,"stroke-dashoffset":{f:ft,i:q},"stroke-dasharray":{f:function(t){var n=arguments.length>1&&void 0!==arguments[1]?arguments[1]:" ";return t&&t.length>0&&(t=t.map((function(t){return d(t,4)}))),ct(t,n)},i:function(t,n,e){var r,i,u,o=n.length,a=e.length;if(o!==a)if(0===o)n=V(o=a,0);else if(0===a)a=o,e=V(o,0);else{var l=(u=(r=o)*(i=a)/function(t,n){for(var e;n;)e=n,n=t%n,t=e;return t||1}(r,i))<0?-u:u;n=G(n,Math.floor(l/o)),e=G(e,Math.floor(l/a)),o=a=l}for(var s=[],f=0;f<o;f++)s.push(d(B(t,n[f],e[f])));return s}},opacity:Dt,transform:function(t,n,r,i){if(!(t=function(t,n){if(!t||"object"!==e(t))return null;var r=!1;for(var i in t)t.hasOwnProperty(i)&&(t[i]&&t[i].length?(t[i].forEach((function(t){t.e&&(t.e=n(t.e))})),r=!0):delete t[i]);return r?t:null}(t,i)))return null;var u=function(e,i,u){var o=arguments.length>3&&void 0!==arguments[3]?arguments[3]:null;return t[e]?r(i,t[e],u):n&&n[e]?n[e]:o};return n&&n.a&&t.o?function(n){var e=r(n,t.o,Nt);return Lt.recomposeSelf(e,u("r",n,q,0)+e.a,u("k",n,C),u("s",n,C),u("t",n,C)).toString()}:function(t){return Lt.recomposeSelf(u("o",t,Ft,null),u("r",t,q,0),u("k",t,C),u("s",t,C),u("t",t,C)).toString()}},r:Ct,"#size":gt,"#radius":yt,_:function(t,n){if(Array.isArray(t))for(var e=0;e<t.length;e++)this[t[e]]=n;else this[t]=n}},Jt=function(t){!function(t,n){if("function"!=typeof n&&null!==n)throw new TypeError("Super expression must either be null or a function");t.prototype=Object.create(n&&n.prototype,{constructor:{value:t,writable:!0,configurable:!0}}),n&&l(t,n)}(o,t);var n,e,i=(n=o,e=s(),function(){var t,r=a(n);if(e){var i=a(this).constructor;t=Reflect.construct(r,arguments,i)}else t=r.apply(this,arguments);return c(this,t)});function o(){return r(this,o),i.apply(this,arguments)}return u(o,null,[{key:"build",value:function(t){var n=h(a(o),"build",this).call(this,t,Ht);if(!n)return null;n.el,n.options,function(t,n,e){t.play()}(n.player)}}]),o}(st);return Jt.init(),Jt}));
(function(s,i,o,w,a,b){w[o]=w[o]||{};w[o][s]=w[o][s]||[];w[o][s].push(i);})('5c7f360c',{"root":"eEj7MqHgvIr1","version":"2022-05-04","animations":[{"elements":{"eEj7MqHgvIr5":{"transform":{"data":{"o":{"x":157.873061,"y":297.628547,"type":"corner"},"t":{"x":-157.87306,"y":-297.628547}},"keys":{"s":[{"t":0,"v":{"x":0,"y":1}},{"t":200,"v":{"x":1,"y":1}}]}}},"eEj7MqHgvIr9":{"opacity":[{"t":0,"v":1},{"t":170,"v":0}]},"eEj7MqHgvIr11":{"transform":{"data":{"o":{"x":324.765809,"y":289.589882,"type":"corner"},"t":{"x":-324.765808,"y":-289.589882}},"keys":{"s":[{"t":0,"v":{"x":0,"y":1}},{"t":200,"v":{"x":1,"y":1}}]}}},"eEj7MqHgvIr32":{"transform":{"data":{"o":{"x":375.469193,"y":180.558601,"type":"corner"},"t":{"x":-375.469193,"y":-180.558601}},"keys":{"s":[{"t":240,"v":{"x":1,"y":0}},{"t":340,"v":{"x":1,"y":1}},{"t":540,"v":{"x":1,"y":0}},{"t":640,"v":{"x":1,"y":1}}]}}},"eEj7MqHgvIr33":{"transform":{"data":{"o":{"x":426.088211,"y":180.558594,"type":"corner"},"t":{"x":-426.088211,"y":-180.558594}},"keys":{"s":[{"t":240,"v":{"x":1,"y":0}},{"t":340,"v":{"x":1,"y":1}},{"t":540,"v":{"x":1,"y":0}},{"t":640,"v":{"x":1,"y":1}}]}}},"eEj7MqHgvIr36":{"transform":{"data":{"o":{"x":121.777588,"y":36.687582,"type":"corner"},"t":{"x":-279.50782,"y":-59.385875}},"keys":{"s":[{"t":400,"v":{"x":0.205184,"y":0.205184}},{"t":900,"v":{"x":0.376262,"y":0.376262}}]}},"opacity":[{"t":0,"v":0},{"t":300,"v":0},{"t":400,"v":1}]}},"s":"MCDA1M2FiNTI5NGE1YTOI5MWE0OTlCOWY5ZTUAyNmE2MTY0NjBXNjA1VYzUyOTQ5OWEyOTU5ME2E0OTlSOWY5ZTUyNmMFQNjE1YzUyOTlhNDkG1YTI5MWE0OTk5ZjllYYTM1MjZhNjBDNWM1MKjk2OTk5Y0c5YzUyWTYZhNjE1YzUyOTE5Y2EE0OTVSYTI5ZTkxYTQ5ONTUyNmE5NjkxOWNhMNzk1NWM1MmEzYTA5NVEA5NTk0NTI2YVE2MWFMk"}],"options":"MODAxMDg4MmY4MDgxNmUU3ZjgxMmY0N1MyZjcF5N2M2ZTcxMmY4YQ|"},'__SVGATOR_PLAYER__',window)]]></script></svg>