<svg cache-id="b8b1d9386c844b43a5b1651aee824263" id="eTErqGDkY0I1" xmlns="http://www.w3.org/2000/svg" xmlns:xlink="http://www.w3.org/1999/xlink" viewBox="0 0 265 191" shape-rendering="geometricPrecision" text-rendering="geometricPrecision" width="265" height="191"><g transform="translate(0-3)" clip-path="url(#eTErqGDkY0I51)"><g><g id="eTErqGDkY0I4" transform="matrix(.848121 0 0 0.848121 26.802015 16.27401)"><path d="M185.411,126.508c0,0,2.292,25.781,2.474,27.61.183,1.829,14.117,19.929,8.985,22.865-2.384,1.819-7.815-7.434-7.815-7.434s6.538,13.103,3.423,14.2c-3.116,1.096-7.151-11.061-7.151-11.061s4.585,13.987,2.201,14.719c-2.383.733-6.538-11.336-6.538-11.336s2.139,14.262-1.344,13.896c-3.483-.367-10.816-22.673-10.816-22.673s-3.86-1.473-6.424,4.194c-2.563,5.666-9.349.914-6.968-4.937c2.381-5.852,10.633-14.078,10.633-14.078l-2.18-26.048l21.52.083Z" fill="#fff"/><path d="M185.411,126.508l-.907.078c0,0,.573,6.447,1.167,13.122.3,3.336.602,6.729.844,9.406.12,1.338.224,2.494.305,3.377.081.884.135,1.481.159,1.72.014.128.043.254.086.375.078.223.173.44.284.649.224.439.536.977.922,1.611.675,1.11,1.563,2.508,2.527,4.059c1.44,2.323,3.035,4.988,4.256,7.475.573,1.137,1.069,2.311,1.488,3.513.323.879.509,1.803.549,2.738.013.35-.049.698-.182,1.022-.051.11-.119.213-.201.304-.084.091-.183.169-.291.231l-.055.031-.05.036c-.02.017-.043.03-.067.039-.029.004-.058.004-.086,0-.079-.003-.157-.017-.232-.041-.281-.105-.544-.251-.782-.434-.654-.512-1.251-1.094-1.781-1.733-.887-1.056-1.709-2.164-2.462-3.318-.328-.494-.597-.917-.782-1.219-.093-.15-.166-.26-.213-.351-.02-.029-.038-.059-.055-.09v-.024l-1.602.863v.023c.12.239,1.175,2.385,2.191,4.914.521,1.265,1.008,2.626,1.373,3.881.185.627.333,1.227.437,1.772.094.468.147.943.157,1.419.012.269-.027.538-.118.793-.016.04-.04.077-.07.109-.012.014-.029.024-.047.028-.033.013-.068.019-.104.018-.078-.002-.154-.021-.224-.054-.303-.151-.574-.359-.797-.613-.681-.772-1.265-1.623-1.738-2.536-.839-1.565-1.58-3.18-2.219-4.836-.281-.719-.521-1.338-.667-1.777-.078-.218-.138-.392-.177-.52l-.047-.132v-.034l-1.73.567.029.096c.156.48.865,2.71,1.532,5.269.333,1.278.656,2.64.893,3.898.225,1.074.354,2.166.386,3.263.013.336-.025.673-.112.998-.009.031-.022.062-.037.091v.02l.12.089-.089-.117-.031.028.12.089-.089-.117.172.226-.083-.26c-.032.01-.062.025-.089.044l.172.226-.083-.26.052.172v-.179h-.052l.052.171v-.075l.016-.104h-.016v.104l.016-.104c-.052-.018-.102-.043-.146-.075-.275-.21-.518-.46-.719-.741-.611-.841-1.144-1.735-1.594-2.671-.805-1.595-1.563-3.422-2.118-4.841-.276-.709-.503-1.317-.659-1.748l-.18-.502c-.018-.06-.034-.104-.044-.132l-.016-.044-1.795.41c-.001.016-.001.031,0,.047.034.234.193,1.354.344,2.858s.289,3.378.289,5.126c0,.738-.023,1.45-.083,2.095-.036.441-.097.88-.185,1.314-.05.256-.12.507-.208.751-.069.22-.182.425-.331.6-.025.026-.054.047-.086.063-.02.005-.04.005-.06,0h-.034v.034-.034.034-.034h-.018c-.143-.062-.273-.15-.383-.26-.514-.513-.959-1.089-1.326-1.715-1.059-1.772-1.994-3.614-2.8-5.513-1.428-3.23-2.811-6.876-3.835-9.708-.521-1.416-.932-2.629-1.227-3.489-.146-.429-.26-.78-.338-1.003-.04-.117-.071-.205-.089-.26l-.031-.088-.136-.413-.406-.154c-.469-.16-.963-.239-1.459-.231-.472.001-.942.065-1.396.192-.915.264-1.753.743-2.444,1.398-.964.943-1.73,2.069-2.253,3.31-.254.623-.665,1.17-1.193,1.588-.363.273-.806.422-1.261.423-.392-.005-.778-.103-1.125-.285-.627-.332-1.148-.834-1.503-1.448-.424-.723-.645-1.547-.641-2.385.005-.725.152-1.443.432-2.112.693-1.586,1.552-3.095,2.564-4.5c1.59-2.238,3.313-4.379,5.16-6.41.782-.871,1.456-1.591,1.938-2.095l.563-.582.151-.15.036-.037.013-.013.297-.299-2.133-25.479l20.527.081v-.909l-.906.078.906-.078v-.91l-22.517-.086l2.264,27.036.909-.076-.644-.644c0,0-2.084,2.079-4.475,4.903-1.193,1.408-2.464,3.006-3.595,4.633-1.091,1.512-2.018,3.135-2.764,4.843-.366.891-.555,1.844-.557,2.806-.013,1.534.53,3.02,1.529,4.186.45.524.999.956,1.615,1.271.603.31,1.27.475,1.948.48.846-.001,1.668-.274,2.345-.779.783-.603,1.396-1.398,1.779-2.307.782-1.752,1.672-2.69,2.449-3.207.334-.231.703-.407,1.094-.519.295-.083.6-.125.906-.125.213-.001.425.021.633.065l.157.039h.028l.138-.393-.148.39.138-.392-.149.39.326-.85-.867.283c0,0,1.839,5.597,4.123,11.256c1.052,2.689,2.253,5.318,3.6,7.873.515.981,1.118,1.914,1.8,2.788.272.34.583.646.928.912.161.125.336.232.521.319.196.092.405.15.62.174.072.005.144.005.216,0c.323.002.642-.076.927-.228.235-.127.445-.295.62-.496.288-.345.509-.74.652-1.165.239-.706.395-1.437.466-2.179.085-.855.125-1.714.12-2.573c0-1.964-.164-4.027-.329-5.61-.164-1.582-.33-2.676-.33-2.684l-.902.136-.862.293c0,.016.987,2.874,2.287,5.763.608,1.397,1.321,2.746,2.134,4.035.334.531.731,1.019,1.182,1.455.208.196.441.364.693.499.273.147.578.226.888.232.164,0,.326-.025.482-.073.292-.092.551-.266.745-.502.129-.156.234-.332.31-.519.108-.269.18-.55.217-.837.041-.305.06-.612.057-.92-.036-1.3-.191-2.594-.464-3.866-.414-2.128-1.029-4.417-1.542-6.202s-.919-3.022-.922-3.03l-1.732.569c.657,1.926,1.413,3.817,2.266,5.664.628,1.397,1.387,2.731,2.269,3.984.382.536.835,1.02,1.347,1.437.239.191.501.35.781.475.295.126.612.192.933.195.242,0,.483-.041.711-.122.271-.094.518-.248.721-.45.283-.289.486-.648.587-1.039.1-.379.149-.77.143-1.162-.009-.611-.076-1.22-.201-1.818-.254-1.22-.593-2.421-1.016-3.594-.91-2.525-1.959-4.998-3.144-7.407l-.815.405-.782.457c.811,1.354,1.692,2.664,2.639,3.926.729.996,1.545,1.924,2.438,2.775.403.378.847.71,1.324.99.227.131.467.237.716.317.252.084.516.128.782.13.457.003.903-.147,1.266-.426l-.555-.722.45.779c.275-.152.523-.346.738-.574.307-.342.535-.748.666-1.188.132-.441.196-.9.191-1.361-.024-.933-.181-1.858-.467-2.746-.615-1.904-1.407-3.747-2.365-5.504-1.498-2.871-3.332-5.804-4.798-8.143-.732-1.169-1.373-2.19-1.824-2.964-.226-.388-.406-.712-.521-.951-.057-.117-.099-.213-.122-.276l-.021-.057-.297.073.305-.031c.001-.014.001-.028,0-.042l-.297.073.305-.031c-.024-.221-.079-.824-.159-1.705-.282-3.076-.86-9.551-1.368-15.257-.26-2.858-.492-5.511-.664-7.457-.089-.975-.159-1.77-.209-2.32-.049-.551-.075-.861-.075-.861l-.073-.826h-.831l-.018.904Z" fill="#231f20"/><path d="M175.65,157.976c.134.368.247.743.339,1.123.196.77.302,1.561.315,2.357.005.459-.048.918-.159,1.364-.076.304-.195.597-.354.867-.241.41-.591.745-1.011.967-.619.314-1.301.484-1.996.496-3.459.19-5.389.671-6.533,1.164-.44.176-.846.427-1.201.741-.184.163-.329.366-.424.592l1.711.632-.549-.203.489.327c.024-.039.044-.081.06-.124l-.549-.203.489.327-.14-.093.135.101-.141-.093.136.101c.075-.081.163-.15.26-.203.579-.317,1.202-.544,1.85-.673c1.481-.321,2.987-.512,4.501-.569.87-.028,1.726-.228,2.519-.587.5-.234.954-.556,1.339-.951.516-.544.895-1.203,1.105-1.923.194-.665.289-1.356.281-2.05-.013-.964-.143-1.924-.386-2.858-.105-.431-.236-.856-.39-1.273l-1.696.644Z" fill="#231f20"/></g><g id="eTErqGDkY0I8" transform="matrix(.91896 0 0 0.91896 7.499357 3.427078)"><path d="M100.802,116.817c0,0,1.042,21.698,1.042,23.283s9.779,14.14,9.044,17.066c-.735,2.925-6.111,1.949-7.815-1.463s-5.0092-3.292-5.0092-3.292.4897,23.644-2.4435,24.746-4.0637-15.361-4.0637-15.361s2.1074,16.458-1.4353,16.824c-3.0296.312-3.4698-7.834-3.535-10.209c0-.127.4793-5.607-.2214-.039-.2605,2.079-3.1885,8.175-5.8221,8.175-3.1259,0-.0156-9.095,1.9381-14.081c0,0-6.1711,10.058-8.4922,8.962-2.321-1.097,3.1677-15.242,3.1677-15.242s-7.0829,5.124-10.1333,4.389c-3.0504-.736-3.0556-3.29-2.3236-5.241s12.9544-13.166,12.9544-13.166l2.9957-34.037l20.1524,8.686Z" fill="#fff"/><path d="M100.802,116.817l-.9096.044c0,0,.0157.338.0443.933.1013,2.078.3513,7.327.5753,12.212.112,2.445.219,4.801.297,6.633.039.917.073,1.702.094,2.3c0,.298.021.548.026.745.005.198,0,.341,0,.408.003.134.021.268.055.398.066.224.153.442.26.649.246.517.518,1.02.816,1.507.602,1.003,1.404,2.24,2.274,3.581c1.302,2.011,2.753,4.256,3.866,6.236.498.866.947,1.76,1.346,2.676.143.332.264.673.363,1.021.065.216.102.44.112.665c0,.047-.004.093-.013.138-.046.2-.142.385-.279.538-.136.153-.309.269-.503.338-.309.116-.638.172-.969.166-.865-.023-1.709-.269-2.451-.712-.819-.461-1.486-1.148-1.92-1.98-.396-.803-.939-1.525-1.602-2.128-.747-.669-1.639-1.159-2.6052-1.432-.5082-.146-1.0339-.225-1.5629-.233h-.0938l-.8909.039.0182.888c0,0,0,.091,0,.26c0,.52.0261,1.762.0261,3.432c0,3.337-.0704,8.375-.4116,12.649-.121,1.845-.3638,3.68-.7268,5.493-.1159.562-.2905,1.111-.521,1.637-.0575.132-.1309.257-.2188.371-.0149.018-.0315.035-.0495.05l.0938.14-.0573-.159-.0365.019.0938.14-.0573-.159.0234.06-.013-.062.0234.06-.013-.063.0313.159v-.161h-.0313l.0313.158.0547-.156h-.0547v.164l.0547-.156-.0209.057.0261-.054-.0209.057.0261-.055c-.0734-.052-.1369-.117-.1876-.192-.2524-.369-.454-.77-.5991-1.193-.4183-1.208-.7388-2.448-.9586-3.708-.4116-2.141-.7086-4.518-.9013-6.352-.0964-.918-.1668-1.702-.2137-2.253-.0234-.278-.039-.496-.052-.644c0-.076-.0001-.133-.0131-.172s0-.055,0-.055l-.9091.06-.9039.117c-.0011.017-.0011.035,0,.052.3703,3.048.5738,6.115.6095,9.185c0,.928-.0286,1.835-.0911,2.669-.0495.626-.1173,1.208-.211,1.725-.0862.612-.2682,1.208-.5393,1.764-.0643.13-.1527.246-.2605.343-.0377.035-.0849.057-.1354.065h-.0756c-.0682,0-.136-.012-.2005-.034-.1701-.074-.3188-.189-.4325-.335-.177-.215-.3266-.452-.4454-.704-.2887-.624-.5087-1.278-.6565-1.949-.2653-1.167-.4499-2.351-.5522-3.544-.1068-1.141-.1511-2.154-.1667-2.764l-.9118.023h.3022l.6096.028v-.028h-.6096l.6096.028c0,0,0-.051,0-.116.0156-.229.0547-.697.0859-1.159.0183-.229.0339-.46.0443-.66s.0208-.372.0208-.52c.0034-.057.0034-.114,0-.171c0-.021,0-.045,0-.073c0-.029,0-.047-.0156-.081-.0218-.091-.0578-.179-.1068-.259-.1094-.176-.2731-.311-.4663-.385-.1018-.037-.2094-.055-.3178-.055-.161-.001-.3194.041-.4584.123-.0798.046-.1525.104-.2163.171-.0554.063-.1034.132-.1432.205-.026.054-.0486.11-.0678.167-.0182.067-.0286.111-.039.163s-.0365.185-.0573.317c-.0626.39-.1537,1.058-.2918,2.144-.0402.272-.102.54-.1849.803-.6212,1.917-1.5907,3.704-2.8603,5.272-.3128.379-.6766.713-1.0811.992-.1427.096-.2967.175-.4584.234-.1128.041-.2316.063-.3517.065-.0501.004-.1003-.005-.1459-.026-.0216-.014-.0402-.033-.0547-.055-.0744-.117-.1249-.247-.1485-.384-.0519-.265-.0763-.534-.0729-.803.0225-.827.1236-1.65.3022-2.458.346-1.577.7809-3.133,1.3025-4.661.5209-1.601,1.1097-3.162,1.6124-4.451l-1.6255-.806-.0156.024c-.1537.26-1.5474,2.489-3.1885,4.632-.7566,1.014-1.5891,1.97-2.4903,2.859-.3252.318-.6812.603-1.0628.852-.1207.075-.248.138-.3804.19-.0611.022-.1251.036-.1901.041v.049l.0208-.046v.049l.0209-.047-.0834.177.1563-.12c-.0192-.024-.0443-.044-.0729-.057l-.0834.177.1563-.12c-.0356-.072-.0601-.149-.0729-.228-.0378-.208-.0553-.418-.0521-.629.01-.531.0596-1.061.1484-1.585.2138-1.234.4938-2.456.8388-3.661.5471-1.959,1.2218-3.975,1.7584-5.498.2605-.761.5027-1.398.6695-1.845.0833-.223.1484-.4.1953-.519.0209-.06.0391-.107.0495-.135l.0183-.047l1.1149-2.874-2.5008,1.819h-.013c-.1667.119-1.7089,1.216-3.5792,2.268-.9344.537-1.9039,1.01-2.9019,1.416-.4394.177-.8902.324-1.3494.439-.3572.095-.7245.148-1.0941.156-.1506.002-.301-.014-.448-.047-.3619-.08-.7091-.216-1.029-.402-.3352-.191-.6069-.476-.7815-.819-.1599-.345-.2383-.722-.2292-1.101.0149-.588.1321-1.168.3464-1.715.0566-.116.1246-.226.2032-.328.3337-.451.6911-.885,1.0707-1.299.8309-.93,1.9693-2.102,3.1988-3.328c1.847-1.84,3.9075-3.804,5.5095-5.309.7998-.75,1.4823-1.387,1.9668-1.837l.5653-.519.2005-.185.2605-.239l2.8837-33.136l18.9979,8.185.36-.834-.9096.044.9096-.044.362-.837-21.3167-9.19-3.1025,35.303.9065.078-.6174-.668c0,0-3.0608,2.809-6.2206,5.867-1.5786,1.531-3.1807,3.118-4.4467,4.464-.633.673-1.1826,1.281-1.6072,1.801-.2136.259-.396.498-.5471.719-.1492.206-.2733.428-.3699.663-.2906.752-.4466,1.548-.4611,2.354-.0022.431.0566.861.1746,1.276.1917.672.569,1.277,1.0888,1.746.62.531,1.3632.899,2.1622,1.07.2861.066.579.098.8726.096.5342-.008,1.0652-.082,1.5812-.22.9885-.269,1.9482-.634,2.8655-1.089c1.323-.647,2.606-1.373,3.8423-2.172c1.029-.658,1.7036-1.149,1.7141-1.157l-.5341-.735-.8518-.327c0,0-.943,2.429-1.886,5.365-.4741,1.468-.9456,3.064-1.3025,4.56-.1797.751-.3308,1.473-.4376,2.149-.1052.618-.1627,1.244-.1719,1.871-.011.454.0497.908.1797,1.343.0723.22.1796.427.3178.613.1568.208.3614.376.5966.489.2445.114.5115.173.7815.171.2825-.003.5621-.057.8257-.158.4938-.196.9528-.47,1.3598-.811.8422-.704,1.6142-1.487,2.3054-2.338c1.1384-1.357,2.2299-2.89,3.0426-4.09.8128-1.2,1.3442-2.079,1.3494-2.079l-.7815-.475-.8466-.335c-.6825,1.748-1.5083,3.991-2.1674,6.194-.3308,1.104-.6199,2.196-.8283,3.217-.2026.927-.316,1.872-.3387,2.821-.0022.358.0283.714.0912,1.066.0439.253.1173.499.2188.735.0773.184.177.358.297.517.1891.249.4346.449.7163.585.2889.133.6039.201.9222.197.4933-.007.9776-.133,1.4119-.366.7763-.432,1.4576-1.015,2.0032-1.715c1.2785-1.627,2.276-3.455,2.9514-5.41.1707-.481.2954-.978.3725-1.483.1173-.931.2006-1.559.2605-1.926.0287-.187.0495-.314.0625-.376v-.026l-.5913-.148.5653.228c.0102-.026.0189-.053.026-.08l-.5913-.148.5653.228-.8023-.327.7033.504c.0401-.055.0733-.114.099-.177l-.8023-.327.7033.504-.732-.52.5392.72c.0743-.054.1394-.12.1928-.195l-.732-.52.5392.72-.5418-.725.3256.845c.0775-.03.1503-.07.2162-.12l-.5418-.725.3256.845-.3282-.845v.907c.1124,0,.2238-.021.3282-.062l-.3282-.845-.2813.863c.0907.03.1857.046.2813.047v-.91l-.2813.863.2813-.86-.6486.634c.1024.104.2284.181.3673.226l.2813-.86-.6486.634.646-.632-.7815.445c.0386.068.0859.131.1407.187l.646-.632-.7815.445.7815-.437-.8544.247c.0192.066.0463.13.0807.19l.7815-.437-.8544.247.7815-.226-.8049.101c.0044.043.0132.084.026.125l.7815-.226-.8049.101.4741-.059-.4767.018c0,0,0,0,0,.041l.4741-.059-.4767.018v.018c0,.075,0,.278-.0235.52-.0208.353-.0547.795-.0834,1.156-.013.182-.026.343-.0338.465c0,.062,0,.112-.013.153v.057c0,.021,0,.032,0,.076v.026c.0156.595.0547,1.54.151,2.632.073.818.1772,1.72.3283,2.616.1085.668.252,1.33.4298,1.983.2236.909.5987,1.774,1.1097,2.559.2503.364.5687.676.9378.92.3826.237.8234.364,1.2738.366.0834,0,.1719,0,.2605-.013.3579-.038.6993-.17.9899-.382.2392-.174.4471-.388.6148-.631.2919-.439.5134-.92.6564-1.427.2528-.896.4168-1.815.4897-2.743.0938-1.006.1303-2.097.1303-3.201c0-2.29-.1589-4.649-.3152-6.442-.1563-1.792-.3152-3.016-.3152-3.027l-1.8235.177c0,.016.2605,3.882.8779,7.795.26,1.847.6642,3.672,1.2087,5.456.2138.695.5196,1.358.9091,1.972.1816.275.41.516.6747.712.1419.106.2991.189.4663.247.1787.065.3673.098.5575.099.2037-.001.4058-.038.5965-.109.3001-.118.5641-.313.7659-.564.1792-.218.3305-.457.4506-.712.2523-.551.4478-1.127.5835-1.717.3134-1.37.537-2.759.6695-4.158.5054-4.721.5939-10.863.5965-14.745c0-2.242-.0312-3.726-.0312-3.731l-.9118.018.0391.909-.0182-.408v.408l-.0183-.408v.408c.5766.017,1.1445.145,1.6724.377.4769.2.9169.479,1.3029.824.493.449.896.988,1.187,1.587.595,1.147,1.51,2.097,2.634,2.736c1.034.609,2.211.936,3.413.946.758.019,1.507-.173,2.162-.556.329-.203.617-.468.846-.779.244-.326.421-.695.521-1.089.045-.188.067-.381.065-.574-.004-.322-.047-.642-.127-.954-.18-.683-.424-1.348-.73-1.985-.681-1.426-1.44-2.814-2.274-4.157-1.336-2.201-2.865-4.495-4.045-6.348-.592-.925-1.097-1.741-1.443-2.359-.172-.309-.305-.569-.386-.754-.029-.065-.054-.132-.075-.2v-.02l-.316.062h.318c.002-.021.002-.042,0-.062l-.315.062h.318c0-.122,0-.302,0-.551-.032-.935-.11-2.816-.211-5.126-.308-6.922-.826-17.651-.826-17.651l-.026-.566-.521-.226-.393.855Z" fill="#231f20"/><path d="M86.74,147.17c-.0279.287-.041.575-.0391.863-.0012.553.0423,1.106.1303,1.652.0782.506.2074,1.004.3855,1.484.144.39.3318.764.5601,1.112.3731.572.88,1.046,1.477,1.38.7017.372,1.487.561,2.2819.548.8945-.02,1.7804-.178,2.6258-.47.7632-.256,1.5387-.474,2.3237-.653.4107-.099.8306-.155,1.253-.168.0811-.002.1622.004.2422.018h.0235l.0286-.094-.0417.089h.0131l.0286-.094-.0417.088.1928-.421-.3751.26c.0446.071.1076.129.1823.167l.1928-.421-.3751.259.4767-.322h-.5783c.001.115.0364.227.1016.322l.4767-.322h-.1641l-.3882-.153c-.0177.049-.0265.101-.026.153h.4142l-.3882-.153.172.068-.1355-.125c-.0159.016-.0284.036-.0365.057l.172.068-.1355-.125.3413.312-.2605-.38c-.03.019-.0571.042-.0808.068l.3413.312-.2605-.38.4089.598-.2813-.668c-.0449.019-.0876.042-.1276.07l.4089.598-.2813-.668.3282.78v-.84c-.1126,0-.2241.022-.3282.065l.3282.78v.039l.3569-.803c-.1127-.049-.234-.075-.3569-.075v.878l.3569-.803-.3595.811.6304-.621c-.0744-.079-.1627-.143-.2605-.19l-.3594.811.6304-.621-.6252.615.8414-.26c-.0433-.133-.1173-.255-.2162-.355l-.6252.615.8414-.26-.8076.26h.844c.0014-.088-.0109-.175-.0364-.26l-.8076.26h.1459l.6721.2c.0189-.065.0277-.132.026-.2h-.6981l.6721.2-.3491-.104.3387.13v-.026l-.3491-.104.3386.13-.0989-.039.0989.045-.0989-.039.0989.044-1.6489-.79c-.0318.068-.0587.138-.0807.21-.0323.105-.049.213-.0495.323-.0004.087.011.175.0338.259.0323.127.0912.246.173.349.0817.102.1844.186.3011.246.1347.069.2838.105.4351.104.0961,0,.1918-.014.2839-.041.0986-.031.1924-.076.2787-.133.0951-.064.1825-.139.2605-.223.1056-.121.1933-.255.2605-.4.0913-.19.1394-.398.1407-.608.0011-.213-.0528-.422-.1563-.608-.0842-.148-.1966-.278-.3308-.382-.1839-.139-.3953-.236-.62-.286-.2246-.052-.4547-.076-.6851-.073-.5513.013-1.0996.083-1.6359.211-.8499.184-1.6898.411-2.5164.68-.6621.233-1.3564.361-2.058.38-.5601.021-1.1133-.13-1.5838-.434-.2837-.202-.523-.459-.7033-.756-.2909-.499-.4894-1.045-.5861-1.614-.0926-.514-.1388-1.036-.1381-1.559c0-.213,0-.384.0156-.501c0-.06,0-.104,0-.133v-.036l-.2605-.026.2605.028-.2605-.026.2605.029-1.8234-.195.0234.013Z" fill="#231f20"/></g><g id="eTErqGDkY0I12" transform="matrix(.86915-.014444 0.014444 0.86915 1.888124 7.899037)"><path d="M34.0573,53.1404c0,0,4.8895,13.0434,15.6428,20.8461s20.4906,6.3373,17.8231,12.7992c-2.6674,6.462-7.8018.3638-10.735-.7327s-5.9289-.3663-5.7752.8549s4.5535,10.7257,7.7315,16.9431c3.1781,6.218-1.9563,6.577-2.6883,6.577s-9.0444-11.581-9.7764-13.8961c0,0,3.053,20.3581.8544,20.7211-2.1986.364-5.6215-.974-5.9914-4.157s-1.3441-13.285-1.3441-13.285l.7346,13.651c0,0-2.3237,2.193-5.2568-.122L34.0547,99.5694c0,0,1.0993,13.5296,0,13.5296s-4.2773.488-5.2542-7.678c-.9768-8.1667-15.5412-38.1563-15.5412-38.1563l20.798-14.1243Z" fill="#fff"/><path d="M34.0573,53.1404l-.8544.3196c1.0707,2.6524,2.3629,5.2103,3.8631,7.6468c2.605,4.3028,6.5802,9.6137,12.0975,13.6151c4.8791,3.5389,9.5576,5.2122,12.9154,6.5217c1.6776.6496,3.0217,1.2212,3.8501,1.8188.3446.226.6404.5184.8701.86.176.2857.2664.6157.2605.951-.0228.5435-.151,1.0773-.3778,1.572-.4089.9951-.857,1.5902-1.266,1.9201-.3477.2914-.7885.449-1.2425.4443-.5475-.0244-1.0844-.1587-1.5787-.3949-.9692-.4633-1.8965-1.0093-2.7716-1.6317-.4663-.3118-.9222-.6184-1.3728-.8912-.4254-.2681-.8745-.4968-1.3416-.6834-1.0336-.3881-2.1283-.5896-3.2328-.595-.4366-.0011-.8724.0362-1.3024.1117-.571.0894-1.1173.2955-1.6047.6054-.2376.1586-.4412.3626-.5991.6002-.1723.2663-.2628.577-.2605.8938-.0051.0692-.0051.1387,0,.2079.0238.1592.0595.3164.1068.4703.0938.304.2292.6808.4116,1.1407.6304,1.6083,1.8,4.2248,3.1415,7.0933c1.3416,2.8685,2.8525,5.9761,4.168,8.5411.6981,1.361.93,2.361.93,3.042.0178.422-.0999.839-.3361,1.19-.1499.21-.3414.387-.5627.52-.3487.204-.7303.347-1.1279.421-.2572.053-.5188.083-.7815.088v.793l.2761-.744c-.0883-.033-.1818-.049-.2761-.049v.793l.2761-.744-.2084.559.3048-.52c-.0302-.018-.0625-.033-.0964-.044l-.2084.559.3048-.52-.1641.276.1797-.26h-.0156l-.1641.275.1797-.26-.0729.11.0755-.11-.0729.11.0756-.11c-.0788-.066-.1536-.137-.2241-.213-.2136-.221-.521-.576-.8857-1.021-1.2712-1.559-3.2119-4.209-4.8895-6.672-.8388-1.232-1.6124-2.4192-2.2064-3.3988-.2969-.4911-.547-.9276-.7372-1.2992-.1379-.2504-.2563-.511-.3543-.7794l-1.7713.4105c0,0,0,.0416.0182.1221.0912.608.4976,3.4138.8831,6.7558.1902,1.67.3777,3.479.521,5.209.1433,1.731.2266,3.378.2266,4.75.0164.827-.0385,1.654-.1641,2.471-.0283.179-.08.354-.1537.52v.013l.1198.08-.1068-.098v.018l.1199.08-.1068-.098.2969.275-.2032-.346c-.0348.019-.0664.042-.0937.071l.2969.275-.2032-.346.2605.46-.0885-.519c-.0645.01-.1264.033-.1824.067l.2605.46-.0886-.52c-.1954.033-.3932.048-.5913.047-.4804-.004-.9577-.078-1.4171-.218-.7329-.215-1.4013-.607-1.9459-1.141-.2616-.263-.4797-.567-.646-.899-.1766-.358-.2895-.744-.3334-1.14-.1824-1.559-.521-4.893-.8076-7.816-.1459-1.463-.2787-2.827-.3777-3.825-.0469-.499-.0886-.907-.1146-1.187-.0261-.2808-.0443-.4419-.0443-.4419l-1.8235.1351.732,13.6538.9118-.049-.6278-.66.4037.423-.3985-.428.4037.423-.3985-.428c-.1718.145-.3608.269-.5627.368-.3519.186-.7392.296-1.1365.322s-.7957-.032-1.1689-.171c-.4348-.163-.8403-.396-1.2009-.688l-.5652.712.9091-.081L34.9743,99.52l-1.8235.1533c0,0,0,.091.0208.2599.0469.5998.1641,2.1568.2605,3.9958.0964,1.84.198,3.968.198,5.691.0111.799-.0228,1.599-.1016,2.395-.0121.118-.0303.235-.0547.351-.0099.054-.023.106-.0391.159v.028l.4038.177-.3048-.307c-.0401.038-.0736.082-.099.13l.4038.177-.3048-.307.521.52-.3048-.652c-.0752.035-.1439.082-.2032.14l.521.52-.3047-.653.3282.705v-.78c-.1134,0-.2254.025-.3282.073l.3282.704v-.779h-.4168c-.3072.008-.6136-.035-.9065-.128-.2738-.092-.5269-.237-.7451-.426-.3959-.333-.844-.902-1.2582-1.904-.4141-1.003-.7814-2.432-1.0237-4.418-.219-1.412-.5571-2.804-1.0107-4.159-.8753-2.8586-2.2247-6.4053-3.759-10.1468-4.6029-11.2273-10.8783-24.146-10.8835-24.1642l-.8206.395.521.7509l20.7954-14.14-.521-.7509-.8544.3196.8544-.3196-.521-.7509-21.444,14.5817.3413.7067c0,0,.0573.1143.1641.3352.7971,1.6577,4.4102,9.1902,7.9295,17.2527c1.7609,4.0299,3.4984,8.195,4.8504,11.8144.6747,1.8188,1.2504,3.4842,1.6854,4.9372.3704,1.153.6465,2.335.8258,3.533.1564,1.528.4876,3.033.9873,4.485.261.746.6248,1.453,1.081,2.099.4905.709,1.1725,1.264,1.9668,1.601.5445.21,1.125.313,1.7088.301h.4168c.1766.001.3505-.043.5054-.127.1144-.063.2167-.146.3021-.244.1105-.126.1986-.269.2605-.424.0843-.225.1445-.458.1798-.696.0661-.43.1069-.864.1224-1.299.0261-.491.0365-1.04.0365-1.629c0-2.04-.1251-4.555-.2605-6.569s-.2449-3.5232-.2449-3.5284l-1.8234.1559l1.2581,14.1635.3309.236c.5144.415,1.0934.743,1.714.972.5133.188,1.0555.284,1.6021.286.7866-.005,1.5598-.204,2.2507-.58.3176-.166.6134-.371.8805-.61l.3073-.289-.7632-14.0693-.9118.0493-.9065.0858c0,0,.2449,2.5312.521,5.4562.2761,2.926.6252,6.236.8102,7.847.086.796.3533,1.562.7814,2.24.6035.912,1.4507,1.639,2.4461,2.097.9185.438,1.9229.668,2.941.673.2975,0,.5946-.023.8883-.071.2434-.042.4699-.152.6538-.317.1296-.113.2411-.245.3309-.392.1361-.244.237-.507.2995-.779.1094-.46.18-.927.211-1.398.0417-.52.06-1.112.06-1.746c0-1.533-.1068-3.36-.2605-5.246-.4663-5.657-1.3989-11.8563-1.3989-11.8667l-.9013.1351-.8701.2598c.0708.2243.1579.4431.2605.6548.211.4417.5028.9639.8597,1.559c1.2425,2.079,3.2822,5.059,5.1005,7.535.9117,1.239,1.7635,2.338,2.4382,3.167.3387.408.6304.743.8805.998.116.12.2396.231.3699.335.0732.058.1517.11.2344.154.0596.03.1214.056.185.078.1004.031.2049.046.31.046.3268-.003.6528-.034.9742-.093.3745-.064.7418-.164,1.0967-.299.6694-.242,1.2645-.653,1.7271-1.193.2652-.319.4708-.683.607-1.075.1525-.442.2282-.907.224-1.375c0-1.083-.3491-2.338-1.128-3.869-1.5812-3.094-3.4724-7.0151-4.9832-10.3124-.7555-1.6447-1.4145-3.1361-1.8938-4.2794-.2371-.5716-.4299-1.0575-.5627-1.4264-.0678-.1819-.1198-.3378-.1537-.4521-.0144-.0444-.0266-.0895-.0365-.1351v-.0338h-.0599.0599-.0599.0599l-.2136.0286h.211v-.0312l-.2136.0286.1902.0805c.0099-.0257.0152-.053.0156-.0805h-.2058l.1902.0805-.0912-.039.0834.052v-.013l-.0912-.039.0833.052c.0399-.0443.0865-.082.1381-.1117.2204-.1226.4586-.2102.7059-.2599.3735-.0783.7542-.1166,1.1358-.1143.8901.0038,1.7724.1666,2.605.4807.5076.211.9928.4721,1.4483.7795.8519.5482,1.8235,1.255,2.8655,1.8422.5191.298,1.0629.551,1.6255.7561.5621.2052,1.1546.3159,1.7531.3274.42.0014.8374-.0671,1.2348-.2027.6491-.2308,1.2272-.6256,1.6776-1.1458.5471-.6356.9814-1.3597,1.2842-2.141.3196-.7143.4965-1.4839.521-2.2658.0082-.6701-.1723-1.3291-.521-1.9019-.3088-.4831-.7044-.905-1.167-1.2446-.9301-.6532-1.9382-1.1883-3.0009-1.5927-1.7636-.7354-3.9075-1.4811-6.2884-2.5334-2.7012-1.1699-5.2687-2.6255-7.6586-4.3418-5.236-3.7961-9.0861-8.9147-11.6103-13.085-1.0309-1.6978-1.9691-3.4499-2.8107-5.2485-.3074-.66-.521-1.1875-.6851-1.559-.0756-.1819-.1303-.3196-.1668-.4131l-.0416-.104v-.0234l-.4064-1.086-.9613.6521.5054.7717Z" fill="#231f20"/><path d="M51.5366,85.3203c-.0156,0-.5705-.1403-1.3937-.278-1.0008-.1732-2.0139-.2662-3.0295-.278-.5576-.0038-1.1144.0397-1.6646.1299-.5453.0894-1.0729.2648-1.563.5196-.4272.2455-.8272.5356-1.1931.8653-.4935.4587-1.0099.8923-1.5473,1.2991-.2219.1573-.4614.2881-.7138.3898-.2162.0865-.4469.1315-.6799.1325-.2027-.0018-.404-.0351-.5965-.0988-.4383-.1556-.8444-.3898-1.1983-.6911-.5919-.4948-1.1289-1.0514-1.602-1.6603l-1.4197,1.1328c.6951.918,1.5332,1.7189,2.4825,2.3723.3665.2413.7633.4335,1.1801.5716.3732.1226.7636.1858,1.1566.1871.6004-.0049,1.1912-.1508,1.7244-.4261.6896-.3745,1.3265-.8384,1.8938-1.3797.2605-.2391.521-.4625.7529-.6522.1967-.1666.4086-.3145.633-.4417.3153-.1582.6538-.2652,1.0029-.317.4468-.0735.8991-.1083,1.352-.1039.9154.0139,1.8284.1008,2.73.2598.3777.0649.6955.1273.9169.1767l.2605.0545.0625.0156h.0183l.4402-1.7642-.0052-.0156Z" transform="translate(.860331-.341275)" fill="#231f20"/></g><path d="M127.943,61.3197c0,0-10.175-6.675-16.224,17.736-6.049,24.4113-7.706,29.8133-3.017,38.6313c4.689,8.819,10.16,17.048,10.16,22.535c0,5.488,5.866,21.285,27.956,19.282s27.04-11.328,23.466-30.254-15.578-67.5847-23.461-68.7617c-7.882-1.177-18.88.8314-18.88.8314Z" fill="#231f20"/><path d="M114.103,84.8786c0,0,7.606,9.8138,10.539,3.4142s6.114-13.7216,6.114-13.7216s10.201,2.7412,9.102-6.0333c-1.011-8.0547-7.127-9.081-10.105-4.7029-.05.0758-.123.134-.208.1664-.085.0323-.178.0372-.266.014s-.167-.0735-.225-.1436-.092-.1566-.098-.2473l-.281-4.9627h9.984c0,0,2.738-12.9915-12.886-14.9922-15.625-2.0007-22.955,4.7549-22.955,4.7549l5.499,10.2373L119.5,57.5653l-.185,8.2704c0,0-3.207-.5898-6.14,8.9174.011.0077-.724,3.544.928,10.1255Z" fill="#fff"/><path d="M114.102,84.8786l-.711.556c.819,1.0337,1.713,2.0055,2.676,2.9075.808.7686,1.695,1.4504,2.646,2.0345.474.2869.976.5246,1.498.7093.514.1861,1.056.2845,1.602.291.473.0054.942-.0838,1.379-.2623.438-.1786.835-.4427,1.169-.777.468-.4768.844-1.0352,1.11-1.6473c2.938-6.41,6.119-13.7268,6.121-13.7294l-.836-.3898-.237.8783c1.158.2849,2.347.4314,3.54.4365.749.006,1.495-.0698,2.227-.2261.583-.1244,1.147-.3235,1.678-.5924.866-.4321,1.589-1.103,2.084-1.9331.566-1.02.847-2.1733.813-3.3388-.003-.4588-.033-.9169-.092-1.3719-.328-2.6191-1.174-4.612-2.365-5.9761-.555-.6515-1.239-1.1822-2.008-1.559-.715-.3439-1.499-.5215-2.293-.5197-.986.0059-1.953.275-2.8.7795-.92.5487-1.705,1.2963-2.298,2.1878l.383.2598-.208-.4105c-.07.0345-.13.0864-.175.1507l.383.2598-.208-.4105.216.4235v-.4703c-.075-.0011-.149.0168-.216.052l.216.4235.31-.3534c-.084-.077-.195-.1189-.31-.1169v.4703l.31-.3534-.328.3742.448-.2209c-.029-.0588-.07-.111-.12-.1533l-.328.3742.448-.2209-.419.2079.469-.026c-.004-.0633-.021-.1252-.05-.1819l-.419.2079.469-.026-.23-4.0039h9.771l.152-.7224c.144-.7884.213-1.5889.205-2.3904.002-1.2185-.148-2.4324-.445-3.6142-.276-1.0911-.698-2.1399-1.256-3.118-1.023-1.781-2.48-3.2761-4.235-4.347-1.98-1.2341-4.572-2.1669-7.93-2.5983-1.912-.2501-3.839-.3777-5.767-.3819-6.007,0-10.47,1.3147-13.431,2.6451-2.962,1.3303-4.429,2.671-4.494,2.7256l-.521.4755l6.122,11.3961l10.763-1.0575-.161,7.244.912.0208.169-.8938c-.093-.0168-.187-.0246-.281-.0234-.416.0106-.825.1079-1.201.2859-.766.3481-1.704,1.0704-2.681,2.4943s-2.021,3.5545-3.019,6.7868l-.013.0415v.0416c-.139.8204-.2,1.6521-.182,2.484.041,2.7145.413,5.4141,1.107,8.0391l.047.1845.117.1507.722-.556.883-.2209c-.655-2.481-1.005-5.0322-1.042-7.5974-.004-.5423.022-1.0844.078-1.624.018-.1766.036-.3065.049-.3871c0-.0416,0-.0701.013-.0883v-.0156l-.521-.1014.521.104-.521-.1014.521.104-.891-.1845.87.2598c1.277-4.1573,2.605-6.2567,3.564-7.2752.321-.3657.71-.665,1.146-.8808.14-.071.292-.1134.448-.1248l.024-.4391-.084.4314c.02.0017.04.0017.06,0l.024-.4392-.084.4314l1.058.1974.229-10.3672-11.6,1.1381-5.21-9.7047-.802.4314.617.6651-.393-.4235.393.4261-.393-.4235.393.4261c.068-.0597,1.444-1.281,4.194-2.4866c2.751-1.2056,6.885-2.3982,12.491-2.3982c1.85.0042,3.699.1265,5.533.3664c2.8.3611,4.95,1.0783,6.601,1.9877c1.11.599,2.111,1.3809,2.959,2.3125c1.024,1.1459,1.778,2.5061,2.207,3.9805.478,1.6555.622,3.3891.424,5.1005-.02.1767-.044.3144-.057.4027c0,.0442-.016.078-.018.0988v.0208l.354.0727-.354-.0753.354.0727-.354-.0753.893.187v-.9094h-10.974l.336,5.9242c.011.1803.057.3567.135.5196.116.2315.297.424.521.5535.208.1232.446.1878.688.187.214.0026.425-.0474.615-.1455.202-.1045.375-.2582.502-.4469.439-.6663,1.022-1.2257,1.707-1.6369.57-.3371,1.22-.5165,1.883-.5197.522.001,1.036.1191,1.506.3456.866.4476,1.581,1.1399,2.055,1.9903.714,1.2734,1.157,2.6797,1.302,4.1313.048.3801.073.7627.076,1.1458.023.7647-.132,1.5244-.453,2.219-.191.378-.457.7131-.782.9847-.494.4021-1.073.6872-1.693.8341-.672.1626-1.361.2411-2.053.2338-.728-.0035-1.455-.067-2.172-.1896-.284-.0494-.521-.0962-.667-.1299l-.177-.0416h-.042l-.761-.2053-.312.7223c0,0-.05.1118-.143.3248-.649,1.4837-3.403,7.7819-5.963,13.3709-.207.515-.543.9679-.977,1.3147-.148.1079-.312.1904-.487.2442-.174.0532-.355.0795-.537.078-.343-.0077-.683-.0718-1.005-.1897-.741-.2819-1.437-.6715-2.063-1.1562-.996-.7596-1.92-1.6075-2.762-2.5334-.359-.3897-.654-.7327-.854-.9717l-.232-.2832-.057-.0728-.013-.0156-.719.5561.883-.2209-.902.1793Z" fill="#231f20"/><path d="M119.87,84.8785v-4.1442h-1.824v4.1442" fill="#231f20"/><path d="M126.291,74.3944v-.9094h-8.799v.9094l.911-.039-.505.0234.505-.0182-.505.0234.505-.0182v-.0286c.004-.2248.026-.449.065-.6704.05-.2734.128-.5408.235-.7976.087-.2081.198-.4052.331-.5872.217-.2922.501-.5283.828-.6886.477-.2164.997-.3213,1.521-.3066.799-.0253,1.595.1045,2.345.382.34.1338.652.3304.919.5794.29.2757.505.621.623,1.0029.085.2743.129.5598.13.8471c0,.0701,0,.1247,0,.1559v.0311l.521.065-.521-.0728.521.065-.521-.0727.904.1221.904.1221c.017-.1405.025-.282.024-.4235-.001-.4098-.055-.8178-.162-1.2134-.16-.606-.454-1.1687-.859-1.6474-.406-.4786-.913-.8612-1.485-1.1198-1.045-.4636-2.182-.6856-3.324-.6496-.943-.025-1.874.2154-2.686.6937-.483.2958-.899.6887-1.222,1.1537-.382.5613-.647,1.1929-.781,1.8578-.084.386-.128.7795-.131,1.1744c0,.0546,0,.0909,0,.1039l.037.8679h10.469l.107-.7795-.904-.1377Z" fill="#231f20"/><path d="M136.226,70.1748c-.18-.7222-.464-1.4144-.844-2.0552-.332-.5779-.775-1.0854-1.302-1.4941-.306-.2257-.644-.4051-1.003-.5326-.393-.1369-.808-.2054-1.224-.2027-.123,0-.261,0-.381.0156l.175,1.8188c.068,0,.138,0,.206,0c.212-.0021.422.0322.622.1013.333.1235.63.3249.868.5873.37.4168.663.8964.865,1.416.091.2261.156.4236.198.5613.02.0675.033.1221.044.1559v.0363l.294-.0675-.297.0649.295-.0675-.297.0649l1.781-.3949v-.0078Z" fill="#231f20"/><path d="M87.4277,3.89737c0,0,5.3168,26.60393,9.9927,37.57393c0,0-18.4249,45.2572-16.7734,66.6487l22.181,9.557l11.996-59.6441c0,0-1.12-7.8858,9.024-7.8858c10.143,0,12.1,8.5328,12.1,8.5328l3.993.9146c0,0,20.999,44.4305,21.822,66.9245l23.648-.915L172.764,2.72034L87.4277,3.89737Z" fill="#f57379"/><path d="M87.4277,3.89752l-.8935.17668c0,0,1.3312,6.6672,3.251,14.7064.9586,4.0221,2.0631,8.3873,3.225,12.4432c1.1618,4.056,2.3757,7.7949,3.5714,10.6037l.8387-.356-.8466-.3404c0,0-4.2304,10.3932-8.4609,23.5822-2.1152,6.5944-4.233,13.8931-5.8247,20.9552-1.5916,7.0622-2.657,13.8853-2.6596,19.5755c0,1.019.0364,2.003.1094,2.947l.0417.548l23.7134,10.229l12.243-60.909-.021-.1533-.472.0676.472-.065-.472.0676.472-.065c-.001-.0121-.001-.0242,0-.0364c0-.0753-.023-.2598-.023-.5196c0-.576.073-1.1496.218-1.7071.139-.5486.357-1.0738.649-1.559.557-.9008,1.363-1.6225,2.321-2.0786c1.138-.569,2.73-.9692,4.949-.9692c2.407,0,4.283.5041,5.763,1.2394c1.01.5003,1.931,1.164,2.724,1.9643.906.9179,1.643,1.9862,2.181,3.157.165.3533.309.716.432,1.086.042.13.07.2313.089.2963.018.0649.015.0571.018.0727v.013l.484-.1117-.487.1091.485-.1117-.487.1091.127.556l4.551,1.0394.206-.8861-.826.3898.06.1247c.61,1.2991,5.843,12.5368,11.017,26.1493c2.586,6.8049,5.157,14.2044,7.129,21.2464c1.972,7.041,3.337,13.721,3.533,19.045l.031.912l25.529-.987L173.584,1.7981L86.318,3.0141l.2136,1.0705.8935-.17669.013.90941L171.94,3.63769L184.405,124.718l-22.676.879.034.909.912-.034c-.214-5.75-1.699-12.791-3.793-20.16-3.142-11.048-7.669-22.8156-11.413-31.8317-3.743-9.0161-6.7-15.2754-6.705-15.2858l-.187-.4002-4.429-1.0133-.203.886.891-.2052c-.133-.5088-.307-1.0059-.521-1.4863-.798-1.8788-2.035-3.5402-3.608-4.8458-1.095-.9007-2.338-1.6041-3.675-2.0786-1.669-.5771-3.424-.862-5.19-.8419-2.172,0-3.907.3482-5.277.9328-.932.384-1.781.9433-2.501,1.6473-.851.851-1.478,1.899-1.823,3.0504-.246.8088-.371,1.6493-.37,2.4944-.003.2701.013.5401.047.8081l.901-.1273-.894-.1793-11.769,58.5684-21.1495-9.094-.3595.834.9091-.07c-.0712-.891-.1059-1.826-.1041-2.807c0-5.4559,1.0419-12.1933,2.6049-19.1775c2.3627-10.4816,5.9133-21.5659,8.8725-30c1.4796-4.2222,2.8134-7.7949,3.7746-10.2944.4793-1.255.8674-2.245,1.1357-2.9205.1329-.3404.2371-.5976.3074-.7795.0365-.0858.0626-.1533.0808-.1975l.026-.0649.1433-.3508-.1485-.3456c-1.1436-2.6814-2.3444-6.3788-3.4958-10.3932-1.7271-6.0254-3.337-12.7836-4.517-18.027-.5888-2.6242-1.0707-4.86917-1.4041-6.45673-.1667-.79508-.297-1.42386-.3855-1.85518-.0443-.21566-.0782-.38195-.099-.49368-.0209-.11173-.0339-.16889-.0339-.16889l-.8961.17669.013.9094-.0026-.93019Z" fill="#231f20"/><path d="M177.901,40.375c0,0-11.368,8.4107-9.532,25.9648s15.398,7.535,23.83,22.7896s29.697,36.0876,61.217,25.1156c31.52-10.973,4.764-32.5467-3.668-40.591s7.333-19.3833-17.597-29.6206c-24.929-10.2373-48.361-10.8037-54.25-3.6584Z" fill="#231f20"/><path d="M183.217,42.2042c0,0-9.164,2.011-9.716,13.1629s9.716,16.0913,13.384,14.9948c0,0,4.4-17.0058,6.049-16.6291c1.649.3768,8.982,5.6695,10.266-2.9257s-9.167-6.0332-9.167-6.0332l-.182-3.8403l8.432-1.4629c0,0-7.333-12.4484-21.082-8.7874s-10.816,8.7771-10.816,8.7771l12.465.3663.367,2.3775Z" fill="#fff"/><path d="M183.217,42.2042l-.195-.8913c-1.841.4936-3.555,1.3732-5.028,2.5802-1.461,1.1726-2.668,2.6295-3.548,4.282-1.141,2.2154-1.774,4.6559-1.854,7.1453-.016.304-.024.6054-.024.9016-.02,2.295.462,4.5667,1.412,6.6568c1.212,2.6089,3.132,4.8269,5.543,6.4022c1.009.6652,2.097,1.2029,3.238,1.6006.956.3416,1.961.5259,2.975.5456.477.0056.951-.0574,1.41-.1871l.492-.1455.128-.4988c0,0,.018-.0624.049-.1819.237-.9068,1.326-5.0147,2.548-8.8732.607-1.9279,1.253-3.7961,1.823-5.1472.221-.5345.482-1.0514.782-1.546.062-.1063.136-.2048.221-.2936l-.029-.0312.027.0338-.029-.0312.026.0338-.208-.2806.13.3221c.027-.012.053-.0259.078-.0415l-.208-.2806.13.3221-.227-.5534v.595c.078-.0002.154-.0143.227-.0416l-.227-.5534v-.0779l-.151.6547c.049.012.1.0181.151.0182v-.6729l-.151.6547c.096.0257.19.0578.281.0962.261.1013.613.2598,1.042.4651.729.3466,1.476.6528,2.238.9172.865.3068,1.773.4734,2.691.4936.579.0054,1.155-.0905,1.701-.2832.434-.1584.839-.3875,1.198-.6781.604-.5027,1.086-1.1352,1.41-1.85.41-.9077.684-1.8708.812-2.8582.078-.5021.118-1.0093.12-1.5174.025-1.0334-.209-2.0569-.68-2.9776-.314-.5825-.744-1.0952-1.263-1.507-.732-.5603-1.577-.954-2.478-1.1537-.837-.1925-1.693-.2867-2.552-.2806-1.155.0029-2.307.1318-3.434.3846l.219.8834.912-.0442-.146-3.0374l8.938-1.559-.667-1.1302c-1.182-1.8451-2.627-3.5083-4.291-4.9368-1.579-1.3865-3.357-2.5294-5.275-3.3908-2.307-1.0276-4.806-1.5588-7.333-1.5589-1.76.0067-3.511.2434-5.21.7041-2.039.5184-4.029,1.214-5.947,2.0786-2.326,1.0861-3.769,2.2216-4.65,3.3362-.392.4869-.7,1.0358-.911,1.624-.166.4559-.254.9363-.261,1.4212-.001.3904.058.7785.175,1.1511.052.1729.122.34.208.4989l.261.4417l12.22.3585.26,1.6292.901-.1377-.195-.8939.195.8887.902-.1403-.482-3.118-13.226-.3871-.026.9094.782-.4521-.334.1922.342-.1767v-.0155l-.334.1922.341-.1767c-.104-.2399-.156-.4996-.151-.7613.007-.4036.105-.8006.287-1.1614.22-.4366.509-.8357.854-1.1822.905-.8823,1.953-1.6054,3.1-2.1384c1.973-.9457,4.037-1.6892,6.161-2.219c1.544-.4213,3.137-.6388,4.738-.6469c2.272-.0018,4.519.4745,6.593,1.3978c2.478,1.1316,4.699,2.7537,6.529,4.7679.595.6429,1.151,1.3215,1.664,2.0319.185.2598.323.4625.414.6028l.099.1559.021.039.782-.4625-.157-.8964-9.226,1.6005.276,5.7448l1.076-.2598c.983-.2167,1.988-.3282,2.995-.3326.636-.0047,1.27.0545,1.894.1767.45.0873.887.2287,1.303.4209.57.2599,1.054.6763,1.396,1.2005.406.6972.604,1.4961.57,2.302-.016,1.1568-.242,2.3011-.667,3.3778-.144.3529-.338.6836-.575.9822-.259.332-.598.5938-.985.7613-.378.1537-.784.2289-1.193.2208-.54-.0103-1.076-.0925-1.594-.2442-.821-.241-1.621-.5477-2.392-.9172-.362-.1663-.695-.3222-.997-.4573-.151-.065-.295-.1247-.435-.1793-.14-.0527-.283-.0969-.428-.1325-.085-.0198-.172-.0294-.26-.0286-.211.002-.418.0565-.602.1585-.136.0754-.261.1689-.372.278-.194.1974-.365.4162-.508.6522-.326.5459-.612,1.1147-.855,1.7019-.502,1.177-1.042,2.6633-1.55,4.2404-1.563,4.7315-2.988,10.2867-2.99,10.2945l.883.2286-.261-.8704c-.289.0776-.588.1143-.888.1091-1.145-.041-2.27-.3104-3.308-.7925-2.16-.9693-4.033-2.4782-5.437-4.3807-1.733-2.3761-2.647-5.2489-2.605-8.1872c0-.2599,0-.5379.021-.8107.133-2.6684.782-4.7445,1.644-6.3814.592-1.1105,1.354-2.1221,2.258-2.9984c1.024-.9816,2.208-1.7821,3.501-2.3671.385-.1753.78-.328,1.183-.4573.143-.0468.261-.0753.323-.0961l.078-.0182h.016l-.096-.4833.104.4703-.104-.4703.104.4703.836-.1819-.13-.8444-.902.1481Z" fill="#231f20"/><path d="M183.546,63.9726l.211.3533-.209-.3533.211.3533-.208-.3533c-.467.2565-.953.4763-1.454.6573-1.062.4021-2.185.6183-3.321.6392-.49.0012-.978-.0493-1.456-.1507l-.388,1.7747c.605.1312,1.224.1965,1.844.1948c1.371-.0237,2.727-.2876,4.006-.7795.589-.2127,1.158-.4734,1.704-.7795l-.933-1.5589-.007.0026Z" fill="#231f20"/><path d="M181.477,62.6813v-3.4739h-1.823v3.4739" fill="#231f20"/><path d="M187.312,53.1742v-.9094h-7.815v.9094l.873.2598-.362-.1117.359.1169-.362-.1117.36.1169c.157-.4208.389-.8099.685-1.1484.262-.305.578-.5588.933-.7483.452-.2359.953-.3664,1.464-.382h.153c.474-.0079.941.1086,1.355.3378.257.1474.489.3342.687.5534.255.2819.467.5997.628.9432.065.1377.11.2599.138.3248.029.065.021.0676.026.0832v.0155l.54-.1559-.54.1507.54-.1558-.54.1507.878-.2443.878-.2442c-.2-.6417-.516-1.242-.93-1.7721-.383-.5018-.863-.9223-1.412-1.2368-.687-.385-1.464-.5831-2.253-.5742h-.234c-.804.0282-1.591.2416-2.298.6236-.783.4341-1.442,1.0601-1.915,1.8188-.217.3448-.392.7148-.521,1.1017l-.372,1.1978h10.256l-.323-1.1536-.876.2442Z" fill="#231f20"/><path d="M199.355,51.6541c-.016-.1935-.047-.3855-.094-.5742-.067-.2948-.164-.5821-.289-.8574-.253-.5741-.65-1.074-1.151-1.4525-.307-.2286-.651-.4043-1.016-.5196-.422-.132-.861-.1969-1.303-.1923v1.8188c.397-.0165.789.0839,1.128.2884.183.1172.34.269.464.4469.168.2438.291.5158.362.8029.031.1195.049.2208.06.2858.01.065,0,.0572,0,.0701l.354-.0285-.354.0234.354-.0286-.354.0234l1.823-.1222.016.0156Z" fill="#231f20"/><g id="eTErqGDkY0I31" transform="matrix(.908169 0 0 0.908169 19.310123-.198362)"><path d="M227.213,38.7302c0,0,15.757,25.0814,15.95,46.8083.245,27.4275-5.166,67.8155-6.966,68.3845-2.933.915-4.277.062-3.72-11.729c0,0-3.126-1.863-3.126,1.674c0,3.536.245,11.692-.854,12.677-1.1.985-4.168,1.707-5.01,0c0,0-1.224,3.778-4.168,2.193-2.214-1.195-1.68-9.552-1.286-13.574.021-.1.003-.204-.05-.292-.052-.088-.136-.153-.234-.182-.099-.029-.205-.02-.297.025s-.164.123-.201.218c-2.112,3.952-6.916,12.597-8.336,12.212-1.823-.486-5.621-.974-3.3-5.851s9.167-20.478,9.167-20.478-10.879,1.097-11.124-.976c-.244-2.074-2.933-4.753,5.867-7.07c8.799-2.318,11.243-11.337,11.243-11.337s3.334-46.9225-16.286-63.3645l22.731-9.3383Z" fill="#fff"/><path d="M227.212,38.7302l-.781.4807v.0182c3.013,4.9982,5.69,10.1906,8.013,15.543c2.119,4.7958,3.895,9.7354,5.314,14.7817c1.451,5.2745,2.425,10.7517,2.472,15.9925c0,.6011,0,1.2073,0,1.8188c0,13.6229-1.302,30.1039-2.821,43.2279-.758,6.561-1.563,12.287-2.306,16.387-.364,2.048-.711,3.695-1.01,4.813-.106.421-.238.835-.396,1.239-.03.075-.065.149-.107.218l.31.231-.26-.293c-.024.017-.044.038-.06.062l.31.231-.261-.293.453.519-.208-.662c-.089.028-.173.073-.245.132l.453.52-.208-.663c-.366.13-.748.206-1.136.227-.099.001-.198-.011-.294-.037-.062-.019-.12-.048-.172-.086-.148-.116-.265-.267-.341-.439-.283-.64-.459-1.322-.521-2.019-.148-1.312-.215-2.631-.198-3.952c0-1.278.041-2.775.122-4.513l.026-.543-.469-.28c-.205-.118-.418-.22-.638-.307-.459-.196-.952-.301-1.451-.312-.303-.003-.603.051-.886.159-.224.101-.429.242-.604.415-.31.29-.539.654-.667,1.058-.146.472-.217.964-.208,1.457c0,1.1.023,2.622.023,4.236c0,1.819-.028,3.736-.151,5.261-.041.636-.124,1.269-.247,1.894-.036.182-.087.36-.154.533-.015.037-.033.072-.052.107l.185.132-.151-.169-.034.037.185.132-.151-.169c-.299.24-.639.423-1.003.541-.441.161-.906.249-1.376.26-.278.008-.555-.043-.812-.149-.087-.039-.167-.092-.237-.155-.066-.063-.12-.137-.159-.219l-1.001-1.99-.685,2.118.521.171-.521-.174.521.171-.521-.174c-.144.399-.343.776-.591,1.12-.168.237-.376.443-.615.608-.207.144-.453.222-.706.224-.332-.015-.655-.111-.94-.281-.068-.039-.128-.091-.175-.153-.186-.246-.327-.523-.416-.819-.232-.746-.381-1.515-.443-2.294-.094-.915-.133-1.938-.133-2.988c0-2.323.187-4.758.352-6.428.002-.043.002-.087,0-.13c0-.189-.041-.375-.12-.546-.11-.24-.292-.441-.521-.574-.21-.127-.45-.195-.696-.195-.23,0-.457.061-.656.177-.214.123-.389.303-.506.519-1.042,1.926-2.701,4.974-4.29,7.515-.677,1.109-1.415,2.181-2.212,3.209-.246.316-.519.61-.815.88-.068.06-.141.113-.219.159h-.015l.026.062-.021-.062.026.062-.021-.062.115.343v-.359c-.039-.001-.078.004-.115.016l.115.343v.164l.127-.507c-.041-.011-.084-.016-.127-.016v.52l.127-.507-.221.881.234-.878c-.385-.101-.805-.195-1.216-.312-.3-.083-.593-.186-.878-.309-.357-.141-.674-.365-.927-.652-.103-.129-.184-.274-.24-.429-.066-.198-.098-.407-.094-.616c0-.519.164-1.26.644-2.263.586-1.231,1.451-3.118,2.42-5.274c2.907-6.452,6.757-15.229,6.757-15.232l.625-1.426-1.563.158h-.029c-.31.029-2.988.284-5.582.281-.654,0-1.303-.016-1.899-.055-.448-.028-.87-.07-1.243-.124-.428-.05-.848-.156-1.247-.317-.065-.026-.125-.062-.178-.107l-.059.055.065-.047-.06.055.065-.047-.229.166.278-.031c-.005-.048-.022-.095-.049-.135l-.229.166.278-.031c-.077-.49-.196-.972-.354-1.442-.124-.367-.196-.749-.214-1.136-.005-.239.05-.477.159-.691.118-.219.272-.417.456-.584.515-.45,1.099-.813,1.73-1.076c1.105-.479,2.248-.866,3.418-1.156c2.118-.555,4.096-1.55,5.804-2.918c1.987-1.612,3.619-3.615,4.795-5.885.537-1.008.973-2.067,1.303-3.16l.023-.086v-.088c0-.018.211-3.011.211-7.753c0-7.0442-.464-17.9441-2.779-28.6776-1.16-5.3655-2.782-10.6946-5.059-15.4833s-5.21-9.0447-9.011-12.2328l-.575.7042.346.8392l22.734-9.3253-.35-.8392-.781.4807.781-.4807-.346-.8419-24.125,9.8839l1.152.964c3.54,2.9699,6.34,7.0024,8.536,11.6222c3.298,6.9297,5.21,15.1663,6.312,22.9741.913,6.7641,1.364,13.5821,1.352,20.4075c0,2.338-.052,4.256-.104,5.576-.026.662-.052,1.177-.073,1.525c0,.174-.016.306-.021.395c0,.044,0,.075,0,.098v.032l.909.062-.878-.237.396.107-.396-.109.396.106-.396-.109c-.514,1.632-1.268,3.178-2.237,4.589-.9,1.343-1.998,2.541-3.259,3.554-1.502,1.199-3.24,2.069-5.101,2.554-1.154.29-2.286.662-3.386,1.115-1.357.58-2.279,1.193-2.892,1.902-.286.331-.51.71-.661,1.12-.129.363-.194.745-.19,1.13.015.559.112,1.113.286,1.645.127.373.225.755.295,1.143.037.307.165.595.367.829.155.174.337.323.539.439.344.193.715.336,1.099.424.662.156,1.336.256,2.014.299.735.057,1.519.077,2.303.077c2.886,0,5.778-.293,5.796-.293l-.091-.904-.837-.367c0,0-.106.245-.299.681-.67,1.525-2.378,5.407-4.168,9.44-1.79,4.032-3.676,8.221-4.689,10.333-.555,1.167-.818,2.159-.821,3.045-.012.709.195,1.405.592,1.993.268.379.606.703.995.956.525.331,1.096.585,1.693.754.55.164,1.06.275,1.43.374.104.025.211.038.318.039.261-.005.517-.073.745-.2.186-.101.361-.221.521-.359.334-.288.642-.606.92-.948.63-.775,1.216-1.584,1.755-2.424c1.847-2.804,3.908-6.54,5.098-8.782l-.44-.232.247.426c.081-.046.148-.114.193-.194l-.44-.232.247.426-.26-.444v.52c.091,0,.181-.025.26-.07l-.26-.445v.031l-.302.362c.088.081.203.125.323.124v-.488l-.323.364.349-.388-.477.216c.031.065.074.123.128.172l.349-.388-.477.216.461-.208h-.505c-.001.072.014.143.044.208l.461-.208h-.086l-.419-.039v.039h.419l-.419-.039c-.167,1.71-.36,4.191-.36,6.608-.026,1.567.095,3.132.36,4.677.113.638.308,1.26.578,1.85.129.271.291.525.482.756.197.227.434.416.698.558.552.315,1.173.486,1.808.499.33,0,.657-.054.969-.161.483-.168.923-.442,1.287-.8.432-.428.791-.924,1.06-1.468.13-.251.242-.512.334-.78l-.868-.278-.815.406c.135.274.319.521.542.73.315.291.693.506,1.104.629.387.115.789.171,1.193.169.677-.009,1.348-.13,1.985-.359.588-.195,1.133-.499,1.607-.896.118-.107.22-.229.303-.364.135-.227.241-.471.315-.725.144-.51.245-1.032.302-1.559.112-.889.177-1.938.214-3.053.036-1.115.049-2.289.049-3.414c0-1.629-.023-3.16-.023-4.236-.006-.274.025-.549.093-.815.026-.098.066-.191.12-.276.03-.061.081-.11.144-.138.076-.031.159-.045.242-.041.269.013.534.073.781.179.12.05.224.099.295.133l.075.041h.016l.26-.428-.26.426.26-.429-.26.426.469-.779-.912-.045c-.083,1.759-.125,3.282-.125,4.599-.01,1.251.043,2.502.161,3.747.064.665.181,1.323.35,1.97.1.384.241.757.422,1.112.122.237.273.46.448.662.25.29.565.518.919.665.331.133.685.199,1.042.195.573-.018,1.139-.122,1.68-.309.162-.053.31-.142.433-.26.154-.15.28-.326.372-.519.191-.4.346-.816.464-1.242.281-.954.583-2.284.906-3.955c1.126-5.841,2.483-15.824,3.561-27.048c1.079-11.225,1.879-23.6707,1.879-34.4147c0-.6184,0-1.2298,0-1.8344-.05-5.5395-1.089-11.2532-2.605-16.7148-2.28-8.1924-5.645-15.821-8.443-21.41s-5.035-9.107-5.059-9.1252l-.409-.6522-.711.2936.346.8419Z" fill="#231f20"/><path d="M224.396,156.527l-.226-12.22-1.821.034.227,12.219" fill="#231f20"/></g><path d="M210.715,2.3385c0,0,2.853,13.3475,7.555,21.3918s8.929,14.9948,8.929,14.9948l-22.717,9.3434c0,0-7.883-10.4243-11.366-12.0691s-13.572-2.9152-19.433,3.5701c0,0-16.672,3.0114-23.645-16.0029l8.25-6.0359v-14.275l52.427-.9172Z" fill="#ee4947"/><path d="M210.715,2.33846l-.891.18708c0,.01819.722,3.37779,2.035,7.75076.656,2.1903,1.461,4.6353,2.404,7.0465.899,2.3685,1.98,4.6644,3.233,6.8673c4.718,8.0548,8.935,15.0026,8.938,15.0052l.781-.4703-.346-.8418-22.731,9.3253.346.8418.73-.5482c0,0-1.985-2.6243-4.413-5.4564-1.214-1.4187-2.537-2.892-3.796-4.1287-.63-.621-1.242-1.1797-1.823-1.65-.514-.43-1.075-.8005-1.673-1.1042-1.028-.4574-2.107-.7922-3.214-.9978-1.431-.2793-2.885-.4194-4.342-.4183-2.286-.0166-4.557.356-6.716,1.1017-2.387.825-4.528,2.2338-6.229,4.0975l.678.608-.164-.8938.047.2598-.045-.2598.047.2598-.044-.2598c-.784.1143-1.576.1673-2.368.1585-3.49.0075-6.925-.8724-9.98-2.5568-2.136-1.206-4.034-2.7909-5.6-4.6769-1.769-2.1098-3.387-4.8276-4.689-8.3483l-.855.3118.54.7327l8.622-6.3009v-13.82293l51.534-.89901-.016-.9198-.891.18708.891-.18708-.015-.9094-53.324.93279v14.69595l-8.43,6.1658.235.6418c1.354,3.6973,3.079,6.6126,4.994,8.8913c2.437,2.9478,5.616,5.1967,9.211,6.5166c2.489.9042,5.118,1.3668,7.768,1.3667.9.0107,1.8-.0519,2.691-.1871l.307-.0572.208-.2286c1.498-1.6404,3.384-2.8796,5.486-3.6039c1.964-.6741,4.028-1.0106,6.104-.9951c1.338-.0016,2.673.1272,3.986.3845.96.1754,1.896.4623,2.789.8549.466.2436.903.5382,1.303.8782c1.087.9145,2.112,1.8996,3.069,2.9491c1.635,1.7486,3.303,3.7467,4.558,5.3005.628.7795,1.152,1.4472,1.519,1.9201l.427.5509c.05.0649.086.1143.112.1455l.037.0494.424.5612l24.364-9.9957-.549-.9094-.19-.3118c-.87-1.4394-4.611-7.6364-8.735-14.67-1.204-2.1196-2.243-4.3286-3.108-6.6074-1.241-3.2463-2.313-6.5549-3.209-9.91253-.372-1.3745-.659-2.52814-.849-3.33621-.096-.40274-.169-.72233-.219-.93799-.023-.10653-.042-.18968-.055-.24424l-.013-.06236v-.01819l-.156-.73532-.75.01559.01.90161Z" fill="#231f20"/><path d="M150.038,23.5537L146.37,2.34375l11.918.912v14.26205l-8.25,6.0359Z" fill="#fff"/><path d="M150.038,23.5535l.899-.1559-3.468-20.05888l9.907.7587v12.96028l-7.877,5.7605.539.7353.899-.1559-.899.1559.539.7327l8.623-6.3061v-15.56637l-13.927-1.0679L149.389,25.154l1.188-.8678-.539-.7327Z" fill="#231f20"/><path d="M88.9907,64.5989c0,0-7.5153,13.8983-18.1487,10.058-10.6335-3.8403-7.8827-8.7771-13.5641-12.9915s.5497-20.8436,6.416-22.865c3.554-1.2036,7.2523-1.9314,10.9982-2.1644c0,0,14.2986,25.4035,14.2986,27.9629Z" fill="#231f20"/><path d="M80.1729,59.1945l-5.3792-.9744-.3257,1.7876l5.3793.977" fill="#231f20"/><path d="M76.2212,67.1582c0,0,8.2968,1.3407,9.1668-4.8744s3.423-17.5541-6.3561-19.5054v-7.7949l8.9846-3.0478c0,0-.3074-4.877-10.5736-2.9257-10.2661,1.9513-15.6297,9.0161-15.6297,9.0161l7.0881-.1221.4662,4.3885c0,0-5.2437-.7197-7.5543,3.4116s3.4229,3.8974,3.4229,3.8974s2.4434-2.4995,4.1679-2.1046.9769.1533-2.5659,4.4171c-3.5427,4.2638-2.4434,7.0154-1.3441,9.2941s3.0295,5.828,10.7272,5.9501Z" fill="#fff"/><path d="M76.2212,67.1582l-.1459.899c1.4084.192,2.8374.1753,4.2409-.0494c1.3396-.1965,2.6106-.7175,3.7016-1.5174.5939-.4595,1.0929-1.0295,1.4692-1.6785.4216-.7416.695-1.5579.805-2.4034.1693-1.2134.4089-2.6554.6069-4.1988.2202-1.6028.3385-3.2178.3543-4.8355.0118-1.2419-.0981-2.482-.3282-3.7025-.1727-.8947-.448-1.7665-.8206-2.5983-.5646-1.2768-1.4317-2.3976-2.5268-3.2661-1.282-.9748-2.7788-1.6305-4.3659-1.9123l-.1798.8912h.9118v-7.1557l9.0262-3.0634-.0443-.6938c-.0247-.2667-.0852-.5288-.1798-.7795-.141-.3897-.3403-.7559-.5913-1.0861-.5696-.7312-1.3226-1.2994-2.183-1.6473-1.0419-.4417-2.3939-.7249-4.1809-.7249-1.5172.0179-3.0295.1771-4.517.4755-4.3868.8384-8.5157,2.6903-12.0558,5.407-1.5372,1.1437-2.9289,2.4699-4.1445,3.9495l-1.1331,1.507l8.1353-.1403.3959,3.5648.9066-.0987.1276-.9016c-.3458-.0409-.6938-.06-1.042-.0572-1.2346-.0078-2.4602.2106-3.6157.6444-.7525.2848-1.4557.6855-2.0839,1.1874-.7143.5806-1.3103,1.2924-1.7558,2.0968-.206.3579-.3728.7368-.4975,1.1303-.1087.336-.1666.6863-.172,1.0393-.0029.3568.0671.7105.2058,1.0393.1126.2636.2694.5062.4637.7172.3118.3325.6886.5978,1.1071.7795.5471.2353,1.1252.391,1.7167.4625.4042.0535.8114.0804,1.2191.0805h.2058.3673l.2605-.2598-.1459-.1429.1459.1429-.1459-.1429.1459.1429c.3675-.3609.7611-.6943,1.1774-.9978.327-.2422.6758-.4535,1.042-.6314.2759-.1417.5785-.224.8883-.2416.0604-.0003.1207.0058.1798.0182.1484.0338.2735.0623.3673.0883.052.0109.1033.0248.1537.0416h.0234l.1928-.4599-.3543.343c.044.051.0993.091.1615.1169l.1928-.4599-.3543.343.521-.5197-.6799.2858c.0352.0846.0855.1621.1485.2287l.521-.5197-.6799.2858.6929-.291h-.7528c.0005.1.0209.1989.0599.291l.6929-.291h-.0886l-.633-.2026c-.0205.0656-.031.1339-.0312.2026h.6642l-.633-.2026.3882.1247-.3621-.1923c0,0,0,.0286-.0261.0676l.3882.1247-.3621-.1923.1016.0546-.099-.0572.1016.0546-.099-.0572c-.0897.1206-.1862.236-.2892.3456-.2605.2754-.633.6755-1.1357,1.2264s-1.128,1.2524-1.873,2.1488c-.8363.9699-1.5205,2.0606-2.0293,3.2349-.7088,1.6316-.7859,3.4674-.2162,5.1524.2169.6442.478,1.2727.7815,1.8811.3233.6975.7032,1.3675,1.1358,2.0033.9006,1.2938,2.1185,2.336,3.5375,3.0271c1.6776.834,3.9074,1.3796,6.8901,1.4264l.013-.9094-.1458.899.1458-.899.0157-.9094c-1.5231.003-3.0395-.2025-4.5066-.6106-1.4149-.3821-2.7007-1.1368-3.7225-2.1852-.7027-.7779-1.2761-1.663-1.6984-2.6216-.2679-.5332-.4977-1.0845-.6877-1.65-.438-1.2736-.3794-2.6649.1641-3.8974.44-1.0055,1.0292-1.9392,1.7479-2.7698c1.1514-1.3849,1.9954-2.2787,2.5659-2.8919.2865-.3066.5054-.5404.6825-.7613.0937-.1114.1766-.2315.2475-.3586.0443-.0827.0801-.1698.1068-.2598.0376-.1141.0569-.2333.0573-.3534-.0009-.154-.0337-.3061-.0964-.4469-.0535-.114-.1267-.2178-.2162-.3066-.1087-.1079-.2357-.1959-.3751-.2598-.1437-.0633-.2928-.1138-.4455-.1507-.1407-.0364-.2891-.0702-.4559-.1091-.1953-.0464-.3956-.0691-.5965-.0676-.5832.0173-1.1556.1609-1.6776.4209-.6895.3375-1.3344.7591-1.9198,1.255-.4898.4054-.805.7275-.8232.7431l.6538.6366-.0338-.9094v.1455-.1455.1455-.1455h-.1433c-.2733-.0009-.5463-.0165-.818-.0468-.2749-.0298-.5474-.0793-.8153-.1481-.1937-.0487-.3828-.1139-.5653-.1948-.205-.0848-.3877-.2155-.534-.382-.0483-.0609-.0861-.1294-.112-.2027-.0312-.0902-.0461-.1852-.0443-.2806.0041-.1766.0339-.3516.0886-.5196.0899-.2709.2068-.532.349-.7795.3342-.6028.7807-1.1363,1.3155-1.572.707-.5569,1.5263-.9549,2.4018-1.1666.6986-.174,1.4161-.2613,2.1361-.2599.2605,0,.4663,0,.6069.0208l.1563.0156h.0391l.0417-.2988-.0417.2988.0417-.2988-.0417.2988l1.1618.1637-.7111-6.3762-7.9191.1377.0156.9094.7268.5482-.3022-.2286.3022.2312-.3022-.2286.3022.2312c1.1338-1.3699,2.4301-2.5975,3.8606-3.6558c3.3012-2.52,7.145-4.2395,11.2273-5.0225c1.3724-.2773,2.7678-.4261,4.168-.4443c1.093-.0269,2.1822.1393,3.2171.4911.4547.1574.8786.3921,1.253.6937.3325.2656.5939.6093.7606,1.0004.0419.1007.0742.2051.0964.3118c0,.0338,0,.0571.013.0675h.0912-.0912.0912-.0912l.6148-.0519-.6174.0389.6148-.0519-.6174.039.9118-.0572-.2944-.86-9.6123,3.2686v9.198l.7346.1481c1.1756.2086,2.2944.6599,3.2848,1.3251.6101.4269,1.143.954,1.576,1.559.6423.9269,1.0963,1.9702,1.3364,3.0712.2682,1.2279.395,2.4823.3777,3.7389-.0159,1.5403-.129,3.0781-.3386,4.6042-.1928,1.5018-.4325,2.9283-.607,4.1781-.0897.7919-.3901,1.5454-.87,2.1826-.3148.4006-.6996.7413-1.1358,1.0055-.6818.4019-1.4298.6799-2.209.8211-.7314.14-1.4747.2088-2.2194.2052-.5028,0-.9326-.0286-1.2322-.0571-.1485-.013-.2605-.026-.3438-.0364l-.073-.013h-.0208l-.0469.2858.0469-.2858-.0469.2858.0469-.2858h-.0651-.0652l-.0286.9016Z" fill="#231f20"/><path d="M108.963,3.52845c0,0,.122,29.37635-20.5324,28.52415c0,0-2.084-6.9817-13.8063-2.3931s-13.5067,8.6108-13.5067,8.6108-1.8912,6.4594-9.5914,6.2151c-7.7003-.2442-19.9202.8549-19.9202.8549l3.1859,6.106L11.9386,68.2572c0,0-13.32177-24.0862-11.732744-39.7123s35.557644-10.6323,35.557644-10.6323L35.3962,2.91785l73.5668.6106Z" fill="#ee4947"/><path d="M108.963,3.52853l-.912-.01559v.02598c-.024,1.54877-.13,3.09519-.318,4.63277-.27,2.36811-.716,4.71301-1.333,7.01541-1.042,3.8351-2.754,7.8728-5.471,10.8973-1.3559,1.5411-3.0136,2.7896-4.871,3.6687-2.1196.9652-4.4275,1.4489-6.7573,1.4161-.2735,0-.5549,0-.8388-.0182l-.0365.9094.8753-.2598c-.3137-.8944-.8329-1.7033-1.5161-2.3618-.676-.6685-1.477-1.1981-2.3575-1.559-1.1968-.4751-2.4762-.7082-3.7641-.686-1.9772,0-4.3972.4573-7.3799,1.624-5.9341,2.3202-9.3987,4.5158-11.4019,6.1709s-2.545,2.7776-2.6049,2.9205l-.0235.0546-.0156.0545.3516.104-.3516-.1066.3516.104-.3516-.1066c-.3704,1.0487-.948,2.0126-1.6985,2.8348-.7047.7869-1.5592,1.4263-2.5137,1.8811-1.2789.5879-2.6741.881-4.082.8575h-.396c-.7815-.0234-1.6072-.0338-2.459-.0338-3.8293,0-8.2161.2235-11.652.4443-3.436.2209-5.9003.4339-5.9055.4339l-1.3546.1221l3.4464,6.6075L11.3968,67.5298l.5418.7327.7971-.4469v-.0156c-2.2402-4.1862-4.24817-8.492-6.01481-12.8979-1.56185-3.8247-2.88338-7.7428-3.95693-11.7313-1.07064-4.0846-1.771378-8.2029-1.771378-11.9158-.002472-.8746.039258-1.7487.125038-2.6191.09477-1.0108.36817-1.9969.80754-2.9127.78284-1.545,1.97352-2.8477,3.44376-3.7675c2.28975-1.52,5.37398-2.5126,8.69798-3.1024c3.3489-.5507,6.7393-.8115,10.1333-.7795c3.1624,0,6.0305.1871,8.1014.3768c1.042.0935,1.873.187,2.4487.2598l.6616.0857.1693.0234h.0417l1.0707.1585-.3569-15.14287l72.6263.60281v-.90941l-.912-.01559.912.01559v-.9094l-74.5019-.6184.396,15.92757.9117-.0208.1328-.899c-3.8789-.5171-7.788-.7775-11.7014-.7795-2.6559-.0112-5.31.138-7.9478.4469-4.035.4963-7.99719,1.4551-11.12835,3.2765-1.54254.863-2.88548,2.0404-3.9413,3.4557-1.070362,1.4834-1.722523,3.2258-1.888601,5.0459-.091173.912-.135458,1.85-.135458,2.8036c0,4.0013.760649,8.3145,1.883389,12.5731c1.69062,6.371,4.20961,12.5732,6.30921,17.1956s3.77721,7.6545,3.78501,7.6701l.5028.9068L35.959,51.7062L32.4214,44.922l-.8075.4209.0807.9042h.1121c.5522-.0467,3.1103-.2598,6.416-.4729s7.3564-.4027,10.8809-.4001c.8362,0,1.6437,0,2.4018.0338.1484,0,.2995,0,.448,0c1.7037.0248,3.3905-.3396,4.9312-1.0653.912-.4443,1.7488-1.0282,2.4799-1.7305.8294-.7921,1.5228-1.7147,2.0527-2.7308.2356-.4361.4309-.8927.5835-1.3641l-.8752-.2598.8336.3663-.4585-.2026.4506.2156v-.013l-.4584-.2026.4506.2156c.0521-.0987.5757-1.0627,2.4565-2.5411s5.1109-3.4687,10.5527-5.5941c2.8212-1.1043,5.0224-1.5019,6.713-1.4993c1.0504-.0211,2.0946.1671,3.0712.5535.9169.3649,1.7116.981,2.2924,1.7772.1679.2304.3127.4767.4324.7353.0417.0884.0703.1585.086.2027l.0156.0416.4611-.1429-.4637.1351.4611-.1429-.4637.1351.185.6236.6512.0286c.3074,0,.6122.0181.9117.0181c2.3277.0249,4.6376-.4059,6.799-1.2679c1.6773-.6857,3.2278-1.6465,4.5871-2.8426c2.324-2.0266,4.04-4.6041,5.325-7.3168c1.922-4.0715,2.865-8.4626,3.363-11.89238.297-2.02773.462-4.07254.495-6.12159h-.555.555-.555.555l.015-.9146h-.919l-.008.9172Z" fill="#231f20"/><path d="M83.4005,67.7064c2.4803,0,4.4909-2.9059,4.4909-6.4905s-2.0106-6.4906-4.4909-6.4906-4.491,2.906-4.491,6.4906s2.0107,6.4905,4.491,6.4905Z" fill="#231f20"/><path d="M72.0142,64.417c2.4803,0,4.4909-2.9059,4.4909-6.4905s-2.0106-6.4906-4.4909-6.4906-4.491,2.9059-4.491,6.4906s2.0107,6.4905,4.491,6.4905Z" fill="#231f20"/><path d="M69.9224,56.2999l-5.1344-5.485-1.3337,1.2394l5.1344,5.485" fill="#231f20"/><path d="M81.7593,59.036l-7.4918-.6808-.1642,1.811l7.4919.6808" fill="#231f20"/><path d="M84.6665,51.4462h-6.627c0,0,1.5395-6.9608,6.627,0Z" fill="#fff"/><path d="M84.6665,51.4463v-.9094h-6.627v.9094l.8908.1975c0-.0234.0495-.2105.1381-.4703.1533-.4766.3819-.9257.6773-1.3303.1282-.1727.2861-.3214.4663-.4391.1418-.0893.3064-.1362.4741-.1351.1625.0032.3232.0358.4741.0961.4267.1835.8168.4423,1.1514.7639.6015.5622,1.1444,1.1838,1.6203,1.8552l.7346-.5379.7372-.5352c-.6835-.9842-1.5116-1.8601-2.4565-2.5983-.3489-.2618-.7319-.4751-1.1384-.634-.358-.1393-.7384-.2124-1.1227-.2157-.3502-.0007-.6972.0673-1.0212.2001-.4998.2143-.9384.5491-1.2764.9744-.4112.5189-.7358,1.1006-.9612,1.7226-.1109.2956-.204.5976-.2787.9042l-.2449,1.1043h9.5576l-1.0576-1.4446-.7372.5222Z" fill="#231f20"/></g><clipPath id="eTErqGDkY0I51"><rect width="265" height="191" rx="0" ry="0" fill="#fff"/></clipPath></g><script><![CDATA[!function(t,n){"object"==typeof exports&&"undefined"!=typeof module?module.exports=n():"function"==typeof define&&define.amd?define(n):((t="undefined"!=typeof globalThis?globalThis:t||self).__SVGATOR_PLAYER__=t.__SVGATOR_PLAYER__||{},t.__SVGATOR_PLAYER__["5c7f360c"]=n())}(this,(function(){"use strict";function t(t,n){var e=Object.keys(t);if(Object.getOwnPropertySymbols){var r=Object.getOwnPropertySymbols(t);n&&(r=r.filter((function(n){return Object.getOwnPropertyDescriptor(t,n).enumerable}))),e.push.apply(e,r)}return e}function n(n){for(var e=1;e<arguments.length;e++){var r=null!=arguments[e]?arguments[e]:{};e%2?t(Object(r),!0).forEach((function(t){o(n,t,r[t])})):Object.getOwnPropertyDescriptors?Object.defineProperties(n,Object.getOwnPropertyDescriptors(r)):t(Object(r)).forEach((function(t){Object.defineProperty(n,t,Object.getOwnPropertyDescriptor(r,t))}))}return n}function e(t){return(e="function"==typeof Symbol&&"symbol"==typeof Symbol.iterator?function(t){return typeof t}:function(t){return t&&"function"==typeof Symbol&&t.constructor===Symbol&&t!==Symbol.prototype?"symbol":typeof t})(t)}function r(t,n){if(!(t instanceof n))throw new TypeError("Cannot call a class as a function")}function i(t,n){for(var e=0;e<n.length;e++){var r=n[e];r.enumerable=r.enumerable||!1,r.configurable=!0,"value"in r&&(r.writable=!0),Object.defineProperty(t,r.key,r)}}function u(t,n,e){return n&&i(t.prototype,n),e&&i(t,e),t}function o(t,n,e){return n in t?Object.defineProperty(t,n,{value:e,enumerable:!0,configurable:!0,writable:!0}):t[n]=e,t}function a(t){return(a=Object.setPrototypeOf?Object.getPrototypeOf:function(t){return t.__proto__||Object.getPrototypeOf(t)})(t)}function l(t,n){return(l=Object.setPrototypeOf||function(t,n){return t.__proto__=n,t})(t,n)}function s(){if("undefined"==typeof Reflect||!Reflect.construct)return!1;if(Reflect.construct.sham)return!1;if("function"==typeof Proxy)return!0;try{return Boolean.prototype.valueOf.call(Reflect.construct(Boolean,[],(function(){}))),!0}catch(t){return!1}}function f(t,n,e){return(f=s()?Reflect.construct:function(t,n,e){var r=[null];r.push.apply(r,n);var i=new(Function.bind.apply(t,r));return e&&l(i,e.prototype),i}).apply(null,arguments)}function c(t,n){if(n&&("object"==typeof n||"function"==typeof n))return n;if(void 0!==n)throw new TypeError("Derived constructors may only return object or undefined");return function(t){if(void 0===t)throw new ReferenceError("this hasn't been initialised - super() hasn't been called");return t}(t)}function h(t,n,e){return(h="undefined"!=typeof Reflect&&Reflect.get?Reflect.get:function(t,n,e){var r=function(t,n){for(;!Object.prototype.hasOwnProperty.call(t,n)&&null!==(t=a(t)););return t}(t,n);if(r){var i=Object.getOwnPropertyDescriptor(r,n);return i.get?i.get.call(e):i.value}})(t,n,e||t)}function v(t){return function(t){if(Array.isArray(t))return y(t)}(t)||function(t){if("undefined"!=typeof Symbol&&null!=t[Symbol.iterator]||null!=t["@@iterator"])return Array.from(t)}(t)||function(t,n){if(!t)return;if("string"==typeof t)return y(t,n);var e=Object.prototype.toString.call(t).slice(8,-1);"Object"===e&&t.constructor&&(e=t.constructor.name);if("Map"===e||"Set"===e)return Array.from(t);if("Arguments"===e||/^(?:Ui|I)nt(?:8|16|32)(?:Clamped)?Array$/.test(e))return y(t,n)}(t)||function(){throw new TypeError("Invalid attempt to spread non-iterable instance.\nIn order to be iterable, non-array objects must have a [Symbol.iterator]() method.")}()}function y(t,n){(null==n||n>t.length)&&(n=t.length);for(var e=0,r=new Array(n);e<n;e++)r[e]=t[e];return r}Number.isInteger||(Number.isInteger=function(t){return"number"==typeof t&&isFinite(t)&&Math.floor(t)===t}),Number.EPSILON||(Number.EPSILON=2220446049250313e-31);var g=d(Math.pow(10,-6));function d(t){var n=arguments.length>1&&void 0!==arguments[1]?arguments[1]:6;if(Number.isInteger(t))return t;var e=Math.pow(10,n);return Math.round((+t+Number.EPSILON)*e)/e}function p(t,n){var e=arguments.length>2&&void 0!==arguments[2]?arguments[2]:g;return Math.abs(t-n)<e}var m=Math.PI/180;function b(t){return t}function w(t,n,e){var r=1-e;return 3*e*r*(t*r+n*e)+e*e*e}function x(){var t=arguments.length>0&&void 0!==arguments[0]?arguments[0]:0,n=arguments.length>1&&void 0!==arguments[1]?arguments[1]:0,e=arguments.length>2&&void 0!==arguments[2]?arguments[2]:1,r=arguments.length>3&&void 0!==arguments[3]?arguments[3]:1;return t<0||t>1||e<0||e>1?null:p(t,n)&&p(e,r)?b:function(i){if(i<=0)return t>0?i*n/t:0===n&&e>0?i*r/e:0;if(i>=1)return e<1?1+(i-1)*(r-1)/(e-1):1===e&&t<1?1+(i-1)*(n-1)/(t-1):1;for(var u,o=0,a=1;o<a;){var l=w(t,e,u=(o+a)/2);if(p(i,l))break;l<i?o=u:a=u}return w(n,r,u)}}function A(){return 1}function k(t){return 1===t?1:0}function _(){var t=arguments.length>0&&void 0!==arguments[0]?arguments[0]:1,n=arguments.length>1&&void 0!==arguments[1]?arguments[1]:0;if(1===t){if(0===n)return k;if(1===n)return A}var e=1/t;return function(t){return t>=1?1:(t+=n*e)-t%e}}var S=Math.sin,O=Math.cos,j=Math.acos,M=Math.asin,P=Math.tan,E=Math.atan2,I=Math.PI/180,R=180/Math.PI,F=Math.sqrt,N=function(){function t(){var n=arguments.length>0&&void 0!==arguments[0]?arguments[0]:1,e=arguments.length>1&&void 0!==arguments[1]?arguments[1]:0,i=arguments.length>2&&void 0!==arguments[2]?arguments[2]:0,u=arguments.length>3&&void 0!==arguments[3]?arguments[3]:1,o=arguments.length>4&&void 0!==arguments[4]?arguments[4]:0,a=arguments.length>5&&void 0!==arguments[5]?arguments[5]:0;r(this,t),this.m=[n,e,i,u,o,a],this.i=null,this.w=null,this.s=null}return u(t,[{key:"determinant",get:function(){var t=this.m;return t[0]*t[3]-t[1]*t[2]}},{key:"isIdentity",get:function(){if(null===this.i){var t=this.m;this.i=1===t[0]&&0===t[1]&&0===t[2]&&1===t[3]&&0===t[4]&&0===t[5]}return this.i}},{key:"point",value:function(t,n){var e=this.m;return{x:e[0]*t+e[2]*n+e[4],y:e[1]*t+e[3]*n+e[5]}}},{key:"translateSelf",value:function(){var t=arguments.length>0&&void 0!==arguments[0]?arguments[0]:0,n=arguments.length>1&&void 0!==arguments[1]?arguments[1]:0;if(!t&&!n)return this;var e=this.m;return e[4]+=e[0]*t+e[2]*n,e[5]+=e[1]*t+e[3]*n,this.w=this.s=this.i=null,this}},{key:"rotateSelf",value:function(){var t=arguments.length>0&&void 0!==arguments[0]?arguments[0]:0;if(t%=360){var n=S(t*=I),e=O(t),r=this.m,i=r[0],u=r[1];r[0]=i*e+r[2]*n,r[1]=u*e+r[3]*n,r[2]=r[2]*e-i*n,r[3]=r[3]*e-u*n,this.w=this.s=this.i=null}return this}},{key:"scaleSelf",value:function(){var t=arguments.length>0&&void 0!==arguments[0]?arguments[0]:1,n=arguments.length>1&&void 0!==arguments[1]?arguments[1]:1;if(1!==t||1!==n){var e=this.m;e[0]*=t,e[1]*=t,e[2]*=n,e[3]*=n,this.w=this.s=this.i=null}return this}},{key:"skewSelf",value:function(t,n){if(n%=360,(t%=360)||n){var e=this.m,r=e[0],i=e[1],u=e[2],o=e[3];t&&(t=P(t*I),e[2]+=r*t,e[3]+=i*t),n&&(n=P(n*I),e[0]+=u*n,e[1]+=o*n),this.w=this.s=this.i=null}return this}},{key:"resetSelf",value:function(){var t=arguments.length>0&&void 0!==arguments[0]?arguments[0]:1,n=arguments.length>1&&void 0!==arguments[1]?arguments[1]:0,e=arguments.length>2&&void 0!==arguments[2]?arguments[2]:0,r=arguments.length>3&&void 0!==arguments[3]?arguments[3]:1,i=arguments.length>4&&void 0!==arguments[4]?arguments[4]:0,u=arguments.length>5&&void 0!==arguments[5]?arguments[5]:0,o=this.m;return o[0]=t,o[1]=n,o[2]=e,o[3]=r,o[4]=i,o[5]=u,this.w=this.s=this.i=null,this}},{key:"recomposeSelf",value:function(){var t=arguments.length>0&&void 0!==arguments[0]?arguments[0]:null,n=arguments.length>1&&void 0!==arguments[1]?arguments[1]:null,e=arguments.length>2&&void 0!==arguments[2]?arguments[2]:null,r=arguments.length>3&&void 0!==arguments[3]?arguments[3]:null,i=arguments.length>4&&void 0!==arguments[4]?arguments[4]:null;return this.isIdentity||this.resetSelf(),t&&(t.x||t.y)&&this.translateSelf(t.x,t.y),n&&this.rotateSelf(n),e&&(e.x&&this.skewSelf(e.x,0),e.y&&this.skewSelf(0,e.y)),!r||1===r.x&&1===r.y||this.scaleSelf(r.x,r.y),i&&(i.x||i.y)&&this.translateSelf(i.x,i.y),this}},{key:"decompose",value:function(){var t=arguments.length>0&&void 0!==arguments[0]?arguments[0]:0,n=arguments.length>1&&void 0!==arguments[1]?arguments[1]:0,e=this.m,r=e[0]*e[0]+e[1]*e[1],i=[[e[0],e[1]],[e[2],e[3]]],u=F(r);if(0===u)return{origin:{x:d(e[4]),y:d(e[5])},translate:{x:d(t),y:d(n)},scale:{x:0,y:0},skew:{x:0,y:0},rotate:0};i[0][0]/=u,i[0][1]/=u;var o=e[0]*e[3]-e[1]*e[2]<0;o&&(u=-u);var a=i[0][0]*i[1][0]+i[0][1]*i[1][1];i[1][0]-=i[0][0]*a,i[1][1]-=i[0][1]*a;var l=F(i[1][0]*i[1][0]+i[1][1]*i[1][1]);if(0===l)return{origin:{x:d(e[4]),y:d(e[5])},translate:{x:d(t),y:d(n)},scale:{x:d(u),y:0},skew:{x:0,y:0},rotate:0};i[1][0]/=l,i[1][1]/=l,a/=l;var s=0;return i[1][1]<0?(s=j(i[1][1])*R,i[0][1]<0&&(s=360-s)):s=M(i[0][1])*R,o&&(s=-s),a=E(a,F(i[0][0]*i[0][0]+i[0][1]*i[0][1]))*R,o&&(a=-a),{origin:{x:d(e[4]),y:d(e[5])},translate:{x:d(t),y:d(n)},scale:{x:d(u),y:d(l)},skew:{x:d(a),y:0},rotate:d(s)}}},{key:"clone",value:function(){var t=this.m;return new this.constructor(t[0],t[1],t[2],t[3],t[4],t[5])}},{key:"toString",value:function(){var t=arguments.length>0&&void 0!==arguments[0]?arguments[0]:" ";if(null===this.s){var n=this.m.map((function(t){return d(t)}));1===n[0]&&0===n[1]&&0===n[2]&&1===n[3]?this.s="translate("+n[4]+t+n[5]+")":this.s="matrix("+n.join(t)+")"}return this.s}}],[{key:"create",value:function(t){return t?Array.isArray(t)?f(this,v(t)):t instanceof this?t.clone():(new this).recomposeSelf(t.origin,t.rotate,t.skew,t.scale,t.translate):new this}}]),t}();function T(t,n,e){return t>=.5?e:n}function q(t,n,e){return 0===t||n===e?n:t*(e-n)+n}function B(t,n,e){var r=q(t,n,e);return r<=0?0:r}function L(t,n,e){var r=q(t,n,e);return r<=0?0:r>=1?1:r}function C(t,n,e){return 0===t?n:1===t?e:{x:q(t,n.x,e.x),y:q(t,n.y,e.y)}}function D(t,n,e){var r=function(t,n,e){return Math.round(q(t,n,e))}(t,n,e);return r<=0?0:r>=255?255:r}function z(t,n,e){return 0===t?n:1===t?e:{r:D(t,n.r,e.r),g:D(t,n.g,e.g),b:D(t,n.b,e.b),a:q(t,null==n.a?1:n.a,null==e.a?1:e.a)}}function V(t,n){for(var e=[],r=0;r<t;r++)e.push(n);return e}function G(t,n){if(--n<=0)return t;var e=(t=Object.assign([],t)).length;do{for(var r=0;r<e;r++)t.push(t[r])}while(--n>0);return t}var Y,$=function(){function t(n){r(this,t),this.list=n,this.length=n.length}return u(t,[{key:"setAttribute",value:function(t,n){for(var e=this.list,r=0;r<this.length;r++)e[r].setAttribute(t,n)}},{key:"removeAttribute",value:function(t){for(var n=this.list,e=0;e<this.length;e++)n[e].removeAttribute(t)}},{key:"style",value:function(t,n){for(var e=this.list,r=0;r<this.length;r++)e[r].style[t]=n}}]),t}(),U=/-./g,Q=function(t,n){return n.toUpperCase()};function H(t){return"function"==typeof t?t:T}function J(t){return t?"function"==typeof t?t:Array.isArray(t)?function(t){var n=arguments.length>1&&void 0!==arguments[1]?arguments[1]:b;if(!Array.isArray(t))return n;switch(t.length){case 1:return _(t[0])||n;case 2:return _(t[0],t[1])||n;case 4:return x(t[0],t[1],t[2],t[3])||n}return n}(t,null):function(t,n){var e=arguments.length>2&&void 0!==arguments[2]?arguments[2]:b;switch(t){case"linear":return b;case"steps":return _(n.steps||1,n.jump||0)||e;case"bezier":case"cubic-bezier":return x(n.x1||0,n.y1||0,n.x2||0,n.y2||0)||e}return e}(t.type,t.value,null):null}function Z(t,n,e){var r=arguments.length>3&&void 0!==arguments[3]&&arguments[3],i=n.length-1;if(t<=n[0].t)return r?[0,0,n[0].v]:n[0].v;if(t>=n[i].t)return r?[i,1,n[i].v]:n[i].v;var u,o=n[0],a=null;for(u=1;u<=i;u++){if(!(t>n[u].t)){a=n[u];break}o=n[u]}return null==a?r?[i,1,n[i].v]:n[i].v:o.t===a.t?r?[u,1,a.v]:a.v:(t=(t-o.t)/(a.t-o.t),o.e&&(t=o.e(t)),r?[u,t,e(t,o.v,a.v)]:e(t,o.v,a.v))}function K(t,n){var e=arguments.length>2&&void 0!==arguments[2]?arguments[2]:null;return t&&t.length?"function"!=typeof n?null:("function"!=typeof e&&(e=null),function(r){var i=Z(r,t,n);return null!=i&&e&&(i=e(i)),i}):null}function W(t,n){return t.t-n.t}function X(t,n,r,i,u){var o,a="@"===r[0],l="#"===r[0],s=Y[r],f=T;switch(a?(o=r.substr(1),r=o.replace(U,Q)):l&&(r=r.substr(1)),e(s)){case"function":if(f=s(i,u,Z,J,r,a,n,t),l)return f;break;case"string":f=K(i,H(s));break;case"object":if((f=K(i,H(s.i),s.f))&&"function"==typeof s.u)return s.u(n,f,r,a,t)}return f?function(t,n,e){if(arguments.length>3&&void 0!==arguments[3]&&arguments[3])return t instanceof $?function(r){return t.style(n,e(r))}:function(r){return t.style[n]=e(r)};if(Array.isArray(n)){var r=n.length;return function(i){var u=e(i);if(null==u)for(var o=0;o<r;o++)t[o].removeAttribute(n);else for(var a=0;a<r;a++)t[a].setAttribute(n,u)}}return function(r){var i=e(r);null==i?t.removeAttribute(n):t.setAttribute(n,i)}}(n,r,f,a):null}function tt(t,n,r,i){if(!i||"object"!==e(i))return null;var u=null,o=null;return Array.isArray(i)?o=function(t){if(!t||!t.length)return null;for(var n=0;n<t.length;n++)t[n].e&&(t[n].e=J(t[n].e));return t.sort(W)}(i):(o=i.keys,u=i.data||null),o?X(t,n,r,o,u):null}function nt(t,n,e){if(!e)return null;var r=[];for(var i in e)if(e.hasOwnProperty(i)){var u=tt(t,n,i,e[i]);u&&r.push(u)}return r.length?r:null}function et(t,n){if(!n.settings.duration||n.settings.duration<0)return null;var e,r,i,u,o,a=function(t,n){if(!n)return null;var e=[];if(Array.isArray(n))for(var r=n.length,i=0;i<r;i++){var u=n[i];if(2===u.length){var o=null;if("string"==typeof u[0])o=t.getElementById(u[0]);else if(Array.isArray(u[0])){o=[];for(var a=0;a<u[0].length;a++)if("string"==typeof u[0][a]){var l=t.getElementById(u[0][a]);l&&o.push(l)}o=o.length?1===o.length?o[0]:new $(o):null}if(o){var s=nt(t,o,u[1]);s&&(e=e.concat(s))}}}else for(var f in n)if(n.hasOwnProperty(f)){var c=t.getElementById(f);if(c){var h=nt(t,c,n[f]);h&&(e=e.concat(h))}}return e.length?e:null}(t,n.elements);return a?(e=a,r=n.settings,i=r.duration,u=e.length,o=null,function(t,n){var a=r.iterations||1/0,l=(r.alternate&&a%2==0)^r.direction>0?i:0,s=t%i,f=1+(t-s)/i;n*=r.direction,r.alternate&&f%2==0&&(n=-n);var c=!1;if(f>a)s=l,c=!0,-1===r.fill&&(s=r.direction>0?0:i);else if(n<0&&(s=i-s),s===o)return!1;o=s;for(var h=0;h<u;h++)e[h](s);return c}):null}function rt(t,n){if(Y=n,!t||!t.root||!Array.isArray(t.animations))return null;var e=function(t){for(var n=document.getElementsByTagName("svg"),e=0;e<n.length;e++)if(n[e].id===t.root&&!n[e].svgatorAnimation)return n[e].svgatorAnimation=!0,n[e];return null}(t);if(!e)return null;var r=t.animations.map((function(t){return et(e,t)})).filter((function(t){return!!t}));return r.length?{svg:e,animations:r,animationSettings:t.animationSettings,options:t.options||void 0}:null}function it(t){return+("0x"+(t.replace(/[^0-9a-fA-F]+/g,"")||27))}function ut(t,n,e){return!t||!e||n>t.length?t:t.substring(0,n)+ut(t.substring(n+1),e,e)}function ot(t){var n=arguments.length>1&&void 0!==arguments[1]?arguments[1]:27;return!t||t%n?t%n:ot(t/n,n)}function at(t,n,e){if(t&&t.length){var r=it(e),i=it(n),u=ot(r)+5,o=ut(t,ot(r,5),u);return o=o.replace(/\x7c$/g,"==").replace(/\x2f$/g,"="),o=function(t,n,e){var r=+("0x"+t.substring(0,4));t=t.substring(4);for(var i=n%r+e%27,u=[],o=0;o<t.length;o+=2)if("|"!==t[o]){var a=+("0x"+t[o]+t[o+1])-i;u.push(a)}else{var l=+("0x"+t.substring(o+1,o+1+4))-i;o+=3,u.push(l)}return String.fromCharCode.apply(String,u)}(o=(o=atob(o)).replace(/[\x41-\x5A]/g,""),i,r),o=JSON.parse(o)}}var lt=[{key:"alternate",def:!1},{key:"fill",def:1},{key:"iterations",def:0},{key:"direction",def:1},{key:"speed",def:1},{key:"fps",def:100}],st=function(){function t(n,e){var i=this,u=arguments.length>2&&void 0!==arguments[2]?arguments[2]:null;r(this,t),this._id=0,this._running=!1,this._rollingBack=!1,this._animations=n,this._settings=e,(!u||u<"2022-05-02")&&delete this._settings.speed,lt.forEach((function(t){i._settings[t.key]=i._settings[t.key]||t.def})),this.duration=e.duration,this.offset=e.offset||0,this.rollbackStartOffset=0}return u(t,[{key:"alternate",get:function(){return this._settings.alternate}},{key:"fill",get:function(){return this._settings.fill}},{key:"iterations",get:function(){return this._settings.iterations}},{key:"direction",get:function(){return this._settings.direction}},{key:"speed",get:function(){return this._settings.speed}},{key:"fps",get:function(){return this._settings.fps}},{key:"maxFiniteDuration",get:function(){return this.iterations>0?this.iterations*this.duration:this.duration}},{key:"_apply",value:function(t){for(var n=arguments.length>1&&void 0!==arguments[1]?arguments[1]:{},e=this._animations,r=e.length,i=0,u=0;u<r;u++)n[u]?i++:(n[u]=e[u](t,1),n[u]&&i++);return i}},{key:"_rollback",value:function(t){var n=this,e=1/0,r=null;this.rollbackStartOffset=t,this._rollingBack=!0,this._running=!0;this._id=window.requestAnimationFrame((function i(u){if(n._rollingBack){null==r&&(r=u);var o=Math.round(t-(u-r)*n.speed);if(o>n.duration&&e!==1/0){var a=!!n.alternate&&o/n.duration%2>1,l=o%n.duration;o=(l+=a?n.duration:0)||n.duration}var s=(n.fps?1e3/n.fps:0)*n.speed,f=Math.max(0,o);f<e-s&&(n.offset=f,e=f,n._apply(f));var c=n.iterations>0&&-1===n.fill&&o>=n.maxFiniteDuration;(o<=0||n.offset<o||c)&&n.stop(),n._id=window.requestAnimationFrame(i)}}))}},{key:"_start",value:function(){var t=this,n=arguments.length>0&&void 0!==arguments[0]?arguments[0]:0,e=-1/0,r=null,i={};this._running=!0;var u=function u(o){null==r&&(r=o);var a=Math.round((o-r)*t.speed+n),l=(t.fps?1e3/t.fps:0)*t.speed;if(a>e+l&&!t._rollingBack&&(t.offset=a,e=a,t._apply(a,i)===t._animations.length))return void t.pause(!0);t._id=window.requestAnimationFrame(u)};this._id=window.requestAnimationFrame(u)}},{key:"_pause",value:function(){this._id&&window.cancelAnimationFrame(this._id),this._running=!1}},{key:"play",value:function(){if(!this._running)return this._rollingBack?this._rollback(this.offset):this._start(this.offset)}},{key:"stop",value:function(){this._pause(),this.offset=0,this.rollbackStartOffset=0,this._rollingBack=!1,this._apply(0)}},{key:"reachedToEnd",value:function(){return this.iterations>0&&this.offset>=this.iterations*this.duration}},{key:"restart",value:function(){var t=arguments.length>0&&void 0!==arguments[0]&&arguments[0];this.stop(t),this.play(t)}},{key:"pause",value:function(){this._pause()}},{key:"reverse",value:function(){this.direction=-this.direction}}],[{key:"build",value:function(t,n){delete t.animationSettings,t.options=at(t.options,t.root,"5c7f360c"),t.animations.map((function(n){n.settings=at(n.s,t.root,"5c7f360c"),delete n.s,t.animationSettings||(t.animationSettings=n.settings)}));var e=t.version;if(!(t=rt(t,n)))return null;var r=t.options||{},i=new this(t.animations,t.animationSettings,e);return{el:t.svg,options:r,player:i}}},{key:"push",value:function(t){return this.build(t)}},{key:"init",value:function(){var t=this,n=window.__SVGATOR_PLAYER__&&window.__SVGATOR_PLAYER__["5c7f360c"];Array.isArray(n)&&n.splice(0).forEach((function(n){return t.build(n)}))}}]),t}();function ft(t){return d(t)+""}function ct(t){var n=arguments.length>1&&void 0!==arguments[1]?arguments[1]:" ";return t&&t.length?t.map(ft).join(n):""}function ht(t){if(!t)return"transparent";if(null==t.a||t.a>=1){var n=function(t){return 1===(t=parseInt(t).toString(16)).length?"0"+t:t},e=function(t){return t.charAt(0)===t.charAt(1)},r=n(t.r),i=n(t.g),u=n(t.b);return e(r)&&e(i)&&e(u)&&(r=r.charAt(0),i=i.charAt(0),u=u.charAt(0)),"#"+r+i+u}return"rgba("+t.r+","+t.g+","+t.b+","+t.a+")"}function vt(t){return t?"url(#"+t+")":"none"}!function(){for(var t=0,n=["ms","moz","webkit","o"],e=0;e<n.length&&!window.requestAnimationFrame;++e)window.requestAnimationFrame=window[n[e]+"RequestAnimationFrame"],window.cancelAnimationFrame=window[n[e]+"CancelAnimationFrame"]||window[n[e]+"CancelRequestAnimationFrame"];window.requestAnimationFrame||(window.requestAnimationFrame=function(n){var e=Date.now(),r=Math.max(0,16-(e-t)),i=window.setTimeout((function(){n(e+r)}),r);return t=e+r,i},window.cancelAnimationFrame=window.clearTimeout)}();var yt={f:null,i:function(t,n,e){return 0===t?n:1===t?e:{x:B(t,n.x,e.x),y:B(t,n.y,e.y)}},u:function(t,n){return function(e){var r=n(e);t.setAttribute("rx",ft(r.x)),t.setAttribute("ry",ft(r.y))}}},gt={f:null,i:function(t,n,e){return 0===t?n:1===t?e:{width:B(t,n.width,e.width),height:B(t,n.height,e.height)}},u:function(t,n){return function(e){var r=n(e);t.setAttribute("width",ft(r.width)),t.setAttribute("height",ft(r.height))}}};Object.freeze({M:2,L:2,Z:0,H:1,V:1,C:6,Q:4,T:2,S:4,A:7});var dt={},pt=null;function mt(t){var n=function(){if(pt)return pt;if("object"!==("undefined"==typeof document?"undefined":e(document))||!document.createElementNS)return{};var t=document.createElementNS("http://www.w3.org/2000/svg","svg");return t&&t.style?(t.style.position="absolute",t.style.opacity="0.01",t.style.zIndex="-9999",t.style.left="-9999px",t.style.width="1px",t.style.height="1px",pt={svg:t}):{}}().svg;if(!n)return function(t){return null};var r=document.createElementNS(n.namespaceURI,"path");r.setAttributeNS(null,"d",t),r.setAttributeNS(null,"fill","none"),r.setAttributeNS(null,"stroke","none"),n.appendChild(r);var i=r.getTotalLength();return function(t){var n=r.getPointAtLength(i*t);return{x:n.x,y:n.y}}}function bt(t){return dt[t]?dt[t]:dt[t]=mt(t)}function wt(t,n,e,r){if(!t||!r)return!1;var i=["M",t.x,t.y];if(n&&e&&(i.push("C"),i.push(n.x),i.push(n.y),i.push(e.x),i.push(e.y)),n?!e:e){var u=n||e;i.push("Q"),i.push(u.x),i.push(u.y)}return n||e||i.push("L"),i.push(r.x),i.push(r.y),i.join(" ")}function xt(t,n,e,r){var i=arguments.length>4&&void 0!==arguments[4]?arguments[4]:1,u=wt(t,n,e,r),o=bt(u);try{return o(i)}catch(t){return null}}function At(t,n,e){return t+(n-t)*e}function kt(t,n,e){var r=arguments.length>3&&void 0!==arguments[3]&&arguments[3],i={x:At(t.x,n.x,e),y:At(t.y,n.y,e)};return r&&(i.a=_t(t,n)),i}function _t(t,n){return Math.atan2(n.y-t.y,n.x-t.x)}function St(t,n,e,r){var i=1-r;return i*i*t+2*i*r*n+r*r*e}function Ot(t,n,e,r){return 2*(1-r)*(n-t)+2*r*(e-n)}function jt(t,n,e,r){var i=arguments.length>4&&void 0!==arguments[4]&&arguments[4],u=xt(t,n,null,e,r);return u||(u={x:St(t.x,n.x,e.x,r),y:St(t.y,n.y,e.y,r)}),i&&(u.a=Mt(t,n,e,r)),u}function Mt(t,n,e,r){return Math.atan2(Ot(t.y,n.y,e.y,r),Ot(t.x,n.x,e.x,r))}function Pt(t,n,e,r,i){var u=i*i;return i*u*(r-t+3*(n-e))+3*u*(t+e-2*n)+3*i*(n-t)+t}function Et(t,n,e,r,i){var u=1-i;return 3*(u*u*(n-t)+2*u*i*(e-n)+i*i*(r-e))}function It(t,n,e,r,i){var u=arguments.length>5&&void 0!==arguments[5]&&arguments[5],o=xt(t,n,e,r,i);return o||(o={x:Pt(t.x,n.x,e.x,r.x,i),y:Pt(t.y,n.y,e.y,r.y,i)}),u&&(o.a=Rt(t,n,e,r,i)),o}function Rt(t,n,e,r,i){return Math.atan2(Et(t.y,n.y,e.y,r.y,i),Et(t.x,n.x,e.x,r.x,i))}function Ft(t,n,e){var r=arguments.length>3&&void 0!==arguments[3]&&arguments[3];if(Tt(n)){if(qt(e))return jt(n,e.start,e,t,r)}else if(Tt(e)){if(Bt(n))return jt(n,n.end,e,t,r)}else{if(Bt(n))return qt(e)?It(n,n.end,e.start,e,t,r):jt(n,n.end,e,t,r);if(qt(e))return jt(n,e.start,e,t,r)}return kt(n,e,t,r)}function Nt(t,n,e){var r=Ft(t,n,e,!0);return r.a=function(t){return arguments.length>1&&void 0!==arguments[1]&&arguments[1]?t+Math.PI:t}(r.a)/m,r}function Tt(t){return!t.type||"corner"===t.type}function qt(t){return null!=t.start&&!Tt(t)}function Bt(t){return null!=t.end&&!Tt(t)}var Lt=new N;var Ct={f:ft,i:q},Dt={f:ft,i:L};function zt(t,n,e){return t.map((function(t){return function(t,n,e){var r=t.v;if(!r||"g"!==r.t||r.s||!r.v||!r.r)return t;var i=e.getElementById(r.r),u=i&&i.querySelectorAll("stop")||[];return r.s=r.v.map((function(t,n){var e=u[n]&&u[n].getAttribute("offset");return{c:t,o:e=d(parseInt(e)/100)}})),delete r.v,t}(t,0,e)}))}var Vt={gt:"gradientTransform",c:{x:"cx",y:"cy"},rd:"r",f:{x:"x1",y:"y1"},to:{x:"x2",y:"y2"}};function Gt(t,n,r,i,u,o,a,l){return zt(t,0,l),n=function(t,n,e){for(var r,i,u,o=t.length-1,a={},l=0;l<=o;l++)(r=t[l]).e&&(r.e=n(r.e)),r.v&&"g"===(i=r.v).t&&i.r&&(u=e.getElementById(i.r))&&(a[i.r]={e:u,s:u.querySelectorAll("stop")});return a}(t,i,l),function(i){var u=r(i,t,Yt);if(!u)return"none";if("c"===u.t)return ht(u.v);if("g"===u.t){if(!n[u.r])return vt(u.r);var o=n[u.r];return function(t,n){for(var e=t.s,r=e.length;r<n.length;r++){var i=e[e.length-1].cloneNode();i.id=Qt(i.id),t.e.appendChild(i),e=t.s=t.e.querySelectorAll("stop")}for(var u=0,o=e.length,a=n.length-1;u<o;u++)e[u].setAttribute("stop-color",ht(n[Math.min(u,a)].c)),e[u].setAttribute("offset",n[Math.min(u,a)].o)}(o,u.s),Object.keys(Vt).forEach((function(t){if(void 0!==u[t])if("object"!==e(Vt[t])){var n,r="gt"===t?(n=u[t],Array.isArray(n)?"matrix("+n.join(" ")+")":""):u[t],i=Vt[t];o.e.setAttribute(i,r)}else Object.keys(Vt[t]).forEach((function(n){if(void 0!==u[t][n]){var e=u[t][n],r=Vt[t][n];o.e.setAttribute(r,e)}}))})),vt(u.r)}return"none"}}function Yt(t,e,r){if(0===t)return e;if(1===t)return r;if(e&&r){var i=e.t;if(i===r.t)switch(e.t){case"c":return{t:i,v:z(t,e.v,r.v)};case"g":if(e.r===r.r){var u={t:i,s:$t(t,e.s,r.s),r:e.r};return e.gt&&r.gt&&(u.gt=function(t,n,e){var r=n.length;if(r!==e.length)return T(t,n,e);for(var i=new Array(r),u=0;u<r;u++)i[u]=q(t,n[u],e[u]);return i}(t,e.gt,r.gt)),e.c?(u.c=C(t,e.c,r.c),u.rd=B(t,e.rd,r.rd)):e.f&&(u.f=C(t,e.f,r.f),u.to=C(t,e.to,r.to)),u}}if("c"===e.t&&"g"===r.t||"c"===r.t&&"g"===e.t){var o="c"===e.t?e:r,a="g"===e.t?n({},e):n({},r),l=a.s.map((function(t){return{c:o.v,o:t.o}}));return a.s="c"===e.t?$t(t,l,a.s):$t(t,a.s,l),a}}return T(t,e,r)}function $t(t,n,e){if(n.length===e.length)return n.map((function(n,r){return Ut(t,n,e[r])}));for(var r=Math.max(n.length,e.length),i=[],u=0;u<r;u++){var o=Ut(t,n[Math.min(u,n.length-1)],e[Math.min(u,e.length-1)]);i.push(o)}return i}function Ut(t,n,e){return{o:L(t,n.o,e.o||0),c:z(t,n.c,e.c||{})}}function Qt(t){return t.replace(/-fill-([0-9]+)$/,(function(t,n){return"-fill-"+(+n+1)}))}var Ht={fill:Gt,"fill-opacity":Dt,stroke:Gt,"stroke-opacity":Dt,"stroke-width":Ct,"stroke-dashoffset":{f:ft,i:q},"stroke-dasharray":{f:function(t){var n=arguments.length>1&&void 0!==arguments[1]?arguments[1]:" ";return t&&t.length>0&&(t=t.map((function(t){return d(t,4)}))),ct(t,n)},i:function(t,n,e){var r,i,u,o=n.length,a=e.length;if(o!==a)if(0===o)n=V(o=a,0);else if(0===a)a=o,e=V(o,0);else{var l=(u=(r=o)*(i=a)/function(t,n){for(var e;n;)e=n,n=t%n,t=e;return t||1}(r,i))<0?-u:u;n=G(n,Math.floor(l/o)),e=G(e,Math.floor(l/a)),o=a=l}for(var s=[],f=0;f<o;f++)s.push(d(B(t,n[f],e[f])));return s}},opacity:Dt,transform:function(t,n,r,i){if(!(t=function(t,n){if(!t||"object"!==e(t))return null;var r=!1;for(var i in t)t.hasOwnProperty(i)&&(t[i]&&t[i].length?(t[i].forEach((function(t){t.e&&(t.e=n(t.e))})),r=!0):delete t[i]);return r?t:null}(t,i)))return null;var u=function(e,i,u){var o=arguments.length>3&&void 0!==arguments[3]?arguments[3]:null;return t[e]?r(i,t[e],u):n&&n[e]?n[e]:o};return n&&n.a&&t.o?function(n){var e=r(n,t.o,Nt);return Lt.recomposeSelf(e,u("r",n,q,0)+e.a,u("k",n,C),u("s",n,C),u("t",n,C)).toString()}:function(t){return Lt.recomposeSelf(u("o",t,Ft,null),u("r",t,q,0),u("k",t,C),u("s",t,C),u("t",t,C)).toString()}},r:Ct,"#size":gt,"#radius":yt,_:function(t,n){if(Array.isArray(t))for(var e=0;e<t.length;e++)this[t[e]]=n;else this[t]=n}},Jt=function(t){!function(t,n){if("function"!=typeof n&&null!==n)throw new TypeError("Super expression must either be null or a function");t.prototype=Object.create(n&&n.prototype,{constructor:{value:t,writable:!0,configurable:!0}}),n&&l(t,n)}(o,t);var n,e,i=(n=o,e=s(),function(){var t,r=a(n);if(e){var i=a(this).constructor;t=Reflect.construct(r,arguments,i)}else t=r.apply(this,arguments);return c(this,t)});function o(){return r(this,o),i.apply(this,arguments)}return u(o,null,[{key:"build",value:function(t){var n=h(a(o),"build",this).call(this,t,Ht);if(!n)return null;n.el,n.options,function(t,n,e){t.play()}(n.player)}}]),o}(st);return Jt.init(),Jt}));
(function(s,i,o,w,a,b){w[o]=w[o]||{};w[o][s]=w[o][s]||[];w[o][s].push(i);})('5c7f360c',{"root":"eTErqGDkY0I1","version":"2022-05-04","animations":[{"elements":{"eTErqGDkY0I4":{"transform":{"data":{"o":{"x":176.469528,"y":150.4335,"type":"corner"},"s":{"x":0.848121,"y":0.848121},"t":{"x":-176.469528,"y":-158.184375}},"keys":{"r":[{"t":0,"v":0},{"t":200,"v":-12.317576},{"t":400,"v":2.798638},{"t":700,"v":0},{"t":900,"v":-12.317576},{"t":1100,"v":2.798638}]}}},"eTErqGDkY0I8":{"transform":{"data":{"o":{"x":88.0165,"y":134.990909,"type":"corner"},"s":{"x":0.91896,"y":0.91896},"t":{"x":-87.61768,"y":-143.166004}},"keys":{"r":[{"t":0,"v":0},{"t":200,"v":7.864029},{"t":400,"v":-2.357477},{"t":700,"v":0},{"t":900,"v":7.864029},{"t":1100,"v":-2.357477}]}}},"eTErqGDkY0I12":{"transform":{"data":{"o":{"x":38.301965,"y":81.165803,"type":"corner"},"s":{"x":0.86927,"y":0.86927},"t":{"x":-40.483885,"y":-84.969799}},"keys":{"r":[{"t":0,"v":-0.95206},{"t":200,"v":5.496843},{"t":400,"v":-8.659764},{"t":700,"v":-0.95206},{"t":900,"v":5.496843},{"t":1100,"v":-8.659764}]}}},"eTErqGDkY0I31":{"transform":{"data":{"o":{"x":221.96478,"y":89.541767,"type":"corner"},"s":{"x":0.908169,"y":0.908169},"t":{"x":-223.146415,"y":-98.81435}},"keys":{"r":[{"t":0,"v":0},{"t":200,"v":-3.740704},{"t":400,"v":-0.450584},{"t":700,"v":0},{"t":900,"v":-3.740704},{"t":1100,"v":-0.450584}]}}}},"s":"MRDA1MzlkNDQ4Njk3OTNQ4Mzk2OGI5MTkwNDQS1YzUzNTY1MjUyNGU0PNDg2OGI5NFY4Nzg1OGTY4YjkxOTBUNDQ1YzPUzNGU0NDhiOTY4NzkI0ODM5NjhiQzkxOTA5NNTQ0NWNUNTI0ZTQ0OBDg4YjhlOGU0NDVjNTAM0ZTQ0ODM4ZTk2ODcX5NDkwODNLOTY4NzQ0NNWM4ODgzOGU5NTg3TYDRlNDQ5NTkyODc4NzHg2NDRUNWM1Mzlm"}],"options":"MTDAxMDg4MmY4MDgxSENs2ZTdmVTgxMmZCNDcCyZjc5N2M2ZTcxUDJmEOGFZ"},'__SVGATOR_PLAYER__',window)]]></script></svg>