<svg id="envVCFhqb211" xmlns="http://www.w3.org/2000/svg" xmlns:xlink="http://www.w3.org/1999/xlink" viewBox="0 0 506 506" shape-rendering="geometricPrecision" text-rendering="geometricPrecision" width="506" height="506"><path d="M75.4363,108.167L114.394,92.4996L183.032,75.736l23.674-10.7619h14.397v28.3735L219.407,150.98l-19.289,11.83-78.102,31.316-50.9838,16.937-9.1455-16.937l13.5496-85.959Z" transform="translate(0 35)" fill="#fff"/><path d="M312.722,298.31v28.922l25.83,8.19l3.71-35.795-29.54-1.317Z" transform="translate(0 35)" fill="#fff"/><path d="M312.722,298.31h-2.099v30.459l29.751,9.431l4.203-40.574-33.954-1.508v2.192h2.099l-.094,2.095l27.32,1.218-3.219,31.02-21.913-6.943v-27.39h-2.094l-.094,2.095.094-2.095Z" transform="translate(0 35)" fill="#231f20"/><path d="M335.834,320.467c0,0-28.111-15.56-50.272-3.617-22.161,11.942-48.257,41.229-48.257,41.229s22.657,47.574,34.623,55.154l13.634-12.912c0,0-4.502,41.572,10.617,48.182c15.119,6.611,127.545-3.462,127.545-3.462l-4.723-78.758c0,0-70.892-47.222-83.167-45.816Z" transform="translate(0 35)" fill="#2f3841"/><path d="M335.834,320.467l1.017-1.837c-3.134-1.644-6.385-3.054-9.727-4.217-5.884-2.08-13.891-4.179-22.489-4.184-6.592,0-13.559,1.247-20.071,4.761-5.692,3.078-11.563,7.21-17.19,11.684-7.744,6.26-15.133,12.947-22.133,20.03-5.8,5.814-9.501,9.96-9.52,9.984l-.937,1.04.6,1.256c0,0,5.692,11.942,12.893,24.831c3.603,6.456,7.586,13.151,11.456,18.741c1.753,2.587,3.651,5.074,5.683,7.449c1.846,2.113,3.603,3.805,5.383,4.934l1.377.871l14.82-14.055-1.443-1.523-2.085-.225c0,.047-.637,5.899-.642,13.615c0,6.484.44,14.271,2.132,21.135.743,3.29,1.978,6.449,3.663,9.37.803,1.339,1.777,2.567,2.896,3.655c1.11,1.07,2.399,1.938,3.809,2.563c1.398.558,2.855.955,4.343,1.185c3.173.5,6.372.813,9.581.937c3.748.197,8.082.286,12.781.286c19.069,0,44.51-1.434,65.214-2.863c20.703-1.429,36.647-2.858,36.656-2.858l2.029-.183-4.901-81.733-.866-.576c0,0-17.242-11.479-36.222-22.957-9.487-5.744-19.41-11.493-27.872-15.827-4.216-2.169-8.1-3.987-11.399-5.28-1.481-.592-2.993-1.102-4.53-1.527-1.219-.358-2.479-.555-3.748-.586-.273,0-.545.014-.816.042l.239,2.085l1.017-1.837-.998,1.814.244,2.085c.11-.009.222-.009.332,0c.899.038,1.79.188,2.652.445c2.915.866,5.757,1.963,8.499,3.279c5.96,2.722,13.362,6.705,21.083,11.137c11.582,6.648,23.895,14.308,33.293,20.306c4.685,2.998,8.682,5.58,11.484,7.411c1.405.938,2.506,1.645,3.279,2.142l.867.571.295.197l1.162-1.748-2.094.127l4.723,78.734l2.094-.126-.188-2.09-.721.061c-3.561.314-19.893,1.724-39.773,3.06-19.879,1.335-43.309,2.586-61.001,2.581-6.194,0-11.68-.15-16.032-.501-2.174-.178-4.067-.403-5.599-.675-1.16-.173-2.298-.473-3.392-.895-.961-.429-1.84-1.024-2.596-1.757-1.555-1.585-2.778-3.464-3.598-5.528-1.485-3.453-2.455-7.796-3.027-12.299-.538-4.407-.801-8.843-.787-13.282c0-3.748.155-7.028.309-9.408.075-1.181.155-2.127.211-2.774.028-.323.052-.571.07-.74c0-.084,0-.145,0-.187v-.057l.614-5.669-17.752,16.82l1.443,1.546l1.12-1.775c-1.669-1.172-3.171-2.566-4.465-4.142-2.961-3.392-6.325-8.26-9.656-13.611-4.999-8.03-9.947-17.166-13.634-24.283-1.846-3.561-3.374-6.615-4.442-8.775-.534-1.083-.937-1.945-1.237-2.53-.145-.295-.253-.52-.323-.67l-.112-.23-1.874.904l1.564,1.406c.371-.417,6.953-7.745,16.132-16.398c4.586-4.329,9.838-8.991,15.24-13.287c5.402-4.297,11.029-8.218,16.314-11.071c5.768-3.111,12.008-4.255,18.08-4.255c7.909,0,15.504,1.959,21.084,3.941c2.811.988,5.088,1.977,6.671,2.717.792.37,1.406.675,1.823.886.206.103.361.187.468.243l.113.056.187-.337-.187.337.187-.337-.187.337.586.324.67-.075-.216-2.141Z" transform="translate(0 35)" fill="#231f20"/><path d="M283.421,469.582c0,0,5.772-18.825,24.621-18.853c18.848-.028,100.309-8.34,106.105-4.901s16.66,27.057,16.66,27.057l-147.386-3.303Z" transform="translate(0 35)"/><path d="M212.707,56.0817c-7.871.6325-135.1017,44.4063-135.1017,44.4063-14.1305,4.84-15.7469,15.119-15.7469,17.635s-5.6362,77.156-6.5733,90.073c-.937,12.917,8.185,12.593,14.168,11.647s152.2259-59.366,154.6109-65.19c2.469-5.983,5.351-70.8538,6.616-87.861s-10.083-11.3381-17.973-10.7103Zm2.127,23.4634c-1.021,13.9384-3.387,67.1009-5.406,72.0069-1.968,4.774-121.8151,52.652-126.7205,53.411s-12.3923,1.031-11.6192-9.553c.773-10.584,5.4207-71.721,5.4207-73.801c0-2.081,1.3259-10.481,12.903-14.454c0,0,104.273-35.8699,110.725-36.3899c6.451-.5201,15.742-5.1725,14.711,8.78h-.014Z" transform="translate(0 35)" fill="#8c8c8c"/><path d="M68.8021,240.945c0,0,55.4259,45.662,72.4329,57.314s59.207-15.428,75.9-24.246c16.693-8.817,85.027-42.518,88.175-49.447c3.149-6.93-67.392-61.095-71.172-63.297-3.781-2.202-14.487,0-22.363,4.409-7.876,4.408-137.5662,55.111-140.7428,59.211-3.1766,4.099-7.5853,6.606-2.2301,16.056Z" transform="translate(0 35)" fill="#8c8c8c"/><path d="M88.2362,239.254c0,0,46.2238,38.081,60.4058,47.789c14.182,9.707,49.377-12.866,63.297-20.222c13.92-7.355,70.91-35.457,73.558-41.229c2.647-5.772-56.223-50.952-59.357-52.788-3.134-1.837-12.083,0-18.647,3.673s-114.7263,45.966-117.3968,49.382c-2.6706,3.415-6.325,5.514-1.86,13.395Z" transform="translate(0 35)" fill="#bcbec0"/><path d="M314.99,221.558c0,0,15.512-27.54,56.456-11.793s49.129,86.292,53.852,97.311c4.722,11.02,25.511,43.146,25.511,51.65c0,8.503-16.399,12.912-12.599,26.452c3.8,13.541,6.611,27.399-6.297,34.961-12.907,7.562-46.927,14.178-57.946,15.743-11.02,1.564-33.429-7.558-39.548-26.453c0,0-29.849-.314-27.745-24.878c2.103-24.565,30.791-63.958,31.859-69.772s-23.543-93.221-23.543-93.221Z" transform="translate(0 35)" fill="#231f20"/><path d="M294.178,280.31c0,0-20.043-34.642-25.084-36.217-5.042-1.574-40.761-19.209-38.32-26.771s21.631,2.376,25.407,2.919c3.777.544,6.189-9.216,3.875-16.435-2.315-7.22-26.902-12.28-29.4-13.541-2.497-1.26-5.336-10.71,8.204-12.912c0,0-7.243-10.078,4.095-10.392c6.803-.192,10.429.642,12.247,1.336.14.053.291.069.439.048s.288-.08.407-.171c.119-.09.213-.209.273-.346s.085-.287.071-.436c-.309-2.994,1.284-8.04,18.999-.468c0,0-1.406-7.534,10.171-2.179s38.016,61.414,38.016,61.414l-29.4,54.151Z" transform="translate(0 35)" fill="#fff"/><path d="M294.178,280.31l1.818-1.05c0,0-5.046-8.691-10.701-17.597-2.839-4.451-5.833-8.958-8.475-12.5-1.142-1.566-2.368-3.067-3.674-4.498-.505-.551-1.049-1.066-1.625-1.541-.263-.214-.54-.409-.83-.586-.304-.186-.63-.336-.969-.445-.216-.066-.6-.206-1.078-.403-.909-.365-2.188-.937-3.706-1.635-7.061-3.319-13.909-7.074-20.502-11.245-3.063-1.909-5.956-4.077-8.649-6.479-.895-.808-1.696-1.713-2.39-2.699-.21-.308-.385-.638-.524-.984-.073-.174-.114-.36-.122-.548-.008-.043-.008-.088,0-.131.064-.214.171-.414.314-.586.098-.113.213-.209.342-.286.289-.172.606-.292.937-.356.498-.099,1.005-.146,1.513-.14c1.726.058,3.439.324,5.102.792c2.92.782,5.796,1.721,8.616,2.811c1.326.496,2.544.96,3.589,1.33.52.183,1.003.342,1.443.469.417.13.843.231,1.274.3.201.028.403.042.605.042.641,0,1.274-.146,1.851-.426.466-.233.895-.533,1.274-.891.637-.618,1.166-1.338,1.565-2.131.654-1.298,1.127-2.679,1.405-4.105.32-1.593.477-3.214.469-4.839.013-2.31-.325-4.609-1.003-6.817-.221-.682-.547-1.325-.965-1.907-.819-1.104-1.814-2.065-2.947-2.844-2.286-1.553-4.739-2.843-7.314-3.847-4.023-1.594-8.129-2.975-12.298-4.137-1.846-.534-3.481-.984-4.727-1.344-.628-.183-1.153-.338-1.551-.469l-.469-.164-.14-.051h-.033l-.042.079.042-.079-.042.079.042-.079-.113.22.141-.206h-.028l-.113.22.141-.206-.061-.052c-.261-.287-.462-.623-.59-.988-.208-.54-.315-1.113-.314-1.692-.003-.573.107-1.141.323-1.672.468-1.059,1.252-1.948,2.244-2.544c1.261-.83,3.177-1.603,5.969-2.053l3.345-.548-1.977-2.745-.974.698.974-.698-.974.698.974-.698v-.028c-.403-.595-.757-1.222-1.059-1.874-.234-.487-.428-.991-.581-1.509-.141-.456-.219-.929-.229-1.406-.006-.273.04-.545.136-.801.064-.154.156-.296.272-.417.323-.305.715-.529,1.143-.651.902-.276,1.84-.416,2.783-.417.652-.019,1.277-.028,1.874-.028c5.402,0,8.264.721,9.581,1.227l.15.057-.145-.057c.339.132.7.198,1.063.197.773.001,1.516-.3,2.071-.838.287-.276.515-.606.671-.972.156-.365.237-.758.238-1.156.005-.099.005-.199,0-.299-.015-.131-.023-.262-.023-.394-.005-.235.026-.468.093-.693.037-.119.094-.229.169-.328.155-.198.366-.344.604-.422.613-.217,1.262-.315,1.912-.29c1.686.071,3.356.356,4.971.848c2.827.802,5.597,1.798,8.288,2.979l3.603,1.542-.712-3.851-1.307.243l1.307-.22v-.023l-1.307.243l1.307-.22-.333.056.337-.051-.332.056.337-.052c-.002-.032-.002-.065,0-.098c0-.061,0-.15,0-.248-.002-.185.017-.368.056-.549.027-.108.066-.214.117-.313.054-.107.139-.194.244-.249.321-.148.673-.214,1.026-.192.75.023,1.493.145,2.212.361c1.231.359,2.431.816,3.588,1.368.677.341,1.307.768,1.874,1.27c1.771,1.6,3.38,3.372,4.803,5.289c3.106,4.011,6.559,9.413,10.021,15.222c5.154,8.729,10.247,18.394,14.056,25.872c1.897,3.748,3.467,6.929,4.568,9.183.548,1.129.974,2.019,1.27,2.633l.332.698.113.239l1.874-.895-1.846-1.002-29.404,54.16l1.841,1.003l1.818-1.05-1.818,1.05l1.846.998l29.901-55.098-.469-.965c0,0-6.639-14.056-14.73-28.809-4.053-7.379-8.466-14.932-12.65-21.032-1.841-2.756-3.855-5.393-6.03-7.895-.873-.998-1.813-1.937-2.811-2.811-.849-.747-1.795-1.377-2.811-1.874-1.36-.649-2.77-1.187-4.217-1.607-1.081-.318-2.199-.49-3.326-.51-.955-.018-1.902.175-2.774.566-.577.272-1.095.656-1.523,1.13-.53.596-.913,1.309-1.119,2.08-.149.561-.223,1.139-.22,1.719-.003.363.026.725.084,1.083l2.061-.38.83-1.93c-2.878-1.265-5.84-2.33-8.865-3.186-1.989-.585-4.046-.908-6.119-.961-1.066-.018-2.128.14-3.143.469-.66.223-1.276.557-1.823.988-.73.585-1.288,1.355-1.616,2.231-.266.718-.397,1.478-.389,2.244-.001.275.013.551.042.824l1.176-.117h-1.181c-.002.039-.002.078,0,.117l1.176-.117h.066l-1.157-.51c-.068.16-.103.332-.103.506h1.246l-1.143-.506l1.11.468-.642-.993c-.204.126-.366.308-.468.525l1.11.468-.642-.993.665,1.012v-1.209c-.236-.001-.467.067-.665.197l.665,1.012.432-1.139c-.138-.051-.284-.078-.432-.079v1.218l.432-1.139-.16-.061.164.061c-1.954-.745-5.318-1.504-11.085-1.504-.625,0-1.281.01-1.968.029-1.227.013-2.448.187-3.631.515-.746.208-1.458.524-2.113.937-.892.566-1.612,1.367-2.08,2.314-.399.847-.601,1.773-.59,2.708.017.935.175,1.863.468,2.751.346,1.093.809,2.146,1.382,3.139.258.462.54.911.844,1.344l1.7-1.222-.337-2.071c-1.894.282-3.744.806-5.505,1.56-2.024.824-3.775,2.203-5.051,3.978-.981,1.435-1.505,3.134-1.504,4.872c0,1.329.302,2.641.881,3.837.258.535.584,1.034.97,1.486.391.463.868.845,1.406,1.124.152.076.309.145.468.206.309.122.647.234,1.05.361.745.234,1.686.501,2.811.815c1.935.548,4.352,1.223,6.924,2.019c3.885,1.141,7.677,2.578,11.343,4.297c1.438.683,2.797,1.522,4.053,2.502.434.345.828.738,1.176,1.171.229.279.406.596.525.937.546,1.799.816,3.671.801,5.552.001,1.178-.099,2.353-.3,3.514-.2,1.348-.64,2.649-1.298,3.842-.167.29-.384.549-.642.763-.04.032-.084.059-.131.08v.042-.042.042-.042c-.127-.019-.252-.047-.375-.084-.342-.089-.838-.249-1.405-.469-1.036-.361-2.343-.867-3.842-1.405-2.226-.83-4.802-1.767-7.389-2.507-1.297-.37-2.595-.693-3.865-.937-1.223-.239-2.465-.366-3.711-.38-.724-.004-1.447.059-2.159.188-1.08.186-2.1.622-2.98,1.274-.478.351-.897.775-1.242,1.256-.337.488-.599,1.023-.778,1.588-.144.455-.218.929-.22,1.406.013.84.203,1.669.558,2.431.33.723.74,1.407,1.223,2.038c1.049,1.349,2.236,2.585,3.542,3.688c2.825,2.389,5.822,4.567,8.967,6.517c5.06,3.218,10.682,6.297,15.419,8.695c2.343,1.2,4.507,2.226,6.25,3.013.871.394,1.645.731,2.3,1.003.656.271,1.195.468,1.654.613l.108-.351-.136.342h.028l.108-.351-.136.342.038-.094-.038.094.038-.094-.038.094h.042c.29.181.56.391.806.627.978.951,1.886,1.97,2.718,3.051c1.874,2.342,4.09,5.505,6.357,8.901c3.402,5.117,6.906,10.776,9.558,15.18c1.321,2.193,2.436,4.067,3.214,5.388l.909,1.546c.103.178.183.319.239.408l.08.141l1.874,3.237l1.785-3.28-1.865-.96Z" transform="translate(0 35)" fill="#231f20"/><path d="M317.909,221.558c0,0-39.272,17.18-28.453,54.029c13.282,27.399,38.217,25.539,38.217,25.539s.627,16.347,18.576,13.826c17.949-2.52,4.728-20.783,4.728-20.783s-5.679-27.718,13.53-49.134c1.27-9.286-17.311-20.816-46.598-23.477Z" transform="translate(0 35)" fill="#fff"/><path d="M317.909,221.558l-.844-1.921c-5.729,2.726-11.029,6.274-15.733,10.532-4.347,3.858-8.015,8.419-10.851,13.493-3.279,5.941-4.998,12.616-4.994,19.402.025,4.444.687,8.862,1.968,13.118l.051.164.075.16c2.601,5.505,6.16,10.506,10.509,14.767c4.845,4.695,10.732,8.176,17.181,10.158c3.693,1.162,7.537,1.776,11.408,1.822.708,0,1.111-.028,1.157-.033l-.149-2.089-2.099.08c.052.857.171,1.709.356,2.548.279,1.354.698,2.674,1.251,3.941.512,1.189,1.16,2.317,1.93,3.359c1.36,1.855,3.134,3.366,5.182,4.413c2.6,1.274,5.468,1.906,8.363,1.846c1.299-.005,2.597-.1,3.884-.286c1.751-.218,3.463-.678,5.088-1.368c1.015-.441,1.961-1.024,2.811-1.733c1.138-.948,2.026-2.161,2.586-3.533.499-1.264.748-2.614.731-3.973-.026-1.689-.303-3.364-.825-4.971-.671-2.079-1.564-4.08-2.661-5.969-.876-1.532-1.574-2.497-1.607-2.544l-1.696,1.232l2.052-.421-.82.168.82-.168-.82.168.82-.168c-.524-3.07-.77-6.181-.735-9.296-.017-6.026.839-12.022,2.539-17.803c2.202-7.489,6.043-14.393,11.245-20.212l.431-.469.089-.637c.05-.391.075-.786.075-1.181-.016-1.519-.371-3.016-1.04-4.38-1.176-2.465-3.2-4.746-5.913-6.888-4.081-3.204-9.75-6.09-16.773-8.433-8.061-2.595-16.392-4.26-24.832-4.961l-.534-.052-.496.216.843,1.92-.192,2.09c13.948,1.265,25.389,4.587,33.199,8.611c3.903,2.01,6.887,4.194,8.813,6.288.849.892,1.559,1.906,2.108,3.008.406.803.626,1.687.642,2.586c0,.205-.014.41-.042.614l2.047.262-1.56-1.405c-5.617,6.277-9.764,13.727-12.139,21.809-1.813,6.174-2.722,12.578-2.699,19.013-.036,3.396.24,6.788.825,10.134l.089.468.267.366.998-.722-.998.722.998-.722-.998.722.047.065c.884,1.297,1.667,2.66,2.342,4.076.536,1.104.984,2.247,1.34,3.421.346,1.122.533,2.288.558,3.462.011.73-.101,1.457-.333,2.15-.168.484-.411.938-.721,1.345-.597.743-1.357,1.338-2.221,1.738-1.372.635-2.837,1.048-4.339,1.223-1.086.154-2.182.234-3.279.239-3.28,0-5.576-.778-7.309-1.874-1.209-.77-2.251-1.776-3.064-2.956-1.013-1.497-1.74-3.168-2.146-4.929-.138-.57-.243-1.147-.314-1.729-.028-.206-.042-.365-.047-.469-.004-.103,0-.089,0-.107l-.693.032.693-.023-.693.033.693-.024-.084-2.174-2.165.16v.122-.122.122-.122c-.037,0-.332,0-.852,0-5.237-.099-10.393-1.306-15.129-3.542-3.896-1.82-7.461-4.276-10.551-7.267-3.996-3.919-7.262-8.521-9.642-13.587l-1.874.937l1.958-.6c-1.167-3.871-1.773-7.889-1.799-11.933-.003-6.083,1.54-12.068,4.484-17.391c4.048-7.426,10.209-13.02,15.381-16.722c2.101-1.51,4.291-2.892,6.56-4.137.838-.468,1.508-.796,1.963-1.016.229-.113.403-.192.52-.244l.126-.061h.024l-.253-.576.253.576-.253-.576.253.576-.839-1.921-.192,2.09.216-2.127Z" transform="translate(0 35)" fill="#231f20"/><path d="M332.034,224.472l.708-.117-.708.117.708-.117-.708.117c.203,1.47.298,2.953.286,4.437.006,2.615-.275,5.223-.838,7.777-.498,2.278-1.285,4.482-2.343,6.559-1.809,3.531-4.555,6.495-7.937,8.57-3.748,2.342-8.873,4.01-15.873,4.357l.206,4.188c6.705-.332,12.074-1.822,16.337-4.08c2.938-1.554,5.554-3.653,7.707-6.185c2.716-3.276,4.666-7.118,5.707-11.244.841-3.247,1.26-6.588,1.246-9.942.016-1.715-.099-3.428-.342-5.126l-4.137.689h-.019Z" transform="translate(0 35)" fill="#231f20"/><path d="M335.764,257.46l.15-.346-.15.346.15-.346-.15.346c2.34,1.05,4.589,2.293,6.723,3.716c1.608,1.046,3.075,2.293,4.367,3.71.51.566.943,1.196,1.288,1.874.267.529.416,1.109.436,1.701l4.193-.103c-.041-1.178-.335-2.333-.862-3.387-.935-1.79-2.208-3.381-3.748-4.686-2.16-1.855-4.517-3.469-7.028-4.811-2.099-1.153-3.65-1.818-3.692-1.837l-1.658,3.851-.019-.028Z" transform="translate(0 35)" fill="#231f20"/><path d="M292.093,263.34c0,.052,0,.159,0,.314.009.768.138,1.531.384,2.258.302.896.754,1.734,1.336,2.479c1.253,1.539,2.902,2.709,4.769,3.383c2.226.871,5.107,1.405,8.902,1.405h.59l-.042-4.193h-.548c-2.301.06-4.597-.245-6.803-.904-.941-.296-1.827-.747-2.619-1.336-.68-.502-1.21-1.181-1.532-1.963-.146-.356-.227-.735-.239-1.12l-1.077-.042l1.073.089v-.047l-1.078-.042l1.073.089-4.179-.346-.01-.024Z" transform="translate(0 35)" fill="#231f20"/><path d="M334.522,300.021c.109.487.279.96.506,1.405.843,1.606,2.117,2.946,3.678,3.87c2.038,1.27,4.962,2.263,9.089,2.516l.253-4.189c-1.87-.074-3.718-.437-5.477-1.077-1.972-.769-2.914-1.715-3.42-2.394-.189-.246-.347-.516-.468-.801-.022-.054-.041-.109-.057-.164l-.346.093.351-.079-.347.093.352-.079-1.439.323l1.448-.276v-.047l-1.438.323l1.448-.276-4.123.791-.01-.032Z" transform="translate(0 35)" fill="#231f20"/><path d="M271.928,413.233c0,0-30.233,24.565-54.484,25.193-24.25.627-47.868-27.109-49.129-70.25-1.26-43.141-3.148-57.628-3.148-57.628s-13.962-5.243-15.241-19.317s2.31-33.026-18.788-44.411c-8.03-9.183,3.149-11.544,6.456-10.129c0,0-1.874-9.919,9.76-7.717c0,0,4.095-10.865,17.335-3.148c0,0,4.727-6.925,15.433,1.405c10.706,8.331,22.105,25.366,22.746,53.079.642,27.713,23.937,85.659,23.937,85.659l-11.146,17.846c0,0,8.822-18.895,21.627-25.717c0,0,17.424,43.774,34.642,55.135Z" transform="translate(0 35)" fill="#fff"/><path d="M271.928,413.233l-1.321-1.63c-5.826,4.57-11.961,8.731-18.361,12.453-5.456,3.227-11.166,6.004-17.073,8.302-6.006,2.282-12.135,3.814-17.762,3.959h-.759c-5.584,0-11.146-1.602-16.421-4.685-7.909-4.624-15.143-12.617-20.498-23.426s-8.841-24.363-9.3-40.1c-1.298-43.184-3.172-57.731-3.172-57.834l-.164-1.251-1.176-.441-.468,1.195.468-1.195-.468,1.195.468-1.195h-.028c-2.514-1.071-4.84-2.537-6.892-4.343-1.777-1.538-3.293-3.354-4.488-5.378-1.388-2.387-2.229-5.051-2.465-7.801-.304-3.388-.318-7.192-.492-11.179-.105-3.085-.397-6.161-.876-9.211-.787-4.685-2.263-9.427-5.153-13.854-2.891-4.428-7.169-8.49-13.367-11.826l-.994,1.846l1.579-1.382c-.742-.815-1.373-1.726-1.874-2.708-.275-.51-.435-1.075-.468-1.654-.003-.243.047-.483.147-.705.099-.222.246-.419.429-.578.539-.476,1.18-.82,1.874-1.008.795-.248,1.623-.374,2.455-.375.314-.002.627.02.937.066.186.027.369.076.544.145l3.626,1.556-.74-3.88-1.246.239l1.25-.225-1.246.239l1.251-.225c-.057-.356-.083-.716-.079-1.077-.003-.514.052-1.026.164-1.527.087-.386.226-.758.412-1.106.276-.523.7-.953,1.218-1.237.893-.445,1.885-.653,2.881-.604.911.008,1.82.102,2.713.281l1.734.328.618-1.65-.848-.318.843.332-.848-.318.844.333c.396-.886.941-1.697,1.611-2.399.592-.621,1.29-1.13,2.062-1.504.963-.454,2.018-.683,3.083-.67c1.104.014,2.2.194,3.251.534c1.504.483,2.947,1.137,4.301,1.949l1.687.984l1.101-1.617-.792-.538.773.567v-.029l-.792-.538.773.567c.297-.366.65-.682,1.045-.937.391-.258.815-.461,1.261-.605.585-.183,1.195-.275,1.808-.272c1.175.024,2.334.272,3.416.731c1.764.744,3.414,1.735,4.9,2.943c5.107,3.912,10.458,10.002,14.562,18.492s7.06,19.345,7.37,32.923c.139,4.001.552,7.988,1.236,11.933c1.443,8.2,3.334,16.314,5.665,24.307c7.117,25.131,17.171,50.131,17.185,50.131l1.949-.782-1.78-1.111-11.128,17.846l1.776,1.111l1.902.885c1.751-3.556,3.762-6.977,6.016-10.237c1.96-2.88,4.154-5.595,6.559-8.115c2.369-2.531,5.114-4.682,8.139-6.376l-.989-1.851-1.949.787c0,.042,4.395,11.038,10.959,23.506c3.337,6.456,7.093,12.686,11.244,18.651c1.964,2.792,4.108,5.453,6.419,7.965c2.03,2.242,4.316,4.238,6.812,5.946l1.157-1.72-1.321-1.63l1.321,1.63l1.153-1.752c-2.209-1.533-4.231-3.32-6.025-5.322-3.58-3.842-7.141-8.837-10.434-14.15-4.583-7.537-8.725-15.334-12.407-23.351-1.55-3.34-2.811-6.184-3.645-8.185-.426-1.002-.759-1.794-.979-2.342l-.248-.614-.066-.154v-.052l-.909-2.174-2.066,1.106c-3.465,1.928-6.606,4.388-9.309,7.29-3.675,3.924-6.914,8.235-9.661,12.856-2.277,3.748-3.547,6.484-3.57,6.559l3.677,1.996l11.713-18.741-.398-.988c0,0,0-.052-.065-.164-.675-1.682-6.475-16.314-12.182-33.832-2.863-8.785-5.674-18.249-7.819-27.197-1.069-4.461-1.968-8.785-2.619-12.805-.618-3.622-.99-7.282-1.116-10.954-.323-14.135-3.392-25.623-7.796-34.67s-10.129-15.635-15.742-20.006c-1.798-1.445-3.792-2.626-5.922-3.509-1.575-.66-3.263-1.009-4.971-1.031-1.115-.007-2.224.173-3.28.534-1.161.399-2.233,1.023-3.153,1.837-.423.368-.802.785-1.129,1.241l1.729,1.181l1.059-1.808c-3.697-2.16-6.901-3.055-9.666-3.055-2.84-.032-5.582,1.034-7.655,2.975-.895.83-1.663,1.787-2.282,2.839-.285.469-.529.961-.731,1.471l1.959.736.393-2.057c-1.151-.23-2.321-.351-3.495-.361-1.541-.036-3.07.275-4.474.909-.878.412-1.665.995-2.315,1.715-.817.924-1.406,2.026-1.719,3.219-.243.917-.364,1.862-.361,2.811-.007.628.043,1.255.15,1.874l2.061-.394.825-1.925c-.487-.204-.997-.347-1.518-.427-.538-.085-1.081-.127-1.626-.126-.946.004-1.889.114-2.811.328-.733.164-1.448.405-2.132.717-1.088.481-2.05,1.207-2.811,2.122-.849,1.044-1.308,2.351-1.298,3.697.025,1.203.318,2.386.858,3.462.665,1.328,1.508,2.559,2.506,3.659l.249.286.332.178c5.042,2.727,8.509,5.833,10.968,9.164c1.759,2.4,3.121,5.067,4.034,7.899c1.364,4.123,1.874,8.499,2.118,12.866s.215,8.728.581,12.828c.301,3.481,1.396,6.847,3.2,9.839c3.203,5.017,7.866,8.933,13.362,11.221l.736-1.963-2.081.272c.043.351,1.874,14.992,3.13,57.416.637,21.693,6.822,39.661,16.042,52.292c4.615,6.315,9.989,11.3,15.831,14.721c5.843,3.42,12.144,5.261,18.54,5.261h.866c6.405-.173,13.044-1.897,19.439-4.343c9.586-3.673,18.624-8.991,25.3-13.395c6.677-4.404,10.973-7.895,11.01-7.927l2.221-1.804-2.389-1.574-1.167,1.775Z" transform="translate(0 35)" fill="#231f20"/><path d="M137.613,236.691c0,0,23.459,13.221,26.294,25.272l-26.294-25.272Z" transform="translate(0 35)" fill="#fff"/><path d="M136.583,238.518c4.209,2.45,8.252,5.177,12.101,8.162c3.043,2.324,5.866,4.923,8.434,7.763c1.139,1.276,2.161,2.651,3.055,4.109.748,1.201,1.308,2.509,1.663,3.879l4.081-.937c-.456-1.822-1.194-3.561-2.188-5.154-1.916-3.01-4.223-5.753-6.86-8.156-3.772-3.478-7.819-6.644-12.101-9.469-3.556-2.38-6.124-3.828-6.161-3.847l-2.057,3.655.033-.005Z" transform="translate(0 35)" fill="#231f20"/><path d="M145.709,228.347c0,0,23.464,13.221,26.298,25.267l-26.298-25.267Z" transform="translate(0 35)" fill="#fff"/><path d="M144.664,230.174c4.21,2.454,8.254,5.182,12.107,8.166c3.042,2.324,5.864,4.921,8.433,7.759c1.14,1.277,2.164,2.654,3.06,4.113.745,1.203,1.304,2.51,1.658,3.88l4.086-.961c-.46-1.821-1.199-3.56-2.193-5.154-1.914-3.008-4.219-5.75-6.854-8.152-3.773-3.479-7.822-6.646-12.107-9.469-3.556-2.38-6.123-3.827-6.156-3.846l-2.062,3.654.028.01Z" transform="translate(0 35)" fill="#231f20"/><path d="M162.323,224.725c0,0,22.273,15.156,24.063,27.404l-24.063-27.404Z" transform="translate(0 35)" fill="#fff"/><path d="M161.142,226.458c3.989,2.798,7.787,5.856,11.371,9.155c2.838,2.569,5.435,5.392,7.759,8.434c1.029,1.368,1.932,2.826,2.699,4.357.643,1.26,1.09,2.611,1.326,4.006l4.151-.614c-.304-1.851-.894-3.643-1.748-5.313-1.652-3.162-3.717-6.089-6.142-8.705-3.459-3.786-7.219-7.285-11.245-10.462-3.34-2.671-5.777-4.329-5.809-4.353l-2.343,3.467-.019.028Z" transform="translate(0 35)" fill="#231f20"/><path d="M238.86,177.33c0,0,17.007,4.408,26.771,12.279L238.86,177.33Z" transform="translate(0 35)" fill="#fff"/><path d="M238.335,179.358c3.303.903,6.557,1.974,9.75,3.21c2.876,1.097,5.692,2.349,8.434,3.748c2.76,1.383,5.376,3.037,7.81,4.938l2.633-3.28c-2.697-2.111-5.599-3.946-8.663-5.477-4.152-2.085-8.446-3.873-12.851-5.35-3.571-1.209-6.007-1.841-6.044-1.874l-1.054,4.062-.015.023Z" transform="translate(0 35)" fill="#231f20"/><path d="M255.221,168.222c0,0,10.705,9.131,15.114,15.746l-15.114-15.746Z" transform="translate(0 35)" fill="#fff"/><path d="M253.857,169.815l.029.023c.295.253,2.97,2.558,6.09,5.575c1.556,1.509,3.219,3.191,4.742,4.878c1.406,1.52,2.704,3.137,3.884,4.839l3.49-2.342c-1.34-1.935-2.816-3.772-4.418-5.496-2.497-2.75-5.257-5.407-7.403-7.388-2.145-1.982-3.668-3.28-3.682-3.28l-2.722,3.191h-.01Z" transform="translate(0 35)" fill="#231f20"/><path d="M275.39,166.91c0,0,4.409,4.118,6.302,10.106L275.39,166.91Z" transform="translate(0 35)" fill="#fff"/><path d="M273.961,168.442c.843.834,1.617,1.735,2.315,2.694c1.49,1.968,2.649,4.166,3.429,6.507l4.002-1.26c-.943-2.857-2.358-5.536-4.184-7.927-.812-1.096-1.71-2.125-2.685-3.078l-2.863,3.064h-.014Z" transform="translate(0 35)" fill="#231f20"/><path id="envVCFhqb2134" d="M116.277,145.025c.665,8.021-3.247,15.93-8.738,17.626s-10.4714-3.387-11.1367-11.394s3.2515-15.893,8.7377-17.621c5.486-1.729,10.476,3.368,11.137,11.389Z" transform="translate(0 35)" opacity="0" fill="#ee4947"/><path id="envVCFhqb2135" d="M136.953,138.527c.609,7.412-3.941,14.992-8.602,16.464-4.662,1.471-8.93-3.36-9.544-10.776-.614-7.417,2.67-14.59,7.332-16.061s10.2,2.961,10.814,10.373Z" transform="translate(0 35)" opacity="0" fill="#ee4947"/><path id="envVCFhqb2136" d="M156.363,132.408c.516,6.25-4.685,14.501-8.611,15.728-3.926,1.228-7.576-4.217-8.091-10.462-.516-6.245,1.714-14.318,5.622-15.559c3.907-1.242,10.565,4.048,11.08,10.293Z" transform="translate(0 35)" opacity="0" fill="#ee4947"/><path id="envVCFhqb2137" d="M175.643,125.938c.515,6.259-5.786,15.255-9.708,16.487-3.921,1.232-6.058-4.709-6.559-10.959s.192-13.863,4.113-15.105c3.922-1.241,11.638,3.313,12.154,9.577Z" transform="translate(0 35)" opacity="0" fill="#ee4947"/><path id="envVCFhqb2138" d="M178.061,111.732l2.216,26.959l15.198-17.673-17.414-9.286Z" transform="translate(0 35)" opacity="0" fill="#ee4947"/><path id="envVCFhqb2139" d="M305.423,105.782c0,0-35.43-1.406-33.069-7.0886c2.362-5.6832,27.873-7.084,30.234-14.6412s-3.308-42.5181,34.956-50.0753s62.828,36.3758,58.565,56.6907c-4.264,20.3154-16.525,49.5974-51.481,51.0124s-39.205-35.898-39.205-35.898Z" transform="matrix(.110802 0 0 0.110802 297.360777 112.730089)" opacity="0" fill="#ee4947"/><path id="envVCFhqb2140" d="M329.837,81.11c0,0,11.966,11.3381,14.056,10.4995c2.089-.8387,23.304-25.8248,31.704-23.7258c8.401,2.099,4.831,6.0907,3.987,8.4005-.843,2.3098-32.121,36.9478-36.741,36.7408-4.62-.206-20.994-19.9444-22.02-21.6264-1.026-1.6819,2.286-10.0778,9.014-10.2886Z" transform="translate(0 35)" opacity="0" fill="#fff"/><path id="envVCFhqb2141" d="M319.914,238.429c0,.805-.239,1.591-.686,2.26s-1.082,1.19-1.826,1.498c-.743.307-1.561.388-2.35.23-.789-.157-1.514-.545-2.082-1.114-.569-.569-.956-1.294-1.112-2.083-.157-.79-.075-1.607.233-2.35.309-.743.831-1.378,1.5-1.825.669-.446,1.456-.684,2.261-.683.534,0,1.062.106,1.555.31s.941.504,1.319.882c.377.377.676.826.88,1.319.204.494.308,1.022.308,1.556Z" transform="matrix(.564041 0.825747 0 0 137.696365 12.619201)" fill="#231f20"/><path id="envVCFhqb2142" d="M334.147,270.045c0,.804-.238,1.591-.685,2.26-.447.668-1.083,1.19-1.826,1.497-.744.308-1.561.388-2.35.231s-1.514-.545-2.083-1.114c-.568-.57-.955-1.295-1.112-2.084-.156-.789-.075-1.607.234-2.35.308-.743.83-1.378,1.5-1.824.669-.446,1.456-.684,2.26-.683c1.078.001,2.111.43,2.873,1.193.762.762,1.189,1.796,1.189,2.874Z" transform="matrix(.497292 0.867583 0 0 165.934143 18.672428)" fill="#231f20"/><script><![CDATA[!function(t,n){"object"==typeof exports&&"undefined"!=typeof module?module.exports=n():"function"==typeof define&&define.amd?define(n):((t="undefined"!=typeof globalThis?globalThis:t||self).__SVGATOR_PLAYER__=t.__SVGATOR_PLAYER__||{},t.__SVGATOR_PLAYER__["5c7f360c"]=n())}(this,(function(){"use strict";function t(t,n){var e=Object.keys(t);if(Object.getOwnPropertySymbols){var r=Object.getOwnPropertySymbols(t);n&&(r=r.filter((function(n){return Object.getOwnPropertyDescriptor(t,n).enumerable}))),e.push.apply(e,r)}return e}function n(n){for(var e=1;e<arguments.length;e++){var r=null!=arguments[e]?arguments[e]:{};e%2?t(Object(r),!0).forEach((function(t){o(n,t,r[t])})):Object.getOwnPropertyDescriptors?Object.defineProperties(n,Object.getOwnPropertyDescriptors(r)):t(Object(r)).forEach((function(t){Object.defineProperty(n,t,Object.getOwnPropertyDescriptor(r,t))}))}return n}function e(t){return(e="function"==typeof Symbol&&"symbol"==typeof Symbol.iterator?function(t){return typeof t}:function(t){return t&&"function"==typeof Symbol&&t.constructor===Symbol&&t!==Symbol.prototype?"symbol":typeof t})(t)}function r(t,n){if(!(t instanceof n))throw new TypeError("Cannot call a class as a function")}function i(t,n){for(var e=0;e<n.length;e++){var r=n[e];r.enumerable=r.enumerable||!1,r.configurable=!0,"value"in r&&(r.writable=!0),Object.defineProperty(t,r.key,r)}}function u(t,n,e){return n&&i(t.prototype,n),e&&i(t,e),t}function o(t,n,e){return n in t?Object.defineProperty(t,n,{value:e,enumerable:!0,configurable:!0,writable:!0}):t[n]=e,t}function a(t){return(a=Object.setPrototypeOf?Object.getPrototypeOf:function(t){return t.__proto__||Object.getPrototypeOf(t)})(t)}function l(t,n){return(l=Object.setPrototypeOf||function(t,n){return t.__proto__=n,t})(t,n)}function s(){if("undefined"==typeof Reflect||!Reflect.construct)return!1;if(Reflect.construct.sham)return!1;if("function"==typeof Proxy)return!0;try{return Boolean.prototype.valueOf.call(Reflect.construct(Boolean,[],(function(){}))),!0}catch(t){return!1}}function f(t,n,e){return(f=s()?Reflect.construct:function(t,n,e){var r=[null];r.push.apply(r,n);var i=new(Function.bind.apply(t,r));return e&&l(i,e.prototype),i}).apply(null,arguments)}function c(t,n){if(n&&("object"==typeof n||"function"==typeof n))return n;if(void 0!==n)throw new TypeError("Derived constructors may only return object or undefined");return function(t){if(void 0===t)throw new ReferenceError("this hasn't been initialised - super() hasn't been called");return t}(t)}function h(t,n,e){return(h="undefined"!=typeof Reflect&&Reflect.get?Reflect.get:function(t,n,e){var r=function(t,n){for(;!Object.prototype.hasOwnProperty.call(t,n)&&null!==(t=a(t)););return t}(t,n);if(r){var i=Object.getOwnPropertyDescriptor(r,n);return i.get?i.get.call(e):i.value}})(t,n,e||t)}function v(t){return function(t){if(Array.isArray(t))return y(t)}(t)||function(t){if("undefined"!=typeof Symbol&&null!=t[Symbol.iterator]||null!=t["@@iterator"])return Array.from(t)}(t)||function(t,n){if(!t)return;if("string"==typeof t)return y(t,n);var e=Object.prototype.toString.call(t).slice(8,-1);"Object"===e&&t.constructor&&(e=t.constructor.name);if("Map"===e||"Set"===e)return Array.from(t);if("Arguments"===e||/^(?:Ui|I)nt(?:8|16|32)(?:Clamped)?Array$/.test(e))return y(t,n)}(t)||function(){throw new TypeError("Invalid attempt to spread non-iterable instance.\nIn order to be iterable, non-array objects must have a [Symbol.iterator]() method.")}()}function y(t,n){(null==n||n>t.length)&&(n=t.length);for(var e=0,r=new Array(n);e<n;e++)r[e]=t[e];return r}Number.isInteger||(Number.isInteger=function(t){return"number"==typeof t&&isFinite(t)&&Math.floor(t)===t}),Number.EPSILON||(Number.EPSILON=2220446049250313e-31);var g=d(Math.pow(10,-6));function d(t){var n=arguments.length>1&&void 0!==arguments[1]?arguments[1]:6;if(Number.isInteger(t))return t;var e=Math.pow(10,n);return Math.round((+t+Number.EPSILON)*e)/e}function p(t,n){var e=arguments.length>2&&void 0!==arguments[2]?arguments[2]:g;return Math.abs(t-n)<e}var m=Math.PI/180;function b(t){return t}function w(t,n,e){var r=1-e;return 3*e*r*(t*r+n*e)+e*e*e}function x(){var t=arguments.length>0&&void 0!==arguments[0]?arguments[0]:0,n=arguments.length>1&&void 0!==arguments[1]?arguments[1]:0,e=arguments.length>2&&void 0!==arguments[2]?arguments[2]:1,r=arguments.length>3&&void 0!==arguments[3]?arguments[3]:1;return t<0||t>1||e<0||e>1?null:p(t,n)&&p(e,r)?b:function(i){if(i<=0)return t>0?i*n/t:0===n&&e>0?i*r/e:0;if(i>=1)return e<1?1+(i-1)*(r-1)/(e-1):1===e&&t<1?1+(i-1)*(n-1)/(t-1):1;for(var u,o=0,a=1;o<a;){var l=w(t,e,u=(o+a)/2);if(p(i,l))break;l<i?o=u:a=u}return w(n,r,u)}}function A(){return 1}function k(t){return 1===t?1:0}function _(){var t=arguments.length>0&&void 0!==arguments[0]?arguments[0]:1,n=arguments.length>1&&void 0!==arguments[1]?arguments[1]:0;if(1===t){if(0===n)return k;if(1===n)return A}var e=1/t;return function(t){return t>=1?1:(t+=n*e)-t%e}}var S=Math.sin,O=Math.cos,j=Math.acos,M=Math.asin,P=Math.tan,E=Math.atan2,I=Math.PI/180,R=180/Math.PI,F=Math.sqrt,N=function(){function t(){var n=arguments.length>0&&void 0!==arguments[0]?arguments[0]:1,e=arguments.length>1&&void 0!==arguments[1]?arguments[1]:0,i=arguments.length>2&&void 0!==arguments[2]?arguments[2]:0,u=arguments.length>3&&void 0!==arguments[3]?arguments[3]:1,o=arguments.length>4&&void 0!==arguments[4]?arguments[4]:0,a=arguments.length>5&&void 0!==arguments[5]?arguments[5]:0;r(this,t),this.m=[n,e,i,u,o,a],this.i=null,this.w=null,this.s=null}return u(t,[{key:"determinant",get:function(){var t=this.m;return t[0]*t[3]-t[1]*t[2]}},{key:"isIdentity",get:function(){if(null===this.i){var t=this.m;this.i=1===t[0]&&0===t[1]&&0===t[2]&&1===t[3]&&0===t[4]&&0===t[5]}return this.i}},{key:"point",value:function(t,n){var e=this.m;return{x:e[0]*t+e[2]*n+e[4],y:e[1]*t+e[3]*n+e[5]}}},{key:"translateSelf",value:function(){var t=arguments.length>0&&void 0!==arguments[0]?arguments[0]:0,n=arguments.length>1&&void 0!==arguments[1]?arguments[1]:0;if(!t&&!n)return this;var e=this.m;return e[4]+=e[0]*t+e[2]*n,e[5]+=e[1]*t+e[3]*n,this.w=this.s=this.i=null,this}},{key:"rotateSelf",value:function(){var t=arguments.length>0&&void 0!==arguments[0]?arguments[0]:0;if(t%=360){var n=S(t*=I),e=O(t),r=this.m,i=r[0],u=r[1];r[0]=i*e+r[2]*n,r[1]=u*e+r[3]*n,r[2]=r[2]*e-i*n,r[3]=r[3]*e-u*n,this.w=this.s=this.i=null}return this}},{key:"scaleSelf",value:function(){var t=arguments.length>0&&void 0!==arguments[0]?arguments[0]:1,n=arguments.length>1&&void 0!==arguments[1]?arguments[1]:1;if(1!==t||1!==n){var e=this.m;e[0]*=t,e[1]*=t,e[2]*=n,e[3]*=n,this.w=this.s=this.i=null}return this}},{key:"skewSelf",value:function(t,n){if(n%=360,(t%=360)||n){var e=this.m,r=e[0],i=e[1],u=e[2],o=e[3];t&&(t=P(t*I),e[2]+=r*t,e[3]+=i*t),n&&(n=P(n*I),e[0]+=u*n,e[1]+=o*n),this.w=this.s=this.i=null}return this}},{key:"resetSelf",value:function(){var t=arguments.length>0&&void 0!==arguments[0]?arguments[0]:1,n=arguments.length>1&&void 0!==arguments[1]?arguments[1]:0,e=arguments.length>2&&void 0!==arguments[2]?arguments[2]:0,r=arguments.length>3&&void 0!==arguments[3]?arguments[3]:1,i=arguments.length>4&&void 0!==arguments[4]?arguments[4]:0,u=arguments.length>5&&void 0!==arguments[5]?arguments[5]:0,o=this.m;return o[0]=t,o[1]=n,o[2]=e,o[3]=r,o[4]=i,o[5]=u,this.w=this.s=this.i=null,this}},{key:"recomposeSelf",value:function(){var t=arguments.length>0&&void 0!==arguments[0]?arguments[0]:null,n=arguments.length>1&&void 0!==arguments[1]?arguments[1]:null,e=arguments.length>2&&void 0!==arguments[2]?arguments[2]:null,r=arguments.length>3&&void 0!==arguments[3]?arguments[3]:null,i=arguments.length>4&&void 0!==arguments[4]?arguments[4]:null;return this.isIdentity||this.resetSelf(),t&&(t.x||t.y)&&this.translateSelf(t.x,t.y),n&&this.rotateSelf(n),e&&(e.x&&this.skewSelf(e.x,0),e.y&&this.skewSelf(0,e.y)),!r||1===r.x&&1===r.y||this.scaleSelf(r.x,r.y),i&&(i.x||i.y)&&this.translateSelf(i.x,i.y),this}},{key:"decompose",value:function(){var t=arguments.length>0&&void 0!==arguments[0]?arguments[0]:0,n=arguments.length>1&&void 0!==arguments[1]?arguments[1]:0,e=this.m,r=e[0]*e[0]+e[1]*e[1],i=[[e[0],e[1]],[e[2],e[3]]],u=F(r);if(0===u)return{origin:{x:d(e[4]),y:d(e[5])},translate:{x:d(t),y:d(n)},scale:{x:0,y:0},skew:{x:0,y:0},rotate:0};i[0][0]/=u,i[0][1]/=u;var o=e[0]*e[3]-e[1]*e[2]<0;o&&(u=-u);var a=i[0][0]*i[1][0]+i[0][1]*i[1][1];i[1][0]-=i[0][0]*a,i[1][1]-=i[0][1]*a;var l=F(i[1][0]*i[1][0]+i[1][1]*i[1][1]);if(0===l)return{origin:{x:d(e[4]),y:d(e[5])},translate:{x:d(t),y:d(n)},scale:{x:d(u),y:0},skew:{x:0,y:0},rotate:0};i[1][0]/=l,i[1][1]/=l,a/=l;var s=0;return i[1][1]<0?(s=j(i[1][1])*R,i[0][1]<0&&(s=360-s)):s=M(i[0][1])*R,o&&(s=-s),a=E(a,F(i[0][0]*i[0][0]+i[0][1]*i[0][1]))*R,o&&(a=-a),{origin:{x:d(e[4]),y:d(e[5])},translate:{x:d(t),y:d(n)},scale:{x:d(u),y:d(l)},skew:{x:d(a),y:0},rotate:d(s)}}},{key:"clone",value:function(){var t=this.m;return new this.constructor(t[0],t[1],t[2],t[3],t[4],t[5])}},{key:"toString",value:function(){var t=arguments.length>0&&void 0!==arguments[0]?arguments[0]:" ";if(null===this.s){var n=this.m.map((function(t){return d(t)}));1===n[0]&&0===n[1]&&0===n[2]&&1===n[3]?this.s="translate("+n[4]+t+n[5]+")":this.s="matrix("+n.join(t)+")"}return this.s}}],[{key:"create",value:function(t){return t?Array.isArray(t)?f(this,v(t)):t instanceof this?t.clone():(new this).recomposeSelf(t.origin,t.rotate,t.skew,t.scale,t.translate):new this}}]),t}();function T(t,n,e){return t>=.5?e:n}function q(t,n,e){return 0===t||n===e?n:t*(e-n)+n}function B(t,n,e){var r=q(t,n,e);return r<=0?0:r}function L(t,n,e){var r=q(t,n,e);return r<=0?0:r>=1?1:r}function C(t,n,e){return 0===t?n:1===t?e:{x:q(t,n.x,e.x),y:q(t,n.y,e.y)}}function D(t,n,e){var r=function(t,n,e){return Math.round(q(t,n,e))}(t,n,e);return r<=0?0:r>=255?255:r}function z(t,n,e){return 0===t?n:1===t?e:{r:D(t,n.r,e.r),g:D(t,n.g,e.g),b:D(t,n.b,e.b),a:q(t,null==n.a?1:n.a,null==e.a?1:e.a)}}function V(t,n){for(var e=[],r=0;r<t;r++)e.push(n);return e}function G(t,n){if(--n<=0)return t;var e=(t=Object.assign([],t)).length;do{for(var r=0;r<e;r++)t.push(t[r])}while(--n>0);return t}var Y,$=function(){function t(n){r(this,t),this.list=n,this.length=n.length}return u(t,[{key:"setAttribute",value:function(t,n){for(var e=this.list,r=0;r<this.length;r++)e[r].setAttribute(t,n)}},{key:"removeAttribute",value:function(t){for(var n=this.list,e=0;e<this.length;e++)n[e].removeAttribute(t)}},{key:"style",value:function(t,n){for(var e=this.list,r=0;r<this.length;r++)e[r].style[t]=n}}]),t}(),U=/-./g,Q=function(t,n){return n.toUpperCase()};function H(t){return"function"==typeof t?t:T}function J(t){return t?"function"==typeof t?t:Array.isArray(t)?function(t){var n=arguments.length>1&&void 0!==arguments[1]?arguments[1]:b;if(!Array.isArray(t))return n;switch(t.length){case 1:return _(t[0])||n;case 2:return _(t[0],t[1])||n;case 4:return x(t[0],t[1],t[2],t[3])||n}return n}(t,null):function(t,n){var e=arguments.length>2&&void 0!==arguments[2]?arguments[2]:b;switch(t){case"linear":return b;case"steps":return _(n.steps||1,n.jump||0)||e;case"bezier":case"cubic-bezier":return x(n.x1||0,n.y1||0,n.x2||0,n.y2||0)||e}return e}(t.type,t.value,null):null}function Z(t,n,e){var r=arguments.length>3&&void 0!==arguments[3]&&arguments[3],i=n.length-1;if(t<=n[0].t)return r?[0,0,n[0].v]:n[0].v;if(t>=n[i].t)return r?[i,1,n[i].v]:n[i].v;var u,o=n[0],a=null;for(u=1;u<=i;u++){if(!(t>n[u].t)){a=n[u];break}o=n[u]}return null==a?r?[i,1,n[i].v]:n[i].v:o.t===a.t?r?[u,1,a.v]:a.v:(t=(t-o.t)/(a.t-o.t),o.e&&(t=o.e(t)),r?[u,t,e(t,o.v,a.v)]:e(t,o.v,a.v))}function K(t,n){var e=arguments.length>2&&void 0!==arguments[2]?arguments[2]:null;return t&&t.length?"function"!=typeof n?null:("function"!=typeof e&&(e=null),function(r){var i=Z(r,t,n);return null!=i&&e&&(i=e(i)),i}):null}function W(t,n){return t.t-n.t}function X(t,n,r,i,u){var o,a="@"===r[0],l="#"===r[0],s=Y[r],f=T;switch(a?(o=r.substr(1),r=o.replace(U,Q)):l&&(r=r.substr(1)),e(s)){case"function":if(f=s(i,u,Z,J,r,a,n,t),l)return f;break;case"string":f=K(i,H(s));break;case"object":if((f=K(i,H(s.i),s.f))&&"function"==typeof s.u)return s.u(n,f,r,a,t)}return f?function(t,n,e){if(arguments.length>3&&void 0!==arguments[3]&&arguments[3])return t instanceof $?function(r){return t.style(n,e(r))}:function(r){return t.style[n]=e(r)};if(Array.isArray(n)){var r=n.length;return function(i){var u=e(i);if(null==u)for(var o=0;o<r;o++)t[o].removeAttribute(n);else for(var a=0;a<r;a++)t[a].setAttribute(n,u)}}return function(r){var i=e(r);null==i?t.removeAttribute(n):t.setAttribute(n,i)}}(n,r,f,a):null}function tt(t,n,r,i){if(!i||"object"!==e(i))return null;var u=null,o=null;return Array.isArray(i)?o=function(t){if(!t||!t.length)return null;for(var n=0;n<t.length;n++)t[n].e&&(t[n].e=J(t[n].e));return t.sort(W)}(i):(o=i.keys,u=i.data||null),o?X(t,n,r,o,u):null}function nt(t,n,e){if(!e)return null;var r=[];for(var i in e)if(e.hasOwnProperty(i)){var u=tt(t,n,i,e[i]);u&&r.push(u)}return r.length?r:null}function et(t,n){if(!n.settings.duration||n.settings.duration<0)return null;var e,r,i,u,o,a=function(t,n){if(!n)return null;var e=[];if(Array.isArray(n))for(var r=n.length,i=0;i<r;i++){var u=n[i];if(2===u.length){var o=null;if("string"==typeof u[0])o=t.getElementById(u[0]);else if(Array.isArray(u[0])){o=[];for(var a=0;a<u[0].length;a++)if("string"==typeof u[0][a]){var l=t.getElementById(u[0][a]);l&&o.push(l)}o=o.length?1===o.length?o[0]:new $(o):null}if(o){var s=nt(t,o,u[1]);s&&(e=e.concat(s))}}}else for(var f in n)if(n.hasOwnProperty(f)){var c=t.getElementById(f);if(c){var h=nt(t,c,n[f]);h&&(e=e.concat(h))}}return e.length?e:null}(t,n.elements);return a?(e=a,r=n.settings,i=r.duration,u=e.length,o=null,function(t,n){var a=r.iterations||1/0,l=(r.alternate&&a%2==0)^r.direction>0?i:0,s=t%i,f=1+(t-s)/i;n*=r.direction,r.alternate&&f%2==0&&(n=-n);var c=!1;if(f>a)s=l,c=!0,-1===r.fill&&(s=r.direction>0?0:i);else if(n<0&&(s=i-s),s===o)return!1;o=s;for(var h=0;h<u;h++)e[h](s);return c}):null}function rt(t,n){if(Y=n,!t||!t.root||!Array.isArray(t.animations))return null;var e=function(t){for(var n=document.getElementsByTagName("svg"),e=0;e<n.length;e++)if(n[e].id===t.root&&!n[e].svgatorAnimation)return n[e].svgatorAnimation=!0,n[e];return null}(t);if(!e)return null;var r=t.animations.map((function(t){return et(e,t)})).filter((function(t){return!!t}));return r.length?{svg:e,animations:r,animationSettings:t.animationSettings,options:t.options||void 0}:null}function it(t){return+("0x"+(t.replace(/[^0-9a-fA-F]+/g,"")||27))}function ut(t,n,e){return!t||!e||n>t.length?t:t.substring(0,n)+ut(t.substring(n+1),e,e)}function ot(t){var n=arguments.length>1&&void 0!==arguments[1]?arguments[1]:27;return!t||t%n?t%n:ot(t/n,n)}function at(t,n,e){if(t&&t.length){var r=it(e),i=it(n),u=ot(r)+5,o=ut(t,ot(r,5),u);return o=o.replace(/\x7c$/g,"==").replace(/\x2f$/g,"="),o=function(t,n,e){var r=+("0x"+t.substring(0,4));t=t.substring(4);for(var i=n%r+e%27,u=[],o=0;o<t.length;o+=2)if("|"!==t[o]){var a=+("0x"+t[o]+t[o+1])-i;u.push(a)}else{var l=+("0x"+t.substring(o+1,o+1+4))-i;o+=3,u.push(l)}return String.fromCharCode.apply(String,u)}(o=(o=atob(o)).replace(/[\x41-\x5A]/g,""),i,r),o=JSON.parse(o)}}var lt=[{key:"alternate",def:!1},{key:"fill",def:1},{key:"iterations",def:0},{key:"direction",def:1},{key:"speed",def:1},{key:"fps",def:100}],st=function(){function t(n,e){var i=this,u=arguments.length>2&&void 0!==arguments[2]?arguments[2]:null;r(this,t),this._id=0,this._running=!1,this._rollingBack=!1,this._animations=n,this._settings=e,(!u||u<"2022-05-02")&&delete this._settings.speed,lt.forEach((function(t){i._settings[t.key]=i._settings[t.key]||t.def})),this.duration=e.duration,this.offset=e.offset||0,this.rollbackStartOffset=0}return u(t,[{key:"alternate",get:function(){return this._settings.alternate}},{key:"fill",get:function(){return this._settings.fill}},{key:"iterations",get:function(){return this._settings.iterations}},{key:"direction",get:function(){return this._settings.direction}},{key:"speed",get:function(){return this._settings.speed}},{key:"fps",get:function(){return this._settings.fps}},{key:"maxFiniteDuration",get:function(){return this.iterations>0?this.iterations*this.duration:this.duration}},{key:"_apply",value:function(t){for(var n=arguments.length>1&&void 0!==arguments[1]?arguments[1]:{},e=this._animations,r=e.length,i=0,u=0;u<r;u++)n[u]?i++:(n[u]=e[u](t,1),n[u]&&i++);return i}},{key:"_rollback",value:function(t){var n=this,e=1/0,r=null;this.rollbackStartOffset=t,this._rollingBack=!0,this._running=!0;this._id=window.requestAnimationFrame((function i(u){if(n._rollingBack){null==r&&(r=u);var o=Math.round(t-(u-r)*n.speed);if(o>n.duration&&e!==1/0){var a=!!n.alternate&&o/n.duration%2>1,l=o%n.duration;o=(l+=a?n.duration:0)||n.duration}var s=(n.fps?1e3/n.fps:0)*n.speed,f=Math.max(0,o);f<e-s&&(n.offset=f,e=f,n._apply(f));var c=n.iterations>0&&-1===n.fill&&o>=n.maxFiniteDuration;(o<=0||n.offset<o||c)&&n.stop(),n._id=window.requestAnimationFrame(i)}}))}},{key:"_start",value:function(){var t=this,n=arguments.length>0&&void 0!==arguments[0]?arguments[0]:0,e=-1/0,r=null,i={};this._running=!0;var u=function u(o){null==r&&(r=o);var a=Math.round((o-r)*t.speed+n),l=(t.fps?1e3/t.fps:0)*t.speed;if(a>e+l&&!t._rollingBack&&(t.offset=a,e=a,t._apply(a,i)===t._animations.length))return void t.pause(!0);t._id=window.requestAnimationFrame(u)};this._id=window.requestAnimationFrame(u)}},{key:"_pause",value:function(){this._id&&window.cancelAnimationFrame(this._id),this._running=!1}},{key:"play",value:function(){if(!this._running)return this._rollingBack?this._rollback(this.offset):this._start(this.offset)}},{key:"stop",value:function(){this._pause(),this.offset=0,this.rollbackStartOffset=0,this._rollingBack=!1,this._apply(0)}},{key:"reachedToEnd",value:function(){return this.iterations>0&&this.offset>=this.iterations*this.duration}},{key:"restart",value:function(){var t=arguments.length>0&&void 0!==arguments[0]&&arguments[0];this.stop(t),this.play(t)}},{key:"pause",value:function(){this._pause()}},{key:"reverse",value:function(){this.direction=-this.direction}}],[{key:"build",value:function(t,n){delete t.animationSettings,t.options=at(t.options,t.root,"5c7f360c"),t.animations.map((function(n){n.settings=at(n.s,t.root,"5c7f360c"),delete n.s,t.animationSettings||(t.animationSettings=n.settings)}));var e=t.version;if(!(t=rt(t,n)))return null;var r=t.options||{},i=new this(t.animations,t.animationSettings,e);return{el:t.svg,options:r,player:i}}},{key:"push",value:function(t){return this.build(t)}},{key:"init",value:function(){var t=this,n=window.__SVGATOR_PLAYER__&&window.__SVGATOR_PLAYER__["5c7f360c"];Array.isArray(n)&&n.splice(0).forEach((function(n){return t.build(n)}))}}]),t}();function ft(t){return d(t)+""}function ct(t){var n=arguments.length>1&&void 0!==arguments[1]?arguments[1]:" ";return t&&t.length?t.map(ft).join(n):""}function ht(t){if(!t)return"transparent";if(null==t.a||t.a>=1){var n=function(t){return 1===(t=parseInt(t).toString(16)).length?"0"+t:t},e=function(t){return t.charAt(0)===t.charAt(1)},r=n(t.r),i=n(t.g),u=n(t.b);return e(r)&&e(i)&&e(u)&&(r=r.charAt(0),i=i.charAt(0),u=u.charAt(0)),"#"+r+i+u}return"rgba("+t.r+","+t.g+","+t.b+","+t.a+")"}function vt(t){return t?"url(#"+t+")":"none"}!function(){for(var t=0,n=["ms","moz","webkit","o"],e=0;e<n.length&&!window.requestAnimationFrame;++e)window.requestAnimationFrame=window[n[e]+"RequestAnimationFrame"],window.cancelAnimationFrame=window[n[e]+"CancelAnimationFrame"]||window[n[e]+"CancelRequestAnimationFrame"];window.requestAnimationFrame||(window.requestAnimationFrame=function(n){var e=Date.now(),r=Math.max(0,16-(e-t)),i=window.setTimeout((function(){n(e+r)}),r);return t=e+r,i},window.cancelAnimationFrame=window.clearTimeout)}();var yt={f:null,i:function(t,n,e){return 0===t?n:1===t?e:{x:B(t,n.x,e.x),y:B(t,n.y,e.y)}},u:function(t,n){return function(e){var r=n(e);t.setAttribute("rx",ft(r.x)),t.setAttribute("ry",ft(r.y))}}},gt={f:null,i:function(t,n,e){return 0===t?n:1===t?e:{width:B(t,n.width,e.width),height:B(t,n.height,e.height)}},u:function(t,n){return function(e){var r=n(e);t.setAttribute("width",ft(r.width)),t.setAttribute("height",ft(r.height))}}};Object.freeze({M:2,L:2,Z:0,H:1,V:1,C:6,Q:4,T:2,S:4,A:7});var dt={},pt=null;function mt(t){var n=function(){if(pt)return pt;if("object"!==("undefined"==typeof document?"undefined":e(document))||!document.createElementNS)return{};var t=document.createElementNS("http://www.w3.org/2000/svg","svg");return t&&t.style?(t.style.position="absolute",t.style.opacity="0.01",t.style.zIndex="-9999",t.style.left="-9999px",t.style.width="1px",t.style.height="1px",pt={svg:t}):{}}().svg;if(!n)return function(t){return null};var r=document.createElementNS(n.namespaceURI,"path");r.setAttributeNS(null,"d",t),r.setAttributeNS(null,"fill","none"),r.setAttributeNS(null,"stroke","none"),n.appendChild(r);var i=r.getTotalLength();return function(t){var n=r.getPointAtLength(i*t);return{x:n.x,y:n.y}}}function bt(t){return dt[t]?dt[t]:dt[t]=mt(t)}function wt(t,n,e,r){if(!t||!r)return!1;var i=["M",t.x,t.y];if(n&&e&&(i.push("C"),i.push(n.x),i.push(n.y),i.push(e.x),i.push(e.y)),n?!e:e){var u=n||e;i.push("Q"),i.push(u.x),i.push(u.y)}return n||e||i.push("L"),i.push(r.x),i.push(r.y),i.join(" ")}function xt(t,n,e,r){var i=arguments.length>4&&void 0!==arguments[4]?arguments[4]:1,u=wt(t,n,e,r),o=bt(u);try{return o(i)}catch(t){return null}}function At(t,n,e){return t+(n-t)*e}function kt(t,n,e){var r=arguments.length>3&&void 0!==arguments[3]&&arguments[3],i={x:At(t.x,n.x,e),y:At(t.y,n.y,e)};return r&&(i.a=_t(t,n)),i}function _t(t,n){return Math.atan2(n.y-t.y,n.x-t.x)}function St(t,n,e,r){var i=1-r;return i*i*t+2*i*r*n+r*r*e}function Ot(t,n,e,r){return 2*(1-r)*(n-t)+2*r*(e-n)}function jt(t,n,e,r){var i=arguments.length>4&&void 0!==arguments[4]&&arguments[4],u=xt(t,n,null,e,r);return u||(u={x:St(t.x,n.x,e.x,r),y:St(t.y,n.y,e.y,r)}),i&&(u.a=Mt(t,n,e,r)),u}function Mt(t,n,e,r){return Math.atan2(Ot(t.y,n.y,e.y,r),Ot(t.x,n.x,e.x,r))}function Pt(t,n,e,r,i){var u=i*i;return i*u*(r-t+3*(n-e))+3*u*(t+e-2*n)+3*i*(n-t)+t}function Et(t,n,e,r,i){var u=1-i;return 3*(u*u*(n-t)+2*u*i*(e-n)+i*i*(r-e))}function It(t,n,e,r,i){var u=arguments.length>5&&void 0!==arguments[5]&&arguments[5],o=xt(t,n,e,r,i);return o||(o={x:Pt(t.x,n.x,e.x,r.x,i),y:Pt(t.y,n.y,e.y,r.y,i)}),u&&(o.a=Rt(t,n,e,r,i)),o}function Rt(t,n,e,r,i){return Math.atan2(Et(t.y,n.y,e.y,r.y,i),Et(t.x,n.x,e.x,r.x,i))}function Ft(t,n,e){var r=arguments.length>3&&void 0!==arguments[3]&&arguments[3];if(Tt(n)){if(qt(e))return jt(n,e.start,e,t,r)}else if(Tt(e)){if(Bt(n))return jt(n,n.end,e,t,r)}else{if(Bt(n))return qt(e)?It(n,n.end,e.start,e,t,r):jt(n,n.end,e,t,r);if(qt(e))return jt(n,e.start,e,t,r)}return kt(n,e,t,r)}function Nt(t,n,e){var r=Ft(t,n,e,!0);return r.a=function(t){return arguments.length>1&&void 0!==arguments[1]&&arguments[1]?t+Math.PI:t}(r.a)/m,r}function Tt(t){return!t.type||"corner"===t.type}function qt(t){return null!=t.start&&!Tt(t)}function Bt(t){return null!=t.end&&!Tt(t)}var Lt=new N;var Ct={f:ft,i:q},Dt={f:ft,i:L};function zt(t,n,e){return t.map((function(t){return function(t,n,e){var r=t.v;if(!r||"g"!==r.t||r.s||!r.v||!r.r)return t;var i=e.getElementById(r.r),u=i&&i.querySelectorAll("stop")||[];return r.s=r.v.map((function(t,n){var e=u[n]&&u[n].getAttribute("offset");return{c:t,o:e=d(parseInt(e)/100)}})),delete r.v,t}(t,0,e)}))}var Vt={gt:"gradientTransform",c:{x:"cx",y:"cy"},rd:"r",f:{x:"x1",y:"y1"},to:{x:"x2",y:"y2"}};function Gt(t,n,r,i,u,o,a,l){return zt(t,0,l),n=function(t,n,e){for(var r,i,u,o=t.length-1,a={},l=0;l<=o;l++)(r=t[l]).e&&(r.e=n(r.e)),r.v&&"g"===(i=r.v).t&&i.r&&(u=e.getElementById(i.r))&&(a[i.r]={e:u,s:u.querySelectorAll("stop")});return a}(t,i,l),function(i){var u=r(i,t,Yt);if(!u)return"none";if("c"===u.t)return ht(u.v);if("g"===u.t){if(!n[u.r])return vt(u.r);var o=n[u.r];return function(t,n){for(var e=t.s,r=e.length;r<n.length;r++){var i=e[e.length-1].cloneNode();i.id=Qt(i.id),t.e.appendChild(i),e=t.s=t.e.querySelectorAll("stop")}for(var u=0,o=e.length,a=n.length-1;u<o;u++)e[u].setAttribute("stop-color",ht(n[Math.min(u,a)].c)),e[u].setAttribute("offset",n[Math.min(u,a)].o)}(o,u.s),Object.keys(Vt).forEach((function(t){if(void 0!==u[t])if("object"!==e(Vt[t])){var n,r="gt"===t?(n=u[t],Array.isArray(n)?"matrix("+n.join(" ")+")":""):u[t],i=Vt[t];o.e.setAttribute(i,r)}else Object.keys(Vt[t]).forEach((function(n){if(void 0!==u[t][n]){var e=u[t][n],r=Vt[t][n];o.e.setAttribute(r,e)}}))})),vt(u.r)}return"none"}}function Yt(t,e,r){if(0===t)return e;if(1===t)return r;if(e&&r){var i=e.t;if(i===r.t)switch(e.t){case"c":return{t:i,v:z(t,e.v,r.v)};case"g":if(e.r===r.r){var u={t:i,s:$t(t,e.s,r.s),r:e.r};return e.gt&&r.gt&&(u.gt=function(t,n,e){var r=n.length;if(r!==e.length)return T(t,n,e);for(var i=new Array(r),u=0;u<r;u++)i[u]=q(t,n[u],e[u]);return i}(t,e.gt,r.gt)),e.c?(u.c=C(t,e.c,r.c),u.rd=B(t,e.rd,r.rd)):e.f&&(u.f=C(t,e.f,r.f),u.to=C(t,e.to,r.to)),u}}if("c"===e.t&&"g"===r.t||"c"===r.t&&"g"===e.t){var o="c"===e.t?e:r,a="g"===e.t?n({},e):n({},r),l=a.s.map((function(t){return{c:o.v,o:t.o}}));return a.s="c"===e.t?$t(t,l,a.s):$t(t,a.s,l),a}}return T(t,e,r)}function $t(t,n,e){if(n.length===e.length)return n.map((function(n,r){return Ut(t,n,e[r])}));for(var r=Math.max(n.length,e.length),i=[],u=0;u<r;u++){var o=Ut(t,n[Math.min(u,n.length-1)],e[Math.min(u,e.length-1)]);i.push(o)}return i}function Ut(t,n,e){return{o:L(t,n.o,e.o||0),c:z(t,n.c,e.c||{})}}function Qt(t){return t.replace(/-fill-([0-9]+)$/,(function(t,n){return"-fill-"+(+n+1)}))}var Ht={fill:Gt,"fill-opacity":Dt,stroke:Gt,"stroke-opacity":Dt,"stroke-width":Ct,"stroke-dashoffset":{f:ft,i:q},"stroke-dasharray":{f:function(t){var n=arguments.length>1&&void 0!==arguments[1]?arguments[1]:" ";return t&&t.length>0&&(t=t.map((function(t){return d(t,4)}))),ct(t,n)},i:function(t,n,e){var r,i,u,o=n.length,a=e.length;if(o!==a)if(0===o)n=V(o=a,0);else if(0===a)a=o,e=V(o,0);else{var l=(u=(r=o)*(i=a)/function(t,n){for(var e;n;)e=n,n=t%n,t=e;return t||1}(r,i))<0?-u:u;n=G(n,Math.floor(l/o)),e=G(e,Math.floor(l/a)),o=a=l}for(var s=[],f=0;f<o;f++)s.push(d(B(t,n[f],e[f])));return s}},opacity:Dt,transform:function(t,n,r,i){if(!(t=function(t,n){if(!t||"object"!==e(t))return null;var r=!1;for(var i in t)t.hasOwnProperty(i)&&(t[i]&&t[i].length?(t[i].forEach((function(t){t.e&&(t.e=n(t.e))})),r=!0):delete t[i]);return r?t:null}(t,i)))return null;var u=function(e,i,u){var o=arguments.length>3&&void 0!==arguments[3]?arguments[3]:null;return t[e]?r(i,t[e],u):n&&n[e]?n[e]:o};return n&&n.a&&t.o?function(n){var e=r(n,t.o,Nt);return Lt.recomposeSelf(e,u("r",n,q,0)+e.a,u("k",n,C),u("s",n,C),u("t",n,C)).toString()}:function(t){return Lt.recomposeSelf(u("o",t,Ft,null),u("r",t,q,0),u("k",t,C),u("s",t,C),u("t",t,C)).toString()}},r:Ct,"#size":gt,"#radius":yt,_:function(t,n){if(Array.isArray(t))for(var e=0;e<t.length;e++)this[t[e]]=n;else this[t]=n}},Jt=function(t){!function(t,n){if("function"!=typeof n&&null!==n)throw new TypeError("Super expression must either be null or a function");t.prototype=Object.create(n&&n.prototype,{constructor:{value:t,writable:!0,configurable:!0}}),n&&l(t,n)}(o,t);var n,e,i=(n=o,e=s(),function(){var t,r=a(n);if(e){var i=a(this).constructor;t=Reflect.construct(r,arguments,i)}else t=r.apply(this,arguments);return c(this,t)});function o(){return r(this,o),i.apply(this,arguments)}return u(o,null,[{key:"build",value:function(t){var n=h(a(o),"build",this).call(this,t,Ht);if(!n)return null;n.el,n.options,function(t,n,e){t.play()}(n.player)}}]),o}(st);return Jt.init(),Jt}));
(function(s,i,o,w,a,b){w[o]=w[o]||{};w[o][s]=w[o][s]||[];w[o][s].push(i);})('5c7f360c',{"root":"envVCFhqb211","version":"2022-05-04","animations":[{"elements":{"envVCFhqb2134":{"opacity":[{"t":0,"v":0},{"t":100,"v":1}]},"envVCFhqb2135":{"opacity":[{"t":0,"v":0},{"t":200,"v":1}]},"envVCFhqb2136":{"opacity":[{"t":0,"v":0},{"t":300,"v":1}]},"envVCFhqb2137":{"opacity":[{"t":0,"v":0},{"t":400,"v":1}]},"envVCFhqb2138":{"opacity":[{"t":0,"v":0},{"t":500,"v":1}]},"envVCFhqb2139":{"transform":{"data":{"o":{"x":334.414581,"y":122.415951,"type":"corner"},"t":{"x":-334.414581,"y":-87.415951}},"keys":{"s":[{"t":0,"v":{"x":0.110802,"y":0.110802}},{"t":500,"v":{"x":0.110802,"y":0.110802}},{"t":600,"v":{"x":0.966512,"y":0.966512}}]}},"opacity":[{"t":0,"v":0},{"t":490,"v":0},{"t":500,"v":0.963667},{"t":600,"v":0.98}]},"envVCFhqb2140":{"opacity":[{"t":0,"v":0},{"t":580,"v":0},{"t":600,"v":1}]},"envVCFhqb2141":{"transform":{"data":{"o":{"x":315.847092,"y":273.428909,"type":"corner"},"r":55.664273,"t":{"x":-315.847092,"y":-238.428909}},"keys":{"s":[{"t":200,"v":{"x":1,"y":0}},{"t":300,"v":{"x":1,"y":1}},{"t":400,"v":{"x":1,"y":0}},{"t":500,"v":{"x":1,"y":1}}]}}},"envVCFhqb2142":{"transform":{"data":{"o":{"x":330.080338,"y":305.044662,"type":"corner"},"r":60.179022,"t":{"x":-330.080338,"y":-270.044662}},"keys":{"s":[{"t":200,"v":{"x":1,"y":0}},{"t":300,"v":{"x":1,"y":1}},{"t":400,"v":{"x":1,"y":0}},{"t":500,"v":{"x":1,"y":1}}]}}}},"s":"MRDA1MzllNDU4Nzk4OTJU4NDk3OGNJOTI5MTQD1TzVkNTQ1N1M1MzUzCNGY0NTg3OGM5NU84OYDg2OTc4YzkyOTE0NTLVkNTQ0ZjQ1OGM5NzgK4OTU4NDk3OGM5MjkxKOTY0NTVkNTM0ZjQ1OIDk4YzhmOGY0NTVkNTARYNGY0NTg0OGY5NzgI4OTU5MTg0OTc4ODQ1FNWQ4OVM4NDhmSDk2OKDg0ZjQ1OTY5Mzg4ODSg4NzQ1NWQ1NGEw"}],"options":"MNDAxMDg4MmY4MEY4MTRZlN2Y4MTJmNDcyZkMQ3OTdjTTZlNzEyZjhhU"},'__SVGATOR_PLAYER__',window)]]></script></svg>