<svg cache-id="8f99d71dde174bb4927aa6d866ab5c74" id="eswybLBDQqa1" xmlns="http://www.w3.org/2000/svg" xmlns:xlink="http://www.w3.org/1999/xlink" viewBox="0 0 407 390" shape-rendering="geometricPrecision" text-rendering="geometricPrecision" width="407" height="390"><g transform="translate(-8 0)" clip-path="url(#eswybLBDQqa26)"><g><path d="M8.05569,1.69177L288.559,6.39285c0,0,10.586,75.82335,8.256,77.00915s-63.164,0-63.164,0L144.485,99.8664L113.907,118.676c0,0,8.82,2.35,11.757,11.168c2.936,8.817,2.942,91.702,2.942,91.702l-93.4996,3.526.5852-52.908c0,0-28.22638-16.459-35.280345-17.634" fill="#2f3841"/><path d="M8.02397,3.53638L288.527,8.23746l.032-1.84459-1.83.25824c0,0,.032.23716.095.6904.475,3.39409,2.589,18.77269,4.592,34.83649.997,8.0319,1.967,16.2377,2.689,23.1892.358,3.4731.654,6.6353.859,9.302.206,2.6668.322,4.8434.322,6.2927.007.4927-.014.9854-.063,1.4757c0,.0685,0,.1159-.027.137l.39.1002-.379-.1371v.0369l.39.1002-.38-.1371l1.134.4111-.997-.6746c-.057.0813-.103.17-.137.2635l1.134.4111-.997-.6746l1.287.8749-1.055-1.1279c-.08.0765-.153.1613-.216.253l1.287.8749-1.055-1.1279l1.149,1.2122-.748-1.4915c-.146.0734-.281.1675-.401.2793l1.149,1.2122-.748-1.4915.527,1.0857-.369-1.1595-.174.0738.527,1.0857-.369-1.1595.158.5007-.137-.527.158.5006-.137-.527v.058-.058.058-.058c-.174.0346-.35.0592-.527.0738-.527.058-1.349.1107-2.378.1529-3.094.1317-8.097.1791-13.891.1791-9.342,0-20.772-.1264-29.866-.2582-4.545-.0632-8.509-.1318-11.335-.1792l-3.311-.058-1.197-.0263h-.19L143.81,98.1114L109.284,119.351l4.143,1.106.227-.838-.232.838.227-.838-.232.838c3.041.968,5.755,2.76,7.839,5.176c1.189,1.414,2.098,3.042,2.679,4.796.086.271.156.548.211.827.152.717.305,1.734.448,2.978.268,2.335.527,5.476.717,9.154.732,12.897,1.101,32.46,1.286,48.771.095,8.159.137,15.505.163,20.818c0,2.635,0,4.796,0,6.277v2.298h1.846l-.069-1.845-91.5644,3.457.58-52.044-.9279-.527c0,0-7.0803-4.126-15.0516-8.432-3.991-2.145-8.2033-4.322-11.88844-6.056-1.84521-.864-3.55862-1.618-5.06642-2.203-.74862-.295-1.4498-.527-2.1088-.748-.5924-.188-1.19644-.338-1.808304-.448l-.606287,3.637c.444517.083.883048.196,1.312731.337c1.31387.424,2.60388.918,3.8644,1.481c2.63601,1.128,5.79922,2.672,9.05732,4.353c4.8977,2.514,10.0169,5.334,13.9129,7.515c1.9453,1.091,3.5849,2.03,4.7448,2.688l1.3391.775.4745.274.9278-1.581h-1.8452l-.6063,54.848l97.2111-3.689v-1.777c0,0,0-20.733-.369-42.578-.185-10.92-.459-22.135-.875-31.163-.206-4.522-.449-8.506-.733-11.658-.143-1.581-.296-2.951-.464-4.095-.085-.569-.174-1.086-.269-1.549-.086-.421-.195-.836-.327-1.244-.738-2.227-1.9-4.291-3.421-6.077-1.759-2.04-3.897-3.719-6.295-4.943-1.062-.566-2.179-1.023-3.332-1.365l-.475,1.781.965,1.581l30.288-18.63l88.802-16.4014-.338-1.813-.037,1.8446c0,0,27.035.527,45.783.527c4.687,0,8.857-.0316,11.972-.1107c1.582-.0421,2.858-.0948,3.844-.1686.495-.0316.912-.0738,1.27-.1212.185-.0264.348-.058.528-.0949l.279-.0738c.123-.0393.243-.0886.358-.1475.183-.0895.35-.2069.496-.3479.183-.1785.335-.387.448-.6166.116-.2449.201-.5034.253-.7695.067-.3481.111-.7002.132-1.054c0-.39.032-.8169.032-1.2912c0-1.7392-.137-4.1583-.375-7.1254-.827-10.3508-2.878-27.2526-4.745-41.593-1.866-14.3404-3.484-26.09839-3.49-26.10366l-.216-1.58108L8.12414,-0.158081L8.06087,3.53111l-.0369.00527Z" fill="#231f20"/><path d="M134.489,71.5176c0,0-28.469,31.6214,0,43.8904c0,0-11.308-2.44-11.799-2.134-.49.306-6.231,5.671-6.231,5.671s6.326,3.499,7.982,8.195c1.655,4.696,4.296,28.243,4.296,28.243l17.509,2.351c0,0-6.538-14.867-8.119-26.372c0,0,2.351,35.516,33.973,39.959c31.621,4.443,52.794-36.318,52.794-36.318l13.591-37.0972c0,0-91.454-31.3528-103.996-26.3882Z" fill="#fff"/><path d="M134.489,71.5176l-1.376-1.2385c-2.415,2.7913-4.598,5.7754-6.527,8.9226-1.786,2.8519-3.295,5.8679-4.507,9.0069-1.321,3.2989-2.035,6.8089-2.109,10.3613-.009,1.7931.231,3.5791.712,5.3071.798,2.774,2.269,5.308,4.281,7.378c2.504,2.517,5.491,4.502,8.783,5.835l.743-1.671.385-1.802c0,0-2.515-.527-5.235-1.086-1.36-.274-2.773-.527-3.959-.754-.596-.105-1.134-.19-1.582-.253l-.633-.079c-.19-.021-.382-.032-.574-.031-.121-.009-.243-.009-.364,0-.101.013-.202.032-.301.058-.186.051-.363.129-.527.231l.986,1.582-.965-1.582c-.071.044-.139.092-.205.143-.1.074-.18.142-.28.221-.353.301-.88.77-1.507,1.339-1.872,1.702-4.534,4.216-4.54,4.216l-1.84,1.708l2.22,1.228.2-.364-.205.364.2-.364-.206.364c1.115.649,2.173,1.392,3.164,2.218.862.699,1.656,1.477,2.372,2.324.675.781,1.21,1.673,1.582,2.636.242.763.441,1.539.595,2.324.39,1.844.817,4.385,1.234,7.136.617,4.121,1.213,8.717,1.65,12.285.222,1.781.401,3.304.527,4.379.064.527.111.97.143,1.26.031.29.052.448.052.448l.159,1.433l22.195,2.978-1.318-3.004v-.042c-.179-.411-1.809-4.174-3.569-9.191-1.761-5.018-3.654-11.3-4.381-16.654l-3.691.374c.661,6.583,2.458,13.002,5.309,18.973c2.524,5.407,6.158,10.223,10.665,14.135c4.914,4.163,11.351,7.378,19.591,8.537c1.68.237,3.375.355,5.072.353c7.628,0,14.577-2.419,20.64-5.981c9.099-5.344,16.296-13.25,21.257-19.806c2.87-3.751,5.451-7.715,7.718-11.858l.053-.105l14.281-39.0005-1.781-.6061c0,0-19.665-6.7406-42.029-13.4813-11.182-3.373-23.044-6.746-33.483-9.281-5.219-1.2701-10.085-2.3294-14.35-3.0778-3.559-.6881-7.168-1.0829-10.792-1.1805-.842-.0067-1.684.0409-2.52.1423-.721.0917-1.429.2686-2.109.527l-.4.1634-.29.3162l1.376,1.2385.68,1.7128c.403-.1451.823-.2424,1.249-.2898.675-.0823,1.355-.121,2.035-.116c3.41.1043,6.805.4832,10.154,1.1331c7.265,1.2702,16.507,3.51,26.255,6.161c14.624,3.9738,30.393,8.8593,42.498,12.7488c6.057,1.9447,11.192,3.6417,14.819,4.8486l4.218,1.423l1.123.3794.385.1318.595-1.7445-1.729-.6377-13.575,37.1713l1.729.632-1.634-.848c-3.618,6.54-8,12.628-13.054,18.135-4.096,4.448-9.041,8.854-14.651,12.122-5.609,3.267-11.851,5.391-18.637,5.391-1.525,0-3.049-.105-4.56-.316-7.57-1.054-13.291-3.958-17.714-7.7-3.149-2.707-5.822-5.922-7.908-9.513-2.594-4.49-4.5-9.344-5.657-14.398-.469-2.003-.748-3.689-.912-4.854-.079-.59-.132-1.054-.163-1.349c0-.159-.011-.274-.032-.348v-.116l-1.84.126-1.829.248c.817,5.982,2.878,12.649,4.745,17.871c1.866,5.223,3.5,8.96,3.511,8.997l1.687-.743.248-1.829-17.514-2.351-.242,1.829l1.834-.205c0,0-.659-5.903-1.529-12.401-.437-3.252-.922-6.651-1.413-9.55-.242-1.455-.485-2.777-.722-3.911-.184-.947-.429-1.882-.733-2.798-.526-1.398-1.295-2.691-2.272-3.821-1.263-1.467-2.701-2.775-4.281-3.895-.731-.529-1.49-1.02-2.272-1.47l-.891,1.613l1.26,1.349c0,0,.353-.338.902-.844.817-.758,2.05-1.907,3.126-2.888.527-.49,1.054-.943,1.407-1.275l.459-.395.116-.095v-.032.032-.032.032l-.68-.912.596.97c.029-.018.057-.037.084-.058l-.68-.912.596.97-.928-1.465.469,1.67c.162-.045.317-.114.459-.205l-.928-1.465.469,1.67-.401-1.423.127,1.476c.093-.009.185-.026.274-.053l-.401-1.423.127,1.476-.063-.722v.727h.063l-.063-.722v.728h.058c.147,0,.49.047.912.11c1.502.227,4.091.733,6.268,1.176l2.81.585.854.184.317.063l1.117-3.494c-1.988-.831-3.864-1.91-5.583-3.21-1.977-1.482-3.563-3.423-4.623-5.655-.904-1.984-1.358-4.144-1.329-6.3239.073-3.1068.704-6.1753,1.861-9.0596c1.658-4.1846,3.827-8.1481,6.458-11.8001c1.081-1.5389,2.056-2.788,2.758-3.647.353-.4322.632-.7642.827-.9856l.216-.253.053-.0579-1.371-1.2333.68,1.7129-.664-1.7129Z" fill="#231f20"/><path d="M145.466,95.9453c0,0,31.363-2.7458,33.714-13.7027c0,0,28.126,35.2744,54.444,26.2614c0,0-5.05,17.635-6.616,22.731c0,0,24.304,3.131,25.089-19.99c0,0,18.036-6.272,8.625-28.9866-9.41-22.7149-55.277-41.9302-59.573-45.0661-4.297-3.1358-15.289-1.9605-15.289-1.9605l1.581-8.6222-9.405,5.0964-9.052-7.4627v8.6221c0,0-32.439,7.4311-38.027,43.0898c0,0,21.172-1.1753,14.509,19.9901Z" fill="#231f20"/><path d="M35.1064,225.077l1.7609,112.257c0,0,2.3566,41.15,43.9107,45.072c41.554,3.921,131.695-1.181,135.828,0c4.134,1.18,43.726,7.836,59.405,5.486c15.679-2.351,28.227-18.03,28.227-19.99c0-1.961-5.878-7.052-10.976-3.162-3.343,2.571-14.267,3.963-21.394,4.611-.304.028-.608-.049-.861-.218s-.441-.42-.531-.711-.077-.604.036-.887.32-.518.586-.666c12.168-6.804,39.54-24.623,37.716-46.416c0,0-3.69-3.689-6.406-1.001-.07.075-.163.125-.264.143s-.205.003-.297-.042-.167-.119-.214-.21c-.047-.092-.063-.195-.047-.297.728-5.012,2.046-17.081-1.661-19.753-4.692-3.346-6.801-.469-6.801-.469s2.357-9.929-6.532-10.192c-8.888-.264-13.322,27.695-22.991,29.787s-42.076,12.538-42.339-2.108c-.264-14.646,16.469-14.894,20.386-20.638c3.918-5.745,6.011-20.902-4.444-17.508-10.454,3.394-16.986,13.85-22.211,15.415-5.225,1.566-20.909,10.451-31.105,18.552-10.196,8.1-83.372-2.351-83.372-2.351s20.909,5.223,20.646-10.714c-.264-15.938,6.268-77.473,6.268-77.473l-92.3236,3.483Z" fill="#fff"/><path d="M35.1064,225.077l-1.8452.032l1.7661,112.32v.037c.1832,2.284.5357,4.551,1.0544,6.783c1.3444,6.061,4.3494,15.241,11.1187,23.379c3.6656,4.424,8.154,8.097,13.217,10.814c5.4987,2.957,12.1678,5.07,20.1813,5.798c12.0571,1.138,28.0473,1.517,44.8543,1.517c17.672,0,36.235-.426,51.977-.848c7.871-.211,15.036-.422,21.025-.58s10.813-.263,13.971-.263c1.122,0,2.04,0,2.699.042l.775.047h.2.053l.1-.527-.137.496h.037l.1-.527-.137.495c.279.079.622.163,1.054.258c1.614.359,4.455.891,8.13,1.497c5.499.912,12.832,1.987,20.418,2.83c7.29.878,14.622,1.369,21.964,1.471c2.882.032,5.763-.144,8.619-.527c4.082-.664,8.017-2.032,11.63-4.043c4.752-2.603,9.081-5.91,12.843-9.808c1.331-1.379,2.564-2.849,3.69-4.4.386-.54.738-1.104,1.055-1.687.13-.247.245-.502.343-.764.05-.14.092-.282.126-.427.041-.185.062-.374.063-.564-.003-.456-.1-.906-.284-1.323-.302-.671-.716-1.286-1.223-1.818-.855-.918-1.865-1.678-2.984-2.245-1.306-.671-2.75-1.032-4.218-1.054-.897-.002-1.787.144-2.636.432-.934.316-1.807.789-2.583,1.397-.381.275-.791.506-1.223.69-1.222.515-2.485.928-3.775,1.233-2.538.606-5.106,1.082-7.692,1.428-2.715.38-5.436.675-7.75.886v.253-.253.253.274l.221-.48c-.068-.033-.144-.049-.221-.047v.527l.221-.48-.226.527.474-.284c-.061-.094-.146-.169-.248-.216l-.226.527.474-.285-.385.227h.449c-.001-.082-.023-.162-.064-.232l-.385.226h-.11l.479.274c.05-.083.077-.177.08-.274h-.559l.479.274-.427-.247.243.443c.077-.048.141-.116.184-.196l-.427-.247.243.443c5.968-3.337,15.531-9.271,23.692-17.097c4.081-3.916,7.819-8.306,10.544-13.134c2.726-4.827,4.492-10.103,4.492-15.7c0-.743,0-1.491-.089-2.245l-.058-.675-.48-.474c-.486-.464-1.015-.878-1.582-1.238-.522-.344-1.079-.631-1.66-.86-.702-.279-1.449-.425-2.204-.432-.638-.007-1.271.115-1.861.359-.654.27-1.245.67-1.74,1.175l.954.949-.527-1.249c-.167.068-.317.171-.443.3l.954.949-.527-1.249.527,1.275v-1.418c-.18,0-.359.034-.527.1l.527,1.276.918-.991c-.209-.21-.482-.345-.775-.385v1.349l.917-.99-.933,1.006l1.249-.564c-.074-.167-.182-.317-.316-.442l-.933,1.006l1.249-.564-1.249.564h1.376c-.002-.194-.045-.387-.127-.564l-1.249.564l1.35.216c.007-.072.007-.144,0-.216h-1.371l1.35.216c.526-3.489.811-7.011.854-10.54.035-2.077-.156-4.152-.57-6.187-.196-.915-.508-1.8-.928-2.636-.409-.841-1.013-1.572-1.761-2.134-.857-.637-1.797-1.154-2.794-1.539-.79-.3-1.627-.458-2.472-.469-.587-.002-1.171.089-1.729.269-.624.202-1.203.52-1.709.938-.248.202-.471.434-.664.69l1.497,1.054l1.798.422c.222-1.039.334-2.099.332-3.162.004-.939-.095-1.876-.295-2.794-.171-.783-.444-1.542-.812-2.255-.623-1.224-1.577-2.25-2.752-2.962-1.444-.828-3.08-1.266-4.745-1.27h-.179c-.778.002-1.549.151-2.272.437-1.332.572-2.517,1.438-3.464,2.535-1.755,1.924-3.232,4.485-4.676,7.3-1.055,2.108-2.109,4.353-3.163,6.556-1.582,3.294-3.164,6.487-4.845,8.87-.711,1.055-1.551,2.018-2.499,2.867-.662.609-1.464,1.043-2.336,1.265-1.513.326-3.495.832-5.799,1.412-3.453.875-7.618,1.903-11.857,2.714-4.029.837-8.127,1.305-12.241,1.397-1.475.015-2.948-.102-4.403-.348-.877-.151-1.735-.4-2.557-.743-.942-.364-1.765-.983-2.377-1.787-.274-.383-.483-.808-.617-1.259-.162-.555-.247-1.13-.253-1.708v-.306c-.019-1.412.191-2.818.622-4.163.662-1.953,1.843-3.689,3.416-5.023c1.216-1.038,2.542-1.941,3.954-2.693c2.167-1.191,4.518-2.182,6.654-3.257c1.045-.514,2.051-1.104,3.01-1.765.936-.639,1.752-1.438,2.409-2.361c1.112-1.738,1.954-3.634,2.499-5.624.637-2.128.975-4.335,1.002-6.556.008-1.029-.094-2.055-.306-3.062-.153-.73-.395-1.438-.722-2.108-.498-1.088-1.307-2.005-2.325-2.635s-2.199-.946-3.395-.907c-1.129.02-2.248.215-3.316.58-2.711.916-5.276,2.215-7.619,3.858-3.4,2.329-6.252,5.054-8.698,7.278-1.223,1.112-2.341,2.108-3.337,2.846-.757.609-1.608,1.09-2.521,1.423-.896.278-1.776.607-2.636.985-1.729.749-3.832,1.787-6.168,3.036-7.006,3.758-16.111,9.434-22.933,14.852-.729.511-1.543.889-2.404,1.117-2.282.627-4.62,1.026-6.98,1.191-2.858.253-6.179.369-9.78.369-12.394,0-28.126-1.349-40.726-2.704-6.3-.679-11.82-1.354-15.769-1.86l-4.634-.617-1.244-.168-.427-.064-.707,3.616c2.517.577,5.09.87,7.671.875c1.674.012,3.346-.147,4.987-.475c1.299-.261,2.559-.683,3.754-1.254c1.92-.903,3.542-2.334,4.676-4.127c1.289-2.184,1.933-4.69,1.856-7.225c0-.105,0-.211,0-.316c0-.306,0-.627,0-.965c0-4.216.385-11.173.975-19.131.881-11.953,2.204-26.251,3.306-37.556.527-5.649,1.054-10.54,1.402-14.045.18-1.75.327-3.162.427-4.095.101-.933.153-1.47.153-1.476l.227-2.108-96.2513,3.61.0317,1.808l1.8452-.032.0685,1.845l92.3339-3.463-.068-1.844-1.835-.19c0,0-1.582,14.799-3.163,31.769-.786,8.485-1.582,17.513-2.156,25.514-.575,8-.986,14.967-.986,19.405c0,.358,0,.695,0,1.022c0,.09,0,.179,0,.269.05,1.676-.312,3.34-1.055,4.843-.449.842-1.064,1.584-1.808,2.182-1.177.901-2.538,1.533-3.986,1.85-1.554.365-3.147.542-4.744.527-1.611-.006-3.218-.135-4.809-.385-.622-.1-1.122-.195-1.465-.268-.169-.032-.301-.064-.385-.085h-.095-.026l-.179.733.184-.733-.179.733.184-.733-.448,1.792-.263,1.824c0,0,9.537,1.365,22.2,2.724c12.663,1.36,28.469,2.72,41.122,2.725c4.339.052,8.677-.186,12.985-.711c1.644-.21,3.269-.548,4.861-1.012c1.326-.377,2.57-.997,3.669-1.829c5.469-4.242,11.214-8.115,17.197-11.595c2.895-1.697,5.631-3.162,7.95-4.342c1.155-.58,2.209-1.054,3.116-1.465.724-.321,1.465-.603,2.22-.844.878-.277,1.713-.674,2.483-1.18c1.482-.995,2.88-2.109,4.181-3.331c2.145-1.934,4.454-4.158,7.032-6.15c2.561-2.061,5.457-3.666,8.562-4.744.699-.245,1.432-.38,2.172-.4.478-.019.953.089,1.376.311.257.142.481.336.659.569.36.487.615,1.043.749,1.634.192.824.284,1.668.274,2.514-.027,1.868-.315,3.723-.854,5.512-.444,1.618-1.128,3.16-2.03,4.575-.423.57-.942,1.062-1.534,1.455-1.608,1.026-3.297,1.919-5.05,2.672-1.498.701-3.111,1.459-4.698,2.361-2.534,1.341-4.757,3.199-6.527,5.454-.936,1.258-1.659,2.661-2.14,4.153-.54,1.704-.805,3.483-.786,5.271v.374c-.002,1.607.427,3.185,1.245,4.569.589.954,1.365,1.779,2.282,2.424c1.424.96,3.027,1.621,4.714,1.945c1.862.373,3.758.549,5.656.527c5.415,0,11.599-1.107,17.235-2.356c2.804-.621,5.456-1.28,7.765-1.865c2.31-.585,4.281-1.086,5.678-1.386.794-.177,1.556-.472,2.262-.875c1.34-.794,2.526-1.822,3.501-3.036c1.824-2.161,3.374-4.901,4.85-7.805c1.102-2.177,2.156-4.448,3.2-6.62c1.582-3.257,3.105-6.298,4.65-8.395.612-.889,1.359-1.676,2.214-2.335.295-.218.618-.395.96-.527.272-.1.559-.152.849-.153h.073c.94-.005,1.869.204,2.715.612.428.216.808.515,1.118.88.448.547.765,1.188.928,1.876.181.727.27,1.475.264,2.224-.003.57-.043,1.138-.122,1.702-.031.216-.063.38-.084.49-.021.111,0,.095,0,.116v.027l1.054.237-1.054-.243l1.054.238-1.054-.243-2.109,8.96l5.404-7.442-.764-.527.727.606.037-.053-.764-.527.727.606c.092-.092.197-.17.311-.231.261-.133.551-.199.844-.195.41.008.815.091,1.196.242.682.263,1.324.618,1.909,1.054.276.222.496.505.643.827.428.937.708,1.934.828,2.957.184,1.398.27,2.807.258,4.216-.046,3.353-.319,6.698-.817,10.014l1.829.263-1.824-.284c-.018.118-.027.238-.026.358-.004.329.064.655.2.954.186.405.483.748.856.991.373.242.808.374,1.253.379.3.001.598-.058.875-.174.291-.122.554-.301.775-.527.15-.154.329-.276.527-.358.15-.058.309-.088.47-.09.3.011.597.075.875.19.496.203.963.472,1.386.801.185.137.332.264.433.353.035.029.069.061.1.095l.785-.796-.791.791.786-.796-.791.791l1.308-1.307-1.84.158c.052.648.079,1.291.079,1.934c0,4.817-1.503,9.486-4.007,13.877-3.754,6.619-9.774,12.648-15.964,17.581-5.313,4.196-10.954,7.959-16.87,11.252-.513.284-.938.703-1.228,1.212-.266.472-.404,1.004-.401,1.545-.002.798.293,1.568.828,2.16.282.318.629.573,1.017.749.412.187.86.285,1.313.284.1.006.2.006.3,0c3.596-.332,8.151-.843,12.284-1.612c1.939-.342,3.856-.797,5.741-1.365.809-.243,1.601-.537,2.373-.881.694-.312,1.351-.702,1.956-1.164.454-.356.963-.635,1.507-.828.468-.154.958-.234,1.45-.237.678.007,1.348.139,1.977.39.901.359,1.719.897,2.404,1.581.228.225.428.476.596.749.033.055.062.113.084.174l.232-.069-.237.037v.032l.232-.069-.237.037.68-.111h-.691c-.004.037-.004.074,0,.111l.68-.111h.317l-.976-.269c-.022.088-.032.179-.031.269h1.007l-.976-.269.137.037-.137-.042.137.037-.137-.042c-.046.122-.102.24-.168.353-.325.575-.689,1.126-1.092,1.65-1.183,1.555-2.476,3.024-3.869,4.395-2.83,2.821-5.984,5.297-9.395,7.378-3.71,2.33-7.843,3.906-12.163,4.638-2.675.35-5.373.508-8.071.475-8.962,0-20.825-1.234-30.815-2.599-4.998-.685-9.542-1.396-13.038-2.002-1.75-.301-3.242-.575-4.397-.801-.574-.116-1.054-.217-1.46-.306-.406-.09-.691-.164-.843-.206-.164-.047-.301-.068-.433-.095-.237-.036-.474-.058-.754-.079-.822-.058-1.977-.079-3.495-.079-3.232,0-8.066.106-14.066.264-17.983.469-46.467,1.418-72.875,1.418-16.744,0-32.6864-.385-44.5063-1.502-10.1065-.954-17.7034-4.138-23.5027-8.349-4.0397-2.958-7.5192-6.613-10.2751-10.793-3.3026-5.062-5.7233-10.647-7.1594-16.517-.4624-1.847-.8285-3.717-1.0966-5.602-.0949-.68-.1529-1.207-.1845-1.582c0-.179-.0264-.316-.0369-.4v-.116l-1.8452.105l1.8452-.031-1.7609-112.257-1.8452.026.0685,1.845-.0685-1.845Z" fill="#231f20"/><path d="M291.29,298.745l1.27.053-1.27-.058l1.27.053-1.27-.058c-.003.028-.003.056,0,.084-.175,1.995-.528,3.971-1.055,5.903-1.41,5.629-4.018,10.887-7.645,15.418-3.627,4.53-8.189,8.225-13.374,10.833-5.466,2.727-11.344,4.534-17.398,5.349l.527,3.653c10.144-1.508,17.925-4.802,23.898-8.96c4.04-2.8,7.577-6.264,10.46-10.245c3.228-4.505,5.609-9.559,7.028-14.915.634-2.279,1.042-4.614,1.217-6.973l-3.69-.158.032.021Z" fill="#231f20"/><path d="M300.268,318.899l1.16.248-1.16-.253l1.16.247-1.16-.253c-.063.259-1.26,5.271-6.29,11.189-5.029,5.919-13.897,12.865-29.555,16.991l.939,3.568c8.356-2.197,14.951-5.201,20.139-8.485c7.781-4.906,12.368-10.472,15.004-14.825s3.322-7.505,3.358-7.663l-3.611-.764h.016Z" fill="#231f20"/><path d="M293.124,6.98313c0,0,89.519-2.94081,103.632,26.45147c14.114,29.3923,9.406,245.7264,9.406,245.7264s-6.401,23.579-25.48,28.022-20.123-2.351-20.123-4.179c0-1.829-20.129,12.648-27.942,2.002s2.109-9.059,2.109-9.059-14.635,7.057-16.728-7.574c0,0-15.505-5.228-9.063-13.065c6.442-7.836,9.848-1.054,18.732-5.749c8.883-4.696,21.952-14.109,23.787-31.622s-12.026-6.008-12.026-6.008-9.41,15.384-17.508,15.004c-8.098-.379-12.811-9.518-8.367-13.439c4.445-3.921,15.685-10.725,17.514-22.868c1.829-12.142,23.26-14.756,23.26-14.756L340.699,79.4862l-43.568,1.9606c0,0-10.012-72.48732-4.007-74.46367Z" fill="#fff"/><path d="M293.124,6.98316l.064,1.84459h.105c.527,0,2.868-.07905,6.532-.07905c10.46,0,31.68.52702,51.624,4.0528c9.969,1.7708,19.617,4.3006,27.414,7.8369c3.602,1.5763,6.985,3.6117,10.064,6.0556c2.586,2.0392,4.691,4.6209,6.169,7.5628.949,1.9553,1.887,5.1174,2.725,9.1703c1.471,7.1096,2.679,17.0019,3.638,28.6861c2.884,35.0688,3.617,86.3218,3.617,129.0368c0,21.698-.19,41.198-.375,55.275-.095,7.036-.189,12.717-.258,16.638-.037,1.961-.063,3.479-.084,4.512s-.037,1.581-.037,1.581l1.845.037-1.777-.48.253.069-.253-.074.253.068-.253-.074c-1.292,4.223-3.129,8.259-5.467,12.006-2.03,3.334-4.554,6.341-7.486,8.917-3.194,2.813-7.028,4.803-11.166,5.798-3.401.864-6.888,1.345-10.397,1.433-1.532.019-3.058-.202-4.523-.653-.62-.19-1.203-.484-1.724-.87-.37-.27-.671-.624-.878-1.032-.207-.409-.314-.86-.313-1.318-.001-.272-.057-.541-.163-.791-.107-.25-.263-.476-.46-.664-.234-.223-.52-.384-.832-.469-.198-.056-.402-.085-.607-.084-.177-.002-.353.014-.527.047-.247.047-.491.114-.728.2-.432.148-.89.343-1.418.58-.917.411-2.035.943-3.305,1.518-2.093.984-4.245,1.837-6.443,2.556-2.21.747-4.521,1.157-6.853,1.217-1.361.03-2.714-.217-3.975-.727-1.226-.525-2.285-1.374-3.063-2.456-.833-1.085-1.551-2.252-2.146-3.483-.297-.567-.476-1.187-.527-1.824-.014-.137.015-.276.084-.395.041-.059.095-.108.158-.143.229-.133.482-.222.744-.263.348-.061.7-.091,1.054-.09.285,0,.527,0,.701.032h.19.047l.143-.943-.148.943.142-.943-.147.943.29-1.824-.802-1.66.443.923-.443-.923.443.923-.443-.923-.142.064c-.777.338-1.577.622-2.393.848-1.31.38-2.665.584-4.028.606-.836.008-1.668-.102-2.473-.327-1.213-.34-2.287-1.056-3.068-2.044-.875-1.102-1.629-2.767-1.998-5.323l-.158-1.123-1.055-.364c-1.763-.633-3.46-1.438-5.066-2.403-1.176-.679-2.242-1.532-3.163-2.53-.337-.387-.618-.82-.833-1.286-.185-.39-.282-.817-.285-1.249.003-.396.083-.788.237-1.154.227-.536.534-1.033.912-1.475.542-.675,1.146-1.298,1.803-1.861.634-.557,1.373-.984,2.172-1.254.684-.205,1.396-.301,2.109-.285c1.102,0,2.425.158,4.023.164c1.241.008,2.479-.125,3.69-.396c1.523-.358,2.993-.914,4.371-1.655c4.56-2.419,10.233-6.05,15.046-11.404c2.554-2.805,4.685-5.967,6.326-9.387c1.827-3.864,2.981-8.011,3.411-12.264.111-1.036.169-2.077.174-3.12.018-1.24-.111-2.479-.385-3.689-.174-.748-.45-1.468-.822-2.14-.495-.91-1.242-1.658-2.151-2.155-.827-.434-1.749-.655-2.683-.643-1.165.029-2.315.267-3.396.701-1.416.566-2.767,1.285-4.027,2.145-1.055.701-1.714,1.259-1.745,1.286l-.238.195-.163.263c-1.656,2.613-3.514,5.092-5.557,7.416-1.531,1.772-3.261,3.364-5.156,4.743-.819.584-1.704,1.07-2.636,1.449-.734.312-1.522.48-2.32.496h-.205c-1.174-.055-2.326-.34-3.39-.838-1.462-.69-2.715-1.754-3.632-3.084-.794-1.085-1.245-2.382-1.297-3.726-.007-.493.086-.982.274-1.438.181-.435.461-.821.817-1.128c1.023-.907,2.557-2.071,4.291-3.468c3.063-2.38,5.842-5.103,8.283-8.116c2.892-3.581,4.802-7.853,5.541-12.396.184-1.217.617-2.383,1.27-3.426c1.29-1.937,3.014-3.546,5.035-4.701c3.163-1.955,7.059-3.252,10.112-4.026c1.529-.39,2.852-.654,3.79-.817.464-.084.838-.142,1.086-.179l.28-.037h.068l1.824-.227L342.333,77.5626l-45.286,2.0185.084,1.8446l1.829-.253c0,0,0-.1686-.068-.4848-.322-2.3822-1.782-13.2916-3.163-26.0193-.691-6.3613-1.36-13.1757-1.856-19.6002-.496-6.4244-.817-12.4589-.817-17.2285-.045-2.4418.094-4.8836.416-7.3046.081-.62091.236-1.22973.464-1.81295.024-.0599.052-.11802.085-.17392v-.04216l-.159-.12649.143.1423-.158-.12649.142.1423-.575-.56919.248.76419c.122-.03959.234-.10625.327-.195l-.575-.56919.248.76419-.538-1.74973.064,1.84459-.064-1.84459-.569-1.755c-.509.17147-.962.47959-1.308.89067-.251.29941-.462.6308-.627.98554-.286.63236-.498,1.2955-.633,1.97635-.25,1.26788-.412,2.55168-.485,3.84208-.1,1.4651-.142,3.1252-.142,4.9382c0,5.2703.374,11.8528.928,18.8149c1.676,20.8702,5.008,45.0028,5.008,45.0186l.232,1.6707l43.531-1.9606L352.45,196.096l1.835-.216-.227-1.829c-3.894.548-7.714,1.533-11.387,2.936-3.061,1.126-5.912,2.756-8.435,4.822-1.268,1.074-2.363,2.336-3.248,3.742-.916,1.465-1.52,3.103-1.777,4.812-.41,2.646-1.313,5.191-2.662,7.505-1.936,3.207-4.381,6.078-7.239,8.501-1.318,1.164-2.636,2.218-3.822,3.162-1.186.943-2.288,1.792-3.163,2.588-.774.675-1.383,1.519-1.782,2.466-.375.909-.565,1.884-.559,2.867.021,1.373.328,2.726.902,3.974.975,2.11,2.509,3.914,4.437,5.214c1.927,1.301,4.174,2.049,6.497,2.164h.38c1.283-.018,2.552-.281,3.737-.774c2.122-.93,4.071-2.213,5.763-3.795c2.439-2.235,4.65-4.707,6.6-7.378c1.656-2.235,2.673-3.89,2.694-3.927l-1.581-.959l1.181,1.418-.306-.364.3.364-.305-.364.3.364c.795-.634,1.634-1.212,2.51-1.729.72-.433,1.477-.803,2.261-1.107.651-.265,1.343-.416,2.046-.448.295-.008.588.048.859.164.172.079.326.192.454.332.336.397.572.869.69,1.375.255,1.004.372,2.038.348,3.073-.004.914-.057,1.827-.158,2.735-.383,3.837-1.421,7.581-3.068,11.068-2.212,4.547-5.326,8.598-9.153,11.905-3.235,2.81-6.79,5.228-10.591,7.205-1.09.591-2.252,1.036-3.459,1.323-.939.208-1.9.309-2.862.3-1.313,0-2.594-.158-4.023-.163-.707-.005-1.413.055-2.109.179-1.214.224-2.371.692-3.4,1.375-1.297.884-2.451,1.961-3.422,3.194-.619.735-1.121,1.562-1.486,2.451-.35.845-.52,1.754-.499,2.669.021.914.232,1.815.62,2.643.694,1.432,1.697,2.691,2.936,3.689c1.664,1.354,3.496,2.486,5.452,3.368.936.443,1.895.837,2.873,1.181l.59-1.745-1.829.258c.228,1.794.746,3.538,1.534,5.165.503,1.009,1.16,1.933,1.946,2.741c1.053,1.06,2.338,1.861,3.753,2.34c1.277.421,2.615.63,3.96.616c1.926-.03,3.838-.344,5.672-.932.851-.264,1.684-.58,2.494-.949l5.272-2.556-5.799-.928c-.501-.073-1.007-.108-1.513-.105-.518-.003-1.034.038-1.545.121-.454.07-.9.189-1.329.353-.36.136-.703.313-1.022.527-.554.371-1.009.87-1.329,1.455-.347.648-.528,1.373-.527,2.108.043,1.162.328,2.302.838,3.347.703,1.467,1.555,2.858,2.541,4.153c1.169,1.607,2.75,2.871,4.576,3.657c1.723.704,3.57,1.052,5.431,1.023c2.265-.038,4.515-.38,6.69-1.018c2.973-.879,5.872-1.989,8.672-3.32c1.181-.527,2.199-1.022,2.947-1.354.375-.164.68-.29.881-.359l.195-.058-.164-.832v.843c.055.004.109.004.164,0l-.164-.833v-.606l-.342,1.407c.112.028.227.042.342.042v-1.449l-.342,1.407.385-1.581-.812,1.428c.134.074.278.131.427.169l.385-1.581-.812,1.428.848-1.491-1.513.801c.152.288.382.528.665.69l.848-1.491-1.513.801l1.482-.78h-1.677c-.003.272.064.541.195.78l1.482-.78h-1.677c-.002.692.105,1.38.317,2.039.234.712.591,1.377,1.054,1.966.924,1.15,2.149,2.022,3.538,2.519c2.007.71,4.129,1.042,6.257.981c3.789-.088,7.556-.6,11.23-1.529c4.753-1.137,9.155-3.421,12.821-6.651c5.199-4.495,8.668-10.145,10.871-14.667c1.284-2.576,2.342-5.258,3.163-8.016l.058-.221v-.222c0,0,.754-34.636.754-78.074c0-32.58-.421-70.094-1.908-101.7158-.738-15.8108-1.745-30.1512-3.105-41.6826-.68-5.7656-1.445-10.8304-2.32-15.0466s-1.84-7.5734-3.01-10.0135c-1.716-3.4235-4.164-6.4282-7.17-8.8013-5.394-4.4271-12.653-7.7368-20.751-10.2929-12.178-3.82619-26.36-5.9343-39.245-7.09903s-24.483-1.39135-31.426-1.39135c-4.218,0-6.743.08432-6.759.08432h-.264l-.247.07905.558,1.65487Z" fill="#231f20"/><path d="M358.545,259.856c-3.781,4.982-8.034,9.586-12.701,13.75-3.843,3.482-8.091,6.49-12.652,8.96-4.613,2.413-9.49,3.963-14.314,3.963-.274,0-.548,0-.822,0l-.127,3.689c.316,0,.627,0,.949,0c5.71,0,11.219-1.839,16.259-4.506c7.56-4.011,14.118-9.919,18.832-14.825c2.71-2.803,5.248-5.769,7.597-8.881l-2.99-2.166-.031.016Z" fill="#231f20"/><path d="M369.69,267.514c-3.679,4.544-7.714,8.788-12.068,12.69-3.744,3.413-7.792,6.478-12.094,9.155-4.423,2.698-9.136,4.812-13.823,5.734l.712,3.621c5.356-1.054,10.512-3.426,15.257-6.325c7.112-4.379,13.312-10.013,17.767-14.556c2.529-2.559,4.924-5.247,7.175-8.053l-2.915-2.261-.011-.005Z" fill="#231f20"/><path d="M382.817,278.196c-2.368,3.389-4.955,6.619-7.744,9.671-2.392,2.648-4.977,5.115-7.734,7.379-2.637,2.213-5.588,4.021-8.757,5.365l1.355,3.436c3.575-1.509,6.902-3.549,9.869-6.05c4.184-3.502,8.017-7.403,11.445-11.647c2.868-3.5,4.608-6.077,4.629-6.114l-3.057-2.061-.006.021Z" fill="#231f20"/><path id="eswybLBDQqa18" d="M264.044,164.28h1.845l-.527-33.098c-.012-.046-.012-.095,0-.142.025-.053.065-.097.116-.127.059-.036.126-.056.195-.058h.1c.044.021.083.05.116.085l10.122,10.43c.374.386.821.693,1.315.902.495.209,1.027.316,1.564.315.627.002,1.245-.144,1.806-.425.56-.281,1.047-.69,1.42-1.193l23.698-31.911c.031-.05.074-.09.127-.116.034-.01.071-.01.105,0c.1-.001.196.037.269.105l.063.079c.009.038.009.078,0,.116v.074l-6.648,52.592c-.022.175-.032.351-.031.527.001.596.135,1.184.392,1.721.257.538.631,1.011,1.094,1.387.463.375,1.003.643,1.582.783.579.141,1.182.151,1.766.03l23.513-4.922h.1c.033-.009.068-.009.101,0c.055.028.101.072.131.126.043.06.065.132.064.206v.089c-.023.05-.057.093-.101.127l-18.315,16.475c-.654.585-1.098,1.368-1.262,2.23-.165.862-.042,1.754.35,2.539.286.584.711,1.087,1.239,1.465l17.182,12.428c.045.03.082.072.105.121.019.043.028.09.027.137.003.07-.017.138-.058.195-.018.029-.042.055-.07.075s-.06.034-.094.041l-93.51,31.832c-.55.19-1.053.497-1.474.899s-.751.89-.967,1.431l-15.183,38.515c-.021.063-.064.118-.121.153s-.123.053-.19.052c-.048.002-.095-.009-.137-.031-.048-.021-.088-.056-.116-.1l-6.627-8.796c-.329-.436-.744-.8-1.219-1.07-.475-.269-1-.439-1.543-.499s-1.093-.008-1.615.152-1.006.425-1.422.779l-3.733,3.162c-.053.053-.125.083-.2.084-.09-.005-.176-.04-.243-.1l-.068-.089c-.008-.046-.008-.092,0-.137v-17.403c-.002-1.064-.425-2.084-1.177-2.836-.751-.753-1.771-1.177-2.835-1.18-.26.002-.52.026-.775.074l-38.876,7.547h-.095c-.035.007-.071.007-.105,0-.056-.03-.103-.073-.138-.127-.041-.055-.069-.12-.079-.189v-.09c.023-.044.053-.083.09-.116c5.562-5.539,14.762-14.714,22.543-22.636c3.901-3.963,7.455-7.605,10.017-10.335c1.297-1.365,2.351-2.498,3.1-3.346.374-.422.67-.77.901-1.054.118-.145.227-.296.327-.453.065-.102.123-.208.174-.317.042-.091.076-.187.1-.284.054-.171.08-.349.08-.527.002-.208-.032-.415-.101-.612-.068-.202-.172-.391-.305-.558-.211-.26-.485-.46-.796-.58-.214-.083-.441-.124-.67-.121-.178-.003-.356.02-.527.068-.13.033-.256.081-.375.143-.08.036-.157.078-.231.126l.379.643-.169-.733c-.074.019-.146.049-.21.09l.379.643-.169-.733.079.348-.036-.353h-.043l.079.348-.036-.353c-.291-.03-.575-.102-.844-.216-1.139-.476-2.228-1.062-3.253-1.75-1.956-1.249-4.254-2.967-6.516-4.743s-4.497-3.689-6.363-5.328c-.042-.032-.075-.074-.095-.122v-.1c.002-.096.04-.188.105-.258l.085-.063c.041-.007.084-.007.126,0h.1l59.437,5.212h.348c.571,0,1.135-.122,1.655-.357s.984-.579,1.361-1.008l29.154-33.229c.639-.729.993-1.665.996-2.635v-.032h-1.845-1.845v.037c-.001.078-.031.154-.085.211l-29.154,33.229c-.029.035-.067.063-.109.083-.042.019-.087.028-.133.028l-59.437-5.213c-.128-.007-.257-.007-.385,0-.567-.004-1.128.115-1.645.348-.716.327-1.321.856-1.74,1.523-.405.648-.621,1.397-.622,2.161.002.545.117,1.083.338,1.581.245.539.605,1.017,1.054,1.402c2.895,2.519,6.643,5.671,10.138,8.227c1.582,1.186,3.236,2.273,4.951,3.257.699.403,1.427.755,2.177,1.054.672.27,1.385.422,2.109.448.573.009,1.137-.137,1.634-.422l-.527-.874.401.938.126-.064-.527-.874.401.938-.612-1.439.406,1.507c.07-.019.139-.041.206-.068l-.612-1.439.406,1.507-.453-1.676v1.592c.153-.001.305-.023.453-.063l-.453-1.676v-.064l-.559,1.713c.181.058.369.088.559.09v-1.803l-.559,1.713.564-1.734-1.102,1.455c.161.119.339.213.527.279l.564-1.734-1.102,1.455l1.102-1.455-1.692.68c.125.306.329.573.59.775l1.102-1.455-1.692.68l1.677-.674h-1.809c.002.231.047.459.132.674l1.677-.674h-.058l-1.682-.491c-.044.16-.067.325-.069.491h1.751l-1.682-.491l1.392.406-1.266-.701c-.054.093-.097.192-.126.295l1.392.406-1.266-.701.591.327-.575-.358v.031l.591.327-.575-.358.084.047-.084-.053.084.048-.084-.053c0,0-.053.079-.127.174-.147.19-.395.48-.711.843-1.208,1.365-3.448,3.732-6.253,6.625-8.435,8.701-22,22.272-29.302,29.55-.386.379-.692.833-.896,1.334-.199.488-.298,1.011-.29,1.539.003,1.03.397,2.02,1.102,2.772.369.398.817.716,1.315.934.498.217,1.036.33,1.579.331.266-.001.531-.027.791-.079l38.849-7.547h.064c.085.001.166.035.226.095.031.03.055.066.071.106.017.04.025.082.024.125v17.435c0,.56.115,1.114.338,1.628.253.571.637,1.076,1.119,1.473.483.397,1.052.676,1.662.815s1.243.133,1.851-.016c.607-.149,1.171-.438,1.647-.844l3.732-3.162c.058-.049.131-.075.206-.074.051,0,.101.01.148.032.044.026.084.06.116.1l6.626,8.796c.43.57,1.004,1.014,1.663,1.289.658.274,1.378.368,2.085.272s1.376-.379,1.938-.819c.561-.44.996-1.022,1.258-1.685l15.257-38.631c.016-.044.042-.084.076-.117s.074-.058.119-.073l93.505-31.832c.821-.279,1.53-.818,2.019-1.534.594-.863.825-1.924.645-2.956-.181-1.032-.759-1.952-1.61-2.562l-17.176-12.427c-.043-.029-.078-.069-.1-.116-.024-.046-.036-.097-.037-.148v-.126l.084-.111l18.32-16.48c.429-.385.772-.855,1.007-1.381.218-.498.33-1.037.327-1.581-.001-1.029-.39-2.019-1.091-2.772-.369-.401-.816-.72-1.314-.939-.498-.218-1.036-.331-1.581-.331-.288,0-.576.03-.859.089L303.8,162.683h-.074c-.083-.002-.162-.036-.221-.095-.03-.029-.054-.063-.07-.101-.017-.038-.025-.079-.025-.121v-.042l6.648-52.592c.021-.175.032-.351.032-.527.002-.678-.171-1.346-.502-1.938-.332-.591-.811-1.088-1.391-1.44-.646-.399-1.391-.611-2.151-.611-.602-.006-1.196.131-1.734.4-.58.285-1.081.706-1.461,1.228l-23.698,31.912c-.029.043-.069.077-.116.1-.046.021-.096.032-.147.031-.043.002-.086-.006-.126-.022-.04-.017-.076-.041-.106-.072l-10.117-10.43c-.383-.396-.842-.71-1.35-.923-.481-.199-.997-.301-1.518-.3-1.028-.001-2.017.389-2.768,1.091-.388.361-.7.797-.917,1.281-.227.518-.344,1.078-.343,1.644v.074l.527,33.097l1.845-.032.027-.015Z" opacity="0" fill="#8c8c8c"/><path d="M170.286,103.129l.053-.38-.053.38.053-.38-.053.38c1.167.184,2.323.43,3.464.737c3.074.802,7.634,2.383,11.361,5.092c1.882,1.316,3.492,2.982,4.745,4.906c1.289,2.061,2.016,4.423,2.109,6.852l3.69-.18c-.093-2.101-.557-4.168-1.37-6.108-1.329-3.039-3.401-5.694-6.026-7.721-3.691-2.967-8.046-4.743-11.462-5.797-1.955-.629-3.956-1.1079-5.984-1.4337l-.527,3.6527Z" fill="#231f20"/><path d="M195.618,155.773c.027-.147,2.109-9.486,9.116-19.447c1.026-1.467,2.308-2.738,3.785-3.752c2.078-1.396,4.405-2.382,6.854-2.904c2.133-.467,4.311-.699,6.495-.691c1.228,0,2.251.074,2.963.137l.817.095.2.027h.042l.085-.527-.085.527.085-.527-.085.527.606-3.642c-4.925-.682-9.94-.259-14.682,1.238-1.925.642-3.75,1.549-5.425,2.693-1.836,1.263-3.43,2.845-4.708,4.67-7.528,10.756-9.664,20.638-9.7,20.786l3.606.78.031.01Z" fill="#231f20"/><path d="M162.341,151.141c1.425,1.68,2.959,3.265,4.592,4.743c1.414,1.301,2.934,2.482,4.545,3.531c1.596,1.081,3.386,1.843,5.272,2.245l.632-3.636c-1.411-.318-2.749-.901-3.943-1.718-2.082-1.39-4.014-2.994-5.762-4.786-.775-.774-1.408-1.46-1.851-1.95l-.501-.574-.131-.148-.027-.037-2.836,2.356.01-.026Z" fill="#231f20"/><path d="M133.967,86.6854c-.14,1.1858-.205,2.3793-.195,3.5733-.008,2.7146.302,5.4208.923,8.0635.753,3.3308,2.251,6.4478,4.381,9.1178l2.842-2.351c-1.773-2.24-3.015-4.853-3.633-7.6417-.555-2.3556-.832-4.7684-.822-7.1886c0-.9592.042-1.7445.084-2.2821c0-.2688.042-.4796.053-.6166.003-.0491.003-.0984,0-.1475v-.0422l-.607-.0791.607.0844-.607-.0791.607.0843-3.654-.4901.021-.0053Z" fill="#231f20"/><path id="eswybLBDQqa23" d="M197.2,233.505c0,0,14.909-23.906,14.519-27.827-.39-3.922-19.601-3.916-10.586-25.082c9.015-21.165,25.089,0,25.089,0s3.923-25.471,16.075-20.77s16.87,8.622,16.87,8.622-.395-22.077,21.168-18.483c21.562,3.595,0,30.631,0,30.631s23.829,12.148,28.574,14.894-34.453,73.415-38.375,73.157c-3.923-.259-73.74-27.696-73.334-35.142Z" transform="matrix(.200434-.010409 0.010409 0.200434 200.315498 169.832206)" fill="#ee4947"/><path id="eswybLBDQqa24" d="M177.119,128.521c2.705,0,4.897-2.192,4.897-4.896s-2.192-4.896-4.897-4.896-4.898,2.192-4.898,4.896s2.193,4.896,4.898,4.896Z" transform="matrix(.84068 0.541533 0 0 28.218603 27.709493)" fill="#231f20"/><path id="eswybLBDQqa25" d="M214.171,140.532c.001.969-.286,1.918-.824,2.724-.538.807-1.304,1.436-2.199,1.808-.896.372-1.882.469-2.834.281-.951-.189-1.825-.655-2.511-1.34-.687-.686-1.154-1.559-1.344-2.51-.189-.951-.092-1.936.278-2.832.371-.896,1-1.662,1.806-2.201.807-.539,1.755-.826,2.725-.826c1.299,0,2.545.515,3.465,1.433.919.918,1.436,2.164,1.438,3.463Z" transform="matrix(.763921 0.645309 0 0 49.403671 5.494655)" fill="#231f20"/></g><clipPath id="eswybLBDQqa26"><rect width="407" height="390" rx="0" ry="0" fill="#fff"/></clipPath></g><script><![CDATA[!function(t,n){"object"==typeof exports&&"undefined"!=typeof module?module.exports=n():"function"==typeof define&&define.amd?define(n):((t="undefined"!=typeof globalThis?globalThis:t||self).__SVGATOR_PLAYER__=t.__SVGATOR_PLAYER__||{},t.__SVGATOR_PLAYER__["5c7f360c"]=n())}(this,(function(){"use strict";function t(t,n){var e=Object.keys(t);if(Object.getOwnPropertySymbols){var r=Object.getOwnPropertySymbols(t);n&&(r=r.filter((function(n){return Object.getOwnPropertyDescriptor(t,n).enumerable}))),e.push.apply(e,r)}return e}function n(n){for(var e=1;e<arguments.length;e++){var r=null!=arguments[e]?arguments[e]:{};e%2?t(Object(r),!0).forEach((function(t){o(n,t,r[t])})):Object.getOwnPropertyDescriptors?Object.defineProperties(n,Object.getOwnPropertyDescriptors(r)):t(Object(r)).forEach((function(t){Object.defineProperty(n,t,Object.getOwnPropertyDescriptor(r,t))}))}return n}function e(t){return(e="function"==typeof Symbol&&"symbol"==typeof Symbol.iterator?function(t){return typeof t}:function(t){return t&&"function"==typeof Symbol&&t.constructor===Symbol&&t!==Symbol.prototype?"symbol":typeof t})(t)}function r(t,n){if(!(t instanceof n))throw new TypeError("Cannot call a class as a function")}function i(t,n){for(var e=0;e<n.length;e++){var r=n[e];r.enumerable=r.enumerable||!1,r.configurable=!0,"value"in r&&(r.writable=!0),Object.defineProperty(t,r.key,r)}}function u(t,n,e){return n&&i(t.prototype,n),e&&i(t,e),t}function o(t,n,e){return n in t?Object.defineProperty(t,n,{value:e,enumerable:!0,configurable:!0,writable:!0}):t[n]=e,t}function a(t){return(a=Object.setPrototypeOf?Object.getPrototypeOf:function(t){return t.__proto__||Object.getPrototypeOf(t)})(t)}function l(t,n){return(l=Object.setPrototypeOf||function(t,n){return t.__proto__=n,t})(t,n)}function s(){if("undefined"==typeof Reflect||!Reflect.construct)return!1;if(Reflect.construct.sham)return!1;if("function"==typeof Proxy)return!0;try{return Boolean.prototype.valueOf.call(Reflect.construct(Boolean,[],(function(){}))),!0}catch(t){return!1}}function f(t,n,e){return(f=s()?Reflect.construct:function(t,n,e){var r=[null];r.push.apply(r,n);var i=new(Function.bind.apply(t,r));return e&&l(i,e.prototype),i}).apply(null,arguments)}function c(t,n){if(n&&("object"==typeof n||"function"==typeof n))return n;if(void 0!==n)throw new TypeError("Derived constructors may only return object or undefined");return function(t){if(void 0===t)throw new ReferenceError("this hasn't been initialised - super() hasn't been called");return t}(t)}function h(t,n,e){return(h="undefined"!=typeof Reflect&&Reflect.get?Reflect.get:function(t,n,e){var r=function(t,n){for(;!Object.prototype.hasOwnProperty.call(t,n)&&null!==(t=a(t)););return t}(t,n);if(r){var i=Object.getOwnPropertyDescriptor(r,n);return i.get?i.get.call(e):i.value}})(t,n,e||t)}function v(t){return function(t){if(Array.isArray(t))return y(t)}(t)||function(t){if("undefined"!=typeof Symbol&&null!=t[Symbol.iterator]||null!=t["@@iterator"])return Array.from(t)}(t)||function(t,n){if(!t)return;if("string"==typeof t)return y(t,n);var e=Object.prototype.toString.call(t).slice(8,-1);"Object"===e&&t.constructor&&(e=t.constructor.name);if("Map"===e||"Set"===e)return Array.from(t);if("Arguments"===e||/^(?:Ui|I)nt(?:8|16|32)(?:Clamped)?Array$/.test(e))return y(t,n)}(t)||function(){throw new TypeError("Invalid attempt to spread non-iterable instance.\nIn order to be iterable, non-array objects must have a [Symbol.iterator]() method.")}()}function y(t,n){(null==n||n>t.length)&&(n=t.length);for(var e=0,r=new Array(n);e<n;e++)r[e]=t[e];return r}Number.isInteger||(Number.isInteger=function(t){return"number"==typeof t&&isFinite(t)&&Math.floor(t)===t}),Number.EPSILON||(Number.EPSILON=2220446049250313e-31);var g=d(Math.pow(10,-6));function d(t){var n=arguments.length>1&&void 0!==arguments[1]?arguments[1]:6;if(Number.isInteger(t))return t;var e=Math.pow(10,n);return Math.round((+t+Number.EPSILON)*e)/e}function p(t,n){var e=arguments.length>2&&void 0!==arguments[2]?arguments[2]:g;return Math.abs(t-n)<e}var m=Math.PI/180;function b(t){return t}function w(t,n,e){var r=1-e;return 3*e*r*(t*r+n*e)+e*e*e}function x(){var t=arguments.length>0&&void 0!==arguments[0]?arguments[0]:0,n=arguments.length>1&&void 0!==arguments[1]?arguments[1]:0,e=arguments.length>2&&void 0!==arguments[2]?arguments[2]:1,r=arguments.length>3&&void 0!==arguments[3]?arguments[3]:1;return t<0||t>1||e<0||e>1?null:p(t,n)&&p(e,r)?b:function(i){if(i<=0)return t>0?i*n/t:0===n&&e>0?i*r/e:0;if(i>=1)return e<1?1+(i-1)*(r-1)/(e-1):1===e&&t<1?1+(i-1)*(n-1)/(t-1):1;for(var u,o=0,a=1;o<a;){var l=w(t,e,u=(o+a)/2);if(p(i,l))break;l<i?o=u:a=u}return w(n,r,u)}}function A(){return 1}function k(t){return 1===t?1:0}function _(){var t=arguments.length>0&&void 0!==arguments[0]?arguments[0]:1,n=arguments.length>1&&void 0!==arguments[1]?arguments[1]:0;if(1===t){if(0===n)return k;if(1===n)return A}var e=1/t;return function(t){return t>=1?1:(t+=n*e)-t%e}}var S=Math.sin,O=Math.cos,j=Math.acos,M=Math.asin,P=Math.tan,E=Math.atan2,I=Math.PI/180,R=180/Math.PI,F=Math.sqrt,N=function(){function t(){var n=arguments.length>0&&void 0!==arguments[0]?arguments[0]:1,e=arguments.length>1&&void 0!==arguments[1]?arguments[1]:0,i=arguments.length>2&&void 0!==arguments[2]?arguments[2]:0,u=arguments.length>3&&void 0!==arguments[3]?arguments[3]:1,o=arguments.length>4&&void 0!==arguments[4]?arguments[4]:0,a=arguments.length>5&&void 0!==arguments[5]?arguments[5]:0;r(this,t),this.m=[n,e,i,u,o,a],this.i=null,this.w=null,this.s=null}return u(t,[{key:"determinant",get:function(){var t=this.m;return t[0]*t[3]-t[1]*t[2]}},{key:"isIdentity",get:function(){if(null===this.i){var t=this.m;this.i=1===t[0]&&0===t[1]&&0===t[2]&&1===t[3]&&0===t[4]&&0===t[5]}return this.i}},{key:"point",value:function(t,n){var e=this.m;return{x:e[0]*t+e[2]*n+e[4],y:e[1]*t+e[3]*n+e[5]}}},{key:"translateSelf",value:function(){var t=arguments.length>0&&void 0!==arguments[0]?arguments[0]:0,n=arguments.length>1&&void 0!==arguments[1]?arguments[1]:0;if(!t&&!n)return this;var e=this.m;return e[4]+=e[0]*t+e[2]*n,e[5]+=e[1]*t+e[3]*n,this.w=this.s=this.i=null,this}},{key:"rotateSelf",value:function(){var t=arguments.length>0&&void 0!==arguments[0]?arguments[0]:0;if(t%=360){var n=S(t*=I),e=O(t),r=this.m,i=r[0],u=r[1];r[0]=i*e+r[2]*n,r[1]=u*e+r[3]*n,r[2]=r[2]*e-i*n,r[3]=r[3]*e-u*n,this.w=this.s=this.i=null}return this}},{key:"scaleSelf",value:function(){var t=arguments.length>0&&void 0!==arguments[0]?arguments[0]:1,n=arguments.length>1&&void 0!==arguments[1]?arguments[1]:1;if(1!==t||1!==n){var e=this.m;e[0]*=t,e[1]*=t,e[2]*=n,e[3]*=n,this.w=this.s=this.i=null}return this}},{key:"skewSelf",value:function(t,n){if(n%=360,(t%=360)||n){var e=this.m,r=e[0],i=e[1],u=e[2],o=e[3];t&&(t=P(t*I),e[2]+=r*t,e[3]+=i*t),n&&(n=P(n*I),e[0]+=u*n,e[1]+=o*n),this.w=this.s=this.i=null}return this}},{key:"resetSelf",value:function(){var t=arguments.length>0&&void 0!==arguments[0]?arguments[0]:1,n=arguments.length>1&&void 0!==arguments[1]?arguments[1]:0,e=arguments.length>2&&void 0!==arguments[2]?arguments[2]:0,r=arguments.length>3&&void 0!==arguments[3]?arguments[3]:1,i=arguments.length>4&&void 0!==arguments[4]?arguments[4]:0,u=arguments.length>5&&void 0!==arguments[5]?arguments[5]:0,o=this.m;return o[0]=t,o[1]=n,o[2]=e,o[3]=r,o[4]=i,o[5]=u,this.w=this.s=this.i=null,this}},{key:"recomposeSelf",value:function(){var t=arguments.length>0&&void 0!==arguments[0]?arguments[0]:null,n=arguments.length>1&&void 0!==arguments[1]?arguments[1]:null,e=arguments.length>2&&void 0!==arguments[2]?arguments[2]:null,r=arguments.length>3&&void 0!==arguments[3]?arguments[3]:null,i=arguments.length>4&&void 0!==arguments[4]?arguments[4]:null;return this.isIdentity||this.resetSelf(),t&&(t.x||t.y)&&this.translateSelf(t.x,t.y),n&&this.rotateSelf(n),e&&(e.x&&this.skewSelf(e.x,0),e.y&&this.skewSelf(0,e.y)),!r||1===r.x&&1===r.y||this.scaleSelf(r.x,r.y),i&&(i.x||i.y)&&this.translateSelf(i.x,i.y),this}},{key:"decompose",value:function(){var t=arguments.length>0&&void 0!==arguments[0]?arguments[0]:0,n=arguments.length>1&&void 0!==arguments[1]?arguments[1]:0,e=this.m,r=e[0]*e[0]+e[1]*e[1],i=[[e[0],e[1]],[e[2],e[3]]],u=F(r);if(0===u)return{origin:{x:d(e[4]),y:d(e[5])},translate:{x:d(t),y:d(n)},scale:{x:0,y:0},skew:{x:0,y:0},rotate:0};i[0][0]/=u,i[0][1]/=u;var o=e[0]*e[3]-e[1]*e[2]<0;o&&(u=-u);var a=i[0][0]*i[1][0]+i[0][1]*i[1][1];i[1][0]-=i[0][0]*a,i[1][1]-=i[0][1]*a;var l=F(i[1][0]*i[1][0]+i[1][1]*i[1][1]);if(0===l)return{origin:{x:d(e[4]),y:d(e[5])},translate:{x:d(t),y:d(n)},scale:{x:d(u),y:0},skew:{x:0,y:0},rotate:0};i[1][0]/=l,i[1][1]/=l,a/=l;var s=0;return i[1][1]<0?(s=j(i[1][1])*R,i[0][1]<0&&(s=360-s)):s=M(i[0][1])*R,o&&(s=-s),a=E(a,F(i[0][0]*i[0][0]+i[0][1]*i[0][1]))*R,o&&(a=-a),{origin:{x:d(e[4]),y:d(e[5])},translate:{x:d(t),y:d(n)},scale:{x:d(u),y:d(l)},skew:{x:d(a),y:0},rotate:d(s)}}},{key:"clone",value:function(){var t=this.m;return new this.constructor(t[0],t[1],t[2],t[3],t[4],t[5])}},{key:"toString",value:function(){var t=arguments.length>0&&void 0!==arguments[0]?arguments[0]:" ";if(null===this.s){var n=this.m.map((function(t){return d(t)}));1===n[0]&&0===n[1]&&0===n[2]&&1===n[3]?this.s="translate("+n[4]+t+n[5]+")":this.s="matrix("+n.join(t)+")"}return this.s}}],[{key:"create",value:function(t){return t?Array.isArray(t)?f(this,v(t)):t instanceof this?t.clone():(new this).recomposeSelf(t.origin,t.rotate,t.skew,t.scale,t.translate):new this}}]),t}();function T(t,n,e){return t>=.5?e:n}function q(t,n,e){return 0===t||n===e?n:t*(e-n)+n}function B(t,n,e){var r=q(t,n,e);return r<=0?0:r}function L(t,n,e){var r=q(t,n,e);return r<=0?0:r>=1?1:r}function C(t,n,e){return 0===t?n:1===t?e:{x:q(t,n.x,e.x),y:q(t,n.y,e.y)}}function D(t,n,e){var r=function(t,n,e){return Math.round(q(t,n,e))}(t,n,e);return r<=0?0:r>=255?255:r}function z(t,n,e){return 0===t?n:1===t?e:{r:D(t,n.r,e.r),g:D(t,n.g,e.g),b:D(t,n.b,e.b),a:q(t,null==n.a?1:n.a,null==e.a?1:e.a)}}function V(t,n){for(var e=[],r=0;r<t;r++)e.push(n);return e}function G(t,n){if(--n<=0)return t;var e=(t=Object.assign([],t)).length;do{for(var r=0;r<e;r++)t.push(t[r])}while(--n>0);return t}var Y,$=function(){function t(n){r(this,t),this.list=n,this.length=n.length}return u(t,[{key:"setAttribute",value:function(t,n){for(var e=this.list,r=0;r<this.length;r++)e[r].setAttribute(t,n)}},{key:"removeAttribute",value:function(t){for(var n=this.list,e=0;e<this.length;e++)n[e].removeAttribute(t)}},{key:"style",value:function(t,n){for(var e=this.list,r=0;r<this.length;r++)e[r].style[t]=n}}]),t}(),U=/-./g,Q=function(t,n){return n.toUpperCase()};function H(t){return"function"==typeof t?t:T}function J(t){return t?"function"==typeof t?t:Array.isArray(t)?function(t){var n=arguments.length>1&&void 0!==arguments[1]?arguments[1]:b;if(!Array.isArray(t))return n;switch(t.length){case 1:return _(t[0])||n;case 2:return _(t[0],t[1])||n;case 4:return x(t[0],t[1],t[2],t[3])||n}return n}(t,null):function(t,n){var e=arguments.length>2&&void 0!==arguments[2]?arguments[2]:b;switch(t){case"linear":return b;case"steps":return _(n.steps||1,n.jump||0)||e;case"bezier":case"cubic-bezier":return x(n.x1||0,n.y1||0,n.x2||0,n.y2||0)||e}return e}(t.type,t.value,null):null}function Z(t,n,e){var r=arguments.length>3&&void 0!==arguments[3]&&arguments[3],i=n.length-1;if(t<=n[0].t)return r?[0,0,n[0].v]:n[0].v;if(t>=n[i].t)return r?[i,1,n[i].v]:n[i].v;var u,o=n[0],a=null;for(u=1;u<=i;u++){if(!(t>n[u].t)){a=n[u];break}o=n[u]}return null==a?r?[i,1,n[i].v]:n[i].v:o.t===a.t?r?[u,1,a.v]:a.v:(t=(t-o.t)/(a.t-o.t),o.e&&(t=o.e(t)),r?[u,t,e(t,o.v,a.v)]:e(t,o.v,a.v))}function K(t,n){var e=arguments.length>2&&void 0!==arguments[2]?arguments[2]:null;return t&&t.length?"function"!=typeof n?null:("function"!=typeof e&&(e=null),function(r){var i=Z(r,t,n);return null!=i&&e&&(i=e(i)),i}):null}function W(t,n){return t.t-n.t}function X(t,n,r,i,u){var o,a="@"===r[0],l="#"===r[0],s=Y[r],f=T;switch(a?(o=r.substr(1),r=o.replace(U,Q)):l&&(r=r.substr(1)),e(s)){case"function":if(f=s(i,u,Z,J,r,a,n,t),l)return f;break;case"string":f=K(i,H(s));break;case"object":if((f=K(i,H(s.i),s.f))&&"function"==typeof s.u)return s.u(n,f,r,a,t)}return f?function(t,n,e){if(arguments.length>3&&void 0!==arguments[3]&&arguments[3])return t instanceof $?function(r){return t.style(n,e(r))}:function(r){return t.style[n]=e(r)};if(Array.isArray(n)){var r=n.length;return function(i){var u=e(i);if(null==u)for(var o=0;o<r;o++)t[o].removeAttribute(n);else for(var a=0;a<r;a++)t[a].setAttribute(n,u)}}return function(r){var i=e(r);null==i?t.removeAttribute(n):t.setAttribute(n,i)}}(n,r,f,a):null}function tt(t,n,r,i){if(!i||"object"!==e(i))return null;var u=null,o=null;return Array.isArray(i)?o=function(t){if(!t||!t.length)return null;for(var n=0;n<t.length;n++)t[n].e&&(t[n].e=J(t[n].e));return t.sort(W)}(i):(o=i.keys,u=i.data||null),o?X(t,n,r,o,u):null}function nt(t,n,e){if(!e)return null;var r=[];for(var i in e)if(e.hasOwnProperty(i)){var u=tt(t,n,i,e[i]);u&&r.push(u)}return r.length?r:null}function et(t,n){if(!n.settings.duration||n.settings.duration<0)return null;var e,r,i,u,o,a=function(t,n){if(!n)return null;var e=[];if(Array.isArray(n))for(var r=n.length,i=0;i<r;i++){var u=n[i];if(2===u.length){var o=null;if("string"==typeof u[0])o=t.getElementById(u[0]);else if(Array.isArray(u[0])){o=[];for(var a=0;a<u[0].length;a++)if("string"==typeof u[0][a]){var l=t.getElementById(u[0][a]);l&&o.push(l)}o=o.length?1===o.length?o[0]:new $(o):null}if(o){var s=nt(t,o,u[1]);s&&(e=e.concat(s))}}}else for(var f in n)if(n.hasOwnProperty(f)){var c=t.getElementById(f);if(c){var h=nt(t,c,n[f]);h&&(e=e.concat(h))}}return e.length?e:null}(t,n.elements);return a?(e=a,r=n.settings,i=r.duration,u=e.length,o=null,function(t,n){var a=r.iterations||1/0,l=(r.alternate&&a%2==0)^r.direction>0?i:0,s=t%i,f=1+(t-s)/i;n*=r.direction,r.alternate&&f%2==0&&(n=-n);var c=!1;if(f>a)s=l,c=!0,-1===r.fill&&(s=r.direction>0?0:i);else if(n<0&&(s=i-s),s===o)return!1;o=s;for(var h=0;h<u;h++)e[h](s);return c}):null}function rt(t,n){if(Y=n,!t||!t.root||!Array.isArray(t.animations))return null;var e=function(t){for(var n=document.getElementsByTagName("svg"),e=0;e<n.length;e++)if(n[e].id===t.root&&!n[e].svgatorAnimation)return n[e].svgatorAnimation=!0,n[e];return null}(t);if(!e)return null;var r=t.animations.map((function(t){return et(e,t)})).filter((function(t){return!!t}));return r.length?{svg:e,animations:r,animationSettings:t.animationSettings,options:t.options||void 0}:null}function it(t){return+("0x"+(t.replace(/[^0-9a-fA-F]+/g,"")||27))}function ut(t,n,e){return!t||!e||n>t.length?t:t.substring(0,n)+ut(t.substring(n+1),e,e)}function ot(t){var n=arguments.length>1&&void 0!==arguments[1]?arguments[1]:27;return!t||t%n?t%n:ot(t/n,n)}function at(t,n,e){if(t&&t.length){var r=it(e),i=it(n),u=ot(r)+5,o=ut(t,ot(r,5),u);return o=o.replace(/\x7c$/g,"==").replace(/\x2f$/g,"="),o=function(t,n,e){var r=+("0x"+t.substring(0,4));t=t.substring(4);for(var i=n%r+e%27,u=[],o=0;o<t.length;o+=2)if("|"!==t[o]){var a=+("0x"+t[o]+t[o+1])-i;u.push(a)}else{var l=+("0x"+t.substring(o+1,o+1+4))-i;o+=3,u.push(l)}return String.fromCharCode.apply(String,u)}(o=(o=atob(o)).replace(/[\x41-\x5A]/g,""),i,r),o=JSON.parse(o)}}var lt=[{key:"alternate",def:!1},{key:"fill",def:1},{key:"iterations",def:0},{key:"direction",def:1},{key:"speed",def:1},{key:"fps",def:100}],st=function(){function t(n,e){var i=this,u=arguments.length>2&&void 0!==arguments[2]?arguments[2]:null;r(this,t),this._id=0,this._running=!1,this._rollingBack=!1,this._animations=n,this._settings=e,(!u||u<"2022-05-02")&&delete this._settings.speed,lt.forEach((function(t){i._settings[t.key]=i._settings[t.key]||t.def})),this.duration=e.duration,this.offset=e.offset||0,this.rollbackStartOffset=0}return u(t,[{key:"alternate",get:function(){return this._settings.alternate}},{key:"fill",get:function(){return this._settings.fill}},{key:"iterations",get:function(){return this._settings.iterations}},{key:"direction",get:function(){return this._settings.direction}},{key:"speed",get:function(){return this._settings.speed}},{key:"fps",get:function(){return this._settings.fps}},{key:"maxFiniteDuration",get:function(){return this.iterations>0?this.iterations*this.duration:this.duration}},{key:"_apply",value:function(t){for(var n=arguments.length>1&&void 0!==arguments[1]?arguments[1]:{},e=this._animations,r=e.length,i=0,u=0;u<r;u++)n[u]?i++:(n[u]=e[u](t,1),n[u]&&i++);return i}},{key:"_rollback",value:function(t){var n=this,e=1/0,r=null;this.rollbackStartOffset=t,this._rollingBack=!0,this._running=!0;this._id=window.requestAnimationFrame((function i(u){if(n._rollingBack){null==r&&(r=u);var o=Math.round(t-(u-r)*n.speed);if(o>n.duration&&e!==1/0){var a=!!n.alternate&&o/n.duration%2>1,l=o%n.duration;o=(l+=a?n.duration:0)||n.duration}var s=(n.fps?1e3/n.fps:0)*n.speed,f=Math.max(0,o);f<e-s&&(n.offset=f,e=f,n._apply(f));var c=n.iterations>0&&-1===n.fill&&o>=n.maxFiniteDuration;(o<=0||n.offset<o||c)&&n.stop(),n._id=window.requestAnimationFrame(i)}}))}},{key:"_start",value:function(){var t=this,n=arguments.length>0&&void 0!==arguments[0]?arguments[0]:0,e=-1/0,r=null,i={};this._running=!0;var u=function u(o){null==r&&(r=o);var a=Math.round((o-r)*t.speed+n),l=(t.fps?1e3/t.fps:0)*t.speed;if(a>e+l&&!t._rollingBack&&(t.offset=a,e=a,t._apply(a,i)===t._animations.length))return void t.pause(!0);t._id=window.requestAnimationFrame(u)};this._id=window.requestAnimationFrame(u)}},{key:"_pause",value:function(){this._id&&window.cancelAnimationFrame(this._id),this._running=!1}},{key:"play",value:function(){if(!this._running)return this._rollingBack?this._rollback(this.offset):this._start(this.offset)}},{key:"stop",value:function(){this._pause(),this.offset=0,this.rollbackStartOffset=0,this._rollingBack=!1,this._apply(0)}},{key:"reachedToEnd",value:function(){return this.iterations>0&&this.offset>=this.iterations*this.duration}},{key:"restart",value:function(){var t=arguments.length>0&&void 0!==arguments[0]&&arguments[0];this.stop(t),this.play(t)}},{key:"pause",value:function(){this._pause()}},{key:"reverse",value:function(){this.direction=-this.direction}}],[{key:"build",value:function(t,n){delete t.animationSettings,t.options=at(t.options,t.root,"5c7f360c"),t.animations.map((function(n){n.settings=at(n.s,t.root,"5c7f360c"),delete n.s,t.animationSettings||(t.animationSettings=n.settings)}));var e=t.version;if(!(t=rt(t,n)))return null;var r=t.options||{},i=new this(t.animations,t.animationSettings,e);return{el:t.svg,options:r,player:i}}},{key:"push",value:function(t){return this.build(t)}},{key:"init",value:function(){var t=this,n=window.__SVGATOR_PLAYER__&&window.__SVGATOR_PLAYER__["5c7f360c"];Array.isArray(n)&&n.splice(0).forEach((function(n){return t.build(n)}))}}]),t}();function ft(t){return d(t)+""}function ct(t){var n=arguments.length>1&&void 0!==arguments[1]?arguments[1]:" ";return t&&t.length?t.map(ft).join(n):""}function ht(t){if(!t)return"transparent";if(null==t.a||t.a>=1){var n=function(t){return 1===(t=parseInt(t).toString(16)).length?"0"+t:t},e=function(t){return t.charAt(0)===t.charAt(1)},r=n(t.r),i=n(t.g),u=n(t.b);return e(r)&&e(i)&&e(u)&&(r=r.charAt(0),i=i.charAt(0),u=u.charAt(0)),"#"+r+i+u}return"rgba("+t.r+","+t.g+","+t.b+","+t.a+")"}function vt(t){return t?"url(#"+t+")":"none"}!function(){for(var t=0,n=["ms","moz","webkit","o"],e=0;e<n.length&&!window.requestAnimationFrame;++e)window.requestAnimationFrame=window[n[e]+"RequestAnimationFrame"],window.cancelAnimationFrame=window[n[e]+"CancelAnimationFrame"]||window[n[e]+"CancelRequestAnimationFrame"];window.requestAnimationFrame||(window.requestAnimationFrame=function(n){var e=Date.now(),r=Math.max(0,16-(e-t)),i=window.setTimeout((function(){n(e+r)}),r);return t=e+r,i},window.cancelAnimationFrame=window.clearTimeout)}();var yt={f:null,i:function(t,n,e){return 0===t?n:1===t?e:{x:B(t,n.x,e.x),y:B(t,n.y,e.y)}},u:function(t,n){return function(e){var r=n(e);t.setAttribute("rx",ft(r.x)),t.setAttribute("ry",ft(r.y))}}},gt={f:null,i:function(t,n,e){return 0===t?n:1===t?e:{width:B(t,n.width,e.width),height:B(t,n.height,e.height)}},u:function(t,n){return function(e){var r=n(e);t.setAttribute("width",ft(r.width)),t.setAttribute("height",ft(r.height))}}};Object.freeze({M:2,L:2,Z:0,H:1,V:1,C:6,Q:4,T:2,S:4,A:7});var dt={},pt=null;function mt(t){var n=function(){if(pt)return pt;if("object"!==("undefined"==typeof document?"undefined":e(document))||!document.createElementNS)return{};var t=document.createElementNS("http://www.w3.org/2000/svg","svg");return t&&t.style?(t.style.position="absolute",t.style.opacity="0.01",t.style.zIndex="-9999",t.style.left="-9999px",t.style.width="1px",t.style.height="1px",pt={svg:t}):{}}().svg;if(!n)return function(t){return null};var r=document.createElementNS(n.namespaceURI,"path");r.setAttributeNS(null,"d",t),r.setAttributeNS(null,"fill","none"),r.setAttributeNS(null,"stroke","none"),n.appendChild(r);var i=r.getTotalLength();return function(t){var n=r.getPointAtLength(i*t);return{x:n.x,y:n.y}}}function bt(t){return dt[t]?dt[t]:dt[t]=mt(t)}function wt(t,n,e,r){if(!t||!r)return!1;var i=["M",t.x,t.y];if(n&&e&&(i.push("C"),i.push(n.x),i.push(n.y),i.push(e.x),i.push(e.y)),n?!e:e){var u=n||e;i.push("Q"),i.push(u.x),i.push(u.y)}return n||e||i.push("L"),i.push(r.x),i.push(r.y),i.join(" ")}function xt(t,n,e,r){var i=arguments.length>4&&void 0!==arguments[4]?arguments[4]:1,u=wt(t,n,e,r),o=bt(u);try{return o(i)}catch(t){return null}}function At(t,n,e){return t+(n-t)*e}function kt(t,n,e){var r=arguments.length>3&&void 0!==arguments[3]&&arguments[3],i={x:At(t.x,n.x,e),y:At(t.y,n.y,e)};return r&&(i.a=_t(t,n)),i}function _t(t,n){return Math.atan2(n.y-t.y,n.x-t.x)}function St(t,n,e,r){var i=1-r;return i*i*t+2*i*r*n+r*r*e}function Ot(t,n,e,r){return 2*(1-r)*(n-t)+2*r*(e-n)}function jt(t,n,e,r){var i=arguments.length>4&&void 0!==arguments[4]&&arguments[4],u=xt(t,n,null,e,r);return u||(u={x:St(t.x,n.x,e.x,r),y:St(t.y,n.y,e.y,r)}),i&&(u.a=Mt(t,n,e,r)),u}function Mt(t,n,e,r){return Math.atan2(Ot(t.y,n.y,e.y,r),Ot(t.x,n.x,e.x,r))}function Pt(t,n,e,r,i){var u=i*i;return i*u*(r-t+3*(n-e))+3*u*(t+e-2*n)+3*i*(n-t)+t}function Et(t,n,e,r,i){var u=1-i;return 3*(u*u*(n-t)+2*u*i*(e-n)+i*i*(r-e))}function It(t,n,e,r,i){var u=arguments.length>5&&void 0!==arguments[5]&&arguments[5],o=xt(t,n,e,r,i);return o||(o={x:Pt(t.x,n.x,e.x,r.x,i),y:Pt(t.y,n.y,e.y,r.y,i)}),u&&(o.a=Rt(t,n,e,r,i)),o}function Rt(t,n,e,r,i){return Math.atan2(Et(t.y,n.y,e.y,r.y,i),Et(t.x,n.x,e.x,r.x,i))}function Ft(t,n,e){var r=arguments.length>3&&void 0!==arguments[3]&&arguments[3];if(Tt(n)){if(qt(e))return jt(n,e.start,e,t,r)}else if(Tt(e)){if(Bt(n))return jt(n,n.end,e,t,r)}else{if(Bt(n))return qt(e)?It(n,n.end,e.start,e,t,r):jt(n,n.end,e,t,r);if(qt(e))return jt(n,e.start,e,t,r)}return kt(n,e,t,r)}function Nt(t,n,e){var r=Ft(t,n,e,!0);return r.a=function(t){return arguments.length>1&&void 0!==arguments[1]&&arguments[1]?t+Math.PI:t}(r.a)/m,r}function Tt(t){return!t.type||"corner"===t.type}function qt(t){return null!=t.start&&!Tt(t)}function Bt(t){return null!=t.end&&!Tt(t)}var Lt=new N;var Ct={f:ft,i:q},Dt={f:ft,i:L};function zt(t,n,e){return t.map((function(t){return function(t,n,e){var r=t.v;if(!r||"g"!==r.t||r.s||!r.v||!r.r)return t;var i=e.getElementById(r.r),u=i&&i.querySelectorAll("stop")||[];return r.s=r.v.map((function(t,n){var e=u[n]&&u[n].getAttribute("offset");return{c:t,o:e=d(parseInt(e)/100)}})),delete r.v,t}(t,0,e)}))}var Vt={gt:"gradientTransform",c:{x:"cx",y:"cy"},rd:"r",f:{x:"x1",y:"y1"},to:{x:"x2",y:"y2"}};function Gt(t,n,r,i,u,o,a,l){return zt(t,0,l),n=function(t,n,e){for(var r,i,u,o=t.length-1,a={},l=0;l<=o;l++)(r=t[l]).e&&(r.e=n(r.e)),r.v&&"g"===(i=r.v).t&&i.r&&(u=e.getElementById(i.r))&&(a[i.r]={e:u,s:u.querySelectorAll("stop")});return a}(t,i,l),function(i){var u=r(i,t,Yt);if(!u)return"none";if("c"===u.t)return ht(u.v);if("g"===u.t){if(!n[u.r])return vt(u.r);var o=n[u.r];return function(t,n){for(var e=t.s,r=e.length;r<n.length;r++){var i=e[e.length-1].cloneNode();i.id=Qt(i.id),t.e.appendChild(i),e=t.s=t.e.querySelectorAll("stop")}for(var u=0,o=e.length,a=n.length-1;u<o;u++)e[u].setAttribute("stop-color",ht(n[Math.min(u,a)].c)),e[u].setAttribute("offset",n[Math.min(u,a)].o)}(o,u.s),Object.keys(Vt).forEach((function(t){if(void 0!==u[t])if("object"!==e(Vt[t])){var n,r="gt"===t?(n=u[t],Array.isArray(n)?"matrix("+n.join(" ")+")":""):u[t],i=Vt[t];o.e.setAttribute(i,r)}else Object.keys(Vt[t]).forEach((function(n){if(void 0!==u[t][n]){var e=u[t][n],r=Vt[t][n];o.e.setAttribute(r,e)}}))})),vt(u.r)}return"none"}}function Yt(t,e,r){if(0===t)return e;if(1===t)return r;if(e&&r){var i=e.t;if(i===r.t)switch(e.t){case"c":return{t:i,v:z(t,e.v,r.v)};case"g":if(e.r===r.r){var u={t:i,s:$t(t,e.s,r.s),r:e.r};return e.gt&&r.gt&&(u.gt=function(t,n,e){var r=n.length;if(r!==e.length)return T(t,n,e);for(var i=new Array(r),u=0;u<r;u++)i[u]=q(t,n[u],e[u]);return i}(t,e.gt,r.gt)),e.c?(u.c=C(t,e.c,r.c),u.rd=B(t,e.rd,r.rd)):e.f&&(u.f=C(t,e.f,r.f),u.to=C(t,e.to,r.to)),u}}if("c"===e.t&&"g"===r.t||"c"===r.t&&"g"===e.t){var o="c"===e.t?e:r,a="g"===e.t?n({},e):n({},r),l=a.s.map((function(t){return{c:o.v,o:t.o}}));return a.s="c"===e.t?$t(t,l,a.s):$t(t,a.s,l),a}}return T(t,e,r)}function $t(t,n,e){if(n.length===e.length)return n.map((function(n,r){return Ut(t,n,e[r])}));for(var r=Math.max(n.length,e.length),i=[],u=0;u<r;u++){var o=Ut(t,n[Math.min(u,n.length-1)],e[Math.min(u,e.length-1)]);i.push(o)}return i}function Ut(t,n,e){return{o:L(t,n.o,e.o||0),c:z(t,n.c,e.c||{})}}function Qt(t){return t.replace(/-fill-([0-9]+)$/,(function(t,n){return"-fill-"+(+n+1)}))}var Ht={fill:Gt,"fill-opacity":Dt,stroke:Gt,"stroke-opacity":Dt,"stroke-width":Ct,"stroke-dashoffset":{f:ft,i:q},"stroke-dasharray":{f:function(t){var n=arguments.length>1&&void 0!==arguments[1]?arguments[1]:" ";return t&&t.length>0&&(t=t.map((function(t){return d(t,4)}))),ct(t,n)},i:function(t,n,e){var r,i,u,o=n.length,a=e.length;if(o!==a)if(0===o)n=V(o=a,0);else if(0===a)a=o,e=V(o,0);else{var l=(u=(r=o)*(i=a)/function(t,n){for(var e;n;)e=n,n=t%n,t=e;return t||1}(r,i))<0?-u:u;n=G(n,Math.floor(l/o)),e=G(e,Math.floor(l/a)),o=a=l}for(var s=[],f=0;f<o;f++)s.push(d(B(t,n[f],e[f])));return s}},opacity:Dt,transform:function(t,n,r,i){if(!(t=function(t,n){if(!t||"object"!==e(t))return null;var r=!1;for(var i in t)t.hasOwnProperty(i)&&(t[i]&&t[i].length?(t[i].forEach((function(t){t.e&&(t.e=n(t.e))})),r=!0):delete t[i]);return r?t:null}(t,i)))return null;var u=function(e,i,u){var o=arguments.length>3&&void 0!==arguments[3]?arguments[3]:null;return t[e]?r(i,t[e],u):n&&n[e]?n[e]:o};return n&&n.a&&t.o?function(n){var e=r(n,t.o,Nt);return Lt.recomposeSelf(e,u("r",n,q,0)+e.a,u("k",n,C),u("s",n,C),u("t",n,C)).toString()}:function(t){return Lt.recomposeSelf(u("o",t,Ft,null),u("r",t,q,0),u("k",t,C),u("s",t,C),u("t",t,C)).toString()}},r:Ct,"#size":gt,"#radius":yt,_:function(t,n){if(Array.isArray(t))for(var e=0;e<t.length;e++)this[t[e]]=n;else this[t]=n}},Jt=function(t){!function(t,n){if("function"!=typeof n&&null!==n)throw new TypeError("Super expression must either be null or a function");t.prototype=Object.create(n&&n.prototype,{constructor:{value:t,writable:!0,configurable:!0}}),n&&l(t,n)}(o,t);var n,e,i=(n=o,e=s(),function(){var t,r=a(n);if(e){var i=a(this).constructor;t=Reflect.construct(r,arguments,i)}else t=r.apply(this,arguments);return c(this,t)});function o(){return r(this,o),i.apply(this,arguments)}return u(o,null,[{key:"build",value:function(t){var n=h(a(o),"build",this).call(this,t,Ht);if(!n)return null;n.el,n.options,function(t,n,e){t.play()}(n.player)}}]),o}(st);return Jt.init(),Jt}));
(function(s,i,o,w,a,b){w[o]=w[o]||{};w[o][s]=w[o][s]||[];w[o][s].push(i);})('5c7f360c',{"root":"eswybLBDQqa1","version":"2022-05-04","animations":[{"elements":{"eswybLBDQqa18":{"opacity":[{"t":0,"v":0},{"t":720,"v":0},{"t":750,"v":1},{"t":780,"v":0},{"t":810,"v":1}]},"eswybLBDQqa23":{"transform":{"data":{"o":{"x":253.252487,"y":209.108551,"type":"corner"},"r":-2.972824,"t":{"x":-253.252487,"y":-209.108551}},"keys":{"s":[{"t":0,"v":{"x":0.200704,"y":0.200704}},{"t":600,"v":{"x":1.0345,"y":1.0345}}]}}},"eswybLBDQqa24":{"transform":{"data":{"o":{"x":177.1185,"y":123.624996,"type":"corner"},"r":32.788054,"t":{"x":-177.1185,"y":-123.624996}},"keys":{"s":[{"t":200,"v":{"x":1,"y":0}},{"t":300,"v":{"x":1,"y":1}},{"t":400,"v":{"x":1,"y":0}},{"t":500,"v":{"x":1,"y":1}}]}}},"eswybLBDQqa25":{"transform":{"data":{"o":{"x":209.267929,"y":140.537186,"type":"corner"},"r":40.188866,"t":{"x":-209.267929,"y":-140.537186}},"keys":{"s":[{"t":200,"v":{"x":1,"y":0}},{"t":300,"v":{"x":1,"y":1}},{"t":400,"v":{"x":1,"y":0}},{"t":500,"v":{"x":1,"y":1}}]}}}},"s":"MKDA1M0tiYTYxYTNiNGUIxYTBiM2E4YWVhZDYIxNzk3MDc0NmY2ZjZiVNjFhM2E4YjFhNGEyYMjNhOGFlYWQ2MTc5NzUBCNmI2MWE4YjNhNENMRYjFhME1iM2E4YWVhPZFliMjYxNzk2ZlU2YRk02MWE1YThDYWJQYWQI2MTc5NzBJNmI2MWESwYWJiM2E0YjFhZGEwHYjNhNDYxNzlhNWEwYHWJiMmE0NmI2MWIyYWTZhNGE0TmEzNjE3OTcVwYmM/"}],"options":"MHDAxMDg4MmY4ME04MTMZlTDdmODEyZkQ0NzJGmNzk3YzZlUjcxMmY4DYQ|"},'__SVGATOR_PLAYER__',window)]]></script></svg>