<svg id="eGlOjiz85VN1" xmlns="http://www.w3.org/2000/svg" xmlns:xlink="http://www.w3.org/1999/xlink" viewBox="0 0 500 500" shape-rendering="geometricPrecision" text-rendering="geometricPrecision" width="500" height="500"><g transform="translate(7.893005 21.203763)" clip-path="url(#eGlOjiz85VN37)"><g><path d="M221.491,220.026v24.869c-.345-12.176-20.161-21.218-20.161-21.218l-6.429,2.783c0,0-3.999,21.916-3.999,24.178s17.034,32.698,18.773,35.306c1.739,2.607,27.462,9.563,31.11,9.563s32.153-6.434,36.498-8.866s19.985-24.875,22.246-28.526c2.26-3.651,3.302-40.351-3.824-40.527-7.126-.175-15.295,9.394-15.295,9.394-4.87,4.131-8.366,9.65-10.021,15.822l.459-33.384c0,0-4.163,2.318-.459-2.33c3.705-4.649,9.732-18.084,9.732-18.084s20.161.674,23.18-15.765c1.773-9.688-3.438-14.643-6.021-16.842-.822-.729-1.768-1.305-2.793-1.701c0,0-1.388-6.95-1.847-30.612-.458-23.662-13.442-35.7139-13.442-35.7139s5.098-1.8481,5.557-6.0204-8.786-1.8537-8.786-1.8537-7.885-12.9874-7.885-4.0816-4.628,5.9467-4.628,5.9467c-13.919-8.8151-50.519-6.9614-64.901,0-14.383,6.9613-30.12,5.1019-30.12,5.1019s6.039,12.4886-1.388,23.645c-7.426,11.156,0,19.472,9.732,20.878c1.31.186,2.496.873,3.309,1.916c5.347,6.435,2.266,26.372,2.266,26.372c1.37,73.282,70.435,57.018,70.435,57.018l-31.298,2.732Z" fill="#fff"/><path d="M221.491,220.026h-1.982v24.869h1.982l1.983-.056c-.067-1.755-.451-3.484-1.133-5.102-1.209-2.782-2.94-5.307-5.098-7.438-2.967-2.935-6.285-5.492-9.879-7.613-1.688-1.036-3.43-1.982-5.218-2.835l-.798-.368-8.18,3.571-.187,1.043c0,0-1.003,5.488-2.006,11.259-.498,2.885-1.002,5.844-1.376,8.231-.193,1.196-.346,2.268-.459,3.089-.057.428-.102.805-.136,1.134-.034.282-.053.566-.057.851.002.152.016.303.04.453.04.215.093.427.159.635.124.386.289.805.498,1.293.391.907.935,2.057,1.598,3.401c2.334,4.699,6.169,11.797,9.601,17.999c1.7,3.095,3.331,5.969,4.606,8.197.634,1.134,1.189,2.069,1.626,2.834l.566.958c.164.267.289.476.408.646.161.236.351.449.566.635.349.307.729.577,1.133.805.934.516,1.901.968,2.895,1.355c2,.817,4.532,1.701,7.262,2.546c4.102,1.286,8.656,2.551,12.491,3.497c1.915.476,3.648.868,5.064,1.134.708.136,1.343.249,1.887.329.479.078.964.122,1.45.13.398-.006.795-.034,1.189-.085.844-.096,1.938-.272,3.252-.504c4.583-.828,11.805-2.41,18.376-4.042c3.286-.817,6.402-1.65,8.951-2.404c1.269-.38,2.402-.743,3.353-1.083.476-.17.907-.34,1.292-.499.36-.147.712-.316,1.053-.504.445-.259.864-.559,1.252-.896.898-.786,1.746-1.629,2.538-2.522c1.62-1.786,3.49-4.076,5.433-6.582c2.917-3.753,5.987-7.936,8.497-11.536c1.263-1.786,2.385-3.401,3.285-4.728.901-1.326,1.569-2.33,1.949-2.948.245-.41.435-.85.566-1.309.271-.95.472-1.918.601-2.897.26-1.701.464-3.821.606-6.185s.221-4.977.221-7.664c0-5.629-.346-11.559-1.246-16.253-.208-1.107-.473-2.202-.793-3.282-.387-1.396-1.003-2.718-1.824-3.912-.407-.556-.912-1.032-1.49-1.405-.626-.401-1.348-.624-2.091-.647h-.243c-2.181.075-4.315.657-6.231,1.701-2.662,1.415-5.117,3.189-7.297,5.272-1.082.989-2.109,2.038-3.075,3.141l1.484,1.247-1.286-1.514c-3.603,3.089-6.523,6.894-8.577,11.173-.911,1.837-1.616,3.768-2.101,5.76l1.943.403l1.982.028.51-36.808-2.991,1.661.533.964-.533-.964.533.964-.533-.964-.13.068c-.157.078-.317.148-.482.21l-.169.056.13.658v-.663h-.13l.13.657v.703l.34-1.321c-.111-.029-.225-.044-.34-.045v1.366l.34-1.321-.408,1.582.838-1.4c-.134-.081-.279-.143-.43-.182l-.408,1.582.838-1.4-.878,1.513l1.541-.782c-.149-.288-.374-.529-.651-.697l-.89,1.479l1.541-.782-1.439.731h1.62c-.003-.254-.065-.505-.181-.731l-1.439.731h.414l1.189.261c.01-.087.01-.174,0-.261h-1.189l1.189.261-.566-.119.527.187v-.068l-.567-.119.527.187c.085-.18.186-.353.3-.516.187-.289.465-.669.844-1.134.572-.728,1.107-1.485,1.603-2.267.952-1.485,1.943-3.231,2.901-5.023c2.877-5.374,5.483-11.19,5.495-11.213l-1.813-.81-.062,1.984h.396c4.143-.04,8.245-.831,12.106-2.336c2.941-1.147,5.602-2.914,7.8-5.181c2.563-2.742,4.263-6.179,4.889-9.881.257-1.376.387-2.773.39-4.172.066-3.388-.839-6.724-2.605-9.615-1.203-1.881-2.694-3.56-4.419-4.977-1.013-.908-2.187-1.617-3.461-2.092l-.612,1.888l1.949-.391-.805.164.805-.159-.805.165.805-.159c0-.034-1.365-7.046-1.818-30.26-.233-12.188-3.705-21.451-7.138-27.6531-3.433-6.2018-6.798-9.3707-6.934-9.4784l-1.348,1.4512.68,1.8651c1.105-.4274,2.149-.9992,3.104-1.7007.889-.6486,1.672-1.4307,2.323-2.3185.776-1.0701,1.265-2.321,1.422-3.6338c0-.1701.028-.3401.028-.5102.001-.3996-.058-.7972-.176-1.1791-.197-.6572-.574-1.2462-1.087-1.7007-.338-.2975-.721-.5404-1.133-.7199-.559-.2421-1.148-.408-1.751-.4932-.574-.0844-1.153-.1242-1.733-.1191-1.235.014-2.466.1297-3.682.3458-1.003.1758-1.7.3458-1.7.3515l.482,1.9274l1.699-1.0317c0-.034-1.133-1.8707-2.583-3.7755-.722-.97-1.522-1.88-2.39-2.721-.424-.407-.892-.7662-1.394-1.0715-.269-.1621-.554-.2969-.85-.4025-.348-.1172-.714-.1784-1.082-.1813-.3-.0051-.599.0409-.883.136-.513.164-.971.4684-1.32.8787-.234.2717-.425.5775-.567.907-.198.4689-.332.963-.396,1.4682-.08.5633-.118,1.1318-.113,1.7007.014.9504-.066,1.8998-.238,2.8344-.073.3905-.19.771-.352,1.1338-.181.3571-.294.4252-.322.4422-.029.017,0,0-.108,0-.142-.0053-.282-.036-.414-.0907l-.153-.0737-.464.788.493-.771h-.029l-.464.788.493-.771c-3.614-2.2675-8.356-3.7981-13.72-4.8015-5.761-1.0043-11.6-1.49-17.448-1.4513-6.671-.0022-13.332.5381-19.917,1.6157-2.927.4807-5.826,1.1203-8.684,1.916-2.434.6638-4.807,1.5363-7.092,2.6077-4.246,2.008-8.748,3.4178-13.38,4.1893-3.594.62-7.235.9311-10.882.9297-1.501,0-2.708-.051-3.529-.1077-.414,0-.731-.051-.941-.068h-.232-.062l-.029.2097.029-.2097-.029.2097.029-.2097-3.586-.4195l1.569,3.2539.068-.034-.074.034.068-.034-.073.034c1.386,3.2356,2.107,6.7176,2.118,10.238.007,1.8983-.237,3.7893-.725,5.6233-.553,2.06-1.439,4.015-2.623,5.788-2.265,3.401-3.347,6.729-3.347,9.813-.009,1.866.402,3.71,1.201,5.397c1.201,2.429,3.062,4.47,5.37,5.89c2.398,1.488,5.083,2.453,7.879,2.834.385.053.754.182,1.088.38.368.227.696.515.969.85.516.657.925,1.392,1.212,2.177.576,1.606.956,3.275,1.133,4.972.228,1.957.338,3.925.328,5.895c0,3.062-.22,6.021-.436,8.198-.113,1.088-.221,1.984-.3,2.607-.04.306-.074.567-.102.709s0,.142,0,.181v.057.17.176c.244,12.908,2.561,23.191,6.282,31.36c2.501,5.598,6.042,10.669,10.435,14.943c5.724,5.408,12.667,9.353,20.24,11.502c6.468,1.848,13.168,2.762,19.894,2.716c5.389.032,10.765-.5,16.043-1.588l-.652-3.894-33.099,2.885v1.82h1.943l.176,1.973l31.286-2.727-.175-1.978-.453-1.928v.057-.057.057-.057c-4.98,1.014-10.05,1.51-15.131,1.48-5.586.03-11.155-.627-16.581-1.956-4.528-1.115-8.876-2.865-12.915-5.198-6.857-4.018-12.438-9.894-16.099-16.95-4.226-7.937-7.013-18.492-7.28-32.534l-1.982.04l1.96.306c.594-4.093.908-8.222.94-12.358.033-2.832-.192-5.662-.674-8.453-.235-1.315-.592-2.605-1.065-3.854-.438-1.186-1.065-2.293-1.858-3.277-.563-.674-1.235-1.249-1.988-1.701-.788-.47-1.663-.775-2.572-.895-2.927-.366-5.684-1.579-7.931-3.492-.946-.846-1.716-1.871-2.266-3.016-.55-1.152-.831-2.414-.821-3.691c0-2.148.742-4.694,2.685-7.613c1.431-2.145,2.503-4.51,3.172-7.001.578-2.171.868-4.409.861-6.6553-.012-2.8671-.428-5.7182-1.235-8.4693-.334-1.1952-.76-2.3627-1.274-3.492l-1.785.8616-.232,1.9728c1.738.1677,3.483.2453,5.229.2324c3.875.0013,7.743-.3287,11.561-.9863c4.994-.8378,9.848-2.3641,14.423-4.5351c2.077-.97,4.234-1.759,6.446-2.3583c7.483-2.1258,17.646-3.4013,27.525-3.4013c5.593-.0411,11.179.4218,16.689,1.3832c5.047.9297,9.38,2.3809,12.315,4.2516.26.1587.533.2952.816.4082.597.2426,1.235.3696,1.88.3741.685.0051,1.361-.1605,1.966-.4818.523-.2832.983-.6688,1.354-1.1338.613-.8103,1.042-1.7447,1.257-2.738.295-1.3266.432-2.6833.408-4.042-.003-.379.02-.7578.068-1.1337-.006-.1439,0-.288.017-.4309v-.0453l-.691-.3628.419.6349c.112-.0672.205-.1606.272-.2721l-.691-.3628.419.6349-.606-.9184v1.1055c.217.001.428-.0643.606-.1871l-.606-.9184v.5046l-.198.5669c.066.0089.132.0089.198,0v-.601l-.198.5669c.158.0806.306.1796.442.2948.537.455,1.032.9578,1.478,1.5023.786.9542,1.523,1.9475,2.209,2.9761.301.4422.567.822.714,1.0885l.198.3061.046.0793.753,1.2528l1.422-.3571c.04,0,.652-.1587,1.507-.3004.967-.174,1.946-.2669,2.929-.2778.378-.0029.757.0217,1.133.0737.202.0292.401.0767.594.1417.072.0272.142.0594.21.0964l.193-.1928-.25.1021.057.0907.193-.1928-.25.1021.193-.0794-.21.0397v.0397l.193-.0794-.21.0397v.1077c-.02.6636-.217,1.3095-.572,1.8707-.615.8005-1.386,1.4678-2.266,1.9615-.314.1864-.637.3567-.968.5101l-.272.1134h-.057l.334.8957-.328-.8957.334.8957-.329-.8957-3.047,1.1055l2.379,2.2108.793-.8616-.799.856.793-.8617-.798.856.034.034c.351.3401,3.449,3.4013,6.503,9.1439c3.053,5.7428,6.055,14.1038,6.276,25.1298.465,23.725,1.853,30.765,1.887,30.958l.226,1.134l1.133.357.374-1.134-.397,1.134.374-1.134-.396,1.134.034-.102-.034.102.034-.102-.034.102c.783.328,1.507.784,2.141,1.349c1.413,1.153,2.636,2.521,3.625,4.053c1.384,2.239,2.098,4.828,2.057,7.461-.007,1.172-.123,2.341-.346,3.492-.482,2.948-1.829,5.687-3.869,7.868-1.354,1.408-2.938,2.573-4.685,3.447-2.395,1.178-4.954,1.988-7.59,2.403-1.569.266-3.156.408-4.747.426h-.272v.566-.566.566-.566l-1.326-.04-.566,1.213-.068.147c-.329.726-1.87,4.105-3.745,7.818-.94,1.853-1.96,3.792-2.951,5.516-.805,1.453-1.711,2.847-2.713,4.172-.5.609-.956,1.253-1.366,1.927-.156.268-.288.549-.396.839-.134.334-.203.69-.204,1.049-.003.323.06.644.187.941.113.264.277.502.481.703.265.263.59.457.946.567.243.071.495.108.748.108.364-.005.725-.065,1.071-.176.356-.11.702-.249,1.036-.414.267-.125.448-.227.471-.238l-.963-1.735h-1.983l-.459,33.39l3.92.431-.821-.17.821.175-.821-.17.821.176c.438-1.726,1.063-3.399,1.864-4.989c1.807-3.727,4.362-7.043,7.506-9.739l.119-.096.102-.125-.476-.408.476.408-.476-.408.476.408c1.443-1.622,3.016-3.126,4.701-4.495c1.384-1.143,2.884-2.137,4.475-2.965c1.36-.742,2.871-1.165,4.419-1.236h.192c.168.101.313.236.425.397.606.901,1.051,1.9,1.315,2.954.708,2.675,1.171,5.409,1.382,8.168.294,3.175.425,6.644.425,10.006c0,3.968-.182,7.789-.476,10.771-.148,1.479-.323,2.755-.51,3.696-.07.382-.161.761-.272,1.134-.029.106-.065.21-.108.311l-.028.068.244.131-.233-.142.244.131-.232-.142c-.255.408-.742,1.134-1.388,2.109-2.266,3.35-6.503,9.393-10.633,14.824-2.062,2.715-4.095,5.283-5.823,7.267-.861.992-1.649,1.843-2.3,2.478-.329.317-.623.566-.867.782-.161.141-.336.266-.521.374-.278.15-.565.28-.861.391-.753.306-1.847.68-3.155,1.089-4.594,1.417-11.857,3.225-18.292,4.659-3.223.72-6.231,1.35-8.627,1.792-1.19.221-2.221.397-3.031.516-.402.062-.747.107-1.019.136-.188.023-.377.035-.567.034-.226-.004-.451-.023-.674-.057-.64-.085-1.603-.261-2.753-.505-4.05-.856-10.491-2.556-16.026-4.285-2.77-.868-5.324-1.746-7.216-2.517-.773-.303-1.529-.645-2.266-1.026-.196-.105-.386-.223-.567-.352-.028-.018-.055-.039-.079-.062l-.493.516.567-.391c-.063-.091-.097-.119-.097-.125l-.493.516.567-.391c-.074-.108-.238-.369-.448-.726-.804-1.338-2.356-4.048-4.22-7.37-2.793-4.977-6.293-11.337-9.063-16.643-1.4-2.653-2.618-5.04-3.473-6.831-.43-.896-.77-1.644-.986-2.177-.107-.267-.181-.476-.221-.595v-.074l-.974.221h.991c.012-.073.012-.148,0-.221l-.974.221h.991c0,0,0-.193.034-.442.051-.476.153-1.23.289-2.154.476-3.226,1.388-8.549,2.181-13.039.397-2.267.759-4.297,1.031-5.782.131-.737.238-1.338.317-1.757l.114-.641-1.949-.357.788,1.82l6.429-2.784-.787-1.82-.799,1.746c3.455,1.665,6.736,3.671,9.794,5.987c2.406,1.784,4.553,3.894,6.379,6.27.821,1.095,1.502,2.289,2.028,3.554.479,1.162.747,2.4.793,3.656l3.965-.056v-24.864h-2l.176,1.973-.176-1.973Z" fill="#231f20"/><path d="M297.291,156.399c-5.211,3.735-11.573,7.256-13.918,9.88-3.965,4.405-2.085-36.184-9.959-39.648-7.874-3.463,7.874-19.024-5.568-13.452-13.443,5.573-71.144-.703-76.236,0-4.085.567-9.54,15.04-11.522,20.703-.813-1.044-1.999-1.731-3.309-1.916-9.732-1.406-17.152-9.745-9.732-20.879c7.421-11.1334,1.388-23.6559,1.388-23.6559s15.754,1.8537,30.12-5.102c14.365-6.9557,50.982-8.8151,64.901,0c0,0,4.628,2.9648,4.628-5.9467s7.885,4.0816,7.885,4.0816s9.256-2.3185,8.797,1.8651c-.458,4.1836-5.557,6.0203-5.557,6.0203s12.978,12.0636,13.443,35.7136c.464,23.651,1.846,30.612,1.846,30.612c1.027.403,1.973.987,2.793,1.724Z" fill="#231f20"/><path d="M378.127,205.542c0,0,36.181-5.17,44.989,7.37c0,0-60.046-69.807-56.313-77.228c0,0-12.513,1.854-18.308-2.783s-26.183-23.191-35.688-26.202c-9.506-3.01-9.268-15.5379,2.317-16.4676c11.584-.9297,25.032,14.1436,34.555,13.4526c9.522-.692,9.063-7.8858,9.063-7.8858s-14.162-3.9682-15.527-16.7005s6.492-17.1596,6.492-17.1596-17.147-7.8854-28.273-2.0862c-11.125,5.7993-21.786.6973-22.245-6.4965s10.655-14.1722,29.196-13.9114c18.541.2607,35.688,9.5067,39.398,11.5928s7.647,2.3186,11.12,5.5669c3.472,3.2482,11.822,3.4806,15.527,9.0702c3.705,5.5895,14.162,8.8094,15.759,13.4465c1.598,4.6372,1.388,17.3978,11.585,27.6016c10.196,10.204,69.925,80.663,68.316,108.026-1.608,27.364-15.832,54.172-97.597,64.773l-14.366-73.979Z" fill="#fff"/><g id="eGlOjiz85VN8" opacity="0"><path d="M46,45l50-3.5l49,9L153.5,69v19.5l-.128.1878C148.465,95.8844,142.99,102.677,137,109l-51,6.5-24.5,2-25-8.5L34,75L46,45Z" fill="#ee4947"/><path d="M129.23,45.7195l.26-1.9671c0,0-8.015-1.0487-19.107-2.0974-11.0915-1.0488-25.2703-2.0975-37.7044-2.0975-5.6115-.0661-11.2209.2464-16.7903.9353-2.1691.2783-4.3118.7333-6.4069,1.3606-1.7012.4725-3.2969,1.2652-4.7017,2.3356-1.2823,1.0921-2.4003,2.3637-3.3195,3.7754-1.8349,2.8872-3.2914,5.9985-4.3336,9.2573-1.8208,5.626-3.1291,11.4053-3.9086,17.2674-.7888,5.4945-1.2033,11.0363-1.2406,16.5871-.0182,2.2727.101,4.5444.3569,6.8027.1064.8588.2634,1.7106.4702,2.5511.1702.721.447,1.413.8213,2.052.2573.458.4481.951.5665,1.463.3191,1.485.7432,2.945,1.2689,4.37.6073,1.45,1.5169,2.752,2.6681,3.821c1.1035,1.006,2.3549,1.835,3.7104,2.46c2.9097,1.285,5.9888,2.144,9.1429,2.551c4.9677.689,9.9799,1.003,14.9946.941c4.5318,0,9.7263-.181,15.7423-.566c12.5644-.839,22.9195-1.384,31.5125-2.143c5.56-.408,11.088-1.179,16.547-2.308c3.189-.664,6.288-1.703,9.234-3.095c1.943-.935,3.753-2.127,5.381-3.543c2.413-2.164,4.343-4.812,5.665-7.7718c1.546-3.5041,2.635-7.1927,3.24-10.975c1.133-6.2698,1.768-11.6722,1.768-16.3944.067-3.4519-.397-6.8936-1.377-10.2039-.686-2.207-1.735-4.2838-3.104-6.1451-2.197-2.8537-5.019-5.1654-8.248-6.7573-3.473-1.8027-7.653-3.2142-12.655-4.3934h-.096-.097l-.26,1.9671-.454,1.9331c3.674.8014,7.255,1.9831,10.684,3.5261c1.95.8886,3.773,2.0324,5.421,3.4013c2.143,1.8167,3.776,4.1615,4.736,6.8026c1.014,2.6984,1.507,5.958,1.507,9.9206c0,4.3593-.601,9.5577-1.7,15.6914-.47,2.7968-1.202,5.5432-2.186,8.2029-.691,1.862-1.62,3.6265-2.765,5.2498-1.899,2.615-4.445,4.693-7.386,6.031-2.76,1.262-5.657,2.197-8.633,2.789-5.099,1.106-11.432,1.82-19.187,2.421s-16.9431,1.134-27.7911,1.837c-5.9423.396-11.0632.567-15.4761.567-8.1799,0-13.9126-.618-17.8836-1.571-2.2239-.451-4.3471-1.304-6.2652-2.517-.8181-.547-1.5222-1.247-2.0733-2.063-.6472-1.066-1.0999-2.239-1.3368-3.464-.153-.635-.3059-1.304-.5155-2.001-.2112-.748-.5238-1.463-.929-2.126-.1519-.302-.2661-.622-.3399-.9522-.2658-1.1175-.4382-2.2552-.5155-3.4013-.1246-1.4286-.187-3.1122-.187-4.9773.07-8.4131,1.0193-16.7957,2.8324-25.0111.8474-3.9548,2.065-7.8211,3.6368-11.5475.6526-1.5114,1.4334-2.9642,2.3339-4.3423.7056-1.092,1.564-2.077,2.5491-2.9252c1.0137-.7381,2.1543-1.2838,3.3648-1.6099c3.0522-.8594,6.184-1.4045,9.3469-1.627c3.7727-.3401,8.0835-.4875,12.6663-.4875c12.2132,0,26.3127,1.0374,37.3308,2.0805c5.512.5215,10.259,1.043,13.624,1.4342c1.699.1927,3.019.3571,3.937.4705l1.048.1304.356.0453.255-1.9671-.453,1.9331.448-1.9161Z" fill="#ee4947"/></g><path d="M378.127,205.542l.278,1.939c5.316-.683,10.671-1.03,16.031-1.038c5.302,0,11.143.392,16.111,1.582c2.299.51,4.525,1.312,6.622,2.387c1.696.849,3.171,2.082,4.31,3.599l1.621-1.133l1.501-1.299-.612-.697c-3.093-3.617-17.045-20.011-30.199-36.723-6.577-8.356-12.955-16.791-17.657-23.724-2.019-2.907-3.889-5.916-5.602-9.014-.559-1.026-1.053-2.086-1.479-3.174-.137-.359-.25-.726-.34-1.1-.051-.206-.081-.417-.09-.629v-.08l-.487-.079.436.221c.026-.043.043-.091.051-.142l-.487-.079.436.221l1.728-3.401-3.784.567c-1.804.232-3.62.347-5.439.346-2.081.018-4.159-.172-6.202-.567-.982-.199-1.943-.485-2.873-.856-.812-.322-1.575-.757-2.265-1.293-1.394-1.134-3.767-3.152-6.64-5.589-4.322-3.668-9.816-8.271-15.164-12.262-2.668-2.001-5.308-3.844-7.761-5.357-2.117-1.373-4.387-2.494-6.763-3.339-1.629-.477-3.067-1.452-4.113-2.789-.832-1.062-1.29-2.3695-1.303-3.719-.003-.7287.142-1.4503.425-2.1215.284-.6713.7-1.2782,1.224-1.7844.64-.6205,1.394-1.1114,2.22-1.4455c1.084-.4412,2.231-.7054,3.399-.7824.289,0,.566-.034.878-.034c2.362,0,4.985.737,7.721,1.9445c4.107,1.797,8.429,4.6088,12.632,7.0293c2.023,1.203,4.126,2.265,6.294,3.18c1.971.852,4.085,1.323,6.231,1.389.261,0,.527,0,.788-.028c2.039-.102,4.035-.631,5.857-1.553c1.049-.555,1.987-1.297,2.77-2.189.899-1.037,1.554-2.2633,1.915-3.588.219-.7728.334-1.5718.34-2.3753c0-.1474,0-.2437,0-.2778l-.085-1.4115-1.366-.3798-.277.9977.283-.9977-.278.9977.284-.9977-.148-.0454c-2.591-.8581-5.027-2.127-7.216-3.7584-1.696-1.2531-3.166-2.7868-4.345-4.5351-1.318-1.9943-2.137-4.2773-2.385-6.6553-.099-.9037-.15-1.812-.153-2.7211-.024-2.0429.291-4.0756.935-6.0146.63-1.9048,1.672-3.6469,3.053-5.102.386-.4105.805-.7897,1.252-1.1338.147-.1134.266-.1871.334-.2324l.074-.0454-.567-.9693.567.9807-.567-.9694.567.9807l3.398-1.9047-3.546-1.6327c-1.95-.8562-3.952-1.5908-5.993-2.1995-4.297-1.3686-8.769-2.1094-13.278-2.1995-3.725-.091-7.417.7179-10.763,2.3582-2.707,1.4535-5.725,2.2314-8.797,2.2676-2.702.058-5.353-.7352-7.58-2.2676-.855-.6072-1.58-1.3779-2.136-2.2675-.486-.7946-.774-1.695-.838-2.6247c0-.1077,0-.2097,0-.3061.003-.6329.124-1.2598.357-1.8481.574-1.3273,1.463-2.4947,2.589-3.4013c1.971-1.7007,5.002-3.2879,8.956-4.4217c4.693-1.2781,9.541-1.8981,14.405-1.8424h.878c8.945.1077,17.669,2.4206,24.596,4.9773c4.775,1.7569,9.406,3.8835,13.851,6.3604c1.903.9738,3.878,1.8001,5.908,2.4717.872.3161,1.72.695,2.538,1.1337.822.4568,1.583,1.0148,2.266,1.661c1.175,1.0147,2.516,1.8182,3.965,2.3753c2.136.9013,4.441,1.6099,6.469,2.5623.972.4432,1.897.9845,2.759,1.6157.802.5923,1.497,1.3169,2.056,2.1428c1.173,1.6483,2.608,3.0924,4.249,4.2743c2.43,1.8424,5.149,3.4013,7.324,4.8866.961.6335,1.869,1.3445,2.714,2.1258.304.2892.582.604.832.9411.175.2384.316.4997.42.7766.193.6065.352,1.2235.476,1.848.277,1.3492.566,3.1122.963,5.102.662,3.5288,1.701,6.9763,3.098,10.2834c1.785,4.1652,4.343,7.9522,7.54,11.1622c1.201,1.202,3.2,3.361,5.744,6.236c13.52,15.449,26.164,31.644,37.874,48.508c6.668,9.717,12.769,19.563,17.17,28.435c2.037,4.004,3.773,8.154,5.195,12.415c1.218,3.787,1.864,7.177,1.858,9.949c0,.346,0,.68-.028,1.009-.397,6.695-1.558,13.254-4.272,19.501-2.203,5.027-5.307,9.607-9.16,13.514-6.265,6.463-15.408,12.472-28.742,17.574-13.335,5.102-30.839,9.359-53.725,12.33l.255,1.967l1.943-.38-14.366-73.979-1.943.38.278,1.939-.278-1.962-1.948.38l14.728,75.804l1.841-.238c20.54-2.664,36.889-6.349,49.912-10.839c9.766-3.367,17.668-7.188,24.052-11.377c9.58-6.287,15.748-13.441,19.572-21.02s5.325-15.522,5.789-23.384c0-.403.034-.817.034-1.236c0-3.855-.98-8.186-2.639-12.914-2.906-8.259-7.931-17.732-14.009-27.5-9.064-14.648-20.49-29.937-30.448-42.414-4.985-6.236-9.63-11.769-13.403-16.162-1.898-2.194-3.586-4.104-5.019-5.669-1.433-1.564-2.594-2.834-3.455-3.679-2.21-2.207-4.075-4.733-5.535-7.4942-1.791-3.4817-3.08-7.1996-3.829-11.043-.357-1.7007-.623-3.2426-.884-4.6371-.203-1.2481-.496-2.4796-.878-3.6848-.307-.8285-.757-1.5961-1.331-2.2676-1.046-1.189-2.242-2.2371-3.558-3.1178-2.022-1.4229-4.31-2.7608-6.344-4.161-.968-.6571-1.895-1.3727-2.776-2.1428-.748-.6418-1.411-1.3773-1.971-2.1882-1.075-1.5685-2.468-2.8919-4.09-3.8832-2.3-1.4399-4.781-2.2676-6.928-3.0952-1.071-.4025-2.062-.7823-2.883-1.1848-.698-.3119-1.346-.7265-1.921-1.2302-.929-.8646-1.96-1.6127-3.07-2.2278-1.443-.762-2.946-1.4066-4.492-1.9274-1.367-.4548-2.694-1.0237-3.966-1.7007-4.627-2.5799-9.449-4.7937-14.422-6.6212-7.206-2.6587-16.326-5.102-25.916-5.2267h-.918c-9.063,0-16.428,1.7006-21.673,4.3707-2.39,1.1588-4.513,2.8038-6.231,4.8298-.737.899-1.329,1.9068-1.756,2.9875-.411,1.0457-.625,2.1587-.629,3.2823c0,.1928,0,.3817,0,.5669.106,1.5629.586,3.0773,1.399,4.4161c1.283,2.046,3.125,3.681,5.308,4.7108c2.435,1.168,5.106,1.7614,7.806,1.7347c3.729-.0372,7.393-.9787,10.678-2.7438c2.776-1.3371,5.831-1.9902,8.911-1.9047c4.116.0913,8.199.7729,12.122,2.0238c1.666.5102,3.053,1.0204,4.016,1.4002.482.1871.861.3458,1.133.4535l.284.1247h.068l.181-.4025-.181.4025.181-.4025-.181.4025.827-1.8027-.969-1.729c-1.554.9653-2.902,2.2292-3.965,3.7188-1.107,1.5026-1.972,3.1684-2.567,4.9376-.778,2.3524-1.161,4.8179-1.132,7.2958.002,1.053.06,2.1052.175,3.1519.342,3.2112,1.501,6.2811,3.365,8.9171c2.273,3.1042,5.236,5.6369,8.656,7.3979c1.575.8554,3.232,1.5523,4.945,2.0805l.533-1.9104-1.977.1134l1.24-.0737-1.24.0567l1.24-.0737-1.24.0567v.0623c-.006.382-.053.7622-.142,1.1338-.111.4619-.28.9077-.504,1.3265-.453.8335-1.122,1.5289-1.938,2.0127-1.414.796-3,1.242-4.622,1.298-.162,0-.332,0-.51,0-1.027-.022-2.045-.19-3.025-.499-2.256-.752-4.426-1.7399-6.475-2.9477-3.512-1.9501-7.301-4.4218-11.21-6.4399-1.929-.9997-3.935-1.8414-5.999-2.517-1.986-.6752-4.066-1.0349-6.163-1.0657-.397,0-.799,0-1.201.0453-1.589.1104-3.15.476-4.623,1.0828-1.901.7677-3.536,2.0764-4.701,3.7641-1.044,1.5489-1.598,3.3757-1.592,5.2437.013,2.2234.76,4.3794,2.124,6.1334c1.541,1.959,3.648,3.394,6.033,4.11c1.274.438,2.504.992,3.676,1.656c2.907,1.644,5.706,3.473,8.379,5.476c4.531,3.305,9.312,7.222,13.442,10.686c2.068,1.729,3.965,3.35,5.591,4.733s2.974,2.523,3.965,3.311c.983.774,2.073,1.402,3.235,1.865c1.731.685,3.541,1.149,5.387,1.383c1.722.233,3.457.347,5.195.34c2.012.004,4.021-.127,6.016-.391l-.289-1.961-1.768-.896c-.262.538-.392,1.13-.379,1.729.007.551.08,1.099.215,1.632.325,1.195.765,2.355,1.314,3.464c1.47,2.937,3.125,5.778,4.957,8.503c3.71,5.669,8.707,12.472,14.128,19.558c16.258,21.185,36.328,44.523,36.345,44.54l3.121-2.437c-1.489-2.023-3.429-3.671-5.665-4.813-3.398-1.825-7.494-2.902-11.76-3.56-4.254-.615-8.549-.909-12.847-.879-5.554.007-11.101.367-16.609,1.077l-2.062.295.396,2.052l1.943-.391Z" fill="#231f20"/><path d="M369.403,50.0902c-4.8,1.1568-9.434,2.9228-13.788,5.2551-3.696,1.9306-7.006,4.5247-9.766,7.6529-1.412,1.6527-2.559,3.5155-3.398,5.5215-.896,2.1429-1.382,4.435-1.434,6.7573c0,.2154,0,.4309,0,.6519-.075,3.9168.855,7.7875,2.703,11.2414c1.127,2.0352,2.599,3.8593,4.35,5.3911c2.033,1.7659,4.356,3.166,6.866,4.1383c1.098.4479,2.236.7933,3.399,1.0317l.702-3.9058-.096.5669.102-.5669-.097.5669.102-.5669c-.791-.1687-1.568-.4-2.322-.6916-2.824-1.0291-5.363-2.7135-7.41-4.9149-1.312-1.4537-2.345-3.1372-3.047-4.966-.881-2.3399-1.317-4.8239-1.286-7.3242c0-.1814,0-.3684,0-.5668.039-1.8318.424-3.6396,1.133-5.3288c1.266-2.8777,3.21-5.4062,5.664-7.3695c3.7-3.1122,8.35-5.3344,12.055-6.729c1.858-.7029,3.473-1.2018,4.617-1.5249.566-.1587,1.031-.2778,1.337-.3515l.345-.085h.085l-.844-3.8775.028-.0057Z" fill="#231f20"/><path d="M381.362,56.5868c-4.455,1.5428-8.708,3.6174-12.667,6.1791-3.389,2.1364-6.39,4.8335-8.876,7.9761-1.269,1.6458-2.292,3.4676-3.037,5.4081-.775,2.0407-1.175,4.2054-1.178,6.3888c0,.6066.034,1.2188.096,1.848.306,3.847,1.81,7.5012,4.3,10.4478c1.616,1.8561,3.564,3.3941,5.744,4.5351c2.824,1.4512,5.86,2.4442,8.996,2.9422c1.871.319,3.766.486,5.664.499h.419l-.124-3.9684v.3571-.3571.3571-.3571h-.295c-1.41-.011-2.819-.1189-4.214-.3231-1.712-.242-3.398-.6327-5.042-1.1678-2.801-.8504-5.361-2.352-7.472-4.3821-1.088-1.0903-1.981-2.3597-2.639-3.7528-.766-1.648-1.239-3.4165-1.4-5.2267-.045-.4875-.073-.9694-.073-1.4455.004-1.7051.317-3.3952.923-4.9886c1.129-2.8062,2.871-5.3241,5.098-7.3696c3.399-3.2369,7.648-5.7369,11.064-7.3695c1.699-.822,3.194-1.4399,4.248-1.8481.527-.2097.946-.3571,1.229-.4592l.318-.1077.079-.0283-1.212-3.7755.051-.0113Z" fill="#231f20"/><path d="M395.586,65.7589c-3.72,1.1537-7.282,2.7646-10.605,4.7959-2.847,1.7002-5.374,3.8876-7.466,6.4625-1.083,1.3725-1.952,2.9016-2.577,4.5351-.663,1.7238-1.003,3.5553-1.003,5.4024.049,2.8459.744,5.6433,2.034,8.1802c1.409,3.1204,3.699,5.761,6.588,7.596c2.429,1.474,5.22,2.241,8.061,2.217c2.68.004,5.326-.603,7.738-1.775c1.072-.519,2.077-1.168,2.991-1.933.848-.697,1.565-1.5395,2.118-2.4882.632-1.1726.95-2.4889.924-3.8209-.003-1.0728-.168-2.1392-.487-3.1632-.464-1.563-1.304-2.988-2.448-4.1496-.588-.5963-1.279-1.0821-2.039-1.4342-.806-.3722-1.684-.5656-2.572-.5669-1.316.0192-2.601.3996-3.716,1.0997-1.355.8498-2.55,1.9321-3.529,3.1973l3.076,2.4999c.692-.8921,1.531-1.6591,2.481-2.2675.506-.3339,1.094-.5204,1.7-.5385.434.0028.859.1307,1.223.3684.733.5051,1.312,1.2037,1.671,2.0182.441.9226.675,1.9307.686,2.9534.023.6505-.119,1.2963-.414,1.8764-.325.5379-.741,1.0154-1.229,1.4116-1.051.856-2.244,1.5217-3.524,1.9671-1.487.541-3.056.821-4.639.828-2.115.004-4.19-.579-5.993-1.684-2.242-1.4411-4.014-3.506-5.099-5.941-1.027-1.9982-1.587-4.2043-1.637-6.4512.004-1.3569.255-2.7018.742-3.9682.915-2.2299,2.335-4.2171,4.147-5.8049c2.704-2.3705,5.762-4.3025,9.064-5.7256c1.404-.6292,2.628-1.0941,3.495-1.3945.43-.1531.776-.2665,1.002-.3402l.261-.0793h.062l-1.087-3.8832Z" fill="#231f20"/><path d="M182.223,138.048l-.062-.158.062.158-.062-.158.062.158c2.861-1.064,5.887-1.613,8.939-1.621c2.831-.039,5.636.541,8.22,1.701c3.204,1.544,5.903,3.97,7.777,6.995c2.63,4.117,4.499,8.674,5.518,13.452.867,3.986,1.3,8.053,1.291,12.132c0,2.267-.13,4.144-.255,5.442-.068.652-.13,1.134-.175,1.496c0,.171-.04.301-.057.38v.091l3.909.669c.397-2.682.586-5.39.566-8.101.01-4.368-.456-8.725-1.388-12.993-1.12-5.248-3.178-10.25-6.072-14.767-2.284-3.628-5.548-6.533-9.415-8.379-3.106-1.414-6.484-2.128-9.896-2.092-3.579.004-7.128.657-10.474,1.928l1.541,3.662-.029.005Z" fill="#231f20"/><path d="M237.959,138.281l-1.133-.42l1.133.431-1.133-.419l1.133.431c.051-.12,1.133-2.722,4.378-5.278c2.022-1.559,4.299-2.754,6.73-3.532c3.61-1.139,7.38-1.688,11.165-1.627c2.597.012,5.19.201,7.761.567l.538-3.934c-2.75-.378-5.523-.568-8.299-.567-4.323-.076-8.629.572-12.74,1.916-4.007,1.298-7.606,3.621-10.44,6.74-1.183,1.268-2.141,2.729-2.832,4.32l3.71,1.4.029-.028Z" fill="#231f20"/><path d="M219.526,188.836c.965.568,1.979,1.048,3.03,1.434c2.331.899,4.804,1.371,7.302,1.395c2.22.008,4.421-.421,6.475-1.265c2.496-1.059,4.733-2.649,6.554-4.659l-2.906-2.704c-1.43,1.592-3.189,2.853-5.155,3.696-1.577.643-3.265.97-4.968.963-2.018-.02-4.015-.404-5.897-1.133-.603-.226-1.193-.485-1.767-.777-.199-.102-.352-.187-.448-.244l-.108-.062-.668,1.088.674-1.082-.668,1.088.674-1.083-2.102,3.368-.022-.023Z" fill="#231f20"/><path d="M290.72,166.155l.827.198-.827-.215.827.198-.827-.215c-.366,1.188-.942,2.302-1.699,3.288-1.89,2.455-4.489,4.268-7.444,5.192l1.286,3.753c2.126-.71,4.122-1.763,5.908-3.118c1.908-1.437,3.495-3.255,4.662-5.34.509-.891.903-1.844,1.173-2.834l-3.858-.913-.028.006Z" fill="#231f20"/><path d="M181.181,152.255c-.885.143-1.76.348-2.617.612-3.196.919-6.143,2.549-8.622,4.767-1.596,1.469-2.886,3.24-3.795,5.21-1.059,2.373-1.591,4.947-1.558,7.545.018,1.716.208,3.425.566,5.102.424,2.304,1.187,4.532,2.266,6.61c1.07,2.184,2.742,4.016,4.819,5.28s4.472,1.906,6.902,1.852c1.937-.023,3.86-.336,5.704-.93.837-.253,1.654-.572,2.442-.952l-1.774-3.543.261.521-.261-.527.267.521-.261-.527c-.639.301-1.3.553-1.977.754-1.423.45-2.904.688-4.396.709-1.003.008-2.002-.136-2.962-.425-1.612-.498-3.033-1.477-4.073-2.806-1.247-1.542-2.374-3.861-3.076-7.33-.299-1.417-.455-2.861-.465-4.309-.079-2.099.361-4.185,1.28-6.073.919-1.889,2.289-3.522,3.988-4.754c1.643-1.198,3.468-2.123,5.405-2.738.618-.202,1.245-.372,1.88-.51.227-.051.403-.085.516-.102h.119.028l-.159-1.089.153,1.089-.158-1.089.153,1.089-.567-3.929-.028-.028Z" fill="#231f20"/><path d="M172.016,170.729c.008.373.063.742.164,1.1.363,1.211,1.026,2.311,1.926,3.197c1.551,1.502,3.419,2.635,5.466,3.317l1.377-3.719c-1.113-.393-2.167-.936-3.133-1.616-.72-.471-1.306-1.121-1.699-1.887-.066-.14-.116-.286-.147-.437v-.051l-.918.091h.923c.003-.03.003-.061,0-.091l-.917.091h-3.042v.005Z" fill="#231f20"/><path d="M390.063,204.873c0,0,18.127,68.202,12.541,71.677-5.585,3.475-53.526,10.437-53.526,10.437l4.169,104.012-187.706-3.48c0,0-9.387-91.139-11.46-95.311-2.073-4.173-35.122,15.306-39.653,14.257-4.532-1.049-40.6675-69.92-40.6675-69.92s41.3525-29.45,77.9805-32.698c36.629-3.248,53.068,20.176,53.068,20.176s-7.285,44.784,33.897,49.631c41.183,4.846,48.151-26.905,49.986-28.759c1.835-1.853.714-24.376.714-24.376s18.988-15.068,36.367-13.9c17.38,1.168,64.29-1.746,64.29-1.746Z" fill="#2f3841"/><path d="M390.063,204.873l-1.915.51.153.567c.742,2.835,4.101,15.731,7.268,29.762c1.586,7.012,3.121,14.314,4.254,20.765.566,3.22,1.037,6.236,1.36,8.883.295,2.211.464,4.437.504,6.667.017.86-.051,1.721-.204,2.568-.033.16-.084.316-.153.464l.136.08-.125-.091.136.079-.125-.09.624.453-.403-.646c-.087.047-.162.113-.221.193l.624.453-.403-.646c-.361.206-.74.379-1.133.516-1.593.547-3.213,1.013-4.854,1.394-3.603.885-8.344,1.848-13.414,2.79-7.602,1.411-15.947,2.777-22.382,3.786-3.217.511-5.959.924-7.896,1.219l-2.266.335-.81.119-1.768.255l4.158,103.695-185.605-3.441-.034,1.984l1.971-.204c0,0-2.373-22.783-4.962-46.088-1.303-11.655-2.674-23.447-3.846-32.596-.567-4.581-1.133-8.503-1.592-11.417-.232-1.463-.442-2.682-.635-3.623-.096-.476-.187-.884-.283-1.236-.045-.175-.096-.34-.147-.504-.059-.174-.129-.345-.21-.51-.169-.336-.404-.635-.691-.879-.375-.316-.816-.543-1.291-.663-.399-.099-.808-.147-1.218-.142-.619.009-1.236.077-1.841.204-1.369.297-2.715.691-4.028,1.179-2.611.936-5.665,2.268-8.882,3.708-4.815,2.182-9.976,4.677-14.304,6.61-2.158.963-4.112,1.791-5.664,2.358-.782.283-1.462.504-2.006.64-.345.102-.7.165-1.059.188h-.028l-.068.566.124-.566h-.056l-.068.566.124-.566-.249,1.077.566-.964c-.093-.052-.195-.091-.3-.113l-.249,1.077.566-.964-.249.351.21-.323-.21.323.21-.323c-.121-.093-.233-.197-.334-.311-.531-.571-1.025-1.175-1.479-1.809-1.133-1.547-2.617-3.781-4.294-6.479-5.885-9.456-14.2919-24.586-21.2142-37.33-3.4555-6.372-6.5485-12.148-8.7747-16.332l-2.6341-4.96-.7138-1.349-.2435-.465-1.7561.918l1.1329,1.621c8.2358-5.636,16.8179-10.748,25.6955-15.306c7.934-4.142,16.14-7.741,24.562-10.77c8.786-3.107,17.94-5.448,26.726-6.236c2.312-.204,4.542-.304,6.69-.301c6.811-.063,13.588.971,20.071,3.062c6.838,2.227,13.176,5.768,18.659,10.425c1.598,1.359,3.101,2.827,4.498,4.393.487.567.85.998,1.082,1.298l.255.335.057.073.849-.601-.855.601.85-.601-.856.601l1.626-1.133-1.96-.318c-.368,2.641-.542,5.305-.521,7.971-.009,3.995.371,7.982,1.133,11.904.683,3.511,1.758,6.934,3.206,10.204c2.415,5.51,6.181,10.321,10.95,13.985c5.172,3.929,12.009,6.803,20.858,7.829c2.819.342,5.656.516,8.497.522c8.735,0,15.787-1.781,21.435-4.536c3.858-1.867,7.384-4.357,10.434-7.369c3.504-3.52,6.408-7.589,8.6-12.046.883-1.752,1.535-3.277,2.016-4.388.238-.567.436-1.009.567-1.304.073-.147.13-.255.158-.3l-.77-.522.657.658c.042-.042.08-.088.113-.136l-.77-.522.657.658c.183-.189.342-.4.47-.63.186-.334.329-.69.425-1.06.181-.675.31-1.363.385-2.058.142-1.133.227-2.505.283-3.968.057-1.462.08-3.095.08-4.722c0-6.53-.351-13.401-.351-13.424l-1.983.102l1.235,1.553c3.44-2.603,7.085-4.924,10.899-6.938c3.393-1.819,6.94-3.337,10.599-4.535c3.764-1.273,7.702-1.955,11.675-2.024.611,0,1.217,0,1.818.062c2.974.199,6.724.278,10.939.278c10.519,0,23.905-.505,34.673-1.015c10.769-.51,18.915-1.014,18.921-1.014l-.125-1.979-1.915.51l1.915-.51-.119-1.984-1.439.091c-6.497.385-33.705,1.933-51.911,1.933-4.158,0-7.852-.08-10.679-.272-.698-.046-1.395-.068-2.09-.068-4.453.066-8.869.831-13.085,2.267-8.107,2.83-15.719,6.918-22.557,12.115l-.799.635.051,1.02c0,0,0,.102,0,.3.068,1.384.334,7.325.334,12.92c0,2.59-.062,5.102-.215,7.023-.051.761-.147,1.519-.289,2.268-.035.192-.084.382-.147.567v.034l.827.414-.646-.647c-.071.069-.133.147-.181.233l.827.414-.646-.647c-.177.183-.333.384-.465.601-.209.346-.398.704-.566,1.072-.334.737-.719,1.672-1.218,2.789-1.745,3.894-4.855,9.949-10.689,15.011-3.216,2.784-6.906,4.967-10.894,6.446-5.269,1.882-10.833,2.802-16.427,2.715-2.687-.005-5.371-.17-8.039-.493-7.364-.868-12.972-3.027-17.345-5.93-3.077-2.038-5.755-4.622-7.902-7.624-2.888-4.142-4.929-8.814-6.005-13.747-.942-4.169-1.41-8.431-1.394-12.704c0-2.228.119-4.082.238-5.369.063-.64.119-1.134.165-1.479l.051-.375v-.09l-.895-.142.895.147-.895-.141.895.147.13-.799-.465-.664c-.096-.136-3.84-5.442-11.68-10.77-4.603-3.099-9.611-5.548-14.882-7.279-6.859-2.229-14.031-3.345-21.242-3.305-2.266,0-4.613.106-7.042.317-9.386.834-18.982,3.328-28.125,6.582-13.697,4.892-26.3807,11.496-35.6425,16.887-9.2619,5.392-15.1305,9.564-15.1702,9.586l-1.4105,1.004.8044,1.536c0,0,9.0636,17.234,18.6596,34.609c4.8094,8.69,9.7602,17.409,13.8102,24.058c2.028,3.328,3.83,6.128,5.297,8.186.619.878,1.285,1.722,1.994,2.528.28.316.585.608.912.874.168.138.348.262.538.368.239.143.499.246.771.306.281.059.568.088.855.085.558-.008,1.113-.08,1.654-.215c1.244-.311,2.465-.707,3.654-1.185c2.419-.93,5.342-2.268,8.497-3.696c4.707-2.177,9.891-4.666,14.36-6.593c2.232-.964,4.288-1.786,5.988-2.353.849-.283,1.608-.499,2.266-.646.462-.114.934-.18,1.41-.198.066-.006.132-.006.198,0l.074-.323-.125.3h.051l.074-.323-.125.3.34-.827-.566.674c.069.068.152.12.243.153l.34-.827-.566.674.742-.861-1.014.51c.065.135.157.255.272.351l.742-.861-1.014.51.459-.233-.482.193v.04l.459-.233-.481.193c.057.163.104.33.141.499.142.567.317,1.451.516,2.608.747,4.342,1.79,12.284,2.928,21.694c1.7,14.122,3.637,31.593,5.138,45.527.748,6.973,1.394,13.039,1.847,17.398l.532,5.102.193,1.842.176,1.746l191.564,3.555-4.254-106.116-1.977.079.283,1.962c0,0,12.009-1.741,24.727-3.917c6.361-1.094,12.898-2.268,18.229-3.441c2.662-.567,5.025-1.134,6.934-1.701.957-.272,1.795-.533,2.52-.805.657-.224,1.289-.515,1.887-.867.268-.17.509-.381.713-.624.305-.365.544-.779.709-1.224.228-.645.379-1.315.447-1.996.088-.783.13-1.57.125-2.358-.069-2.558-.291-5.11-.663-7.642-.663-5.204-1.813-11.525-3.161-18.112-4.022-19.75-9.868-41.836-9.868-41.853l-.419-1.57-1.62.096.102,1.984Z" fill="#231f20"/><path d="M73.772,236.545c0,0-64.30615,36.644-68.71332,48.934s-5.789361,37.341,9.96432,51.02s108.468,81.167,125.372,83.95c16.904,2.784,40.31-2.318,59.57-9.971s33.502-6.724,38.764.464c5.263,7.189,5.495,17.393,17.561,11.826s-13.675-37.103-44.752-33.396c0,0,11.817-11.128,29.457-7.653s16.915,11.831,27.808,10.437c10.894-1.395-3.353-26.582-30.062-27.364-22.659-.669-29.961,9.972-29.961,9.972s16.224-21.542,60.046-.698c7.183-3.707-2.09-22.726-27.808-25.969-25.718-3.242-30.856,11.128-30.856,11.128s3.053-14.104,41.018-12.057c40.033,2.154,14.162-19.02-4.871-18.555-19.034.465-61.638,37.596-73.931,38.033-12.292.436-96.1759-64.467-96.1759-64.467s15.9916,16.44,24.5679,12.755c8.577-3.684,12.672-9.217,12.672-9.217l-39.67-69.172Z" fill="#fff"/><path d="M73.7718,236.545l-.98-1.7c0,0-16.1162,9.183-32.7989,19.914-8.3385,5.346-16.8243,11.111-23.5653,16.321-3.0001,2.282-5.8603,4.743-8.56509,7.369-1.03832,1.023-2.00725,2.114-2.90034,3.266-.74445.939-1.34403,1.984-1.77873,3.101-2.06947,6.16-3.103165,12.622-3.058961,19.121-.044521,6.141.949511,12.246,2.940001,18.055c2.10411,6.169,5.77855,11.683,10.66102,15.998c2.028,1.763,5.2116,4.319,9.3015,7.494c14.3148,11.094,39.6532,29.625,63.3262,45.719c11.8336,8.045,23.2258,15.476,32.6458,21.072c4.707,2.8,8.916,5.136,12.462,6.87c1.772.866,3.373,1.576,4.804,2.132c1.232.504,2.511.884,3.818,1.134c3.475.552,6.99.819,10.508.799c7.897,0,16.468-1.134,25.044-3.09c8.542-1.946,16.921-4.552,25.061-7.794c8.99-3.577,16.819-5.21,22.948-5.204c2.88-.067,5.748.394,8.463,1.36c1.993.699,3.739,1.963,5.025,3.64.952,1.349,1.795,2.772,2.52,4.257.567,1.134,1.133,2.267,1.734,3.361.834,1.694,1.958,3.229,3.319,4.536.735.654,1.578,1.174,2.493,1.536.995.383,2.054.576,3.121.567c2.005,0,4.203-.567,6.798-1.78c1.309-.576,2.412-1.537,3.161-2.755.694-1.189,1.047-2.547,1.019-3.923-.035-1.642-.375-3.262-1.002-4.779-1.376-3.234-3.305-6.204-5.699-8.775-4.496-4.927-9.877-8.965-15.861-11.905-6.846-3.459-14.396-5.29-22.064-5.352-1.784,0-3.566.106-5.337.318l.238,1.967l1.36,1.446-.357-.38.357.385-.357-.38.357.386c1.792-1.558,3.769-2.891,5.885-3.968c6.678-3.563,14.385-4.695,21.804-3.203c3.167.583,6.253,1.54,9.194,2.851c3.506,1.622,5.699,3.402,8.05,4.932c1.188.818,2.47,1.492,3.818,2.007c1.55.562,3.188.841,4.837.822.849-.001,1.697-.058,2.538-.17.786-.09,1.552-.31,2.266-.652c1.023-.496,1.865-1.301,2.407-2.302.507-.976.762-2.063.743-3.163-.023-1.298-.266-2.582-.72-3.798-.974-2.563-2.385-4.937-4.169-7.018-3.401-4.016-7.576-7.305-12.276-9.671-5.748-2.934-12.079-4.544-18.529-4.711-.708,0-1.405,0-2.085,0-10.865,0-18.223,2.585-22.868,5.261-4.645,2.675-6.571,5.408-6.707,5.601l3.223,2.318-.833-.629.827.635-.832-.629.827.634.079-.102c1.768-1.97,3.88-3.603,6.231-4.818c3.864-2.098,9.602-4.087,17.674-4.093c8.463,0,19.521,2.199,33.592,8.906l.889.425.873-.454c1.135-.577,2.057-1.5,2.634-2.636.541-1.111.812-2.335.793-3.571-.103-2.474-.856-4.877-2.181-6.967-2.107-3.56-5.665-7.183-10.621-10.204-4.957-3.022-11.33-5.368-19.096-6.349-2.472-.321-4.962-.486-7.455-.493-4.266-.067-8.514.584-12.564,1.927-3.935,1.285-7.455,3.598-10.197,6.701-1.138,1.269-2.051,2.724-2.696,4.302l1.869.664l1.937.419-1.025-.221l1.014.261v-.04l-1.025-.221l1.014.261c.236-.663.58-1.282,1.019-1.831c1.133-1.491,3.399-3.674,8.146-5.533s11.896-3.35,22.693-3.35c2.213,0,4.587.066,7.121.198c1.971.108,3.79.159,5.466.159c2.519.021,5.036-.127,7.534-.442c1.416-.179,2.814-.475,4.181-.885c1.594-.425,3.066-1.221,4.294-2.324.528-.504.955-1.104,1.257-1.769.284-.649.431-1.349.431-2.058-.02-1.087-.314-2.152-.855-3.095-.475-.862-1.06-1.658-1.74-2.369-1.366-1.419-2.905-2.659-4.582-3.691-2.944-1.824-6.108-3.266-9.415-4.291-3.463-1.118-7.074-1.71-10.712-1.757h-.669c-2.991.169-5.939.796-8.74,1.859-5.478,1.933-11.624,5.159-17.997,8.906-9.551,5.623-19.589,12.471-28.205,17.868-4.305,2.715-8.259,5.102-11.573,6.752-1.432.739-2.908,1.39-4.418,1.95-.968.378-1.985.614-3.02.703h-.056c-.321-.013-.64-.059-.952-.136-1.177-.308-2.324-.719-3.427-1.23-3.451-1.602-6.807-3.402-10.049-5.392-6.928-4.144-15.443-9.801-24.285-15.957-13.273-9.229-27.304-19.569-38.0163-27.597-5.3588-4.019-9.8793-7.454-13.0685-9.886l-3.7104-2.834-.98-.754c-.221-.176-.3343-.261-.3399-.261l-2.6285,2.914c2.4421,2.444,5.0402,4.728,7.7777,6.836c2.3071,1.807,4.7717,3.403,7.3642,4.768c1.2725.658,2.5991,1.206,3.9653,1.638c1.3116.412,2.6757.634,4.0503.658c1.233.012,2.4551-.229,3.5911-.709c3.666-1.574,7.065-3.71,10.072-6.332c1.244-1.061,2.383-2.24,3.399-3.52l.776-1.044-41.2958-71.994-1.6994.975.98,1.7-1.6995.993l39.6537,69.16l1.699-.987-1.592-1.184.844.629-.844-.635.844.629-.844-.635c0,0-.056.08-.175.227-.85,1.032-4.697,5.334-11.6925,8.356-.64.268-1.3287.399-2.0223.385-.9853-.02-1.9624-.184-2.9003-.487-2.0877-.689-4.0789-1.641-5.9253-2.835-2.8418-1.818-5.5336-3.862-8.0496-6.111-1.065-.941-1.9374-1.757-2.5378-2.341l-.6572-.686-.1756-.181-.0453-.04-1.4218,1.383-1.2123,1.565c0,0,20.8463,16.139,43.296,32.279c11.227,8.072,22.857,16.15,32.515,22.233c4.838,3.044,9.171,5.584,12.763,7.369c1.565.807,3.177,1.521,4.826,2.138.658.243,1.329.445,2.011.606.603.147,1.221.227,1.841.238h.21c1.065-.057,2.12-.248,3.138-.567c2.407-.791,4.735-1.802,6.956-3.021c4.504-2.37,9.8-5.669,15.488-9.348c8.497-5.493,17.912-11.752,26.567-16.644c3.923-2.27,7.989-4.281,12.174-6.02c3.716-1.497,7.024-2.353,9.562-2.41h.567c2.807.035,5.598.443,8.298,1.214c3.891,1.054,7.577,2.754,10.905,5.028c1.202.818,2.279,1.805,3.201,2.931.295.376.542.787.736,1.224.12.264.187.549.198.839.003.138-.022.275-.073.403-.163.357-.427.658-.759.867-.714.539-2.113,1.134-4.249,1.559-2.855.501-5.752.729-8.65.68-1.597,0-3.348-.045-5.257-.153-2.594-.136-5.038-.204-7.33-.204-7.931,0-14.077.777-18.892,1.973-7.223,1.791-11.437,4.535-13.833,7.007-2.396,2.471-2.946,4.535-3.003,4.846l3.807,1.083-1.133-.408l1.133.425-1.133-.408l1.133.425c.25-.598.564-1.169.935-1.7c1.559-2.25,3.639-4.09,6.061-5.363c3.257-1.78,7.931-3.237,14.728-3.243c2.328.008,4.654.163,6.962.465c9.63,1.213,16.813,4.711,21.526,8.645c2.078,1.674,3.854,3.691,5.252,5.964.962,1.48,1.524,3.186,1.631,4.949.02.607-.102,1.211-.357,1.763-.197.4-.522.723-.923.918l.912,1.763.849-1.791c-14.49-6.905-26.137-9.292-35.296-9.292-9.461,0-16.236,2.563-20.631,5.176-4.396,2.613-6.413,5.255-6.526,5.414l1.58,1.19l1.637,1.134-.98-.675.975.686-.98-.674.974.686c.074-.097,1.699-2.37,5.795-4.626s10.587-4.535,20.512-4.535c.64,0,1.297,0,1.966,0c4.549.123,9.043,1.032,13.284,2.687c5.254,2.021,9.972,5.228,13.788,9.371c1.425,1.552,2.634,3.289,3.597,5.164.672,1.234,1.059,2.604,1.133,4.008.006.322-.038.643-.131.952-.081.304-.26.573-.51.765-.386.271-.838.432-1.308.465-.676.091-1.357.138-2.039.142-1.547.026-3.077-.318-4.464-1.003-1.083-.56-2.123-1.201-3.11-1.916-2.066-1.51-4.246-2.855-6.52-4.025-3.503-1.696-7.219-2.91-11.047-3.611-2.366-.475-4.774-.712-7.188-.709-6.074.021-12.05,1.53-17.408,4.393-2.35,1.216-4.543,2.714-6.531,4.462l-4.385,4.132l5.982-.714c1.613-.194,3.236-.291,4.861-.289c5.424.027,10.799,1.042,15.861,2.993c6.798,2.586,12.96,6.608,18.065,11.791c1.986,2,3.7,4.253,5.098,6.701c1.133,2.103,1.699,4.002,1.699,5.351.025.655-.129,1.304-.447,1.877-.342.536-.84.954-1.428,1.196-2.266,1.043-3.931,1.423-5.098,1.417-.515.006-1.028-.073-1.518-.232-.789-.294-1.488-.788-2.028-1.434-.539-.634-1.019-1.315-1.433-2.036-.708-1.207-1.405-2.658-2.198-4.195-.819-1.644-1.766-3.221-2.833-4.716-1.737-2.286-4.098-4.02-6.797-4.994-3.169-1.146-6.522-1.698-9.891-1.627-6.798,0-15.068,1.774-24.415,5.487-7.948,3.162-16.127,5.705-24.466,7.608-8.35,1.882-16.66,2.993-24.171,2.993-3.302.02-6.601-.228-9.863-.743-1.236-.254-2.443-.634-3.602-1.133-3.889-1.673-7.673-3.581-11.33-5.715-7.97-4.535-18.019-10.878-28.7882-18.044-16.1501-10.771-33.9317-23.327-48.8753-34.251-7.4718-5.465-14.2355-10.516-19.7247-14.739s-9.7433-7.562-12.1112-9.58c-4.3727-3.874-7.65733-8.824-9.52806-14.36-1.8398-5.387-2.75344-11.047-2.70208-16.74-.03941-6.043.91755-12.052,2.83237-17.783.30336-.737.71167-1.427,1.21226-2.047c1.69539-2.099,3.59271-4.026,5.66471-5.754c4.3959-3.826,10.4288-8.27,16.9942-12.76c9.8284-6.729,20.8236-13.566,29.3604-18.707c4.2655-2.574,7.9306-4.728,10.5024-6.236l3.0193-1.752.8044-.459.2719-.153-.98-1.729-1.6994.992l1.6938-.998Z" fill="#231f20"/><path id="eGlOjiz85VN25" d="M272.163,27.0349c-2.932-3.7256-6.268-7.1137-9.948-10.1019-3.362-2.7785-7.062-5.1195-11.012-6.96706-4.375-2.06469-9.143-3.16287-13.981-3.21993-3.889-.00315-7.74.76764-11.329,2.26755-7.364,3.06684-12.763,7.40924-16.314,11.90464-1.637,2.0416-2.973,4.3077-3.966,6.729-.84,1.9739-1.296,4.0905-1.342,6.2357-.011.9448.115,1.8861.374,2.7948.186.6558.465,1.2818.827,1.8594.55.8796,1.321,1.5991,2.237,2.0861.957.4947,2.022.7459,3.099.7313c1.455-.0373,2.888-.3589,4.22-.9467c1.523-.648,2.907-1.5856,4.073-2.7607c1.797-1.8301,3.175-4.0295,4.039-6.4456c1.902-5.2367,1.88-10.9797-.062-16.2016-1.617-4.303-4.587-7.96366-8.464-10.43073-4.186-2.68705-9.726-4.308345-16.716-4.302676-.856,0-1.739.000003-2.646.073698-8.281.45351-14.626,1.530588-19.52,2.925138-3.046.82186-5.981,2.00962-8.741,3.53738-3.331,1.90474-5.246,3.93989-6.305,5.58389-.653.9384-1.094,2.0083-1.291,3.1348-.03.2606-.008.5245.064.7766s.193.4875.356.6928.365.3765.594.5037.481.208.742.2378c.26.0298.524.0079.776-.0643s.487-.1933.692-.3565.376-.3652.503-.5945.208-.4815.238-.7421l-1.207-.136l1.201.1927v-.0567l-1.206-.136l1.201.1927-.165-.0283.165.0283-.165-.0283.165.0283c.138-.551.38-1.0705.713-1.5306.907-1.3832,2.957-3.5827,7.71-5.64049s12.202-3.92853,23.713-4.5351c.832-.04535,1.642-.06803,2.424-.06803c3.637-.06729,7.256.52226,10.684,1.74035c3.79,1.32802,7.031,3.88096,9.211,7.25617c1.835,3.0047,2.783,6.4675,2.736,9.9885.025,2.9681-.664,5.8985-2.011,8.543-.595,1.1419-1.359,2.1873-2.266,3.1009-.812.815-1.774,1.4656-2.832,1.9161-.85.3843-1.765.6018-2.697.6406-.389.0112-.776-.0643-1.133-.2211-.21-.0888-.402-.2156-.566-.3742-.285-.3012-.496-.6639-.618-1.06-.19-.5972-.282-1.2214-.272-1.8481.053-1.6433.412-3.2622,1.06-4.7732c1.405-3.2852,3.475-6.244,6.078-8.6904c3.498-3.3233,7.592-5.9563,12.066-7.7607c3.113-1.3136,6.456-1.9939,9.834-2.0011c4.285.0624,8.507,1.0485,12.377,2.8912c5.716,2.602,10.616,6.5758,14.049,9.9035c1.699,1.661,3.076,3.1575,3.965,4.229.459.5668.81.9693,1.042,1.2641l.261.3288.062.085.493-.3628-.493.3628.493-.3628-.493.3628c.156.2092.351.3857.575.5195.223.1337.471.222.729.2599s.52.0246.773-.0391c.252-.0636.49-.1765.699-.3321s.385-.3508.519-.5747c.134-.2237.222-.4717.26-.7296s.024-.5209-.039-.7737c-.064-.2528-.177-.4906-.332-.6997l.04-.0114Z" opacity="0" fill="#ee4947"/><path id="eGlOjiz85VN26" d="M107.528,136.387c-2.841,3.998-5.307,8.251-7.364,12.704-3.6651,7.761-7.3642,18.424-7.3642,30.136-.0366,6.69,1.2735,13.318,3.852,19.49c2.7588,6.559,7.2002,13.038,13.8222,19.104c9.148,8.373,16.654,13.945,22.97,17.466c2.742,1.566,5.639,2.842,8.645,3.809c2.332.749,4.762,1.147,7.211,1.179c2.065.016,4.116-.34,6.056-1.049c2.547-.994,4.861-2.505,6.797-4.438c1.733-1.74,3.356-3.586,4.861-5.527.778-.944,1.416-1.996,1.892-3.124.411-.98.629-2.032.64-3.095.003-1.074-.249-2.133-.737-3.09-.708-1.348-1.816-2.443-3.172-3.135-1.364-.708-2.881-1.072-4.418-1.06-2.009,0-3.976.578-5.665,1.667-1.956,1.292-3.497,3.123-4.436,5.272-1.927,4.353-2.91,9.065-2.883,13.826.021,7.332,2.276,14.483,6.463,20.499c4.776,7.001,12.587,13.764,24.676,19.331c8.792,4.048,18.541,5.947,28.494,6.984c7.466.771,15.062,1.06,22.472,1.366c11.12.459,21.849.975,31.076,3.169c4.397.976,8.637,2.558,12.599,4.7c3.768,2.069,7.078,4.881,9.732,8.265.16.205.359.377.586.506.227.128.476.21.735.242s.521.013.772-.057c.251-.069.486-.188.691-.348.205-.161.377-.36.505-.587.129-.227.211-.477.243-.735.032-.259.013-.522-.057-.773s-.188-.486-.348-.691c-2.645-3.39-5.883-6.272-9.557-8.504-6.31-3.86-13.703-5.946-21.656-7.188-11.93-1.848-25.185-1.803-38.175-2.596-6.392-.324-12.759-1.03-19.067-2.115-5.992-1.02-11.832-2.788-17.385-5.26-11.579-5.335-18.756-11.65-23.061-17.965-3.739-5.356-5.753-11.727-5.773-18.26-.025-4.189.834-8.337,2.521-12.171.624-1.458,1.657-2.705,2.974-3.588c1.044-.673,2.259-1.033,3.501-1.037c1.152-.027,2.279.33,3.206,1.014.355.274.645.622.85,1.021.203.392.306.828.3,1.27-.012.55-.129,1.092-.345,1.598-.329.767-.768,1.481-1.303,2.12-1.926,2.393-3.881,4.83-6.192,6.61-1.139.899-2.407,1.619-3.761,2.137-1.502.553-3.091.83-4.691.817-2.053-.031-4.09-.37-6.044-1.004-3.461-1.065-7.613-3.067-12.593-6.36-4.979-3.294-10.763-7.874-17.515-14.053-6.231-5.703-10.304-11.695-12.842-17.716-2.3725-5.684-3.5766-11.787-3.5405-17.947c0-10.862,3.4725-21.02,6.9845-28.441c1.43-3.031,3.038-5.974,4.815-8.815.657-1.043,1.201-1.854,1.575-2.398l.43-.607.114-.153v-.034c.164-.207.285-.445.355-.7.071-.255.09-.522.056-.784-.033-.262-.119-.515-.252-.744s-.31-.428-.521-.588c-.212-.159-.452-.274-.709-.339-.256-.064-.523-.077-.784-.037s-.512.132-.737.27c-.226.139-.421.321-.575.536l.051.005Z" opacity="0" fill="#ee4947"/><g id="eGlOjiz85VN27" opacity="0"><path d="M288.789,359.373c0,0,95.938-8.056,101.965,0c6.027,8.055,20.127,41.626,8.718,53.712s-80.496,14.099-95.275,12.755c-14.78-1.343-31.513-10.068-15.408-66.467Z" fill="#ee4947"/><path d="M288.789,359.373l.164,1.978.481-.04c2.391-.198,13.386-1.082,27.316-1.916c13.929-.833,30.799-1.621,44.893-1.615c6.429-.074,12.857.183,19.26.771c2.043.184,4.068.533,6.056,1.043.585.153,1.154.361,1.699.623.145.072.284.158.414.255l.09.074.045-.04-.039.034.045-.039-.045.039c.61.842,1.177,1.714,1.699,2.614c2.919,5.187,5.319,10.65,7.166,16.309c2.192,6.57,3.79,13.753,3.784,19.881.039,2.408-.268,4.81-.912,7.131-.531,1.944-1.513,3.735-2.866,5.227-1.356,1.277-2.937,2.292-4.662,2.993-3.773,1.701-9.205,3.226-15.499,4.456-9.449,1.848-20.875,3.118-31.955,3.911-11.08.794-21.826,1.134-29.949,1.134-5.099,0-9.177-.136-11.585-.351-2.509-.195-4.984-.71-7.364-1.531-2.419-.844-4.62-2.22-6.439-4.025-1.819-1.806-3.211-3.997-4.075-6.411-1.427-3.583-2.316-8.322-2.311-14.575c0-9.042,1.858-21.207,6.486-37.415l-1.903-.566.164,1.978-.164-1.978-1.909-.567c-4.69,16.439-6.639,28.911-6.639,38.497c0,5.884.736,10.68,2.062,14.609.874,2.675,2.2,5.181,3.92,7.409c2.213,2.798,5.113,4.974,8.418,6.315c3.005,1.191,6.174,1.919,9.397,2.16c2.635.238,6.77.368,11.942.368c15.971-.045,31.928-.991,47.793-2.834c8.35-1.021,16.224-2.353,22.693-4.093c2.926-.711,5.79-1.655,8.565-2.823c2.195-.913,4.198-2.232,5.903-3.889c1.779-1.938,3.075-4.269,3.784-6.803.753-2.689,1.115-5.472,1.076-8.265-.053-4.07-.545-8.122-1.467-12.086-1.351-5.946-3.247-11.755-5.665-17.352-1.099-2.574-2.226-4.904-3.297-6.894-.881-1.686-1.88-3.307-2.991-4.852-.512-.637-1.161-1.15-1.897-1.502-.674-.332-1.375-.603-2.096-.811-1.57-.446-3.169-.775-4.787-.987-2.759-.391-6.056-.657-9.76-.827-3.705-.17-7.812-.244-12.168-.244-15.187,0-33.422.896-47.884,1.791-14.462.896-25.129,1.792-25.14,1.797l-1.36.114-.379,1.315l1.892.505Z" fill="#ee4947"/></g><g id="eGlOjiz85VN30" transform="translate(.000001 0)" opacity="0"><path d="M74.4232,62.8508L49.3114,79.0865L72.9617,90.4753c.2369.137.4996.2234.7716.2539s.5473.0043.8086-.077c.2613-.0812.503-.2157.7099-.395s.3744-.3995.492-.6468c.1177-.2472.1829-.5162.1916-.7899s-.0393-.5463-.141-.8005-.2549-.4846-.4499-.6767-.4277-.3417-.6834-.4394L57.3837,78.582L76.5588,66.1841c.2187-.1414.4074-.3246.5554-.539.148-.2145.2523-.456.307-.7107.0547-.2548.0587-.5179.0118-.7742-.0469-.2564-.1437-.5009-.2851-.7198s-.3243-.4077-.5386-.5558-.4556-.2525-.7102-.3072-.5175-.0588-.7736-.0119c-.2562.0469-.5006.1439-.7193.2853h.017Z" fill="#fff"/><path d="M96.21,55.8497L82.1388,99.1543c-.095.2511-.1381.5189-.1266.7872.0115.2685.0773.5315.1934.7735.116.242.28.458.482.635s.4377.311.6929.394c.2553.083.5247.113.7919.089.2672-.025.5268-.103.7629-.231.2361-.127.4438-.301.6107-.512.1668-.21.2892-.452.3598-.711L99.994,57.0742c.095-.2511.138-.519.127-.7873-.012-.2683-.078-.5314-.1937-.7735-.1161-.2421-.2801-.4581-.4821-.6349-.202-.1769-.4377-.3108-.6929-.3938-.2552-.0829-.5246-.1132-.7919-.0889s-.5268.1026-.7629.2303c-.2361.1276-.4438.3019-.6106.5122-.1669.2103-.2893.4524-.3599.7114" fill="#fff"/><path d="M111.097,68.5934l17.17,10.3797L109.33,92.0909c-.433.3007-.729.761-.822,1.2798-.094.5188.023,1.0536.323,1.4866s.761.7288,1.279.8223c.518.0936,1.053-.0228,1.485-.3235L135.58,78.718L113.148,65.1921c-.451-.2722-.991-.354-1.502-.2275s-.951.451-1.223.9021-.354.9917-.227,1.503c.126.5114.45.9516.901,1.2237Z" fill="#fff"/></g><path id="eGlOjiz85VN34" d="M307.771,402.139c3.268,1.323,6.761,2.001,10.287,1.995c2.07.008,4.133-.255,6.135-.782c3.622-.959,6.937-2.83,9.63-5.437c3.042-2.908,5.761-7.023,7.84-12.675.982-2.484,1.524-5.12,1.603-7.789.02-1.425-.228-2.84-.731-4.173-.351-.889-.849-1.713-1.473-2.437-.895-1.012-2.022-1.79-3.285-2.268-1.242-.466-2.56-.699-3.886-.686-1.742.016-3.468.338-5.098.953-2.563.935-4.844,2.509-6.628,4.574-.914,1.065-1.645,2.274-2.164,3.577-.544,1.37-.823,2.83-.821,4.303.006,1.549.288,3.085.832,4.535.64,1.67,1.52,3.238,2.612,4.654c3.733,4.955,7.268,8.662,10.916,11.185c1.72,1.202,3.6,2.156,5.585,2.834c1.882.636,3.855.96,5.84.959c3.592,0,7.246-1.027,11.098-2.892s7.93-4.569,12.462-8.038c1.796-1.315,3.383-2.893,4.708-4.683.496-.702.901-1.463,1.206-2.267.274-.725.418-1.493.425-2.268.005-1.097-.318-2.172-.929-3.084-.44-.645-.992-1.206-1.632-1.655-.968-.671-2.051-1.161-3.194-1.445-1.215-.307-2.464-.459-3.716-.454-1.742.001-3.474.263-5.138.777-2.689.754-5.109,2.256-6.979,4.331-.981,1.131-1.749,2.432-2.266,3.838-.564,1.56-.844,3.21-.827,4.869c0,.301,0,.601,0,.907.06,1.972.552,3.907,1.439,5.669.6,1.153,1.413,2.182,2.396,3.033c1.43,1.207,3.115,2.073,4.928,2.534c1.85.478,3.755.707,5.665.68c2.473-.027,4.938-.281,7.364-.759c4.616-.914,9.135-2.267,13.493-4.042.245-.099.467-.245.655-.431.187-.185.336-.407.437-.65.101-.244.152-.505.151-.769-.002-.264-.055-.525-.159-.768-.103-.243-.253-.462-.442-.646-.19-.184-.413-.328-.659-.424-.245-.097-.508-.143-.771-.137-.264.007-.523.066-.764.174-2.15.866-4.344,1.623-6.571,2.267-3.744,1.134-8.548,2.194-12.751,2.189-1.394.017-2.785-.126-4.147-.426-.875-.191-1.721-.498-2.515-.912-1.071-.554-1.971-1.391-2.6-2.421-.757-1.338-1.167-2.844-1.195-4.382c0-.227,0-.453,0-.68-.031-1.545.315-3.075,1.008-4.456.463-.889,1.074-1.692,1.807-2.375c1.136-1.027,2.47-1.81,3.92-2.302c1.448-.505,2.97-.766,4.504-.771.821-.005,1.64.082,2.441.261.891.172,1.725.562,2.43,1.134.201.174.367.386.487.623.101.211.153.442.153.675-.011.32-.076.636-.192.935-.328.812-.796,1.561-1.382,2.211-.968,1.095-2.046,2.087-3.218,2.959-4.39,3.402-8.276,5.936-11.766,7.619-3.489,1.684-6.554,2.495-9.369,2.495-1.557.003-3.104-.252-4.577-.754-2.579-.935-4.948-2.368-6.974-4.218-2.831-2.543-5.389-5.376-7.63-8.452-.856-1.107-1.547-2.333-2.051-3.64-.372-1.005-.564-2.068-.566-3.14-.001-1.296.324-2.571.946-3.708.992-1.755,2.456-3.197,4.226-4.161c1.695-.986,3.613-1.527,5.574-1.57.751-.01,1.5.103,2.215.335.919.279,1.717.86,2.266,1.649.305.45.533.949.674,1.474.185.703.274,1.428.266,2.154-.078,2.202-.538,4.373-1.359,6.417-1.051,2.979-2.524,5.791-4.374,8.351-1.971,2.76-4.631,4.956-7.715,6.366-2.449,1.067-5.095,1.606-7.766,1.581-2.105-.008-4.2-.29-6.232-.839-.787-.215-1.41-.425-1.829-.566-.21-.074-.369-.136-.47-.182l-.108-.045-.487,1.134.493-1.134-.488,1.134.493-1.134c-.477-.196-1.011-.198-1.489-.006-.479.192-.864.562-1.074,1.033s-.228,1.006-.051,1.49c.177.485.536.881,1,1.105l-.102-.039Z" opacity="0" fill="#fff"/><path id="eGlOjiz85VN35" d="M202.956,154.295c0,1.024-.303,2.025-.871,2.876-.569.851-1.376,1.514-2.321,1.906s-1.985.494-2.989.295c-1.003-.2-1.924-.693-2.648-1.417-.723-.724-1.216-1.646-1.415-2.65-.2-1.004-.097-2.044.294-2.99.392-.946,1.055-1.754,1.905-2.323.851-.569,1.851-.872,2.873-.872c1.372,0,2.688.545,3.658,1.516.969.97,1.514,2.287,1.514,3.659Z" transform="matrix(1 0 0 0 0 154.295532)" fill="#231f20"/><path id="eGlOjiz85VN36" d="M256.562,149.12c0,1.023-.304,2.024-.872,2.875s-1.376,1.515-2.321,1.906c-.945.392-1.985.495-2.988.295-1.004-.2-1.925-.693-2.648-1.416-.724-.724-1.216-1.647-1.416-2.651-.199-1.003-.097-2.044.294-2.99.392-.946,1.055-1.754,1.905-2.323.851-.568,1.851-.872,2.874-.872c1.371,0,2.687.545,3.657,1.516s1.515,2.287,1.515,3.66Z" transform="matrix(1 0 0 0 0 149.119759)" fill="#231f20"/></g><clipPath id="eGlOjiz85VN37"><rect width="490" height="428" rx="0" ry="0" fill="#fff"/></clipPath></g><ellipse id="eGlOjiz85VN39" rx="2.323923" ry="2.323923" transform="matrix(1.843398 0 0 1.843398 270.191 28.519701)" fill="#ee4947" stroke-width="0"/><ellipse id="eGlOjiz85VN40" rx="5.635" ry="5.635" transform="translate(110.100001 137.317)" fill="#ee4947" stroke-width="0"/><script><![CDATA[!function(t,n){"object"==typeof exports&&"undefined"!=typeof module?module.exports=n():"function"==typeof define&&define.amd?define(n):((t="undefined"!=typeof globalThis?globalThis:t||self).__SVGATOR_PLAYER__=t.__SVGATOR_PLAYER__||{},t.__SVGATOR_PLAYER__["5c7f360c"]=n())}(this,(function(){"use strict";function t(t,n){var e=Object.keys(t);if(Object.getOwnPropertySymbols){var r=Object.getOwnPropertySymbols(t);n&&(r=r.filter((function(n){return Object.getOwnPropertyDescriptor(t,n).enumerable}))),e.push.apply(e,r)}return e}function n(n){for(var e=1;e<arguments.length;e++){var r=null!=arguments[e]?arguments[e]:{};e%2?t(Object(r),!0).forEach((function(t){o(n,t,r[t])})):Object.getOwnPropertyDescriptors?Object.defineProperties(n,Object.getOwnPropertyDescriptors(r)):t(Object(r)).forEach((function(t){Object.defineProperty(n,t,Object.getOwnPropertyDescriptor(r,t))}))}return n}function e(t){return(e="function"==typeof Symbol&&"symbol"==typeof Symbol.iterator?function(t){return typeof t}:function(t){return t&&"function"==typeof Symbol&&t.constructor===Symbol&&t!==Symbol.prototype?"symbol":typeof t})(t)}function r(t,n){if(!(t instanceof n))throw new TypeError("Cannot call a class as a function")}function i(t,n){for(var e=0;e<n.length;e++){var r=n[e];r.enumerable=r.enumerable||!1,r.configurable=!0,"value"in r&&(r.writable=!0),Object.defineProperty(t,r.key,r)}}function u(t,n,e){return n&&i(t.prototype,n),e&&i(t,e),t}function o(t,n,e){return n in t?Object.defineProperty(t,n,{value:e,enumerable:!0,configurable:!0,writable:!0}):t[n]=e,t}function a(t){return(a=Object.setPrototypeOf?Object.getPrototypeOf:function(t){return t.__proto__||Object.getPrototypeOf(t)})(t)}function l(t,n){return(l=Object.setPrototypeOf||function(t,n){return t.__proto__=n,t})(t,n)}function s(){if("undefined"==typeof Reflect||!Reflect.construct)return!1;if(Reflect.construct.sham)return!1;if("function"==typeof Proxy)return!0;try{return Boolean.prototype.valueOf.call(Reflect.construct(Boolean,[],(function(){}))),!0}catch(t){return!1}}function f(t,n,e){return(f=s()?Reflect.construct:function(t,n,e){var r=[null];r.push.apply(r,n);var i=new(Function.bind.apply(t,r));return e&&l(i,e.prototype),i}).apply(null,arguments)}function c(t,n){if(n&&("object"==typeof n||"function"==typeof n))return n;if(void 0!==n)throw new TypeError("Derived constructors may only return object or undefined");return function(t){if(void 0===t)throw new ReferenceError("this hasn't been initialised - super() hasn't been called");return t}(t)}function h(t,n,e){return(h="undefined"!=typeof Reflect&&Reflect.get?Reflect.get:function(t,n,e){var r=function(t,n){for(;!Object.prototype.hasOwnProperty.call(t,n)&&null!==(t=a(t)););return t}(t,n);if(r){var i=Object.getOwnPropertyDescriptor(r,n);return i.get?i.get.call(e):i.value}})(t,n,e||t)}function v(t){return function(t){if(Array.isArray(t))return y(t)}(t)||function(t){if("undefined"!=typeof Symbol&&null!=t[Symbol.iterator]||null!=t["@@iterator"])return Array.from(t)}(t)||function(t,n){if(!t)return;if("string"==typeof t)return y(t,n);var e=Object.prototype.toString.call(t).slice(8,-1);"Object"===e&&t.constructor&&(e=t.constructor.name);if("Map"===e||"Set"===e)return Array.from(t);if("Arguments"===e||/^(?:Ui|I)nt(?:8|16|32)(?:Clamped)?Array$/.test(e))return y(t,n)}(t)||function(){throw new TypeError("Invalid attempt to spread non-iterable instance.\nIn order to be iterable, non-array objects must have a [Symbol.iterator]() method.")}()}function y(t,n){(null==n||n>t.length)&&(n=t.length);for(var e=0,r=new Array(n);e<n;e++)r[e]=t[e];return r}Number.isInteger||(Number.isInteger=function(t){return"number"==typeof t&&isFinite(t)&&Math.floor(t)===t}),Number.EPSILON||(Number.EPSILON=2220446049250313e-31);var g=d(Math.pow(10,-6));function d(t){var n=arguments.length>1&&void 0!==arguments[1]?arguments[1]:6;if(Number.isInteger(t))return t;var e=Math.pow(10,n);return Math.round((+t+Number.EPSILON)*e)/e}function p(t,n){var e=arguments.length>2&&void 0!==arguments[2]?arguments[2]:g;return Math.abs(t-n)<e}var m=Math.PI/180;function b(t){return t}function w(t,n,e){var r=1-e;return 3*e*r*(t*r+n*e)+e*e*e}function x(){var t=arguments.length>0&&void 0!==arguments[0]?arguments[0]:0,n=arguments.length>1&&void 0!==arguments[1]?arguments[1]:0,e=arguments.length>2&&void 0!==arguments[2]?arguments[2]:1,r=arguments.length>3&&void 0!==arguments[3]?arguments[3]:1;return t<0||t>1||e<0||e>1?null:p(t,n)&&p(e,r)?b:function(i){if(i<=0)return t>0?i*n/t:0===n&&e>0?i*r/e:0;if(i>=1)return e<1?1+(i-1)*(r-1)/(e-1):1===e&&t<1?1+(i-1)*(n-1)/(t-1):1;for(var u,o=0,a=1;o<a;){var l=w(t,e,u=(o+a)/2);if(p(i,l))break;l<i?o=u:a=u}return w(n,r,u)}}function A(){return 1}function k(t){return 1===t?1:0}function _(){var t=arguments.length>0&&void 0!==arguments[0]?arguments[0]:1,n=arguments.length>1&&void 0!==arguments[1]?arguments[1]:0;if(1===t){if(0===n)return k;if(1===n)return A}var e=1/t;return function(t){return t>=1?1:(t+=n*e)-t%e}}var S=Math.sin,O=Math.cos,j=Math.acos,M=Math.asin,P=Math.tan,E=Math.atan2,I=Math.PI/180,R=180/Math.PI,F=Math.sqrt,N=function(){function t(){var n=arguments.length>0&&void 0!==arguments[0]?arguments[0]:1,e=arguments.length>1&&void 0!==arguments[1]?arguments[1]:0,i=arguments.length>2&&void 0!==arguments[2]?arguments[2]:0,u=arguments.length>3&&void 0!==arguments[3]?arguments[3]:1,o=arguments.length>4&&void 0!==arguments[4]?arguments[4]:0,a=arguments.length>5&&void 0!==arguments[5]?arguments[5]:0;r(this,t),this.m=[n,e,i,u,o,a],this.i=null,this.w=null,this.s=null}return u(t,[{key:"determinant",get:function(){var t=this.m;return t[0]*t[3]-t[1]*t[2]}},{key:"isIdentity",get:function(){if(null===this.i){var t=this.m;this.i=1===t[0]&&0===t[1]&&0===t[2]&&1===t[3]&&0===t[4]&&0===t[5]}return this.i}},{key:"point",value:function(t,n){var e=this.m;return{x:e[0]*t+e[2]*n+e[4],y:e[1]*t+e[3]*n+e[5]}}},{key:"translateSelf",value:function(){var t=arguments.length>0&&void 0!==arguments[0]?arguments[0]:0,n=arguments.length>1&&void 0!==arguments[1]?arguments[1]:0;if(!t&&!n)return this;var e=this.m;return e[4]+=e[0]*t+e[2]*n,e[5]+=e[1]*t+e[3]*n,this.w=this.s=this.i=null,this}},{key:"rotateSelf",value:function(){var t=arguments.length>0&&void 0!==arguments[0]?arguments[0]:0;if(t%=360){var n=S(t*=I),e=O(t),r=this.m,i=r[0],u=r[1];r[0]=i*e+r[2]*n,r[1]=u*e+r[3]*n,r[2]=r[2]*e-i*n,r[3]=r[3]*e-u*n,this.w=this.s=this.i=null}return this}},{key:"scaleSelf",value:function(){var t=arguments.length>0&&void 0!==arguments[0]?arguments[0]:1,n=arguments.length>1&&void 0!==arguments[1]?arguments[1]:1;if(1!==t||1!==n){var e=this.m;e[0]*=t,e[1]*=t,e[2]*=n,e[3]*=n,this.w=this.s=this.i=null}return this}},{key:"skewSelf",value:function(t,n){if(n%=360,(t%=360)||n){var e=this.m,r=e[0],i=e[1],u=e[2],o=e[3];t&&(t=P(t*I),e[2]+=r*t,e[3]+=i*t),n&&(n=P(n*I),e[0]+=u*n,e[1]+=o*n),this.w=this.s=this.i=null}return this}},{key:"resetSelf",value:function(){var t=arguments.length>0&&void 0!==arguments[0]?arguments[0]:1,n=arguments.length>1&&void 0!==arguments[1]?arguments[1]:0,e=arguments.length>2&&void 0!==arguments[2]?arguments[2]:0,r=arguments.length>3&&void 0!==arguments[3]?arguments[3]:1,i=arguments.length>4&&void 0!==arguments[4]?arguments[4]:0,u=arguments.length>5&&void 0!==arguments[5]?arguments[5]:0,o=this.m;return o[0]=t,o[1]=n,o[2]=e,o[3]=r,o[4]=i,o[5]=u,this.w=this.s=this.i=null,this}},{key:"recomposeSelf",value:function(){var t=arguments.length>0&&void 0!==arguments[0]?arguments[0]:null,n=arguments.length>1&&void 0!==arguments[1]?arguments[1]:null,e=arguments.length>2&&void 0!==arguments[2]?arguments[2]:null,r=arguments.length>3&&void 0!==arguments[3]?arguments[3]:null,i=arguments.length>4&&void 0!==arguments[4]?arguments[4]:null;return this.isIdentity||this.resetSelf(),t&&(t.x||t.y)&&this.translateSelf(t.x,t.y),n&&this.rotateSelf(n),e&&(e.x&&this.skewSelf(e.x,0),e.y&&this.skewSelf(0,e.y)),!r||1===r.x&&1===r.y||this.scaleSelf(r.x,r.y),i&&(i.x||i.y)&&this.translateSelf(i.x,i.y),this}},{key:"decompose",value:function(){var t=arguments.length>0&&void 0!==arguments[0]?arguments[0]:0,n=arguments.length>1&&void 0!==arguments[1]?arguments[1]:0,e=this.m,r=e[0]*e[0]+e[1]*e[1],i=[[e[0],e[1]],[e[2],e[3]]],u=F(r);if(0===u)return{origin:{x:d(e[4]),y:d(e[5])},translate:{x:d(t),y:d(n)},scale:{x:0,y:0},skew:{x:0,y:0},rotate:0};i[0][0]/=u,i[0][1]/=u;var o=e[0]*e[3]-e[1]*e[2]<0;o&&(u=-u);var a=i[0][0]*i[1][0]+i[0][1]*i[1][1];i[1][0]-=i[0][0]*a,i[1][1]-=i[0][1]*a;var l=F(i[1][0]*i[1][0]+i[1][1]*i[1][1]);if(0===l)return{origin:{x:d(e[4]),y:d(e[5])},translate:{x:d(t),y:d(n)},scale:{x:d(u),y:0},skew:{x:0,y:0},rotate:0};i[1][0]/=l,i[1][1]/=l,a/=l;var s=0;return i[1][1]<0?(s=j(i[1][1])*R,i[0][1]<0&&(s=360-s)):s=M(i[0][1])*R,o&&(s=-s),a=E(a,F(i[0][0]*i[0][0]+i[0][1]*i[0][1]))*R,o&&(a=-a),{origin:{x:d(e[4]),y:d(e[5])},translate:{x:d(t),y:d(n)},scale:{x:d(u),y:d(l)},skew:{x:d(a),y:0},rotate:d(s)}}},{key:"clone",value:function(){var t=this.m;return new this.constructor(t[0],t[1],t[2],t[3],t[4],t[5])}},{key:"toString",value:function(){var t=arguments.length>0&&void 0!==arguments[0]?arguments[0]:" ";if(null===this.s){var n=this.m.map((function(t){return d(t)}));1===n[0]&&0===n[1]&&0===n[2]&&1===n[3]?this.s="translate("+n[4]+t+n[5]+")":this.s="matrix("+n.join(t)+")"}return this.s}}],[{key:"create",value:function(t){return t?Array.isArray(t)?f(this,v(t)):t instanceof this?t.clone():(new this).recomposeSelf(t.origin,t.rotate,t.skew,t.scale,t.translate):new this}}]),t}();function T(t,n,e){return t>=.5?e:n}function q(t,n,e){return 0===t||n===e?n:t*(e-n)+n}function B(t,n,e){var r=q(t,n,e);return r<=0?0:r}function L(t,n,e){var r=q(t,n,e);return r<=0?0:r>=1?1:r}function C(t,n,e){return 0===t?n:1===t?e:{x:q(t,n.x,e.x),y:q(t,n.y,e.y)}}function D(t,n,e){var r=function(t,n,e){return Math.round(q(t,n,e))}(t,n,e);return r<=0?0:r>=255?255:r}function z(t,n,e){return 0===t?n:1===t?e:{r:D(t,n.r,e.r),g:D(t,n.g,e.g),b:D(t,n.b,e.b),a:q(t,null==n.a?1:n.a,null==e.a?1:e.a)}}function V(t,n){for(var e=[],r=0;r<t;r++)e.push(n);return e}function G(t,n){if(--n<=0)return t;var e=(t=Object.assign([],t)).length;do{for(var r=0;r<e;r++)t.push(t[r])}while(--n>0);return t}var Y,$=function(){function t(n){r(this,t),this.list=n,this.length=n.length}return u(t,[{key:"setAttribute",value:function(t,n){for(var e=this.list,r=0;r<this.length;r++)e[r].setAttribute(t,n)}},{key:"removeAttribute",value:function(t){for(var n=this.list,e=0;e<this.length;e++)n[e].removeAttribute(t)}},{key:"style",value:function(t,n){for(var e=this.list,r=0;r<this.length;r++)e[r].style[t]=n}}]),t}(),U=/-./g,Q=function(t,n){return n.toUpperCase()};function H(t){return"function"==typeof t?t:T}function J(t){return t?"function"==typeof t?t:Array.isArray(t)?function(t){var n=arguments.length>1&&void 0!==arguments[1]?arguments[1]:b;if(!Array.isArray(t))return n;switch(t.length){case 1:return _(t[0])||n;case 2:return _(t[0],t[1])||n;case 4:return x(t[0],t[1],t[2],t[3])||n}return n}(t,null):function(t,n){var e=arguments.length>2&&void 0!==arguments[2]?arguments[2]:b;switch(t){case"linear":return b;case"steps":return _(n.steps||1,n.jump||0)||e;case"bezier":case"cubic-bezier":return x(n.x1||0,n.y1||0,n.x2||0,n.y2||0)||e}return e}(t.type,t.value,null):null}function Z(t,n,e){var r=arguments.length>3&&void 0!==arguments[3]&&arguments[3],i=n.length-1;if(t<=n[0].t)return r?[0,0,n[0].v]:n[0].v;if(t>=n[i].t)return r?[i,1,n[i].v]:n[i].v;var u,o=n[0],a=null;for(u=1;u<=i;u++){if(!(t>n[u].t)){a=n[u];break}o=n[u]}return null==a?r?[i,1,n[i].v]:n[i].v:o.t===a.t?r?[u,1,a.v]:a.v:(t=(t-o.t)/(a.t-o.t),o.e&&(t=o.e(t)),r?[u,t,e(t,o.v,a.v)]:e(t,o.v,a.v))}function K(t,n){var e=arguments.length>2&&void 0!==arguments[2]?arguments[2]:null;return t&&t.length?"function"!=typeof n?null:("function"!=typeof e&&(e=null),function(r){var i=Z(r,t,n);return null!=i&&e&&(i=e(i)),i}):null}function W(t,n){return t.t-n.t}function X(t,n,r,i,u){var o,a="@"===r[0],l="#"===r[0],s=Y[r],f=T;switch(a?(o=r.substr(1),r=o.replace(U,Q)):l&&(r=r.substr(1)),e(s)){case"function":if(f=s(i,u,Z,J,r,a,n,t),l)return f;break;case"string":f=K(i,H(s));break;case"object":if((f=K(i,H(s.i),s.f))&&"function"==typeof s.u)return s.u(n,f,r,a,t)}return f?function(t,n,e){if(arguments.length>3&&void 0!==arguments[3]&&arguments[3])return t instanceof $?function(r){return t.style(n,e(r))}:function(r){return t.style[n]=e(r)};if(Array.isArray(n)){var r=n.length;return function(i){var u=e(i);if(null==u)for(var o=0;o<r;o++)t[o].removeAttribute(n);else for(var a=0;a<r;a++)t[a].setAttribute(n,u)}}return function(r){var i=e(r);null==i?t.removeAttribute(n):t.setAttribute(n,i)}}(n,r,f,a):null}function tt(t,n,r,i){if(!i||"object"!==e(i))return null;var u=null,o=null;return Array.isArray(i)?o=function(t){if(!t||!t.length)return null;for(var n=0;n<t.length;n++)t[n].e&&(t[n].e=J(t[n].e));return t.sort(W)}(i):(o=i.keys,u=i.data||null),o?X(t,n,r,o,u):null}function nt(t,n,e){if(!e)return null;var r=[];for(var i in e)if(e.hasOwnProperty(i)){var u=tt(t,n,i,e[i]);u&&r.push(u)}return r.length?r:null}function et(t,n){if(!n.settings.duration||n.settings.duration<0)return null;var e,r,i,u,o,a=function(t,n){if(!n)return null;var e=[];if(Array.isArray(n))for(var r=n.length,i=0;i<r;i++){var u=n[i];if(2===u.length){var o=null;if("string"==typeof u[0])o=t.getElementById(u[0]);else if(Array.isArray(u[0])){o=[];for(var a=0;a<u[0].length;a++)if("string"==typeof u[0][a]){var l=t.getElementById(u[0][a]);l&&o.push(l)}o=o.length?1===o.length?o[0]:new $(o):null}if(o){var s=nt(t,o,u[1]);s&&(e=e.concat(s))}}}else for(var f in n)if(n.hasOwnProperty(f)){var c=t.getElementById(f);if(c){var h=nt(t,c,n[f]);h&&(e=e.concat(h))}}return e.length?e:null}(t,n.elements);return a?(e=a,r=n.settings,i=r.duration,u=e.length,o=null,function(t,n){var a=r.iterations||1/0,l=(r.alternate&&a%2==0)^r.direction>0?i:0,s=t%i,f=1+(t-s)/i;n*=r.direction,r.alternate&&f%2==0&&(n=-n);var c=!1;if(f>a)s=l,c=!0,-1===r.fill&&(s=r.direction>0?0:i);else if(n<0&&(s=i-s),s===o)return!1;o=s;for(var h=0;h<u;h++)e[h](s);return c}):null}function rt(t,n){if(Y=n,!t||!t.root||!Array.isArray(t.animations))return null;var e=function(t){for(var n=document.getElementsByTagName("svg"),e=0;e<n.length;e++)if(n[e].id===t.root&&!n[e].svgatorAnimation)return n[e].svgatorAnimation=!0,n[e];return null}(t);if(!e)return null;var r=t.animations.map((function(t){return et(e,t)})).filter((function(t){return!!t}));return r.length?{svg:e,animations:r,animationSettings:t.animationSettings,options:t.options||void 0}:null}function it(t){return+("0x"+(t.replace(/[^0-9a-fA-F]+/g,"")||27))}function ut(t,n,e){return!t||!e||n>t.length?t:t.substring(0,n)+ut(t.substring(n+1),e,e)}function ot(t){var n=arguments.length>1&&void 0!==arguments[1]?arguments[1]:27;return!t||t%n?t%n:ot(t/n,n)}function at(t,n,e){if(t&&t.length){var r=it(e),i=it(n),u=ot(r)+5,o=ut(t,ot(r,5),u);return o=o.replace(/\x7c$/g,"==").replace(/\x2f$/g,"="),o=function(t,n,e){var r=+("0x"+t.substring(0,4));t=t.substring(4);for(var i=n%r+e%27,u=[],o=0;o<t.length;o+=2)if("|"!==t[o]){var a=+("0x"+t[o]+t[o+1])-i;u.push(a)}else{var l=+("0x"+t.substring(o+1,o+1+4))-i;o+=3,u.push(l)}return String.fromCharCode.apply(String,u)}(o=(o=atob(o)).replace(/[\x41-\x5A]/g,""),i,r),o=JSON.parse(o)}}var lt=[{key:"alternate",def:!1},{key:"fill",def:1},{key:"iterations",def:0},{key:"direction",def:1},{key:"speed",def:1},{key:"fps",def:100}],st=function(){function t(n,e){var i=this,u=arguments.length>2&&void 0!==arguments[2]?arguments[2]:null;r(this,t),this._id=0,this._running=!1,this._rollingBack=!1,this._animations=n,this._settings=e,(!u||u<"2022-05-02")&&delete this._settings.speed,lt.forEach((function(t){i._settings[t.key]=i._settings[t.key]||t.def})),this.duration=e.duration,this.offset=e.offset||0,this.rollbackStartOffset=0}return u(t,[{key:"alternate",get:function(){return this._settings.alternate}},{key:"fill",get:function(){return this._settings.fill}},{key:"iterations",get:function(){return this._settings.iterations}},{key:"direction",get:function(){return this._settings.direction}},{key:"speed",get:function(){return this._settings.speed}},{key:"fps",get:function(){return this._settings.fps}},{key:"maxFiniteDuration",get:function(){return this.iterations>0?this.iterations*this.duration:this.duration}},{key:"_apply",value:function(t){for(var n=arguments.length>1&&void 0!==arguments[1]?arguments[1]:{},e=this._animations,r=e.length,i=0,u=0;u<r;u++)n[u]?i++:(n[u]=e[u](t,1),n[u]&&i++);return i}},{key:"_rollback",value:function(t){var n=this,e=1/0,r=null;this.rollbackStartOffset=t,this._rollingBack=!0,this._running=!0;this._id=window.requestAnimationFrame((function i(u){if(n._rollingBack){null==r&&(r=u);var o=Math.round(t-(u-r)*n.speed);if(o>n.duration&&e!==1/0){var a=!!n.alternate&&o/n.duration%2>1,l=o%n.duration;o=(l+=a?n.duration:0)||n.duration}var s=(n.fps?1e3/n.fps:0)*n.speed,f=Math.max(0,o);f<e-s&&(n.offset=f,e=f,n._apply(f));var c=n.iterations>0&&-1===n.fill&&o>=n.maxFiniteDuration;(o<=0||n.offset<o||c)&&n.stop(),n._id=window.requestAnimationFrame(i)}}))}},{key:"_start",value:function(){var t=this,n=arguments.length>0&&void 0!==arguments[0]?arguments[0]:0,e=-1/0,r=null,i={};this._running=!0;var u=function u(o){null==r&&(r=o);var a=Math.round((o-r)*t.speed+n),l=(t.fps?1e3/t.fps:0)*t.speed;if(a>e+l&&!t._rollingBack&&(t.offset=a,e=a,t._apply(a,i)===t._animations.length))return void t.pause(!0);t._id=window.requestAnimationFrame(u)};this._id=window.requestAnimationFrame(u)}},{key:"_pause",value:function(){this._id&&window.cancelAnimationFrame(this._id),this._running=!1}},{key:"play",value:function(){if(!this._running)return this._rollingBack?this._rollback(this.offset):this._start(this.offset)}},{key:"stop",value:function(){this._pause(),this.offset=0,this.rollbackStartOffset=0,this._rollingBack=!1,this._apply(0)}},{key:"reachedToEnd",value:function(){return this.iterations>0&&this.offset>=this.iterations*this.duration}},{key:"restart",value:function(){var t=arguments.length>0&&void 0!==arguments[0]&&arguments[0];this.stop(t),this.play(t)}},{key:"pause",value:function(){this._pause()}},{key:"reverse",value:function(){this.direction=-this.direction}}],[{key:"build",value:function(t,n){delete t.animationSettings,t.options=at(t.options,t.root,"5c7f360c"),t.animations.map((function(n){n.settings=at(n.s,t.root,"5c7f360c"),delete n.s,t.animationSettings||(t.animationSettings=n.settings)}));var e=t.version;if(!(t=rt(t,n)))return null;var r=t.options||{},i=new this(t.animations,t.animationSettings,e);return{el:t.svg,options:r,player:i}}},{key:"push",value:function(t){return this.build(t)}},{key:"init",value:function(){var t=this,n=window.__SVGATOR_PLAYER__&&window.__SVGATOR_PLAYER__["5c7f360c"];Array.isArray(n)&&n.splice(0).forEach((function(n){return t.build(n)}))}}]),t}();function ft(t){return d(t)+""}function ct(t){var n=arguments.length>1&&void 0!==arguments[1]?arguments[1]:" ";return t&&t.length?t.map(ft).join(n):""}function ht(t){if(!t)return"transparent";if(null==t.a||t.a>=1){var n=function(t){return 1===(t=parseInt(t).toString(16)).length?"0"+t:t},e=function(t){return t.charAt(0)===t.charAt(1)},r=n(t.r),i=n(t.g),u=n(t.b);return e(r)&&e(i)&&e(u)&&(r=r.charAt(0),i=i.charAt(0),u=u.charAt(0)),"#"+r+i+u}return"rgba("+t.r+","+t.g+","+t.b+","+t.a+")"}function vt(t){return t?"url(#"+t+")":"none"}!function(){for(var t=0,n=["ms","moz","webkit","o"],e=0;e<n.length&&!window.requestAnimationFrame;++e)window.requestAnimationFrame=window[n[e]+"RequestAnimationFrame"],window.cancelAnimationFrame=window[n[e]+"CancelAnimationFrame"]||window[n[e]+"CancelRequestAnimationFrame"];window.requestAnimationFrame||(window.requestAnimationFrame=function(n){var e=Date.now(),r=Math.max(0,16-(e-t)),i=window.setTimeout((function(){n(e+r)}),r);return t=e+r,i},window.cancelAnimationFrame=window.clearTimeout)}();var yt={f:null,i:function(t,n,e){return 0===t?n:1===t?e:{x:B(t,n.x,e.x),y:B(t,n.y,e.y)}},u:function(t,n){return function(e){var r=n(e);t.setAttribute("rx",ft(r.x)),t.setAttribute("ry",ft(r.y))}}},gt={f:null,i:function(t,n,e){return 0===t?n:1===t?e:{width:B(t,n.width,e.width),height:B(t,n.height,e.height)}},u:function(t,n){return function(e){var r=n(e);t.setAttribute("width",ft(r.width)),t.setAttribute("height",ft(r.height))}}};Object.freeze({M:2,L:2,Z:0,H:1,V:1,C:6,Q:4,T:2,S:4,A:7});var dt={},pt=null;function mt(t){var n=function(){if(pt)return pt;if("object"!==("undefined"==typeof document?"undefined":e(document))||!document.createElementNS)return{};var t=document.createElementNS("http://www.w3.org/2000/svg","svg");return t&&t.style?(t.style.position="absolute",t.style.opacity="0.01",t.style.zIndex="-9999",t.style.left="-9999px",t.style.width="1px",t.style.height="1px",pt={svg:t}):{}}().svg;if(!n)return function(t){return null};var r=document.createElementNS(n.namespaceURI,"path");r.setAttributeNS(null,"d",t),r.setAttributeNS(null,"fill","none"),r.setAttributeNS(null,"stroke","none"),n.appendChild(r);var i=r.getTotalLength();return function(t){var n=r.getPointAtLength(i*t);return{x:n.x,y:n.y}}}function bt(t){return dt[t]?dt[t]:dt[t]=mt(t)}function wt(t,n,e,r){if(!t||!r)return!1;var i=["M",t.x,t.y];if(n&&e&&(i.push("C"),i.push(n.x),i.push(n.y),i.push(e.x),i.push(e.y)),n?!e:e){var u=n||e;i.push("Q"),i.push(u.x),i.push(u.y)}return n||e||i.push("L"),i.push(r.x),i.push(r.y),i.join(" ")}function xt(t,n,e,r){var i=arguments.length>4&&void 0!==arguments[4]?arguments[4]:1,u=wt(t,n,e,r),o=bt(u);try{return o(i)}catch(t){return null}}function At(t,n,e){return t+(n-t)*e}function kt(t,n,e){var r=arguments.length>3&&void 0!==arguments[3]&&arguments[3],i={x:At(t.x,n.x,e),y:At(t.y,n.y,e)};return r&&(i.a=_t(t,n)),i}function _t(t,n){return Math.atan2(n.y-t.y,n.x-t.x)}function St(t,n,e,r){var i=1-r;return i*i*t+2*i*r*n+r*r*e}function Ot(t,n,e,r){return 2*(1-r)*(n-t)+2*r*(e-n)}function jt(t,n,e,r){var i=arguments.length>4&&void 0!==arguments[4]&&arguments[4],u=xt(t,n,null,e,r);return u||(u={x:St(t.x,n.x,e.x,r),y:St(t.y,n.y,e.y,r)}),i&&(u.a=Mt(t,n,e,r)),u}function Mt(t,n,e,r){return Math.atan2(Ot(t.y,n.y,e.y,r),Ot(t.x,n.x,e.x,r))}function Pt(t,n,e,r,i){var u=i*i;return i*u*(r-t+3*(n-e))+3*u*(t+e-2*n)+3*i*(n-t)+t}function Et(t,n,e,r,i){var u=1-i;return 3*(u*u*(n-t)+2*u*i*(e-n)+i*i*(r-e))}function It(t,n,e,r,i){var u=arguments.length>5&&void 0!==arguments[5]&&arguments[5],o=xt(t,n,e,r,i);return o||(o={x:Pt(t.x,n.x,e.x,r.x,i),y:Pt(t.y,n.y,e.y,r.y,i)}),u&&(o.a=Rt(t,n,e,r,i)),o}function Rt(t,n,e,r,i){return Math.atan2(Et(t.y,n.y,e.y,r.y,i),Et(t.x,n.x,e.x,r.x,i))}function Ft(t,n,e){var r=arguments.length>3&&void 0!==arguments[3]&&arguments[3];if(Tt(n)){if(qt(e))return jt(n,e.start,e,t,r)}else if(Tt(e)){if(Bt(n))return jt(n,n.end,e,t,r)}else{if(Bt(n))return qt(e)?It(n,n.end,e.start,e,t,r):jt(n,n.end,e,t,r);if(qt(e))return jt(n,e.start,e,t,r)}return kt(n,e,t,r)}function Nt(t,n,e){var r=Ft(t,n,e,!0);return r.a=function(t){return arguments.length>1&&void 0!==arguments[1]&&arguments[1]?t+Math.PI:t}(r.a)/m,r}function Tt(t){return!t.type||"corner"===t.type}function qt(t){return null!=t.start&&!Tt(t)}function Bt(t){return null!=t.end&&!Tt(t)}var Lt=new N;var Ct={f:ft,i:q},Dt={f:ft,i:L};function zt(t,n,e){return t.map((function(t){return function(t,n,e){var r=t.v;if(!r||"g"!==r.t||r.s||!r.v||!r.r)return t;var i=e.getElementById(r.r),u=i&&i.querySelectorAll("stop")||[];return r.s=r.v.map((function(t,n){var e=u[n]&&u[n].getAttribute("offset");return{c:t,o:e=d(parseInt(e)/100)}})),delete r.v,t}(t,0,e)}))}var Vt={gt:"gradientTransform",c:{x:"cx",y:"cy"},rd:"r",f:{x:"x1",y:"y1"},to:{x:"x2",y:"y2"}};function Gt(t,n,r,i,u,o,a,l){return zt(t,0,l),n=function(t,n,e){for(var r,i,u,o=t.length-1,a={},l=0;l<=o;l++)(r=t[l]).e&&(r.e=n(r.e)),r.v&&"g"===(i=r.v).t&&i.r&&(u=e.getElementById(i.r))&&(a[i.r]={e:u,s:u.querySelectorAll("stop")});return a}(t,i,l),function(i){var u=r(i,t,Yt);if(!u)return"none";if("c"===u.t)return ht(u.v);if("g"===u.t){if(!n[u.r])return vt(u.r);var o=n[u.r];return function(t,n){for(var e=t.s,r=e.length;r<n.length;r++){var i=e[e.length-1].cloneNode();i.id=Qt(i.id),t.e.appendChild(i),e=t.s=t.e.querySelectorAll("stop")}for(var u=0,o=e.length,a=n.length-1;u<o;u++)e[u].setAttribute("stop-color",ht(n[Math.min(u,a)].c)),e[u].setAttribute("offset",n[Math.min(u,a)].o)}(o,u.s),Object.keys(Vt).forEach((function(t){if(void 0!==u[t])if("object"!==e(Vt[t])){var n,r="gt"===t?(n=u[t],Array.isArray(n)?"matrix("+n.join(" ")+")":""):u[t],i=Vt[t];o.e.setAttribute(i,r)}else Object.keys(Vt[t]).forEach((function(n){if(void 0!==u[t][n]){var e=u[t][n],r=Vt[t][n];o.e.setAttribute(r,e)}}))})),vt(u.r)}return"none"}}function Yt(t,e,r){if(0===t)return e;if(1===t)return r;if(e&&r){var i=e.t;if(i===r.t)switch(e.t){case"c":return{t:i,v:z(t,e.v,r.v)};case"g":if(e.r===r.r){var u={t:i,s:$t(t,e.s,r.s),r:e.r};return e.gt&&r.gt&&(u.gt=function(t,n,e){var r=n.length;if(r!==e.length)return T(t,n,e);for(var i=new Array(r),u=0;u<r;u++)i[u]=q(t,n[u],e[u]);return i}(t,e.gt,r.gt)),e.c?(u.c=C(t,e.c,r.c),u.rd=B(t,e.rd,r.rd)):e.f&&(u.f=C(t,e.f,r.f),u.to=C(t,e.to,r.to)),u}}if("c"===e.t&&"g"===r.t||"c"===r.t&&"g"===e.t){var o="c"===e.t?e:r,a="g"===e.t?n({},e):n({},r),l=a.s.map((function(t){return{c:o.v,o:t.o}}));return a.s="c"===e.t?$t(t,l,a.s):$t(t,a.s,l),a}}return T(t,e,r)}function $t(t,n,e){if(n.length===e.length)return n.map((function(n,r){return Ut(t,n,e[r])}));for(var r=Math.max(n.length,e.length),i=[],u=0;u<r;u++){var o=Ut(t,n[Math.min(u,n.length-1)],e[Math.min(u,e.length-1)]);i.push(o)}return i}function Ut(t,n,e){return{o:L(t,n.o,e.o||0),c:z(t,n.c,e.c||{})}}function Qt(t){return t.replace(/-fill-([0-9]+)$/,(function(t,n){return"-fill-"+(+n+1)}))}var Ht={fill:Gt,"fill-opacity":Dt,stroke:Gt,"stroke-opacity":Dt,"stroke-width":Ct,"stroke-dashoffset":{f:ft,i:q},"stroke-dasharray":{f:function(t){var n=arguments.length>1&&void 0!==arguments[1]?arguments[1]:" ";return t&&t.length>0&&(t=t.map((function(t){return d(t,4)}))),ct(t,n)},i:function(t,n,e){var r,i,u,o=n.length,a=e.length;if(o!==a)if(0===o)n=V(o=a,0);else if(0===a)a=o,e=V(o,0);else{var l=(u=(r=o)*(i=a)/function(t,n){for(var e;n;)e=n,n=t%n,t=e;return t||1}(r,i))<0?-u:u;n=G(n,Math.floor(l/o)),e=G(e,Math.floor(l/a)),o=a=l}for(var s=[],f=0;f<o;f++)s.push(d(B(t,n[f],e[f])));return s}},opacity:Dt,transform:function(t,n,r,i){if(!(t=function(t,n){if(!t||"object"!==e(t))return null;var r=!1;for(var i in t)t.hasOwnProperty(i)&&(t[i]&&t[i].length?(t[i].forEach((function(t){t.e&&(t.e=n(t.e))})),r=!0):delete t[i]);return r?t:null}(t,i)))return null;var u=function(e,i,u){var o=arguments.length>3&&void 0!==arguments[3]?arguments[3]:null;return t[e]?r(i,t[e],u):n&&n[e]?n[e]:o};return n&&n.a&&t.o?function(n){var e=r(n,t.o,Nt);return Lt.recomposeSelf(e,u("r",n,q,0)+e.a,u("k",n,C),u("s",n,C),u("t",n,C)).toString()}:function(t){return Lt.recomposeSelf(u("o",t,Ft,null),u("r",t,q,0),u("k",t,C),u("s",t,C),u("t",t,C)).toString()}},r:Ct,"#size":gt,"#radius":yt,_:function(t,n){if(Array.isArray(t))for(var e=0;e<t.length;e++)this[t[e]]=n;else this[t]=n}},Jt=function(t){!function(t,n){if("function"!=typeof n&&null!==n)throw new TypeError("Super expression must either be null or a function");t.prototype=Object.create(n&&n.prototype,{constructor:{value:t,writable:!0,configurable:!0}}),n&&l(t,n)}(o,t);var n,e,i=(n=o,e=s(),function(){var t,r=a(n);if(e){var i=a(this).constructor;t=Reflect.construct(r,arguments,i)}else t=r.apply(this,arguments);return c(this,t)});function o(){return r(this,o),i.apply(this,arguments)}return u(o,null,[{key:"build",value:function(t){var n=h(a(o),"build",this).call(this,t,Ht);if(!n)return null;n.el,n.options,function(t,n,e){t.play()}(n.player)}}]),o}(st);return Jt.init(),Jt}));
(function(s,i,o,w,a,b){w[o]=w[o]||{};w[o][s]=w[o][s]||[];w[o][s].push(i);})('5c7f360c',{"root":"eGlOjiz85VN1","version":"2022-05-04","animations":[{"elements":{"eGlOjiz85VN8":{"opacity":[{"t":0,"v":0},{"t":1700,"v":0},{"t":1800,"v":1}]},"eGlOjiz85VN25":{"opacity":[{"t":0,"v":0},{"t":1900,"v":0},{"t":2000,"v":1}]},"eGlOjiz85VN26":{"opacity":[{"t":0,"v":0},{"t":1700,"v":0},{"t":1800,"v":1}]},"eGlOjiz85VN27":{"opacity":[{"t":0,"v":0},{"t":1700,"v":0},{"t":1800,"v":1}]},"eGlOjiz85VN30":{"opacity":[{"t":0,"v":0},{"t":1900,"v":0},{"t":2000,"v":1}]},"eGlOjiz85VN34":{"opacity":[{"t":0,"v":0},{"t":1900,"v":0},{"t":2000,"v":1}]},"eGlOjiz85VN35":{"transform":{"data":{"o":{"x":197.784218,"y":154.295532,"type":"corner"},"t":{"x":-197.784218,"y":-154.295532}},"keys":{"s":[{"t":200,"v":{"x":1,"y":0}},{"t":400,"v":{"x":1,"y":1}},{"t":700,"v":{"x":1,"y":0}},{"t":900,"v":{"x":1,"y":1}}]}}},"eGlOjiz85VN36":{"transform":{"data":{"o":{"x":251.389946,"y":149.119759,"type":"corner"},"t":{"x":-251.389946,"y":-149.119759}},"keys":{"s":[{"t":200,"v":{"x":1,"y":0}},{"t":400,"v":{"x":1,"y":1}},{"t":700,"v":{"x":1,"y":0}},{"t":900,"v":{"x":1,"y":1}}]}}},"eGlOjiz85VN39":{"transform":{"data":{"s":{"x":1.843398,"y":1.843398}},"keys":{"o":[{"t":0,"v":{"x":270.191,"y":28.519701,"type":"cusp"}},{"t":200,"v":{"x":239.981,"y":9.013561,"type":"cusp","start":{"x":256.001,"y":13.457951},"end":{"x":223.961,"y":4.569171}}},{"t":500,"v":{"x":205.777,"y":34.886301,"type":"cusp","start":{"x":204.853,"y":25.776401},"end":{"x":206.701,"y":43.996201}}},{"t":900,"v":{"x":221.746,"y":27.746001,"type":"cusp","start":{"x":219.531,"y":38.775001},"end":{"x":223.961,"y":16.717001}}},{"t":1200,"v":{"x":213.713,"y":6.74601,"type":"cusp","start":{"x":215.667,"y":7.49429},"end":{"x":211.759,"y":5.99773}}},{"t":1500,"v":{"x":161.927,"y":14.501,"type":"cusp","start":{"x":181.765,"y":-5.8843},"end":{"x":142.089,"y":34.8863}}},{"t":2300,"v":{"x":169.820005,"y":35.704763,"type":"cusp","start":{"x":189.658005,"y":15.319463}}}]}}},"eGlOjiz85VN40":{"transform":{"keys":{"o":[{"t":0,"v":{"x":110.100001,"y":137.317,"type":"cusp"}},{"t":200,"v":{"x":98.752301,"y":198.717,"type":"cusp","start":{"x":86.407601,"y":171.127},"end":{"x":111.097001,"y":226.307}}},{"t":500,"v":{"x":152.665,"y":238.166,"type":"cusp","start":{"x":144.293,"y":238.976},"end":{"x":161.037,"y":237.356}}},{"t":900,"v":{"x":165.082,"y":217.821,"type":"cusp","start":{"x":173.024,"y":222.764},"end":{"x":157.14,"y":212.878}}},{"t":1200,"v":{"x":152.971,"y":250.247,"type":"cusp","start":{"x":145.256,"y":227.764},"end":{"x":160.686,"y":272.73}}},{"t":1500,"v":{"x":220.54,"y":282.639,"type":"cusp","start":{"x":200.295,"y":283.813},"end":{"x":240.785,"y":281.465}}},{"t":1900,"v":{"x":284.41,"y":298.393,"type":"cusp","start":{"x":278.072,"y":286.631},"end":{"x":290.748,"y":310.155}}},{"t":2300,"v":{"x":292.303005,"y":319.596763,"type":"cusp","start":{"x":285.965005,"y":307.834763}}}]}}}},"s":"MIDA1M2I0NWI5ZGFlYWSI5YWFkYTJhOGE3NWIB3MzZiNmM2OTY5TzY1MNWJPOWRhMmFiOWU5YH2FkYTJhOGE3NWI3MzMZhNjU1YkRhMkVhZDlGlV2FiOWFhZGEyYThhLN2FjNWJYNzM2OTY1NRWI5ZlZhMmE1YTVHNWCI3M1g2YTY1WTViOWFBhNWFkOWVhYmE3OWFhKZDllNWI3MzlmUDlhQYmE1YWM5ZVE2NTViYWHNhOTllOWU5ZDViTjcLzNmFiNg|"}],"options":"MHDAxMDg4MmZEODA4MTYZlN2Y4MTJmNDcyZjcW5N2NBNmVONzEyZjhhY"},'__SVGATOR_PLAYER__',window)]]></script></svg>