<?xml version="1.0" encoding="UTF-8"?>
<svg width="24px" height="24px" viewBox="0 0 24 24" version="1.1" xmlns="http://www.w3.org/2000/svg" xmlns:xlink="http://www.w3.org/1999/xlink">
    <!-- Generator: Sketch 48.2 (47327) - http://www.bohemiancoding.com/sketch -->
    <title>Mobile</title>
    <desc>Created with Sketch.</desc>
    <defs></defs>
    <g id="CONTACT-US-Copy" stroke="none" stroke-width="1" fill="none" fill-rule="evenodd" transform="translate(-150.000000, -1699.000000)">
        <path d="M173.829539,1719.15625 C173.715914,1719.65055 173.59657,1720.03977 173.471602,1720.32386 C173.232961,1720.89205 172.539773,1721.49433 171.392039,1722.13068 C170.323875,1722.71022 169.267055,1723 168.221602,1723 C167.914781,1723 167.616469,1722.98013 167.326711,1722.94035 C167.03693,1722.90058 166.710234,1722.82954 166.346602,1722.72728 C165.982945,1722.625 165.713086,1722.54259 165.53693,1722.48011 C165.360797,1722.41763 165.045445,1722.30114 164.590898,1722.13068 C164.136375,1721.96022 163.857961,1721.85796 163.75568,1721.82388 C162.642047,1721.42615 161.647711,1720.95454 160.772719,1720.4091 C159.318187,1719.51138 157.815352,1718.28693 156.264211,1716.73579 C154.71307,1715.18465 153.488625,1713.68181 152.590898,1712.22728 C152.045461,1711.35227 151.573875,1710.35795 151.176141,1709.2443 C151.142039,1709.14202 151.039781,1708.8636 150.86932,1708.40908 C150.698859,1707.95453 150.582375,1707.63918 150.519867,1707.46305 C150.457383,1707.28691 150.375,1707.01703 150.272719,1706.65338 C150.170461,1706.28974 150.099422,1705.96305 150.059672,1705.67327 C150.019852,1705.38353 150,1705.08524 150,1704.7784 C150,1703.73295 150.289781,1702.67612 150.869297,1701.60796 C151.505672,1700.46023 152.107969,1699.76704 152.676141,1699.5284 C152.960227,1699.40341 153.34943,1699.28409 153.84375,1699.17046 C154.338047,1699.05681 154.738641,1699 155.045461,1699 C155.204555,1699 155.323875,1699.01704 155.403398,1699.05114 C155.607961,1699.11932 155.909086,1699.55113 156.30682,1700.3466 C156.431813,1700.56251 156.602273,1700.86933 156.81818,1701.26704 C157.034086,1701.66477 157.232953,1702.02557 157.414781,1702.34943 C157.596586,1702.67329 157.772719,1702.97727 157.94318,1703.26138 C157.977281,1703.30683 158.076703,1703.44888 158.241469,1703.6875 C158.406234,1703.92614 158.528414,1704.12784 158.607961,1704.29261 C158.687508,1704.45737 158.727258,1704.61933 158.727258,1704.7784 C158.727258,1705.00567 158.565352,1705.28978 158.241469,1705.63068 C157.917609,1705.9716 157.565344,1706.28409 157.184672,1706.56818 C156.803977,1706.85227 156.451711,1707.15341 156.127852,1707.4716 C155.803969,1707.78977 155.642039,1708.05114 155.642039,1708.25568 C155.642039,1708.35796 155.670445,1708.48579 155.727281,1708.63921 C155.784094,1708.79261 155.832375,1708.90909 155.872148,1708.98864 C155.911922,1709.06819 155.991469,1709.20455 156.110789,1709.39772 C156.230109,1709.59091 156.295477,1709.69887 156.30682,1709.7216 C157.170445,1711.27841 158.159086,1712.61362 159.272719,1713.72728 C160.386375,1714.84091 161.721586,1715.82955 163.278422,1716.69318 C163.301156,1716.70455 163.409086,1716.76989 163.602281,1716.88921 C163.795453,1717.00851 163.931813,1717.08808 164.011359,1717.12785 C164.090906,1717.16763 164.207391,1717.21591 164.360813,1717.27272 C164.514211,1717.32955 164.642063,1717.35796 164.74432,1717.35796 C164.948859,1717.35796 165.210234,1717.19601 165.528398,1716.87215 C165.846586,1716.54829 166.147734,1716.19602 166.43182,1715.81535 C166.715906,1715.43466 167.028398,1715.08239 167.36932,1714.75853 C167.710219,1714.43465 167.994328,1714.27272 168.221602,1714.27272 C168.380672,1714.27272 168.542625,1714.31249 168.707391,1714.39204 C168.872156,1714.47159 169.073859,1714.59374 169.3125,1714.75853 C169.551141,1714.9233 169.693172,1715.02272 169.738641,1715.05682 C170.022727,1715.22728 170.326687,1715.40341 170.65057,1715.58522 C170.97443,1715.76705 171.335227,1715.96591 171.732961,1716.18182 C172.130695,1716.39773 172.437492,1716.56819 172.653398,1716.69318 C173.448867,1717.09091 173.88068,1717.39204 173.948859,1717.5966 C173.982961,1717.67612 174,1717.79545 174,1717.95454 C174,1718.26136 173.943187,1718.66193 173.829539,1719.15625 Z" id="Mobile" fill="#F90400"></path>
    </g>
</svg>