<?xml version="1.0" encoding="UTF-8"?>
<svg width="21px" height="32px" viewBox="0 0 21 32" version="1.1" xmlns="http://www.w3.org/2000/svg" xmlns:xlink="http://www.w3.org/1999/xlink">
    <!-- Generator: Sketch 48.2 (47327) - http://www.bohemiancoding.com/sketch -->
    <title>Location</title>
    <desc>Created with Sketch.</desc>
    <defs></defs>
    <g id="CONTACT-US-Copy" stroke="none" stroke-width="1" fill="none" fill-rule="evenodd" transform="translate(-152.000000, -1752.000000)">
        <path d="M169.918899,1755.18864 L169.599923,1754.88032 C167.585341,1752.96552 164.966385,1752 162.339034,1752 C159.694895,1752 157.050756,1752.97363 155.02778,1754.92901 C151.854813,1757.99594 151.090951,1762.69371 153.139109,1766.55578 L162.389399,1784 L171.773993,1767.01014 C173.939669,1763.10751 173.1842,1758.29615 169.918899,1755.18864 Z M162.51531,1766.78296 C159.661319,1766.78296 157.352943,1764.55172 157.352943,1761.7931 C157.352943,1759.0426 159.661319,1756.80325 162.51531,1756.80325 C165.369301,1756.80325 167.677676,1759.03448 167.677676,1761.7931 C167.677676,1764.55172 165.369301,1766.78296 162.51531,1766.78296 Z" id="Location" fill="#F90400"></path>
    </g>
</svg>