<?xml version="1.0" encoding="UTF-8" standalone="no"?>
<svg width="10px" height="20px" viewBox="0 0 17 30" version="1.1" xmlns="http://www.w3.org/2000/svg" xmlns:xlink="http://www.w3.org/1999/xlink">
    <!-- Generator: Sketch 48.2 (47327) - http://www.bohemiancoding.com/sketch -->
    <title>Slide arrow</title>
    <desc>Created with Sketch.</desc>
    <defs></defs>
    <g id="Home" stroke="none" stroke-width="1" fill="none" fill-rule="evenodd" transform="translate(-858.000000, -1478.000000)">
        <g id="Slide-arrow" transform="translate(866.000000, 1493.000000) scale(-1, 1) translate(-866.000000, -1493.000000) translate(857.000000, 1477.000000)" fill="#292934" fill-rule="nonzero">
            <path d="M-5.2762102,9.10712523 L-5.2762102,9.10712523 C-6.25125724,10.2511553 -6.11899404,11.967947 -4.98021894,12.9491262 L7.65559824,23.8362644 C8.40587752,24.4827121 9.51627835,24.4827121 10.2665576,23.8362644 L22.9023748,12.9491262 C24.0411499,11.967947 24.1734131,10.2511553 23.1983661,9.10712523 L23.1983661,9.10712523 C22.2232338,7.96299522 20.5071282,7.82124699 19.3574849,8.78987313 L10.2497428,16.4635551 C9.50515903,17.0909004 8.41699683,17.0909004 7.67241302,16.4635551 L-1.435329,8.78987313 C-2.5849723,7.82124699 -4.30107799,7.96299522 -5.2762102,9.10712523 Z" id="Shape" transform="translate(8.961078, 16.000000) rotate(-270.000000) translate(-8.961078, -16.000000) "></path>
        </g>
    </g>
</svg>