<?xml version="1.0" encoding="UTF-8"?>
<svg width="22px" height="43px" viewBox="0 0 22 43" version="1.1" xmlns="http://www.w3.org/2000/svg" xmlns:xlink="http://www.w3.org/1999/xlink">
    <!-- Generator: Sketch 48.2 (47327) - http://www.bohemiancoding.com/sketch -->
    <title>attach_file - material</title>
    <desc>Created with Sketch.</desc>
    <defs></defs>
    <g id="Apply-Internship" stroke="none" stroke-width="1" fill="none" fill-rule="evenodd" transform="translate(-767.000000, -487.000000)" fill-opacity="0.5">
        <path d="M786.028322,496.78976 L789,496.78976 L789,519.179739 C789,521.147069 788.512714,522.958234 787.538126,524.61329 C786.563539,526.268345 785.237481,527.579879 783.559913,528.54793 C781.882345,529.515982 780.053024,530 778.071895,530 C776.090767,530 774.253458,529.515982 772.559913,528.54793 C770.866368,527.579879 769.516345,526.268345 768.509804,524.61329 C767.503263,522.958234 767,521.147069 767,519.179739 L767,494.869281 C767,493.464045 767.367462,492.160318 768.102397,490.958061 C768.837331,489.755804 769.819892,488.795574 771.050109,488.077342 C772.280326,487.35911 773.614372,487 775.052288,487 C776.490203,487 777.816261,487.351304 779.030501,488.053922 C780.244741,488.756539 781.211325,489.71677 781.930283,490.934641 C782.649241,492.152512 783.008715,493.464045 783.008715,494.869281 L783.008715,515.33878 C783.008715,516.213149 782.785042,517.025051 782.337691,517.77451 C781.890339,518.523969 781.291217,519.117282 780.540305,519.554466 C779.789393,519.991651 778.966599,520.21024 778.071895,520.21024 C777.177192,520.21024 776.338421,519.991651 775.555556,519.554466 C774.77269,519.117282 774.149603,518.523969 773.686275,517.77451 C773.222946,517.025051 772.991285,516.213149 772.991285,515.33878 L772.991285,496.78976 L776.010893,496.78976 L776.010893,515.33878 C776.010893,515.900874 776.210601,516.361472 776.610022,516.720588 C777.009443,517.079704 777.496729,517.259259 778.071895,517.259259 C778.647062,517.259259 779.118371,517.079704 779.485839,516.720588 C779.853306,516.361472 780.037037,515.900874 780.037037,515.33878 L780.037037,494.869281 C780.037037,493.994912 779.813365,493.175204 779.366013,492.410131 C778.918662,491.645058 778.311551,491.036132 777.544662,490.583333 C776.777774,490.130535 775.946991,489.904139 775.052288,489.904139 C774.157584,489.904139 773.326801,490.130535 772.559913,490.583333 C771.793024,491.036132 771.177925,491.645058 770.714597,492.410131 C770.251269,493.175204 770.019608,493.994912 770.019608,494.869281 L770.019608,519.179739 C770.019608,520.584974 770.38707,521.896508 771.122004,523.114379 C771.856939,524.33225 772.8395,525.300287 774.069717,526.018519 C775.299934,526.73675 776.63398,527.095861 778.071895,527.095861 C779.509811,527.095861 780.835869,526.73675 782.050109,526.018519 C783.264349,525.300287 784.230933,524.33225 784.949891,523.114379 C785.668849,521.896508 786.028322,520.584974 786.028322,519.179739 L786.028322,496.78976 Z" id="attach_file---material" fill="#292934"></path>
    </g>
</svg>