<svg width="33" height="32" viewBox="0 0 33 32" fill="none" xmlns="http://www.w3.org/2000/svg">
<path d="M14.0387 14.6969C14.3106 14.5 14.4418 14.175 14.4418 13.7281C14.4512 13.5156 14.4075 13.3063 14.3137 13.1156C14.2293 12.9625 14.1043 12.8344 13.9512 12.7437C13.7924 12.6475 13.6161 12.5837 13.4325 12.5562C13.2325 12.5187 13.0293 12.5 12.8293 12.5031H10.6325V14.9937H13.0106C13.42 14.9969 13.7668 14.8969 14.0387 14.6969ZM14.4075 16.9469C14.1012 16.7125 13.6918 16.5969 13.1825 16.5969H10.6262V19.5344H13.1325C13.3668 19.5344 13.5825 19.5125 13.7918 19.4688C13.9899 19.43 14.1788 19.3536 14.3481 19.2437C14.5075 19.1406 14.6356 19 14.7325 18.8188C14.8262 18.6375 14.8731 18.4062 14.8731 18.1281C14.8731 17.575 14.7168 17.1844 14.4075 16.9469ZM16.9043 2C9.17308 2 2.90433 8.26875 2.90433 16C2.90433 23.7313 9.17308 30 16.9043 30C24.6356 30 30.9043 23.7313 30.9043 16C30.9043 8.26875 24.6356 2 16.9043 2ZM19.6075 10.9656H23.9325V12.0188H19.6075V10.9656ZM16.9043 19.65C16.702 20.034 16.4132 20.3657 16.0606 20.6187C15.6918 20.875 15.2825 21.0625 14.8481 21.1719C14.3936 21.2937 13.9248 21.3536 13.4543 21.35H8.27933V10.6906H13.3106C13.82 10.6906 14.2825 10.7375 14.7043 10.825C15.1231 10.9125 15.4793 11.0625 15.7793 11.2656C16.0762 11.4688 16.3106 11.7406 16.4762 12.0781C16.6387 12.4125 16.7231 12.8313 16.7231 13.3281C16.7231 13.8656 16.6012 14.3094 16.3575 14.6687C16.1106 15.0281 15.7543 15.3188 15.27 15.5469C15.9293 15.7344 16.4137 16.0688 16.7325 16.5375C17.0575 17.0125 17.2168 17.5813 17.2168 18.25C17.2168 18.7938 17.1137 19.2594 16.9043 19.65ZM25.6168 18H20.0418C20.0418 18.6063 20.2512 19.1875 20.5668 19.5C20.8856 19.8094 21.3418 19.9656 21.9387 19.9656C22.37 19.9656 22.7356 19.8563 23.0481 19.6406C23.3575 19.425 23.545 19.1969 23.6137 18.9594H25.4825C25.1825 19.8875 24.7262 20.55 24.1075 20.95C23.495 21.35 22.745 21.55 21.8731 21.55C21.2637 21.55 20.7168 21.45 20.2262 21.2594C19.7543 21.075 19.3293 20.7937 18.9793 20.4312C18.6342 20.059 18.3675 19.6211 18.195 19.1437C18.0043 18.6156 17.9106 18.0594 17.9168 17.5C17.9168 16.9219 18.0137 16.3844 18.2012 15.8844C18.5606 14.9125 19.3075 14.1344 20.2606 13.7312C20.77 13.5188 21.3168 13.4125 21.87 13.4187C22.5262 13.4187 23.095 13.5437 23.5887 13.8C24.064 14.0447 24.4767 14.3954 24.795 14.825C25.1106 15.2531 25.3325 15.7406 25.4731 16.2906C25.6075 16.8312 25.6543 17.4 25.6168 18ZM21.8043 15.0125C21.4668 15.0125 21.1825 15.0719 20.9637 15.1875C20.745 15.3031 20.5637 15.4469 20.4262 15.6125C20.2953 15.7724 20.1985 15.9575 20.1418 16.1562C20.0918 16.3219 20.0575 16.4906 20.045 16.6625H23.4981C23.4481 16.1219 23.2606 15.7219 23.0106 15.4406C22.7481 15.1625 22.3262 15.0125 21.8043 15.0125Z" fill="white"/>
</svg>
