<svg width="37" height="36" viewBox="0 0 37 36" fill="none" xmlns="http://www.w3.org/2000/svg">
<path d="M18.5533 0.26709C28.3201 0.26709 36.2408 8.18629 36.2408 17.9546C36.2408 27.723 28.3216 35.6422 18.5533 35.6422C8.78344 35.6422 0.865723 27.7215 0.865723 17.9546C0.865723 8.18629 8.78344 0.26709 18.5533 0.26709ZM25.861 13.8433C22.0635 13.8433 20.6052 16.178 20.0456 17.9739L19.9509 18.304L19.8753 18.6164L19.8428 18.7645L19.7924 19.0458L19.7539 19.2974L19.7273 19.5195L19.6977 19.9489L19.6918 20.1561V20.3708L19.714 20.7705L19.7377 21.0119L19.7732 21.2784L19.8235 21.5641L19.8531 21.7121L19.9286 22.023C20.3876 23.7582 21.7186 26.0056 25.5101 26.1374L26.129 26.1477L26.4325 26.1388L26.6842 26.124L26.9714 26.0944L27.2853 26.0544L27.6198 25.9952C29.1684 25.6917 31.2012 24.7931 31.3448 22.1741L31.3522 21.875H28.5289L28.5259 21.9638L28.5155 22.0675L28.5052 22.1282L28.4697 22.2703C28.329 22.7544 27.8478 23.5198 26.2223 23.5953L25.8344 23.6042L25.6093 23.5939L25.5146 23.585L25.2999 23.5554C24.5049 23.4162 23.2524 22.9084 23.1399 21.0785L23.131 20.809H31.4469L31.4721 20.51L31.4854 20.2435L31.4884 20.0836V19.8245L31.481 19.558L31.4514 19.1139L31.4173 18.797L31.37 18.4654C31.3403 18.2966 31.3078 18.1249 31.2663 17.9502L31.1745 17.5978C30.6445 15.7709 29.278 13.8433 25.8595 13.8433H25.861ZM13.9652 9.76302H5.61517V25.8087H14.1399L14.4834 25.788L14.7099 25.7643L14.9675 25.7273L15.2488 25.6769C16.71 25.3808 18.916 24.4303 19.0566 21.3835L19.0655 20.9837L19.064 20.7498L19.0537 20.5381L19.0329 20.2864C18.9145 19.1716 18.4082 17.244 16.3162 17.0974L16.066 17.0885L16.1771 17.0737L16.3962 17.0264L16.5872 16.9716C17.3067 16.7377 18.5059 16.0448 18.5059 14.0343C18.5059 11.2598 16.6345 9.85777 14.2184 9.76746L13.9667 9.76302H13.9652ZM9.29569 18.6682H13.9948L14.0733 18.6742L14.1947 18.6919L14.3486 18.7274C14.8476 18.8666 15.6574 19.33 15.6574 20.8712C15.6574 22.405 14.8135 22.8136 14.1429 22.9217L13.9371 22.9454L13.7505 22.9558H9.29421V18.6682H9.29569ZM25.9247 16.1943C27.5725 16.1943 28.1114 17.2884 28.2861 18.0213L28.329 18.2285L28.3542 18.4062L28.3705 18.6342V18.6682H23.0999L23.1265 18.5305L23.165 18.3751L23.2257 18.1767C23.4715 17.4557 24.154 16.1928 25.9247 16.1928V16.1943ZM9.29569 16.1943V12.6145H13.9918L14.0659 12.6233L14.1725 12.647C14.5011 12.7373 15.1007 13.069 15.1007 14.283C15.1007 15.873 14.4952 16.1677 13.7831 16.1928L9.29569 16.1943ZM29.0308 10.7061H22.41V12.6826H29.0293V10.7061H29.0308Z" fill="white"/>
</svg>
