<?xml version="1.0" encoding="UTF-8" standalone="no"?>
<svg width="28px" height="28px" viewBox="0 0 28 28" version="1.1" xmlns="http://www.w3.org/2000/svg" xmlns:xlink="http://www.w3.org/1999/xlink">
    <!-- Generator: Sketch 48.2 (47327) - http://www.bohemiancoding.com/sketch -->
    <title>Close</title>
    <desc>Created with Sketch.</desc>
    <defs></defs>
    <g id="Home-2" stroke="none" stroke-width="1" fill="none" fill-rule="evenodd" transform="translate(-1215.000000, -580.000000)">
        <g id="Group-3" transform="translate(526.000000, 534.000000)" fill="#f90400">
            <g id="Close" transform="translate(689.000000, 46.000000)">
                <path d="M27.3368421,0.663157895 C27.7789496,1.10526537 28,1.65789142 28,2.32105263 C28,2.98421384 27.7789496,3.53683989 27.3368421,3.97894737 L17.3157895,14 L27.3368421,24.0210526 C27.7789496,24.4631601 28,25.0157862 28,25.6789474 C28,26.3421086 27.7789496,26.8947346 27.3368421,27.3368421 C26.8947346,27.7789496 26.3421086,28 25.6789474,28 C25.0157862,28 24.4631601,27.7789496 24.0210526,27.3368421 L14,17.3157895 L3.97894737,27.3368421 C3.53683989,27.7789496 2.98421384,28 2.32105263,28 C1.65789142,28 1.10526537,27.7789496 0.663157895,27.3368421 C0.221050421,26.8947346 0,26.3421086 0,25.6789474 C0,25.0157862 0.221050421,24.4631601 0.663157895,24.0210526 L10.6842105,14 L0.663157895,3.97894737 C0.221050421,3.53683989 0,2.98421384 0,2.32105263 C0,1.65789142 0.221050421,1.10526537 0.663157895,0.663157895 C1.10526537,0.221050421 1.65789142,0 2.32105263,0 C2.98421384,0 3.53683989,0.221050421 3.97894737,0.663157895 L14,10.6842105 L24.0210526,0.663157895 C24.4631601,0.221050421 25.0157862,0 25.6789474,0 C26.3421086,0 26.8947346,0.221050421 27.3368421,0.663157895 Z" id="close---simple-line-icons"></path>
            </g>
        </g>
    </g>
</svg>