<svg width="500" height="500" viewBox="0 0 500 500" fill="none" xmlns="http://www.w3.org/2000/svg">
<path d="M68.5293 134.025V348.519C68.5293 350.561 70.185 352.217 72.2275 352.217H432.799C434.841 352.217 436.497 350.561 436.497 348.519V134.025C436.497 125.175 429.322 118 420.471 118H84.5547C75.7041 118 68.5293 125.175 68.5293 134.025Z" fill="#F8F8F8"/>
<path fill-rule="evenodd" clip-rule="evenodd" d="M84.5529 120.774C77.2342 120.774 71.3012 126.707 71.3012 134.025V348.519C71.3012 349.03 71.7151 349.444 72.2257 349.444H432.797C433.308 349.444 433.721 349.03 433.721 348.519V134.025C433.721 126.707 427.788 120.774 420.47 120.774H84.5529ZM65.7539 134.025C65.7539 123.643 74.1705 115.226 84.5529 115.226H420.47C430.852 115.226 439.269 123.643 439.269 134.025V348.519C439.269 352.093 436.371 354.991 432.797 354.991H72.2257C68.6515 354.991 65.7539 352.093 65.7539 348.519V134.025Z" fill="#231F20"/>
<path fill-rule="evenodd" clip-rule="evenodd" d="M46.1216 369.696C38.285 362.73 43.2121 349.771 53.6971 349.771H449.282C459.015 349.771 464.273 361.179 457.952 368.58L447.423 380.907C445.256 383.443 442.088 384.904 438.752 384.904H67.5652C64.7726 384.904 62.077 383.879 59.9897 382.023L46.1216 369.696ZM53.6971 355.318C48.3129 355.318 45.7828 361.973 49.8069 365.55L63.6751 377.877C64.7469 378.83 66.1311 379.356 67.5652 379.356H438.752C440.465 379.356 442.092 378.606 443.205 377.304L453.734 364.977C456.98 361.176 454.28 355.318 449.282 355.318H53.6971Z" fill="#231F20"/>
<path fill-rule="evenodd" clip-rule="evenodd" d="M94.3034 142.526C96.2748 142.526 97.8728 140.928 97.8728 138.956C97.8728 136.985 96.2748 135.387 94.3034 135.387C92.3321 135.387 90.734 136.985 90.734 138.956C90.734 140.928 92.3321 142.526 94.3034 142.526ZM94.3034 145.736C98.0479 145.736 101.083 142.701 101.083 138.956C101.083 135.212 98.0479 132.177 94.3034 132.177C90.5589 132.177 87.5234 135.212 87.5234 138.956C87.5234 142.701 90.5589 145.736 94.3034 145.736Z" fill="#231F20"/>
<path fill-rule="evenodd" clip-rule="evenodd" d="M114.999 142.526C116.97 142.526 118.568 140.928 118.568 138.956C118.568 136.985 116.97 135.387 114.999 135.387C113.027 135.387 111.429 136.985 111.429 138.956C111.429 140.928 113.027 142.526 114.999 142.526ZM114.999 145.736C118.743 145.736 121.779 142.701 121.779 138.956C121.779 135.212 118.743 132.177 114.999 132.177C111.254 132.177 108.219 135.212 108.219 138.956C108.219 142.701 111.254 145.736 114.999 145.736Z" fill="#231F20"/>
<path fill-rule="evenodd" clip-rule="evenodd" d="M135.692 142.526C137.663 142.526 139.262 140.928 139.262 138.956C139.262 136.985 137.663 135.387 135.692 135.387C133.721 135.387 132.123 136.985 132.123 138.956C132.123 140.928 133.721 142.526 135.692 142.526ZM135.692 145.736C139.437 145.736 142.472 142.701 142.472 138.956C142.472 135.212 139.437 132.177 135.692 132.177C131.948 132.177 128.912 135.212 128.912 138.956C128.912 142.701 131.948 145.736 135.692 145.736Z" fill="#231F20"/>
<path fill-rule="evenodd" clip-rule="evenodd" d="M435.769 159.605H68.418V154.057H435.769V159.605Z" fill="#231F20"/>
<path fill-rule="evenodd" clip-rule="evenodd" d="M243.791 261.25H97.3184C94.4696 261.25 92.1603 263.559 92.1603 266.408V336.654C92.1603 339.502 94.4696 341.812 97.3184 341.812H243.791C246.64 341.812 248.949 339.502 248.949 336.654V266.408C248.949 263.559 246.64 261.25 243.791 261.25ZM97.3184 261.072C94.3714 261.072 91.9824 263.461 91.9824 266.408V336.654C91.9824 339.601 94.3714 341.99 97.3184 341.99H243.791C246.738 341.99 249.127 339.601 249.127 336.654V266.408C249.127 263.461 246.738 261.072 243.791 261.072H97.3184Z" fill="#808080"/>
<path fill-rule="evenodd" clip-rule="evenodd" d="M243.791 169.777H97.3184C94.4696 169.777 92.1603 172.087 92.1603 174.935V249.872C92.1603 252.721 94.4696 255.03 97.3184 255.03H243.791C246.64 255.03 248.949 252.721 248.949 249.872V174.935C248.949 172.087 246.64 169.777 243.791 169.777ZM97.3184 169.599C94.3714 169.599 91.9824 171.988 91.9824 174.935V249.872C91.9824 252.819 94.3714 255.208 97.3184 255.208H243.791C246.738 255.208 249.127 252.819 249.127 249.872V174.935C249.127 171.988 246.738 169.599 243.791 169.599H97.3184Z" fill="#808080"/>
<path fill-rule="evenodd" clip-rule="evenodd" d="M409.145 169.777H262.672C259.823 169.777 257.514 172.087 257.514 174.935V249.872C257.514 252.721 259.823 255.03 262.672 255.03H409.145C411.994 255.03 414.303 252.721 414.303 249.872V174.935C414.303 172.087 411.994 169.777 409.145 169.777ZM262.672 169.599C259.725 169.599 257.336 171.988 257.336 174.935V249.872C257.336 252.819 259.725 255.208 262.672 255.208H409.145C412.092 255.208 414.481 252.819 414.481 249.872V174.935C414.481 171.988 412.092 169.599 409.145 169.599H262.672Z" fill="#808080"/>
<path fill-rule="evenodd" clip-rule="evenodd" d="M409.145 261.25H262.672C259.823 261.25 257.514 263.559 257.514 266.408V336.654C257.514 339.502 259.823 341.812 262.672 341.812H409.145C411.994 341.812 414.303 339.502 414.303 336.654V266.408C414.303 263.559 411.994 261.25 409.145 261.25ZM262.672 261.072C259.725 261.072 257.336 263.461 257.336 266.408V336.654C257.336 339.601 259.725 341.99 262.672 341.99H409.145C412.092 341.99 414.481 339.601 414.481 336.654V266.408C414.481 263.461 412.092 261.072 409.145 261.072H262.672Z" fill="#808080"/>
<path fill-rule="evenodd" clip-rule="evenodd" d="M198.189 235.436L171.49 189.191C171.225 188.732 170.562 188.732 170.297 189.191L143.597 235.436C143.332 235.895 143.664 236.469 144.194 236.469H197.593C198.123 236.469 198.455 235.895 198.189 235.436ZM174.956 187.19C173.15 184.063 168.636 184.063 166.831 187.19L140.132 233.435C138.326 236.562 140.583 240.471 144.194 240.471H197.593C201.204 240.471 203.461 236.562 201.655 233.435L174.956 187.19Z" fill="#EF4748"/>
<path fill-rule="evenodd" clip-rule="evenodd" d="M362.806 187.674H310.107C309.726 187.674 309.418 187.983 309.418 188.363V239.299C309.418 239.679 309.726 239.988 310.107 239.988H362.806C363.187 239.988 363.495 239.679 363.495 239.299V188.363C363.495 187.983 363.187 187.674 362.806 187.674ZM310.107 183.672C307.516 183.672 305.416 185.773 305.416 188.363V239.299C305.416 241.89 307.516 243.99 310.107 243.99H362.806C365.397 243.99 367.497 241.89 367.497 239.299V188.363C367.497 185.773 365.397 183.672 362.806 183.672H310.107Z" fill="#EF4748"/>
<path fill-rule="evenodd" clip-rule="evenodd" d="M167.623 326.261C180.634 326.261 191.18 315.714 191.18 302.704C191.18 289.694 180.634 279.147 167.623 279.147C154.613 279.147 144.066 289.694 144.066 302.704C144.066 315.714 154.613 326.261 167.623 326.261ZM167.623 330.263C182.844 330.263 195.182 317.924 195.182 302.704C195.182 287.483 182.844 275.145 167.623 275.145C152.403 275.145 140.064 287.483 140.064 302.704C140.064 317.924 152.403 330.263 167.623 330.263Z" fill="#EF4748"/>
<path fill-rule="evenodd" clip-rule="evenodd" d="M348.012 283.927L336.834 277.592C336.623 277.472 336.365 277.472 336.154 277.592L324.977 283.927L313.901 290.44C313.692 290.563 313.563 290.786 313.561 291.028L313.459 303.876L313.561 316.724C313.563 316.967 313.692 317.19 313.901 317.313L324.977 323.825L336.154 330.161C336.365 330.28 336.623 330.28 336.834 330.161L348.012 323.825L359.087 317.313C359.296 317.19 359.425 316.967 359.427 316.724L359.529 303.876L359.427 291.028C359.425 290.786 359.296 290.563 359.087 290.44L348.012 283.927ZM350.013 280.461L338.807 274.11C337.372 273.297 335.616 273.297 334.181 274.11L322.976 280.461L311.872 286.99C310.451 287.826 309.573 289.347 309.559 290.996L309.457 303.876L309.559 316.756C309.573 318.405 310.451 319.927 311.872 320.763L322.976 327.291L334.181 333.642C335.616 334.456 337.372 334.456 338.807 333.642L350.013 327.291L361.116 320.763C362.538 319.927 363.416 318.405 363.429 316.756L363.531 303.876L363.429 290.996C363.416 289.347 362.538 287.826 361.116 286.99L350.013 280.461Z" fill="#EF4748"/>
<path fill-rule="evenodd" clip-rule="evenodd" d="M343.768 260.647L336.694 267.722C336.259 268.156 335.556 268.156 335.121 267.722L328.047 260.647C327.613 260.213 327.613 259.509 328.047 259.075C328.481 258.641 329.185 258.641 329.619 259.075L334.796 264.252L334.796 249.345C334.796 248.731 335.294 248.233 335.908 248.233C336.521 248.233 337.019 248.731 337.019 249.345L337.019 264.252L342.196 259.075C342.63 258.641 343.334 258.641 343.768 259.075C344.202 259.509 344.202 260.213 343.768 260.647Z" fill="#EF4748"/>
<path fill-rule="evenodd" clip-rule="evenodd" d="M178.415 255.633L171.34 248.559C170.906 248.125 170.202 248.125 169.768 248.559L162.693 255.633C162.259 256.067 162.259 256.771 162.693 257.205C163.128 257.64 163.831 257.64 164.266 257.205L169.442 252.029L169.442 266.936C169.442 267.55 169.94 268.047 170.554 268.047C171.168 268.047 171.666 267.55 171.666 266.936L171.666 252.029L176.843 257.205C177.277 257.64 177.981 257.64 178.415 257.205C178.849 256.771 178.849 256.067 178.415 255.633Z" fill="#EF4748"/>
<path fill-rule="evenodd" clip-rule="evenodd" d="M290.92 209.82L297.994 216.895C298.429 217.329 298.429 218.033 297.994 218.467L290.92 225.542C290.486 225.976 289.782 225.976 289.348 225.542C288.914 225.108 288.914 224.404 289.348 223.97L294.525 218.793L209.254 218.793C208.64 218.793 208.143 218.295 208.143 217.681C208.143 217.067 208.64 216.569 209.254 216.569L294.525 216.569L289.348 211.393C288.914 210.958 288.914 210.255 289.348 209.82C289.782 209.386 290.486 209.386 290.92 209.82Z" fill="#EF4748"/>
<path fill-rule="evenodd" clip-rule="evenodd" d="M215.543 312.323L208.468 305.249C208.034 304.815 208.034 304.111 208.468 303.677L215.543 296.602C215.977 296.168 216.681 296.168 217.115 296.602C217.549 297.036 217.549 297.74 217.115 298.174L211.938 303.351H297.209C297.823 303.351 298.32 303.849 298.32 304.463C298.32 305.077 297.823 305.574 297.209 305.574H211.938L217.115 310.751C217.549 311.185 217.549 311.889 217.115 312.323C216.681 312.757 215.977 312.757 215.543 312.323Z" fill="#EF4748"/>
</svg>
