<svg width="30" height="30" viewBox="0 0 30 30" fill="none" xmlns="http://www.w3.org/2000/svg">
<path fill-rule="evenodd" clip-rule="evenodd" d="M14.953 0.231934C6.80063 0.231934 0.18576 6.84557 0.18576 14.9992C0.18576 23.1528 6.80063 29.7677 14.953 29.7677C23.0906 29.7677 29.7215 23.1528 29.7215 14.9992C29.7215 6.84681 23.0906 0.231934 14.953 0.231934ZM24.7083 7.03792C26.4702 9.18451 27.5268 11.9242 27.5589 14.887C27.1434 14.8068 22.9784 13.9586 18.7814 14.4875C18.6852 14.2779 18.6051 14.0547 18.5101 13.8303C18.2524 13.2213 17.9652 12.5974 17.6766 12.0043C22.3212 10.1142 24.4358 7.39178 24.7083 7.03915V7.03792ZM14.953 2.40936C18.1575 2.40936 21.0883 3.6115 23.315 5.58178C23.0906 5.90235 21.1844 8.44843 16.6989 10.1302C14.6324 6.33389 12.3428 3.22558 11.989 2.74596C12.9346 2.52156 13.9284 2.40936 14.953 2.40936ZM9.58714 3.59547C9.92374 4.04304 12.1665 7.16738 14.265 10.8823C8.3702 12.4531 3.16461 12.4211 2.60361 12.4211C3.42107 8.51255 6.06332 5.26121 9.58714 3.59547ZM2.33112 15.0152V14.6318C2.8761 14.6478 8.99532 14.7267 15.2896 12.8378C15.6583 13.5418 15.9949 14.2631 16.3154 14.9832C16.1552 15.0325 15.9788 15.0793 15.8186 15.1274C9.31466 17.2272 5.85618 22.9605 5.56643 23.4413C3.56533 21.2146 2.33112 18.2505 2.33112 15.0152ZM14.953 27.6211C12.0383 27.6211 9.34795 26.6285 7.21738 24.9628C7.44054 24.498 10.0039 19.5649 17.1156 17.0817C17.1477 17.0656 17.165 17.0656 17.1958 17.0496C18.9737 21.6474 19.695 25.5078 19.8874 26.6125C18.3646 27.2685 16.6989 27.6211 14.953 27.6211ZM21.9846 25.4585C21.8564 24.6903 21.1832 21.0062 19.5347 16.4726C23.4913 15.8487 26.951 16.8733 27.3826 17.0176C26.8388 20.5254 24.8205 23.5523 21.9846 25.4585Z" fill="white"/>
</svg>
