<svg width="36" height="36" viewBox="0 0 36 36" fill="none" xmlns="http://www.w3.org/2000/svg">
<path fill-rule="evenodd" clip-rule="evenodd" d="M18.2265 0.26709C8.43739 0.26709 0.494507 8.20849 0.494507 17.999C0.494507 27.7896 8.43739 35.7325 18.2265 35.7325C27.9978 35.7325 35.9599 27.7896 35.9599 17.999C35.9599 8.20997 27.9978 0.26709 18.2265 0.26709ZM29.9402 8.43945C32.0558 11.017 33.3246 14.3067 33.3631 17.8643C32.8642 17.7681 27.863 16.7495 22.8234 17.3846C22.7079 17.1329 22.6117 16.865 22.4977 16.5955C22.1883 15.8642 21.8433 15.115 21.4969 14.4029C27.0739 12.1333 29.613 8.86436 29.9402 8.44093V8.43945ZM18.2265 2.88165C22.0743 2.88165 25.5934 4.32514 28.2672 6.69098C27.9978 7.07591 25.7089 10.1331 20.3228 12.1525C17.8415 7.59409 15.0922 3.86174 14.6673 3.28583C15.8029 3.01638 16.9962 2.88165 18.2265 2.88165ZM11.7833 4.30589C12.1875 4.84332 14.8805 8.5949 17.4003 13.0557C10.3221 14.9418 4.0714 14.9033 3.39777 14.9033C4.37934 10.2101 7.55205 6.30605 11.7833 4.30589ZM3.07058 18.0183V17.5579C3.72496 17.5771 11.0727 17.6719 18.6306 15.4037C19.0733 16.2491 19.4775 17.1152 19.8624 17.9798C19.6699 18.039 19.4582 18.0953 19.2658 18.153C11.4561 20.6743 7.30333 27.5586 6.95541 28.136C4.55256 25.4622 3.07058 21.9031 3.07058 18.0183ZM18.2265 33.1549C14.7266 33.1549 11.4961 31.9631 8.9378 29.963C9.20577 29.4048 12.2837 23.4813 20.8233 20.4996C20.8617 20.4804 20.8825 20.4804 20.9195 20.4611C23.0544 25.9819 23.9205 30.6173 24.1514 31.9439C22.323 32.7315 20.3228 33.1549 18.2265 33.1549ZM26.6698 30.5581C26.5158 29.6358 25.7074 25.212 23.728 19.7682C28.4789 19.0191 32.6332 20.2494 33.1514 20.4226C32.4985 24.6346 30.0749 28.2693 26.6698 30.5581Z" fill="white"/>
</svg>
