<?xml version="1.0" encoding="UTF-8"?>
<svg width="34px" height="34px" viewBox="0 0 34 34" version="1.1" xmlns="http://www.w3.org/2000/svg" xmlns:xlink="http://www.w3.org/1999/xlink">
    <!-- Generator: Sketch 48.2 (47327) - http://www.bohemiancoding.com/sketch -->
    <title>Group</title>
    <desc>Created with Sketch.</desc>
    <defs></defs>
    <g id="Menu_2" stroke="none" stroke-width="1" fill="none" fill-rule="evenodd" transform="translate(-703.000000, -198.000000)">
        <g id="Group" transform="translate(704.000000, 199.000000)" fill="#7B7B7B" stroke="#7B7B7B">
            <path d="M27.8939826,16.6615273 C27.5617391,16.6615273 27.2929391,16.9425455 27.2929391,17.2898909 L27.2929391,30.7072 L20.4744348,30.7072 L20.4744348,23.3693091 C20.4744348,23.0219636 20.2056348,22.7409455 19.8733913,22.7409455 L12.6558609,22.7409455 C12.3236174,22.7409455 12.0548174,23.0219636 12.0548174,23.3693091 L12.0548174,30.7072 L4.83561739,30.7072 L4.83561739,17.2898909 C4.83561739,16.9425455 4.56681739,16.6615273 4.23457391,16.6615273 C3.90233043,16.6615273 3.63353043,16.9425455 3.63353043,17.2898909 L3.63353043,31.3355636 C3.63353043,31.6829091 3.90233043,31.9639273 4.23457391,31.9639273 L12.455513,31.9639273 C12.6725565,31.9639273 12.8612174,31.8417455 12.9680696,31.6602182 C13.1417043,31.5502545 13.2585739,31.3530182 13.2585739,31.1243636 L13.2585739,23.9959273 L19.2740174,23.9959273 L19.2740174,31.1243636 C19.2740174,31.3512727 19.390887,31.5485091 19.5645217,31.6602182 C19.6697043,31.8417455 19.8583652,31.9639273 20.0770783,31.9639273 L27.8973217,31.9639273 C28.2295652,31.9639273 28.4983652,31.6829091 28.4983652,31.3355636 L28.4983652,17.2898909 C28.4966957,16.9425455 28.2262261,16.6615273 27.8939826,16.6615273 Z" id="Shape"></path>
            <path d="M31.5336348,16.0069818 L16.4257391,0.210618182 C16.2003478,-0.0250181818 15.8013217,-0.0250181818 15.5742609,0.210618182 L0.466365217,16.0069818 C0.230956522,16.2530909 0.230956522,16.6510545 0.466365217,16.8954182 C0.583234783,17.0176 0.738504348,17.0804364 0.892104348,17.0804364 C1.04570435,17.0804364 1.19930435,17.0193455 1.31784348,16.8954182 L16,1.54589091 L30.6838261,16.8971636 C30.9192348,17.1432727 31.2998957,17.1432727 31.5353043,16.8971636 C31.7690435,16.6510545 31.7690435,16.2530909 31.5336348,16.0069818 Z" id="Shape"></path>
        </g>
    </g>
</svg>