<svg width="30" height="30" viewBox="0 0 30 30" fill="none" xmlns="http://www.w3.org/2000/svg">
<path d="M22.0194 0.435547H8.66039C4.31257 0.435547 0.775467 3.97265 0.775467 8.32047V21.6797C0.775467 26.0273 4.31257 29.5644 8.66039 29.5644H22.0196C26.3672 29.5644 29.9043 26.0273 29.9043 21.6797V8.32047C29.9043 3.97265 26.3672 0.435547 22.0194 0.435547ZM28.1967 21.6797C28.1967 25.0857 25.4256 27.8568 22.0194 27.8568H8.66039C5.25418 27.8568 2.48313 25.0857 2.48313 21.6797V8.32047C2.48313 4.91426 5.25418 2.14321 8.66039 2.14321H22.0196C25.4256 2.14321 28.1967 4.91426 28.1967 8.32047V21.6797Z" fill="white"/>
<path d="M15.34 7.03491C10.9482 7.03491 7.37529 10.6078 7.37529 14.9996C7.37529 19.3914 10.9482 22.9643 15.34 22.9643C19.7318 22.9643 23.3047 19.3914 23.3047 14.9996C23.3047 10.6078 19.7318 7.03491 15.34 7.03491ZM15.34 21.2567C11.89 21.2567 9.08295 18.4498 9.08295 14.9996C9.08295 11.5496 11.89 8.74257 15.34 8.74257C18.7902 8.74257 21.597 11.5496 21.597 14.9996C21.597 18.4498 18.7902 21.2567 15.34 21.2567Z" fill="white"/>
<path d="M23.4967 4.20679C22.1989 4.20679 21.1433 5.26263 21.1433 6.56026C21.1433 7.85812 22.1989 8.91396 23.4967 8.91396C24.7946 8.91396 25.8504 7.85812 25.8504 6.56026C25.8504 5.26241 24.7946 4.20679 23.4967 4.20679ZM23.4967 7.20608C23.1407 7.20608 22.8509 6.91628 22.8509 6.56026C22.8509 6.20402 23.1407 5.91445 23.4967 5.91445C23.853 5.91445 24.1428 6.20402 24.1428 6.56026C24.1428 6.91628 23.853 7.20608 23.4967 7.20608Z" fill="white"/>
</svg>
