<svg width="36" height="36" viewBox="0 0 36 36" fill="none" xmlns="http://www.w3.org/2000/svg">
<path d="M26.3507 0.665527H10.3097C5.08901 0.665527 0.841797 4.91274 0.841797 10.1334V26.1747C0.841797 31.3951 5.08901 35.6423 10.3097 35.6423H26.351C31.5714 35.6423 35.8186 31.3951 35.8186 26.1747V10.1334C35.8186 4.91274 31.5714 0.665527 26.3507 0.665527ZM33.7681 26.1747C33.7681 30.2645 30.4408 33.5919 26.3507 33.5919H10.3097C6.21966 33.5919 2.89229 30.2645 2.89229 26.1747V10.1334C2.89229 6.0434 6.21966 2.71602 10.3097 2.71602H26.351C30.4408 2.71602 33.7681 6.0434 33.7681 10.1334V26.1747Z" fill="white"/>
<path d="M18.3309 8.59033C13.0574 8.59033 8.76721 12.8805 8.76721 18.154C8.76721 23.4276 13.0574 27.7177 18.3309 27.7177C23.6044 27.7177 27.8946 23.4276 27.8946 18.154C27.8946 12.8805 23.6044 8.59033 18.3309 8.59033ZM18.3309 25.6673C14.1883 25.6673 10.8177 22.2969 10.8177 18.154C10.8177 14.0114 14.1883 10.6408 18.3309 10.6408C22.4738 10.6408 25.8441 14.0114 25.8441 18.154C25.8441 22.2969 22.4738 25.6673 18.3309 25.6673Z" fill="white"/>
<path d="M28.1234 5.19385C26.565 5.19385 25.2975 6.46166 25.2975 8.01981C25.2975 9.57823 26.565 10.846 28.1234 10.846C29.6819 10.846 30.9497 9.57823 30.9497 8.01981C30.9497 6.46139 29.6819 5.19385 28.1234 5.19385ZM28.1234 8.79528C27.696 8.79528 27.348 8.44731 27.348 8.01981C27.348 7.59205 27.696 7.24434 28.1234 7.24434C28.5512 7.24434 28.8992 7.59205 28.8992 8.01981C28.8992 8.44731 28.5512 8.79528 28.1234 8.79528Z" fill="white"/>
</svg>
