<svg width="35" height="36" viewBox="0 0 35 36" fill="none" xmlns="http://www.w3.org/2000/svg">
<path d="M30.8129 0.665527H4.16391C1.86543 0.665527 0 2.53096 0 4.82943V31.4784C0 33.7769 1.86543 35.6423 4.16391 35.6423H30.8129C33.1114 35.6423 34.9768 33.7769 34.9768 31.4784V4.82943C34.9768 2.53096 33.1114 0.665527 30.8129 0.665527ZM10.8262 13.99V29.8129H5.82947V13.99H10.8262ZM5.82947 9.38475C5.82947 8.21886 6.82881 7.32778 8.32782 7.32778C9.82682 7.32778 10.7679 8.21886 10.8262 9.38475C10.8262 10.5506 9.89344 11.4917 8.32782 11.4917C6.82881 11.4917 5.82947 10.5506 5.82947 9.38475ZM29.1474 29.8129H24.1507C24.1507 29.8129 24.1507 22.1013 24.1507 21.4851C24.1507 19.8195 23.3179 18.1539 21.2359 18.1206H21.1693C19.154 18.1206 18.3212 19.8362 18.3212 21.4851C18.3212 22.2429 18.3212 29.8129 18.3212 29.8129H13.3245V13.99H18.3212V16.122C18.3212 16.122 19.9285 13.99 23.1597 13.99C26.4658 13.99 29.1474 16.2635 29.1474 20.8688V29.8129Z" fill="white"/>
</svg>
