<?xml version="1.0" encoding="UTF-8"?>
<svg width="36px" height="36px" viewBox="0 0 36 36" version="1.1" xmlns="http://www.w3.org/2000/svg" xmlns:xlink="http://www.w3.org/1999/xlink">
    <!-- Generator: Sketch 48.2 (47327) - http://www.bohemiancoding.com/sketch -->
    <title>Group 6</title>
    <desc>Created with Sketch.</desc>
    <defs></defs>
    <g id="Profile-Page-(Sam)" stroke="none" stroke-width="1" fill="none" fill-rule="evenodd" transform="translate(-557.000000, -494.000000)">
        <g id="Group-6" transform="translate(557.000000, 494.000000)">
            <circle id="Oval-Copy" fill="#0E76A8" cx="18" cy="18" r="18"></circle>
            <path d="M13.3885294,26.3921827 C13.3885294,26.7278845 13.1146,27 12.7766604,27 L10.1720796,27 C9.83414003,27 9.56021061,26.7278845 9.56021061,26.3921827 L9.56021061,15.5461854 C9.56021061,15.2104835 9.83414003,14.938368 10.1720796,14.938368 L12.7766604,14.938368 C13.1146,14.938368 13.3885294,15.2104835 13.3885294,15.5461854 L13.3885294,26.3921827 Z M11.47437,13.9159704 C10.1078261,13.9159704 9,12.8154802 9,11.4579852 C9,10.1004903 10.1078261,9 11.47437,9 C12.840914,9 13.94874,10.1004903 13.94874,11.4579852 C13.94874,12.8154802 12.8409748,13.9159704 11.47437,13.9159704 Z M26.9999983,26.4411417 C26.9999983,26.7497649 26.7480952,27 26.4374147,27 L23.6425071,27 C23.3318266,27 23.0799235,26.7497649 23.0799235,26.4411417 L23.0799235,21.3537542 C23.0799235,20.5948287 23.3040199,18.0281061 21.0833784,18.0281061 C19.3608844,18.0281061 19.0115058,19.7849496 18.9413501,20.5733714 L18.9413501,26.4411417 C18.9413501,26.7497649 18.6895079,27 18.3787665,27 L15.6756149,27 C15.3649344,27 15.1130313,26.7497649 15.1130313,26.4411417 L15.1130313,15.4972263 C15.1130313,15.1886031 15.3649344,14.938368 15.6756149,14.938368 L18.3787665,14.938368 C18.689447,14.938368 18.9413501,15.1886031 18.9413501,15.4972263 L18.9413501,16.4434654 C19.5800523,15.4913029 20.5292524,14.7563734 22.5502577,14.7563734 C27.0256146,14.7563734 26.9999983,18.9097918 26.9999983,21.1918872 L26.9999983,26.4411417 Z" id="LinkedIn" fill="#FFFFFF" fill-rule="nonzero"></path>
        </g>
    </g>
</svg>