<svg width="30" height="30" viewBox="0 0 30 30" fill="none" xmlns="http://www.w3.org/2000/svg">
<path d="M25.6611 0.435547H3.46772C1.55354 0.435547 0 1.98909 0 3.90327V26.0967C0 28.0109 1.55354 29.5644 3.46772 29.5644H25.6611C27.5753 29.5644 29.1289 28.0109 29.1289 26.0967V3.90327C29.1289 1.98909 27.5753 0.435547 25.6611 0.435547ZM9.01608 11.5323V24.7096H4.85481V11.5323H9.01608ZM4.85481 7.69696C4.85481 6.726 5.68707 5.9839 6.93544 5.9839C8.18383 5.9839 8.96753 6.726 9.01608 7.69696C9.01608 8.66792 8.23931 9.45163 6.93544 9.45163C5.68707 9.45163 4.85481 8.66792 4.85481 7.69696ZM24.2741 24.7096H20.1128C20.1128 24.7096 20.1128 18.2874 20.1128 17.7742C20.1128 16.3871 19.4192 15 17.6854 14.9722H17.6299C15.9515 14.9722 15.258 16.4009 15.258 17.7742C15.258 18.4053 15.258 24.7096 15.258 24.7096H11.0967V11.5323H15.258V13.3077C15.258 13.3077 16.5965 11.5323 19.2875 11.5323C22.0408 11.5323 24.2741 13.4256 24.2741 17.2609V24.7096Z" fill="white"/>
</svg>
