<?xml version="1.0" encoding="UTF-8"?>
<svg width="30px" height="42px" viewBox="0 0 41 58" version="1.1" xmlns="http://www.w3.org/2000/svg" xmlns:xlink="http://www.w3.org/1999/xlink">
    <!-- Generator: Sketch 48.2 (47327) - http://www.bohemiancoding.com/sketch -->
    <title>Location_Hover</title>
    <desc>Created with Sketch.</desc>
    <defs></defs>
    <g id="Contact-us-S2" stroke="none" stroke-width="1" fill="none" fill-rule="evenodd" transform="translate(-161.000000, -252.000000)">
        <g id="Location_Hover" transform="translate(162.000000, 253.000000)" fill="#FFFFFF" fill-rule="nonzero" stroke="#FFFFFF" stroke-width="1.5">
            <path d="M19.5800106,55.901375 C19.4385272,55.901375 19.3082066,55.8275 19.2395417,55.708375 C18.2608397,54.010125 16.7818834,51.6415 15.0694146,48.89875 C9.07960265,39.3055 0.0279072848,24.808125 0.0279072848,18.927375 C0.0279072848,8.545125 8.79897219,0.0985 19.5800106,0.0985 C30.3831152,0.0985 39.1720927,8.545125 39.1720927,18.927375 C39.1720927,24.79475 30.1246808,39.2595 24.1378543,48.831125 C22.4043576,51.602625 20.9070993,53.996125 19.9206093,55.70825 C19.8518146,55.8275 19.7216238,55.901375 19.5800106,55.901375 Z M19.5800106,0.848625 C9.22835497,0.848625 0.806715232,8.95875 0.806715232,18.9275 C0.806715232,24.600125 9.79156291,38.990125 15.736853,48.512375 C17.2655232,50.96075 18.6085775,53.111625 19.5800106,54.7605 C20.5609192,53.096375 21.9217563,50.92075 23.4706755,48.444375 C29.4129801,38.943875 38.3932848,24.5865 38.3932848,18.9275 C38.3932848,8.95875 29.9537325,0.848625 19.5800106,0.848625 Z" id="Shape"></path>
            <path d="M19.5800106,29.263 C13.6621086,29.263 8.84751788,24.6265 8.84751788,18.9275 C8.84751788,13.2285 13.6621086,8.592 19.5800106,8.592 C25.4979126,8.592 30.3125033,13.2285 30.3125033,18.9275 C30.3125033,24.6265 25.4979126,29.263 19.5800106,29.263 Z M19.5800106,9.342 C14.0914914,9.342 9.62632583,13.642 9.62632583,18.9275 C9.62632583,24.213 14.0914914,28.513 19.5800106,28.513 C25.0685298,28.513 29.5336954,24.213 29.5336954,18.9275 C29.5336954,13.642 25.0685298,9.342 19.5800106,9.342 Z" id="Shape"></path>
        </g>
    </g>
</svg>