<?xml version="1.0" encoding="UTF-8"?>
<svg width="30px" height="42px" viewBox="0 0 30 42" version="1.1" xmlns="http://www.w3.org/2000/svg" xmlns:xlink="http://www.w3.org/1999/xlink">
    <!-- Generator: Sketch 48.2 (47327) - http://www.bohemiancoding.com/sketch -->
    <title>Location_Default</title>
    <desc>Created with Sketch.</desc>
    <defs></defs>
    <g id="Contact-us" stroke="none" stroke-width="1" fill="none" fill-rule="evenodd" transform="translate(-129.000000, -230.000000)" opacity="0.5">
        <g id="Location_Default" transform="translate(130.000000, 231.000000)" fill="#FFFFFF" fill-rule="nonzero" stroke="#FFFFFF">
            <path d="M13.9857219,39.9295536 C13.8846623,39.9295536 13.7915762,39.8767857 13.7425298,39.7916964 C13.043457,38.5786607 11.9870596,36.8867857 10.7638675,34.9276786 C6.48543046,28.0753571 0.0199337748,17.7200893 0.0199337748,13.5195536 C0.0199337748,6.10366071 6.28498013,0.0703571429 13.9857219,0.0703571429 C21.7022252,0.0703571429 27.9800662,6.10366071 27.9800662,13.5195536 C27.9800662,17.7105357 21.5176291,28.0425 17.2413245,34.879375 C16.0031126,36.8590179 14.9336424,38.5686607 14.2290066,39.7916071 C14.1798675,39.8767857 14.0868742,39.9295536 13.9857219,39.9295536 Z M13.9857219,0.606160714 C6.59168212,0.606160714 0.576225166,6.39910714 0.576225166,13.5196429 C0.576225166,17.5715179 6.99397351,27.8500893 11.2406093,34.6516964 C12.3325166,36.4005357 13.2918411,37.936875 13.9857219,39.1146429 C14.6863709,37.9259821 15.6583974,36.3719643 16.7647682,34.603125 C21.0092715,27.8170536 27.4237748,17.5617857 27.4237748,13.5196429 C27.4237748,6.39910714 21.3955232,0.606160714 13.9857219,0.606160714 Z" id="Shape"></path>
            <path d="M13.9857219,20.9021429 C9.75864901,20.9021429 6.31965563,17.5903571 6.31965563,13.5196429 C6.31965563,9.44892857 9.75864901,6.13714286 13.9857219,6.13714286 C18.2127947,6.13714286 21.6517881,9.44892857 21.6517881,13.5196429 C21.6517881,17.5903571 18.2127947,20.9021429 13.9857219,20.9021429 Z M13.9857219,6.67285714 C10.065351,6.67285714 6.87594702,9.74428571 6.87594702,13.5196429 C6.87594702,17.295 10.065351,20.3664286 13.9857219,20.3664286 C17.9060927,20.3664286 21.0954967,17.295 21.0954967,13.5196429 C21.0954967,9.74428571 17.9060927,6.67285714 13.9857219,6.67285714 Z" id="Shape"></path>
        </g>
    </g>
</svg>