<svg width="34" height="34" viewBox="0 0 34 34" fill="none" xmlns="http://www.w3.org/2000/svg">
<path d="M16.6289 2.5625C8.65602 2.5625 2.19138 9.02715 2.19138 17C2.19138 24.9729 8.65602 31.4375 16.6289 31.4375C24.6017 31.4375 31.0664 24.9729 31.0664 17C31.0664 9.02715 24.6017 2.5625 16.6289 2.5625ZM24.8789 10.7384L23.564 11.9984C23.448 12.0854 23.3932 12.2272 23.4158 12.3658V21.6374C23.3932 21.7792 23.448 21.921 23.564 22.0048L24.8531 23.2648V23.5452H18.382V23.2777L19.713 21.9854C19.8451 21.8533 19.8451 21.8146 19.8451 21.6181V14.1157L16.139 23.513H15.6395L11.3276 14.1157V20.416C11.2889 20.6803 11.3824 20.9478 11.5693 21.1379L13.3031 23.2358V23.5162H8.37888V23.2358L10.1127 21.1379C10.204 21.0435 10.272 20.9291 10.3112 20.8037C10.3503 20.6784 10.3596 20.5456 10.3383 20.416V13.1328C10.3608 12.9298 10.2835 12.7332 10.1288 12.5946L8.58835 10.7384V10.458H13.374L17.0672 18.563L20.3188 10.4645H24.8789V10.7384Z" fill="white"/>
</svg>
