<svg width="500" height="500" viewBox="0 0 500 500" fill="none" xmlns="http://www.w3.org/2000/svg">
<path fill-rule="evenodd" clip-rule="evenodd" d="M382.327 92.5H117.673C102.114 92.5 89.5 105.114 89.5 120.673V407.782H410.5V120.673C410.5 105.114 397.886 92.5 382.327 92.5ZM117.673 88C99.6283 88 85 102.628 85 120.673V410.648C85 411.551 85.7314 412.282 86.6337 412.282H415V120.673C415 102.628 400.372 88 382.327 88H117.673Z" fill="#231F20"/>
<path fill-rule="evenodd" clip-rule="evenodd" d="M355.371 134.975H144.628C129.069 134.975 116.455 147.589 116.455 163.149V407.782H383.544V163.149C383.544 147.589 370.931 134.975 355.371 134.975ZM144.628 130.475C126.583 130.475 111.955 145.104 111.955 163.149V410.649C111.955 411.551 112.687 412.282 113.589 412.282H388.044V163.149C388.044 145.104 373.416 130.475 355.371 130.475H144.628Z" fill="#231F20"/>
<path fill-rule="evenodd" clip-rule="evenodd" d="M246.03 243.158C246.029 243.158 246.029 243.158 246.028 243.159L197.32 267.512L197.315 267.515C195.661 268.337 194.269 269.604 193.296 271.174C192.322 272.743 191.806 274.553 191.805 276.4C191.805 276.4 191.805 276.399 191.805 276.4C191.805 276.4 191.805 276.401 191.805 276.401V334.368L191.805 334.384C191.792 336.234 192.296 338.051 193.261 339.63C194.226 341.208 195.611 342.485 197.262 343.317C197.263 343.318 197.264 343.318 197.265 343.319L245.972 367.672C247.351 368.362 248.873 368.722 250.416 368.722C251.958 368.722 253.479 368.363 254.859 367.673L303.572 343.316L303.577 343.313C305.231 342.491 306.623 341.224 307.597 339.655C308.57 338.085 309.086 336.275 309.087 334.428V276.401C309.086 274.554 308.57 272.743 307.597 271.174C306.623 269.604 305.231 268.337 303.577 267.515L303.572 267.512L254.864 243.159C254.863 243.158 254.862 243.158 254.862 243.157C253.489 242.476 251.978 242.121 250.446 242.121C248.914 242.121 247.402 242.476 246.03 243.158ZM244.026 239.129C246.021 238.137 248.218 237.621 250.446 237.621C252.674 237.621 254.872 238.137 256.867 239.129L256.872 239.131L305.579 263.485C305.58 263.486 305.581 263.486 305.582 263.486C307.985 264.681 310.007 266.522 311.421 268.802C312.836 271.083 313.586 273.714 313.587 276.398V334.43C313.586 337.114 312.836 339.745 311.421 342.026C310.007 344.307 307.984 346.148 305.581 347.343C305.58 347.343 305.58 347.343 305.579 347.343L256.872 371.697C256.872 371.697 256.872 371.697 256.872 371.697C254.868 372.7 252.657 373.222 250.416 373.222C248.174 373.222 245.964 372.7 243.959 371.697L195.247 347.341L195.241 347.338C192.839 346.128 190.824 344.271 189.422 341.976C188.021 339.684 187.288 337.046 187.305 334.36L187.305 276.398C187.306 273.714 188.057 271.083 189.471 268.802C190.885 266.522 192.907 264.681 195.31 263.486C195.311 263.486 195.312 263.485 195.313 263.485L244.021 239.131L244.026 239.129Z" fill="#EF4748"/>
<path fill-rule="evenodd" clip-rule="evenodd" d="M189.492 268.817C190.048 267.706 191.399 267.255 192.511 267.811L250.447 296.779L308.383 267.811C309.495 267.255 310.846 267.706 311.402 268.817C311.958 269.928 311.507 271.28 310.396 271.836L251.453 301.307C250.82 301.624 250.074 301.624 249.441 301.307L190.498 271.836C189.387 271.28 188.936 269.928 189.492 268.817Z" fill="#EF4748"/>
<path fill-rule="evenodd" clip-rule="evenodd" d="M250.445 297.044C251.688 297.044 252.695 298.052 252.695 299.294V370.902C252.695 372.145 251.688 373.152 250.445 373.152C249.203 373.152 248.195 372.145 248.195 370.902V299.294C248.195 298.052 249.203 297.044 250.445 297.044Z" fill="#EF4748"/>
<path fill-rule="evenodd" clip-rule="evenodd" d="M159.332 347.897V390.168C159.332 392.424 161.161 394.252 163.416 394.252H206.912V389.752H163.832V347.897H159.332ZM159.332 263.355H163.832V221.5H206.912V217H163.416C161.161 217 159.332 218.829 159.332 221.084V263.355ZM293.905 217V221.5H336.986V263.355H341.486V221.084C341.486 218.829 339.657 217 337.401 217H293.905ZM341.486 347.897H336.986V389.752H293.905V394.252H337.401C339.657 394.252 341.486 392.424 341.486 390.168V347.897Z" fill="#EF4748"/>
<path fill-rule="evenodd" clip-rule="evenodd" d="M222.637 111.688C222.637 110.109 223.917 108.829 225.496 108.829H276.139C277.718 108.829 278.998 110.109 278.998 111.688C278.998 113.267 277.718 114.547 276.139 114.547H225.496C223.917 114.547 222.637 113.267 222.637 111.688Z" fill="#231F20"/>
<path d="M151 188.5C151 187.119 152.119 186 153.5 186H197.5C198.881 186 200 187.119 200 188.5C200 189.881 198.881 191 197.5 191H153.5C152.119 191 151 189.881 151 188.5Z" fill="#2F3841"/>
<path d="M209 188.5C209 187.119 210.119 186 211.5 186H347.5C348.881 186 350 187.119 350 188.5C350 189.881 348.881 191 347.5 191H211.5C210.119 191 209 189.881 209 188.5Z" fill="#2F3841"/>
<path d="M151 177.5C151 176.119 152.119 175 153.5 175H257.5C258.881 175 260 176.119 260 177.5C260 178.881 258.881 180 257.5 180H153.5C152.119 180 151 178.881 151 177.5Z" fill="#2F3841"/>
<path d="M265 177.5C265 176.119 266.119 175 267.5 175H347.5C348.881 175 350 176.119 350 177.5C350 178.881 348.881 180 347.5 180H267.5C266.119 180 265 178.881 265 177.5Z" fill="#2F3841"/>
<path fill-rule="evenodd" clip-rule="evenodd" d="M31.5 410C31.5 408.619 32.6193 407.5 34 407.5H465.5C466.881 407.5 468 408.619 468 410C468 411.381 466.881 412.5 465.5 412.5H34C32.6193 412.5 31.5 411.381 31.5 410Z" fill="#231F20"/>
</svg>
