<?xml version="1.0" encoding="UTF-8"?>
<svg width="22px" height="22px" viewBox="0 0 19 16" version="1.1" xmlns="http://www.w3.org/2000/svg" xmlns:xlink="http://www.w3.org/1999/xlink">
    <!-- Generator: Sketch 48.2 (47327) - http://www.bohemiancoding.com/sketch -->
    <title>008-twitter</title>
    <desc>Created with Sketch.</desc>
    <defs></defs>
    <g id="Footer-2" stroke="none" stroke-width="1" fill="none" fill-rule="evenodd" transform="translate(-712.000000, -206.000000)">
        <g id="008-twitter" transform="translate(712.000000, 206.000000)" fill="#FFFFFF" fill-rule="nonzero">
            <path d="M18.6978176,1.86129618 C18.2756674,2.05080707 17.8374427,2.2003148 17.387776,2.30855314 C17.8832571,1.83189174 18.2557944,1.23568981 18.4659662,0.570220973 C18.5259557,0.380241109 18.3221303,0.215960818 18.1526772,0.317680473 C17.5271184,0.693325673 16.8532901,0.975129919 16.1498607,1.1553552 C16.1090493,1.16581324 16.0669408,1.1711126 16.0246933,1.1711126 C15.8965613,1.1711126 15.7719961,1.12294935 15.6740209,1.03553329 C14.925611,0.3677665 13.9630454,0 12.9636985,0 C12.5312643,0 12.094661,0.0682351769 11.665979,0.202829649 C10.3377783,0.619884926 9.31295331,1.72904655 8.99141869,3.09750185 C8.87079109,3.61078983 8.83813269,4.12454678 8.89427733,4.62446911 C8.90071637,4.68191797 8.87389479,4.72201493 8.85735714,4.74082064 C8.82831201,4.77378925 8.78713001,4.79268875 8.74437299,4.79268875 C8.73960162,4.79268875 8.73469128,4.79245427 8.72982727,4.7919853 C5.8224427,4.51852872 3.20069169,3.10050326 1.34750154,0.799172267 C1.25300066,0.681789004 1.07178132,0.696186392 0.996458553,0.826982206 C0.633556627,1.45727827 0.44177542,2.1781794 0.44177542,2.91174272 C0.44177542,4.0359583 0.887921508,5.09540907 1.66287509,5.86775624 C1.33698601,5.789532 1.02156614,5.6663335 0.728567075,5.50158424 C0.586815748,5.42185929 0.412406027,5.5243293 0.410414097,5.6884689 C0.390124201,7.35856589 1.35597883,8.84463894 2.80286149,9.51381264 C2.77372372,9.5145161 2.74458595,9.51484438 2.71540185,9.51484438 C2.48605191,9.51484438 2.25382988,9.4924276 2.02526745,9.4482037 C1.86563507,9.41734545 1.7315272,9.57065184 1.78109384,9.72733481 C2.25072618,11.2116727 3.51314682,12.3057804 5.0238639,12.5541939 C3.77005952,13.406266 2.30997452,13.8557272 0.790316918,13.8557272 L0.316561748,13.8554458 C0.17059494,13.8554458 0.0471415786,13.9517723 0.00994343627,14.094902 C-0.0266988185,14.2358745 0.0407951957,14.3845849 0.165267684,14.457885 C1.8776793,15.4667808 3.8309292,16 5.8147066,16 C7.55116035,16 9.17546379,15.651133 10.6425437,14.9631536 C11.9874673,14.3324355 13.1759549,13.4308401 14.1749775,12.2834105 C15.1056259,11.2145334 15.8333754,9.98062566 16.337936,8.61601592 C16.8189177,7.31523303 17.0731436,5.92726857 17.0731436,4.60214613 L17.0731436,4.53902272 C17.0730973,4.3262509 17.168154,4.12604749 17.3339938,3.98976472 C17.9633049,3.4724905 18.5113174,2.86357947 18.9627444,2.17996149 C19.0819359,1.99945482 18.8939533,1.77322356 18.6978176,1.86129618 Z" id="Shape"></path>
        </g>
    </g>
</svg>