<svg width="35" height="34" viewBox="0 0 35 34" fill="none" xmlns="http://www.w3.org/2000/svg">
<path d="M17.9043 2.125C9.68987 2.125 3.02933 8.78555 3.02933 17C3.02933 25.2145 9.68987 31.875 17.9043 31.875C26.1188 31.875 32.7793 25.2145 32.7793 17C32.7793 8.78555 26.1188 2.125 17.9043 2.125ZM25.053 13.3377C25.0629 13.4938 25.0629 13.6564 25.0629 13.8158C25.0629 18.69 21.3508 24.3047 14.5674 24.3047C12.4756 24.3047 10.5366 23.6971 8.90296 22.6512C9.20179 22.6844 9.48734 22.6977 9.7928 22.6977C11.5194 22.6977 13.1065 22.1133 14.3715 21.1238C12.7512 21.0906 11.3899 20.0281 10.925 18.5672C11.4928 18.6502 12.0041 18.6502 12.5885 18.5008C11.7542 18.3313 11.0043 17.8782 10.4662 17.2184C9.92813 16.5587 9.63504 15.733 9.63675 14.8816V14.8352C10.1248 15.1107 10.6992 15.2801 11.3002 15.3033C10.795 14.9666 10.3807 14.5105 10.094 13.9753C9.80729 13.4401 9.65708 12.8425 9.65667 12.2354C9.65667 11.548 9.83597 10.9205 10.158 10.376C11.0841 11.516 12.2396 12.4483 13.5496 13.1125C14.8596 13.7766 16.2947 14.1577 17.7616 14.2309C17.2403 11.724 19.1129 9.69531 21.3641 9.69531C22.4266 9.69531 23.3828 10.1402 24.0569 10.8574C24.8903 10.7014 25.6871 10.3893 26.3977 9.9709C26.1221 10.8242 25.5444 11.5447 24.7774 11.9996C25.5211 11.9199 26.2383 11.7141 26.9024 11.4252C26.401 12.1623 25.7735 12.8164 25.053 13.3377Z" fill="white"/>
</svg>
