<svg width="500" height="500" viewBox="0 0 500 500" fill="none" xmlns="http://www.w3.org/2000/svg">
<path fill-rule="evenodd" clip-rule="evenodd" d="M108.281 201.266C108.281 194.75 113.563 189.469 120.078 189.469H379.032C385.547 189.469 390.828 194.75 390.828 201.266V232.34C390.828 238.855 385.547 244.137 379.032 244.137H120.078C113.563 244.137 108.281 238.855 108.281 232.34V201.266ZM120.078 194.648C116.423 194.648 113.46 197.611 113.46 201.266V232.34C113.46 235.995 116.423 238.958 120.078 238.958H379.032C382.687 238.958 385.649 235.995 385.649 232.34V201.266C385.649 197.611 382.687 194.648 379.032 194.648H120.078Z" fill="#231F20"/>
<path fill-rule="evenodd" clip-rule="evenodd" d="M337.999 291.847C335.652 291.507 333.638 292.617 332.553 294.333C331.492 296.012 331.328 298.236 332.355 300.203L341.581 317.868C341.75 318.192 341.697 318.587 341.449 318.855L332.965 327.992C332.83 328.138 332.649 328.232 332.453 328.26L320.106 330.002C319.744 330.053 319.389 329.871 319.22 329.547L309.987 311.868C308.959 309.901 307.039 308.765 305.054 308.677C303.026 308.587 300.963 309.607 299.902 311.728C294.81 321.911 294.512 334.315 300.188 345.18C306.271 356.827 317.735 363.855 329.946 364.798L363.514 425.766C366.469 431.133 373.17 433.155 378.6 430.319L390.757 423.97C396.342 421.054 398.45 414.124 395.436 408.592L362.976 349.021C370.435 338.172 371.801 323.656 365.286 311.181L365.286 311.181C359.611 300.316 349.251 293.481 337.999 291.847ZM359.455 353.383C356.722 356.282 353.467 358.782 349.738 360.729C345.279 363.057 340.563 364.379 335.847 364.778L368.051 423.268C369.648 426.168 373.268 427.261 376.203 425.728L388.36 419.379C391.378 417.804 392.517 414.059 390.888 411.07L359.455 353.383ZM336.945 297.805C336.785 297.499 336.841 297.242 336.931 297.1C336.975 297.031 337.02 297 337.047 296.987C337.063 296.979 337.119 296.953 337.255 296.973C346.933 298.378 355.823 304.251 360.696 313.579C368.755 329.011 362.77 348.082 347.341 356.138L347.341 356.138C331.894 364.205 312.838 358.214 304.779 342.782L304.779 342.782C299.905 333.452 300.154 322.804 304.534 314.045C304.596 313.922 304.649 313.891 304.665 313.881C304.692 313.867 304.742 313.848 304.825 313.851C304.993 313.859 305.236 313.96 305.396 314.266L314.629 331.944C315.813 334.211 318.297 335.487 320.829 335.13L333.176 333.388C334.55 333.194 335.816 332.533 336.76 331.516L345.244 322.379C346.984 320.505 347.356 317.738 346.172 315.47L336.945 297.805Z" fill="#231F20"/>
<path fill-rule="evenodd" clip-rule="evenodd" d="M126.231 267.769C123.816 267.769 121.858 269.727 121.858 272.143V272.63C122.537 270.291 124.38 268.448 126.719 267.769H126.231ZM248.323 267.769C250.661 268.448 252.505 270.291 253.183 272.63V272.143C253.183 269.727 251.225 267.769 248.81 267.769H248.323ZM253.183 356.417C252.505 358.755 250.661 360.598 248.323 361.277H248.81C251.225 361.277 253.183 359.319 253.183 356.904V356.417ZM126.719 361.277C124.38 360.598 122.537 358.755 121.858 356.416V356.904C121.858 359.319 123.816 361.277 126.231 361.277H126.719ZM119.096 272.143C119.096 268.202 122.29 265.007 126.231 265.007H248.81C252.751 265.007 255.946 268.202 255.946 272.143V356.904C255.946 360.845 252.751 364.039 248.81 364.039H126.231C122.29 364.039 119.096 360.845 119.096 356.904V272.143ZM128.711 270.249C126.296 270.249 124.338 272.207 124.338 274.623V354.424C124.338 356.839 126.296 358.797 128.711 358.797H246.33C248.745 358.797 250.703 356.839 250.703 354.424V274.623C250.703 272.207 248.745 270.249 246.33 270.249H128.711Z" fill="#EF4748"/>
<path fill-rule="evenodd" clip-rule="evenodd" d="M114.676 260.313H128.711V274.346H114.676V260.313Z" fill="#EF4748"/>
<path fill-rule="evenodd" clip-rule="evenodd" d="M246.104 260.312H260.139V274.346H246.104V260.312Z" fill="#EF4748"/>
<path fill-rule="evenodd" clip-rule="evenodd" d="M114.676 354.402H128.711V368.435H114.676V354.402Z" fill="#EF4748"/>
<path d="M256.374 358.167H249.871V364.67H256.374V358.167Z" fill="#EF4748"/>
<path fill-rule="evenodd" clip-rule="evenodd" d="M246.104 354.403H260.139V368.436H246.104V354.403Z" fill="#EF4748"/>
<path d="M163.058 305.112V308.783L145.137 316.34L163.058 323.737V327.406L141.145 318.178V314.506L163.058 305.112Z" fill="#EF4748"/>
<path fill-rule="evenodd" clip-rule="evenodd" d="M164.367 303.128V309.651L148.534 316.328L164.367 322.862V329.375L139.838 319.046V313.644L164.367 303.128ZM142.453 315.368V316.054L161.752 307.916V307.095L142.453 315.368ZM142.453 316.647V317.31L161.752 325.437V324.612L142.453 316.647Z" fill="#EF4748"/>
<path d="M200.073 295.839L178.861 336.646H175.082L196.294 295.839H200.073Z" fill="#EF4748"/>
<path fill-rule="evenodd" clip-rule="evenodd" d="M195.499 294.531H202.225L179.654 337.954H172.928L195.499 294.531ZM197.087 297.146L177.235 335.338H178.066L197.919 297.146H197.087Z" fill="#EF4748"/>
<path d="M209.018 305.112L230.932 314.503V318.175L209.018 327.403V323.734L226.936 316.338L209.018 308.78V305.112Z" fill="#EF4748"/>
<path fill-rule="evenodd" clip-rule="evenodd" d="M207.709 303.129L232.238 313.641V319.043L207.709 329.373V322.86L223.539 316.325L207.709 309.648V303.129ZM210.324 307.095V307.913L229.623 316.052V315.366L210.324 307.095ZM229.623 316.643L210.324 324.609V325.434L229.623 317.307V316.643Z" fill="#EF4748"/>
<path fill-rule="evenodd" clip-rule="evenodd" d="M68 124.781C68 112.199 78.1994 102 90.7811 102H409.219C421.801 102 432 112.199 432 124.781V163.482V307.767V378.858C432 391.44 421.801 401.639 409.219 401.639H406.078V396.46H409.219C418.94 396.46 426.821 388.58 426.821 378.858V307.767V166.071H73.1791V378.858C73.1791 388.58 81.0598 396.46 90.7811 396.46H184.167H327.817V401.639H184.167H90.7811C78.1994 401.639 68 391.44 68 378.858V163.482V124.781ZM90.7811 107.179C81.0598 107.179 73.1791 115.06 73.1791 124.781V160.892H426.821V124.781C426.821 115.06 418.94 107.179 409.219 107.179H90.7811Z" fill="#231F20"/>
<path fill-rule="evenodd" clip-rule="evenodd" d="M100.455 141.476C103.635 141.476 106.213 138.898 106.213 135.718C106.213 132.538 103.635 129.96 100.455 129.96C97.2746 129.96 94.6967 132.538 94.6967 135.718C94.6967 138.898 97.2746 141.476 100.455 141.476ZM100.455 146.655C106.495 146.655 111.392 141.759 111.392 135.718C111.392 129.678 106.495 124.781 100.455 124.781C94.4143 124.781 89.5176 129.678 89.5176 135.718C89.5176 141.759 94.4143 146.655 100.455 146.655Z" fill="#231F20"/>
<path fill-rule="evenodd" clip-rule="evenodd" d="M133.837 141.476C137.018 141.476 139.596 138.898 139.596 135.718C139.596 132.538 137.018 129.96 133.837 129.96C130.657 129.96 128.079 132.538 128.079 135.718C128.079 138.898 130.657 141.476 133.837 141.476ZM133.837 146.655C139.878 146.655 144.775 141.759 144.775 135.718C144.775 129.678 139.878 124.781 133.837 124.781C127.797 124.781 122.9 129.678 122.9 135.718C122.9 141.759 127.797 146.655 133.837 146.655Z" fill="#231F20"/>
<path fill-rule="evenodd" clip-rule="evenodd" d="M167.22 141.476C170.4 141.476 172.978 138.898 172.978 135.718C172.978 132.538 170.4 129.96 167.22 129.96C164.04 129.96 161.462 132.538 161.462 135.718C161.462 138.898 164.04 141.476 167.22 141.476ZM167.22 146.655C173.261 146.655 178.157 141.759 178.157 135.718C178.157 129.678 173.261 124.781 167.22 124.781C161.18 124.781 156.283 129.678 156.283 135.718C156.283 141.759 161.18 146.655 167.22 146.655Z" fill="#231F20"/>
</svg>
