<svg width="500" height="500" viewBox="0 0 500 500" fill="none" xmlns="http://www.w3.org/2000/svg">
<path fill-rule="evenodd" clip-rule="evenodd" d="M87.7266 124.191C87.7266 112.856 96.9155 103.667 108.251 103.667H395.14C406.475 103.667 415.664 112.856 415.664 124.191V289.048H410.998V161.39H92.3925V353.096C92.3925 361.854 99.4925 368.954 108.251 368.954H192.385V373.62H108.251C96.9155 373.62 87.7266 364.431 87.7266 353.096V124.191ZM92.3925 156.724H410.998V124.191C410.998 115.433 403.898 108.333 395.14 108.333H108.251C99.4925 108.333 92.3925 115.433 92.3925 124.191V156.724Z" fill="#231F20"/>
<path fill-rule="evenodd" clip-rule="evenodd" d="M49.5097 153.87H8.57964C6.97046 153.87 5.66597 155.174 5.66597 156.783V184.828C5.66597 186.437 6.97046 187.742 8.57963 187.742H49.5097C51.1189 187.742 52.4234 186.437 52.4234 184.828V156.783C52.4234 155.174 51.1189 153.87 49.5097 153.87ZM8.57964 149.204C4.39352 149.204 1 152.597 1 156.783V184.828C1 189.014 4.39351 192.408 8.57963 192.408H49.5097C53.6958 192.408 57.0893 189.014 57.0893 184.828V156.783C57.0893 152.597 53.6958 149.204 49.5097 149.204H8.57964Z" fill="#231F20"/>
<path fill-rule="evenodd" clip-rule="evenodd" d="M80.9445 213.105C58.7757 211.362 38.5033 201.632 26.5605 193.175L29.257 189.367C40.6847 197.459 60.1676 206.791 81.3101 208.453C102.336 210.106 124.971 204.19 143.206 181.837L146.822 184.787C127.462 208.519 103.23 214.856 80.9445 213.105Z" fill="#231F20"/>
<path fill-rule="evenodd" clip-rule="evenodd" d="M451.231 162.965H492.161C493.77 162.965 495.074 164.27 495.074 165.879V193.924C495.074 195.533 493.77 196.837 492.161 196.837H451.231C449.621 196.837 448.317 195.533 448.317 193.924V165.879C448.317 164.27 449.621 162.965 451.231 162.965ZM492.161 158.299C496.347 158.299 499.74 161.693 499.74 165.879V193.924C499.74 198.11 496.347 201.503 492.161 201.503H451.231C447.044 201.503 443.651 198.11 443.651 193.924V165.879C443.651 161.693 447.044 158.299 451.231 158.299H492.161Z" fill="#231F20"/>
<path fill-rule="evenodd" clip-rule="evenodd" d="M419.796 222.2C441.965 220.458 462.237 210.727 474.18 202.27L471.483 198.462C460.055 206.555 440.573 215.887 419.43 217.549C398.404 219.202 375.769 213.286 357.534 190.933L353.918 193.883C373.278 217.614 397.51 223.952 419.796 222.2Z" fill="#231F20"/>
<path fill-rule="evenodd" clip-rule="evenodd" d="M65.4257 398.21H24.4957C22.8865 398.21 21.582 396.905 21.582 395.296V371.159C21.582 369.55 22.8865 368.245 24.4956 368.245H65.4257C67.0349 368.245 68.3394 369.55 68.3394 371.159V395.296C68.3394 396.905 67.0349 398.21 65.4257 398.21ZM24.4957 402.876C20.3095 402.876 16.916 399.482 16.916 395.296V371.159C16.916 366.973 20.3095 363.579 24.4956 363.579H65.4257C69.6118 363.579 73.0053 366.973 73.0053 371.159V395.296C73.0053 399.482 69.6118 402.876 65.4257 402.876H24.4957Z" fill="#231F20"/>
<path fill-rule="evenodd" clip-rule="evenodd" d="M49.7229 345.29C44.5921 352.004 41.4922 358.851 41.4922 364.613H46.1582C46.1582 360.349 48.5535 354.504 53.4302 348.123C58.2529 341.813 65.3054 335.242 74.1292 329.55C91.7719 318.171 116.295 310.434 143.862 315.145L144.648 310.546C115.747 305.606 90.0555 313.726 71.6001 325.629C62.3749 331.579 54.9077 338.506 49.7229 345.29Z" fill="#231F20"/>
<path fill-rule="evenodd" clip-rule="evenodd" d="M116.967 139.232C119.832 139.232 122.154 136.91 122.154 134.045C122.154 131.18 119.832 128.857 116.967 128.857C114.102 128.857 111.779 131.18 111.779 134.045C111.779 136.91 114.102 139.232 116.967 139.232ZM116.967 143.898C122.409 143.898 126.82 139.487 126.82 134.045C126.82 128.603 122.409 124.191 116.967 124.191C111.525 124.191 107.113 128.603 107.113 134.045C107.113 139.487 111.525 143.898 116.967 143.898Z" fill="#231F20"/>
<path fill-rule="evenodd" clip-rule="evenodd" d="M144.254 139.232C147.119 139.232 149.441 136.91 149.441 134.045C149.441 131.18 147.119 128.857 144.254 128.857C141.389 128.857 139.066 131.18 139.066 134.045C139.066 136.91 141.389 139.232 144.254 139.232ZM144.254 143.898C149.696 143.898 154.107 139.487 154.107 134.045C154.107 128.603 149.696 124.191 144.254 124.191C138.812 124.191 134.4 128.603 134.4 134.045C134.4 139.487 138.812 143.898 144.254 143.898Z" fill="#231F20"/>
<path fill-rule="evenodd" clip-rule="evenodd" d="M171.541 139.232C174.406 139.232 176.729 136.91 176.729 134.045C176.729 131.18 174.406 128.857 171.541 128.857C168.676 128.857 166.353 131.18 166.353 134.045C166.353 136.91 168.676 139.232 171.541 139.232ZM171.541 143.898C176.983 143.898 181.395 139.487 181.395 134.045C181.395 128.603 176.983 124.191 171.541 124.191C166.099 124.191 161.688 128.603 161.688 134.045C161.688 139.487 166.099 143.898 171.541 143.898Z" fill="#231F20"/>
<path d="M365.007 328.445C363.141 336.151 360.281 343.088 356.144 349.821C355.434 350.977 355.677 352.559 356.61 353.512C359.247 356.149 361.903 358.786 364.52 361.422C364.662 361.564 364.804 361.726 364.946 361.868C365.25 362.173 365.716 363.024 365.858 363.491C365.919 363.673 365.96 363.856 366 364.038C366.223 364.87 366 363.694 366.041 364.201C366.081 364.627 366.081 365.032 366.061 365.458C366.021 366.067 366.041 365.6 366.061 365.478C366 365.762 365.94 366.026 365.858 366.29C365.798 366.472 365.737 366.655 365.676 366.817C365.899 366.269 365.534 367.06 365.493 367.121C365.392 367.284 365.29 367.446 365.189 367.608C364.743 368.298 365.534 367.324 364.925 367.912C364.844 367.993 364.783 368.074 364.702 368.135C364.601 368.237 364.52 368.318 364.418 368.419C363.932 368.906 363.445 369.393 362.978 369.859C359.652 373.185 356.306 376.532 352.98 379.858C352.087 380.75 351.215 381.663 350.303 382.535C350.221 382.616 350.12 382.697 350.059 382.758C349.43 383.387 350.282 382.637 349.877 382.921C349.674 383.062 349.471 383.184 349.268 383.306C349.106 383.407 348.923 383.488 348.761 383.57C349.207 383.346 348.802 383.549 348.7 383.59C348.437 383.671 348.153 383.732 347.889 383.813C347.281 383.995 348.274 383.853 347.585 383.874C347.22 383.894 346.834 383.894 346.469 383.874C345.658 383.853 346.956 384.056 346.165 383.813C345.983 383.752 345.8 383.732 345.617 383.671C345.435 383.61 345.252 383.549 345.09 383.488C345.678 383.711 344.847 383.346 344.786 383.306C344.624 383.204 344.461 383.103 344.299 383.002C343.65 382.576 344.543 383.306 343.995 382.738C341.237 379.939 338.418 377.181 335.639 374.402C334.706 373.469 333.104 373.226 331.948 373.936C325.255 378.114 318.319 380.973 310.612 382.839C309.314 383.144 308.381 384.462 308.381 385.78C308.381 389.532 308.401 393.305 308.381 397.057C308.381 397.32 308.381 397.564 308.36 397.827C308.34 398.598 308.523 397.584 308.34 397.969C308.259 398.152 308.239 398.416 308.178 398.618C308.137 398.781 308.077 398.963 308.016 399.125C308.218 398.517 307.955 399.227 307.894 399.369C307.793 399.572 307.671 399.734 307.549 399.937C307.468 400.079 307.083 400.505 307.488 400.058C307.204 400.383 306.9 400.687 306.576 400.971C307.022 400.586 306.312 401.133 306.129 401.255C305.906 401.397 305.663 401.519 305.44 401.62C305.927 401.397 305.359 401.62 305.176 401.681C305.014 401.721 304.831 401.762 304.649 401.823C303.878 402.046 304.994 401.843 304.507 401.863C304.264 401.863 304.04 401.884 303.797 401.904C303.675 401.904 303.533 401.904 303.412 401.904C302.763 401.904 302.114 401.904 301.465 401.904C296.699 401.904 291.953 401.904 287.187 401.904C285.929 401.904 284.651 401.924 283.394 401.904C283.211 401.904 283.009 401.884 282.826 401.884C282.076 401.863 283.069 402.046 282.684 401.863C282.502 401.782 282.238 401.762 282.035 401.701C281.873 401.661 281.69 401.6 281.528 401.539C282.157 401.762 281.386 401.458 281.285 401.417C281.122 401.336 280.98 401.255 280.839 401.154C280.757 401.093 280.129 400.586 280.615 401.012C280.291 400.728 279.987 400.423 279.703 400.099C280.108 400.545 279.459 399.714 279.358 399.531C279.257 399.348 279.155 399.146 279.054 398.943C279.297 399.47 279.094 399.044 279.074 398.923C279.013 398.699 278.952 398.497 278.891 398.274C278.851 398.152 278.831 398.01 278.81 397.868C278.851 398.233 278.851 398.233 278.81 397.868C278.709 393.852 278.79 389.836 278.79 385.8C278.79 384.502 277.857 383.184 276.559 382.86C268.852 380.994 261.916 378.134 255.182 373.997C254.026 373.287 252.444 373.53 251.491 374.463C248.855 377.1 246.218 379.757 243.581 382.373C243.44 382.515 243.277 382.657 243.135 382.799C242.831 383.103 241.979 383.57 241.513 383.711C241.33 383.772 241.148 383.813 240.965 383.853C240.134 384.077 241.31 383.853 240.803 383.894C240.377 383.935 239.971 383.935 239.545 383.914C238.937 383.874 239.403 383.894 239.525 383.914C239.241 383.853 238.978 383.793 238.714 383.711C238.531 383.651 238.349 383.59 238.187 383.529C238.734 383.752 237.943 383.387 237.882 383.346C237.72 383.245 237.558 383.144 237.396 383.042C236.706 382.596 237.68 383.387 237.091 382.779C237.01 382.697 236.929 382.637 236.868 382.555C236.767 382.454 236.686 382.373 236.584 382.272C236.098 381.785 235.611 381.298 235.144 380.832C231.818 377.505 228.472 374.159 225.146 370.833C224.253 369.94 223.341 369.068 222.468 368.156C222.387 368.074 222.306 367.973 222.245 367.912C221.617 367.283 222.367 368.135 222.083 367.73C221.941 367.527 221.819 367.324 221.698 367.121C221.596 366.959 221.515 366.776 221.434 366.614C221.657 367.06 221.454 366.655 221.414 366.553C221.333 366.29 221.272 366.006 221.191 365.742C221.008 365.134 221.15 366.127 221.13 365.438C221.11 365.073 221.11 364.687 221.13 364.322C221.15 363.511 220.947 364.809 221.191 364.018C221.252 363.836 221.272 363.653 221.333 363.471C221.394 363.288 221.454 363.106 221.515 362.943C221.292 363.531 221.657 362.7 221.698 362.639C221.799 362.477 221.901 362.315 222.002 362.152C222.428 361.503 221.698 362.396 222.266 361.848C225.065 359.09 227.823 356.271 230.601 353.492C231.534 352.559 231.778 350.957 231.068 349.801C226.87 343.088 224.01 336.151 222.144 328.445C221.84 327.147 220.521 326.214 219.203 326.214C215.451 326.214 211.679 326.234 207.927 326.214C207.663 326.214 207.42 326.214 207.156 326.193C206.385 326.173 207.399 326.356 207.014 326.173C206.831 326.092 206.568 326.072 206.365 326.011C206.203 325.97 206.02 325.909 205.858 325.848C206.466 326.051 205.757 325.788 205.615 325.727C205.412 325.625 205.25 325.504 205.047 325.382C204.905 325.301 204.479 324.916 204.925 325.321C204.601 325.037 204.296 324.733 204.012 324.409C204.398 324.855 203.85 324.145 203.728 323.962C203.586 323.739 203.465 323.496 203.363 323.273C203.586 323.76 203.363 323.192 203.303 323.009C203.262 322.847 203.221 322.664 203.161 322.482C202.937 321.711 203.14 322.827 203.12 322.34C203.12 322.096 203.1 321.873 203.079 321.63C203.079 321.508 203.079 321.366 203.079 321.245C203.079 320.596 203.079 319.947 203.079 319.298C203.079 314.531 203.079 309.786 203.079 305.019C203.079 303.762 203.059 302.484 203.079 301.227C203.079 301.044 203.1 300.841 203.1 300.659C203.12 299.909 202.937 300.902 203.12 300.517C203.201 300.334 203.221 300.071 203.282 299.868C203.323 299.706 203.384 299.523 203.444 299.361C203.221 299.99 203.526 299.219 203.566 299.118C203.647 298.955 203.728 298.813 203.83 298.671C203.891 298.59 204.398 297.961 203.972 298.448C204.256 298.124 204.56 297.82 204.884 297.536C204.438 297.941 205.27 297.292 205.452 297.191C205.635 297.089 205.838 296.988 206.041 296.887C205.513 297.13 205.939 296.927 206.061 296.907C206.284 296.846 206.487 296.785 206.71 296.724C206.831 296.684 206.973 296.663 207.115 296.643C206.75 296.684 206.75 296.684 207.115 296.643C211.131 296.542 215.147 296.623 219.183 296.623C220.481 296.623 221.799 295.69 222.124 294.392C223.99 286.685 226.849 279.749 230.987 273.015C231.697 271.859 231.453 270.277 230.52 269.324C227.884 266.687 225.227 264.051 222.61 261.414C222.468 261.272 222.327 261.11 222.185 260.968C221.88 260.664 221.414 259.812 221.272 259.346C221.211 259.163 221.17 258.981 221.13 258.798C220.907 257.966 221.13 259.143 221.089 258.636C221.049 258.21 221.049 257.804 221.069 257.378C221.11 256.77 221.089 257.236 221.069 257.358C221.13 257.074 221.191 256.81 221.272 256.547C221.333 256.364 221.394 256.182 221.454 256.019C221.231 256.567 221.596 255.776 221.637 255.715C221.738 255.553 221.84 255.391 221.941 255.228C222.387 254.539 221.596 255.512 222.205 254.924C222.286 254.843 222.347 254.762 222.428 254.701C222.529 254.6 222.61 254.519 222.712 254.417C223.199 253.93 223.685 253.444 224.152 252.977C227.478 249.651 230.824 246.305 234.151 242.978C235.043 242.086 235.915 241.173 236.828 240.301C236.909 240.22 237.01 240.139 237.071 240.078C237.7 239.449 236.848 240.2 237.254 239.916C237.456 239.774 237.659 239.652 237.862 239.531C238.024 239.429 238.207 239.348 238.369 239.267C237.923 239.49 238.329 239.287 238.43 239.247C238.694 239.166 238.978 239.105 239.241 239.024C239.85 238.841 238.856 238.983 239.545 238.963C239.911 238.942 240.296 238.942 240.661 238.963C241.472 238.983 240.174 238.78 240.965 239.024C241.148 239.084 241.33 239.105 241.513 239.166C241.695 239.226 241.878 239.287 242.04 239.348C241.452 239.125 242.283 239.49 242.344 239.531C242.507 239.632 242.669 239.733 242.831 239.835C243.48 240.261 242.588 239.531 243.135 240.098C245.894 242.897 248.713 245.656 251.491 248.434C252.424 249.367 254.026 249.611 255.182 248.901C261.896 244.702 268.832 241.843 276.539 239.977C277.837 239.673 278.77 238.354 278.77 237.036C278.77 233.284 278.75 229.512 278.77 225.76C278.77 225.496 278.77 225.252 278.79 224.989C278.81 224.218 278.628 225.232 278.81 224.847C278.891 224.664 278.912 224.401 278.973 224.198C279.013 224.036 279.074 223.853 279.135 223.691C278.932 224.299 279.196 223.589 279.257 223.447C279.358 223.245 279.48 223.082 279.601 222.88C279.682 222.738 280.068 222.312 279.662 222.758C279.946 222.433 280.25 222.129 280.575 221.845C280.129 222.231 280.839 221.683 281.021 221.561C281.244 221.419 281.488 221.298 281.711 221.196C281.224 221.419 281.792 221.196 281.974 221.135C282.137 221.095 282.319 221.054 282.502 220.993C283.272 220.77 282.157 220.973 282.644 220.953C282.887 220.953 283.11 220.933 283.353 220.912C283.475 220.912 283.617 220.912 283.739 220.912C284.388 220.912 285.037 220.912 285.686 220.912C290.452 220.912 295.198 220.912 299.964 220.912C301.221 220.912 302.499 220.892 303.757 220.912C303.939 220.912 304.142 220.933 304.324 220.933C305.075 220.953 304.081 220.77 304.466 220.953C304.649 221.034 304.913 221.054 305.115 221.115C305.278 221.156 305.46 221.216 305.622 221.277C304.994 221.054 305.764 221.358 305.866 221.399C306.028 221.48 306.17 221.561 306.312 221.663C306.393 221.724 307.022 222.231 306.535 221.805C306.86 222.089 307.164 222.393 307.448 222.717C307.042 222.271 307.691 223.103 307.793 223.285C307.894 223.468 307.995 223.671 308.097 223.873C307.853 223.346 308.056 223.772 308.077 223.894C308.137 224.117 308.198 224.32 308.259 224.543C308.3 224.664 308.32 224.806 308.34 224.948C308.3 224.583 308.3 224.583 308.34 224.948C308.442 228.964 308.36 232.98 308.36 237.016C308.36 238.314 309.293 239.632 310.591 239.957C318.298 241.822 325.235 244.682 331.968 248.82C333.124 249.529 334.706 249.286 335.659 248.353C338.296 245.716 340.932 243.06 343.569 240.443C343.711 240.301 343.873 240.159 344.015 240.017C344.319 239.713 345.171 239.247 345.638 239.105C345.82 239.044 346.003 239.003 346.185 238.963C347.017 238.74 345.841 238.963 346.348 238.922C346.774 238.882 347.179 238.882 347.605 238.902C348.214 238.942 347.747 238.922 347.625 238.902C347.909 238.963 348.173 239.024 348.437 239.105C348.619 239.166 348.802 239.226 348.964 239.287C348.416 239.064 349.207 239.429 349.268 239.47C349.43 239.571 349.593 239.673 349.755 239.774C350.444 240.22 349.471 239.429 350.059 240.038C350.14 240.119 350.221 240.18 350.282 240.261C350.384 240.362 350.465 240.443 350.566 240.545C351.053 241.031 351.54 241.518 352.006 241.985C355.332 245.311 358.679 248.657 362.005 251.983C362.897 252.876 363.81 253.748 364.682 254.661C364.763 254.742 364.844 254.843 364.905 254.904C365.534 255.533 364.783 254.681 365.067 255.086C365.209 255.289 365.331 255.492 365.453 255.695C365.554 255.857 365.635 256.04 365.716 256.202C365.493 255.756 365.696 256.161 365.737 256.263C365.818 256.526 365.879 256.81 365.96 257.074C366.142 257.683 366 256.689 366.021 257.378C366.041 257.743 366.041 258.129 366.021 258.494C366 259.305 366.203 258.007 365.96 258.798C365.899 258.981 365.879 259.163 365.818 259.346C365.757 259.528 365.696 259.711 365.635 259.873C365.858 259.285 365.493 260.116 365.453 260.177C365.351 260.339 365.25 260.502 365.149 260.664C364.723 261.313 365.453 260.421 364.885 260.968C362.086 263.726 359.328 266.546 356.549 269.324C355.616 270.257 355.373 271.859 356.083 273.015C360.281 279.728 363.141 286.665 365.007 294.372C365.311 295.67 366.629 296.603 367.947 296.603C371.699 296.603 375.472 296.582 379.224 296.603C379.488 296.603 379.731 296.603 379.995 296.623C380.765 296.643 379.751 296.461 380.137 296.643C380.319 296.724 380.583 296.745 380.786 296.805C380.948 296.846 381.13 296.907 381.293 296.968C380.684 296.765 381.394 297.029 381.536 297.089C381.739 297.191 381.901 297.312 382.104 297.434C382.246 297.515 382.672 297.901 382.226 297.495C382.55 297.779 382.854 298.083 383.138 298.408C382.753 297.961 383.3 298.671 383.422 298.854C383.564 299.077 383.686 299.32 383.787 299.543C383.564 299.057 383.787 299.625 383.848 299.807C383.889 299.969 383.929 300.152 383.99 300.334C384.213 301.105 384.01 299.99 384.031 300.476C384.031 300.72 384.051 300.943 384.071 301.186C384.071 301.308 384.071 301.45 384.071 301.572C384.071 302.221 384.071 302.87 384.071 303.519C384.071 308.285 384.071 313.031 384.071 317.797C384.071 319.054 384.091 320.332 384.071 321.589C384.071 321.772 384.051 321.975 384.051 322.157C384.031 322.908 384.213 321.914 384.031 322.299C383.949 322.482 383.929 322.745 383.868 322.948C383.828 323.111 383.767 323.293 383.706 323.455C383.929 322.827 383.625 323.597 383.584 323.699C383.503 323.861 383.422 324.003 383.321 324.145C383.26 324.226 382.753 324.855 383.179 324.368C382.895 324.692 382.591 324.997 382.266 325.281C382.712 324.875 381.881 325.524 381.698 325.625C381.516 325.727 381.313 325.828 381.11 325.93C381.637 325.686 381.211 325.889 381.09 325.909C380.867 325.97 380.664 326.031 380.441 326.092C380.319 326.132 380.177 326.153 380.035 326.173C380.4 326.132 380.4 326.132 380.035 326.173C376.019 326.274 372.004 326.193 367.968 326.193C366.386 326.193 364.844 327.593 364.925 329.236C365.007 330.878 366.264 332.278 367.968 332.278C371.781 332.278 375.614 332.339 379.427 332.278C383.929 332.217 387.823 329.499 389.466 325.321C390.176 323.496 390.156 321.589 390.156 319.663C390.156 314.633 390.156 309.623 390.156 304.594C390.156 303.275 390.237 301.937 390.135 300.618C389.811 296.014 386.627 291.897 382.063 290.822C379.65 290.255 376.993 290.498 374.539 290.498C372.348 290.498 370.178 290.498 367.988 290.498C368.961 291.248 369.935 291.978 370.929 292.729C368.982 284.697 365.777 276.95 361.457 269.892C361.295 271.129 361.133 272.346 360.991 273.583C363.688 270.886 366.426 268.229 369.083 265.491C372.247 262.226 373.099 257.5 371.233 253.363C370.422 251.558 369.022 250.26 367.663 248.88C364.155 245.372 360.666 241.883 357.158 238.375C356.265 237.482 355.393 236.549 354.46 235.697C350.952 232.452 345.374 231.763 341.338 234.501C339.31 235.86 337.647 237.847 335.943 239.551C334.442 241.052 332.942 242.553 331.441 244.053C332.678 243.891 333.895 243.729 335.132 243.587C328.074 239.267 320.326 236.062 312.295 234.115C313.045 235.089 313.776 236.062 314.526 237.056C314.526 233.243 314.587 229.41 314.526 225.597C314.465 221.095 311.747 217.201 307.569 215.558C305.744 214.848 303.838 214.868 301.911 214.868C296.881 214.868 291.872 214.868 286.842 214.868C285.524 214.868 284.185 214.787 282.867 214.889C278.263 215.213 274.146 218.397 273.071 222.961C272.503 225.374 272.746 228.031 272.746 230.485C272.746 232.675 272.746 234.846 272.746 237.036C273.497 236.062 274.227 235.089 274.977 234.095C266.946 236.042 259.198 239.247 252.14 243.567C253.377 243.729 254.594 243.891 255.831 244.033C253.134 241.336 250.477 238.598 247.739 235.941C244.474 232.777 239.748 231.925 235.611 233.791C233.806 234.602 232.508 236.002 231.129 237.361C227.62 240.869 224.132 244.358 220.623 247.866C219.73 248.759 218.798 249.631 217.946 250.564C214.701 254.072 214.011 259.65 216.749 263.686C218.108 265.714 220.096 267.377 221.799 269.081C223.3 270.582 224.801 272.082 226.302 273.583C226.139 272.346 225.977 271.129 225.835 269.892C221.515 276.95 218.311 284.697 216.364 292.729C217.337 291.978 218.311 291.248 219.305 290.498C215.492 290.498 211.658 290.437 207.846 290.498C203.343 290.559 199.449 293.276 197.806 297.454C197.096 299.28 197.117 301.186 197.117 303.113C197.117 308.143 197.117 313.152 197.117 318.182C197.117 319.5 197.036 320.839 197.137 322.157C197.461 326.761 200.646 330.878 205.209 331.953C207.622 332.521 210.279 332.278 212.733 332.278C214.924 332.278 217.094 332.278 219.284 332.278C218.311 331.527 217.337 330.797 216.343 330.047C218.29 338.078 221.495 345.826 225.815 352.884C225.977 351.647 226.139 350.43 226.281 349.192C223.584 351.89 220.846 354.547 218.189 357.285C215.025 360.55 214.173 365.276 216.039 369.413C216.851 371.218 218.25 372.516 219.609 373.895C223.117 377.404 226.606 380.892 230.115 384.401C231.007 385.293 231.879 386.226 232.812 387.078C236.321 390.323 241.898 391.013 245.934 388.275C247.962 386.916 249.625 384.928 251.329 383.225C252.83 381.724 254.331 380.223 255.831 378.722C254.594 378.885 253.377 379.047 252.14 379.189C259.198 383.509 266.946 386.713 274.977 388.66C274.227 387.687 273.497 386.713 272.746 385.719C272.746 389.532 272.685 393.365 272.746 397.178C272.807 401.681 275.525 405.575 279.703 407.218C281.528 407.928 283.435 407.907 285.361 407.907C290.391 407.907 295.401 407.907 300.43 407.907C301.749 407.907 303.087 407.988 304.406 407.887C309.009 407.562 313.127 404.378 314.202 399.815C314.769 397.401 314.526 394.745 314.526 392.291C314.526 390.1 314.526 387.93 314.526 385.74C313.776 386.713 313.045 387.687 312.295 388.68C320.326 386.733 328.074 383.529 335.132 379.209C333.895 379.047 332.678 378.884 331.441 378.743C334.138 381.44 336.795 384.178 339.533 386.835C342.798 389.999 347.524 390.851 351.661 388.985C353.466 388.173 354.764 386.774 356.144 385.415C359.652 381.906 363.141 378.418 366.649 374.909C367.542 374.017 368.475 373.145 369.327 372.212C372.572 368.703 373.261 363.126 370.523 359.09C369.164 357.062 367.177 355.399 365.473 353.695C363.972 352.194 362.471 350.693 360.971 349.192C361.133 350.43 361.295 351.647 361.437 352.884C365.757 345.826 368.961 338.078 370.908 330.047C371.274 328.505 370.422 326.68 368.779 326.295C367.177 325.97 365.412 326.802 365.007 328.445Z" fill="#EF4748"/>
<path d="M326.43 311.408C326.43 312.361 326.389 313.294 326.329 314.247C326.288 314.673 326.247 315.079 326.207 315.505C326.187 315.667 326.106 316.276 326.187 315.667C326.146 315.951 326.106 316.215 326.065 316.499C325.761 318.304 325.335 320.089 324.767 321.812C324.524 322.583 324.219 323.334 323.935 324.104C323.611 324.915 324.098 323.759 323.875 324.246C323.793 324.449 323.692 324.652 323.591 324.855C323.388 325.301 323.165 325.747 322.942 326.173C322.151 327.714 321.258 329.195 320.244 330.615C319.981 330.98 319.717 331.324 319.453 331.69C319.818 331.203 319.129 332.075 319.027 332.217C318.439 332.927 317.81 333.616 317.161 334.286C316.614 334.853 316.026 335.401 315.437 335.949C315.113 336.253 314.768 336.537 314.444 336.821C314.302 336.942 314.18 337.044 314.038 337.165C313.896 337.287 313.754 337.389 313.632 337.49C313.856 337.307 313.896 337.287 313.714 337.429C312.334 338.484 310.874 339.417 309.373 340.269C308.582 340.694 307.791 341.1 306.98 341.465C306.818 341.546 306.656 341.607 306.493 341.688C305.702 342.053 306.838 341.546 306.351 341.749C305.885 341.932 305.439 342.114 304.972 342.276C303.269 342.885 301.504 343.392 299.719 343.737C299.354 343.818 298.989 343.879 298.624 343.94C298.361 343.98 298.077 344.021 297.793 344.061C297.914 344.041 298.381 344 297.772 344.061C296.839 344.163 295.906 344.244 294.973 344.284C293.087 344.365 291.201 344.264 289.315 344.061C288.423 343.96 289.7 344.122 289.153 344.041C288.93 344 288.686 343.98 288.463 343.94C288.058 343.879 287.652 343.798 287.246 343.716C286.313 343.534 285.38 343.311 284.447 343.047C283.656 342.824 282.886 342.581 282.115 342.297C281.689 342.134 281.284 341.972 280.858 341.81C280.31 341.587 280.736 341.749 280.837 341.81C280.553 341.688 280.269 341.567 279.986 341.425C278.404 340.694 276.882 339.843 275.442 338.889C274.692 338.403 273.982 337.896 273.272 337.348C273.739 337.713 273.009 337.125 272.846 337.003C272.441 336.658 272.035 336.314 271.65 335.969C270.372 334.813 269.175 333.576 268.08 332.237C267.979 332.095 267.269 331.223 267.654 331.71C267.391 331.365 267.127 331 266.863 330.635C266.356 329.905 265.87 329.175 265.403 328.404C264.937 327.633 264.511 326.863 264.105 326.072C263.923 325.706 263.74 325.341 263.578 324.976C263.476 324.774 263.395 324.571 263.294 324.368C262.929 323.557 263.497 324.936 263.172 324.104C262.503 322.421 261.935 320.697 261.529 318.932C261.347 318.121 261.185 317.31 261.043 316.499C261.002 316.276 260.962 316.032 260.941 315.809C260.86 315.282 261.022 316.539 260.921 315.647C260.86 315.14 260.82 314.633 260.779 314.105C260.637 312.26 260.637 310.414 260.799 308.589C260.84 308.122 260.88 307.656 260.941 307.19C261.002 306.581 260.962 307.048 260.941 307.169C260.982 306.946 261.002 306.703 261.043 306.48C261.205 305.526 261.387 304.573 261.611 303.64C262.036 301.916 262.584 300.253 263.253 298.61C263.456 298.124 262.949 299.259 263.314 298.468C263.395 298.306 263.456 298.144 263.537 297.982C263.72 297.576 263.923 297.17 264.125 296.765C264.531 295.974 264.957 295.183 265.423 294.432C265.89 293.682 266.377 292.932 266.884 292.202C267.107 291.877 267.35 291.553 267.594 291.228C267.898 290.822 267.147 291.776 267.695 291.106C267.857 290.904 268.019 290.701 268.202 290.498C269.338 289.139 270.575 287.882 271.893 286.705C272.197 286.442 272.502 286.178 272.806 285.935C272.948 285.833 273.8 285.123 273.333 285.509C274.043 284.961 274.753 284.454 275.503 283.967C276.984 282.994 278.566 282.122 280.168 281.392C280.371 281.29 280.574 281.209 280.776 281.108C281.263 280.905 280.107 281.371 280.918 281.047C281.304 280.905 281.669 280.742 282.054 280.601C282.947 280.276 283.859 279.992 284.772 279.728C285.563 279.505 286.354 279.323 287.165 279.161C287.611 279.059 288.078 278.978 288.524 278.917C288.707 278.897 288.889 278.856 289.072 278.836C289.437 278.775 289.437 278.775 289.092 278.836C289.234 278.816 289.376 278.795 289.498 278.795C291.323 278.593 293.168 278.512 295.014 278.593C295.947 278.633 296.88 278.714 297.813 278.816C297.935 278.836 298.421 278.897 297.833 278.816C298.056 278.856 298.3 278.877 298.523 278.917C299.03 278.998 299.517 279.079 300.024 279.181C301.808 279.546 303.553 280.053 305.256 280.682C305.601 280.803 305.925 280.945 306.27 281.067C307.102 281.392 305.723 280.803 306.534 281.189C306.696 281.27 306.858 281.331 307.021 281.412C307.832 281.777 308.623 282.182 309.414 282.608C310.976 283.46 312.456 284.434 313.856 285.529C313.389 285.164 313.856 285.529 313.977 285.63C314.139 285.772 314.322 285.914 314.484 286.056C314.788 286.32 315.093 286.563 315.377 286.847C316.066 287.476 316.735 288.105 317.384 288.774C317.932 289.342 318.459 289.95 318.966 290.559C319.108 290.721 319.25 290.904 319.392 291.066C319.494 291.187 319.859 291.654 319.494 291.187C319.798 291.573 320.082 291.958 320.366 292.364C321.36 293.783 322.252 295.264 323.043 296.826C323.246 297.231 323.428 297.637 323.631 298.043C323.712 298.205 323.773 298.367 323.854 298.529C324.219 299.341 323.651 297.961 323.976 298.793C324.3 299.625 324.625 300.476 324.889 301.328C325.436 303.032 325.842 304.756 326.126 306.52C326.166 306.743 326.207 306.987 326.227 307.21C326.146 306.622 326.207 307.108 326.227 307.23C326.268 307.697 326.329 308.163 326.369 308.629C326.389 309.522 326.43 310.455 326.43 311.408C326.43 312.99 327.829 314.531 329.472 314.45C331.115 314.369 332.514 313.112 332.514 311.408C332.474 303.417 330.04 295.426 325.355 288.936C320.711 282.466 314.322 277.579 306.838 274.8C291.749 269.202 273.942 274.009 263.699 286.421C258.487 292.729 255.364 300.395 254.715 308.569C254.106 316.499 256.053 324.632 260.15 331.446C264.166 338.098 270.21 343.595 277.308 346.799C284.894 350.206 293.29 351.18 301.464 349.537C316.959 346.434 329.574 333.332 331.967 317.675C332.291 315.586 332.474 313.497 332.494 311.408C332.494 309.826 331.095 308.285 329.452 308.366C327.809 308.447 326.43 309.704 326.43 311.408Z" fill="#EF4748"/>
</svg>
