<svg xmlns="http://www.w3.org/2000/svg" width="247" height="72" viewBox="0 0 247 72" fill="none">
  <path d="M238.556 0V71.2002H218.762V0H238.556Z" fill="url(#paint0_linear_7211_2427)"/>
  <path d="M166.25 0V41.3062C166.25 45.144 167.126 48.1064 168.876 50.1936C170.694 52.2808 173.421 53.3244 177.057 53.3244C180.692 53.3244 183.419 52.2808 185.237 50.1936C187.122 48.0391 188.065 45.0766 188.065 41.3062V0H207.86V41.3062C207.86 47.8371 206.479 53.4254 203.719 58.0711C200.958 62.6494 197.188 66.1169 192.408 68.4734C187.695 70.7626 182.443 71.9072 176.653 71.9072C170.862 71.9072 165.678 70.7626 161.1 68.4734C156.589 66.1169 153.02 62.6494 150.394 58.0711C147.836 53.4927 146.557 47.9044 146.557 41.3062V0H166.25Z" fill="url(#paint1_linear_7211_2427)"/>
  <path d="M116.74 71.2002L102.903 51.1026L91.0872 71.2002H68.5658L91.6932 34.7417L67.7578 0H91.0872L104.519 19.5927L116.033 0H138.554L115.73 35.8526L140.069 71.2002H116.74Z" fill="url(#paint2_linear_7211_2427)"/>
  <path d="M19.6937 0V41.3062C19.6937 45.144 20.5689 48.1064 22.3195 50.1936C24.1374 52.2808 26.8642 53.3244 30.4999 53.3244C34.1357 53.3244 36.8625 52.2808 38.6804 50.1936C40.5656 48.0391 41.5082 45.0766 41.5082 41.3062V0H61.3029V41.3062C61.3029 47.8371 59.9226 53.4254 57.1621 58.0711C54.4017 62.6494 50.6312 66.1169 45.8509 68.4734C41.1379 70.7626 35.8862 71.9072 30.096 71.9072C24.3057 71.9072 19.1214 70.7626 14.543 68.4734C10.032 66.1169 6.46356 62.6494 3.83774 58.0711C1.27925 53.4927 0 47.9044 0 41.3062V0H19.6937Z" fill="url(#paint3_linear_7211_2427)"/>
  <g opacity="0.7">
    <path d="M239.927 0V71.2002H220.133V0H239.927Z" fill="url(#paint4_linear_7211_2427)"/>
    <path d="M167.621 0V41.3062C167.621 45.144 168.497 48.1064 170.247 50.1936C172.065 52.2808 174.792 53.3244 178.428 53.3244C182.063 53.3244 184.79 52.2808 186.608 50.1936C188.493 48.0391 189.436 45.0766 189.436 41.3062V0H209.231V41.3062C209.231 47.8371 207.85 53.4254 205.09 58.0711C202.329 62.6494 198.559 66.1169 193.779 68.4734C189.066 70.7626 183.814 71.9072 178.024 71.9072C172.233 71.9072 167.049 70.7626 162.471 68.4734C157.96 66.1169 154.391 62.6494 151.765 58.0711C149.207 53.4927 147.928 47.9044 147.928 41.3062V0H167.621Z" fill="url(#paint5_linear_7211_2427)"/>
    <path d="M118.111 71.2002L104.275 51.1026L92.4583 71.2002H69.9369L93.0643 34.7417L69.1289 0H92.4583L105.89 19.5927L117.404 0H139.925L117.101 35.8526L141.44 71.2002H118.111Z" fill="url(#paint6_linear_7211_2427)"/>
    <path d="M21.0648 0V41.3062C21.0648 45.144 21.94 48.1064 23.6906 50.1936C25.5085 52.2808 28.2353 53.3244 31.871 53.3244C35.5068 53.3244 38.2336 52.2808 40.0515 50.1936C41.9367 48.0391 42.8793 45.0766 42.8793 41.3062V0H62.674V41.3062C62.674 47.8371 61.2937 53.4254 58.5332 58.0711C55.7728 62.6494 52.0023 66.1169 47.222 68.4734C42.509 70.7626 37.2573 71.9072 31.4671 71.9072C25.6768 71.9072 20.4925 70.7626 15.9141 68.4734C11.4031 66.1169 7.83466 62.6494 5.20884 58.0711C2.65034 53.4927 1.37109 47.9044 1.37109 41.3062V0H21.0648Z" fill="url(#paint7_linear_7211_2427)"/>
  </g>
  <g opacity="0.6">
    <path d="M241.293 0V71.2002H221.498V0H241.293Z" fill="url(#paint8_linear_7211_2427)"/>
    <path d="M168.987 0V41.3062C168.987 45.144 169.862 48.1064 171.612 50.1936C173.43 52.2808 176.157 53.3244 179.793 53.3244C183.429 53.3244 186.155 52.2808 187.973 50.1936C189.859 48.0391 190.801 45.0766 190.801 41.3062V0H210.596V41.3062C210.596 47.8371 209.216 53.4254 206.455 58.0711C203.695 62.6494 199.924 66.1169 195.144 68.4734C190.431 70.7626 185.179 71.9072 179.389 71.9072C173.599 71.9072 168.414 70.7626 163.836 68.4734C159.325 66.1169 155.757 62.6494 153.131 58.0711C150.572 53.4927 149.293 47.9044 149.293 41.3062V0H168.987Z" fill="url(#paint9_linear_7211_2427)"/>
    <path d="M119.476 71.2002L105.64 51.1026L93.8236 71.2002H71.3021L94.4295 34.7417L70.4941 0H93.8236L107.256 19.5927L118.769 0H141.29L118.466 35.8526L142.805 71.2002H119.476Z" fill="url(#paint10_linear_7211_2427)"/>
    <path d="M22.43 0V41.3062C22.43 45.144 23.3053 48.1064 25.0558 50.1936C26.8737 52.2808 29.6005 53.3244 33.2363 53.3244C36.872 53.3244 39.5988 52.2808 41.4167 50.1936C43.3019 48.0391 44.2445 45.0766 44.2445 41.3062V0H64.0392V41.3062C64.0392 47.8371 62.6589 53.4254 59.8985 58.0711C57.138 62.6494 53.3676 66.1169 48.5872 68.4734C43.8742 70.7626 38.6226 71.9072 32.8323 71.9072C27.042 71.9072 21.8577 70.7626 17.2793 68.4734C12.7683 66.1169 9.19989 62.6494 6.57407 58.0711C4.01558 53.4927 2.73633 47.9044 2.73633 41.3062V0H22.43Z" fill="url(#paint11_linear_7211_2427)"/>
  </g>
  <g opacity="0.5">
    <path d="M242.666 0V71.2002H222.871V0H242.666Z" fill="url(#paint12_linear_7211_2427)"/>
    <path d="M170.36 0V41.3062C170.36 45.144 171.235 48.1064 172.986 50.1936C174.803 52.2808 177.53 53.3244 181.166 53.3244C184.802 53.3244 187.529 52.2808 189.346 50.1936C191.232 48.0391 192.174 45.0766 192.174 41.3062V0H211.969V41.3062C211.969 47.8371 210.589 53.4254 207.828 58.0711C205.068 62.6494 201.297 66.1169 196.517 68.4734C191.804 70.7626 186.552 71.9072 180.762 71.9072C174.972 71.9072 169.787 70.7626 165.209 68.4734C160.698 66.1169 157.13 62.6494 154.504 58.0711C151.945 53.4927 150.666 47.9044 150.666 41.3062V0H170.36Z" fill="url(#paint13_linear_7211_2427)"/>
    <path d="M120.849 71.2002L107.013 51.1026L95.1966 71.2002H72.6751L95.8026 34.7417L71.8672 0H95.1966L108.629 19.5927L120.142 0H142.663L119.839 35.8526L144.178 71.2002H120.849Z" fill="url(#paint14_linear_7211_2427)"/>
    <path d="M23.803 0V41.3062C23.803 45.144 24.6783 48.1064 26.4289 50.1936C28.2467 52.2808 30.9736 53.3244 34.6093 53.3244C38.2451 53.3244 40.9719 52.2808 42.7898 50.1936C44.675 48.0391 45.6176 45.0766 45.6176 41.3062V0H65.4122V41.3062C65.4122 47.8371 64.032 53.4254 61.2715 58.0711C58.511 62.6494 54.7406 66.1169 49.9603 68.4734C45.2473 70.7626 39.9956 71.9072 34.2053 71.9072C28.4151 71.9072 23.2308 70.7626 18.6524 68.4734C14.1414 66.1169 10.5729 62.6494 7.94712 58.0711C5.38862 53.4927 4.10938 47.9044 4.10938 41.3062V0H23.803Z" fill="url(#paint15_linear_7211_2427)"/>
  </g>
  <g opacity="0.4">
    <path d="M244.031 0V71.2002H224.236V0H244.031Z" fill="url(#paint16_linear_7211_2427)"/>
    <path d="M171.725 0V41.3062C171.725 45.144 172.6 48.1064 174.351 50.1936C176.169 52.2808 178.895 53.3244 182.531 53.3244C186.167 53.3244 188.894 52.2808 190.712 50.1936C192.597 48.0391 193.539 45.0766 193.539 41.3062V0H213.334V41.3062C213.334 47.8371 211.954 53.4254 209.193 58.0711C206.433 62.6494 202.662 66.1169 197.882 68.4734C193.169 70.7626 187.917 71.9072 182.127 71.9072C176.337 71.9072 171.153 70.7626 166.574 68.4734C162.063 66.1169 158.495 62.6494 155.869 58.0711C153.311 53.4927 152.031 47.9044 152.031 41.3062V0H171.725Z" fill="url(#paint17_linear_7211_2427)"/>
    <path d="M122.214 71.2002L108.378 51.1026L96.5618 71.2002H74.0404L97.1678 34.7417L73.2324 0H96.5618L109.994 19.5927L121.507 0H144.029L121.204 35.8526L145.544 71.2002H122.214Z" fill="url(#paint18_linear_7211_2427)"/>
    <path d="M25.1683 0V41.3062C25.1683 45.144 26.0436 48.1064 27.7941 50.1936C29.612 52.2808 32.3388 53.3244 35.9746 53.3244C39.6103 53.3244 42.3371 52.2808 44.155 50.1936C46.0402 48.0391 46.9828 45.0766 46.9828 41.3062V0H66.7775V41.3062C66.7775 47.8371 65.3972 53.4254 62.6367 58.0711C59.8763 62.6494 56.1059 66.1169 51.3255 68.4734C46.6125 70.7626 41.3609 71.9072 35.5706 71.9072C29.7803 71.9072 24.596 70.7626 20.0176 68.4734C15.5066 66.1169 11.9382 62.6494 9.31235 58.0711C6.75386 53.4927 5.47461 47.9044 5.47461 41.3062V0H25.1683Z" fill="url(#paint19_linear_7211_2427)"/>
  </g>
  <g opacity="0.3">
    <path d="M245.402 0V71.2002H225.607V0H245.402Z" fill="url(#paint20_linear_7211_2427)"/>
    <path d="M173.096 0V41.3062C173.096 45.144 173.971 48.1064 175.722 50.1936C177.54 52.2808 180.267 53.3244 183.902 53.3244C187.538 53.3244 190.265 52.2808 192.083 50.1936C193.968 48.0391 194.911 45.0766 194.911 41.3062V0H214.705V41.3062C214.705 47.8371 213.325 53.4254 210.564 58.0711C207.804 62.6494 204.034 66.1169 199.253 68.4734C194.54 70.7626 189.289 71.9072 183.498 71.9072C177.708 71.9072 172.524 70.7626 167.945 68.4734C163.434 66.1169 159.866 62.6494 157.24 58.0711C154.682 53.4927 153.402 47.9044 153.402 41.3062V0H173.096Z" fill="url(#paint21_linear_7211_2427)"/>
    <path d="M123.585 71.2002L109.749 51.1026L97.9329 71.2002H75.4115L98.5389 34.7417L74.6035 0H97.9329L111.365 19.5927L122.878 0H145.4L122.575 35.8526L146.915 71.2002H123.585Z" fill="url(#paint22_linear_7211_2427)"/>
    <path d="M26.5394 0V41.3062C26.5394 45.144 27.4146 48.1064 29.1652 50.1936C30.9831 52.2808 33.7099 53.3244 37.3456 53.3244C40.9814 53.3244 43.7082 52.2808 45.5261 50.1936C47.4113 48.0391 48.3539 45.0766 48.3539 41.3062V0H68.1486V41.3062C68.1486 47.8371 66.7683 53.4254 64.0078 58.0711C61.2474 62.6494 57.477 66.1169 52.6966 68.4734C47.9836 70.7626 42.7319 71.9072 36.9417 71.9072C31.1514 71.9072 25.9671 70.7626 21.3887 68.4734C16.8777 66.1169 13.3093 62.6494 10.6834 58.0711C8.12495 53.4927 6.8457 47.9044 6.8457 41.3062V0H26.5394Z" fill="url(#paint23_linear_7211_2427)"/>
  </g>
  <g opacity="0.2">
    <path d="M246.771 0V71.2002H226.977V0H246.771Z" fill="url(#paint24_linear_7211_2427)"/>
    <path d="M174.465 0V41.3062C174.465 45.144 175.34 48.1064 177.091 50.1936C178.909 52.2808 181.636 53.3244 185.271 53.3244C188.907 53.3244 191.634 52.2808 193.452 50.1936C195.337 48.0391 196.28 45.0766 196.28 41.3062V0H216.074V41.3062C216.074 47.8371 214.694 53.4254 211.934 58.0711C209.173 62.6494 205.403 66.1169 200.622 68.4734C195.909 70.7626 190.658 71.9072 184.867 71.9072C179.077 71.9072 173.893 70.7626 169.315 68.4734C164.803 66.1169 161.235 62.6494 158.609 58.0711C156.051 53.4927 154.771 47.9044 154.771 41.3062V0H174.465Z" fill="url(#paint25_linear_7211_2427)"/>
    <path d="M124.954 71.2002L111.118 51.1026L99.3021 71.2002H76.7806L99.908 34.7417L75.9727 0H99.3021L112.734 19.5927L124.247 0H146.769L123.944 35.8526L148.284 71.2002H124.954Z" fill="url(#paint26_linear_7211_2427)"/>
    <path d="M27.9085 0V41.3062C27.9085 45.144 28.7838 48.1064 30.5343 50.1936C32.3522 52.2808 35.079 53.3244 38.7148 53.3244C42.3505 53.3244 45.0774 52.2808 46.8952 50.1936C48.7804 48.0391 49.723 45.0766 49.723 41.3062V0H69.5177V41.3062C69.5177 47.8371 68.1375 53.4254 65.377 58.0711C62.6165 62.6494 58.8461 66.1169 54.0658 68.4734C49.3527 70.7626 44.1011 71.9072 38.3108 71.9072C32.5205 71.9072 27.3362 70.7626 22.7579 68.4734C18.2468 66.1169 14.6784 62.6494 12.0526 58.0711C9.49409 53.4927 8.21484 47.9044 8.21484 41.3062V0H27.9085Z" fill="url(#paint27_linear_7211_2427)"/>
  </g>
  <defs>
    <linearGradient id="paint0_linear_7211_2427" x1="218.793" y1="5.49379" x2="264.331" y2="22.3664" gradientUnits="userSpaceOnUse">
      <stop stop-color="#E62323"/>
      <stop offset="1" stop-color="#FDFC1F"/>
    </linearGradient>
    <linearGradient id="paint1_linear_7211_2427" x1="146.653" y1="5.54834" x2="216.664" y2="85.0937" gradientUnits="userSpaceOnUse">
      <stop stop-color="#E62323"/>
      <stop offset="1" stop-color="#FDFC1F"/>
    </linearGradient>
    <linearGradient id="paint2_linear_7211_2427" x1="67.872" y1="5.49379" x2="134.676" y2="95.9146" gradientUnits="userSpaceOnUse">
      <stop stop-color="#E62323"/>
      <stop offset="1" stop-color="#FDFC1F"/>
    </linearGradient>
    <linearGradient id="paint3_linear_7211_2427" x1="-5.35254" y1="-0.172388" x2="61.1169" y2="81.5523" gradientUnits="userSpaceOnUse">
      <stop stop-color="#FF5C5C"/>
      <stop offset="1" stop-color="#DD0F0F"/>
    </linearGradient>
    <linearGradient id="paint4_linear_7211_2427" x1="220.164" y1="5.49379" x2="265.702" y2="22.3664" gradientUnits="userSpaceOnUse">
      <stop stop-color="#E62323"/>
      <stop offset="1" stop-color="#FDFC1F"/>
    </linearGradient>
    <linearGradient id="paint5_linear_7211_2427" x1="148.025" y1="5.54834" x2="218.035" y2="85.0937" gradientUnits="userSpaceOnUse">
      <stop stop-color="#E62323"/>
      <stop offset="1" stop-color="#FDFC1F"/>
    </linearGradient>
    <linearGradient id="paint6_linear_7211_2427" x1="69.2431" y1="5.49379" x2="136.047" y2="95.9146" gradientUnits="userSpaceOnUse">
      <stop stop-color="#E62323"/>
      <stop offset="1" stop-color="#FDFC1F"/>
    </linearGradient>
    <linearGradient id="paint7_linear_7211_2427" x1="-3.98145" y1="-0.172388" x2="62.488" y2="81.5523" gradientUnits="userSpaceOnUse">
      <stop stop-color="#FF5C5C"/>
      <stop offset="1" stop-color="#DD0F0F"/>
    </linearGradient>
    <linearGradient id="paint8_linear_7211_2427" x1="221.529" y1="5.49379" x2="267.067" y2="22.3664" gradientUnits="userSpaceOnUse">
      <stop stop-color="#E62323"/>
      <stop offset="1" stop-color="#FDFC1F"/>
    </linearGradient>
    <linearGradient id="paint9_linear_7211_2427" x1="149.39" y1="5.54834" x2="219.401" y2="85.0937" gradientUnits="userSpaceOnUse">
      <stop stop-color="#E62323"/>
      <stop offset="1" stop-color="#FDFC1F"/>
    </linearGradient>
    <linearGradient id="paint10_linear_7211_2427" x1="70.6084" y1="5.49379" x2="137.413" y2="95.9146" gradientUnits="userSpaceOnUse">
      <stop stop-color="#E62323"/>
      <stop offset="1" stop-color="#FDFC1F"/>
    </linearGradient>
    <linearGradient id="paint11_linear_7211_2427" x1="-2.61621" y1="-0.172388" x2="63.8532" y2="81.5523" gradientUnits="userSpaceOnUse">
      <stop stop-color="#FF5C5C"/>
      <stop offset="1" stop-color="#DD0F0F"/>
    </linearGradient>
    <linearGradient id="paint12_linear_7211_2427" x1="222.902" y1="5.49379" x2="268.44" y2="22.3664" gradientUnits="userSpaceOnUse">
      <stop stop-color="#E62323"/>
      <stop offset="1" stop-color="#FDFC1F"/>
    </linearGradient>
    <linearGradient id="paint13_linear_7211_2427" x1="150.763" y1="5.54834" x2="220.774" y2="85.0937" gradientUnits="userSpaceOnUse">
      <stop stop-color="#E62323"/>
      <stop offset="1" stop-color="#FDFC1F"/>
    </linearGradient>
    <linearGradient id="paint14_linear_7211_2427" x1="71.9814" y1="5.49379" x2="138.786" y2="95.9146" gradientUnits="userSpaceOnUse">
      <stop stop-color="#E62323"/>
      <stop offset="1" stop-color="#FDFC1F"/>
    </linearGradient>
    <linearGradient id="paint15_linear_7211_2427" x1="-1.24317" y1="-0.172388" x2="65.2263" y2="81.5523" gradientUnits="userSpaceOnUse">
      <stop stop-color="#FF5C5C"/>
      <stop offset="1" stop-color="#DD0F0F"/>
    </linearGradient>
    <linearGradient id="paint16_linear_7211_2427" x1="224.268" y1="5.49379" x2="269.806" y2="22.3664" gradientUnits="userSpaceOnUse">
      <stop stop-color="#E62323"/>
      <stop offset="1" stop-color="#FDFC1F"/>
    </linearGradient>
    <linearGradient id="paint17_linear_7211_2427" x1="152.128" y1="5.54834" x2="222.139" y2="85.0937" gradientUnits="userSpaceOnUse">
      <stop stop-color="#E62323"/>
      <stop offset="1" stop-color="#FDFC1F"/>
    </linearGradient>
    <linearGradient id="paint18_linear_7211_2427" x1="73.3466" y1="5.49379" x2="140.151" y2="95.9146" gradientUnits="userSpaceOnUse">
      <stop stop-color="#E62323"/>
      <stop offset="1" stop-color="#FDFC1F"/>
    </linearGradient>
    <linearGradient id="paint19_linear_7211_2427" x1="0.122069" y1="-0.172388" x2="66.5915" y2="81.5523" gradientUnits="userSpaceOnUse">
      <stop stop-color="#FF5C5C"/>
      <stop offset="1" stop-color="#DD0F0F"/>
    </linearGradient>
    <linearGradient id="paint20_linear_7211_2427" x1="225.639" y1="5.49379" x2="271.177" y2="22.3664" gradientUnits="userSpaceOnUse">
      <stop stop-color="#E62323"/>
      <stop offset="1" stop-color="#FDFC1F"/>
    </linearGradient>
    <linearGradient id="paint21_linear_7211_2427" x1="153.499" y1="5.54834" x2="223.51" y2="85.0937" gradientUnits="userSpaceOnUse">
      <stop stop-color="#E62323"/>
      <stop offset="1" stop-color="#FDFC1F"/>
    </linearGradient>
    <linearGradient id="paint22_linear_7211_2427" x1="74.7177" y1="5.49379" x2="141.522" y2="95.9146" gradientUnits="userSpaceOnUse">
      <stop stop-color="#E62323"/>
      <stop offset="1" stop-color="#FDFC1F"/>
    </linearGradient>
    <linearGradient id="paint23_linear_7211_2427" x1="1.49316" y1="-0.172388" x2="67.9626" y2="81.5523" gradientUnits="userSpaceOnUse">
      <stop stop-color="#FF5C5C"/>
      <stop offset="1" stop-color="#DD0F0F"/>
    </linearGradient>
    <linearGradient id="paint24_linear_7211_2427" x1="227.008" y1="5.49379" x2="272.546" y2="22.3664" gradientUnits="userSpaceOnUse">
      <stop stop-color="#E62323"/>
      <stop offset="1" stop-color="#FDFC1F"/>
    </linearGradient>
    <linearGradient id="paint25_linear_7211_2427" x1="154.868" y1="5.54834" x2="224.879" y2="85.0937" gradientUnits="userSpaceOnUse">
      <stop stop-color="#E62323"/>
      <stop offset="1" stop-color="#FDFC1F"/>
    </linearGradient>
    <linearGradient id="paint26_linear_7211_2427" x1="76.0869" y1="5.49379" x2="142.891" y2="95.9146" gradientUnits="userSpaceOnUse">
      <stop stop-color="#E62323"/>
      <stop offset="1" stop-color="#FDFC1F"/>
    </linearGradient>
    <linearGradient id="paint27_linear_7211_2427" x1="2.8623" y1="-0.172388" x2="69.3317" y2="81.5523" gradientUnits="userSpaceOnUse">
      <stop stop-color="#FF5C5C"/>
      <stop offset="1" stop-color="#DD0F0F"/>
    </linearGradient>
  </defs>
</svg>