<svg width="96" height="34" viewBox="0 0 96 34" fill="none" xmlns="http://www.w3.org/2000/svg">
<path d="M91.6983 0.414307H4.38233C3.2414 0.414307 2.1472 0.867539 1.34044 1.6743C0.533678 2.48106 0.0804443 3.57526 0.0804443 4.71619V29.323C0.0804443 30.4639 0.533678 31.5581 1.34044 32.3649C2.1472 33.1716 3.2414 33.6249 4.38233 33.6249H91.6983C92.8392 33.6249 93.9334 33.1716 94.7402 32.3649C95.547 31.5581 96.0002 30.4639 96.0002 29.323V4.69776C95.9953 3.56002 95.5399 2.47055 94.7337 1.66777C93.9275 0.864998 92.8361 0.414296 91.6983 0.414307ZM93.542 29.2984C93.542 29.7874 93.3477 30.2563 93.002 30.6021C92.6562 30.9478 92.1873 31.1421 91.6983 31.1421H4.38233C3.89336 31.1421 3.42442 30.9478 3.07866 30.6021C2.73291 30.2563 2.53866 29.7874 2.53866 29.2984V4.69776C2.53866 4.20879 2.73291 3.73984 3.07866 3.39409C3.42442 3.04833 3.89336 2.85409 4.38233 2.85409H91.6983C92.1873 2.85409 92.6562 3.04833 93.002 3.39409C93.3477 3.73984 93.542 4.20879 93.542 4.69776V29.2984Z" fill="#0D0D10"/>
<path d="M44.5619 32.1683L43.806 33.6002H4.38233C3.2414 33.6002 2.1472 33.147 1.34044 32.3402C0.533678 31.5334 0.0804443 30.4392 0.0804443 29.2983V8.10229H2.53866V29.3229C2.53866 29.8119 2.73291 30.2808 3.07866 30.6266C3.42442 30.9723 3.89336 31.1665 4.38233 31.1665H43.8798L44.5619 32.1683Z" fill="#C20200"/>
<path d="M96.0003 24.1484V29.2983C96.0003 30.4393 95.547 31.5335 94.7403 32.3402C93.9335 33.147 92.8393 33.6002 91.6984 33.6002H41.8149V31.142H91.6984C92.1873 31.142 92.6563 30.9477 93.002 30.602C93.3478 30.2562 93.542 29.7873 93.542 29.2983V24.259L94.7343 23.2327L96.0003 24.1484Z" fill="#870100"/>
<path d="M56.2324 2.87293H4.38236C3.89339 2.87293 3.42445 3.06717 3.07869 3.41293C2.73294 3.75868 2.53869 4.22763 2.53869 4.7166V9.90344L1.47551 10.813L0.129639 9.64533V4.72889C0.129639 3.58796 0.582872 2.49376 1.38963 1.687C2.19639 0.880235 3.29059 0.427002 4.43152 0.427002H56.134L55.2675 1.87121L56.2324 2.87293Z" fill="#F90400"/>
</svg>
