<svg width="250" height="209" viewBox="0 0 250 209" fill="none" xmlns="http://www.w3.org/2000/svg">
<g clip-path="url(#clip0_1890_1397)">
<path d="M96.9709 70.7516L0.0690308 36.7152L24.2945 174.232L129.456 207.721L96.9709 70.7516Z" fill="#2F3841"/>
<path d="M96.9709 70.7516L97.2802 69.8748L-1.12473 35.3108L23.4739 174.948L130.741 209.107L97.7608 70.043L97.2802 69.8748L96.9709 70.7516L96.0634 70.9657L128.167 206.334L25.1151 173.518L1.2628 38.1221L96.6616 71.6284L96.9709 70.7516L96.0634 70.9657L96.9709 70.7516Z" fill="#231F20"/>
<path d="M96.6948 71.0217L129.732 208.814L249.757 178.254L214.243 45.7684L96.6948 71.0217Z" fill="#EE4947"/>
<path d="M96.6948 71.0217L96.567 71.0523L129.632 208.974L249.921 178.348L214.34 45.6129L96.5338 70.9198L96.567 71.0523L96.6948 71.0217L96.7229 71.1517L214.149 45.9239L249.594 178.157L129.829 208.651L96.8252 70.9911L96.6948 71.0217L96.7229 71.1517L96.6948 71.0217Z" fill="#231F20"/>
<path d="M230.854 107.441L199.057 108.155C199.057 108.155 195.077 123.33 184.701 126.274C174.325 129.218 169.19 114.394 169.19 114.394L167.72 120.616L103.671 110.186C103.671 110.186 104.588 124.459 97.2469 129.95C97.2469 129.95 167.17 149.346 167.354 148.25C167.538 147.154 165.864 138.259 165.864 138.259C165.864 138.259 172.114 158.007 177.111 169.463C180.823 177.986 186.465 185.776 188.3 191.441C190.135 197.107 194.806 191.696 198.919 190.883C204.563 189.762 249.21 177.161 249.21 177.161L230.854 107.441Z" fill="#2F3841"/>
<path d="M171.465 157.515C169.737 153.9 168.791 149.695 168.29 146.088C167.929 143.491 167.742 140.873 167.73 138.251C167.73 138.055 167.73 137.904 167.73 137.802C167.73 137.751 167.73 137.713 167.73 137.688V137.654L166.797 137.626L165.869 137.698C165.869 137.698 165.869 137.815 165.892 138.024C165.948 138.758 166.086 140.631 166.212 142.581C166.273 143.557 166.332 144.551 166.375 145.433C166.419 146.315 166.444 147.085 166.444 147.587C166.444 147.732 166.444 147.842 166.444 147.944C166.444 147.987 166.444 148.025 166.444 148.051V148.089L167.365 148.242L166.437 148.084L167.329 148.242L166.585 147.732C166.509 147.84 166.458 147.964 166.437 148.094L167.329 148.252L166.585 147.743L167.308 148.252L166.922 147.434C166.785 147.501 166.668 147.601 166.58 147.725L167.303 148.234L166.922 147.434L167.242 148.104L167.145 147.365C167.068 147.377 166.993 147.4 166.922 147.434L167.242 148.104L167.145 147.365L167.198 147.76L167.175 147.363H167.145L167.198 147.758L167.175 147.36V147.483V147.36V147.483V147.36C167.041 147.355 166.907 147.34 166.774 147.317C166.355 147.256 165.693 147.128 164.847 146.947C161.664 146.259 155.841 144.794 148.926 142.987C138.548 140.275 125.688 136.79 115.422 133.984C110.289 132.58 105.805 131.349 102.605 130.464L98.8471 129.427L97.4898 129.05L97.2341 129.947L97.794 130.691C99.3499 129.49 100.627 127.967 101.539 126.228C102.935 123.679 103.694 120.774 104.118 118.154C104.457 116.023 104.628 113.87 104.629 111.713C104.629 110.732 104.591 110.14 104.591 110.125L103.661 110.184L103.51 111.101L168.418 121.671L170.087 114.606L169.179 114.392L168.298 114.698C169.138 116.95 170.254 119.09 171.621 121.07C172.77 122.776 174.2 124.278 175.851 125.51C176.721 126.143 177.676 126.651 178.689 127.018C179.754 127.403 180.879 127.6 182.012 127.602C183.006 127.598 183.994 127.455 184.949 127.179C187.733 126.389 190.061 124.786 191.976 122.869C194.847 119.986 196.833 116.385 198.096 113.497C198.836 111.845 199.457 110.141 199.951 108.4L199.049 108.163L199.07 109.093L230.867 108.379L230.846 107.449L229.944 107.686L230.846 107.449L230.826 106.519L198.326 107.25L198.147 107.928C197.346 110.685 196.237 113.344 194.842 115.855C193.692 117.966 192.256 119.909 190.573 121.628C188.839 123.343 186.807 124.709 184.438 125.38C183.65 125.609 182.833 125.728 182.012 125.731C181.091 125.731 180.178 125.572 179.312 125.26C177.819 124.686 176.47 123.795 175.358 122.647C173.62 120.937 172.29 118.783 171.391 117.063C170.946 116.204 170.624 115.455 170.391 114.922C170.281 114.667 170.199 114.445 170.135 114.303L170.074 114.139V114.101L169.024 111.068L167.017 119.568L102.664 109.088L102.74 110.253C102.74 110.301 102.774 110.841 102.774 111.718C102.783 114.641 102.447 117.555 101.774 120.399C101.365 122.119 100.739 123.78 99.9131 125.344C99.1299 126.849 98.0294 128.167 96.6871 129.208L95.1713 130.342L96.9964 130.852C96.9964 130.852 113.53 135.44 130.542 140.027C139.049 142.321 147.669 144.615 154.417 146.336C157.789 147.197 160.688 147.913 162.873 148.418C163.967 148.673 164.88 148.869 165.593 149.007C165.948 149.076 166.253 149.132 166.511 149.167C166.733 149.204 166.958 149.225 167.183 149.231H167.339C167.46 149.223 167.578 149.194 167.689 149.147C167.803 149.099 167.907 149.031 167.996 148.946C168.062 148.88 168.119 148.807 168.165 148.726C168.218 148.633 168.254 148.531 168.272 148.426C168.289 148.303 168.301 148.18 168.305 148.056C168.305 147.926 168.305 147.783 168.305 147.62C168.305 146.975 168.267 146.042 168.213 144.987C168.05 141.824 167.722 137.596 167.722 137.596L165.861 137.642C165.861 137.642 165.861 137.879 165.861 138.292C165.88 142.317 166.304 146.33 167.127 150.271C167.696 153.054 168.585 155.763 169.778 158.343" fill="#231F20"/>
<path d="M97.8885 130.128C97.8885 130.128 59.9463 119.747 56.0915 117.963C56.0915 117.963 46.0429 118.238 41.9146 119.337C41.9146 119.337 34.4811 124.414 29.113 123.042C23.7449 121.671 34.205 117.002 35.9944 116.043C37.7837 115.085 43.5659 110.826 43.0138 105.474C42.4616 100.121 35.5751 90.2396 27.5946 90.7902C19.614 91.3407 19.752 94.3585 17.8246 91.6134C15.8972 88.8684 22.5051 85.8481 24.7086 85.7104C24.7086 85.7104 23.3308 82.1421 28.9749 82.0071C34.6191 81.872 39.8492 84.3978 39.8492 84.3978C39.8492 84.3978 43.5659 81.6885 49.8977 83.6332C56.2295 85.5779 60.3578 101.36 60.3578 101.36L103.671 110.189C103.671 110.189 104.586 123.488 97.8885 130.128Z" fill="white"/>
<path d="M97.8885 130.128L98.1442 129.231L97.7173 129.114C95.6288 128.54 86.1912 125.948 76.8277 123.29C72.1472 121.962 67.4847 120.616 63.7704 119.5C61.9146 118.941 60.294 118.442 59.0337 118.032C58.4049 117.825 57.863 117.642 57.431 117.486C56.999 117.331 56.6641 117.203 56.4928 117.119L56.296 117.027H56.0762C56.0762 117.027 53.5455 117.096 50.4985 117.303C48.9647 117.407 47.3159 117.557 45.772 117.728C44.3946 117.871 43.0282 118.105 41.682 118.429L41.5261 118.47L41.3931 118.562C40.2807 119.291 39.1172 119.94 37.9115 120.504C36.8443 121.013 35.7393 121.439 34.6063 121.778C33.4726 122.127 32.2956 122.316 31.1094 122.339C30.5168 122.343 29.9261 122.274 29.3507 122.133C29.1639 122.087 28.981 122.026 28.8037 121.952C28.6946 121.912 28.5947 121.852 28.5097 121.773L28.3998 121.852L28.5276 121.809L28.5097 121.773L28.3998 121.852L28.5276 121.809L28.3563 121.865H28.5378V121.809L28.3666 121.865H28.4611H28.548H28.4611H28.548C28.5571 121.831 28.57 121.799 28.5864 121.768C28.7 121.579 28.8403 121.407 29.0031 121.258C29.5122 120.781 30.067 120.354 30.6595 119.984C31.682 119.316 32.9167 118.648 33.9826 118.095C34.522 117.817 35.023 117.568 35.4448 117.359C35.8666 117.15 36.2116 116.979 36.4468 116.849C37.132 116.466 37.7851 116.029 38.3998 115.541C39.7929 114.476 41.0211 113.212 42.045 111.79C42.6144 110.986 43.0799 110.114 43.4305 109.195C43.7982 108.232 43.9887 107.21 43.9928 106.18C43.9944 105.908 43.9807 105.637 43.9519 105.367C43.7986 103.904 43.2541 102.252 42.4182 100.552C41.0297 97.7967 39.1059 95.3441 36.7587 93.3364C35.5634 92.3122 34.2253 91.4665 32.7863 90.8258C31.354 90.1876 29.805 89.851 28.2362 89.8369C28.001 89.8369 27.7658 89.8369 27.5281 89.8624C25.4641 89.9675 23.4253 90.3631 21.4724 91.0374C20.8231 91.2693 20.3195 91.4885 19.9386 91.6313C19.7546 91.7026 19.6038 91.7536 19.4939 91.7842C19.4264 91.8037 19.3569 91.8157 19.2868 91.8199C19.2741 91.8223 19.2611 91.8223 19.2485 91.8199C19.1761 91.786 19.1117 91.7374 19.0593 91.6771C18.8816 91.4948 18.7208 91.2969 18.5787 91.0858C18.5184 91.0016 18.471 90.9088 18.4381 90.8106C18.412 90.7378 18.399 90.661 18.3998 90.5837C18.4062 90.4151 18.4517 90.2502 18.5327 90.102C18.7983 89.6448 19.155 89.2466 19.5808 88.9321C20.4363 88.2753 21.377 87.7368 22.3773 87.3315C22.8306 87.14 23.2949 86.9757 23.7679 86.8395C24.0902 86.7415 24.4216 86.6766 24.7572 86.6458L26.0353 86.5668L25.5777 85.3842L25.0204 85.5983L25.5803 85.3944L25.023 85.6085L25.5828 85.4046L25.4448 85.4556L25.5854 85.4046L25.4473 85.4556L25.5879 85.4046C25.5814 85.3898 25.5762 85.3744 25.5726 85.3587C25.5233 85.1854 25.4984 85.0061 25.4985 84.826C25.496 84.6408 25.5281 84.4567 25.593 84.2831C25.6491 84.1383 25.7304 84.0045 25.8333 83.8881C26.0978 83.6136 26.4276 83.4103 26.7919 83.2967C27.5062 83.0668 28.2525 82.9507 29.0031 82.9527H29.4274C31.8006 82.9929 34.1548 83.3828 36.4136 84.1098C37.3441 84.4004 38.1109 84.6909 38.6401 84.905C38.8957 85.0146 39.1104 85.1038 39.2485 85.1599L39.4018 85.2287L39.4376 85.2466L39.5859 84.9407L39.4376 85.2466L39.5859 84.9407L39.4376 85.2466L39.9489 85.5014L40.4013 85.1701L40.1687 84.8515L40.3962 85.1726L40.1636 84.8541L40.3911 85.1752C40.8076 84.9082 41.2536 84.6901 41.7203 84.5253C42.9129 84.0798 44.1764 83.8527 45.4499 83.8549C46.8658 83.8649 48.2722 84.0874 49.6217 84.5151C50.3376 84.7574 50.9961 85.1434 51.5567 85.6493C52.6892 86.6204 53.7883 88.1114 54.7597 89.7961C56.2193 92.3271 57.4029 95.2888 58.2106 97.6056C58.6171 98.7653 58.9289 99.7644 59.1385 100.473C59.2433 100.827 59.3226 101.108 59.3763 101.299C59.4044 101.393 59.4223 101.467 59.4376 101.515C59.453 101.564 59.4376 101.559 59.4504 101.572V101.587L59.5961 102.148L103.479 111.091L103.666 110.181L102.735 110.245C102.735 110.301 102.774 110.88 102.774 111.82C102.779 114.644 102.472 117.459 101.858 120.216C101.475 121.93 100.909 123.598 100.169 125.191C99.4446 126.779 98.45 128.229 97.229 129.478L97.8885 130.138L98.1442 129.241L97.8885 130.138L98.5455 130.796C99.923 129.403 101.047 127.783 101.869 126.007C103.021 123.478 103.801 120.797 104.187 118.047C104.497 115.992 104.653 113.916 104.655 111.838C104.655 110.785 104.611 110.151 104.611 110.133L104.563 109.427L60.5547 100.455L60.3681 101.368L61.2704 101.133C60.4935 98.3132 59.5232 95.5497 58.3666 92.8623C57.4554 90.6842 56.3131 88.6096 54.9591 86.6739C54.3275 85.784 53.595 84.9698 52.7761 84.2474C52.0229 83.5713 51.1366 83.0592 50.1738 82.7437C48.6462 82.2615 47.0547 82.0106 45.4524 81.9994C43.9214 81.9877 42.4013 82.2582 40.9688 82.7972C40.3801 83.0101 39.8203 83.2952 39.3021 83.6459L39.8517 84.3978L40.2582 83.5593C39.1895 83.0712 38.0896 82.654 36.9657 82.3104C34.5278 81.5262 31.9862 81.1087 29.4248 81.0717C29.2689 81.0717 29.1104 81.0717 28.9545 81.0717C28.0938 81.0777 27.2381 81.2011 26.411 81.4387C25.9358 81.5804 25.4849 81.7936 25.0741 82.0708C24.6238 82.3698 24.2557 82.7765 24.0035 83.2538C23.7512 83.731 23.6227 84.2636 23.6298 84.8031C23.6277 85.2241 23.6986 85.6423 23.8395 86.0392L24.7111 85.7053L24.6523 84.7776C24.3072 84.8048 23.9651 84.8619 23.6298 84.9484C22.9048 85.1314 22.196 85.3735 21.5107 85.6722C20.3531 86.1568 19.269 86.8002 18.2899 87.5838C17.8262 87.9594 17.4213 88.4018 17.0884 88.8964C16.9274 89.1419 16.7978 89.4065 16.7024 89.684C16.6022 89.97 16.5503 90.2706 16.5491 90.5735C16.5491 90.8491 16.594 91.1228 16.682 91.384C16.771 91.6569 16.9012 91.9148 17.068 92.1487C17.3327 92.556 17.6576 92.9212 18.0317 93.2319C18.2128 93.3745 18.4156 93.4872 18.6324 93.5658C18.8471 93.6431 19.0739 93.6819 19.3021 93.6805C19.5373 93.6787 19.7712 93.6453 19.9974 93.5811C20.3818 93.4656 20.7591 93.3277 21.1273 93.1682C21.9041 92.8422 22.7027 92.5706 23.5174 92.3551C24.8764 92.0141 26.2646 91.8016 27.6636 91.7205C27.8553 91.7052 28.0445 91.7001 28.2387 91.7001C30.01 91.7345 31.7412 92.2319 33.2592 93.1427C35.6518 94.5037 37.794 96.711 39.3609 99.0508C40.1046 100.149 40.7382 101.318 41.2526 102.54C41.6724 103.507 41.9538 104.528 42.0884 105.573C42.1108 105.78 42.1219 105.989 42.1217 106.198C42.1071 107.282 41.8449 108.349 41.3548 109.317C40.5968 110.774 39.576 112.078 38.3435 113.166C37.8318 113.633 37.2933 114.071 36.7306 114.476C36.3523 114.755 35.9571 115.01 35.547 115.241C35.3911 115.325 35.1278 115.457 34.8006 115.62C34.2306 115.903 33.4586 116.286 32.6252 116.721C31.3183 117.388 30.0578 118.142 28.8522 118.977C28.3206 119.347 27.8319 119.774 27.3952 120.252C27.1941 120.471 27.0223 120.715 26.8839 120.978C26.7348 121.26 26.6542 121.574 26.6488 121.893C26.6488 122.164 26.7146 122.432 26.8405 122.673C26.935 122.85 27.0576 123.011 27.2035 123.149C27.42 123.353 27.6687 123.519 27.9397 123.641C28.2387 123.776 28.5492 123.883 28.8676 123.963C29.5944 124.14 30.3407 124.225 31.0889 124.217C32.4767 124.195 33.8541 123.975 35.1789 123.562C36.9425 123.019 38.6461 122.298 40.2633 121.411C41.5797 120.698 42.4156 120.137 42.4361 120.114L41.9095 119.349L42.1498 120.246C43.4123 119.946 44.6931 119.728 45.9841 119.594C48.2336 119.339 50.7745 119.156 52.7454 119.048C53.7321 118.998 54.5782 118.962 55.1738 118.939L55.8717 118.913H56.1273L56.1017 117.983L55.7081 118.827C56.002 118.962 56.388 119.112 56.8916 119.291C57.8349 119.625 59.1641 120.055 60.7873 120.565C66.457 122.319 75.6672 124.936 83.4662 127.12C91.2653 129.305 97.6483 131.023 97.6483 131.025L98.1595 131.165L98.5429 130.786L97.8885 130.128Z" fill="#231F20"/>
<path d="M24.6856 86.6406C27.6394 86.7784 30.57 87.2295 33.4279 87.9864C35.634 88.5854 37.909 89.452 39.7955 90.6652C40.7148 91.2445 41.5529 91.9431 42.2878 92.7424C42.9901 93.5143 43.5454 94.4074 43.9264 95.3779L45.6672 94.7101C45.1978 93.5104 44.5097 92.4077 43.6375 91.4578C42.1447 89.8139 40.2071 88.6007 38.1595 87.6831C35.092 86.3093 31.7459 85.5957 29.1616 85.2108C27.6915 84.9855 26.21 84.8425 24.7239 84.7826L24.6779 86.6406H24.6856Z" fill="#231F20"/>
<path d="M39.4069 85.2159C40.7228 85.9576 41.9776 86.8022 43.1595 87.7418C44.1393 88.5079 45.0394 89.3703 45.8461 90.316C46.5918 91.1586 47.1486 92.15 47.4795 93.2242L49.2817 92.7476C48.8751 91.3907 48.1773 90.1383 47.2367 89.0773C45.9186 87.5755 44.4126 86.2487 42.7556 85.1293C41.961 84.573 41.1386 84.0575 40.2914 83.5847L39.4069 85.2236V85.2159Z" fill="#231F20"/>
<path d="M46.1912 82.9526C46.1912 82.9526 50.4473 87.3595 50.5854 89.4163L46.1912 82.9526Z" fill="black"/>
<path d="M44.1155 104.102C44.1155 106.735 43.3325 109.309 41.8654 111.498C40.3984 113.688 38.3132 115.394 35.8736 116.401C33.434 117.409 30.7495 117.673 28.1596 117.159C25.5697 116.645 23.1907 115.377 21.3235 113.516C19.4563 111.654 18.1848 109.282 17.6696 106.7C17.1544 104.117 17.4188 101.441 18.4294 99.0081C19.4399 96.5756 21.1511 94.4965 23.3467 93.0337C25.5423 91.5709 28.1237 90.7902 30.7643 90.7902C32.5177 90.7898 34.254 91.1339 35.874 91.8028C37.494 92.4717 38.9659 93.4523 40.2058 94.6885C41.4456 95.9247 42.4291 97.3924 43.0999 99.0077C43.7707 100.623 44.1159 102.354 44.1155 104.102Z" fill="#F57379"/>
<path d="M227.612 111.471C227.612 111.471 212.019 84.6399 211.089 73.9579C210.158 63.276 199.471 50.7207 184.606 47.6035C184.606 47.6035 183.328 43.6682 180.936 43.3955C178.543 43.1228 182.127 47.6035 180.199 47.6035C178.272 47.6035 165.838 42.3097 156.365 47.9706C146.892 53.6314 138.678 69.1051 139.09 82.4173C139.502 95.7296 146.247 106.71 144.872 121.121C143.497 135.531 153.681 140.198 160.562 134.158C160.562 134.158 168.407 135.942 171.025 125.099C171.025 125.099 176.393 126.101 175.015 118.1C175.015 118.1 181.209 128.805 183.689 133.062C186.168 137.318 189.057 137.178 191.807 133.472C194.558 129.766 220.455 106.988 227.612 111.471Z" fill="#231F20"/>
<path d="M227.612 111.471L228.305 111.071L228.262 110.994C227.807 110.212 223.916 103.452 220.036 95.6099C218.096 91.6898 216.155 87.4996 214.668 83.6586C213.916 81.7419 213.275 79.9119 212.797 78.2527C212.36 76.8295 212.059 75.3686 211.897 73.8891C211.6 70.9318 210.746 68.0567 209.381 65.4144C207.278 61.2064 203.98 57.164 199.783 53.8659C195.392 50.3999 190.259 47.99 184.783 46.8236L184.619 47.6036L185.386 47.3487C185.122 46.5931 184.779 45.867 184.363 45.1822C184.011 44.5833 183.573 44.039 183.062 43.5663C182.789 43.318 182.484 43.1064 182.155 42.9368C181.807 42.7571 181.429 42.6414 181.04 42.5952C180.944 42.5842 180.848 42.5782 180.752 42.5774C180.554 42.5752 180.358 42.6071 180.171 42.6717C179.988 42.737 179.822 42.8426 179.685 42.9807C179.548 43.1188 179.445 43.2859 179.381 43.4694C179.323 43.6487 179.294 43.8365 179.297 44.0251C179.303 44.3289 179.35 44.6306 179.435 44.9223C179.548 45.353 179.703 45.7812 179.821 46.1635C179.882 46.3521 179.931 46.528 179.964 46.6733C179.991 46.7792 180.007 46.8877 180.01 46.997V47.0301L180.222 47.0683L180.033 46.9664C180.022 46.9864 180.015 47.0078 180.01 47.0301L180.222 47.0683L180.033 46.9664L180.36 47.1448L180.105 46.8772C180.078 46.9037 180.055 46.9337 180.036 46.9664L180.363 47.1448L180.107 46.8772L180.337 47.1167L180.233 46.8007C180.186 46.8171 180.143 46.8432 180.107 46.8772L180.337 47.1167L180.233 46.8007L180.284 46.9536L180.248 46.7956H180.233L180.284 46.9485L180.248 46.7905H180.22C180.163 46.7904 180.107 46.7853 180.051 46.7752C179.885 46.7497 179.632 46.6962 179.323 46.6223C178.778 46.4898 178.044 46.2935 177.201 46.0718C174.645 45.4116 170.877 44.5425 166.794 44.5425C163.246 44.5425 159.435 45.2052 155.974 47.2773C153.571 48.7148 151.278 50.7386 149.177 53.165C146.01 56.8174 143.298 61.3721 141.36 66.2683C139.422 71.1645 138.272 76.415 138.272 81.4437C138.272 81.7751 138.272 82.1064 138.287 82.4378C138.479 88.5956 139.992 94.2208 141.434 99.8332C142.876 105.446 144.246 111.048 144.246 117.206C144.246 118.46 144.19 119.734 144.064 121.029C143.978 121.946 143.937 122.828 143.937 123.672C143.937 128.114 145.105 131.573 146.989 133.921C147.876 135.051 149.004 135.971 150.291 136.615C151.507 137.214 152.846 137.526 154.202 137.525C156.572 137.525 158.998 136.587 161.104 134.749L160.575 134.15L160.399 134.915C160.867 135.008 161.343 135.051 161.82 135.045C163.072 135.046 164.311 134.786 165.456 134.28C166.601 133.774 167.626 133.034 168.466 132.108C169.852 130.617 171.063 128.428 171.828 125.267L171.061 125.079L170.913 125.864C171.142 125.901 171.375 125.919 171.608 125.917C172.04 125.919 172.469 125.862 172.886 125.749C173.459 125.595 173.99 125.315 174.442 124.931C174.893 124.546 175.253 124.067 175.496 123.527C175.915 122.563 176.116 121.518 176.084 120.468C176.078 119.623 175.999 118.779 175.849 117.947L175.061 118.08L174.335 118.498C174.335 118.498 180.529 129.203 183.009 133.462C183.552 134.469 184.28 135.366 185.156 136.105C185.529 136.402 185.944 136.64 186.388 136.813C186.811 136.979 187.261 137.066 187.715 137.068C188.615 137.048 189.488 136.752 190.215 136.222C191.079 135.598 191.835 134.835 192.451 133.966C192.579 133.793 192.799 133.533 193.085 133.22C193.627 132.631 194.415 131.841 195.386 130.926C200.058 126.564 205.026 122.527 210.253 118.845C212.921 116.941 215.727 115.237 218.648 113.747C219.831 113.15 221.059 112.646 222.321 112.238C223.279 111.916 224.279 111.737 225.289 111.705C225.649 111.702 226.009 111.742 226.36 111.825C226.653 111.894 226.932 112.009 227.188 112.167L229.928 113.882L228.305 111.078L227.612 111.479L228.039 110.803C227.638 110.556 227.2 110.375 226.741 110.265C226.265 110.151 225.778 110.096 225.289 110.1C223.993 110.1 222.564 110.428 221.025 110.979C218.333 111.945 215.291 113.612 212.178 115.613C207.515 118.615 202.704 122.38 198.842 125.675C196.912 127.324 195.22 128.856 193.901 130.12C193.241 130.752 192.674 131.318 192.216 131.8C191.844 132.182 191.493 132.585 191.166 133.006C190.654 133.732 190.027 134.369 189.31 134.894C188.849 135.243 188.292 135.441 187.715 135.463C187.452 135.462 187.193 135.414 186.948 135.32C186.477 135.127 186.052 134.836 185.703 134.466C185.184 133.925 184.737 133.32 184.371 132.667C183.134 130.541 180.966 126.804 179.108 123.593C178.177 121.99 177.319 120.519 176.708 119.449L175.971 118.174L175.7 117.705L173.469 113.849L174.22 118.238C174.354 118.982 174.425 119.735 174.433 120.491C174.456 121.238 174.335 121.983 174.077 122.686C173.95 123.014 173.763 123.316 173.525 123.575C173.251 123.866 172.905 124.081 172.523 124.2C172.213 124.298 171.89 124.347 171.564 124.345C171.459 124.345 171.354 124.34 171.25 124.33H171.173H171.158L171.066 124.839L171.163 124.33L171.071 124.839L171.168 124.33L170.422 124.189L170.245 124.926C169.882 126.56 169.259 128.127 168.4 129.565C167.311 131.303 166.061 132.259 164.885 132.809C163.923 133.253 162.877 133.482 161.817 133.482C161.548 133.483 161.278 133.468 161.01 133.436L160.803 133.403H160.757L160.695 133.681L160.759 133.403L160.698 133.681L160.762 133.403L160.363 133.314L160.056 133.584C158.216 135.195 156.168 135.96 154.223 135.962C153.112 135.963 152.016 135.707 151.02 135.215C149.509 134.471 148.157 133.176 147.168 131.257C146.178 129.338 145.565 126.835 145.565 123.71C145.565 122.92 145.606 122.09 145.688 121.22C145.818 119.861 145.877 118.536 145.877 117.234C145.877 110.841 144.453 105.089 143.009 99.4662C141.564 93.8436 140.092 88.3407 139.911 82.4148C139.911 82.1013 139.895 81.7878 139.895 81.4718C139.895 75.0998 141.866 68.2181 144.982 62.2693C146.473 59.3962 148.286 56.7018 150.389 54.238C152.398 51.9161 154.576 50.0045 156.797 48.6766C159.936 46.7956 163.443 46.1712 166.794 46.1712C169.928 46.1712 172.912 46.7191 175.274 47.2748C176.454 47.5526 177.477 47.833 178.3 48.0394C178.709 48.1439 179.067 48.2357 179.381 48.2943C179.537 48.3274 179.68 48.3555 179.819 48.3758C179.951 48.3958 180.085 48.4069 180.22 48.409C180.409 48.4119 180.597 48.3809 180.775 48.3172C180.92 48.2655 181.055 48.1868 181.171 48.0853C181.339 47.9393 181.464 47.7509 181.534 47.5398C181.59 47.3697 181.618 47.1914 181.616 47.0123C181.607 46.712 181.561 46.414 181.478 46.1253C181.362 45.6996 181.209 45.2714 181.089 44.8917C181.03 44.7005 180.979 44.5246 180.948 44.3819C180.92 44.2727 180.904 44.1607 180.9 44.048V43.9996L180.81 43.9818L180.897 44.0123V43.9996L180.808 43.9818L180.895 44.0123L180.639 43.9206L180.859 44.0888C180.877 44.0655 180.892 44.0397 180.902 44.0123L180.647 43.9206L180.867 44.0888L180.611 43.9002L180.729 44.1933C180.78 44.1691 180.824 44.1333 180.859 44.0888L180.603 43.9002L180.721 44.1933L180.665 44.0531L180.703 44.1984H180.721L180.665 44.0582L180.703 44.2035V44.1755V44.2035V44.1755V44.2035H180.754C180.79 44.2014 180.826 44.2014 180.861 44.2035C181.061 44.2281 181.254 44.2885 181.431 44.3819C181.806 44.589 182.137 44.8669 182.405 45.2001C182.841 45.7365 183.205 46.3268 183.489 46.9562C183.615 47.2111 183.712 47.4659 183.773 47.6214L183.842 47.81L183.86 47.8584L184.159 47.7616L183.86 47.8584L184.159 47.7616L183.86 47.8584L184.003 48.2968L184.456 48.3911C191.357 49.8732 197.65 53.3961 202.513 58.4996C204.696 60.761 206.531 63.3337 207.955 66.1332C209.228 68.5971 210.025 71.2772 210.307 74.0344C210.484 75.6772 210.821 77.2989 211.311 78.8771C212.226 82.007 213.661 85.6186 215.297 89.294C220.202 100.31 226.93 111.876 226.938 111.889L227.628 111.489L228.055 110.813L227.612 111.471Z" fill="white"/>
<path d="M168.456 57.1182C168.456 57.1182 150.647 58.3926 148.356 71.3913C146.066 84.3901 151.204 111.833 168.456 110.553C177.083 108.723 180.938 106.343 180.938 106.343C180.938 106.343 169.18 111.468 169.18 114.394C169.18 117.32 180.327 135.745 185.879 122.629C186.751 120.57 185.879 111.101 185.879 111.101L186.861 82.6926C186.552 81.7649 188.523 77.3733 185.212 75.0463C180.417 71.6955 176.2 67.5894 172.728 62.8886L168.456 57.1182Z" fill="white"/>
<path d="M142.408 77.2892C142.732 78.9903 143.35 80.6221 144.236 82.1115C145.018 83.4532 146.087 84.6064 147.367 85.4886C148.95 86.538 150.815 87.0829 152.715 87.051C152.871 87.051 153.027 87.051 153.183 87.051C155.12 86.9746 156.669 86.5107 157.878 85.797C158.716 85.3062 159.449 84.6558 160.036 83.8829C160.75 82.9155 161.255 81.8106 161.518 80.6383C161.701 79.8621 161.795 79.0677 161.797 78.2705C161.797 77.9977 161.784 77.8346 161.784 77.8142L160.854 77.8881V78.8184H168.745V77.8881L167.812 77.9085C167.834 78.3874 167.887 78.8642 167.973 79.3359C168.105 80.097 168.307 80.8444 168.576 81.5686C169.085 82.9911 169.951 84.2599 171.092 85.2541C171.772 85.8271 172.552 86.2719 173.392 86.5667C174.383 86.9074 175.425 87.0755 176.472 87.0638H176.754C178.569 87.0373 180.358 86.6282 182.004 85.8633C183.774 85.0261 185.303 83.7555 186.447 82.1701C186.963 81.4821 187.387 80.7298 187.707 79.9323L185.953 79.3002L186.293 79.4225L185.953 79.2951L186.293 79.4174L185.953 79.29C185.488 80.3838 184.814 81.3775 183.97 82.216C183.16 83.0418 182.208 83.7153 181.158 84.204C179.763 84.8353 178.252 85.1695 176.72 85.1853H176.485C174.767 85.1853 173.561 84.7291 172.638 84.074C171.981 83.5936 171.426 82.987 171.007 82.2899C170.461 81.3607 170.079 80.3452 169.877 79.2874C169.79 78.8541 169.744 78.4871 169.719 78.2348L169.696 77.9442C169.696 77.9111 169.696 77.8881 169.696 77.8754V77.8601L169.675 76.9502H159.847L159.926 77.9544L160.511 77.9085L159.926 77.9519L160.511 77.906L159.926 77.9493V77.9672C159.926 78.0079 159.926 78.1099 159.926 78.2603C159.923 78.8218 159.866 79.3817 159.755 79.9323C159.639 80.5171 159.457 81.0868 159.21 81.6298C158.784 82.5746 158.108 83.386 157.255 83.9772C156.306 84.622 154.995 85.1063 153.101 85.1828H152.702C151.173 85.2158 149.67 84.7818 148.395 83.9389C147.594 83.3895 146.896 82.7046 146.332 81.9152C145.606 80.8934 145.04 79.7676 144.652 78.5763C144.494 78.0971 144.397 77.6919 144.325 77.4115C144.292 77.2713 144.269 77.1566 144.256 77.0904C144.243 77.0241 144.256 77.0267 144.241 77.0114V76.9935L143.88 77.0521L144.241 76.9961L143.88 77.0547L144.241 76.9986L142.398 77.2866L142.408 77.2892Z" fill="#F1AB1E"/>
<path d="M223.579 138.246C223.579 138.246 228.845 132.06 237.986 133.301L223.579 138.246Z" fill="white"/>
<path d="M224.292 138.847L223.855 138.478L224.289 138.85L223.852 138.48L224.287 138.852C225.208 137.875 226.264 137.033 227.423 136.352C229.879 134.856 232.702 134.065 235.58 134.066C236.341 134.067 237.101 134.118 237.855 134.221L238.111 132.379C237.273 132.263 236.428 132.206 235.583 132.205C232.271 132.205 229.028 133.14 226.227 134.902C224.984 135.651 223.854 136.571 222.868 137.634L224.292 138.837V138.847Z" fill="#231F20"/>
<path d="M63.75 58.5123L59.3405 43.1279L58.4432 43.3828L57.569 43.7065C58.1138 45.0781 58.8245 46.3783 59.6856 47.578C60.4228 48.6297 61.3308 49.5514 62.3722 50.3052C62.9275 50.7006 63.5348 51.018 64.1769 51.2483C64.8579 51.4905 65.5755 51.6147 66.2985 51.6153C67.7269 51.5841 69.1187 51.1588 70.3195 50.3868C71.7254 49.5381 73.1825 48.2331 74.7213 46.3572L73.9979 45.7684L73.07 45.8653C73.28 47.705 73.5958 49.5313 74.0158 51.3349C74.182 52.0231 74.3711 52.7138 74.591 53.374C74.8731 54.3041 75.2826 55.1909 75.8077 56.0094C76.0524 56.3781 76.3605 56.7008 76.7178 56.9627C76.9033 57.0945 77.1063 57.2 77.321 57.2762C77.5474 57.3571 77.7861 57.3985 78.0266 57.3985C78.5147 57.3885 78.989 57.2342 79.389 56.955C79.7159 56.7305 80.0115 56.464 80.2684 56.1623C80.7562 55.5826 81.1796 54.952 81.5312 54.2813C82.0252 53.3547 82.464 52.3998 82.8451 51.4216C85.795 44.0582 87.3798 39.4194 88.2285 36.6055C89.0772 33.7917 89.1999 32.8028 89.2101 32.7187L87.3773 32.3848C87.3773 32.4001 86.7638 34.7908 86.1503 38.1017C85.5368 41.4125 84.9233 45.641 84.9233 49.3724C84.8843 51.089 85.0743 52.8032 85.4882 54.4699C85.6753 55.1782 85.9646 55.8557 86.3471 56.4809C86.7116 57.0756 87.2161 57.5725 87.8169 57.9286C88.6406 58.3954 89.5742 58.6347 90.5214 58.6219C91.3504 58.6107 92.1732 58.4767 92.9627 58.2243C94.428 57.7385 95.8209 57.0578 97.1038 56.2006C98.9205 54.9992 100.631 53.6451 102.216 52.1531C103.54 50.9271 104.379 50.0147 104.392 49.9994L103.701 49.3724L102.781 49.222C102.407 51.7332 102.217 54.2684 102.214 56.8072C102.214 59.4146 102.434 62.3049 103.19 64.8562C103.539 66.0983 104.085 67.277 104.806 68.3481C105.51 69.3914 106.48 70.2282 107.618 70.772L108.405 69.0847C107.568 68.6806 106.854 68.0601 106.339 67.2878C105.488 66.0745 104.905 64.3949 104.55 62.5445C104.218 60.6504 104.06 58.73 104.077 56.8072C104.077 54.8217 104.215 52.984 104.351 51.6637C104.42 51.0011 104.489 50.4607 104.54 50.0911C104.565 49.9051 104.586 49.7623 104.601 49.6655C104.601 49.6171 104.614 49.5814 104.617 49.5559V49.5304L105.128 46.4438L103.016 48.7403C101.611 50.229 100.102 51.6165 98.4995 52.8923C97.2325 53.9202 95.8698 54.8249 94.4299 55.594C93.7754 55.9386 93.0909 56.2235 92.3849 56.4453C91.7831 56.6383 91.1561 56.7422 90.524 56.7537C89.8982 56.7676 89.2802 56.6135 88.7346 56.3076C88.3953 56.1012 88.1118 55.8151 87.909 55.4742C87.4661 54.7015 87.1738 53.8523 87.0475 52.9713C86.8519 51.7792 86.7604 50.5725 86.774 49.3647C86.774 45.8347 87.3696 41.6827 87.9729 38.433C88.2745 36.8069 88.5736 35.4025 88.7985 34.4085C88.9136 33.8987 89.0056 33.519 89.0721 33.2488C89.1053 33.1137 89.1308 33.0092 89.1462 32.9404C89.1615 32.8716 89.1615 32.8792 89.1666 32.8614V32.8359L88.2643 32.6065L87.3364 32.5046L87.9499 32.5734L87.3389 32.4995L87.9524 32.5683L87.3415 32.4944C87.3287 32.5963 87.1677 33.6592 86.319 36.4424C85.4703 39.2257 83.9059 43.7243 81.1094 50.7156C80.3425 52.6425 79.6395 53.9271 79.0644 54.6688C78.8656 54.9447 78.624 55.1873 78.3486 55.3875C78.282 55.4336 78.2099 55.4713 78.1339 55.4997C78.0971 55.5131 78.0581 55.52 78.0189 55.52C77.9741 55.5204 77.93 55.5089 77.8911 55.4869C77.8097 55.4486 77.7354 55.3969 77.6712 55.334C77.4422 55.1032 77.2492 54.8394 77.0986 54.5515C76.6885 53.7602 76.3654 52.927 76.1349 52.0664C75.7405 50.6511 75.4306 49.2136 75.207 47.7616C75.1073 47.1397 75.0358 46.6121 74.9872 46.2323C74.9642 46.0437 74.9463 45.8984 74.9361 45.799C74.9361 45.748 74.9361 45.7098 74.9233 45.6843C74.9223 45.6724 74.9223 45.6605 74.9233 45.6486L74.6907 43.4261L73.2745 45.1567C71.8353 46.9154 70.5163 48.07 69.3532 48.7734C68.1902 49.4769 67.183 49.7318 66.2858 49.7343C65.7754 49.7365 65.2685 49.6503 64.7878 49.4794C63.9322 49.1555 63.1557 48.6532 62.5102 48.0062C61.5576 47.0517 60.7544 45.9596 60.1278 44.7667C59.8543 44.257 59.6498 43.8288 59.5117 43.5178C59.4453 43.3649 59.3941 43.2426 59.3609 43.161L59.3251 43.0693V43.0489L59.1871 43.0998L59.3251 43.0489L59.1871 43.0998L59.3251 43.0489L57.5536 43.6274L61.9632 59.0119L63.7525 58.5021L63.75 58.5123Z" fill="#231F20"/>
<path d="M121.501 37.8978L120.611 38.1808C121.038 39.5138 121.444 40.9105 121.743 42.1772C121.894 42.8093 122.014 43.4083 122.099 43.9461C122.174 44.403 122.216 44.8646 122.224 45.3275C122.226 45.493 122.215 45.6583 122.191 45.822C122.18 45.8903 122.164 45.9576 122.142 46.0234L122.127 46.0539L122.329 46.1839L122.214 45.98C122.18 45.9984 122.15 46.0236 122.127 46.0539L122.329 46.1839L122.214 45.98L122.339 46.2018V45.9469C122.295 45.9509 122.252 45.9639 122.214 45.9851L122.339 46.2069V45.952H122.326L122.278 46.8797L122.341 45.952C122.128 45.9247 121.921 45.86 121.731 45.7608C121.069 45.4174 120.449 44.9992 119.882 44.5145C118.705 43.5255 117.59 42.4649 116.544 41.3387C115.442 40.1765 114.41 38.9989 113.625 38.0763L113.369 37.7679L112.963 37.75C106.649 37.4773 101.005 35.3312 96.9734 32.0764C95.0342 30.5435 93.4249 28.6364 92.2418 26.4691C91.1025 24.3759 90.5161 22.0282 90.5375 19.6468C90.559 17.2653 91.1877 14.9285 92.3645 12.8561C94.136 9.64716 97.1319 6.87153 100.943 4.90133C104.755 2.93112 109.366 1.77142 114.346 1.77142C120.992 1.77142 126.976 3.83593 131.273 7.12386C133.334 8.66558 135.054 10.6154 136.324 12.851C137.515 14.9649 138.144 17.3466 138.154 19.7709C138.149 21.747 137.728 23.6998 136.917 25.5031C135.713 28.2099 133.666 30.6542 130.987 32.6397C128.09 34.7364 124.792 36.2188 121.299 36.9956L120.314 37.2224L120.621 38.1833L121.511 37.9004L121.72 38.8078C126.963 37.5945 131.513 35.1273 134.778 31.8139C136.38 30.2073 137.679 28.326 138.612 26.2601C139.528 24.2194 140.004 22.0093 140.008 19.7735C139.998 17.0356 139.289 14.3453 137.947 11.9564C135.964 8.37022 132.684 5.3652 128.597 3.24971C124.178 1.01993 119.288 -0.123994 114.335 -0.0866381C107.311 -0.0866381 100.933 2.08747 96.273 5.65067C94.0063 7.34769 92.1161 9.49365 90.7208 11.9538C89.3935 14.2969 88.6848 16.9377 88.6611 19.6286C88.6374 22.3195 89.2995 24.9723 90.5854 27.3382C92.4412 30.825 95.5164 33.7816 99.366 35.92C103.521 38.1731 108.144 39.4347 112.871 39.6055L112.912 38.6752L112.201 39.2767C113.719 41.0833 115.327 42.8127 117.019 44.4584C117.85 45.2681 118.738 46.016 119.678 46.6962C120.076 46.9796 120.496 47.2294 120.936 47.443C121.336 47.6413 121.769 47.764 122.214 47.805H122.336C122.657 47.808 122.971 47.7138 123.236 47.5348C123.423 47.4056 123.583 47.24 123.704 47.048C123.859 46.791 123.965 46.5075 124.016 46.212C124.068 45.9184 124.093 45.6206 124.09 45.3224C124.082 44.7639 124.033 44.2067 123.942 43.6555C123.569 41.6059 123.05 39.5855 122.388 37.6098L121.501 37.8927L121.71 38.8001L121.501 37.8978Z" fill="#231F20"/>
<path d="M183.538 59.3102C183.538 59.3102 178.198 48.3122 196.702 59.7282C210.711 68.3736 210.982 83.8651 213.318 89.3169C215.654 94.7688 220.22 101.51 224.565 107.444C227.047 110.846 231.874 121.304 233.747 128.002C235.621 134.701 241.513 149.542 238.295 156.212C233.747 165.643 220.097 167.824 214.629 168.602C209.162 169.379 198.047 165.684 195.01 156.337C195.01 156.337 180.204 156.179 181.247 144.029C182.29 131.879 191.35 119.38 191.35 95.8571C191.352 79.7412 183.538 59.3102 183.538 59.3102Z" fill="#231F20"/>
<path d="M165.931 148.742L188.51 195.239L250.09 178.425L243.993 155.264L241.158 156.008L246.518 176.371L190.087 191.778L168.566 147.467L165.931 148.742Z" fill="#231F20"/>
<path d="M168.456 57.1181L168.39 56.1929C165.134 56.513 161.942 57.2984 158.911 58.5251C156.465 59.5293 153.919 60.9591 151.812 63.016C150.725 64.0705 149.799 65.2778 149.062 66.5996C148.268 68.0434 147.72 69.6083 147.439 71.2307C147.072 73.447 146.896 75.6904 146.912 77.9366C146.919 81.6292 147.286 85.3125 148.006 88.9346C149.139 94.5725 151.158 100.149 154.289 104.385C155.779 106.467 157.679 108.224 159.875 109.547C162.123 110.857 164.684 111.54 167.288 111.524C167.692 111.524 168.098 111.509 168.512 111.479H168.576H168.638C177.37 109.626 181.329 107.204 181.419 107.146L180.552 105.502C180.537 105.502 177.582 106.796 174.596 108.471C173.136 109.263 171.742 110.173 170.429 111.191C169.879 111.62 169.381 112.112 168.944 112.656C168.749 112.905 168.586 113.176 168.456 113.464C168.324 113.76 168.253 114.08 168.249 114.405C168.253 114.646 168.284 114.886 168.344 115.121C168.479 115.645 168.658 116.156 168.88 116.65C169.409 117.844 170.028 118.997 170.731 120.098C171.954 122.078 173.428 123.892 175.118 125.494C175.927 126.256 176.833 126.91 177.812 127.439C178.723 127.936 179.739 128.208 180.777 128.234C181.367 128.234 181.951 128.127 182.503 127.918C183.415 127.552 184.22 126.964 184.847 126.208C185.643 125.245 186.285 124.164 186.748 123.004C186.859 122.73 186.939 122.446 186.989 122.155C187.08 121.64 187.138 121.12 187.163 120.598C187.196 120.022 187.209 119.392 187.209 118.737C187.209 116.997 187.111 115.075 187.014 113.584C186.917 112.093 186.82 111.035 186.817 111.035L185.89 111.119L186.823 111.15L187.791 82.5754L187.738 82.4173L187.459 82.5091L187.753 82.4759C187.75 82.4559 187.745 82.4363 187.738 82.4173L187.459 82.5091L187.753 82.4759C187.752 82.4615 187.752 82.447 187.753 82.4326C187.759 82.2789 187.775 82.1257 187.799 81.9738C187.843 81.6552 187.914 81.2372 187.978 80.7606C188.05 80.2377 188.089 79.7107 188.093 79.1829C188.11 78.3116 187.954 77.4456 187.635 76.6341C187.245 75.6898 186.588 74.8788 185.744 74.2995C181.03 71.0076 176.886 66.9718 173.474 62.3508L168.906 56.1598L168.395 56.198L168.461 57.1232L167.712 57.6763L171.976 63.4544C175.509 68.2362 179.798 72.4137 184.675 75.8236C185.23 76.1957 185.661 76.7235 185.915 77.3402C186.138 77.9241 186.246 78.5455 186.232 79.1702C186.223 79.7586 186.17 80.3456 186.074 80.9263C186.033 81.2016 185.989 81.4615 185.956 81.7062C185.919 81.9425 185.899 82.1809 185.895 82.4199C185.89 82.6125 185.918 82.8046 185.976 82.9883L186.861 82.6977L185.928 82.6646L184.957 111.127V111.183C184.957 111.183 184.957 111.198 184.957 111.229C185 111.69 185.337 115.582 185.337 118.722C185.337 119.558 185.312 120.341 185.256 120.975C185.227 121.291 185.192 121.572 185.148 121.796C185.122 121.956 185.08 122.113 185.023 122.265C184.346 123.866 183.604 124.905 182.886 125.52C182.575 125.795 182.217 126.013 181.83 126.165C181.492 126.294 181.132 126.36 180.769 126.358C180.186 126.345 179.611 126.213 179.08 125.971C178.034 125.52 176.909 124.674 175.846 123.613C174.249 121.972 172.867 120.136 171.733 118.149C171.272 117.365 170.864 116.552 170.511 115.715C170.391 115.429 170.287 115.137 170.199 114.84C170.155 114.694 170.126 114.544 170.112 114.392C170.119 114.321 170.138 114.252 170.169 114.188C170.341 113.854 170.57 113.553 170.846 113.298C171.679 112.52 172.592 111.831 173.569 111.241C175.227 110.213 176.939 109.271 178.696 108.42C179.463 108.045 180.112 107.739 180.575 107.525L181.117 107.27L181.26 107.207L181.309 107.186L180.936 106.333L180.445 105.542L180.588 105.777L180.445 105.542L180.588 105.777L180.445 105.542C180.412 105.563 176.646 107.854 168.262 109.62L168.453 110.53L168.387 109.603C168.016 109.628 167.653 109.643 167.298 109.643C165.766 109.651 164.244 109.383 162.807 108.853C160.401 107.959 158.321 106.345 156.541 104.204C153.875 100.998 151.915 96.6115 150.642 91.9294C149.415 87.3565 148.787 82.6446 148.773 77.9111C148.76 75.7764 148.932 73.6446 149.284 71.5391C149.529 70.1176 150.008 68.7465 150.703 67.4815C151.854 65.4682 153.463 63.7527 155.401 62.4731C158.213 60.5411 161.536 59.4146 164.11 58.7901C165.404 58.4766 166.518 58.2804 167.306 58.1733C167.699 58.1173 168.009 58.0816 168.221 58.0612C168.326 58.0484 168.405 58.0433 168.459 58.0382H168.517H168.533L168.456 57.1181L167.707 57.6712L168.456 57.1181Z" fill="#231F20"/>
<path d="M148.561 66.0439L148.53 65.8502L148.561 66.0439L148.53 65.8502L148.561 66.0439C149.239 65.955 149.922 65.9124 150.606 65.9165C151.676 65.9135 152.744 66.016 153.793 66.2224C154.686 66.3947 155.553 66.6746 156.378 67.0558C157.681 67.6439 158.789 68.5899 159.573 69.783C160.396 71.0574 160.943 72.788 160.946 75.1915C160.946 75.4693 160.946 75.7573 160.923 76.0581C160.652 81.2958 159.711 84.385 158.763 86.1589C158.422 86.8363 157.967 87.4495 157.416 87.9711C157.147 88.2261 156.832 88.4284 156.488 88.5675C156.335 88.6249 156.197 88.7157 156.083 88.8332C155.97 88.9506 155.885 89.0919 155.833 89.2465C155.782 89.4012 155.766 89.5653 155.786 89.727C155.806 89.8886 155.863 90.0437 155.951 90.1809C156.074 90.3706 156.252 90.5182 156.462 90.604L159.162 91.6592L159.841 89.926L157.142 88.8734L156.858 89.587L157.505 89.169C157.417 89.0361 157.29 88.933 157.142 88.8734L156.858 89.587L157.505 89.169L156.858 89.587H157.625C157.625 89.4389 157.583 89.2939 157.503 89.169L156.856 89.587L157.5 90.0127C157.584 89.8865 157.628 89.7384 157.628 89.587H156.861L157.505 90.0127L156.861 89.587L157.132 90.3083C157.285 90.2518 157.415 90.1483 157.505 90.0127L156.861 89.587L157.132 90.3083C157.7 90.0881 158.22 89.762 158.666 89.3474C159.527 88.5701 160.455 87.288 161.222 85.2031C161.989 83.1182 162.579 80.2177 162.791 76.155C162.809 75.8262 162.817 75.505 162.817 75.1941C162.817 72.8059 162.321 70.8611 161.477 69.3319C160.887 68.2521 160.08 67.3048 159.108 66.5486C157.79 65.5597 156.275 64.8643 154.665 64.5096C153.336 64.2049 151.975 64.0544 150.611 64.061C149.828 64.0553 149.045 64.1047 148.269 64.2088L148.556 66.0465L148.561 66.0439Z" fill="#231F20"/>
<path d="M158.499 96.9658L158.822 97.8375L158.934 97.7967C159.484 97.5953 162.002 96.6778 164.813 95.7831C166.214 95.3371 167.679 94.8936 168.993 94.5521C169.647 94.3788 170.271 94.2335 170.813 94.1239C171.269 94.0258 171.731 93.9552 172.196 93.9123L172.124 92.9846L171.212 92.7985C170.963 93.9109 170.621 95.0005 170.189 96.0559C169.872 96.854 169.458 97.6107 168.957 98.309C168.744 98.5991 168.497 98.8627 168.221 99.094C168.005 99.2779 167.756 99.4189 167.487 99.5095C166.777 99.7156 166.039 99.8135 165.299 99.8C163.906 99.8136 162.527 99.5267 161.255 98.9589C160.755 98.7342 160.304 98.4118 159.931 98.0108C159.789 97.85 159.671 97.6697 159.581 97.4755C159.498 97.29 159.447 97.0918 159.43 96.8893L158.502 96.9658L158.824 97.8375L158.502 96.9658L157.572 97.0422C157.607 97.4533 157.71 97.8556 157.878 98.2325C158.169 98.8638 158.607 99.4163 159.156 99.8434C160.012 100.491 160.989 100.961 162.03 101.225C163.092 101.514 164.188 101.661 165.289 101.661C166.276 101.661 167.055 101.406 167.878 101.138C168.39 100.975 169.011 100.848 169.412 100.519C170.099 99.9209 170.673 99.2053 171.107 98.4058C171.716 97.299 172.206 96.1311 172.569 94.9217C172.881 93.9149 173.029 93.1936 173.034 93.1732L173.29 91.9625L172.055 92.0594C171.474 92.108 170.896 92.1932 170.325 92.3143C169.205 92.5462 167.894 92.8979 166.552 93.293C162.52 94.4909 158.185 96.089 158.175 96.089L157.51 96.3439L157.569 97.0473L158.499 96.9658Z" fill="#231F20"/>
<path d="M169.141 70.4968L168.965 70.3591L169.141 70.4968L168.965 70.3591L169.141 70.4968C169.665 69.8549 170.242 69.258 170.867 68.7126C172.211 67.5033 173.752 66.5318 175.424 65.8402L174.732 64.1146C172.836 64.8955 171.09 65.9975 169.571 67.372C168.881 67.9779 168.244 68.6394 167.664 69.3498L169.141 70.4866V70.4968Z" fill="#231F20"/>
<path d="M156.598 74.1389C156.598 74.625 156.453 75.1001 156.182 75.5042C155.911 75.9083 155.526 76.2233 155.076 76.4091C154.625 76.595 154.13 76.6436 153.652 76.5485C153.174 76.4535 152.735 76.2193 152.39 75.8754C152.046 75.5315 151.811 75.0935 151.716 74.6167C151.621 74.1399 151.671 73.6458 151.858 73.1969C152.044 72.748 152.361 72.3644 152.766 72.0947C153.172 71.8251 153.649 71.6814 154.136 71.6819C154.459 71.6819 154.78 71.7455 155.079 71.869C155.377 71.9925 155.649 72.1735 155.878 72.4017C156.106 72.6299 156.287 72.9008 156.411 73.1988C156.535 73.4969 156.598 73.8164 156.598 74.1389Z" fill="#231F20"/>
<path d="M177.377 74.1389C177.377 74.6249 177.233 75.0999 176.962 75.504C176.691 75.908 176.306 76.2229 175.856 76.4089C175.406 76.5949 174.91 76.6435 174.432 76.5487C173.954 76.4539 173.515 76.2199 173.171 75.8763C172.826 75.5327 172.591 75.0949 172.496 74.6183C172.401 74.1416 172.45 73.6476 172.636 73.1986C172.823 72.7497 173.139 72.3659 173.544 72.096C173.949 71.826 174.426 71.6819 174.913 71.6819C175.567 71.6819 176.193 71.9407 176.656 72.4015C177.118 72.8623 177.377 73.4873 177.377 74.1389Z" fill="#231F20"/>
<path d="M105.703 14.1352L95 21.0419L105.08 25.8867C105.181 25.945 105.293 25.9818 105.409 25.9948C105.525 26.0077 105.643 25.9966 105.754 25.962C105.865 25.9275 105.968 25.8702 106.056 25.794C106.145 25.7177 106.216 25.624 106.266 25.5188C106.316 25.4137 106.344 25.2992 106.348 25.1828C106.352 25.0664 106.331 24.9504 106.288 24.8423C106.244 24.7341 106.179 24.6361 106.096 24.5544C106.013 24.4727 105.914 24.409 105.805 24.3674L98.4406 20.8273L106.614 15.5532C106.707 15.493 106.787 15.4151 106.85 15.3239C106.913 15.2326 106.958 15.1299 106.981 15.0215C107.004 14.9131 107.006 14.8012 106.986 14.6922C106.966 14.5831 106.925 14.4791 106.865 14.386C106.804 14.2929 106.726 14.2125 106.635 14.1495C106.544 14.0865 106.441 14.0421 106.332 14.0188C106.224 13.9955 106.112 13.9938 106.003 14.0138C105.893 14.0338 105.789 14.075 105.696 14.1352H105.703Z" fill="#231F20"/>
<path d="M105.595 14.1464L94 21.6287L104.92 26.8773C105.03 26.9404 105.151 26.9803 105.277 26.9943C105.402 27.0084 105.529 26.9963 105.65 26.9588C105.771 26.9214 105.882 26.8594 105.978 26.7768C106.073 26.6942 106.151 26.5927 106.205 26.4787C106.259 26.3648 106.29 26.2408 106.294 26.1147C106.298 25.9886 106.275 25.8629 106.228 25.7458C106.181 25.6286 106.111 25.5224 106.021 25.4339C105.931 25.3454 105.823 25.2764 105.705 25.2314L97.7273 21.3962L106.581 15.6826C106.682 15.6174 106.769 15.533 106.838 15.4342C106.906 15.3354 106.954 15.2241 106.98 15.1066C107.005 14.9892 107.007 14.868 106.985 14.7499C106.963 14.6317 106.919 14.519 106.853 14.4181C106.788 14.3173 106.704 14.2302 106.605 14.162C106.506 14.0937 106.394 14.0456 106.277 14.0204C106.159 13.9952 106.038 13.9933 105.92 14.0149C105.801 14.0366 105.688 14.0812 105.587 14.1464H105.595Z" fill="#231F20"/>
<path d="M115.272 10.6162L109.057 28.8677C109.015 28.9736 108.996 29.0864 109.001 29.1995C109.006 29.3126 109.035 29.4235 109.086 29.5256C109.137 29.6276 109.21 29.7186 109.299 29.7932C109.388 29.8677 109.492 29.9241 109.605 29.9591C109.718 29.9941 109.837 30.0068 109.955 29.9966C110.073 29.9863 110.188 29.9533 110.292 29.8995C110.396 29.8457 110.488 29.7723 110.562 29.6836C110.635 29.595 110.689 29.493 110.721 29.3838L116.943 11.1323C116.985 11.0264 117.004 10.9136 116.999 10.8005C116.994 10.6874 116.965 10.5765 116.914 10.4744C116.863 10.3724 116.79 10.2814 116.701 10.2068C116.612 10.1323 116.508 10.0759 116.395 10.0409C116.282 10.0059 116.163 9.99319 116.045 10.0034C115.927 10.0137 115.812 10.0467 115.708 10.1005C115.604 10.1543 115.512 10.2277 115.438 10.3164C115.365 10.405 115.311 10.507 115.279 10.6162" fill="#231F20"/>
<path d="M116.056 10.6778L109.064 30.7545C109.017 30.8709 108.995 30.9951 109.001 31.1195C109.007 31.2439 109.039 31.3659 109.097 31.4781C109.155 31.5904 109.236 31.6905 109.337 31.7725C109.437 31.8544 109.554 31.9165 109.681 31.955C109.808 31.9935 109.942 32.0075 110.074 31.9962C110.207 31.985 110.336 31.9487 110.453 31.8895C110.571 31.8303 110.674 31.7495 110.757 31.652C110.84 31.5545 110.901 31.4423 110.936 31.3222L117.936 11.2455C117.983 11.1291 118.005 11.0049 117.999 10.8805C117.993 10.7561 117.961 10.6341 117.903 10.5219C117.845 10.4096 117.764 10.3095 117.663 10.2275C117.563 10.1456 117.446 10.0835 117.319 10.045C117.192 10.0065 117.058 9.99251 116.926 10.0038C116.793 10.015 116.664 10.0513 116.547 10.1105C116.429 10.1697 116.326 10.2505 116.243 10.348C116.16 10.4455 116.099 10.5577 116.064 10.6778" fill="#231F20"/>
<path d="M121.16 16.5559L128.762 20.9363L120.378 26.4722C120.186 26.5991 120.055 26.7934 120.014 27.0123C119.973 27.2312 120.024 27.4569 120.157 27.6396C120.29 27.8224 120.494 27.9472 120.723 27.9867C120.953 28.0262 121.189 27.9771 121.381 27.8502L132 20.8286L122.068 15.1205C121.869 15.0057 121.629 14.9711 121.403 15.0245C121.177 15.0779 120.982 15.2149 120.862 15.4052C120.741 15.5955 120.705 15.8237 120.761 16.0395C120.817 16.2553 120.961 16.4411 121.16 16.5559Z" fill="#231F20"/>
<path d="M122.257 16.6756L130.492 21.3929L121.409 27.3546C121.202 27.4913 121.06 27.7005 121.015 27.9363C120.97 28.1721 121.026 28.4151 121.17 28.6119C121.314 28.8087 121.535 28.9431 121.784 28.9857C122.032 29.0282 122.289 28.9753 122.496 28.8386L134 21.277L123.241 15.1298C123.024 15.0061 122.765 14.9689 122.52 15.0264C122.275 15.0839 122.064 15.2314 121.934 15.4364C121.803 15.6414 121.764 15.8871 121.825 16.1195C121.885 16.3519 122.041 16.5519 122.257 16.6756Z" fill="#231F20"/>
</g>
<defs>
<clipPath id="clip0_1890_1397">
<rect width="250" height="209" fill="white"/>
</clipPath>
</defs>
</svg>
