<svg width="514" height="571" viewBox="0 0 514 571" fill="none" xmlns="http://www.w3.org/2000/svg">
<path d="M334.553 344.28V381.824L368.092 392.449L372.912 345.988L334.553 344.28Z" fill="white" stroke="#231F20" stroke-width="7.81" stroke-miterlimit="10"/>
<path d="M364.57 373.053C364.57 373.053 328.032 352.835 299.292 368.361C270.551 383.888 236.614 421.878 236.614 421.878C236.614 421.878 266.053 483.607 281.591 493.416L299.292 476.684C299.292 476.684 293.447 530.64 313.08 539.222C332.712 547.804 478.683 534.725 478.683 534.725L472.545 432.538C472.545 432.538 380.486 371.241 364.57 373.053Z" fill="#2F3841" stroke="#231F20" stroke-width="7.81" stroke-miterlimit="10"/>
<path d="M296.516 566.58C296.516 566.58 304.006 542.178 328.479 542.115C352.951 542.053 458.722 531.26 466.248 535.757C473.773 540.254 487.868 570.875 487.868 570.875L296.516 566.58Z" fill="#2F3841"/>
<path d="M204.721 29.8817C194.497 30.6765 29.2917 87.5116 29.2917 87.5116C10.9425 93.7863 8.84325 107.138 8.84325 110.4C8.84325 113.663 1.49941 210.552 0.271943 227.285C-0.95552 244.017 10.9007 243.634 18.6699 242.407C26.4392 241.18 216.319 165.374 219.444 157.816C222.645 150.057 226.418 65.8498 228.029 43.7767C229.64 21.7036 214.945 29.066 204.721 29.8817ZM207.511 60.3281C206.165 78.4551 203.089 147.428 200.467 153.794C197.914 159.985 42.2986 222.118 35.9381 223.136C29.5776 224.154 19.8486 224.475 20.8529 210.74C21.8571 197.006 27.8968 117.616 27.8968 114.932C27.8968 112.248 29.6195 101.33 44.635 96.1707C44.635 96.1707 180.025 49.6122 188.402 48.936C196.778 48.2597 208.822 42.2359 207.483 60.3281H207.511Z" fill="#EE4947"/>
<path d="M17.854 269.813C17.854 269.813 89.821 329.074 111.901 344.211C133.982 359.347 188.771 324.194 210.447 312.739C232.123 301.284 320.849 257.557 324.936 248.563C329.023 239.569 237.43 169.264 232.527 166.406C227.625 163.547 213.697 166.406 203.494 172.13C193.29 177.854 24.877 243.661 20.7692 248.974C16.6614 254.287 10.9007 257.557 17.854 269.813Z" fill="#EE4947"/>
<path d="M43.0867 267.624C43.0867 267.624 103.107 317.055 121.519 329.674C139.931 342.293 185.626 312.942 203.703 303.425C221.78 293.908 295.763 257.41 299.18 249.908C302.597 242.407 226.209 183.773 222.115 181.388C218.021 179.004 206.43 181.388 197.907 186.157C189.385 190.926 48.945 245.816 45.5067 250.25C42.0684 254.684 37.2911 257.403 43.0867 267.624Z" fill="#2F3841"/>
<path d="M337.503 244.658C337.503 244.658 357.645 208.913 410.781 229.376C463.918 249.839 474.596 341.352 480.726 355.658C486.856 369.965 513.847 411.664 513.847 422.7C513.847 433.737 492.582 439.433 497.492 457.037C502.402 474.641 506.077 492.594 489.311 502.403C472.545 512.213 428.384 520.802 414.073 522.845C399.762 524.888 370.673 513.035 362.729 488.508C362.729 488.508 323.973 488.097 326.7 456.214C329.427 424.332 366.683 373.2 368.092 365.656C369.501 358.112 337.503 244.658 337.503 244.658Z" fill="#231F20"/>
<path d="M310.485 320.917C310.485 320.917 284.458 275.955 277.916 273.906C271.374 271.856 225.016 248.974 228.155 239.137C231.293 229.299 256.24 242.211 261.15 242.922C266.06 243.634 269.163 230.959 266.178 221.561C263.193 212.162 231.251 205.672 228.001 204.012C224.751 202.353 221.076 190.11 238.658 187.28C238.658 187.28 229.257 174.2 243.972 173.789C252.809 173.545 257.516 174.626 259.873 175.525C260.055 175.594 260.251 175.617 260.443 175.589C260.636 175.562 260.818 175.486 260.973 175.369C261.128 175.252 261.25 175.097 261.329 174.919C261.407 174.742 261.439 174.547 261.422 174.354C261.017 170.463 263.089 163.896 286.09 173.754C286.09 173.754 284.283 163.993 299.292 170.93C314.3 177.868 348.655 250.633 348.655 250.633L310.485 320.917Z" fill="white" stroke="#231F20" stroke-width="7.81" stroke-miterlimit="10"/>
<path d="M341.29 244.659C341.29 244.659 290.302 266.969 304.327 314.782C321.574 350.339 353.949 347.934 353.949 347.934C353.949 347.934 354.765 369.149 378.072 365.879C401.38 362.609 384.203 338.905 384.203 338.905C384.203 338.905 376.845 302.93 401.785 275.133C403.445 263.078 379.321 248.117 341.29 244.659Z" fill="white" stroke="#231F20" stroke-width="7.81" stroke-miterlimit="10"/>
<path d="M362.318 247.991C362.318 247.991 369.362 290.122 325.068 292.305" stroke="#231F20" stroke-width="7.81" stroke-miterlimit="10"/>
<path d="M365.554 288.763C365.554 288.763 383.582 296.516 383.819 305.44" stroke="#231F20" stroke-width="7.81" stroke-miterlimit="10"/>
<path d="M310.485 299.095C310.485 299.095 309.655 309.198 328.486 308.926" stroke="#231F20" stroke-width="7.81" stroke-miterlimit="10"/>
<path d="M346.472 301.57C346.472 301.57 332.022 335.628 365.554 335.084C365.554 335.084 378.365 317.104 346.472 301.57Z" stroke="#231F20" stroke-width="7.81" stroke-miterlimit="10"/>
<path d="M365.554 345.988C365.554 345.988 366.949 353.072 380.276 353.888" stroke="#231F20" stroke-width="7.81" stroke-miterlimit="10"/>
<path d="M343.899 287.94C328.465 287.013 326.024 275.474 326.833 265.56C327.292 260.657 328.37 255.831 330.041 251.198C334.923 251.114 338.612 252.028 341.332 253.617C355.357 261.789 343.899 287.94 343.899 287.94Z" stroke="#231F20" stroke-width="7.81" stroke-miterlimit="10"/>
<path d="M281.591 493.416C281.591 493.416 242.34 525.299 210.852 526.115C179.363 526.931 148.697 490.962 147.065 434.964C145.433 378.966 142.971 360.155 142.971 360.155C142.971 360.155 124.839 353.358 123.207 335.056C121.575 316.755 126.205 292.186 98.7968 277.413C88.3703 265.491 102.884 262.43 107.166 264.271C107.166 264.271 104.711 251.393 119.838 254.252C119.838 254.252 125.152 240.148 142.33 250.166C142.33 250.166 148.46 241.173 162.367 252.007C176.273 262.841 191.094 284.942 191.91 320.917C192.726 356.892 222.987 432.099 222.987 432.099L208.529 455.266C208.529 455.266 219.981 430.746 236.607 421.885C236.614 421.878 259.239 478.699 281.591 493.416Z" fill="white" stroke="#231F20" stroke-width="7.81" stroke-miterlimit="10"/>
<path d="M107.201 264.305C107.201 264.305 137.657 281.463 141.374 297.073L107.201 264.305Z" fill="white"/>
<path d="M107.201 264.305C107.201 264.305 137.657 281.463 141.374 297.073" stroke="#231F20" stroke-width="7.81" stroke-miterlimit="10"/>
<path d="M117.697 253.471C117.697 253.471 148.153 270.629 151.836 286.239L117.697 253.471Z" fill="white"/>
<path d="M117.697 253.471C117.697 253.471 148.153 270.629 151.836 286.239" stroke="#231F20" stroke-width="7.81" stroke-miterlimit="10"/>
<path d="M139.282 248.772C139.282 248.772 168.183 268.447 170.527 284.329L139.282 248.772Z" fill="white"/>
<path d="M139.282 248.772C139.282 248.772 168.183 268.447 170.527 284.329" stroke="#231F20" stroke-width="7.81" stroke-miterlimit="10"/>
<path d="M238.658 187.252C238.658 187.252 260.738 192.976 273.417 203.19L238.658 187.252Z" fill="white"/>
<path d="M238.658 187.252C238.658 187.252 260.738 192.976 273.417 203.19" stroke="#231F20" stroke-width="7.81" stroke-miterlimit="10"/>
<path d="M259.901 175.427C259.901 175.427 273.801 187.28 279.527 195.869L259.901 175.427Z" fill="white"/>
<path d="M259.901 175.427C259.901 175.427 273.801 187.28 279.527 195.869" stroke="#231F20" stroke-width="7.81" stroke-miterlimit="10"/>
<path d="M286.089 173.726C289.787 177.415 292.586 181.904 294.27 186.847L286.089 173.726Z" fill="white"/>
<path d="M286.089 173.726C289.787 177.415 292.586 181.904 294.27 186.847" stroke="#231F20" stroke-width="7.81" stroke-miterlimit="10"/>
<path d="M341.332 253.61C341.123 256.875 339.679 259.938 337.293 262.177C334.907 264.416 331.758 265.663 328.486 265.665C327.935 265.663 327.385 265.626 326.84 265.553C327.299 260.65 328.377 255.824 330.048 251.191C334.944 251.108 338.612 252.021 341.332 253.61Z" fill="#231F20"/>
<path d="M357.08 305.084C356.874 308.351 355.43 311.417 353.042 313.657C350.654 315.896 347.501 317.142 344.227 317.139C343.679 317.139 343.131 317.104 342.588 317.034C343.043 312.128 344.119 307.3 345.789 302.665C350.664 302.581 354.339 303.502 357.08 305.084Z" fill="#231F20"/>
<path d="M79.5061 145.323C80.3639 155.732 75.2867 165.973 68.159 168.197C61.0314 170.422 54.5523 163.798 53.7015 153.382C52.8506 142.966 57.9209 132.752 65.0416 130.514C72.1622 128.276 78.6413 134.914 79.5061 145.323Z" fill="#EE4947"/>
<path d="M106.336 136.887C107.131 146.508 101.224 156.366 95.1772 158.256C89.1305 160.145 83.586 153.898 82.791 144.312C81.9959 134.725 86.2781 125.376 92.3038 123.466C98.3295 121.555 105.548 127.265 106.336 136.887Z" fill="#EE4947"/>
<path d="M131.548 128.98C132.21 137.096 125.459 147.805 120.389 149.394C115.319 150.984 110.541 143.914 109.879 135.813C109.216 127.712 112.104 117.233 117.195 115.594C122.286 113.956 130.878 120.837 131.548 128.98Z" fill="#EE4947"/>
<path d="M156.578 120.544C157.276 128.674 149.06 140.352 143.969 141.948C138.878 143.545 136.102 135.834 135.439 127.719C134.777 119.603 135.69 109.731 140.775 108.114C145.859 106.496 155.909 112.415 156.578 120.544Z" fill="#EE4947"/>
<path d="M159.717 102.111L162.59 137.096L182.327 114.165L159.717 102.111Z" fill="#EE4947"/>
<path d="M325.075 94.3858C325.075 94.3858 279.046 92.5452 282.142 85.1898C285.239 77.8345 318.331 75.9869 321.4 66.1774C324.469 56.3679 317.104 10.9947 366.788 1.18522C416.473 -8.62427 448.387 48.399 442.842 74.7598C437.298 101.121 421.376 139.146 375.987 140.993C330.599 142.841 325.075 94.3858 325.075 94.3858Z" fill="#EE4947"/>
<path d="M356.766 62.3638C356.766 62.3638 372.305 77.0815 375.032 75.9869C377.759 74.8923 405.293 42.4729 416.18 45.1989C427.066 47.925 422.456 53.0981 421.361 56.0961C420.266 59.094 379.656 104.056 373.658 103.784C367.66 103.512 346.396 77.8972 345.063 75.715C343.731 73.5328 348.048 62.6357 356.766 62.3638Z" fill="white"/>
</svg>
