<?xml version="1.0" encoding="UTF-8"?>
<svg width="11px" height="22px" viewBox="0 0 11 20" version="1.1" xmlns="http://www.w3.org/2000/svg" xmlns:xlink="http://www.w3.org/1999/xlink">
    <!-- Generator: Sketch 48.2 (47327) - http://www.bohemiancoding.com/sketch -->
    <title>036-facebook</title>
    <desc>Created with Sketch.</desc>
    <defs></defs>
    <g id="Footer-2" stroke="none" stroke-width="1" fill="none" fill-rule="evenodd" transform="translate(-561.000000, -204.000000)">
        <g id="036-facebook" transform="translate(561.000000, 204.000000)" fill="#FFFFFF">
            <path d="M7.12663322,20 L0,20 L3.3441372,19.9998804 L3.3590392,11.2634682 L1.10586848,11.2634682 C0.813053058,11.2634682 0.575392855,11.0249599 0.574264815,10.7299943 L0.56345938,7.91388621 C0.56233134,7.61730584 0.80070399,7.37628569 1.09512241,7.37628569 L3.34419657,7.37628569 L3.34419657,4.65521009 C3.34419657,2.15629322 4.54314184,0.558122787 6.42928678,-6.80011603e-16 L10.7888826,0.011488808 C10.8472938,0.0974762478 10.8814626,0.20149581 10.8814626,0.313558072 L10.8814626,2.68811488 C10.8814626,2.98379816 10.6435649,3.22350256 10.3500964,3.22368198 L8.94188696,3.22433985 C7.42111101,3.22433985 7.12663322,3.95230443 7.12663322,5.02062773 L7.12663322,7.37634549 L10.4683031,7.37634549 C10.7867072,7.37634549 11.033748,7.65641928 10.9962258,7.97494864 L10.6648789,10.7910567 C10.633175,11.0605448 10.4063203,11.2635878 10.1369562,11.2635878 L7.14153522,11.2635878 L7.12663322,20 Z" id="Combined-Shape"></path>
        </g>
    </g>
</svg>