<svg width="23" height="19" viewBox="0 0 23 19" fill="none" xmlns="http://www.w3.org/2000/svg">
<path d="M21.6562 0.90625H1.34375C0.911621 0.90625 0.5625 1.25537 0.5625 1.6875V17.3125C0.5625 17.7446 0.911621 18.0938 1.34375 18.0938H21.6562C22.0884 18.0938 22.4375 17.7446 22.4375 17.3125V1.6875C22.4375 1.25537 22.0884 0.90625 21.6562 0.90625ZM19.6836 3.56494L11.981 9.55859C11.7905 9.70752 11.5244 9.70752 11.334 9.55859L3.62891 3.56494C3.59986 3.54253 3.57856 3.51158 3.56798 3.47645C3.5574 3.44132 3.55809 3.40376 3.56993 3.36904C3.58177 3.33431 3.60419 3.30416 3.63403 3.28282C3.66387 3.26147 3.69964 3.24999 3.73633 3.25H19.5762C19.6129 3.24999 19.6486 3.26147 19.6785 3.28282C19.7083 3.30416 19.7307 3.33431 19.7426 3.36904C19.7544 3.40376 19.7551 3.44132 19.7445 3.47645C19.7339 3.51158 19.7126 3.54253 19.6836 3.56494Z" fill="#F90400"/>
</svg>
