<svg width="28" height="29" viewBox="0 0 28 29" fill="none" xmlns="http://www.w3.org/2000/svg">
<mask id="mask0_2008_1030" style="mask-type:alpha" maskUnits="userSpaceOnUse" x="1" y="4" width="26" height="21">
<path d="M25.375 4.875H2.625C2.14102 4.875 1.75 5.26602 1.75 5.75V23.25C1.75 23.734 2.14102 24.125 2.625 24.125H25.375C25.859 24.125 26.25 23.734 26.25 23.25V5.75C26.25 5.26602 25.859 4.875 25.375 4.875ZM23.1656 7.85273L14.5387 14.5656C14.3254 14.7324 14.0273 14.7324 13.8141 14.5656L5.18438 7.85273C5.15184 7.82763 5.12798 7.79297 5.11614 7.75363C5.10429 7.71428 5.10506 7.67221 5.11832 7.63332C5.13159 7.59443 5.15669 7.56066 5.19011 7.53675C5.22353 7.51285 5.2636 7.49999 5.30469 7.5H23.0453C23.0864 7.49999 23.1265 7.51285 23.1599 7.53675C23.1933 7.56066 23.2184 7.59443 23.2317 7.63332C23.2449 7.67221 23.2457 7.71428 23.2339 7.75363C23.222 7.79297 23.1982 7.82763 23.1656 7.85273Z" fill="#F90400"/>
</mask>
<g mask="url(#mask0_2008_1030)">
<rect y="4.97998" width="30.24" height="6.72" fill="#F90400"/>
<rect y="11.7" width="30.24" height="4.48" fill="#C20200"/>
<rect y="16.1799" width="30.24" height="5.6" fill="#870100"/>
<rect y="21.78" width="30.24" height="6.72" fill="#0D0D10"/>
</g>
</svg>
