<svg width="577" height="379" viewBox="0 0 577 379" fill="none" xmlns="http://www.w3.org/2000/svg">
<path d="M406.716 232.62H357.371C352.966 232.62 349.395 236.189 349.395 240.59V371.025C349.395 375.426 352.966 378.994 357.371 378.994H406.716C411.121 378.994 414.693 375.426 414.693 371.025V240.59C414.693 236.189 411.121 232.62 406.716 232.62Z" fill="#EF4748"/>
<path d="M149.833 340.972H92.6672C90.4218 340.972 88.6015 342.791 88.6015 345.034V374.932C88.6015 377.176 90.4218 378.995 92.6672 378.995H149.833C152.078 378.995 153.899 377.176 153.899 374.932V345.034C153.899 342.791 152.078 340.972 149.833 340.972Z" fill="#EF4748"/>
<path d="M232.845 313.753H178.201C175.259 313.753 172.875 316.136 172.875 319.075V373.673C172.875 376.612 175.259 378.995 178.201 378.995H232.845C235.787 378.995 238.172 376.612 238.172 373.673V319.075C238.172 316.136 235.787 313.753 232.845 313.753Z" fill="#EF4748"/>
<path d="M317.804 277.567H265.788C262.12 277.567 259.147 280.538 259.147 284.202V372.36C259.147 376.024 262.12 378.995 265.788 378.995H317.804C321.471 378.995 324.444 376.024 324.444 372.36V284.202C324.444 280.538 321.471 277.567 317.804 277.567Z" fill="#EF4748"/>
<path d="M489.526 189.761H442.373C437.362 189.761 433.301 193.819 433.301 198.825V369.925C433.301 374.931 437.362 378.989 442.373 378.989H489.526C494.537 378.989 498.598 374.931 498.598 369.925V198.825C498.598 193.819 494.537 189.761 489.526 189.761Z" fill="#EF4748"/>
<path d="M352.824 161.759L349.666 114.395H366.1L352.824 161.759Z" fill="white"/>
<path d="M362.937 172.114L385.691 152.919L390.751 169.339L362.937 172.114Z" fill="white"/>
<path d="M362.938 172.115L364.145 173.545L384.741 156.17L388.294 167.705L362.756 170.257L362.938 172.115L364.145 173.545L362.938 172.115L363.125 173.978L393.209 170.967L386.648 149.668L357.125 174.575L363.125 173.978L362.938 172.115Z" fill="#231F20"/>
<path d="M366.101 183.863H390.752L385.062 195.227L366.101 183.863Z" fill="white"/>
<path d="M366.102 183.862V185.731H387.729L384.293 192.59L367.063 182.261L366.102 183.862V185.731V183.862L365.14 185.464L385.832 197.869L393.776 181.994H359.354L365.14 185.464L366.102 183.862Z" fill="#231F20"/>
<path d="M267.45 208.311C266.44 239.41 248.494 257.89 230.094 265.246C225.581 267.077 220.83 268.258 215.984 268.753C212.581 269.142 209.134 268.871 205.834 267.953C192.803 264.093 190.57 249.761 191.628 246.6C192.904 242.773 214.2 221.917 215.91 198.932C216.925 185.282 208.772 173.144 201.987 165.521C199.336 162.518 196.439 159.742 193.327 157.22C179.046 141.74 190.773 107.838 225.281 119.764C251.694 128.881 263.127 152.961 266.467 181.316C267.468 190.277 267.797 199.301 267.45 208.311Z" fill="white"/>
<path d="M267.449 208.311L265.424 208.241C264.927 223.417 260.327 235.385 253.671 244.487C247.487 252.923 239.065 259.463 229.356 263.367C225.025 265.127 220.465 266.261 215.813 266.735C214.787 266.837 213.804 266.885 212.869 266.885C210.69 266.905 208.52 266.61 206.426 266.009C204.128 265.348 201.995 264.211 200.165 262.673C197.829 260.658 196.021 258.103 194.897 255.232C194.408 254.023 194.031 252.773 193.769 251.495C193.563 250.517 193.452 249.522 193.438 248.522C193.436 248.241 193.45 247.959 193.481 247.679C193.497 247.542 193.524 247.406 193.561 247.273L193.481 247.246L193.561 247.278L193.481 247.252L193.561 247.284C193.65 247.099 193.752 246.921 193.866 246.75C194.234 246.163 194.886 245.266 195.725 244.166C197.189 242.239 199.224 239.672 201.463 236.618C205.378 231.364 208.828 225.779 211.774 219.926C214.91 213.553 217.373 206.48 217.929 199.108C217.987 198.275 218.019 197.453 218.019 196.631C218.019 189.873 215.995 183.59 213.211 178.103C210.575 173.088 207.317 168.426 203.514 164.224C200.784 161.131 197.795 158.273 194.582 155.683L193.342 157.285L194.833 155.913C193.049 153.965 191.671 151.682 190.778 149.197C189.393 145.336 189.059 141.176 189.81 137.144C190.561 133.111 192.37 129.35 195.052 126.244C196.984 124.11 199.352 122.415 201.997 121.274C205.083 119.968 208.407 119.317 211.758 119.363C216.143 119.427 220.487 120.219 224.612 121.707C230.61 123.737 236.193 126.828 241.094 130.835C248.072 136.578 253.281 143.993 257.074 152.63C260.867 161.267 263.218 171.099 264.452 181.583C265.189 188.141 265.546 194.736 265.52 201.334C265.52 203.626 265.481 205.927 265.403 208.236L267.428 208.305L269.458 208.369C269.533 206.018 269.57 203.672 269.57 201.334C269.593 194.571 269.22 187.812 268.454 181.092C266.76 166.717 263.015 153.334 256.224 142.274C252.873 136.748 248.625 131.818 243.653 127.685C238.378 123.373 232.37 120.044 225.916 117.858C221.359 116.206 216.557 115.326 211.71 115.253C207.802 115.211 203.928 115.976 200.33 117.5C195.636 119.549 191.709 123.028 189.111 127.44C186.632 131.655 185.332 136.457 185.344 141.345C185.337 144.48 185.88 147.59 186.947 150.537C188.027 153.521 189.686 156.263 191.83 158.603L191.948 158.731L192.087 158.833L192.193 158.688L192.081 158.833L192.188 158.688L192.076 158.833C195.09 161.277 197.896 163.968 200.464 166.877C204.037 170.829 207.099 175.214 209.578 179.928C212.18 185.01 213.964 190.679 213.964 196.615C213.964 197.327 213.938 198.053 213.884 198.793C213.383 204.306 211.971 209.697 209.706 214.748C206.421 222.392 201.762 229.327 197.787 234.702C195.794 237.371 193.983 239.693 192.578 241.535C191.878 242.453 191.28 243.259 190.799 243.958C190.559 244.316 190.35 244.641 190.169 244.962C189.978 245.281 189.82 245.619 189.698 245.971C189.571 246.363 189.484 246.768 189.437 247.177C189.386 247.62 189.361 248.066 189.362 248.511C189.392 250.271 189.643 252.02 190.11 253.716C190.989 257.086 192.573 260.232 194.758 262.945C197.468 266.273 201.131 268.695 205.256 269.885C207.723 270.598 210.28 270.948 212.848 270.926C213.916 270.926 215.028 270.871 216.182 270.76C221.219 270.249 226.157 269.024 230.847 267.12C241.264 262.939 250.3 255.924 256.93 246.873C264.089 237.12 268.966 224.293 269.485 208.369L267.449 208.311Z" fill="#231F20"/>
<path d="M238.483 254.992C238.338 256.166 234.486 260.661 230.095 265.246C225.581 267.077 220.831 268.258 215.985 268.754C212.581 269.143 209.134 268.87 205.834 267.953C210.642 264.446 216.487 259.412 217.47 254.992C219.175 247.332 238.766 252.718 238.483 254.992Z" fill="#231F20"/>
<path d="M178.272 207.885C178.272 207.885 185.372 215.262 200.711 212.427C216.05 209.593 217.562 190.744 212.812 182.065C208.062 173.385 195.315 146.028 176.568 149.145C157.821 152.263 164.643 197.385 178.272 207.885Z" fill="white"/>
<path d="M178.271 207.884L176.839 209.288C178.13 210.513 179.607 211.525 181.214 212.288C185.174 214.215 189.531 215.186 193.935 215.123C196.335 215.112 198.73 214.884 201.089 214.439C203.771 213.97 206.322 212.93 208.568 211.391C211.568 209.261 213.894 206.315 215.268 202.904C216.6 199.635 217.274 196.136 217.25 192.607C217.254 190.533 217.027 188.465 216.572 186.441C216.167 184.582 215.508 182.785 214.616 181.103C213.521 179.096 211.945 175.963 209.909 172.424C206.875 167.086 202.868 160.846 197.862 155.807C195.418 153.283 192.604 151.144 189.517 149.465C186.45 147.795 183.019 146.906 179.526 146.876C178.423 146.875 177.323 146.966 176.235 147.148C173.935 147.52 171.78 148.515 170.006 150.025C168.708 151.149 167.606 152.48 166.747 153.965C165.385 156.376 164.427 158.992 163.91 161.71C163.311 164.727 163.021 167.796 163.044 170.87C163.113 178.454 164.407 185.975 166.875 193.146C167.996 196.456 169.457 199.64 171.234 202.648C172.735 205.263 174.702 207.582 177.036 209.491L178.271 207.89L176.839 209.288L178.297 207.884L179.537 206.283C177.603 204.678 175.974 202.738 174.728 200.555C172.244 196.241 170.387 191.595 169.215 186.756C167.87 181.567 167.168 176.231 167.126 170.87C167.126 165.575 167.943 160.728 169.61 157.264C170.322 155.679 171.362 154.264 172.661 153.111C173.876 152.073 175.356 151.391 176.935 151.141C177.804 150.996 178.683 150.923 179.563 150.922C181.433 150.931 183.287 151.259 185.045 151.894C188.327 153.16 191.319 155.077 193.839 157.531C197.947 161.342 201.538 166.36 204.439 171.1C205.892 173.47 207.174 175.771 208.28 177.815C209.386 179.86 210.315 181.653 211.069 183.036C211.783 184.382 212.31 185.819 212.634 187.306C213.457 191.004 213.404 194.843 212.479 198.516C211.804 201.367 210.418 203.999 208.451 206.171C207.448 207.239 206.281 208.14 204.994 208.84C203.551 209.615 201.992 210.156 200.378 210.441C198.264 210.839 196.119 211.045 193.967 211.055C190.193 211.131 186.453 210.317 183.052 208.68C182.151 208.226 181.295 207.69 180.493 207.078C180.221 206.87 180.028 206.705 179.905 206.593L179.783 206.48L179.248 207.014L179.815 206.48L179.28 207.014L179.847 206.48L179.74 206.374L179.622 206.283L178.271 207.884Z" fill="#231F20"/>
<path d="M174.376 171.025L174.515 170.8L174.376 171.025L174.515 170.8L174.376 171.025C177.482 173.011 180.367 175.321 182.983 177.916C185.199 180.07 187.116 182.509 188.684 185.17C190.226 187.72 191.078 190.627 191.157 193.604C191.156 194.208 191.115 194.811 191.035 195.409L195.047 195.942C195.156 195.163 195.209 194.376 195.207 193.588C195.129 189.885 194.081 186.267 192.167 183.094C189.496 178.402 185.58 174.553 182.347 171.884C180.489 170.318 178.525 168.881 176.471 167.582L174.36 171.041L174.376 171.025Z" fill="#231F20"/>
<path d="M333.763 219.392C310.902 219.814 303.235 210.451 283.211 195.126C278.083 191.197 272.393 186.323 266.462 181.343C249.265 166.93 230.058 151.642 216.776 156.398C211.53 158.267 206.513 161.523 201.999 165.548C191.105 175.258 183.166 189.451 182.268 199.385C180.986 213.43 173.32 227.901 158.83 229.177C147.435 230.181 136.563 225.921 134.126 214.93C133.415 211.486 133.415 207.933 134.126 204.489C134.717 201.219 135.251 198.171 135.729 195.345C137.989 181.999 138.785 173.672 136.669 170.859C134.116 167.459 115.374 147.025 131.129 100.205L196.736 44.0115C196.736 44.0115 247.432 81.0414 275.144 115.947C296.488 142.85 310.496 163.183 330.232 174.003C336.319 177.34 342.883 179.724 349.695 181.071C353.931 185.544 356.4 190.343 357.281 194.992C359.669 207.611 350.475 219.067 333.763 219.392Z" fill="white"/>
<path d="M333.762 219.393L333.725 217.369H332.299C327.729 217.441 323.171 216.903 318.744 215.768C315.911 214.998 313.168 213.924 310.565 212.565C306.67 210.563 302.914 207.937 298.742 204.729C294.569 201.521 289.985 197.758 284.445 193.519C279.38 189.644 273.701 184.781 267.771 179.795C260.248 173.486 252.315 166.984 244.557 162.003C240.931 159.607 237.089 157.554 233.081 155.87C229.341 154.37 225.655 153.463 222.102 153.457C220.05 153.442 218.011 153.783 216.076 154.466C210.514 156.452 205.3 159.858 200.63 164.016C195.075 169.023 190.344 174.874 186.611 181.354C184.9 184.293 183.448 187.376 182.273 190.567C181.232 193.344 180.546 196.24 180.232 199.188C179.623 205.909 177.46 212.736 173.821 217.871C172.093 220.392 169.883 222.547 167.319 224.213C164.701 225.869 161.721 226.867 158.632 227.122C157.617 227.207 156.607 227.255 155.614 227.255C150.805 227.255 146.35 226.188 142.936 224.095C141.187 223.051 139.675 221.654 138.494 219.995C137.315 218.335 136.493 216.449 136.081 214.455C135.753 212.985 135.592 211.483 135.6 209.976C135.609 208.249 135.775 206.527 136.097 204.83C136.692 201.56 137.226 198.505 137.7 195.665C138.373 191.672 138.923 188.112 139.303 184.989C139.663 182.311 139.863 179.614 139.901 176.913C139.923 175.54 139.81 174.169 139.565 172.818C139.377 171.666 138.931 170.571 138.261 169.615L138.213 169.551L138.261 169.621C137.994 169.263 137.652 168.841 137.219 168.281C136.182 166.95 135.224 165.56 134.35 164.117C131.048 158.656 126.897 149.171 126.871 134.513C126.871 125.379 128.473 114.228 133.009 100.824L131.086 100.178L132.405 101.716L198.055 45.549L196.736 44.0116L195.539 45.6451L195.683 45.7518C197.152 46.8194 209.975 56.3104 225.757 69.7196C241.539 83.1287 260.27 100.483 273.535 117.228C284.183 130.653 293.031 142.477 301.744 152.368C310.458 162.26 319.07 170.224 329.237 175.797C335.505 179.231 342.261 181.687 349.272 183.078L349.678 181.092L348.209 182.485C352.216 186.718 354.47 191.176 355.272 195.393C355.501 196.569 355.617 197.765 355.619 198.964C355.626 201.354 355.129 203.718 354.16 205.903C352.625 209.282 350.069 212.095 346.852 213.948C343.427 215.982 339.025 217.263 333.725 217.364L333.762 219.387L333.8 221.41C341.675 221.266 348.15 218.741 352.659 214.674C354.877 212.7 356.65 210.277 357.858 207.565C359.065 204.853 359.681 201.916 359.663 198.948C359.663 197.495 359.525 196.046 359.252 194.619C358.285 189.537 355.608 184.391 351.142 179.672L350.704 179.208L350.073 179.085C343.464 177.775 337.095 175.46 331.187 172.22C321.613 166.973 313.348 159.372 304.79 149.662C296.231 139.952 287.399 128.16 276.709 114.682C262.711 97.0396 243.051 79.0077 226.852 65.337C210.653 51.6663 197.959 42.3835 197.932 42.3835L196.634 41.4333L129.382 99.02L129.205 99.5538C124.568 113.321 122.88 124.909 122.88 134.518C122.88 146.262 125.444 155.059 128.276 161.208C129.439 163.757 130.823 166.201 132.411 168.51C133.031 169.413 133.592 170.165 134.051 170.758C134.51 171.35 134.879 171.825 135.061 172.05C135.357 172.52 135.55 173.047 135.627 173.598C135.819 174.688 135.905 175.795 135.884 176.902C135.848 179.44 135.659 181.972 135.317 184.487C134.949 187.508 134.409 191.016 133.741 194.976C133.266 197.79 132.721 200.848 132.138 204.099C131.772 206.035 131.583 208.001 131.572 209.971C131.562 211.781 131.758 213.586 132.154 215.352C132.712 217.948 133.804 220.4 135.36 222.553C137.616 225.567 140.674 227.886 144.186 229.247C147.837 230.669 151.727 231.375 155.646 231.328C156.764 231.328 157.89 231.277 159.022 231.174C162.754 230.862 166.356 229.655 169.52 227.656C174.072 224.773 177.534 220.449 179.939 215.528C182.344 210.511 183.819 205.099 184.293 199.556C184.58 196.953 185.192 194.396 186.115 191.944C187.821 187.377 190.089 183.04 192.868 179.032C195.863 174.633 199.377 170.609 203.334 167.048C207.699 163.156 212.518 160.05 217.444 158.293C218.94 157.769 220.517 157.509 222.102 157.525C224.95 157.525 228.15 158.272 231.569 159.66C236.704 161.715 242.313 165.158 248.019 169.268C253.725 173.379 259.543 178.172 265.158 182.886C271.078 187.861 276.778 192.75 281.977 196.727C286.849 200.464 290.995 203.838 294.842 206.837C297.727 209.085 300.446 211.108 303.176 212.912C307.161 215.617 311.513 217.738 316.1 219.211C320.796 220.668 326.026 221.426 332.299 221.426H333.795L333.762 219.393Z" fill="#231F20"/>
<path d="M88.8099 67.707C88.8099 67.707 114.086 97.4985 117.777 100.055C121.469 102.612 123.173 104.86 131.134 100.194C139.094 95.5288 197.59 48.4154 196.736 44.0115C195.881 39.6076 199.45 37.3443 190.143 31.3817C180.836 25.4191 154.705 4.99585 154.705 4.99585L88.8099 67.707Z" fill="#231F20"/>
<path d="M88.8104 67.7081L86.0163 70.0622C86.0163 70.0622 92.3472 77.5354 99.1483 85.3183C102.552 89.215 106.094 93.1918 108.995 96.384C110.459 97.9854 111.768 99.3786 112.868 100.489C113.402 101.049 113.91 101.53 114.359 101.946C114.583 102.154 114.797 102.347 115.011 102.528C115.224 102.71 115.438 102.875 115.694 103.062C116.17 103.393 116.645 103.74 117.158 104.129C118.014 104.765 118.932 105.31 119.899 105.758C121.115 106.306 122.434 106.589 123.767 106.59C125.24 106.563 126.697 106.281 128.073 105.758C129.774 105.114 131.412 104.315 132.967 103.371C133.608 102.992 134.34 102.501 135.243 101.877C136.92 100.708 139.143 99.0637 141.782 97.0726C151.02 90.0478 165.327 78.5496 177.391 68.2473C183.428 63.0907 188.888 58.2438 192.911 54.3684C194.925 52.4253 196.576 50.7278 197.81 49.2812C198.394 48.6209 198.93 47.92 199.413 47.1834C199.649 46.8119 199.852 46.4206 200.022 46.0144C200.27 45.4314 200.401 44.8058 200.407 44.1727C200.406 43.9037 200.381 43.6357 200.332 43.372C200.275 43.0694 200.247 42.7619 200.252 42.4539C200.252 42.1283 200.252 41.7493 200.31 41.2849C200.369 40.8205 200.39 40.276 200.39 39.6354C200.398 38.7167 200.276 37.8023 200.027 36.9184C199.8 36.1379 199.473 35.3895 199.055 34.6924C198.325 33.5164 197.425 32.4552 196.384 31.543C195.05 30.359 193.62 29.2876 192.109 28.3401C191.041 27.6409 189.625 26.696 188.049 25.5857C182.514 21.6943 174.693 15.8171 168.33 10.9382C165.124 8.49335 162.287 6.29409 160.241 4.70869L157.831 2.83505L157.18 2.32793L156.955 2.15178L154.471 0.20874L83.8098 67.4679L86.0323 70.0889L88.8158 67.7348L91.3321 70.3718L157.217 7.63393L154.701 4.99694L152.451 7.86347C152.451 7.86347 159.001 12.988 166.721 18.8545C170.579 21.7904 174.735 24.9131 178.518 27.6836C180.409 29.0715 182.21 30.3526 183.86 31.5216C185.511 32.6906 186.949 33.6568 188.188 34.4522C189.252 35.1168 190.267 35.8556 191.228 36.6621C191.651 37.0214 192.044 37.4143 192.403 37.8365C192.659 38.1215 192.86 38.4504 192.996 38.808C193.072 39.0584 193.104 39.3205 193.092 39.582C193.092 39.8543 193.092 40.2173 193.034 40.687C192.975 41.1567 192.954 41.7546 192.954 42.4005C192.952 43.174 193.024 43.9459 193.167 44.7065L196.229 44.1087H193.109C193.11 44.3094 193.129 44.509 193.167 44.7065L196.229 44.1087H195.791L193.21 43.3774C193.141 43.6149 193.107 43.861 193.109 44.1087H195.78L193.199 43.3774L194.642 43.7831L193.279 43.1532C193.244 43.2242 193.217 43.2994 193.199 43.3774L194.642 43.7831L193.279 43.1532C193.279 43.1905 193.162 43.3453 193.007 43.5589C192.533 44.192 192.022 44.7978 191.479 45.3738C190.181 46.8044 188.273 48.6674 186.019 50.8026C182.028 54.5392 176.824 59.1139 171.183 63.9021C162.72 71.0924 153.274 78.7845 145.394 84.9926C141.456 88.094 137.914 90.8324 135.088 92.941C133.678 94.0086 132.443 94.8947 131.45 95.61C130.947 95.9569 130.509 96.2612 130.141 96.5068C129.772 96.7523 129.473 96.9445 129.275 97.0406C128.113 97.7532 126.888 98.3591 125.616 98.8502C125.03 99.0861 124.409 99.2217 123.778 99.2505C123.575 99.2526 123.373 99.2238 123.179 99.1651C122.755 99.0167 122.353 98.808 121.988 98.5459C121.454 98.1936 120.743 97.6598 119.851 97.0406L119.637 97.3502L119.856 97.0459L119.643 97.3555L119.862 97.0512C119.862 97.0512 119.787 96.9979 119.685 96.9071C119.472 96.7309 119.151 96.416 118.729 96.0157C117.96 95.2683 116.934 94.2007 115.753 92.9303C113.68 90.747 111.126 87.8698 108.455 84.8752C104.47 80.3592 100.244 75.4803 97.022 71.7276C95.4192 69.854 94.0515 68.2579 93.0952 67.1369L91.9786 65.8238L91.5832 65.3594L88.7997 67.7188L91.3161 70.3558L88.8104 67.7081Z" fill="#231F20"/>
<path d="M357.259 194.993C340.162 197.433 333.879 193.632 329.862 186.815C327.725 183.202 328.702 178.146 330.209 174.004C336.297 177.341 342.861 179.724 349.672 181.072C353.909 185.545 356.377 190.344 357.259 194.993Z" fill="#231F20"/>
<path d="M158.174 212.139C155.834 217.424 152.046 223.957 134.132 214.92C133.42 211.476 133.42 207.923 134.132 204.479C134.723 201.208 135.257 198.16 135.735 195.335C139.785 191.876 145.533 188.289 150.951 189.586C160.738 191.924 160.738 206.401 158.174 212.139Z" fill="#231F20"/>
<path d="M352.989 157.691L349.666 114.395H366.1L352.989 157.691Z" fill="#231F20"/>
<path d="M364.406 171.346L385.691 152.919L390.751 169.339L364.406 171.346Z" fill="#231F20"/>
<path d="M366.101 183.863H391.548L385.062 195.227L366.101 183.863Z" fill="#231F20"/>
</svg>