<svg width="417" height="370" viewBox="0 0 417 370" fill="none" xmlns="http://www.w3.org/2000/svg">
<g clip-path="url(#clip0_1811_1054)">
<path d="M169.805 198.165L167.878 198.102C167.409 212.51 163.044 223.873 156.716 232.518C150.849 240.536 142.857 246.751 133.641 250.463C129.532 252.136 125.204 253.215 120.79 253.666C119.814 253.756 118.885 253.803 117.998 253.803C115.932 253.823 113.873 253.544 111.886 252.975C109.706 252.347 107.681 251.268 105.944 249.808C104.03 248.111 102.478 246.046 101.381 243.735C100.285 241.424 99.6665 238.916 99.5628 236.36C99.5606 236.094 99.5747 235.828 99.605 235.563C99.6178 235.433 99.6426 235.304 99.6789 235.178H99.6103H99.6789H99.6103H99.6789C99.7617 234.995 99.8587 234.818 99.9692 234.65C100.317 234.091 100.935 233.236 101.732 232.196C103.12 230.365 105.052 227.926 107.179 225.024C110.896 220.053 114.175 214.77 116.979 209.233C119.956 203.179 122.294 196.46 122.817 189.436C122.875 188.649 122.901 187.852 122.901 187.087C122.901 180.669 120.985 174.705 118.32 169.491C115.822 164.723 112.731 160.29 109.121 156.296C106.532 153.353 103.696 150.636 100.645 148.174L99.473 149.694L100.887 148.39C97.5084 144.603 95.6739 139.685 95.7469 134.61C95.7057 129.316 97.6123 124.192 101.104 120.212C102.931 118.187 105.172 116.578 107.675 115.494C110.603 114.254 113.757 113.636 116.937 113.678C121.109 113.747 125.241 114.513 129.161 115.943C134.852 117.866 140.15 120.802 144.799 124.609C151.412 130.029 156.357 137.075 159.972 145.25C163.587 153.425 165.804 162.793 166.976 172.747C167.691 178.979 168.044 185.247 168.031 191.52C168.031 193.695 167.994 195.882 167.921 198.081L169.847 198.144L171.768 198.207C171.837 195.97 171.879 193.742 171.879 191.52C171.898 185.098 171.546 178.68 170.823 172.299C169.214 158.65 165.656 145.91 159.212 135.439C156.031 130.19 151.998 125.508 147.279 121.585C142.262 117.495 136.55 114.341 130.417 112.275C126.093 110.705 121.537 109.868 116.937 109.799C113.229 109.759 109.552 110.486 106.139 111.937C101.677 113.878 97.9429 117.181 95.4725 121.373C93.126 125.374 91.8941 129.93 91.9047 134.568C91.8289 140.609 94.0253 146.458 98.0586 150.955L98.1694 151.077L98.2961 151.177C101.151 153.5 103.81 156.054 106.244 158.814C109.634 162.567 112.541 166.73 114.895 171.206C117.359 176.035 119.054 181.413 119.054 187.039C119.054 187.726 119.027 188.412 118.974 189.103C118.502 194.339 117.163 199.459 115.011 204.256C111.897 211.518 107.474 218.099 103.701 223.208C101.816 225.763 100.091 227.958 98.7605 229.695C98.0955 230.565 97.5256 231.331 97.0717 231.996C96.8447 232.333 96.6442 232.645 96.47 232.951C96.2929 233.255 96.1445 233.575 96.0267 233.906C95.9084 234.277 95.8271 234.659 95.7839 235.046C95.7314 235.466 95.7067 235.889 95.71 236.313C95.7387 237.984 95.9763 239.646 96.4172 241.258C97.2528 244.457 98.7565 247.443 100.829 250.019C103.401 253.181 106.875 255.484 110.789 256.622C113.13 257.296 115.556 257.627 117.993 257.603C119.05 257.606 120.107 257.555 121.159 257.45C125.94 256.964 130.626 255.798 135.077 253.988C144.958 250.013 153.53 243.353 159.824 234.761C166.617 225.499 171.246 213.318 171.736 198.197L169.805 198.165Z" fill="#231F20"/>
<path d="M142.313 242.498C142.176 243.612 138.523 247.882 134.354 252.23C130.073 253.969 125.566 255.089 120.969 255.555C117.738 255.929 114.465 255.671 111.332 254.795C115.892 251.465 121.439 246.668 122.373 242.493C123.994 235.22 142.582 240.334 142.313 242.498Z" fill="#231F20"/>
<path d="M85.1861 197.759L83.7981 199.083C85.0284 200.243 86.4314 201.205 87.9569 201.933C91.7187 203.758 95.8574 204.671 100.038 204.599C102.315 204.592 104.587 204.375 106.825 203.95C109.367 203.507 111.783 202.52 113.908 201.057C116.745 199.031 118.943 196.234 120.241 192.998C121.511 189.906 122.158 186.593 122.146 183.25C122.146 179.191 121.276 175.333 119.645 172.336C118.589 170.43 117.096 167.454 115.18 164.092C112.298 159.041 108.498 153.093 103.748 148.311C101.428 145.917 98.759 143.889 95.8314 142.295C92.9143 140.709 89.6516 139.866 86.3314 139.84C85.2845 139.839 84.2393 139.925 83.2069 140.099C81.0231 140.451 78.978 141.396 77.2958 142.833C74.8417 144.944 73.2161 147.894 72.1817 151.277C71.1365 154.962 70.6351 158.779 70.6933 162.609C70.7682 169.817 72.0105 176.966 74.3719 183.778C75.4357 186.921 76.8224 189.946 78.5097 192.803C79.9321 195.285 81.7959 197.487 84.0092 199.3L85.1861 197.775L83.7981 199.083L85.1861 197.748L86.3578 196.228C84.5234 194.703 82.9787 192.86 81.7978 190.787C79.4471 186.693 77.6913 182.286 76.5833 177.698C75.3059 172.769 74.6412 167.701 74.6042 162.609C74.6042 157.579 75.3747 152.993 76.9581 149.689C77.6337 148.186 78.6193 146.842 79.8503 145.746C81.0015 144.759 82.4051 144.112 83.9036 143.878C84.7249 143.738 85.5564 143.668 86.3894 143.667C89.9783 143.667 93.3244 144.965 96.4911 147.15C101.241 150.417 105.426 155.69 108.778 160.872C110.456 163.469 111.944 166.045 113.179 168.34C114.414 170.636 115.47 172.647 116.288 174.146C117.523 176.394 118.325 179.725 118.315 183.218C118.315 186.966 117.418 190.882 115.465 193.953C114.494 195.503 113.224 196.844 111.728 197.896C110.05 199.046 108.144 199.82 106.139 200.165C104.133 200.545 102.096 200.741 100.054 200.751C96.4729 200.818 92.9264 200.044 89.6986 198.492C88.8453 198.066 88.0327 197.562 87.2708 196.988C87.0122 196.793 86.8275 196.629 86.7114 196.529L86.5953 196.418L86.0675 196.946L86.5953 196.418L86.0675 196.946L86.5953 196.418L86.495 196.313L86.3789 196.228L85.1861 197.759Z" fill="#231F20"/>
<path d="M81.4917 162.756C84.47 164.669 87.2354 166.895 89.7408 169.396C91.8235 171.433 93.6234 173.741 95.0925 176.257C96.5356 178.663 97.3319 181.401 97.4042 184.205C97.4044 184.779 97.3656 185.352 97.2881 185.921L101.099 186.448C101.199 185.708 101.25 184.963 101.252 184.216C101.176 180.696 100.181 177.257 98.3647 174.241C95.8155 169.781 92.1105 166.145 89.0494 163.574C87.2894 162.087 85.4309 160.721 83.4867 159.484L81.4864 162.772L81.4917 162.756Z" fill="#231F20"/>
<path d="M232.716 208.678C211.029 209.079 203.751 200.186 184.757 185.636C179.885 181.904 174.486 177.276 168.865 172.547C152.546 158.824 134.322 144.342 121.703 148.855C116.726 150.633 111.966 153.726 107.68 157.547C97.3461 166.767 89.8147 180.242 88.9597 189.678C87.7458 203.015 80.4678 216.759 66.7245 217.967C55.9103 218.922 45.6133 214.874 43.2806 204.44C42.6094 201.169 42.6094 197.795 43.2806 194.523C43.8435 191.42 44.3537 188.526 44.8111 185.841C46.9592 173.175 47.7139 165.258 45.7031 162.619C43.2806 159.389 25.4997 139.983 40.4253 95.5227L102.703 42.1697C102.703 42.1697 150.805 77.3302 177.078 110.48C197.328 136.03 210.618 155.341 229.327 165.612C235.105 168.781 241.335 171.045 247.8 172.325C251.821 176.547 254.133 181.134 254.999 185.519C257.294 197.5 248.565 208.377 232.716 208.678Z" fill="white"/>
<path d="M232.716 208.678L232.679 206.752H231.328C226.991 206.817 222.665 206.301 218.466 205.216C212.929 203.717 208.348 201.168 203.334 197.606C198.321 194.043 192.932 189.462 185.918 184.095C181.115 180.4 175.726 175.793 170.084 171.058C162.949 165.063 155.418 158.888 148.055 154.17C144.617 151.898 140.973 149.955 137.172 148.364C133.615 146.939 130.126 146.079 126.759 146.073C124.811 146.06 122.876 146.384 121.038 147.029C115.76 148.913 110.815 152.148 106.387 156.096C101.116 160.851 96.6261 166.406 93.0817 172.557C91.4597 175.349 90.084 178.277 88.9703 181.308C87.9797 183.942 87.3271 186.69 87.0281 189.488C86.4528 195.875 84.3892 202.356 80.9533 207.253C79.3125 209.647 77.216 211.693 74.7836 213.275C72.306 214.853 69.4825 215.806 66.5556 216.051C65.595 216.136 64.6344 216.178 63.6897 216.178C59.1403 216.178 54.9022 215.175 51.6617 213.18C50.0022 212.188 48.5673 210.862 47.4479 209.285C46.3285 207.709 45.5492 205.917 45.1594 204.023C44.8485 202.627 44.6962 201.2 44.7056 199.77C44.7144 198.13 44.8716 196.494 45.1753 194.882C45.7347 191.772 46.2467 188.871 46.7111 186.179C47.9936 178.585 48.7958 172.679 48.8222 168.377C48.8391 167.073 48.7313 165.771 48.5003 164.488C48.3209 163.396 47.8989 162.359 47.2653 161.453C47.0067 161.115 46.6847 160.714 46.2731 160.186C43.8059 156.998 41.8032 153.476 40.325 149.726C38.2139 144.485 36.4775 137.391 36.4722 128.113C36.4722 119.442 38.0133 108.855 42.2778 96.1245L40.4569 95.5123L41.7078 96.969L103.986 43.6159L102.735 42.1593L101.6 43.7109L101.737 43.8059C103.136 44.8351 115.296 53.8337 130.269 66.569C145.242 79.3043 162.991 95.7815 175.605 111.662C185.712 124.413 194.104 135.639 202.374 145.034C210.644 154.428 218.809 161.991 228.451 167.285C234.395 170.544 240.803 172.876 247.451 174.199L247.837 172.315L246.438 173.634C250.243 177.656 252.386 181.888 253.146 185.894C253.358 187.013 253.466 188.149 253.468 189.288C253.484 191.568 253.012 193.826 252.084 195.909C251.157 197.993 249.795 199.854 248.09 201.369C244.591 204.535 239.408 206.646 232.7 206.768L232.737 208.694L232.774 210.615C240.247 210.478 246.391 208.093 250.671 204.219C252.773 202.343 254.453 200.042 255.598 197.468C256.744 194.893 257.329 192.105 257.316 189.288C257.313 187.908 257.182 186.532 256.925 185.176C256.007 180.353 253.468 175.465 249.23 170.99L248.813 170.552L248.217 170.43C241.938 169.189 235.886 166.993 230.272 163.918C221.189 158.93 213.346 151.715 205.229 142.49C197.112 133.264 188.731 122.075 178.587 109.277C165.303 92.5198 146.641 75.3934 131.282 62.4154C115.924 49.4373 103.864 40.6234 103.838 40.6023L102.608 39.7051L38.7997 94.3776L38.6308 94.879C34.2292 107.957 32.6089 118.967 32.6089 128.097C32.6089 139.26 35.0419 147.625 37.7231 153.431C38.8302 155.853 40.144 158.175 41.6497 160.371C42.2408 161.226 42.7739 161.954 43.2331 162.482C43.6922 163.01 44.0142 163.474 44.1883 163.706C44.4665 164.154 44.6464 164.656 44.7161 165.179C44.8959 166.225 44.9771 167.285 44.9589 168.346C44.9589 172.172 44.1989 177.993 42.9217 185.504C42.4731 188.18 41.9558 191.066 41.3964 194.17C41.0526 196.01 40.876 197.877 40.8686 199.748C40.8519 201.466 41.0289 203.18 41.3964 204.857C41.9195 207.332 42.9551 209.669 44.4364 211.718C46.5798 214.573 49.482 216.767 52.8122 218.052C56.2739 219.402 59.9636 220.073 63.6792 220.026C64.7347 220.026 65.7903 219.978 66.8828 219.883C70.4239 219.588 73.8409 218.44 76.8419 216.537C81.1644 213.803 84.4261 209.676 86.7325 205.021C89.0162 200.256 90.4164 195.117 90.865 189.853C91.1348 187.381 91.7146 184.954 92.5908 182.627C94.2157 178.288 96.3751 174.167 99.0192 170.362C101.864 166.18 105.203 162.356 108.963 158.972C113.1 155.278 117.671 152.322 122.347 150.655C123.768 150.158 125.264 149.911 126.77 149.926C129.472 149.926 132.507 150.633 135.742 151.937C140.613 153.89 145.933 157.162 151.348 161.073C156.763 164.984 162.279 169.517 167.614 174.009C173.23 178.759 178.64 183.377 183.574 187.156C192.816 194.228 199.313 200.018 206.269 204.15C209.752 206.252 213.508 207.865 217.431 208.942C221.958 210.112 226.621 210.671 231.296 210.605C231.766 210.605 232.241 210.605 232.721 210.605L232.716 208.678Z" fill="#231F20"/>
<path d="M0.303619 64.6426C0.303619 64.6426 24.2858 92.9367 27.7903 95.3592C31.2947 97.7817 32.9097 99.9404 40.457 95.4965C48.0042 91.0526 103.516 46.3181 102.735 42.1434C101.954 37.9687 105.305 35.8101 96.4753 30.1523C87.6456 24.4945 62.8506 5.08813 62.8506 5.08813L0.303619 64.6426Z" fill="white"/>
<path d="M0.303607 64.6424L-2.33528 66.8802C-2.33528 66.8802 3.67083 73.9682 10.1256 81.3677C13.3503 85.0621 16.6911 88.8463 19.4619 91.8757C20.85 93.3905 22.1008 94.7205 23.1564 95.776C23.6842 96.3038 24.1486 96.763 24.5761 97.1588C24.7872 97.3541 24.9931 97.5388 25.1936 97.6866C25.3942 97.8344 25.6 98.0191 25.8375 98.188C26.7453 98.8055 27.6372 99.5338 28.8511 100.23C29.5177 100.613 30.2261 100.918 30.9622 101.138C31.7927 101.387 32.655 101.513 33.5219 101.513C34.9193 101.489 36.3018 101.221 37.6069 100.721C39.222 100.112 40.7768 99.3543 42.2514 98.4571C42.8583 98.0983 43.555 97.6338 44.41 97.0374C45.9933 95.9291 48.1044 94.3721 50.6167 92.4616C59.3778 85.7905 72.9575 74.8707 84.3944 65.0857C90.1155 60.188 95.3036 55.5857 99.1194 51.8913C101.03 50.0388 102.592 48.4344 103.764 47.0569C104.308 46.4293 104.807 45.7644 105.257 45.0671C105.484 44.7157 105.678 44.3448 105.838 43.9588C106.074 43.4044 106.197 42.809 106.202 42.2066C106.202 41.9552 106.179 41.7044 106.134 41.4571C106.077 41.1704 106.051 40.8785 106.054 40.5863C106.054 40.2749 106.081 39.9107 106.113 39.4727C106.144 39.0346 106.186 38.5174 106.186 37.8894C106.195 37.0189 106.08 36.1516 105.843 35.3138C105.627 34.5735 105.317 33.864 104.92 33.2027C104.228 32.0855 103.374 31.077 102.386 30.2102C101.123 29.0977 99.7707 28.0898 98.3436 27.1966C96.2589 25.8666 93.0658 23.613 89.5403 21.0163C84.2308 17.1213 78.0822 12.4452 73.2689 8.74547C70.8622 6.89297 68.7933 5.28852 67.3208 4.14852L65.6003 2.80797L64.9828 2.32769L62.6289 0.480469L-4.3989 64.3416L-2.28778 66.8327L0.351105 64.5949L2.69444 67.1388L65.2044 7.59491L62.8189 5.08797L60.7078 7.81659C60.7078 7.81659 66.9197 12.6774 74.2453 18.2507C77.9081 21.0374 81.8453 24.0035 85.4394 26.6371C89.0336 29.2707 92.2636 31.5666 94.5964 33.0655C97.1297 34.6752 98.3489 35.8838 98.8186 36.5541C98.9822 36.7675 99.1056 37.009 99.1828 37.2666C99.2419 37.4831 99.2686 37.7072 99.2619 37.9316C99.2619 38.1902 99.2355 38.5385 99.2039 38.9871C99.1722 39.4358 99.13 39.9794 99.13 40.618C99.1273 41.351 99.1945 42.0827 99.3306 42.803L102.228 42.2488H99.2778C99.2763 42.4348 99.294 42.6206 99.3306 42.803L102.228 42.2488H101.822L99.3675 41.5521C99.3046 41.7789 99.2744 42.0135 99.2778 42.2488H101.822L99.3675 41.5521L100.74 41.9427L99.4414 41.341C99.412 41.4096 99.3873 41.4802 99.3675 41.5521L100.74 41.9427L99.4414 41.341C99.1906 41.7535 98.9027 42.1421 98.5811 42.5021C97.1262 44.1738 95.5866 45.7698 93.9683 47.2838C90.3847 50.7196 85.4605 55.0949 80.0244 59.7446C71.8755 66.7166 62.555 74.3324 54.7439 80.5074C50.8383 83.5949 47.3075 86.313 44.4997 88.4241C43.0958 89.4796 41.8608 90.3769 40.8792 91.063C39.8975 91.7491 39.1164 92.2769 38.7206 92.5038C37.6175 93.1814 36.4551 93.7573 35.2478 94.2244C34.6925 94.4475 34.1038 94.576 33.5061 94.6044C33.313 94.604 33.121 94.5755 32.9361 94.5199C32.5346 94.381 32.1558 94.1835 31.8119 93.9341C31.2842 93.5963 30.6244 93.0896 29.7853 92.5038L29.5742 92.8099L29.7906 92.5091L29.5794 92.8152L29.7958 92.5144C29.7958 92.5144 29.5425 92.3138 29.2311 92.0183C28.6242 91.4588 27.7111 90.5299 26.6344 89.3794C24.7344 87.3685 22.2908 84.661 19.7153 81.7477C15.8414 77.3777 11.6561 72.5327 8.43666 68.7855C6.85333 66.9119 5.45999 65.3127 4.49944 64.1832L3.37527 62.8638L2.97416 62.3941L0.335272 64.6319L2.69444 67.1388L0.303607 64.6424Z" fill="#231F20"/>
<path d="M255.014 185.519C238.785 187.836 232.848 184.226 229.016 177.75C226.995 174.32 227.918 169.522 229.349 165.585C235.127 168.754 241.356 171.018 247.821 172.299C251.837 176.542 254.175 181.107 255.014 185.519Z" fill="#231F20"/>
<path d="M66.1175 201.801C63.8956 206.815 60.3119 213.022 43.2806 204.44C42.6094 201.169 42.6094 197.795 43.2806 194.523C43.8435 191.42 44.3537 188.526 44.8111 185.841C48.6586 182.559 54.1106 179.149 59.2511 180.384C68.5506 182.606 68.5506 196.349 66.1175 201.801Z" fill="#231F20"/>
<path d="M93.8205 366.721V309.32C93.8205 309.32 92.5961 303.662 103.104 303.662H151.612C151.612 303.662 158.278 300.834 158.278 310.334C158.278 319.834 155.249 366.721 155.249 366.721H93.8205Z" fill="#EF4748"/>
<path d="M10.5742 369.555V335.545C10.5742 335.545 9.34973 332.189 19.8578 332.189H68.3606C68.3606 332.189 75.0317 330.516 75.0317 336.142C75.0317 341.768 72.0022 369.55 72.0022 369.55L10.5742 369.555Z" fill="#EF4748"/>
<path d="M177.885 366.721C177.885 366.721 183.004 290.194 182.466 282.377C181.928 274.561 181.659 270.766 184.889 269.98C188.119 269.193 239.25 268.924 241.429 269.98C243.609 271.035 245.52 273.484 244.174 277.796C242.828 282.108 241.377 365.101 241.429 366.721C241.482 368.342 195.133 369.413 177.885 366.721Z" fill="#EF4748"/>
<path d="M268.167 366.721C268.167 366.721 275.176 243.57 273.286 233.869C271.397 224.169 273.017 225.784 277.329 225.784C281.641 225.784 331.495 223.673 333.917 225.683C336.34 227.694 327.172 361.333 327.172 363.222C327.172 365.112 273.006 372.648 268.167 366.721Z" fill="#EF4748"/>
<path d="M351.028 363.861C351.028 363.861 358.031 206.018 356.147 193.589C354.263 181.16 355.894 183.25 360.206 183.25C364.518 183.25 414.366 180.574 416.794 183.123C419.222 185.672 410.054 356.979 410.054 359.401C410.054 361.824 355.894 371.455 351.028 363.861Z" fill="#EF4748"/>
<path d="M271.544 154.766L268.425 107.936H284.66L271.544 154.766Z" fill="white"/>
<path d="M271.544 154.766L273.392 154.644L270.399 109.783H282.221L269.766 154.27L271.544 154.766L273.392 154.644L271.544 154.766L273.323 155.262L287.093 106.089H266.451L269.702 154.887L270.42 165.643L273.323 155.262L271.544 154.766Z" fill="#231F20"/>
<path d="M281.535 165.005L304.013 146.026L309.011 162.26L281.535 165.005Z" fill="white"/>
<path d="M281.535 165.005L282.728 166.419L303.074 149.24L306.584 160.645L281.356 163.168L281.535 165.005L282.728 166.419L281.535 165.005L281.72 166.847L311.439 163.87L304.958 142.812L275.793 167.438L281.72 166.847L281.535 165.005Z" fill="#231F20"/>
<path d="M284.66 176.621H309.011L303.391 187.857L284.66 176.621Z" fill="white"/>
<path d="M284.66 176.621V178.468H306.024L302.631 185.25L285.61 175.038L284.66 176.621V178.468V176.621L283.71 178.204L304.151 190.47L311.999 174.774H277.994L283.71 178.204L284.66 176.621Z" fill="#231F20"/>
</g>
<defs>
<clipPath id="clip0_1811_1054">
<rect width="417" height="370" fill="white"/>
</clipPath>
</defs>
</svg>
