<svg width="48" height="48" viewBox="0 0 48 48" fill="none" xmlns="http://www.w3.org/2000/svg">
<circle cx="24" cy="24" r="23" stroke="#909090" stroke-width="2"/>
<path d="M12.9521 15.519C12.9521 14.775 13.2096 14.1613 13.7243 13.6777C14.2391 13.1942 14.9084 12.9524 15.7321 12.9524C16.5411 12.9524 17.1956 13.1904 17.6957 13.6666C18.2105 14.1576 18.4679 14.7974 18.4679 15.586C18.4679 16.3002 18.2178 16.8953 17.7177 17.3714C17.2029 17.8624 16.5263 18.1079 15.6879 18.1079H15.6659C14.8569 18.1079 14.2024 17.8624 13.7023 17.3714C13.2022 16.8804 12.9521 16.263 12.9521 15.519ZM13.239 35.0476V20.1389H18.1369V35.0476H13.239ZM20.8507 35.0476H25.7486V26.7229C25.7486 26.2021 25.8075 25.8004 25.9251 25.5177C26.131 25.0118 26.4436 24.584 26.8628 24.2344C27.282 23.8847 27.8078 23.7099 28.4403 23.7099C30.0877 23.7099 30.9113 24.8332 30.9113 27.08V35.0476H35.8093V26.4997C35.8093 24.2976 35.2945 22.6274 34.2649 21.4892C33.2353 20.3509 31.8748 19.7818 30.1833 19.7818C28.2858 19.7818 26.8076 20.6076 25.7486 22.2592V22.3038H25.7266L25.7486 22.2592V20.1389H20.8507C20.8801 20.615 20.8948 22.0955 20.8948 24.5803C20.8948 27.0651 20.8801 30.5542 20.8507 35.0476Z" fill="#909090"/>
</svg>
