<svg width="609" height="509" viewBox="0 0 609 509" fill="none" xmlns="http://www.w3.org/2000/svg">
<g clip-path="url(#clip0_1991_1072)">
<path d="M236.221 172.309L0.168091 89.4165L59.1813 424.326L315.354 505.884L236.221 172.309Z" fill="#2F3841"/>
<path d="M236.221 172.309L236.974 170.174L-2.73987 85.9961L57.1825 426.07L318.486 509.261L238.145 170.583L236.974 170.174L236.221 172.309L234.01 172.83L312.215 502.507L61.1802 422.588L3.07615 92.8428L235.468 174.444L236.221 172.309L234.01 172.83L236.221 172.309Z" fill="#231F20"/>
<path d="M235.549 172.967L316.026 508.547L608.409 434.121L521.897 111.465L235.549 172.967Z" fill="#EE4947"/>
<path d="M235.549 172.967L235.237 173.041L315.783 508.938L608.807 434.351L522.133 111.086L235.156 172.719L235.237 173.041L235.549 172.967L235.617 173.284L521.666 111.843L608.01 433.885L316.263 508.15L235.866 172.892L235.549 172.967L235.617 173.284L235.549 172.967Z" fill="#231F20"/>
<path d="M562.36 261.663L484.902 263.401C484.902 263.401 475.207 300.36 449.931 307.529C424.656 314.699 412.146 278.597 412.146 278.597L408.566 293.749L252.542 268.349C252.542 268.349 254.777 303.11 236.894 316.48C236.894 316.48 407.227 363.718 407.675 361.049C408.123 358.38 404.045 336.716 404.045 336.716C404.045 336.716 419.27 384.81 431.444 412.712C440.485 433.469 454.228 452.439 458.699 466.238C463.17 480.037 474.547 466.859 484.566 464.878C498.315 462.147 607.076 431.458 607.076 431.458L562.36 261.663Z" fill="#2F3841"/>
<path d="M421.5 381.5C417.291 372.698 412.22 364.283 411 355.5C410.122 349.175 408.621 343.083 408.59 336.697C408.59 336.219 408.59 335.853 408.59 335.605C408.59 335.481 408.59 335.388 408.59 335.326V335.245L406.318 335.177L404.057 335.35C404.057 335.35 404.057 335.636 404.113 336.145C404.25 337.933 404.586 342.495 404.892 347.244C405.041 349.621 405.184 352.042 405.29 354.19C405.396 356.337 405.458 358.212 405.458 359.435C405.458 359.789 405.458 360.056 405.458 360.304C405.458 360.409 405.458 360.502 405.458 360.564V360.658L407.7 361.03L405.44 360.645L407.613 361.03L405.801 359.789C405.615 360.051 405.491 360.353 405.44 360.67L407.613 361.055L405.801 359.813L407.563 361.055L406.623 359.062C406.289 359.225 406.002 359.468 405.788 359.77L407.55 361.011L406.623 359.062L407.401 360.695L407.164 358.895C406.977 358.924 406.794 358.98 406.623 359.062L407.401 360.695L407.164 358.895L407.295 359.857L407.239 358.889H407.164L407.295 359.851L407.239 358.882C406.911 358.869 406.585 358.834 406.261 358.777C405.24 358.628 403.627 358.317 401.566 357.877C393.814 356.201 379.629 352.632 362.785 348.231C337.503 341.626 306.175 333.141 281.167 326.306C268.664 322.886 257.741 319.888 249.945 317.734L240.792 315.208L237.485 314.289L236.862 316.474L238.226 318.286C242.016 315.36 245.128 311.653 247.349 307.417C250.749 301.21 252.598 294.134 253.632 287.753C254.458 282.565 254.874 277.32 254.877 272.067C254.877 269.677 254.784 268.237 254.784 268.2L252.517 268.342L252.15 270.577L410.265 296.319L414.332 279.112L412.121 278.591L409.973 279.336C412.021 284.82 414.74 290.033 418.068 294.854C420.868 299.011 424.352 302.667 428.374 305.667C430.493 307.21 432.82 308.447 435.286 309.342C437.881 310.278 440.62 310.759 443.381 310.763C445.802 310.753 448.21 310.406 450.535 309.733C457.317 307.809 462.989 303.904 467.653 299.236C474.646 292.216 479.485 283.445 482.561 276.412C484.365 272.387 485.876 268.238 487.082 263.997L484.884 263.42L484.933 265.686L562.391 263.948L562.341 261.682L562.291 259.416L483.121 261.198L482.685 262.849C480.735 269.564 478.034 276.04 474.634 282.154C471.835 287.296 468.335 292.027 464.235 296.213C460.013 300.391 455.062 303.718 449.29 305.35C447.37 305.91 445.381 306.199 443.381 306.207C441.139 306.207 438.914 305.818 436.805 305.059C433.168 303.662 429.88 301.491 427.172 298.696C422.937 294.531 419.699 289.286 417.507 285.096C416.424 283.004 415.639 281.179 415.073 279.882C414.805 279.261 414.606 278.721 414.45 278.373L414.301 277.976V277.883L411.741 270.496L406.853 291.198L250.088 265.673L250.275 268.51C250.275 268.628 250.356 269.944 250.356 272.079C250.378 279.197 249.561 286.293 247.921 293.221C246.924 297.409 245.401 301.455 243.388 305.264C241.481 308.929 238.8 312.139 235.53 314.674L231.837 317.436L236.283 318.678C236.283 318.678 276.559 329.851 318 341.024C338.724 346.61 359.721 352.197 376.16 356.387C384.374 358.485 391.435 360.229 396.759 361.458C399.424 362.079 401.647 362.557 403.385 362.892C404.25 363.06 404.991 363.196 405.62 363.283C406.162 363.372 406.709 363.424 407.258 363.438H407.638C407.931 363.418 408.22 363.349 408.491 363.234C408.768 363.118 409.021 362.951 409.238 362.743C409.399 362.585 409.537 362.405 409.649 362.209C409.778 361.982 409.867 361.734 409.911 361.477C409.953 361.179 409.98 360.878 409.991 360.577C409.991 360.26 409.991 359.913 409.991 359.515C409.991 357.945 411.5 355.785 409.767 353.103C409.369 345.4 408.572 335.102 408.572 335.102L404.038 335.214C404.038 335.214 404.038 335.791 404.038 336.797C404.084 346.6 405.116 356.374 407.121 365.971C408.507 372.75 412.096 378.217 415 384.5" fill="#231F20"/>
<path d="M238.456 316.915C238.456 316.915 146.029 291.632 136.639 287.287C136.639 287.287 112.161 287.958 102.104 290.633C102.104 290.633 83.9958 302.998 70.9192 299.658C57.8425 296.319 83.3233 284.947 87.6822 282.613C92.0411 280.279 106.127 269.907 104.782 256.871C103.437 243.836 86.661 219.77 67.2203 221.111C47.7796 222.452 48.1159 229.801 43.4207 223.116C38.7256 216.431 54.8224 209.075 60.1901 208.74C60.1901 208.74 56.8337 200.049 70.5829 199.721C84.3321 199.392 97.0725 205.543 97.0725 205.543C97.0725 205.543 106.127 198.945 121.551 203.681C136.975 208.417 147.032 246.853 147.032 246.853L252.542 268.355C252.542 268.355 254.771 300.745 238.456 316.915Z" fill="white"/>
<path d="M238.457 316.915L239.079 314.73L238.039 314.444C232.952 313.047 209.962 306.735 187.152 300.26C175.751 297.026 164.393 293.749 155.345 291.03C150.824 289.671 146.876 288.454 143.806 287.455C142.274 286.952 140.954 286.505 139.902 286.126C138.85 285.748 138.034 285.437 137.617 285.232L137.137 285.009H136.602C136.602 285.009 130.437 285.177 123.014 285.679C119.278 285.934 115.262 286.3 111.501 286.716C108.145 287.064 104.817 287.634 101.537 288.423L101.158 288.522L100.834 288.746C98.1239 290.523 95.2896 292.103 92.3526 293.476C89.7527 294.715 87.0609 295.753 84.3011 296.579C81.5393 297.428 78.672 297.888 75.7826 297.945C74.3391 297.956 72.8999 297.787 71.4984 297.442C71.0433 297.33 70.5977 297.183 70.1658 297.002C69.9002 296.906 69.6567 296.758 69.4497 296.567L69.1819 296.759L69.4933 296.654L69.4497 296.567L69.1819 296.759L69.4933 296.654L69.0761 296.79H69.5182V296.654L69.101 296.79H69.3314H69.5431H69.3314H69.5431C69.5652 296.709 69.5965 296.629 69.6365 296.555C69.9133 296.094 70.2551 295.676 70.6515 295.313C71.8917 294.15 73.2432 293.11 74.6866 292.209C77.1774 290.583 80.185 288.957 82.7817 287.61C84.0956 286.933 85.3161 286.325 86.3435 285.816C87.371 285.307 88.2116 284.891 88.7845 284.575C90.4536 283.642 92.0446 282.577 93.5419 281.39C96.9355 278.795 99.9275 275.716 102.422 272.253C103.809 270.296 104.943 268.173 105.797 265.934C106.692 263.588 107.157 261.101 107.167 258.591C107.17 257.929 107.137 257.268 107.067 256.611C106.693 253.048 105.367 249.025 103.331 244.885C99.9483 238.175 95.2621 232.201 89.5442 227.312C86.6325 224.818 83.3729 222.758 79.8675 221.198C76.3783 219.643 72.605 218.824 68.7834 218.789C68.2105 218.789 67.6376 218.789 67.0585 218.851C62.0306 219.107 57.0641 220.071 52.3068 221.713C50.7251 222.278 49.4984 222.812 48.5706 223.159C48.1222 223.333 47.7548 223.457 47.4871 223.532C47.3227 223.579 47.1535 223.608 46.9827 223.619C46.9518 223.625 46.9202 223.625 46.8893 223.619C46.713 223.536 46.5561 223.418 46.4285 223.271C45.9957 222.827 45.6039 222.345 45.2578 221.831C45.1108 221.626 44.9954 221.4 44.9153 221.161C44.8516 220.983 44.82 220.796 44.8219 220.608C44.8376 220.197 44.9484 219.796 45.1457 219.435C45.7927 218.321 46.6616 217.352 47.6988 216.586C49.7829 214.986 52.0744 213.675 54.5111 212.688C55.6153 212.221 56.7465 211.821 57.8986 211.49C58.6837 211.251 59.4912 211.093 60.3085 211.018L63.422 210.825L62.3073 207.945L60.9499 208.467L62.3136 207.97L60.9561 208.491L62.3198 207.995L61.9835 208.119L62.326 207.995L61.9898 208.119L62.3322 207.995C62.3163 207.959 62.3038 207.921 62.2949 207.883C62.1749 207.461 62.1142 207.024 62.1143 206.586C62.1083 206.135 62.1864 205.686 62.3447 205.264C62.4812 204.911 62.6794 204.585 62.93 204.301C63.5744 203.633 64.3776 203.138 65.2652 202.861C67.0052 202.301 68.823 202.019 70.6515 202.023H71.6852C77.4663 202.121 83.2011 203.071 88.7036 204.842C90.9702 205.549 92.8383 206.257 94.1273 206.778C94.75 207.045 95.273 207.262 95.6093 207.399L95.9829 207.567L96.0701 207.61L96.4313 206.865L96.0701 207.61L96.4313 206.865L96.0701 207.61L97.3155 208.231L98.4177 207.424L97.851 206.648L98.4052 207.43L97.8386 206.654L98.3928 207.436C99.4074 206.786 100.494 206.255 101.631 205.853C104.536 204.769 107.614 204.215 110.716 204.221C114.165 204.245 117.591 204.787 120.878 205.828C122.622 206.419 124.227 207.359 125.592 208.591C128.351 210.956 131.028 214.587 133.395 218.69C136.95 224.854 139.833 232.067 141.801 237.709C142.791 240.534 143.551 242.967 144.062 244.692C144.317 245.555 144.51 246.238 144.641 246.704C144.709 246.933 144.753 247.113 144.79 247.231C144.827 247.349 144.79 247.337 144.821 247.368V247.405L145.176 248.771L252.075 270.552L252.53 268.336L250.263 268.491C250.263 268.628 250.356 270.037 250.356 272.327C250.37 279.204 249.623 286.061 248.127 292.774C247.193 296.948 245.813 301.01 244.011 304.891C242.247 308.758 239.824 312.29 236.85 315.332L238.457 316.939L239.079 314.754L238.457 316.939L240.057 318.541C243.412 315.15 246.152 311.203 248.152 306.877C250.958 300.719 252.86 294.191 253.8 287.492C254.555 282.487 254.936 277.432 254.939 272.371C254.939 269.807 254.834 268.262 254.834 268.218L254.715 266.499L147.511 244.649L147.057 246.871L149.255 246.3C147.362 239.432 144.999 232.702 142.181 226.157C139.962 220.853 137.179 215.8 133.88 211.086C132.342 208.919 130.557 206.936 128.563 205.177C126.728 203.53 124.569 202.283 122.223 201.514C118.502 200.34 114.625 199.729 110.722 199.702C106.993 199.673 103.29 200.332 99.8001 201.645C98.366 202.163 97.0022 202.858 95.7401 203.712L97.0789 205.543L98.069 203.501C95.4656 202.312 92.7863 201.296 90.0486 200.459C84.1097 198.549 77.9185 197.533 71.679 197.442C71.2991 197.442 70.913 197.442 70.5332 197.442C68.4367 197.457 66.352 197.758 64.3373 198.336C63.1796 198.681 62.0814 199.2 61.0806 199.876C59.9836 200.604 59.087 201.594 58.4725 202.757C57.8579 203.919 57.5451 205.216 57.5624 206.53C57.5571 207.555 57.7299 208.574 58.073 209.54L60.1964 208.727L60.0532 206.468C59.2123 206.534 58.3789 206.673 57.5624 206.884C55.7961 207.329 54.0696 207.919 52.4002 208.647C49.5802 209.827 46.9394 211.394 44.5542 213.302C43.4247 214.217 42.4383 215.294 41.6275 216.499C41.2353 217.097 40.9194 217.741 40.6872 218.417C40.4429 219.113 40.3167 219.845 40.3136 220.583C40.3138 221.254 40.4231 221.921 40.6374 222.557C40.8543 223.222 41.1713 223.85 41.5777 224.419C42.2225 225.412 43.014 226.301 43.9252 227.058C44.3663 227.405 44.8604 227.679 45.3886 227.871C45.9116 228.059 46.464 228.154 47.0201 228.15C47.593 228.146 48.1627 228.064 48.7138 227.908C49.6502 227.627 50.5692 227.291 51.4661 226.902C53.3585 226.109 55.3039 225.447 57.2884 224.922C60.5989 224.092 63.9806 223.574 67.3886 223.377C67.8556 223.339 68.3164 223.327 68.7896 223.327C73.1045 223.411 77.3216 224.622 81.0195 226.84C86.8479 230.155 92.0661 235.53 95.8833 241.229C97.695 243.904 99.2384 246.75 100.491 249.727C101.514 252.082 102.2 254.568 102.527 257.113C102.582 257.618 102.609 258.126 102.608 258.634C102.573 261.275 101.934 263.874 100.74 266.232C98.8938 269.779 96.4072 272.956 93.4049 275.605C92.1584 276.743 90.8464 277.809 89.4757 278.795C88.5544 279.475 87.5915 280.097 86.5926 280.658C86.2128 280.863 85.5714 281.185 84.7743 281.583C83.3857 282.272 81.5052 283.203 79.4752 284.264C76.2914 285.888 73.2208 287.723 70.2841 289.758C68.989 290.657 67.7985 291.698 66.7347 292.861C66.2449 293.395 65.8264 293.99 65.4893 294.63C65.126 295.318 64.9298 296.081 64.9164 296.859C64.9165 297.52 65.0767 298.172 65.3835 298.758C65.6137 299.19 65.9123 299.582 66.2677 299.919C66.7951 300.414 67.4011 300.819 68.0611 301.117C68.7895 301.445 69.546 301.707 70.3215 301.899C72.0921 302.331 73.91 302.539 75.7327 302.52C79.1133 302.466 82.4686 301.929 85.6959 300.925C89.992 299.602 94.1419 297.846 98.0814 295.686C101.288 293.948 103.325 292.582 103.374 292.526L102.092 290.664L102.677 292.849C105.752 292.117 108.872 291.586 112.017 291.26C117.497 290.639 123.687 290.192 128.488 289.931C130.891 289.807 132.953 289.72 134.403 289.665L136.103 289.602H136.726L136.664 287.337L135.705 289.391C136.421 289.72 137.361 290.087 138.588 290.521C140.886 291.334 144.124 292.383 148.078 293.625C161.889 297.895 184.325 304.27 203.324 309.59C222.322 314.91 237.871 319.093 237.871 319.1L239.117 319.441L240.051 318.516L238.457 316.915Z" fill="#231F20"/>
<path d="M60.1342 211.005C67.3296 211.341 74.4686 212.439 81.4305 214.283C86.8044 215.742 92.3464 217.852 96.9419 220.807C99.1814 222.218 101.223 223.919 103.013 225.866C104.724 227.746 106.077 229.921 107.005 232.284L111.245 230.658C110.102 227.736 108.426 225.05 106.301 222.737C102.665 218.733 97.9445 215.779 92.9566 213.544C85.4843 210.198 77.3331 208.46 71.0376 207.523C67.4567 206.974 63.8476 206.626 60.2276 206.48L60.1155 211.005H60.1342Z" fill="#231F20"/>
<path d="M95.9952 207.535C99.2007 209.342 102.257 211.399 105.136 213.687C107.523 215.553 109.716 217.653 111.681 219.956C113.498 222.008 114.854 224.423 115.66 227.039L120.05 225.878C119.06 222.574 117.36 219.523 115.069 216.94C111.858 213.282 108.189 210.051 104.153 207.324C102.217 205.97 100.214 204.714 98.1498 203.563L95.9952 207.554V207.535Z" fill="#231F20"/>
<path d="M112.522 202.023C112.522 202.023 122.89 212.756 123.226 217.765L112.522 202.023Z" fill="black"/>
<path d="M107.465 253.532C107.465 259.944 105.558 266.212 101.984 271.544C98.4105 276.875 93.331 281.031 87.3881 283.485C81.4451 285.938 74.9057 286.581 68.5968 285.33C62.2878 284.079 56.4927 280.991 51.9442 276.457C47.3957 271.923 44.2981 266.146 43.0432 259.857C41.7882 253.568 42.4323 247.049 44.8939 241.125C47.3556 235.201 51.5242 230.137 56.8727 226.575C62.2212 223.012 68.5093 221.111 74.9418 221.111C79.2131 221.11 83.4427 221.948 87.389 223.577C91.3353 225.206 94.921 227.594 97.9413 230.605C100.962 233.616 103.357 237.19 104.991 241.124C106.626 245.058 107.466 249.274 107.465 253.532Z" fill="#F57379"/>
<path d="M554.464 271.477C554.464 271.477 516.479 206.133 514.213 180.118C511.946 154.103 485.911 123.526 449.701 115.934C449.701 115.934 446.588 106.35 440.759 105.686C434.931 105.022 443.661 115.934 438.966 115.934C434.271 115.934 403.983 103.042 380.905 116.828C357.828 130.614 337.821 168.299 338.823 200.72C339.826 233.141 356.259 259.882 352.909 294.978C349.559 330.074 374.367 341.44 391.13 326.728C391.13 326.728 410.241 331.074 416.617 304.668C416.617 304.668 429.694 307.107 426.337 287.622C426.337 287.622 441.425 313.693 447.466 324.059C453.506 334.425 460.542 334.084 467.243 325.059C473.943 316.033 537.028 260.558 554.464 271.477Z" fill="#231F20"/>
<path d="M554.464 271.477L556.151 270.502L556.046 270.316C554.937 268.41 545.46 251.949 536.007 232.849C531.281 223.302 526.555 213.097 522.93 203.743C521.1 199.075 519.537 194.618 518.372 190.577C517.309 187.111 516.575 183.553 516.18 179.95C515.457 172.748 513.378 165.746 510.053 159.311C504.928 149.062 496.895 139.218 486.671 131.185C475.975 122.744 463.471 116.875 450.131 114.035L449.732 115.934L451.6 115.313C450.956 113.473 450.121 111.705 449.109 110.037C448.251 108.578 447.183 107.253 445.94 106.102C445.273 105.497 444.53 104.982 443.729 104.568C442.882 104.131 441.962 103.849 441.014 103.737C440.781 103.71 440.546 103.695 440.311 103.693C439.83 103.688 439.352 103.766 438.897 103.923C438.451 104.082 438.046 104.339 437.713 104.675C437.38 105.012 437.127 105.419 436.973 105.866C436.83 106.302 436.76 106.76 436.767 107.219C436.783 107.959 436.896 108.693 437.104 109.404C437.378 110.453 437.758 111.496 438.044 112.427C438.193 112.886 438.312 113.314 438.393 113.668C438.459 113.926 438.496 114.191 438.505 114.457V114.537L439.022 114.63L438.561 114.382C438.535 114.431 438.516 114.483 438.505 114.537L439.022 114.63L438.561 114.382L439.358 114.817L438.735 114.165C438.67 114.229 438.613 114.303 438.567 114.382L439.364 114.817L438.741 114.165L439.302 114.748L439.047 113.979C438.933 114.019 438.829 114.082 438.741 114.165L439.302 114.748L439.047 113.979L439.171 114.351L439.084 113.966H439.047L439.171 114.339L439.084 113.954H439.015C438.878 113.954 438.74 113.941 438.604 113.917C438.2 113.854 437.583 113.724 436.83 113.544C435.503 113.221 433.716 112.743 431.661 112.203C425.434 110.596 416.256 108.479 406.311 108.479C397.668 108.479 388.384 110.093 379.952 115.139C374.099 118.64 368.513 123.569 363.395 129.478C355.68 138.373 349.073 149.466 344.353 161.39C339.633 173.314 336.83 186.101 336.83 198.349C336.83 199.155 336.83 199.962 336.868 200.769C337.335 215.766 341.021 229.466 344.533 243.134C348.045 256.803 351.383 270.446 351.383 285.443C351.383 288.497 351.246 291.601 350.941 294.754C350.729 296.989 350.629 299.137 350.629 301.191C350.629 312.011 353.475 320.434 358.065 326.151C360.227 328.904 362.974 331.145 366.11 332.712C369.072 334.173 372.332 334.931 375.637 334.928C381.41 334.928 387.319 332.644 392.45 328.168L391.161 326.71L390.731 328.572C391.871 328.798 393.031 328.905 394.194 328.888C397.244 328.892 400.261 328.258 403.05 327.026C405.839 325.794 408.337 323.993 410.384 321.738C413.759 318.106 416.71 312.774 418.572 305.077L416.704 304.618L416.343 306.53C416.903 306.62 417.469 306.663 418.037 306.66C419.088 306.663 420.135 306.525 421.15 306.25C422.546 305.874 423.84 305.193 424.94 304.257C426.039 303.321 426.916 302.153 427.508 300.838C428.53 298.49 429.019 295.947 428.94 293.389C428.925 291.33 428.733 289.276 428.367 287.25L426.449 287.572L424.681 288.59C424.681 288.59 439.769 314.661 445.809 325.034C447.132 327.488 448.906 329.671 451.04 331.471C451.947 332.193 452.959 332.775 454.041 333.196C455.071 333.6 456.167 333.811 457.273 333.817C459.467 333.767 461.592 333.048 463.363 331.756C465.469 330.235 467.31 328.379 468.812 326.263C469.123 325.841 469.658 325.207 470.356 324.444C471.676 323.01 473.594 321.086 475.96 318.857C487.342 308.234 499.442 298.403 512.176 289.435C518.676 284.798 525.511 280.649 532.626 277.02C535.509 275.567 538.501 274.339 541.574 273.345C543.907 272.561 546.343 272.124 548.804 272.048C549.682 272.039 550.558 272.137 551.413 272.34C552.126 272.506 552.807 272.787 553.43 273.172L560.106 277.349L556.151 270.521L554.464 271.496L555.504 269.851C554.526 269.249 553.458 268.807 552.341 268.541C551.182 268.263 549.995 268.127 548.804 268.137C545.646 268.137 542.166 268.938 538.417 270.279C531.86 272.631 524.45 276.691 516.865 281.564C505.507 288.876 493.788 298.044 484.379 306.07C479.678 310.086 475.555 313.817 472.342 316.896C470.736 318.435 469.353 319.813 468.239 320.986C467.332 321.917 466.477 322.897 465.679 323.923C464.434 325.691 462.907 327.244 461.159 328.522C460.037 329.371 458.68 329.854 457.273 329.906C456.634 329.905 456.001 329.788 455.405 329.559C454.257 329.089 453.223 328.38 452.372 327.479C451.108 326.162 450.018 324.689 449.128 323.097C446.114 317.92 440.834 308.82 436.307 300.999C434.04 297.094 431.948 293.513 430.46 290.906L428.666 287.802L428.006 286.66L422.57 277.268L424.401 287.957C424.726 289.769 424.899 291.604 424.918 293.445C424.974 295.265 424.68 297.079 424.052 298.789C423.743 299.589 423.287 300.323 422.707 300.955C422.038 301.663 421.197 302.187 420.266 302.476C419.511 302.717 418.723 302.836 417.931 302.83C417.675 302.831 417.419 302.819 417.165 302.793H416.978H416.941L416.717 304.034L416.953 302.793L416.729 304.034L416.966 302.793L415.147 302.451L414.718 304.245C413.833 308.226 412.316 312.04 410.222 315.543C407.569 319.776 404.524 322.104 401.66 323.445C399.318 324.524 396.768 325.084 394.187 325.083C393.53 325.085 392.873 325.048 392.22 324.972L391.715 324.891H391.603L391.454 325.567L391.609 324.891L391.46 325.567L391.616 324.891L390.644 324.674L389.897 325.332C385.413 329.255 380.426 331.117 375.687 331.123C372.98 331.124 370.31 330.502 367.884 329.304C364.204 327.492 360.91 324.338 358.5 319.664C356.091 314.99 354.596 308.895 354.596 301.284C354.596 299.36 354.696 297.339 354.895 295.22C355.213 291.911 355.356 288.684 355.356 285.512C355.356 269.944 351.887 255.934 348.369 242.24C344.851 228.547 341.264 215.146 340.822 200.713C340.822 199.95 340.785 199.186 340.785 198.417C340.785 182.898 345.586 166.139 353.176 151.651C356.807 144.654 361.226 138.092 366.346 132.092C371.241 126.437 376.546 121.781 381.957 118.547C389.604 113.966 398.148 112.445 406.311 112.445C413.946 112.445 421.212 113.78 426.966 115.133C429.843 115.81 432.334 116.493 434.339 116.995C435.335 117.25 436.207 117.473 436.973 117.616C437.353 117.697 437.702 117.765 438.038 117.815C438.361 117.863 438.688 117.89 439.015 117.895C439.476 117.903 439.933 117.827 440.367 117.672C440.721 117.546 441.049 117.354 441.332 117.107C441.741 116.752 442.046 116.293 442.216 115.779C442.354 115.364 442.421 114.93 442.415 114.494C442.395 113.763 442.282 113.037 442.079 112.334C441.799 111.297 441.425 110.254 441.133 109.329C440.989 108.864 440.865 108.436 440.79 108.088C440.722 107.822 440.682 107.549 440.672 107.275V107.157L440.454 107.113L440.666 107.188V107.157L440.448 107.113L440.659 107.188L440.037 106.964L440.572 107.374C440.616 107.317 440.652 107.255 440.678 107.188L440.055 106.964L440.591 107.374L439.968 106.915L440.255 107.629C440.379 107.57 440.488 107.482 440.572 107.374L439.949 106.915L440.236 107.629L440.099 107.287L440.192 107.641H440.236L440.099 107.3L440.192 107.653V107.585V107.653V107.585V107.653H440.317C440.404 107.648 440.491 107.648 440.578 107.653C441.064 107.713 441.534 107.86 441.967 108.088C442.88 108.592 443.686 109.269 444.34 110.08C445.401 111.387 446.288 112.824 446.98 114.357C447.285 114.978 447.521 115.599 447.671 115.977L447.839 116.437L447.883 116.555L448.611 116.319L447.883 116.555L448.611 116.319L447.883 116.555L448.231 117.622L449.334 117.852C466.146 121.461 481.476 130.041 493.321 142.47C498.64 147.978 503.108 154.243 506.578 161.061C509.679 167.062 511.622 173.589 512.307 180.304C512.74 184.305 513.559 188.254 514.754 192.098C516.984 199.72 520.477 208.516 524.462 217.467C536.412 244.295 552.801 272.464 552.82 272.495L554.501 271.52L555.541 269.875L554.464 271.477Z" fill="black"/>
<path d="M410.359 139.106C410.359 139.106 366.975 142.21 361.396 173.867C355.817 205.524 368.333 272.358 410.359 269.242C431.375 264.786 440.765 258.988 440.765 258.988C440.765 258.988 412.121 271.471 412.121 278.597C412.121 285.723 439.277 330.596 452.802 298.653C454.925 293.637 452.802 270.577 452.802 270.577L455.193 201.39C454.44 199.131 459.241 188.436 451.177 182.768C439.496 174.608 429.224 164.608 420.764 153.159L410.359 139.106Z" fill="white"/>
<path d="M346.906 188.231C347.694 192.373 349.201 196.348 351.358 199.975C353.263 203.243 355.867 206.051 358.986 208.2C362.841 210.755 367.384 212.082 372.013 212.005C372.393 212.005 372.773 212.005 373.153 212.005C377.873 211.818 381.646 210.689 384.592 208.951C386.633 207.755 388.419 206.171 389.847 204.289C391.587 201.933 392.817 199.242 393.459 196.387C393.904 194.497 394.132 192.562 394.138 190.62C394.138 189.956 394.106 189.559 394.106 189.509L391.84 189.689V191.955H411.062V189.689L408.79 189.739C408.842 190.905 408.974 192.066 409.182 193.215C409.503 195.069 409.995 196.889 410.651 198.653C411.892 202.117 414.001 205.207 416.779 207.628C418.437 209.024 420.336 210.107 422.383 210.825C424.796 211.655 427.334 212.064 429.887 212.036H430.572C434.994 211.971 439.353 210.975 443.362 209.112C447.674 207.073 451.397 203.979 454.184 200.118C455.442 198.442 456.474 196.61 457.254 194.668L452.983 193.128L453.811 193.426L452.983 193.116L453.811 193.414L452.983 193.103C451.848 195.767 450.208 198.187 448.15 200.229C446.178 202.241 443.857 203.881 441.301 205.071C437.903 206.609 434.222 207.422 430.491 207.461H429.918C425.733 207.461 422.794 206.35 420.546 204.754C418.945 203.585 417.594 202.107 416.573 200.409C415.244 198.146 414.313 195.673 413.821 193.097C413.609 192.042 413.497 191.148 413.435 190.534L413.379 189.826C413.379 189.745 413.379 189.689 413.379 189.658V189.621L413.329 187.405H389.386L389.579 189.851L391.005 189.739L389.579 189.845L391.005 189.733L389.579 189.838V189.882C389.579 189.981 389.579 190.229 389.579 190.596C389.572 191.963 389.433 193.327 389.162 194.668C388.882 196.092 388.436 197.479 387.836 198.802C386.797 201.103 385.151 203.079 383.072 204.519C380.762 206.089 377.567 207.268 372.953 207.455H371.982C368.256 207.535 364.595 206.478 361.489 204.425C359.539 203.087 357.838 201.419 356.464 199.497C354.696 197.008 353.316 194.267 352.373 191.365C351.987 190.198 351.75 189.211 351.576 188.529C351.495 188.187 351.439 187.908 351.408 187.746C351.377 187.585 351.408 187.591 351.371 187.554V187.511L350.493 187.653L351.371 187.517L350.493 187.66L351.371 187.523L346.881 188.224L346.906 188.231Z" fill="#F1AB1E"/>
<path d="M544.638 336.685C544.638 336.685 557.466 321.62 579.733 324.643L544.638 336.685Z" fill="white"/>
<path d="M546.375 338.15L545.31 337.25L546.369 338.156L545.304 337.256L546.362 338.162C548.608 335.782 551.18 333.732 554.003 332.073C559.986 328.429 566.862 326.503 573.873 326.505C575.727 326.506 577.579 326.633 579.415 326.883L580.038 322.395C577.997 322.115 575.94 321.974 573.88 321.973C565.813 321.973 557.911 324.25 551.089 328.541C548.062 330.365 545.308 332.605 542.906 335.195L546.375 338.125V338.15Z" fill="#231F20"/>
<path d="M295.975 92.2967L293.808 92.9857C294.848 96.2321 295.838 99.6337 296.567 102.719C296.934 104.258 297.227 105.717 297.432 107.027C297.615 108.139 297.717 109.264 297.737 110.391C297.742 110.794 297.715 111.197 297.656 111.595C297.63 111.762 297.591 111.926 297.538 112.086L297.501 112.16L297.993 112.477L297.713 111.98C297.63 112.025 297.558 112.086 297.501 112.16L297.993 112.477L297.713 111.98L298.018 112.52V111.899C297.911 111.909 297.807 111.941 297.713 111.992L298.018 112.533V111.912H297.987L297.868 114.171L298.024 111.912C297.504 111.845 297 111.688 296.536 111.446C294.923 110.61 293.413 109.591 292.033 108.411C289.165 106.002 286.449 103.419 283.901 100.677C281.217 97.846 278.702 94.9782 276.79 92.7312L276.167 91.9801L275.177 91.9366C259.796 91.2725 246.047 86.0459 236.227 78.1192C231.503 74.3859 227.583 69.7413 224.701 64.4631C221.926 59.3654 220.497 53.6477 220.549 47.8479C220.602 42.0481 222.133 36.3569 225 31.3098C229.315 23.4948 236.613 16.735 245.898 11.9367C255.182 7.13849 266.416 4.31415 278.546 4.31415C294.736 4.31415 309.313 9.34208 319.781 17.3495C324.803 21.1042 328.992 25.8528 332.086 31.2974C334.985 36.4456 336.52 42.246 336.544 48.1502C336.531 52.9627 335.504 57.7188 333.53 62.1105C330.597 68.7027 325.609 74.6555 319.084 79.491C312.026 84.5972 303.994 88.2075 295.483 90.0993L293.086 90.6517L293.833 92.9919L296 92.3029L296.511 94.5127C309.282 91.558 320.366 85.5493 328.318 77.4798C332.221 73.5671 335.385 68.9853 337.659 63.9541C339.891 58.9842 341.049 53.6017 341.059 48.1564C341.035 41.4886 339.308 34.9366 336.04 29.1186C331.208 20.3849 323.218 13.0665 313.261 7.9144C302.497 2.48396 290.585 -0.301952 278.521 -0.210976C261.409 -0.210976 245.873 5.08386 234.521 13.7617C228.999 17.8946 224.395 23.1209 220.996 29.1124C217.763 34.8187 216.036 41.2502 215.978 47.8036C215.921 54.357 217.534 60.8177 220.666 66.5798C225.187 75.0714 232.678 82.2719 242.056 87.4798C252.178 92.9671 263.438 96.0396 274.953 96.4556L275.053 94.1899L273.321 95.6548C277.02 100.054 280.937 104.266 285.059 108.274C287.082 110.246 289.246 112.068 291.535 113.724C292.504 114.414 293.529 115.023 294.599 115.543C295.573 116.026 296.629 116.325 297.713 116.425H298.011C298.792 116.432 299.557 116.202 300.203 115.767C300.659 115.452 301.047 115.049 301.343 114.581C301.72 113.955 301.978 113.265 302.103 112.545C302.23 111.83 302.291 111.105 302.283 110.379C302.264 109.018 302.144 107.661 301.922 106.319C301.014 101.327 299.749 96.4069 298.136 91.5952L295.975 92.2843L296.486 94.4941L295.975 92.2967Z" fill="white"/>
<path d="M447.098 144.444C447.098 144.444 434.09 117.66 479.167 145.462C513.291 166.517 513.951 204.245 519.643 217.523C525.334 230.8 536.455 247.219 547.041 261.669C553.088 269.956 564.844 295.425 569.409 311.738C573.973 328.05 588.326 364.196 580.487 380.44C569.409 403.407 536.157 408.721 522.837 410.614C509.517 412.507 482.443 403.507 475.045 380.744C475.045 380.744 438.978 380.36 441.519 350.769C444.059 321.179 466.128 290.738 466.128 233.451C466.134 194.202 447.098 144.444 447.098 144.444Z" fill="#231F20"/>
<path d="M404.207 362.247L459.21 475.487L609.218 434.537L594.367 378.131L587.461 379.944L600.519 429.534L463.052 467.057L410.627 359.143L404.207 362.247Z" fill="#231F20"/>
<path d="M410.359 139.106L410.197 136.853C402.267 137.632 394.491 139.545 387.107 142.532C381.148 144.978 374.946 148.46 369.815 153.47C367.167 156.038 364.909 158.978 363.115 162.197C361.181 165.713 359.845 169.524 359.161 173.476C358.267 178.873 357.838 184.337 357.878 189.807C357.895 198.8 358.788 207.771 360.543 216.592C363.302 230.322 368.221 243.904 375.849 254.221C379.477 259.292 384.107 263.569 389.455 266.79C394.932 269.981 401.169 271.645 407.513 271.607C408.497 271.607 409.487 271.57 410.496 271.496H410.652H410.801C432.072 266.983 441.718 261.086 441.936 260.943L439.825 256.939C439.788 256.939 432.589 260.093 425.316 264.171C421.758 266.101 418.364 268.316 415.166 270.794C413.825 271.84 412.611 273.038 411.548 274.363C411.074 274.969 410.674 275.63 410.359 276.331C410.036 277.052 409.865 277.832 409.855 278.622C409.864 279.21 409.941 279.795 410.085 280.366C410.414 281.642 410.852 282.888 411.393 284.09C412.681 286.999 414.188 289.806 415.901 292.489C418.88 297.31 422.471 301.727 426.586 305.63C428.559 307.485 430.765 309.078 433.15 310.366C435.368 311.576 437.845 312.24 440.373 312.302C441.809 312.302 443.234 312.042 444.576 311.533C446.798 310.641 448.761 309.209 450.286 307.368C452.227 305.022 453.79 302.39 454.919 299.565C455.187 298.899 455.384 298.206 455.505 297.498C455.726 296.244 455.868 294.977 455.928 293.705C456.009 292.302 456.04 290.769 456.04 289.174C456.04 284.934 455.803 280.254 455.567 276.623C455.33 272.992 455.094 270.416 455.087 270.416L452.827 270.62L455.1 270.695L457.46 201.105L457.329 200.72L456.65 200.943L457.366 200.863C457.359 200.814 457.347 200.766 457.329 200.72L456.65 200.943L457.366 200.863C457.364 200.827 457.364 200.792 457.366 200.757C457.382 200.383 457.419 200.01 457.479 199.64C457.584 198.864 457.759 197.846 457.914 196.685C458.091 195.412 458.184 194.128 458.195 192.843C458.235 190.721 457.856 188.612 457.08 186.635C456.128 184.336 454.528 182.36 452.472 180.949C440.989 172.932 430.894 163.104 422.582 151.85L411.455 136.772L410.209 136.865L410.371 139.118L408.547 140.465L418.933 154.537C427.54 166.183 437.988 176.357 449.869 184.661C451.22 185.568 452.271 186.853 452.889 188.355C453.433 189.777 453.695 191.29 453.661 192.812C453.638 194.245 453.509 195.674 453.275 197.088C453.176 197.759 453.07 198.392 452.989 198.988C452.9 199.563 452.85 200.144 452.839 200.726C452.828 201.195 452.896 201.663 453.039 202.11L455.193 201.403L452.92 201.322L450.554 270.639V270.776C450.554 270.776 450.554 270.813 450.554 270.887C450.66 272.011 451.482 281.489 451.482 289.137C451.482 291.173 451.42 293.078 451.283 294.624C451.214 295.394 451.127 296.077 451.021 296.623C450.958 297.013 450.856 297.395 450.716 297.765C449.066 301.663 447.26 304.196 445.51 305.692C444.752 306.362 443.882 306.894 442.939 307.262C442.114 307.578 441.238 307.738 440.354 307.734C438.932 307.702 437.532 307.381 436.238 306.79C433.691 305.692 430.952 303.631 428.361 301.049C424.471 297.052 421.104 292.58 418.342 287.74C417.219 285.832 416.225 283.852 415.365 281.812C415.072 281.117 414.819 280.406 414.606 279.683C414.497 279.327 414.426 278.961 414.394 278.591C414.41 278.418 414.457 278.25 414.531 278.094C414.951 277.282 415.509 276.549 416.181 275.928C418.21 274.032 420.433 272.353 422.813 270.918C426.854 268.412 431.023 266.119 435.304 264.047C437.172 263.134 438.754 262.389 439.881 261.868L441.201 261.247L441.55 261.092L441.668 261.042L440.759 258.963L439.564 257.039L439.912 257.61L439.564 257.039L439.912 257.61L439.564 257.039C439.483 257.088 430.31 262.669 409.886 266.97L410.353 269.186L410.191 266.927C409.288 266.989 408.404 267.026 407.538 267.026C403.805 267.044 400.099 266.392 396.597 265.102C390.738 262.923 385.669 258.994 381.335 253.78C374.84 245.971 370.064 235.288 366.963 223.885C363.975 212.749 362.445 201.273 362.411 189.745C362.381 184.546 362.797 179.355 363.656 174.227C364.252 170.765 365.42 167.426 367.112 164.345C369.917 159.442 373.837 155.264 378.558 152.147C385.407 147.442 393.502 144.699 399.773 143.178C402.924 142.414 405.639 141.936 407.557 141.676C408.516 141.539 409.269 141.452 409.786 141.403C410.041 141.372 410.234 141.359 410.365 141.347H410.508H410.546L410.359 139.106L408.534 140.453L410.359 139.106Z" fill="#231F20"/>
<path d="M361.894 160.844L361.819 160.372L361.894 160.844L361.819 160.372L361.894 160.844C363.546 160.627 365.21 160.524 366.876 160.534C369.482 160.526 372.083 160.776 374.641 161.279C376.814 161.698 378.928 162.38 380.936 163.308C384.111 164.741 386.811 167.044 388.72 169.95C390.725 173.054 392.058 177.269 392.064 183.122C392.064 183.799 392.064 184.5 392.008 185.233C391.348 197.989 389.056 205.512 386.746 209.832C385.917 211.482 384.807 212.975 383.464 214.246C382.809 214.867 382.042 215.359 381.204 215.698C380.832 215.838 380.495 216.059 380.219 216.345C379.943 216.631 379.735 216.975 379.61 217.352C379.485 217.728 379.445 218.128 379.495 218.522C379.544 218.916 379.682 219.293 379.896 219.627C380.197 220.089 380.631 220.449 381.142 220.658L387.718 223.228L389.374 219.007L382.798 216.443L382.107 218.181L383.682 217.163C383.468 216.839 383.159 216.588 382.798 216.443L382.107 218.181L383.682 217.163L382.107 218.181H383.975C383.975 217.82 383.871 217.467 383.676 217.163L382.101 218.181L383.67 219.218C383.874 218.91 383.983 218.55 383.981 218.181H382.113L383.682 219.218L382.113 218.181L382.773 219.938C383.145 219.8 383.464 219.548 383.682 219.218L382.113 218.181L382.773 219.938C384.157 219.401 385.425 218.607 386.509 217.598C388.608 215.704 390.868 212.582 392.736 207.504C394.605 202.427 396.043 195.363 396.56 185.468C396.603 184.668 396.622 183.886 396.622 183.128C396.622 177.312 395.414 172.576 393.359 168.851C391.921 166.222 389.956 163.915 387.587 162.073C384.377 159.665 380.687 157.971 376.764 157.107C373.525 156.365 370.211 155.999 366.888 156.015C364.981 156.001 363.075 156.121 361.184 156.375L361.882 160.85L361.894 160.844Z" fill="#231F20"/>
<path d="M386.105 236.151L386.889 238.274L387.163 238.175C388.502 237.684 394.636 235.45 401.485 233.271C404.898 232.185 408.466 231.105 411.666 230.273C413.261 229.851 414.78 229.497 416.1 229.23C417.212 228.991 418.337 228.819 419.469 228.715L419.295 226.455L417.072 226.002C416.465 228.711 415.632 231.365 414.581 233.935C413.808 235.879 412.8 237.722 411.579 239.423C411.06 240.129 410.458 240.771 409.786 241.334C409.26 241.782 408.654 242.126 407.999 242.346C406.268 242.848 404.471 243.087 402.668 243.054C399.275 243.087 395.915 242.388 392.817 241.005C391.598 240.458 390.502 239.673 389.592 238.696C389.246 238.305 388.959 237.866 388.739 237.393C388.537 236.941 388.412 236.458 388.371 235.965L386.111 236.151L386.896 238.274L386.111 236.151L383.844 236.337C383.93 237.338 384.182 238.318 384.592 239.236C385.299 240.774 386.367 242.119 387.705 243.159C389.789 244.736 392.169 245.88 394.704 246.524C397.291 247.228 399.961 247.585 402.644 247.585C405.047 247.585 406.946 246.964 408.952 246.313C410.197 245.915 411.71 245.605 412.688 244.804C414.361 243.348 415.759 241.606 416.816 239.658C418.3 236.963 419.494 234.119 420.378 231.173C421.138 228.721 421.499 226.964 421.511 226.915L422.134 223.966L419.126 224.202C417.71 224.321 416.302 224.528 414.911 224.823C412.183 225.388 408.989 226.244 405.72 227.207C395.9 230.124 385.339 234.016 385.314 234.016L383.695 234.637L383.838 236.35L386.105 236.151Z" fill="#231F20"/>
<path d="M412.028 171.688L411.598 171.353L412.028 171.688L411.598 171.353L412.028 171.688C413.304 170.125 414.71 168.671 416.231 167.343C419.505 164.398 423.26 162.032 427.334 160.347L425.646 156.145C421.028 158.047 416.774 160.731 413.074 164.078C411.395 165.554 409.842 167.165 408.428 168.895L412.028 171.663V171.688Z" fill="#231F20"/>
<path d="M381.472 180.559C381.472 181.742 381.12 182.899 380.46 183.884C379.8 184.868 378.862 185.635 377.765 186.088C376.668 186.54 375.46 186.658 374.296 186.427C373.131 186.196 372.062 185.625 371.222 184.788C370.383 183.95 369.812 182.883 369.581 181.722C369.35 180.561 369.47 179.358 369.925 178.264C370.38 177.171 371.151 176.237 372.139 175.58C373.127 174.923 374.288 174.573 375.475 174.575C376.263 174.575 377.044 174.73 377.772 175.03C378.5 175.331 379.161 175.772 379.718 176.328C380.275 176.883 380.716 177.543 381.017 178.269C381.318 178.995 381.473 179.773 381.472 180.559Z" fill="#231F20"/>
<path d="M432.091 180.559C432.091 181.742 431.739 182.899 431.079 183.883C430.42 184.867 429.482 185.634 428.385 186.087C427.289 186.54 426.082 186.658 424.917 186.427C423.753 186.197 422.683 185.627 421.844 184.79C421.004 183.953 420.432 182.887 420.201 181.726C419.969 180.565 420.088 179.362 420.542 178.269C420.997 177.175 421.766 176.241 422.753 175.583C423.74 174.926 424.901 174.575 426.088 174.575C427.68 174.575 429.207 175.205 430.333 176.327C431.459 177.45 432.091 178.972 432.091 180.559Z" fill="#231F20"/>
<path d="M260.112 33.4633L235 49.6989L258.65 61.0877C258.887 61.2247 259.15 61.3112 259.422 61.3416C259.694 61.3721 259.969 61.3459 260.231 61.2646C260.492 61.1834 260.734 61.0489 260.94 60.8696C261.147 60.6903 261.315 60.4701 261.432 60.2229C261.55 59.9756 261.615 59.7067 261.624 59.433C261.633 59.1592 261.585 58.8867 261.483 58.6324C261.381 58.3782 261.228 58.1478 261.033 57.9557C260.838 57.7636 260.605 57.614 260.35 57.5163L243.072 49.1944L262.247 36.7966C262.466 36.6551 262.655 36.4719 262.803 36.2575C262.951 36.0431 263.055 35.8016 263.11 35.5468C263.164 35.292 263.169 35.0289 263.122 34.7726C263.075 34.5163 262.978 34.2717 262.837 34.0528C262.695 33.834 262.512 33.6451 262.298 33.497C262.084 33.3489 261.842 33.2445 261.588 33.1898C261.333 33.135 261.07 33.131 260.814 33.1779C260.558 33.2249 260.314 33.3218 260.095 33.4633H260.112Z" fill="white"/>
<path d="M281.899 26.462L267.827 69.7666C267.732 70.0177 267.689 70.2856 267.701 70.5538C267.712 70.8221 267.778 71.0853 267.894 71.3274C268.01 71.5695 268.174 71.7855 268.376 71.9623C268.578 72.1391 268.814 72.2731 269.069 72.356C269.324 72.439 269.594 72.4693 269.861 72.445C270.128 72.4207 270.388 72.3423 270.624 72.2147C270.86 72.0871 271.068 71.9128 271.235 71.7025C271.401 71.4922 271.524 71.2501 271.594 70.9911L285.683 27.6865C285.778 27.4354 285.821 27.1675 285.809 26.8992C285.798 26.631 285.732 26.3678 285.616 26.1257C285.5 25.8836 285.336 25.6676 285.134 25.4908C284.932 25.314 284.696 25.18 284.441 25.097C284.186 25.0141 283.916 24.9838 283.649 25.0081C283.382 25.0324 283.122 25.1108 282.886 25.2384C282.65 25.366 282.442 25.5403 282.275 25.7506C282.109 25.9609 281.986 26.203 281.916 26.462" fill="white"/>
<path d="M296.786 39.2057L313.955 49.5854L295.018 62.7032C294.585 63.0039 294.29 63.4642 294.196 63.9831C294.103 64.5019 294.219 65.0366 294.52 65.4696C294.82 65.9026 295.28 66.1984 295.799 66.2919C296.317 66.3855 296.851 66.2691 297.284 65.9684L321.269 49.3303L298.836 35.8044C298.385 35.5322 297.845 35.4504 297.334 35.5769C296.823 35.7034 296.383 36.0279 296.111 36.479C295.839 36.93 295.758 37.4707 295.884 37.982C296.011 38.4934 296.335 38.9336 296.786 39.2057Z" fill="white"/>
</g>
<defs>
<clipPath id="clip0_1991_1072">
<rect width="609" height="509" fill="white"/>
</clipPath>
</defs>
</svg>
