<svg width="48" height="48" viewBox="0 0 48 48" fill="none" xmlns="http://www.w3.org/2000/svg">
<circle cx="24" cy="24" r="23" stroke="#909090" stroke-width="2"/>
<path d="M36.5716 16.2702C35.6266 16.6975 34.6273 16.98 33.6047 17.1088C34.6836 16.4371 35.492 15.3803 35.8801 14.1344C34.8663 14.7635 33.7565 15.2067 32.599 15.4447C31.8253 14.5702 30.795 13.9881 29.6696 13.7896C28.5443 13.5912 27.3876 13.7877 26.3809 14.3483C25.3742 14.9089 24.5746 15.8018 24.1073 16.8872C23.64 17.9725 23.5316 19.1888 23.799 20.3453C21.7491 20.2372 19.744 19.6809 17.9139 18.7125C16.0837 17.744 14.4695 16.3851 13.1761 14.7241C12.7225 15.5498 12.4841 16.4849 12.4847 17.4364C12.4831 18.32 12.6912 19.1904 13.0903 19.97C13.4895 20.7495 14.0675 21.4141 14.7727 21.9045C13.953 21.8813 13.1509 21.652 12.4344 21.2363V21.3018C12.4406 22.5399 12.8568 23.7378 13.6128 24.6928C14.3687 25.6479 15.4179 26.3014 16.583 26.543C16.1345 26.6853 15.6689 26.7603 15.2001 26.7658C14.8757 26.7618 14.552 26.7311 14.2321 26.674C14.5639 27.7391 15.206 28.6698 16.0689 29.3368C16.9319 30.0037 17.9729 30.3737 19.047 30.3953C17.2332 31.8828 14.9938 32.6947 12.6859 32.7014C12.2656 32.7029 11.8457 32.6766 11.4287 32.6228C13.7851 34.2086 16.5312 35.0504 19.3361 35.0469C21.2718 35.0678 23.192 34.6866 24.9846 33.9254C26.7773 33.1642 28.4065 32.0383 29.777 30.6135C31.1475 29.1886 32.2319 27.4935 32.9668 25.627C33.7017 23.7605 34.0724 21.76 34.0573 19.7425C34.0573 19.5198 34.0573 19.2839 34.0573 19.0481C35.0438 18.2813 35.8946 17.3413 36.5716 16.2702Z" fill="#909090"/>
</svg>
