<svg width="568" height="493" viewBox="0 0 568 493" fill="none" xmlns="http://www.w3.org/2000/svg">
<g clip-path="url(#clip0_1781_1520)">
<path d="M255.567 253.441V282.087C255.169 268.061 232.305 257.646 232.305 257.646L224.886 260.852C224.886 260.852 220.272 286.097 220.272 288.702C220.272 291.307 239.926 326.366 241.933 329.37C243.939 332.373 273.621 340.385 277.83 340.385C282.039 340.385 314.93 332.974 319.943 330.173C324.956 327.372 343.003 301.52 345.611 297.315C348.219 293.11 349.421 250.836 341.199 250.633C332.976 250.431 323.551 261.453 323.551 261.453C317.931 266.212 313.897 272.57 311.988 279.678L312.518 241.224C312.518 241.224 307.714 243.895 311.988 238.54C316.263 233.186 323.218 217.71 323.218 217.71C323.218 217.71 346.48 218.487 349.964 199.551C352.01 188.391 345.996 182.684 343.016 180.151C342.067 179.311 340.976 178.648 339.794 178.192C339.794 178.192 338.192 170.186 337.663 142.931C337.133 115.675 322.152 101.793 322.152 101.793C322.152 101.793 328.035 99.6643 328.564 94.8584C329.094 90.0525 318.427 92.7232 318.427 92.7232C318.427 92.7232 309.328 77.7634 309.328 88.0217C309.328 98.28 303.988 94.8715 303.988 94.8715C287.928 84.7176 245.698 86.8529 229.102 94.8715C212.507 102.89 194.349 100.748 194.349 100.748C194.349 100.748 201.317 115.133 192.748 127.984C184.179 140.835 192.748 150.414 203.977 152.033C205.488 152.247 206.856 153.038 207.794 154.24C213.964 161.652 210.408 184.617 210.408 184.617C211.99 269.028 291.68 250.294 291.68 250.294L255.567 253.441Z" fill="white"/>
<path d="M255.567 253.441H253.28V282.087H255.567L257.855 282.022C257.777 280.001 257.334 278.01 256.548 276.145C255.152 272.941 253.155 270.033 250.665 267.578C247.242 264.197 243.413 261.251 239.266 258.809C237.318 257.615 235.309 256.525 233.246 255.544L232.324 255.119L222.886 259.233L222.67 260.435C222.67 260.435 221.513 266.755 220.357 273.403C219.781 276.726 219.2 280.135 218.768 282.884C218.546 284.262 218.37 285.496 218.239 286.443C218.173 286.935 218.121 287.37 218.082 287.749C218.042 288.074 218.02 288.401 218.017 288.728C218.019 288.903 218.034 289.078 218.062 289.251C218.109 289.498 218.17 289.742 218.245 289.982C218.389 290.426 218.579 290.909 218.82 291.471C219.271 292.515 219.899 293.841 220.664 295.389C223.357 300.802 227.782 308.977 231.743 316.121C233.704 319.686 235.586 322.997 237.057 325.563C237.789 326.869 238.429 327.946 238.933 328.828L239.586 329.931C239.776 330.238 239.919 330.48 240.057 330.676C240.242 330.946 240.462 331.192 240.71 331.407C241.113 331.761 241.551 332.071 242.018 332.334C243.095 332.928 244.211 333.449 245.358 333.895C247.665 334.835 250.587 335.854 253.737 336.827C258.469 338.309 263.725 339.765 268.15 340.856C270.359 341.404 272.359 341.855 273.993 342.162C274.81 342.318 275.542 342.449 276.17 342.54C276.723 342.631 277.282 342.681 277.843 342.69C278.302 342.684 278.76 342.651 279.215 342.593C280.189 342.482 281.451 342.279 282.967 342.011C288.255 341.058 296.589 339.236 304.171 337.356C307.962 336.415 311.557 335.455 314.498 334.587C315.962 334.15 317.269 333.732 318.368 333.34C318.917 333.144 319.413 332.948 319.858 332.765C320.274 332.595 320.68 332.401 321.074 332.184C321.586 331.886 322.07 331.541 322.518 331.152C323.554 330.246 324.532 329.276 325.446 328.247C327.316 326.19 329.473 323.552 331.715 320.665C335.081 316.343 338.623 311.524 341.519 307.377C342.977 305.32 344.271 303.459 345.31 301.931C346.349 300.404 347.121 299.248 347.558 298.536C347.841 298.064 348.061 297.557 348.212 297.028C348.524 295.934 348.756 294.819 348.905 293.691C349.206 291.732 349.441 289.29 349.604 286.567C349.768 283.844 349.859 280.834 349.859 277.739C349.859 271.254 349.46 264.424 348.421 259.018C348.181 257.743 347.876 256.481 347.506 255.237C347.06 253.629 346.349 252.106 345.401 250.731C344.933 250.091 344.35 249.542 343.682 249.112C342.961 248.651 342.127 248.394 341.271 248.367H340.99C338.473 248.454 336.011 249.124 333.8 250.326C330.729 251.956 327.896 254 325.381 256.399C324.132 257.539 322.947 258.746 321.832 260.017L323.544 261.453L322.061 259.71C317.904 263.267 314.534 267.65 312.165 272.58C311.113 274.695 310.3 276.92 309.74 279.214L311.982 279.678L314.269 279.711L314.858 237.313L311.406 239.226L312.021 240.336L311.406 239.226L312.021 240.336L311.406 239.226L311.256 239.304C311.075 239.395 310.89 239.475 310.701 239.546L310.504 239.611L310.655 240.368V239.605H310.504L310.655 240.362V241.172L311.047 239.65C310.919 239.617 310.787 239.599 310.655 239.598V241.172L311.047 239.65L310.576 241.472L311.544 239.859C311.389 239.766 311.222 239.695 311.047 239.65L310.576 241.472L311.544 239.859L310.531 241.603L312.308 240.702C312.137 240.37 311.876 240.092 311.557 239.898L310.531 241.603L312.308 240.702L310.648 241.544H312.518C312.514 241.251 312.443 240.962 312.308 240.702L310.648 241.544H311.125L312.498 241.844C312.51 241.744 312.51 241.644 312.498 241.544H311.125L312.498 241.844L311.844 241.707L312.452 241.923V241.844L311.799 241.707L312.407 241.923C312.505 241.715 312.621 241.516 312.753 241.328C312.969 240.995 313.289 240.558 313.727 240.022C314.387 239.183 315.004 238.312 315.577 237.411C316.675 235.7 317.819 233.688 318.923 231.625C322.244 225.435 325.25 218.735 325.263 218.709L323.172 217.775L323.1 220.061H323.557C328.338 220.015 333.07 219.104 337.525 217.371C340.919 216.05 343.989 214.014 346.526 211.402C349.483 208.244 351.445 204.285 352.166 200.021C352.463 198.436 352.614 196.827 352.617 195.215C352.693 191.313 351.649 187.47 349.611 184.14C348.223 181.974 346.503 180.039 344.513 178.407C343.344 177.362 341.989 176.544 340.519 175.998L339.813 178.172L342.061 177.722L341.133 177.911L342.061 177.728L341.133 177.917L342.061 177.735C342.061 177.695 340.486 169.618 339.963 142.879C339.695 128.839 335.689 118.17 331.728 111.026C327.767 103.883 323.884 100.232 323.727 100.108L322.172 101.78L322.956 103.928C324.231 103.436 325.436 102.777 326.538 101.969C327.563 101.222 328.467 100.321 329.218 99.2987C330.113 98.0661 330.678 96.6252 330.858 95.1131C330.858 94.9172 330.891 94.7213 330.891 94.5254C330.892 94.0651 330.824 93.6071 330.688 93.1672C330.461 92.4102 330.026 91.7318 329.433 91.2083C329.044 90.8656 328.602 90.5858 328.126 90.379C327.481 90.1001 326.802 89.909 326.106 89.8109C325.444 89.7137 324.776 89.6678 324.106 89.6737C322.682 89.6898 321.261 89.8231 319.858 90.0721C318.701 90.2745 317.897 90.4704 317.897 90.4769L318.453 92.697L320.413 91.5086C320.413 91.4695 319.106 89.3538 317.433 87.1598C316.599 86.0425 315.677 84.9943 314.675 84.0255C314.185 83.5567 313.646 83.1429 313.067 82.7913C312.756 82.6046 312.428 82.4493 312.086 82.3277C311.684 82.1926 311.262 82.1221 310.838 82.1188C310.491 82.113 310.147 82.166 309.818 82.2755C309.226 82.4644 308.698 82.815 308.295 83.2876C308.025 83.6006 307.805 83.9529 307.642 84.3324C307.412 84.8725 307.258 85.4416 307.184 86.0236C307.092 86.6724 307.048 87.3272 307.053 87.9825C307.07 89.0772 306.978 90.1709 306.779 91.2474C306.696 91.6971 306.56 92.1355 306.374 92.5534C306.164 92.9648 306.034 93.0431 306.001 93.0627C305.968 93.0823 306.001 93.0627 305.877 93.0627C305.713 93.0567 305.551 93.0213 305.4 92.9582L305.223 92.8734L304.687 93.781L305.256 92.8929H305.223L304.687 93.8006L305.256 92.9125C301.086 90.3006 295.615 88.5376 289.425 87.3818C282.778 86.225 276.04 85.6655 269.293 85.7102C261.595 85.7075 253.909 86.3299 246.312 87.5711C242.934 88.1249 239.589 88.8617 236.292 89.7782C233.483 90.5428 230.745 91.5478 228.108 92.7819C223.21 95.0948 218.014 96.7188 212.67 97.6075C208.523 98.3216 204.322 98.6799 200.114 98.6783C198.382 98.6783 196.989 98.6196 196.042 98.5543C195.565 98.5543 195.198 98.4955 194.957 98.4759H194.689H194.617L194.584 98.7175L194.617 98.4759L194.584 98.7175L194.617 98.4759L190.479 97.9927L192.29 101.741L192.368 101.702L192.283 101.741L192.362 101.702L192.277 101.741C193.876 105.468 194.708 109.479 194.721 113.534C194.729 115.72 194.448 117.898 193.885 120.011C193.246 122.383 192.224 124.635 190.858 126.678C188.244 130.596 186.996 134.429 186.996 137.981C186.986 140.131 187.46 142.255 188.381 144.198C189.767 146.996 191.915 149.347 194.578 150.982C197.345 152.696 200.443 153.808 203.669 154.247C204.113 154.308 204.539 154.457 204.924 154.684C205.349 154.946 205.727 155.277 206.042 155.664C206.638 156.421 207.11 157.267 207.441 158.171C208.105 160.021 208.544 161.944 208.748 163.898C209.011 166.152 209.138 168.42 209.127 170.689C209.127 174.215 208.872 177.624 208.624 180.131C208.493 181.385 208.369 182.417 208.278 183.135C208.232 183.487 208.193 183.788 208.16 183.951C208.127 184.114 208.16 184.114 208.16 184.16V184.225V184.421V184.624C208.441 199.492 211.114 211.337 215.409 220.746C218.294 227.194 222.379 233.036 227.448 237.959C234.053 244.188 242.064 248.733 250.802 251.208C258.266 253.336 265.996 254.39 273.758 254.336C279.975 254.373 286.179 253.76 292.268 252.507L291.517 248.021L253.325 251.345V253.441H255.567L255.77 255.714L291.87 252.573L291.667 250.294L291.144 248.074V248.139V248.074V248.139V248.074C285.399 249.241 279.548 249.812 273.686 249.778C267.24 249.812 260.815 249.056 254.554 247.525C249.329 246.241 244.312 244.225 239.652 241.537C231.74 236.91 225.3 230.141 221.076 222.013C216.199 212.872 212.984 200.713 212.676 184.539L210.389 184.584L212.65 184.937C213.336 180.222 213.698 175.466 213.735 170.702C213.774 167.44 213.513 164.181 212.957 160.966C212.686 159.451 212.275 157.965 211.729 156.526C211.224 155.16 210.499 153.885 209.585 152.752C208.935 151.975 208.16 151.313 207.291 150.793C206.382 150.251 205.372 149.9 204.323 149.761C200.945 149.34 197.765 147.942 195.172 145.739C194.08 144.764 193.192 143.584 192.558 142.265C191.923 140.938 191.599 139.484 191.61 138.014C191.61 135.539 192.466 132.607 194.708 129.244C196.36 126.773 197.596 124.049 198.369 121.18C199.036 118.679 199.37 116.102 199.362 113.514C199.348 110.212 198.868 106.927 197.937 103.759C197.552 102.382 197.06 101.037 196.467 99.7362L194.408 100.729L194.14 103.001C196.145 103.194 198.158 103.284 200.173 103.269C204.644 103.27 209.107 102.89 213.513 102.133C219.275 101.168 224.875 99.4096 230.154 96.9088C232.551 95.7915 235.04 94.8826 237.593 94.1924C246.227 91.7437 257.953 90.2745 269.352 90.2745C275.806 90.2272 282.25 90.7604 288.608 91.8678C294.432 92.9387 299.432 94.6103 302.818 96.7651C303.118 96.9478 303.433 97.1051 303.759 97.2353C304.449 97.5147 305.185 97.661 305.929 97.6662C306.719 97.672 307.499 97.4813 308.197 97.1112C308.8 96.785 309.332 96.3409 309.759 95.8052C310.467 94.8718 310.962 93.7955 311.21 92.6514C311.55 91.1233 311.708 89.5606 311.681 87.9956C311.677 87.559 311.703 87.1226 311.759 86.6896C311.752 86.524 311.759 86.358 311.779 86.1934V86.1411L310.982 85.7232L311.465 86.4546C311.594 86.3772 311.702 86.2696 311.779 86.1411L310.982 85.7232L311.465 86.4546L310.766 85.3967V86.67C311.016 86.6713 311.26 86.5961 311.465 86.4546L310.766 85.3967V85.9779L310.537 86.6309C310.613 86.6412 310.69 86.6412 310.766 86.6309V85.9387L310.537 86.5917C310.72 86.6845 310.891 86.7985 311.047 86.9312C311.667 87.4553 312.238 88.0345 312.753 88.6616C313.66 89.7608 314.511 90.905 315.302 92.0898C315.648 92.5991 315.956 93.0366 316.126 93.3435L316.354 93.6961L316.407 93.7875L317.276 95.2306L318.917 94.8192C318.962 94.8192 319.668 94.6364 320.655 94.4732C321.771 94.2728 322.901 94.1658 324.034 94.1532C324.472 94.1498 324.909 94.1782 325.342 94.2381C325.575 94.2718 325.805 94.3264 326.028 94.4013C326.111 94.4326 326.192 94.4697 326.27 94.5123L326.492 94.2903L326.205 94.4078L326.27 94.5123L326.492 94.2903L326.205 94.4078L326.427 94.3164L326.185 94.3622V94.4078L326.407 94.3164L326.165 94.3622V94.4862C326.142 95.2505 325.914 95.9946 325.505 96.641C324.796 97.5631 323.906 98.3318 322.891 98.9004C322.528 99.1151 322.155 99.3113 321.773 99.488L321.459 99.6186H321.394L321.779 100.65L321.4 99.6186L321.786 100.65L321.407 99.6186L317.89 100.892L320.636 103.439L321.551 102.446L320.629 103.432L321.544 102.44L320.623 103.426L320.662 103.465C321.067 103.856 324.642 107.383 328.165 113.997C331.688 120.612 335.153 130.243 335.408 142.944C335.944 170.271 337.545 178.381 337.584 178.603L337.846 179.909L339.153 180.32L339.584 179.014L339.127 180.32L339.558 179.014L339.101 180.32L339.14 180.203L339.101 180.32L339.14 180.203L339.101 180.32C340.005 180.698 340.84 181.223 341.571 181.875C343.202 183.202 344.613 184.778 345.754 186.543C347.351 189.122 348.175 192.104 348.127 195.137C348.119 196.487 347.986 197.833 347.728 199.159C347.172 202.555 345.618 205.71 343.264 208.222C341.702 209.844 339.874 211.186 337.859 212.192C335.095 213.55 332.142 214.483 329.1 214.961C327.29 215.267 325.459 215.431 323.623 215.451H323.309V216.104V215.451V216.104V215.451L321.779 215.405L321.126 216.802L321.047 216.972C320.668 217.808 318.89 221.7 316.727 225.977C315.642 228.112 314.465 230.345 313.322 232.33C312.393 234.004 311.347 235.61 310.191 237.136C309.614 237.838 309.088 238.58 308.615 239.356C308.435 239.665 308.282 239.988 308.158 240.323C308.004 240.707 307.924 241.117 307.923 241.531C307.919 241.903 307.992 242.272 308.138 242.615C308.269 242.918 308.458 243.193 308.694 243.424C308.999 243.727 309.374 243.951 309.785 244.077C310.066 244.16 310.356 244.202 310.648 244.201C311.068 244.196 311.484 244.128 311.884 243.999C312.294 243.872 312.694 243.713 313.08 243.522C313.387 243.379 313.596 243.261 313.622 243.248L312.511 241.25H310.223L309.694 279.711L314.217 280.207L313.269 280.011L314.217 280.213L313.269 280.017L314.217 280.22C314.722 278.232 315.443 276.305 316.367 274.474C318.453 270.18 321.401 266.361 325.028 263.255L325.165 263.144L325.283 263.001L324.734 262.531L325.283 263.001L324.734 262.531L325.283 263.001C326.949 261.132 328.763 259.4 330.708 257.823C332.304 256.506 334.035 255.361 335.872 254.408C337.441 253.552 339.184 253.066 340.97 252.984H341.192C341.386 253.1 341.553 253.256 341.682 253.441C342.382 254.479 342.895 255.63 343.199 256.843C344.016 259.925 344.55 263.074 344.794 266.253C345.133 269.909 345.284 273.906 345.284 277.778C345.284 282.349 345.075 286.75 344.735 290.184C344.565 291.889 344.362 293.358 344.147 294.442C344.065 294.882 343.961 295.318 343.833 295.748C343.799 295.87 343.757 295.99 343.709 296.107L343.676 296.185L343.957 296.335L343.689 296.172L343.97 296.322L343.702 296.159C343.408 296.629 342.846 297.465 342.101 298.588C339.486 302.447 334.597 309.408 329.832 315.664C327.453 318.791 325.106 321.749 323.113 324.035C322.119 325.178 321.211 326.157 320.459 326.888C320.08 327.254 319.74 327.541 319.459 327.789C319.273 327.952 319.072 328.096 318.858 328.22C318.537 328.393 318.205 328.544 317.864 328.671C316.995 329.024 315.733 329.455 314.224 329.925C308.923 331.557 300.543 333.64 293.118 335.292C289.399 336.121 285.928 336.846 283.163 337.356C281.791 337.61 280.601 337.813 279.666 337.95C279.202 338.022 278.804 338.074 278.49 338.107C278.273 338.134 278.055 338.147 277.836 338.146C277.576 338.142 277.316 338.12 277.058 338.08C276.32 337.982 275.209 337.78 273.882 337.499C269.208 336.513 261.777 334.554 255.391 332.563C252.195 331.564 249.247 330.552 247.064 329.664C246.172 329.315 245.299 328.921 244.449 328.482C244.223 328.361 244.005 328.225 243.795 328.077C243.763 328.056 243.732 328.032 243.704 328.005L243.135 328.599L243.789 328.149C243.717 328.044 243.678 328.011 243.678 328.005L243.109 328.599L243.763 328.149C243.678 328.025 243.488 327.724 243.246 327.313C242.318 325.772 240.527 322.651 238.377 318.824C235.155 313.091 231.115 305.764 227.919 299.653C226.305 296.597 224.899 293.848 223.912 291.784C223.415 290.752 223.023 289.891 222.775 289.277C222.651 288.97 222.566 288.728 222.52 288.591V288.506L221.396 288.761H222.54C222.553 288.676 222.553 288.591 222.54 288.506L221.415 288.761H222.559C222.559 288.761 222.559 288.539 222.598 288.252C222.657 287.703 222.775 286.835 222.932 285.77C223.481 282.055 224.533 275.923 225.448 270.752C225.906 268.14 226.324 265.802 226.638 264.091C226.788 263.242 226.912 262.55 227.004 262.067L227.135 261.329L224.886 260.918L225.795 263.014L233.213 259.808L232.305 257.712L231.383 259.723C235.37 261.641 239.156 263.951 242.684 266.618C245.461 268.673 247.938 271.104 250.044 273.84C250.992 275.102 251.778 276.478 252.384 277.934C252.937 279.273 253.247 280.699 253.299 282.146L257.875 282.081V253.441H255.567L255.77 255.714L255.567 253.441Z" fill="#231F20"/>
<path d="M343.029 180.151C337.015 184.454 329.675 188.509 326.969 191.532C322.394 196.606 324.564 149.852 315.478 145.863C306.393 141.873 324.564 123.949 309.053 130.367C293.543 136.786 226.965 129.558 221.089 130.367C216.376 131.02 210.082 147.691 207.794 154.214C206.856 153.012 205.487 152.221 203.977 152.007C192.747 150.388 184.185 140.783 192.747 127.958C201.31 115.133 194.349 100.709 194.349 100.709C194.349 100.709 212.526 102.844 229.102 94.8323C245.678 86.8203 287.928 84.6785 303.988 94.8323C303.988 94.8323 309.328 98.2474 309.328 87.9826C309.328 77.7177 318.426 92.684 318.426 92.684C318.426 92.684 329.107 90.0133 328.577 94.8323C328.048 99.6513 322.165 101.767 322.165 101.767C322.165 101.767 337.14 115.662 337.676 142.905C338.212 170.147 339.806 178.166 339.806 178.166C340.991 178.629 342.082 179.302 343.029 180.151Z" fill="#231F20"/>
<path d="M436.301 236.758C436.301 236.758 478.048 230.802 488.212 245.246C488.212 245.246 418.928 164.838 423.235 156.291C423.235 156.291 408.797 158.426 402.11 153.085C395.423 147.743 371.899 126.371 360.932 122.904C349.964 119.437 350.238 105.006 363.605 103.935C376.972 102.864 392.489 120.227 403.476 119.43C414.463 118.633 413.934 110.347 413.934 110.347C413.934 110.347 397.593 105.776 396.018 91.1103C394.443 76.4444 403.509 71.3446 403.509 71.3446C403.509 71.3446 383.723 62.2617 370.886 68.9416C358.049 75.6216 345.748 69.7448 345.218 61.4585C344.689 53.1722 357.513 45.134 378.906 45.4344C400.299 45.7347 420.085 56.3848 424.366 58.7878C428.647 61.1908 433.19 61.4585 437.197 65.2001C441.203 68.9417 450.838 69.2094 455.112 75.6478C459.387 82.0862 471.453 85.7951 473.296 91.1365C475.139 96.4778 474.898 111.176 486.663 122.93C498.428 134.684 567.346 215.843 565.49 247.362C563.634 278.881 547.221 309.761 452.877 321.971L436.301 236.758Z" fill="white"/>
<path d="M436.301 236.758L436.621 238.991C442.756 238.204 448.934 237.805 455.119 237.796C461.237 237.796 467.976 238.246 473.708 239.618C476.362 240.205 478.93 241.129 481.349 242.367C483.306 243.346 485.009 244.765 486.323 246.513L488.193 245.207L489.925 243.712L489.219 242.909C485.65 238.743 469.551 219.858 454.374 200.609C446.785 190.984 439.426 181.267 434 173.281C431.671 169.932 429.513 166.467 427.536 162.899C426.891 161.717 426.322 160.496 425.83 159.242C425.672 158.829 425.541 158.406 425.438 157.975C425.379 157.738 425.344 157.495 425.333 157.251V157.159L424.771 157.068L425.275 157.322C425.305 157.272 425.325 157.217 425.333 157.159L424.771 157.068L425.275 157.322L427.268 153.405L422.902 154.058C420.821 154.325 418.725 154.458 416.627 154.456C414.226 154.477 411.828 154.258 409.47 153.803C408.338 153.574 407.229 153.244 406.156 152.817C405.218 152.447 404.338 151.946 403.542 151.328C401.934 150.022 399.195 147.698 395.881 144.89C390.894 140.665 384.554 135.363 378.384 130.766C375.305 128.461 372.259 126.339 369.429 124.595C366.986 123.014 364.367 121.723 361.625 120.749C359.746 120.2 358.086 119.076 356.879 117.536C355.919 116.313 355.39 114.807 355.376 113.253C355.373 112.414 355.54 111.582 355.867 110.809C356.194 110.036 356.674 109.337 357.278 108.754C358.017 108.039 358.887 107.474 359.84 107.089C361.091 106.581 362.415 106.276 363.762 106.188C364.095 106.188 364.416 106.148 364.775 106.148C367.501 106.148 370.527 106.997 373.684 108.388C378.423 110.458 383.41 113.697 388.26 116.485C390.594 117.871 393.02 119.095 395.522 120.148C397.796 121.129 400.235 121.672 402.711 121.748C403.012 121.748 403.319 121.748 403.62 121.715C405.973 121.599 408.276 120.989 410.378 119.926C411.588 119.287 412.672 118.433 413.575 117.406C414.612 116.211 415.367 114.798 415.784 113.272C416.037 112.382 416.169 111.462 416.176 110.536C416.176 110.367 416.176 110.256 416.176 110.217L416.078 108.591L414.503 108.153L414.183 109.302L414.509 108.153L414.189 109.302L414.516 108.153L414.346 108.101C411.356 107.112 408.545 105.651 406.019 103.772C404.062 102.328 402.367 100.562 401.005 98.5478C399.485 96.2506 398.541 93.621 398.254 90.8818C398.14 89.8408 398.081 88.7946 398.077 87.7475C398.049 85.3943 398.414 83.0529 399.156 80.8193C399.883 78.6253 401.086 76.6186 402.679 74.9425C403.125 74.4697 403.608 74.033 404.123 73.6366C404.293 73.506 404.43 73.4211 404.509 73.3688L404.594 73.3166L403.94 72.2L404.594 73.3297L403.94 72.2131L404.594 73.3427L408.516 71.1487L404.424 69.2681C402.173 68.2819 399.864 67.4357 397.509 66.7346C392.55 65.1581 387.39 64.3048 382.188 64.201C377.89 64.0962 373.63 65.028 369.769 66.9174C366.645 68.5916 363.163 69.4876 359.618 69.5293C356.501 69.5962 353.441 68.6825 350.872 66.9174C349.886 66.218 349.049 65.3302 348.408 64.3055C347.847 63.3902 347.515 62.3531 347.441 61.2822C347.441 61.1581 347.441 61.0406 347.441 60.9296C347.444 60.2005 347.583 59.4785 347.853 58.8009C348.515 57.272 349.54 55.9272 350.84 54.883C353.114 52.924 356.611 51.0957 361.174 49.7897C366.589 48.3176 372.183 47.6034 377.795 47.6675H378.808C389.129 47.7916 399.195 50.4558 407.189 53.4007C412.698 55.4245 418.041 57.8741 423.17 60.7271C425.366 61.8488 427.645 62.8005 429.987 63.5741C430.994 63.9383 431.972 64.3747 432.915 64.8801C433.864 65.4062 434.742 66.0489 435.53 66.7933C436.886 67.962 438.434 68.8877 440.105 69.5293C442.569 70.5676 445.23 71.3838 447.57 72.4808C448.691 72.9913 449.758 73.6148 450.753 74.3418C451.678 75.024 452.481 75.8587 453.126 76.8101C454.478 78.7088 456.134 80.3721 458.028 81.7335C460.832 83.8557 463.969 85.6514 466.479 87.3622C467.588 88.0919 468.635 88.9109 469.61 89.8109C469.961 90.144 470.282 90.5066 470.571 90.8948C470.772 91.1695 470.935 91.4705 471.054 91.7894C471.278 92.488 471.461 93.1987 471.604 93.9181C471.924 95.4722 472.257 97.503 472.715 99.7949C473.479 103.86 474.678 107.831 476.29 111.64C478.349 116.437 481.301 120.8 484.99 124.497C486.375 125.882 488.683 128.369 491.617 131.68C507.217 149.476 521.807 168.13 535.319 187.555C543.012 198.748 550.052 210.09 555.13 220.309C557.48 224.921 559.484 229.701 561.124 234.609C562.529 238.971 563.274 242.876 563.268 246.069C563.268 246.467 563.268 246.853 563.235 247.231C562.778 254.943 561.438 262.498 558.307 269.694C555.765 275.484 552.183 280.76 547.738 285.261C540.509 292.705 529.959 299.626 514.573 305.503C499.186 311.38 478.989 316.284 452.583 319.706L452.877 321.971L455.119 321.534L438.543 236.32L436.301 236.758L436.621 238.991L436.301 236.731L434.053 237.169L451.047 324.485L453.171 324.211C476.872 321.142 495.735 316.898 510.762 311.726C522.031 307.847 531.149 303.446 538.515 298.621C549.568 291.379 556.686 283.139 561.098 274.408C565.51 265.678 567.242 256.53 567.778 247.473C567.778 247.009 567.817 246.533 567.817 246.049C567.817 241.609 566.686 236.62 564.771 231.175C561.418 221.661 555.62 210.749 548.607 199.498C538.149 182.625 524.965 165.015 513.475 150.643C507.723 143.46 502.363 137.087 498.01 132.026C495.82 129.499 493.872 127.298 492.219 125.496C490.565 123.694 489.225 122.231 488.232 121.258C485.683 118.716 483.53 115.807 481.846 112.626C479.779 108.616 478.292 104.333 477.427 99.906C477.015 97.947 476.708 96.1709 476.408 94.5646C476.174 93.127 475.835 91.7085 475.395 90.3202C475.041 89.3659 474.521 88.4817 473.858 87.7083C472.652 86.3387 471.272 85.1314 469.754 84.1169C467.42 82.4779 464.78 80.9369 462.433 79.324C461.316 78.5671 460.247 77.7429 459.23 76.8558C458.367 76.1165 457.603 75.2694 456.956 74.3353C455.716 72.5286 454.108 71.0042 452.237 69.8623C449.583 68.2038 446.72 67.2504 444.243 66.2971C443.007 65.8335 441.864 65.396 440.916 64.9323C440.111 64.5731 439.364 64.0955 438.7 63.5154C437.628 62.5194 436.438 61.6577 435.157 60.9492C433.492 60.0714 431.759 59.329 429.974 58.729C428.397 58.2052 426.866 57.5499 425.399 56.7701C420.059 53.7984 414.495 51.2484 408.757 49.1433C400.443 46.0808 389.92 43.2665 378.854 43.1228H377.795C367.337 43.1228 358.84 45.0817 352.788 48.1573C350.03 49.4921 347.581 51.3869 345.598 53.7207C344.748 54.7561 344.065 55.917 343.571 57.1619C343.097 58.3664 342.851 59.6484 342.846 60.9426C342.846 61.1646 342.846 61.3823 342.846 61.5956C342.969 63.3958 343.522 65.1403 344.46 66.6823C345.94 69.0391 348.066 70.9224 350.585 72.1086C353.395 73.4539 356.476 74.1375 359.592 74.1067C363.894 74.0638 368.122 72.9794 371.913 70.9463C375.116 69.4061 378.641 68.6539 382.194 68.7523C386.944 68.8575 391.655 69.6425 396.182 71.0834C398.103 71.6711 399.705 72.2588 400.816 72.6963C401.371 72.9118 401.809 73.0946 402.123 73.2187L402.45 73.3623H402.528L402.738 72.8987L402.528 73.3623L402.738 72.8987L402.528 73.3623L403.483 71.2858L402.365 69.2942C400.572 70.4061 399.017 71.862 397.79 73.5778C396.513 75.3086 395.514 77.2274 394.829 79.2653C393.93 81.9749 393.488 84.8148 393.521 87.6691C393.524 88.8821 393.591 90.094 393.724 91.2997C394.119 94.9986 395.456 98.5347 397.607 101.571C400.229 105.147 403.649 108.064 407.594 110.092C409.412 111.078 411.323 111.88 413.3 112.489L413.915 110.288L411.633 110.419L413.065 110.334L411.633 110.399L413.065 110.314L411.633 110.38V110.452C411.627 110.892 411.572 111.33 411.47 111.758C411.342 112.29 411.147 112.803 410.888 113.286C410.366 114.246 409.594 115.047 408.653 115.604C407.02 116.521 405.191 117.034 403.319 117.099C403.132 117.099 402.936 117.099 402.731 117.099C401.546 117.074 400.371 116.881 399.241 116.524C396.638 115.658 394.134 114.52 391.77 113.129C387.717 110.883 383.345 108.036 378.835 105.711C376.609 104.559 374.294 103.59 371.913 102.812C369.621 102.034 367.221 101.62 364.801 101.584C364.344 101.584 363.88 101.584 363.416 101.636C361.582 101.763 359.781 102.185 358.082 102.884C355.888 103.768 354.002 105.275 352.657 107.219C351.453 109.003 350.813 111.108 350.82 113.259C350.835 115.82 351.697 118.304 353.271 120.325C355.049 122.58 357.48 124.233 360.232 125.059C361.702 125.563 363.122 126.201 364.474 126.965C367.828 128.86 371.057 130.967 374.141 133.273C379.37 137.08 384.887 141.592 389.652 145.582C392.038 147.574 394.227 149.441 396.103 151.034C397.979 152.628 399.535 153.94 400.679 154.848C401.813 155.74 403.07 156.463 404.411 156.996C406.408 157.785 408.496 158.32 410.627 158.589C412.613 158.858 414.616 158.989 416.621 158.981C418.942 158.985 421.261 158.835 423.562 158.531L423.229 156.271L421.189 155.239C420.887 155.859 420.737 156.542 420.751 157.231C420.76 157.866 420.843 158.497 421 159.112C421.374 160.488 421.882 161.824 422.516 163.101C424.212 166.485 426.122 169.756 428.235 172.896C432.517 179.426 438.282 187.262 444.537 195.424C463.296 219.826 486.454 246.709 486.473 246.729L490.075 243.921C488.357 241.591 486.119 239.693 483.539 238.377C479.617 236.274 474.891 235.034 469.969 234.276C465.06 233.568 460.105 233.23 455.145 233.264C448.737 233.272 442.336 233.686 435.981 234.505L433.602 234.844L434.059 237.208L436.301 236.758Z" fill="#231F20"/>
<path d="M426.235 57.6973C420.696 59.0298 415.349 61.0639 410.326 63.7505C406.061 65.9743 402.241 68.9624 399.058 72.5657C397.428 74.4693 396.105 76.6151 395.136 78.9257C394.102 81.3941 393.541 84.0342 393.482 86.7092C393.482 86.9574 393.482 87.2055 393.482 87.4602C393.395 91.9718 394.469 96.4303 396.6 100.409C397.901 102.753 399.6 104.854 401.62 106.619C403.965 108.653 406.645 110.265 409.542 111.385C410.81 111.901 412.122 112.299 413.464 112.574L414.274 108.075L414.163 108.728L414.281 108.075L414.169 108.728L414.287 108.075C413.374 107.88 412.478 107.614 411.607 107.278C408.35 106.093 405.42 104.153 403.058 101.617C401.544 99.9423 400.351 98.0032 399.541 95.8967C398.525 93.2014 398.022 90.3401 398.058 87.4602C398.058 87.2512 398.058 87.0357 398.058 86.8072C398.103 84.6973 398.547 82.6149 399.365 80.6692C400.826 77.3544 403.069 74.442 405.901 72.1804C410.169 68.5956 415.536 66.0359 419.81 64.4296C421.954 63.6199 423.817 63.0452 425.137 62.673C425.791 62.4902 426.327 62.3531 426.68 62.2682L427.079 62.1702H427.177L426.203 57.7039L426.235 57.6973Z" fill="#231F20"/>
<path d="M440.033 65.1805C434.893 66.9575 429.986 69.3473 425.418 72.298C421.508 74.7589 418.045 77.8656 415.176 81.4854C413.712 83.3812 412.532 85.4796 411.673 87.7148C410.777 90.0655 410.317 92.5589 410.313 95.0739C410.313 95.7726 410.352 96.4778 410.424 97.2026C410.777 101.634 412.512 105.843 415.385 109.237C417.25 111.375 419.498 113.147 422.013 114.461C425.271 116.133 428.775 117.277 432.392 117.85C434.552 118.217 436.738 118.409 438.929 118.424H439.412L439.269 113.854V114.265V113.854V114.265V113.854H438.929C437.301 113.841 435.676 113.717 434.066 113.481C432.091 113.203 430.145 112.753 428.248 112.136C425.016 111.157 422.062 109.427 419.627 107.089C418.371 105.833 417.341 104.371 416.581 102.766C415.698 100.868 415.152 98.8306 414.967 96.7455C414.915 96.184 414.882 95.6289 414.882 95.0804C414.887 93.1165 415.248 91.1697 415.947 89.3342C417.25 86.1019 419.26 83.2015 421.83 80.8455C425.752 77.117 430.654 74.2373 434.595 72.3567C436.556 71.4099 438.282 70.6982 439.497 70.228C440.105 69.9864 440.589 69.8166 440.916 69.6991L441.282 69.575L441.373 69.5424L439.974 65.1935L440.033 65.1805Z" fill="#231F20"/>
<path d="M456.446 75.7457C452.154 77.0745 448.044 78.9301 444.21 81.2699C440.924 83.2283 438.009 85.7479 435.595 88.7138C434.345 90.2948 433.342 92.0561 432.621 93.9377C431.856 95.9233 431.464 98.0329 431.464 100.161C431.521 103.439 432.323 106.661 433.811 109.583C435.437 113.177 438.079 116.219 441.413 118.333C444.215 120.03 447.436 120.915 450.714 120.886C453.807 120.891 456.86 120.192 459.642 118.842C460.88 118.245 462.039 117.497 463.093 116.616C464.072 115.813 464.9 114.842 465.538 113.749C466.267 112.398 466.634 110.882 466.603 109.348C466.6 108.112 466.41 106.884 466.041 105.704C465.506 103.904 464.536 102.263 463.217 100.925C462.538 100.238 461.741 99.6782 460.864 99.2725C459.934 98.8438 458.922 98.6211 457.897 98.6196C456.379 98.6417 454.895 99.0799 453.609 99.8863C452.046 100.865 450.667 102.112 449.537 103.569L453.086 106.449C453.884 105.421 454.852 104.538 455.949 103.837C456.532 103.452 457.211 103.237 457.91 103.217C458.412 103.22 458.902 103.367 459.322 103.641C460.167 104.223 460.835 105.027 461.25 105.966C461.759 107.028 462.029 108.19 462.041 109.368C462.068 110.117 461.904 110.861 461.564 111.529C461.188 112.149 460.708 112.699 460.145 113.155C458.933 114.141 457.557 114.908 456.08 115.421C454.364 116.044 452.553 116.367 450.727 116.374C448.286 116.379 445.892 115.708 443.811 114.435C441.225 112.775 439.18 110.396 437.929 107.592C436.743 105.29 436.097 102.749 436.04 100.161C436.044 98.5976 436.334 97.0484 436.896 95.5897C437.951 93.0211 439.589 90.7322 441.681 88.9032C444.8 86.1727 448.329 83.9473 452.139 82.3081C453.76 81.5833 455.171 81.0479 456.171 80.7018C456.668 80.5255 457.067 80.3949 457.328 80.31L457.629 80.2186H457.701L456.446 75.7457Z" fill="#231F20"/>
<path d="M210.258 159.014L210.186 158.831L210.258 159.014L210.186 158.831L210.258 159.014C213.559 157.788 217.051 157.156 220.572 157.146C223.839 157.101 227.076 157.769 230.056 159.105C233.754 160.883 236.867 163.679 239.031 167.163C242.065 171.905 244.222 177.154 245.397 182.658C246.398 187.249 246.898 191.934 246.887 196.632C246.887 199.244 246.737 201.405 246.593 202.901C246.515 203.651 246.443 204.206 246.39 204.624C246.39 204.82 246.345 204.97 246.325 205.062V205.166L250.835 205.937C251.293 202.848 251.512 199.728 251.489 196.606C251.499 191.574 250.962 186.556 249.887 181.64C248.594 175.595 246.22 169.833 242.881 164.629C240.246 160.451 236.479 157.105 232.017 154.978C228.433 153.35 224.535 152.527 220.598 152.569C216.469 152.573 212.374 153.325 208.513 154.789L210.291 159.007L210.258 159.014Z" fill="#231F20"/>
<path d="M274.568 159.281L273.261 158.798L274.568 159.295L273.261 158.811L274.568 159.308C274.627 159.17 275.875 156.173 279.621 153.228C281.953 151.433 284.581 150.056 287.386 149.16C291.551 147.849 295.901 147.216 300.269 147.286C303.265 147.3 306.257 147.518 309.223 147.939L309.844 143.408C306.671 142.972 303.472 142.754 300.269 142.755C295.28 142.668 290.311 143.414 285.569 144.962C280.944 146.456 276.792 149.133 273.522 152.726C272.157 154.186 271.052 155.869 270.254 157.701L274.535 159.314L274.568 159.281Z" fill="#231F20"/>
<path d="M253.299 217.514C254.413 218.169 255.583 218.722 256.796 219.166C259.486 220.201 262.339 220.745 265.221 220.773C267.783 220.783 270.322 220.288 272.692 219.316C275.573 218.096 278.154 216.265 280.255 213.949L276.902 210.834C275.252 212.668 273.222 214.121 270.954 215.092C269.134 215.832 267.186 216.21 265.221 216.202C262.893 216.178 260.588 215.736 258.417 214.896C257.721 214.636 257.04 214.338 256.378 214.001C256.149 213.884 255.973 213.786 255.862 213.72L255.737 213.649L254.966 214.902L255.744 213.655L254.973 214.909L255.75 213.662L253.325 217.54L253.299 217.514Z" fill="#231F20"/>
<path d="M249.142 194.516L248.861 192.25C247.138 192.472 245.402 192.586 243.665 192.59C239.922 192.664 236.205 191.959 232.749 190.52C230.653 189.624 228.727 188.374 227.056 186.824C225.197 185.095 223.682 183.03 222.592 180.738C222.262 180.054 221.973 179.349 221.729 178.629C221.644 178.375 221.592 178.185 221.559 178.061C221.543 178.019 221.532 177.975 221.527 177.931L220.736 178.113L221.527 177.937L220.736 178.12L221.527 177.944L219.298 178.446L220.507 180.405C225.383 177.369 229.658 176.396 233.266 176.363H233.455C236.448 176.363 239.403 177.032 242.103 178.322C242.915 178.713 243.7 179.16 244.449 179.661L245.031 180.079L245.155 180.183L246.103 179.06L245.142 180.177L246.09 179.054L245.129 180.17L246.626 178.433L244.456 179.171C244.618 179.666 244.751 180.169 244.854 180.68C245.109 181.809 245.364 183.292 245.6 184.819C245.953 187.131 246.253 189.625 246.482 191.539C246.593 192.492 246.678 193.302 246.743 193.87C246.743 194.157 246.796 194.379 246.809 194.523C246.822 194.666 246.809 194.758 246.809 194.758L249.083 194.529L248.802 192.263L249.083 194.529L251.365 194.307C251.365 194.307 251.051 191.173 250.58 187.569C250.345 185.766 250.07 183.84 249.77 182.11C249.619 181.241 249.463 180.425 249.299 179.687C249.156 179.014 248.977 178.349 248.763 177.695L248.561 177.101L248.09 176.696C246.839 175.694 245.472 174.845 244.018 174.169C240.719 172.585 237.109 171.753 233.449 171.734H233.22C228.808 171.734 223.612 173.04 218.075 176.468L216.703 177.33L217.056 178.91C217.627 181.07 218.529 183.13 219.729 185.015C222.368 189.323 226.28 192.707 230.926 194.699C234.958 196.39 239.299 197.226 243.671 197.154C245.599 197.151 247.525 197.024 249.436 196.776L251.646 196.501L251.43 194.288L249.142 194.516Z" fill="#231F20"/>
<path d="M315.949 175.103L313.74 174.542L314.707 174.79L313.747 174.535L314.714 174.783L313.753 174.529C313.542 175.237 313.28 175.928 312.969 176.599C311.816 179.185 310.093 181.477 307.929 183.305C306.494 184.495 304.865 185.429 303.112 186.067C300.898 186.856 298.561 187.248 296.21 187.222H295.491C291.824 187.125 287.327 186.21 281.915 184.003L281.059 186.099L283.222 186.837L282.647 186.641L283.222 186.837L282.647 186.641L283.222 186.837C283.99 184.805 284.986 182.867 286.19 181.058C287.263 179.404 288.532 177.885 289.968 176.533C291.501 175.073 293.295 173.913 295.256 173.112C297.016 172.408 298.896 172.049 300.792 172.054C302.916 172.083 305.022 172.456 307.027 173.157C309.738 174.11 312.316 175.402 314.701 177.003L315.949 175.09L313.74 174.542L315.956 175.103L317.211 173.19C311.06 169.174 305.589 167.496 300.798 167.496C298.318 167.49 295.859 167.96 293.556 168.88C291.029 169.909 288.718 171.404 286.745 173.288C284.341 175.606 282.32 178.29 280.758 181.241C280.028 182.569 279.4 183.951 278.882 185.375L278.183 187.405L280.183 188.222C286 190.592 291.033 191.656 295.36 191.774H296.19C299.982 191.83 303.731 190.97 307.119 189.266C309.134 188.215 310.968 186.848 312.55 185.218C314.357 183.344 315.843 181.186 316.949 178.832C317.445 177.806 317.852 176.74 318.165 175.645L318.564 174.058L317.198 173.164L315.949 175.103Z" fill="#231F20"/>
<path d="M335.447 191.388L336.401 191.617L335.447 191.369L336.401 191.597L335.447 191.349C335.024 192.718 334.36 194.001 333.486 195.137C331.306 197.964 328.307 200.053 324.897 201.118L326.381 205.441C328.834 204.622 331.137 203.409 333.199 201.849C335.399 200.194 337.231 198.099 338.578 195.698C339.165 194.671 339.62 193.574 339.931 192.433L335.48 191.382L335.447 191.388Z" fill="#231F20"/>
<path d="M209.055 175.377C208.034 175.543 207.025 175.779 206.036 176.083C202.348 177.142 198.947 179.019 196.087 181.574C194.245 183.266 192.757 185.306 191.708 187.575C190.486 190.308 189.873 193.273 189.911 196.266C189.932 198.242 190.15 200.211 190.564 202.143C191.053 204.797 191.934 207.363 193.179 209.757C194.413 212.273 196.342 214.383 198.739 215.839C201.135 217.294 203.898 218.034 206.702 217.971C208.937 217.945 211.156 217.585 213.284 216.9C214.25 216.609 215.192 216.242 216.101 215.803L214.055 211.722L214.356 212.323L214.055 211.716L214.363 212.316L214.062 211.709C213.324 212.055 212.562 212.345 211.781 212.578C210.139 213.095 208.43 213.37 206.709 213.394C205.551 213.403 204.399 213.238 203.29 212.904C201.43 212.331 199.791 211.203 198.591 209.672C197.153 207.896 195.852 205.225 195.042 201.229C194.696 199.597 194.517 197.934 194.506 196.266C194.415 193.848 194.922 191.445 195.982 189.27C197.042 187.095 198.623 185.214 200.584 183.794C202.479 182.415 204.585 181.35 206.82 180.64C207.533 180.408 208.257 180.212 208.99 180.053C209.251 179.994 209.454 179.955 209.585 179.935H209.722H209.755L209.572 178.681L209.748 179.935L209.565 178.681L209.742 179.935L209.088 175.41L209.055 175.377Z" fill="#231F20"/>
<path d="M198.48 196.658C198.489 197.087 198.553 197.512 198.669 197.925C199.089 199.319 199.853 200.586 200.892 201.608C202.681 203.337 204.837 204.642 207.199 205.428L208.787 201.144C207.503 200.692 206.287 200.066 205.173 199.283C204.342 198.74 203.666 197.991 203.212 197.109C203.136 196.948 203.079 196.779 203.042 196.606V196.547L201.983 196.651H203.049C203.052 196.617 203.052 196.582 203.049 196.547L201.99 196.651H198.48V196.658Z" fill="#231F20"/>
<path d="M234.213 186.328C233.754 188.533 232.951 190.653 231.834 192.61C228.822 191.318 226.135 189.374 223.966 186.92C221.797 184.465 220.2 181.56 219.291 178.414C224.52 175.149 229.239 174.052 233.239 174.026C234.612 176.618 235.527 180.569 234.213 186.328Z" fill="#231F20"/>
<path d="M296.746 185.322C296.426 186.749 295.989 188.147 295.438 189.501C291.438 189.397 286.673 188.404 281.059 186.119C281.059 186.119 284.935 174.77 294.412 171.002C296.366 173.353 298.458 177.793 296.746 185.322Z" fill="#231F20"/>
<path d="M450.073 235.987C450.073 235.987 470.989 314.547 464.544 318.55C458.099 322.553 402.783 330.571 402.783 330.571L407.594 450.38L191.009 446.371C191.009 446.371 180.178 341.391 177.786 336.585C175.394 331.779 137.261 354.216 132.032 353.008C126.803 351.8 85.1084 272.469 85.1084 272.469C85.1084 272.469 132.823 238.547 175.086 234.805C217.35 231.064 236.318 258.045 236.318 258.045C236.318 258.045 227.912 309.63 275.431 315.213C322.949 320.796 330.989 284.223 333.107 282.087C335.224 279.952 333.93 254.009 333.93 254.009C333.93 254.009 355.84 236.653 375.893 237.998C395.946 239.343 450.073 235.987 450.073 235.987Z" fill="#2F3841"/>
<path d="M450.073 235.987L447.864 236.575L448.04 237.228C448.896 240.493 452.772 255.348 456.426 271.509C458.256 279.586 460.028 287.997 461.335 295.428C461.988 299.137 462.531 302.611 462.904 305.66C463.245 308.206 463.439 310.77 463.485 313.339C463.506 314.33 463.427 315.321 463.25 316.297C463.212 316.482 463.153 316.661 463.074 316.832L463.23 316.924L463.087 316.819L463.243 316.911L463.1 316.806L463.819 317.329L463.355 316.584C463.254 316.638 463.167 316.714 463.1 316.806L463.819 317.329L463.355 316.584C462.938 316.822 462.5 317.021 462.047 317.179C460.209 317.809 458.339 318.345 456.446 318.785C452.289 319.804 446.818 320.914 440.968 321.998C432.196 323.623 422.568 325.197 415.143 326.359C411.431 326.947 408.267 327.424 406.032 327.763L403.417 328.149L402.483 328.286L400.443 328.58L405.241 448.023L191.081 444.059L191.041 446.345L193.316 446.109C193.316 446.109 190.577 419.866 187.59 393.022C186.087 379.597 184.505 366.015 183.152 355.476C182.499 350.2 181.845 345.681 181.315 342.325C181.047 340.64 180.806 339.236 180.583 338.152C180.472 337.604 180.368 337.134 180.257 336.729C180.204 336.526 180.145 336.337 180.087 336.148C180.019 335.947 179.938 335.75 179.845 335.56C179.649 335.173 179.378 334.829 179.047 334.548C178.615 334.184 178.105 333.922 177.557 333.784C177.098 333.67 176.625 333.615 176.152 333.621C175.438 333.631 174.726 333.709 174.028 333.856C172.448 334.198 170.895 334.651 169.38 335.214C166.367 336.291 162.844 337.826 159.131 339.484C153.576 341.998 147.621 344.871 142.627 347.098C140.137 348.208 137.882 349.162 136.091 349.814C135.189 350.141 134.405 350.396 133.777 350.552C133.379 350.67 132.969 350.742 132.555 350.768H132.522L132.444 351.421L132.588 350.768H132.522L132.444 351.421L132.588 350.768L132.3 352.009L132.954 350.898C132.845 350.838 132.729 350.794 132.607 350.768L132.32 352.009L132.973 350.898L132.686 351.303L132.928 350.931L132.686 351.303L132.928 350.931C132.788 350.824 132.659 350.703 132.542 350.572C131.929 349.915 131.36 349.219 130.836 348.489C129.529 346.706 127.816 344.134 125.882 341.025C119.09 330.134 109.391 312.706 101.403 298.027C97.4162 290.687 93.8474 284.033 91.2786 279.214L88.2393 273.501L87.4157 271.947L87.1347 271.411L85.1084 272.469L86.4157 274.337C95.9185 267.844 105.821 261.956 116.064 256.706C125.219 251.934 134.688 247.789 144.405 244.299C154.543 240.721 165.106 238.024 175.243 237.117C177.91 236.882 180.483 236.766 182.963 236.771C190.821 236.698 198.64 237.889 206.121 240.297C214.011 242.862 221.324 246.941 227.651 252.305C229.495 253.871 231.229 255.562 232.841 257.366C233.403 258.019 233.821 258.515 234.089 258.861L234.383 259.246L234.449 259.331L235.429 258.639L234.442 259.331L235.423 258.639L234.436 259.331L236.311 258.025L234.05 257.659C233.626 260.701 233.425 263.769 233.449 266.84C233.439 271.443 233.876 276.035 234.756 280.553C235.544 284.597 236.785 288.54 238.455 292.307C241.241 298.654 245.587 304.195 251.09 308.416C257.057 312.941 264.947 316.251 275.156 317.433C278.41 317.827 281.684 318.027 284.961 318.034C295.04 318.034 303.177 315.984 309.694 312.81C314.146 310.659 318.213 307.791 321.734 304.321C325.776 300.267 329.127 295.58 331.656 290.446C332.675 288.428 333.427 286.671 333.983 285.391C334.257 284.739 334.486 284.229 334.636 283.89C334.721 283.72 334.787 283.596 334.819 283.544L333.93 282.943L334.689 283.7C334.737 283.652 334.781 283.6 334.819 283.544L333.93 282.943L334.689 283.7C334.9 283.483 335.083 283.24 335.231 282.975C335.445 282.591 335.61 282.18 335.721 281.754C335.93 280.977 336.079 280.184 336.166 279.384C336.329 278.078 336.427 276.498 336.493 274.813C336.558 273.129 336.584 271.248 336.584 269.374C336.584 261.852 336.179 253.937 336.179 253.911L333.891 254.029L335.316 255.818C339.285 252.819 343.491 250.146 347.892 247.826C351.807 245.73 355.9 243.982 360.121 242.602C364.464 241.136 369.008 240.35 373.592 240.271C374.298 240.271 374.998 240.271 375.69 240.342C379.122 240.571 383.449 240.662 388.312 240.662C400.45 240.662 415.895 240.081 428.32 239.494C440.746 238.906 450.145 238.325 450.151 238.325L450.008 236.046L447.798 236.633L450.008 236.046L449.87 233.76L448.21 233.865C440.713 234.309 409.319 236.091 388.312 236.091C383.514 236.091 379.253 236 375.991 235.778C375.185 235.726 374.381 235.7 373.579 235.7C368.441 235.776 363.346 236.658 358.48 238.312C349.126 241.571 340.343 246.28 332.453 252.266L331.532 252.997L331.59 254.173C331.59 254.173 331.59 254.29 331.59 254.519C331.669 256.112 331.976 262.955 331.976 269.4C331.976 272.384 331.904 275.277 331.728 277.49C331.669 278.367 331.558 279.239 331.394 280.102C331.354 280.324 331.297 280.542 331.224 280.755V280.795L332.179 281.271L331.433 280.527C331.351 280.605 331.281 280.696 331.224 280.795L332.179 281.271L331.433 280.527C331.23 280.737 331.05 280.969 330.898 281.219C330.656 281.617 330.438 282.029 330.244 282.453C329.858 283.302 329.414 284.379 328.839 285.666C326.825 290.152 323.237 297.126 316.505 302.957C312.794 306.164 308.537 308.678 303.935 310.381C297.856 312.549 291.435 313.609 284.98 313.509C281.88 313.503 278.783 313.313 275.705 312.941C267.208 311.942 260.737 309.454 255.691 306.111C252.141 303.763 249.051 300.787 246.573 297.328C243.242 292.558 240.887 287.176 239.645 281.493C238.558 276.692 238.018 271.783 238.037 266.86C238.037 264.294 238.174 262.158 238.312 260.676C238.383 259.938 238.449 259.37 238.501 258.972L238.56 258.541V258.436L237.527 258.273L238.56 258.443L237.527 258.28L238.56 258.45L238.71 257.529L238.174 256.765C238.063 256.608 233.743 250.496 224.697 244.358C219.385 240.789 213.608 237.968 207.526 235.974C199.611 233.407 191.336 232.121 183.015 232.167C180.4 232.167 177.692 232.289 174.89 232.533C164.06 233.493 152.987 236.366 142.438 240.114C126.633 245.749 111.999 253.356 101.312 259.566C90.625 265.776 83.8535 270.582 83.8077 270.608L82.1802 271.764L83.1083 273.533C83.1083 273.533 93.5663 293.384 104.639 313.398C110.188 323.408 115.901 333.451 120.574 341.11C122.914 344.943 124.993 348.169 126.685 350.539C127.4 351.55 128.168 352.522 128.986 353.452C129.309 353.815 129.661 354.151 130.039 354.457C130.232 354.617 130.44 354.759 130.66 354.882C130.935 355.046 131.235 355.165 131.548 355.234C131.873 355.303 132.204 355.335 132.535 355.332C133.179 355.323 133.819 355.239 134.444 355.084C135.879 354.726 137.288 354.27 138.66 353.719C141.451 352.648 144.824 351.107 148.464 349.462C153.896 346.954 159.877 344.088 165.034 341.868C167.609 340.758 169.982 339.811 171.942 339.158C172.923 338.831 173.799 338.583 174.557 338.413C175.09 338.283 175.636 338.206 176.184 338.185C176.261 338.179 176.337 338.179 176.413 338.185L176.498 337.813L176.354 338.159H176.413L176.498 337.787L176.354 338.133L176.747 337.179L176.093 337.956C176.173 338.034 176.269 338.094 176.374 338.133L176.766 337.179L176.113 337.956L176.969 336.964L175.799 337.552C175.874 337.707 175.981 337.845 176.113 337.956L176.969 336.964L175.799 337.552L176.328 337.284L175.773 337.506V337.552L176.302 337.284L175.747 337.506C175.813 337.694 175.868 337.886 175.91 338.08C176.073 338.733 176.276 339.752 176.505 341.084C177.368 346.086 178.57 355.234 179.884 366.074C181.845 382.339 184.08 402.464 185.812 418.515C186.675 426.546 187.42 433.533 187.943 438.555L188.558 444.431L188.78 446.554L188.982 448.565L410.019 452.659L405.11 330.428L402.829 330.519L403.156 332.778C403.156 332.778 417.013 330.774 431.686 328.266C439.027 327.006 446.569 325.654 452.72 324.303C455.792 323.65 458.518 322.997 460.72 322.344C461.825 322.03 462.792 321.73 463.629 321.416C464.387 321.158 465.116 320.823 465.806 320.417C466.116 320.222 466.393 319.979 466.629 319.699C466.98 319.279 467.257 318.802 467.446 318.289C467.71 317.546 467.884 316.774 467.963 315.99C468.064 315.088 468.112 314.181 468.106 313.274C468.027 310.327 467.771 307.388 467.342 304.472C466.577 298.477 465.25 291.196 463.694 283.609C459.054 260.859 452.308 235.419 452.308 235.399L451.825 233.591L449.955 233.702L450.073 235.987Z" fill="#231F20"/>
<path d="M85.1217 272.469C85.1217 272.469 10.9222 314.678 5.83703 328.834C0.751827 342.991 -0.843014 371.846 17.3343 387.602C35.5116 403.359 142.49 481.096 161.995 484.302C181.499 487.508 208.506 481.632 230.73 472.816C252.953 464.001 269.385 465.072 275.457 473.352C281.529 481.632 281.797 493.385 295.72 486.973C309.642 480.561 279.941 444.235 244.083 448.506C244.083 448.506 257.718 435.688 278.072 439.691C298.426 443.693 297.589 453.318 310.158 451.712C322.727 450.106 306.289 421.094 275.47 420.193C249.325 419.422 240.9 431.679 240.9 431.679C240.9 431.679 259.62 406.865 310.184 430.875C318.472 426.605 307.772 404.697 278.098 400.962C248.423 397.227 242.495 413.78 242.495 413.78C242.495 413.78 246.018 397.534 289.824 399.892C336.016 402.373 306.165 377.984 284.203 378.519C262.241 379.055 213.082 421.825 198.898 422.328C184.715 422.831 87.9258 348.071 87.9258 348.071C87.9258 348.071 106.378 367.007 116.273 362.763C126.169 358.519 130.895 352.146 130.895 352.146L85.1217 272.469Z" fill="white"/>
<path d="M85.1215 272.469L83.9907 270.51C83.9907 270.51 65.3951 281.088 46.1459 293.449C36.5245 299.607 26.7332 306.248 18.9551 312.249C15.4934 314.878 12.1932 317.712 9.07225 320.737C7.87419 321.915 6.75619 323.172 5.7257 324.498C4.86672 325.58 4.1749 326.784 3.67332 328.07C1.28546 335.166 0.0927371 342.609 0.143742 350.095C0.0923717 357.169 1.23933 364.201 3.53606 370.893C5.96387 377.999 10.2036 384.35 15.8373 389.32C18.1772 391.351 21.8506 394.295 26.5698 397.952C43.0869 410.731 72.3235 432.077 99.6385 450.615C113.293 459.881 126.437 468.441 137.307 474.886C142.739 478.112 147.595 480.802 151.687 482.8C153.73 483.797 155.578 484.616 157.229 485.256C158.651 485.836 160.127 486.274 161.635 486.562C165.645 487.198 169.7 487.506 173.76 487.482C182.871 487.482 192.76 486.176 202.656 483.924C212.513 481.681 222.181 478.68 231.573 474.945C241.946 470.825 250.979 468.944 258.051 468.951C261.375 468.874 264.684 469.405 267.816 470.518C270.116 471.322 272.13 472.779 273.614 474.71C274.713 476.264 275.686 477.904 276.522 479.614C277.176 480.92 277.83 482.226 278.523 483.486C279.485 485.437 280.782 487.204 282.353 488.71C283.2 489.464 284.174 490.063 285.229 490.479C286.378 490.921 287.599 491.143 288.83 491.132C291.144 491.132 293.68 490.479 296.674 489.082C298.184 488.419 299.457 487.312 300.321 485.909C301.122 484.539 301.53 482.976 301.497 481.39C301.456 479.499 301.064 477.633 300.341 475.885C298.753 472.16 296.528 468.74 293.765 465.777C288.577 460.103 282.369 455.452 275.464 452.065C267.565 448.081 258.853 445.972 250.005 445.901C247.947 445.9 245.891 446.022 243.848 446.266L244.122 448.532L245.691 450.197L245.279 449.76L245.691 450.204L245.279 449.766L245.691 450.21C247.759 448.415 250.04 446.88 252.482 445.639C260.187 441.536 269.08 440.232 277.64 441.95C281.294 442.621 284.855 443.724 288.249 445.234C292.294 447.102 294.824 449.152 297.537 450.915C298.908 451.858 300.387 452.634 301.942 453.227C303.731 453.875 305.621 454.195 307.524 454.174C308.503 454.173 309.481 454.107 310.452 453.978C311.359 453.875 312.243 453.621 313.067 453.227C314.247 452.655 315.219 451.728 315.845 450.576C316.429 449.452 316.724 448.199 316.701 446.932C316.675 445.437 316.394 443.958 315.871 442.557C314.747 439.605 313.119 436.87 311.06 434.473C307.136 429.847 302.318 426.059 296.896 423.334C290.264 419.954 282.959 418.1 275.516 417.907C274.699 417.907 273.895 417.907 273.111 417.907C260.574 417.907 252.083 420.885 246.724 423.967C241.364 427.049 239.142 430.196 238.985 430.418L242.704 433.089L241.743 432.364L242.697 433.096L241.737 432.371L242.691 433.102L242.782 432.985C244.823 430.715 247.259 428.834 249.972 427.434C254.43 425.018 261.051 422.726 270.365 422.72C280.13 422.72 292.889 425.253 309.125 432.978L310.151 433.468L311.158 432.945C312.467 432.28 313.532 431.217 314.197 429.909C314.822 428.629 315.135 427.219 315.112 425.795C314.993 422.946 314.125 420.178 312.596 417.77C310.165 413.669 306.06 409.497 300.341 406.016C294.621 402.536 287.268 399.833 278.307 398.703C275.454 398.334 272.581 398.144 269.705 398.135C264.782 398.058 259.882 398.809 255.208 400.355C250.668 401.835 246.606 404.499 243.443 408.073C242.129 409.535 241.076 411.212 240.331 413.03L242.488 413.793L244.724 414.277L243.541 414.022L244.711 414.322V414.277L243.527 414.022L244.697 414.322C244.97 413.559 245.367 412.846 245.874 412.213C247.181 410.496 249.796 407.982 255.273 405.84C260.75 403.698 268.999 401.981 281.457 401.981C284.011 401.981 286.75 402.057 289.673 402.21C291.948 402.334 294.046 402.392 295.981 402.392C298.887 402.417 301.791 402.247 304.674 401.883C306.307 401.678 307.921 401.337 309.498 400.864C311.338 400.375 313.035 399.457 314.452 398.187C315.061 397.607 315.554 396.915 315.903 396.15C316.231 395.403 316.4 394.595 316.4 393.78C316.377 392.527 316.037 391.301 315.413 390.214C314.866 389.221 314.191 388.304 313.407 387.485C311.83 385.851 310.054 384.423 308.119 383.234C304.722 381.133 301.072 379.472 297.255 378.291C293.26 377.003 289.093 376.321 284.895 376.267H284.124C280.672 376.461 277.271 377.184 274.039 378.408C267.718 380.635 260.626 384.351 253.273 388.667C242.253 395.144 230.671 403.032 220.729 409.249C215.762 412.376 211.199 415.126 207.375 417.026C205.723 417.877 204.021 418.627 202.277 419.272C201.161 419.707 199.988 419.98 198.793 420.082H198.728C198.358 420.067 197.99 420.014 197.63 419.925C196.272 419.571 194.949 419.097 193.676 418.508C189.694 416.664 185.822 414.59 182.08 412.298C174.086 407.525 164.262 401.008 154.059 393.917C138.745 383.286 122.555 371.376 110.195 362.13C104.011 357.5 98.7953 353.543 95.1154 350.742L90.8342 347.477L89.7034 346.608C89.4485 346.406 89.3178 346.308 89.3112 346.308L86.2784 349.664C89.0962 352.48 92.094 355.111 95.2527 357.539C97.9147 359.62 100.759 361.458 103.75 363.031C105.218 363.789 106.749 364.421 108.325 364.918C109.839 365.393 111.413 365.648 112.999 365.675C114.421 365.69 115.832 365.412 117.143 364.859C121.373 363.047 125.294 360.586 128.764 357.565C130.2 356.344 131.513 354.986 132.686 353.51L133.581 352.309L85.932 269.38L83.9711 270.504L85.1019 272.462L83.141 273.605L128.895 353.269L130.856 352.133L129.019 350.768L129.993 351.493L129.019 350.761L129.993 351.486L129.019 350.755C129.019 350.755 128.954 350.846 128.816 351.016C127.836 352.204 123.398 357.16 115.326 360.641C114.587 360.949 113.792 361.101 112.992 361.085C111.855 361.061 110.728 360.872 109.646 360.523C107.237 359.73 104.939 358.633 102.809 357.258C99.5296 355.163 96.4237 352.809 93.5206 350.219C92.2918 349.135 91.2852 348.195 90.5924 347.523L89.8341 346.732L89.6315 346.523L89.5792 346.478L87.9386 348.071L86.5399 349.873C86.5399 349.873 110.593 368.464 136.496 387.054C149.451 396.352 162.87 405.657 174.014 412.664C179.596 416.17 184.597 419.096 188.741 421.153C190.547 422.082 192.406 422.904 194.31 423.614C195.068 423.894 195.843 424.128 196.63 424.313C197.326 424.482 198.038 424.574 198.754 424.587H198.996C200.226 424.521 201.442 424.302 202.617 423.934C205.394 423.023 208.081 421.858 210.644 420.454C215.84 417.724 221.951 413.924 228.514 409.686C238.318 403.359 249.181 396.15 259.169 390.515C263.694 387.9 268.387 385.583 273.215 383.58C277.503 381.856 281.32 380.87 284.248 380.805H284.902C288.142 380.845 291.362 381.315 294.478 382.202C298.966 383.417 303.219 385.375 307.06 387.994C308.446 388.937 309.69 390.074 310.753 391.37C311.094 391.803 311.379 392.277 311.603 392.781C311.741 393.085 311.819 393.413 311.831 393.747C311.834 393.906 311.805 394.063 311.746 394.211C311.558 394.622 311.254 394.969 310.87 395.21C310.047 395.83 308.432 396.516 305.968 397.005C302.674 397.583 299.332 397.845 295.987 397.789C294.144 397.789 292.124 397.737 289.922 397.613C286.928 397.456 284.109 397.378 281.464 397.378C272.313 397.378 265.221 398.272 259.665 399.65C251.332 401.713 246.469 404.874 243.704 407.721C240.939 410.568 240.305 412.945 240.24 413.304L244.632 414.551L243.325 414.081L244.632 414.571L243.325 414.1L244.632 414.59C244.921 413.901 245.282 413.244 245.711 412.631C247.51 410.04 249.909 407.921 252.704 406.454C256.463 404.404 261.855 402.725 269.699 402.719C272.385 402.728 275.068 402.907 277.732 403.254C288.843 404.652 297.131 408.681 302.569 413.212C304.967 415.14 307.016 417.463 308.629 420.082C309.739 421.787 310.388 423.751 310.511 425.782C310.534 426.482 310.393 427.177 310.099 427.813C309.871 428.274 309.496 428.646 309.034 428.871L310.086 430.902L311.067 428.838C294.347 420.885 280.908 418.136 270.339 418.136C259.424 418.136 251.606 421.087 246.534 424.097C241.462 427.108 239.135 430.151 239.004 430.333L240.828 431.705L242.717 433.011L241.586 432.234L242.71 433.024L241.58 432.247L242.704 433.037C242.789 432.926 244.665 430.307 249.39 427.708C254.116 425.11 261.607 422.485 273.058 422.485C273.797 422.485 274.555 422.485 275.326 422.485C280.576 422.626 285.761 423.673 290.654 425.58C296.717 427.908 302.161 431.602 306.563 436.374C308.207 438.162 309.603 440.162 310.714 442.322C311.489 443.744 311.936 445.322 312.021 446.939C312.028 447.31 311.977 447.68 311.871 448.036C311.777 448.386 311.57 448.696 311.282 448.917C310.837 449.229 310.315 449.414 309.772 449.453C308.992 449.557 308.206 449.611 307.419 449.616C305.635 449.646 303.869 449.25 302.269 448.46C301.019 447.815 299.82 447.077 298.68 446.253C296.297 444.515 293.782 442.965 291.157 441.617C287.115 439.664 282.828 438.265 278.411 437.457C275.681 436.911 272.902 436.638 270.117 436.641C263.109 436.666 256.213 438.403 250.031 441.702C247.319 443.102 244.788 444.828 242.495 446.841L237.436 451.601L244.338 450.778C246.199 450.555 248.072 450.443 249.946 450.445C256.205 450.477 262.407 451.645 268.248 453.893C276.092 456.871 283.201 461.504 289.092 467.475C291.384 469.778 293.362 472.373 294.974 475.193C296.282 477.616 296.935 479.803 296.935 481.357C296.964 482.111 296.785 482.859 296.419 483.519C296.025 484.136 295.45 484.618 294.772 484.896C292.157 486.098 290.236 486.535 288.889 486.529C288.294 486.535 287.703 486.445 287.137 486.261C286.227 485.923 285.42 485.354 284.797 484.609C284.176 483.88 283.622 483.095 283.144 482.265C282.327 480.874 281.523 479.202 280.608 477.433C279.663 475.539 278.57 473.722 277.34 472C275.335 469.367 272.611 467.369 269.496 466.247C265.839 464.928 261.971 464.292 258.084 464.373C250.24 464.373 240.697 466.417 229.912 470.694C220.742 474.336 211.304 477.265 201.682 479.457C192.048 481.625 182.459 482.905 173.792 482.905C169.982 482.928 166.176 482.642 162.413 482.049C160.986 481.757 159.593 481.319 158.256 480.744C153.768 478.817 149.403 476.619 145.183 474.161C135.987 468.938 124.391 461.631 111.966 453.377C93.331 440.971 72.8138 426.507 55.5711 413.924C46.9498 407.629 39.1455 401.811 32.8119 396.947C26.4783 392.082 21.5696 388.236 18.8374 385.911C13.792 381.45 10.002 375.748 7.84344 369.371C5.72059 363.166 4.66638 356.646 4.72565 350.089C4.68017 343.128 5.78437 336.207 7.99378 329.605C8.3438 328.756 8.81493 327.962 9.39253 327.247C11.3488 324.83 13.538 322.61 15.9288 320.62C21.0009 316.212 27.962 311.093 35.5375 305.921C46.8779 298.17 59.5648 290.295 69.4149 284.373C74.3367 281.408 78.5657 278.927 81.5331 277.19L85.0169 275.172L85.9451 274.643L86.2588 274.467L85.1281 272.476L83.1672 273.618L85.1215 272.469Z" fill="#231F20"/>
<path d="M314.034 31.1406C310.651 26.8492 306.802 22.9466 302.556 19.5045C298.677 16.3041 294.408 13.6076 289.85 11.4794C284.801 9.10114 279.3 7.83618 273.719 7.77046C269.231 7.76682 264.787 8.65468 260.646 10.3824C252.149 13.915 245.92 18.9168 241.822 24.095C239.933 26.4466 238.392 29.0568 237.246 31.8458C236.276 34.1196 235.751 36.5576 235.697 39.0286C235.685 40.1169 235.83 41.2012 236.129 42.2478C236.344 43.0032 236.665 43.7243 237.083 44.3896C237.718 45.4029 238.608 46.2316 239.665 46.7926C240.769 47.3624 241.997 47.6517 243.24 47.6349C244.919 47.5919 246.573 47.2215 248.109 46.5444C249.867 45.798 251.463 44.7181 252.809 43.3644C254.883 41.2564 256.473 38.7231 257.469 35.94C259.664 29.908 259.638 23.2928 257.397 17.2779C255.532 12.3214 252.105 8.10476 247.632 5.26302C242.802 2.16789 236.41 0.300372 228.344 0.306902C227.357 0.306902 226.337 0.306905 225.291 0.391792C215.735 0.914177 208.415 2.15483 202.768 3.76116C199.253 4.70784 195.867 6.07599 192.682 7.83576C188.839 10.0298 186.63 12.374 185.407 14.2676C184.653 15.3486 184.145 16.5809 183.917 17.8786C183.883 18.1787 183.908 18.4827 183.991 18.7731C184.074 19.0635 184.214 19.3347 184.402 19.5711C184.59 19.8076 184.823 20.0048 185.088 20.1513C185.352 20.2978 185.643 20.3909 185.943 20.4252C186.244 20.4595 186.548 20.4344 186.839 20.3512C187.129 20.268 187.401 20.1285 187.637 19.9405C187.874 19.7526 188.071 19.5198 188.218 19.2557C188.365 18.9915 188.458 18.7011 188.492 18.401L187.1 18.2443L188.486 18.4663V18.401L187.094 18.2443L188.479 18.4663L188.29 18.4336L188.479 18.4663L188.29 18.4336L188.479 18.4663C188.639 17.8316 188.918 17.2332 189.303 16.7032C190.349 15.11 192.715 12.5764 198.199 10.2061C203.683 7.83576 212.278 5.68093 225.559 4.98224C226.52 4.93 227.455 4.90388 228.357 4.90388C232.553 4.82637 236.729 5.50545 240.684 6.90853C245.058 8.43824 248.797 11.3789 251.312 15.2667C253.429 18.7278 254.524 22.7164 254.469 26.7722C254.499 30.191 253.703 33.5665 252.149 36.6126C251.462 37.9279 250.581 39.1321 249.534 40.1844C248.597 41.1232 247.488 41.8725 246.266 42.3915C245.286 42.8342 244.23 43.0847 243.155 43.1293C242.706 43.1423 242.259 43.0553 241.848 42.8747C241.605 42.7725 241.384 42.6264 241.194 42.4437C240.866 42.0967 240.622 41.6789 240.482 41.2226C240.262 40.5347 240.156 39.8158 240.168 39.0939C240.228 37.2011 240.643 35.3362 241.39 33.5958C243.012 29.8116 245.4 26.4035 248.404 23.5856C252.44 19.7576 257.164 16.7248 262.326 14.6463C265.917 13.1331 269.775 12.3496 273.673 12.3413C278.618 12.4131 283.489 13.549 287.954 15.6715C294.55 18.6687 300.203 23.2461 304.164 27.0791C306.125 28.9923 307.714 30.7162 308.74 31.9503C309.269 32.6033 309.674 33.0669 309.942 33.4065L310.243 33.7852L310.315 33.8831L310.884 33.4652L310.315 33.8831L310.884 33.4652L310.315 33.8831C310.494 34.1241 310.719 34.3274 310.978 34.4814C311.236 34.6355 311.521 34.7372 311.819 34.7809C312.116 34.8245 312.419 34.8092 312.711 34.7359C313.002 34.6625 313.277 34.5325 313.518 34.3533C313.759 34.1741 313.962 33.9491 314.117 33.6914C314.271 33.4336 314.373 33.148 314.416 32.8509C314.46 32.5537 314.445 32.2509 314.371 31.9597C314.298 31.6685 314.168 31.3946 313.988 31.1537L314.034 31.1406Z" fill="#EE4947"/>
<path d="M124.071 157.101C120.792 161.706 117.948 166.604 115.574 171.734C111.345 180.673 107.077 192.956 107.077 206.446C107.035 214.152 108.546 221.787 111.521 228.896C114.705 236.451 119.829 243.914 127.47 250.901C138.026 260.546 146.686 266.964 153.974 271.019C157.138 272.823 160.481 274.294 163.949 275.407C166.639 276.271 169.444 276.728 172.269 276.766C174.652 276.783 177.018 276.374 179.257 275.558C182.196 274.412 184.866 272.671 187.1 270.445C189.1 268.441 190.973 266.314 192.708 264.078C193.607 262.991 194.342 261.779 194.891 260.48C195.367 259.351 195.617 258.14 195.63 256.915C195.634 255.678 195.343 254.458 194.78 253.356C193.963 251.804 192.684 250.542 191.12 249.745C189.546 248.929 187.795 248.51 186.022 248.524C183.703 248.524 181.434 249.19 179.485 250.444C177.228 251.932 175.451 254.041 174.367 256.517C172.144 261.531 171.01 266.959 171.041 272.443C171.065 280.888 173.666 289.125 178.498 296.055C184.008 304.119 193.022 311.909 206.97 318.321C217.115 322.984 228.363 325.171 239.848 326.366C248.462 327.254 257.227 327.587 265.777 327.94C278.608 328.469 290.987 329.063 301.635 331.59C306.707 332.714 311.6 334.536 316.171 337.003C320.519 339.387 324.339 342.626 327.401 346.524C327.586 346.76 327.815 346.958 328.077 347.106C328.339 347.254 328.627 347.349 328.925 347.386C329.223 347.422 329.526 347.4 329.816 347.32C330.105 347.24 330.376 347.103 330.613 346.919C330.85 346.734 331.048 346.504 331.196 346.243C331.344 345.982 331.44 345.694 331.476 345.396C331.513 345.098 331.491 344.795 331.41 344.506C331.33 344.217 331.194 343.946 331.009 343.709C327.957 339.804 324.221 336.486 319.982 333.914C312.701 329.468 304.171 327.065 294.994 325.635C281.229 323.506 265.934 323.558 250.946 322.644C243.57 322.271 236.224 321.458 228.945 320.208C222.032 319.033 215.293 316.997 208.885 314.149C195.525 308.004 187.244 300.73 182.276 293.456C177.963 287.287 175.639 279.948 175.616 272.423C175.587 267.598 176.578 262.82 178.525 258.404C179.244 256.724 180.436 255.288 181.956 254.271C183.161 253.495 184.562 253.08 185.995 253.076C187.324 253.045 188.626 253.456 189.695 254.244C190.104 254.559 190.439 254.961 190.675 255.42C190.91 255.871 191.029 256.374 191.022 256.882C191.008 257.516 190.872 258.141 190.623 258.724C190.244 259.607 189.737 260.43 189.12 261.166C186.897 263.922 184.642 266.729 181.976 268.78C180.662 269.815 179.198 270.645 177.636 271.241C175.903 271.878 174.07 272.197 172.224 272.182C169.854 272.146 167.503 271.756 165.249 271.026C161.256 269.798 156.465 267.493 150.719 263.7C144.974 259.906 138.3 254.63 130.509 247.512C123.319 240.943 118.62 234.041 115.692 227.107C112.954 220.559 111.565 213.528 111.606 206.433C111.606 193.922 115.613 182.221 119.666 173.673C121.316 170.182 123.171 166.792 125.221 163.519C125.98 162.318 126.607 161.384 127.038 160.757L127.535 160.059L127.666 159.882V159.843C127.855 159.604 127.995 159.33 128.076 159.036C128.158 158.742 128.18 158.436 128.141 158.133C128.102 157.831 128.003 157.54 127.85 157.276C127.696 157.013 127.492 156.783 127.248 156.599C127.004 156.416 126.727 156.283 126.431 156.209C126.135 156.134 125.827 156.12 125.526 156.166C125.224 156.212 124.935 156.318 124.675 156.477C124.415 156.637 124.19 156.846 124.012 157.094L124.071 157.101Z" fill="#EE4947"/>
<path d="M149.111 52.6629L149.412 50.397C149.412 50.397 140.163 49.189 127.365 47.981C114.567 46.773 98.2071 45.565 83.8601 45.565C77.3853 45.4888 70.9129 45.8488 64.4866 46.6424C61.9839 46.9629 59.5115 47.487 57.0941 48.2095C55.1311 48.7538 53.2899 49.6669 51.669 50.8998C50.1895 52.1578 48.8995 53.6225 47.8388 55.2487C45.7216 58.5743 44.041 62.1581 42.8386 65.9118C40.7375 72.3922 39.2281 79.0493 38.3286 85.8016C37.4185 92.1306 36.9402 98.514 36.8971 104.908C36.8761 107.526 37.0136 110.142 37.3089 112.744C37.4317 113.733 37.6128 114.714 37.8514 115.682C38.0478 116.513 38.3672 117.309 38.7992 118.046C39.096 118.573 39.3161 119.141 39.4528 119.73C39.821 121.441 40.3103 123.123 40.9169 124.765C41.6176 126.434 42.6672 127.935 43.9955 129.166C45.2687 130.324 46.7127 131.28 48.2767 132C51.6341 133.48 55.1869 134.469 58.8262 134.938C64.5582 135.731 70.3415 136.093 76.1277 136.022C81.3567 136.022 87.3504 135.813 94.2919 135.369C108.789 134.403 120.738 133.776 130.653 132.901C137.068 132.431 143.446 131.544 149.745 130.243C153.425 129.478 157.001 128.282 160.4 126.678C162.642 125.6 164.731 124.228 166.609 122.597C169.393 120.104 171.62 117.054 173.145 113.645C174.929 109.608 176.186 105.36 176.884 101.003C178.191 93.781 178.923 87.5581 178.923 82.1188C179.001 78.1427 178.466 74.1782 177.335 70.3652C176.544 67.8231 175.333 65.4308 173.753 63.2868C171.218 59.9998 167.962 57.337 164.236 55.5033C160.23 53.4268 155.406 51.8009 149.634 50.4427H149.523H149.412L149.111 52.7086L148.589 54.9352C152.828 55.8583 156.959 57.2195 160.916 58.9968C163.165 60.0204 165.269 61.3379 167.171 62.9146C169.644 65.0073 171.527 67.7081 172.635 70.7504C173.805 73.8586 174.374 77.6132 174.374 82.1776C174.374 87.199 173.681 93.1868 172.413 100.252C171.87 103.474 171.026 106.637 169.89 109.701C169.093 111.845 168.021 113.878 166.7 115.747C164.508 118.76 161.572 121.154 158.177 122.695C154.993 124.148 151.65 125.226 148.216 125.908C142.333 127.181 135.026 128.004 126.078 128.696C117.13 129.388 106.528 130.002 94.0108 130.812C87.1543 131.269 81.2456 131.464 76.1538 131.464C66.7155 131.464 60.1008 130.753 55.5189 129.656C52.9528 129.136 50.503 128.154 48.2898 126.757C47.3458 126.126 46.5333 125.319 45.8975 124.38C45.1507 123.152 44.6283 121.801 44.355 120.39C44.1785 119.659 44.002 118.888 43.7602 118.085C43.5165 117.224 43.1559 116.4 42.6882 115.636C42.513 115.288 42.3813 114.92 42.2961 114.539C41.9894 113.252 41.7904 111.942 41.7013 110.621C41.5575 108.976 41.4856 107.037 41.4856 104.888C41.5662 95.1975 42.6616 85.5417 44.7537 76.0787C45.7314 71.5232 47.1364 67.0699 48.95 62.7775C49.703 61.0365 50.6039 59.3631 51.6429 57.7757C52.4571 56.5179 53.4476 55.3832 54.5842 54.4063C55.7539 53.5561 57.0699 52.9275 58.4667 52.5518C61.9884 51.562 65.6021 50.934 69.2515 50.6778C73.6047 50.286 78.5788 50.1162 83.8666 50.1162C97.9587 50.1162 114.227 51.3112 126.94 52.5127C133.3 53.1134 138.778 53.7142 142.66 54.1647C144.621 54.3867 146.144 54.5761 147.203 54.7067L148.412 54.8569L148.824 54.9091L149.118 52.6433L148.595 54.8699L149.111 52.6629Z" fill="#231F20"/>
<path d="M333.218 413.95C333.218 413.95 443.916 404.671 450.87 413.95C457.825 423.229 474.094 461.899 460.93 475.82C447.766 489.742 368.05 492.06 350.997 490.512C333.944 488.965 314.635 478.915 333.218 413.95Z" fill="white"/>
<path d="M333.218 413.95L333.407 416.229L333.963 416.183C336.721 415.955 349.408 414.936 365.481 413.976C381.553 413.016 401.018 412.109 417.281 412.115C424.699 412.03 432.116 412.327 439.504 413.003C441.861 413.216 444.198 413.617 446.491 414.205C447.166 414.381 447.823 414.622 448.452 414.923C448.62 415.006 448.78 415.104 448.929 415.217L449.034 415.302L449.086 415.256L449.04 415.295L449.093 415.25L449.04 415.295C449.745 416.265 450.399 417.27 451.001 418.306C454.369 424.281 457.138 430.573 459.269 437.092C461.799 444.66 463.642 452.933 463.636 459.992C463.68 462.766 463.326 465.533 462.583 468.206C461.971 470.445 460.837 472.508 459.276 474.227C457.711 475.698 455.887 476.867 453.897 477.675C449.543 479.634 443.275 481.39 436.013 482.807C425.111 484.936 411.927 486.398 399.142 487.313C386.358 488.227 373.958 488.618 364.585 488.618C358.703 488.618 353.997 488.462 351.219 488.214C348.323 487.989 345.467 487.397 342.722 486.451C339.93 485.478 337.391 483.894 335.292 481.814C333.193 479.734 331.586 477.21 330.59 474.429C328.943 470.302 327.917 464.843 327.924 457.641C327.924 447.226 330.067 433.213 335.408 414.544L333.211 413.891L333.401 416.17L333.211 413.891L331.009 413.238C325.597 432.175 323.348 446.54 323.348 457.582C323.348 464.36 324.198 469.885 325.727 474.41C326.736 477.492 328.266 480.378 330.25 482.944C332.804 486.167 336.151 488.673 339.963 490.218C343.431 491.59 347.087 492.429 350.807 492.706C353.846 492.98 358.618 493.131 364.585 493.131C383.014 493.079 401.426 491.989 419.732 489.866C429.366 488.69 438.451 487.156 445.916 485.151C449.292 484.332 452.596 483.245 455.799 481.899C458.331 480.848 460.642 479.328 462.609 477.42C464.662 475.188 466.158 472.503 466.976 469.584C467.844 466.487 468.263 463.28 468.218 460.064C468.156 455.376 467.588 450.708 466.525 446.142C464.966 439.293 462.778 432.602 459.988 426.154C458.72 423.19 457.42 420.506 456.184 418.214C455.167 416.272 454.014 414.404 452.733 412.625C452.142 411.892 451.394 411.3 450.544 410.894C449.767 410.512 448.957 410.2 448.125 409.961C446.314 409.447 444.468 409.068 442.602 408.824C439.419 408.374 435.615 408.067 431.34 407.871C427.065 407.675 422.327 407.59 417.3 407.59C399.776 407.59 378.736 408.622 362.049 409.654C345.362 410.685 333.054 411.717 333.041 411.724L331.473 411.854L331.035 413.369L333.218 413.95Z" fill="#231F20"/>
<path d="M85.8734 72.3959L56.8982 91.0973L84.187 104.216C84.4604 104.373 84.7635 104.473 85.0773 104.508C85.3911 104.543 85.7088 104.513 86.0104 104.419C86.3119 104.326 86.5908 104.171 86.8295 103.964C87.0682 103.758 87.2615 103.504 87.3972 103.219C87.533 102.935 87.6082 102.625 87.6183 102.31C87.6283 101.994 87.5729 101.68 87.4556 101.388C87.3382 101.095 87.1615 100.829 86.9364 100.608C86.7113 100.387 86.4429 100.214 86.1479 100.102L66.2123 90.5161L88.3375 76.2354C88.5899 76.0725 88.8077 75.8615 88.9784 75.6145C89.1491 75.3675 89.2695 75.0893 89.3326 74.7959C89.3957 74.5024 89.4004 74.1994 89.3463 73.9041C89.2922 73.6088 89.1804 73.3271 89.0173 73.075C88.8542 72.8229 88.643 72.6054 88.3958 72.4348C88.1485 72.2642 87.8701 72.144 87.5763 72.0809C87.2826 72.0179 86.9792 72.0132 86.6837 72.0673C86.3881 72.1213 86.1061 72.233 85.8538 72.3959H85.8734Z" fill="#231F20"/>
<path d="M111.012 64.3316L94.7756 114.213C94.666 114.502 94.6163 114.811 94.6295 115.12C94.6428 115.429 94.7187 115.732 94.8526 116.011C94.9866 116.29 95.1758 116.538 95.4089 116.742C95.6419 116.946 95.9139 117.1 96.2084 117.195C96.5029 117.291 96.8137 117.326 97.1221 117.298C97.4304 117.27 97.7299 117.18 98.0023 117.033C98.2748 116.886 98.5145 116.685 98.707 116.443C98.8995 116.2 99.0407 115.922 99.1222 115.623L115.378 65.742C115.487 65.4527 115.537 65.1442 115.524 64.8352C115.511 64.5262 115.435 64.223 115.301 63.9442C115.167 63.6653 114.978 63.4165 114.745 63.2128C114.512 63.0092 114.24 62.8549 113.945 62.7593C113.651 62.6638 113.34 62.6289 113.031 62.6569C112.723 62.6849 112.424 62.7751 112.151 62.9221C111.879 63.0691 111.639 63.2698 111.446 63.5121C111.254 63.7544 111.113 64.0332 111.031 64.3316" fill="#231F20"/>
<path d="M128.189 79.0106L148 90.9667L126.15 106.077C125.65 106.423 125.309 106.953 125.201 107.551C125.094 108.148 125.228 108.764 125.574 109.263C125.921 109.762 126.452 110.103 127.05 110.21C127.648 110.318 128.265 110.184 128.764 109.838L156.439 90.6728L130.555 75.0927C130.035 74.7793 129.412 74.685 128.822 74.8308C128.232 74.9765 127.725 75.3502 127.411 75.8698C127.097 76.3893 127.003 77.0121 127.149 77.6011C127.295 78.1901 127.669 78.6971 128.189 79.0106Z" fill="#231F20"/>
<path d="M355.121 463.211C358.892 464.736 362.923 465.516 366.991 465.51C369.379 465.519 371.759 465.216 374.069 464.608C378.248 463.505 382.074 461.349 385.181 458.346C388.691 454.997 391.828 450.256 394.227 443.746C395.36 440.885 395.986 437.849 396.077 434.774C396.099 433.133 395.813 431.503 395.234 429.968C394.828 428.944 394.254 427.995 393.534 427.16C392.502 425.995 391.201 425.098 389.743 424.548C388.31 424.011 386.79 423.743 385.259 423.758C383.249 423.776 381.258 424.147 379.377 424.855C376.42 425.932 373.788 427.746 371.729 430.125C370.675 431.351 369.832 432.743 369.233 434.245C368.605 435.822 368.284 437.504 368.285 439.201C368.292 440.985 368.617 442.754 369.246 444.425C369.984 446.349 370.999 448.155 372.259 449.786C376.566 455.493 380.645 459.763 384.854 462.669C386.839 464.053 389.008 465.152 391.299 465.934C393.47 466.666 395.746 467.039 398.038 467.037C402.182 467.037 406.398 465.856 410.842 463.707C415.287 461.559 419.993 458.444 425.222 454.448C427.294 452.934 429.125 451.115 430.654 449.054C431.226 448.246 431.694 447.368 432.046 446.443C432.362 445.608 432.528 444.723 432.536 443.831C432.542 442.566 432.169 441.329 431.464 440.278C430.957 439.535 430.319 438.889 429.582 438.372C428.464 437.599 427.215 437.034 425.895 436.707C424.494 436.354 423.053 436.178 421.608 436.184C419.598 436.186 417.6 436.487 415.679 437.079C412.577 437.948 409.785 439.678 407.627 442.068C406.495 443.371 405.609 444.869 405.012 446.488C404.362 448.286 404.038 450.186 404.058 452.097C404.058 452.443 404.058 452.789 404.058 453.142C404.128 455.414 404.694 457.642 405.718 459.672C406.411 461 407.349 462.185 408.483 463.165C410.133 464.556 412.077 465.554 414.169 466.084C416.303 466.635 418.502 466.898 420.706 466.868C423.559 466.837 426.403 466.544 429.203 465.993C434.529 464.94 439.743 463.381 444.772 461.337C445.054 461.224 445.311 461.055 445.527 460.841C445.743 460.627 445.915 460.373 446.031 460.092C446.148 459.811 446.207 459.51 446.205 459.206C446.204 458.902 446.142 458.602 446.023 458.322C445.904 458.042 445.73 457.789 445.512 457.578C445.294 457.366 445.035 457.2 444.752 457.089C444.469 456.978 444.166 456.925 443.862 456.932C443.558 456.939 443.259 457.007 442.981 457.132C440.5 458.13 437.969 459.002 435.399 459.744C431.079 461.05 425.536 462.271 420.686 462.264C419.078 462.284 417.472 462.12 415.901 461.774C414.892 461.554 413.916 461.2 412.999 460.723C411.763 460.085 410.725 459.121 409.999 457.935C409.126 456.393 408.652 454.658 408.62 452.887C408.62 452.626 408.62 452.365 408.62 452.104C408.585 450.324 408.984 448.562 409.783 446.971C410.317 445.947 411.022 445.022 411.869 444.235C413.18 443.053 414.719 442.151 416.392 441.584C418.062 441.002 419.818 440.702 421.588 440.696C422.535 440.69 423.48 440.791 424.405 440.997C425.433 441.195 426.396 441.644 427.209 442.303C427.441 442.504 427.632 442.747 427.771 443.021C427.888 443.263 427.948 443.529 427.948 443.798C427.934 444.167 427.859 444.531 427.725 444.875C427.347 445.811 426.807 446.673 426.131 447.422C425.014 448.683 423.77 449.825 422.418 450.831C417.352 454.748 412.869 457.667 408.842 459.607C404.816 461.546 401.28 462.48 398.031 462.48C396.235 462.483 394.45 462.19 392.75 461.611C389.775 460.535 387.041 458.884 384.704 456.753C381.437 453.824 378.486 450.561 375.9 447.017C374.911 445.742 374.114 444.33 373.533 442.825C373.103 441.667 372.882 440.442 372.88 439.207C372.879 437.715 373.254 436.246 373.971 434.937C375.116 432.915 376.805 431.254 378.847 430.144C380.804 429.007 383.017 428.385 385.279 428.335C386.146 428.324 387.009 428.454 387.835 428.721C388.895 429.042 389.816 429.712 390.449 430.621C390.802 431.139 391.065 431.713 391.227 432.319C391.441 433.128 391.544 433.963 391.534 434.8C391.444 437.336 390.913 439.837 389.966 442.192C388.753 445.622 387.054 448.862 384.92 451.81C382.645 454.99 379.576 457.519 376.017 459.143C373.191 460.372 370.138 460.993 367.056 460.965C364.628 460.955 362.211 460.63 359.866 459.998C358.958 459.75 358.239 459.509 357.755 459.345C357.513 459.261 357.33 459.189 357.212 459.136L357.088 459.084L356.526 460.39L357.095 459.084L356.533 460.39L357.101 459.084C356.551 458.859 355.935 458.856 355.383 459.077C354.831 459.298 354.386 459.725 354.144 460.268C353.902 460.81 353.881 461.426 354.085 461.984C354.289 462.542 354.703 462.998 355.238 463.257L355.121 463.211Z" fill="#231F20"/>
</g>
<defs>
<clipPath id="clip0_1781_1520">
<rect width="568" height="493" fill="white"/>
</clipPath>
</defs>
</svg>
