<svg id="eFTtHwQ9CZ71" xmlns="http://www.w3.org/2000/svg" xmlns:xlink="http://www.w3.org/1999/xlink" viewBox="0 0 489 474" shape-rendering="geometricPrecision" text-rendering="geometricPrecision"><defs><filter id="eFTtHwQ9CZ72-filter" x="-150%" width="400%" y="-150%" height="400%"><feComponentTransfer id="eFTtHwQ9CZ72-filter-invert-0" result="result"><feFuncR id="eFTtHwQ9CZ72-filter-invert-0-R" type="table" tableValues="0 1"/><feFuncG id="eFTtHwQ9CZ72-filter-invert-0-G" type="table" tableValues="0 1"/><feFuncB id="eFTtHwQ9CZ72-filter-invert-0-B" type="table" tableValues="0 1"/></feComponentTransfer><feColorMatrix id="eFTtHwQ9CZ72-filter-saturate-0" type="saturate" values="1" result="result"/></filter></defs><g id="eFTtHwQ9CZ72" style="mix-blend-mode:difference" transform="translate(-4.893371-17.318744)" opacity="0.01" paint-order="markers fill stroke" clip-path="url(#eFTtHwQ9CZ781)" filter="url(#eFTtHwQ9CZ72-filter)"><g><path d="M434.013,109.298h-171.998c1.259-4.814,4.078-9.075,8.016-12.1166c3.938-3.0413,8.772-4.6917,13.747-4.6931h128.497c4.971.0069,9.799,1.6599,13.732,4.7008s6.748,7.2989,8.006,12.1089Z" fill="#231f20"/><path d="M44.8661,448.289h424.5119v-4.389h-424.5119" fill="#231f20"/><path d="M470.256,269.48h-71.037c-10.58,0-19.156,8.578-19.156,19.16v41.256c0,10.582,8.576,19.16,19.156,19.16h71.037c10.579,0,19.155-8.578,19.155-19.16v-41.256c0-10.582-8.576-19.16-19.155-19.16Z" fill="#ef4748"/><path d="M412.275,291.004l-17.569,17.568l17.563,18.459.452-.433-17.138-18.013l17.138-17.136-.446-.445Z" fill="#fff"/><path d="M444.732,291.06l-22.835,35.582.526.338l22.842-35.587" fill="#fff"/><path d="M451.583,291.449l17.35,17.568-17.35,17.575.445.445l17.789-18.02-17.789-18.013-.445.445Z" fill="#fff"/><path d="M319.625,272.972c.251,6.897-3.811,12.627-9.07,12.822-5.259.194-9.734-5.235-9.985-12.126s3.805-12.628,9.07-12.822s9.728,5.235,9.985,12.126Z" fill="#fff"/><path d="M276.532,311.519v19.581c.276-9.587,15.877-16.703,15.877-16.703l5.09,2.213c0,0,3.134,17.248,3.134,19.029s-13.414,25.738-14.781,27.788c-1.366,2.05-21.625,7.524-24.502,7.524s-25.317-5.06-28.739-6.979c-3.423-1.918-15.74-19.574-17.551-22.452-1.812-2.878-2.602-31.763,3.015-31.895c5.616-.131,12.041,7.393,12.041,7.393c3.835,3.251,6.588,7.595,7.892,12.452l-.364-26.277c0,0,3.285,1.824.364-1.837-2.921-3.662-7.666-14.233-7.666-14.233s-15.871.533-18.247-12.408c-1.404-7.624,2.708-11.524,4.739-13.254.645-.578,1.388-1.037,2.193-1.355c0,0,1.097-5.467,1.461-24.088.364-18.622,10.587-28.114,10.587-28.114s-4.012-1.455-4.388-4.74c-.376-3.286,6.895-1.468,6.895-1.468s6.206-10.219,6.206-3.21c0,7.01,3.648,4.678,3.648,4.678c10.957-6.941,39.778-5.48,51.104,0c11.327,5.479,23.719,4.012,23.719,4.012s-4.751,9.856,1.091,18.622c5.842,8.765,0,15.323-7.666,16.427-1.028.154-1.959.694-2.602,1.511-4.212,5.066-1.774,20.759-1.774,20.759-1.09,57.683-55.479,44.899-55.479,44.899l24.703,2.125Z" fill="#fff"/><path d="M276.532,311.519h1.536v19.581h-1.561l-1.561-.05c.048-1.38.345-2.74.878-4.013.953-2.19,2.32-4.176,4.024-5.85c2.335-2.312,4.948-4.325,7.779-5.994c1.329-.81,2.699-1.551,4.105-2.219l.627-.289l6.469,2.797.15.821c0,0,.784,4.32,1.573,8.865.395,2.27.79,4.596,1.085,6.477.15.941.276,1.768.363,2.433.044.332.082.627.107.871.026.221.041.443.044.665-.002.12-.013.239-.031.357-.029.171-.071.338-.126.502-.1.307-.226.627-.388,1.016-.308.714-.74,1.624-1.254,2.683-1.837,3.699-4.858,9.286-7.56,14.164-1.353,2.439-2.626,4.702-3.629,6.458-.501.877-.934,1.624-1.253,2.213l-.452.759-.319.507c-.126.183-.273.349-.439.496-.281.239-.586.449-.909.627-.737.406-1.499.764-2.282,1.072-1.573.627-3.56,1.323-5.716,2-3.228,1.016-6.82,2.006-9.835,2.752-1.511.377-2.877.684-3.993.903-.56.113-1.055.201-1.485.264-.378.061-.759.094-1.141.1-.315-.004-.628-.025-.94-.063-.627-.081-1.524-.219-2.558-.401-3.604-.627-9.296-1.881-14.473-3.179-2.583-.627-5.015-1.298-7.039-1.881-1.003-.301-1.881-.589-2.645-.853-.377-.137-.715-.263-1.016-.395-.286-.114-.564-.246-.834-.395-.349-.202-.679-.437-.984-.702-.705-.622-1.373-1.285-1.999-1.987-1.254-1.405-2.746-3.21-4.275-5.179-2.301-2.953-4.714-6.27-6.701-9.079-.996-1.404-1.88-2.683-2.589-3.724-.708-1.041-1.253-1.837-1.535-2.32-.185-.325-.333-.67-.439-1.028-.208-.749-.365-1.512-.47-2.283-.201-1.348-.364-3.009-.476-4.871-.113-1.862-.176-3.919-.176-6.032-.053-4.284.276-8.565.984-12.79.162-.872.371-1.734.627-2.583.303-1.1.788-2.14,1.435-3.079.319-.437.714-.813,1.166-1.11.495-.317,1.068-.491,1.655-.501h.188c1.718.056,3.4.509,4.914,1.323c2.094,1.115,4.026,2.512,5.742,4.15.853.777,1.661,1.602,2.419,2.471l-1.184,1.015l1.009-1.191c2.837,2.425,5.138,5.414,6.757,8.778.719,1.444,1.274,2.965,1.655,4.533l-1.53.32h-1.56l-.395-28.954l2.357,1.31-.42.759.42-.759-.42.759.42-.759.1.056c.1.044.257.12.376.163l.138.044-.1.521v-.527c.081,0,.106,0,.106,0l-.1.52v.552l-.263-1.041c.085-.023.174-.035.263-.037v1.078l-.263-1.041.319,1.254-.664-1.097c.108-.063.224-.111.345-.144l.319,1.254-.664-1.097.702,1.166-1.21-.627c.116-.227.292-.417.508-.552l.702,1.166-1.21-.627l1.135.571h-1.254c.002-.199.052-.395.144-.571l1.135.571h-.32l-.94.207c-.006-.069-.006-.138,0-.207h.959l-.94.207.432-.094-.414.144v-.05l.433-.094-.414.144c-.062-.144-.14-.281-.232-.408-.206-.312-.428-.613-.664-.902-.414-.521-.834-1.123-1.254-1.794-.746-1.166-1.523-2.545-2.281-3.956-2.263-4.226-4.319-8.778-4.325-8.822l1.422-.627.051,1.562h-.308c-3.262-.03-6.493-.653-9.533-1.837-2.32-.902-4.417-2.295-6.15-4.082-2.015-2.158-3.352-4.862-3.842-7.775-.204-1.083-.309-2.183-.313-3.285-.026-2.655.7-5.264,2.093-7.524.948-1.48,2.122-2.802,3.479-3.919v0c.801-.711,1.725-1.27,2.727-1.649l.476,1.486-1.529-.307.627.132-.627-.125.627.131-.627-.125c0,0,1.072-5.549,1.429-23.826.072-7.606,2.009-15.079,5.641-21.762c1.447-2.74,3.287-5.253,5.46-7.461l1.065,1.141-.539,1.467c-.871-.339-1.693-.792-2.444-1.348-.699-.512-1.317-1.127-1.831-1.825-.608-.843-.991-1.827-1.115-2.859c0-.131,0-.269,0-.401-.001-.314.045-.627.138-.928.158-.512.455-.97.858-1.323.267-.233.567-.426.89-.57.441-.19.905-.321,1.379-.389.453-.066.91-.097,1.367-.094.971.016,1.939.108,2.896.276.79.138,1.329.269,1.354.276l-.376,1.517-1.467-.815c0,0,.896-1.48,2.031-2.972.568-.764,1.197-1.481,1.88-2.144.334-.322.702-.606,1.097-.847.213-.127.437-.232.671-.313.272-.094.558-.143.846-.145.233.001.466.035.69.101.402.134.762.375,1.04.696.182.214.329.455.439.715.158.367.264.756.313,1.153.064.449.093.901.088,1.354-.01.753.053,1.505.188,2.245.059.303.154.597.282.878.052.136.139.257.251.351.027.007.055.007.081,0c.112-.002.223-.025.326-.069l.119-.056.37.627-.388-.627.369.627-.388-.627c2.845-1.8,6.575-2.991,10.8-3.762c4.526-.79,9.114-1.17,13.708-1.135c5.249-.009,10.49.41,15.671,1.254c2.307.38,4.592.884,6.845,1.511c1.915.52,3.782,1.206,5.578,2.05c3.344,1.579,6.89,2.689,10.537,3.298c2.83.488,5.697.733,8.569.734c1.178,0,2.131-.044,2.783-.088l.739-.057h.182.05v.163-.163.163-.163l2.821-.332-1.254,2.558h-.056.056-.056.056c-1.088,2.547-1.653,5.287-1.661,8.057-.006,1.494.183,2.982.564,4.426.441,1.634,1.146,3.184,2.088,4.59c1.786,2.683,2.639,5.304,2.639,7.731.005,1.468-.321,2.919-.953,4.244-.943,1.913-2.407,3.519-4.225,4.634-1.888,1.174-4.003,1.937-6.205,2.238v0c-.304.042-.596.144-.859.301-.288.177-.545.402-.759.665v0c-.406.516-.728,1.094-.952,1.711-.458,1.263-.762,2.577-.903,3.913-.178,1.54-.264,3.089-.257,4.639c0,2.414.176,4.74.345,6.452.088.859.175,1.567.238,2.05.033.247.058.435.075.565c0,.062,0,.112,0,.144v.044.131.138c-.188,10.157-2.012,18.252-4.945,24.678-1.935,4.391-4.685,8.374-8.105,11.737-4.503,4.26-9.97,7.366-15.934,9.054-5.095,1.457-10.372,2.177-15.67,2.138-4.243.026-8.476-.394-12.631-1.254l.496-3.072l26.038,2.288v1.43h-1.561l-.138,1.555-24.628-2.144.132-1.555.357-1.524v.05-.05.05-.05c3.919.798,7.91,1.189,11.91,1.166c4.398.025,8.783-.491,13.056-1.536c3.567-.879,6.992-2.258,10.174-4.094c5.402-3.158,9.801-7.782,12.686-13.336c3.329-6.27,5.523-14.552,5.729-25.606l1.561.031-1.542.239c-.464-3.224-.704-6.475-.721-9.731-.014-2.23.174-4.457.565-6.653.185-1.035.466-2.051.839-3.034.347-.932.84-1.802,1.461-2.577v0c.438-.538.966-.996,1.561-1.354.621-.367,1.309-.606,2.024-.703c2.314-.284,4.493-1.241,6.269-2.752.752-.663,1.366-1.468,1.805-2.37.42-.91.634-1.901.627-2.903c0-1.693-.59-3.699-2.119-5.994-1.128-1.689-1.975-3.551-2.507-5.511-.454-1.71-.682-3.472-.677-5.242.013-2.256.342-4.499.978-6.664.259-.941.595-1.86,1.002-2.747l1.405.677.181,1.549c-1.368.137-2.743.2-4.118.188-3.048.009-6.09-.243-9.095-.752-3.935-.659-7.759-1.86-11.364-3.568-1.634-.769-3.331-1.399-5.071-1.881-5.892-1.667-13.897-2.664-21.676-2.658-4.411-.035-8.817.328-13.163,1.085-3.98.733-7.39,1.881-9.703,3.348-.199.124-.409.231-.627.319-.471.194-.975.296-1.485.301-.538.001-1.067-.131-1.542-.382-.413-.225-.778-.53-1.072-.897-.482-.638-.82-1.374-.99-2.156-.23-1.044-.337-2.111-.32-3.179.003-.304-.016-.608-.057-.909-.011-.109-.034-.216-.068-.32v-.032l.545-.288-.332.502c-.089-.052-.162-.125-.213-.214l.545-.288-.332.502.476-.721v.871c-.17-.001-.336-.053-.476-.15l.476-.721v.395l.157.457c-.052.007-.105.007-.157,0v-.476l.157.458c-.125.062-.243.138-.351.225-.423.363-.813.762-1.166,1.192-.621.747-1.201,1.528-1.736,2.338-.239.345-.433.627-.565.853l-.156.244-.038.063-.627.984-1.115-.282c0,0-.514-.125-1.185-.238-.762-.133-1.533-.207-2.307-.219-.304-.001-.608.02-.909.062-.16.022-.317.06-.47.113-.057.019-.111.044-.163.075v0l-.15-.15.194.081-.044.069-.15-.15.194.081-.15-.062h.163v.037l-.151-.062h.163v.087c.06.504.252.982.558,1.386.482.63,1.085,1.157,1.774,1.549.247.146.503.278.765.395l.213.094h.05l-.263.702.257-.709-.264.703.257-.709l2.401.872-1.88,1.743-.627-.677.627.67-.627-.677.627.671c-2.047,2.14-3.77,4.567-5.115,7.204-3.195,6.106-4.89,12.884-4.946,19.775-.363,18.678-1.46,24.214-1.485,24.365l-.182.897-.871.282-.295-.909.313.902-.294-.909.313.903-.031-.075.031.075-.031-.075.031.075c-.617.26-1.187.62-1.686,1.066v0c-1.137.954-2.111,2.087-2.883,3.354-1.09,1.762-1.653,3.798-1.624,5.869.005.913.093,1.824.263,2.721.38,2.321,1.44,4.477,3.047,6.195c1.064,1.109,2.311,2.027,3.686,2.714c1.887.924,3.903,1.558,5.979,1.881c1.244.208,2.501.319,3.761.333h.213v.426-.426.426-.426l1.047-.032.426.953.057.12c.257.57,1.473,3.228,2.952,6.15.733,1.461,1.542,2.991,2.319,4.345.634,1.145,1.349,2.242,2.138,3.286v0c.394.478.753.985,1.072,1.517.121.201.228.411.319.627.102.264.155.544.157.828.004.254-.048.506-.15.739-.085.209-.213.397-.377.552-.209.206-.465.359-.745.445-.192.057-.39.084-.59.082-.285-.001-.569-.047-.84-.138-.281-.086-.555-.193-.821-.32-.207-.1-.344-.182-.37-.188l.759-1.367h1.561l.363,26.283-3.084.339.627-.132-.627.138.627-.131-.627.137c-.347-1.359-.838-2.677-1.466-3.931-1.425-2.932-3.437-5.54-5.911-7.661l-.094-.076-.082-.1.376-.32-.376.32.376-.32-.376.32c-1.139-1.275-2.377-2.458-3.704-3.536-1.088-.902-2.269-1.684-3.523-2.333-1.071-.585-2.26-.92-3.479-.978h-.138c-.133.078-.246.186-.332.314-.48.708-.83,1.495-1.034,2.326-.564,2.103-.93,4.255-1.091,6.427-.232,2.507-.338,5.235-.338,7.874c0,3.135.144,6.132.376,8.471.119,1.166.257,2.169.401,2.909.075.37.15.677.213.897.024.083.053.165.088.244v.05l-.195.107.188-.113-.194.107.188-.113c.201.326.583.909,1.091,1.661c1.78,2.634,5.121,7.393,8.374,11.669c1.624,2.138,3.228,4.157,4.582,5.718.683.783,1.304,1.448,1.818,1.95.257.25.483.457.677.627.131.109.269.209.414.301.22.114.446.217.677.307.589.238,1.454.533,2.507.852c3.617,1.117,9.333,2.508,14.417,3.668c2.507.565,4.92,1.06,6.794,1.411.941.176,1.749.314,2.389.408.313.043.589.081.802.1.142.007.284.007.426,0c.063,0,.263,0,.533-.044.501-.069,1.254-.207,2.169-.401c3.184-.671,8.261-2.007,12.618-3.373c2.181-.678,4.193-1.374,5.678-1.975.607-.237,1.2-.509,1.774-.816.156-.077.305-.167.445-.269l.057-.05.388.407-.463-.313c.023-.033.048-.065.075-.094l.388.407-.463-.313c.062-.082.188-.289.357-.564.627-1.054,1.88-3.192,3.322-5.8c2.2-3.919,4.958-8.928,7.158-13.104c1.097-2.082,2.056-3.963,2.733-5.373.339-.703.627-1.292.771-1.712.088-.213.144-.376.176-.47v-.057l.764.176h-.777c-.008-.058-.008-.117,0-.176l.765.176h-.777c0,0,0-.151,0-.345-.038-.376-.113-.972-.22-1.693-.376-2.545-1.097-6.734-1.723-10.27-.308-1.774-.627-3.386-.809-4.552-.107-.583-.188-1.053-.251-1.379l-.088-.508l1.53-.232-.627,1.436-5.065-2.195.627-1.429.627,1.417c-2.721,1.31-5.304,2.889-7.71,4.715-1.893,1.401-3.58,3.06-5.014,4.928-.648.862-1.185,1.801-1.599,2.796-.38.916-.592,1.893-.627,2.884l-3.134-.043v-19.6h1.561l-.138,1.555.132-1.555Z" fill="#231f20"/><path d="M216.852,261.435c4.106,2.941,9.114,5.712,10.957,7.775c3.103,3.467,1.649-28.478,7.842-31.205s-6.193-14.972,4.387-10.59c10.581,4.383,56.025-.552,60.031,0c3.222.439,7.522,11.838,9.076,16.302.643-.817,1.573-1.357,2.601-1.511c7.666-1.104,13.515-7.668,7.666-16.427-5.848-8.759-1.09-18.622-1.09-18.622s-12.405,1.461-23.719-4.012c-11.314-5.474-40.116-6.941-51.105,0c0,0-3.648,2.332-3.648-4.678c0-7.009-6.205,3.211-6.205,3.211s-7.296-1.825-6.895,1.467c.401,3.291,4.388,4.74,4.388,4.74s-10.224,9.492-10.587,28.114c-.364,18.621-1.461,24.088-1.461,24.088-.821.312-1.579.768-2.238,1.348Z" fill="#231f20"/><path d="M153.199,300.12c0,0-28.495-4.069-35.428,5.787c0,0,47.263-54.942,44.342-60.786c0,0,9.853,1.461,14.416-2.188c4.564-3.649,20.623-18.251,28.101-20.628c7.478-2.376,7.302-12.226-1.824-12.959-9.127-.734-19.708,11.135-27.186,10.589-7.477-.545-7.12-6.207-7.12-6.207s11.132-3.135,12.229-13.166c1.097-10.032-5.109-13.506-5.109-13.506s13.502-6.207,22.259-1.642c8.756,4.564,17.156.545,17.519-5.117.364-5.661-8.393-11.129-22.991-10.947-14.599.182-28.101,7.48-31.022,9.123s-6.023,1.824-8.775,4.389c-2.752,2.564-9.302,2.74-12.223,7.116s-11.132,6.941-12.411,10.59-1.097,13.687-9.126,21.718c-8.03,8.032-55.1102,63.527-53.8315,85.063c1.2787,21.537,12.4674,42.635,76.8545,50.98l11.326-58.209Z" fill="#fff"/><path d="M153.199,300.12l-.219,1.549c-4.185-.537-8.399-.809-12.618-.815-4.265-.059-8.522.362-12.693,1.254-1.809.405-3.559,1.037-5.209,1.881-1.336.668-2.497,1.638-3.391,2.834l-1.254-.897-1.184-1.015.495-.584c2.438-2.846,13.42-15.749,23.781-28.904c5.178-6.57,10.199-13.216,13.903-18.671c1.584-2.288,3.049-4.657,4.388-7.098.44-.81.827-1.647,1.159-2.507.109-.283.2-.572.27-.866.043-.162.068-.328.075-.495v-.063l.389-.062-.345.175c-.031-.069-.038-.106-.044-.113l.389-.062-.345.175-1.36-2.69l2.983.439c1.42.184,2.85.274,4.282.27c1.638.016,3.274-.133,4.883-.445.772-.155,1.53-.38,2.262-.671.64-.255,1.241-.597,1.787-1.016c1.097-.884,2.958-2.508,5.227-4.389c3.404-2.89,7.729-6.508,11.91-9.655c2.106-1.568,4.181-3.022,6.111-4.214c1.669-1.079,3.457-1.96,5.328-2.627c1.271-.369,2.396-1.122,3.222-2.157.654-.836,1.016-1.865,1.028-2.928.002-.574-.113-1.142-.336-1.671-.222-.529-.55-1.007-.961-1.407-.507-.485-1.1-.87-1.749-1.135-.853-.352-1.757-.564-2.677-.627v0c-.225,0-.457-.031-.695-.031-2.108.093-4.174.614-6.074,1.53-3.241,1.423-6.638,3.63-9.948,5.536-1.585.938-3.233,1.766-4.933,2.476-1.55.673-3.213,1.045-4.902,1.098-.206,0-.413,0-.626,0-1.607-.091-3.177-.518-4.608-1.254-.827-.433-1.567-1.015-2.181-1.718-.708-.818-1.224-1.784-1.511-2.828-.171-.612-.259-1.245-.263-1.881-.004-.073-.004-.146,0-.219l.063-1.11l1.072-.301.219.79-.219-.79.219.79-.219-.79.113-.031c2.041-.677,3.96-1.676,5.685-2.96c1.334-.99,2.49-2.2,3.416-3.58c1.04-1.567,1.685-3.364,1.88-5.235.078-.712.118-1.428.12-2.144.02-1.608-.228-3.208-.734-4.734-.495-1.5-1.317-2.87-2.407-4.013-.302-.317-.631-.606-.984-.865-.119-.094-.207-.151-.263-.188l-.057-.032.445-.764-.432.771.445-.765-.433.771-2.682-1.498l2.795-1.286c1.535-.671,3.109-1.248,4.714-1.73c3.386-1.078,6.909-1.66,10.462-1.731c2.928-.062,5.829.583,8.455,1.881c2.133,1.15,4.511,1.767,6.933,1.8c2.125.05,4.212-.569,5.967-1.768.674-.48,1.246-1.089,1.68-1.794.386-.625.614-1.335.665-2.069v0c0-.081,0-.163,0-.238-.005-.498-.1-.991-.283-1.455-.45-1.045-1.15-1.964-2.037-2.677-2.078-1.646-4.481-2.834-7.051-3.486-3.704-1.002-7.528-1.486-11.365-1.436h-.689c-7.046.082-13.915,1.881-19.369,3.919-3.76,1.386-7.407,3.063-10.906,5.016-1.498.767-3.053,1.416-4.651,1.944-.687.256-1.355.559-2,.909-.656.359-1.265.799-1.811,1.31-.925.808-1.987,1.445-3.135,1.881-1.679.715-3.491,1.254-5.089,2.019-.766.343-1.495.763-2.175,1.254-.63.465-1.177,1.033-1.618,1.68-.92,1.301-2.052,2.439-3.347,3.367-1.912,1.455-4.049,2.677-5.766,3.85-.758.498-1.473,1.058-2.138,1.674-.232.226-.442.474-.627.74-.14.192-.251.403-.332.627-.155.476-.279.962-.37,1.454-.225,1.066-.445,2.452-.764,4.026-.521,2.777-1.338,5.491-2.439,8.094-1.403,3.259-3.41,6.223-5.917,8.734-.946.947-2.507,2.652-4.526,4.915-10.645,12.145-20.6017,24.876-29.8236,38.134-5.2527,7.649-10.029,15.398-13.5204,22.383-1.6014,3.151-2.9675,6.416-4.0869,9.768-.8799,2.522-1.3744,5.162-1.4667,7.831c0,.27,0,.533,0,.797.219,5.275,1.3714,10.469,3.4036,15.342c1.7248,3.963,4.1617,7.575,7.1896,10.659c4.9331,5.091,12.1289,9.806,22.6344,13.837c10.505,4.032,24.283,7.367,42.304,9.7l-.201,1.548-1.529-.301l11.283-58.228l1.535.301-.219,1.549.219-1.549l1.53.301-11.59,59.664-1.454-.188c-16.172-2.094-29.047-5.016-39.302-8.527-6.6594-2.193-13.022-5.203-18.9422-8.96-7.5218-4.947-12.3985-10.577-15.4072-16.54-3.0087-5.962-4.1934-12.219-4.557-18.408c0-.32,0-.627,0-.972c0-3.034.771-6.445,2.0811-10.163c2.2879-6.502,6.2682-13.957,11.032-21.65c7.1582-11.524,16.128-23.562,23.9753-33.38c3.893-4.96,7.554-9.286,10.537-12.747c1.498-1.724,2.827-3.229,3.955-4.47c1.129-1.242,2.044-2.214,2.721-2.897c1.751-1.735,3.23-3.724,4.388-5.9c1.405-2.739,2.418-5.662,3.008-8.684.282-1.323.495-2.552.696-3.643.159-.983.389-1.953.69-2.902.242-.658.596-1.269,1.046-1.806.826-.935,1.77-1.759,2.808-2.452c1.586-1.116,3.392-2.169,5.015-3.279.765-.512,1.495-1.073,2.188-1.68.587-.508,1.109-1.088,1.554-1.724.844-1.237,1.942-2.278,3.222-3.054c1.73-.997,3.557-1.814,5.453-2.439.846-.313,1.624-.627,2.269-.934.549-.245,1.058-.57,1.511-.965.732-.682,1.545-1.272,2.419-1.756c1.139-.6,2.323-1.107,3.542-1.517c1.069-.359,2.106-.803,3.103-1.33c3.642-2.032,7.437-3.777,11.351-5.216c5.679-2.088,12.863-4.013,20.416-4.107h.727c7.133,0,12.931,1.317,17.068,3.436c1.884.915,3.558,2.211,4.914,3.806.578.708,1.043,1.501,1.379,2.351.326.822.494,1.699.496,2.583c0,.151,0,.295,0,.445-.086,1.232-.464,2.424-1.104,3.48-1.01,1.61-2.461,2.896-4.18,3.706-1.916.92-4.018,1.388-6.143,1.366-2.947-.023-5.843-.766-8.437-2.163-2.185-1.052-4.59-1.566-7.014-1.498-3.242.072-6.457.608-9.547,1.592-1.316.402-2.407.803-3.165,1.104-.382.144-.677.27-.878.357l-.219.094h-.05l-.144-.313.15.313-.144-.313.15.313-.626-1.417.758-1.366c1.228.759,2.293,1.754,3.134,2.928.868,1.185,1.551,2.496,2.025,3.887.615,1.851.92,3.792.902,5.743-.002.838-.051,1.675-.144,2.508-.281,2.53-1.207,4.946-2.689,7.016-1.789,2.443-4.122,4.437-6.813,5.825-1.243.672-2.549,1.22-3.899,1.636l-.42-1.505l1.561.094-.978-.062.978.043-.978-.062.978.044v.05c.005.296.043.59.112.878.085.363.218.713.395,1.04.354.658.881,1.206,1.523,1.587c1.115.625,2.364.974,3.642,1.015.132,0,.264,0,.401,0c.809-.018,1.611-.151,2.382-.395c1.778-.589,3.488-1.364,5.103-2.313c2.764-1.543,5.748-3.486,8.825-5.072c1.507-.802,3.077-1.477,4.695-2.019c1.564-.532,3.201-.815,4.852-.841.319,0,.626,0,.946.038c1.252.086,2.482.374,3.642.853c1.498.602,2.786,1.631,3.704,2.959.82,1.222,1.257,2.661,1.254,4.132-.011,1.75-.599,3.447-1.674,4.828-1.214,1.566-2.885,2.717-4.782,3.291-.998.329-1.963.749-2.883,1.254-2.29,1.297-4.494,2.738-6.601,4.314-3.56,2.602-7.334,5.681-10.581,8.408-1.623,1.367-3.134,2.64-4.387,3.73-1.254,1.091-2.345,1.982-3.134,2.609-.779.604-1.637,1.098-2.552,1.467-1.364.536-2.789.9-4.243,1.085-1.355.182-2.72.27-4.087.263-1.584.004-3.167-.097-4.739-.301l.207-1.511l1.398-.702c.203.424.304.89.295,1.36-.007.434-.064.865-.17,1.286-.254.94-.601,1.854-1.034,2.727-1.161,2.307-2.465,4.54-3.905,6.684-2.921,4.464-6.857,9.837-11.126,15.392-12.8,16.672-28.608,35.048-28.614,35.055l-2.464-1.881c1.179-1.586,2.711-2.874,4.476-3.762c2.907-1.464,6.038-2.432,9.264-2.865c3.351-.482,6.732-.713,10.117-.69c4.372.008,8.739.29,13.076.846l1.623.239-.313,1.611-1.53-.314Z" fill="#231f20"/><path d="M160.063,177.764c3.782.911,7.433,2.302,10.863,4.139c2.91,1.518,5.515,3.56,7.684,6.025c1.114,1.301,2.019,2.766,2.683,4.345.697,1.688,1.074,3.491,1.11,5.317c0,.169,0,.338,0,.514.063,3.082-.667,6.128-2.119,8.847-.889,1.602-2.049,3.039-3.429,4.244-1.6,1.389-3.428,2.492-5.403,3.261-.866.348-1.762.619-2.676.808l-.552-3.072.075.433-.081-.433.075.433-.082-.433c.624-.133,1.236-.316,1.831-.545c2.224-.809,4.224-2.135,5.835-3.869c1.032-1.144,1.846-2.468,2.401-3.906.691-1.843,1.032-3.8,1.003-5.768c0-.144,0-.295,0-.445-.025-1.441-.321-2.864-.871-4.195-1.003-2.261-2.536-4.246-4.469-5.787-2.857-2.271-6.064-4.06-9.497-5.298-1.46-.552-2.733-.947-3.635-1.198l-1.053-.282-.27-.062h-.069l.658-3.054-.012-.019Z" fill="#231f20"/><path d="M150.648,182.881c3.511,1.209,6.862,2.84,9.979,4.859c2.666,1.681,5.029,3.801,6.989,6.27.997,1.296,1.802,2.73,2.388,4.257.612,1.601.926,3.301.928,5.016-.001.486-.026.971-.075,1.454v0c-.241,3.029-1.424,5.906-3.385,8.226-1.275,1.456-2.81,2.661-4.526,3.555-2.223,1.142-4.614,1.923-7.083,2.314-1.47.25-2.959.382-4.45.395h-.326l.1-3.135v.288-.288.288-.288h.226c1.112-.011,2.222-.097,3.322-.257c1.348-.19,2.678-.496,3.974-.915c2.197-.671,4.207-1.847,5.867-3.436.857-.857,1.559-1.857,2.075-2.953.6-1.298.973-2.689,1.103-4.113v0c.037-.383.056-.765.056-1.135-.001-1.342-.247-2.672-.727-3.925-.898-2.208-2.277-4.187-4.037-5.794-2.595-2.363-5.532-4.32-8.712-5.805-1.342-.627-2.508-1.142-3.348-1.461-.413-.163-.739-.282-.965-.358l-.251-.087h-.062l.953-2.972h-.013Z" fill="#231f20"/><path d="M139.447,190.116c2.93.903,5.737,2.166,8.355,3.762c2.241,1.34,4.23,3.061,5.88,5.085.848,1.078,1.533,2.276,2.031,3.555.518,1.357.783,2.798.783,4.251-.037,2.24-.583,4.442-1.598,6.439-1.114,2.454-2.918,4.532-5.19,5.981-1.914,1.159-4.113,1.762-6.35,1.743-2.112-.003-4.196-.488-6.093-1.417-.843-.409-1.632-.921-2.35-1.523-.668-.548-1.233-1.21-1.668-1.956-.496-.925-.748-1.961-.733-3.01.002-.851.133-1.696.389-2.508.364-1.23,1.025-2.352,1.924-3.267.463-.468,1.007-.851,1.605-1.128.637-.293,1.329-.445,2.031-.445c1.034.017,2.044.316,2.921.865c1.067.667,2.009,1.516,2.783,2.508l-2.426,1.969c-.543-.71-1.205-1.321-1.956-1.806-.395-.257-.852-.404-1.322-.426-.346.004-.682.106-.972.294-.576.397-1.029.946-1.31,1.587-.349.726-.535,1.52-.545,2.326-.017.511.097,1.018.332,1.473.252.425.579.801.965,1.11.825.677,1.763,1.204,2.771,1.555c1.173.415,2.409.627,3.654.627c1.662.018,3.296-.427,4.72-1.286c1.763-1.134,3.155-2.76,4.005-4.677.814-1.572,1.255-3.309,1.292-5.078-.002-1.072-.199-2.135-.583-3.135-.721-1.754-1.839-3.316-3.266-4.565-2.125-1.867-4.53-3.388-7.127-4.508-1.103-.495-2.069-.859-2.752-1.103-.338-.119-.627-.207-.796-.264l-.2-.062h-.051l.859-3.004-.012.038Z" fill="#231f20"/><path d="M307.459,247.015l.056-.126-.056.126.056-.126-.056.126c-2.252-.83-4.633-1.254-7.033-1.254-2.232-.028-4.443.437-6.475,1.36-2.522,1.202-4.647,3.102-6.124,5.474-2.073,3.24-3.545,6.827-4.344,10.59-.688,3.132-1.033,6.329-1.028,9.536c0,1.781.1,3.26.201,4.282.05.515.1.916.138,1.179c0,.138.031.238.037.301v.069l-3.077.527c-.309-2.105-.454-4.231-.433-6.358-.011-3.438.355-6.867,1.091-10.226.882-4.131,2.502-8.069,4.782-11.624c1.798-2.857,4.369-5.144,7.416-6.596c2.453-1.117,5.121-1.68,7.816-1.649c2.817.001,5.611.518,8.243,1.523l-1.21,2.866Z" fill="#231f20"/><path d="M263.575,247.178l.878-.332-.878.344.878-.332-.878.345c-.793-1.646-1.977-3.073-3.447-4.157-1.592-1.225-3.384-2.165-5.297-2.778-2.837-.896-5.8-1.33-8.775-1.285-2.045.009-4.087.158-6.112.445l-.426-3.097c2.166-.302,4.351-.46,6.538-.47c3.405-.052,6.794.465,10.029,1.53c3.145,1.02,5.969,2.844,8.192,5.291.923,1,1.669,2.149,2.207,3.399l-2.921,1.097h.012Z" fill="#231f20"/><path d="M278.067,286.973c-.758.447-1.555.825-2.382,1.128-1.834.71-3.781,1.081-5.747,1.097-1.75.007-3.484-.332-5.103-.997-1.967-.829-3.728-2.081-5.158-3.667l2.287-2.126c1.126,1.255,2.512,2.248,4.062,2.909c1.241.509,2.57.767,3.912.759c1.589-.02,3.162-.324,4.644-.897.474-.182.936-.391,1.386-.627l.357-.188.081-.05.527.853-.527-.853.527.853-.527-.853l1.661,2.659Z" fill="#231f20"/><path d="M222.03,269.122l-.658.151.627-.163-.658.15.626-.163c.296.934.754,1.809,1.354,2.583c1.487,1.926,3.528,3.351,5.848,4.082l-1.009,2.953c-1.675-.558-3.248-1.386-4.657-2.451-1.495-1.136-2.738-2.571-3.648-4.214-.401-.699-.711-1.447-.921-2.226l3.04-.714.056.012Z" fill="#231f20"/><path d="M308.28,258.181c.7.111,1.391.27,2.069.477c2.521.729,4.848,2.014,6.807,3.762c1.259,1.154,2.276,2.548,2.99,4.1.844,1.865,1.272,3.891,1.253,5.938-.006,1.348-.146,2.692-.42,4.013-.338,1.814-.944,3.568-1.798,5.204-.839,1.724-2.153,3.171-3.788,4.171-1.636,1.001-3.523,1.511-5.439,1.471-1.526-.015-3.041-.26-4.495-.727-.658-.204-1.301-.456-1.924-.752l1.398-2.79-.201.407.201-.407-.207.407.201-.407c.505.228,1.024.425,1.554.589c1.122.355,2.29.543,3.466.558.79.004,1.576-.108,2.332-.332c1.27-.395,2.389-1.167,3.21-2.214c1.26-1.699,2.09-3.678,2.419-5.768.236-1.115.358-2.252.364-3.392.055-2.051-.496-4.073-1.586-5.812-.683-1.051-1.552-1.969-2.564-2.709-1.292-.941-2.727-1.67-4.25-2.156-.627-.195-1.128-.326-1.485-.402l-.401-.081h-.094l.125-.859-.119.859.125-.859-.119.859.433-3.091-.057-.057Z" fill="#231f20"/><path d="M315.501,272.721c-.006.293-.05.584-.132.865-.282.951-.802,1.814-1.51,2.508-1.221,1.181-2.69,2.074-4.3,2.615l-1.091-2.928c.877-.302,1.709-.724,2.47-1.254.56-.374,1.016-.886,1.322-1.486.053-.109.091-.225.113-.345v-.031l.727.075h-.727v-.075l.727.075h2.395l.006-.019Z" fill="#231f20"/><path d="M143.797,299.594c0,0-14.254,53.682-9.879,56.428s42.154,8.214,42.154,8.214l-3.31,81.859l147.816-2.74c0,0,7.39-71.733,9.033-75.019c1.642-3.285,27.642,12.045,31.203,11.223c3.56-.821,32.024-55.036,32.024-55.036s-32.595-23.199-61.428-25.707c-28.834-2.508-41.79,15.875-41.79,15.875s5.735,35.231-26.697,39.068c-32.431,3.837-37.897-21.18-39.364-22.634-1.466-1.455-.558-19.186-.558-19.186s-14.949-11.863-28.639-10.941-50.565-1.404-50.565-1.404Z" fill="#2f3841"/><path d="M143.797,299.594l1.51.401c0,0-.043.157-.119.451-.589,2.232-3.234,12.383-5.729,23.425-1.253,5.523-2.451,11.285-3.347,16.345-.445,2.508-.815,4.903-1.072,6.991-.234,1.74-.365,3.492-.395,5.248-.016.677.038,1.353.163,2.019.024.128.064.252.119.369v0l-.1.063.094-.069-.1.063.094-.069-.495.357.326-.514c.066.041.123.094.169.157l-.495.357.326-.514c.289.163.593.297.908.401c1.253.434,2.527.802,3.818,1.104c2.839.696,6.575,1.455,10.568,2.194c5.986,1.11,12.536,2.189,17.626,2.985c2.507.395,4.695.721,6.218.953l1.78.263.627.094l1.392.201-3.266,81.646l146.155-2.709.031,1.561-1.554-.163c0,0,1.88-17.938,3.899-36.289c1.027-9.179,2.106-18.459,3.033-25.663.464-3.599.89-6.684,1.254-8.985.182-1.147.345-2.106.495-2.852.082-.37.151-.69.226-.972.037-.138.075-.264.119-.395.045-.138.099-.272.163-.401.133-.263.316-.498.539-.69.296-.25.645-.428,1.022-.521.313-.079.635-.117.959-.112.486.007.971.06,1.448.156c1.078.236,2.138.548,3.171.935c2.056.733,4.463,1.768,6.996,2.915c3.761,1.718,7.854,3.68,11.282,5.204c1.699.759,3.235,1.411,4.47,1.881.626.219,1.147.395,1.573.502.272.078.551.129.833.15v0l.057.445-.1-.439h.043l.057.445-.1-.438.194.846-.433-.759c.076-.038.156-.068.239-.087l.194.846-.433-.759.151.264-.163-.257.15.263-.163-.257c.097-.07.185-.15.264-.238.421-.449.81-.927,1.165-1.43.903-1.216,2.063-2.978,3.385-5.097c4.633-7.443,11.283-19.355,16.699-29.381c2.726-5.016,5.158-9.561,6.895-12.853.871-1.649,1.579-2.984,2.068-3.9.238-.464.433-.821.558-1.066l.194-.363l1.379.721-.902,1.254c-6.485-4.444-13.243-8.476-20.234-12.07-6.251-3.254-12.713-6.084-19.343-8.47-6.908-2.471-14.11-4.352-21.005-4.941-1.824-.163-3.579-.238-5.272-.238-5.351-.034-10.673.789-15.764,2.439-5.384,1.756-10.374,4.543-14.693,8.207-1.26,1.069-2.444,2.225-3.541,3.461-.383.433-.671.784-.853,1.016l-.2.263-.044.063-.671-.477.671.477-.671-.477.671.477-1.254-.903l1.542-.251c.29,2.077.428,4.173.414,6.27.01,3.157-.291,6.307-.897,9.405-.531,2.762-1.372,5.457-2.507,8.031-1.902,4.338-4.868,8.126-8.625,11.01-4.074,3.091-9.458,5.342-16.429,6.163-2.221.266-4.457.402-6.694.408-6.895,0-12.43-1.404-16.874-3.561-3.04-1.476-5.816-3.442-8.218-5.819-2.762-2.768-5.051-5.97-6.775-9.48-.696-1.379-1.204-2.577-1.586-3.454-.188-.433-.345-.79-.458-1.029-.056-.113-.1-.2-.125-.238l.627-.414-.514.521c-.035-.033-.067-.068-.094-.107l.626-.414-.514.521c-.144-.148-.269-.315-.369-.496-.144-.263-.256-.543-.333-.834-.141-.53-.241-1.071-.301-1.617-.112-.909-.181-1.975-.225-3.135s-.063-2.439-.063-3.724c0-5.135.276-10.546.276-10.559l1.561.082-.972,1.254c-2.74-2.079-5.648-3.927-8.694-5.524-2.675-1.439-5.471-2.641-8.355-3.593-2.965-1-6.067-1.535-9.196-1.586-.482,0-.959,0-1.435.044-2.344.157-5.297.219-8.619.219-8.28,0-18.804-.395-27.298-.796-8.493-.401-14.899-.796-14.899-.796l.094-1.561l1.51.401-1.51-.401.094-1.562l1.134.069c5.115.308,26.546,1.524,40.875,1.524c3.278,0,6.187-.063,8.412-.213.552-.038,1.103-.057,1.649-.057c3.507.061,6.984.668,10.304,1.8c4.396,1.49,8.603,3.486,12.537,5.95c1.805,1.102,3.552,2.297,5.234,3.58l.627.502-.038.802c0,0,0,.082,0,.238-.05,1.091-.263,5.762-.263,10.164c0,2.044.05,4.025.169,5.53.038.604.113,1.205.226,1.799.028.145.067.288.119.427v0l-.627.326.514-.515c.054.058.102.121.144.189l-.627.326.514-.515c.138.145.262.303.37.471.158.273.301.556.426.846.263.577.571,1.317.959,2.195c1.908,4.508,4.782,8.542,8.418,11.818c2.558,2.213,5.495,3.944,8.669,5.11c4.14,1.478,8.511,2.202,12.906,2.138c2.116-.006,4.23-.136,6.331-.389c5.78-.683,10.217-2.382,13.659-4.664c2.421-1.606,4.531-3.639,6.224-6.001c2.273-3.263,3.881-6.942,4.732-10.828.739-3.279,1.105-6.632,1.091-9.994c0-1.755-.094-3.21-.188-4.226-.044-.501-.094-.896-.125-1.166c0-.131,0-.232-.044-.294v-.082l.708-.113-.708.113.708-.113-.708.113-.1-.627.363-.52c.082-.107,3.028-4.283,9.202-8.458c3.623-2.441,7.565-4.369,11.715-5.731c5.406-1.754,11.059-2.63,16.742-2.596c1.787,0,3.636.076,5.548.245c7.39.627,14.943,2.621,22.145,5.185c9.739,3.581,19.138,8.029,28.082,13.292c7.296,4.239,11.909,7.524,11.947,7.524l1.109.79-.627,1.204c0,0-7.214,13.618-14.799,27.292-3.761,6.834-7.685,13.7-10.869,18.935-1.598,2.615-3.015,4.822-4.174,6.439-.485.694-1.009,1.359-1.568,1.994-.222.248-.463.478-.72.69-.134.105-.274.202-.42.288-.196.113-.407.196-.627.245-.222.049-.45.072-.677.069-.44-.008-.877-.065-1.304-.17-.979-.246-1.94-.558-2.877-.934-1.88-.733-4.206-1.768-6.676-2.909-3.71-1.712-7.791-3.674-11.314-5.191-1.755-.759-3.378-1.405-4.713-1.881-.665-.22-1.254-.395-1.762-.508-.363-.09-.735-.143-1.109-.157h-.176l-.056-.257.1.245h-.044l-.056-.258.1.245-.269-.627.457.533c-.056.051-.119.093-.188.125l-.269-.627.457.533-.583-.677.803.401c-.056.105-.13.198-.22.276l-.583-.677.803.401-.364-.181.376.15v.031l-.363-.181.376.15c0,0-.057.169-.113.389-.107.439-.251,1.147-.401,2.056-.589,3.417-1.411,9.668-2.307,17.073-1.348,11.117-2.865,24.866-4.049,35.838-.589,5.487-1.097,10.277-1.454,13.694-.176,1.705-.32,3.072-.42,4.013-.101.94-.151,1.448-.151,1.448l-.138,1.379-150.85,2.797l3.348-83.521l1.56.056-.219,1.549c0,0-9.459-1.373-19.475-3.085-5.015-.859-10.155-1.805-14.354-2.708-2.1-.458-3.956-.897-5.46-1.323-.752-.213-1.417-.427-1.987-.627-.517-.178-1.014-.407-1.486-.684v0c-.21-.13-.398-.293-.557-.482-.242-.287-.431-.614-.558-.966-.184-.508-.304-1.036-.358-1.574-.069-.624-.101-1.252-.094-1.881.035-2.028.192-4.053.471-6.063.526-4.094,1.429-9.072,2.507-14.257c3.184-15.543,7.804-32.923,7.804-32.942l.332-1.254l1.254.075-.088,1.587Z" fill="#1a1a1a"/><path d="M392.863,324.523c0,0,50.64,28.841,54.107,38.515c3.466,9.675,4.563,29.387-7.848,40.159-12.411,10.771-85.398,63.889-98.724,66.077-13.326,2.189-31.748-1.824-46.898-7.849-15.151-6.026-26.383-5.292-30.526.363-4.144,5.656-4.325,13.694-13.79,9.311s10.768-29.205,35.221-26.283c-3.171-2.674-6.899-4.603-10.913-5.646-4.013-1.043-8.21-1.172-12.28-.38-13.865,2.74-13.32,9.311-21.894,8.214-8.575-1.097,2.638-20.923,23.668-21.537c17.871-.527,23.594,7.85,23.594,7.85s-12.775-16.979-47.262-.552c-5.642-2.915,1.642-17.888,21.894-20.44c20.253-2.551,24.271,8.778,24.271,8.778s-2.407-11.097-32.3-9.492c-31.523,1.699-11.126-14.966,3.836-14.603c14.962.364,48.541,29.575,58.212,29.939c9.672.363,75.72-50.773,75.72-50.773s-12.593,12.966-19.344,10.031c-6.75-2.934-9.979-7.254-9.979-7.254l31.235-54.428Z" fill="#fff"/><path d="M392.863,324.523l.777-1.355c0,0,12.687,7.229,25.825,15.675c6.569,4.226,13.251,8.778,18.547,12.866c2.363,1.794,4.615,3.728,6.745,5.793.817.805,1.579,1.664,2.282,2.571.587.738,1.06,1.56,1.404,2.439c1.626,4.848,2.439,9.933,2.407,15.047.044,4.837-.73,9.647-2.288,14.226-1.661,4.861-4.561,9.205-8.412,12.603-1.598,1.385-4.106,3.398-7.328,5.9-11.282,8.734-31.234,23.317-49.863,35.982-9.321,6.333-18.303,12.183-25.699,16.584-3.705,2.207-7.021,4.044-9.804,5.411-1.391.683-2.658,1.254-3.761,1.68-.971.393-1.979.689-3.009.884-2.736.431-5.503.641-8.274.627-6.643-.091-13.258-.904-19.725-2.426-6.725-1.535-13.322-3.585-19.733-6.132-7.076-2.821-13.244-4.107-18.071-4.1-2.268-.054-4.526.309-6.663,1.072-1.568.551-2.943,1.546-3.955,2.865-.75,1.061-1.415,2.181-1.987,3.348-.451.884-.89,1.781-1.367,2.646-.656,1.329-1.541,2.532-2.613,3.555-.579.515-1.243.925-1.962,1.21-.785.299-1.618.45-2.458.445-1.859-.082-3.68-.561-5.34-1.404-1.036-.451-1.91-1.205-2.507-2.163-.547-.937-.827-2.006-.809-3.091.032-1.293.302-2.568.796-3.762c1.084-2.543,2.603-4.877,4.488-6.897c3.542-3.877,7.779-7.054,12.493-9.367c5.394-2.72,11.341-4.159,17.381-4.207c1.402-.002,2.802.079,4.194.244l-.182,1.555-1.072,1.135.282-.301-.282.301.282-.301-.282.301c-1.414-1.217-2.969-2.259-4.632-3.104-3.734-1.969-7.889-3.006-12.11-3.022-1.698.003-3.392.169-5.059.496-2.496.462-4.928,1.22-7.246,2.257-2.764,1.254-4.488,2.664-6.343,3.887-.937.639-1.944,1.167-3.002,1.574-1.223.436-2.514.648-3.812.627-.666-.002-1.332-.048-1.993-.138-.616-.071-1.215-.245-1.774-.514-.8-.394-1.457-1.027-1.88-1.812-.404-.774-.606-1.636-.589-2.508.021-1.015.211-2.02.564-2.972.768-2.017,1.88-3.885,3.284-5.524c2.666-3.169,5.943-5.768,9.634-7.643c4.52-2.305,9.497-3.571,14.568-3.705.558,0,1.103,0,1.642,0c8.55,0,14.348,2.037,18.008,4.144c3.661,2.107,5.172,4.257,5.278,4.389l-2.507,1.818.627-.489-.627.496.627-.489-.627.495-.063-.075c-1.398-1.54-3.063-2.814-4.914-3.762-3.046-1.656-7.566-3.217-13.922-3.223-6.663,0-15.369,1.73-26.451,7.01l-.702.332-.684-.351c-.892-.457-1.618-1.183-2.074-2.075-.43-.875-.645-1.841-.627-2.816.076-1.947.666-3.84,1.711-5.486c2.095-3.312,4.968-6.063,8.368-8.013c4.608-2.708,9.733-4.417,15.044-5.015c1.947-.254,3.909-.384,5.873-.389c3.351-.043,6.685.474,9.866,1.53c3.104,1.013,5.882,2.835,8.048,5.279.897.997,1.614,2.143,2.119,3.386l-1.473.52-1.523.332.802-.175-.796.207v-.032l.803-.175-.797.207c-.183-.523-.455-1.011-.802-1.442-.884-1.173-2.683-2.891-6.412-4.352-3.73-1.461-9.402-2.639-17.871-2.639-1.742,0-3.61.052-5.604.156-1.554.082-2.983.126-4.306.126-1.984.015-3.967-.103-5.936-.351-1.114-.14-2.215-.373-3.291-.696-1.255-.339-2.414-.965-3.384-1.831-.414-.397-.748-.87-.984-1.392-.226-.509-.342-1.06-.339-1.618.018-.856.248-1.694.671-2.439.375-.683.836-1.315,1.372-1.88c1.075-1.118,2.289-2.094,3.611-2.903c2.317-1.436,4.806-2.572,7.409-3.38c2.727-.88,5.571-1.347,8.437-1.386h.526c2.36.133,4.686.628,6.895,1.468c4.313,1.517,9.152,4.056,14.173,7.009c7.522,4.389,15.426,9.794,22.208,14.064c3.391,2.131,6.506,3.993,9.114,5.31c1.127.582,2.289,1.095,3.479,1.536.761.297,1.561.483,2.375.552h.05c.252-.007.503-.043.746-.107.926-.24,1.828-.563,2.696-.965c2.709-1.261,5.344-2.676,7.891-4.239c5.46-3.26,12.161-7.718,19.125-12.539c10.449-7.267,21.499-15.405,29.936-21.725c4.219-3.135,7.779-5.869,10.293-7.781l2.921-2.238.771-.627.263-.207l2.075,2.326c-1.923,1.926-3.968,3.725-6.124,5.386-1.818,1.426-3.76,2.685-5.805,3.761-1.006.518-2.055.95-3.134,1.292-1.03.327-2.103.501-3.184.514-.973.011-1.937-.179-2.833-.558v0c-2.886-1.236-5.561-2.916-7.929-4.978-.981-.836-1.88-1.764-2.683-2.771l-.627-.828l32.519-56.679l1.354.771-.777,1.354l1.354.778-31.216,54.434-1.354-.777l1.254-.934-.664.495.626-.502-.664.496.627-.502.144.182c2.531,2.862,5.68,5.111,9.208,6.577v0c.506.21,1.05.313,1.598.301.775-.018,1.544-.147,2.282-.382c1.644-.546,3.212-1.3,4.663-2.245c2.27-1.425,4.421-3.031,6.432-4.803.84-.74,1.523-1.385,1.999-1.843.238-.226.42-.408.546-.533l.137-.138.038-.038l1.122,1.085.953,1.254c0,0-16.417,12.703-34.093,25.412-8.844,6.351-17.996,12.709-25.605,17.493-3.805,2.395-7.221,4.388-10.029,5.824-1.235.634-2.505,1.195-3.805,1.681-.517.192-1.044.353-1.58.482-.474.115-.96.176-1.448.182h-.169c-.839-.049-1.669-.203-2.47-.457-1.895-.622-3.729-1.417-5.478-2.377-3.548-1.881-7.716-4.476-12.192-7.361-6.713-4.32-14.109-9.248-20.923-13.097-3.092-1.791-6.298-3.378-9.596-4.753-2.928-1.172-5.529-1.881-7.522-1.881h-.451c-2.212.03-4.411.353-6.538.96-3.064.828-5.967,2.166-8.588,3.956-.939.648-1.783,1.424-2.507,2.307-.231.297-.425.621-.576.966-.093.197-.146.409-.157.627-.001.109.018.217.056.319.14.283.357.52.627.684c1.017.645,2.157,1.072,3.347,1.254c2.249.395,4.531.574,6.814.533c1.253,0,2.632-.038,4.137-.113c2.049-.113,3.967-.163,5.773-.163c5.005-.087,10.001.436,14.88,1.555c5.686,1.404,9.001,3.58,10.894,5.511c1.112,1.038,1.928,2.354,2.364,3.812l-2.997.853.903-.32-.903.332.903-.32-.903.333c-.194-.471-.44-.919-.733-1.336-1.229-1.77-2.868-3.218-4.776-4.219-2.564-1.405-6.269-2.552-11.615-2.552-1.832.007-3.662.128-5.479.364-7.584.953-13.244,3.705-16.968,6.802-1.634,1.32-3.033,2.908-4.137,4.696-.747,1.168-1.179,2.509-1.253,3.894-.016.479.078.955.276,1.392.159.311.414.564.727.721l-.715,1.386-.79-1.474c11.408-5.442,20.585-7.317,27.793-7.317c7.453,0,12.787,2.013,16.247,4.076c1.957,1.096,3.699,2.538,5.14,4.257l-1.253.94-1.254.878.771-.527-.765.54.771-.527-.764.539c-.057-.075-1.354-1.881-4.564-3.636-3.209-1.756-8.336-3.555-16.146-3.562-.508,0-1.022,0-1.549,0-3.583.096-7.122.811-10.461,2.113-4.152,1.592-7.879,4.125-10.888,7.399-1.127,1.217-2.08,2.585-2.833,4.063-.531.964-.839,2.035-.903,3.135-.005.254.029.508.1.752.061.249.204.471.408.627.301.211.654.337,1.022.364v0c.532.069,1.068.104,1.604.106c1.218.024,2.424-.245,3.517-.784.851-.442,1.668-.947,2.444-1.511c1.631-1.174,3.35-2.222,5.14-3.135c2.757-1.335,5.681-2.29,8.694-2.84c1.858-.372,3.747-.561,5.641-.564c4.783.023,9.488,1.211,13.709,3.461c1.862.955,3.599,2.136,5.171,3.517l3.46,3.254-4.713-.564c-1.269-.152-2.546-.228-3.824-.226-4.271.021-8.502.82-12.486,2.358-5.355,2.033-10.209,5.198-14.229,9.279-1.556,1.575-2.898,3.348-3.993,5.273-.775,1.277-1.231,2.723-1.329,4.213-.016.515.108,1.024.358,1.474.266.425.658.756,1.122.947c1.251.653,2.627,1.031,4.036,1.109.407.006.811-.055,1.198-.181.623-.229,1.174-.618,1.598-1.129.425-.497.803-1.032,1.128-1.599.558-.953,1.103-2.094,1.73-3.304.64-1.293,1.38-2.534,2.213-3.712c1.368-1.799,3.227-3.164,5.353-3.931c2.496-.891,5.135-1.316,7.785-1.254c5.372,0,11.872,1.392,19.225,4.32c6.259,2.488,12.701,4.49,19.268,5.988c6.249,1.459,12.638,2.235,19.055,2.313c2.593-.001,5.182-.21,7.741-.627.975-.197,1.927-.495,2.84-.89c3.058-1.317,6.033-2.82,8.907-4.502c6.268-3.549,14.191-8.558,22.672-14.201c12.718-8.464,26.721-18.358,38.486-26.96c5.886-4.295,11.208-8.277,15.533-11.587s7.66-5.963,9.515-7.574c3.448-3.042,6.041-6.933,7.522-11.286c1.452-4.236,2.171-8.688,2.125-13.166.036-4.758-.714-9.488-2.219-14.001-.24-.579-.561-1.122-.953-1.611-1.34-1.652-2.839-3.168-4.475-4.527-4.27-3.583-8.732-6.932-13.364-10.032-7.741-5.298-16.404-10.659-23.123-14.728-3.36-2.025-6.269-3.724-8.274-4.909l-2.376-1.379-.627-.358-.219-.125.771-1.361l1.354.778-1.354-.771Z" fill="#231f20"/><path d="M312.687,122.834h-27.342v27.349h27.342v-27.349Z" fill="#ef4546"/><path d="M192.521,103.853c4.284-18.1546-6.957-36.3457-25.107-40.6307-18.15-4.2849-36.337,6.9589-40.621,25.1139-4.283,18.1548,6.958,36.3458,25.108,40.6308s36.336-6.959,40.62-25.114Z" fill="#ef4546"/><path d="M434.734,114.978h-.94v68.711c.001,2.831-.556,5.633-1.638,8.248-1.083,2.615-2.67,4.991-4.67,6.992-2.001,2.001-4.376,3.588-6.99,4.671-2.615,1.083-5.416,1.64-8.246,1.639h-128.497c-5.71-.005-11.185-2.278-15.22-6.319s-6.301-9.519-6.299-15.231v-68.711c-.002-1.836.23-3.665.689-5.442v0c1.204-4.617,3.903-8.705,7.677-11.6241c3.773-2.919,8.407-4.5045,13.178-4.5082h128.497c4.767.0023,9.399,1.5841,13.172,4.4983c3.773,2.914,6.475,6.996,7.683,11.609v0c.459,1.777.691,3.606.689,5.442h1.88c0-1.995-.252-3.981-.752-5.912-1.313-5.02-4.253-9.4629-8.36-12.6328s-9.149-4.8881-14.337-4.8855h-128.497c-5.184.0107-10.219,1.7394-14.316,4.9157-4.098,3.1763-7.027,7.6216-8.331,12.6396v0c-.5,1.931-.752,3.918-.752,5.913v68.698c0,6.214,2.467,12.174,6.86,16.568s10.351,6.863,16.564,6.863h128.497c6.208-.007,12.16-2.478,16.547-6.872c4.388-4.393,6.852-10.349,6.852-16.559v-68.711h-.94Z" fill="#231f20"/><path d="M397.019,100.84c.001.935-.275,1.85-.794,2.628-.518.778-1.256,1.385-2.12,1.744-.863.359-1.814.453-2.731.271-.917-.181-1.76-.631-2.421-1.292-.662-.661-1.113-1.503-1.296-2.42-.182-.918-.089-1.8685.268-2.7327.358-.8642.964-1.6029,1.741-2.1226s1.691-.7972,2.626-.7972c1.253,0,2.454.4972,3.34,1.3825.886.8852,1.385,2.086,1.387,3.339v0Z" fill="#fff"/><path d="M411.072,100.84c.001.935-.275,1.85-.794,2.629-.519.778-1.257,1.385-2.121,1.743-.863.359-1.814.453-2.732.271-.917-.182-1.76-.633-2.421-1.294-.661-.662-1.112-1.505-1.294-2.422-.182-.918-.088-1.8689.271-2.733.358-.8641.965-1.6024,1.743-2.1213.778-.519,1.693-.7954,2.628-.7942c1.252,0,2.452.4975,3.338,1.3829.885.8853,1.382,2.0862,1.382,3.3386Z" fill="#fff"/><path d="M425.125,100.84c0,.933-.277,1.846-.795,2.623-.519.776-1.256,1.381-2.119,1.739-.862.357-1.811.45-2.727.268-.915-.182-1.756-.632-2.416-1.292s-1.11-1.501-1.292-2.417-.089-1.8653.269-2.728c.357-.8627.962-1.6,1.738-2.1188s1.689-.7957,2.622-.7957c1.252,0,2.453.4975,3.338,1.3828.885.8854,1.382,2.0863,1.382,3.3387Z" fill="#ef4546"/><path d="M306.757,146.315v-.941h-26.402v-25.468h25.462v26.409h.94v-.941.941h.94v-28.29h-29.222v29.23h29.222v-.94h-.94Z" fill="#231f20"/><path d="M301.761,181.902v-.94h-17.237v-16.302h16.297v17.242h.94v-.94.94h.94v-19.123h-20.058v20.064h20.058v-.941h-.94Z" fill="#231f20"/><path d="M334.537,123.775h80.158v-1.881h-80.158" fill="#231f20"/><path d="M334.537,144.729h80.158v-1.881h-80.158" fill="#231f20"/><path d="M334.537,165.676h80.158v-1.881h-80.158" fill="#231f20"/><path d="M382.677,183.15l1.454,38.071c.004.105.035.208.089.299.055.09.131.166.222.219.092.053.195.082.3.085.106.002.211-.022.304-.07l10.982-5.693l13.308,22.333c.082.14.216.242.373.286.156.043.324.024.467-.054l9.64-5.116c.076-.041.142-.096.196-.163.053-.068.092-.145.115-.228.022-.083.027-.169.015-.254-.013-.085-.043-.167-.088-.24l-13.702-22.22l9.684-5.906c.091-.056.166-.135.218-.228s.079-.198.079-.305-.027-.212-.079-.305-.127-.172-.218-.228L383.667,182.58c-.098-.071-.214-.112-.334-.118-.121-.006-.241.023-.345.083-.105.06-.19.149-.245.257-.055.107-.078.228-.066.348Z" fill="#ef4748"/><path d="M368.837,183.15l1.454,38.071c.004.105.035.208.089.299.054.09.131.166.222.219s.195.082.3.085c.106.003.21-.022.304-.07l10.982-5.693l13.307,22.333c.083.14.217.242.373.286.157.043.325.024.467-.054l9.641-5.116c.076-.041.142-.096.196-.163.053-.067.092-.145.115-.228.022-.083.027-.169.014-.254-.012-.085-.042-.167-.087-.239l-13.702-22.221l9.665-5.906c.091-.056.166-.135.218-.228s.079-.198.079-.305-.027-.212-.079-.305-.127-.172-.218-.228L369.808,182.58c-.097-.065-.212-.101-.329-.105-.117-.003-.233.027-.335.086-.101.06-.183.147-.238.251-.054.104-.078.221-.069.338v0Z" fill="#fff"/><path d="M368.837,183.15l-2.188.082l1.448,38.076c.03.748.355,1.454.903,1.963.521.485,1.206.754,1.918.752.436-.005.865-.11,1.254-.307v0l9.132-4.74l12.311,20.515c.254.429.617.781,1.053,1.022.421.231.893.352,1.373.351.456.003.906-.107,1.31-.32v0l9.64-5.116c.455-.242.834-.603,1.098-1.045s.403-.948.4-1.463c0-.525-.148-1.04-.426-1.486l-12.536-20.339l7.804-4.753c.415-.251.757-.605.995-1.028.237-.423.361-.901.359-1.386-.002-.472-.122-.937-.349-1.352-.226-.415-.552-.767-.949-1.024l-32.362-20.853c-.537-.349-1.176-.505-1.813-.445-.638.06-1.236.334-1.698.777-.27.256-.484.565-.626.909-.161.361-.244.752-.245,1.148v.112l2.188-.081l2.194-.088-1.517.057h1.517v-.026l-1.517.057l1.41.627c.087-.198.132-.411.132-.627h-1.542l1.41.627-1.41-.627.833,1.298c.257-.162.458-.399.577-.677l-1.41-.627.833,1.297-.833-1.291v1.536c.295,0,.584-.085.833-.245l-.833-1.291-.84,1.298c.251.161.542.247.84.25v-1.548l-.84,1.298L401.03,205.27l.846-1.323-1.385.728c.126.241.311.446.539.595l.846-1.323-1.385.728l1.379-.728h-1.573c-.001.254.061.504.182.728l1.379-.728-1.373-.74c-.122.228-.187.482-.188.74h1.561l-1.373-.74l1.379.747-.821-1.342c-.235.146-.427.352-.558.595l1.379.747-.821-1.342-11.565,7.053L404.34,233.76l1.335-.827h-1.567c.001.292.081.578.232.827l1.335-.827-1.348-.79c-.139.24-.213.512-.213.79h1.561l-1.348-.79l1.354.79-.739-1.38c-.261.134-.478.338-.627.59l1.354.79-.74-1.38-9.647,5.135.721,1.38v-1.561c-.252-.001-.499.061-.721.181l.721,1.38.759-1.367c-.232-.13-.493-.2-.759-.201v1.568l.759-1.367-.765,1.367l1.348-.803c-.142-.236-.343-.43-.583-.564l-.765,1.367l1.348-.803-14.329-24.107-12.806,6.646.708,1.392v-1.562c-.246.002-.488.06-.708.17l.708,1.392l1.066-1.142c-.291-.267-.671-.417-1.066-.42v1.562l1.066-1.142-1.066,1.148l1.567-.057c-.017-.415-.197-.807-.501-1.091l-1.066,1.148l1.567-.057-1.454-38.083-2.194.088Z" fill="#231f20"/><path d="M202.166,100.928h-.94c.005,7.597-2.625,14.961-7.44,20.836-4.815,5.876-11.519,9.899-18.967,11.385-7.449,1.486-15.182.342-21.882-3.237s-11.952-9.371-14.861-16.389-3.295-14.828-1.092-22.0988s6.859-13.5525,13.173-17.7746c6.315-4.222,13.898-6.123,21.457-5.3792c7.558.7439,14.626,4.0867,19.996,9.4587c3.05,3.044,5.469,6.66,7.119,10.6408s2.499,8.2482,2.497,12.5581h1.88c.006-6.8669-2.023-13.581-5.832-19.2936-3.809-5.7127-9.225-10.1672-15.565-12.8003s-13.318-3.3266-20.052-1.9926c-6.734,1.3339-12.921,4.6354-17.779,9.4867-4.858,4.8514-8.169,11.0348-9.513,17.7683-1.345,6.7335-.663,13.7145,1.959,20.0605s7.067,11.771,12.772,15.59s12.414,5.86,19.278,5.865c9.204.005,18.032-3.646,24.545-10.15s10.177-15.329,10.187-24.534h-.94Z" fill="#231f20"/><path d="M168.732,129.725h-2.639c-5.276,0-9.553,4.278-9.553,9.555v4.947c0,5.277,4.277,9.555,9.553,9.555h2.639c5.276,0,9.552-4.278,9.552-9.555v-4.947c0-5.277-4.276-9.555-9.552-9.555Z" fill="#231f20"/><path d="M146.398,116.094c.937.364,1.934.549,2.94.546.888.009,1.769-.155,2.595-.483c1.645-.686,2.983-1.951,3.761-3.555c1.003-1.881,1.673-4.564,1.818-8.32c0-.37,0-.727,0-1.066c0-2.683-.395-4.5958-1.11-5.9375-.314-.6251-.777-1.1633-1.348-1.5675-.517-.3532-1.128-.5432-1.755-.5455-.71.0165-1.401.2339-1.993.627-.954.6221-1.724,1.4879-2.231,2.5079-.623,1.2009-.933,2.5396-.901,3.8916.032,1.353.404,2.675,1.082,3.845.871,1.585,1.886,3.086,3.034,4.483c1.435,1.76,3.336,3.081,5.485,3.812c2.169.734,4.72.985,7.992.985h1.673c5.015-.113,8.87-1.593,11.484-3.938c1.251-1.116,2.251-2.486,2.93-4.019.68-1.533,1.025-3.194,1.012-4.871c0-.151,0-.301,0-.445.03-1.151-.292-2.2842-.921-3.2482-.263-.365-.61-.6611-1.011-.863-.402-.202-.846-.3038-1.296-.297-.61.0095-1.21.1574-1.755.4327-.819.4113-1.535,1.003-2.093,1.7304-.58.7111-.915,1.5911-.953,2.5081-.005.348-.03.695-.075,1.041-.064.445-.103.892-.12,1.341-.016.729.121,1.453.402,2.126.257.588.642,1.111,1.128,1.53.977.797,2.135,1.342,3.372,1.586c1.946.418,3.934.607,5.924.564c1.585,0,3.416-.081,5.516-.257l-.163-1.881c-2.056.176-3.83.251-5.353.251-1.681.033-3.361-.104-5.015-.407-.755-.14-1.488-.378-2.181-.709-.6-.265-1.099-.715-1.423-1.285-.23-.472-.342-.993-.326-1.518c0-.382.038-.783.075-1.191.053-.416.082-.835.088-1.254.016-.304.102-.6.251-.865.3-.54.718-1.005,1.222-1.361.417-.323.921-.515,1.448-.5514.15-.0042.298.0281.432.0941.255.1362.453.3584.558.6273.245.596.367,1.236.358,1.881c0,.125,0,.257,0,.382.014,1.412-.275,2.812-.847,4.103s-1.414,2.445-2.469,3.383c-2.219,1.994-5.604,3.355-10.268,3.461h-1.636c-1.791.03-3.582-.096-5.353-.376-1.942-.271-3.769-1.079-5.277-2.332-1.448-1.254-2.771-3.035-4.25-5.643-.546-.941-.834-2.01-.834-3.097-.005-1.288.399-2.5438,1.153-3.5868.297-.4095.667-.7603,1.091-1.0346.297-.2019.644-.3169,1.003-.3323.251.0013.495.0777.702.2195.54.442.923,1.0468,1.091,1.7242.398,1.372.58,2.798.539,4.226c0,.322,0,.654,0,.997-.036,1.91-.32,3.807-.846,5.643-.671,2.156-1.611,3.335-2.558,4.012-.838.584-1.837.891-2.858.878-.542-.002-1.081-.074-1.605-.213-.2-.05-.357-.1-.464-.138l-.112-.038v.044-.044.044-.044l-.74,1.731-.019.056Z" fill="#231f20"/><path d="M150.974,62.9448l-15.483-34.597-1.717.7712l15.482,34.5969" fill="#231f20"/><path d="M117.502,108.357h-17.7892v1.881h17.7892" fill="#231f20"/><path d="M204.943,88.3628l26.188-15.3235-.946-1.6239-26.189,15.3235" fill="#231f20"/><path d="M193.434,137.186l20.754,20.233l1.317-1.348-20.754-20.233" fill="#231f20"/><path d="M139.083,133.995L97.5754,174.404l1.31,1.348l41.5076-40.409" fill="#231f20"/><path d="M357.592,79.7418c0,0-.226-1.4045-.834-3.7619l-1.818.4702c.289,1.1411.489,2.044.627,2.6584.063.3093.107.5413.132.696c0,.0752,0,.1379,0,.1755v.0502l1.88-.2947.013.0063Z" fill="#231f20"/><path d="M311.878,20.5733c-2.382-1.1495-4.889-2.2112-7.522-3.1851l-.627,1.7681c2.577.9467,5.015,1.9938,7.366,3.1349l.808-1.6929-.025-.025Zm13.947,8.4831c-2.173-1.6438-4.428-3.1756-6.757-4.5896l-.978,1.6051c2.276,1.382,4.479,2.8804,6.6,4.4892l1.135-1.5047Zm11.959,11.1227c-1.798-2.0495-3.7-4.0062-5.697-5.8623l-1.254,1.3793c1.952,1.8119,3.81,3.7225,5.566,5.7244l1.385-1.2414Zm9.559,13.2419c-1.322-2.2446-2.801-4.5457-4.462-6.8467l-1.505,1.0972c1.624,2.2572,3.078,4.5018,4.388,6.7025l1.623-.953h-.044Zm6.971,14.7654c-.84-2.2947-1.881-4.8403-3.134-7.5238l-1.724.765c1.253,2.6458,2.269,5.1412,3.09,7.3858l1.768-.627v0Z" fill="#231f20"/><path d="M296.565,14.9052c-1.204-.3344-2.43-.6437-3.68-.9279l-.426,1.8308c1.254.2821,2.432.5894,3.617.9091l.489-1.812Z" fill="#231f20"/><path d="M270.201,10.9866h-.126c-.382,0-1.679,0-3.698.1254l.107,1.8809c1.981-.1128,3.234-.1191,3.591-.1191h.101v-1.881l.025-.0062Z" fill="#231f20"/><path d="M188.433,46.4865c-1.701,1.9938-3.335,4.1005-4.902,6.32l1.542,1.0847c1.529-2.1778,3.128-4.2405,4.795-6.1884l-1.435-1.2163Zm11.445-11.1603c-2.035,1.6719-4.028,3.4442-5.98,5.3168l1.317,1.348c1.897-1.8475,3.846-3.5822,5.848-5.204l-1.185-1.4608v0Zm13.232-9.0098c-2.281,1.2979-4.55,2.696-6.788,4.2196l1.053,1.5549c2.194-1.4922,4.388-2.8653,6.663-4.1381l-.928-1.6364Zm14.417-6.8153c-2.423.9405-4.87,1.9854-7.34,3.1349l.84,1.7367c2.42-1.1348,4.833-2.163,7.221-3.091l-.683-1.7555-.038-.0251Zm15.213-4.7902c-2.47.627-5.014,1.3292-7.678,2.1568l.564,1.7932c2.595-.8151,5.127-1.5173,7.565-2.1192l-.451-1.8308v0Zm15.671-2.9029c-2.364.2947-5.015.6897-7.886,1.2226l.345,1.881c2.827-.5267,5.441-.9154,7.772-1.2039l-.231-1.8809v-.0188Z" fill="#231f20"/><path d="M179.262,59.5465c-.627,1.091-1.254,2.2007-1.818,3.3418l1.674.8653c.577-1.1161,1.166-2.207,1.78-3.2729l-1.636-.9342Z" fill="#231f20"/><path d="M126.008,78.9831c0,0-1.385-.1567-3.811-.2696l-.088,1.881c1.185.0564,2.112.1191,2.739.1692l.715.069h.175.057l.213-1.8809v.0313Z" fill="#231f20"/><path d="M25.7357,131.499c-1.0154,2.328-1.9578,4.755-2.8269,7.28l1.7801.627c.8358-2.479,1.7593-4.858,2.7706-7.136l-1.7238-.771Zm7.4654-13.706c-1.3999,2.132-2.7476,4.362-4.043,6.69l1.6548.897c1.2537-2.295,2.5721-4.475,3.9552-6.54l-1.567-1.047Zm9.9163-12.082c-1.8095,1.81-3.5604,3.743-5.2528,5.8l1.4542,1.191c1.6465-2.006,3.3556-3.887,5.1274-5.643l-1.3288-1.329v-.019Zm12.0599-9.9373c-2.1249,1.4358-4.2247,2.997-6.2681,4.6773l1.1972,1.455c1.9933-1.643,4.0429-3.1667,6.124-4.5711l-1.0531-1.5612Zm13.6772-7.5614c-2.3443,1.0449-4.6782,2.2049-7.0016,3.4797l.9089,1.649c2.2691-1.254,4.5633-2.3825,6.8574-3.4108l-.7647-1.7179Zm14.7051-5.2416c-2.4571.6771-4.9456,1.4546-7.4466,2.3449l.6268,1.7681c2.4572-.8715,4.908-1.6364,7.3213-2.301l-.5015-1.812Zm15.2818-3.1349c-2.4696.3448-5.0459.7837-7.691,1.3229l.3761,1.8433c2.6075-.5329,5.1399-.9593,7.5782-1.3041l-.2633-1.8621Zm15.5576-1.254c-2.338.0501-4.958.163-7.798.3887l.151,1.881c2.802-.2195,5.384-.3323,7.685-.3825l-.038-1.8809v-.0063Z" fill="#231f20"/><path d="M20.6397,146.29c-.3176,1.208-.6185,2.437-.9026,3.686l1.8303.421c.2841-1.229.5808-2.437.8901-3.624l-1.8178-.483v0Z" fill="#231f20"/><path d="M19.712,182.504c0,0,.0502,1.417.3511,3.825l1.8804-.232c-.1442-1.172-.2257-2.094-.2758-2.715c0-.313-.0376-.552-.0439-.708-.0062-.157,0-.138,0-.182v-.057l-1.8804.063-.0314.006Z" fill="#231f20"/><path d="M65.5324,253.912c2.1897,1.199,4.488,2.338,6.895,3.417l.771-1.712c-2.3485-1.062-4.5946-2.18-6.7383-3.354l-.9277,1.649Zm-12.7808-8.49c1.9515,1.555,4.0221,3.062,6.2117,4.521l1.0343-1.568c-2.1437-1.421-4.1683-2.896-6.0739-4.426l-1.1721,1.473v0ZM41.6444,234.814c1.6485,1.881,3.4161,3.762,5.3154,5.555l1.2975-1.361c-1.8805-1.774-3.5854-3.592-5.1963-5.429l-1.4166,1.254v-.019Zm-9.0325-12.415c1.2537,2.132,2.6891,4.276,4.2436,6.408l1.5169-1.11c-1.5169-2.081-2.8959-4.182-4.1496-6.269l-1.6109.971Zm-6.7821-13.793c.8963,2.282,1.9243,4.633,3.1027,7.028l1.6924-.827c-1.1596-2.352-2.1625-4.653-3.0401-6.897l-1.755.69v.006Zm-4.463-14.69c.4889,2.244,1.122,4.746,1.9369,7.436l1.8052-.546c-.8023-2.64-1.4229-5.091-1.8804-7.292l-1.8366.402h-.0251Z" fill="#231f20"/><path d="M79.5292,260.181c1.1743.418,2.3694.836,3.5854,1.254l.583-1.786c-1.1993-.389-2.3757-.795-3.529-1.217l-.6268,1.768-.0126-.019Z" fill="#231f20"/><path d="M290.942,11.9271h-2.219c-.001,1.6636-.579,3.2752-1.635,4.5604s-2.524,2.1645-4.156,2.4881c-1.631.3236-3.324.0715-4.79-.7133-1.467-.7849-2.616-2.054-3.252-3.5911s-.719-3.2472-.236-4.83901s1.503-2.96678,2.886-3.89078s3.044-1.33987,4.699-1.17675s3.202.89514,4.378,2.07136c.669.66785,1.2,1.46148,1.561,2.33521.362.87377.547,1.81037.545,2.75587h4.388c-.001-2.67889-.931-5.27447-2.631-7.34455s-4.065-3.48658-6.692-4.008213-5.353-.116125-7.715,1.147453-4.212,3.30704-5.237,5.78229c-1.024,2.47525-1.158,5.22912-.381,7.79262.778,2.5634,2.421,4.7778,4.648,6.2658s4.901,2.1579,7.566,1.8951c2.665-.2627,5.157-1.4415,7.051-3.3358c1.076-1.0758,1.929-2.3534,2.511-3.7595.582-1.4062.881-2.9133.88-4.4352h-2.169Z" fill="#231f20"/><path d="M29.0954,163.174h-.9402c.0083,1.957-.6617,3.856-1.8959,5.374-1.2342,1.517-2.9563,2.56-4.873,2.951-1.9167.39-3.9093.103-5.6386-.811s-3.088-2.4-3.845-4.204-.8654-3.815-.3066-5.69s1.7502-3.498,3.3712-4.593s3.5713-1.594,5.5188-1.412s3.7717,1.034,5.1618,2.41c.7898.783,1.4177,1.713,1.8479,2.738.4302,1.026.6543,2.126.6594,3.237h1.8804c0-2.043-.6058-4.041-1.7409-5.74-1.135-1.699-2.7484-3.024-4.6359-3.806s-3.9646-.986-5.9684-.588c-2.0038.399-3.8444,1.383-5.2891,2.828s-2.42849,3.286-2.82708,5.291c-.39858,2.004-.19401,4.082.58788,5.97s2.1058,3.501,3.8046,4.637c1.6987,1.135,3.6959,1.741,5.739,1.741c2.7392-.001,5.3657-1.091,7.3025-3.028c1.9369-1.937,3.0258-4.565,3.0274-7.305h-.9402Z" fill="#231f20"/><path d="M183.963,218.036h-101.7572c-9.5512,0-17.2939,7.744-17.2939,17.298v63.802c0,9.554,7.7427,17.298,17.2939,17.298h101.7572c9.551,0,17.294-7.744,17.294-17.298v-63.802c0-9.554-7.743-17.298-17.294-17.298Z" fill="#fff"/><path d="M183.963,316.434v-.94h-101.7573c-2.1478.001-4.2748-.422-6.2593-1.244-1.9845-.821-3.7876-2.026-5.3064-3.545-1.5187-1.519-2.7233-3.323-3.5448-5.308-.8216-1.985-1.244-4.113-1.2432-6.261v-63.802c-.0008-2.148.4216-4.276,1.2432-6.261.8215-1.985,2.0261-3.789,3.5448-5.308c1.5188-1.519,3.3219-2.724,5.3064-3.545c1.9845-.822,4.1115-1.245,6.2593-1.244h101.7573c2.15-.004,4.28.416,6.267,1.236c1.988.821,3.794,2.025,5.315,3.544c1.521,1.52,2.728,3.325,3.551,5.311.824,1.987,1.247,4.117,1.246,6.267v63.802c.001,2.148-.422,4.276-1.243,6.261-.822,1.985-2.026,3.789-3.545,5.308s-3.322,2.724-5.306,3.545c-1.985.822-4.112,1.245-6.26,1.244v1.881c4.836-.002,9.473-1.924,12.892-5.344s5.341-8.058,5.342-12.895v-63.802c-.001-4.837-1.923-9.475-5.342-12.895s-8.056-5.342-12.892-5.344h-101.7823c-4.836,0-9.4739,1.922-12.8935,5.342-3.4196,3.421-5.3406,8.06-5.3406,12.897v63.802c0,2.395.4716,4.767,1.388,6.98.9163,2.213,2.2594,4.223,3.9526,5.917c1.6932,1.693,3.7033,3.037,5.9156,3.954c2.2122.916,4.5833,1.388,6.9779,1.388h101.7573v-.941Z" fill="#231f20"/><path d="M89.5959,242.262c0,.785-.2329,1.553-.6691,2.206-.4363.653-1.0563,1.161-1.7817,1.462-.7254.3-1.5235.378-2.2933.224-.7699-.153-1.4768-.532-2.0315-1.088-.5546-.555-.932-1.263-1.0844-2.033-.1524-.771-.0729-1.569.2283-2.294s.8108-1.344,1.4642-1.78c.6533-.435,1.421-.667,2.206-.666.5208,0,1.0364.103,1.5175.303.481.199.918.492,1.2859.86.368.369.6596.806.8584,1.288.1987.481.3005.997.2997,1.518Z" fill="#231f20"/><path d="M84.6942,248.306c0,0-.0627,1.217-.0627,3.185v.627h1.8805v-.627c0-.965,0-1.743.0313-2.269c0-.27,0-.47,0-.627s0-.207,0-.207l-1.8804-.1.0313.018Z" fill="#231f20"/><path d="M109.685,284.521c1.935-1.499,3.627-3.288,5.015-5.304l-1.536-1.091c-1.265,1.855-2.811,3.503-4.582,4.884l1.103,1.511Zm-14.2096.627c1.933,1.21,4.1633,1.861,6.4436,1.881v-.934l-.069.934c.263,0,.52.031.784.031v-1.881c-.213,0-.427,0-.627,0h-.075c-1.9396-.014-3.8374-.563-5.4851-1.586l-.9715,1.555Zm-7.9606-11.95c.7065,2.311,1.6872,4.53,2.921,6.608l1.6046-.984c-1.1579-1.949-2.0755-4.031-2.7329-6.201l-1.7927.577v0Zm-2.5449-14.001c.1818,2.22.4576,4.621.8776,7.054l1.8804-.326c-.4137-2.364-.6832-4.709-.8587-6.897l-1.8805.15-.0188.019Z" fill="#231f20"/><path d="M118.285,272.978c.985-2.069,1.499-3.53,1.505-3.549l-1.774-.627v.057c-.1.282-.583,1.574-1.41,3.31l1.698.809h-.019Z" fill="#231f20"/><path d="M142.048,269.179c0,0,.351,1.417,1.047,3.661l1.799-.552c-.345-1.103-.627-2-.771-2.614-.088-.314-.151-.552-.188-.709-.038-.156-.038-.144-.05-.188v-.056l-1.824.458h-.013Z" fill="#231f20"/><path d="M184.107,292.553c.726-2.302,1.314-4.645,1.762-7.016l-1.881-.358c-.426,2.297-.995,4.565-1.705,6.791l1.793.583h.031Zm-8.292,12.013c2.246-1.232,4.098-3.076,5.34-5.317l-1.605-.978c-1.061,1.936-2.647,3.533-4.575,4.608l.84,1.687Zm-14.499-1.123c2.114,1.412,4.555,2.256,7.09,2.452l.119-1.881c-2.215-.172-4.348-.913-6.193-2.151l-1.016,1.58Zm-9.69-10.834c1.244,2.084,2.654,4.063,4.218,5.919l1.429-1.223c-1.493-1.77-2.843-3.657-4.036-5.643l-1.611.947Zm-6.193-12.991c.796,2.088,1.73,4.339,2.808,6.621l1.699-.803c-1.053-2.232-1.969-4.439-2.752-6.489l-1.755.671Z" fill="#231f20"/><path d="M186.909,278.395c.238-2.307.301-3.762.301-3.805l-1.88-.076v.063c0,.295-.088,1.649-.289,3.63l1.881.188h-.013Z" fill="#231f20"/><path d="M189.956,267.172c0,.73-.216,1.442-.621,2.049-.405.606-.981,1.078-1.654,1.357-.674.279-1.415.352-2.13.21s-1.372-.493-1.887-1.009c-.516-.515-.867-1.172-1.009-1.887-.142-.716-.069-1.457.21-2.13.279-.674.751-1.25,1.357-1.655.607-.405,1.319-.621,2.048-.621.977.001,1.914.39,2.604,1.081.691.691,1.08,1.628,1.082,2.605v0Z" fill="#231f20"/><path d="M129.443,268.953c6.913,0,12.517-5.606,12.517-12.521s-5.604-12.521-12.517-12.521-12.518,5.606-12.518,12.521s5.605,12.521,12.518,12.521Z" fill="#ef4748"/><path d="M141.96,256.42h-.94c.002,2.681-.927,5.28-2.628,7.352-1.7,2.073-4.067,3.491-6.697,4.013-2.629.522-5.358.115-7.721-1.152-2.363-1.266-4.213-3.314-5.235-5.793-1.021-2.479-1.151-5.235-.368-7.8.784-2.564,2.433-4.777,4.666-6.26c2.233-1.484,4.911-2.146,7.578-1.875c2.667.272,5.157,1.461,7.045,3.364c2.155,2.164,3.364,5.096,3.36,8.151h1.88c0-2.663-.789-5.265-2.268-7.479-1.478-2.214-3.58-3.939-6.039-4.958s-5.165-1.285-7.776-.766c-2.61.519-5.008,1.801-6.89,3.684s-3.164,4.281-3.683,6.892c-.52,2.612-.253,5.318.765,7.778c1.019,2.46,2.744,4.562,4.957,6.041s4.815,2.269,7.477,2.269c3.569,0,6.992-1.418,9.516-3.943c2.524-2.524,3.941-5.948,3.941-9.518h-.94Z" fill="#231f20"/><path d="M152.472,228.864h37.835v-1.881h-37.835" fill="#231f20"/><path d="M171.389,236.789h18.454v-1.881h-18.454" fill="#231f20"/><path d="M255.42,253.843c.004.86-.248,1.702-.724,2.418-.475.717-1.153,1.276-1.947,1.606-.795.331-1.669.418-2.512.25-.844-.168-1.618-.583-2.226-1.192-.607-.609-1.019-1.385-1.185-2.23-.165-.844-.076-1.718.257-2.511.332-.794.893-1.47,1.611-1.944s1.56-.724,2.42-.717c1.142.008,2.234.466,3.041,1.275.806.809,1.261,1.903,1.265,3.045v0Z" fill="#231f20"/><path d="M294.007,262.52c2.396,0,4.338-1.942,4.338-4.339c0-2.396-1.942-4.338-4.338-4.338-2.395,0-4.337,1.942-4.337,4.338c0,2.397,1.942,4.339,4.337,4.339Z" fill="#231f20"/></g><clipPath id="eFTtHwQ9CZ781"><rect width="494" height="474" rx="0" ry="0" transform="translate(-5 0)" fill="#fff"/></clipPath></g><script><![CDATA[!function(t,n){"object"==typeof exports&&"undefined"!=typeof module?module.exports=n():"function"==typeof define&&define.amd?define(n):((t="undefined"!=typeof globalThis?globalThis:t||self).__SVGATOR_PLAYER__=t.__SVGATOR_PLAYER__||{},t.__SVGATOR_PLAYER__["5c7f360c"]=n())}(this,(function(){"use strict";function t(t,n){var e=Object.keys(t);if(Object.getOwnPropertySymbols){var r=Object.getOwnPropertySymbols(t);n&&(r=r.filter((function(n){return Object.getOwnPropertyDescriptor(t,n).enumerable}))),e.push.apply(e,r)}return e}function n(n){for(var e=1;e<arguments.length;e++){var r=null!=arguments[e]?arguments[e]:{};e%2?t(Object(r),!0).forEach((function(t){o(n,t,r[t])})):Object.getOwnPropertyDescriptors?Object.defineProperties(n,Object.getOwnPropertyDescriptors(r)):t(Object(r)).forEach((function(t){Object.defineProperty(n,t,Object.getOwnPropertyDescriptor(r,t))}))}return n}function e(t){return(e="function"==typeof Symbol&&"symbol"==typeof Symbol.iterator?function(t){return typeof t}:function(t){return t&&"function"==typeof Symbol&&t.constructor===Symbol&&t!==Symbol.prototype?"symbol":typeof t})(t)}function r(t,n){if(!(t instanceof n))throw new TypeError("Cannot call a class as a function")}function i(t,n){for(var e=0;e<n.length;e++){var r=n[e];r.enumerable=r.enumerable||!1,r.configurable=!0,"value"in r&&(r.writable=!0),Object.defineProperty(t,r.key,r)}}function u(t,n,e){return n&&i(t.prototype,n),e&&i(t,e),t}function o(t,n,e){return n in t?Object.defineProperty(t,n,{value:e,enumerable:!0,configurable:!0,writable:!0}):t[n]=e,t}function a(t){return(a=Object.setPrototypeOf?Object.getPrototypeOf:function(t){return t.__proto__||Object.getPrototypeOf(t)})(t)}function l(t,n){return(l=Object.setPrototypeOf||function(t,n){return t.__proto__=n,t})(t,n)}function s(){if("undefined"==typeof Reflect||!Reflect.construct)return!1;if(Reflect.construct.sham)return!1;if("function"==typeof Proxy)return!0;try{return Boolean.prototype.valueOf.call(Reflect.construct(Boolean,[],(function(){}))),!0}catch(t){return!1}}function f(t,n,e){return(f=s()?Reflect.construct:function(t,n,e){var r=[null];r.push.apply(r,n);var i=new(Function.bind.apply(t,r));return e&&l(i,e.prototype),i}).apply(null,arguments)}function c(t,n){if(n&&("object"==typeof n||"function"==typeof n))return n;if(void 0!==n)throw new TypeError("Derived constructors may only return object or undefined");return function(t){if(void 0===t)throw new ReferenceError("this hasn't been initialised - super() hasn't been called");return t}(t)}function h(t,n,e){return(h="undefined"!=typeof Reflect&&Reflect.get?Reflect.get:function(t,n,e){var r=function(t,n){for(;!Object.prototype.hasOwnProperty.call(t,n)&&null!==(t=a(t)););return t}(t,n);if(r){var i=Object.getOwnPropertyDescriptor(r,n);return i.get?i.get.call(e):i.value}})(t,n,e||t)}function v(t){return function(t){if(Array.isArray(t))return y(t)}(t)||function(t){if("undefined"!=typeof Symbol&&null!=t[Symbol.iterator]||null!=t["@@iterator"])return Array.from(t)}(t)||function(t,n){if(!t)return;if("string"==typeof t)return y(t,n);var e=Object.prototype.toString.call(t).slice(8,-1);"Object"===e&&t.constructor&&(e=t.constructor.name);if("Map"===e||"Set"===e)return Array.from(t);if("Arguments"===e||/^(?:Ui|I)nt(?:8|16|32)(?:Clamped)?Array$/.test(e))return y(t,n)}(t)||function(){throw new TypeError("Invalid attempt to spread non-iterable instance.\nIn order to be iterable, non-array objects must have a [Symbol.iterator]() method.")}()}function y(t,n){(null==n||n>t.length)&&(n=t.length);for(var e=0,r=new Array(n);e<n;e++)r[e]=t[e];return r}Number.isInteger||(Number.isInteger=function(t){return"number"==typeof t&&isFinite(t)&&Math.floor(t)===t}),Number.EPSILON||(Number.EPSILON=2220446049250313e-31);var g=d(Math.pow(10,-6));function d(t){var n=arguments.length>1&&void 0!==arguments[1]?arguments[1]:6;if(Number.isInteger(t))return t;var e=Math.pow(10,n);return Math.round((+t+Number.EPSILON)*e)/e}function p(t,n){var e=arguments.length>2&&void 0!==arguments[2]?arguments[2]:g;return Math.abs(t-n)<e}var m=Math.PI/180;function b(t){return t}function w(t,n,e){var r=1-e;return 3*e*r*(t*r+n*e)+e*e*e}function x(){var t=arguments.length>0&&void 0!==arguments[0]?arguments[0]:0,n=arguments.length>1&&void 0!==arguments[1]?arguments[1]:0,e=arguments.length>2&&void 0!==arguments[2]?arguments[2]:1,r=arguments.length>3&&void 0!==arguments[3]?arguments[3]:1;return t<0||t>1||e<0||e>1?null:p(t,n)&&p(e,r)?b:function(i){if(i<=0)return t>0?i*n/t:0===n&&e>0?i*r/e:0;if(i>=1)return e<1?1+(i-1)*(r-1)/(e-1):1===e&&t<1?1+(i-1)*(n-1)/(t-1):1;for(var u,o=0,a=1;o<a;){var l=w(t,e,u=(o+a)/2);if(p(i,l))break;l<i?o=u:a=u}return w(n,r,u)}}function A(){return 1}function k(t){return 1===t?1:0}function _(){var t=arguments.length>0&&void 0!==arguments[0]?arguments[0]:1,n=arguments.length>1&&void 0!==arguments[1]?arguments[1]:0;if(1===t){if(0===n)return k;if(1===n)return A}var e=1/t;return function(t){return t>=1?1:(t+=n*e)-t%e}}var S=Math.sin,O=Math.cos,j=Math.acos,M=Math.asin,P=Math.tan,E=Math.atan2,I=Math.PI/180,R=180/Math.PI,F=Math.sqrt,N=function(){function t(){var n=arguments.length>0&&void 0!==arguments[0]?arguments[0]:1,e=arguments.length>1&&void 0!==arguments[1]?arguments[1]:0,i=arguments.length>2&&void 0!==arguments[2]?arguments[2]:0,u=arguments.length>3&&void 0!==arguments[3]?arguments[3]:1,o=arguments.length>4&&void 0!==arguments[4]?arguments[4]:0,a=arguments.length>5&&void 0!==arguments[5]?arguments[5]:0;r(this,t),this.m=[n,e,i,u,o,a],this.i=null,this.w=null,this.s=null}return u(t,[{key:"determinant",get:function(){var t=this.m;return t[0]*t[3]-t[1]*t[2]}},{key:"isIdentity",get:function(){if(null===this.i){var t=this.m;this.i=1===t[0]&&0===t[1]&&0===t[2]&&1===t[3]&&0===t[4]&&0===t[5]}return this.i}},{key:"point",value:function(t,n){var e=this.m;return{x:e[0]*t+e[2]*n+e[4],y:e[1]*t+e[3]*n+e[5]}}},{key:"translateSelf",value:function(){var t=arguments.length>0&&void 0!==arguments[0]?arguments[0]:0,n=arguments.length>1&&void 0!==arguments[1]?arguments[1]:0;if(!t&&!n)return this;var e=this.m;return e[4]+=e[0]*t+e[2]*n,e[5]+=e[1]*t+e[3]*n,this.w=this.s=this.i=null,this}},{key:"rotateSelf",value:function(){var t=arguments.length>0&&void 0!==arguments[0]?arguments[0]:0;if(t%=360){var n=S(t*=I),e=O(t),r=this.m,i=r[0],u=r[1];r[0]=i*e+r[2]*n,r[1]=u*e+r[3]*n,r[2]=r[2]*e-i*n,r[3]=r[3]*e-u*n,this.w=this.s=this.i=null}return this}},{key:"scaleSelf",value:function(){var t=arguments.length>0&&void 0!==arguments[0]?arguments[0]:1,n=arguments.length>1&&void 0!==arguments[1]?arguments[1]:1;if(1!==t||1!==n){var e=this.m;e[0]*=t,e[1]*=t,e[2]*=n,e[3]*=n,this.w=this.s=this.i=null}return this}},{key:"skewSelf",value:function(t,n){if(n%=360,(t%=360)||n){var e=this.m,r=e[0],i=e[1],u=e[2],o=e[3];t&&(t=P(t*I),e[2]+=r*t,e[3]+=i*t),n&&(n=P(n*I),e[0]+=u*n,e[1]+=o*n),this.w=this.s=this.i=null}return this}},{key:"resetSelf",value:function(){var t=arguments.length>0&&void 0!==arguments[0]?arguments[0]:1,n=arguments.length>1&&void 0!==arguments[1]?arguments[1]:0,e=arguments.length>2&&void 0!==arguments[2]?arguments[2]:0,r=arguments.length>3&&void 0!==arguments[3]?arguments[3]:1,i=arguments.length>4&&void 0!==arguments[4]?arguments[4]:0,u=arguments.length>5&&void 0!==arguments[5]?arguments[5]:0,o=this.m;return o[0]=t,o[1]=n,o[2]=e,o[3]=r,o[4]=i,o[5]=u,this.w=this.s=this.i=null,this}},{key:"recomposeSelf",value:function(){var t=arguments.length>0&&void 0!==arguments[0]?arguments[0]:null,n=arguments.length>1&&void 0!==arguments[1]?arguments[1]:null,e=arguments.length>2&&void 0!==arguments[2]?arguments[2]:null,r=arguments.length>3&&void 0!==arguments[3]?arguments[3]:null,i=arguments.length>4&&void 0!==arguments[4]?arguments[4]:null;return this.isIdentity||this.resetSelf(),t&&(t.x||t.y)&&this.translateSelf(t.x,t.y),n&&this.rotateSelf(n),e&&(e.x&&this.skewSelf(e.x,0),e.y&&this.skewSelf(0,e.y)),!r||1===r.x&&1===r.y||this.scaleSelf(r.x,r.y),i&&(i.x||i.y)&&this.translateSelf(i.x,i.y),this}},{key:"decompose",value:function(){var t=arguments.length>0&&void 0!==arguments[0]?arguments[0]:0,n=arguments.length>1&&void 0!==arguments[1]?arguments[1]:0,e=this.m,r=e[0]*e[0]+e[1]*e[1],i=[[e[0],e[1]],[e[2],e[3]]],u=F(r);if(0===u)return{origin:{x:d(e[4]),y:d(e[5])},translate:{x:d(t),y:d(n)},scale:{x:0,y:0},skew:{x:0,y:0},rotate:0};i[0][0]/=u,i[0][1]/=u;var o=e[0]*e[3]-e[1]*e[2]<0;o&&(u=-u);var a=i[0][0]*i[1][0]+i[0][1]*i[1][1];i[1][0]-=i[0][0]*a,i[1][1]-=i[0][1]*a;var l=F(i[1][0]*i[1][0]+i[1][1]*i[1][1]);if(0===l)return{origin:{x:d(e[4]),y:d(e[5])},translate:{x:d(t),y:d(n)},scale:{x:d(u),y:0},skew:{x:0,y:0},rotate:0};i[1][0]/=l,i[1][1]/=l,a/=l;var s=0;return i[1][1]<0?(s=j(i[1][1])*R,i[0][1]<0&&(s=360-s)):s=M(i[0][1])*R,o&&(s=-s),a=E(a,F(i[0][0]*i[0][0]+i[0][1]*i[0][1]))*R,o&&(a=-a),{origin:{x:d(e[4]),y:d(e[5])},translate:{x:d(t),y:d(n)},scale:{x:d(u),y:d(l)},skew:{x:d(a),y:0},rotate:d(s)}}},{key:"clone",value:function(){var t=this.m;return new this.constructor(t[0],t[1],t[2],t[3],t[4],t[5])}},{key:"toString",value:function(){var t=arguments.length>0&&void 0!==arguments[0]?arguments[0]:" ";if(null===this.s){var n=this.m.map((function(t){return d(t)}));1===n[0]&&0===n[1]&&0===n[2]&&1===n[3]?this.s="translate("+n[4]+t+n[5]+")":this.s="matrix("+n.join(t)+")"}return this.s}}],[{key:"create",value:function(t){return t?Array.isArray(t)?f(this,v(t)):t instanceof this?t.clone():(new this).recomposeSelf(t.origin,t.rotate,t.skew,t.scale,t.translate):new this}}]),t}();function T(t,n,e){return t>=.5?e:n}function q(t,n,e){return 0===t||n===e?n:t*(e-n)+n}function B(t,n,e){var r=q(t,n,e);return r<=0?0:r}function L(t,n,e){var r=q(t,n,e);return r<=0?0:r>=1?1:r}function C(t,n,e){return 0===t?n:1===t?e:{x:q(t,n.x,e.x),y:q(t,n.y,e.y)}}function D(t,n,e){var r=function(t,n,e){return Math.round(q(t,n,e))}(t,n,e);return r<=0?0:r>=255?255:r}function z(t,n,e){return 0===t?n:1===t?e:{r:D(t,n.r,e.r),g:D(t,n.g,e.g),b:D(t,n.b,e.b),a:q(t,null==n.a?1:n.a,null==e.a?1:e.a)}}function V(t,n){for(var e=[],r=0;r<t;r++)e.push(n);return e}function G(t,n){if(--n<=0)return t;var e=(t=Object.assign([],t)).length;do{for(var r=0;r<e;r++)t.push(t[r])}while(--n>0);return t}var Y,$=function(){function t(n){r(this,t),this.list=n,this.length=n.length}return u(t,[{key:"setAttribute",value:function(t,n){for(var e=this.list,r=0;r<this.length;r++)e[r].setAttribute(t,n)}},{key:"removeAttribute",value:function(t){for(var n=this.list,e=0;e<this.length;e++)n[e].removeAttribute(t)}},{key:"style",value:function(t,n){for(var e=this.list,r=0;r<this.length;r++)e[r].style[t]=n}}]),t}(),U=/-./g,Q=function(t,n){return n.toUpperCase()};function H(t){return"function"==typeof t?t:T}function J(t){return t?"function"==typeof t?t:Array.isArray(t)?function(t){var n=arguments.length>1&&void 0!==arguments[1]?arguments[1]:b;if(!Array.isArray(t))return n;switch(t.length){case 1:return _(t[0])||n;case 2:return _(t[0],t[1])||n;case 4:return x(t[0],t[1],t[2],t[3])||n}return n}(t,null):function(t,n){var e=arguments.length>2&&void 0!==arguments[2]?arguments[2]:b;switch(t){case"linear":return b;case"steps":return _(n.steps||1,n.jump||0)||e;case"bezier":case"cubic-bezier":return x(n.x1||0,n.y1||0,n.x2||0,n.y2||0)||e}return e}(t.type,t.value,null):null}function Z(t,n,e){var r=arguments.length>3&&void 0!==arguments[3]&&arguments[3],i=n.length-1;if(t<=n[0].t)return r?[0,0,n[0].v]:n[0].v;if(t>=n[i].t)return r?[i,1,n[i].v]:n[i].v;var u,o=n[0],a=null;for(u=1;u<=i;u++){if(!(t>n[u].t)){a=n[u];break}o=n[u]}return null==a?r?[i,1,n[i].v]:n[i].v:o.t===a.t?r?[u,1,a.v]:a.v:(t=(t-o.t)/(a.t-o.t),o.e&&(t=o.e(t)),r?[u,t,e(t,o.v,a.v)]:e(t,o.v,a.v))}function K(t,n){var e=arguments.length>2&&void 0!==arguments[2]?arguments[2]:null;return t&&t.length?"function"!=typeof n?null:("function"!=typeof e&&(e=null),function(r){var i=Z(r,t,n);return null!=i&&e&&(i=e(i)),i}):null}function W(t,n){return t.t-n.t}function X(t,n,r,i,u){var o,a="@"===r[0],l="#"===r[0],s=Y[r],f=T;switch(a?(o=r.substr(1),r=o.replace(U,Q)):l&&(r=r.substr(1)),e(s)){case"function":if(f=s(i,u,Z,J,r,a,n,t),l)return f;break;case"string":f=K(i,H(s));break;case"object":if((f=K(i,H(s.i),s.f))&&"function"==typeof s.u)return s.u(n,f,r,a,t)}return f?function(t,n,e){if(arguments.length>3&&void 0!==arguments[3]&&arguments[3])return t instanceof $?function(r){return t.style(n,e(r))}:function(r){return t.style[n]=e(r)};if(Array.isArray(n)){var r=n.length;return function(i){var u=e(i);if(null==u)for(var o=0;o<r;o++)t[o].removeAttribute(n);else for(var a=0;a<r;a++)t[a].setAttribute(n,u)}}return function(r){var i=e(r);null==i?t.removeAttribute(n):t.setAttribute(n,i)}}(n,r,f,a):null}function tt(t,n,r,i){if(!i||"object"!==e(i))return null;var u=null,o=null;return Array.isArray(i)?o=function(t){if(!t||!t.length)return null;for(var n=0;n<t.length;n++)t[n].e&&(t[n].e=J(t[n].e));return t.sort(W)}(i):(o=i.keys,u=i.data||null),o?X(t,n,r,o,u):null}function nt(t,n,e){if(!e)return null;var r=[];for(var i in e)if(e.hasOwnProperty(i)){var u=tt(t,n,i,e[i]);u&&r.push(u)}return r.length?r:null}function et(t,n){if(!n.settings.duration||n.settings.duration<0)return null;var e,r,i,u,o,a=function(t,n){if(!n)return null;var e=[];if(Array.isArray(n))for(var r=n.length,i=0;i<r;i++){var u=n[i];if(2===u.length){var o=null;if("string"==typeof u[0])o=t.getElementById(u[0]);else if(Array.isArray(u[0])){o=[];for(var a=0;a<u[0].length;a++)if("string"==typeof u[0][a]){var l=t.getElementById(u[0][a]);l&&o.push(l)}o=o.length?1===o.length?o[0]:new $(o):null}if(o){var s=nt(t,o,u[1]);s&&(e=e.concat(s))}}}else for(var f in n)if(n.hasOwnProperty(f)){var c=t.getElementById(f);if(c){var h=nt(t,c,n[f]);h&&(e=e.concat(h))}}return e.length?e:null}(t,n.elements);return a?(e=a,r=n.settings,i=r.duration,u=e.length,o=null,function(t,n){var a=r.iterations||1/0,l=(r.alternate&&a%2==0)^r.direction>0?i:0,s=t%i,f=1+(t-s)/i;n*=r.direction,r.alternate&&f%2==0&&(n=-n);var c=!1;if(f>a)s=l,c=!0,-1===r.fill&&(s=r.direction>0?0:i);else if(n<0&&(s=i-s),s===o)return!1;o=s;for(var h=0;h<u;h++)e[h](s);return c}):null}function rt(t,n){if(Y=n,!t||!t.root||!Array.isArray(t.animations))return null;var e=function(t){for(var n=document.getElementsByTagName("svg"),e=0;e<n.length;e++)if(n[e].id===t.root&&!n[e].svgatorAnimation)return n[e].svgatorAnimation=!0,n[e];return null}(t);if(!e)return null;var r=t.animations.map((function(t){return et(e,t)})).filter((function(t){return!!t}));return r.length?{svg:e,animations:r,animationSettings:t.animationSettings,options:t.options||void 0}:null}function it(t){return+("0x"+(t.replace(/[^0-9a-fA-F]+/g,"")||27))}function ut(t,n,e){return!t||!e||n>t.length?t:t.substring(0,n)+ut(t.substring(n+1),e,e)}function ot(t){var n=arguments.length>1&&void 0!==arguments[1]?arguments[1]:27;return!t||t%n?t%n:ot(t/n,n)}function at(t,n,e){if(t&&t.length){var r=it(e),i=it(n),u=ot(r)+5,o=ut(t,ot(r,5),u);return o=o.replace(/\x7c$/g,"==").replace(/\x2f$/g,"="),o=function(t,n,e){var r=+("0x"+t.substring(0,4));t=t.substring(4);for(var i=n%r+e%27,u=[],o=0;o<t.length;o+=2)if("|"!==t[o]){var a=+("0x"+t[o]+t[o+1])-i;u.push(a)}else{var l=+("0x"+t.substring(o+1,o+1+4))-i;o+=3,u.push(l)}return String.fromCharCode.apply(String,u)}(o=(o=atob(o)).replace(/[\x41-\x5A]/g,""),i,r),o=JSON.parse(o)}}var lt=[{key:"alternate",def:!1},{key:"fill",def:1},{key:"iterations",def:0},{key:"direction",def:1},{key:"speed",def:1},{key:"fps",def:100}],st=function(){function t(n,e){var i=this,u=arguments.length>2&&void 0!==arguments[2]?arguments[2]:null;r(this,t),this._id=0,this._running=!1,this._rollingBack=!1,this._animations=n,this._settings=e,(!u||u<"2022-05-02")&&delete this._settings.speed,lt.forEach((function(t){i._settings[t.key]=i._settings[t.key]||t.def})),this.duration=e.duration,this.offset=e.offset||0,this.rollbackStartOffset=0}return u(t,[{key:"alternate",get:function(){return this._settings.alternate}},{key:"fill",get:function(){return this._settings.fill}},{key:"iterations",get:function(){return this._settings.iterations}},{key:"direction",get:function(){return this._settings.direction}},{key:"speed",get:function(){return this._settings.speed}},{key:"fps",get:function(){return this._settings.fps}},{key:"maxFiniteDuration",get:function(){return this.iterations>0?this.iterations*this.duration:this.duration}},{key:"_apply",value:function(t){for(var n=arguments.length>1&&void 0!==arguments[1]?arguments[1]:{},e=this._animations,r=e.length,i=0,u=0;u<r;u++)n[u]?i++:(n[u]=e[u](t,1),n[u]&&i++);return i}},{key:"_rollback",value:function(t){var n=this,e=1/0,r=null;this.rollbackStartOffset=t,this._rollingBack=!0,this._running=!0;this._id=window.requestAnimationFrame((function i(u){if(n._rollingBack){null==r&&(r=u);var o=Math.round(t-(u-r)*n.speed);if(o>n.duration&&e!==1/0){var a=!!n.alternate&&o/n.duration%2>1,l=o%n.duration;o=(l+=a?n.duration:0)||n.duration}var s=(n.fps?1e3/n.fps:0)*n.speed,f=Math.max(0,o);f<e-s&&(n.offset=f,e=f,n._apply(f));var c=n.iterations>0&&-1===n.fill&&o>=n.maxFiniteDuration;(o<=0||n.offset<o||c)&&n.stop(),n._id=window.requestAnimationFrame(i)}}))}},{key:"_start",value:function(){var t=this,n=arguments.length>0&&void 0!==arguments[0]?arguments[0]:0,e=-1/0,r=null,i={};this._running=!0;var u=function u(o){null==r&&(r=o);var a=Math.round((o-r)*t.speed+n),l=(t.fps?1e3/t.fps:0)*t.speed;if(a>e+l&&!t._rollingBack&&(t.offset=a,e=a,t._apply(a,i)===t._animations.length))return void t.pause(!0);t._id=window.requestAnimationFrame(u)};this._id=window.requestAnimationFrame(u)}},{key:"_pause",value:function(){this._id&&window.cancelAnimationFrame(this._id),this._running=!1}},{key:"play",value:function(){if(!this._running)return this._rollingBack?this._rollback(this.offset):this._start(this.offset)}},{key:"stop",value:function(){this._pause(),this.offset=0,this.rollbackStartOffset=0,this._rollingBack=!1,this._apply(0)}},{key:"reachedToEnd",value:function(){return this.iterations>0&&this.offset>=this.iterations*this.duration}},{key:"restart",value:function(){var t=arguments.length>0&&void 0!==arguments[0]&&arguments[0];this.stop(t),this.play(t)}},{key:"pause",value:function(){this._pause()}},{key:"reverse",value:function(){this.direction=-this.direction}}],[{key:"build",value:function(t,n){delete t.animationSettings,t.options=at(t.options,t.root,"5c7f360c"),t.animations.map((function(n){n.settings=at(n.s,t.root,"5c7f360c"),delete n.s,t.animationSettings||(t.animationSettings=n.settings)}));var e=t.version;if(!(t=rt(t,n)))return null;var r=t.options||{},i=new this(t.animations,t.animationSettings,e);return{el:t.svg,options:r,player:i}}},{key:"push",value:function(t){return this.build(t)}},{key:"init",value:function(){var t=this,n=window.__SVGATOR_PLAYER__&&window.__SVGATOR_PLAYER__["5c7f360c"];Array.isArray(n)&&n.splice(0).forEach((function(n){return t.build(n)}))}}]),t}();function ft(t){return d(t)+""}function ct(t){var n=arguments.length>1&&void 0!==arguments[1]?arguments[1]:" ";return t&&t.length?t.map(ft).join(n):""}function ht(t){if(!t)return"transparent";if(null==t.a||t.a>=1){var n=function(t){return 1===(t=parseInt(t).toString(16)).length?"0"+t:t},e=function(t){return t.charAt(0)===t.charAt(1)},r=n(t.r),i=n(t.g),u=n(t.b);return e(r)&&e(i)&&e(u)&&(r=r.charAt(0),i=i.charAt(0),u=u.charAt(0)),"#"+r+i+u}return"rgba("+t.r+","+t.g+","+t.b+","+t.a+")"}function vt(t){return t?"url(#"+t+")":"none"}!function(){for(var t=0,n=["ms","moz","webkit","o"],e=0;e<n.length&&!window.requestAnimationFrame;++e)window.requestAnimationFrame=window[n[e]+"RequestAnimationFrame"],window.cancelAnimationFrame=window[n[e]+"CancelAnimationFrame"]||window[n[e]+"CancelRequestAnimationFrame"];window.requestAnimationFrame||(window.requestAnimationFrame=function(n){var e=Date.now(),r=Math.max(0,16-(e-t)),i=window.setTimeout((function(){n(e+r)}),r);return t=e+r,i},window.cancelAnimationFrame=window.clearTimeout)}();var yt={f:null,i:function(t,n,e){return 0===t?n:1===t?e:{x:B(t,n.x,e.x),y:B(t,n.y,e.y)}},u:function(t,n){return function(e){var r=n(e);t.setAttribute("rx",ft(r.x)),t.setAttribute("ry",ft(r.y))}}},gt={f:null,i:function(t,n,e){return 0===t?n:1===t?e:{width:B(t,n.width,e.width),height:B(t,n.height,e.height)}},u:function(t,n){return function(e){var r=n(e);t.setAttribute("width",ft(r.width)),t.setAttribute("height",ft(r.height))}}};Object.freeze({M:2,L:2,Z:0,H:1,V:1,C:6,Q:4,T:2,S:4,A:7});var dt={},pt=null;function mt(t){var n=function(){if(pt)return pt;if("object"!==("undefined"==typeof document?"undefined":e(document))||!document.createElementNS)return{};var t=document.createElementNS("http://www.w3.org/2000/svg","svg");return t&&t.style?(t.style.position="absolute",t.style.opacity="0.01",t.style.zIndex="-9999",t.style.left="-9999px",t.style.width="1px",t.style.height="1px",pt={svg:t}):{}}().svg;if(!n)return function(t){return null};var r=document.createElementNS(n.namespaceURI,"path");r.setAttributeNS(null,"d",t),r.setAttributeNS(null,"fill","none"),r.setAttributeNS(null,"stroke","none"),n.appendChild(r);var i=r.getTotalLength();return function(t){var n=r.getPointAtLength(i*t);return{x:n.x,y:n.y}}}function bt(t){return dt[t]?dt[t]:dt[t]=mt(t)}function wt(t,n,e,r){if(!t||!r)return!1;var i=["M",t.x,t.y];if(n&&e&&(i.push("C"),i.push(n.x),i.push(n.y),i.push(e.x),i.push(e.y)),n?!e:e){var u=n||e;i.push("Q"),i.push(u.x),i.push(u.y)}return n||e||i.push("L"),i.push(r.x),i.push(r.y),i.join(" ")}function xt(t,n,e,r){var i=arguments.length>4&&void 0!==arguments[4]?arguments[4]:1,u=wt(t,n,e,r),o=bt(u);try{return o(i)}catch(t){return null}}function At(t,n,e){return t+(n-t)*e}function kt(t,n,e){var r=arguments.length>3&&void 0!==arguments[3]&&arguments[3],i={x:At(t.x,n.x,e),y:At(t.y,n.y,e)};return r&&(i.a=_t(t,n)),i}function _t(t,n){return Math.atan2(n.y-t.y,n.x-t.x)}function St(t,n,e,r){var i=1-r;return i*i*t+2*i*r*n+r*r*e}function Ot(t,n,e,r){return 2*(1-r)*(n-t)+2*r*(e-n)}function jt(t,n,e,r){var i=arguments.length>4&&void 0!==arguments[4]&&arguments[4],u=xt(t,n,null,e,r);return u||(u={x:St(t.x,n.x,e.x,r),y:St(t.y,n.y,e.y,r)}),i&&(u.a=Mt(t,n,e,r)),u}function Mt(t,n,e,r){return Math.atan2(Ot(t.y,n.y,e.y,r),Ot(t.x,n.x,e.x,r))}function Pt(t,n,e,r,i){var u=i*i;return i*u*(r-t+3*(n-e))+3*u*(t+e-2*n)+3*i*(n-t)+t}function Et(t,n,e,r,i){var u=1-i;return 3*(u*u*(n-t)+2*u*i*(e-n)+i*i*(r-e))}function It(t,n,e,r,i){var u=arguments.length>5&&void 0!==arguments[5]&&arguments[5],o=xt(t,n,e,r,i);return o||(o={x:Pt(t.x,n.x,e.x,r.x,i),y:Pt(t.y,n.y,e.y,r.y,i)}),u&&(o.a=Rt(t,n,e,r,i)),o}function Rt(t,n,e,r,i){return Math.atan2(Et(t.y,n.y,e.y,r.y,i),Et(t.x,n.x,e.x,r.x,i))}function Ft(t,n,e){var r=arguments.length>3&&void 0!==arguments[3]&&arguments[3];if(Tt(n)){if(qt(e))return jt(n,e.start,e,t,r)}else if(Tt(e)){if(Bt(n))return jt(n,n.end,e,t,r)}else{if(Bt(n))return qt(e)?It(n,n.end,e.start,e,t,r):jt(n,n.end,e,t,r);if(qt(e))return jt(n,e.start,e,t,r)}return kt(n,e,t,r)}function Nt(t,n,e){var r=Ft(t,n,e,!0);return r.a=function(t){return arguments.length>1&&void 0!==arguments[1]&&arguments[1]?t+Math.PI:t}(r.a)/m,r}function Tt(t){return!t.type||"corner"===t.type}function qt(t){return null!=t.start&&!Tt(t)}function Bt(t){return null!=t.end&&!Tt(t)}var Lt=new N;var Ct={f:ft,i:q},Dt={f:ft,i:L};function zt(t,n,e){return t.map((function(t){return function(t,n,e){var r=t.v;if(!r||"g"!==r.t||r.s||!r.v||!r.r)return t;var i=e.getElementById(r.r),u=i&&i.querySelectorAll("stop")||[];return r.s=r.v.map((function(t,n){var e=u[n]&&u[n].getAttribute("offset");return{c:t,o:e=d(parseInt(e)/100)}})),delete r.v,t}(t,0,e)}))}var Vt={gt:"gradientTransform",c:{x:"cx",y:"cy"},rd:"r",f:{x:"x1",y:"y1"},to:{x:"x2",y:"y2"}};function Gt(t,n,r,i,u,o,a,l){return zt(t,0,l),n=function(t,n,e){for(var r,i,u,o=t.length-1,a={},l=0;l<=o;l++)(r=t[l]).e&&(r.e=n(r.e)),r.v&&"g"===(i=r.v).t&&i.r&&(u=e.getElementById(i.r))&&(a[i.r]={e:u,s:u.querySelectorAll("stop")});return a}(t,i,l),function(i){var u=r(i,t,Yt);if(!u)return"none";if("c"===u.t)return ht(u.v);if("g"===u.t){if(!n[u.r])return vt(u.r);var o=n[u.r];return function(t,n){for(var e=t.s,r=e.length;r<n.length;r++){var i=e[e.length-1].cloneNode();i.id=Qt(i.id),t.e.appendChild(i),e=t.s=t.e.querySelectorAll("stop")}for(var u=0,o=e.length,a=n.length-1;u<o;u++)e[u].setAttribute("stop-color",ht(n[Math.min(u,a)].c)),e[u].setAttribute("offset",n[Math.min(u,a)].o)}(o,u.s),Object.keys(Vt).forEach((function(t){if(void 0!==u[t])if("object"!==e(Vt[t])){var n,r="gt"===t?(n=u[t],Array.isArray(n)?"matrix("+n.join(" ")+")":""):u[t],i=Vt[t];o.e.setAttribute(i,r)}else Object.keys(Vt[t]).forEach((function(n){if(void 0!==u[t][n]){var e=u[t][n],r=Vt[t][n];o.e.setAttribute(r,e)}}))})),vt(u.r)}return"none"}}function Yt(t,e,r){if(0===t)return e;if(1===t)return r;if(e&&r){var i=e.t;if(i===r.t)switch(e.t){case"c":return{t:i,v:z(t,e.v,r.v)};case"g":if(e.r===r.r){var u={t:i,s:$t(t,e.s,r.s),r:e.r};return e.gt&&r.gt&&(u.gt=function(t,n,e){var r=n.length;if(r!==e.length)return T(t,n,e);for(var i=new Array(r),u=0;u<r;u++)i[u]=q(t,n[u],e[u]);return i}(t,e.gt,r.gt)),e.c?(u.c=C(t,e.c,r.c),u.rd=B(t,e.rd,r.rd)):e.f&&(u.f=C(t,e.f,r.f),u.to=C(t,e.to,r.to)),u}}if("c"===e.t&&"g"===r.t||"c"===r.t&&"g"===e.t){var o="c"===e.t?e:r,a="g"===e.t?n({},e):n({},r),l=a.s.map((function(t){return{c:o.v,o:t.o}}));return a.s="c"===e.t?$t(t,l,a.s):$t(t,a.s,l),a}}return T(t,e,r)}function $t(t,n,e){if(n.length===e.length)return n.map((function(n,r){return Ut(t,n,e[r])}));for(var r=Math.max(n.length,e.length),i=[],u=0;u<r;u++){var o=Ut(t,n[Math.min(u,n.length-1)],e[Math.min(u,e.length-1)]);i.push(o)}return i}function Ut(t,n,e){return{o:L(t,n.o,e.o||0),c:z(t,n.c,e.c||{})}}function Qt(t){return t.replace(/-fill-([0-9]+)$/,(function(t,n){return"-fill-"+(+n+1)}))}var Ht={fill:Gt,"fill-opacity":Dt,stroke:Gt,"stroke-opacity":Dt,"stroke-width":Ct,"stroke-dashoffset":{f:ft,i:q},"stroke-dasharray":{f:function(t){var n=arguments.length>1&&void 0!==arguments[1]?arguments[1]:" ";return t&&t.length>0&&(t=t.map((function(t){return d(t,4)}))),ct(t,n)},i:function(t,n,e){var r,i,u,o=n.length,a=e.length;if(o!==a)if(0===o)n=V(o=a,0);else if(0===a)a=o,e=V(o,0);else{var l=(u=(r=o)*(i=a)/function(t,n){for(var e;n;)e=n,n=t%n,t=e;return t||1}(r,i))<0?-u:u;n=G(n,Math.floor(l/o)),e=G(e,Math.floor(l/a)),o=a=l}for(var s=[],f=0;f<o;f++)s.push(d(B(t,n[f],e[f])));return s}},opacity:Dt,transform:function(t,n,r,i){if(!(t=function(t,n){if(!t||"object"!==e(t))return null;var r=!1;for(var i in t)t.hasOwnProperty(i)&&(t[i]&&t[i].length?(t[i].forEach((function(t){t.e&&(t.e=n(t.e))})),r=!0):delete t[i]);return r?t:null}(t,i)))return null;var u=function(e,i,u){var o=arguments.length>3&&void 0!==arguments[3]?arguments[3]:null;return t[e]?r(i,t[e],u):n&&n[e]?n[e]:o};return n&&n.a&&t.o?function(n){var e=r(n,t.o,Nt);return Lt.recomposeSelf(e,u("r",n,q,0)+e.a,u("k",n,C),u("s",n,C),u("t",n,C)).toString()}:function(t){return Lt.recomposeSelf(u("o",t,Ft,null),u("r",t,q,0),u("k",t,C),u("s",t,C),u("t",t,C)).toString()}},r:Ct,"#size":gt,"#radius":yt,_:function(t,n){if(Array.isArray(t))for(var e=0;e<t.length;e++)this[t[e]]=n;else this[t]=n}},Jt=function(t){!function(t,n){if("function"!=typeof n&&null!==n)throw new TypeError("Super expression must either be null or a function");t.prototype=Object.create(n&&n.prototype,{constructor:{value:t,writable:!0,configurable:!0}}),n&&l(t,n)}(o,t);var n,e,i=(n=o,e=s(),function(){var t,r=a(n);if(e){var i=a(this).constructor;t=Reflect.construct(r,arguments,i)}else t=r.apply(this,arguments);return c(this,t)});function o(){return r(this,o),i.apply(this,arguments)}return u(o,null,[{key:"build",value:function(t){var n=h(a(o),"build",this).call(this,t,Ht);if(!n)return null;n.el,n.options,function(t,n,e){t.play()}(n.player)}}]),o}(st);return Jt.init(),Jt}));
(function(s,i,o,w,a,b){w[o]=w[o]||{};w[o][s]=w[o][s]||[];w[o][s].push(i);})('5c7f360c',{"root":"eFTtHwQ9CZ71","version":"2022-05-04","animations":[{"elements":{"eFTtHwQ9CZ72":{"transform":{"data":{"t":{"x":-249.393372,"y":-237.145874}},"keys":{"o":[{"t":200,"v":{"x":244.500001,"y":219.82713,"type":"corner"}},{"t":500,"v":{"x":244.500001,"y":227.906217,"type":"corner"}},{"t":900,"v":{"x":240.01764,"y":216.595496,"type":"corner"}},{"t":1200,"v":{"x":248.982361,"y":214.979679,"type":"corner"}},{"t":1500,"v":{"x":240.01764,"y":204.476867,"type":"corner"}},{"t":1900,"v":{"x":263.446992,"y":198.013598,"type":"corner"}},{"t":2300,"v":{"x":240.01764,"y":236.793213,"type":"corner"}},{"t":2700,"v":{"x":274.438541,"y":219.371884,"type":"corner"}},{"t":3000,"v":{"x":231.619383,"y":208.061163,"type":"corner"}}]}},"opacity":[{"t":0,"v":0.01},{"t":3000,"v":1}]}},"s":"MODA1M2JhNjFhM0FiNGRIxYTBiM2E4YWVhZDYCxNzk3MjZmNmY2ZjZiINjFhM0hhOGIxYTRhMFmIzYThhZWFkNjE3OTVcwNmI2MWE4YjNhNGIPxYTBiM1BhOGFlYWRiWMjYxNzk3MDZiNjFhNEWE4YWJhYjYxNzk3MDWZiNjFhMGFiYjNhNGIPxYWRhMFNiM2E0NjE3IOWE1YTBhYmIyYTQ2YSjYxYjJhZmE0YTRhMzUYxNzk3MGJj"}],"options":"MXDAxMDg4MmY4MFY4MTAZlN2Y4MTJmNDcyZjcS5RjdjNmU3MTJmOGE/B"},'__SVGATOR_PLAYER__',window)]]></script></svg>