<svg width="24" height="24" viewBox="0 0 24 24" fill="none" xmlns="http://www.w3.org/2000/svg">
<path fill-rule="evenodd" clip-rule="evenodd" d="M2.46839 6.96888C2.53806 6.89903 2.62082 6.84362 2.71194 6.80581C2.80305 6.768 2.90074 6.74854 2.99939 6.74854C3.09804 6.74854 3.19572 6.768 3.28684 6.80581C3.37796 6.84362 3.46072 6.89903 3.53039 6.96888L11.9994 15.4394L20.4684 6.96888C20.5381 6.89914 20.6209 6.84383 20.712 6.80609C20.8031 6.76835 20.9008 6.74893 20.9994 6.74893C21.098 6.74893 21.1957 6.76835 21.2868 6.80609C21.3779 6.84383 21.4607 6.89914 21.5304 6.96888C21.6001 7.03861 21.6554 7.12139 21.6932 7.2125C21.7309 7.30361 21.7503 7.40126 21.7503 7.49988C21.7503 7.59849 21.7309 7.69614 21.6932 7.78725C21.6554 7.87836 21.6001 7.96114 21.5304 8.03088L12.5304 17.0309C12.4607 17.1007 12.378 17.1561 12.2868 17.1939C12.1957 17.2318 12.098 17.2512 11.9994 17.2512C11.9007 17.2512 11.8031 17.2318 11.7119 17.1939C11.6208 17.1561 11.5381 17.1007 11.4684 17.0309L2.46839 8.03088C2.39854 7.96121 2.34313 7.87844 2.30532 7.78733C2.26751 7.69621 2.24805 7.59853 2.24805 7.49988C2.24805 7.40122 2.26751 7.30354 2.30532 7.21242C2.34313 7.12131 2.39854 7.03854 2.46839 6.96888Z" fill="#0D0D10"/>
</svg>
