<svg width="32" height="32" viewBox="0 0 32 32" fill="none" xmlns="http://www.w3.org/2000/svg">
<path d="M16.0007 23.9997V16.9997M16.0007 16.9997C16.6753 17.0002 17.3473 16.9155 18.0007 16.7477M16.0007 16.9997C15.3261 17.0002 14.6541 16.9155 14.0007 16.7477M19.0007 26.7183C17.0184 27.0948 14.983 27.0948 13.0007 26.7183M18.0007 29.8957C16.671 30.0349 15.3304 30.0349 14.0007 29.8957M19.0007 23.9997V23.7437C19.0007 22.433 19.878 21.313 21.0113 20.6557C22.9153 19.553 24.4026 17.8533 25.2426 15.8197C26.0825 13.7861 26.2284 11.5323 25.6576 9.40744C25.0867 7.28256 23.831 5.40527 22.085 4.06643C20.339 2.72759 18.2002 2.00195 16 2.00195C13.7998 2.00195 11.661 2.72759 9.91499 4.06643C8.16899 5.40527 6.91329 7.28256 6.34244 9.40744C5.77159 11.5323 5.91746 13.7861 6.75746 15.8197C7.59745 17.8533 9.08466 19.553 10.9887 20.6557C12.122 21.313 13.0007 22.433 13.0007 23.7437V23.9997" stroke="#F90400" stroke-width="2" stroke-linecap="round" stroke-linejoin="round"/>
</svg>
