<svg width="32" height="32" viewBox="0 0 32 32" fill="none" xmlns="http://www.w3.org/2000/svg">
<path d="M7.33333 7.33333L11.3333 11.3333M20.6667 20.6667L24.6667 24.6667M24.6667 7.33333L20.6667 11.3333M11.3333 20.6667L7.33333 24.6667M14.6667 5.33333C14.6667 5.68696 14.8071 6.02609 15.0572 6.27614C15.3072 6.52619 15.6464 6.66667 16 6.66667C16.3536 6.66667 16.6928 6.52619 16.9428 6.27614C17.1929 6.02609 17.3333 5.68696 17.3333 5.33333C17.3333 4.97971 17.1929 4.64057 16.9428 4.39052C16.6928 4.14048 16.3536 4 16 4C15.6464 4 15.3072 4.14048 15.0572 4.39052C14.8071 4.64057 14.6667 4.97971 14.6667 5.33333ZM4 16C4 16.3536 4.14048 16.6928 4.39052 16.9428C4.64057 17.1929 4.97971 17.3333 5.33333 17.3333C5.68696 17.3333 6.02609 17.1929 6.27614 16.9428C6.52619 16.6928 6.66667 16.3536 6.66667 16C6.66667 15.6464 6.52619 15.3072 6.27614 15.0572C6.02609 14.8071 5.68696 14.6667 5.33333 14.6667C4.97971 14.6667 4.64057 14.8071 4.39052 15.0572C4.14048 15.3072 4 15.6464 4 16ZM25.3333 16C25.3333 16.3536 25.4738 16.6928 25.7239 16.9428C25.9739 17.1929 26.313 17.3333 26.6667 17.3333C27.0203 17.3333 27.3594 17.1929 27.6095 16.9428C27.8595 16.6928 28 16.3536 28 16C28 15.6464 27.8595 15.3072 27.6095 15.0572C27.3594 14.8071 27.0203 14.6667 26.6667 14.6667C26.313 14.6667 25.9739 14.8071 25.7239 15.0572C25.4738 15.3072 25.3333 15.6464 25.3333 16ZM14.6667 26.6667C14.6667 27.0203 14.8071 27.3594 15.0572 27.6095C15.3072 27.8595 15.6464 28 16 28C16.3536 28 16.6928 27.8595 16.9428 27.6095C17.1929 27.3594 17.3333 27.0203 17.3333 26.6667C17.3333 26.313 17.1929 25.9739 16.9428 25.7239C16.6928 25.4738 16.3536 25.3333 16 25.3333C15.6464 25.3333 15.3072 25.4738 15.0572 25.7239C14.8071 25.9739 14.6667 26.313 14.6667 26.6667Z" stroke="#F90400" stroke-width="1.97531" stroke-linecap="round" stroke-linejoin="round"/>
</svg>
