<svg width="32" height="32" viewBox="0 0 32 32" fill="none" xmlns="http://www.w3.org/2000/svg">
<path fill-rule="evenodd" clip-rule="evenodd" d="M18.6267 8.62644C18.8142 8.43917 19.0683 8.33398 19.3333 8.33398C19.5983 8.33398 19.8525 8.43917 20.04 8.62644L26.7067 15.2931C26.8939 15.4806 26.9991 15.7348 26.9991 15.9998C26.9991 16.2648 26.8939 16.5189 26.7067 16.7064L20.04 23.3731C19.9485 23.4714 19.8381 23.5502 19.7154 23.6048C19.5927 23.6595 19.4603 23.6889 19.326 23.6912C19.1918 23.6936 19.0584 23.6689 18.9339 23.6186C18.8094 23.5683 18.6962 23.4934 18.6013 23.3985C18.5063 23.3035 18.4315 23.1904 18.3812 23.0659C18.3309 22.9414 18.3062 22.808 18.3085 22.6737C18.3109 22.5395 18.3403 22.4071 18.395 22.2844C18.4496 22.1617 18.5284 22.0513 18.6267 21.9598L23.5867 16.9998H12.6667C11.716 16.9998 10.2667 17.2931 9.084 18.1451C7.95333 18.9584 7 20.3251 7 22.6664C7 22.9317 6.89464 23.186 6.70711 23.3735C6.51957 23.5611 6.26522 23.6664 6 23.6664C5.73478 23.6664 5.48043 23.5611 5.29289 23.3735C5.10536 23.186 5 22.9317 5 22.6664C5 19.6744 6.26933 17.7064 7.916 16.5211C9.51067 15.3731 11.396 14.9998 12.6667 14.9998H23.5867L18.6267 10.0398C18.4394 9.85227 18.3342 9.59811 18.3342 9.3331C18.3342 9.0681 18.4394 8.81394 18.6267 8.62644Z" fill="#F90400"/>
</svg>
