<svg width="32" height="32" viewBox="0 0 32 32" fill="none" xmlns="http://www.w3.org/2000/svg">
<path d="M22 26.59L19.41 24L18 25.41L22 29.41L30 21.41L28.59 20L22 26.59Z" fill="#F90400"/>
<path d="M16 18C17.1046 18 18 17.1046 18 16C18 14.8954 17.1046 14 16 14C14.8954 14 14 14.8954 14 16C14 17.1046 14.8954 18 16 18Z" fill="#F90400"/>
<path d="M16 22C14.8133 22 13.6533 21.6481 12.6666 20.9888C11.6799 20.3295 10.9109 19.3925 10.4567 18.2961C10.0026 17.1997 9.88378 15.9933 10.1153 14.8295C10.3468 13.6656 10.9182 12.5965 11.7574 11.7574C12.5965 10.9182 13.6656 10.3468 14.8295 10.1153C15.9933 9.88378 17.1997 10.0026 18.2961 10.4567C19.3925 10.9109 20.3295 11.6799 20.9888 12.6666C21.6481 13.6533 22 14.8133 22 16C21.9981 17.5907 21.3654 19.1158 20.2406 20.2406C19.1158 21.3654 17.5907 21.9981 16 22ZM16 12C15.2089 12 14.4355 12.2346 13.7777 12.6741C13.1199 13.1136 12.6072 13.7384 12.3045 14.4693C12.0017 15.2002 11.9225 16.0044 12.0769 16.7804C12.2312 17.5563 12.6122 18.269 13.1716 18.8284C13.731 19.3878 14.4437 19.7688 15.2196 19.9231C15.9956 20.0775 16.7998 19.9983 17.5307 19.6955C18.2616 19.3928 18.8864 18.8801 19.3259 18.2223C19.7654 17.5645 20 16.7911 20 16C19.9987 14.9395 19.5768 13.9229 18.827 13.173C18.0771 12.4232 17.0605 12.0013 16 12Z" fill="#F90400"/>
<path d="M28 16C28 13.6266 27.2962 11.3066 25.9776 9.33316C24.6591 7.35977 22.7849 5.8217 20.5922 4.91345C18.3995 4.0052 15.9867 3.76756 13.6589 4.23058C11.3312 4.6936 9.19295 5.83649 7.51472 7.51472C5.83649 9.19295 4.6936 11.3312 4.23058 13.6589C3.76756 15.9867 4.0052 18.3995 4.91345 20.5922C5.8217 22.7849 7.35977 24.6591 9.33316 25.9776C11.3066 27.2962 13.6266 28 16 28V26C14.0222 26 12.0888 25.4135 10.4443 24.3147C8.79981 23.2159 7.51809 21.6541 6.76121 19.8268C6.00433 17.9996 5.8063 15.9889 6.19215 14.0491C6.578 12.1093 7.53041 10.3275 8.92894 8.92894C10.3275 7.53041 12.1093 6.578 14.0491 6.19215C15.9889 5.8063 17.9996 6.00433 19.8268 6.76121C21.6541 7.51809 23.2159 8.79981 24.3147 10.4443C25.4135 12.0888 26 14.0222 26 16H28Z" fill="#F90400"/>
</svg>
