<?xml version="1.0" encoding="UTF-8"?>
<svg width="32px" height="22px" viewBox="0 0 32 22" version="1.1" xmlns="http://www.w3.org/2000/svg" xmlns:xlink="http://www.w3.org/1999/xlink">
    <!-- Generator: Sketch 48.2 (47327) - http://www.bohemiancoding.com/sketch -->
    <title>Mail</title>
    <desc>Created with Sketch.</desc>
    <defs></defs>
    <g id="CONTACT-US-Copy" stroke="none" stroke-width="1" fill="none" fill-rule="evenodd" transform="translate(-146.000000, -1655.000000)">
        <g id="Mail" transform="translate(146.000000, 1655.000000)" fill="#F90400">
            <path d="M3.2,0.144864 C2.50248,0.144864 1.86212,0.36886 1.33752,0.744864 L1.34992,0.757344 L15.34992,13.90736 C15.65944,14.19796 16.34044,14.19796 16.64992,13.90736 L30.64992,0.757344 L30.66232,0.744864 C30.13772,0.36886 29.49736,0.144864 28.79984,0.144864 L3.19984,0.144864 L3.2,0.144864 Z M0.31248,1.969864 C0.1146,2.386512 -7.99998816e-08,2.8513 -7.99998816e-08,3.344864 L-7.99998816e-08,18.54488 C-7.99998816e-08,20.31768 1.4272,21.74488 3.2,21.74488 L28.8,21.74488 C30.5728,21.74488 32,20.31768 32,18.54488 L32,3.344864 C32,2.8513 31.8854,2.386512 31.68752,1.969864 L17.75,15.06988 C16.771,15.98912 15.22896,15.98908 14.25,15.06988 L0.31248,1.969864 Z" id="Shape"></path>
        </g>
    </g>
</svg>