<?xml version="1.0" encoding="UTF-8"?>
<svg width="24px" height="24px" viewBox="0 0 38 24" version="1.1" xmlns="http://www.w3.org/2000/svg" xmlns:xlink="http://www.w3.org/1999/xlink">
    <!-- Generator: Sketch 48.2 (47327) - http://www.bohemiancoding.com/sketch -->
    <title>behance</title>
    <desc>Created with Sketch.</desc>
    <defs></defs>
    <g id="Home" stroke="none" stroke-width="1" fill="none" fill-rule="evenodd" transform="translate(-864.000000, -2000.000000)">
        <g id="behance" transform="translate(864.000000, 2000.000000)" fill="#FFFFFF" fill-rule="nonzero">
            <path d="M15.3132593,10.7311111 C15.3132593,10.7311111 18.8953333,10.4651852 18.8953333,6.26466667 C18.8953333,2.06385185 15.9647407,0.0137777778 12.2525185,0.0137777778 L0.037037037,0.0137777778 L0.037037037,23.4885185 L12.2525185,23.4885185 C12.2525185,23.4885185 19.7096296,23.7240741 19.7096296,16.5598519 C19.7096296,16.5599259 20.0347407,10.7311111 15.3132593,10.7311111 Z M11.3732593,4.18614815 L12.2525185,4.18614815 C12.2525185,4.18614815 13.912963,4.18614815 13.912963,6.62859259 C13.912963,9.07074074 12.9364444,9.42481481 11.8288148,9.42481481 L5.41933333,9.42481481 L5.41933333,4.18614815 L11.3732593,4.18614815 Z M11.9073333,19.3162963 L5.41933333,19.3162963 L5.41933333,13.0429506 L12.2525185,13.042963 C12.2525185,13.042963 14.7273333,13.0105185 14.7273333,16.2668148 C14.7273333,19.0125926 12.8788889,19.2955556 11.9073333,19.3162963 Z M29.654963,5.98644444 C20.6272999,5.98644444 20.6353333,15.0061481 20.6353333,15.0061481 C20.6353333,15.0061481 20.0159259,23.9795556 29.654963,23.9795556 C29.654963,23.9795556 37.6874074,24.4384444 37.6874074,17.7372593 L33.5564444,17.7372593 C33.5564444,17.7372593 33.6942222,20.2608148 29.7927407,20.2608148 C29.7927407,20.2608148 25.6611111,20.5377037 25.6611111,16.1767407 L37.8251852,16.1767407 C37.8251852,16.1766667 39.1561481,5.98644444 29.654963,5.98644444 Z M25.6157037,13.042963 C25.6157037,13.042963 26.1201481,9.42474074 29.7467407,9.42474074 C33.3725926,9.42474074 33.327199,13.042963 33.327199,13.042963 L25.6157037,13.042963 Z M34.2894815,4.28748148 L24.6043704,4.28748148 L24.6043704,1.39674074 L34.2894815,1.39674074 L34.2894815,4.28748148 Z" id="Shape"></path>
        </g>
    </g>
</svg>