<?xml version="1.0" encoding="UTF-8" standalone="no"?>
<svg width="14px" height="14px" viewBox="0 0 14 14" version="1.1" xmlns="http://www.w3.org/2000/svg" xmlns:xlink="http://www.w3.org/1999/xlink">
    <!-- Generator: Sketch 48.2 (47327) - http://www.bohemiancoding.com/sketch -->
    <title>Close</title>
    <desc>Created with Sketch.</desc>
    <defs></defs>
    <g id="Home-3" stroke="none" stroke-width="1" fill="none" fill-rule="evenodd" transform="translate(-554.000000, -444.000000)">
        <g id="Close" transform="translate(554.000000, 444.000000)" fill="#FBFBFB">
            <path d="M13.6684211,0.331578947 C13.8894748,0.552632684 14,0.828945711 14,1.16052632 C14,1.49210692 13.8894748,1.76841995 13.6684211,1.98947368 L8.65789474,7 L13.6684211,12.0105263 C13.8894748,12.2315801 14,12.5078931 14,12.8394737 C14,13.1710543 13.8894748,13.4473673 13.6684211,13.6684211 C13.4473673,13.8894748 13.1710543,14 12.8394737,14 C12.5078931,14 12.2315801,13.8894748 12.0105263,13.6684211 L7,8.65789474 L1.98947368,13.6684211 C1.76841995,13.8894748 1.49210692,14 1.16052632,14 C0.828945711,14 0.552632684,13.8894748 0.331578947,13.6684211 C0.110525211,13.4473673 0,13.1710543 0,12.8394737 C0,12.5078931 0.110525211,12.2315801 0.331578947,12.0105263 L5.34210526,7 L0.331578947,1.98947368 C0.110525211,1.76841995 0,1.49210692 0,1.16052632 C0,0.828945711 0.110525211,0.552632684 0.331578947,0.331578947 C0.552632684,0.110525211 0.828945711,0 1.16052632,0 C1.49210692,0 1.76841995,0.110525211 1.98947368,0.331578947 L7,5.34210526 L12.0105263,0.331578947 C12.2315801,0.110525211 12.5078931,0 12.8394737,0 C13.1710543,0 13.4473673,0.110525211 13.6684211,0.331578947 Z" id="close---simple-line-icons"></path>
        </g>
    </g>
</svg>