<?xml version="1.0" encoding="UTF-8"?>
<svg width="22px" height="22px" viewBox="0 0 20 20" version="1.1" xmlns="http://www.w3.org/2000/svg" xmlns:xlink="http://www.w3.org/1999/xlink">
    <!-- Generator: Sketch 48.2 (47327) - http://www.bohemiancoding.com/sketch -->
    <title>040-dribbble</title>
    <desc>Created with Sketch.</desc>
    <defs></defs>
    <g id="Footer-2" stroke="none" stroke-width="1" fill="none" fill-rule="evenodd" transform="translate(-865.000000, -204.000000)">
        <g id="040-dribbble" transform="translate(865.000000, 204.000000)" fill="#FFFFFF" fill-rule="nonzero">
            <path d="M10,0 C4.47713955,0 0,4.47713955 0,10 C0,15.5228604 4.47713955,20 10,20 C15.5228604,20 20,15.5228604 20,10 C20,4.47713955 15.5228134,0 10,0 Z M18.0870305,9.28089053 C17.0255552,9.23823588 15.0170242,9.23715422 12.7346476,9.63623623 C12.5284756,9.14192195 12.317883,8.66787686 12.1062557,8.21555884 C12.2384522,8.15385773 12.3695671,8.091122 12.4981894,8.02631703 C14.0658302,7.2362889 15.3676671,6.21427026 16.3822553,4.98057732 C17.3604436,6.21930229 17.9494728,7.7031857 18.0870305,9.28089053 Z M15.0470753,3.639848 C14.1000668,4.84617049 12.8377806,5.81467094 11.2696226,6.53853027 C11.0932195,6.20613437 10.9193559,5.88996322 10.7506184,5.59316773 C9.88746132,4.07514179 9.063855,2.8669852 8.44773747,2.02884715 C8.95390288,1.93140455 9.47304809,1.88113131 10,1.88113131 C11.8560182,1.88113131 13.616616,2.50021163 15.0470753,3.639848 Z M4.2590694,4.2590694 C4.93641776,3.58172105 5.71247848,3.03906169 6.554708,2.64393006 C7.1459946,3.41180786 8.11980925,4.76645755 9.14013488,6.56665319 C9.25676502,6.77244895 9.3761228,6.98859094 9.49693846,7.21258665 C8.71292996,7.45497042 7.87107667,7.65009076 6.9712375,7.79663089 C4.95250143,8.12535859 3.13316529,8.11538859 2.11138179,8.06864248 C2.45877971,6.63846537 3.19185658,5.32632925 4.2590694,4.2590694 Z M1.88113131,10 C1.88113131,9.98076543 1.88169565,9.96157789 1.88183674,9.94239035 C2.22876438,9.96087247 2.67031293,9.97601558 3.18503748,9.97601558 C4.27251949,9.97601558 5.68680104,9.90829485 7.22509617,9.66120825 C8.33477553,9.48292403 9.38063752,9.23132272 10.3540759,8.90913195 C10.5261524,9.2736952 10.6977116,9.6536367 10.8667783,10.0478748 C9.61987039,10.3832805 8.47510793,10.8220544 7.44838646,11.3596817 C5.78240954,12.2320564 4.42536141,13.3655791 3.40367197,14.73556 C2.41499638,13.3645915 1.88113131,11.7234455 1.88113131,10 Z M4.70231097,16.1529454 C6.13088912,14.0607041 8.43386413,12.6031565 11.5638315,11.8079083 C12.191565,13.5339403 12.728675,15.4640281 13.0383563,17.5330374 C12.0855162,17.9172114 11.0583245,18.1188687 10,18.1188687 C8.03421778,18.1188687 6.17504867,17.4249193 4.70231097,16.1529454 Z M15.7408836,15.7408836 C15.4412193,16.0405478 15.1220384,16.3134529 14.7865857,16.5593638 C14.4653825,14.7214045 13.9822609,12.9977238 13.4258693,11.428343 C15.3978122,11.119085 17.1327797,11.1267977 18.036287,11.1629624 C17.7900469,12.8903112 16.9966798,14.4851344 15.7408836,15.7408836 Z" id="Shape"></path>
        </g>
    </g>
</svg>