<?xml version="1.0" encoding="UTF-8"?>
<svg width="22px" height="22px" viewBox="0 0 20 20" version="1.1" xmlns="http://www.w3.org/2000/svg" xmlns:xlink="http://www.w3.org/1999/xlink">
    <!-- Generator: Sketch 48.2 (47327) - http://www.bohemiancoding.com/sketch -->
    <title>029-instagram</title>
    <desc>Created with Sketch.</desc>
    <defs></defs>
    <g id="Footer-2" stroke="none" stroke-width="1" fill="none" fill-rule="evenodd" transform="translate(-788.000000, -204.000000)">
        <g id="029-instagram" transform="translate(788.000000, 204.000000)" fill="#FFFFFF" fill-rule="nonzero">
            <path d="M14.0418922,0 L5.95810785,0 C2.67279333,0 0,2.67279333 0,5.95810785 L0,14.0418922 C0,17.3272067 2.67279333,20 5.95810785,20 L14.0418922,20 C17.3272067,20 20,17.3272067 20,14.0418922 L20,5.95810785 C19.9999637,2.67279333 17.3271704,0 14.0418922,0 Z M17.9880007,14.0418922 C17.9880007,16.2212495 16.2212495,17.9880007 14.0418922,17.9880007 L5.95810785,17.9880007 C3.77875049,17.9880007 2.01199926,16.2212495 2.01199926,14.0418922 L2.01199926,5.95810785 C2.01199926,3.7787142 3.77875049,2.01199926 5.95810785,2.01199926 L14.0418922,2.01199926 C16.2212495,2.01199926 17.9880007,3.7787142 17.9880007,5.95810785 L17.9880007,14.0418922 Z" id="Shape"></path>
            <path d="M10,5 C7.24299557,5 5,7.24300344 5,9.99998246 C5,12.7569615 7.24299557,15 10,15 C12.7570044,15 15,12.7569966 15,9.99998246 C15,7.24296836 12.7570044,5 10,5 Z M10,13.0552076 C8.31265744,13.0552076 6.94482062,11.687366 6.94482062,10.0000175 C6.94482062,8.31266906 8.31269252,6.94482744 10,6.94482744 C11.6873426,6.94482744 13.0551794,8.31266906 13.0551794,10.0000175 C13.0551794,11.6873309 11.6873075,13.0552076 10,13.0552076 Z" id="Shape"></path>
            <circle id="Oval" cx="15" cy="5" r="1"></circle>
        </g>
    </g>
</svg>