<?xml version="1.0" encoding="UTF-8"?>
<svg width="18px" height="22px" viewBox="0 0 18 18" version="1.1" xmlns="http://www.w3.org/2000/svg" xmlns:xlink="http://www.w3.org/1999/xlink">
    <!-- Generator: Sketch 48.2 (47327) - http://www.bohemiancoding.com/sketch -->
    <title>LinkedIn</title>
    <desc>Created with Sketch.</desc>
    <defs></defs>
    <g id="Footer-2" stroke="none" stroke-width="1" fill="none" fill-rule="evenodd" transform="translate(-635.000000, -204.000000)">
        <path d="M639.388529,221.392183 C639.388529,221.727884 639.1146,222 638.77666,222 L636.17208,222 C635.83414,222 635.560211,221.727884 635.560211,221.392183 L635.560211,210.546185 C635.560211,210.210484 635.83414,209.938368 636.17208,209.938368 L638.77666,209.938368 C639.1146,209.938368 639.388529,210.210484 639.388529,210.546185 L639.388529,221.392183 Z M637.47437,208.91597 C636.107826,208.91597 635,207.81548 635,206.457985 C635,205.10049 636.107826,204 637.47437,204 C638.840914,204 639.94874,205.10049 639.94874,206.457985 C639.94874,207.81548 638.840975,208.91597 637.47437,208.91597 Z M652.999998,221.441142 C652.999998,221.749765 652.748095,222 652.437415,222 L649.642507,222 C649.331827,222 649.079924,221.749765 649.079924,221.441142 L649.079924,216.353754 C649.079924,215.594829 649.30402,213.028106 647.083378,213.028106 C645.360884,213.028106 645.011506,214.78495 644.94135,215.573371 L644.94135,221.441142 C644.94135,221.749765 644.689508,222 644.378767,222 L641.675615,222 C641.364934,222 641.113031,221.749765 641.113031,221.441142 L641.113031,210.497226 C641.113031,210.188603 641.364934,209.938368 641.675615,209.938368 L644.378767,209.938368 C644.689447,209.938368 644.94135,210.188603 644.94135,210.497226 L644.94135,211.443465 C645.580052,210.491303 646.529252,209.756373 648.550258,209.756373 C653.025615,209.756373 652.999998,213.909792 652.999998,216.191887 L652.999998,221.441142 Z" id="LinkedIn" fill="#FFFFFF" fill-rule="nonzero"></path>
    </g>
</svg>