<?xml version="1.0" encoding="UTF-8" standalone="no"?>
<svg width="187px" height="100px" viewBox="0 0 618 328" version="1.1" xmlns="http://www.w3.org/2000/svg" xmlns:xlink="http://www.w3.org/1999/xlink">
    <!-- Generator: Sketch 48.2 (47327) - http://www.bohemiancoding.com/sketch -->
    <title>N logo</title>
    <desc>Created with Sketch.</desc>
    <defs>
        <path d="M460,0 L521,0 C573.467051,-9.63804095e-15 616,42.5329488 616,95 L616,328 L460,328 L460,0 Z" id="path-1"></path>
    </defs>
    <g id="Symbols" stroke="none" stroke-width="1" fill="none" fill-rule="evenodd">
        <g id="N-logo">
            <g id="Group-3" transform="translate(1.000000, 0.000000)">
                <g id="Group-2">
                    <rect id="Rectangle-10" fill="#0D0D10" x="0" y="0" width="156" height="328"></rect>
                    <rect id="Rectangle-10-Copy-3" fill="#870100" x="155" y="0" width="156" height="328"></rect>
                    <rect id="Rectangle-10-Copy-4" fill="#C20200" x="308" y="0" width="156" height="328"></rect>
                    <mask id="mask-2" fill="white">
                        <use xlink:href="#path-1"></use>
                    </mask>
                    <use id="Rectangle-10-Copy-7" fill="#F90400" xlink:href="#path-1"></use>
                </g>
                <g id="Group" transform="translate(42.000000, 36.000000)">
                    <path d="M3,11.1713555 L9.84071856,11.1713555 L9.84071856,13.9392583 C11.4000078,12.6425766 12.8125685,11.7407314 14.0784431,11.2336957 C15.3443177,10.7266599 16.6395143,10.4731458 17.9640719,10.4731458 C20.6802531,10.4731458 22.9856193,11.4123947 24.8802395,13.2909207 C26.4730619,14.8868366 27.2694611,17.2474268 27.2694611,20.3727621 L27.2694611,38.3017903 L20.4790419,38.3017903 L20.4790419,26.407289 C20.4790419,23.1655848 20.3323368,21.012793 20.0389222,19.9488491 C19.7455075,18.8849052 19.2341354,18.0744913 18.5047904,17.5175831 C17.7754455,16.960675 16.8742569,16.6822251 15.8011976,16.6822251 C14.4095739,16.6822251 13.214975,17.1435376 12.2173653,18.0661765 C11.2197555,18.9888154 10.5281456,20.2646977 10.142515,21.8938619 C9.94131636,22.7416922 9.84071856,24.5786304 9.84071856,27.4047315 L9.84071856,38.3017903 L3,38.3017903 L3,11.1713555 Z M61.3221557,26.7065217 L39.2658683,26.7065217 C39.5844327,28.6349201 40.4353224,30.1684726 41.8185629,31.3072251 C43.2018033,32.4459776 44.9664563,33.0153453 47.1125749,33.0153453 C49.6778571,33.0153453 51.8826255,32.125968 53.7269461,30.3471867 L59.5113772,33.0402813 C58.0694539,35.0684245 56.342525,36.5687292 54.3305389,37.5412404 C52.3185528,38.5137517 49.9293551,39 47.1628743,39 C42.8706372,39 39.3748638,37.6576221 36.6754491,34.9728261 C33.9760344,32.2880301 32.6263473,28.9258514 32.6263473,24.8861893 C32.6263473,20.7467824 33.9718428,17.3097963 36.6628743,14.5751279 C39.3539057,11.8404595 42.7281234,10.4731458 46.7856287,10.4731458 C51.0946323,10.4731458 54.5987889,11.8404595 57.2982036,14.5751279 C59.9976183,17.3097963 61.3473054,20.9213331 61.3473054,25.4098465 L61.3221557,26.7065217 Z M54.4311377,21.3452685 C53.9784409,19.8324733 53.0856354,18.6023065 51.7526946,17.6547315 C50.4197538,16.7071564 48.8730627,16.233376 47.1125749,16.233376 C45.201188,16.233376 43.5245581,16.7653399 42.0826347,17.8292839 C41.177241,18.4942488 40.338926,19.666232 39.5676647,21.3452685 L54.4311377,21.3452685 Z M79.7317365,10.4731458 C82.3137854,10.4731458 84.7407072,11.113165 87.0125749,12.3932225 C89.2844425,13.6732801 91.0574787,15.410475 92.3317365,17.6048593 C93.6059944,19.7992437 94.2431138,22.1681459 94.2431138,24.7116368 C94.2431138,27.2717519 93.6018028,29.6655899 92.3191617,31.8932225 C91.0365205,34.1208551 89.2886338,35.862206 87.0754491,37.1173274 C84.8622644,38.3724487 82.4227678,39 79.7568862,39 C75.8335133,39 72.484445,37.6160624 69.7095808,34.8481458 C66.9347167,32.0802291 65.5473054,28.7180505 65.5473054,24.761509 C65.5473054,20.5223573 67.1149544,16.989784 70.2502994,14.1636829 C73.0000137,11.7033125 76.1604612,10.4731458 79.7317365,10.4731458 Z M79.8323353,16.8817136 C77.7029834,16.8817136 75.9299472,17.61732 74.5131737,19.088555 C73.0964001,20.55979 72.388024,22.4424438 72.388024,24.7365729 C72.388024,27.0971985 73.088017,29.0089441 74.488024,30.471867 C75.888031,31.9347899 77.6610671,32.6662404 79.8071856,32.6662404 C81.9533041,32.6662404 83.738915,31.926478 85.1640719,30.4469309 C86.5892287,28.9673839 87.3017964,27.0639503 87.3017964,24.7365729 C87.3017964,22.4091955 86.6018034,20.5182298 85.2017964,19.0636189 C83.8017894,17.6090081 82.0119869,16.8817136 79.8323353,16.8817136 Z M102.542515,0 C103.749707,0 104.785026,0.432220742 105.648503,1.29667519 C106.51198,2.16112964 106.943713,3.20843375 106.943713,4.43861893 C106.943713,5.65217998 106.516172,6.68701618 105.661078,7.54315857 C104.805984,8.39930096 103.783239,8.82736573 102.592814,8.82736573 C101.368856,8.82736573 100.325154,8.39098902 99.4616766,7.51822251 C98.5981993,6.64545599 98.1664671,5.58568398 98.1664671,4.33887468 C98.1664671,3.14193775 98.5940077,2.11956946 99.4491018,1.27173913 C100.304196,0.423908804 101.335323,0 102.542515,0 Z M99.097006,11.1713555 L105.988024,11.1713555 L105.988024,38.3017903 L99.097006,38.3017903 L99.097006,11.1713555 Z M112.2,11.1713555 L119.040719,11.1713555 L119.040719,13.9392583 C120.600008,12.6425766 122.012569,11.7407314 123.278443,11.2336957 C124.544318,10.7266599 125.839514,10.4731458 127.164072,10.4731458 C129.880253,10.4731458 132.185619,11.4123947 134.08024,13.2909207 C135.673062,14.8868366 136.469461,17.2474268 136.469461,20.3727621 L136.469461,38.3017903 L129.679042,38.3017903 L129.679042,26.407289 C129.679042,23.1655848 129.532337,21.012793 129.238922,19.9488491 C128.945508,18.8849052 128.434135,18.0744913 127.70479,17.5175831 C126.975445,16.960675 126.074257,16.6822251 125.001198,16.6822251 C123.609574,16.6822251 122.414975,17.1435376 121.417365,18.0661765 C120.419755,18.9888154 119.728146,20.2646977 119.342515,21.8938619 C119.141316,22.7416922 119.040719,24.5786304 119.040719,27.4047315 L119.040719,38.3017903 L112.2,38.3017903 L112.2,11.1713555 Z M143.938922,1.17199488 L150.779641,1.17199488 L150.779641,11.1713555 L154.853892,11.1713555 L154.853892,17.0313299 L150.779641,17.0313299 L150.779641,38.3017903 L143.938922,38.3017903 L143.938922,17.0313299 L140.417964,17.0313299 L140.417964,11.1713555 L143.938922,11.1713555 L143.938922,1.17199488 Z M185.964072,26.7065217 L163.907784,26.7065217 C164.226349,28.6349201 165.077239,30.1684726 166.460479,31.3072251 C167.843719,32.4459776 169.608373,33.0153453 171.754491,33.0153453 C174.319773,33.0153453 176.524542,32.125968 178.368862,30.3471867 L184.153293,33.0402813 C182.71137,35.0684245 180.984441,36.5687292 178.972455,37.5412404 C176.960469,38.5137517 174.571271,39 171.80479,39 C167.512553,39 164.01678,37.6576221 161.317365,34.9728261 C158.617951,32.2880301 157.268263,28.9258514 157.268263,24.8861893 C157.268263,20.7467824 158.613759,17.3097963 161.30479,14.5751279 C163.995822,11.8404595 167.37004,10.4731458 171.427545,10.4731458 C175.736548,10.4731458 179.240705,11.8404595 181.94012,14.5751279 C184.639534,17.3097963 185.989222,20.9213331 185.989222,25.4098465 L185.964072,26.7065217 Z M179.073054,21.3452685 C178.620357,19.8324733 177.727552,18.6023065 176.394611,17.6547315 C175.06167,16.7071564 173.514979,16.233376 171.754491,16.233376 C169.843104,16.233376 168.166474,16.7653399 166.724551,17.8292839 C165.819157,18.4942488 164.980842,19.666232 164.209581,21.3452685 L179.073054,21.3452685 Z M189.912575,11.1713555 L195.797605,11.1713555 L195.797605,14.5875959 C196.434734,13.2410419 197.281432,12.2186736 198.337725,11.5204604 C199.394017,10.8222471 200.550892,10.4731458 201.808383,10.4731458 C202.69701,10.4731458 203.62754,10.70588 204.6,11.1713555 L202.462275,17.0313299 C201.657481,16.6323509 200.995212,16.4328645 200.475449,16.4328645 C199.419156,16.4328645 198.526351,17.0811956 197.797006,18.3778772 C197.067661,19.6745589 196.702994,22.2180117 196.702994,26.008312 L196.728144,27.3299233 L196.728144,38.3017903 L189.912575,38.3017903 L189.912575,11.1713555 Z M228.215569,11.1713555 L235.056287,11.1713555 L235.056287,38.3017903 L228.215569,38.3017903 L228.215569,35.4341432 C226.874245,36.6975766 225.528749,37.6077338 224.179042,38.1646419 C222.829335,38.7215501 221.366475,39 219.790419,39 C216.252677,39 213.192827,37.6409982 210.610778,34.922954 C208.02873,32.2049097 206.737725,28.8261072 206.737725,24.786445 C206.737725,20.5971658 207.986814,17.1643356 210.48503,14.4878517 C212.983246,11.8113677 216.017946,10.4731458 219.589222,10.4731458 C221.232344,10.4731458 222.774843,10.7806875 224.216766,11.3957801 C225.65869,12.0108726 226.991611,12.9334977 228.215569,14.1636829 L228.215569,11.1713555 Z M220.997605,16.7570332 C218.868253,16.7570332 217.099408,17.5009516 215.691018,18.9888107 C214.282628,20.4766698 213.578443,22.3842595 213.578443,24.7116368 C213.578443,27.0556383 214.295202,28.9840078 215.728743,30.4968031 C217.162283,32.0095984 218.926936,32.7659847 221.022754,32.7659847 C223.18564,32.7659847 224.979634,32.0220663 226.40479,30.5342072 C227.829947,29.0463481 228.542515,27.0971988 228.542515,24.6867008 C228.542515,22.3260752 227.829947,20.4143296 226.40479,18.9514066 C224.979634,17.4884837 223.177256,16.7570332 220.997605,16.7570332 Z M268.782036,16.657289 L263.073054,19.7742967 C261.999995,18.6604804 260.939526,17.8874702 259.891617,17.455243 C258.843707,17.0230157 257.615576,16.8069054 256.207186,16.8069054 C253.641903,16.8069054 251.567074,17.5674476 249.982635,19.088555 C248.398196,20.6096623 247.605988,22.5588116 247.605988,24.9360614 C247.605988,27.2468146 248.368855,29.1336244 249.894611,30.5965473 C251.420367,32.0594702 253.42394,32.7909207 255.905389,32.7909207 C258.973668,32.7909207 261.362866,31.7519285 263.073054,29.673913 L268.48024,33.3395141 C265.546093,37.1131902 261.404817,39 256.056287,39 C251.244287,39 247.476062,37.5869707 244.751497,34.7608696 C242.026932,31.9347685 240.664671,28.6266174 240.664671,24.8363171 C240.664671,22.2097055 241.326939,19.7909318 242.651497,17.5799233 C243.976055,15.3689148 245.824539,13.6317199 248.197006,12.3682864 C250.569473,11.104853 253.22274,10.4731458 256.156886,10.4731458 C258.873067,10.4731458 261.312564,11.0092657 263.475449,12.0815217 C265.638334,13.1537777 267.407179,14.6790182 268.782036,16.657289 Z M275.798802,1.17199488 L282.639521,1.17199488 L282.639521,11.1713555 L286.713772,11.1713555 L286.713772,17.0313299 L282.639521,17.0313299 L282.639521,38.3017903 L275.798802,38.3017903 L275.798802,17.0313299 L272.277844,17.0313299 L272.277844,11.1713555 L275.798802,11.1713555 L275.798802,1.17199488 Z M293.101796,0 C294.308988,0 295.344307,0.432220742 296.207784,1.29667519 C297.071262,2.16112964 297.502994,3.20843375 297.502994,4.43861893 C297.502994,5.65217998 297.075453,6.68701618 296.220359,7.54315857 C295.365265,8.39930096 294.342521,8.82736573 293.152096,8.82736573 C291.928138,8.82736573 290.884435,8.39098902 290.020958,7.51822251 C289.157481,6.64545599 288.725749,5.58568398 288.725749,4.33887468 C288.725749,3.14193775 289.153289,2.11956946 290.008383,1.27173913 C290.863477,0.423908804 291.894605,0 293.101796,0 Z M289.656287,11.1713555 L296.547305,11.1713555 L296.547305,38.3017903 L289.656287,38.3017903 L289.656287,11.1713555 Z M315.610778,10.4731458 C318.192827,10.4731458 320.619749,11.113165 322.891617,12.3932225 C325.163484,13.6732801 326.936521,15.410475 328.210778,17.6048593 C329.485036,19.7992437 330.122156,22.1681459 330.122156,24.7116368 C330.122156,27.2717519 329.480845,29.6655899 328.198204,31.8932225 C326.915562,34.1208551 325.167676,35.862206 322.954491,37.1173274 C320.741306,38.3724487 318.30181,39 315.635928,39 C311.712555,39 308.363487,37.6160624 305.588623,34.8481458 C302.813759,32.0802291 301.426347,28.7180505 301.426347,24.761509 C301.426347,20.5223573 302.993996,16.989784 306.129341,14.1636829 C308.879056,11.7033125 312.039503,10.4731458 315.610778,10.4731458 Z M315.711377,16.8817136 C313.582025,16.8817136 311.808989,17.61732 310.392216,19.088555 C308.975442,20.55979 308.267066,22.4424438 308.267066,24.7365729 C308.267066,27.0971985 308.967059,29.0089441 310.367066,30.471867 C311.767073,31.9347899 313.540109,32.6662404 315.686228,32.6662404 C317.832346,32.6662404 319.617957,31.926478 321.043114,30.4469309 C322.468271,28.9673839 323.180838,27.0639503 323.180838,24.7365729 C323.180838,22.4091955 322.480845,20.5182298 321.080838,19.0636189 C319.680831,17.6090081 317.891029,16.8817136 315.711377,16.8817136 Z M335.730539,11.1713555 L342.571257,11.1713555 L342.571257,13.9392583 C344.130547,12.6425766 345.543107,11.7407314 346.808982,11.2336957 C348.074857,10.7266599 349.370053,10.4731458 350.694611,10.4731458 C353.410792,10.4731458 355.716158,11.4123947 357.610778,13.2909207 C359.203601,14.8868366 360,17.2474268 360,20.3727621 L360,38.3017903 L353.209581,38.3017903 L353.209581,26.407289 C353.209581,23.1655848 353.062876,21.012793 352.769461,19.9488491 C352.476046,18.8849052 351.964674,18.0744913 351.235329,17.5175831 C350.505984,16.960675 349.604796,16.6822251 348.531737,16.6822251 C347.140113,16.6822251 345.945514,17.1435376 344.947904,18.0661765 C343.950294,18.9888154 343.258685,20.2646977 342.873054,21.8938619 C342.671855,22.7416922 342.571257,24.5786304 342.571257,27.4047315 L342.571257,38.3017903 L335.730539,38.3017903 L335.730539,11.1713555 Z" id="neointeraction-copy" fill="#F6F8FA"></path>
                    <path d="M20.7449393,57.6850153 L27.3522267,57.6850153 L27.3522267,94.5779817 L20.7449393,94.5779817 L20.7449393,91.764526 C19.4493862,93.0040837 18.1498041,93.8970411 16.8461538,94.4434251 C15.5425036,94.9898091 14.1295623,95.2629969 12.6072874,95.2629969 C9.19026632,95.2629969 6.23483028,93.9296769 3.74089069,91.2629969 C1.24695109,88.5963169 0,85.2813654 0,81.3180428 C0,77.2079305 1.20646567,73.8399724 3.6194332,71.2140673 C6.03240073,68.5881622 8.96354551,67.2752294 12.4129555,67.2752294 C14.0000079,67.2752294 15.4898716,67.5769593 16.8825911,68.1804281 C18.2753106,68.783897 19.5627471,69.6890867 20.7449393,70.8960245 L20.7449393,57.6850153 Z M13.7732794,73.440367 C11.7165889,73.440367 10.008104,74.1702272 8.64777328,75.6299694 C7.28744259,77.0897117 6.60728745,78.9612526 6.60728745,81.2446483 C6.60728745,83.544354 7.29958822,85.4362821 8.68421053,86.9204893 C10.0688328,88.4046965 11.7732692,89.146789 13.7975709,89.146789 C15.8866501,89.146789 17.6194263,88.4169288 18.9959514,86.9571865 C20.3724765,85.4974443 21.0607287,83.5851291 21.0607287,81.2201835 C21.0607287,78.9041678 20.3724765,77.0285495 18.9959514,75.5932722 C17.6194263,74.1579949 15.878553,73.440367 13.7732794,73.440367 Z M60.534413,83.2018349 L39.2307692,83.2018349 C39.5384631,85.0937913 40.3603172,86.5983634 41.6963563,87.7155963 C43.0323953,88.8328292 44.7368317,89.3914373 46.8097166,89.3914373 C49.2874618,89.3914373 51.4169951,88.518867 53.1983806,86.7737003 L58.7854251,89.4159021 C57.3927056,91.4057184 55.7247061,92.8776711 53.7813765,93.8318043 C51.838047,94.7859375 49.5303777,95.2629969 46.8582996,95.2629969 C42.7125299,95.2629969 39.3360454,93.9459867 36.7287449,91.3119266 C34.1214445,88.6778665 32.8178138,85.3792247 32.8178138,81.4159021 C32.8178138,77.3547198 34.1173959,73.9826842 36.7165992,71.2996942 C39.3158025,68.6167042 42.5748792,67.2752294 46.4939271,67.2752294 C50.6558913,67.2752294 54.0404728,68.6167042 56.6477733,71.2996942 C59.2550738,73.9826842 60.5587045,77.5259719 60.5587045,81.9296636 L60.534413,83.2018349 Z M53.8785425,77.941896 C53.4412934,76.4576888 52.5789538,75.2507692 51.291498,74.3211009 C50.0040421,73.3914327 48.51013,72.9266055 46.8097166,72.9266055 C44.9635535,72.9266055 43.3441365,73.4485167 41.951417,74.4923547 C41.0769187,75.1447535 40.2672102,76.2945891 39.5222672,77.941896 L53.8785425,77.941896 Z M82.0809717,71.6788991 L77.9757085,75.8134557 C76.307684,74.1498388 74.7935291,73.3180428 73.4331984,73.3180428 C72.6882554,73.3180428 72.1052653,73.4770626 71.6842105,73.795107 C71.2631558,74.1131514 71.0526316,74.5086623 71.0526316,74.9816514 C71.0526316,75.3404707 71.1862335,75.6707426 71.4534413,75.9724771 C71.7206491,76.2742115 72.3805615,76.686032 73.4331984,77.2079511 L75.8623482,78.4311927 C78.4210654,79.7033703 80.1781329,80.9999934 81.1336032,82.3211009 C82.0890736,83.6422084 82.5668016,85.1916323 82.5668016,86.969419 C82.5668016,89.3343645 81.7044621,91.3078412 79.9797571,92.8899083 C78.2550521,94.4719753 75.9433343,95.2629969 73.0445344,95.2629969 C69.1902641,95.2629969 66.1133718,93.7461925 63.8137652,90.7125382 L67.8947368,86.235474 C68.6720687,87.1488323 69.5829907,87.8868473 70.6275304,88.4495413 C71.67207,89.0122352 72.5991862,89.293578 73.4089069,89.293578 C74.2834052,89.293578 74.9878516,89.0815516 75.5222672,88.6574924 C76.0566828,88.2334331 76.3238866,87.7441414 76.3238866,87.1896024 C76.3238866,86.1620744 75.3603335,85.1590263 73.4331984,84.1804281 L71.1983806,83.0550459 C66.9230555,80.8858199 64.7854251,78.1702508 64.7854251,74.9082569 C64.7854251,72.8042708 65.5910851,71.0061237 67.2024291,69.5137615 C68.8137732,68.0213993 70.8744814,67.2752294 73.3846154,67.2752294 C75.1012232,67.2752294 76.7165916,67.6544305 78.2307692,68.412844 C79.7449468,69.1712576 81.0283348,70.2599317 82.0809717,71.6788991 Z M90.388664,57 C91.5546617,57 92.5546517,57.4240528 93.388664,58.2721713 C94.2226762,59.1202897 94.6396761,60.1478023 94.6396761,61.3547401 C94.6396761,62.5453678 94.2267248,63.5606482 93.4008097,64.4006116 C92.5748947,65.240575 91.5870503,65.6605505 90.437247,65.6605505 C89.2550548,65.6605505 88.2469677,65.2324202 87.4129555,64.3761468 C86.5789432,63.5198734 86.1619433,62.4801284 86.1619433,61.2568807 C86.1619433,60.0825629 86.5748947,59.0795149 87.4008097,58.2477064 C88.2267248,57.415898 89.2226662,57 90.388664,57 Z M87.0607287,67.9602446 L93.7165992,67.9602446 L93.7165992,94.5779817 L87.0607287,94.5779817 L87.0607287,67.9602446 Z M119.246964,67.9602446 L125.854251,67.9602446 L125.854251,90.7614679 C125.854251,95.2630194 124.955475,98.5738936 123.157895,100.69419 C120.744927,103.564744 117.109336,105 112.251012,105 C109.659906,105 107.48179,104.673806 105.716599,104.021407 C103.951408,103.369008 102.461545,102.410812 101.246964,101.146789 C100.032383,99.8827664 99.1336062,98.3455748 98.5506073,96.5351682 L105.862348,96.5351682 C106.510125,97.2854268 107.344124,97.8521897 108.364372,98.235474 C109.38462,98.6187583 110.591086,98.8103976 111.983806,98.8103976 C113.765191,98.8103976 115.198375,98.5331322 116.283401,97.9785933 C117.368426,97.4240543 118.133601,96.7064264 118.578947,95.8256881 C119.024294,94.9449497 119.246964,93.4281453 119.246964,91.2752294 C118.080966,92.4495472 116.858306,93.2935754 115.578947,93.8073394 C114.299589,94.3211035 112.850211,94.5779817 111.230769,94.5779817 C107.684193,94.5779817 104.688271,93.2895134 102.242915,90.7125382 C99.7975586,88.1355631 98.5748988,84.8736181 98.5748988,80.9266055 C98.5748988,76.7023234 99.8704324,73.3099007 102.461538,70.7492355 C104.809728,68.4332198 107.61132,67.2752294 110.866397,67.2752294 C112.388672,67.2752294 113.825904,67.5565721 115.178138,68.1192661 C116.530371,68.68196 117.886633,69.6075369 119.246964,70.8960245 L119.246964,67.9602446 Z M112.37247,73.5137615 C110.28339,73.5137615 108.558711,74.2191571 107.198381,75.6299694 C105.83805,77.0407818 105.157895,78.8144643 105.157895,80.9510703 C105.157895,83.1692262 105.854244,84.9877605 107.246964,86.4067278 C108.639683,87.8256952 110.388653,88.5351682 112.493927,88.5351682 C114.550618,88.5351682 116.246957,87.8420049 117.582996,86.4556575 C118.919035,85.0693101 119.587045,83.2507758 119.587045,81 C119.587045,78.7818442 118.914986,76.9796196 117.57085,75.5932722 C116.226714,74.2069248 114.493938,73.5137615 112.37247,73.5137615 Z M132.558704,67.9602446 L139.165992,67.9602446 L139.165992,70.675841 C140.672072,69.4036634 142.036431,68.5188608 143.259109,68.0214067 C144.481787,67.5239527 145.732787,67.2752294 147.012146,67.2752294 C149.635641,67.2752294 151.862339,68.1967288 153.692308,70.0397554 C155.230777,71.6055124 156,73.9214933 156,76.9877676 L156,94.5779817 L149.441296,94.5779817 L149.441296,82.9082569 C149.441296,79.7278128 149.299597,77.6157035 149.016194,76.5718654 C148.732792,75.5280274 148.23887,74.7329283 147.534413,74.1865443 C146.829956,73.6401604 145.959519,73.3669725 144.923077,73.3669725 C143.578941,73.3669725 142.425106,73.8195673 141.461538,74.7247706 C140.497971,75.6299739 139.829961,76.8817453 139.45749,78.4801223 C139.263157,79.3119308 139.165992,81.1141554 139.165992,83.8868502 L139.165992,94.5779817 L132.558704,94.5779817 L132.558704,67.9602446 Z" id="design" fill="#FFFFFF"></path>
                </g>
            </g>
        </g>
    </g>
</svg>