<?xml version="1.0" encoding="UTF-8"?>
<svg width="20px" height="20px" viewBox="0 0 30 24" version="1.1" xmlns="http://www.w3.org/2000/svg" xmlns:xlink="http://www.w3.org/1999/xlink">
    <!-- Generator: Sketch 48.2 (47327) - http://www.bohemiancoding.com/sketch -->
    <title>medium-1</title>
    <desc>Created with Sketch.</desc>
    <defs></defs>
    <g id="Home" stroke="none" stroke-width="1" fill="none" fill-rule="evenodd" transform="translate(-931.000000, -2000.000000)">
        <g id="medium-1" transform="translate(931.000000, 2000.000000)" fill="#FFFFFF" fill-rule="nonzero">
            <path d="M30,3.53687576 L28.8134766,3.53687576 C28.3729688,3.53687576 27.75,4.17907207 27.75,4.59011087 L27.75,19.4905337 C27.75,19.9020462 28.3729688,20.4631242 28.8134766,20.4631242 L30,20.4631242 L30,24 L19.2500391,24 L19.2500391,20.4631242 L21.5000391,20.4631242 L21.5000391,4.79995263 L21.3897656,4.79995263 L16.1355469,24 L12.0677344,24 L6.88125,4.79995263 L6.75,4.79995263 L6.75,20.4631242 L9,20.4631242 L9,24 L0,24 L0,20.4631242 L1.15253906,20.4631242 C1.62703125,20.4631242 2.25,19.9020462 2.25,19.4905337 L2.25,4.58999245 C2.25,4.17895365 1.62703125,3.53675734 1.15253906,3.53675734 L0,3.53675734 L0,0 L11.2539844,0 L14.9489063,13.8946745 L15.0508594,13.8946745 L18.7796484,0 L30,0 L30,3.53687576" id="Shape"></path>
        </g>
    </g>
</svg>