<?xml version="1.0" encoding="UTF-8" standalone="no"?>
<svg width="28px" height="23px" viewBox="0 0 28 23" version="1.1" xmlns="http://www.w3.org/2000/svg" xmlns:xlink="http://www.w3.org/1999/xlink">
    <!-- Generator: Sketch 48.2 (47327) - http://www.bohemiancoding.com/sketch -->
    <title>“ copy 2</title>
    <desc>Created with Sketch.</desc>
    <defs></defs>
    <g id="prjt1" stroke="none" stroke-width="1" fill="none" fill-rule="evenodd" transform="translate(-213.000000, -1142.000000)">
        <path d="M214.555556,1162.4642 C213.518513,1161.17366 213,1159.74486 213,1158.17778 C213,1156.38024 213.357198,1154.38684 214.071605,1152.19753 C214.786012,1150.00822 215.684768,1147.98026 216.767901,1146.11358 C217.851034,1144.2469 218.899583,1142.87572 219.91358,1142 L224.269136,1142 C223.393411,1143.61318 222.667493,1145.51439 222.091358,1147.7037 C221.515223,1149.89302 221.18107,1152.04773 221.088889,1154.1679 C221.826341,1154.58272 222.483125,1155.25102 223.059259,1156.17284 C223.635394,1157.09465 223.923457,1157.99341 223.923457,1158.86914 C223.923457,1160.34404 223.404943,1161.63456 222.367901,1162.74074 C221.330859,1163.84692 220.028814,1164.4 218.461728,1164.4 C216.894642,1164.4 215.592598,1163.75474 214.555556,1162.4642 Z M230.387654,1162.4642 C229.350612,1161.17366 228.832099,1159.74486 228.832099,1158.17778 C228.832099,1156.38024 229.189297,1154.38684 229.903704,1152.19753 C230.618111,1150.00822 231.516867,1147.98026 232.6,1146.11358 C233.683133,1144.2469 234.731682,1142.87572 235.745679,1142 L240.101235,1142 C239.22551,1143.61318 238.499591,1145.51439 237.923457,1147.7037 C237.347322,1149.89302 237.013169,1152.04773 236.920988,1154.1679 C237.65844,1154.58272 238.315223,1155.25102 238.891358,1156.17284 C239.467493,1157.09465 239.755556,1157.99341 239.755556,1158.86914 C239.755556,1160.34404 239.237042,1161.63456 238.2,1162.74074 C237.162958,1163.84692 235.860913,1164.4 234.293827,1164.4 C232.726741,1164.4 231.424697,1163.75474 230.387654,1162.4642 Z" id="“-copy-2" fill="#BE0315"></path>
    </g>
</svg>