<?xml version="1.0" encoding="UTF-8"?>
<svg width="85px" height="67px" viewBox="0 0 85 67" version="1.1" xmlns="http://www.w3.org/2000/svg" xmlns:xlink="http://www.w3.org/1999/xlink">
    <!-- Generator: Sketch 48.2 (47327) - http://www.bohemiancoding.com/sketch -->
    <title>“ copy</title>
    <desc>Created with Sketch.</desc>
    <defs></defs>
    <g id="Blog-Detail" stroke="none" stroke-width="1" fill="none" fill-rule="evenodd" transform="translate(-255.000000, -1460.000000)">
        <path d="M278.403933,1460 L295.892587,1470.13985 C288.519882,1481.7772 284.704994,1493.58551 284.447806,1505.56513 L284.447806,1527 L255,1527 L255,1507.74713 C255,1499.70366 257.250356,1491.12552 261.751135,1482.01245 C266.251914,1472.89938 271.802791,1465.56197 278.403933,1460 Z M322.511346,1460 L340,1470.13985 C332.627295,1481.7772 328.812407,1493.58551 328.555219,1505.56513 L328.555219,1527 L299.107413,1527 L299.107413,1507.74713 C299.107413,1499.70366 301.357769,1491.12552 305.858548,1482.01245 C310.359327,1472.89938 315.910204,1465.56197 322.511346,1460 Z" id="“-copy" fill="#DBDBDB"></path>
    </g>
</svg>