<svg width="42" height="42" viewBox="0 0 42 42" fill="none" xmlns="http://www.w3.org/2000/svg">
<mask id="path-1-inside-1_729_966" fill="white">
<path d="M21 24.375H4.125C3.22989 24.375 2.37145 24.0194 1.73851 23.3865C1.10558 22.7535 0.75 21.8951 0.75 21V4.125C0.75 3.22989 1.10558 2.37145 1.73851 1.73851C2.37145 1.10558 3.22989 0.75 4.125 0.75H21C21.8951 0.75 22.7535 1.10558 23.3865 1.73851C24.0194 2.37145 24.375 3.22989 24.375 4.125V21C24.375 21.8951 24.0194 22.7535 23.3865 23.3865C22.7535 24.0194 21.8951 24.375 21 24.375ZM4.125 4.125V21H21V4.125H4.125ZM37.875 14.25V21H31.125V14.25H37.875ZM37.875 10.875H31.125C30.2299 10.875 29.3715 11.2306 28.7385 11.8635C28.1056 12.4965 27.75 13.3549 27.75 14.25V21C27.75 21.8951 28.1056 22.7535 28.7385 23.3865C29.3715 24.0194 30.2299 24.375 31.125 24.375H37.875C38.7701 24.375 39.6285 24.0194 40.2615 23.3865C40.8944 22.7535 41.25 21.8951 41.25 21V14.25C41.25 13.3549 40.8944 12.4965 40.2615 11.8635C39.6285 11.2306 38.7701 10.875 37.875 10.875ZM37.875 31.125V37.875H31.125V31.125H37.875ZM37.875 27.75H31.125C30.2299 27.75 29.3715 28.1056 28.7385 28.7385C28.1056 29.3715 27.75 30.2299 27.75 31.125V37.875C27.75 38.7701 28.1056 39.6285 28.7385 40.2615C29.3715 40.8944 30.2299 41.25 31.125 41.25H37.875C38.7701 41.25 39.6285 40.8944 40.2615 40.2615C40.8944 39.6285 41.25 38.7701 41.25 37.875V31.125C41.25 30.2299 40.8944 29.3715 40.2615 28.7385C39.6285 28.1056 38.7701 27.75 37.875 27.75ZM21 31.125V37.875H14.25V31.125H21ZM21 27.75H14.25C13.3549 27.75 12.4965 28.1056 11.8635 28.7385C11.2306 29.3715 10.875 30.2299 10.875 31.125V37.875C10.875 38.7701 11.2306 39.6285 11.8635 40.2615C12.4965 40.8944 13.3549 41.25 14.25 41.25H21C21.8951 41.25 22.7535 40.8944 23.3865 40.2615C24.0194 39.6285 24.375 38.7701 24.375 37.875V31.125C24.375 30.2299 24.0194 29.3715 23.3865 28.7385C22.7535 28.1056 21.8951 27.75 21 27.75Z"/>
</mask>
<path d="M21 24.375H4.125C3.22989 24.375 2.37145 24.0194 1.73851 23.3865C1.10558 22.7535 0.75 21.8951 0.75 21V4.125C0.75 3.22989 1.10558 2.37145 1.73851 1.73851C2.37145 1.10558 3.22989 0.75 4.125 0.75H21C21.8951 0.75 22.7535 1.10558 23.3865 1.73851C24.0194 2.37145 24.375 3.22989 24.375 4.125V21C24.375 21.8951 24.0194 22.7535 23.3865 23.3865C22.7535 24.0194 21.8951 24.375 21 24.375ZM4.125 4.125V21H21V4.125H4.125ZM37.875 14.25V21H31.125V14.25H37.875ZM37.875 10.875H31.125C30.2299 10.875 29.3715 11.2306 28.7385 11.8635C28.1056 12.4965 27.75 13.3549 27.75 14.25V21C27.75 21.8951 28.1056 22.7535 28.7385 23.3865C29.3715 24.0194 30.2299 24.375 31.125 24.375H37.875C38.7701 24.375 39.6285 24.0194 40.2615 23.3865C40.8944 22.7535 41.25 21.8951 41.25 21V14.25C41.25 13.3549 40.8944 12.4965 40.2615 11.8635C39.6285 11.2306 38.7701 10.875 37.875 10.875ZM37.875 31.125V37.875H31.125V31.125H37.875ZM37.875 27.75H31.125C30.2299 27.75 29.3715 28.1056 28.7385 28.7385C28.1056 29.3715 27.75 30.2299 27.75 31.125V37.875C27.75 38.7701 28.1056 39.6285 28.7385 40.2615C29.3715 40.8944 30.2299 41.25 31.125 41.25H37.875C38.7701 41.25 39.6285 40.8944 40.2615 40.2615C40.8944 39.6285 41.25 38.7701 41.25 37.875V31.125C41.25 30.2299 40.8944 29.3715 40.2615 28.7385C39.6285 28.1056 38.7701 27.75 37.875 27.75ZM21 31.125V37.875H14.25V31.125H21ZM21 27.75H14.25C13.3549 27.75 12.4965 28.1056 11.8635 28.7385C11.2306 29.3715 10.875 30.2299 10.875 31.125V37.875C10.875 38.7701 11.2306 39.6285 11.8635 40.2615C12.4965 40.8944 13.3549 41.25 14.25 41.25H21C21.8951 41.25 22.7535 40.8944 23.3865 40.2615C24.0194 39.6285 24.375 38.7701 24.375 37.875V31.125C24.375 30.2299 24.0194 29.3715 23.3865 28.7385C22.7535 28.1056 21.8951 27.75 21 27.75Z" fill="white"/>
<path d="M0.75 21H-32.25H0.75ZM4.125 0.75V-32.25V0.75ZM21 0.75V-32.25V0.75ZM4.125 4.125V-28.875H-28.875V4.125H4.125ZM4.125 21H-28.875V54H4.125V21ZM21 21V54H54V21H21ZM21 4.125H54V-28.875H21V4.125ZM37.875 14.25H70.875V-18.75H37.875V14.25ZM37.875 21V54H70.875V21H37.875ZM31.125 21H-1.875V54H31.125V21ZM31.125 14.25V-18.75H-1.875V14.25H31.125ZM37.875 31.125H70.875V-1.875H37.875V31.125ZM37.875 37.875V70.875H70.875V37.875H37.875ZM31.125 37.875H-1.875V70.875H31.125V37.875ZM31.125 31.125V-1.875H-1.875V31.125H31.125ZM21 31.125H54V-1.875H21V31.125ZM21 37.875V70.875H54V37.875H21ZM14.25 37.875H-18.75V70.875H14.25V37.875ZM14.25 31.125V-1.875H-18.75V31.125H14.25ZM21 -8.625H4.125V57.375H21V-8.625ZM4.125 -8.625C11.9821 -8.625 19.5173 -5.50379 25.073 0.0519609L-21.596 46.721C-14.7744 53.5426 -5.52226 57.375 4.125 57.375V-8.625ZM25.073 0.0519609C30.6288 5.60772 33.75 13.143 33.75 21H-32.25C-32.25 30.6473 -28.4176 39.8994 -21.596 46.721L25.073 0.0519609ZM33.75 21V4.125H-32.25V21H33.75ZM33.75 4.125C33.75 11.982 30.6288 19.5173 25.073 25.073L-21.596 -21.596C-28.4176 -14.7744 -32.25 -5.52224 -32.25 4.125H33.75ZM25.073 25.073C19.5173 30.6288 11.982 33.75 4.125 33.75V-32.25C-5.52224 -32.25 -14.7744 -28.4176 -21.596 -21.596L25.073 25.073ZM4.125 33.75H21V-32.25H4.125V33.75ZM21 33.75C13.143 33.75 5.60772 30.6288 0.0519609 25.073L46.721 -21.596C39.8994 -28.4176 30.6473 -32.25 21 -32.25V33.75ZM0.0519609 25.073C-5.50379 19.5173 -8.625 11.9821 -8.625 4.125H57.375C57.375 -5.52226 53.5426 -14.7744 46.721 -21.596L0.0519609 25.073ZM-8.625 4.125V21H57.375V4.125H-8.625ZM-8.625 21C-8.625 13.1429 -5.50379 5.60771 0.0519609 0.0519609L46.721 46.721C53.5426 39.8994 57.375 30.6473 57.375 21H-8.625ZM0.0519609 0.0519609C5.60771 -5.50379 13.1429 -8.625 21 -8.625V57.375C30.6473 57.375 39.8994 53.5426 46.721 46.721L0.0519609 0.0519609ZM-28.875 4.125V21H37.125V4.125H-28.875ZM4.125 54H21V-12H4.125V54ZM54 21V4.125H-12V21H54ZM21 -28.875H4.125V37.125H21V-28.875ZM4.875 14.25V21H70.875V14.25H4.875ZM37.875 -12H31.125V54H37.875V-12ZM64.125 21V14.25H-1.875V21H64.125ZM31.125 47.25H37.875V-18.75H31.125V47.25ZM37.875 -22.125H31.125V43.875H37.875V-22.125ZM31.125 -22.125C21.4777 -22.125 12.2256 -18.2926 5.40399 -11.471L52.073 35.198C46.5173 40.7538 38.9821 43.875 31.125 43.875V-22.125ZM5.40399 -11.471C-1.41763 -4.64939 -5.25 4.60273 -5.25 14.25H60.75C60.75 22.1071 57.6288 29.6423 52.073 35.198L5.40399 -11.471ZM-5.25 14.25V21H60.75V14.25H-5.25ZM-5.25 21C-5.25 30.6473 -1.41763 39.8994 5.40399 46.721L52.073 0.0519609C57.6288 5.60771 60.75 13.1429 60.75 21H-5.25ZM5.40399 46.721C12.2256 53.5426 21.4777 57.375 31.125 57.375V-8.625C38.9821 -8.625 46.5173 -5.50379 52.073 0.0519609L5.40399 46.721ZM31.125 57.375H37.875V-8.625H31.125V57.375ZM37.875 57.375C47.5223 57.375 56.7744 53.5426 63.596 46.721L16.927 0.0519609C22.4827 -5.50379 30.0179 -8.625 37.875 -8.625V57.375ZM63.596 46.721C70.4176 39.8994 74.25 30.6473 74.25 21H8.25C8.25 13.1429 11.3712 5.60771 16.927 0.0519609L63.596 46.721ZM74.25 21V14.25H8.25V21H74.25ZM74.25 14.25C74.25 4.60273 70.4176 -4.64939 63.596 -11.471L16.927 35.198C11.3712 29.6423 8.25 22.1071 8.25 14.25H74.25ZM63.596 -11.471C56.7744 -18.2926 47.5223 -22.125 37.875 -22.125V43.875C30.0179 43.875 22.4827 40.7538 16.927 35.198L63.596 -11.471ZM4.875 31.125V37.875H70.875V31.125H4.875ZM37.875 4.875H31.125V70.875H37.875V4.875ZM64.125 37.875V31.125H-1.875V37.875H64.125ZM31.125 64.125H37.875V-1.875H31.125V64.125ZM37.875 -5.25H31.125V60.75H37.875V-5.25ZM31.125 -5.25C21.4777 -5.25 12.2256 -1.41763 5.40399 5.40399L52.073 52.073C46.5173 57.6288 38.9821 60.75 31.125 60.75V-5.25ZM5.40399 5.40399C-1.41763 12.2256 -5.25 21.4777 -5.25 31.125H60.75C60.75 38.9821 57.6288 46.5173 52.073 52.073L5.40399 5.40399ZM-5.25 31.125V37.875H60.75V31.125H-5.25ZM-5.25 37.875C-5.25 47.5223 -1.41763 56.7744 5.40399 63.596L52.073 16.927C57.6288 22.4827 60.75 30.0179 60.75 37.875H-5.25ZM5.40399 63.596C12.2256 70.4176 21.4777 74.25 31.125 74.25V8.25C38.9821 8.25 46.5173 11.3712 52.073 16.927L5.40399 63.596ZM31.125 74.25H37.875V8.25H31.125V74.25ZM37.875 74.25C47.5223 74.25 56.7744 70.4176 63.596 63.596L16.927 16.927C22.4827 11.3712 30.0179 8.25 37.875 8.25V74.25ZM63.596 63.596C70.4176 56.7744 74.25 47.5223 74.25 37.875H8.25C8.25 30.0179 11.3712 22.4827 16.927 16.927L63.596 63.596ZM74.25 37.875V31.125H8.25V37.875H74.25ZM74.25 31.125C74.25 21.4777 70.4176 12.2256 63.596 5.40399L16.927 52.073C11.3712 46.5173 8.25 38.9821 8.25 31.125H74.25ZM63.596 5.40399C56.7744 -1.41763 47.5223 -5.25 37.875 -5.25V60.75C30.0179 60.75 22.4827 57.6288 16.927 52.073L63.596 5.40399ZM-12 31.125V37.875H54V31.125H-12ZM21 4.875H14.25V70.875H21V4.875ZM47.25 37.875V31.125H-18.75V37.875H47.25ZM14.25 64.125H21V-1.875H14.25V64.125ZM21 -5.25H14.25V60.75H21V-5.25ZM14.25 -5.25C4.60273 -5.25 -4.64939 -1.41763 -11.471 5.40399L35.198 52.073C29.6423 57.6288 22.1071 60.75 14.25 60.75V-5.25ZM-11.471 5.40399C-18.2926 12.2256 -22.125 21.4777 -22.125 31.125H43.875C43.875 38.9821 40.7538 46.5173 35.198 52.073L-11.471 5.40399ZM-22.125 31.125V37.875H43.875V31.125H-22.125ZM-22.125 37.875C-22.125 47.5223 -18.2926 56.7744 -11.471 63.596L35.198 16.927C40.7538 22.4827 43.875 30.0179 43.875 37.875H-22.125ZM-11.471 63.596C-4.64939 70.4176 4.60273 74.25 14.25 74.25V8.25C22.1071 8.25 29.6423 11.3712 35.198 16.927L-11.471 63.596ZM14.25 74.25H21V8.25H14.25V74.25ZM21 74.25C30.6473 74.25 39.8994 70.4176 46.721 63.596L0.0519609 16.927C5.60771 11.3712 13.1429 8.25 21 8.25V74.25ZM46.721 63.596C53.5426 56.7744 57.375 47.5223 57.375 37.875H-8.625C-8.625 30.0179 -5.50379 22.4827 0.0519609 16.927L46.721 63.596ZM57.375 37.875V31.125H-8.625V37.875H57.375ZM57.375 31.125C57.375 21.4777 53.5426 12.2256 46.721 5.40399L0.0519609 52.073C-5.50379 46.5173 -8.625 38.9821 -8.625 31.125H57.375ZM46.721 5.40399C39.8994 -1.41763 30.6473 -5.25 21 -5.25V60.75C13.1429 60.75 5.60771 57.6288 0.0519609 52.073L46.721 5.40399Z" fill="white" mask="url(#path-1-inside-1_729_966)"/>
</svg>
