<?xml version="1.0" encoding="UTF-8"?>
<svg width="24px" height="24px" viewBox="0 0 34 24" version="1.1" xmlns="http://www.w3.org/2000/svg" xmlns:xlink="http://www.w3.org/1999/xlink">
    <!-- Generator: Sketch 48.2 (47327) - http://www.bohemiancoding.com/sketch -->
    <title>youtube</title>
    <desc>Created with Sketch.</desc>
    <defs></defs>
    <g id="Home" stroke="none" stroke-width="1" fill="none" fill-rule="evenodd" transform="translate(-994.000000, -2000.000000)">
        <path d="M1011.75325,2023.96856 L1004.77777,2023.83838 C1002.51926,2023.79301 1000.25513,2023.88357 998.040911,2023.41359 C994.672567,2022.7114 994.433942,2019.26844 994.184246,2016.38045 C993.84019,2012.3203 993.973384,2008.18645 994.622662,2004.16018 C994.989201,2001.90103 996.431682,2000.55297 998.662426,2000.40628 C1006.19283,1999.87391 1013.7733,1999.937 1021.28701,2000.18537 C1022.08055,2000.20814 1022.87955,2000.33259 1023.66202,2000.47424 C1027.52448,2001.16513 1027.61866,2005.06677 1027.86904,2008.35122 C1028.11874,2011.66956 1028.01331,2015.00493 1027.53606,2018.30068 C1027.15317,2021.02947 1026.4206,2023.31782 1023.32903,2023.53873 C1019.45551,2023.8276 1015.67089,2024.06015 1011.78646,2023.98611 C1011.78663,2023.96856 1011.76432,2023.96856 1011.75325,2023.96856 Z M1007.65234,2017.06004 C1010.57137,2015.34977 1013.4347,2013.668 1016.33703,2011.9692 C1013.41255,2010.25893 1010.55467,2008.57717 1007.65234,2006.87837 L1007.65234,2017.06004 Z" id="youtube" fill="#FFFFFF" fill-rule="nonzero"></path>
    </g>
</svg>