<svg width="233" height="195" viewBox="0 0 233 195" fill="none" xmlns="http://www.w3.org/2000/svg">
<g clip-path="url(#clip0_1890_1397)">
<path d="M90.3769 66.0123L0.0643311 34.2559L22.6425 162.561L120.653 193.806L90.3769 66.0123Z" fill="#2F3841"/>
<path d="M90.3769 66.0123L90.6651 65.1943L-1.04825 32.9456L21.8777 163.229L121.851 195.1L91.113 65.3512L90.6651 65.1943L90.3769 66.0123L89.5311 66.2121L119.452 192.513L23.4072 161.895L1.17693 35.5685L90.0886 66.8304L90.3769 66.0123L89.5311 66.2121L90.3769 66.0123Z" fill="#231F20"/>
<path d="M90.1195 66.2643L120.91 194.826L232.774 166.314L199.675 42.7026L90.1195 66.2643Z" fill="#EE4947"/>
<path d="M90.1196 66.2643L90.0004 66.2928L120.817 194.976L232.926 166.402L199.765 42.5575L89.9695 66.1691L90.0004 66.2928L90.1196 66.2643L90.1458 66.3855L199.587 42.8476L232.621 166.223L121 194.674L90.2411 66.2357L90.1196 66.2643L90.1458 66.3855L90.1196 66.2643Z" fill="#231F20"/>
<path d="M215.156 100.244L185.521 100.91C185.521 100.91 181.811 115.069 172.141 117.816C162.471 120.562 157.685 106.732 157.685 106.732L156.315 112.536L96.6211 102.805C96.6211 102.805 97.4764 116.122 90.6341 121.245C90.6341 121.245 155.803 139.342 155.974 138.319C156.146 137.297 154.585 128.997 154.585 128.997C154.585 128.997 160.41 147.422 165.068 158.112C168.527 166.064 173.785 173.331 175.496 178.618C177.206 183.904 181.559 178.855 185.392 178.097C190.653 177.05 232.264 165.293 232.264 165.293L215.156 100.244Z" fill="#2F3841"/>
<path d="M159.805 146.963C158.195 143.591 157.313 139.668 156.846 136.303C156.51 133.879 156.336 131.436 156.324 128.99C156.324 128.807 156.324 128.667 156.324 128.572C156.324 128.524 156.324 128.488 156.324 128.465V128.434L155.455 128.408L154.59 128.474C154.59 128.474 154.59 128.583 154.611 128.778C154.664 129.463 154.793 131.211 154.909 133.03C154.966 133.941 155.021 134.869 155.062 135.691C155.102 136.514 155.126 137.232 155.126 137.701C155.126 137.836 155.126 137.939 155.126 138.034C155.126 138.074 155.126 138.11 155.126 138.134V138.169L155.984 138.312L155.119 138.165L155.95 138.312L155.257 137.836C155.186 137.937 155.139 138.053 155.119 138.174L155.95 138.322L155.257 137.846L155.931 138.322L155.572 137.558C155.444 137.62 155.334 137.714 155.252 137.829L155.927 138.305L155.572 137.558L155.869 138.184L155.779 137.494C155.707 137.505 155.637 137.527 155.572 137.558L155.869 138.184L155.779 137.494L155.829 137.863L155.807 137.492H155.779L155.829 137.86L155.807 137.489V137.603V137.489V137.603V137.489C155.682 137.484 155.557 137.471 155.433 137.449C155.043 137.392 154.426 137.273 153.637 137.104C150.671 136.462 145.244 135.095 138.799 133.409C129.127 130.878 117.141 127.628 107.573 125.009C102.789 123.699 98.6105 122.55 95.6277 121.725L92.1255 120.757L90.8605 120.405L90.6222 121.242L91.144 121.937C92.5941 120.816 93.7846 119.395 94.6342 117.773C95.935 115.395 96.6426 112.684 97.0381 110.239C97.3541 108.252 97.5134 106.242 97.5146 104.23C97.5146 103.314 97.4788 102.763 97.4788 102.748L96.6116 102.803L96.4711 103.659L156.965 113.521L158.521 106.929L157.675 106.729L156.853 107.015C157.637 109.116 158.677 111.113 159.95 112.96C161.022 114.552 162.355 115.953 163.893 117.102C164.704 117.693 165.594 118.167 166.538 118.51C167.531 118.869 168.579 119.053 169.635 119.055C170.561 119.051 171.483 118.918 172.372 118.66C174.967 117.923 177.137 116.427 178.922 114.639C181.597 111.949 183.448 108.589 184.625 105.895C185.315 104.353 185.893 102.763 186.355 101.138L185.514 100.917L185.533 101.785L215.168 101.119L215.149 100.251L214.308 100.473L215.149 100.251L215.13 99.3834L184.84 100.066L184.673 100.698C183.927 103.271 182.893 105.752 181.592 108.094C180.521 110.064 179.183 111.877 177.614 113.481C175.998 115.081 174.104 116.356 171.896 116.981C171.161 117.196 170.4 117.306 169.635 117.309C168.777 117.309 167.926 117.16 167.119 116.869C165.728 116.334 164.47 115.502 163.434 114.432C161.814 112.836 160.575 110.827 159.736 109.221C159.322 108.42 159.021 107.721 158.805 107.224C158.702 106.986 158.626 106.779 158.566 106.646L158.509 106.494V106.458L157.53 103.628L155.66 111.559L95.6825 101.781L95.754 102.867C95.754 102.912 95.7849 103.417 95.7849 104.235C95.7934 106.962 95.4808 109.68 94.8534 112.334C94.4718 113.939 93.8891 115.489 93.119 116.948C92.3891 118.352 91.3634 119.582 90.1124 120.553L88.6996 121.611L90.4007 122.087C90.4007 122.087 105.81 126.367 121.665 130.648C129.594 132.788 137.627 134.928 143.917 136.533C147.059 137.337 149.761 138.005 151.798 138.476C152.818 138.714 153.668 138.897 154.333 139.026C154.664 139.09 154.947 139.142 155.188 139.175C155.395 139.209 155.605 139.229 155.815 139.235H155.96C156.072 139.227 156.183 139.2 156.286 139.156C156.392 139.112 156.489 139.048 156.572 138.968C156.634 138.908 156.687 138.839 156.729 138.764C156.779 138.677 156.813 138.582 156.83 138.483C156.846 138.369 156.856 138.254 156.86 138.138C156.86 138.017 156.86 137.884 156.86 137.732C156.86 137.13 156.825 136.26 156.775 135.275C156.622 132.324 156.317 128.379 156.317 128.379L154.583 128.422C154.583 128.422 154.583 128.643 154.583 129.028C154.6 132.784 154.995 136.528 155.762 140.205C156.293 142.802 157.122 145.329 158.233 147.736" fill="#231F20"/>
<path d="M91.2321 121.411C91.2321 121.411 55.8699 111.725 52.2773 110.061C52.2773 110.061 42.912 110.318 39.0644 111.343C39.0644 111.343 32.1363 116.08 27.1333 114.8C22.1302 113.521 31.879 109.164 33.5467 108.27C35.2144 107.376 40.6034 103.402 40.0888 98.4084C39.5742 93.4145 33.156 84.1948 25.7181 84.7084C18.2802 85.2221 18.4089 88.0377 16.6125 85.4765C14.8162 82.9154 20.9747 80.0974 23.0284 79.969C23.0284 79.969 21.7443 76.6397 27.0046 76.5137C32.265 76.3876 37.1394 78.7443 37.1394 78.7443C37.1394 78.7443 40.6034 76.2164 46.5047 78.0309C52.4059 79.8453 56.2535 94.5702 56.2535 94.5702L96.6211 102.808C96.6211 102.808 97.474 115.216 91.2321 121.411Z" fill="white"/>
<path d="M91.2321 121.411L91.4704 120.574L91.0725 120.465C89.1261 119.93 80.3302 117.511 71.6034 115.031C67.2412 113.792 62.8957 112.536 59.4341 111.495C57.7044 110.974 56.194 110.508 55.0194 110.125C54.4334 109.932 53.9283 109.761 53.5257 109.616C53.123 109.471 52.8109 109.352 52.6513 109.274L52.4679 109.188H52.263C52.263 109.188 49.9044 109.252 47.0646 109.445C45.6351 109.542 44.0985 109.683 42.6595 109.842C41.3757 109.975 40.1023 110.194 38.8476 110.496L38.7023 110.534L38.5784 110.62C37.5416 111.3 36.4572 111.906 35.3336 112.432C34.3389 112.906 33.309 113.304 32.2531 113.621C31.1965 113.946 30.0995 114.122 28.994 114.144C28.4417 114.148 27.8911 114.083 27.3549 113.951C27.1807 113.908 27.0103 113.852 26.845 113.783C26.7434 113.746 26.6502 113.689 26.571 113.616L26.4686 113.69L26.5877 113.649L26.571 113.616L26.4686 113.69L26.5877 113.649L26.4281 113.702H26.5973V113.649L26.4376 113.702H26.5258H26.6068H26.5258H26.6068C26.6152 113.67 26.6272 113.64 26.6425 113.611C26.7484 113.435 26.8792 113.275 27.0309 113.136C27.5054 112.69 28.0224 112.292 28.5747 111.947C29.5276 111.324 30.6783 110.701 31.6718 110.185C32.1745 109.925 32.6414 109.692 33.0345 109.497C33.4276 109.302 33.7493 109.143 33.9684 109.022C34.607 108.665 35.2157 108.257 35.7886 107.802C37.087 106.808 38.2317 105.628 39.1859 104.301C39.7166 103.552 40.1505 102.738 40.4772 101.88C40.8199 100.982 40.9975 100.029 41.0013 99.0672C41.0028 98.8138 40.99 98.5605 40.9632 98.3086C40.8203 96.9436 40.3128 95.4026 39.5338 93.8164C38.2397 91.2457 36.4467 88.9573 34.2591 87.0842C33.1451 86.1286 31.898 85.3396 30.5568 84.7418C29.2219 84.1463 27.7782 83.8322 26.3161 83.8191C26.0969 83.8191 25.8778 83.8191 25.6562 83.8429C23.7325 83.9409 21.8324 84.31 20.0123 84.9392C19.4071 85.1556 18.9378 85.3601 18.5828 85.4933C18.4113 85.5598 18.2707 85.6074 18.1683 85.6359C18.1054 85.6541 18.0407 85.6653 17.9753 85.6692C17.9635 85.6715 17.9514 85.6715 17.9396 85.6692C17.8721 85.6376 17.8121 85.5922 17.7633 85.5361C17.5977 85.3659 17.4478 85.1813 17.3154 84.9843C17.2591 84.9057 17.215 84.8192 17.1843 84.7275C17.16 84.6596 17.1479 84.588 17.1486 84.5159C17.1546 84.3585 17.197 84.2047 17.2725 84.0664C17.52 83.6398 17.8524 83.2683 18.2493 82.9749C19.0466 82.3621 19.9234 81.8597 20.8556 81.4815C21.2781 81.3028 21.7109 81.1496 22.1517 81.0225C22.452 80.9311 22.761 80.8705 23.0737 80.8418L24.2649 80.7681L23.8384 79.6647L23.3191 79.8644L23.8408 79.6742L23.3214 79.8739L23.8432 79.6837L23.7145 79.7312L23.8456 79.6837L23.7169 79.7312L23.8479 79.6837C23.8418 79.6699 23.837 79.6556 23.8337 79.6409C23.7878 79.4792 23.7645 79.3119 23.7646 79.1439C23.7623 78.971 23.7922 78.7993 23.8527 78.6373C23.9049 78.5022 23.9808 78.3774 24.0767 78.2687C24.3232 78.0127 24.6305 77.8229 24.9701 77.717C25.6358 77.5025 26.3313 77.3942 27.0309 77.396H27.4263C29.6382 77.4335 31.8323 77.7973 33.9375 78.4756C34.8047 78.7467 35.5194 79.0178 36.0126 79.2176C36.2508 79.3198 36.4509 79.4031 36.5796 79.4554L36.7225 79.5196L36.7559 79.5362L36.894 79.2509L36.7559 79.5362L36.894 79.2509L36.7559 79.5362L37.2323 79.774L37.654 79.4649L37.4372 79.1676L37.6493 79.4673L37.4325 79.17L37.6445 79.4697C38.0327 79.2206 38.4484 79.0171 38.8834 78.8633C39.9949 78.4477 41.1724 78.2358 42.3593 78.2378C43.679 78.2471 44.9897 78.4548 46.2474 78.8537C46.9146 79.0799 47.5284 79.44 48.0509 79.912C49.1063 80.818 50.1307 82.2092 51.036 83.7811C52.3964 86.1425 53.4995 88.9058 54.2523 91.0674C54.6311 92.1494 54.9218 93.0816 55.1171 93.7427C55.2148 94.0733 55.2887 94.3348 55.3387 94.5132C55.3649 94.6012 55.3816 94.6701 55.3959 94.7153C55.4102 94.7605 55.3959 94.7558 55.4078 94.7676V94.7819L55.5436 95.3051L96.4425 103.65L96.6164 102.801L95.7492 102.86C95.7492 102.912 95.7849 103.452 95.7849 104.33C95.7903 106.964 95.5043 109.591 94.932 112.163C94.5748 113.762 94.0468 115.318 93.3572 116.805C92.6824 118.286 91.7554 119.64 90.6175 120.805L91.2321 121.421L91.4704 120.584L91.2321 121.421L91.8444 122.034C93.1282 120.735 94.1762 119.223 94.9415 117.566C96.0152 115.207 96.743 112.706 97.1024 110.139C97.3912 108.222 97.5369 106.285 97.5384 104.346C97.5384 103.364 97.4979 102.772 97.4979 102.755L97.4526 102.097L56.437 93.7261L56.2631 94.5774L57.1041 94.3586C56.3799 91.7276 55.4757 89.1492 54.3976 86.6418C53.5485 84.6096 52.4838 82.674 51.2219 80.8679C50.6333 80.0376 49.9505 79.278 49.1873 78.604C48.4853 77.9732 47.6593 77.4954 46.762 77.201C45.3383 76.7511 43.855 76.517 42.3617 76.5066C40.9347 76.4957 39.518 76.748 38.1829 77.2509C37.6343 77.4496 37.1125 77.7156 36.6296 78.0428L37.1418 78.7443L37.5206 77.962C36.5246 77.5066 35.4995 77.1173 34.4521 76.7967C32.1799 76.0651 29.8112 75.6756 27.424 75.641C27.2786 75.641 27.1309 75.641 26.9856 75.641C26.1835 75.6466 25.3859 75.7618 24.6151 75.9834C24.1721 76.1157 23.752 76.3145 23.3691 76.5732C22.9494 76.8522 22.6063 77.2317 22.3712 77.6769C22.1361 78.1222 22.0164 78.6192 22.023 79.1225C22.021 79.5153 22.0871 79.9055 22.2184 80.2758L23.0308 79.9643L22.976 79.0987C22.6543 79.124 22.3354 79.1773 22.023 79.258C21.3473 79.4288 20.6867 79.6546 20.048 79.9334C18.9691 80.3855 17.9587 80.9858 17.0462 81.7169C16.614 82.0673 16.2366 82.4801 15.9264 82.9416C15.7764 83.1707 15.6555 83.4175 15.5667 83.6764C15.4732 83.9432 15.4249 84.2237 15.4237 84.5064C15.4238 84.7635 15.4656 85.0189 15.5476 85.2626C15.6306 85.5172 15.7519 85.7578 15.9074 85.976C16.1541 86.3561 16.4569 86.6968 16.8055 86.9867C16.9743 87.1197 17.1633 87.2249 17.3654 87.2982C17.5655 87.3703 17.7768 87.4066 17.9896 87.4052C18.2088 87.4036 18.4268 87.3724 18.6376 87.3125C18.9959 87.2047 19.3475 87.0761 19.6906 86.9272C20.4146 86.6231 21.159 86.3696 21.9182 86.1686C23.1848 85.8504 24.4786 85.6522 25.7825 85.5765C25.9611 85.5622 26.1374 85.5575 26.3185 85.5575C27.9693 85.5896 29.5828 86.0537 30.9976 86.9034C33.2275 88.1733 35.224 90.2327 36.6844 92.4157C37.3775 93.4406 37.968 94.5311 38.4474 95.6713C38.8387 96.5735 39.1009 97.5261 39.2264 98.5012C39.2473 98.6947 39.2576 98.8892 39.2574 99.0838C39.2438 100.096 38.9994 101.091 38.5427 101.995C37.8362 103.353 36.8848 104.571 35.7362 105.585C35.2593 106.022 34.7573 106.43 34.2329 106.808C33.8804 107.068 33.512 107.306 33.1298 107.521C32.9845 107.6 32.7391 107.723 32.4342 107.875C31.9029 108.139 31.1834 108.496 30.4067 108.903C29.1886 109.525 28.0138 110.228 26.8903 111.007C26.3948 111.352 25.9393 111.751 25.5323 112.196C25.3449 112.401 25.1848 112.629 25.0558 112.874C24.9168 113.138 24.8418 113.43 24.8366 113.728C24.8367 113.981 24.898 114.231 25.0153 114.456C25.1034 114.621 25.2177 114.771 25.3536 114.9C25.5554 115.09 25.7872 115.245 26.0398 115.359C26.3184 115.485 26.6079 115.585 26.9046 115.659C27.582 115.824 28.2775 115.904 28.9749 115.897C30.2683 115.876 31.552 115.67 32.7868 115.285C34.4304 114.779 36.0181 114.106 37.5254 113.278C38.7523 112.613 39.5314 112.089 39.5504 112.068L39.0597 111.355L39.2836 112.192C40.4602 111.911 41.654 111.708 42.8572 111.583C44.9538 111.345 47.3219 111.174 49.1587 111.074C50.0783 111.026 50.8669 110.993 51.422 110.972L52.0724 110.948H52.3106L52.2868 110.08L51.9199 110.867C52.1939 110.993 52.5536 111.133 53.023 111.3C53.9021 111.611 55.1409 112.013 56.6538 112.489C61.938 114.125 70.5218 116.567 77.7905 118.605C85.0593 120.643 91.0082 122.246 91.0082 122.248L91.4847 122.379L91.842 122.025L91.2321 121.411Z" fill="#231F20"/>
<path d="M23.007 80.837C25.7599 80.9655 28.4913 81.3864 31.1548 82.0926C33.2108 82.6514 35.3312 83.46 37.0894 84.5919C37.9462 85.1325 38.7273 85.7842 39.4123 86.53C40.0668 87.2502 40.5843 88.0835 40.9394 88.9889L42.5618 88.3659C42.1243 87.2465 41.483 86.2177 40.6702 85.3315C39.2788 83.7977 37.473 82.6657 35.5647 81.8096C32.7058 80.5278 29.5872 79.862 27.1786 79.5029C25.8085 79.2927 24.4277 79.1593 23.0427 79.1034L22.9998 80.837H23.007Z" fill="#231F20"/>
<path d="M36.7273 79.5077C37.9536 80.1997 39.1231 80.9877 40.2246 81.8643C41.1379 82.5791 41.9767 83.3838 42.7286 84.2661C43.4235 85.0523 43.9425 85.9773 44.2509 86.9795L45.9305 86.5348C45.5516 85.2688 44.9013 84.1003 44.0246 83.1104C42.7961 81.7092 41.3925 80.4712 39.8482 79.4268C39.1077 78.9078 38.3412 78.4268 37.5516 77.9857L36.7273 79.5148V79.5077Z" fill="#231F20"/>
<path d="M43.0502 77.396C43.0502 77.396 47.0169 81.5076 47.1456 83.4267L43.0502 77.396Z" fill="black"/>
<path d="M41.1157 97.129C41.1157 99.5856 40.3859 101.987 39.0186 104.03C37.6513 106.072 35.7079 107.664 33.4342 108.604C31.1605 109.544 28.6585 109.79 26.2447 109.311C23.831 108.832 21.6138 107.649 19.8736 105.912C18.1333 104.175 16.9482 101.962 16.4681 99.5522C15.9879 97.1428 16.2344 94.6455 17.1762 92.3759C18.118 90.1064 19.7129 88.1665 21.7592 86.8017C23.8055 85.4369 26.2113 84.7085 28.6723 84.7085C30.3065 84.7082 31.9247 85.0292 33.4346 85.6533C34.9444 86.2774 36.3163 87.1923 37.4718 88.3457C38.6273 89.4991 39.5439 90.8685 40.1691 92.3755C40.7943 93.8826 41.116 95.4979 41.1157 97.129Z" fill="#F57379"/>
<path d="M212.135 104.004C212.135 104.004 197.602 78.9703 196.735 69.0039C195.868 59.0375 185.907 47.3232 172.053 44.4149C172.053 44.4149 170.862 40.7432 168.632 40.4887C166.402 40.2342 169.742 44.4149 167.946 44.4149C166.149 44.4149 154.561 39.4756 145.732 44.7573C136.903 50.0389 129.248 64.4761 129.632 76.8966C130.015 89.3172 136.303 99.5618 135.021 113.007C133.739 126.453 143.231 130.807 149.644 125.171C149.644 125.171 156.956 126.836 159.395 116.719C159.395 116.719 164.398 117.654 163.114 110.189C163.114 110.189 168.887 120.177 171.198 124.148C173.509 128.12 176.201 127.989 178.764 124.531C181.328 121.074 205.464 99.821 212.135 104.004Z" fill="#231F20"/>
<path d="M212.135 104.004L212.78 103.631L212.74 103.559C212.316 102.829 208.69 96.5226 205.073 89.2054C203.265 85.5479 201.457 81.6384 200.07 78.0547C199.37 76.2664 198.772 74.559 198.326 73.0109C197.919 71.6831 197.639 70.32 197.488 68.9396C197.211 66.1804 196.416 63.4979 195.143 61.0326C193.183 57.1065 190.109 53.3349 186.197 50.2577C182.106 47.0238 177.322 44.7754 172.217 43.6871L172.065 44.4148L172.78 44.177C172.533 43.472 172.214 42.7946 171.827 42.1557C171.498 41.5969 171.09 41.089 170.614 40.648C170.359 40.4164 170.075 40.2189 169.768 40.0606C169.444 39.893 169.092 39.785 168.73 39.742C168.64 39.7317 168.55 39.7261 168.46 39.7253C168.276 39.7233 168.093 39.7531 167.92 39.8133C167.749 39.8742 167.594 39.9728 167.466 40.1016C167.339 40.2305 167.242 40.3863 167.183 40.5576C167.129 40.7249 167.102 40.9001 167.105 41.0761C167.111 41.3595 167.154 41.641 167.233 41.9131C167.338 42.315 167.484 42.7145 167.593 43.0712C167.65 43.2472 167.696 43.4113 167.727 43.5468C167.752 43.6456 167.766 43.7469 167.77 43.8489V43.8798L167.967 43.9154L167.791 43.8203C167.781 43.839 167.774 43.859 167.77 43.8798L167.967 43.9154L167.791 43.8203L168.096 43.9868L167.858 43.7371C167.833 43.7618 167.811 43.7898 167.793 43.8203L168.098 43.9868L167.86 43.7371L168.074 43.9606L167.977 43.6657C167.933 43.6811 167.894 43.7054 167.86 43.7371L168.074 43.9606L167.977 43.6657L168.024 43.8084L167.991 43.661H167.977L168.024 43.8037L167.991 43.6562H167.965C167.912 43.6561 167.86 43.6513 167.808 43.642C167.653 43.6182 167.417 43.5682 167.129 43.4993C166.621 43.3756 165.937 43.1925 165.151 42.9856C162.769 42.3697 159.257 41.5588 155.452 41.5588C152.146 41.5588 148.593 42.1771 145.368 44.1104C143.128 45.4517 140.991 47.3398 139.033 49.6037C136.081 53.0115 133.553 57.261 131.747 61.8293C129.942 66.3975 128.869 71.2963 128.869 75.9882C128.869 76.2973 128.869 76.6065 128.884 76.9156C129.062 82.661 130.473 87.9093 131.817 93.1458C133.16 98.3823 134.437 103.609 134.437 109.355C134.437 110.525 134.385 111.714 134.268 112.922C134.187 113.778 134.149 114.601 134.149 115.388C134.149 119.533 135.238 122.76 136.993 124.95C137.821 126.005 138.872 126.863 140.072 127.463C141.205 128.023 142.452 128.314 143.717 128.312C145.925 128.312 148.186 127.437 150.149 125.723L149.656 125.164L149.492 125.877C149.928 125.964 150.372 126.005 150.816 125.999C151.983 126 153.138 125.757 154.205 125.285C155.272 124.813 156.228 124.123 157.011 123.259C158.302 121.868 159.431 119.825 160.143 116.876L159.429 116.7L159.29 117.433C159.505 117.467 159.722 117.484 159.939 117.483C160.341 117.484 160.741 117.431 161.13 117.326C161.664 117.182 162.159 116.921 162.58 116.562C163 116.203 163.336 115.756 163.562 115.252C163.953 114.353 164.14 113.378 164.11 112.398C164.104 111.61 164.031 110.823 163.891 110.047L163.157 110.17L162.481 110.56C162.481 110.56 168.253 120.548 170.564 124.522C171.07 125.462 171.749 126.299 172.565 126.988C172.913 127.265 173.3 127.488 173.714 127.649C174.108 127.804 174.527 127.884 174.95 127.887C175.789 127.868 176.603 127.592 177.28 127.097C178.086 126.514 178.79 125.803 179.365 124.993C179.484 124.831 179.689 124.588 179.956 124.296C180.461 123.747 181.194 123.009 182.1 122.156C186.454 118.086 191.084 114.32 195.956 110.884C198.442 109.107 201.058 107.518 203.78 106.128C204.883 105.571 206.027 105.1 207.203 104.72C208.096 104.419 209.028 104.252 209.969 104.223C210.305 104.219 210.64 104.257 210.967 104.335C211.24 104.398 211.501 104.506 211.739 104.653L214.293 106.254L212.78 103.638L212.135 104.011L212.533 103.381C212.159 103.15 211.75 102.981 211.322 102.879C210.879 102.773 210.425 102.721 209.969 102.725C208.761 102.725 207.43 103.031 205.995 103.545C203.487 104.446 200.652 106.002 197.75 107.868C193.404 110.67 188.921 114.182 185.321 117.257C183.522 118.795 181.945 120.225 180.716 121.404C180.101 121.994 179.572 122.522 179.146 122.971C178.799 123.328 178.472 123.703 178.166 124.096C177.69 124.773 177.105 125.369 176.437 125.858C176.008 126.183 175.488 126.369 174.95 126.389C174.706 126.388 174.463 126.343 174.235 126.255C173.796 126.075 173.401 125.804 173.075 125.459C172.592 124.954 172.174 124.39 171.834 123.78C170.681 121.797 168.661 118.31 166.929 115.314C166.061 113.818 165.261 112.446 164.691 111.447L164.005 110.258L163.753 109.821L161.673 106.223L162.373 110.318C162.498 111.012 162.564 111.715 162.571 112.42C162.593 113.117 162.48 113.812 162.24 114.467C162.122 114.774 161.947 115.055 161.725 115.297C161.469 115.569 161.148 115.769 160.791 115.88C160.503 115.972 160.201 116.018 159.898 116.016C159.8 116.016 159.702 116.011 159.605 116.001H159.534H159.519L159.433 116.477L159.524 116.001L159.438 116.477L159.529 116.001L158.833 115.87L158.669 116.558C158.33 118.083 157.75 119.544 156.949 120.886C155.934 122.508 154.769 123.399 153.673 123.913C152.777 124.327 151.801 124.541 150.814 124.541C150.562 124.542 150.311 124.527 150.061 124.498L149.868 124.467H149.825L149.768 124.726L149.828 124.467L149.77 124.726L149.83 124.467L149.458 124.384L149.172 124.636C147.457 126.139 145.549 126.852 143.736 126.855C142.7 126.855 141.679 126.617 140.751 126.158C139.343 125.463 138.082 124.255 137.16 122.465C136.238 120.674 135.666 118.339 135.666 115.423C135.666 114.686 135.705 113.912 135.781 113.1C135.902 111.833 135.957 110.596 135.957 109.381C135.957 103.417 134.63 98.0493 133.284 92.8034C131.938 87.5574 130.566 82.4232 130.397 76.8942C130.397 76.6017 130.382 76.3092 130.382 76.0143C130.382 70.0692 132.219 63.6485 135.123 58.0981C136.512 55.4176 138.203 52.9036 140.162 50.6049C142.035 48.4385 144.064 46.655 146.135 45.416C149.06 43.661 152.329 43.0784 155.452 43.0784C158.373 43.0784 161.154 43.5896 163.355 44.1081C164.456 44.3673 165.409 44.6289 166.176 44.8215C166.557 44.919 166.89 45.0046 167.183 45.0593C167.329 45.0902 167.462 45.1164 167.591 45.1354C167.715 45.154 167.84 45.1644 167.965 45.1663C168.141 45.1691 168.316 45.1401 168.482 45.0807C168.618 45.0325 168.743 44.959 168.851 44.8643C169.008 44.7281 169.125 44.5523 169.189 44.3554C169.242 44.1966 169.268 44.0303 169.266 43.8631C169.258 43.583 169.214 43.3049 169.137 43.0356C169.03 42.6384 168.887 42.2389 168.775 41.8846C168.72 41.7062 168.672 41.5421 168.644 41.409C168.618 41.3071 168.602 41.2026 168.599 41.0975V41.0523L168.515 41.0356L168.596 41.0642V41.0523L168.513 41.0356L168.594 41.0642L168.356 40.9786L168.56 41.1355C168.577 41.1137 168.591 41.0897 168.601 41.0642L168.363 40.9786L168.568 41.1355L168.329 40.9595L168.439 41.233C168.487 41.2104 168.528 41.177 168.56 41.1355L168.322 40.9595L168.432 41.233L168.379 41.1022L168.415 41.2378H168.432L168.379 41.107L168.415 41.2425V41.2164V41.2425V41.2164V41.2425H168.463C168.496 41.2406 168.53 41.2406 168.563 41.2425C168.749 41.2654 168.929 41.3219 169.094 41.409C169.443 41.6022 169.752 41.8615 170.002 42.1723C170.408 42.6728 170.747 43.2235 171.012 43.8108C171.129 44.0486 171.219 44.2864 171.276 44.4315L171.341 44.6074L171.357 44.6526L171.636 44.5623L171.357 44.6526L171.636 44.5623L171.357 44.6526L171.491 45.0617L171.913 45.1496C178.345 46.5325 184.21 49.8193 188.742 54.581C190.777 56.6909 192.486 59.0913 193.814 61.7032C195 64.0021 195.744 66.5027 196.006 69.0752C196.171 70.6079 196.485 72.121 196.942 73.5935C197.795 76.5137 199.132 79.8834 200.656 83.3126C205.228 93.5905 211.499 104.382 211.506 104.394L212.149 104.021L212.547 103.39L212.135 104.004Z" fill="white"/>
<path d="M157.001 53.2921C157.001 53.2921 140.403 54.4811 138.268 66.6092C136.133 78.7372 140.922 104.342 157.001 103.148C165.042 101.44 168.634 99.2194 168.634 99.2194C168.634 99.2194 157.675 104.002 157.675 106.732C157.675 109.462 168.065 126.653 173.24 114.415C174.052 112.494 173.24 103.659 173.24 103.659L174.154 77.1535C173.866 76.2878 175.703 72.1905 172.618 70.0193C168.149 66.893 164.219 63.0619 160.982 58.676L157.001 53.2921Z" fill="white"/>
<path d="M132.724 72.1119C133.026 73.6991 133.602 75.2216 134.428 76.6112C135.156 77.8631 136.153 78.939 137.346 79.7621C138.821 80.7412 140.559 81.2496 142.33 81.2199C142.475 81.2199 142.621 81.2199 142.766 81.2199C144.572 81.1485 146.016 80.7157 147.143 80.0499C147.924 79.5919 148.607 78.9851 149.153 78.2639C149.819 77.3614 150.29 76.3305 150.535 75.2367C150.705 74.5125 150.793 73.7713 150.795 73.0275C150.795 72.773 150.783 72.6208 150.783 72.6018L149.916 72.6708V73.5388H157.27V72.6708L156.401 72.6898C156.421 73.1365 156.471 73.5814 156.551 74.0215C156.674 74.7317 156.862 75.429 157.113 76.1047C157.587 77.4319 158.395 78.6157 159.457 79.5433C160.092 80.0779 160.818 80.4929 161.601 80.768C162.525 81.0858 163.496 81.2427 164.472 81.2317H164.734C166.426 81.207 168.094 80.8253 169.628 80.1117C171.277 79.3306 172.702 78.1451 173.768 76.6659C174.249 76.024 174.644 75.322 174.943 74.578L173.309 73.9882L173.626 74.1024L173.309 73.9835L173.626 74.0976L173.309 73.9787C172.875 74.9993 172.247 75.9264 171.46 76.7087C170.705 77.4792 169.817 78.1076 168.839 78.5636C167.539 79.1526 166.131 79.4644 164.703 79.4791H164.484C162.883 79.4791 161.759 79.0535 160.899 78.4423C160.286 77.9941 159.769 77.4281 159.379 76.7777C158.87 75.9107 158.514 74.9633 158.326 73.9763C158.245 73.5721 158.202 73.2296 158.178 72.9942L158.156 72.7231C158.156 72.6922 158.156 72.6708 158.156 72.6589V72.6446L158.137 71.7957H148.977L149.051 72.7326L149.596 72.6898L149.051 72.7302L149.596 72.6874L149.051 72.7278V72.7445C149.051 72.7825 149.051 72.8777 149.051 73.018C149.048 73.5419 148.995 74.0643 148.891 74.578C148.784 75.1237 148.614 75.6551 148.384 76.1617C147.987 77.0433 147.357 77.8004 146.561 78.3519C145.677 78.9536 144.455 79.4054 142.69 79.4767H142.318C140.893 79.5076 139.492 79.1027 138.304 78.3163C137.558 77.8036 136.907 77.1646 136.381 76.4281C135.705 75.4747 135.177 74.4243 134.816 73.3129C134.668 72.8658 134.578 72.4877 134.511 72.2261C134.48 72.0953 134.459 71.9883 134.447 71.9264C134.435 71.8646 134.447 71.867 134.432 71.8527V71.8361L134.097 71.8908L134.432 71.8385L134.097 71.8932L134.432 71.8408L132.715 72.1096L132.724 72.1119Z" fill="#F1AB1E"/>
<path d="M208.375 128.985C208.375 128.985 213.283 123.214 221.803 124.372L208.375 128.985Z" fill="white"/>
<path d="M209.04 129.547L208.633 129.202L209.038 129.549L208.63 129.204L209.035 129.551C209.894 128.64 210.879 127.854 211.958 127.218C214.248 125.823 216.878 125.085 219.561 125.085C220.27 125.086 220.978 125.134 221.681 125.23L221.919 123.511C221.139 123.404 220.351 123.35 219.563 123.349C216.477 123.349 213.454 124.222 210.844 125.865C209.685 126.564 208.632 127.423 207.713 128.415L209.04 129.537V129.547Z" fill="#231F20"/>
<path d="M59.415 54.5928L55.3053 40.2389L54.4691 40.4767L53.6543 40.7787C54.162 42.0585 54.8245 43.2716 55.6269 44.391C56.3141 45.3722 57.1603 46.2322 58.1309 46.9355C58.6484 47.3044 59.2144 47.6005 59.8128 47.8154C60.4476 48.0414 61.1164 48.1572 61.7902 48.1578C63.1215 48.1287 64.4187 47.7319 65.5378 47.0116C66.8481 46.2197 68.2061 45.0022 69.6403 43.2519L68.9661 42.7026L68.1013 42.793C68.297 44.5095 68.5913 46.2134 68.9828 47.8962C69.1376 48.5383 69.3139 49.1828 69.5188 49.7987C69.7817 50.6665 70.1634 51.4939 70.6528 52.2576C70.8809 52.6016 71.168 52.9027 71.501 53.147C71.6739 53.27 71.8631 53.3685 72.0632 53.4395C72.2742 53.515 72.4966 53.5537 72.7208 53.5536C73.1758 53.5443 73.6177 53.4003 73.9906 53.1398C74.2952 52.9304 74.5708 52.6817 74.8101 52.4003C75.2648 51.8594 75.6594 51.271 75.9871 50.6453C76.4475 49.7807 76.8564 48.8898 77.2116 47.9771C79.9609 41.1069 81.438 36.7789 82.229 34.1535C83.0199 31.5281 83.1343 30.6055 83.1438 30.527L81.4356 30.2155C81.4356 30.2297 80.8638 32.4603 80.2921 35.5494C79.7203 38.6385 79.1485 42.5837 79.1485 46.0651C79.1122 47.6668 79.2893 49.2661 79.675 50.8212C79.8494 51.4821 80.119 52.1141 80.4755 52.6975C80.8152 53.2523 81.2855 53.716 81.8454 54.0483C82.613 54.4837 83.4831 54.707 84.366 54.6951C85.1386 54.6847 85.9054 54.5596 86.6412 54.3241C88.0069 53.8708 89.3051 53.2357 90.5007 52.4359C92.1939 51.315 93.788 50.0516 95.2655 48.6596C96.4996 47.5158 97.2811 46.6644 97.293 46.6502L96.6497 46.0651L95.7921 45.9248C95.4431 48.2678 95.2663 50.6332 95.2632 53.0019C95.2632 55.4347 95.468 58.1314 96.1732 60.5118C96.4987 61.6707 97.0069 62.7704 97.6789 63.7697C98.335 64.7431 99.2398 65.5239 100.3 66.0312L101.033 64.457C100.253 64.08 99.5883 63.501 99.1084 62.7805C98.315 61.6485 97.7718 60.0814 97.4407 58.3549C97.1311 56.5877 96.9836 54.7959 96.9999 53.0019C96.9999 51.1494 97.1286 49.4348 97.2549 48.203C97.3192 47.5847 97.3835 47.0806 97.4312 46.7358C97.455 46.5622 97.474 46.429 97.4883 46.3386C97.4883 46.2934 97.5002 46.2601 97.5026 46.2364V46.2126L97.9791 43.3328L96.0112 45.4754C94.7015 46.8644 93.2947 48.1589 91.8015 49.3492C90.6207 50.3083 89.3507 51.1524 88.0087 51.87C87.3987 52.1915 86.7608 52.4573 86.1028 52.6642C85.5419 52.8443 84.9575 52.9413 84.3684 52.952C83.7852 52.965 83.2092 52.8212 82.7007 52.5358C82.3844 52.3432 82.1202 52.0762 81.9312 51.7582C81.5184 51.0373 81.246 50.2449 81.1283 49.423C80.946 48.3108 80.8607 47.1849 80.8734 46.058C80.8734 42.7644 81.4285 38.8906 81.9907 35.8586C82.2719 34.3414 82.5506 33.0311 82.7603 32.1036C82.8675 31.628 82.9532 31.2737 83.0152 31.0216C83.0461 30.8956 83.07 30.7981 83.0843 30.7339C83.0986 30.6697 83.0986 30.6768 83.1033 30.6601V30.6364L82.2623 30.4223L81.3975 30.3272L81.9693 30.3914L81.3999 30.3225L81.9717 30.3867L81.4023 30.3177C81.3904 30.4128 81.2403 31.4045 80.4493 34.0013C79.6583 36.5981 78.2003 40.7954 75.594 47.3184C74.8792 49.1162 74.2241 50.3147 73.688 51.0067C73.5027 51.2642 73.2775 51.4906 73.0209 51.6773C72.9589 51.7204 72.8916 51.7555 72.8208 51.782C72.7865 51.7945 72.7502 51.8009 72.7136 51.801C72.6719 51.8013 72.6308 51.7906 72.5945 51.7701C72.5187 51.7343 72.4494 51.6861 72.3896 51.6274C72.1761 51.4121 71.9962 51.166 71.8559 50.8973C71.4737 50.159 71.1726 49.3817 70.9578 48.5787C70.5901 47.2582 70.3014 45.917 70.093 44.5622C70 43.982 69.9333 43.4897 69.8881 43.1354C69.8666 42.9594 69.85 42.8239 69.8404 42.7311C69.8404 42.6836 69.8404 42.6479 69.8285 42.6241C69.8276 42.613 69.8276 42.6019 69.8285 42.5908L69.6117 40.5172L68.2919 42.1319C66.9506 43.7727 65.7212 44.85 64.6372 45.5063C63.5532 46.1626 62.6146 46.4005 61.7783 46.4028C61.3027 46.4049 60.8303 46.3244 60.3822 46.165C59.5848 45.8628 58.8611 45.3942 58.2595 44.7905C57.3717 43.8999 56.6231 42.881 56.0391 41.768C55.7842 41.2924 55.5936 40.8929 55.4649 40.6028C55.403 40.4601 55.3554 40.3459 55.3244 40.2698L55.291 40.1842V40.1652L55.1624 40.2128L55.291 40.1652L55.1624 40.2128L55.291 40.1652L53.64 40.705L57.7497 55.0589L59.4174 54.5833L59.415 54.5928Z" fill="#231F20"/>
<path d="M113.238 35.3592L112.409 35.6232C112.807 36.8669 113.186 38.1701 113.465 39.352C113.605 39.9417 113.717 40.5006 113.796 41.0023C113.866 41.4286 113.905 41.8594 113.913 42.2912C113.914 42.4456 113.904 42.5998 113.882 42.7526C113.872 42.8163 113.857 42.8791 113.836 42.9404L113.822 42.969L114.01 43.0903L113.903 42.9C113.872 42.9172 113.844 42.9407 113.822 42.969L114.01 43.0903L113.903 42.9L114.02 43.1069V42.8691C113.979 42.8728 113.939 42.885 113.903 42.9048L114.02 43.1117V42.8739H114.008L113.963 43.7395L114.022 42.8739C113.823 42.8484 113.631 42.788 113.453 42.6955C112.836 42.375 112.258 41.9849 111.73 41.5326C110.633 40.61 109.594 39.6204 108.619 38.5696C107.592 37.4852 106.63 36.3865 105.898 35.5257L105.66 35.2379L105.281 35.2213C99.3966 34.9668 94.1363 32.9645 90.3792 29.9278C88.5718 28.4975 87.072 26.7182 85.9694 24.6961C84.9076 22.7431 84.361 20.5526 84.381 18.3307C84.401 16.1088 84.9869 13.9285 86.0837 11.9949C87.7347 9.00093 90.5269 6.41124 94.0791 4.573C97.6313 2.73477 101.929 1.65276 106.57 1.65276C112.764 1.65276 118.342 3.57898 122.346 6.64666C124.268 8.08511 125.87 9.9043 127.054 11.9901C128.164 13.9624 128.751 16.1846 128.76 18.4465C128.755 20.2902 128.362 22.1123 127.607 23.7948C126.485 26.3203 124.576 28.6008 122.08 30.4533C119.38 32.4095 116.307 33.7927 113.05 34.5174L112.133 34.729L112.419 35.6256L113.248 35.3616L113.443 36.2082C118.33 35.0762 122.57 32.7743 125.613 29.6828C127.106 28.1838 128.317 26.4285 129.186 24.5011C130.04 22.5971 130.484 20.535 130.487 18.4489C130.478 15.8944 129.817 13.3844 128.567 11.1554C126.718 7.80953 123.662 5.00581 119.852 3.03203C115.734 0.951603 111.176 -0.115691 106.561 -0.0808381C100.014 -0.0808381 94.0696 1.94764 89.7264 5.27215C87.6139 6.8555 85.8522 8.85771 84.5518 11.1531C83.3148 13.3392 82.6542 15.8031 82.6321 18.3137C82.6101 20.8244 83.2272 23.2995 84.4256 25.507C86.1552 28.7601 89.0212 31.5187 92.6092 33.5139C96.4818 35.6161 100.79 36.7931 105.195 36.9525L105.234 36.0845L104.571 36.6457C105.986 38.3313 107.485 39.9448 109.062 41.4803C109.836 42.2358 110.664 42.9336 111.54 43.5682C111.91 43.8326 112.303 44.0657 112.712 44.265C113.085 44.45 113.489 44.5645 113.903 44.6027H114.018C114.316 44.6055 114.609 44.5176 114.856 44.3506C115.031 44.2301 115.179 44.0756 115.292 43.8964C115.437 43.6566 115.535 43.3921 115.583 43.1164C115.632 42.8425 115.655 42.5647 115.652 42.2865C115.645 41.7654 115.598 41.2455 115.514 40.7312C115.166 38.8189 114.682 36.9339 114.065 35.0905L113.238 35.3545L113.434 36.2011L113.238 35.3592Z" fill="#231F20"/>
<path d="M91.6538 23.1146C93.5549 22.7054 95.399 22.0666 97.1453 21.2121C98.6476 20.4969 100.017 19.532 101.195 18.3585C101.804 17.7371 102.32 17.0325 102.73 16.2658C103.157 15.4555 103.437 14.5765 103.559 13.669C103.595 13.4026 103.614 13.1341 103.616 12.8652C103.618 12.6467 103.599 12.4284 103.559 12.2136C103.527 12.0571 103.477 11.9047 103.411 11.7594C103.304 11.5174 103.132 11.31 102.913 11.1601C102.689 11.0117 102.427 10.933 102.158 10.9342C101.972 10.9354 101.788 10.9667 101.612 11.027C101.312 11.1406 101.031 11.3011 100.781 11.5026C100.283 11.9007 99.8376 12.3593 99.4539 12.8676C98.7481 13.7833 98.1628 14.7854 97.7123 15.8496C97.2215 16.947 96.9511 18.1298 96.9166 19.3311C96.9126 19.8431 96.9849 20.3528 97.131 20.8435C97.3646 21.6117 97.8276 22.2903 98.458 22.7888C99.2121 23.3499 100.098 23.7078 101.031 23.828C101.668 23.9296 102.311 23.9813 102.956 23.9826C104.73 23.9889 106.478 23.5584 108.045 22.7293C110.849 21.1587 113.002 18.6433 114.118 15.6332C114.247 15.2752 114.353 14.909 114.434 14.537C114.504 14.2181 114.543 13.8931 114.549 13.5667C114.55 13.365 114.528 13.1639 114.482 12.9674C114.449 12.836 114.395 12.7107 114.322 12.5965C114.203 12.4093 114.033 12.2593 113.832 12.1637C113.659 12.085 113.471 12.0452 113.281 12.0471C113.099 12.0483 112.919 12.0772 112.745 12.1328C112.432 12.2347 112.134 12.3761 111.857 12.5537C111.268 12.9292 110.719 13.3643 110.22 13.8521C109.314 14.7119 108.523 15.6837 107.864 16.7438C107.533 17.2753 107.259 17.8396 107.044 18.4275C106.833 18.9931 106.72 19.5907 106.711 20.1943C106.707 20.6262 106.783 21.0549 106.935 21.4595C107.188 22.1091 107.636 22.6653 108.216 23.0528C108.921 23.5112 109.712 23.8197 110.542 23.9588C111.221 24.0956 111.912 24.1657 112.605 24.1681C114.263 24.1833 115.888 23.7084 117.277 22.8031C118.163 22.2173 118.95 21.4949 119.609 20.6628C120.41 19.6431 121.065 18.517 121.555 17.3169C121.782 16.7856 121.971 16.2388 122.12 15.6808L120.433 15.2646C120.054 16.5917 119.464 17.8497 118.687 18.991C118.052 19.9417 117.233 20.7566 116.278 21.3881C115.184 22.0905 113.906 22.4568 112.605 22.4416C112.025 22.4392 111.446 22.3794 110.878 22.2632C110.446 22.184 110.025 22.053 109.624 21.8732C109.251 21.716 108.929 21.4563 108.698 21.1242C108.53 20.8463 108.447 20.5256 108.459 20.2015C108.502 19.4867 108.71 18.7915 109.067 18.1706C109.703 17.0033 110.524 15.9459 111.497 15.0387C111.878 14.6736 112.292 14.3441 112.733 14.0542C112.871 13.9627 113.016 13.8831 113.167 13.8164C113.205 13.799 113.245 13.7854 113.286 13.776H113.303L113.289 13.6523V13.776H113.303L113.289 13.6523V13.3884L113.184 13.7617C113.218 13.7717 113.253 13.7765 113.289 13.776V13.3884L113.184 13.7617L113.334 13.2243L112.926 13.6048C112.997 13.6787 113.086 13.7328 113.184 13.7617L113.334 13.2243L112.926 13.6048L113.293 13.2623L112.803 13.3836C112.824 13.4667 112.867 13.5428 112.926 13.6048L113.293 13.2623L112.803 13.3836C112.813 13.4432 112.818 13.5038 112.817 13.5643C112.806 13.8622 112.759 14.1577 112.676 14.4442C112.441 15.2721 112.099 16.0659 111.659 16.8056C110.823 18.2625 109.686 19.5254 108.324 20.5106C107.579 21.0412 106.761 21.4617 105.896 21.7591C104.948 22.078 103.954 22.2386 102.954 22.2347C102.401 22.2346 101.848 22.19 101.303 22.1015C100.843 22.037 100.396 21.9006 99.978 21.6973C99.5458 21.49 99.1899 21.1522 98.9607 20.7318C98.7439 20.2931 98.6384 19.8081 98.6534 19.3192C98.6737 18.545 98.8243 17.7797 99.0989 17.0553C99.5196 15.9025 100.118 14.8224 100.874 13.8545C101.145 13.5037 101.455 13.1846 101.798 12.9032C101.896 12.8243 102.001 12.7558 102.113 12.6987C102.134 12.6885 102.157 12.6798 102.179 12.6726L102.153 12.4871V12.6726H102.177L102.151 12.4871V12.2897L101.96 12.6203C102.018 12.6535 102.084 12.6715 102.151 12.6726V12.2897L101.96 12.6203L102.148 12.2945L101.846 12.5323C101.878 12.5715 101.916 12.6045 101.96 12.6298L102.148 12.304L101.846 12.5418L102.02 12.4086L101.832 12.518L101.846 12.5418L102.02 12.4086L101.832 12.518L101.896 12.4799L101.827 12.5109L101.891 12.4728L101.822 12.5037C101.859 12.6262 101.874 12.7541 101.867 12.8818C101.865 13.0744 101.85 13.2667 101.822 13.4573C101.729 14.1633 101.51 14.847 101.176 15.4763C100.567 16.5713 99.7225 17.5182 98.7034 18.2491C97.2154 19.3163 95.5723 20.1496 93.8314 20.7199C93.0976 20.972 92.4615 21.1503 92.0136 21.2645L91.4918 21.3881L91.3584 21.4167H91.3251L91.6515 23.1217L91.6538 23.1146Z" fill="#231F20"/>
<path d="M171.057 55.3372C171.057 55.3372 166.08 45.0759 183.327 55.7272C196.382 63.7935 196.635 78.2473 198.812 83.334C200.99 88.4206 205.245 94.7105 209.295 100.247C211.608 103.421 216.106 113.178 217.853 119.428C219.599 125.678 225.09 139.525 222.091 145.748C217.853 154.547 205.131 156.583 200.035 157.308C194.939 158.033 184.58 154.585 181.749 145.865C181.749 145.865 167.951 145.717 168.923 134.381C169.895 123.045 178.338 111.383 178.338 89.436C178.34 74.3996 171.057 55.3372 171.057 55.3372Z" fill="#231F20"/>
<path d="M154.647 138.778L175.691 182.161L233.083 166.473L227.401 144.864L224.759 145.558L229.755 164.556L177.161 178.931L157.103 137.589L154.647 138.778Z" fill="#231F20"/>
<path d="M157.001 53.2921L156.939 52.4289C153.905 52.7275 150.93 53.4603 148.105 54.6048C145.825 55.5417 143.452 56.8758 141.489 58.7949C140.476 59.7787 139.612 60.9052 138.926 62.1384C138.186 63.4855 137.675 64.9456 137.413 66.4594C137.071 68.5271 136.907 70.6203 136.922 72.716C136.929 76.1613 137.27 79.5978 137.942 82.9773C138.997 88.2375 140.879 93.4407 143.798 97.393C145.186 99.3357 146.957 100.974 149.003 102.209C151.099 103.431 153.485 104.068 155.912 104.054C156.289 104.054 156.667 104.04 157.053 104.011H157.113H157.17C165.308 102.282 168.999 100.023 169.082 99.9684L168.275 98.4346C168.26 98.4346 165.506 99.6427 162.724 101.205C161.362 101.944 160.064 102.793 158.84 103.742C158.327 104.143 157.863 104.602 157.456 105.11C157.274 105.342 157.122 105.595 157.001 105.864C156.878 106.14 156.812 106.439 156.808 106.741C156.812 106.967 156.841 107.191 156.896 107.409C157.022 107.898 157.19 108.376 157.396 108.836C157.889 109.95 158.466 111.026 159.121 112.054C160.261 113.901 161.635 115.593 163.21 117.088C163.964 117.799 164.808 118.409 165.721 118.902C166.569 119.366 167.517 119.62 168.484 119.644C169.034 119.644 169.579 119.544 170.092 119.35C170.942 119.008 171.693 118.459 172.277 117.754C173.02 116.855 173.618 115.847 174.05 114.765C174.152 114.509 174.227 114.244 174.274 113.973C174.358 113.492 174.412 113.007 174.436 112.52C174.466 111.982 174.478 111.395 174.478 110.784C174.478 109.16 174.388 107.367 174.297 105.975C174.207 104.584 174.116 103.597 174.114 103.597L173.249 103.676L174.119 103.704L175.022 77.0441L174.972 76.8966L174.712 76.9822L174.986 76.9513C174.983 76.9326 174.978 76.9143 174.972 76.8966L174.712 76.9822L174.986 76.9513C174.985 76.9378 174.985 76.9243 174.986 76.9109C174.992 76.7675 175.006 76.6245 175.029 76.4828C175.069 76.1856 175.136 75.7956 175.195 75.3509C175.263 74.863 175.299 74.3713 175.303 73.8789C175.318 73.0659 175.173 72.2579 174.876 71.5008C174.512 70.6197 173.9 69.863 173.113 69.3225C168.72 66.2511 164.858 62.4857 161.678 58.1742L157.42 52.3979L156.944 52.4336L157.006 53.2969L156.308 53.8129L160.282 59.2039C163.575 63.6654 167.572 67.5631 172.117 70.7446C172.634 71.0918 173.036 71.5842 173.273 72.1595C173.481 72.7043 173.581 73.2841 173.568 73.867C173.559 74.416 173.51 74.9637 173.421 75.5055C173.382 75.7623 173.342 76.0048 173.311 76.2331C173.277 76.4535 173.258 76.676 173.254 76.899C173.25 77.0788 173.275 77.258 173.33 77.4293L174.154 77.1582L173.285 77.1273L172.379 103.683V103.735C172.379 103.735 172.379 103.75 172.379 103.778C172.42 104.209 172.734 107.84 172.734 110.77C172.734 111.55 172.711 112.28 172.658 112.872C172.632 113.167 172.599 113.428 172.558 113.637C172.534 113.787 172.495 113.933 172.441 114.075C171.81 115.568 171.119 116.539 170.45 117.112C170.16 117.369 169.827 117.572 169.466 117.713C169.15 117.834 168.815 117.896 168.477 117.894C167.933 117.882 167.397 117.759 166.902 117.533C165.928 117.112 164.88 116.322 163.889 115.333C162.4 113.802 161.112 112.089 160.055 110.234C159.626 109.503 159.245 108.745 158.916 107.963C158.804 107.697 158.707 107.425 158.626 107.148C158.584 107.011 158.557 106.871 158.545 106.729C158.551 106.663 158.569 106.599 158.597 106.539C158.758 106.228 158.971 105.947 159.229 105.709C160.005 104.983 160.855 104.34 161.766 103.79C163.312 102.83 164.907 101.951 166.545 101.157C167.26 100.808 167.865 100.523 168.296 100.323L168.801 100.085L168.935 100.026L168.98 100.006L168.632 99.2098L168.175 98.4727L168.308 98.6914L168.175 98.4727L168.308 98.6914L168.175 98.4727C168.144 98.4917 164.634 100.63 156.82 102.278L156.999 103.126L156.937 102.261C156.591 102.285 156.253 102.299 155.922 102.299C154.493 102.306 153.076 102.056 151.736 101.562C149.494 100.727 147.555 99.2217 145.897 97.2242C143.412 94.2326 141.584 90.14 140.398 85.7715C139.255 81.5049 138.669 77.1087 138.656 72.6922C138.645 70.7006 138.804 68.7116 139.133 66.7471C139.361 65.4208 139.808 64.1415 140.455 62.9612C141.528 61.0829 143.028 59.4823 144.834 58.2884C147.455 56.4858 150.552 55.4347 152.951 54.8521C154.156 54.5596 155.195 54.3765 155.929 54.2766C156.296 54.2243 156.584 54.191 156.782 54.172C156.88 54.1601 156.953 54.1553 157.003 54.1506H157.058H157.072L157.001 53.2921L156.303 53.8081L157.001 53.2921Z" fill="#231F20"/>
<path d="M138.459 61.6199L138.43 61.4392L138.459 61.6199L138.43 61.4392L138.459 61.6199C139.091 61.537 139.727 61.4972 140.365 61.501C141.362 61.4983 142.357 61.5939 143.336 61.7864C144.167 61.9472 144.976 62.2083 145.744 62.564C146.959 63.1128 147.992 63.9953 148.722 65.1085C149.489 66.2976 149.999 67.9123 150.001 70.1548C150.001 70.414 150.002 70.6827 149.98 70.9633C149.728 75.8502 148.851 78.7324 147.967 80.3875C147.65 81.0195 147.225 81.5916 146.711 82.0783C146.461 82.3162 146.167 82.505 145.847 82.6348C145.704 82.6883 145.575 82.773 145.47 82.8826C145.364 82.9922 145.285 83.124 145.237 83.2683C145.189 83.4126 145.174 83.5657 145.193 83.7166C145.212 83.8674 145.264 84.0121 145.346 84.1401C145.461 84.317 145.627 84.4548 145.823 84.5348L148.339 85.5193L148.972 83.9023L146.456 82.9201L146.192 83.586L146.795 83.196C146.713 83.072 146.595 82.9758 146.456 82.9201L146.192 83.586L146.795 83.196L146.192 83.586H146.907C146.907 83.4478 146.867 83.3125 146.792 83.196L146.19 83.586L146.79 83.9831C146.868 83.8654 146.91 83.7272 146.909 83.586H146.194L146.795 83.9831L146.194 83.586L146.447 84.259C146.589 84.2062 146.711 84.1096 146.795 83.9831L146.194 83.586L146.447 84.259C146.976 84.0535 147.461 83.7493 147.876 83.3624C148.679 82.6371 149.544 81.441 150.259 79.4957C150.974 77.5505 151.524 74.8443 151.722 71.0537C151.738 70.7469 151.745 70.4473 151.745 70.1571C151.745 67.9289 151.283 66.1145 150.497 64.6876C149.947 63.6802 149.195 62.7964 148.289 62.0908C147.061 61.1681 145.649 60.5193 144.148 60.1884C142.909 59.9041 141.641 59.7637 140.369 59.7698C139.64 59.7645 138.91 59.8106 138.187 59.9078L138.454 61.6223L138.459 61.6199Z" fill="#231F20"/>
<path d="M147.722 90.4705L148.022 91.2838L148.127 91.2457C148.639 91.0579 150.985 90.2018 153.606 89.3671C154.912 88.9509 156.277 88.5371 157.501 88.2185C158.111 88.0568 158.693 87.9212 159.198 87.819C159.623 87.7274 160.053 87.6615 160.486 87.6216L160.42 86.756L159.569 86.5824C159.337 87.6202 159.019 88.6369 158.616 89.6215C158.321 90.3662 157.935 91.0722 157.468 91.7237C157.269 91.9944 157.039 92.2403 156.782 92.4562C156.581 92.6277 156.349 92.7592 156.098 92.8438C155.436 93.0361 154.748 93.1275 154.059 93.1149C152.76 93.1275 151.475 92.8598 150.29 92.3301C149.823 92.1204 149.404 91.8196 149.056 91.4455C148.923 91.2955 148.814 91.1273 148.729 90.9461C148.652 90.773 148.604 90.588 148.589 90.3991L147.724 90.4705L148.024 91.2838L147.724 90.4705L146.857 90.5418C146.889 90.9253 146.986 91.3006 147.143 91.6524C147.413 92.2414 147.822 92.7569 148.334 93.1553C149.131 93.7594 150.042 94.1977 151.012 94.4442C152.001 94.7141 153.023 94.8509 154.049 94.8508C154.969 94.8508 155.695 94.613 156.463 94.3633C156.939 94.2111 157.518 94.0922 157.892 93.7855C158.532 93.2277 159.067 92.56 159.472 91.8141C160.039 90.7814 160.496 89.6918 160.834 88.5633C161.125 87.624 161.263 86.951 161.268 86.9319L161.506 85.8024L160.355 85.8927C159.813 85.9381 159.275 86.0175 158.743 86.1305C157.699 86.3469 156.477 86.6751 155.226 87.0437C151.469 88.1614 147.428 89.6524 147.419 89.6524L146.8 89.8902L146.854 90.5466L147.722 90.4705Z" fill="#231F20"/>
<path d="M157.639 65.7745L157.475 65.646L157.639 65.7745L157.475 65.646L157.639 65.7745C158.128 65.1756 158.666 64.6187 159.248 64.1098C160.5 62.9815 161.937 62.0751 163.495 61.4298L162.85 59.8198C161.083 60.5484 159.455 61.5766 158.04 62.859C157.398 63.4243 156.803 64.0415 156.262 64.7043L157.639 65.7649V65.7745Z" fill="#231F20"/>
<path d="M145.949 69.1727C145.949 69.6262 145.814 70.0695 145.562 70.4465C145.309 70.8236 144.951 71.1174 144.531 71.2909C144.111 71.4643 143.649 71.5096 143.203 71.4209C142.758 71.3323 142.349 71.1137 142.028 70.7928C141.706 70.472 141.488 70.0633 141.4 69.6185C141.311 69.1736 141.357 68.7126 141.531 68.2938C141.705 67.8749 142 67.5171 142.378 67.2654C142.756 67.0138 143.2 66.8798 143.655 66.8803C143.956 66.8803 144.255 66.9396 144.533 67.0548C144.812 67.17 145.065 67.3389 145.278 67.5518C145.491 67.7647 145.66 68.0175 145.775 68.2956C145.89 68.5737 145.949 68.8718 145.949 69.1727Z" fill="#231F20"/>
<path d="M165.316 69.1727C165.316 69.6261 165.181 70.0693 164.929 70.4463C164.676 70.8233 164.318 71.1171 163.898 71.2906C163.478 71.4641 163.016 71.5095 162.571 71.4211C162.125 71.3326 161.716 71.1143 161.395 70.7937C161.074 70.4731 160.855 70.0646 160.767 69.6199C160.678 69.1752 160.723 68.7143 160.897 68.2954C161.071 67.8765 161.365 67.5185 161.743 67.2666C162.121 67.0147 162.565 66.8802 163.019 66.8802C163.628 66.8802 164.212 67.1218 164.643 67.5517C165.074 67.9816 165.316 68.5647 165.316 69.1727Z" fill="#231F20"/>
</g>
<defs>
<clipPath id="clip0_1890_1397">
<rect width="233" height="195" fill="white"/>
</clipPath>
</defs>
</svg>
