<svg width="292" height="211" viewBox="0 0 292 211" fill="none" xmlns="http://www.w3.org/2000/svg">
<g clip-path="url(#clip0_1781_1582)">
<path d="M140.978 67.7407C140.978 67.7407 129.767 60.3667 123.102 87.3338C116.437 114.301 114.611 120.268 119.778 130.011C124.944 139.753 130.972 148.843 130.972 154.905C130.972 160.967 137.436 178.419 161.777 176.206C186.118 173.993 191.571 163.691 187.633 142.784C183.695 121.876 170.469 68.1225 161.783 66.8222C153.097 65.5219 140.978 67.7407 140.978 67.7407Z" fill="#231F20"/>
<path d="M125.728 93.7664C125.728 93.7664 134.11 104.608 137.342 97.5381C140.574 90.4684 144.078 82.3797 144.078 82.3797C144.078 82.3797 155.319 85.4079 154.107 75.7147C152.994 66.8165 146.254 65.6827 142.973 70.5193C142.918 70.603 142.838 70.6673 142.744 70.7031C142.65 70.7388 142.548 70.7442 142.451 70.7186C142.354 70.6929 142.267 70.6374 142.203 70.5599C142.139 70.4825 142.102 70.3869 142.095 70.2868L141.785 64.8044H152.787C152.787 64.8044 155.804 50.4525 138.587 48.2423C121.371 46.0322 113.294 53.4951 113.294 53.4951L119.353 64.8044L131.675 63.5931L131.472 72.7295C131.472 72.7295 127.938 72.0779 124.706 82.5806C124.718 82.5892 123.908 86.4958 125.728 93.7664Z" fill="white"/>
<path d="M125.728 93.7664L124.944 94.3807C125.846 95.5226 126.832 96.5961 127.892 97.5926C128.783 98.4417 129.761 99.1949 130.809 99.8401C131.33 100.157 131.884 100.42 132.459 100.624C133.025 100.829 133.622 100.938 134.224 100.945C134.745 100.951 135.262 100.853 135.744 100.655C136.226 100.458 136.664 100.166 137.032 99.7971C137.547 99.2703 137.961 98.6535 138.254 97.9773C141.492 90.896 144.997 82.8131 145 82.8102L144.078 82.3797L143.817 83.3498C145.094 83.6646 146.403 83.8265 147.718 83.8321C148.543 83.8387 149.366 83.755 150.172 83.5823C150.814 83.4449 151.435 83.2249 152.021 82.9279C152.975 82.4506 153.772 81.7094 154.317 80.7923C154.941 79.6655 155.25 78.3915 155.212 77.1039C155.21 76.5972 155.176 76.091 155.112 75.5884C154.75 72.695 153.817 70.4935 152.506 68.9865C151.894 68.2668 151.141 67.6806 150.293 67.2643C149.505 66.8844 148.641 66.6881 147.767 66.6902C146.68 66.6966 145.614 66.994 144.681 67.5513C143.667 68.1574 142.802 68.9833 142.149 69.9682L142.571 70.2552L142.342 69.8017C142.264 69.8398 142.198 69.8971 142.149 69.9682L142.571 70.2552L142.342 69.8017L142.58 70.2696V69.75C142.497 69.7488 142.415 69.7686 142.342 69.8074L142.58 70.2753L142.922 69.8849C142.828 69.7998 142.706 69.7536 142.58 69.7558V70.2753L142.922 69.8849L142.56 70.2983L143.054 70.0543C143.022 69.9893 142.977 69.9316 142.922 69.8849L142.56 70.2983L143.054 70.0543L142.591 70.2839L143.108 70.2552C143.104 70.1852 143.085 70.1169 143.054 70.0543L142.591 70.2839L143.108 70.2552L142.856 65.832H153.622L153.789 65.034C153.948 64.163 154.024 63.2787 154.016 62.3933C154.017 61.0472 153.852 59.7061 153.525 58.4006C153.221 57.1953 152.756 56.0366 152.141 54.9561C151.014 52.9886 149.409 51.337 147.474 50.154C145.292 48.7906 142.436 47.7601 138.737 47.2836C136.629 47.0073 134.507 46.8663 132.382 46.8617C125.762 46.8617 120.846 48.3141 117.582 49.7837C114.318 51.2534 112.702 52.7345 112.631 52.7947L112.056 53.32L118.802 65.9095L130.662 64.7412L130.484 72.7438L131.489 72.7668L131.675 71.7794C131.573 71.7608 131.469 71.7522 131.365 71.7535C130.907 71.7652 130.456 71.8727 130.042 72.0693C129.198 72.4539 128.165 73.2519 127.089 74.8248C126.012 76.3978 124.861 78.7515 123.762 82.3223L123.747 82.3682V82.4141C123.594 83.3204 123.527 84.2392 123.547 85.1582C123.592 88.157 124.001 91.1392 124.766 94.0391L124.818 94.2429L124.947 94.4094L125.742 93.7951L126.715 93.5511C125.994 90.8103 125.609 87.992 125.567 85.1582C125.564 84.5591 125.592 83.9602 125.653 83.3642C125.673 83.169 125.694 83.0255 125.708 82.9365C125.708 82.8906 125.708 82.859 125.722 82.8389V82.8217L125.148 82.7098L125.722 82.8246L125.148 82.7126L125.722 82.8274L124.741 82.6236L125.699 82.9107C127.106 78.3181 128.57 75.9988 129.626 74.8736C129.979 74.4696 130.408 74.139 130.889 73.9006C131.043 73.8222 131.211 73.7754 131.383 73.7628L131.408 73.2777L131.317 73.7542C131.339 73.7561 131.361 73.7561 131.383 73.7542L131.408 73.2691L131.317 73.7456L132.482 73.9637L132.735 62.511L119.953 63.7682L114.212 53.0473L113.328 53.5238L114.008 54.2586L113.575 53.7908L114.008 54.2615L113.575 53.7936L114.008 54.2644C114.083 54.1984 115.598 52.8493 118.63 51.5174C121.661 50.1856 126.216 48.8681 132.393 48.8681C134.432 48.8727 136.468 49.0079 138.49 49.2728C141.575 49.6718 143.943 50.464 145.763 51.4686C146.986 52.1304 148.089 52.9941 149.024 54.0233C150.152 55.2892 150.983 56.7918 151.455 58.4207C151.982 60.2495 152.141 62.1646 151.923 64.0552C151.9 64.2504 151.874 64.4025 151.86 64.5001C151.86 64.5489 151.843 64.5862 151.84 64.6092V64.6322L152.23 64.7125L151.84 64.6293L152.23 64.7097L151.84 64.6264L152.824 64.8331V63.8285H140.731L141.102 70.3729C141.114 70.5721 141.165 70.767 141.251 70.947C141.378 71.2027 141.578 71.4153 141.825 71.5584C142.054 71.6945 142.316 71.7659 142.583 71.765C142.818 71.7679 143.051 71.7127 143.26 71.6043C143.483 71.4888 143.674 71.319 143.814 71.1106C144.298 70.3745 144.94 69.7565 145.694 69.3023C146.323 68.9299 147.039 68.7317 147.77 68.7282C148.344 68.7292 148.911 68.8597 149.429 69.1099C150.383 69.6044 151.171 70.3692 151.693 71.3086C152.48 72.7154 152.968 74.2689 153.129 75.8725C153.181 76.2925 153.209 76.7151 153.212 77.1384C153.238 77.9831 153.067 78.8223 152.712 79.5897C152.503 80.0072 152.21 80.3775 151.851 80.6775C151.307 81.1217 150.669 81.4367 149.986 81.5989C149.245 81.7785 148.485 81.8653 147.724 81.8573C146.921 81.8533 146.121 81.7832 145.33 81.6477C145.017 81.5932 144.756 81.5415 144.595 81.5042L144.4 81.4583H144.354L143.516 81.2315L143.171 82.0295C143.171 82.0295 143.117 82.1529 143.013 82.3883C142.299 84.0273 139.265 90.985 136.443 97.1592C136.216 97.7282 135.845 98.2285 135.367 98.6116C135.204 98.7307 135.023 98.8219 134.83 98.8814C134.638 98.9401 134.439 98.9692 134.239 98.9675C133.86 98.959 133.486 98.8882 133.131 98.758C132.314 98.4465 131.548 98.0161 130.857 97.4807C129.761 96.6416 128.742 95.7049 127.815 94.6821C127.419 94.2515 127.094 93.8726 126.873 93.6085L126.618 93.2957L126.555 93.2153L126.54 93.1981L125.748 93.8123L126.721 93.5684L125.728 93.7664Z" fill="#231F20"/>
<path d="M132.083 93.7664V89.1881H130.074V93.7664" fill="#231F20"/>
<path d="M139.159 82.1844V81.1798H129.462V82.1844L130.467 82.1413L129.91 82.1672L130.467 82.1471L129.91 82.1729L130.467 82.1528V82.1212C130.471 81.8729 130.495 81.6252 130.539 81.3807C130.593 81.0786 130.68 80.7832 130.797 80.4995C130.893 80.2696 131.015 80.0519 131.162 79.8508C131.401 79.528 131.714 79.2672 132.074 79.0901C132.6 78.851 133.173 78.7352 133.751 78.7514C134.631 78.7235 135.508 78.8668 136.334 79.1734C136.709 79.3212 137.053 79.5384 137.347 79.8135C137.667 80.1181 137.903 80.4995 138.033 80.9214C138.127 81.2245 138.176 81.5398 138.177 81.8572C138.177 81.9347 138.177 81.9949 138.177 82.0294V82.0638L138.751 82.1356L138.177 82.0552L138.751 82.127L138.177 82.0466L139.173 82.1815L140.169 82.3164C140.188 82.1612 140.197 82.0049 140.195 81.8485C140.194 81.3959 140.135 80.9452 140.017 80.5081C139.84 79.8387 139.517 79.217 139.07 78.6882C138.623 78.1595 138.064 77.7369 137.433 77.4511C136.282 76.939 135.03 76.6937 133.771 76.7335C132.732 76.7059 131.706 76.9715 130.811 77.4999C130.279 77.8266 129.821 78.2606 129.465 78.7744C129.045 79.3945 128.752 80.0922 128.604 80.8267C128.512 81.2531 128.464 81.6879 128.461 82.1241C128.461 82.1844 128.461 82.2246 128.461 82.2389L128.501 83.1976H140.037L140.155 82.3365L139.159 82.1844Z" fill="#231F20"/>
<path d="M150.106 77.523C149.907 76.7252 149.594 75.9605 149.176 75.2525C148.81 74.6142 148.322 74.0535 147.741 73.6021C147.403 73.3528 147.031 73.1545 146.636 73.0136C146.202 72.8625 145.746 72.7868 145.287 72.7898C145.152 72.7898 145 72.7898 144.868 72.807L145.06 74.8162C145.135 74.8162 145.212 74.8162 145.287 74.8162C145.52 74.8139 145.752 74.8518 145.973 74.9282C146.339 75.0646 146.667 75.2871 146.929 75.5769C147.337 76.0374 147.66 76.5672 147.882 77.1412C147.982 77.391 148.054 77.6091 148.1 77.7612C148.123 77.8359 148.137 77.8962 148.149 77.9335V77.9736L148.473 77.899L148.146 77.9708L148.47 77.8961L148.143 77.9679L150.106 77.5316V77.523Z" fill="#231F20"/>
<path d="M96.3355 4.30553C96.3355 4.30553 102.194 33.6952 107.346 45.8139C107.346 45.8139 87.0441 95.8101 88.8639 119.442L113.305 129.999L126.523 64.1097C126.523 64.1097 125.289 55.3981 136.466 55.3981C147.643 55.3981 149.799 64.8244 149.799 64.8244L154.199 65.8348C154.199 65.8348 177.337 114.918 178.244 139.767L204.302 138.757L190.366 3.00525L96.3355 4.30553Z" fill="#F57379"/>
<path d="M96.3355 4.30559L95.3509 4.50077C95.3509 4.50077 96.8177 11.8661 98.9331 20.7471C99.9894 25.1904 101.206 30.0126 102.487 34.4933C103.767 38.9739 105.104 43.1044 106.422 46.2072L107.346 45.814L106.413 45.438C106.413 45.438 101.752 56.9195 97.0904 71.4895C94.7596 78.7745 92.426 86.8373 90.6722 94.639C88.9184 102.441 87.7444 109.978 87.7416 116.264C87.7416 117.39 87.7818 118.477 87.8621 119.519L87.9081 120.125L114.037 131.426L127.528 64.1385L127.505 63.9691L126.985 64.0437L127.505 63.972L126.985 64.0466L127.505 63.9748C127.504 63.9615 127.504 63.948 127.505 63.9347C127.505 63.8514 127.479 63.6476 127.479 63.3606C127.479 62.7243 127.56 62.0906 127.72 61.4748C127.873 60.8687 128.113 60.2885 128.435 59.7525C129.049 58.7573 129.937 57.9601 130.992 57.4562C132.247 56.8276 134 56.3856 136.446 56.3856C139.098 56.3856 141.165 56.9424 142.795 57.7548C143.909 58.3074 144.924 59.0406 145.798 59.9248C146.795 60.9387 147.608 62.1189 148.2 63.4123C148.382 63.8026 148.541 64.2032 148.677 64.6121C148.723 64.7556 148.754 64.8675 148.774 64.9393C148.794 65.011 148.791 65.0024 148.794 65.0197V65.034L149.328 64.9106L148.791 65.0311L149.325 64.9077L148.789 65.0283L148.929 65.6425L153.944 66.7907L154.171 65.8119L153.261 66.2424L153.327 66.3802C153.998 67.8154 159.765 80.2297 165.465 95.2676C168.316 102.785 171.149 110.96 173.322 118.739C175.495 126.517 176.999 133.897 177.214 139.778L177.248 140.786L205.378 139.695L191.27 1.98633L95.1127 3.32966L95.3481 4.51225L96.3326 4.31707L96.3469 5.3217L189.459 4.01855L203.194 137.778L178.207 138.748L178.244 139.753L179.249 139.715C179.014 133.363 177.377 125.584 175.07 117.444C171.608 105.239 166.619 92.2394 162.495 82.2792C158.37 72.319 155.112 65.4043 155.106 65.3928L154.9 64.9508L150.02 63.8313L149.796 64.8101L150.778 64.5834C150.632 64.0213 150.44 63.4722 150.204 62.9415C149.324 60.8659 147.961 59.0305 146.228 57.5883C145.022 56.5933 143.651 55.8162 142.178 55.292C140.34 54.6544 138.406 54.3398 136.46 54.362C134.066 54.362 132.155 54.7466 130.645 55.3924C129.618 55.8167 128.683 56.4345 127.889 57.2123C126.952 58.1523 126.261 59.3101 125.88 60.5821C125.61 61.4756 125.472 62.4041 125.473 63.3376C125.469 63.636 125.487 63.9343 125.524 64.2303L126.517 64.0897L125.533 63.8916L112.565 128.593L89.26 118.546L88.8639 119.468L89.8656 119.39C89.7872 118.407 89.7489 117.373 89.7508 116.29C89.7508 110.262 90.899 102.82 92.6212 95.104C95.2246 83.5249 99.1369 71.2799 102.398 61.9627C104.028 57.2984 105.498 53.3516 106.557 50.5903C107.085 49.2039 107.513 48.1103 107.808 47.364C107.955 46.988 108.07 46.7038 108.147 46.5029C108.187 46.4082 108.216 46.3335 108.236 46.2848L108.265 46.213L108.423 45.8255L108.259 45.4437C106.999 42.4815 105.676 38.397 104.407 33.9623C102.504 27.3059 100.73 19.84 99.4297 14.0476C98.781 11.1485 98.25 8.66855 97.8826 6.91475C97.6989 6.03642 97.5554 5.34179 97.4578 4.86531C97.409 4.62707 97.3717 4.44337 97.3487 4.31994C97.3257 4.19651 97.3114 4.13336 97.3114 4.13336L96.324 4.32855L96.3383 5.33318L96.3355 4.30559Z" fill="#231F20"/>
<path d="M204.302 139.755C204.302 139.755 206.827 168.235 207.028 170.256C207.229 172.277 222.583 192.272 216.928 195.515C214.302 197.525 208.317 187.303 208.317 187.303C208.317 187.303 215.522 201.778 212.089 202.99C208.656 204.201 204.21 190.771 204.21 190.771C204.21 190.771 209.262 206.222 206.635 207.031C204.009 207.841 199.431 194.508 199.431 194.508C199.431 194.508 201.787 210.263 197.949 209.858C194.112 209.454 186.032 184.812 186.032 184.812C186.032 184.812 181.778 183.184 178.953 189.444C176.129 195.705 168.652 190.455 171.275 183.991C173.899 177.527 182.992 168.439 182.992 168.439L180.589 139.664L204.302 139.755Z" fill="white"/>
<path d="M204.302 139.755L203.303 139.842C203.303 139.842 203.934 146.963 204.589 154.337C204.919 158.022 205.252 161.771 205.519 164.728C205.651 166.206 205.765 167.483 205.854 168.459C205.943 169.435 206.004 170.095 206.03 170.359C206.045 170.5 206.077 170.639 206.124 170.773C206.211 171.019 206.315 171.259 206.437 171.49C206.684 171.975 207.028 172.57 207.453 173.27C208.197 174.496 209.175 176.04 210.238 177.753C211.825 180.319 213.581 183.264 214.928 186.011C215.558 187.268 216.106 188.564 216.567 189.892C216.923 190.863 217.127 191.884 217.172 192.918C217.186 193.304 217.117 193.688 216.971 194.046C216.915 194.168 216.84 194.281 216.75 194.381C216.657 194.483 216.549 194.569 216.429 194.637L216.369 194.671L216.314 194.712C216.292 194.73 216.267 194.744 216.239 194.755C216.208 194.759 216.176 194.759 216.145 194.755C216.058 194.751 215.972 194.736 215.889 194.709C215.58 194.593 215.289 194.431 215.028 194.229C214.307 193.663 213.649 193.021 213.065 192.315C212.088 191.149 211.182 189.925 210.352 188.649C209.991 188.104 209.695 187.636 209.491 187.303C209.388 187.137 209.307 187.016 209.256 186.916C209.234 186.883 209.214 186.85 209.196 186.815V186.789L207.43 187.742V187.768C207.562 188.032 208.725 190.403 209.844 193.196C210.418 194.594 210.955 196.098 211.357 197.484C211.561 198.176 211.724 198.839 211.839 199.442C211.943 199.958 212 200.483 212.011 201.009C212.026 201.307 211.982 201.604 211.882 201.885C211.864 201.929 211.838 201.97 211.805 202.005C211.791 202.021 211.773 202.032 211.753 202.037C211.716 202.051 211.677 202.057 211.638 202.057C211.553 202.054 211.469 202.033 211.391 201.997C211.057 201.83 210.759 201.6 210.513 201.319C209.763 200.467 209.12 199.526 208.599 198.518C207.674 196.789 206.857 195.005 206.153 193.176C205.843 192.381 205.579 191.698 205.418 191.213C205.332 190.971 205.266 190.779 205.223 190.638L205.171 190.492V190.455L203.265 191.081L203.297 191.187C203.469 191.718 204.25 194.181 204.985 197.008C205.352 198.42 205.708 199.924 205.969 201.313C206.216 202.5 206.359 203.707 206.394 204.919C206.409 205.29 206.367 205.662 206.271 206.021C206.261 206.056 206.247 206.089 206.23 206.121V206.144L206.363 206.242L206.265 206.113L206.23 206.144L206.363 206.242L206.265 206.113L206.454 206.362L206.363 206.075C206.328 206.086 206.295 206.103 206.265 206.124L206.454 206.374L206.363 206.087L206.42 206.276V206.078H206.363L206.42 206.268V206.184L206.437 206.07H206.42V206.184L206.437 206.07C206.38 206.05 206.326 206.022 206.276 205.986C205.973 205.755 205.706 205.479 205.484 205.168C204.811 204.239 204.223 203.252 203.727 202.218C202.841 200.455 202.005 198.437 201.394 196.87C201.09 196.086 200.84 195.415 200.668 194.938L200.47 194.384C200.45 194.318 200.432 194.269 200.421 194.238L200.404 194.189L198.426 194.643C198.425 194.66 198.425 194.677 198.426 194.694C198.463 194.953 198.638 196.19 198.805 197.852C198.971 199.514 199.123 201.583 199.123 203.515C199.123 204.33 199.098 205.117 199.032 205.828C198.992 206.316 198.924 206.801 198.828 207.281C198.772 207.563 198.695 207.84 198.598 208.11C198.522 208.354 198.398 208.579 198.234 208.773C198.206 208.801 198.174 208.825 198.139 208.842C198.117 208.848 198.094 208.848 198.073 208.842H198.036V208.88V208.842V208.88V208.842H198.015C197.858 208.774 197.715 208.676 197.594 208.555C197.027 207.989 196.536 207.352 196.133 206.661C194.966 204.703 193.935 202.668 193.047 200.57C191.474 197.002 189.95 192.975 188.822 189.846C188.248 188.282 187.794 186.941 187.47 185.991C187.309 185.518 187.183 185.13 187.097 184.883C187.054 184.754 187.019 184.657 186.999 184.596L186.965 184.499L186.815 184.042L186.367 183.873C185.85 183.696 185.307 183.609 184.76 183.618C184.24 183.618 183.722 183.69 183.222 183.83C182.213 184.121 181.29 184.651 180.529 185.374C179.467 186.416 178.623 187.659 178.046 189.031C177.767 189.719 177.314 190.323 176.732 190.785C176.331 191.087 175.844 191.251 175.342 191.253C174.91 191.247 174.485 191.139 174.102 190.937C173.411 190.57 172.837 190.016 172.446 189.338C171.979 188.539 171.735 187.629 171.74 186.703C171.745 185.902 171.907 185.109 172.217 184.37C172.98 182.617 173.927 180.951 175.041 179.398C176.793 176.926 178.692 174.562 180.727 172.317C181.588 171.355 182.332 170.56 182.863 170.003L183.483 169.36L183.649 169.194L183.689 169.154L183.704 169.139L184.031 168.809L181.68 140.662L204.299 140.751V139.747L203.3 139.833L204.299 139.747V138.742L179.487 138.647L181.982 168.514L182.983 168.43L182.274 167.719C182.274 167.719 179.978 170.015 177.343 173.135C176.028 174.691 174.628 176.456 173.382 178.253C172.179 179.923 171.159 181.717 170.336 183.603C169.933 184.587 169.725 185.64 169.722 186.703C169.708 188.397 170.307 190.039 171.407 191.327C171.904 191.906 172.508 192.383 173.187 192.731C173.851 193.074 174.586 193.256 175.334 193.262C176.265 193.261 177.171 192.959 177.917 192.401C178.78 191.735 179.455 190.857 179.878 189.852C180.739 187.917 181.72 186.881 182.576 186.31C182.944 186.054 183.351 185.86 183.781 185.736C184.106 185.645 184.443 185.598 184.78 185.598C185.015 185.597 185.248 185.621 185.478 185.67L185.65 185.713H185.681L185.834 185.279L185.67 185.71L185.822 185.277L185.659 185.707L186.017 184.769L185.061 185.081C185.061 185.081 187.088 191.264 189.605 197.516C190.764 200.487 192.088 203.391 193.572 206.213C194.139 207.297 194.803 208.328 195.556 209.293C195.855 209.668 196.198 210.007 196.577 210.301C196.755 210.439 196.948 210.557 197.151 210.654C197.367 210.754 197.598 210.819 197.835 210.846C197.914 210.85 197.994 210.85 198.073 210.846C198.429 210.848 198.78 210.761 199.095 210.593C199.354 210.453 199.585 210.268 199.778 210.045C200.095 209.665 200.338 209.229 200.495 208.759C200.759 207.979 200.931 207.171 201.009 206.351C201.103 205.407 201.147 204.458 201.141 203.509C201.141 201.339 200.96 199.06 200.78 197.312C200.599 195.564 200.415 194.356 200.415 194.347L199.422 194.496L198.472 194.821C198.472 194.838 199.56 197.995 200.992 201.187C201.662 202.73 202.448 204.22 203.343 205.645C203.712 206.231 204.149 206.77 204.646 207.252C204.875 207.469 205.132 207.654 205.41 207.803C205.711 207.966 206.046 208.053 206.388 208.059C206.568 208.059 206.747 208.032 206.919 207.978C207.241 207.877 207.526 207.685 207.74 207.424C207.882 207.251 207.997 207.058 208.082 206.85C208.2 206.554 208.28 206.243 208.32 205.926C208.365 205.589 208.386 205.25 208.383 204.91C208.343 203.474 208.172 202.044 207.872 200.639C207.416 198.288 206.739 195.759 206.173 193.787C205.608 191.815 205.16 190.449 205.157 190.44L203.248 191.069C203.972 193.196 204.806 195.285 205.745 197.326C206.437 198.869 207.274 200.343 208.245 201.727C208.667 202.32 209.166 202.854 209.729 203.314C209.993 203.525 210.282 203.702 210.591 203.839C210.915 203.979 211.265 204.052 211.618 204.055C211.885 204.055 212.15 204.009 212.402 203.92C212.701 203.816 212.973 203.646 213.197 203.423C213.509 203.103 213.731 202.708 213.843 202.275C213.954 201.857 214.007 201.425 214.001 200.992C213.991 200.317 213.917 199.644 213.78 198.983C213.499 197.635 213.125 196.308 212.66 195.013C211.657 192.223 210.501 189.491 209.196 186.829L208.297 187.277L207.436 187.782C208.329 189.278 209.3 190.725 210.344 192.12C211.146 193.219 212.046 194.245 213.03 195.185C213.474 195.603 213.963 195.97 214.489 196.279C214.739 196.423 215.003 196.54 215.278 196.629C215.556 196.722 215.846 196.77 216.139 196.772C216.644 196.776 217.135 196.61 217.534 196.302L216.923 195.504L217.419 196.365C217.721 196.197 217.995 195.983 218.231 195.731C218.57 195.353 218.821 194.905 218.966 194.419C219.112 193.931 219.182 193.424 219.176 192.915C219.15 191.884 218.977 190.862 218.662 189.881C217.984 187.778 217.111 185.742 216.056 183.801C214.405 180.63 212.385 177.389 210.769 174.806C209.962 173.514 209.256 172.386 208.759 171.53C208.51 171.103 208.311 170.744 208.185 170.48C208.122 170.351 208.076 170.244 208.05 170.176L208.027 170.112L207.7 170.193L208.036 170.158C208.037 170.143 208.037 170.128 208.036 170.112L207.709 170.193L208.045 170.158C208.019 169.914 207.958 169.248 207.869 168.275C207.559 164.877 206.922 157.724 206.363 151.421C206.075 148.263 205.82 145.333 205.631 143.183C205.533 142.106 205.455 141.228 205.401 140.619C205.346 140.011 205.318 139.669 205.318 139.669L205.237 138.757H204.322L204.302 139.755Z" fill="#231F20"/>
<path d="M111.072 129.049C111.072 129.049 112.22 153.019 112.22 154.77C112.22 156.521 122.995 170.391 122.186 173.623C121.377 176.855 115.452 175.776 113.575 172.007C111.698 168.238 108.055 168.37 108.055 168.37C108.055 168.37 108.595 194.491 105.363 195.708C102.131 196.925 100.885 178.738 100.885 178.738C100.885 178.738 103.207 196.919 99.3034 197.324C95.9652 197.668 95.4801 188.669 95.4083 186.046C95.4083 185.905 95.9365 179.852 95.1644 186.003C94.8773 188.299 91.651 195.033 88.7491 195.033C85.3046 195.033 88.7319 184.987 90.8846 179.479C90.8846 179.479 84.0847 190.59 81.5272 189.378C78.9697 188.167 85.0176 172.541 85.0176 172.541C85.0176 172.541 77.2131 178.201 73.8519 177.389C70.4907 176.577 70.4849 173.755 71.2915 171.599C72.0981 169.444 85.5658 157.055 85.5658 157.055L88.8668 119.453L111.072 129.049Z" fill="white"/>
<path d="M111.072 129.049L110.07 129.098C110.07 129.098 110.087 129.471 110.119 130.128C110.231 132.424 110.506 138.223 110.753 143.619C110.877 146.32 110.994 148.923 111.081 150.947C111.124 151.96 111.161 152.827 111.184 153.487C111.184 153.817 111.207 154.093 111.213 154.311C111.218 154.529 111.213 154.687 111.213 154.762C111.215 154.91 111.236 155.057 111.273 155.201C111.345 155.449 111.441 155.689 111.56 155.918C111.83 156.489 112.13 157.044 112.458 157.583C113.121 158.691 114.005 160.058 114.964 161.539C116.399 163.76 117.998 166.24 119.224 168.428C119.773 169.385 120.268 170.372 120.708 171.384C120.865 171.751 120.999 172.128 121.107 172.512C121.178 172.751 121.22 172.998 121.23 173.247C121.231 173.298 121.226 173.349 121.216 173.399C121.165 173.62 121.06 173.824 120.909 173.993C120.759 174.162 120.568 174.29 120.355 174.366C120.014 174.495 119.651 174.557 119.287 174.55C118.334 174.524 117.404 174.253 116.586 173.764C115.684 173.255 114.949 172.495 114.47 171.576C114.035 170.689 113.436 169.891 112.705 169.226C111.882 168.486 110.9 167.945 109.835 167.644C109.275 167.482 108.696 167.395 108.113 167.386H108.009L107.028 167.429L107.048 168.41C107.048 168.41 107.048 168.511 107.048 168.697C107.048 169.271 107.076 170.643 107.076 172.489C107.076 176.175 106.999 181.74 106.623 186.462C106.49 188.5 106.222 190.527 105.822 192.53C105.694 193.151 105.502 193.757 105.248 194.338C105.185 194.485 105.104 194.622 105.007 194.749C104.99 194.769 104.972 194.787 104.952 194.803L105.056 194.958L104.992 194.783L104.952 194.803L105.056 194.958L104.992 194.783L105.018 194.849L105.004 194.78L105.03 194.846L105.015 194.778L105.05 194.953V194.775H105.015L105.05 194.95L105.11 194.778H105.05V194.958L105.11 194.786L105.087 194.849L105.116 194.789L105.093 194.852L105.122 194.792C105.041 194.734 104.971 194.662 104.915 194.579C104.637 194.172 104.415 193.729 104.255 193.262C103.794 191.927 103.441 190.557 103.199 189.166C102.745 186.801 102.418 184.174 102.205 182.148C102.099 181.135 102.022 180.268 101.97 179.659C101.944 179.352 101.927 179.111 101.913 178.947C101.913 178.864 101.913 178.801 101.898 178.758C101.884 178.715 101.898 178.698 101.898 178.698L100.896 178.764L99.9004 178.893C99.8993 178.912 99.8993 178.931 99.9004 178.95C100.309 182.318 100.533 185.705 100.572 189.097C100.572 190.122 100.541 191.124 100.472 192.045C100.417 192.737 100.342 193.38 100.239 193.951C100.144 194.628 99.9437 195.285 99.645 195.9C99.5741 196.043 99.4767 196.172 99.3579 196.279C99.3163 196.317 99.2644 196.342 99.2087 196.351H99.1254C99.0502 196.35 98.9756 196.338 98.9044 196.313C98.717 196.232 98.5532 196.104 98.4279 195.943C98.2329 195.705 98.068 195.444 97.9371 195.165C97.6191 194.476 97.3766 193.754 97.2138 193.012C96.9214 191.723 96.718 190.415 96.6053 189.097C96.4876 187.837 96.4388 186.718 96.4216 186.043L95.4169 186.069H95.7499L96.4216 186.1V186.069H95.7499L96.4216 186.1C96.4216 186.1 96.4216 186.043 96.4216 185.971C96.4388 185.719 96.4818 185.202 96.5163 184.691C96.5364 184.438 96.5536 184.183 96.5651 183.962C96.5766 183.741 96.588 183.552 96.588 183.388C96.5918 183.325 96.5918 183.262 96.588 183.198C96.588 183.175 96.588 183.15 96.588 183.118C96.588 183.087 96.588 183.066 96.5708 183.029C96.5468 182.928 96.5071 182.831 96.4531 182.742C96.3325 182.548 96.1522 182.399 95.9393 182.317C95.8271 182.277 95.7085 182.256 95.5892 182.257C95.4117 182.256 95.2372 182.302 95.084 182.392C94.9961 182.444 94.916 182.507 94.8457 182.581C94.7847 182.651 94.7317 182.727 94.6879 182.808C94.6592 182.868 94.6343 182.929 94.6132 182.992C94.5931 183.066 94.5817 183.115 94.5702 183.173C94.5587 183.23 94.53 183.376 94.507 183.523C94.4381 183.953 94.3377 184.691 94.1855 185.891C94.1413 186.191 94.0731 186.488 93.9817 186.778C93.2974 188.896 92.229 190.87 90.8301 192.602C90.4854 193.02 90.0846 193.389 89.6389 193.698C89.4816 193.805 89.3119 193.891 89.1337 193.957C89.0095 194.002 88.8785 194.026 88.7462 194.028C88.691 194.033 88.6357 194.023 88.5854 194C88.5616 193.984 88.5411 193.963 88.5252 193.939C88.4432 193.81 88.3876 193.666 88.3616 193.515C88.3044 193.222 88.2774 192.925 88.2812 192.628C88.3059 191.714 88.4174 190.805 88.6142 189.912C88.9954 188.17 89.4746 186.451 90.0493 184.763C90.6234 182.995 91.2721 181.27 91.8261 179.846L90.035 178.956L90.0178 178.982C89.8484 179.269 88.3128 181.732 86.5044 184.1C85.6707 185.22 84.7534 186.275 83.7604 187.257C83.402 187.609 83.0097 187.924 82.5892 188.199C82.4563 188.281 82.316 188.351 82.1702 188.408C82.1028 188.433 82.0323 188.449 81.9606 188.454V188.509L81.9836 188.457V188.512L82.0066 188.46L81.9147 188.655L82.0869 188.523C82.0658 188.496 82.0382 188.474 82.0066 188.46L81.9147 188.655L82.0869 188.523C82.0478 188.443 82.0207 188.358 82.0066 188.27C81.9649 188.041 81.9457 187.809 81.9492 187.576C81.9602 186.989 82.0149 186.404 82.1128 185.825C82.3483 184.461 82.6568 183.111 83.037 181.78C83.6398 179.616 84.3832 177.389 84.9745 175.707C85.2616 174.866 85.5285 174.163 85.7122 173.669C85.8041 173.422 85.8758 173.227 85.9275 173.095C85.9505 173.029 85.9705 172.977 85.982 172.946L86.0021 172.894L87.2306 169.719L84.4751 171.728H84.4607C84.277 171.861 82.5778 173.072 80.5168 174.234C79.4873 174.827 78.419 175.35 77.3192 175.799C76.8351 175.994 76.3384 176.156 75.8324 176.284C75.4388 176.389 75.0341 176.447 74.6268 176.456C74.4608 176.458 74.2952 176.441 74.1331 176.404C73.7344 176.316 73.3519 176.166 72.9993 175.959C72.63 175.749 72.3306 175.434 72.1382 175.055C71.962 174.674 71.8756 174.258 71.8856 173.838C71.9021 173.189 72.0313 172.548 72.2674 171.944C72.3297 171.816 72.4047 171.695 72.4913 171.582C72.859 171.083 73.2528 170.604 73.671 170.147C74.5867 169.119 75.841 167.825 77.1958 166.47C79.2309 164.438 81.5014 162.268 83.2666 160.606C84.1479 159.776 84.8999 159.073 85.4338 158.576L86.0566 158.002L86.2777 157.799L86.5647 157.534L89.7422 120.929L110.676 129.97L111.072 129.049L110.07 129.098L111.072 129.049L111.471 128.125L87.9827 117.972L84.5641 156.972L85.5629 157.058L84.8827 156.32C84.8827 156.32 81.51 159.423 78.0282 162.802C76.2888 164.492 74.5235 166.246 73.1285 167.733C72.431 168.476 71.8254 169.148 71.3575 169.722C71.1221 170.009 70.9212 170.273 70.7547 170.517C70.5903 170.744 70.4535 170.99 70.3471 171.249C70.0269 172.08 69.855 172.96 69.8391 173.85C69.8366 174.326 69.9013 174.801 70.0314 175.259C70.2426 176.002 70.6584 176.67 71.2312 177.188C71.9143 177.775 72.7333 178.181 73.6136 178.37C73.9289 178.443 74.2516 178.479 74.5752 178.477C75.1637 178.467 75.7489 178.385 76.3175 178.233C77.4067 177.936 78.4642 177.533 79.4749 177.03C80.9327 176.315 82.3464 175.514 83.7087 174.63C84.8425 173.904 85.5859 173.362 85.5974 173.353L85.009 172.541L84.0704 172.179C84.0704 172.179 83.0313 174.863 81.9922 178.106C81.4698 179.728 80.9503 181.491 80.557 183.144C80.359 183.973 80.1925 184.771 80.0748 185.518C79.9589 186.201 79.8955 186.892 79.8854 187.584C79.8733 188.086 79.9401 188.587 80.0834 189.068C80.163 189.312 80.2813 189.54 80.4336 189.746C80.6063 189.976 80.8317 190.161 81.0909 190.285C81.3604 190.412 81.6545 190.476 81.952 190.475C82.2633 190.471 82.5715 190.412 82.8619 190.3C83.406 190.083 83.9118 189.781 84.3603 189.404C85.2882 188.627 86.1389 187.762 86.9005 186.821C88.1549 185.323 89.3576 183.629 90.2531 182.303C91.1487 180.977 91.7342 180.007 91.74 180.007L90.8789 179.481L89.946 179.111C89.194 181.043 88.2841 183.52 87.5579 185.954C87.1933 187.174 86.8747 188.379 86.6451 189.508C86.4219 190.532 86.2969 191.576 86.2719 192.625C86.2694 193.019 86.3031 193.413 86.3724 193.802C86.4207 194.081 86.5017 194.354 86.6135 194.614C86.6986 194.817 86.8085 195.009 86.9407 195.185C87.1491 195.46 87.4196 195.681 87.7301 195.831C88.0483 195.978 88.3955 196.053 88.7462 196.049C89.2898 196.041 89.8234 195.902 90.3019 195.644C91.1573 195.167 91.908 194.523 92.5092 193.75C93.918 191.953 95.0171 189.933 95.7614 187.774C95.9494 187.242 96.0869 186.693 96.1718 186.135C96.301 185.107 96.3929 184.413 96.4589 184.008C96.4905 183.801 96.5134 183.661 96.5278 183.592V183.563L95.8762 183.399L96.4991 183.652C96.5103 183.623 96.5199 183.593 96.5278 183.563L95.8762 183.399L96.4991 183.652L95.615 183.29L96.39 183.847C96.4341 183.787 96.4707 183.721 96.4991 183.652L95.615 183.29L96.39 183.847L95.5834 183.273L96.1776 184.068C96.2594 184.008 96.3311 183.936 96.39 183.853L95.5834 183.279L96.1776 184.074L95.5805 183.273L95.9393 184.206C96.0247 184.174 96.1049 184.129 96.1776 184.074L95.5805 183.273L95.9393 184.206L95.5777 183.273V184.275C95.7015 184.275 95.8242 184.252 95.9393 184.206L95.5777 183.273L95.2677 184.226C95.3677 184.259 95.4723 184.277 95.5777 184.278V183.273L95.2677 184.226L95.5777 183.276L94.863 183.976C94.9758 184.091 95.1146 184.177 95.2677 184.226L95.5777 183.276L94.863 183.976L95.5748 183.279L94.7137 183.77C94.7562 183.845 94.8083 183.914 94.8687 183.976L95.5805 183.279L94.7194 183.77L95.5805 183.287L94.6391 183.56C94.6603 183.633 94.6901 183.704 94.728 183.77L95.5892 183.287L94.6477 183.56L95.5088 183.31L94.6218 183.422C94.6268 183.469 94.6364 183.515 94.6505 183.56L95.5117 183.31L94.6247 183.422L95.1471 183.356L94.6218 183.376C94.6218 183.376 94.6218 183.376 94.6218 183.422L95.1442 183.356L94.619 183.376V183.397C94.619 183.48 94.619 183.704 94.5931 183.971C94.5702 184.361 94.5329 184.849 94.5013 185.248C94.4869 185.449 94.4726 185.627 94.464 185.762C94.464 185.831 94.464 185.885 94.4496 185.931V185.994C94.4496 186.017 94.4496 186.029 94.4496 186.077V186.106C94.4668 186.763 94.5099 187.808 94.6161 189.014C94.6965 189.918 94.8113 190.914 94.9778 191.904C95.0974 192.642 95.2555 193.373 95.4514 194.094C95.6978 195.099 96.1111 196.054 96.6742 196.922C96.95 197.324 97.3008 197.669 97.7075 197.938C98.1291 198.2 98.6148 198.34 99.1111 198.343C99.2029 198.343 99.3005 198.343 99.3981 198.328C99.7925 198.286 100.169 198.14 100.489 197.906C100.752 197.714 100.981 197.478 101.166 197.209C101.488 196.724 101.732 196.193 101.89 195.633C102.168 194.643 102.349 193.627 102.429 192.602C102.533 191.491 102.573 190.285 102.573 189.065C102.573 186.537 102.398 183.93 102.225 181.95C102.053 179.969 101.878 178.617 101.878 178.606L99.8689 178.801C99.8689 178.818 100.156 183.089 100.836 187.412C101.123 189.453 101.568 191.468 102.168 193.44C102.404 194.207 102.741 194.94 103.17 195.619C103.37 195.922 103.622 196.188 103.913 196.405C104.07 196.522 104.243 196.614 104.427 196.678C104.624 196.749 104.832 196.786 105.041 196.787C105.266 196.786 105.488 196.745 105.699 196.666C106.029 196.536 106.32 196.321 106.542 196.043C106.74 195.803 106.907 195.539 107.039 195.257C107.317 194.648 107.532 194.012 107.682 193.36C108.027 191.846 108.274 190.312 108.42 188.767C108.977 183.552 109.074 176.766 109.077 172.478C109.077 170.001 109.043 168.362 109.043 168.356L108.038 168.376L108.081 169.38L108.061 168.93V169.38L108.041 168.93V169.38C108.676 169.399 109.302 169.541 109.884 169.797C110.409 170.018 110.894 170.326 111.319 170.707C111.862 171.203 112.306 171.798 112.628 172.46C113.283 173.727 114.29 174.777 115.53 175.483C116.669 176.156 117.966 176.516 119.29 176.528C120.126 176.549 120.951 176.336 121.672 175.913C122.035 175.689 122.352 175.396 122.605 175.052C122.874 174.693 123.069 174.284 123.179 173.85C123.228 173.642 123.252 173.429 123.251 173.215C123.246 172.86 123.198 172.506 123.11 172.162C122.912 171.407 122.643 170.673 122.307 169.969C121.555 168.394 120.719 166.86 119.801 165.376C118.328 162.945 116.643 160.411 115.343 158.364C114.691 157.342 114.135 156.441 113.753 155.758C113.563 155.416 113.417 155.129 113.328 154.925C113.296 154.853 113.268 154.779 113.245 154.704V154.681L112.897 154.75H113.248C113.249 154.727 113.249 154.704 113.248 154.681L112.9 154.75H113.251C113.251 154.615 113.251 154.417 113.251 154.142C113.216 153.108 113.13 151.03 113.018 148.478C112.679 140.832 112.108 128.98 112.108 128.98L112.079 128.354L111.505 128.105L111.072 129.049Z" fill="#231F20"/>
<path d="M194.479 174.154C194.479 174.154 197.924 183.052 190.438 183.448C182.952 183.844 182.352 185.549 182.352 185.549" fill="white"/>
<path d="M193.546 174.518C193.694 174.924 193.819 175.338 193.919 175.758C194.136 176.61 194.253 177.484 194.267 178.362C194.273 178.87 194.214 179.376 194.092 179.869C194.008 180.206 193.877 180.528 193.701 180.828C193.437 181.28 193.051 181.65 192.588 181.895C191.906 182.243 191.154 182.43 190.389 182.444C186.577 182.653 184.45 183.184 183.19 183.73C182.705 183.924 182.257 184.2 181.867 184.548C181.664 184.728 181.504 184.952 181.399 185.202L183.285 185.9L182.679 185.676L183.219 186.037C183.245 185.994 183.267 185.948 183.285 185.9L182.679 185.676L183.219 186.037L183.064 185.934L183.213 186.046L183.058 185.943L183.207 186.055C183.29 185.965 183.387 185.889 183.494 185.831C184.132 185.48 184.819 185.229 185.532 185.087C187.164 184.732 188.824 184.521 190.492 184.459C191.451 184.427 192.394 184.207 193.268 183.81C193.819 183.551 194.319 183.195 194.743 182.759C195.312 182.158 195.729 181.43 195.96 180.635C196.175 179.9 196.279 179.137 196.27 178.371C196.255 177.305 196.113 176.245 195.845 175.213C195.729 174.737 195.585 174.267 195.415 173.807L193.546 174.518Z" fill="#231F20"/>
<path d="M96.5766 162.687C96.5766 162.687 95.6322 171.442 103.443 168.881C111.253 166.321 107.849 169.825 108.339 168.746" fill="white"/>
<path d="M95.5777 162.581C95.5469 162.897 95.5325 163.215 95.5346 163.534C95.5332 164.145 95.5812 164.756 95.6781 165.359C95.7644 165.918 95.9067 166.467 96.103 166.998C96.2616 167.43 96.4686 167.842 96.7201 168.227C97.1312 168.859 97.6897 169.382 98.3476 169.751C99.1208 170.163 99.9861 170.371 100.862 170.356C101.848 170.335 102.824 170.16 103.755 169.837C104.596 169.554 105.451 169.314 106.316 169.116C106.768 169.007 107.231 168.944 107.696 168.93C107.786 168.928 107.875 168.935 107.963 168.95H107.989L108.021 168.847L107.975 168.944H107.989L108.021 168.841L107.975 168.939L108.187 168.474L107.774 168.761C107.823 168.839 107.892 168.902 107.975 168.944L108.187 168.479L107.774 168.766L108.299 168.41H107.662C107.663 168.537 107.702 168.661 107.774 168.766L108.299 168.41H108.118L107.691 168.241C107.671 168.295 107.661 168.353 107.662 168.41H108.118L107.691 168.241L107.88 168.316L107.731 168.178C107.713 168.196 107.7 168.217 107.691 168.241L107.88 168.316L107.731 168.178L108.107 168.522L107.82 168.103C107.787 168.124 107.757 168.149 107.731 168.178L108.107 168.522L107.82 168.103L108.27 168.763L107.96 168.026C107.911 168.047 107.864 168.073 107.82 168.103L108.27 168.763L107.96 168.026L108.322 168.887V167.96C108.198 167.96 108.075 167.984 107.96 168.031L108.322 168.893V168.936L108.715 168.049C108.591 167.995 108.457 167.967 108.322 167.965V168.936L108.715 168.049L108.319 168.944L109.014 168.258C108.932 168.171 108.835 168.1 108.727 168.049L108.331 168.944L109.025 168.258L108.336 168.939L109.264 168.651C109.216 168.504 109.134 168.369 109.025 168.258L108.336 168.939L109.264 168.651L108.374 168.939H109.304C109.305 168.841 109.292 168.745 109.264 168.651L108.374 168.939H108.535L109.275 169.16C109.296 169.088 109.306 169.013 109.304 168.939H108.535L109.275 169.16L108.89 169.045L109.264 169.188V169.16L108.879 169.045L109.252 169.188L109.143 169.145L109.252 169.194L109.143 169.151L109.252 169.2L107.435 168.327C107.4 168.402 107.37 168.48 107.346 168.56C107.311 168.675 107.292 168.795 107.292 168.916C107.291 169.012 107.304 169.109 107.329 169.203C107.365 169.343 107.429 169.474 107.52 169.587C107.61 169.701 107.723 169.794 107.851 169.86C108 169.936 108.164 169.975 108.331 169.975C108.437 169.975 108.542 169.959 108.644 169.929C108.752 169.894 108.856 169.845 108.951 169.782C109.056 169.711 109.152 169.629 109.238 169.536C109.354 169.403 109.451 169.254 109.525 169.094C109.625 168.884 109.678 168.654 109.68 168.422C109.681 168.187 109.622 167.956 109.508 167.75C109.415 167.587 109.291 167.444 109.143 167.328C108.94 167.175 108.708 167.068 108.46 167.012C108.212 166.956 107.959 166.929 107.705 166.932C107.098 166.946 106.493 167.024 105.902 167.165C104.966 167.368 104.04 167.619 103.13 167.917C102.4 168.173 101.635 168.315 100.862 168.336C100.245 168.36 99.6353 168.192 99.1168 167.856C98.8042 167.634 98.5405 167.349 98.3418 167.021C98.0213 166.471 97.8026 165.867 97.696 165.239C97.594 164.67 97.5431 164.094 97.5439 163.516C97.5439 163.281 97.5439 163.092 97.5611 162.962C97.5611 162.896 97.5611 162.848 97.5611 162.816V162.776L97.2741 162.747L97.5611 162.779L97.2741 162.75L97.5611 162.782L95.5518 162.566L95.5777 162.581Z" fill="#231F20"/>
<path d="M196.026 44.6027C196.026 44.6027 183.5 53.8941 185.524 73.2863C187.547 92.6785 202.49 81.6104 211.782 98.4623C221.073 115.314 244.504 138.329 279.235 126.207C313.967 114.086 284.485 90.2531 275.194 81.3664C265.903 72.4797 283.274 59.9534 255.805 48.6442C228.335 37.3349 202.516 36.7092 196.026 44.6027Z" fill="#231F20"/>
<path d="M201.885 46.6234C201.885 46.6234 191.787 48.8451 191.178 61.1647C190.57 73.4844 201.885 78.9409 205.926 77.7296C205.926 77.7296 210.774 58.9431 212.591 59.3593C214.408 59.7755 222.488 65.6224 223.903 56.1272C225.318 46.632 213.802 49.4622 213.802 49.4622L213.602 45.2198L222.893 43.6038C222.893 43.6038 214.813 29.8519 199.663 33.8962C184.513 37.9406 187.745 43.5923 187.745 43.5923L201.48 43.997L201.885 46.6234Z" fill="white"/>
<path d="M201.885 46.6235L201.669 45.6389C199.641 46.1841 197.752 47.1558 196.13 48.4892C194.519 49.7846 193.189 51.394 192.22 53.2196C190.963 55.667 190.265 58.3631 190.177 61.1131C190.159 61.4489 190.151 61.7819 190.151 62.1091C190.128 64.6444 190.659 67.1541 191.706 69.463C193.041 72.3451 195.158 74.7953 197.815 76.5356C198.926 77.2705 200.125 77.8644 201.382 78.3037C202.435 78.6811 203.542 78.8847 204.66 78.9065C205.185 78.9127 205.708 78.8431 206.213 78.6999L206.756 78.5391L206.896 77.988C206.896 77.988 206.917 77.9191 206.951 77.7871C207.212 76.7853 208.412 72.2473 209.758 67.9848C210.427 65.855 211.139 63.7912 211.767 62.2986C212.01 61.7081 212.298 61.1371 212.629 60.5907C212.697 60.4733 212.779 60.3645 212.873 60.2663L212.841 60.2319L212.87 60.2692L212.838 60.2348L212.867 60.2721L212.637 59.9621L212.781 60.318C212.81 60.3047 212.839 60.2894 212.867 60.2721L212.637 59.9621L212.781 60.318L212.531 59.7066V60.3639C212.616 60.3637 212.701 60.3481 212.781 60.318L212.531 59.7066V59.6205L212.364 60.3438C212.419 60.3571 212.475 60.3638 212.531 60.3639V59.6205L212.364 60.3438C212.47 60.3722 212.574 60.4077 212.674 60.45C212.962 60.562 213.349 60.7371 213.823 60.9638C214.625 61.3468 215.448 61.685 216.288 61.9771C217.241 62.316 218.242 62.5001 219.253 62.5225C219.892 62.5284 220.526 62.4225 221.128 62.2096C221.606 62.0346 222.052 61.7814 222.448 61.4604C223.113 60.9051 223.644 60.2064 224.001 59.4167C224.453 58.414 224.755 57.3501 224.896 56.2593C224.982 55.7046 225.026 55.1443 225.029 54.583C225.056 53.4413 224.799 52.3107 224.279 51.2936C223.933 50.6501 223.459 50.0837 222.887 49.6287C222.081 49.0098 221.15 48.5749 220.158 48.3543C219.235 48.1416 218.291 48.0375 217.345 48.0443C216.072 48.0474 214.803 48.1899 213.561 48.4691L213.803 49.445L214.807 49.3962L214.646 46.0408L224.495 44.3186L223.76 43.07C222.458 41.0316 220.865 39.1944 219.032 37.6163C217.293 36.0846 215.333 34.822 213.22 33.8704C210.677 32.7351 207.924 32.1483 205.14 32.1482C203.2 32.1556 201.27 32.4172 199.399 32.9261C197.152 33.4988 194.959 34.2672 192.846 35.2224C190.283 36.4222 188.693 37.6765 187.722 38.9079C187.29 39.4457 186.95 40.0521 186.718 40.7019C186.535 41.2056 186.438 41.7363 186.431 42.272C186.43 42.7032 186.495 43.132 186.623 43.5436C186.681 43.7345 186.758 43.9192 186.853 44.0947L187.14 44.5826L200.605 44.9787L200.892 46.7785L201.885 46.6263L201.669 45.6389L201.885 46.6206L202.878 46.4656L202.347 43.0212L187.774 42.5935L187.745 43.5981L188.606 43.0987L188.239 43.3111L188.615 43.1159V43.0987L188.248 43.3111L188.624 43.1159C188.508 42.8508 188.451 42.5639 188.457 42.2749C188.465 41.8289 188.573 41.3904 188.773 40.9918C189.016 40.5094 189.334 40.0686 189.714 39.6858C190.711 38.7111 191.866 37.9123 193.13 37.3235C195.304 36.2788 197.579 35.4575 199.919 34.8722C201.62 34.4067 203.376 34.1664 205.14 34.1575C207.643 34.1555 210.119 34.6817 212.405 35.7017C215.135 36.9518 217.582 38.7438 219.598 40.9688C220.254 41.6791 220.867 42.4287 221.432 43.2135C221.636 43.5005 221.788 43.7244 221.888 43.8794L221.997 44.0516L222.02 44.0947L222.882 43.5837L222.709 42.5935L212.542 44.3616L212.847 50.708L214.032 50.421C215.116 50.1816 216.223 50.0584 217.333 50.0536C218.033 50.0483 218.733 50.1137 219.42 50.2487C219.915 50.3452 220.397 50.5014 220.855 50.7137C221.483 51.0008 222.017 51.4608 222.394 52.0399C222.842 52.8101 223.06 53.6926 223.022 54.583C223.004 55.8609 222.755 57.125 222.287 58.3145C222.128 58.7043 221.915 59.0696 221.653 59.3995C221.367 59.7663 220.994 60.0554 220.568 60.2405C220.151 60.4104 219.704 60.4934 219.253 60.4845C218.658 60.473 218.068 60.3823 217.497 60.2147C216.592 59.9485 215.711 59.6096 214.862 59.2014C214.463 59.0177 214.095 58.8455 213.762 58.6963C213.596 58.6245 213.438 58.5585 213.283 58.4982C213.129 58.44 212.972 58.3911 212.812 58.3518C212.718 58.3299 212.622 58.3193 212.525 58.3202C212.293 58.3224 212.065 58.3826 211.862 58.4953C211.712 58.5786 211.574 58.6819 211.452 58.8025C211.238 59.0204 211.05 59.2622 210.892 59.5229C210.533 60.1259 210.218 60.7543 209.95 61.403C209.397 62.7033 208.802 64.3451 208.243 66.0875C206.52 71.3144 204.95 77.4512 204.947 77.4599L205.92 77.7125L205.633 76.7509C205.314 76.8366 204.985 76.8772 204.655 76.8714C203.393 76.8262 202.154 76.5285 201.009 75.996C198.629 74.9251 196.566 73.2582 195.019 71.1565C193.109 68.5316 192.102 65.358 192.148 62.112C192.148 61.825 192.148 61.5178 192.171 61.2164C192.318 58.2686 193.033 55.9751 193.983 54.1668C194.635 52.94 195.475 51.8225 196.471 50.8544C197.599 49.77 198.904 48.8857 200.329 48.2395C200.753 48.0458 201.188 47.8771 201.632 47.7343C201.79 47.6826 201.919 47.6511 201.988 47.6281L202.074 47.608H202.091L201.985 47.0741L202.1 47.5937L201.985 47.0741L202.1 47.5937L203.021 47.3927L202.878 46.4599L201.885 46.6235Z" fill="#231F20"/>
<path d="M202.246 70.6713L202.479 71.0617L202.249 70.6713L202.482 71.0617L202.252 70.6713C201.738 70.9547 201.202 71.1975 200.65 71.3975C199.48 71.8417 198.242 72.0806 196.991 72.1036C196.451 72.105 195.914 72.0492 195.386 71.9372L194.958 73.8976C195.626 74.0426 196.308 74.1148 196.991 74.1129C198.501 74.0867 199.996 73.7952 201.405 73.2518C202.054 73.0168 202.682 72.7288 203.283 72.3907L202.255 70.6685L202.246 70.6713Z" fill="#231F20"/>
<path d="M199.967 69.2448V65.4071H197.958V69.2448" fill="#231F20"/>
<path d="M206.397 58.7422V57.7375H197.786V58.7422L198.747 59.0292L198.348 58.9058L198.744 59.0349L198.346 58.9115L198.742 59.0407C198.915 58.5758 199.171 58.146 199.497 57.772C199.785 57.4351 200.133 57.1547 200.524 56.9453C201.023 56.6848 201.575 56.5405 202.137 56.5234H202.307C202.828 56.5147 203.343 56.6434 203.799 56.8965C204.082 57.0594 204.338 57.2657 204.557 57.5079C204.838 57.8193 205.071 58.1704 205.249 58.5499C205.321 58.702 205.369 58.8369 205.401 58.9087C205.432 58.9804 205.424 58.9833 205.43 59.0005V59.0177L206.024 58.8455L205.43 59.012L206.024 58.8398L205.43 59.0062L206.397 58.7364L207.364 58.4666C207.143 57.7578 206.796 57.0946 206.339 56.509C205.917 55.9546 205.388 55.4901 204.784 55.1427C204.026 54.7173 203.17 54.4985 202.301 54.5084H202.043C201.157 54.5395 200.29 54.7753 199.511 55.1973C198.648 55.6769 197.922 56.3684 197.401 57.2065C197.161 57.5875 196.968 57.9961 196.827 58.4236L196.417 59.7468H207.717L207.361 58.4724L206.397 58.7422Z" fill="#231F20"/>
<path d="M219.667 57.0629C219.649 56.8491 219.614 56.637 219.563 56.4286C219.489 56.1029 219.383 55.7855 219.245 55.4813C218.965 54.8472 218.529 54.2949 217.976 53.8768C217.638 53.6242 217.259 53.4302 216.857 53.3027C216.392 53.157 215.908 53.0853 215.421 53.0903V55.0996C215.858 55.0814 216.29 55.1922 216.664 55.4182C216.865 55.5477 217.039 55.7154 217.175 55.9119C217.36 56.1812 217.495 56.4817 217.574 56.7989C217.609 56.9309 217.629 57.0428 217.64 57.1146C217.652 57.1863 217.64 57.1777 217.64 57.1921L218.031 57.1605L217.64 57.1863L218.031 57.1548L217.64 57.1806L219.649 57.0457L219.667 57.0629Z" fill="#231F20"/>
<path d="M232.184 2.58337C232.184 2.58337 235.327 17.3285 240.508 26.2151C245.689 35.1018 250.348 42.78 250.348 42.78L225.316 53.1019C225.316 53.1019 216.63 41.586 212.792 39.769C208.954 37.9521 197.838 36.5485 191.379 43.7129C191.379 43.7129 173.009 47.0397 165.325 26.0343L174.415 19.3664V3.59661L232.184 2.58337Z" fill="#EE4947"/>
<path d="M232.184 2.58331L231.203 2.78998C231.203 2.81007 231.998 6.52146 233.444 11.3523C234.168 13.772 235.055 16.473 236.094 19.1367C237.085 21.7532 238.276 24.2895 239.656 26.7231C244.854 35.6213 249.501 43.2966 249.504 43.2995L250.365 42.78L249.984 41.85L224.937 52.1517L225.318 53.0817L226.122 52.4761C226.122 52.4761 223.935 49.577 221.26 46.4483C219.922 44.8811 218.464 43.2536 217.078 41.8873C216.383 41.2013 215.708 40.5841 215.068 40.0646C214.502 39.5895 213.884 39.1802 213.226 38.8447C212.092 38.3395 210.903 37.9695 209.684 37.7425C208.107 37.4339 206.505 37.2791 204.899 37.2803C202.381 37.2621 199.878 37.6736 197.499 38.4974C194.869 39.4088 192.509 40.9651 190.636 43.024L191.382 43.6956L191.201 42.7082L191.253 42.9953L191.204 42.7082L191.256 42.9953L191.207 42.7082C190.343 42.8345 189.471 42.8931 188.598 42.8833C184.752 42.8917 180.967 41.9196 177.601 40.0589C175.247 38.7266 173.156 36.9756 171.43 34.8922C169.481 32.5615 167.699 29.559 166.263 25.6697L165.322 26.0141L165.916 26.8236L175.417 19.8629V4.59257L232.202 3.59942L232.184 2.58331L231.203 2.78998L232.184 2.58331L232.167 1.57868L173.411 2.60914V18.844L164.122 25.6553L164.38 26.3643C165.873 30.4489 167.773 33.6694 169.883 36.1867C172.569 39.4431 176.071 41.9275 180.033 43.3856C182.776 44.3846 185.673 44.8955 188.592 44.8954C189.584 44.9073 190.576 44.8382 191.557 44.6888L191.896 44.6256L192.125 44.373C193.775 42.5609 195.854 41.192 198.17 40.3918C200.334 39.6471 202.608 39.2754 204.896 39.2925C206.37 39.2907 207.841 39.433 209.287 39.7173C210.345 39.911 211.377 40.2279 212.362 40.6616C212.874 40.9308 213.356 41.2562 213.797 41.6318C214.994 42.642 216.124 43.7304 217.178 44.8897C218.981 46.8215 220.818 49.0288 222.201 50.7453C222.893 51.6064 223.47 52.344 223.875 52.8665L224.345 53.475C224.4 53.5467 224.44 53.6013 224.469 53.6357L224.509 53.6903L224.977 54.3103L251.823 43.2679L251.218 42.2633L251.008 41.9189C250.05 40.3287 245.928 33.4828 241.384 25.7128C240.057 23.3712 238.912 20.9309 237.96 18.4134C236.591 14.8272 235.411 11.1721 234.423 7.46294C234.013 5.94451 233.697 4.67007 233.488 3.77738C233.381 3.33248 233.301 2.97942 233.246 2.74118C233.221 2.62349 233.2 2.53164 233.186 2.47136L233.172 2.40248V2.38238L233 1.57007L232.173 1.58729L232.184 2.58331Z" fill="#231F20"/>
<path d="M250.362 42.7858C250.362 42.7858 267.725 70.4935 267.938 94.4955C268.208 124.795 262.246 169.412 260.262 170.041C257.03 171.051 255.549 170.11 256.163 157.084C256.163 157.084 252.719 155.026 252.719 158.932C252.719 162.839 252.989 171.849 251.778 172.937C250.566 174.025 247.185 174.823 246.258 172.937C246.258 172.937 244.909 177.11 241.665 175.36C239.225 174.039 239.814 164.808 240.247 160.365C240.27 160.254 240.251 160.139 240.193 160.042C240.135 159.945 240.043 159.873 239.934 159.841C239.826 159.809 239.709 159.818 239.608 159.868C239.506 159.918 239.427 160.004 239.386 160.109C237.058 164.475 231.765 174.025 230.201 173.6C228.192 173.063 224.007 172.524 226.564 167.136C229.122 161.748 236.665 144.515 236.665 144.515C236.665 144.515 224.678 145.726 224.409 143.435C224.139 141.145 221.177 138.185 230.873 135.625C240.569 133.065 243.261 123.102 243.261 123.102C243.261 123.102 246.935 71.2656 225.316 53.1019L250.362 42.7858Z" fill="white"/>
<path d="M250.362 42.7857L249.501 43.3167V43.3368C252.822 48.8584 255.771 54.5946 258.331 60.5074C260.666 65.8054 262.623 71.2622 264.186 76.8369C265.785 82.6638 266.858 88.7145 266.91 94.5041C266.91 95.1681 266.91 95.8378 266.91 96.5133C266.91 111.563 265.475 129.769 263.801 144.268C262.966 151.515 262.079 157.842 261.261 162.371C260.859 164.633 260.478 166.453 260.148 167.687C260.031 168.152 259.886 168.61 259.711 169.056C259.679 169.14 259.639 169.22 259.594 169.297L259.935 169.553L259.648 169.228C259.622 169.247 259.6 169.271 259.582 169.297L259.924 169.553L259.637 169.228L260.136 169.802L259.906 169.071C259.808 169.102 259.716 169.151 259.637 169.217L260.136 169.791L259.906 169.059C259.503 169.202 259.082 169.286 258.655 169.309C258.545 169.31 258.436 169.297 258.331 169.269C258.263 169.247 258.199 169.215 258.141 169.174C257.978 169.045 257.849 168.879 257.765 168.689C257.454 167.981 257.26 167.228 257.191 166.458C257.028 165.009 256.955 163.551 256.973 162.093C256.973 160.68 257.019 159.027 257.108 157.107L257.136 156.507L256.62 156.197C256.394 156.068 256.159 155.954 255.917 155.858C255.411 155.642 254.868 155.525 254.318 155.514C253.984 155.51 253.653 155.569 253.342 155.689C253.094 155.801 252.869 155.956 252.676 156.148C252.335 156.468 252.082 156.87 251.941 157.316C251.78 157.838 251.702 158.381 251.711 158.927C251.711 160.141 251.737 161.823 251.737 163.605C251.737 165.615 251.706 167.733 251.571 169.418C251.525 170.12 251.434 170.819 251.298 171.51C251.259 171.711 251.202 171.908 251.129 172.099C251.112 172.139 251.093 172.178 251.071 172.216L251.275 172.363L251.109 172.176L251.071 172.216L251.275 172.363L251.109 172.176C250.78 172.441 250.405 172.643 250.004 172.773C249.518 172.952 249.006 173.049 248.488 173.06C248.181 173.069 247.876 173.014 247.592 172.897C247.497 172.853 247.409 172.795 247.331 172.725C247.259 172.656 247.199 172.574 247.156 172.483L246.054 170.285L245.299 172.624L245.873 172.814L245.299 172.621L245.873 172.811L245.299 172.618C245.14 173.059 244.921 173.475 244.648 173.855C244.463 174.117 244.234 174.345 243.97 174.527C243.742 174.686 243.471 174.772 243.192 174.774C242.827 174.758 242.471 174.651 242.156 174.464C242.081 174.421 242.016 174.364 241.964 174.295C241.758 174.023 241.603 173.717 241.504 173.39C241.249 172.566 241.086 171.716 241.016 170.856C240.913 169.846 240.87 168.715 240.87 167.555C240.87 164.989 241.077 162.299 241.258 160.454C241.26 160.406 241.26 160.358 241.258 160.31C241.258 160.102 241.213 159.896 241.126 159.707C241.005 159.442 240.804 159.22 240.551 159.073C240.321 158.932 240.055 158.858 239.785 158.858C239.531 158.858 239.281 158.925 239.062 159.053C238.826 159.189 238.634 159.388 238.505 159.627C237.357 161.754 235.528 165.121 233.777 167.928C233.031 169.154 232.218 170.337 231.34 171.473C231.069 171.822 230.768 172.148 230.442 172.446C230.367 172.512 230.287 172.57 230.201 172.621H230.184L230.212 172.69L230.189 172.621L230.218 172.69L230.195 172.621L230.321 173V172.604C230.279 172.602 230.236 172.608 230.195 172.621L230.321 173V173.181L230.462 172.621C230.416 172.609 230.369 172.604 230.321 172.604V173.178L230.462 172.618L230.218 173.591L230.476 172.621C230.052 172.509 229.59 172.406 229.136 172.277C228.806 172.185 228.483 172.071 228.169 171.935C227.776 171.779 227.426 171.532 227.147 171.215C227.033 171.072 226.944 170.912 226.883 170.741C226.81 170.522 226.775 170.292 226.779 170.061C226.779 169.487 226.96 168.669 227.488 167.561C228.134 166.2 229.087 164.116 230.155 161.734C233.358 154.607 237.601 144.911 237.601 144.908L238.29 143.332L236.567 143.507H236.536C236.194 143.539 233.244 143.82 230.385 143.817C229.664 143.817 228.949 143.8 228.292 143.757C227.798 143.725 227.333 143.679 226.923 143.619C226.451 143.564 225.989 143.447 225.548 143.269C225.477 143.24 225.411 143.201 225.353 143.151L225.287 143.211L225.359 143.16L225.293 143.22L225.364 143.168L225.112 143.352L225.419 143.318C225.413 143.264 225.395 143.213 225.364 143.168L225.112 143.352L225.419 143.318C225.333 142.777 225.203 142.244 225.029 141.725C224.892 141.319 224.813 140.897 224.793 140.47C224.788 140.205 224.848 139.943 224.968 139.707C225.097 139.464 225.267 139.246 225.471 139.061C226.038 138.564 226.681 138.163 227.376 137.872C228.594 137.343 229.854 136.916 231.142 136.595C233.477 135.982 235.656 134.884 237.538 133.372C239.727 131.591 241.526 129.378 242.822 126.87C243.413 125.757 243.894 124.588 244.257 123.38L244.283 123.285V123.188C244.283 123.168 244.515 119.861 244.515 114.622C244.515 106.841 244.005 94.7997 241.453 82.9422C240.175 77.0149 238.387 71.1278 235.879 65.8377C233.37 60.5476 230.138 55.8459 225.95 52.324L225.316 53.1018L225.697 54.029L250.747 43.7272L250.362 42.8001L249.501 43.3311L250.362 42.8001L249.981 41.8701L223.398 52.789L224.667 53.8539C228.568 57.1347 231.653 61.5895 234.073 66.693C237.707 74.3483 239.814 83.4474 241.028 92.0728C242.034 99.5452 242.531 107.077 242.518 114.617C242.518 117.2 242.46 119.318 242.403 120.777C242.374 121.508 242.345 122.077 242.323 122.461C242.323 122.654 242.305 122.8 242.3 122.898C242.3 122.947 242.3 122.981 242.3 123.007V123.041L243.301 123.11L242.334 122.849L242.77 122.967L242.334 122.846L242.77 122.964L242.334 122.843C241.767 124.646 240.937 126.354 239.868 127.912C238.877 129.396 237.667 130.72 236.278 131.839C234.622 133.163 232.708 134.124 230.657 134.661C229.385 134.98 228.138 135.392 226.926 135.892C225.43 136.532 224.414 137.209 223.74 137.993C223.424 138.358 223.177 138.777 223.011 139.23C222.868 139.631 222.797 140.054 222.801 140.479C222.818 141.096 222.925 141.708 223.117 142.296C223.256 142.708 223.365 143.13 223.441 143.559C223.482 143.897 223.623 144.216 223.846 144.474C224.017 144.667 224.217 144.831 224.44 144.959C224.819 145.172 225.227 145.33 225.651 145.427C226.38 145.6 227.123 145.71 227.87 145.757C228.68 145.821 229.544 145.844 230.408 145.844C233.588 145.844 236.774 145.519 236.794 145.519L236.694 144.52L235.772 144.116C235.772 144.116 235.655 144.385 235.442 144.868C234.705 146.552 232.822 150.841 230.85 155.296C228.878 159.75 226.8 164.377 225.683 166.711C225.072 168 224.782 169.096 224.779 170.075C224.765 170.858 224.993 171.627 225.43 172.277C225.726 172.695 226.098 173.053 226.527 173.333C227.106 173.698 227.734 173.978 228.393 174.165C228.998 174.346 229.561 174.47 229.968 174.579C230.083 174.606 230.201 174.621 230.319 174.622C230.606 174.617 230.888 174.541 231.14 174.401C231.344 174.289 231.537 174.157 231.714 174.005C232.082 173.686 232.421 173.335 232.727 172.957C233.421 172.101 234.067 171.207 234.661 170.279C236.697 167.182 238.967 163.054 240.279 160.577L239.794 160.322L240.066 160.792C240.155 160.741 240.229 160.667 240.279 160.577L239.794 160.322L240.066 160.792L239.779 160.302V160.876C239.88 160.875 239.979 160.849 240.066 160.798L239.779 160.307V160.342L239.446 160.741C239.543 160.83 239.67 160.88 239.802 160.879V160.339L239.446 160.741L239.831 160.313L239.306 160.551C239.34 160.623 239.388 160.687 239.446 160.741L239.831 160.313L239.306 160.551L239.814 160.322H239.257C239.256 160.401 239.272 160.479 239.306 160.551L239.814 160.322H239.719L239.257 160.279V160.322H239.719L239.257 160.279C239.073 162.167 238.861 164.909 238.861 167.578C238.832 169.309 238.965 171.038 239.257 172.745C239.382 173.45 239.596 174.137 239.894 174.788C240.036 175.088 240.214 175.368 240.425 175.624C240.642 175.874 240.903 176.083 241.194 176.241C241.802 176.588 242.487 176.777 243.186 176.792C243.55 176.792 243.911 176.731 244.254 176.614C244.786 176.428 245.271 176.126 245.672 175.73C246.149 175.257 246.543 174.709 246.84 174.108C246.984 173.83 247.107 173.543 247.208 173.247L246.252 172.94L245.354 173.388C245.503 173.69 245.705 173.963 245.951 174.194C246.298 174.516 246.714 174.753 247.168 174.889C247.594 175.016 248.037 175.079 248.482 175.075C249.228 175.066 249.968 174.933 250.67 174.679C251.317 174.464 251.918 174.128 252.441 173.689C252.57 173.572 252.682 173.436 252.774 173.287C252.923 173.036 253.04 172.767 253.121 172.486C253.28 171.922 253.391 171.346 253.454 170.764C253.577 169.782 253.649 168.623 253.689 167.391C253.729 166.16 253.744 164.863 253.744 163.62C253.744 161.82 253.718 160.129 253.718 158.941C253.711 158.637 253.746 158.334 253.821 158.04C253.849 157.932 253.894 157.83 253.953 157.735C253.986 157.667 254.042 157.613 254.111 157.583C254.196 157.548 254.287 157.533 254.378 157.537C254.675 157.552 254.966 157.619 255.239 157.735C255.371 157.79 255.486 157.845 255.564 157.882L255.647 157.928H255.664L255.951 157.454L255.664 157.925L255.951 157.451L255.664 157.922L256.181 157.061L255.176 157.012C255.084 158.955 255.038 160.637 255.038 162.093C255.027 163.475 255.086 164.856 255.216 166.232C255.286 166.966 255.415 167.694 255.601 168.407C255.711 168.833 255.867 169.244 256.066 169.636C256.201 169.899 256.367 170.144 256.56 170.368C256.836 170.688 257.183 170.94 257.573 171.103C257.938 171.249 258.328 171.323 258.721 171.318C259.352 171.298 259.976 171.183 260.572 170.976C260.751 170.918 260.914 170.82 261.049 170.689C261.218 170.524 261.357 170.329 261.459 170.115C261.669 169.674 261.84 169.215 261.97 168.743C262.28 167.69 262.613 166.22 262.969 164.375C264.209 157.922 265.705 146.894 266.893 134.494C268.081 122.094 268.962 108.345 268.962 96.476C268.962 95.7929 268.962 95.1174 268.962 94.4495C268.908 88.3299 267.763 82.0179 266.092 75.9844C263.58 66.9342 259.872 58.5067 256.789 52.3326C253.706 46.1584 251.241 42.2719 251.215 42.2518L250.764 41.5314L249.981 41.8557L250.362 42.7857Z" fill="#231F20"/>
<path d="M247.26 172.917L247.01 159.417L245.003 159.455L245.253 172.954" fill="#231F20"/>
<path d="M165.325 26.0199L161.283 2.58911L174.415 3.59661V19.3521L165.325 26.0199Z" fill="white"/>
<path d="M165.325 26.0199L166.315 25.8477L162.495 3.68839L173.411 4.52654V18.8439L164.731 25.2076L165.325 26.0199L166.315 25.8477L165.325 26.0199L165.919 26.8293L175.42 19.8629V2.66654L160.075 1.48682L164.61 27.788L165.919 26.8293L165.325 26.0199Z" fill="#231F20"/>
<path d="M98.0577 71.3631C98.0577 71.3631 89.7767 86.7167 78.0598 82.4743C66.343 78.2319 69.3741 72.7782 63.1138 68.1224C56.8535 63.4667 63.7195 45.0963 70.1835 42.8632C74.0995 41.5336 78.1747 40.7295 82.3022 40.4722C82.3022 40.4722 98.0577 68.5358 98.0577 71.3631Z" fill="#231F20"/>
<path d="M88.3415 65.3928L82.4142 64.3164L82.0554 66.2912L87.9827 67.3705" fill="#231F20"/>
<path d="M83.9871 74.1904C83.9871 74.1904 93.1293 75.6715 94.088 68.8056C95.0467 61.9397 97.8596 49.4134 87.0843 47.2577V38.6466L96.9842 35.2797C96.9842 35.2797 96.6455 29.892 85.3333 32.0477C74.0212 34.2033 68.1111 42.0078 68.1111 42.0078L75.9214 41.8729L76.4352 46.721C76.4352 46.721 70.6571 45.9259 68.1111 50.4898C65.5651 55.0537 71.8828 54.7953 71.8828 54.7953C71.8828 54.7953 74.5752 52.034 76.4754 52.4703C78.3756 52.9066 77.5518 52.6397 73.6481 57.35C69.7444 62.0602 70.9556 65.1 72.1669 67.6173C73.3782 70.1346 75.5052 74.0555 83.9871 74.1904Z" fill="white"/>
<path d="M83.9871 74.1905L83.8264 75.1836C85.3782 75.3957 86.9529 75.3773 88.4993 75.1291C89.9755 74.912 91.3759 74.3364 92.5781 73.4528C93.2325 72.9452 93.7823 72.3155 94.197 71.5986C94.6616 70.7792 94.9628 69.8775 95.084 68.9435C95.2705 67.603 95.5346 66.0099 95.7528 64.3049C95.9953 62.5344 96.1257 60.7502 96.1431 58.9632C96.1562 57.5912 96.035 56.2213 95.7815 54.8729C95.5912 53.8846 95.2878 52.9215 94.8773 52.0025C94.2552 50.5921 93.2997 49.3539 92.093 48.3945C90.6804 47.3176 89.0311 46.5933 87.2823 46.2819L87.0842 47.2664H88.0889V39.3614L98.0347 35.9773L97.9859 35.2109C97.9587 34.9163 97.8921 34.6267 97.7879 34.3498C97.6325 33.9192 97.4128 33.5147 97.1363 33.1499C96.5087 32.3422 95.6789 31.7144 94.7309 31.3301C93.5828 30.8422 92.093 30.5293 90.124 30.5293C88.4522 30.5491 86.7859 30.7249 85.1467 31.0546C80.313 31.9808 75.7634 34.0265 71.8627 37.0278C70.1688 38.2912 68.6353 39.7563 67.2959 41.3908L66.0473 43.0556L75.0115 42.9006L75.4478 46.8387L76.4467 46.7297L76.5873 45.7336C76.2063 45.6885 75.8228 45.6674 75.4392 45.6705C74.0787 45.6618 72.7283 45.9031 71.4551 46.3824C70.6258 46.697 69.851 47.1396 69.1588 47.6941C68.3717 48.3354 67.715 49.1218 67.2242 50.0105C66.9971 50.4058 66.8133 50.8244 66.6759 51.2591C66.5562 51.6303 66.4924 52.0173 66.4865 52.4073C66.4832 52.8014 66.5604 53.1921 66.7132 53.5554C66.8373 53.8466 67.0101 54.1145 67.2242 54.3476C67.5677 54.715 67.9829 55.008 68.4441 55.2087C69.0469 55.4687 69.6839 55.6407 70.3356 55.7197C70.781 55.7788 71.2297 55.8085 71.679 55.8086H71.9057H72.3105L72.5975 55.5216L72.4367 55.3637L72.5975 55.5216L72.4367 55.3637L72.5975 55.5216C73.0025 55.123 73.4361 54.7546 73.8949 54.4194C74.2552 54.1518 74.6395 53.9183 75.043 53.7219C75.347 53.5653 75.6805 53.4744 76.0218 53.4549C76.0884 53.4546 76.1548 53.4613 76.2199 53.475C76.3835 53.5124 76.5213 53.5439 76.6246 53.5726C76.6819 53.5847 76.7384 53.6 76.794 53.6186H76.8198L77.0322 53.1105L76.6418 53.4894C76.6903 53.5457 76.7512 53.59 76.8198 53.6186L77.0322 53.1105L76.6418 53.4894L77.2159 52.9153L76.4667 53.2311C76.5055 53.3245 76.561 53.4101 76.6304 53.4837L77.2044 52.9096L76.4553 53.2253L77.2188 52.9038H76.3892C76.3899 53.0143 76.4123 53.1236 76.4553 53.2253L77.2188 52.9038H77.1212L76.4237 52.6799C76.4011 52.7524 76.3895 52.8279 76.3892 52.9038H77.1212L76.4237 52.6799L76.8514 52.8177L76.4524 52.6053C76.4524 52.6053 76.4524 52.6369 76.4237 52.6799L76.8514 52.8177L76.4524 52.6053L76.5643 52.6656L76.4553 52.6024L76.5672 52.6627L76.4581 52.5996C76.3593 52.7328 76.253 52.8603 76.1395 52.9813C75.8525 53.2856 75.442 53.7276 74.888 54.3361C74.3341 54.9447 73.6452 55.7197 72.8243 56.7099C71.9028 57.7814 71.1489 58.9863 70.5882 60.2836C69.8071 62.086 69.7222 64.1141 70.35 65.9755C70.589 66.6872 70.8767 67.3815 71.2111 68.0536C71.5674 68.8241 71.9859 69.5643 72.4626 70.2667C73.455 71.696 74.797 72.8472 76.3605 73.6107C78.2091 74.5321 80.6661 75.1349 83.9527 75.1865L83.967 74.1819L83.8063 75.175L83.967 74.1819L83.9842 73.1773C82.3059 73.1806 80.6351 72.9536 79.0185 72.5027C77.4594 72.0806 76.0427 71.2468 74.9167 70.0887C74.1424 69.2294 73.5106 68.2516 73.0453 67.1925C72.7501 66.6036 72.4968 65.9945 72.2875 65.3699C71.8049 63.9629 71.8694 62.4258 72.4683 61.0643C72.9532 59.9535 73.6025 58.922 74.3943 58.0045C75.663 56.4746 76.593 55.4872 77.2217 54.8098C77.5374 54.4711 77.7785 54.2127 77.9737 53.9687C78.0769 53.8456 78.1682 53.713 78.2464 53.5726C78.2953 53.4812 78.3347 53.385 78.3641 53.2856C78.4055 53.1596 78.4268 53.0279 78.4272 52.8952C78.4262 52.7251 78.3901 52.557 78.321 52.4015C78.2621 52.2755 78.1814 52.1609 78.0828 52.0628C77.963 51.9435 77.823 51.8464 77.6694 51.7758C77.5111 51.7058 77.3468 51.6501 77.1786 51.6093C77.0236 51.5691 76.86 51.5318 76.6763 51.4887C76.461 51.4375 76.2403 51.4124 76.019 51.4141C75.3764 51.4332 74.7456 51.5919 74.1704 51.8791C73.4106 52.2519 72.7001 52.7176 72.055 53.2655C71.5154 53.7133 71.168 54.0692 71.1479 54.0864L71.8684 54.7897L71.8311 53.785V53.9458V53.785V53.9458V53.785H71.6732C71.3721 53.784 71.0712 53.7668 70.7719 53.7334C70.4689 53.7004 70.1687 53.6457 69.8735 53.5698C69.6601 53.5159 69.4517 53.4439 69.2506 53.3545C69.0247 53.2609 68.8234 53.1165 68.6622 52.9325C68.609 52.8652 68.5673 52.7896 68.5388 52.7087C68.5045 52.609 68.4879 52.504 68.49 52.3986C68.4945 52.2036 68.5273 52.0102 68.5876 51.8246C68.6866 51.5254 68.8155 51.2369 68.9722 50.9635C69.3404 50.2976 69.8324 49.7082 70.4217 49.2269C71.2007 48.6116 72.1035 48.172 73.0682 47.9381C73.838 47.7459 74.6285 47.6495 75.4219 47.6511C75.709 47.6511 75.9357 47.6511 76.0907 47.674L76.2629 47.6912H76.306L76.3519 47.3611L76.306 47.6912L76.3519 47.3611L76.306 47.6912L77.5862 47.8721L76.8026 40.8282L68.0767 40.9803L68.0939 41.9849L68.8947 42.5906L68.5617 42.338L68.8947 42.5935L68.5617 42.3409L68.8947 42.5963C70.144 41.0829 71.5724 39.7268 73.1486 38.5577C76.7862 35.7738 81.0216 33.8742 85.5199 33.0093C87.0321 32.7029 88.5697 32.5386 90.1125 32.5185C91.3169 32.4887 92.517 32.6723 93.6574 33.061C94.1584 33.2348 94.6255 33.4941 95.038 33.8274C95.4045 34.1207 95.6925 34.5004 95.8762 34.9324C95.9223 35.0437 95.9579 35.159 95.9824 35.2769C95.9824 35.3142 95.9824 35.34 95.9967 35.3515H96.0972H95.9967H96.0972H95.9967L96.6742 35.2941L95.9939 35.3372L96.6713 35.2798L95.991 35.3228L96.9956 35.2597L96.6713 34.3096L86.0796 37.9205V48.0816L86.8891 48.2452C88.1844 48.4756 89.4173 48.9743 90.5086 49.7091C91.1808 50.1807 91.7681 50.763 92.2452 51.4313C92.9529 52.4552 93.4531 53.6079 93.7177 54.8241C94.0132 56.1806 94.1529 57.5664 94.1339 58.9546C94.1163 60.6562 93.9917 62.3549 93.7607 64.0409C93.5483 65.6999 93.2842 67.2758 93.0919 68.6564C92.9931 69.5312 92.6621 70.3637 92.1332 71.0675C91.7864 71.5102 91.3624 71.8865 90.8817 72.1784C90.1305 72.6224 89.3063 72.9295 88.4477 73.0854C87.6418 73.2402 86.8227 73.3161 86.0021 73.3122C85.4481 73.3122 84.9745 73.2806 84.6444 73.249C84.4808 73.2347 84.3574 73.2203 84.2655 73.2088L84.1852 73.1945H84.1622L84.1105 73.5102L84.1622 73.1945L84.1105 73.5102L84.1622 73.1945H84.0905H84.0187L83.9871 74.1905Z" fill="#231F20"/>
<path d="M120.065 3.89793C120.065 3.89793 120.2 36.3503 97.4405 35.4089C97.4405 35.4089 95.1442 27.6962 82.2276 32.7652C69.3109 37.8343 67.3447 42.2776 67.3447 42.2776C67.3447 42.2776 65.2608 49.4134 56.776 49.1436C48.2912 48.8738 34.8263 50.0879 34.8263 50.0879L38.3367 56.8333L13.155 75.4046C13.155 75.4046 -1.52409 48.7963 0.226836 31.5339C1.97776 14.2714 39.4074 19.7883 39.4074 19.7883L39.0027 3.22339L120.065 3.89793Z" fill="#EE4947"/>
<path d="M120.065 3.89798L119.06 3.88076V3.90946C119.034 5.62041 118.917 7.32875 118.71 9.02733C118.412 11.6434 117.921 14.2338 117.24 16.7773C116.092 21.014 114.206 25.4746 111.213 28.8157C109.718 30.5182 107.892 31.8975 105.845 32.8686C103.51 33.9349 100.966 34.4692 98.3993 34.433C98.0979 34.433 97.7879 34.433 97.475 34.4129L97.4348 35.4175L98.3993 35.1305C98.0535 34.1424 97.4814 33.2488 96.7287 32.5213C95.9838 31.7829 95.1012 31.1978 94.131 30.7991C92.8123 30.2743 91.4024 30.0167 89.9833 30.0413C87.8047 30.0413 85.1382 30.5465 81.8516 31.8353C75.3129 34.3985 71.4953 36.824 69.288 38.6524C67.0807 40.4809 66.4836 41.7209 66.4176 41.8787L66.3918 41.939L66.3745 41.9993L66.762 42.1141L66.3745 41.9964L66.762 42.1112L66.3745 41.9935C65.9664 43.152 65.33 44.2169 64.5031 45.1251C63.7265 45.9944 62.785 46.7008 61.7332 47.2033C60.324 47.8527 58.7867 48.1764 57.2353 48.1505H56.799C55.9379 48.1247 55.028 48.1132 54.0894 48.1132C49.8699 48.1132 45.0362 48.36 41.2502 48.604C37.4642 48.848 34.7488 49.0834 34.7431 49.0834L33.2505 49.2183L37.048 56.5176L12.558 74.6009L13.155 75.4104L14.0333 74.9167V74.8995C11.5648 70.2749 9.35229 65.5182 7.40565 60.6509C5.68468 56.4257 4.22849 52.0975 3.04556 47.6912C1.86584 43.179 1.09371 38.6295 1.09371 34.5277C1.09098 33.5616 1.13697 32.5959 1.23149 31.6344C1.33591 30.5177 1.63716 29.4283 2.1213 28.4167C2.9839 26.7099 4.2959 25.2709 5.91593 24.2547C8.43899 22.5755 11.8375 21.479 15.5001 20.8274C19.1902 20.2191 22.9261 19.9309 26.6658 19.9663C30.1505 19.9663 33.3107 20.173 35.5927 20.3825C36.7408 20.4859 37.6565 20.5892 38.2908 20.6696L39.0199 20.7643L39.2065 20.7901H39.2524L40.4321 20.9652L40.0389 4.23669L120.065 4.90261V3.89798L119.06 3.88076L120.065 3.89798V2.89335L37.9722 2.21021L38.4085 19.8056L39.4132 19.7826L39.5595 18.7895C35.2854 18.2182 30.978 17.9305 26.6658 17.9284C23.7394 17.9159 20.8149 18.0808 17.9083 18.4221C13.4621 18.9703 9.0963 20.0295 5.64612 22.0416C3.94641 22.995 2.46665 24.2957 1.30325 25.8592C0.123833 27.4979 -0.594775 29.4228 -0.777773 31.4334C-0.878236 32.4409 -0.927032 33.4772 -0.927032 34.5306C-0.927032 38.9509 -0.0888844 43.7158 1.14825 48.4203C3.01112 55.4585 5.78676 62.31 8.10028 67.4164C10.4138 72.5228 12.2623 75.8725 12.2709 75.8897L12.8249 76.8915L39.6227 57.1204L35.7247 49.6259L34.8349 50.0909L34.9239 51.0897H35.0473C35.6558 51.0381 38.4745 50.8027 42.117 50.5673C45.7595 50.332 50.223 50.1224 54.1066 50.1253C55.028 50.1253 55.9178 50.1253 56.7531 50.1626C56.9167 50.1626 57.0832 50.1626 57.2468 50.1626C59.124 50.19 60.9827 49.7874 62.6804 48.9858C63.6853 48.4949 64.6073 47.8499 65.413 47.0741C66.3268 46.199 67.0909 45.1799 67.6748 44.0573C67.9344 43.5756 68.1496 43.0712 68.3178 42.5504L67.3533 42.2634L68.2719 42.6681L67.7667 42.4442L68.2632 42.6824V42.6681L67.7581 42.4442L68.2546 42.6824C68.312 42.5734 68.889 41.5084 70.9614 39.8752C73.0338 38.242 76.5931 36.0433 82.5893 33.6953C85.6979 32.4754 88.1233 32.0362 89.9862 32.0391C91.1437 32.0158 92.2942 32.2236 93.3704 32.6505C94.3807 33.0536 95.2563 33.7342 95.8963 34.6138C96.0813 34.8684 96.2409 35.1404 96.3728 35.4261C96.4187 35.5237 96.4503 35.6012 96.4675 35.65L96.4847 35.6959L96.9928 35.5381L96.4819 35.6873L96.9899 35.5295L96.479 35.6787L96.6828 36.3676L97.4004 36.3992C97.7391 36.3992 98.0749 36.4193 98.405 36.4193C100.97 36.4467 103.515 35.9708 105.897 35.0185C107.745 34.261 109.453 33.1997 110.951 31.8784C113.512 29.6395 115.403 26.7921 116.818 23.7954C118.937 19.2975 119.976 14.4466 120.524 10.6577C120.852 8.41765 121.034 6.15872 121.069 3.89511H120.458H121.069H120.458H121.069L121.087 2.88474H120.073L120.065 3.89798Z" fill="#231F20"/>
<path d="M91.8979 74.7961C94.6309 74.7961 96.8464 71.5859 96.8464 67.6259C96.8464 63.6659 94.6309 60.4557 91.8979 60.4557C89.1649 60.4557 86.9494 63.6659 86.9494 67.6259C86.9494 71.5859 89.1649 74.7961 91.8979 74.7961Z" fill="#231F20"/>
<path d="M79.3515 71.1623C82.0845 71.1623 84.3 67.9521 84.3 63.9921C84.3 60.0321 82.0845 56.8219 79.3515 56.8219C76.6185 56.8219 74.403 60.0321 74.403 63.9921C74.403 67.9521 76.6185 71.1623 79.3515 71.1623Z" fill="#231F20"/>
<path d="M77.0466 62.1952L71.3891 56.1359L69.9194 57.505L75.5769 63.5644" fill="#231F20"/>
<path d="M90.0895 65.2177L81.8343 64.4657L81.6535 66.4663L89.9087 67.2184" fill="#231F20"/>
<path d="M93.2929 56.8333H85.9907C85.9907 56.8333 87.6871 49.1436 93.2929 56.8333Z" fill="white"/>
<path d="M93.2929 56.8334V55.8288H85.9907V56.8334L86.9723 57.0515C86.9723 57.0257 87.0269 56.819 87.1244 56.532C87.2933 56.0055 87.5453 55.5094 87.8707 55.0624C88.012 54.8716 88.186 54.7074 88.3845 54.5773C88.5408 54.4786 88.7221 54.4268 88.9069 54.428C89.0861 54.4316 89.2631 54.4676 89.4293 54.5342C89.8996 54.7369 90.3294 55.0228 90.6981 55.3781C91.3609 55.9992 91.959 56.6859 92.4834 57.4276L93.2929 56.8334L94.1052 56.2421C93.3521 55.1549 92.4396 54.1872 91.3984 53.3717C91.014 53.0825 90.592 52.8469 90.1441 52.6714C89.7496 52.5175 89.3304 52.4368 88.9069 52.4331C88.521 52.4323 88.1387 52.5074 87.7818 52.6541C87.231 52.8908 86.7477 53.2607 86.3753 53.7305C85.9221 54.3038 85.5645 54.9464 85.3161 55.6336C85.1939 55.9601 85.0914 56.2937 85.009 56.6325L84.7392 57.8524H95.2706L94.1052 56.2564L93.2929 56.8334Z" fill="#231F20"/>
<path d="M37.5273 58.7048C37.5273 58.7048 42.915 73.1141 54.7639 81.7338C66.6128 90.3535 77.3422 88.7347 74.403 95.8733C71.4637 103.012 65.8062 96.2751 62.5742 95.0638C59.3421 93.8525 56.0412 94.6591 56.2106 96.0082C56.3799 97.3572 61.228 107.857 64.7298 114.726C68.2317 121.595 62.5742 121.991 61.7676 121.991C60.961 121.991 51.8017 109.198 50.9951 106.64C50.9951 106.64 54.3592 129.129 51.9366 129.531C49.514 129.933 45.7423 128.455 45.3347 124.939C44.9271 121.422 43.8536 110.262 43.8536 110.262L44.6631 125.343C44.6631 125.343 42.1027 127.766 38.8707 125.208L37.5245 109.995C37.5245 109.995 38.7358 124.941 37.5245 124.941C36.3132 124.941 32.8113 125.481 31.7349 116.46C30.6585 107.438 14.6103 74.3082 14.6103 74.3082L37.5273 58.7048Z" fill="white"/>
<path d="M37.5273 58.7048L36.5858 59.0579C37.7656 61.988 39.1895 64.8137 40.8426 67.5054C43.7129 72.2587 48.0931 78.1257 54.1726 82.5461C59.5488 86.4555 64.704 88.3041 68.4039 89.7507C70.2524 90.4683 71.7335 91.0998 72.6463 91.76C73.026 92.0096 73.3519 92.3327 73.605 92.7101C73.799 93.0257 73.8986 93.3902 73.892 93.7606C73.867 94.361 73.7257 94.9507 73.4758 95.4972C73.0252 96.5966 72.5315 97.2539 72.0808 97.6184C71.6977 97.9403 71.212 98.1144 70.7117 98.1092C70.1084 98.0823 69.5168 97.9339 68.9722 97.6729C67.9042 97.1611 66.8824 96.558 65.9181 95.8704C65.4043 95.5259 64.902 95.1872 64.4054 94.8858C63.9367 94.5897 63.4419 94.337 62.9272 94.1309C61.7883 93.7021 60.5821 93.4796 59.3651 93.4736C58.884 93.4723 58.4037 93.5136 57.9299 93.597C57.3007 93.6957 56.6987 93.9234 56.1617 94.2658C55.9 94.441 55.6756 94.6663 55.5016 94.9289C55.3117 95.223 55.212 95.5662 55.2145 95.9163C55.2089 95.9927 55.2089 96.0695 55.2145 96.1459C55.2408 96.3218 55.2801 96.4954 55.3322 96.6654C55.4355 97.0013 55.5848 97.4175 55.7857 97.9255C56.4804 99.7023 57.7692 102.593 59.2474 105.762C60.7256 108.931 62.3904 112.363 63.84 115.197C64.6092 116.701 64.8647 117.806 64.8647 118.558C64.8844 119.024 64.7547 119.485 64.4944 119.872C64.3293 120.104 64.1182 120.3 63.8744 120.446C63.4902 120.672 63.0696 120.83 62.6316 120.911C62.3481 120.97 62.0599 121.003 61.7705 121.009V121.885L62.0747 121.064C61.9774 121.027 61.8743 121.009 61.7705 121.009V121.885L62.0747 121.064L61.8451 121.681L62.1809 121.107C62.1476 121.086 62.112 121.07 62.0747 121.058L61.8451 121.675L62.1809 121.101L62.0001 121.405L62.1981 121.118H62.1809L62.0001 121.422L62.1981 121.135L62.1178 121.256L62.201 121.135L62.1206 121.256L62.2039 121.135C62.1171 121.062 62.0347 120.983 61.957 120.9C61.7217 120.656 61.383 120.263 60.9811 119.772C59.5804 118.05 57.4419 115.122 55.5934 112.401C54.6692 111.04 53.8167 109.729 53.1622 108.646C52.835 108.104 52.5594 107.622 52.3499 107.211C52.198 106.935 52.0674 106.647 51.9595 106.35L50.0077 106.804C50.0077 106.804 50.0077 106.85 50.0278 106.938C50.1282 107.61 50.576 110.71 51.0008 114.401C51.2104 116.247 51.417 118.245 51.5749 120.157C51.7328 122.068 51.8246 123.888 51.8246 125.404C51.8427 126.317 51.7822 127.23 51.6438 128.133C51.6126 128.331 51.5557 128.524 51.4744 128.707V128.722L51.6065 128.811L51.4888 128.702V128.722L51.6208 128.811L51.5031 128.702L51.8304 129.006L51.6065 128.624C51.5681 128.644 51.5332 128.67 51.5031 128.702L51.8304 129.006L51.6065 128.624L51.8935 129.132L51.7959 128.558C51.7248 128.57 51.6567 128.595 51.595 128.633L51.882 129.141L51.7844 128.567C51.5691 128.602 51.3511 128.62 51.1329 128.618C50.6035 128.614 50.0775 128.533 49.5714 128.377C48.7638 128.14 48.0273 127.707 47.4272 127.117C47.1389 126.826 46.8987 126.491 46.7154 126.124C46.5207 125.729 46.3964 125.302 46.3479 124.864C46.147 123.142 45.7739 119.459 45.4581 116.23C45.2974 114.614 45.151 113.107 45.0419 112.005C44.9903 111.454 44.9443 111.003 44.9156 110.693C44.8869 110.383 44.8668 110.205 44.8668 110.205L42.8576 110.354L43.6642 125.438L44.6688 125.383L43.977 124.654L44.4219 125.122L43.9828 124.649L44.4277 125.117L43.9885 124.643C43.7992 124.804 43.591 124.94 43.3685 125.051C42.9808 125.256 42.554 125.377 42.1162 125.405C41.6784 125.434 41.2395 125.37 40.8282 125.217C40.3491 125.036 39.9023 124.779 39.505 124.456L38.8821 125.243L39.8839 125.154L38.5377 109.941L36.5284 110.11C36.5284 110.11 36.5284 110.211 36.5514 110.397C36.603 111.06 36.7322 112.78 36.8384 114.812C36.9446 116.844 37.0566 119.195 37.0566 121.098C37.0688 121.982 37.0314 122.865 36.9446 123.745C36.9313 123.875 36.9112 124.004 36.8843 124.132C36.8734 124.191 36.859 124.25 36.8413 124.307V124.339L37.2862 124.534L36.9504 124.195C36.9062 124.237 36.8693 124.285 36.8413 124.339L37.2862 124.534L36.9504 124.195L37.5244 124.769L37.1886 124.049C37.1057 124.087 37.03 124.14 36.9647 124.204L37.5388 124.778L37.203 124.057L37.5646 124.835V123.974C37.4397 123.974 37.3162 124.002 37.203 124.055L37.5646 124.832V123.971H37.1054C36.7669 123.981 36.4292 123.933 36.1065 123.831C35.8048 123.729 35.5259 123.569 35.2855 123.36C34.8492 122.992 34.3555 122.364 33.8992 121.256C33.4428 120.148 33.038 118.569 32.7711 116.376C32.5298 114.816 32.1573 113.279 31.6574 111.781C30.6929 108.623 29.2061 104.705 27.5155 100.572C22.4435 88.1692 15.5288 73.8977 15.523 73.8776L14.6189 74.3139L15.1929 75.1434L38.1071 59.5229L37.533 58.6933L36.5916 59.0464L37.533 58.6933L36.959 57.8638L13.3301 73.9723L13.7061 74.753C13.7061 74.753 13.7692 74.8793 13.8869 75.1233C14.7653 76.9546 18.7465 85.2758 22.6243 94.1826C24.5647 98.6345 26.4792 103.236 27.969 107.234C28.7124 109.243 29.3467 111.083 29.8261 112.688C30.2342 113.962 30.5385 115.268 30.736 116.592C30.9083 118.279 31.2733 119.941 31.8239 121.546C32.1115 122.37 32.5124 123.151 33.0151 123.865C33.5555 124.648 34.307 125.261 35.1822 125.633C35.7822 125.866 36.4218 125.979 37.0652 125.966H37.5244C37.719 125.967 37.9106 125.919 38.0813 125.826C38.2074 125.756 38.3201 125.665 38.4142 125.556C38.5359 125.417 38.633 125.259 38.7013 125.088C38.7941 124.839 38.8605 124.581 38.8993 124.319C38.9721 123.843 39.0172 123.364 39.0342 122.883C39.0629 122.341 39.0744 121.735 39.0744 121.084C39.0744 118.83 38.9367 116.052 38.7874 113.827C38.6381 111.603 38.5176 109.935 38.5176 109.929L36.5083 110.102L37.8947 125.748L38.2592 126.009C38.8261 126.468 39.4641 126.83 40.1479 127.083C40.7135 127.29 41.3109 127.397 41.9132 127.398C42.78 127.393 43.632 127.173 44.3932 126.758C44.7433 126.575 45.0691 126.348 45.3634 126.084L45.7021 125.765L44.8611 110.222L43.8565 110.277L42.8576 110.371C42.8576 110.371 43.1274 113.167 43.4317 116.399C43.7359 119.631 44.1205 123.288 44.3243 125.068C44.4191 125.947 44.7137 126.794 45.1854 127.542C45.8504 128.55 46.7839 129.353 47.8807 129.858C48.8928 130.342 49.9995 130.596 51.1214 130.602C51.4492 130.602 51.7765 130.576 52.1002 130.524C52.3684 130.477 52.618 130.356 52.8206 130.174C52.9634 130.049 53.0863 129.903 53.1852 129.741C53.3352 129.471 53.4463 129.181 53.5153 128.88C53.6357 128.372 53.7135 127.856 53.7478 127.335C53.7937 126.761 53.8138 126.107 53.8138 125.406C53.8138 123.713 53.6961 121.695 53.5267 119.611C53.013 113.362 51.9854 106.514 51.9854 106.502L50.9922 106.651L50.0335 106.938C50.1115 107.186 50.2074 107.428 50.3205 107.662C50.553 108.15 50.8745 108.727 51.2678 109.384C52.6369 111.68 54.8844 114.973 56.888 117.708C57.8926 119.077 58.8312 120.291 59.5746 121.207C59.9478 121.658 60.2693 122.028 60.5448 122.309C60.6727 122.441 60.8088 122.565 60.9524 122.68C61.0331 122.744 61.1196 122.801 61.2107 122.849C61.2764 122.883 61.3445 122.912 61.4145 122.935C61.5251 122.969 61.6403 122.987 61.7561 122.987C62.1162 122.983 62.4754 122.949 62.8296 122.883C63.2422 122.813 63.647 122.703 64.038 122.553C64.7757 122.286 65.4314 121.832 65.9411 121.236C66.2333 120.883 66.4599 120.48 66.6099 120.047C66.7779 119.559 66.8614 119.046 66.8568 118.529C66.8568 117.332 66.4721 115.946 65.6139 114.255C63.8716 110.836 61.7877 106.505 60.1229 102.863C59.2905 101.046 58.5642 99.398 58.0361 98.1351C57.7749 97.5036 57.5625 96.9668 57.4161 96.5592C57.3415 96.3583 57.2841 96.1861 57.2467 96.0598C57.2309 96.0108 57.2174 95.9609 57.2066 95.9105V95.8732H57.1405H57.2066H57.1405H57.2066L56.9712 95.9048H57.2037V95.8704L56.9683 95.9019L57.1779 95.9909C57.1888 95.9625 57.1946 95.9324 57.1951 95.9019H56.9683L57.1779 95.9909L57.0774 95.9478L57.1693 96.0053V95.9909L57.0688 95.9478L57.1606 96.0053C57.2045 95.9564 57.2559 95.9147 57.3128 95.8818C57.5556 95.7464 57.818 95.6496 58.0906 95.5948C58.5021 95.5082 58.9217 95.4659 59.3421 95.4685C60.3229 95.4727 61.2951 95.6526 62.2125 95.9995C62.7719 96.2326 63.3065 96.5211 63.8084 96.8606C64.747 97.4663 65.8177 98.247 66.9658 98.8957C67.5378 99.2249 68.1371 99.5044 68.7569 99.731C69.3764 99.9578 70.0292 100.08 70.6887 100.093C71.1515 100.094 71.6113 100.019 72.0492 99.8688C72.7646 99.6139 73.4015 99.1777 73.8978 98.6029C74.5006 97.9008 74.9792 97.1009 75.3129 96.2378C75.665 95.4487 75.86 94.5985 75.8869 93.7348C75.896 92.9945 75.6971 92.2665 75.3129 91.6337C74.9726 91.1001 74.5366 90.6339 74.0269 90.2588C73.0021 89.5372 71.8913 88.9461 70.7203 88.4992C68.777 87.6869 66.4147 86.8631 63.7912 85.7006C60.8148 84.4082 57.9857 82.8002 55.3523 80.9042C49.5829 76.7106 45.3404 71.056 42.5591 66.4491C41.4232 64.5734 40.3893 62.6379 39.4619 60.6509C39.1232 59.9218 38.8879 59.3392 38.707 58.9287C38.6238 58.7278 38.5635 58.5756 38.5233 58.4723L38.4774 58.3575V58.3317L38.0296 57.1318L36.9704 57.8523L37.5273 58.7048Z" fill="#231F20"/>
<path d="M56.5464 95.2303C56.5464 95.2303 51.2621 93.9156 48.8395 95.2303C46.4169 96.5449 44.2469 101.456 39.2783 95.2303" fill="white"/>
<path d="M56.7875 94.2544C56.7703 94.2544 56.1589 94.0994 55.2518 93.9473C54.1491 93.756 53.0328 93.6533 51.9136 93.6401C51.2993 93.636 50.6857 93.684 50.0794 93.7837C49.4786 93.8825 48.8972 94.0762 48.3572 94.3577C47.8864 94.6289 47.4457 94.9493 47.0426 95.3136C46.4988 95.8203 45.9297 96.2993 45.3376 96.7487C45.0931 96.9225 44.8292 97.067 44.5511 97.1793C44.3129 97.2749 44.0587 97.3246 43.8019 97.3257C43.5785 97.3237 43.3567 97.2869 43.1446 97.2166C42.6617 97.0447 42.2142 96.7859 41.8243 96.4531C41.1721 95.9065 40.5803 95.2916 40.059 94.6189L38.4946 95.8704C39.2606 96.8845 40.1841 97.7693 41.2301 98.4911C41.634 98.7576 42.0711 98.97 42.5304 99.1225C42.9417 99.258 43.3718 99.3277 43.8048 99.3292C44.4664 99.3239 45.1174 99.1626 45.705 98.8585C46.4649 98.4448 47.1666 97.9323 47.7918 97.3343C48.0788 97.0702 48.3658 96.8234 48.6213 96.6138C48.8381 96.4298 49.0716 96.2664 49.3188 96.1259C49.6662 95.9511 50.0392 95.8329 50.4239 95.7757C50.9162 95.6945 51.4147 95.6561 51.9136 95.6609C52.9224 95.6763 53.9283 95.7723 54.9218 95.9479C55.338 96.0197 55.6881 96.0886 55.9321 96.1431L56.2192 96.2034L56.2881 96.2206H56.3081L56.7932 94.2716L56.7875 94.2544Z" fill="#231F20"/>
</g>
<defs>
<clipPath id="clip0_1781_1582">
<rect width="292" height="211" fill="white"/>
</clipPath>
</defs>
</svg>
