<svg width="513" height="493" viewBox="0 0 513 493" fill="none" xmlns="http://www.w3.org/2000/svg">
<g clip-path="url(#clip0_1781_1493)">
<path d="M10.1144 2.13855L362.304 8.0812C362.304 8.0812 375.595 103.93 372.67 105.429C369.744 106.928 293.363 105.429 293.363 105.429L181.41 126.241L143.018 150.019C143.018 150.019 154.092 152.99 157.779 164.136C161.466 175.281 161.473 280.057 161.473 280.057L44.0783 284.514L44.8131 217.633C44.8131 217.633 9.37305 196.827 0.516357 195.341" fill="#2F3841"/>
<path d="M10.0747 4.47035L362.264 10.413L362.304 8.08124L360.007 8.40768C360.007 8.40768 360.047 8.70748 360.126 9.28043C360.722 13.5709 363.376 33.0111 365.891 53.3173C367.142 63.4705 368.36 73.8434 369.267 82.6308C369.717 87.0212 370.088 91.0185 370.346 94.3895C370.604 97.7606 370.75 100.512 370.75 102.344C370.759 102.967 370.733 103.59 370.671 104.21C370.671 104.296 370.671 104.356 370.638 104.383L371.127 104.509L370.651 104.336V104.383L371.141 104.509L370.664 104.336L372.087 104.856L370.836 104.003C370.764 104.106 370.706 104.218 370.664 104.336L372.087 104.856L370.836 104.003L372.451 105.109L371.127 103.683C371.026 103.78 370.935 103.887 370.856 104.003L372.471 105.109L371.147 103.683L372.597 105.216L371.65 103.33C371.467 103.423 371.297 103.542 371.147 103.683L372.597 105.216L371.65 103.33L372.312 104.703L371.849 103.237L371.63 103.33L372.292 104.703L371.829 103.237L372.028 103.87L371.855 103.204L372.054 103.836L371.882 103.17V103.244V103.17V103.244V103.17C371.663 103.214 371.442 103.245 371.22 103.264C370.558 103.337 369.525 103.403 368.235 103.457C364.349 103.623 358.067 103.683 350.793 103.683C339.063 103.683 324.712 103.523 313.294 103.357C307.588 103.277 302.61 103.19 299.069 103.13L294.905 103.057L293.403 103.024H293.165L180.563 124.023L137.213 150.871L142.415 152.27L142.7 151.211L142.409 152.27L142.693 151.211L142.402 152.27C146.221 153.494 149.628 155.759 152.245 158.813C153.738 160.601 154.879 162.658 155.608 164.875C155.716 165.219 155.804 165.568 155.873 165.921C156.065 166.827 156.256 168.113 156.435 169.685C156.773 172.637 157.097 176.607 157.335 181.257C158.256 197.56 158.719 222.29 158.951 242.909C159.07 253.222 159.123 262.509 159.156 269.225C159.156 272.556 159.156 275.287 159.156 277.159V280.064H161.473L161.386 277.732L46.4215 282.103L47.1497 216.314L45.9847 215.648C45.9847 215.648 37.0949 210.431 27.0864 204.988C22.0755 202.277 16.7867 199.525 12.1597 197.333C9.84297 196.241 7.69168 195.288 5.79855 194.549C4.8586 194.175 3.97823 193.882 3.15081 193.602C2.40702 193.364 1.6486 193.175 0.880372 193.036L0.119141 197.633C0.67726 197.739 1.22786 197.881 1.76736 198.059C3.41701 198.595 5.0367 199.22 6.61935 199.932C9.92903 201.357 13.9006 203.309 17.9914 205.434C24.1408 208.612 30.5682 212.177 35.4599 214.935C37.9024 216.314 39.961 217.5 41.4173 218.332L43.0986 219.312L43.6944 219.658L44.8594 217.66H42.5426L41.7814 286.993L163.836 282.329V280.084C163.836 280.084 163.836 253.875 163.372 226.26C163.141 212.456 162.796 198.279 162.273 186.867C162.015 181.151 161.711 176.114 161.353 172.13C161.175 170.132 160.983 168.4 160.771 166.954C160.665 166.234 160.552 165.581 160.433 164.995C160.326 164.464 160.189 163.939 160.023 163.423C159.096 160.608 157.638 157.999 155.727 155.741C153.519 153.163 150.835 151.041 147.823 149.492C146.49 148.778 145.088 148.2 143.64 147.767L143.044 150.019L144.256 152.017L182.284 128.467L293.78 107.734L293.357 105.442L293.31 107.774C293.31 107.774 327.254 108.44 350.793 108.44C356.677 108.44 361.913 108.4 365.825 108.3C367.811 108.247 369.413 108.18 370.651 108.087C371.273 108.047 371.796 107.994 372.246 107.934C372.478 107.9 372.683 107.86 372.908 107.814L373.259 107.721C373.414 107.671 373.564 107.608 373.709 107.534C373.938 107.421 374.148 107.273 374.331 107.094C374.561 106.869 374.752 106.605 374.894 106.315C375.04 106.005 375.146 105.678 375.212 105.342C375.295 104.902 375.351 104.457 375.377 104.01C375.377 103.517 375.417 102.977 375.417 102.377C375.417 100.179 375.245 97.121 374.947 93.3702C373.907 80.2858 371.333 58.9202 368.989 40.7925C366.646 22.6647 364.614 7.80143 364.607 7.79477L364.336 5.79612L10.2004 -0.199829L10.121 4.46368L10.0747 4.47035Z" fill="#231F20"/>
<path d="M168.86 90.4055C168.86 90.4055 133.115 130.379 168.86 145.888C168.86 145.888 154.661 142.803 154.046 143.19C153.43 143.576 146.221 150.358 146.221 150.358C146.221 150.358 154.165 154.782 156.243 160.718C158.322 166.654 161.638 196.421 161.638 196.421L183.621 199.392C183.621 199.392 175.413 180.598 173.427 166.054C173.427 166.054 176.379 210.951 216.082 216.567C255.785 222.183 282.368 170.658 282.368 170.658L299.433 123.763C299.433 123.763 184.607 84.1298 168.86 90.4055Z" fill="white"/>
<path d="M168.86 90.4055L167.132 88.8399C164.099 92.3684 161.359 96.1406 158.937 100.119C156.695 103.724 154.8 107.537 153.278 111.505C151.62 115.675 150.723 120.112 150.63 124.602C150.619 126.869 150.919 129.127 151.524 131.311C152.526 134.818 154.372 138.021 156.899 140.638C160.043 143.82 163.794 146.329 167.926 148.013L168.86 145.901L169.343 143.623C169.343 143.623 166.186 142.957 162.77 142.25C161.062 141.904 159.288 141.584 157.799 141.298C157.051 141.165 156.376 141.058 155.813 140.978L155.019 140.878C154.779 140.851 154.538 140.838 154.297 140.838C154.145 140.827 153.992 140.827 153.84 140.838C153.713 140.855 153.587 140.88 153.463 140.911C153.229 140.976 153.006 141.075 152.801 141.205L154.039 143.203L152.828 141.205C152.739 141.26 152.652 141.32 152.57 141.384C152.444 141.478 152.344 141.564 152.219 141.664C151.775 142.044 151.113 142.637 150.326 143.356C147.976 145.508 144.633 148.686 144.626 148.686L142.316 150.845L145.103 152.397L145.354 151.937L145.096 152.397L145.348 151.937L145.09 152.397C146.489 153.219 147.818 154.157 149.061 155.202C150.144 156.084 151.141 157.068 152.04 158.14C152.888 159.127 153.559 160.254 154.026 161.471C154.333 162.434 154.583 163.415 154.774 164.409C155.264 166.741 155.8 169.952 156.323 173.429C157.097 178.639 157.845 184.449 158.395 188.959C158.673 191.211 158.898 193.136 159.057 194.495C159.136 195.161 159.196 195.721 159.235 196.087C159.275 196.454 159.301 196.654 159.301 196.654L159.5 198.466L187.367 202.23L185.713 198.433V198.379C185.488 197.86 183.442 193.103 181.231 186.76C179.02 180.418 176.644 172.477 175.731 165.708L171.097 166.181C171.927 174.503 174.183 182.617 177.763 190.165C180.932 197 185.495 203.088 191.154 208.033C197.323 213.296 205.405 217.36 215.751 218.825C217.861 219.124 219.989 219.273 222.119 219.272C231.697 219.272 240.422 216.214 248.034 211.71C259.459 204.955 268.494 194.962 274.723 186.674C278.328 181.933 281.567 176.921 284.414 171.684L284.48 171.551L302.412 122.251L300.175 121.485C300.175 121.485 275.484 112.964 247.405 104.443C233.365 100.179 218.472 95.9151 205.366 92.7106C198.812 91.1051 192.703 89.766 187.348 88.8199C182.879 87.9502 178.347 87.451 173.798 87.3276C172.74 87.3192 171.684 87.3793 170.634 87.5075C169.728 87.6234 168.839 87.8471 167.986 88.1737L167.483 88.3802L167.119 88.78L168.847 90.3456L169.7 92.5108C170.207 92.3273 170.734 92.2044 171.269 92.1444C172.117 92.0404 172.97 91.9914 173.824 91.9978C178.105 92.1292 182.369 92.6082 186.573 93.4302C195.695 95.0357 207.298 97.8672 219.538 101.218C237.9 106.241 257.698 112.417 272.896 117.334C280.502 119.792 286.949 121.938 291.503 123.463L296.799 125.262L298.209 125.742L298.692 125.908L299.44 123.703L297.269 122.897L280.224 169.885L282.395 170.685L280.343 169.612C275.801 177.879 270.299 185.575 263.953 192.536C258.81 198.159 252.601 203.729 245.558 207.859C238.515 211.99 230.678 214.675 222.159 214.675C220.243 214.675 218.33 214.542 216.433 214.275C206.928 212.943 199.752 209.272 194.192 204.542C190.238 201.12 186.881 197.055 184.263 192.517C181.006 186.84 178.612 180.705 177.16 174.315C176.571 171.784 176.22 169.652 176.015 168.18C175.916 167.433 175.85 166.847 175.81 166.474C175.81 166.274 175.797 166.128 175.77 166.034V165.888L173.46 166.048L171.163 166.361C172.189 173.922 174.777 182.35 177.121 188.952C179.464 195.554 181.516 200.278 181.529 200.325L183.647 199.385L183.959 197.073L161.969 194.102L161.665 196.414L163.968 196.154C163.968 196.154 163.141 188.692 162.048 180.478C161.499 176.367 160.89 172.07 160.281 168.406C159.97 166.567 159.665 164.895 159.368 163.463C159.136 162.265 158.829 161.083 158.448 159.925C157.787 158.158 156.821 156.523 155.595 155.095C154.008 153.24 152.203 151.587 150.22 150.172C149.301 149.503 148.349 148.882 147.367 148.313L146.248 150.352L147.83 152.057C147.83 152.057 148.274 151.631 148.962 150.991C149.988 150.032 151.537 148.58 152.887 147.34C153.549 146.721 154.211 146.148 154.655 145.728L155.231 145.228L155.376 145.109V145.069V145.109V145.069V145.109L154.522 143.956L155.27 145.182C155.307 145.16 155.343 145.135 155.376 145.109L154.522 143.956L155.27 145.182L154.105 143.33L154.694 145.442C154.898 145.385 155.092 145.297 155.27 145.182L154.105 143.33L154.694 145.442L154.191 143.643L154.35 145.508C154.467 145.497 154.582 145.475 154.694 145.442L154.191 143.643L154.35 145.508L154.271 144.596V145.515H154.35L154.271 144.602V145.522H154.344C154.529 145.522 154.959 145.582 155.489 145.662C157.375 145.948 160.625 146.588 163.359 147.147L166.887 147.887L167.96 148.12L168.357 148.2L169.76 143.783C167.263 142.732 164.908 141.369 162.75 139.726C160.268 137.851 158.276 135.398 156.945 132.577C155.81 130.069 155.24 127.338 155.277 124.582C155.369 120.655 156.16 116.776 157.613 113.13C159.695 107.84 162.418 102.83 165.722 98.2136C167.079 96.2682 168.304 94.6893 169.184 93.6034C169.628 93.0571 169.978 92.6374 170.223 92.3576L170.495 92.0378L170.561 91.9645L168.84 90.4055L169.694 92.5707L168.86 90.4055Z" fill="#231F20"/>
<path d="M182.641 121.285C182.641 121.285 222.02 117.814 224.972 103.963C224.972 103.963 260.286 148.553 293.33 137.161C293.33 137.161 286.989 159.452 285.023 165.894C285.023 165.894 315.538 169.852 316.524 140.625C316.524 140.625 339.169 132.697 327.353 103.983C315.538 75.2691 257.95 50.9789 252.555 47.0149C247.16 43.0509 233.359 44.5365 233.359 44.5365L235.344 33.6372L223.536 40.0796L212.17 30.6459V41.5452C212.17 41.5452 171.441 50.9389 164.425 96.0151C164.425 96.0151 191.008 94.5294 182.641 121.285Z" fill="#231F20"/>
<path d="M44.0784 284.521L46.2892 426.425C46.2892 426.425 49.2481 478.443 101.422 483.4C153.596 488.357 266.773 481.908 271.963 483.4C277.152 484.892 326.864 493.306 346.55 490.335C366.236 487.364 381.99 467.544 381.99 465.066C381.99 462.587 374.609 456.152 368.208 461.068C364.012 464.319 350.296 466.078 341.347 466.898C340.966 466.933 340.585 466.836 340.267 466.622C339.949 466.408 339.713 466.091 339.6 465.723C339.487 465.355 339.502 464.96 339.645 464.602C339.787 464.245 340.047 463.947 340.381 463.76C355.658 455.159 390.026 432.634 387.735 405.086C387.735 405.086 383.102 400.423 379.693 403.82C379.604 403.915 379.488 403.978 379.361 404.001C379.235 404.024 379.104 404.005 378.988 403.948C378.873 403.89 378.779 403.797 378.72 403.682C378.66 403.567 378.64 403.435 378.66 403.307C379.574 396.972 381.229 381.715 376.575 378.338C370.684 374.107 368.036 377.745 368.036 377.745C368.036 377.745 370.995 365.193 359.835 364.86C348.675 364.527 343.108 399.87 330.968 402.515C318.828 405.159 278.139 418.364 277.808 399.85C277.477 381.336 298.487 381.022 303.405 373.761C308.323 366.499 310.951 347.339 297.825 351.629C284.699 355.919 276.497 369.137 269.937 371.116C263.378 373.094 243.685 384.327 230.883 394.567C218.081 404.806 126.205 391.595 126.205 391.595C126.205 391.595 152.457 398.197 152.126 378.051C151.795 357.905 159.997 280.117 159.997 280.117L44.0784 284.521Z" fill="white"/>
<path d="M44.0783 284.521L41.7615 284.561L43.979 426.545V426.592C44.209 429.479 44.6515 432.345 45.3028 435.166C46.9908 442.827 50.7638 454.433 59.2631 464.719C63.8655 470.312 69.5009 474.954 75.8578 478.39C82.7618 482.127 91.1352 484.799 101.197 485.718C116.335 487.157 136.412 487.637 157.514 487.637C179.702 487.637 203.009 487.097 222.774 486.564C232.657 486.298 241.653 486.031 249.172 485.832C256.692 485.632 262.749 485.498 266.714 485.498C268.124 485.498 269.275 485.498 270.103 485.552L271.076 485.612H271.327H271.394L271.519 484.945L271.347 485.572H271.394L271.519 484.905L271.347 485.532C271.698 485.632 272.128 485.738 272.671 485.858C274.697 486.311 278.264 486.984 282.878 487.75C289.782 488.903 298.99 490.262 308.515 491.328C317.668 492.437 326.873 493.058 336.091 493.187C339.71 493.227 343.327 493.005 346.914 492.52C352.039 491.681 356.979 489.952 361.516 487.41C367.481 484.12 372.918 479.94 377.641 475.012C379.314 473.271 380.863 471.412 382.274 469.449C382.764 468.77 383.206 468.058 383.598 467.317C383.767 467.006 383.913 466.684 384.035 466.351C384.099 466.175 384.152 465.995 384.194 465.812C384.245 465.578 384.272 465.339 384.273 465.099C384.269 464.523 384.147 463.954 383.916 463.427C383.537 462.578 383.018 461.801 382.38 461.128C381.305 459.967 380.035 459.006 378.627 458.29C376.987 457.442 375.175 456.986 373.332 456.958C372.206 456.955 371.088 457.139 370.022 457.504C368.849 457.904 367.753 458.501 366.778 459.269C366.301 459.617 365.786 459.91 365.243 460.142C363.709 460.794 362.123 461.315 360.503 461.701C357.316 462.466 354.093 463.069 350.846 463.507C347.437 463.986 344.021 464.359 341.115 464.626V464.946V464.626V464.946V465.292L341.393 464.686C341.307 464.643 341.211 464.623 341.115 464.626V465.292L341.393 464.686L341.109 465.352L341.704 464.992C341.628 464.874 341.52 464.779 341.393 464.719L341.109 465.385L341.704 465.026L341.221 465.312H341.784C341.783 465.209 341.755 465.108 341.704 465.019L341.221 465.305H341.082L341.684 465.652C341.746 465.547 341.781 465.428 341.784 465.305H341.082L341.684 465.652L341.148 465.339L341.453 465.898C341.55 465.838 341.63 465.753 341.684 465.652L341.148 465.339L341.453 465.898C348.946 461.681 360.953 454.18 371.2 444.286C376.324 439.336 381.017 433.787 384.439 427.684C387.861 421.582 390.072 414.913 390.072 407.838C390.072 406.898 390.072 405.952 389.959 404.999L389.887 404.147L389.284 403.547C388.675 402.961 388.01 402.437 387.298 401.982C386.643 401.548 385.944 401.184 385.213 400.896C384.333 400.543 383.394 400.357 382.446 400.349C381.645 400.341 380.85 400.495 380.11 400.802C379.29 401.144 378.546 401.65 377.925 402.288L379.124 403.487L378.462 401.908C378.252 401.995 378.063 402.124 377.906 402.288L379.104 403.487L378.442 401.908L379.104 403.521V401.728C378.877 401.728 378.652 401.771 378.442 401.855L379.104 403.467L380.255 402.215C379.995 401.95 379.655 401.78 379.289 401.728V403.434L380.441 402.181L379.269 403.454L380.838 402.741C380.744 402.53 380.609 402.339 380.441 402.181L379.269 403.454L380.838 402.741L379.269 403.454H380.997C380.994 403.208 380.94 402.965 380.838 402.741L379.269 403.454L380.964 403.727C380.973 403.636 380.973 403.545 380.964 403.454H379.243L380.937 403.727C381.598 399.316 381.956 394.864 382.01 390.403C382.054 387.777 381.814 385.155 381.295 382.581C381.048 381.426 380.656 380.307 380.13 379.25C379.616 378.187 378.858 377.262 377.919 376.552C376.842 375.748 375.662 375.093 374.411 374.607C373.418 374.228 372.367 374.027 371.306 374.014C370.569 374.012 369.836 374.126 369.135 374.354C368.352 374.609 367.625 375.012 366.99 375.539C366.678 375.795 366.398 376.088 366.156 376.412L368.036 377.745L370.293 378.278C370.572 376.964 370.712 375.624 370.71 374.28C370.715 373.093 370.591 371.909 370.34 370.749C370.124 369.758 369.782 368.8 369.32 367.898C368.537 366.35 367.341 365.054 365.865 364.154C364.051 363.107 361.998 362.553 359.908 362.548H359.689C358.71 362.551 357.74 362.738 356.83 363.101C355.157 363.823 353.67 364.919 352.481 366.306C350.276 368.737 348.423 371.975 346.609 375.533C345.285 378.198 343.961 381.036 342.638 383.82C340.652 387.984 338.666 392.022 336.554 395.033C335.662 396.367 334.608 397.585 333.417 398.657C332.586 399.427 331.579 399.976 330.484 400.256C328.585 400.669 326.096 401.309 323.203 402.041C318.868 403.147 313.638 404.447 308.316 405.473C303.257 406.531 298.112 407.122 292.946 407.238C291.094 407.257 289.245 407.11 287.419 406.798C286.317 406.607 285.24 406.292 284.209 405.859C283.025 405.399 281.991 404.617 281.223 403.6C280.882 403.115 280.62 402.577 280.449 402.008C280.245 401.307 280.138 400.58 280.131 399.85V399.463C280.107 397.678 280.371 395.9 280.912 394.2C281.743 391.731 283.226 389.537 285.201 387.851C286.728 386.538 288.393 385.397 290.166 384.447C292.887 382.941 295.839 381.689 298.52 380.33C299.833 379.678 301.099 378.932 302.306 378.098C303.478 377.289 304.5 376.278 305.324 375.113C306.72 372.916 307.778 370.52 308.462 368.005C309.262 365.314 309.685 362.525 309.72 359.717C309.73 358.416 309.602 357.119 309.336 355.846C309.144 354.923 308.839 354.028 308.429 353.181C307.803 351.806 306.788 350.647 305.51 349.85C304.232 349.054 302.749 348.655 301.247 348.704C299.829 348.729 298.425 348.976 297.083 349.437C293.68 350.595 290.459 352.237 287.518 354.314C283.249 357.258 279.668 360.703 276.596 363.514C275.061 364.92 273.657 366.179 272.406 367.112C271.457 367.882 270.388 368.49 269.242 368.911C268.116 369.262 267.011 369.678 265.933 370.156C263.761 371.102 261.12 372.415 258.188 373.994C249.391 378.744 237.959 385.919 229.394 392.768C228.478 393.414 227.456 393.892 226.375 394.18C223.511 394.972 220.575 395.477 217.611 395.686C214.024 396.006 209.853 396.152 205.332 396.152C189.77 396.152 170.018 394.447 154.198 392.734C146.288 391.875 139.357 391.022 134.399 390.383L128.581 389.603L127.019 389.39L126.483 389.31L125.596 393.88C128.755 394.61 131.985 394.981 135.227 394.986C137.329 395.002 139.427 394.801 141.489 394.387C143.119 394.056 144.702 393.523 146.202 392.801C148.612 391.66 150.649 389.85 152.073 387.585C153.691 384.823 154.499 381.656 154.403 378.451C154.403 378.318 154.403 378.184 154.403 378.051C154.403 377.665 154.403 377.258 154.403 376.832C154.403 371.502 154.886 362.708 155.628 352.648C156.733 337.538 158.395 319.464 159.778 305.174C160.44 298.032 161.102 291.849 161.539 287.419C161.764 285.207 161.949 283.422 162.075 282.243C162.201 281.063 162.267 280.384 162.267 280.377L162.551 277.712L41.7019 282.276L41.7416 284.561L44.0584 284.521L44.1444 286.853L160.076 282.476L159.99 280.144L157.686 279.904C157.686 279.904 155.7 298.611 153.715 320.064C152.728 330.79 151.729 342.202 151.007 352.315C150.286 362.428 149.769 371.236 149.769 376.845C149.769 377.298 149.769 377.725 149.769 378.138C149.769 378.251 149.769 378.364 149.769 378.477C149.833 380.597 149.378 382.699 148.446 384.6C147.881 385.664 147.109 386.602 146.175 387.358C144.697 388.497 142.989 389.295 141.171 389.697C139.219 390.158 137.219 390.381 135.214 390.363C133.192 390.355 131.174 390.192 129.177 389.876C128.396 389.75 127.767 389.63 127.336 389.537C127.125 389.497 126.959 389.457 126.853 389.43H126.734H126.701L126.476 390.356L126.708 389.43L126.483 390.356L126.714 389.43L126.152 391.695L125.821 394C125.821 394 137.795 395.726 153.701 397.445C169.608 399.163 189.446 400.882 205.332 400.889C210.781 400.954 216.227 400.653 221.636 399.99C223.7 399.725 225.741 399.297 227.739 398.71C229.401 398.233 230.961 397.449 232.339 396.399C239.206 391.037 246.419 386.141 253.932 381.742C257.566 379.597 261.001 377.745 263.914 376.252C265.363 375.519 266.687 374.92 267.826 374.4C268.735 373.994 269.665 373.638 270.612 373.334C271.715 372.983 272.764 372.481 273.73 371.842C275.591 370.585 277.347 369.177 278.979 367.631C281.673 365.186 284.573 362.375 287.809 359.857C291.024 357.251 294.66 355.223 298.559 353.861C299.437 353.55 300.357 353.38 301.286 353.354C301.887 353.331 302.482 353.467 303.014 353.747C303.336 353.928 303.618 354.173 303.842 354.467C304.294 355.083 304.614 355.786 304.782 356.532C305.023 357.574 305.138 358.641 305.126 359.71C305.091 362.072 304.73 364.417 304.053 366.679C303.496 368.724 302.637 370.673 301.505 372.462C300.973 373.182 300.322 373.804 299.579 374.3C297.56 375.598 295.439 376.727 293.237 377.678C291.357 378.564 289.332 379.523 287.34 380.663C284.158 382.358 281.366 384.707 279.145 387.558C277.97 389.148 277.062 390.922 276.457 392.808C275.78 394.962 275.447 397.211 275.471 399.47V399.943C275.468 401.974 276.007 403.97 277.033 405.719C277.773 406.925 278.748 407.968 279.899 408.784C281.687 409.996 283.7 410.833 285.817 411.242C288.155 411.713 290.536 411.936 292.92 411.908C299.718 411.908 307.482 410.509 314.558 408.93C318.08 408.144 321.409 407.311 324.309 406.572C327.208 405.832 329.684 405.199 331.438 404.82C332.434 404.596 333.391 404.223 334.277 403.714C335.96 402.711 337.449 401.411 338.673 399.876C340.963 397.145 342.909 393.68 344.762 390.01C346.146 387.258 347.47 384.387 348.78 381.642C350.766 377.525 352.679 373.681 354.619 371.029C355.387 369.906 356.325 368.91 357.399 368.078C357.769 367.803 358.174 367.578 358.603 367.412C358.947 367.284 359.31 367.219 359.676 367.218H359.762C360.942 367.212 362.108 367.476 363.171 367.991C363.707 368.265 364.184 368.643 364.574 369.104C365.137 369.795 365.535 370.606 365.739 371.476C365.967 372.395 366.078 373.34 366.07 374.287C366.067 375.007 366.016 375.726 365.918 376.439C365.878 376.712 365.838 376.918 365.812 377.058C365.786 377.198 365.812 377.178 365.812 377.205V377.238L367.136 377.538L365.812 377.232L367.136 377.531L365.812 377.225L363.164 388.551L369.956 379.144L368.989 378.477L369.903 379.244L369.956 379.177L368.989 378.511L369.903 379.277C370.018 379.16 370.149 379.062 370.293 378.984C370.621 378.817 370.985 378.732 371.352 378.737C371.867 378.748 372.376 378.852 372.855 379.044C373.71 379.376 374.516 379.824 375.251 380.376C375.598 380.657 375.874 381.015 376.059 381.422C376.597 382.606 376.947 383.867 377.098 385.16C377.329 386.926 377.438 388.707 377.422 390.489C377.365 394.727 377.022 398.956 376.396 403.147L378.693 403.481L376.403 403.121C376.38 403.271 376.369 403.422 376.37 403.574C376.365 403.989 376.451 404.401 376.621 404.78C376.854 405.291 377.227 405.725 377.696 406.032C378.165 406.339 378.71 406.505 379.269 406.512C379.646 406.512 380.02 406.438 380.368 406.292C380.733 406.137 381.064 405.911 381.341 405.626C381.529 405.431 381.754 405.277 382.003 405.173C382.191 405.099 382.39 405.061 382.592 405.059C382.97 405.073 383.342 405.154 383.691 405.299C384.314 405.556 384.9 405.896 385.432 406.312C385.663 406.485 385.849 406.645 385.975 406.758C386.019 406.795 386.061 406.835 386.1 406.878L387.087 405.872L386.094 406.872L387.08 405.866L386.087 406.865L387.729 405.213L385.419 405.413C385.485 406.232 385.518 407.045 385.518 407.858C385.518 413.947 383.631 419.849 380.487 425.399C375.774 433.767 368.215 441.388 360.444 447.624C353.773 452.928 346.689 457.685 339.262 461.848C338.618 462.206 338.084 462.736 337.719 463.38C337.386 463.976 337.213 464.648 337.216 465.332C337.214 466.341 337.584 467.314 338.256 468.064C338.611 468.466 339.046 468.788 339.533 469.01C340.051 469.247 340.613 469.37 341.181 469.369C341.307 469.376 341.433 469.376 341.559 469.369C346.073 468.95 351.792 468.303 356.982 467.331C359.416 466.899 361.823 466.323 364.19 465.605C365.206 465.298 366.2 464.927 367.169 464.493C368.041 464.098 368.865 463.604 369.625 463.02C370.195 462.571 370.835 462.217 371.518 461.974C372.105 461.779 372.72 461.678 373.338 461.674C374.189 461.683 375.03 461.85 375.82 462.167C376.951 462.621 377.978 463.301 378.839 464.166C379.125 464.45 379.376 464.768 379.587 465.112C379.629 465.182 379.664 465.256 379.693 465.332L379.984 465.245L379.686 465.292V465.332L379.977 465.245L379.68 465.292L380.533 465.152H379.666C379.661 465.199 379.661 465.246 379.666 465.292L380.52 465.152H380.917L379.693 464.812C379.665 464.923 379.652 465.038 379.653 465.152H380.917L379.693 464.812L379.865 464.859L379.693 464.806L379.865 464.852L379.693 464.799C379.635 464.954 379.564 465.103 379.481 465.245C379.074 465.972 378.616 466.669 378.111 467.331C376.625 469.297 375.002 471.154 373.252 472.887C369.699 476.453 365.74 479.583 361.456 482.214C356.798 485.159 351.609 487.151 346.186 488.077C342.826 488.519 339.439 488.719 336.051 488.676C324.798 488.676 309.905 487.117 297.361 485.392C291.086 484.526 285.38 483.626 280.992 482.86C278.794 482.48 276.921 482.134 275.471 481.848C274.749 481.701 274.147 481.574 273.637 481.461C273.128 481.348 272.77 481.255 272.578 481.201C272.373 481.141 272.201 481.115 272.036 481.081C271.738 481.035 271.44 481.008 271.089 480.981C270.056 480.908 268.607 480.882 266.7 480.882C262.643 480.882 256.573 481.015 249.04 481.215C226.461 481.808 190.697 483.007 157.541 483.007C136.518 483.007 116.501 482.52 101.66 481.108C88.9707 479.902 79.4322 475.878 72.1509 470.555C67.0788 466.815 62.7101 462.195 59.2498 456.911C55.1032 450.512 52.0639 443.453 50.2607 436.032C49.6801 433.697 49.2206 431.333 48.8839 428.95C48.7648 428.091 48.6919 427.424 48.6522 426.951C48.6522 426.725 48.6191 426.552 48.6059 426.445V426.298L46.2891 426.432L48.6059 426.392L46.395 284.488L44.0783 284.521L44.1643 286.853L44.0783 284.521Z" fill="#231F20"/>
<path d="M365.733 377.645L367.328 377.711L365.733 377.638L367.328 377.705L365.733 377.631C365.733 377.631 365.733 377.631 365.733 377.738C365.513 380.26 365.07 382.757 364.409 385.2C362.638 392.315 359.364 398.963 354.81 404.689C350.255 410.416 344.528 415.087 338.017 418.384C331.155 421.831 323.775 424.116 316.173 425.146L316.835 429.763C329.571 427.857 339.341 423.694 346.841 418.437C351.913 414.897 356.354 410.518 359.974 405.486C364.027 399.792 367.016 393.403 368.797 386.632C369.593 383.752 370.106 380.799 370.326 377.818L365.693 377.618L365.733 377.645Z" fill="#231F20"/>
<path d="M377.005 403.121L378.462 403.434L377.005 403.114L378.462 403.427L377.005 403.107C376.926 403.434 375.423 409.77 369.108 417.251C362.794 424.733 351.66 433.514 332 438.73L333.179 443.24C343.67 440.462 351.951 436.665 358.465 432.514C368.235 426.312 373.994 419.276 377.303 413.774C380.613 408.271 381.473 404.287 381.52 404.087L376.986 403.121H377.005Z" fill="#231F20"/>
<path d="M368.036 8.82736C368.036 8.82736 480.433 5.10987 498.153 42.2647C515.873 79.4196 509.962 352.888 509.962 352.888C509.962 352.888 501.926 382.695 477.97 388.311C454.015 393.927 452.704 385.339 452.704 383.028C452.704 380.716 427.432 399.017 417.622 385.559C407.812 372.102 420.269 374.107 420.269 374.107C420.269 374.107 401.894 383.028 399.266 364.534C399.266 364.534 379.799 357.925 387.888 348.018C395.976 338.111 400.253 346.686 411.406 340.75C422.56 334.814 438.969 322.915 441.273 300.777C443.576 278.638 426.174 293.182 426.174 293.182C426.174 293.182 414.358 312.629 404.191 312.149C394.024 311.669 388.106 300.117 393.686 295.16C399.266 290.204 413.379 281.603 415.676 266.253C417.973 250.904 444.88 247.599 444.88 247.599L427.769 100.479L373.067 102.957C373.067 102.957 360.497 11.3257 368.036 8.82736Z" fill="white"/>
<path d="M368.036 8.82737L368.115 11.1591H368.248C368.91 11.1591 371.849 11.0592 376.449 11.0592C389.582 11.0592 416.225 11.7254 441.266 16.1824C453.783 18.4209 465.897 21.6187 475.687 26.089C480.209 28.0816 484.456 30.6546 488.323 33.7439C491.569 36.3217 494.212 39.5852 496.068 43.3041C497.259 45.7757 498.437 49.773 499.49 54.8962C501.337 63.8835 502.852 76.3884 504.057 91.1584C507.678 135.488 508.598 200.278 508.598 254.275C508.598 281.703 508.36 306.353 508.128 324.147C508.009 333.041 507.89 340.223 507.804 345.18C507.757 347.658 507.718 349.577 507.698 350.883C507.678 352.189 507.651 352.881 507.651 352.881L509.968 352.928L507.738 352.322L508.055 352.408L507.738 352.315L508.055 352.402L507.738 352.308C506.115 357.646 503.808 362.748 500.873 367.485C498.325 371.699 495.155 375.5 491.474 378.757C487.463 382.312 482.65 384.828 477.454 386.086C473.184 387.178 468.805 387.786 464.401 387.898C462.476 387.921 460.56 387.642 458.721 387.072C457.943 386.832 457.211 386.46 456.557 385.972C455.989 385.55 455.551 384.975 455.292 384.313C455.138 383.887 455.059 383.435 455.061 382.981C455.06 382.637 454.99 382.298 454.856 381.982C454.722 381.666 454.526 381.38 454.28 381.142C453.985 380.861 453.626 380.657 453.234 380.549C452.986 380.478 452.73 380.442 452.473 380.443C452.25 380.44 452.029 380.46 451.811 380.503C451.5 380.562 451.194 380.647 450.897 380.756C450.354 380.942 449.778 381.189 449.117 381.489C447.965 382.008 446.561 382.681 444.966 383.407C442.339 384.658 439.638 385.743 436.877 386.659C434.102 387.603 431.201 388.122 428.272 388.198C426.564 388.236 424.866 387.923 423.281 387.278C421.742 386.615 420.413 385.542 419.435 384.174C418.391 382.802 417.488 381.326 416.741 379.77C416.369 379.054 416.143 378.27 416.079 377.465C416.079 377.105 416.146 377.025 416.185 376.965C416.237 376.891 416.305 376.829 416.384 376.785C416.672 376.617 416.988 376.504 417.317 376.452C417.754 376.375 418.197 376.337 418.641 376.339C418.998 376.339 419.303 376.339 419.521 376.379H419.76H419.819L419.998 375.186L419.813 376.379L419.991 375.186L419.806 376.379L420.17 374.074L419.164 371.975L419.72 373.141L419.164 371.975L419.72 373.141L419.164 371.975L418.985 372.055C418.01 372.483 417.005 372.841 415.98 373.128C414.336 373.608 412.635 373.865 410.923 373.894C409.874 373.904 408.829 373.765 407.818 373.481C406.295 373.051 404.946 372.146 403.966 370.896C402.867 369.503 401.921 367.398 401.457 364.167L401.259 362.748L399.935 362.288C397.721 361.487 395.59 360.47 393.574 359.25C392.097 358.392 390.758 357.314 389.602 356.053C389.179 355.563 388.827 355.016 388.556 354.427C388.324 353.933 388.202 353.394 388.199 352.848C388.202 352.347 388.303 351.851 388.496 351.389C388.781 350.712 389.167 350.083 389.642 349.524C390.322 348.671 391.08 347.884 391.905 347.172C392.702 346.467 393.628 345.928 394.633 345.586C395.491 345.327 396.384 345.206 397.28 345.227C398.664 345.227 400.325 345.426 402.331 345.433C403.889 345.443 405.444 345.276 406.964 344.933C408.877 344.481 410.722 343.778 412.452 342.842C418.178 339.784 425.3 335.193 431.344 328.425C434.55 324.879 437.226 320.882 439.287 316.559C441.581 311.675 443.029 306.432 443.569 301.056C443.708 299.746 443.781 298.43 443.788 297.112C443.811 295.544 443.648 293.979 443.305 292.449C443.086 291.504 442.739 290.593 442.272 289.744C441.651 288.594 440.713 287.648 439.571 287.019C438.533 286.47 437.375 286.191 436.202 286.206C434.74 286.244 433.296 286.544 431.939 287.093C430.161 287.809 428.465 288.719 426.882 289.804C425.558 290.69 424.731 291.396 424.684 291.43L424.393 291.676L424.188 292.009C422.109 295.312 419.776 298.446 417.211 301.383C415.288 303.624 413.116 305.636 410.738 307.379C409.709 308.117 408.598 308.732 407.428 309.211C406.506 309.605 405.517 309.818 404.515 309.837H404.257C402.783 309.768 401.337 309.408 400.001 308.778C398.166 307.906 396.592 306.562 395.44 304.881C394.444 303.508 393.877 301.868 393.812 300.17C393.803 299.547 393.92 298.928 394.156 298.352C394.383 297.803 394.735 297.315 395.182 296.926C396.466 295.78 398.392 294.308 400.57 292.542C404.415 289.534 407.905 286.092 410.969 282.283C414.601 277.756 416.999 272.356 417.926 266.613C418.158 265.075 418.701 263.601 419.521 262.283C421.141 259.834 423.306 257.8 425.843 256.34C429.814 253.868 434.706 252.229 438.539 251.25C440.458 250.757 442.12 250.424 443.298 250.218C443.881 250.111 444.351 250.038 444.662 249.991L445.013 249.944H445.099L447.389 249.658L429.821 98.0471L372.961 100.599L373.067 102.93L375.364 102.611C375.364 102.611 375.364 102.397 375.278 101.998C374.874 98.9864 373.04 85.1957 371.306 69.1066C370.439 61.0654 369.598 52.4512 368.976 44.33C368.354 36.2089 367.95 28.5807 367.95 22.5514C367.894 19.4647 368.069 16.378 368.473 13.3177C368.574 12.5328 368.769 11.7631 369.055 11.0259C369.085 10.9502 369.121 10.8767 369.161 10.806V10.7527L368.963 10.5928L369.141 10.7727L368.943 10.6128L369.122 10.7927L368.4 10.0732L368.711 11.0392C368.865 10.9892 369.005 10.9049 369.122 10.7927L368.4 10.0732L368.711 11.0392L368.036 8.82737L368.115 11.1591L368.036 8.82737L367.321 6.60887C366.682 6.82564 366.114 7.21513 365.68 7.73478C365.364 8.11326 365.099 8.53217 364.892 8.9806C364.533 9.77996 364.266 10.6182 364.098 11.4789C363.783 13.0817 363.58 14.7045 363.489 16.3356C363.363 18.1877 363.31 20.2863 363.31 22.5781C363.31 29.2402 363.78 37.5613 364.475 46.362C366.58 72.7442 370.763 103.25 370.763 103.27L371.054 105.382L425.71 102.904L442.524 247.886L444.827 247.613L444.549 245.301C439.662 245.993 434.868 247.238 430.258 249.012C426.415 250.435 422.835 252.495 419.667 255.108C418.076 256.465 416.7 258.06 415.59 259.838C414.44 261.69 413.681 263.76 413.359 265.92C412.843 269.265 411.709 272.483 410.016 275.407C407.585 279.461 404.515 283.09 400.928 286.153C399.273 287.626 397.618 288.958 396.129 290.151C394.639 291.343 393.256 292.416 392.157 293.422C391.185 294.276 390.42 295.342 389.92 296.539C389.449 297.689 389.211 298.921 389.218 300.164C389.244 301.899 389.629 303.61 390.35 305.187C391.574 307.855 393.501 310.135 395.921 311.779C398.341 313.423 401.162 314.369 404.078 314.514H404.555C406.167 314.491 407.76 314.159 409.248 313.535C411.912 312.36 414.359 310.738 416.483 308.738C419.545 305.912 422.321 302.788 424.771 299.411C426.849 296.586 428.127 294.494 428.153 294.448L426.167 293.235L427.65 295.027L427.266 294.568L427.643 295.027L427.259 294.568L427.637 295.027C428.635 294.226 429.688 293.495 430.788 292.842C431.693 292.295 432.643 291.827 433.627 291.443C434.445 291.108 435.314 290.916 436.196 290.877C436.564 290.865 436.93 290.936 437.268 291.083C437.487 291.182 437.683 291.325 437.844 291.503C438.266 292.005 438.563 292.601 438.711 293.242C439.031 294.511 439.178 295.817 439.148 297.126C439.143 298.281 439.076 299.435 438.949 300.583C438.468 305.434 437.165 310.166 435.097 314.574C432.32 320.323 428.41 325.443 423.606 329.624C419.544 333.175 415.08 336.232 410.307 338.731C408.939 339.478 407.479 340.041 405.965 340.403C404.785 340.667 403.579 340.794 402.371 340.783C400.722 340.783 399.114 340.583 397.32 340.576C396.432 340.57 395.546 340.646 394.672 340.803C393.147 341.087 391.695 341.678 390.403 342.542C388.773 343.658 387.324 345.019 386.107 346.579C385.329 347.508 384.699 348.553 384.24 349.677C383.801 350.746 383.588 351.895 383.614 353.051C383.64 354.207 383.905 355.345 384.392 356.392C385.264 358.202 386.523 359.794 388.079 361.056C390.168 362.767 392.469 364.198 394.924 365.313C396.1 365.873 397.304 366.371 398.531 366.805L399.273 364.6L396.976 364.927C397.262 367.194 397.912 369.399 398.902 371.456C399.534 372.73 400.358 373.899 401.345 374.92C402.667 376.26 404.28 377.272 406.058 377.878C407.661 378.411 409.34 378.674 411.029 378.657C413.448 378.619 415.848 378.222 418.151 377.478C419.219 377.146 420.265 376.745 421.282 376.279L427.901 373.048L420.62 371.875C419.991 371.783 419.356 371.738 418.72 371.742C418.071 371.739 417.422 371.79 416.781 371.895C416.211 371.984 415.652 372.134 415.113 372.342C414.661 372.513 414.23 372.737 413.829 373.008C413.134 373.477 412.562 374.108 412.161 374.847C411.725 375.666 411.498 376.582 411.499 377.511C411.552 378.98 411.911 380.421 412.551 381.742C413.434 383.597 414.503 385.356 415.742 386.992C417.21 389.024 419.194 390.621 421.487 391.615C423.65 392.505 425.969 392.944 428.305 392.908C431.15 392.86 433.975 392.428 436.705 391.622C440.438 390.511 444.079 389.107 447.594 387.425C449.077 386.759 450.354 386.132 451.294 385.713C451.764 385.506 452.148 385.346 452.4 385.26L452.645 385.186L452.439 384.134V385.2C452.508 385.205 452.576 385.205 452.645 385.2L452.439 384.147V383.381L452.009 385.16C452.15 385.195 452.294 385.213 452.439 385.213V383.381L452.009 385.16L452.492 383.161L451.473 384.966C451.642 385.06 451.822 385.132 452.009 385.18L452.492 383.181L451.473 384.986L452.539 383.101L450.639 384.114C450.829 384.478 451.118 384.781 451.473 384.986L452.539 383.101L450.639 384.114L452.499 383.128H450.394C450.39 383.472 450.474 383.812 450.639 384.114L452.499 383.128H450.394C450.381 384.961 450.983 386.745 452.102 388.191C453.262 389.644 454.8 390.746 456.543 391.375C459.064 392.272 461.728 392.692 464.401 392.615C469.157 392.504 473.887 391.856 478.5 390.682C484.467 389.244 489.994 386.358 494.598 382.275C501.125 376.592 505.48 369.45 508.247 363.734C509.859 360.478 511.188 357.088 512.219 353.601L512.292 353.321V353.041C512.292 353.041 513.238 309.258 513.238 254.348C513.238 213.163 512.709 165.741 510.842 125.768C509.915 105.782 508.651 87.6541 506.943 73.0773C506.089 65.7889 505.13 59.3865 504.031 54.0568C502.932 48.7271 501.721 44.4833 500.251 41.3987C498.096 37.071 495.023 33.2728 491.249 30.2729C484.477 24.6767 475.362 20.4928 465.195 17.2617C449.904 12.4249 432.098 9.76008 415.92 8.28774C399.743 6.8154 385.18 6.52893 376.462 6.52893C371.167 6.52893 367.996 6.63553 367.976 6.63553H367.645L367.334 6.73546L368.036 8.82737Z" fill="#231F20"/>
<path d="M450.176 328.485C445.429 334.782 440.089 340.603 434.23 345.866C429.404 350.268 424.07 354.07 418.343 357.192C412.551 360.243 406.428 362.202 400.372 362.202C400.027 362.202 399.683 362.202 399.339 362.202L399.18 366.865C399.577 366.865 399.968 366.865 400.372 366.865C407.54 366.865 414.458 364.54 420.786 361.169C430.278 356.099 438.512 348.631 444.43 342.428C447.834 338.886 451.019 335.137 453.969 331.203L450.215 328.465L450.176 328.485Z" fill="#231F20"/>
<path d="M464.169 338.165C459.55 343.909 454.484 349.274 449.017 354.207C444.316 358.521 439.233 362.395 433.833 365.779C428.279 369.19 422.361 371.862 416.477 373.028L417.37 377.605C424.095 376.272 430.569 373.274 436.527 369.61C445.456 364.074 453.24 356.952 458.834 351.209C462.009 347.975 465.016 344.577 467.843 341.029L464.182 338.171L464.169 338.165Z" fill="#231F20"/>
<path d="M480.651 351.669C477.677 355.952 474.429 360.036 470.927 363.894C467.925 367.241 464.679 370.359 461.217 373.221C457.906 376.018 454.201 378.304 450.222 380.003L451.923 384.347C456.412 382.439 460.59 379.861 464.315 376.699C469.568 372.272 474.381 367.341 478.685 361.975C482.286 357.552 484.47 354.294 484.497 354.247L480.658 351.642L480.651 351.669Z" fill="#231F20"/>
<path d="M331.524 207.666H333.84L333.179 165.828C333.164 165.769 333.164 165.707 333.179 165.648C333.21 165.581 333.26 165.525 333.324 165.488C333.398 165.443 333.482 165.417 333.569 165.415H333.695C333.75 165.441 333.799 165.477 333.84 165.521L346.55 178.706C347.018 179.194 347.58 179.582 348.201 179.846C348.822 180.111 349.489 180.246 350.164 180.245C350.951 180.247 351.728 180.063 352.431 179.707C353.135 179.352 353.746 178.836 354.215 178.2L383.969 137.86C384.007 137.797 384.062 137.746 384.128 137.714C384.171 137.701 384.217 137.701 384.26 137.714C384.385 137.713 384.506 137.761 384.598 137.847L384.677 137.947C384.688 137.995 384.688 138.045 384.677 138.093V138.187L376.33 204.668C376.303 204.889 376.29 205.112 376.29 205.334C376.292 206.088 376.461 206.831 376.784 207.51C377.106 208.19 377.575 208.788 378.156 209.263C378.737 209.737 379.416 210.076 380.143 210.254C380.87 210.432 381.628 210.444 382.36 210.291L411.883 204.069H412.008C412.05 204.057 412.093 204.057 412.134 204.069C412.204 204.105 412.261 204.16 412.3 204.229C412.353 204.304 412.381 204.395 412.379 204.488V204.602C412.351 204.665 412.308 204.719 412.253 204.762L389.258 225.587C388.436 226.327 387.879 227.318 387.672 228.407C387.465 229.497 387.62 230.624 388.113 231.617C388.471 232.354 389.005 232.991 389.668 233.469L411.241 249.178C411.298 249.216 411.343 249.269 411.373 249.331C411.395 249.387 411.409 249.445 411.413 249.505C411.412 249.593 411.384 249.679 411.333 249.751C411.311 249.788 411.281 249.82 411.246 249.846C411.21 249.871 411.17 249.889 411.128 249.898L293.721 290.137C293.03 290.378 292.398 290.765 291.869 291.273C291.34 291.781 290.927 292.398 290.656 293.082L271.592 341.769C271.566 341.849 271.512 341.918 271.44 341.962C271.368 342.007 271.286 342.03 271.202 342.029C271.142 342.03 271.082 342.017 271.029 341.989C270.969 341.962 270.919 341.918 270.884 341.862L262.563 330.743C262.15 330.192 261.629 329.732 261.033 329.391C260.436 329.051 259.777 328.836 259.095 328.76C258.414 328.685 257.724 328.75 257.068 328.953C256.412 329.155 255.805 329.49 255.282 329.937L250.595 333.934C250.529 334.001 250.438 334.039 250.344 334.041C250.231 334.035 250.124 333.99 250.039 333.914L249.96 333.801C249.935 333.747 249.923 333.687 249.927 333.628V311.629C249.925 310.285 249.394 308.995 248.45 308.044C247.506 307.092 246.226 306.556 244.89 306.553C244.563 306.555 244.237 306.586 243.917 306.646L195.132 316.186H195.013C194.969 316.195 194.924 316.195 194.88 316.186C194.811 316.148 194.751 316.093 194.708 316.026C194.656 315.956 194.622 315.874 194.609 315.786V315.673C194.637 315.618 194.675 315.568 194.722 315.527C201.705 308.525 213.256 296.926 223.026 286.913C227.924 281.903 232.386 277.299 235.603 273.848C237.231 272.123 238.555 270.69 239.495 269.618C239.965 269.085 240.335 268.645 240.627 268.285C240.775 268.103 240.912 267.911 241.037 267.712C241.118 267.584 241.191 267.45 241.256 267.313C241.308 267.197 241.35 267.076 241.381 266.953C241.448 266.737 241.482 266.512 241.481 266.287C241.483 266.024 241.441 265.762 241.355 265.514C241.269 265.258 241.139 265.019 240.971 264.808C240.707 264.48 240.362 264.227 239.971 264.075C239.703 263.97 239.418 263.918 239.131 263.922C238.907 263.919 238.684 263.948 238.469 264.008C238.306 264.05 238.148 264.11 237.999 264.188C237.898 264.234 237.801 264.288 237.708 264.348L238.184 265.161L237.972 264.235C237.879 264.258 237.789 264.296 237.708 264.348L238.184 265.161L237.972 264.235L238.072 264.674L238.025 264.228H237.972L238.072 264.668L238.025 264.221C237.661 264.184 237.304 264.092 236.966 263.948C235.536 263.347 234.169 262.606 232.882 261.736C230.426 260.157 227.54 257.986 224.701 255.74C221.861 253.495 219.054 251.077 216.711 249.005C216.659 248.965 216.617 248.913 216.592 248.852V248.725C216.595 248.604 216.642 248.488 216.724 248.399L216.83 248.319C216.883 248.31 216.936 248.31 216.989 248.319H217.115L291.741 254.908H292.178C292.895 254.908 293.603 254.754 294.256 254.456C294.909 254.159 295.492 253.724 295.965 253.182L332.57 211.177C333.373 210.255 333.817 209.072 333.821 207.846V207.806H331.504H329.187V207.853C329.186 207.952 329.149 208.047 329.081 208.119L292.476 250.124C292.439 250.169 292.392 250.204 292.34 250.229C292.287 250.253 292.23 250.265 292.172 250.264L217.545 243.675C217.384 243.666 217.223 243.666 217.062 243.675C216.35 243.67 215.645 243.82 214.997 244.115C214.097 244.528 213.338 245.197 212.812 246.04C212.303 246.859 212.032 247.806 212.031 248.772C212.033 249.46 212.177 250.141 212.455 250.77C212.763 251.451 213.215 252.056 213.779 252.543C217.413 255.727 222.119 259.711 226.508 262.942C228.494 264.441 230.57 265.816 232.723 267.059C233.601 267.569 234.515 268.014 235.457 268.392C236.3 268.733 237.196 268.925 238.105 268.958C238.824 268.969 239.533 268.785 240.157 268.425L239.495 267.319L239.998 268.505L240.157 268.425L239.495 267.319L239.998 268.505L239.23 266.686L239.74 268.592C239.827 268.568 239.914 268.539 239.998 268.505L239.23 266.686L239.74 268.592L239.17 266.473V268.485C239.363 268.484 239.554 268.457 239.74 268.405L239.17 266.287V266.207L238.469 268.372C238.696 268.444 238.932 268.482 239.17 268.485V266.207L238.469 268.372L239.177 266.18L237.794 268.019C237.996 268.169 238.219 268.288 238.456 268.372L239.164 266.18L237.78 268.019L239.164 266.18L237.039 267.039C237.196 267.426 237.452 267.764 237.78 268.019L239.164 266.18L237.039 267.039L239.144 266.187H236.874C236.876 266.479 236.932 266.768 237.039 267.039L239.144 266.187H239.071L236.96 265.567C236.905 265.769 236.876 265.977 236.874 266.187H239.071L236.96 265.567L238.707 266.08L237.118 265.194C237.05 265.311 236.997 265.436 236.96 265.567L238.707 266.08L237.118 265.194L237.86 265.607L237.138 265.154V265.194L237.88 265.607L237.158 265.154L237.264 265.214L237.158 265.147L237.264 265.207L237.158 265.141C237.158 265.141 237.092 265.241 236.999 265.361C236.814 265.6 236.503 265.967 236.106 266.426C234.59 268.152 231.777 271.143 228.255 274.801C217.664 285.8 200.633 302.955 191.465 312.156C190.979 312.634 190.596 313.208 190.339 313.841C190.089 314.458 189.965 315.12 189.975 315.786C189.98 317.089 190.474 318.341 191.359 319.291C191.823 319.794 192.385 320.196 193.01 320.471C193.636 320.746 194.31 320.889 194.993 320.89C195.326 320.889 195.659 320.856 195.986 320.79L244.764 311.25H244.843C244.95 311.251 245.052 311.294 245.128 311.369C245.166 311.408 245.197 311.453 245.217 311.504C245.237 311.554 245.248 311.608 245.247 311.663V333.701C245.247 334.409 245.391 335.11 245.671 335.76C245.989 336.482 246.47 337.12 247.077 337.622C247.683 338.124 248.397 338.477 249.163 338.652C249.928 338.827 250.724 338.82 251.486 338.632C252.249 338.443 252.957 338.078 253.554 337.565L258.241 333.568C258.315 333.505 258.409 333.472 258.506 333.474C258.567 333.474 258.628 333.488 258.684 333.514C258.74 333.547 258.79 333.59 258.83 333.641L267.15 344.76C267.69 345.48 268.41 346.042 269.238 346.389C270.065 346.736 270.968 346.854 271.856 346.733C272.744 346.611 273.584 346.254 274.289 345.698C274.994 345.142 275.539 344.406 275.868 343.568L295.025 294.734C295.045 294.678 295.078 294.628 295.12 294.586C295.162 294.545 295.214 294.513 295.269 294.494L412.67 254.255C413.702 253.902 414.592 253.222 415.206 252.316C415.776 251.469 416.08 250.468 416.079 249.445C416.083 248.669 415.909 247.903 415.57 247.206C415.203 246.465 414.662 245.825 413.994 245.341L392.428 229.631C392.374 229.595 392.331 229.544 392.303 229.485C392.273 229.427 392.257 229.363 392.256 229.298V229.138L392.362 228.998L415.364 208.166C415.902 207.679 416.333 207.085 416.629 206.42C416.906 205.791 417.046 205.11 417.039 204.422C417.038 203.121 416.549 201.87 415.669 200.917C415.206 200.411 414.645 200.007 414.019 199.731C413.394 199.455 412.718 199.312 412.035 199.312C411.672 199.313 411.311 199.351 410.956 199.425L381.44 205.648H381.348C381.243 205.645 381.143 205.602 381.07 205.528C381.032 205.492 381.002 205.448 380.981 205.4C380.961 205.352 380.95 205.3 380.95 205.248V205.195L389.297 138.713C389.324 138.492 389.337 138.269 389.337 138.047C389.34 137.189 389.123 136.345 388.707 135.597C388.29 134.849 387.689 134.222 386.961 133.776C386.15 133.271 385.214 133.003 384.26 133.003C383.505 132.996 382.758 133.17 382.082 133.51C381.355 133.869 380.725 134.402 380.249 135.062L350.495 175.401C350.458 175.456 350.408 175.5 350.349 175.528C350.291 175.555 350.228 175.569 350.164 175.568C350.11 175.57 350.056 175.56 350.005 175.539C349.955 175.519 349.91 175.488 349.873 175.448L337.17 162.264C336.69 161.763 336.113 161.367 335.475 161.098C334.871 160.846 334.223 160.717 333.569 160.718C332.279 160.717 331.036 161.21 330.094 162.097C329.607 162.554 329.215 163.104 328.942 163.716C328.657 164.371 328.511 165.079 328.512 165.795V165.888L329.174 207.726L331.491 207.686L331.524 207.666Z" fill="#8C8C8C"/>
<path d="M213.805 130.365L213.871 129.885L213.805 130.365L213.871 129.885L213.805 130.365C215.27 130.598 216.722 130.91 218.154 131.298C222.013 132.311 227.746 134.309 232.419 137.734C234.781 139.398 236.804 141.503 238.376 143.936C239.994 146.541 240.907 149.527 241.024 152.597L245.658 152.37C245.54 149.715 244.958 147.101 243.936 144.649C242.269 140.808 239.667 137.451 236.371 134.889C231.737 131.138 226.269 128.893 221.98 127.56C219.525 126.765 217.014 126.159 214.467 125.748L213.805 130.365Z" fill="#231F20"/>
<path d="M245.611 196.914C245.644 196.727 248.259 184.922 257.056 172.33C258.345 170.475 259.955 168.869 261.809 167.587C264.418 165.822 267.339 164.576 270.414 163.916C273.092 163.326 275.827 163.033 278.569 163.043C280.111 163.043 281.395 163.136 282.289 163.216L283.315 163.336L283.566 163.37H283.619L283.725 162.703L283.619 163.37L283.725 162.703L283.619 163.37L284.381 158.766C278.196 157.905 271.899 158.439 265.946 160.332C263.529 161.143 261.237 162.289 259.134 163.736C256.83 165.333 254.828 167.332 253.223 169.639C243.771 183.236 241.09 195.728 241.044 195.914L245.571 196.9L245.611 196.914Z" fill="#231F20"/>
<path d="M224.641 174.629L224.509 172.297L224.562 173.216L224.515 172.297L224.568 173.216L224.522 172.297C224.522 172.297 224.184 172.297 223.608 172.297C220.255 172.292 216.917 171.844 213.679 170.964C211.296 170.324 209.014 169.348 206.901 168.066C204.676 166.708 202.761 164.892 201.281 162.737C199.388 160.012 197.938 157 196.985 153.816C196.357 151.695 196.031 149.494 196.019 147.28C196.015 146.424 196.075 145.569 196.198 144.722C196.244 144.442 196.284 144.229 196.317 144.103V143.969L195.264 143.676L196.31 143.983L195.258 143.69L196.304 143.996L194.079 143.33L194.298 145.648L194.258 145.275L194.298 145.648L194.258 145.275L194.298 145.648C194.298 145.648 195.761 145.515 197.919 145.515C201.4 145.487 204.872 145.869 208.265 146.654C210.034 147.071 211.745 147.711 213.355 148.56C214.77 149.29 216.01 150.322 216.989 151.584C218.675 154.002 219.902 156.712 220.61 159.579C221.74 164.081 222.309 168.706 222.304 173.349C222.304 173.736 222.304 174.016 222.304 174.236C222.309 174.309 222.309 174.382 222.304 174.455V174.549L224.621 174.649L224.489 172.317L224.621 174.649L226.931 174.742C226.931 174.742 226.931 174.222 226.931 173.409C226.941 168.352 226.318 163.314 225.078 158.413C224.223 154.973 222.737 151.724 220.696 148.833C219.317 147.032 217.564 145.557 215.559 144.509C212.635 142.999 209.48 141.992 206.226 141.531C203.478 141.1 200.7 140.889 197.919 140.898C195.503 140.898 193.914 141.051 193.861 141.058L192.292 141.205L191.855 142.73C191.483 144.235 191.312 145.783 191.346 147.334C191.359 149.989 191.747 152.629 192.497 155.175C193.587 158.832 195.25 162.291 197.422 165.421C199.268 168.115 201.659 170.386 204.439 172.084C206.916 173.59 209.59 174.742 212.382 175.508C216.015 176.518 219.766 177.038 223.536 177.054C224.251 177.054 224.668 177.054 224.701 177.054L226.806 176.934L226.885 174.822L224.641 174.629Z" fill="#231F20"/>
<path d="M260.743 188.386L260.141 186.141C258.645 186.554 257.056 186.967 255.507 187.273C254.172 187.574 252.811 187.741 251.443 187.773C250.9 187.793 250.358 187.73 249.834 187.587C249.707 187.551 249.585 187.499 249.47 187.433C249.431 187.41 249.395 187.381 249.364 187.347L248.04 188.433L249.689 187.973C249.626 187.743 249.516 187.53 249.364 187.347L248.04 188.433L249.689 187.973L248.557 188.293H249.742C249.734 188.185 249.716 188.078 249.689 187.973L248.557 188.293H249.358L249.735 188.326V188.293H249.351L249.728 188.326C249.748 188.213 249.777 188.102 249.814 187.993C250.007 187.406 250.246 186.836 250.529 186.287C251.138 185.042 252.045 183.469 253.045 181.857C254.554 179.432 256.288 176.887 257.632 174.955C258.294 173.989 258.89 173.176 259.3 172.61L259.777 171.944L259.902 171.771L259.942 171.717L258.082 170.332L258.327 172.65L258.248 171.877L258.32 172.65L258.241 171.877L258.314 172.65C258.314 172.65 258.625 172.65 259.108 172.65C260.253 172.655 261.395 172.789 262.51 173.05C264.041 173.396 265.491 174.036 266.78 174.935C267.505 175.431 268.141 176.049 268.66 176.761C269.128 177.412 269.439 178.165 269.567 178.959C269.59 179.104 269.601 179.251 269.6 179.399C269.589 180.008 269.398 180.599 269.05 181.098C268.166 182.291 267.02 183.262 265.701 183.936C263.942 184.892 262.075 185.633 260.141 186.141L260.75 188.386L261.359 190.638C264.434 189.867 267.348 188.549 269.964 186.747C271.16 185.894 272.194 184.831 273.015 183.609C273.861 182.359 274.322 180.885 274.339 179.372C274.341 178.979 274.31 178.587 274.247 178.2C274.01 176.694 273.425 175.265 272.539 174.029C271.717 172.89 270.71 171.899 269.56 171.098C267.78 169.844 265.775 168.95 263.656 168.466C262.194 168.127 260.7 167.955 259.201 167.953C258.453 167.953 257.989 168 257.917 168.006L256.91 168.113L256.301 168.939C256.301 168.939 253.607 172.61 250.9 176.727C249.576 178.792 248.186 180.964 247.134 182.91C246.641 183.796 246.199 184.711 245.81 185.648C245.642 186.061 245.498 186.484 245.38 186.914C245.257 187.361 245.193 187.822 245.188 188.286C245.183 188.599 245.223 188.911 245.307 189.212C245.411 189.607 245.599 189.975 245.856 190.291C246.212 190.729 246.64 191.103 247.12 191.397C247.786 191.798 248.516 192.077 249.278 192.223C250.017 192.369 250.769 192.438 251.522 192.43C253.199 192.399 254.869 192.2 256.507 191.837C258.188 191.497 259.876 191.051 261.412 190.631L260.743 188.386Z" fill="#231F20"/>
<path d="M203.83 191.057C205.618 193.182 207.544 195.185 209.595 197.053C211.371 198.698 213.279 200.191 215.301 201.517C217.306 202.883 219.553 203.847 221.92 204.355L222.715 199.758C220.943 199.356 219.262 198.619 217.763 197.586C215.149 195.829 212.724 193.802 210.529 191.537C209.555 190.558 208.761 189.692 208.205 189.072L207.576 188.346L207.411 188.159L207.378 188.113L203.817 191.091L203.83 191.057Z" fill="#231F20"/>
<path d="M168.204 109.579C168.028 111.078 167.946 112.587 167.959 114.096C167.952 117.528 168.343 120.949 169.124 124.289C170.065 128.5 171.943 132.441 174.618 135.815L178.186 132.843C175.961 130.011 174.401 126.709 173.626 123.183C172.928 120.206 172.581 117.156 172.593 114.096C172.593 112.884 172.646 111.891 172.699 111.211C172.699 110.872 172.752 110.605 172.765 110.432C172.778 110.259 172.765 110.285 172.765 110.245V110.192L172.004 110.092L172.765 110.199L172.004 110.099L172.765 110.205L168.178 109.586L168.204 109.579Z" fill="#231F20"/>
<path d="M247.597 295.174C247.597 295.174 266.317 264.954 265.827 259.998C265.337 255.041 241.216 255.048 252.535 228.292C263.854 201.537 284.036 228.292 284.036 228.292C284.036 228.292 288.961 196.094 304.219 202.037C319.477 207.979 325.401 212.936 325.401 212.936C325.401 212.936 324.904 185.028 351.978 189.572C379.051 194.115 351.978 228.292 351.978 228.292C351.978 228.292 381.897 243.649 387.854 247.12C393.812 250.591 344.597 339.924 339.672 339.597C334.747 339.271 247.087 304.587 247.597 295.174Z" fill="#EE4947"/>
<path d="M224.641 174.629C220.736 174.736 216.837 174.26 213.07 173.216C211.938 170.138 212.024 166.907 214.143 164.409C216.457 161.769 219.502 159.885 222.887 158.999C224.166 164.106 224.756 169.363 224.641 174.629Z" fill="#231F20"/>
<path d="M260.743 188.386C259.876 185.894 259.591 183.469 260.405 181.477C261.862 177.953 265.092 175.082 268.163 173.003C269.13 173.625 269.961 174.439 270.604 175.396C271.247 176.353 271.689 177.431 271.903 178.566C272.631 183.209 267.005 186.68 260.743 188.386Z" fill="#231F20"/>
</g>
<defs>
<clipPath id="clip0_1781_1493">
<rect width="513" height="493" fill="white"/>
</clipPath>
</defs>
</svg>
