<svg width="513" height="504" viewBox="0 0 513 504" fill="none" xmlns="http://www.w3.org/2000/svg">
<g clip-path="url(#clip0_1811_1754)">
<path d="M453.548 116.448H269.853C271.198 111.308 274.209 106.759 278.414 103.511C282.62 100.264 287.783 98.5019 293.096 98.5004H430.332C435.641 98.5078 440.797 100.273 444.997 103.52C449.197 106.766 452.204 111.313 453.548 116.448Z" fill="#231F20"/>
<path d="M492.256 287.478H416.387C405.089 287.478 395.929 296.637 395.929 307.936V351.986C395.929 363.284 405.089 372.444 416.387 372.444H492.256C503.554 372.444 512.714 363.284 512.714 351.986V307.936C512.714 296.637 503.554 287.478 492.256 287.478Z" fill="#EE4947"/>
<path d="M430.332 310.46L411.567 329.218L430.325 348.926L430.807 348.464L412.505 329.231L430.807 310.935L430.332 310.46Z" fill="white" stroke="#F6F8FA" stroke-width="4" stroke-linejoin="round"/>
<path d="M464.996 310.52L440.608 348.511L441.17 348.873L465.565 310.875" fill="white"/>
<path d="M464.996 310.52L440.608 348.511L441.17 348.873L465.565 310.875" stroke="#F6F8FA" stroke-width="4" stroke-linejoin="round"/>
<path d="M472.313 310.935L490.843 329.693L472.313 348.458L472.788 348.933L491.787 329.693L472.788 310.46L472.313 310.935Z" fill="white" stroke="#F6F8FA" stroke-width="4" stroke-linejoin="round"/>
<path d="M331.381 291.207C331.649 298.571 327.311 304.689 321.695 304.897C316.078 305.104 311.298 299.307 311.03 291.95C310.763 284.593 315.094 278.467 320.717 278.26C326.34 278.052 331.107 283.849 331.381 291.207Z" fill="white"/>
<path d="M285.357 332.364V353.271C285.652 343.035 302.314 335.437 302.314 335.437L307.75 337.8C307.75 337.8 311.097 356.216 311.097 358.118C311.097 360.019 296.771 385.598 295.312 387.787C293.852 389.977 272.216 395.821 269.143 395.821C266.07 395.821 242.104 390.418 238.449 388.37C234.794 386.321 221.639 367.47 219.705 364.397C217.77 361.324 216.926 330.483 222.925 330.342C228.923 330.202 235.785 338.235 235.785 338.235C239.88 341.707 242.82 346.345 244.213 351.53L243.825 323.474C243.825 323.474 247.333 325.422 244.213 321.512C241.093 317.603 236.026 306.316 236.026 306.316C236.026 306.316 219.075 306.885 216.538 293.068C215.039 284.927 219.43 280.763 221.599 278.916C222.288 278.299 223.082 277.809 223.942 277.47C223.942 277.47 225.114 271.632 225.502 251.75C225.89 231.867 236.809 221.732 236.809 221.732C236.809 221.732 232.525 220.179 232.123 216.671C231.721 213.163 239.487 215.104 239.487 215.104C239.487 215.104 246.114 204.192 246.114 211.677C246.114 219.161 250.01 216.671 250.01 216.671C261.712 209.26 292.493 210.82 304.59 216.671C316.687 222.522 329.922 220.955 329.922 220.955C329.922 220.955 324.848 231.479 331.087 240.838C337.326 250.197 331.087 257.199 322.9 258.377C321.802 258.542 320.808 259.119 320.121 259.991C315.623 265.4 318.227 282.156 318.227 282.156C317.062 343.745 258.974 330.095 258.974 330.095L285.357 332.364Z" fill="white"/>
<path d="M285.357 332.364H286.997V353.271H285.33L283.663 353.217C283.714 351.744 284.032 350.293 284.601 348.933C285.619 346.595 287.078 344.474 288.898 342.687C291.393 340.219 294.183 338.069 297.206 336.287C298.626 335.422 300.09 334.631 301.591 333.917L302.261 333.609L309.169 336.595L309.33 337.472C309.33 337.472 310.167 342.084 311.01 346.938C311.432 349.361 311.854 351.845 312.168 353.853C312.329 354.857 312.463 355.741 312.557 356.451C312.603 356.806 312.644 357.12 312.67 357.381C312.698 357.617 312.714 357.854 312.717 358.091C312.715 358.219 312.704 358.346 312.684 358.472C312.653 358.654 312.609 358.833 312.55 359.008C312.443 359.336 312.309 359.677 312.135 360.093C311.807 360.856 311.345 361.826 310.796 362.958C308.835 366.907 305.608 372.872 302.722 378.08C301.276 380.685 299.918 383.101 298.846 384.976C298.311 385.913 297.849 386.71 297.508 387.339L297.026 388.149L296.684 388.691C296.55 388.886 296.393 389.064 296.215 389.22C295.915 389.475 295.59 389.7 295.245 389.889C294.458 390.323 293.644 390.706 292.808 391.034C291.128 391.704 289.006 392.447 286.703 393.17C283.255 394.254 279.419 395.312 276.199 396.109C274.586 396.51 273.126 396.838 271.935 397.073C271.337 397.193 270.808 397.287 270.348 397.354C269.945 397.419 269.538 397.455 269.13 397.461C268.794 397.456 268.459 397.434 268.126 397.394C267.456 397.307 266.499 397.16 265.394 396.966C261.545 396.296 255.466 394.957 249.937 393.571C247.179 392.902 244.581 392.186 242.419 391.563C241.348 391.242 240.411 390.934 239.594 390.653C239.192 390.505 238.831 390.372 238.509 390.231C238.204 390.109 237.907 389.968 237.619 389.809C237.246 389.593 236.894 389.342 236.568 389.059C235.814 388.395 235.101 387.687 234.432 386.937C233.094 385.438 231.5 383.51 229.867 381.408C227.41 378.255 224.833 374.713 222.71 371.714C221.646 370.215 220.702 368.849 219.946 367.738C219.189 366.626 218.607 365.776 218.306 365.261C218.108 364.914 217.951 364.545 217.837 364.163C217.615 363.363 217.447 362.549 217.335 361.726C217.121 360.287 216.947 358.513 216.826 356.524C216.706 354.536 216.639 352.34 216.639 350.084C216.582 345.51 216.933 340.94 217.69 336.428C217.862 335.497 218.086 334.576 218.359 333.67C218.683 332.496 219.201 331.385 219.892 330.383C220.232 329.916 220.654 329.514 221.137 329.198C221.665 328.859 222.277 328.673 222.905 328.662H223.105C224.94 328.722 226.737 329.205 228.354 330.075C230.59 331.266 232.653 332.757 234.486 334.506C235.397 335.335 236.26 336.216 237.07 337.144L235.805 338.228L236.883 336.957C239.913 339.546 242.37 342.738 244.099 346.329C244.867 347.871 245.46 349.494 245.867 351.169L244.233 351.51H242.566L242.144 320.595L244.662 321.994L244.213 322.804L244.662 321.994L244.213 322.804L244.662 321.994L244.769 322.055C244.876 322.102 245.043 322.182 245.17 322.229L245.318 322.276L245.211 322.831V322.269C245.298 322.269 245.324 322.269 245.324 322.269L245.217 322.825V323.414L244.936 322.302C245.028 322.278 245.122 322.264 245.217 322.262V323.414L244.936 322.302L245.277 323.641L244.568 322.47C244.683 322.403 244.807 322.351 244.936 322.316L245.277 323.655L244.568 322.483L245.318 323.728L244.026 323.059C244.15 322.817 244.337 322.613 244.568 322.47L245.318 323.715L244.026 323.045L245.237 323.655H243.898C243.901 323.442 243.953 323.233 244.052 323.045L245.264 323.655H244.923L243.919 323.876C243.912 323.802 243.912 323.728 243.919 323.655H244.943L243.939 323.876L244.4 323.775L243.959 323.929V323.876L244.421 323.775L243.979 323.929C243.912 323.776 243.829 323.63 243.731 323.494C243.511 323.161 243.274 322.839 243.021 322.53C242.58 321.974 242.131 321.332 241.683 320.615C240.886 319.37 240.056 317.897 239.246 316.391C236.829 311.879 234.633 307.019 234.627 306.972L236.146 306.303L236.2 307.97H235.872C232.387 307.938 228.937 307.273 225.69 306.008C223.212 305.045 220.972 303.558 219.122 301.65C216.969 299.346 215.542 296.459 215.019 293.349C214.801 292.192 214.689 291.018 214.684 289.841C214.656 287.006 215.431 284.221 216.92 281.808C217.932 280.227 219.186 278.816 220.635 277.624C221.49 276.864 222.477 276.267 223.547 275.863L224.056 277.45L222.423 277.122L223.092 277.262L222.423 277.128L223.092 277.269L222.423 277.135C222.423 277.135 223.567 271.21 223.949 251.696C224.026 243.574 226.095 235.596 229.974 228.46C231.52 225.535 233.484 222.851 235.805 220.493L236.943 221.712L236.367 223.278C235.437 222.917 234.559 222.433 233.756 221.839C233.01 221.293 232.35 220.636 231.802 219.891C231.152 218.991 230.742 217.94 230.61 216.838C230.61 216.698 230.61 216.55 230.61 216.41C230.609 216.074 230.659 215.74 230.757 215.419C230.926 214.872 231.244 214.383 231.674 214.006C231.959 213.757 232.28 213.552 232.625 213.397C233.095 213.194 233.591 213.055 234.098 212.982C234.581 212.912 235.069 212.879 235.557 212.882C236.594 212.899 237.628 212.997 238.65 213.176C239.493 213.324 240.069 213.464 240.096 213.471L239.694 215.091L238.128 214.221C238.128 214.221 239.085 212.641 240.297 211.047C240.903 210.231 241.575 209.466 242.305 208.758C242.661 208.415 243.054 208.112 243.477 207.854C243.704 207.719 243.944 207.607 244.193 207.519C244.484 207.419 244.789 207.367 245.097 207.365C245.346 207.366 245.594 207.402 245.833 207.473C246.263 207.616 246.647 207.873 246.944 208.216C247.138 208.445 247.296 208.702 247.413 208.979C247.582 209.372 247.695 209.786 247.748 210.211C247.815 210.69 247.847 211.173 247.841 211.657C247.831 212.46 247.898 213.263 248.042 214.053C248.105 214.376 248.206 214.691 248.344 214.99C248.399 215.136 248.491 215.265 248.611 215.365C248.64 215.372 248.67 215.372 248.698 215.365C248.818 215.363 248.936 215.338 249.046 215.292L249.174 215.231L249.569 215.901L249.154 215.231L249.549 215.901L249.133 215.231C252.173 213.31 256.156 212.038 260.668 211.215C265.502 210.371 270.402 209.966 275.309 210.003C280.915 209.993 286.512 210.441 292.045 211.342C294.509 211.748 296.949 212.287 299.355 212.955C301.401 213.51 303.395 214.243 305.313 215.144C308.884 216.83 312.671 218.015 316.567 218.666C319.589 219.187 322.651 219.449 325.718 219.449C326.976 219.449 327.994 219.402 328.69 219.355L329.48 219.295H329.674H329.728V219.469V219.295V219.469V219.295L332.74 218.94L331.401 221.672H331.341H331.401H331.341H331.401C330.239 224.391 329.636 227.316 329.627 230.274C329.62 231.869 329.823 233.458 330.23 235C330.7 236.744 331.453 238.4 332.459 239.9C334.367 242.766 335.278 245.564 335.278 248.155C335.283 249.723 334.935 251.272 334.26 252.687C333.254 254.729 331.689 256.444 329.748 257.634C327.731 258.888 325.473 259.702 323.12 260.024C322.796 260.069 322.485 260.178 322.203 260.345C321.895 260.535 321.622 260.775 321.393 261.055C320.959 261.606 320.616 262.223 320.376 262.883C319.886 264.231 319.563 265.634 319.412 267.06C319.221 268.704 319.129 270.358 319.137 272.014C319.137 274.591 319.325 277.075 319.505 278.902C319.599 279.819 319.693 280.576 319.76 281.091C319.796 281.355 319.822 281.556 319.84 281.694C319.84 281.761 319.84 281.814 319.84 281.848V281.895V282.035V282.183C319.639 293.028 317.691 301.67 314.558 308.532C312.492 313.22 309.555 317.472 305.902 321.064C301.093 325.612 295.254 328.929 288.885 330.731C283.444 332.286 277.808 333.055 272.149 333.013C267.618 333.042 263.097 332.593 258.66 331.675L259.189 328.394L286.997 330.838V332.364H285.33L285.183 334.024L258.881 331.735L259.021 330.075L259.403 328.448V328.501V328.448V328.501V328.448C263.588 329.3 267.851 329.717 272.122 329.693C276.82 329.72 281.503 329.169 286.067 328.053C289.876 327.114 293.534 325.642 296.932 323.681C302.702 320.31 307.4 315.373 310.481 309.442C314.036 302.748 316.379 293.905 316.6 282.102L318.267 282.136L316.62 282.39C316.125 278.949 315.868 275.477 315.85 272C315.835 269.619 316.036 267.242 316.453 264.898C316.651 263.792 316.951 262.707 317.35 261.657C317.72 260.663 318.246 259.734 318.91 258.906C319.378 258.331 319.942 257.842 320.577 257.46C321.24 257.068 321.975 256.813 322.739 256.71C325.21 256.407 327.538 255.385 329.433 253.771C330.237 253.064 330.893 252.204 331.361 251.241C331.81 250.27 332.039 249.211 332.031 248.141C332.031 246.334 331.401 244.192 329.768 241.741C328.564 239.937 327.659 237.95 327.09 235.857C326.606 234.031 326.362 232.15 326.367 230.26C326.381 227.851 326.733 225.456 327.412 223.144C327.689 222.14 328.047 221.159 328.483 220.212L329.982 220.935L330.176 222.589C328.715 222.735 327.247 222.802 325.778 222.789C322.523 222.799 319.274 222.53 316.064 221.986C311.862 221.283 307.778 220.001 303.927 218.177C302.182 217.355 300.371 216.683 298.512 216.169C292.219 214.388 283.67 213.324 275.362 213.33C270.651 213.293 265.946 213.68 261.304 214.488C257.053 215.272 253.411 216.497 250.941 218.063C250.728 218.196 250.504 218.31 250.272 218.405C249.768 218.612 249.229 218.721 248.685 218.726C248.111 218.726 247.545 218.586 247.038 218.318C246.597 218.078 246.208 217.752 245.893 217.36C245.378 216.678 245.017 215.893 244.836 215.057C244.591 213.943 244.476 212.804 244.494 211.663C244.497 211.339 244.477 211.014 244.434 210.693C244.422 210.576 244.397 210.462 244.36 210.351V210.318L244.943 210.01L244.588 210.545C244.494 210.49 244.415 210.412 244.36 210.318L244.943 210.01L244.588 210.545L245.097 209.775V210.706C244.915 210.705 244.738 210.649 244.588 210.545L245.097 209.775V210.197L245.264 210.686C245.208 210.693 245.152 210.693 245.097 210.686V210.177L245.264 210.666C245.131 210.732 245.005 210.813 244.889 210.907C244.438 211.294 244.022 211.72 243.644 212.179C242.981 212.977 242.362 213.81 241.79 214.676C241.535 215.044 241.328 215.345 241.187 215.586L241.02 215.847L240.98 215.914L240.31 216.965L239.119 216.664C239.119 216.664 238.57 216.53 237.853 216.41C237.04 216.267 236.216 216.189 235.39 216.175C235.065 216.175 234.741 216.197 234.419 216.242C234.248 216.266 234.08 216.306 233.917 216.363C233.856 216.383 233.798 216.41 233.743 216.443L233.582 216.282L233.79 216.369L233.743 216.443L233.582 216.282L233.79 216.369L233.629 216.303H233.803V216.343L233.643 216.276H233.817V216.369C233.88 216.907 234.086 217.417 234.412 217.849C234.927 218.522 235.571 219.084 236.307 219.503C236.571 219.658 236.844 219.799 237.124 219.924L237.351 220.025H237.405L237.124 220.774L237.398 220.018L237.117 220.768L237.391 220.011L239.955 220.942L237.947 222.803L237.278 222.08L237.947 222.796L237.278 222.073L237.947 222.789C235.761 225.074 233.921 227.665 232.484 230.481C229.073 237 227.262 244.238 227.202 251.596C226.814 271.538 225.643 277.45 225.616 277.61L225.422 278.568L224.491 278.869L224.177 277.898L224.511 278.862L224.197 277.891L224.531 278.855L224.498 278.775L224.531 278.855L224.498 278.775L224.531 278.855C223.872 279.133 223.264 279.517 222.731 279.994C221.516 281.012 220.476 282.222 219.651 283.575C218.488 285.456 217.886 287.63 217.917 289.841C217.922 290.816 218.016 291.789 218.198 292.746C218.604 295.225 219.736 297.527 221.452 299.361C222.589 300.545 223.92 301.525 225.388 302.259C227.404 303.246 229.557 303.923 231.775 304.268C233.102 304.49 234.445 304.608 235.791 304.622H236.019V305.078V304.622V305.078V304.622L237.137 304.589L237.592 305.606L237.652 305.734C237.927 306.343 239.226 309.181 240.806 312.301C241.589 313.861 242.452 315.494 243.283 316.94C243.96 318.162 244.722 319.334 245.565 320.448C245.987 320.959 246.37 321.5 246.71 322.068C246.84 322.283 246.954 322.506 247.051 322.738C247.16 323.02 247.217 323.319 247.219 323.621C247.223 323.893 247.168 324.162 247.058 324.411C246.968 324.634 246.831 324.835 246.657 325C246.433 325.221 246.16 325.384 245.86 325.476C245.656 325.536 245.444 325.565 245.231 325.563C244.926 325.562 244.623 325.512 244.334 325.415C244.033 325.323 243.74 325.209 243.457 325.074C243.236 324.967 243.088 324.88 243.062 324.873L243.872 323.414H245.539L245.927 351.477L242.633 351.838L243.303 351.698L242.633 351.845L243.303 351.704L242.633 351.852C242.263 350.4 241.738 348.993 241.067 347.654C239.545 344.524 237.396 341.739 234.754 339.474L234.653 339.393L234.566 339.286L234.968 338.945L234.566 339.286L234.968 338.945L234.566 339.286C233.35 337.924 232.027 336.662 230.61 335.511C229.449 334.548 228.187 333.713 226.848 333.02C225.704 332.395 224.434 332.038 223.132 331.976H222.985C222.843 332.059 222.722 332.174 222.63 332.311C222.118 333.067 221.744 333.907 221.526 334.794C220.923 337.04 220.533 339.337 220.361 341.656C220.113 344.334 219.999 347.246 219.999 350.064C219.999 353.411 220.153 356.611 220.401 359.108C220.528 360.354 220.675 361.425 220.829 362.215C220.91 362.61 220.99 362.938 221.057 363.172C221.083 363.261 221.114 363.348 221.151 363.433V363.487L220.943 363.6L221.144 363.48L220.936 363.594L221.137 363.473C221.352 363.821 221.76 364.444 222.302 365.247C224.203 368.059 227.771 373.14 231.246 377.706C232.98 379.988 234.694 382.144 236.14 383.811C236.869 384.648 237.532 385.357 238.081 385.893C238.355 386.161 238.596 386.382 238.804 386.562C238.944 386.679 239.092 386.786 239.246 386.884C239.481 387.006 239.722 387.116 239.969 387.212C240.598 387.466 241.522 387.781 242.647 388.122C246.509 389.314 252.615 390.8 258.044 392.038C260.722 392.641 263.299 393.17 265.301 393.545C266.305 393.732 267.168 393.879 267.851 393.98C268.186 394.027 268.48 394.067 268.708 394.087C268.86 394.095 269.012 394.095 269.163 394.087C269.23 394.087 269.444 394.087 269.732 394.04C270.268 393.966 271.071 393.819 272.049 393.612C275.449 392.895 280.872 391.469 285.524 390.01C287.854 389.287 290.003 388.544 291.59 387.901C292.238 387.649 292.87 387.358 293.484 387.031C293.65 386.948 293.809 386.852 293.959 386.743L294.02 386.69L294.435 387.125L293.939 386.79C293.964 386.755 293.991 386.721 294.02 386.69L294.435 387.125L293.939 386.79C294.006 386.703 294.14 386.482 294.321 386.188C294.99 385.063 296.329 382.78 297.869 379.995C300.219 375.811 303.164 370.462 305.514 366.004C306.686 363.781 307.71 361.773 308.433 360.267C308.794 359.517 309.102 358.888 309.256 358.439C309.35 358.211 309.41 358.037 309.444 357.937V357.877L310.26 358.064H309.43C309.422 358.002 309.422 357.939 309.43 357.877L310.247 358.064H309.417C309.417 358.064 309.417 357.903 309.417 357.696C309.377 357.294 309.296 356.658 309.183 355.888C308.781 353.17 308.011 348.699 307.342 344.923C307.014 343.028 306.672 341.308 306.478 340.063C306.364 339.44 306.277 338.938 306.21 338.59L306.117 338.048L307.75 337.8L307.081 339.333L301.671 336.99L302.341 335.464L303.01 336.977C300.104 338.375 297.346 340.061 294.776 342.011C292.755 343.507 290.952 345.278 289.421 347.273C288.729 348.193 288.156 349.196 287.714 350.258C287.308 351.237 287.081 352.28 287.044 353.338L283.697 353.291V332.364H285.364L285.217 334.024L285.357 332.364Z" fill="#231F20"/>
<path d="M221.619 278.889C226.004 282.029 231.353 284.988 233.321 287.19C236.635 290.892 235.082 256.784 241.696 253.872C248.31 250.96 235.082 237.885 246.382 242.565C257.682 247.244 306.217 241.976 310.495 242.565C313.936 243.033 318.528 255.204 320.188 259.97C320.875 259.098 321.869 258.521 322.966 258.357C331.154 257.179 337.4 250.17 331.154 240.818C324.908 231.465 329.989 220.935 329.989 220.935C329.989 220.935 316.741 222.495 304.657 216.651C292.574 210.806 261.813 209.24 250.077 216.651C250.077 216.651 246.181 219.141 246.181 211.657C246.181 204.172 239.554 215.084 239.554 215.084C239.554 215.084 231.761 213.136 232.19 216.651C232.618 220.165 236.876 221.712 236.876 221.712C236.876 221.712 225.957 231.847 225.569 251.729C225.181 271.612 224.009 277.45 224.009 277.45C223.133 277.782 222.323 278.27 221.619 278.889Z" fill="#231F20"/>
<path d="M153.637 320.194C153.637 320.194 123.204 315.849 115.8 326.373C115.8 326.373 166.276 267.709 163.157 261.47C163.157 261.47 173.68 263.03 178.554 259.134C183.427 255.237 200.579 239.646 208.565 237.109C216.552 234.572 216.364 224.055 206.617 223.271C196.87 222.488 185.57 235.161 177.583 234.578C169.597 233.996 169.978 227.951 169.978 227.951C169.978 227.951 181.868 224.604 183.039 213.893C184.211 203.181 177.583 199.473 177.583 199.473C177.583 199.473 192.003 192.845 201.355 197.719C210.707 202.592 219.678 198.301 220.066 192.256C220.454 186.211 211.102 180.373 195.511 180.568C179.92 180.762 165.5 188.554 162.38 190.308C159.261 192.062 155.947 192.256 153.008 194.994C150.069 197.732 143.073 197.92 139.954 202.592C136.834 207.265 128.064 210.003 126.699 213.899C125.333 217.795 125.527 228.513 116.952 237.089C108.376 245.664 58.0941 304.917 59.4597 327.912C60.8254 350.908 72.775 373.435 141.54 382.345L153.637 320.194Z" fill="white"/>
<path d="M153.637 320.194L153.403 321.847C148.934 321.274 144.433 320.984 139.927 320.977C135.372 320.914 130.825 321.363 126.371 322.316C124.439 322.749 122.57 323.424 120.808 324.324C119.381 325.037 118.141 326.073 117.186 327.35L115.847 326.393L114.582 325.308L115.111 324.686C117.715 321.646 129.443 307.869 140.509 293.824C146.039 286.808 151.401 279.712 155.358 273.888C157.05 271.445 158.614 268.916 160.044 266.31C160.514 265.445 160.928 264.551 161.282 263.632C161.399 263.331 161.495 263.023 161.57 262.708C161.616 262.536 161.643 262.358 161.65 262.18V262.113L162.066 262.046L161.697 262.233C161.664 262.16 161.657 262.119 161.65 262.113L162.066 262.046L161.697 262.233L160.245 259.361L163.431 259.83C164.947 260.026 166.475 260.122 168.003 260.118C169.753 260.135 171.501 259.976 173.218 259.642C174.044 259.477 174.853 259.237 175.635 258.926C176.318 258.654 176.96 258.289 177.543 257.842C178.715 256.898 180.703 255.164 183.126 253.155C186.761 250.069 191.38 246.207 195.846 242.846C198.095 241.172 200.311 239.619 202.373 238.347C204.155 237.195 206.064 236.254 208.063 235.542C209.42 235.148 210.622 234.344 211.504 233.24C212.203 232.346 212.588 231.247 212.602 230.113C212.603 229.5 212.481 228.894 212.243 228.329C212.005 227.764 211.656 227.253 211.216 226.826C210.675 226.309 210.041 225.898 209.348 225.615C208.438 225.239 207.473 225.013 206.49 224.945C206.249 224.945 206.001 224.912 205.747 224.912C203.496 225.012 201.289 225.567 199.26 226.545C195.799 228.065 192.17 230.421 188.636 232.456C186.943 233.458 185.182 234.342 183.367 235.101C181.712 235.818 179.936 236.216 178.132 236.272C177.911 236.272 177.69 236.272 177.463 236.272C175.747 236.176 174.07 235.72 172.542 234.933C171.659 234.472 170.869 233.85 170.213 233.099C169.456 232.226 168.905 231.194 168.599 230.08C168.417 229.426 168.322 228.75 168.318 228.071C168.313 227.993 168.313 227.915 168.318 227.837L168.385 226.652L169.53 226.331L169.764 227.174L169.53 226.331L169.764 227.174L169.53 226.331L169.65 226.297C171.83 225.575 173.88 224.509 175.722 223.138C177.147 222.081 178.381 220.788 179.371 219.315C180.482 217.641 181.171 215.723 181.379 213.725C181.462 212.965 181.505 212.201 181.506 211.436C181.528 209.719 181.263 208.011 180.723 206.381C180.194 204.78 179.316 203.317 178.152 202.097C177.83 201.759 177.478 201.45 177.101 201.173C176.974 201.073 176.88 201.012 176.82 200.972L176.76 200.939L177.235 200.122L176.773 200.946L177.249 200.129L176.787 200.952L173.921 199.352L176.907 197.98C178.547 197.264 180.228 196.647 181.941 196.132C185.557 194.982 189.321 194.36 193.114 194.285C196.242 194.218 199.34 194.907 202.145 196.293C204.423 197.52 206.963 198.179 209.549 198.214C211.819 198.267 214.048 197.607 215.922 196.326C216.642 195.815 217.253 195.164 217.716 194.412C218.128 193.744 218.372 192.986 218.426 192.203C218.426 192.116 218.426 192.029 218.426 191.948C218.421 191.416 218.319 190.89 218.125 190.395C217.644 189.279 216.897 188.298 215.949 187.537C213.729 185.779 211.163 184.51 208.418 183.814C204.463 182.744 200.378 182.228 196.281 182.281H195.544C188.02 182.368 180.683 184.29 174.859 186.465C170.843 187.946 166.948 189.736 163.21 191.821C161.61 192.64 159.95 193.333 158.243 193.896C157.509 194.17 156.796 194.494 156.107 194.867C155.407 195.251 154.757 195.721 154.173 196.266C153.185 197.129 152.052 197.809 150.826 198.274C149.031 199.038 147.097 199.613 145.39 200.43C144.572 200.797 143.794 201.245 143.067 201.769C142.394 202.266 141.81 202.872 141.34 203.563C140.356 204.952 139.148 206.167 137.765 207.158C135.723 208.711 133.44 210.016 131.606 211.268C130.797 211.8 130.033 212.398 129.323 213.056C129.075 213.297 128.851 213.562 128.654 213.846C128.504 214.051 128.385 214.276 128.299 214.515C128.133 215.024 128.001 215.542 127.904 216.068C127.663 217.206 127.428 218.686 127.087 220.366C126.531 223.332 125.658 226.229 124.483 229.009C122.985 232.489 120.84 235.653 118.163 238.334C117.152 239.345 115.486 241.166 113.33 243.582C101.961 256.549 91.3268 270.142 81.4778 284.298C75.8678 292.465 70.7667 300.74 67.0379 308.197C65.3275 311.561 63.8686 315.048 62.6731 318.627C61.7333 321.32 61.2052 324.138 61.1066 326.989C61.1066 327.276 61.1066 327.558 61.1066 327.839C61.3405 333.471 62.5712 339.017 64.7417 344.22C66.5838 348.451 69.1864 352.308 72.4202 355.601C77.6887 361.036 85.374 366.071 96.5938 370.375C107.814 374.68 122.528 378.241 141.775 380.732L141.56 382.385L139.927 382.064L151.977 319.892L153.617 320.214L153.383 321.867L153.617 320.214L155.251 320.535L142.873 384.239L141.319 384.039C124.048 381.803 110.297 378.683 99.3453 374.934C92.2327 372.593 85.4375 369.379 79.1147 365.368C71.0813 360.086 65.8731 354.074 62.6597 347.708C59.4464 341.341 58.1811 334.66 57.7928 328.053C57.7928 327.712 57.7928 327.383 57.7928 327.015C57.7928 323.775 58.6163 320.133 60.0154 316.164C62.4589 309.221 66.7099 301.262 71.7976 293.048C79.4427 280.743 89.0224 267.89 97.4039 257.406C101.561 252.111 105.471 247.492 108.657 243.797C110.257 241.956 111.676 240.349 112.881 239.024C114.086 237.698 115.064 236.66 115.787 235.931C117.657 234.078 119.236 231.955 120.473 229.631C121.974 226.707 123.056 223.586 123.686 220.359C123.988 218.947 124.215 217.635 124.429 216.47C124.599 215.42 124.845 214.384 125.166 213.37C125.425 212.668 125.803 212.016 126.284 211.442C127.166 210.444 128.174 209.564 129.283 208.825C130.977 207.633 132.905 206.509 134.638 205.324C135.455 204.777 136.236 204.177 136.975 203.53C137.602 202.987 138.16 202.368 138.635 201.689C139.536 200.369 140.709 199.257 142.076 198.428C143.923 197.364 145.875 196.492 147.9 195.824C148.804 195.49 149.634 195.155 150.323 194.827C150.909 194.565 151.453 194.218 151.937 193.796C152.719 193.068 153.586 192.439 154.521 191.921C155.736 191.281 157.001 190.739 158.303 190.301C159.444 189.919 160.553 189.444 161.617 188.882C165.506 186.712 169.56 184.849 173.741 183.312C179.806 181.083 187.478 179.028 195.544 178.927H196.321C203.939 178.927 210.132 180.333 214.55 182.596C216.562 183.572 218.349 184.956 219.798 186.66C220.415 187.416 220.912 188.262 221.271 189.17C221.619 190.048 221.799 190.984 221.8 191.928C221.8 192.089 221.8 192.243 221.8 192.403C221.708 193.718 221.304 194.992 220.622 196.119C219.543 197.838 217.993 199.211 216.157 200.075C214.111 201.058 211.866 201.558 209.596 201.535C206.449 201.509 203.356 200.717 200.585 199.225C198.252 198.101 195.683 197.552 193.094 197.625C189.632 197.702 186.198 198.274 182.899 199.325C181.493 199.754 180.328 200.182 179.518 200.504C179.11 200.658 178.795 200.792 178.581 200.885L178.346 200.986H178.293L178.139 200.651L178.3 200.986L178.146 200.651L178.306 200.986L177.637 199.473L178.447 198.013C179.758 198.824 180.896 199.887 181.794 201.14C182.721 202.406 183.45 203.805 183.956 205.29C184.613 207.267 184.939 209.339 184.92 211.422C184.917 212.317 184.866 213.211 184.766 214.1C184.466 216.802 183.477 219.381 181.894 221.591C179.983 224.2 177.492 226.329 174.618 227.81C173.29 228.528 171.896 229.113 170.454 229.558L170.005 227.951L171.672 228.051L170.628 227.984L171.672 228.031L170.628 227.964L171.672 228.011V228.065C171.678 228.381 171.718 228.695 171.793 229.002C171.883 229.39 172.025 229.763 172.214 230.113C172.592 230.815 173.155 231.401 173.841 231.807C175.032 232.475 176.366 232.847 177.731 232.891C177.871 232.891 178.012 232.891 178.159 232.891C179.023 232.872 179.879 232.73 180.703 232.47C182.601 231.84 184.428 231.012 186.152 229.999C189.104 228.353 192.291 226.277 195.578 224.584C197.187 223.728 198.864 223.007 200.592 222.428C202.262 221.86 204.01 221.558 205.774 221.531C206.115 221.531 206.443 221.531 206.784 221.571C208.122 221.663 209.435 221.97 210.674 222.482C212.274 223.124 213.65 224.223 214.63 225.641C215.506 226.946 215.972 228.482 215.969 230.053C215.957 231.921 215.329 233.733 214.182 235.208C212.885 236.88 211.1 238.109 209.074 238.722C208.008 239.073 206.978 239.521 205.994 240.061C203.55 241.446 201.195 242.984 198.945 244.667C195.143 247.445 191.113 250.732 187.645 253.644C185.911 255.104 184.298 256.463 182.959 257.627C181.62 258.792 180.455 259.743 179.612 260.412C178.78 261.058 177.863 261.585 176.887 261.979C175.43 262.551 173.908 262.94 172.355 263.137C170.908 263.331 169.45 263.425 167.99 263.418C166.298 263.422 164.607 263.315 162.929 263.097L163.15 261.483L164.643 260.734C164.86 261.187 164.968 261.684 164.958 262.186C164.95 262.649 164.89 263.11 164.777 263.559C164.505 264.563 164.135 265.538 163.672 266.471C162.433 268.934 161.04 271.318 159.502 273.607C156.382 278.373 152.178 284.111 147.619 290.042C133.949 307.842 117.065 327.464 117.059 327.471L114.428 325.462C115.686 323.769 117.323 322.393 119.208 321.446C122.313 319.883 125.657 318.849 129.102 318.386C132.68 317.872 136.292 317.626 139.907 317.65C144.576 317.658 149.24 317.96 153.872 318.554L155.605 318.808L155.271 320.528L153.637 320.194Z" fill="#231F20"/>
<path d="M160.968 189.552C165.007 190.524 168.906 192.009 172.569 193.97C175.677 195.591 178.46 197.772 180.776 200.403C181.966 201.792 182.933 203.357 183.642 205.042C184.386 206.845 184.788 208.77 184.827 210.719C184.827 210.9 184.827 211.081 184.827 211.268C184.894 214.559 184.115 217.811 182.564 220.714C181.615 222.426 180.376 223.959 178.902 225.246C177.193 226.729 175.241 227.907 173.131 228.727C172.206 229.1 171.25 229.389 170.273 229.591L169.684 226.311L169.764 226.773L169.677 226.311L169.757 226.773L169.67 226.311C170.336 226.168 170.99 225.974 171.625 225.728C174.001 224.865 176.137 223.45 177.858 221.598C178.96 220.376 179.829 218.962 180.422 217.427C181.16 215.459 181.523 213.37 181.493 211.268C181.493 211.114 181.493 210.954 181.493 210.793C181.466 209.255 181.15 207.736 180.562 206.314C179.492 203.901 177.854 201.781 175.789 200.135C172.738 197.711 169.313 195.8 165.647 194.479C164.087 193.89 162.728 193.468 161.764 193.2L160.64 192.899L160.352 192.832H160.278L160.981 189.572L160.968 189.552Z" fill="#231F20"/>
<path d="M150.913 195.014C154.662 196.305 158.241 198.047 161.57 200.202C164.418 201.997 166.941 204.261 169.034 206.897C170.1 208.281 170.959 209.812 171.585 211.442C172.239 213.152 172.574 214.967 172.576 216.798C172.575 217.317 172.548 217.835 172.495 218.351C172.239 221.585 170.975 224.657 168.88 227.134C167.519 228.688 165.88 229.975 164.047 230.93C161.672 232.149 159.119 232.983 156.482 233.4C154.912 233.667 153.322 233.808 151.729 233.822H151.381L151.488 230.475V230.783V230.475V230.783V230.475H151.729C152.917 230.463 154.102 230.371 155.277 230.2C156.718 229.997 158.138 229.67 159.522 229.223C161.869 228.507 164.015 227.251 165.788 225.554C166.703 224.639 167.453 223.572 168.003 222.401C168.645 221.016 169.044 219.53 169.182 218.01C169.222 217.601 169.242 217.193 169.242 216.798C169.241 215.365 168.978 213.945 168.465 212.607C167.506 210.25 166.033 208.137 164.154 206.422C161.382 203.898 158.245 201.808 154.849 200.222C153.416 199.553 152.171 199.004 151.274 198.663C150.832 198.489 150.484 198.361 150.243 198.281L149.975 198.187H149.908L150.926 195.014H150.913Z" fill="#231F20"/>
<path d="M138.95 202.74C142.079 203.703 145.077 205.053 147.873 206.756C150.266 208.187 152.391 210.024 154.153 212.185C155.059 213.337 155.79 214.616 156.322 215.981C156.875 217.43 157.159 218.969 157.158 220.52C157.119 222.912 156.535 225.263 155.451 227.395C154.261 230.016 152.336 232.235 149.908 233.782C147.864 235.019 145.516 235.663 143.127 235.643C140.871 235.639 138.646 235.122 136.62 234.13C135.719 233.693 134.876 233.146 134.11 232.503C133.396 231.919 132.793 231.211 132.329 230.414C131.799 229.427 131.529 228.321 131.546 227.201C131.548 226.293 131.688 225.39 131.961 224.523C132.35 223.21 133.056 222.012 134.016 221.036C134.511 220.535 135.091 220.127 135.73 219.831C136.41 219.518 137.15 219.356 137.899 219.355C139.003 219.373 140.082 219.693 141.018 220.279C142.158 220.991 143.164 221.897 143.991 222.957L141.4 225.059C140.82 224.301 140.113 223.648 139.311 223.131C138.889 222.856 138.402 222.699 137.899 222.676C137.53 222.681 137.17 222.79 136.861 222.99C136.246 223.414 135.762 224 135.462 224.684C135.089 225.46 134.89 226.307 134.879 227.168C134.861 227.714 134.984 228.255 135.234 228.741C135.503 229.195 135.853 229.596 136.265 229.926C137.146 230.649 138.148 231.211 139.224 231.586C140.478 232.029 141.797 232.255 143.127 232.255C144.902 232.275 146.648 231.8 148.168 230.883C150.051 229.672 151.538 227.936 152.446 225.889C153.314 224.211 153.786 222.356 153.825 220.467C153.823 219.322 153.612 218.188 153.202 217.119C152.432 215.247 151.238 213.579 149.714 212.246C147.445 210.252 144.876 208.628 142.103 207.432C140.924 206.904 139.894 206.515 139.164 206.254C138.802 206.127 138.494 206.033 138.314 205.973L138.099 205.906H138.046L138.963 202.699L138.95 202.74Z" fill="#231F20"/>
<path d="M318.388 263.492L318.448 263.358L318.388 263.492L318.448 263.358L318.388 263.492C315.982 262.606 313.439 262.153 310.876 262.153C308.492 262.123 306.131 262.619 303.961 263.605C301.267 264.889 298.998 266.917 297.42 269.45C295.207 272.909 293.635 276.739 292.781 280.757C292.046 284.101 291.678 287.515 291.683 290.939C291.683 292.84 291.79 294.42 291.898 295.511C291.951 296.06 292.005 296.489 292.045 296.77C292.045 296.917 292.078 297.024 292.085 297.091V297.165L288.798 297.727C288.469 295.48 288.314 293.21 288.336 290.939C288.325 287.268 288.715 283.606 289.501 280.02C290.443 275.61 292.173 271.405 294.609 267.609C296.529 264.559 299.275 262.117 302.528 260.566C305.148 259.374 307.998 258.773 310.876 258.806C313.885 258.807 316.869 259.358 319.68 260.432L318.388 263.492Z" fill="#231F20"/>
<path d="M271.52 263.666L272.457 263.311L271.52 263.679L272.457 263.324L271.52 263.692C270.672 261.935 269.408 260.412 267.838 259.254C266.138 257.946 264.224 256.942 262.181 256.288C259.151 255.331 255.986 254.868 252.809 254.916C250.625 254.926 248.444 255.085 246.282 255.391L245.826 252.084C248.14 251.761 250.473 251.594 252.809 251.582C256.445 251.527 260.065 252.079 263.52 253.216C266.878 254.305 269.894 256.253 272.269 258.866C273.254 259.933 274.051 261.16 274.626 262.494L271.506 263.666H271.52Z" fill="#231F20"/>
<path d="M286.997 306.155C286.187 306.633 285.336 307.036 284.453 307.36C282.495 308.118 280.415 308.515 278.315 308.532C276.446 308.539 274.594 308.177 272.865 307.468C270.764 306.582 268.883 305.245 267.356 303.551L269.799 301.282C271.001 302.622 272.482 303.682 274.137 304.388C275.462 304.931 276.882 305.207 278.315 305.198C280.012 305.177 281.692 304.853 283.275 304.241C283.781 304.047 284.275 303.823 284.755 303.571L285.136 303.371L285.223 303.317L285.786 304.227L285.223 303.317L285.786 304.227L285.223 303.317L286.997 306.155Z" fill="#231F20"/>
<path d="M290.05 289.379L290.257 287.719C291.512 287.882 292.775 287.965 294.04 287.967C296.769 288.023 299.48 287.51 301.999 286.46C303.524 285.811 304.925 284.905 306.143 283.783C307.497 282.519 308.603 281.014 309.404 279.344C309.643 278.841 309.853 278.325 310.033 277.798C310.093 277.617 310.133 277.476 310.153 277.389V277.289L310.722 277.423L310.147 277.296L310.716 277.43L310.14 277.302L311.767 277.671L310.89 279.083C308.127 277.249 304.906 276.226 301.591 276.131H301.451C299.267 276.131 297.112 276.623 295.144 277.57C294.552 277.853 293.981 278.18 293.437 278.547C293.243 278.675 293.103 278.782 293.016 278.849L292.922 278.922L292.252 278.112L292.922 278.922L292.252 278.112L292.922 278.922L291.837 277.657L293.417 278.193C293.3 278.553 293.201 278.92 293.123 279.291C292.942 280.121 292.754 281.185 292.58 282.31C292.326 284.003 292.098 285.824 291.911 287.217C291.831 287.886 291.764 288.502 291.724 288.917C291.724 289.125 291.683 289.285 291.67 289.399V289.567L290.01 289.406L290.217 287.746L290.01 289.406L288.35 289.239C288.35 289.239 288.577 286.949 288.919 284.325C289.093 282.986 289.293 281.607 289.514 280.308C289.621 279.679 289.735 279.076 289.856 278.541C289.958 278.05 290.088 277.565 290.244 277.088L290.391 276.653L290.733 276.358C291.645 275.627 292.644 275.009 293.705 274.517C296.122 273.355 298.769 272.751 301.451 272.75H301.611C305.556 272.839 309.397 274.038 312.691 276.211L313.695 276.84L313.434 277.992C313.021 279.57 312.367 281.074 311.492 282.45C310.638 283.834 309.602 285.097 308.413 286.206C306.92 287.589 305.201 288.708 303.332 289.513C300.392 290.749 297.228 291.36 294.04 291.307C292.636 291.303 291.234 291.212 289.842 291.033L288.229 290.832L288.39 289.212L290.05 289.379Z" fill="#231F20"/>
<path d="M241.354 275.214L242.968 274.805L242.265 274.979L242.968 274.799L242.265 274.973L242.968 274.792C243.12 275.309 243.311 275.815 243.537 276.305C244.378 278.19 245.635 279.86 247.212 281.192C248.258 282.057 249.444 282.737 250.72 283.2C252.336 283.773 254.04 284.056 255.754 284.037H256.27C259.684 283.854 263.038 283.058 266.171 281.687L266.8 283.234L265.22 283.769L265.642 283.629L265.22 283.776L265.642 283.635L265.22 283.783C264.66 282.299 263.932 280.884 263.051 279.565C262.272 278.359 261.35 277.251 260.306 276.265C259.187 275.198 257.876 274.35 256.444 273.768C255.167 273.255 253.803 272.994 252.427 272.998C250.878 273.014 249.342 273.286 247.882 273.801C245.905 274.498 244.024 275.443 242.285 276.613L241.375 275.214L242.988 274.805L241.375 275.214L240.464 273.821C244.949 270.889 248.933 269.664 252.427 269.664C254.234 269.66 256.025 270.003 257.702 270.675C259.547 271.422 261.232 272.512 262.67 273.888C264.421 275.581 265.894 277.54 267.034 279.692C267.556 280.661 268.003 281.668 268.373 282.705L268.882 284.198L267.429 284.793C263.925 286.312 260.177 287.19 256.363 287.384H255.754C252.99 287.426 250.257 286.799 247.788 285.557C246.318 284.793 244.982 283.796 243.831 282.604C242.512 281.23 241.428 279.646 240.625 277.918C240.261 277.17 239.965 276.39 239.741 275.589L239.467 274.471L240.464 273.801L241.354 275.214Z" fill="#231F20"/>
<path d="M227.149 287.096L226.446 287.257L227.115 287.083L226.412 287.244L227.082 287.069C227.398 288.067 227.887 289.001 228.528 289.828C230.116 291.884 232.296 293.405 234.774 294.186L233.696 297.339C231.907 296.743 230.227 295.858 228.722 294.721C227.125 293.508 225.798 291.976 224.826 290.223C224.397 289.476 224.067 288.677 223.842 287.846L227.089 287.083L227.149 287.096Z" fill="#231F20"/>
<path d="M319.264 275.414C320.012 275.533 320.75 275.703 321.474 275.923C324.167 276.702 326.651 278.074 328.744 279.94C330.089 281.173 331.174 282.661 331.937 284.318C332.839 286.309 333.296 288.472 333.276 290.658C333.269 292.097 333.119 293.532 332.827 294.942C332.466 296.879 331.818 298.752 330.906 300.499C330.011 302.339 328.607 303.885 326.861 304.953C325.114 306.021 323.098 306.566 321.052 306.524C319.422 306.507 317.804 306.245 316.252 305.747C315.549 305.529 314.862 305.26 314.197 304.944L315.69 301.965L315.475 302.4L315.69 301.965L315.469 302.4L315.683 301.965C316.223 302.208 316.777 302.419 317.343 302.594C318.541 302.973 319.789 303.174 321.045 303.19C321.888 303.194 322.727 303.075 323.536 302.835C324.891 302.413 326.087 301.589 326.963 300.472C328.309 298.658 329.196 296.544 329.547 294.313C329.799 293.122 329.93 291.909 329.935 290.691C329.995 288.501 329.406 286.342 328.242 284.485C327.513 283.363 326.585 282.383 325.504 281.593C324.124 280.588 322.591 279.81 320.965 279.291C320.295 279.083 319.76 278.942 319.378 278.862L318.95 278.775H318.849L318.983 277.858L318.856 278.775L318.99 277.858L318.863 278.775L319.325 275.475L319.264 275.414Z" fill="#231F20"/>
<path d="M326.976 290.939C326.97 291.252 326.923 291.562 326.836 291.863C326.534 292.878 325.979 293.799 325.222 294.541C323.918 295.801 322.35 296.755 320.63 297.332L319.465 294.206C320.402 293.884 321.29 293.433 322.103 292.867C322.702 292.467 323.188 291.921 323.515 291.28C323.572 291.164 323.613 291.04 323.636 290.912V290.879L324.412 290.959H323.636V290.879L324.412 290.959H326.97L326.976 290.939Z" fill="#231F20"/>
<path d="M300.928 283.401C301.268 285.009 301.853 286.556 302.662 287.987C304.859 287.046 306.819 285.629 308.4 283.838C309.982 282.047 311.145 279.926 311.807 277.63C308.786 275.628 305.261 274.516 301.638 274.424C300.64 276.318 299.971 279.197 300.928 283.401Z" fill="#231F20"/>
<path d="M255.359 282.671C255.594 283.711 255.914 284.73 256.317 285.717C259.931 285.527 263.481 284.69 266.8 283.247C266.8 283.247 263.968 274.973 257.06 272.194C255.627 273.935 254.101 277.175 255.359 282.671Z" fill="#231F20"/>
<path d="M143.596 319.631C143.596 319.631 128.372 376.949 133.045 379.881C137.718 382.813 178.065 388.651 178.065 388.651L174.531 476.054L332.399 473.128C332.399 473.128 340.292 396.537 342.046 393.029C343.8 389.521 371.568 405.889 375.371 405.012C379.173 404.135 409.573 346.248 409.573 346.248C409.573 346.248 374.761 321.479 343.967 318.801C313.173 316.123 299.335 335.752 299.335 335.752C299.335 335.752 305.461 373.368 270.823 377.465C236.186 381.562 230.349 354.851 228.782 353.298C227.216 351.745 228.187 332.813 228.187 332.813C228.187 332.813 212.22 320.147 197.6 321.131C182.979 322.115 143.596 319.631 143.596 319.631Z" fill="#2F3841"/>
<path d="M143.596 319.631L145.209 320.06C145.209 320.06 145.162 320.227 145.082 320.542C144.452 322.925 141.627 333.763 138.963 345.552C137.624 351.45 136.345 357.602 135.388 363.005C134.913 365.682 134.518 368.24 134.243 370.469C133.994 372.327 133.853 374.198 133.822 376.072C133.804 376.795 133.862 377.517 133.996 378.228C134.021 378.364 134.064 378.497 134.123 378.623L134.016 378.69L134.116 378.616L134.009 378.683L134.11 378.609L133.581 378.991L133.929 378.442C133.999 378.485 134.061 378.542 134.11 378.609L133.581 378.991L133.929 378.442C134.238 378.615 134.563 378.759 134.899 378.87C136.237 379.333 137.598 379.727 138.976 380.049C142.009 380.792 145.999 381.602 150.263 382.392C156.656 383.577 163.652 384.728 169.088 385.578C171.766 386 174.102 386.348 175.729 386.596L177.63 386.877L178.3 386.977L179.786 387.192L176.298 474.367L254.345 472.921L332.392 471.475L332.426 473.142L330.766 472.968C330.766 472.968 332.774 453.815 334.929 434.22C336.027 424.419 337.179 414.512 338.17 406.82C338.665 402.977 339.12 399.684 339.508 397.227C339.703 396.002 339.877 394.977 340.037 394.181C340.124 393.786 340.198 393.444 340.278 393.143C340.318 392.996 340.359 392.862 340.406 392.721C340.454 392.575 340.512 392.432 340.58 392.293C340.721 392.012 340.917 391.762 341.155 391.556C341.471 391.289 341.845 391.099 342.246 391.001C342.581 390.916 342.925 390.875 343.271 390.88C343.79 390.888 344.308 390.944 344.817 391.048C345.969 391.299 347.101 391.632 348.205 392.045C350.4 392.828 352.971 393.933 355.676 395.158C359.692 396.992 364.064 399.088 367.726 400.714C369.54 401.524 371.18 402.221 372.499 402.723C373.168 402.957 373.724 403.145 374.179 403.258C374.469 403.342 374.768 403.396 375.069 403.419L375.13 403.894L375.022 403.426H375.069L375.13 403.901L375.022 403.432L375.23 404.336L374.768 403.526C374.849 403.485 374.934 403.453 375.022 403.432L375.23 404.336L374.768 403.526L374.929 403.807L374.755 403.533L374.915 403.814L374.741 403.539C374.844 403.465 374.938 403.38 375.022 403.285C375.472 402.806 375.888 402.296 376.268 401.759C377.232 400.46 378.47 398.579 379.883 396.316C384.83 388.37 391.933 375.65 397.717 364.946C400.629 359.59 403.226 354.737 405.081 351.222C406.011 349.462 406.768 348.036 407.29 347.058C407.544 346.563 407.752 346.181 407.886 345.92L408.093 345.532L409.566 346.302L408.602 347.641C401.676 342.896 394.459 338.592 386.992 334.754C380.316 331.279 373.414 328.258 366.333 325.71C358.956 323.072 351.264 321.064 343.9 320.435C341.952 320.261 340.077 320.18 338.27 320.18C332.555 320.144 326.871 321.023 321.433 322.784C315.684 324.659 310.354 327.635 305.742 331.547C304.395 332.689 303.132 333.923 301.959 335.243C301.551 335.705 301.243 336.08 301.049 336.327L300.835 336.608L300.788 336.675L299.449 335.711L301.096 335.444C301.405 337.661 301.553 339.899 301.538 342.138C301.548 345.509 301.227 348.872 300.58 352.18C300.012 355.13 299.114 358.006 297.902 360.755C295.871 365.387 292.703 369.431 288.691 372.511C284.34 375.811 278.589 378.214 271.145 379.091C268.772 379.375 266.385 379.52 263.995 379.527C256.631 379.527 250.72 378.027 245.974 375.724C242.727 374.148 239.762 372.049 237.197 369.512C234.247 366.556 231.803 363.137 229.961 359.39C229.217 357.917 228.675 356.638 228.267 355.701C228.066 355.239 227.899 354.857 227.778 354.603C227.718 354.483 227.671 354.389 227.644 354.349L228.314 353.907L227.765 354.463C227.728 354.428 227.694 354.39 227.664 354.349L228.334 353.907L227.785 354.463C227.631 354.304 227.498 354.127 227.39 353.934C227.237 353.652 227.117 353.353 227.035 353.043C226.884 352.477 226.777 351.899 226.714 351.316C226.593 350.345 226.52 349.207 226.473 347.969C226.426 346.73 226.406 345.365 226.406 343.992C226.406 338.51 226.7 332.732 226.7 332.719L228.367 332.806L227.33 334.145C224.403 331.925 221.297 329.953 218.044 328.247C215.187 326.711 212.201 325.427 209.121 324.411C205.954 323.343 202.641 322.772 199.3 322.717C198.785 322.717 198.276 322.717 197.767 322.764C195.263 322.932 192.11 322.999 188.562 322.999C179.719 322.999 168.479 322.577 159.408 322.148C150.337 321.72 143.495 321.298 143.495 321.298L143.596 319.631L143.696 317.964L144.908 318.038C150.37 318.366 173.259 319.665 188.562 319.665C192.063 319.665 195.17 319.598 197.546 319.437C198.135 319.397 198.724 319.377 199.307 319.377C203.053 319.442 206.766 320.09 210.312 321.298C215.007 322.889 219.5 325.021 223.701 327.651C225.63 328.828 227.495 330.103 229.291 331.474L229.961 332.009L229.92 332.866C229.92 332.866 229.92 332.953 229.92 333.121C229.867 334.285 229.639 339.273 229.639 343.972C229.639 346.155 229.693 348.27 229.82 349.877C229.861 350.522 229.941 351.163 230.061 351.798C230.091 351.953 230.134 352.105 230.188 352.253L229.519 352.601L230.068 352.053C230.126 352.114 230.177 352.181 230.222 352.253L229.552 352.601L230.101 352.053C230.249 352.207 230.381 352.375 230.496 352.555C230.665 352.847 230.817 353.149 230.951 353.458C231.233 354.074 231.561 354.864 231.976 355.801C234.013 360.615 237.082 364.922 240.966 368.42C243.698 370.783 246.835 372.631 250.225 373.876C254.646 375.454 259.314 376.227 264.008 376.159C266.268 376.152 268.526 376.014 270.77 375.744C276.942 375.014 281.682 373.2 285.357 370.763C287.944 369.049 290.196 366.878 292.005 364.357C294.432 360.872 296.149 356.944 297.059 352.796C297.847 349.294 298.238 345.714 298.224 342.125C298.224 340.25 298.123 338.697 298.023 337.613C297.976 337.077 297.923 336.655 297.889 336.367C297.889 336.227 297.889 336.12 297.842 336.053V335.966L297.735 335.296L298.123 334.741C298.21 334.627 301.357 330.168 307.951 325.71C311.82 323.104 316.03 321.045 320.463 319.591C326.237 317.719 332.274 316.783 338.344 316.82C340.252 316.82 342.226 316.9 344.268 317.081C352.161 317.75 360.228 319.879 367.92 322.617C378.321 326.44 388.359 331.19 397.911 336.809C405.703 341.335 410.63 344.843 410.67 344.843L411.855 345.686L411.186 346.971C411.186 346.971 403.481 361.512 395.38 376.112C391.364 383.409 387.173 390.74 383.772 396.33C382.065 399.121 380.552 401.478 379.314 403.205C378.796 403.945 378.237 404.656 377.64 405.334C377.402 405.598 377.145 405.844 376.87 406.07C376.728 406.183 376.578 406.286 376.422 406.378C376.213 406.498 375.987 406.586 375.752 406.639C375.515 406.691 375.272 406.716 375.029 406.713C374.56 406.704 374.093 406.644 373.637 406.532C372.591 406.269 371.565 405.936 370.564 405.534C368.556 404.751 366.072 403.647 363.434 402.428C359.471 400.601 355.113 398.505 351.351 396.885C349.476 396.075 347.743 395.386 346.317 394.877C345.607 394.643 344.978 394.455 344.436 394.335C344.047 394.238 343.65 394.182 343.251 394.167H343.063L343.003 393.893L343.11 394.154H343.063L343.003 393.879L343.11 394.14L342.822 393.471L343.311 394.04C343.251 394.094 343.183 394.139 343.11 394.174L342.822 393.505L343.311 394.074L342.688 393.351L343.545 393.779C343.486 393.891 343.406 393.99 343.311 394.074L342.688 393.351L343.545 393.779L343.157 393.585L343.559 393.746V393.779L343.17 393.585L343.572 393.746C343.572 393.746 343.512 393.926 343.451 394.161C343.338 394.629 343.184 395.386 343.023 396.356C342.394 400.005 341.517 406.679 340.559 414.585C339.12 426.455 337.5 441.135 336.235 452.851C335.606 458.708 335.063 463.823 334.682 467.471C334.494 469.292 334.34 470.752 334.233 471.756C334.126 472.76 334.073 473.302 334.073 473.302L333.925 474.775L172.817 477.761L176.392 388.584L178.059 388.644L177.824 390.298C177.824 390.298 167.722 388.832 157.025 387.004C151.669 386.087 146.18 385.076 141.694 384.112C139.452 383.624 137.47 383.155 135.863 382.7C135.06 382.472 134.351 382.244 133.741 382.03C133.189 381.841 132.658 381.596 132.155 381.301C131.93 381.161 131.729 380.987 131.559 380.785C131.301 380.479 131.099 380.13 130.963 379.754C130.767 379.212 130.639 378.647 130.582 378.074C130.507 377.407 130.474 376.736 130.481 376.065C130.518 373.9 130.686 371.738 130.983 369.592C131.546 365.22 132.51 359.905 133.661 354.369C137.062 337.773 141.996 319.216 141.996 319.196L142.35 317.857L143.689 317.938L143.596 319.631Z" fill="#1A1A1A"/>
<path d="M409.599 346.248C409.599 346.248 463.684 377.043 467.386 387.372C471.088 397.702 472.259 418.749 459.004 430.25C445.749 441.751 367.799 498.467 353.567 500.803C339.334 503.139 319.659 498.855 303.479 492.422C287.298 485.988 275.302 486.771 270.877 492.81C266.452 498.848 266.258 507.431 256.149 502.751C246.041 498.072 267.65 471.568 293.765 474.688C290.38 471.833 286.397 469.773 282.111 468.66C277.824 467.547 273.343 467.408 268.996 468.255C254.188 471.18 254.77 478.196 245.612 477.024C236.454 475.853 248.431 454.685 270.89 454.029C289.976 453.467 296.088 462.41 296.088 462.41C296.088 462.41 282.445 444.282 245.612 461.821C239.587 458.708 247.366 442.722 268.996 439.997C290.626 437.273 294.917 449.37 294.917 449.37C294.917 449.37 292.346 437.52 260.42 439.234C226.754 441.048 248.538 423.255 264.517 423.643C280.497 424.031 316.359 455.221 326.689 455.609C337.018 455.997 407.557 401.397 407.557 401.397C407.557 401.397 394.108 415.241 386.898 412.108C379.688 408.975 376.241 404.363 376.241 404.363L409.599 346.248Z" fill="white"/>
<path d="M409.599 346.248L410.429 344.802C410.429 344.802 423.979 352.521 438.011 361.539C445.026 366.051 452.163 370.911 457.819 375.275C460.342 377.191 462.748 379.257 465.023 381.461C465.895 382.321 466.709 383.238 467.459 384.206C468.086 384.994 468.592 385.872 468.959 386.81C470.695 391.987 471.564 397.416 471.53 402.877C471.577 408.041 470.751 413.177 469.086 418.066C467.312 423.256 464.216 427.894 460.102 431.522C458.395 433.002 455.717 435.151 452.276 437.822C440.226 447.147 418.918 462.718 399.022 476.241C389.067 483.003 379.474 489.248 371.575 493.948C367.618 496.304 364.077 498.266 361.105 499.725C359.619 500.455 358.266 501.064 357.088 501.519C356.051 501.939 354.974 502.255 353.875 502.463C350.952 502.923 347.997 503.147 345.038 503.133C337.942 503.035 330.878 502.167 323.971 500.542C316.788 498.903 309.743 496.715 302.897 493.995C295.339 490.982 288.751 489.61 283.596 489.617C281.174 489.56 278.762 489.948 276.48 490.761C274.805 491.35 273.338 492.413 272.256 493.821C271.455 494.954 270.745 496.149 270.134 497.396C269.652 498.339 269.183 499.297 268.675 500.221C267.973 501.64 267.029 502.924 265.883 504.016C265.265 504.566 264.556 505.004 263.788 505.308C262.95 505.628 262.06 505.789 261.163 505.784C259.177 505.696 257.232 505.185 255.46 504.284C254.354 503.803 253.42 502.998 252.782 501.975C252.198 500.974 251.899 499.833 251.918 498.674C251.953 497.294 252.241 495.933 252.769 494.658C253.926 491.943 255.548 489.451 257.562 487.294C261.344 483.154 265.87 479.762 270.904 477.292C276.664 474.389 283.017 472.852 289.467 472.8C290.964 472.798 292.46 472.885 293.946 473.061L293.752 474.721L292.607 475.933L292.908 475.612L292.607 475.933L292.908 475.612L292.607 475.933C291.097 474.634 289.436 473.521 287.66 472.619C283.672 470.517 279.235 469.41 274.726 469.393C272.913 469.395 271.104 469.572 269.324 469.922C266.658 470.415 264.06 471.224 261.585 472.332C258.633 473.67 256.792 475.177 254.81 476.482C253.81 477.164 252.734 477.728 251.604 478.162C250.298 478.628 248.919 478.854 247.533 478.832C246.821 478.83 246.11 478.781 245.405 478.685C244.747 478.609 244.106 478.423 243.51 478.136C242.656 477.715 241.954 477.039 241.502 476.201C241.071 475.375 240.855 474.454 240.872 473.523C240.895 472.439 241.099 471.367 241.475 470.35C242.296 468.197 243.483 466.201 244.983 464.452C247.83 461.069 251.329 458.293 255.272 456.292C260.099 453.831 265.414 452.479 270.83 452.335C271.426 452.335 272.008 452.335 272.584 452.335C281.715 452.335 287.908 454.511 291.817 456.76C295.727 459.01 297.34 461.306 297.454 461.446L294.776 463.388L295.446 462.866L294.776 463.394L295.446 462.872L294.776 463.401L294.709 463.321C293.216 461.677 291.438 460.316 289.461 459.304C286.207 457.537 281.381 455.87 274.592 455.863C267.476 455.863 258.178 457.711 246.342 463.348L245.592 463.702L244.862 463.328C243.909 462.84 243.134 462.065 242.647 461.112C242.187 460.177 241.958 459.147 241.977 458.106C242.058 456.026 242.689 454.005 243.805 452.248C246.043 448.711 249.111 445.774 252.742 443.693C257.663 440.801 263.137 438.976 268.808 438.337C270.888 438.066 272.984 437.928 275.081 437.922C278.66 437.877 282.221 438.429 285.618 439.556C288.933 440.638 291.9 442.583 294.214 445.192C295.171 446.257 295.937 447.481 296.477 448.807L294.903 449.363L293.277 449.718L294.133 449.53L293.283 449.751V449.718L294.14 449.53L293.29 449.751C293.094 449.193 292.804 448.672 292.433 448.211C291.489 446.96 289.568 445.125 285.585 443.566C281.602 442.006 275.543 440.747 266.499 440.747C264.638 440.747 262.643 440.803 260.514 440.915C258.854 441.002 257.327 441.048 255.915 441.048C253.796 441.064 251.678 440.939 249.575 440.674C248.385 440.524 247.21 440.275 246.061 439.93C244.72 439.569 243.482 438.9 242.446 437.976C242.004 437.552 241.647 437.047 241.395 436.489C241.154 435.946 241.03 435.357 241.033 434.762C241.052 433.848 241.298 432.953 241.749 432.158C242.15 431.429 242.643 430.754 243.216 430.15C244.363 428.956 245.659 427.915 247.072 427.05C249.546 425.517 252.205 424.305 254.984 423.442C257.897 422.502 260.935 422.003 263.995 421.963H264.557C267.078 422.104 269.561 422.633 271.921 423.529C276.527 425.149 281.695 427.86 287.058 431.013C295.091 435.7 303.533 441.47 310.776 446.029C314.398 448.305 317.725 450.293 320.51 451.699C321.714 452.321 322.954 452.869 324.225 453.339C325.038 453.656 325.893 453.855 326.762 453.929H326.816C327.085 453.921 327.352 453.883 327.612 453.815C328.601 453.558 329.564 453.213 330.491 452.784C333.385 451.438 336.199 449.927 338.919 448.258C344.75 444.777 351.907 440.017 359.344 434.869C370.504 427.111 382.306 418.421 391.317 411.673C395.822 408.326 399.625 405.407 402.309 403.365L405.429 400.975L406.252 400.306L406.533 400.085L408.749 402.569C406.696 404.625 404.511 406.546 402.209 408.319C400.268 409.842 398.193 411.187 396.01 412.336C394.934 412.888 393.815 413.35 392.662 413.715C391.562 414.064 390.416 414.249 389.262 414.264C388.223 414.276 387.193 414.073 386.236 413.668C383.153 412.348 380.296 410.554 377.767 408.353C376.72 407.46 375.76 406.469 374.902 405.394L374.233 404.51L408.963 343.992L410.409 344.816L409.579 346.262L411.025 347.092L377.687 405.213L376.241 404.383L377.58 403.385L376.87 403.914L377.54 403.379L376.83 403.908L377.499 403.372L377.653 403.566C380.357 406.622 383.72 409.023 387.488 410.589C388.028 410.813 388.609 410.922 389.195 410.91C390.022 410.891 390.843 410.754 391.631 410.502C393.388 409.92 395.061 409.114 396.612 408.105C399.036 406.584 401.333 404.869 403.481 402.977C404.378 402.187 405.107 401.498 405.616 401.009C405.87 400.768 406.065 400.574 406.199 400.44L406.346 400.293L406.386 400.252L407.584 401.411L408.602 402.75C408.602 402.75 391.069 416.312 372.191 429.882C362.745 436.664 352.971 443.452 344.844 448.56C340.78 451.117 337.132 453.246 334.133 454.779C332.815 455.456 331.458 456.055 330.069 456.573C329.518 456.778 328.954 456.95 328.382 457.088C327.876 457.211 327.357 457.276 326.836 457.282H326.655C325.759 457.23 324.873 457.065 324.018 456.794C321.993 456.131 320.034 455.281 318.167 454.257C314.378 452.248 309.926 449.477 305.146 446.397C297.976 441.785 290.077 436.523 282.8 432.413C279.497 430.501 276.073 428.806 272.551 427.338C269.424 426.086 266.646 425.33 264.517 425.33H264.035C261.673 425.362 259.325 425.706 257.053 426.354C253.781 427.239 250.681 428.667 247.882 430.578C246.878 431.27 245.977 432.099 245.204 433.042C244.956 433.359 244.75 433.705 244.588 434.073C244.489 434.283 244.433 434.51 244.421 434.742C244.42 434.859 244.44 434.974 244.481 435.084C244.63 435.386 244.862 435.639 245.15 435.813C246.237 436.502 247.454 436.958 248.725 437.152C251.127 437.575 253.564 437.765 256.002 437.721C257.341 437.721 258.814 437.681 260.42 437.601C262.609 437.48 264.658 437.427 266.586 437.427C271.931 437.334 277.268 437.892 282.478 439.087C288.55 440.587 292.092 442.91 294.113 444.971C295.301 446.08 296.172 447.485 296.637 449.042L293.437 449.952L294.401 449.611L293.437 449.965L294.401 449.624L293.437 449.979C293.23 449.476 292.967 448.998 292.654 448.553C291.341 446.662 289.591 445.117 287.553 444.048C284.815 442.548 280.858 441.323 275.148 441.323C273.192 441.33 271.237 441.46 269.297 441.711C261.197 442.729 255.152 445.668 251.175 448.975C249.429 450.384 247.936 452.08 246.757 453.989C245.958 455.235 245.497 456.668 245.418 458.146C245.401 458.657 245.502 459.166 245.713 459.632C245.883 459.965 246.155 460.234 246.489 460.402L245.726 461.882L244.883 460.308C257.066 454.498 266.867 452.496 274.566 452.496C282.525 452.496 288.222 454.645 291.918 456.847C294.008 458.018 295.868 459.558 297.407 461.393L296.068 462.397L294.729 463.334L295.553 462.772L294.736 463.348L295.559 462.785L294.743 463.361C294.682 463.281 293.297 461.353 289.869 459.478C286.442 457.604 280.966 455.682 272.624 455.676C272.082 455.676 271.533 455.676 270.971 455.676C267.144 455.778 263.364 456.541 259.798 457.932C255.364 459.632 251.384 462.335 248.169 465.831C246.966 467.131 245.948 468.591 245.144 470.169C244.577 471.199 244.248 472.343 244.18 473.516C244.174 473.788 244.21 474.059 244.287 474.32C244.351 474.586 244.504 474.822 244.722 474.989C245.044 475.215 245.421 475.349 245.813 475.378C246.381 475.451 246.954 475.489 247.527 475.491C248.827 475.516 250.115 475.229 251.282 474.655C252.191 474.182 253.064 473.643 253.893 473.041C255.635 471.787 257.47 470.668 259.383 469.694C262.326 468.268 265.45 467.248 268.668 466.661C270.652 466.264 272.67 466.062 274.693 466.059C279.801 466.084 284.826 467.352 289.334 469.754C291.322 470.774 293.177 472.035 294.857 473.51L298.552 476.984L293.518 476.382C292.163 476.219 290.799 476.138 289.434 476.141C284.873 476.163 280.354 477.016 276.099 478.658C270.379 480.829 265.196 484.208 260.902 488.566C259.241 490.248 257.807 492.14 256.638 494.196C255.81 495.559 255.323 497.103 255.219 498.694C255.202 499.244 255.334 499.787 255.6 500.267C255.884 500.721 256.303 501.075 256.799 501.278C258.135 501.976 259.605 502.38 261.11 502.463C261.544 502.469 261.976 502.404 262.388 502.269C263.054 502.025 263.643 501.609 264.096 501.064C264.549 500.534 264.953 499.962 265.301 499.357C265.896 498.339 266.479 497.121 267.148 495.829C267.831 494.448 268.622 493.123 269.511 491.866C270.973 489.945 272.958 488.488 275.228 487.669C277.894 486.717 280.713 486.263 283.543 486.33C289.28 486.33 296.222 487.816 304.075 490.942C310.76 493.599 317.64 495.736 324.653 497.335C331.328 498.894 338.151 499.722 345.005 499.806C347.774 499.805 350.539 499.581 353.272 499.136C354.313 498.926 355.33 498.607 356.305 498.186C359.571 496.78 362.748 495.174 365.818 493.379C372.512 489.59 380.974 484.241 390.031 478.216C403.614 469.178 418.57 458.615 431.135 449.43C437.421 444.844 443.105 440.593 447.724 437.059C452.343 433.524 455.905 430.692 457.886 428.972C461.568 425.723 464.337 421.57 465.92 416.922C467.471 412.399 468.238 407.644 468.189 402.863C468.228 397.784 467.427 392.733 465.819 387.915C465.563 387.296 465.22 386.717 464.802 386.194C463.37 384.431 461.769 382.812 460.022 381.361C455.461 377.535 450.697 373.96 445.749 370.65C437.482 364.993 428.23 359.269 421.053 354.924C417.465 352.762 414.359 350.948 412.217 349.683L409.68 348.21L409.01 347.828L408.776 347.694L409.599 346.242L411.045 347.072L409.599 346.248Z" fill="#231F20"/>
<path d="M323.971 130.901H294.769V160.103H323.971V130.901Z" fill="#EE4947"/>
<path d="M195.633 110.635C200.208 91.2507 188.203 71.8276 168.818 67.2524C149.434 62.6773 130.011 74.6826 125.436 94.067C120.861 113.451 132.866 132.875 152.25 137.45C171.635 142.025 191.058 130.02 195.633 110.635Z" fill="#2F3841"/>
<path d="M454.318 122.513H453.314V195.878C453.315 198.9 452.72 201.892 451.564 204.684C450.408 207.476 448.714 210.013 446.577 212.149C444.44 214.286 441.903 215.981 439.111 217.137C436.319 218.293 433.327 218.888 430.305 218.887H293.069C286.971 218.881 281.124 216.455 276.815 212.14C272.505 207.825 270.085 201.976 270.087 195.878V122.513C270.085 120.553 270.333 118.601 270.823 116.703C272.109 111.773 274.992 107.408 279.022 104.291C283.052 101.175 288.001 99.4819 293.096 99.4778H430.332C435.423 99.4803 440.37 101.169 444.399 104.281C448.429 107.392 451.314 111.751 452.604 116.676C453.095 118.574 453.343 120.526 453.341 122.487H455.349C455.349 120.357 455.079 118.236 454.546 116.174C453.143 110.814 450.003 106.07 445.617 102.686C441.23 99.3013 435.846 97.4668 430.305 97.4695H293.069C287.533 97.4809 282.156 99.3266 277.78 102.718C273.404 106.11 270.275 110.855 268.882 116.214C268.349 118.276 268.079 120.397 268.079 122.527V195.878C268.079 202.513 270.714 208.876 275.406 213.568C280.098 218.259 286.461 220.895 293.096 220.895H430.332C436.962 220.888 443.319 218.249 448.004 213.558C452.69 208.867 455.322 202.508 455.322 195.878V122.513H454.318Z" fill="#231F20"/>
<path d="M414.038 107.417C414.039 108.416 413.744 109.393 413.19 110.224C412.636 111.054 411.849 111.702 410.926 112.086C410.004 112.469 408.989 112.57 408.009 112.376C407.03 112.182 406.13 111.701 405.423 110.996C404.717 110.29 404.235 109.391 404.04 108.411C403.845 107.432 403.944 106.417 404.326 105.494C404.708 104.571 405.355 103.783 406.185 103.228C407.015 102.673 407.991 102.376 408.99 102.376C410.328 102.376 411.611 102.907 412.557 103.853C413.503 104.798 414.036 106.08 414.038 107.417Z" fill="white"/>
<path d="M429.047 107.417C429.048 108.416 428.753 109.393 428.199 110.224C427.645 111.055 426.856 111.703 425.934 112.086C425.011 112.469 423.996 112.57 423.016 112.375C422.036 112.18 421.136 111.7 420.43 110.993C419.724 110.287 419.243 109.387 419.048 108.407C418.854 107.427 418.954 106.412 419.337 105.489C419.72 104.567 420.368 103.778 421.199 103.224C422.03 102.67 423.007 102.375 424.006 102.376C425.343 102.376 426.625 102.908 427.57 103.853C428.516 104.798 429.047 106.08 429.047 107.417Z" fill="white"/>
<path d="M444.056 107.417C444.056 108.414 443.76 109.389 443.206 110.218C442.652 111.047 441.865 111.693 440.944 112.075C440.023 112.456 439.009 112.556 438.031 112.361C437.053 112.167 436.155 111.687 435.45 110.982C434.745 110.277 434.265 109.379 434.071 108.401C433.876 107.423 433.976 106.409 434.357 105.488C434.739 104.567 435.385 103.78 436.214 103.226C437.043 102.672 438.018 102.376 439.015 102.376C440.352 102.376 441.634 102.908 442.579 103.853C443.525 104.798 444.056 106.08 444.056 107.417Z" fill="#645AA3"/>
<path d="M317.638 155.972V154.968H289.441V127.775H316.634V155.972H317.638V154.968V155.972H318.642V125.767H287.432V156.976H318.642V155.972H317.638Z" fill="#231F20"/>
<path d="M312.302 193.97V192.966H293.893V175.56H311.298V193.97H312.302V192.966V193.97H313.306V173.552H291.884V194.974H313.306V193.97H312.302Z" fill="#231F20"/>
<path d="M347.307 131.906H432.916V129.897H347.307" fill="#231F20"/>
<path d="M347.307 154.278H432.916V152.27H347.307" fill="#231F20"/>
<path d="M347.307 176.645H432.916V174.636H347.307" fill="#231F20"/>
<path d="M398.721 195.302L400.274 235.951C400.278 236.063 400.311 236.173 400.369 236.27C400.427 236.367 400.509 236.447 400.606 236.504C400.704 236.561 400.814 236.592 400.927 236.595C401.039 236.598 401.151 236.572 401.251 236.52L412.98 230.441L427.192 254.287C427.28 254.436 427.423 254.546 427.591 254.592C427.758 254.638 427.937 254.618 428.089 254.534L438.385 249.072C438.466 249.029 438.538 248.97 438.595 248.898C438.652 248.826 438.693 248.744 438.717 248.655C438.741 248.567 438.747 248.474 438.733 248.383C438.72 248.293 438.688 248.206 438.64 248.128L424.006 224.403L434.349 218.097C434.446 218.037 434.525 217.953 434.581 217.853C434.636 217.754 434.665 217.642 434.665 217.528C434.665 217.414 434.636 217.302 434.581 217.202C434.525 217.102 434.446 217.019 434.349 216.959L399.779 194.693C399.674 194.617 399.55 194.574 399.421 194.567C399.292 194.561 399.165 194.591 399.053 194.656C398.941 194.72 398.85 194.815 398.792 194.93C398.733 195.045 398.708 195.174 398.721 195.302Z" fill="#EE4947"/>
<path d="M383.94 195.302L385.493 235.951C385.497 236.064 385.53 236.173 385.588 236.27C385.646 236.367 385.727 236.447 385.825 236.504C385.922 236.561 386.033 236.592 386.145 236.595C386.258 236.598 386.37 236.572 386.47 236.52L398.199 230.441L412.411 254.287C412.499 254.436 412.642 254.546 412.809 254.592C412.977 254.638 413.156 254.618 413.308 254.535L423.604 249.072C423.685 249.029 423.756 248.97 423.813 248.898C423.87 248.826 423.912 248.744 423.936 248.655C423.96 248.567 423.965 248.474 423.952 248.384C423.939 248.293 423.907 248.206 423.858 248.128L409.224 224.403L419.547 218.097C419.644 218.037 419.724 217.953 419.78 217.853C419.835 217.754 419.864 217.642 419.864 217.528C419.864 217.414 419.835 217.302 419.78 217.202C419.724 217.102 419.644 217.019 419.547 216.959L384.977 194.693C384.873 194.624 384.751 194.585 384.625 194.582C384.5 194.578 384.376 194.61 384.268 194.673C384.16 194.737 384.072 194.83 384.014 194.941C383.956 195.052 383.93 195.177 383.94 195.302Z" fill="white"/>
<path d="M383.939 195.302L381.603 195.389L383.15 236.044C383.182 236.843 383.528 237.596 384.114 238.14C384.67 238.658 385.402 238.945 386.162 238.943C386.628 238.938 387.086 238.825 387.501 238.615L397.255 233.554L410.403 255.458C410.673 255.916 411.062 256.293 411.527 256.55C411.976 256.797 412.481 256.926 412.993 256.924C413.481 256.928 413.961 256.81 414.392 256.583L424.689 251.12C425.179 250.855 425.589 250.462 425.873 249.982C426.152 249.509 426.295 248.969 426.288 248.42C426.281 247.871 426.124 247.335 425.833 246.869L412.444 225.153L420.779 220.078C421.222 219.81 421.588 219.432 421.841 218.98C422.095 218.528 422.227 218.019 422.225 217.501C422.223 216.996 422.095 216.5 421.853 216.057C421.611 215.614 421.263 215.238 420.839 214.964L386.276 192.698C385.702 192.326 385.02 192.159 384.34 192.223C383.659 192.287 383.02 192.58 382.527 193.053C382.238 193.326 382.01 193.656 381.857 194.023C381.686 194.409 381.597 194.826 381.596 195.249V195.369L383.933 195.282L386.276 195.188L384.656 195.249H386.276V195.208L384.656 195.269L386.162 195.938C386.255 195.727 386.303 195.499 386.303 195.269H384.656L386.162 195.938L384.656 195.269L385.553 196.654C385.823 196.479 386.035 196.227 386.162 195.931L384.656 195.262L385.553 196.648L384.656 195.269V196.909C384.973 196.908 385.284 196.817 385.553 196.648L384.656 195.269L383.759 196.654C384.027 196.826 384.338 196.919 384.656 196.922V195.269L383.759 196.654L418.322 218.92L419.226 217.508L417.746 218.284C417.881 218.542 418.079 218.761 418.322 218.92L419.226 217.508L417.746 218.284L419.219 217.508H417.539C417.538 217.779 417.605 218.045 417.733 218.284L419.206 217.508L417.74 216.718C417.609 216.961 417.54 217.232 417.539 217.508H419.206L417.74 216.718L419.212 217.514L418.342 216.082C418.088 216.236 417.88 216.455 417.74 216.718L419.212 217.514L418.342 216.082L405.984 223.613L421.857 249.34L423.283 248.456H421.609C421.61 248.768 421.695 249.073 421.857 249.34L423.283 248.456L421.843 247.612C421.694 247.869 421.616 248.16 421.616 248.456H423.283L421.843 247.612L423.289 248.456L422.499 246.983C422.221 247.126 421.989 247.344 421.83 247.612L423.276 248.456L422.486 246.983L412.183 252.466L412.96 253.939V252.272C412.689 252.272 412.422 252.338 412.183 252.466L412.96 253.939L413.77 252.479C413.523 252.34 413.244 252.266 412.96 252.265V253.939L413.77 252.479L412.953 253.939L414.392 253.082C414.241 252.83 414.027 252.622 413.77 252.479L412.953 253.939L414.392 253.082L399.082 227.342L385.406 234.438L386.162 235.924V234.257C385.899 234.259 385.641 234.321 385.406 234.438L386.162 235.924L387.3 234.706C386.99 234.42 386.584 234.26 386.162 234.257V235.924L387.3 234.706L386.162 235.931L387.836 235.87C387.817 235.427 387.625 235.008 387.3 234.706L386.162 235.931L387.836 235.87L386.283 195.208L383.939 195.302Z" fill="#231F20"/>
<path d="M205.934 107.511H204.93C204.935 115.623 202.127 123.486 196.984 129.759C191.841 136.033 184.682 140.328 176.727 141.915C168.772 143.501 160.513 142.28 153.357 138.458C146.201 134.637 140.592 128.453 137.485 120.96C134.379 113.466 133.967 105.127 136.319 97.3642C138.672 89.601 143.644 82.8939 150.388 78.386C157.132 73.878 165.231 71.8482 173.304 72.6425C181.377 73.4367 188.925 77.0059 194.661 82.7417C197.918 85.9918 200.501 89.8527 202.264 94.1031C204.026 98.3535 204.932 102.91 204.93 107.511H206.938C206.945 100.18 204.777 93.0109 200.71 86.9114C196.642 80.8119 190.857 76.0557 184.086 73.2443C177.315 70.4328 169.862 69.6925 162.67 71.1167C155.478 72.541 148.87 76.066 143.682 81.246C138.494 86.4259 134.958 93.028 133.522 100.218C132.086 107.407 132.814 114.861 135.615 121.636C138.415 128.412 143.162 134.205 149.255 138.283C155.348 142.36 162.513 144.54 169.844 144.545C179.674 144.55 189.103 140.652 196.058 133.707C203.014 126.763 206.928 117.34 206.938 107.511H205.934Z" fill="#231F20"/>
<path d="M170.226 138.259H167.408C161.773 138.259 157.205 142.826 157.205 148.461V153.743C157.205 159.378 161.773 163.945 167.408 163.945H170.226C175.861 163.945 180.428 159.378 180.428 153.743V148.461C180.428 142.826 175.861 138.259 170.226 138.259Z" fill="#231F20"/>
<path d="M146.374 123.705C147.375 124.093 148.44 124.291 149.513 124.287C150.462 124.297 151.403 124.122 152.285 123.772C154.042 123.039 155.471 121.689 156.302 119.976C157.373 117.968 158.089 115.103 158.243 111.093C158.243 110.698 158.243 110.316 158.243 109.955C158.243 107.089 157.821 105.048 157.058 103.615C156.723 102.948 156.228 102.373 155.619 101.941C155.066 101.564 154.413 101.361 153.744 101.359C152.986 101.376 152.248 101.609 151.615 102.028C150.597 102.693 149.774 103.617 149.232 104.706C148.567 105.988 148.237 107.418 148.271 108.861C148.305 110.305 148.702 111.717 149.426 112.967C150.356 114.659 151.441 116.262 152.666 117.754C154.199 119.632 156.229 121.043 158.524 121.824C160.84 122.607 163.558 122.875 167.06 122.875H168.847C174.203 122.754 178.32 121.174 181.111 118.671C182.448 117.479 183.515 116.016 184.241 114.379C184.967 112.742 185.336 110.969 185.322 109.178C185.322 109.017 185.322 108.857 185.322 108.703C185.353 107.474 185.01 106.264 184.338 105.235C184.057 104.845 183.687 104.529 183.258 104.314C182.829 104.098 182.354 103.989 181.874 103.996C181.223 104.007 180.582 104.165 180 104.458C179.125 104.898 178.36 105.529 177.764 106.306C177.142 107.064 176.785 108.004 176.746 108.984C176.741 109.356 176.714 109.727 176.666 110.095C176.599 110.57 176.556 111.048 176.539 111.528C176.522 112.306 176.668 113.079 176.967 113.797C177.242 114.425 177.654 114.983 178.172 115.431C179.216 116.282 180.453 116.864 181.774 117.124C183.852 117.571 185.975 117.773 188.1 117.727C189.794 117.727 191.749 117.64 193.991 117.452L193.817 115.444C191.621 115.631 189.727 115.712 188.1 115.712C186.305 115.747 184.511 115.601 182.745 115.277C181.938 115.127 181.155 114.873 180.415 114.52C179.774 114.237 179.242 113.756 178.895 113.148C178.65 112.644 178.53 112.088 178.547 111.528C178.547 111.119 178.587 110.691 178.628 110.256C178.684 109.812 178.715 109.365 178.721 108.917C178.738 108.593 178.83 108.276 178.989 107.993C179.31 107.417 179.756 106.92 180.294 106.54C180.74 106.195 181.278 105.99 181.841 105.951C182.001 105.947 182.159 105.981 182.303 106.052C182.575 106.197 182.786 106.434 182.899 106.721C183.16 107.358 183.29 108.041 183.28 108.729C183.28 108.863 183.28 109.004 183.28 109.138C183.295 110.646 182.987 112.14 182.376 113.518C181.766 114.897 180.866 116.129 179.739 117.131C177.369 119.26 173.754 120.713 168.773 120.826H167.026C165.112 120.858 163.2 120.723 161.309 120.425C159.235 120.135 157.283 119.273 155.672 117.934C154.126 116.595 152.713 114.694 151.133 111.909C150.551 110.905 150.243 109.764 150.243 108.602C150.238 107.228 150.669 105.887 151.475 104.773C151.791 104.336 152.186 103.961 152.64 103.668C152.957 103.453 153.328 103.33 153.711 103.314C153.979 103.315 154.24 103.397 154.461 103.548C155.037 104.02 155.446 104.666 155.625 105.389C156.05 106.854 156.245 108.376 156.201 109.901C156.201 110.245 156.201 110.599 156.201 110.965C156.163 113.005 155.86 115.03 155.297 116.99C154.581 119.293 153.577 120.552 152.566 121.275C151.671 121.898 150.604 122.226 149.513 122.212C148.935 122.209 148.359 122.133 147.8 121.984C147.585 121.931 147.418 121.877 147.304 121.837L147.184 121.797V121.844V121.797V121.844V121.797L146.394 123.645L146.374 123.705Z" fill="#F6F8FA"/>
<path d="M151.261 66.9562L134.725 30.0162L132.891 30.8396L149.426 67.7796" fill="#231F20"/>
<path d="M115.512 115.444H96.5135V117.452H115.512" fill="#231F20"/>
<path d="M208.9 94.0954L236.869 77.7342L235.858 76.0004L207.889 92.3616" fill="#231F20"/>
<path d="M196.609 146.225L218.774 167.828L220.18 166.389L198.015 144.786" fill="#231F20"/>
<path d="M138.561 142.818L94.2307 185.963L95.6299 187.403L139.96 144.257" fill="#231F20"/>
<path d="M371.93 84.8906C371.93 84.8906 371.689 83.391 371.039 80.8739L369.098 81.376C369.406 82.5944 369.62 83.5584 369.767 84.2144C369.834 84.5447 369.881 84.7924 369.908 84.9575C369.908 85.0378 369.908 85.1048 369.908 85.145V85.1985L371.916 84.8839L371.93 84.8906Z" fill="#231F20"/>
<path d="M323.107 21.7151C320.563 20.4878 317.885 19.3542 315.074 18.3143L314.404 20.2022C317.156 21.213 319.76 22.331 322.27 23.5494L323.134 21.7419L323.107 21.7151ZM338.002 30.7727C335.682 29.0176 333.273 27.382 330.786 25.8724L329.741 27.5861C332.172 29.0617 334.525 30.6615 336.79 32.3794L338.002 30.7727ZM350.775 42.6486C348.854 40.4604 346.823 38.3712 344.69 36.3893L343.351 37.8621C345.436 39.7966 347.42 41.8367 349.296 43.9741L350.802 42.6352L350.775 42.6486ZM360.984 56.7873C359.572 54.3907 357.992 51.9338 356.218 49.477L354.611 50.6485C356.345 53.0585 357.898 55.4551 359.297 57.8049L361.031 56.7873H360.984ZM368.428 72.5527C367.531 70.1026 366.42 67.3846 365.081 64.5194L363.24 65.3361C364.579 68.1612 365.664 70.8256 366.541 73.2222L368.428 72.5527Z" fill="#231F20"/>
<path d="M306.753 15.6634C305.467 15.3063 304.157 14.9761 302.823 14.6726L302.368 16.6274C303.707 16.9286 304.965 17.2567 306.23 17.5981L306.753 15.6634Z" fill="#231F20"/>
<path d="M278.596 11.4792H278.462C278.053 11.4792 276.668 11.4792 274.512 11.6131L274.626 13.6215C276.741 13.501 278.08 13.4943 278.462 13.4943H278.569V11.4859L278.596 11.4792Z" fill="#231F20"/>
<path d="M191.267 49.3833C189.45 51.5121 187.707 53.7615 186.038 56.1313L187.678 57.2894C189.312 54.9642 191.019 52.7618 192.8 50.682L191.267 49.3833ZM203.491 37.4672C201.317 39.2524 199.188 41.1447 197.104 43.1441L198.51 44.5834C200.536 42.6107 202.618 40.7586 204.756 39.027L203.491 37.4672ZM217.623 27.8473C215.186 29.233 212.763 30.7259 210.373 32.3526L211.497 34.0129C213.84 32.4196 216.183 30.9535 218.613 29.5945L217.623 27.8473ZM233.02 20.5704C230.431 21.5746 227.818 22.6903 225.181 23.9176L226.078 25.772C228.662 24.5603 231.239 23.4624 233.79 22.4716L233.06 20.5972L233.02 20.5704ZM249.267 15.4559C246.63 16.1253 243.912 16.8751 241.067 17.7587L241.669 19.6733C244.441 18.8031 247.145 18.0533 249.749 17.4106L249.267 15.4559ZM266.003 12.3563C263.48 12.671 260.648 13.0927 257.582 13.6617L257.95 15.6701C260.969 15.1077 263.761 14.6927 266.251 14.3847L266.003 12.3764V12.3563Z" fill="#231F20"/>
<path d="M181.473 63.3278C180.803 64.4926 180.134 65.6775 179.531 66.8959L181.319 67.8197C181.93 66.6281 182.564 65.4633 183.22 64.3252L181.473 63.3278Z" fill="#231F20"/>
<path d="M124.597 84.0806C124.597 84.0806 123.117 83.9132 120.526 83.7927L120.433 85.8011C121.698 85.8613 122.689 85.9282 123.358 85.9818L124.121 86.0555H124.309H124.369L124.597 84.0471V84.0806Z" fill="#231F20"/>
<path d="M17.5057 140.153C16.4212 142.639 15.4147 145.23 14.4865 147.925L16.3877 148.595C17.2803 145.948 18.2666 143.409 19.3466 140.977L17.5057 140.173V140.153ZM25.4787 125.519C23.9836 127.795 22.5443 130.176 21.1608 132.662L22.9281 133.619C24.267 131.169 25.6751 128.842 27.1523 126.637L25.4787 125.519ZM36.0693 112.619C34.1369 114.551 32.2669 116.616 30.4594 118.811L32.0125 120.083C33.7709 117.941 35.5963 115.933 37.4886 114.058L36.0693 112.639V112.619ZM48.9495 102.008C46.68 103.541 44.4374 105.208 42.255 107.002L43.5337 108.555C45.6625 106.801 47.8516 105.175 50.0741 103.675L48.9495 102.008ZM63.5567 93.9348C61.053 95.0505 58.5604 96.289 56.079 97.6502L57.0497 99.4108C59.4731 98.0719 61.9233 96.8669 64.3735 95.769L63.5567 93.9348ZM79.2619 88.3382C76.6377 89.0612 73.98 89.8913 71.3089 90.8419L71.9783 92.7298C74.6026 91.7993 77.2201 90.9825 79.7974 90.2729L79.2619 88.3382ZM95.583 84.991C92.9454 85.3592 90.1939 85.8278 87.3689 86.4035L87.7705 88.3717C90.5554 87.8027 93.26 87.3474 95.8641 86.9792L95.583 84.991ZM112.199 83.6521C109.702 83.7057 106.903 83.8262 103.871 84.0672L104.031 86.0755C107.024 85.8412 109.782 85.7207 112.239 85.6671L112.199 83.6588V83.6521Z" fill="#231F20"/>
<path d="M12.0631 155.945C11.7239 157.235 11.4025 158.547 11.0991 159.882L13.0538 160.33C13.3573 159.018 13.6742 157.728 14.0045 156.461L12.0631 155.945Z" fill="#231F20"/>
<path d="M11.0723 194.612C11.0723 194.612 11.1259 196.125 11.4472 198.696L13.4555 198.448C13.3016 197.197 13.2145 196.212 13.161 195.55C13.161 195.215 13.1208 194.961 13.1141 194.793C13.1074 194.626 13.1141 194.646 13.1141 194.599V194.539L11.1058 194.606L11.0723 194.612Z" fill="#231F20"/>
<path d="M60.0087 270.855C62.3473 272.136 64.8019 273.353 67.3726 274.504L68.196 272.676C65.6878 271.543 63.289 270.349 60.9995 269.095L60.0087 270.855ZM46.3587 261.791C48.4429 263.451 50.6543 265.06 52.9929 266.618L54.0975 264.944C51.808 263.427 49.6457 261.851 47.6106 260.218L46.3587 261.791ZM34.4962 250.464C36.2568 252.473 38.1447 254.481 40.1731 256.396L41.5588 254.943C39.5505 253.048 37.7296 251.107 36.0091 249.145L34.4962 250.484V250.464ZM24.8495 237.209C26.1884 239.485 27.7214 241.775 29.3816 244.051L31.0017 242.866C29.3816 240.643 27.9089 238.401 26.57 236.172L24.8495 237.209ZM17.6061 222.481C18.5634 224.918 19.6613 227.429 20.9199 229.986L22.7274 229.102C21.4956 226.594 20.4133 224.139 19.4805 221.738L17.6061 222.475V222.481ZM12.8397 206.796C13.3618 209.193 14.038 211.864 14.9082 214.736L16.8362 214.154C15.9794 211.335 15.3166 208.718 14.8279 206.368L12.8664 206.796H12.8397Z" fill="#231F20"/>
<path d="M74.9574 277.55C76.2115 277.996 77.4879 278.443 78.7866 278.889L79.4092 276.981C78.1283 276.566 76.872 276.133 75.6402 275.682L74.9708 277.57L74.9574 277.55Z" fill="#231F20"/>
<path d="M300.748 12.4834H298.378C298.376 14.2596 297.759 15.9804 296.632 17.3527C295.504 18.7249 293.935 19.6637 292.193 20.0093C290.451 20.3548 288.643 20.0856 287.076 19.2476C285.51 18.4096 284.283 17.0546 283.604 15.4133C282.925 13.7721 282.836 11.9462 283.352 10.2466C283.868 8.54704 284.957 7.07892 286.434 6.09234C287.911 5.10576 289.685 4.66174 291.452 4.83591C293.22 5.01008 294.872 5.79167 296.128 7.04754C296.843 7.76062 297.41 8.608 297.796 9.5409C298.182 10.4738 298.38 11.4738 298.378 12.4834H303.064C303.062 9.6231 302.069 6.85173 300.254 4.64147C298.438 2.43121 295.912 0.91877 293.107 0.36181C290.301 -0.19515 287.389 0.237821 284.867 1.58697C282.345 2.93611 280.369 5.11797 279.275 7.76085C278.181 10.4037 278.037 13.3441 278.868 16.0812C279.698 18.8182 281.453 21.1825 283.831 22.7714C286.209 24.3602 289.065 25.0753 291.912 24.7948C294.758 24.5143 297.42 23.2556 299.442 21.2331C300.591 20.0844 301.503 18.7203 302.124 17.2189C302.746 15.7175 303.065 14.1083 303.064 12.4834H300.748Z" fill="#231F20"/>
<path d="M21.0939 173.974H20.0897C20.0986 176.063 19.3831 178.09 18.0649 179.711C16.7467 181.331 14.9075 182.445 12.8605 182.861C10.8135 183.278 8.68532 182.972 6.83849 181.996C4.99166 181.02 3.5404 179.433 2.73192 177.507C1.92344 175.581 1.80775 173.434 2.40454 171.432C3.00134 169.43 4.27371 167.697 6.00492 166.528C7.73614 165.359 9.81912 164.826 11.8991 165.021C13.979 165.215 15.9272 166.124 17.4119 167.594C18.2554 168.429 18.9261 169.423 19.3855 170.517C19.845 171.612 20.0843 172.786 20.0897 173.974H22.098C22.098 171.792 21.451 169.659 20.2387 167.844C19.0265 166.03 17.3034 164.616 15.2875 163.781C13.2716 162.946 11.0533 162.727 8.91326 163.153C6.77318 163.579 4.80739 164.63 3.26448 166.172C1.72156 167.715 0.670822 169.681 0.245133 171.821C-0.180557 173.961 0.0379215 176.18 0.872941 178.196C1.70796 180.211 3.12201 181.934 4.93629 183.147C6.75057 184.359 8.88358 185.006 11.0656 185.006C13.991 185.004 16.7962 183.841 18.8647 181.773C20.9334 179.704 22.0963 176.899 22.098 173.974H21.0939Z" fill="#231F20"/>
<path d="M186.494 232.55H77.8159C67.6152 232.55 59.3459 240.819 59.3459 251.02V319.143C59.3459 329.343 67.6152 337.613 77.8159 337.613H186.494C196.694 337.613 204.963 329.343 204.963 319.143V251.02C204.963 240.819 196.694 232.55 186.494 232.55Z" fill="white"/>
<path d="M186.494 337.613V336.608H77.8159C75.522 336.609 73.2505 336.158 71.131 335.281C69.0116 334.403 67.0858 333.117 65.4638 331.495C63.8418 329.873 62.5553 327.947 61.6778 325.828C60.8004 323.708 60.3493 321.436 60.3501 319.143V251.02C60.3493 248.726 60.8004 246.454 61.6778 244.335C62.5553 242.216 63.8418 240.29 65.4638 238.668C67.0858 237.046 69.0116 235.759 71.131 234.882C73.2505 234.004 75.522 233.553 77.8159 233.554H186.494C188.79 233.55 191.064 233.998 193.187 234.874C195.309 235.75 197.238 237.036 198.863 238.658C200.488 240.281 201.777 242.208 202.656 244.329C203.535 246.45 203.987 248.724 203.986 251.02V319.143C203.987 321.436 203.536 323.708 202.658 325.828C201.781 327.947 200.495 329.873 198.872 331.495C197.25 333.117 195.325 334.403 193.205 335.281C191.086 336.158 188.814 336.609 186.52 336.608V338.617C191.685 338.615 196.637 336.563 200.289 332.911C203.94 329.259 205.993 324.307 205.994 319.143V251.02C205.993 245.856 203.94 240.903 200.289 237.252C196.637 233.6 191.685 231.548 186.52 231.546H77.8159C72.6511 231.546 67.6977 233.598 64.0456 237.25C60.3935 240.902 58.3418 245.855 58.3418 251.02V319.143C58.3418 321.7 58.8455 324.232 59.8242 326.595C60.8029 328.958 62.2373 331.105 64.0456 332.913C65.854 334.721 68.0008 336.156 70.3635 337.134C72.7262 338.113 75.2586 338.617 77.8159 338.617H186.494V337.613Z" fill="#231F20"/>
<path d="M85.7087 258.417C85.7087 259.256 85.46 260.075 84.9941 260.772C84.5281 261.469 83.8659 262.012 83.0912 262.333C82.3165 262.653 81.4641 262.737 80.6419 262.573C79.8197 262.409 79.0647 262.005 78.4723 261.411C77.8799 260.818 77.4769 260.062 77.3141 259.24C77.1514 258.417 77.2362 257.565 77.558 256.791C77.8798 256.017 78.424 255.355 79.1217 254.891C79.8195 254.426 80.6394 254.178 81.4778 254.18C82.034 254.18 82.5847 254.289 83.0984 254.502C83.6122 254.715 84.0789 255.028 84.4718 255.421C84.8648 255.815 85.1763 256.282 85.3886 256.796C85.6008 257.31 85.7096 257.861 85.7087 258.417Z" fill="#231F20"/>
<path d="M80.4736 264.871C80.4736 264.871 80.4067 266.169 80.4067 268.271V268.941H82.415V268.271C82.415 267.241 82.415 266.41 82.4485 265.848C82.4485 265.56 82.4485 265.346 82.4485 265.179C82.4485 265.011 82.4485 264.958 82.4485 264.958L80.4402 264.851L80.4736 264.871Z" fill="#231F20"/>
<path d="M107.164 303.538C109.231 301.938 111.038 300.027 112.52 297.874L110.88 296.71C109.528 298.691 107.877 300.45 105.986 301.924L107.184 303.538H107.164ZM91.9948 304.207C94.0565 305.5 96.4365 306.195 98.87 306.216V305.218L98.7963 306.216C99.0775 306.216 99.352 306.249 99.6331 306.249V304.241C99.4055 304.241 99.1779 304.241 98.9637 304.241H98.8834C96.8121 304.226 94.7852 303.64 93.0257 302.547L91.9948 304.207ZM83.4861 291.448C84.2407 293.916 85.2881 296.285 86.6057 298.504L88.3195 297.453C87.0829 295.372 86.1028 293.148 85.4007 290.832L83.4861 291.448ZM80.7682 276.499C80.9623 278.869 81.2569 281.433 81.7054 284.03L83.7137 283.682C83.2719 281.158 82.984 278.655 82.7966 276.318L80.7883 276.479L80.7682 276.499Z" fill="#231F20"/>
<path d="M116.349 291.213C117.4 289.004 117.949 287.444 117.956 287.424L116.061 286.755V286.815C115.954 287.116 115.439 288.495 114.555 290.35L116.369 291.213H116.349Z" fill="#231F20"/>
<path d="M141.728 287.157C141.728 287.157 142.103 288.669 142.846 291.066L144.767 290.477C144.399 289.299 144.098 288.341 143.944 287.685C143.857 287.351 143.783 287.096 143.743 286.929C143.703 286.762 143.703 286.775 143.689 286.728V286.668L141.741 287.157H141.728Z" fill="#231F20"/>
<path d="M186.648 312.113C187.423 309.656 188.051 307.154 188.529 304.622L186.52 304.241C186.065 306.693 185.457 309.114 184.699 311.491L186.614 312.113H186.648ZM177.791 324.94C180.19 323.625 182.168 321.656 183.494 319.263L181.781 318.219C180.647 320.286 178.953 321.991 176.894 323.139L177.791 324.94ZM162.306 323.742C164.564 325.249 167.171 326.15 169.878 326.359L170.005 324.351C167.64 324.167 165.361 323.377 163.391 322.055L162.306 323.742ZM151.957 312.174C153.285 314.398 154.792 316.512 156.462 318.493L157.989 317.188C156.393 315.297 154.952 313.283 153.677 311.163L151.957 312.174ZM145.343 298.303C146.193 300.532 147.19 302.935 148.342 305.372L150.156 304.515C149.031 302.132 148.054 299.776 147.217 297.586L145.343 298.303Z" fill="#231F20"/>
<path d="M189.64 296.997C189.894 294.534 189.961 292.981 189.961 292.934L187.953 292.854V292.92C187.953 293.235 187.859 294.681 187.645 296.797L189.653 296.997H189.64Z" fill="#231F20"/>
<path d="M192.893 285.014C192.893 285.793 192.663 286.554 192.23 287.201C191.798 287.849 191.183 288.353 190.463 288.651C189.744 288.949 188.953 289.027 188.189 288.875C187.426 288.723 186.724 288.348 186.174 287.798C185.623 287.247 185.248 286.546 185.096 285.782C184.945 285.019 185.022 284.227 185.32 283.508C185.618 282.789 186.123 282.174 186.77 281.741C187.418 281.309 188.179 281.078 188.957 281.078C190.001 281.08 191.001 281.495 191.739 282.233C192.476 282.971 192.892 283.971 192.893 285.014Z" fill="#231F20"/>
<path d="M128.265 286.916C135.649 286.916 141.634 280.93 141.634 273.547C141.634 266.163 135.649 260.178 128.265 260.178C120.882 260.178 114.896 266.163 114.896 273.547C114.896 280.93 120.882 286.916 128.265 286.916Z" fill="#EE4947"/>
<path d="M141.634 273.533H140.63C140.631 276.396 139.64 279.171 137.823 281.384C136.007 283.597 133.479 285.112 130.671 285.669C127.863 286.226 124.948 285.791 122.425 284.439C119.901 283.086 117.925 280.9 116.834 278.253C115.743 275.607 115.604 272.663 116.441 269.925C117.278 267.187 119.039 264.825 121.424 263.241C123.809 261.657 126.669 260.949 129.517 261.239C132.366 261.529 135.025 262.798 137.042 264.831C139.343 267.142 140.634 270.272 140.63 273.533H142.638C142.638 270.691 141.795 267.912 140.216 265.548C138.637 263.185 136.392 261.342 133.766 260.254C131.139 259.167 128.249 258.882 125.461 259.437C122.673 259.991 120.112 261.36 118.102 263.37C116.092 265.38 114.723 267.941 114.168 270.729C113.614 273.517 113.899 276.407 114.986 279.034C116.074 281.66 117.916 283.905 120.28 285.484C122.644 287.063 125.423 287.906 128.265 287.906C132.077 287.906 135.733 286.392 138.428 283.697C141.124 281.001 142.638 277.345 142.638 273.533H141.634Z" fill="#231F20"/>
<path d="M152.861 244.111H193.268V242.103H152.861" fill="#231F20"/>
<path d="M173.064 252.573H192.773V250.565H173.064" fill="#231F20"/>
</g>
<defs>
<clipPath id="clip0_1811_1754">
<rect width="513" height="504" fill="white"/>
</clipPath>
</defs>
</svg>
