<svg id="Layer_1" data-name="Layer 1" xmlns="http://www.w3.org/2000/svg" viewBox="0 0 368 368"><defs><style>.cls-1{fill:#ef4748;}.cls-2{fill:#231f20;}.cls-3{fill:#2f3841;}.cls-4{fill:#fff;}</style></defs><path class="cls-1" d="M9.64,144.3l9-19.41S7.48,122.54,8.26,112.35s11.57-15.48,22-6.47c0,0,9.21-17.44,9.4-16.66s12.94,9.21,12.94,9.21,4.51-18.62,18.23-12,1.76,19.21,1.76,19.21,21.76,10.19,20.78,14.11-24.89,50-29.4,50.57S6.5,151.05,9.64,144.3Z"/><path class="cls-2" d="M9.64,144.3l1.22.57,9.73-21-1.66-.34,0,.16,0-.16h0l0,.16,0-.16a16,16,0,0,1-4.86-2.15A10.66,10.66,0,0,1,11,118.31a9,9,0,0,1-1.38-5c0-.3,0-.6,0-.9a11.12,11.12,0,0,1,3.11-7.15,9.32,9.32,0,0,1,6.69-2.69c3,0,6.4,1.23,9.92,4.28L30.61,108l.8-1.5,1.38-2.6c1.25-2.34,3.14-5.86,4.77-8.78.81-1.46,1.56-2.77,2.12-3.7.27-.46.51-.83.66-1.05l.14-.19L40,89.73l.44.54.09-.08L40,89.73l.44.54-.74-.91.53,1a1,1,0,0,0,.21-.13l-.74-.91.53,1-.58-1.15v1.29a1.12,1.12,0,0,0,.58-.14l-.58-1.15v0l-.47,1.24a1.4,1.4,0,0,0,.47.08V89.22l-.47,1.24.47-1.24L38.52,90a1.42,1.42,0,0,0,.61.47l.47-1.24L38.52,90l1.06-.76-1.26.33a1.28,1.28,0,0,0,.2.43l1.06-.76-1.26.33h0a1.29,1.29,0,0,0,.15.38,2,2,0,0,0,.26.35,5.1,5.1,0,0,0,.47.45c.65.56,1.72,1.35,3,2.28,3.86,2.75,9.59,6.54,9.6,6.55l1.6,1.06.45-1.87v0a25.91,25.91,0,0,1,2.81-6.6,14.38,14.38,0,0,1,3.51-4,8.13,8.13,0,0,1,5-1.71,11.56,11.56,0,0,1,5,1.31,11.55,11.55,0,0,1,4.65,3.67A6.61,6.61,0,0,1,76,95.22a13.11,13.11,0,0,1-2.21,6.55A21.23,21.23,0,0,1,72.26,104c-.21.26-.39.47-.51.6l-.13.16,0,0h0l-1.29,1.35,1.69.8.23.1c1.12.54,6.25,3,11,5.79A55.75,55.75,0,0,1,89.63,117a13.12,13.12,0,0,1,1.9,1.77,3.38,3.38,0,0,1,.41.61l.07.15v0h.2l-.19,0v0h.2l-.19,0h0a8.7,8.7,0,0,1-.38,1c-.83,2-2.8,6.08-5.34,11C82.49,139,77.4,148.4,72.88,156c-2.26,3.8-4.38,7.15-6.1,9.53a27.85,27.85,0,0,1-2.21,2.75,5.21,5.21,0,0,1-.73.66l-.17.11h0l.14.43-.06-.45-.08,0,.14.43-.06-.45h0v0h0v0H63.7a7.63,7.63,0,0,1-1.27-.18A108.37,108.37,0,0,1,50.18,165a262,262,0,0,1-26-10.93,76.5,76.5,0,0,1-9.84-5.65,16.18,16.18,0,0,1-2.71-2.32,4,4,0,0,1-.6-.83,1.05,1.05,0,0,1-.13-.4v0h0l-1.22-.57-1.22-.58a2.79,2.79,0,0,0-.27,1.19,4.05,4.05,0,0,0,.78,2.22,15.73,15.73,0,0,0,4,3.65,90.2,90.2,0,0,0,12.38,6.88c7.38,3.53,16,7,23.24,9.64,3.61,1.31,6.88,2.41,9.48,3.18,1.31.38,2.44.69,3.38.9a11.25,11.25,0,0,0,2.32.34,2.75,2.75,0,0,0,.4,0h0a2.58,2.58,0,0,0,1-.36,7.37,7.37,0,0,0,1.52-1.3,36.55,36.55,0,0,0,3.29-4.27c4.31-6.28,10.25-16.81,15.24-26.2,2.5-4.7,4.75-9.1,6.43-12.54.84-1.72,1.54-3.19,2.06-4.35.26-.58.47-1.08.64-1.5a7.83,7.83,0,0,0,.36-1.06h0a2.71,2.71,0,0,0,.07-.58,3.25,3.25,0,0,0-.39-1.45,8.32,8.32,0,0,0-1.82-2.21A38.24,38.24,0,0,0,87.2,112a153.23,153.23,0,0,0-14.08-7.56l-.57,1.22,1,.93a23.54,23.54,0,0,0,2.58-3.43,15.63,15.63,0,0,0,2.62-8,9.35,9.35,0,0,0-1.66-5.38,14.18,14.18,0,0,0-5.69-4.57,14.2,14.2,0,0,0-6.22-1.58,10.75,10.75,0,0,0-6.74,2.38,19.94,19.94,0,0,0-5.57,7.57,27.74,27.74,0,0,0-1.6,4.48l1.31.31.74-1.12-2-1.32c-1.79-1.21-4.49-3-6.74-4.61-1.13-.79-2.14-1.53-2.87-2.08-.36-.28-.65-.52-.82-.67l-.16-.15-.35.32.39-.27,0,0-.35.32.39-.27-.94.64,1.1-.27a1,1,0,0,0-.16-.37l-.94.64,1.1-.27h0a1.38,1.38,0,0,0-.37-.65,1.45,1.45,0,0,0-.47-.3,1.35,1.35,0,0,0-.49-.09,1.39,1.39,0,0,0-.75.21,1.82,1.82,0,0,0-.39.35A4.3,4.3,0,0,0,38,89c-.52.78-1.32,2.14-2.25,3.81C33,97.75,29,105.25,29,105.25l1.19.63.88-1c-3.9-3.38-8-4.94-11.69-4.94a12.09,12.09,0,0,0-8.58,3.47,13.8,13.8,0,0,0-3.91,8.86c0,.37,0,.75,0,1.11a11.65,11.65,0,0,0,1.84,6.47,14.65,14.65,0,0,0,6,5.09,16.64,16.64,0,0,0,3.6,1.29l.28-1.32-1.22-.56-9,19.4h0Z"/><path class="cls-1" d="M351.65,167s5.82,18.84,5.13,18.43-15.66,2.63-15.66,2.63,10,16.36-4.44,21.34-14.83-12.33-14.83-12.33-22.59,8.18-24.67,4.71-17.74-52.94-15-56.54c1-1.23,7.6-4.78,16-8.62.79,4.35,3.85,14.15,15,9.78,10.11-3.95,7.65-13.15,5.4-18.14,10.45-3.71,19.32-5.78,20.35-3l7.34,20.09s9.57-6.23,16.22,1.53S365.37,166.05,351.65,167Z"/><path class="cls-2" d="M351.65,167l-1.29.4.81,2.64c.73,2.39,1.82,6,2.73,9.18.45,1.59.86,3,1.15,4.18.15.56.26,1,.34,1.4a4.11,4.11,0,0,1,.08.42l0,.11v0l.39,0h-.39v0l.39,0h.7l-1-.35a.93.93,0,0,0-.06.35h1.09l-1-.35,1.23.41-.92-.92a1.28,1.28,0,0,0-.31.51l1.23.41-.92-.92.94.94-.52-1.21a1.45,1.45,0,0,0-.42.27l.94.94-.52-1.21.52,1.21v-1.32a1.19,1.19,0,0,0-.52.11l.52,1.21v0l.38-1.25a.94.94,0,0,0-.38-.06v1.31l.38-1.25-.37,1.22.53-1.16-.16-.06-.37,1.22.53-1.16-.56,1.22.69-1.15a1.54,1.54,0,0,0-.63-.22l-.37,0a11.87,11.87,0,0,0-1.48.13c-2.08.26-5.59.9-8.61,1.48s-5.53,1.09-5.53,1.09l-1.88.38,1,1.64h0a24.52,24.52,0,0,1,1.66,3.44,19.66,19.66,0,0,1,1.5,7,9,9,0,0,1-1.4,5.1,10.32,10.32,0,0,1-5.49,3.86,13.12,13.12,0,0,1-4.37.82,6.79,6.79,0,0,1-4.76-1.72,9.47,9.47,0,0,1-2.14-2.91,18.32,18.32,0,0,1-1.52-4.92c-.11-.71-.18-1.31-.22-1.73q0-.31,0-.48v-.15l-.05-1.87-1.76.63-.66.24c-1.5.53-5.36,1.85-9.54,3-2.09.59-4.25,1.15-6.23,1.56a27.74,27.74,0,0,1-5,.65,4.87,4.87,0,0,1-1.37-.15,1,1,0,0,1-.25-.1h0l-.12.14.16-.09,0-.05-.12.14.16-.09h0a9.31,9.31,0,0,1-.4-.86c-.72-1.74-2-5.45-3.56-10.11-2.29-7-5.09-16.2-7.31-24.46-1.11-4.14-2.07-8-2.76-11.3a42.09,42.09,0,0,1-1.07-7.4,5.27,5.27,0,0,1,0-.82l0-.15h0l-.37-.17.32.25.05-.08-.37-.17.32.25h0a3.08,3.08,0,0,1,.45-.38,23.19,23.19,0,0,1,2.13-1.36c2.84-1.65,7.52-4,12.95-6.47l-.56-1.23-1.33.24a20,20,0,0,0,2.75,7.29,10.92,10.92,0,0,0,3.33,3.3,9.5,9.5,0,0,0,5.11,1.39,15.73,15.73,0,0,0,5.67-1.18,13.13,13.13,0,0,0,6.47-4.9,11.43,11.43,0,0,0,1.79-6.35,22,22,0,0,0-2.12-8.7l-1.23.55.45,1.27c3.52-1.25,6.85-2.31,9.72-3.05a30.32,30.32,0,0,1,7-1.15,4.93,4.93,0,0,1,1.65.22.83.83,0,0,1,.27.15l0,0h0l7.92,21.68,1.42-.92h0a14.25,14.25,0,0,1,2.26-1.12,13.89,13.89,0,0,1,5-1,9.12,9.12,0,0,1,3.64.72,9.6,9.6,0,0,1,3.57,2.71,11,11,0,0,1,2.85,7.2,9.42,9.42,0,0,1-3.12,7c-2.1,1.94-5.32,3.38-9.75,3.7l-1.69.12.5,1.62,1.29-.4.09,1.34c4.92-.34,8.76-2,11.39-4.41a12.15,12.15,0,0,0,4-8.95,13.84,13.84,0,0,0-3.5-9,12.49,12.49,0,0,0-4.55-3.42,11.81,11.81,0,0,0-4.71-.94,16.53,16.53,0,0,0-6.13,1.28,18.13,18.13,0,0,0-2.59,1.3l.74,1.13,1.26-.46-7.34-20.09h0a2.74,2.74,0,0,0-.75-1.12,3.83,3.83,0,0,0-1.71-.85,8.57,8.57,0,0,0-2-.22,33.08,33.08,0,0,0-7.63,1.24c-3,.77-6.38,1.85-9.95,3.12l-1.38.49.6,1.33a19.3,19.3,0,0,1,1.88,7.6A8.63,8.63,0,0,1,318,141.3a10.42,10.42,0,0,1-5.2,3.86,13,13,0,0,1-4.69,1,6.78,6.78,0,0,1-3.7-1,9.3,9.3,0,0,1-3.39-4.09,19.33,19.33,0,0,1-1.45-4.68l-.31-1.7-1.57.71c-4.24,1.93-8,3.79-10.91,5.33-1.44.77-2.64,1.46-3.57,2.06-.47.3-.87.57-1.21.83a5.09,5.09,0,0,0-.86.81h0a2.83,2.83,0,0,0-.51,1.24,6.81,6.81,0,0,0-.11,1.31,33.48,33.48,0,0,0,.6,5.21c1.32,7.38,4.59,19.15,7.74,29.48,1.58,5.16,3.13,10,4.39,13.64.63,1.85,1.19,3.42,1.65,4.62.23.61.44,1.12.62,1.54a9,9,0,0,0,.49,1h0a2.57,2.57,0,0,0,.81.83,3.93,3.93,0,0,0,1.46.55,9.34,9.34,0,0,0,1.63.14,32.87,32.87,0,0,0,6.48-.91,151.9,151.9,0,0,0,15.91-4.74l-.46-1.27-1.35,0A23.28,23.28,0,0,0,322,204.2a13,13,0,0,0,3.35,5.06,9.57,9.57,0,0,0,6.55,2.41,16,16,0,0,0,5.25-1,13,13,0,0,0,6.85-4.9,11.76,11.76,0,0,0,1.86-6.6,22.48,22.48,0,0,0-1.78-8.16,26.67,26.67,0,0,0-1.78-3.65l-1.15.7.27,1.32,2.07-.42c1.89-.37,4.78-.93,7.4-1.4,1.31-.23,2.55-.44,3.55-.59l1.31-.18c.36,0,.64-.05.75-.05h0v-.13l0,.13h0v-.13l0,.13.08-.76-.18.74.1,0,.08-.76-.18.74.28-1.13-.6,1a1.29,1.29,0,0,0,.32.14l.28-1.13-.6,1,.07,0,.06,0,.18.07a1.17,1.17,0,0,0,.41.06,1.34,1.34,0,0,0,.54-.11,1.3,1.3,0,0,0,.61-.52,1.52,1.52,0,0,0,.21-.54,1.58,1.58,0,0,0,0-.28,4,4,0,0,0-.08-.71c-.16-.88-.56-2.38-1.07-4.22-1.53-5.49-4.09-13.79-4.09-13.8l-1.29.4.09,1.34Z"/><path d="M246.79,263.12s22.82-6,19.62-31.84-10.84-6-7.89-21.21-7.31-10.94-12.61-23.67-22.4-21.59-17.36-32.44,9.22-12.36.23-24.89c0,0,10.87-18.89-11.83-40.94s-38.68-17.68-62.33-18-34.44,30.1-35.63,37.34-9.07,86.41-9.07,86.41l16.14,59.54Z"/><path class="cls-3" d="M300,317.82s-12.11-96.49-19-110.63S255,171,230.15,172.26s-117.89,21.21-133.1,45.33S78,272.9,76.65,317.82Z"/><path class="cls-2" d="M300,317.82l1.9-.24s-3-24.14-6.93-50.06c-1.94-13-4.11-26.36-6.22-37.44-1.06-5.53-2.1-10.49-3.11-14.54-.5-2-1-3.82-1.48-5.35a29.33,29.33,0,0,0-1.46-3.84,74.81,74.81,0,0,0-18.45-23.28A58.37,58.37,0,0,0,249.68,174a44.3,44.3,0,0,0-17.51-3.69c-.7,0-1.41,0-2.12.05h0c-6.4.33-16.91,1.82-29.43,4.25-18.76,3.66-42,9.43-62,16.58a177.94,177.94,0,0,0-26.73,11.72,68.84,68.84,0,0,0-9.86,6.55,30.37,30.37,0,0,0-6.62,7.13c-7.77,12.32-12.6,26.4-15.65,43s-4.35,35.7-5,58.2l-.07,2H302.16l-.27-2.16-1.9.24v-1.91H76.65v1.91l1.91.06c.69-22.42,2-41.36,5-57.63s7.68-29.84,15.12-41.64a31.55,31.55,0,0,1,8.55-8.28c6.86-4.84,16.68-9.52,27.84-13.76,16.76-6.36,36.55-11.78,54.16-15.68,8.8-2,17.06-3.54,24.13-4.68a168.53,168.53,0,0,1,16.89-2h0c.64,0,1.28,0,1.92,0a40.52,40.52,0,0,1,16,3.38,59,59,0,0,1,19.3,13.89A70.09,70.09,0,0,1,279.25,208a26.24,26.24,0,0,1,1.25,3.31c.84,2.69,1.77,6.4,2.73,10.82,3.35,15.47,7.07,39.47,9.94,59.58,1.44,10.05,2.67,19.13,3.54,25.7.43,3.28.78,5.94,1,7.77s.36,2.85.36,2.85l1.91-.24v0Z"/><line class="cls-4" x1="68.3" y1="58.52" x2="57.67" y2="81.39"/><line class="cls-4" x1="144.65" y1="317.82" x2="153.38" y2="255.78"/><polyline class="cls-2" points="146.48 318.08 155.21 256.04 151.55 255.53 142.82 317.56"/><polyline class="cls-2" points="249.54 317.56 240.81 255.53 237.15 256.04 245.88 318.08"/><path class="cls-4" d="M116.38,345.81a32,32,0,0,0,25.89-45.13C124.17,261,90.35,191.15,88.49,188.91c-2.94-3.53-20.74-5.67-22.88-9.22s-14.47-34-24.38-26.59c0,0-1.75-5.62-7.88-2.06s-4.33,6.3-4.33,6.3-12.36.16-11.32,13.1c0,0-14.92,3-7.53,19.58,0,0,6.87,13.47,18.75,15.43,0,0-16.21,3.43-6.71,9.27S53,224.56,53,224.56L82.09,321.7A32,32,0,0,0,116.38,345.81Z"/><path class="cls-2" d="M116.38,345.81l.19,1.84a33.54,33.54,0,0,0,22-11.3A33.74,33.74,0,0,0,144,299.91c-9.06-19.84-22-47.23-33-70-5.48-11.35-10.45-21.54-14.17-29-1.86-3.75-3.4-6.82-4.55-9-.57-1.11-1-2-1.41-2.67l-.48-.84-.2-.32a3.78,3.78,0,0,0-.24-.32A7.31,7.31,0,0,0,87.6,186,34,34,0,0,0,82,183.88c-3.2-1-6.8-1.88-9.71-2.81a29.9,29.9,0,0,1-3.66-1.39,7.39,7.39,0,0,1-1.07-.63,2.56,2.56,0,0,1-.27-.23l-.08-.09c-.07-.12-.21-.38-.38-.71-.65-1.27-1.76-3.64-3.16-6.44A94.08,94.08,0,0,0,55.58,158a28.64,28.64,0,0,0-5.07-5.44,12.77,12.77,0,0,0-2.85-1.73,7.94,7.94,0,0,0-3.16-.69,7.21,7.21,0,0,0-4.38,1.52l1.11,1.48,1.76-.55a7.27,7.27,0,0,0-1.22-2.23,6.26,6.26,0,0,0-1.83-1.56,5.84,5.84,0,0,0-2.89-.75,9.23,9.23,0,0,0-4.63,1.44,13.93,13.93,0,0,0-4.3,3.56,5.66,5.66,0,0,0-1.2,3.3,3.86,3.86,0,0,0,.56,2.05l1.54-1,0-1.84a16,16,0,0,0-6.51,1.7,12.11,12.11,0,0,0-4.6,4.08,13.58,13.58,0,0,0-2.08,7.65c0,.53,0,1.09.06,1.66l1.84-.15-.36-1.81a16,16,0,0,0-5.47,2.4A13.14,13.14,0,0,0,8,175a12.77,12.77,0,0,0-1.76,6.64,22.64,22.64,0,0,0,2.21,9.11l0,0,0,0a39.63,39.63,0,0,0,5.19,7.37A32.45,32.45,0,0,0,20,203.75a22.14,22.14,0,0,0,8.66,3.52l.3-1.82-.38-1.81a36.75,36.75,0,0,0-5.15,1.57,16.26,16.26,0,0,0-3.78,2,6.69,6.69,0,0,0-1.51,1.58,4.18,4.18,0,0,0-.72,2.3A4.5,4.5,0,0,0,18.47,214a10.44,10.44,0,0,0,2.77,2.31,51,51,0,0,0,9.16,4.17,170.13,170.13,0,0,0,22.25,5.91l.35-1.81-1.77.53,29.09,97.14,1.77-.53-1.79.45a33.85,33.85,0,0,0,32.83,25.67,33,33,0,0,0,3.43-.17h0l-.19-1.84L116.2,344c-1,.1-2.06.15-3.07.15a30.15,30.15,0,0,1-29.24-22.88l0,0L54.44,223l-1.1-.21-.23,0c-1.16-.23-6.54-1.3-12.69-3-3.08-.84-6.36-1.84-9.38-3a45.6,45.6,0,0,1-7.86-3.61,7.35,7.35,0,0,1-1.83-1.47,1.07,1.07,0,0,1-.28-.55s0-.09.11-.27a5,5,0,0,1,1.61-1.29A22,22,0,0,1,27,207.86c.66-.2,1.25-.35,1.66-.45l.48-.12.12,0h0l9.6-2-9.68-1.59A18.64,18.64,0,0,1,22,200.68a31.67,31.67,0,0,1-7.55-7.39c-.87-1.18-1.54-2.23-2-3-.22-.36-.39-.66-.5-.86l-.12-.22,0-.05h0l-.12.07.12-.07h0l-.12.07.12-.07-1.64.84,1.69-.75a18.89,18.89,0,0,1-1.9-7.61,9,9,0,0,1,1.23-4.73,10.32,10.32,0,0,1,4.29-3.74,13.71,13.71,0,0,1,1.89-.75l.54-.15.14,0h0l-.08-.4.08.4h0l-.08-.4.08.4,1.61-.32-.13-1.64c0-.48-.06-.93-.06-1.36A9.94,9.94,0,0,1,21,163.31a8,8,0,0,1,2.33-2.3,11.43,11.43,0,0,1,3.91-1.58,12.07,12.07,0,0,1,1.38-.21l.37,0h.1l0-.72v.72h0l0-.72v.72l3.37,0-1.85-2.82-.94.62,1-.52-.06-.1-.94.62,1-.52-.25.14.27-.11,0,0-.25.14.27-.11a.38.38,0,0,1,0-.15,1.85,1.85,0,0,1,.48-1.11,10.33,10.33,0,0,1,3.17-2.56,5.74,5.74,0,0,1,2.78-.94,2.2,2.2,0,0,1,1.08.27,3.1,3.1,0,0,1,1,1.06c.11.2.2.38.25.49l0,.13h0l.78,2.5,2.09-1.57a3.52,3.52,0,0,1,2.16-.79,5.11,5.11,0,0,1,2.53.81,20.52,20.52,0,0,1,5.4,5.31,84.33,84.33,0,0,1,7.35,12.21c1,2,1.9,3.82,2.61,5.29.35.73.66,1.38.93,1.92s.49,1,.71,1.31a4.52,4.52,0,0,0,1,1.11,10.32,10.32,0,0,0,2.34,1.41,42,42,0,0,0,5.44,1.93c3,.9,6.36,1.75,9.11,2.63A32.51,32.51,0,0,1,85.41,189a9.9,9.9,0,0,1,1.13.62,2.73,2.73,0,0,1,.53.43l.54-.45-.58.41,0,0,.54-.45-.58.41.22.35c.47.8,1.42,2.61,2.71,5.15,9.07,17.84,35.42,72.59,50.63,105.9A30,30,0,0,1,143.34,314a30.39,30.39,0,0,1-7.56,20A29.84,29.84,0,0,1,116.19,344h0Z"/><path class="cls-2" d="M38,203.9H37.9l-.35,0c-1.15.12-4.23.41-7.39.57-1.57.08-3.16.13-4.52.1-.68,0-1.3,0-1.82-.09a8.85,8.85,0,0,1-1.18-.18l-.95,3.57a11.55,11.55,0,0,0,1.79.29,35.72,35.72,0,0,0,3.83.1c4.16-.06,9.05-.53,10.61-.69l.5-.05Z"/><path class="cls-2" d="M15.86,170.5s0,.62.12,1.6A45.23,45.23,0,0,0,19.3,185a32.5,32.5,0,0,0,4.8,7.92,25.4,25.4,0,0,0,8,6.44l1.67-3.29a21.7,21.7,0,0,1-6.87-5.52A31.13,31.13,0,0,1,21.36,180a42.81,42.81,0,0,1-1.71-8.25c0-.44-.07-.78-.08-1s0-.21,0-.26v-.06h0Z"/><path class="cls-2" d="M27.18,157.46s0,.36.08,1a68,68,0,0,0,4,16.87,46.73,46.73,0,0,0,6,11.14,31,31,0,0,0,10.22,8.95l1.73-3.25a27.51,27.51,0,0,1-9-7.92A47.5,47.5,0,0,1,33,168.84a65.74,65.74,0,0,1-2.11-10.79c0-.27,0-.49-.05-.63l0-.15v0h0Z"/><path class="cls-2" d="M39.39,153.22s0,.45.1,1.2a77.6,77.6,0,0,0,3.13,15.13,46.51,46.51,0,0,0,4.27,9.64A24.65,24.65,0,0,0,54,187L56,184a21.16,21.16,0,0,1-6-6.66,48.55,48.55,0,0,1-5.17-13.37,75.57,75.57,0,0,1-1.71-9.87c0-.35-.06-.62-.08-.81s0-.15,0-.2v0h0Z"/><path class="cls-4" d="M269.66,346.43a28.59,28.59,0,0,0,30.63-21.54l19.26-64.3.31.17s6.07-21,6.77-22.43a112.94,112.94,0,0,0,7.24-17.63c2.92-9.34,6.54-11.45,12.73-13.2s12.67-5,12.85-7.79-3.07-3.15-5.35-3.15c0,0-1.14-6.58-11-2.9,0,0,.41-5.95-9.22-2.8,0,0-10.69-4.73-27.62,3.1,0,0-22-13.43-26.39-12.47s-5.79,2-5.09,5.69,14.45,13,15.68,15.59.09,18.92,1.75,21.28L290,233.13c-10.68,21.88-33.15,50.4-43.46,73A28.58,28.58,0,0,0,269.66,346.43Z"/><path class="cls-2" d="M269.66,346.43l-.19,1.84q1.56.15,3.09.15a30.43,30.43,0,0,0,29.52-23.09l-1.79-.44,1.77.53,19.26-64.3-1.77-.53-.89,1.62.3.17,2,1.11.64-2.22,1-3.3c.87-3,2.19-7.5,3.36-11.4.58-1.94,1.12-3.73,1.55-5.09.22-.68.4-1.25.55-1.68l.17-.5.06-.14v0l-.41-.18.4.2v0l-.41-.18.4.2c.16-.33.53-1,1-2a113.91,113.91,0,0,0,6.33-15.86,29.4,29.4,0,0,1,2.21-5.42,11.39,11.39,0,0,1,3.8-4.3,19.22,19.22,0,0,1,5.46-2.25,41.73,41.73,0,0,0,9.09-3.68,16,16,0,0,0,3.35-2.43,6.89,6.89,0,0,0,1.16-1.48,4.38,4.38,0,0,0,.59-1.87h0c0-.12,0-.23,0-.33a4.2,4.2,0,0,0-.95-2.73,4.61,4.61,0,0,0-1.53-1.19,8.07,8.07,0,0,0-2.46-.72,16.78,16.78,0,0,0-2.26-.14v1.85l1.82-.32a6.61,6.61,0,0,0-1.34-2.84,7,7,0,0,0-2.35-1.89,8.54,8.54,0,0,0-3.8-.81,16.9,16.9,0,0,0-5.93,1.24l.65,1.72,1.85.1v-.2a5.67,5.67,0,0,0-.14-1.23,5.48,5.48,0,0,0-.52-1.37,5,5,0,0,0-2-2,7.25,7.25,0,0,0-3.59-.84,17.41,17.41,0,0,0-5.4,1l.58,1.75.74-1.69a25.5,25.5,0,0,0-9.62-1.57,46.59,46.59,0,0,0-19.52,4.68l.78,1.68,1-1.58s-5.16-3.15-11-6.31c-2.93-1.58-6-3.16-8.78-4.37a40.51,40.51,0,0,0-3.84-1.48,11,11,0,0,0-3.21-.63,3.94,3.94,0,0,0-.93.1l.42,1.8-.4-1.8a22.85,22.85,0,0,0-2.59.7,8.51,8.51,0,0,0-1.62.73,5,5,0,0,0-1.88,1.87,5.26,5.26,0,0,0-.61,2.61,10.21,10.21,0,0,0,.2,1.93h0a4.74,4.74,0,0,0,.45,1.25,11.15,11.15,0,0,0,1.46,2.06,40.45,40.45,0,0,0,3.83,3.76c2.18,1.94,4.63,3.93,6.61,5.62,1,.84,1.86,1.61,2.49,2.23.31.31.57.58.74.79a2.38,2.38,0,0,1,.2.25l0,.06h0l.17-.08-.17.07h0l.17-.08-.17.07h0l.07,0-.07,0h0l.07,0-.07,0a3.44,3.44,0,0,1,.09.34,13.53,13.53,0,0,1,.21,1.73c.21,2.62.19,6.79.29,10.54.05,1.88.13,3.66.29,5.15a17.53,17.53,0,0,0,.32,2,5,5,0,0,0,.71,1.77l1.51-1.07-1.79-.44-2.26,9.08,1.79.44-1.65-.81c-5.26,10.77-13.52,23.34-21.77,36s-16.48,25.52-21.72,37A30.16,30.16,0,0,0,242.09,318a30.61,30.61,0,0,0,7.61,20.13,30.18,30.18,0,0,0,19.77,10.16l.19-1.84.18-1.84a26.39,26.39,0,0,1-17.36-8.92,26.91,26.91,0,0,1-6.7-17.69,26.62,26.62,0,0,1,2.44-11.1c5.06-11.1,13.22-23.84,21.46-36.52s16.56-25.31,22-36.42l.09-.18,2.51-10.08-.49-.69-.33.24.36-.2,0,0-.33.24.36-.2v0a5.27,5.27,0,0,1-.28-1.19,40.61,40.61,0,0,1-.35-4.62c-.1-2.77-.11-6-.18-8.72,0-1.37-.1-2.63-.2-3.71-.06-.53-.12-1-.2-1.47a5.92,5.92,0,0,0-.39-1.31h0a5,5,0,0,0-.6-.93,16,16,0,0,0-1.54-1.62c-1.06-1-2.42-2.15-3.87-3.37-2.19-1.83-4.6-3.83-6.47-5.6a26.36,26.36,0,0,1-2.28-2.39,7.21,7.21,0,0,1-.61-.87,2.41,2.41,0,0,1-.14-.27l0-.1h0a6.56,6.56,0,0,1-.14-1.23,1.64,1.64,0,0,1,.13-.77.89.89,0,0,1,.22-.29A3.24,3.24,0,0,1,278,184a17.88,17.88,0,0,1,2.36-.66h.12a7.74,7.74,0,0,1,2.09.45,50.83,50.83,0,0,1,6.55,2.78c3.73,1.82,7.82,4.08,10.95,5.88,1.57.9,2.9,1.68,3.84,2.24l1.1.66.39.23.84.52.89-.42a42.81,42.81,0,0,1,18-4.34,27.25,27.25,0,0,1,6.14.66,13.44,13.44,0,0,1,1.55.44l.36.13.08,0h0l.65.29.67-.22a14.13,14.13,0,0,1,4.25-.84,4,4,0,0,1,1.66.3,1.62,1.62,0,0,1,.5.37,1.57,1.57,0,0,1,.33.64,2,2,0,0,1,.07.47v0l.79,0-.79,0v0l.79,0-.79,0-.15,2.82,2.64-1a13.37,13.37,0,0,1,4.63-1,4.87,4.87,0,0,1,2.17.44,3.14,3.14,0,0,1,1.4,1.34,3.82,3.82,0,0,1,.25.57l0,.14v0l.94-.19-1,.16v0l.94-.19-1,.16.27,1.53h1.55a8.44,8.44,0,0,1,2.84.37,1.32,1.32,0,0,1,.56.34c.06.08.09.1.11.38v.11h0a.6.6,0,0,1-.1.27,5.18,5.18,0,0,1-1.33,1.35,22,22,0,0,1-4.37,2.47,43.21,43.21,0,0,1-5.7,2,28.49,28.49,0,0,0-4.48,1.59,14.33,14.33,0,0,0-5.54,4.44,26.91,26.91,0,0,0-4,8.39,112.6,112.6,0,0,1-4.38,11.6c-.67,1.5-1.27,2.77-1.74,3.74l-1,2a2.3,2.3,0,0,0-.15.33c-.16.41-.36,1-.61,1.79-.89,2.77-2.42,7.91-3.73,12.37s-2.41,8.24-2.41,8.25l1.78.51.89-1.62-.31-.17-2-1.1L298.5,324.4v0a26.74,26.74,0,0,1-25.93,20.29c-.9,0-1.81-.05-2.72-.14Z"/><path class="cls-2" d="M353.84,194.92s-2.34.38-5.23,1.17a41.7,41.7,0,0,0-4.59,1.52,20,20,0,0,0-4.31,2.32l2,2.65a16.28,16.28,0,0,1,3.57-1.91,44.2,44.2,0,0,1,6.13-1.89c.88-.2,1.63-.35,2.16-.45l.61-.11.15,0h.05l-.52-3.25Z"/><path class="cls-2" d="M342.59,192.11s-1.78.66-3.9,1.51c-1.05.43-2.2.91-3.26,1.4a29.46,29.46,0,0,0-2.83,1.44l1.72,2.82a24.8,24.8,0,0,1,2.47-1.26c1.51-.68,3.25-1.39,4.61-1.92l1.67-.65.65-.24-1.13-3.09Z"/><path class="cls-2" d="M333.2,189.38l-1.3.63c-2.37,1.16-7.32,3.58-8.78,4.26l1.41,3,5.81-2.81,4.31-2.11-1.45-3Z"/><path class="cls-2" d="M313.91,219.73a6.46,6.46,0,0,0-1.29-1.9,6.27,6.27,0,0,0-1.77-1.28,6.07,6.07,0,0,0-2.66-.58,6.25,6.25,0,0,0-.94.06l.45,3.27a2.77,2.77,0,0,1,.49,0,2.85,2.85,0,0,1,1.24.27,3,3,0,0,1,1.11.94,2.18,2.18,0,0,1,.26.41l.05.1h0l.76-.33-.77.31v0l.76-.33-.77.31,3.06-1.24Z"/><path class="cls-2" d="M357.8,189.77a11.68,11.68,0,0,1,1.63.51c0-.28,0-.43,0-.45Z"/><path class="cls-2" d="M348.29,178.12c.27,0,.63.07,1,.15v-.09Z"/><path class="cls-4" d="M177.21,82.59S155.29,71.65,141.1,93.66c-1.36,2.11-2.54,4-3.56,5.84-9.61,16.86-5.09,20.43-7.1,29.52-2.23,10.06-4.65,38.72,31,48.24l7.4,30.44a6.32,6.32,0,0,0,8.64,4.33,36.25,36.25,0,0,0,21-41.74l-.27-1.13s9.83-5.94,14.76-15.4c0,0,16.49,2.44,19.49-11.1s-13-12.61-13-12.61-9.57,8.43-15.46,3.88S180.06,99,177.21,82.59Z"/><path class="cls-2" d="M177.21,82.59l.59-1.18a32.34,32.34,0,0,0-13.25-2.86,27.06,27.06,0,0,0-12.38,2.9A31.65,31.65,0,0,0,140,93c-1.37,2.12-2.56,4.08-3.6,5.89a54.87,54.87,0,0,0-5.66,12.94,30.77,30.77,0,0,0-1,8.55c0,.77,0,1.52,0,2.26a27.87,27.87,0,0,1-.58,6.15A49.7,49.7,0,0,0,128,139.27a39,39,0,0,0,6.21,21.82c4.85,7.29,13.22,13.8,26.92,17.44l.34-1.27-1.29.31L167.6,208A7.64,7.64,0,0,0,178,213.24,37.56,37.56,0,0,0,199.77,170l-.27-1.13-1.28.31.68,1.12a44.41,44.41,0,0,0,5.71-4.28,41.27,41.27,0,0,0,9.54-11.63l-1.17-.61-.2,1.31a25.23,25.23,0,0,0,3.1.18,23.15,23.15,0,0,0,9.87-2,14.45,14.45,0,0,0,4.89-3.75,15,15,0,0,0,3.11-6.52,15.68,15.68,0,0,0,.41-3.45,9.75,9.75,0,0,0-1.9-6,10.17,10.17,0,0,0-3.11-2.66,19.64,19.64,0,0,0-9.09-2.1c-.42,0-.68,0-.7,0l-.45,0-.34.3h0a27.22,27.22,0,0,1-3.64,2.58A14.5,14.5,0,0,1,208.1,134a5.27,5.27,0,0,1-3.32-1.08,18,18,0,0,1-2.51-2.62,96.09,96.09,0,0,1-6.44-9.25,186.57,186.57,0,0,1-10.68-19.7c-3.21-6.92-5.75-13.76-6.64-19l-.12-.66-.59-.29-.59,1.18-1.3.22a71.57,71.57,0,0,0,4.64,14.61,180.8,180.8,0,0,0,12,23.29c2.1,3.46,4.15,6.54,5.95,9,.91,1.22,1.76,2.29,2.53,3.17a15.92,15.92,0,0,0,2.14,2.1,7.84,7.84,0,0,0,4.93,1.62,17,17,0,0,0,8.38-2.8,29.9,29.9,0,0,0,3.83-2.75l-.87-1,.08,1.31h.54a18.41,18.41,0,0,1,6.85,1.29,8,8,0,0,1,3.25,2.43,7,7,0,0,1,1.36,4.43,13.24,13.24,0,0,1-.34,2.88,12.42,12.42,0,0,1-2.56,5.4,13,13,0,0,1-6.31,3.95,22.5,22.5,0,0,1-6.43.88c-.83,0-1.52,0-2-.08l-.54-.05-.14,0h0l-.93-.14-.43.83A38.62,38.62,0,0,1,202.88,164a46.23,46.23,0,0,1-3.81,3c-.49.35-.87.6-1.14.78l-.3.19-.08.05h0l-.82.5.49,2.06A34.85,34.85,0,0,1,177,210.81a5,5,0,0,1-2,.41,5,5,0,0,1-4.87-3.83l-7.59-31.21-.75-.2c-13.21-3.53-20.92-9.64-25.41-16.35a36.47,36.47,0,0,1-5.76-20.36,47,47,0,0,1,1.07-10,29.34,29.34,0,0,0,.64-6.72c0-.76,0-1.51,0-2.26a28.51,28.51,0,0,1,.93-7.87,52,52,0,0,1,5.41-12.31c1-1.77,2.17-3.68,3.51-5.77A29.19,29.19,0,0,1,153.36,83.8a24.42,24.42,0,0,1,11.19-2.61,30.66,30.66,0,0,1,8.66,1.3c1.08.33,1.95.65,2.54.89l.66.29.17.07,0,0h0l.59-1.17-1.3.22Z"/><path class="cls-2" d="M146,140.81a12.28,12.28,0,0,0,6-3.5c3-2.94,6-8.25,6.56-17.49,0-.51,0-1,0-1.49a17.91,17.91,0,0,0-3.33-10.77,23.25,23.25,0,0,0-11-7.75,31,31,0,0,0-6.55-1.63l-.28,2.63h0a29.24,29.24,0,0,1,9.79,3.24,18,18,0,0,1,6.05,5.28,15.31,15.31,0,0,1,2.68,9c0,.43,0,.87-.05,1.33-.56,8.75-3.3,13.33-5.77,15.78a11.52,11.52,0,0,1-3.29,2.31,7.39,7.39,0,0,1-1,.38l-.26.07h-.05l.14.75-.13-.75h0l.14.75-.13-.75.44,2.6Z"/><path class="cls-2" d="M171.55,107.69h0a25.39,25.39,0,0,1,3.58-2.63,14.36,14.36,0,0,1,7-2.35,6.77,6.77,0,0,1,1.42.14l.54-2.58a9.45,9.45,0,0,0-2-.2,16.92,16.92,0,0,0-8.56,2.87,26.93,26.93,0,0,0-3.8,2.82l1.79,1.94Z"/><path class="cls-2" d="M152.17,150.53s.47,0,1.19,0a20.69,20.69,0,0,0,7-1.18,14,14,0,0,0,4.08-2.32,11.49,11.49,0,0,0,3.17-4.25l-2.41-1.06a8.88,8.88,0,0,1-2.45,3.29,12.36,12.36,0,0,1-5.05,2.39,19.12,19.12,0,0,1-4.3.49h-1l-.23,2.63Z"/><path class="cls-2" d="M149.75,119.5a4.19,4.19,0,1,1-3.19-5A4.2,4.2,0,0,1,149.75,119.5Z"/><path class="cls-2" d="M181.67,116.8a4.19,4.19,0,1,1-3.18-5A4.19,4.19,0,0,1,181.67,116.8Z"/></svg>