<svg id="Layer_1" data-name="Layer 1" xmlns="http://www.w3.org/2000/svg" viewBox="0 0 368 368"><defs><style>.cls-1{fill:#fff;}.cls-2{fill:#231f20;}.cls-3{fill:#2f3841;}.cls-4{fill:#ef4748;}</style></defs><path class="cls-1" d="M220.12,264s43.06,21.22,50.39,20.65,33.8-12.75,39.44-10.32S295.86,290,295.86,290s33.81,24,31,27.93-12.4,0-12.4,0,8.17,10.43,3.95,15.78-14.93-8.17-14.93-8.17,9.57,10.7,4.79,14.08-14.09-11.83-14.09-11.83,10.71,13,6.2,16.34-28.73-22.82-35.21-28.17S202.08,285,202.08,285Z"/><path class="cls-2" d="M220.12,264l-1.05,2.14s10.51,5.18,22.06,10.36c5.78,2.6,11.81,5.19,17,7.16,2.58,1,4.93,1.81,7,2.4,1,.3,1.94.54,2.79.71a12.81,12.81,0,0,0,2.37.28l.45,0h0a22.4,22.4,0,0,0,3.59-.67c2.35-.61,5.18-1.53,8.26-2.59,4.62-1.58,9.79-3.45,14.44-4.91,2.32-.73,4.51-1.36,6.4-1.8a22.2,22.2,0,0,1,4.55-.67,3.23,3.23,0,0,1,1.07.13h0l.08-.14-.09.14h0l.08-.14-.09.14.49-.77-.78.43a1,1,0,0,0,.29.34l.49-.77-.78.43.87-.48h-1a1,1,0,0,0,.14.48l.87-.48h-.67l-.33-.07v.07h.34l-.33-.07a3.25,3.25,0,0,1-.52,1,23.7,23.7,0,0,1-3.26,3.47,85.61,85.61,0,0,1-6.74,5.42c-1,.75-1.91,1.37-2.54,1.81l-.73.51-.19.13-.06,0-2.88,1.92,2.82,2,.34.25c1.69,1.2,9.37,6.74,16.58,12.54,3.6,2.9,7.09,5.88,9.61,8.36a30.19,30.19,0,0,1,2.91,3.22,5.88,5.88,0,0,1,.64,1,1,1,0,0,1,.08.21h0l.67-.15h-.68a1.19,1.19,0,0,0,0,.15l.67-.15H326l-1.14-.81a1.45,1.45,0,0,0-.27.81H326l-1.14-.81h0a1.47,1.47,0,0,1-.76.51,5.23,5.23,0,0,1-1.77.24,17.7,17.7,0,0,1-4.68-.78c-.7-.2-1.3-.41-1.72-.56l-.47-.17-.12-.05h0L307,312.24l5.57,7.11L313,319l-.41.32h0L313,319l-.41.32A32.67,32.67,0,0,1,315,323.1a24,24,0,0,1,1.57,3.45,10.61,10.61,0,0,1,.65,3.3,4.73,4.73,0,0,1-.18,1.32,3.13,3.13,0,0,1-.52,1h0a.94.94,0,0,1-.32.28.72.72,0,0,1-.36.07,3.43,3.43,0,0,1-1.1-.25,12.53,12.53,0,0,1-3-1.83,37,37,0,0,1-4.46-4.2c-.6-.65-1.09-1.22-1.43-1.62l-.39-.47-.1-.12,0,0h0l-1.87,1.48-1.78,1.59h0a37.37,37.37,0,0,1,3,3.92,22.35,22.35,0,0,1,1.82,3.23,6.79,6.79,0,0,1,.7,2.57,1.24,1.24,0,0,1-.09.55.68.68,0,0,1-.24.27h0c-.08.05-.06,0-.18.05a2.13,2.13,0,0,1-.92-.28,12.49,12.49,0,0,1-3-2.39,44.45,44.45,0,0,1-4.55-5.54c-.61-.86-1.11-1.61-1.46-2.14l-.4-.62-.1-.16,0,0h0l-2,1.24-1.84,1.52,0,0a55.16,55.16,0,0,1,3.63,5.05,31.71,31.71,0,0,1,2.24,4.08,8.62,8.62,0,0,1,.87,3.16,1.28,1.28,0,0,1-.07.5l-.08.11h0l.57.77-.26-.92a1,1,0,0,0-.31.15l.57.77-.26-.92.16.56-.08-.58-.08,0,.16.56-.08-.58,0,.25,0-.25h0l0,.25,0-.25h0a2.3,2.3,0,0,1-.6-.14,14,14,0,0,1-2.84-1.5,74.41,74.41,0,0,1-7.4-5.8c-4.12-3.59-8.61-7.9-12.53-11.71-2-1.9-3.79-3.68-5.37-5.19s-2.91-2.73-3.94-3.59a21,21,0,0,0-2-1.41c-1.53-1-3.6-2.11-6.1-3.43-8.71-4.61-22.55-11.18-34.25-16.63s-21.22-9.74-21.23-9.74l-1,2.17,1.81,1.55,18-21L220.12,264l-1.05,2.14,1.05-2.14-1.81-1.55-20.1,23.45,2.89,1.31,2.44,1.11c5.46,2.47,19.19,8.74,32.25,15,6.52,3.11,12.89,6.21,18,8.82,2.53,1.3,4.73,2.48,6.45,3.46.86.49,1.6.93,2.19,1.31a13,13,0,0,1,1.26.88c.68.56,1.67,1.46,2.84,2.56,4.12,3.88,10.56,10.36,16.7,15.89a102,102,0,0,0,8.74,7.19,27.69,27.69,0,0,0,3.78,2.34,12,12,0,0,0,1.77.72,6.12,6.12,0,0,0,1.88.31,4.4,4.4,0,0,0,1.22-.16,3.93,3.93,0,0,0,1.23-.61h0a4.94,4.94,0,0,0,1.61-2.06,6,6,0,0,0,.45-2.35,10,10,0,0,0-.4-2.67,22.91,22.91,0,0,0-1.88-4.45,50.79,50.79,0,0,0-3.64-5.7c-1.09-1.51-1.91-2.5-1.93-2.53L292.14,329a64.2,64.2,0,0,0,4.57,6.43,33.45,33.45,0,0,0,4.41,4.57,13.59,13.59,0,0,0,2.55,1.69,6.91,6.91,0,0,0,3,.78,5,5,0,0,0,2.93-.93h0a5.39,5.39,0,0,0,1.82-2.16,6,6,0,0,0,.53-2.55,11.53,11.53,0,0,0-1.17-4.64,31.65,31.65,0,0,0-3.5-5.7c-1.13-1.52-2-2.53-2.07-2.57L301.6,327a52.55,52.55,0,0,0,4.57,5,29.83,29.83,0,0,0,4.39,3.52,13.64,13.64,0,0,0,2.49,1.28,7.85,7.85,0,0,0,2.8.56,5.48,5.48,0,0,0,2.4-.52,5.7,5.7,0,0,0,2-1.64h0a7.82,7.82,0,0,0,1.34-2.57,9.43,9.43,0,0,0,.38-2.71,14.94,14.94,0,0,0-.94-4.93,34.34,34.34,0,0,0-4.72-8.51l-1.88,1.47-.9,2.21a29.16,29.16,0,0,0,2.83,1,22.68,22.68,0,0,0,6,1,10.17,10.17,0,0,0,3.37-.52,6.23,6.23,0,0,0,3-2.23v0a3.42,3.42,0,0,0,.6-1.93,5,5,0,0,0-.61-2.25,17.44,17.44,0,0,0-2.67-3.6,89.13,89.13,0,0,0-7.86-7.31c-9.18-7.76-21-16.13-21-16.15L295.86,290l1.33,2s3.84-2.57,7.71-5.7a51.55,51.55,0,0,0,5.45-4.94,17,17,0,0,0,2-2.55,8.18,8.18,0,0,0,.69-1.39,4.76,4.76,0,0,0,.31-1.66,3.72,3.72,0,0,0-.69-2.18,4.2,4.2,0,0,0-1.76-1.38h0a7.34,7.34,0,0,0-3-.52,21.61,21.61,0,0,0-4.16.48,83.34,83.34,0,0,0-8.91,2.42c-4.82,1.54-10,3.42-14.51,5-2.25.77-4.32,1.44-6.07,1.94a23.1,23.1,0,0,1-3.95.86l.18,2.37-.15-2.38h-.16a7.6,7.6,0,0,1-1.43-.19,41.7,41.7,0,0,1-5-1.44c-7.14-2.44-17.84-7.15-26.69-11.24-4.43-2-8.4-3.93-11.27-5.31l-3.38-1.64-1.24-.6-1.65-.82-1.21,1.41Z"/><path class="cls-3" d="M135.3,159.38l69.52-67.67,25.84,29.53L147,211.67s-33.22-32.6-27.68-40.6S135.3,159.38,135.3,159.38Z"/><path class="cls-2" d="M135.3,159.38l1.82,1.86,67.55-65.75,22.49,25.7-82.08,88.72,1.91,1.76,1.82-1.85-.07-.08c-.8-.79-7.82-7.76-14.58-15.74a118.69,118.69,0,0,1-9.11-12,38.43,38.43,0,0,1-2.83-5.17,9.81,9.81,0,0,1-.93-3.5,1.82,1.82,0,0,1,.06-.54.77.77,0,0,1,.09-.23h0a29,29,0,0,1,9.24-8.08,41.42,41.42,0,0,1,3.94-2c.5-.22.9-.38,1.16-.48l.3-.12.07,0h0l-.19-.52.19.52h0l-.19-.52.19.52.54-.19.41-.4-1.82-1.86-.86-2.45a41,41,0,0,0-6.37,3,34.07,34.07,0,0,0-10.9,9.61h0a6,6,0,0,0-.84,1.83,7,7,0,0,0-.25,1.91,14.9,14.9,0,0,0,1.44,5.73,59.36,59.36,0,0,0,6.82,11,200,200,0,0,0,13.61,16c4.13,4.43,7.2,7.45,7.22,7.47l1.91,1.88,87.08-94.12L205,87.93l-71.48,69.59,1.81,1.86-.86-2.45Z"/><path class="cls-1" d="M206.67,95.29s42.61-41.55,42.61-40.35-3.59-35,2-36.64S260.43,34.63,262,41.4c0,0,27.48-27.88,32.25-26.68s4,12.74-8.36,23.49c0,0,18.72-13.14,22.3-8.36S298,45.34,298,45.34s9.45-3.15,14.63,0S297.86,55,297.86,55s19.91,3.54,18.32,9.51-24.3,2-26.29,2-62.52,51.37-62.52,51.37Z"/><path class="cls-2" d="M206.67,95.29l1.56,1.61L210,95.16c4-3.86,13.91-13.52,23-22.21,4.53-4.34,8.85-8.44,12.09-11.44,1.61-1.5,3-2.73,3.92-3.57.47-.41.85-.73,1.08-.91l.15-.11,0,0h0l-.67-1,.53,1.11.14-.08-.67-1,.53,1.11-.84-1.75.59,1.85.25-.1-.84-1.75.59,1.85L249.25,55v2.15a2.65,2.65,0,0,0,.65-.1L249.25,55v-.07l-.67,2.11a2.48,2.48,0,0,0,.67.11V54.94l-.67,2.11.67-2.12-1.32,1.79a2.22,2.22,0,0,0,.65.33l.67-2.12-1.32,1.79,1.33-1.79-2.07.84a2.29,2.29,0,0,0,.74.95l1.33-1.79-2.07.84,2.05-.83H247a2.33,2.33,0,0,0,.16.83l2.05-.83h-.16l-2-.22c0,.15,0,.18,0,.22h2.05l-2-.22,2.21.23-2.11-.69a1.84,1.84,0,0,0-.1.46l2.21.23-2.11-.69,2.13.7-1.78-1.37a2.35,2.35,0,0,0-.35.67l2.13.7-1.78-1.37L249.27,55,248.11,53a2.51,2.51,0,0,0-.62.55L249.27,55,248.11,53,249.27,55V52.72a2.19,2.19,0,0,0-1.16.32L249.27,55v0l1.21-1.89a2.26,2.26,0,0,0-1.21-.35V55l1.21-1.89L249.27,55,251,53.53a2.31,2.31,0,0,0-.52-.46L249.27,55,251,53.53,249.27,55l2-.94a2.24,2.24,0,0,0-.31-.49L249.27,55l2-.94-2,.93,2.13-.6a2,2,0,0,0-.12-.33l-2,.93,2.13-.6-1.9.53,1.94-.36a1.29,1.29,0,0,0,0-.17l-1.9.53,1.94-.36-1,.19,1-.16v0l-1,.19,1-.16s0-.29-.08-.65c-.27-2.64-1-11.53-1-19.66A68.2,68.2,0,0,1,251,23.92a13.08,13.08,0,0,1,.8-3,1.68,1.68,0,0,1,.31-.53v0l-.4-.44.16.56a.67.67,0,0,0,.24-.12l-.4-.44.16.56h0l.07,0,.12,0a2.62,2.62,0,0,1,.81.68A14.7,14.7,0,0,1,255.06,25a65.86,65.86,0,0,1,2.86,8.89c.8,3.09,1.44,6,1.91,8l.93,4,2.86-2.9.29-.29c1.44-1.45,8-8,14.85-14.23,3.42-3.09,6.9-6.09,9.79-8.26a35.73,35.73,0,0,1,3.75-2.54,9.74,9.74,0,0,1,1.25-.61,2.56,2.56,0,0,1,.34-.1l.07,0h0l0-.32v.32h0l0-.32V16l-.23.91a1,1,0,0,0,.23,0V16l-.23.91h0A.8.8,0,0,1,294,17a1.59,1.59,0,0,1,.46.71,5.12,5.12,0,0,1,.26,1.75,16.24,16.24,0,0,1-2.29,7.42,36.2,36.2,0,0,1-8,9.6l2.76,3.53,0,0c.36-.26,3.71-2.57,7.66-4.79a55,55,0,0,1,6-3,22.09,22.09,0,0,1,2.69-.92,7.79,7.79,0,0,1,2-.3,2.16,2.16,0,0,1,.71.09c.11.05.08,0,.09.05a.77.77,0,0,1,.15.51,3.56,3.56,0,0,1-.3,1.25,14.87,14.87,0,0,1-2.16,3.4,45.86,45.86,0,0,1-4.9,5c-.75.68-1.42,1.24-1.88,1.62l-.55.44-.14.12,0,0h0l-10.43,8.08,12.51-4.18h0c.06,0,1.07-.34,2.53-.66a26.19,26.19,0,0,1,5.24-.61,13.57,13.57,0,0,1,2.77.26,6.81,6.81,0,0,1,2.19.83l.06,0h0l.45-.52-.6.31a.73.73,0,0,0,.15.21l.45-.52-.6.31,1.05-.54H311.2a1.34,1.34,0,0,0,.13.54l1.05-.54H312l-.74-.38a.81.81,0,0,0-.08.38H312l-.74-.38.07,0-.07,0h0l.07,0-.07,0a3.19,3.19,0,0,1-.65.63,20,20,0,0,1-3.43,2c-2.14,1.06-4.68,2.06-6.65,2.79-1,.37-1.84.67-2.44.87l-.7.24-.18.06-.06,0-8.58,2.77,8.87,1.57h.05a75,75,0,0,1,9.26,2.38,26.49,26.49,0,0,1,5.56,2.49,6.38,6.38,0,0,1,1.43,1.21,1.64,1.64,0,0,1,.22.38l0,.15,0,.12v0L314,64a2.07,2.07,0,0,1-.7.49,10.4,10.4,0,0,1-3,.77,33.34,33.34,0,0,1-4.45.26,94.78,94.78,0,0,1-9.85-.64c-1.47-.16-2.77-.32-3.78-.44l-1.3-.15-.5,0-.47,0a2.27,2.27,0,0,0-.65.09,3.15,3.15,0,0,0-.59.23,6.77,6.77,0,0,0-.8.48c-.55.36-1.22.84-2.05,1.47-3.1,2.33-8.36,6.57-14.54,11.65-18.55,15.24-45.34,38-45.34,38l1.45,1.71,1.66-1.51L208.32,93.77l-1.65,1.52,1.56,1.61-1.56-1.61L205,96.81,227.18,121l1.65-1.39s.94-.81,2.6-2.21c5.8-4.91,20.34-17.2,33.64-28.25,6.65-5.53,13-10.75,17.76-14.57,2.39-1.92,4.38-3.48,5.81-4.55.71-.53,1.28-.94,1.66-1.19l.36-.22h0l-.54-1.14.39,1.19.15,0-.54-1.14.39,1.19-.62-1.89v2a1.9,1.9,0,0,0,.62-.1l-.62-1.89v2h0v0l.61,0c1.18.13,3.5.44,6.25.72s6,.53,9.05.53a30.42,30.42,0,0,0,7.45-.76,9.51,9.51,0,0,0,3.05-1.35,6.15,6.15,0,0,0,1.25-1.2,4.69,4.69,0,0,0,.8-1.65h0a5.16,5.16,0,0,0,.16-1.25,5,5,0,0,0-.37-1.86,7.15,7.15,0,0,0-2-2.6,19.05,19.05,0,0,0-5.11-3,59.74,59.74,0,0,0-8.51-2.7c-2.48-.6-4.27-.92-4.3-.93L297.86,55l.69,2.14s4-1.28,8-3a40.34,40.34,0,0,0,5.69-2.9,11.38,11.38,0,0,0,2.2-1.77,5.47,5.47,0,0,0,.84-1.17,3.63,3.63,0,0,0,.42-1.68,3.38,3.38,0,0,0-.6-1.91,4.42,4.42,0,0,0-1.32-1.21,11.33,11.33,0,0,0-3.62-1.4,17.38,17.38,0,0,0-3.7-.36,30,30,0,0,0-6.34.75c-1.69.37-2.8.74-2.86.75l.71,2.13,1.38,1.78A64.57,64.57,0,0,0,305,42.06a33.36,33.36,0,0,0,4-4.77,15.23,15.23,0,0,0,1.44-2.65,7.86,7.86,0,0,0,.63-2.94,5.29,5.29,0,0,0-1-3.2A4.71,4.71,0,0,0,307.94,27a6.59,6.59,0,0,0-2.33-.39,13,13,0,0,0-3.23.47,35.56,35.56,0,0,0-5.93,2.32,99.63,99.63,0,0,0-11.83,7l1.29,1.84,1.48,1.69a40.38,40.38,0,0,0,9-10.82,20.41,20.41,0,0,0,2.85-9.58,8.7,8.7,0,0,0-1-4.31,5.92,5.92,0,0,0-1.41-1.67,5.27,5.27,0,0,0-2-1l-.55,2.18.57-2.18a3.8,3.8,0,0,0-.9-.11,5.82,5.82,0,0,0-2.09.46,20.81,20.81,0,0,0-3.92,2.21,100.18,100.18,0,0,0-8.44,6.7c-9.07,7.87-19.05,18-19.07,18L262,41.4l2.18-.52c-.37-1.59-.87-3.87-1.49-6.38a75.52,75.52,0,0,0-3.64-11.57,18.84,18.84,0,0,0-2.67-4.59,7.44,7.44,0,0,0-1.88-1.65A5,5,0,0,0,252,16a4.77,4.77,0,0,0-1.31.19h0a4,4,0,0,0-1.89,1.22,8.16,8.16,0,0,0-1.58,3.12,31.69,31.69,0,0,0-1,6.19c-.19,2.34-.26,4.93-.26,7.57,0,5,.27,10.25.54,14.23.14,2,.28,3.67.39,4.86.06.59.11,1.06.14,1.4,0,.17,0,.3.06.42l0,.19a1.36,1.36,0,0,0,.05.22,2,2,0,0,0,.12.34,2,2,0,0,0,.31.49,2.07,2.07,0,0,0,.52.46,2.25,2.25,0,0,0,1.21.36,2.23,2.23,0,0,0,1.76-.85,2.07,2.07,0,0,0,.35-.63,2.53,2.53,0,0,0,.12-.45c0-.12,0-.18,0-.24v-.1a2.3,2.3,0,0,0-.12-.75,2.63,2.63,0,0,0-.38-.69,2.3,2.3,0,0,0-1-.69,2.59,2.59,0,0,0-.8-.15,2.32,2.32,0,0,0-.77.14,3.24,3.24,0,0,0-.55.26,5.19,5.19,0,0,0-.59.42c-.37.29-.83.68-1.39,1.17-2.1,1.84-5.67,5.18-9.89,9.17-12.63,12-31,29.86-31,29.86l-1.56,1.52L205,96.81Z"/><path d="M59.33,240.62s-19.22-5-16.52-26.82,9.12-5.1,6.64-17.88S55.61,186.7,60.08,176,79,157.78,74.71,148.64s-7.77-10.41-.2-21c0,0-9.15-15.92,10-34.51S117.08,78.27,137,78s29,25.37,30,31.47,7.64,72.81,7.64,72.81l-13.6,50.18Z"/><path class="cls-1" d="M118,88.49s18.47-9.21,30.43,9.34c1.15,1.77,2.14,3.41,3,4.91,8.09,14.22,4.29,17.23,6,24.89,1.88,8.47,3.92,32.62-26.15,40.64L125,193.93a5.33,5.33,0,0,1-7.28,3.64A30.53,30.53,0,0,1,100,162.4l.23-1s-8.29-5-12.44-13c0,0-13.9,2.05-16.42-9.35s11-10.63,11-10.63,8.06,7.1,13,3.27S115.57,102.35,118,88.49Z"/><path class="cls-2" d="M118,88.49l.5,1h0a25.14,25.14,0,0,1,10.17-2.17,20.57,20.57,0,0,1,9.42,2.2,24.5,24.5,0,0,1,9.41,8.91q1.69,2.64,3,4.86A44.28,44.28,0,0,1,155,113.67a24.33,24.33,0,0,1,.78,6.63c0,.63,0,1.26,0,1.9a24.78,24.78,0,0,0,.54,5.67,40.06,40.06,0,0,1,.9,8.39,30.63,30.63,0,0,1-4.85,17.15c-3.79,5.66-10.28,10.81-21.41,13.79l-.64.17-6.39,26.29a4.13,4.13,0,0,1-1.53,2.35,4.22,4.22,0,0,1-4.24.54,29.41,29.41,0,0,1-17-33.89l.23-1,.19-.79-.7-.42h0a37,37,0,0,1-4.72-3.58A32.27,32.27,0,0,1,88.81,148l-.36-.7-.78.11h0a18.56,18.56,0,0,1-2.26.13A17.44,17.44,0,0,1,78,146a10.1,10.1,0,0,1-3.38-2.58,10.44,10.44,0,0,1-2.16-4.55,11.32,11.32,0,0,1-.29-2.43,6,6,0,0,1,1.14-3.73,8,8,0,0,1,4.41-2.62,16.64,16.64,0,0,1,4.11-.51h.45l.08-1.11-.74.83a23.46,23.46,0,0,0,3.23,2.32A14.3,14.3,0,0,0,91.94,134a6.64,6.64,0,0,0,4.15-1.36,17.17,17.17,0,0,0,2.48-2.57c3.22-3.93,7.76-11.14,11.82-18.95S118,95,119.07,88.68l-1.1-.19.5,1-.5-1-1.09-.19a58.72,58.72,0,0,1-3.77,11.83,150.77,150.77,0,0,1-10,19.33c-1.75,2.87-3.44,5.42-4.91,7.41-.74,1-1.42,1.85-2,2.53a10.6,10.6,0,0,1-1.49,1.48,4.42,4.42,0,0,1-2.79.9,12.23,12.23,0,0,1-5.91-2,22.09,22.09,0,0,1-2.12-1.45l-.59-.47-.16-.13,0,0h0l-.28-.25-.38,0s-.24,0-.6,0a17.57,17.57,0,0,0-6.67,1.28,9,9,0,0,0-3.61,2.74,8.14,8.14,0,0,0-1.6,5.07,13.5,13.5,0,0,0,.34,2.91,12.83,12.83,0,0,0,2.62,5.5,13.2,13.2,0,0,0,6.38,4,21.29,21.29,0,0,0,6.06.84,18.13,18.13,0,0,0,2.61-.16l-.16-1.1-1,.52a34.82,34.82,0,0,0,8,9.8,40.48,40.48,0,0,0,4.81,3.61l.58-1-1.08-.25-.23.95a31.64,31.64,0,0,0,18.31,36.45,6.44,6.44,0,0,0,6.47-.82,6.4,6.4,0,0,0,2.33-3.58l6.24-25.66-1.08-.26.28,1.07c11.54-3.07,18.59-8.55,22.69-14.69a33,33,0,0,0,5.23-18.39,42.7,42.7,0,0,0-1-8.87,22.53,22.53,0,0,1-.49-5.19c0-.62,0-1.25,0-1.9a26.5,26.5,0,0,0-.85-7.2,46.18,46.18,0,0,0-4.78-10.91c-.87-1.52-1.87-3.17-3-5a26.74,26.74,0,0,0-10.27-9.69,22.79,22.79,0,0,0-10.43-2.45,27.22,27.22,0,0,0-11.16,2.41l-.51.25-.09.55Z"/><path class="cls-2" d="M144.66,135.37l-.11.63.12-.63h0l-.11.63.12-.63-.08,0a8.92,8.92,0,0,1-4.3-2.83c-1.93-2.17-3.94-6-4.38-12.79q0-.57,0-1.11a12.85,12.85,0,0,1,2.38-7.77,17.39,17.39,0,0,1,8.25-5.75,26.06,26.06,0,0,1,3.58-1l1.06-.19.28,0h.09l-.24-2.21a26.61,26.61,0,0,0-8.72,2.78,17.65,17.65,0,0,0-6.09,5.12,15.12,15.12,0,0,0-2.82,9.08c0,.41,0,.83,0,1.25.48,7.79,3,12.27,5.52,14.74a10.45,10.45,0,0,0,5.06,2.95l.38-2.19Z"/><path class="cls-2" d="M124.25,108a23.81,23.81,0,0,0-3.21-2.37,14.24,14.24,0,0,0-7.2-2.42,8,8,0,0,0-1.67.17l.47,2.17a5.88,5.88,0,0,1,1.2-.12,12.18,12.18,0,0,1,6,2.09A23,23,0,0,1,122,109c.25.2.45.36.58.48l.15.13,0,0h0l1.51-1.64Z"/><path class="cls-2" d="M139.13,142h0a15.53,15.53,0,0,1-4.72.75,10.39,10.39,0,0,1-3.7-.62,7.44,7.44,0,0,1-3.28-2.39l-1.74,1.39a9.84,9.84,0,0,0,4.23,3.08,12.63,12.63,0,0,0,4.49.77,17.88,17.88,0,0,0,5.49-.9l-.76-2.09Z"/><path class="cls-2" d="M141.11,119.6a3.53,3.53,0,1,0,2.69-4.21A3.53,3.53,0,0,0,141.11,119.6Z"/><path class="cls-2" d="M114.21,117.32a3.53,3.53,0,1,0,2.68-4.21A3.53,3.53,0,0,0,114.21,117.32Z"/><path class="cls-2" d="M5.5,352.55s7.87-57.6,30.68-71.07a19.31,19.31,0,0,1,8.69-2.75s66.44-12.3,74.44,73.82Z"/><path class="cls-2" d="M5.5,352.55l2.57.35,0-.15a221.8,221.8,0,0,1,7.13-31.43,122.06,122.06,0,0,1,9.18-22.47,55.62,55.62,0,0,1,6.11-9,28.17,28.17,0,0,1,7-6.1,16.8,16.8,0,0,1,7.53-2.4h.16l.15,0-.08-.43.08.43h0l-.08-.43.08.43a48.31,48.31,0,0,1,8-.57,64.47,64.47,0,0,1,16.43,2.12,54.93,54.93,0,0,1,28.72,18.38c8.78,10.65,15.92,26.83,18.23,51.57l2.59-.24V350H5.5v2.6l2.57.35-2.57-.35v2.6H122.16l-.26-2.84c-1.58-17-5.42-30.36-10.64-40.81a68.13,68.13,0,0,0-13.7-18.92,59.8,59.8,0,0,0-23.87-14,69.08,69.08,0,0,0-20.35-3,54.19,54.19,0,0,0-9,.65l.48,2.56-.16-2.6a22,22,0,0,0-9.86,3.11,33.79,33.79,0,0,0-8.53,7.49c-4.45,5.32-8.06,12-11,19.14A186.65,186.65,0,0,0,5.75,337c-2,8.9-2.82,15.17-2.83,15.22l-.41,2.95h3Z"/><path class="cls-3" d="M35,278.12S56.56,175.38,93.47,174.76,225.12,264,225.12,264l-25.84,30.15-66-36.91-33-18.46s38.75,15.38,32.6,24.61-35.33,32.86-35.33,32.86S34.41,294.12,35,278.12Z"/><path class="cls-2" d="M35,278.12l2.54.53.06-.28a367.8,367.8,0,0,1,16.14-53.15c4.93-12.34,10.93-24.47,17.74-33.37A47.14,47.14,0,0,1,82.2,181.27a20.78,20.78,0,0,1,11.31-3.91h.34c4.13,0,9.41,1.27,15.35,3.65,10.42,4.14,22.86,11.52,35.56,20.27,19.05,13.11,38.72,29.27,53.6,42.14,7.45,6.44,13.69,12.05,18.08,16.05,2.19,2,3.92,3.6,5.09,4.7l1.35,1.25.45.43,1.79-1.89-2-1.69L198.69,290.8l-64.16-35.87-33-18.46-1.27,2.27-1,2.42.08,0a175.82,175.82,0,0,1,17,8A67.6,67.6,0,0,1,126.93,256a18.5,18.5,0,0,1,3.11,3.18,5.93,5.93,0,0,1,.69,1.23,2.28,2.28,0,0,1,.17.78,1.17,1.17,0,0,1-.23.69h0a34.9,34.9,0,0,1-3.05,3.75c-2.34,2.58-5.52,5.69-8.94,8.86-5.14,4.76-10.86,9.68-15.28,13.41-2.21,1.87-4.09,3.43-5.43,4.53l-1.56,1.28-.55.45,1.64,2,.09-2.6h-.17a280,280,0,0,1-32.2-3.2c-7.44-1.24-14.75-3-20-5.22a20.29,20.29,0,0,1-5.93-3.56A6.27,6.27,0,0,1,38,279.91a3.46,3.46,0,0,1-.39-1.56v-.1L35,278.12l2.54.53L35,278.12l-2.6-.13c0,.14,0,.26,0,.36a8.67,8.67,0,0,0,1,4A14.6,14.6,0,0,0,39,287.82a39.57,39.57,0,0,0,7.28,3.34,105.55,105.55,0,0,0,15.95,4,281.33,281.33,0,0,0,35.2,3.65l1,0,.76-.61s7.33-5.93,15.43-13c4.06-3.55,8.31-7.4,12-11,1.83-1.78,3.51-3.5,5-5.08a40.6,40.6,0,0,0,3.52-4.37h0a6.5,6.5,0,0,0,1.1-3.57,7.23,7.23,0,0,0-.57-2.75,13.88,13.88,0,0,0-3-4.34,46.07,46.07,0,0,0-8.65-6.6,144.08,144.08,0,0,0-15.06-7.91c-4.42-2-7.6-3.29-7.63-3.3L99,241l33,18.46,67.88,37.95,28.84-33.64-1.8-1.7S203.32,239.71,175,217.32c-14.14-11.19-29.46-22.4-43.66-30.86a146.74,146.74,0,0,0-20.25-10.29c-6.32-2.5-12.12-4-17.28-4h-.42a26.1,26.1,0,0,0-14.56,5.08,52.16,52.16,0,0,0-10.78,10.53c-5.82,7.39-10.9,16.66-15.3,26.44A316,316,0,0,0,37.7,256.86c-3.43,12.16-5.21,20.69-5.22,20.73l0,.2v.2Z"/><path class="cls-4" d="M328.91,189a30.87,30.87,0,0,1-12.64,24.93v10.88H280.75V214.47A30.83,30.83,0,1,1,328.91,189Z"/><path class="cls-2" d="M328.91,189h-1.48a29.42,29.42,0,0,1-12,23.74l-.61.44v10.15H282.23v-9.62l-.65-.44A29.35,29.35,0,1,1,327.43,189h3a32.32,32.32,0,1,0-50.47,26.72l.83-1.23h-1.48v11.8h38.48V213.91h-1.48l.88,1.19A32.33,32.33,0,0,0,330.39,189Z"/><rect class="cls-1" x="280.64" y="229.2" width="35.42" height="4.82"/><polygon class="cls-2" points="280.64 229.2 280.64 230.75 314.51 230.75 314.51 232.47 282.19 232.47 282.19 229.2 280.64 229.2 280.64 230.75 280.64 229.2 279.09 229.2 279.09 235.57 317.61 235.57 317.61 227.65 279.09 227.65 279.09 229.2 280.64 229.2"/><rect class="cls-1" x="293.86" y="238.43" width="9.5" height="4.68"/><polygon class="cls-2" points="293.86 238.43 293.86 240 301.78 240 301.78 241.54 295.43 241.54 295.43 238.43 293.86 238.43 293.86 240 293.86 238.43 292.28 238.43 292.28 244.68 304.93 244.68 304.93 236.86 292.28 236.86 292.28 238.43 293.86 238.43"/><line class="cls-1" x1="233.93" y1="201.94" x2="249.62" y2="197.81"/><polyline class="cls-2" points="234.32 203.46 250.02 199.33 249.22 196.29 233.53 200.42"/><line class="cls-1" x1="241.77" y1="141.36" x2="261.46" y2="158.14"/><polyline class="cls-2" points="240.75 142.55 260.44 159.34 262.48 156.94 242.79 140.16"/><polyline class="cls-2" points="297.03 119.6 297.03 136.95 300.18 136.95 300.18 119.6"/><line class="cls-1" x1="350.41" y1="144.94" x2="337.74" y2="156.23"/><polyline class="cls-2" points="349.36 143.76 336.69 155.05 338.78 157.4 351.45 146.11"/><polyline class="cls-2" points="365.28 198.3 345.72 198.3 345.72 201.44 365.28 201.44"/><polygon class="cls-1" points="303.42 172.05 284.84 193.53 300.53 193.53 289.38 210.88 314.85 190.64 297.23 188.99 303.42 172.05"/></svg>