<svg id="Layer_1" data-name="Layer 1" xmlns="http://www.w3.org/2000/svg" viewBox="0 0 368 368"><defs><style>.cls-1{fill:#ef4748;}.cls-2{fill:#231f20;}.cls-3{fill:#fff;}.cls-4{fill:#2f3841;}</style></defs><path class="cls-1" d="M240.33,75.2a51.76,51.76,0,1,1-51.76-51.76A51.76,51.76,0,0,1,240.33,75.2Z"/><path class="cls-2" d="M240.33,75.2H239a50.43,50.43,0,1,1-14.77-35.66A50.26,50.26,0,0,1,239,75.2h2.65a53.08,53.08,0,1,0-53.08,53.08A53.08,53.08,0,0,0,241.65,75.2Z"/><path class="cls-3" d="M219.18,94.14c-1,12.31-9.48,19.47-15.31,21.13s-14.4.84-14.4.84l-.33,3.49,17.45,3.55c-2,3.35-9.92,3-13.88,3.64-10.35,1.52-15-1.63-25.69-4.52-9.29-2.51-15.89-11.34-15.89-11.34l15.14,10.3,4.31-14.44s-.22-.15-.6-.47c-2-1.73-8.65-8.57-9.22-25-.66-19.47,19.48-24.8,19.48-24.8l-.38.11,2.37-.61.24,0,.76.48h11.16c20,1.75,24.5,15.14,25.09,26.91A82.39,82.39,0,0,1,219.18,94.14Z"/><path class="cls-2" d="M219.18,94.14l-1.1-.09A24.44,24.44,0,0,1,212.49,108a19.49,19.49,0,0,1-8.92,6.22,35.25,35.25,0,0,1-9.09,1c-1.41,0-2.64,0-3.51-.1l-1-.07-.27,0h-.09l-1.1-.1-.54,5.59,18.43,3.75.22-1.09-.94-.58a4,4,0,0,1-2,1.46,20.51,20.51,0,0,1-5.5,1.13c-2,.21-4.07.3-5.65.53a33.3,33.3,0,0,1-4.94.39,31.33,31.33,0,0,1-9.33-1.53c-3.11-.91-6.51-2.15-11-3.35a28,28,0,0,1-11-6.37,37.88,37.88,0,0,1-3.2-3.22c-.37-.42-.65-.76-.84-1s-.17-.2-.21-.26l-.05-.07,0,0-.88.67-.63.91L166.9,123l5-16.69-.69-.45-.15.23.15-.23h0l-.15.23.15-.23a4.33,4.33,0,0,1-.5-.39h0a20.7,20.7,0,0,1-4.88-6.63c-1.91-3.83-3.66-9.48-3.94-17.56,0-.3,0-.6,0-.9a21.46,21.46,0,0,1,2.9-11.06,25.63,25.63,0,0,1,9.86-9.21,30.53,30.53,0,0,1,4.22-2c.53-.2,1-.35,1.26-.44l.33-.1.08,0h0l-.28-1.07-.32-1.06-.38.11.59,2.14,2.21-.57h0l.08-1.1-.59.93.76.49.27.17h11.48V56.52l-.1,1.11a31.48,31.48,0,0,1,11.86,3.16,20.57,20.57,0,0,1,9.4,9.88,34.61,34.61,0,0,1,2.82,12.82c0,1,.07,1.93.07,2.88,0,2.77-.18,5.4-.36,7.68l1.1.09,1.11.08c.18-2.3.36-5,.37-7.85,0-1,0-2-.08-3-.3-6-1.59-12.52-5.48-17.82a22.57,22.57,0,0,0-7.93-6.73,33.52,33.52,0,0,0-12.69-3.41H183.55l-.48-.31-.24-.15-.52,0-.18,0-2.55.66.28,1.07.31,1.07.38-.11-.6-2.14a32.84,32.84,0,0,0-10.12,5.1,26,26,0,0,0-7,7.65,23.59,23.59,0,0,0-3.2,12.18c0,.33,0,.65,0,1,.28,8.36,2.11,14.34,4.16,18.46a22.94,22.94,0,0,0,5.44,7.34h0a8.47,8.47,0,0,0,.72.56l.6-.93-1.06-.32-3.88,13L146.29,106.3l4,5.29a37.23,37.23,0,0,0,4.61,4.89,30.18,30.18,0,0,0,11.89,6.86c4.35,1.17,7.69,2.39,10.9,3.34a33.3,33.3,0,0,0,10,1.61,34.91,34.91,0,0,0,5.27-.41c1.86-.27,4.86-.35,7.67-.78a17.47,17.47,0,0,0,4-1,6.09,6.09,0,0,0,3-2.34l.82-1.35-18-3.67.24-2.5-1.11-.1-.1,1.1s2.19.21,5.11.21a37.13,37.13,0,0,0,9.69-1.08,21.5,21.5,0,0,0,10-6.93,26.68,26.68,0,0,0,6.1-15.19Z"/><path class="cls-2" d="M172.38,87a9.35,9.35,0,0,0,1.36,2.28,13.09,13.09,0,0,0,4.87,3.83l.93-2a10.74,10.74,0,0,1-4-3.17,8.3,8.3,0,0,1-.82-1.26c-.09-.16-.15-.28-.18-.35l0-.09h0l-.35.13.35-.13h0l-.35.13.35-.13-2.07.79Z"/><path class="cls-2" d="M186.6,78.94h0a17.72,17.72,0,0,1,3.26-.27,18.2,18.2,0,0,1,4.74.6,12,12,0,0,1,4.81,2.51l1.46-1.67a14.35,14.35,0,0,0-5.69-3,20.19,20.19,0,0,0-5.32-.68,19.89,19.89,0,0,0-3.71.32l.45,2.17Z"/><path class="cls-2" d="M219.44,76.64s-.31,0-.8,0a23,23,0,0,0-9.31,1.92,12.46,12.46,0,0,0-5,4.06A12.62,12.62,0,0,0,202.21,90a23.83,23.83,0,0,0,.92,6.22l2.14-.59a21.5,21.5,0,0,1-.84-5.63,10.42,10.42,0,0,1,1.75-6.17,11.7,11.7,0,0,1,6.54-4.23,22.5,22.5,0,0,1,5.92-.8h.66l.14-2.21Z"/><path class="cls-2" d="M199.15,100.35l0,.23,0-.23h0l0,.23,0-.23h-.42a5.71,5.71,0,0,1-2.15-.39,3.4,3.4,0,0,1-1-.68,2.92,2.92,0,0,1-.74-1.18l-2.09.74a5.27,5.27,0,0,0,1.28,2,5.93,5.93,0,0,0,2.6,1.43,8.66,8.66,0,0,0,2.14.27c.38,0,.63,0,.66,0l-.24-2.2Z"/><path class="cls-2" d="M215.55,86.85A2.87,2.87,0,1,1,212.68,84,2.88,2.88,0,0,1,215.55,86.85Z"/><circle class="cls-2" cx="192.71" cy="86.65" r="2.87"/><path class="cls-2" d="M215,67.37s11.51-5.25-2.82-22.62-6.24,7.61-12.31,3.75-10.3-11.19-16.64-7.33.68,9.64-9,11.29-12.53-.27-13.63,2.77-2.48,8.54-5.24,9.92-1.65,39.69,15.44,46.86c0,0,1.93-11.3.55-14.88s-7.34-8-2.75-14.89c5.33-8,9.64.28,9.64.28s.84-16,12.41-13.87C202.4,70.75,208,70.42,215,67.37Z"/><circle class="cls-1" cx="267.14" cy="174.9" r="51.75"/><path class="cls-2" d="M318.9,174.9h-1.32a50.45,50.45,0,1,1-14.78-35.66,50.29,50.29,0,0,1,14.78,35.66h2.64A53.08,53.08,0,1,0,267.14,228a53.07,53.07,0,0,0,53.08-53.08Z"/><path class="cls-3" d="M230.23,182.37C228.65,197,237,207.3,243.46,210.55s16.68,4.18,16.68,4.18l-.41,4.46-22.24-1.86c-.82-.08,6.34,3.92,7.9,4.55,2.61,1,8.85,3.34,10.78,3.61,14.41,2,17.89,1.73,20.54,1.17,19.67-4.19,28.33-16.95,23.7-12.11-.41.43-10.52,7.92-11.1,7.79l-7.49-2.1L284.35,208a8.72,8.72,0,0,0,.81-.41c2.79-1.58,12-8.11,16.37-27.24C306.64,157.7,284.24,147,284.24,147l4.9-3.52L282,145.94l-2-5.62.68,6-13.07-2.49c-23.82-2.4-32.09,12.28-35.4,25.94A98.7,98.7,0,0,0,230.23,182.37Z"/><path class="cls-2" d="M230.23,182.37l-.95-.1a35.79,35.79,0,0,0-.2,3.68,30.89,30.89,0,0,0,4.64,16.46,24.71,24.71,0,0,0,9.31,9,44.19,44.19,0,0,0,11,3.4c3.41.64,6,.88,6,.88l.09-.94-.94-.09-.33,3.52-21.3-1.78-.08,1,.12-.94h-.14a1,1,0,0,0-.45.1,1,1,0,0,0-.54.87,1,1,0,0,0,.09.42,1.33,1.33,0,0,0,.2.29,3,3,0,0,0,.29.25c.35.26.89.6,1.58,1,1,.61,2.36,1.36,3.56,2,.6.32,1.17.62,1.66.86s.88.44,1.18.56c1.33.53,3.54,1.36,5.69,2.11,1.07.37,2.12.72,3,1a17.35,17.35,0,0,0,2.27.57A126,126,0,0,0,272.3,228a20.77,20.77,0,0,0,4.6-.44,54.63,54.63,0,0,0,18.86-7.85,40.22,40.22,0,0,0,4.89-3.78c.56-.52,1-1,1.28-1.28a5,5,0,0,0,.36-.45l.14-.22.08-.16a1.13,1.13,0,0,0,.06-.36.9.9,0,0,0-.27-.67,1,1,0,0,0-.36-.24,1.1,1.1,0,0,0-.33-.05,1,1,0,0,0-.32.05.83.83,0,0,0-.25.12,3.3,3.3,0,0,0-.55.44c-.21.19-.46.44-.77.76h0l.31.29-.29-.31,0,0,.31.29-.29-.31-.18.15c-.78.62-3.33,2.52-5.74,4.24-1.2.87-2.38,1.69-3.28,2.28-.45.3-.84.55-1.11.7a1.85,1.85,0,0,1-.3.16l0,0h0l.21.61v-.64a.41.41,0,0,0-.21,0l.21.61v.3l.25-.91-6.64-1.86,2.35-11.36-.92-.19.35.88s.37-.16.93-.47h0c3-1.67,12.46-8.48,16.82-27.85a30.8,30.8,0,0,0,.78-6.8,27.07,27.07,0,0,0-2.92-12.28,35.07,35.07,0,0,0-9.78-11.58,35.64,35.64,0,0,0-5.89-3.8l-.4.86.55.77L295,140.42l-12.43,4.32L278.16,132l1.48,13.1-11.84-2.25h-.05a50.12,50.12,0,0,0-5.08-.26c-10.22,0-17.37,3.49-22.24,8.64s-7.53,11.86-9.09,18.28a100.39,100.39,0,0,0-2.06,12.73l.95.1.94.1a96.78,96.78,0,0,1,2-12.48c1.51-6.25,4.07-12.64,8.62-17.42s11.07-8,20.87-8.06a46.68,46.68,0,0,1,4.89.26l.1-1-.18.93,14.33,2.73-.82-7.27-.94.11-.9.31,2.27,6.52,8-2.79-.31-.9-.55-.77-6.21,4.45,1.45.69,0,0a37.27,37.27,0,0,1,9.14,6.8c4.26,4.33,8.33,10.65,8.33,19.13a28.9,28.9,0,0,1-.74,6.38c-4.27,18.88-13.32,25.15-15.9,26.62h0c-.24.14-.42.23-.54.29l-.13.06h0l-.47.19-2.81,13.58,8.47,2.38h.13a1.06,1.06,0,0,0,.4-.07,2.86,2.86,0,0,0,.47-.22c.59-.32,1.49-.91,2.58-1.66,1.61-1.12,3.6-2.55,5.21-3.74.81-.6,1.53-1.14,2.06-1.55.27-.2.5-.37.66-.51l.22-.17.18-.16h0c.35-.37.61-.62.78-.77l.16-.13,0,0,0,0h0l0,0,0,0-.31-.49.23.53.08,0-.31-.49.23.53-.34-.79v.86a.86.86,0,0,0,.34-.07l-.34-.79v-.07l-.31.87a.77.77,0,0,0,.31.06v-.93l-.31.87.31-.87-.8.47a1,1,0,0,0,.49.4l.31-.87-.8.47.8-.47h-.93a.88.88,0,0,0,.13.47l.8-.47h-.06l-.82-.3a1,1,0,0,0-.05.3h.87l-.82-.3.6.22-.56-.3,0,.08.6.22-.56-.3.15.08-.14-.09h0l.15.08-.14-.09a6.39,6.39,0,0,1-.55.62,37.61,37.61,0,0,1-7.72,5.83,53.16,53.16,0,0,1-16,6.18,18.52,18.52,0,0,1-4.21.41,123.66,123.66,0,0,1-16-1.58,16.16,16.16,0,0,1-2-.51c-2.64-.79-6.63-2.28-8.57-3.05-.29-.12-1-.45-1.78-.87-1.2-.63-2.72-1.47-3.93-2.18-.6-.35-1.12-.67-1.48-.9l-.37-.27,0,0h0l-.35.38.41-.31-.06-.07-.35.38.41-.31-.65.49.74-.34-.09-.15-.65.49.74-.34-.82.38h.9a.9.9,0,0,0-.08-.38l-.82.38h0l.77.52a1,1,0,0,0,.16-.52h-.93l.77.52-.76-.52.26.88a.89.89,0,0,0,.5-.36l-.76-.52.26.88-.24-.81v.85a.67.67,0,0,0,.24,0l-.24-.81v0l-.09.85h.09v-.85l-.09.85.07-.65-.08.65h0l.07-.65-.08.65h0l23.19,1.94.59-6.33-.94-.09-.44,0c-1-.1-3.62-.43-6.67-1.07a39.76,39.76,0,0,1-9.24-3,22.84,22.84,0,0,1-8.55-8.29A29,29,0,0,1,231,186a32,32,0,0,1,.19-3.48Z"/><path class="cls-2" d="M232.26,169.76c4.56-4.46,11.29-10.72,11.29-10.72a35.13,35.13,0,0,0,13.76,9.49c9,3.53,18.33.25,18.33.25-1.56,3.95,1.69,9.21,1.69,9.21s14.59-4.5,13.7,8.67-13.19,8.81-12.31,10.59c.62,1.26,4.34,7.08,6.44,10.36,2.79-1.58,12-8.11,16.37-27.24C306.64,157.7,284.24,147,284.24,147l4.9-3.52L282,145.94l-2-5.62.68,6-13.07-2.49C243.84,141.42,235.57,156.1,232.26,169.76Z"/><path class="cls-2" d="M284.71,183.3l.05,0-.05,0h0l.05,0-.05,0a9.69,9.69,0,0,1-1.79,1.95,13.3,13.3,0,0,1-5.48,2.8l.46,1.84a15.38,15.38,0,0,0,6.39-3.32,10.87,10.87,0,0,0,2-2.28l-1.61-1Z"/><path class="cls-2" d="M270.34,174.16a15.48,15.48,0,0,0-8-2,21,21,0,0,0-7.92,1.62l.71,1.76a19.33,19.33,0,0,1,7.21-1.49,15.33,15.33,0,0,1,5.17.87,11,11,0,0,1,1.37.58l.34.19.07,0h0l.07-.11-.07.11h0l.07-.11-.07.11,1-1.58Z"/><path class="cls-2" d="M233.32,173.24l.05,0a29.09,29.09,0,0,1,3.19-1.14,20.86,20.86,0,0,1,5.77-1,6.91,6.91,0,0,1,4.47,1.3,4.66,4.66,0,0,1,1.35,1.9,8.63,8.63,0,0,1,.53,3.26,30.23,30.23,0,0,1-2.2,10l1.78.65a32.32,32.32,0,0,0,2.32-10.61,10.6,10.6,0,0,0-.68-4,6.38,6.38,0,0,0-3.17-3.48,9.74,9.74,0,0,0-4.4-.91,23.24,23.24,0,0,0-6.66,1.15,30.82,30.82,0,0,0-3.13,1.15l.78,1.72Z"/><path class="cls-2" d="M240.38,186.78a9.46,9.46,0,0,0,.85,3,7,7,0,0,0,1.66,2.25A5.83,5.83,0,0,0,246,193.4l.27-1.88a3.89,3.89,0,0,1-2.08-.93,5.69,5.69,0,0,1-1.55-2.52,7.85,7.85,0,0,1-.27-1.06c0-.13,0-.23,0-.3v-.09l-.15,0,.15,0h0l-.15,0,.15,0-1.88.17Z"/><path class="cls-2" d="M237.55,178.37a3.43,3.43,0,1,0,4-2.73A3.43,3.43,0,0,0,237.55,178.37Z"/><path class="cls-2" d="M257.65,180.49a3.42,3.42,0,1,0,4-2.73A3.41,3.41,0,0,0,257.65,180.49Z"/><path class="cls-1" d="M353.59,57.35A51.76,51.76,0,1,1,301.83,5.6,51.71,51.71,0,0,1,353.59,57.35Z"/><path class="cls-2" d="M353.59,57.35h-1.33a50.43,50.43,0,1,1-14.77-35.66,50.51,50.51,0,0,1,14.77,35.66h2.65a52.84,52.84,0,1,0-3.3,18.47,53.07,53.07,0,0,0,3.3-18.47Z"/><path d="M340.88,88.9a12.66,12.66,0,0,0,.76,1.52,51.73,51.73,0,0,1-73,6.61l-1.12-4.12s.62-6.29,1.43-14.26c1.3-12.81,3.07-30,3.47-32.37.64-3.9,6.46-20.35,19.22-20.15S313,24,325.25,35.86,331.64,58,331.64,58c4.85,6.76,2.59,7.58-.13,13.43-1.47,3.16.55,6,3.16,9C336.9,83,339.56,85.74,340.88,88.9Z"/><path class="cls-3" d="M350.37,75.36a51.79,51.79,0,0,1-97.33-.7,82.06,82.06,0,0,1,15.88,4,127.6,127.6,0,0,1,21.64,10.13q3.35.7,6.19,1.09c9.39,1.31,15,.33,18.63-1,2.82-1,4.47-2.21,5.83-2.72,1.68-.63,7.23-3.22,13.46-5.74C340.09,78.24,346,76.1,350.37,75.36Z"/><path class="cls-2" d="M350.37,75.36l-.68-.25a51.06,51.06,0,0,1-96-.7l-.68.25-.1.71a82.34,82.34,0,0,1,15.74,4A126.49,126.49,0,0,1,290.19,89.4l.1.06.12,0q3.36.7,6.24,1.09a59.18,59.18,0,0,0,8.32.63,30.91,30.91,0,0,0,10.65-1.64c2.9-1,4.64-2.29,5.85-2.72.88-.34,2.67-1.14,5-2.18s5.31-2.31,8.42-3.57c5.4-2.18,11.32-4.31,15.55-5l-.12-.71-.68-.25.68.25-.13-.72c-4.45.77-10.4,2.92-15.84,5.12-3.13,1.26-6.08,2.54-8.46,3.58s-4.19,1.85-5,2.15c-1.52.58-3.09,1.74-5.82,2.72A29.65,29.65,0,0,1,305,89.76a59.42,59.42,0,0,1-8.12-.61c-1.89-.26-3.93-.61-6.14-1.08l-.15.71.36-.63A127.45,127.45,0,0,0,269.16,78a82.86,82.86,0,0,0-16-4L252,73.77l.4,1.13a52.5,52.5,0,0,0,98.68.71l.44-1.18-1.24.21Z"/><path class="cls-3" d="M303.8,32.87s-11.83-5.9-19.49,6C283.58,40,282.94,41,282.4,42c-5.19,9.1-2.75,11-3.84,15.94-1.2,5.42-2.51,20.89,16.75,26l4,16.44a3.41,3.41,0,0,0,4.66,2.33A19.56,19.56,0,0,0,315.29,80.2l-.15-.61a24.2,24.2,0,0,0,8-8.3s8.9,1.31,10.51-6-7-6.81-7-6.81-5.16,4.55-8.34,2.09S305.34,41.75,303.8,32.87Z"/><path class="cls-2" d="M303.8,32.87l.32-.63A17.35,17.35,0,0,0,297,30.7a14.68,14.68,0,0,0-6.68,1.56,17,17,0,0,0-6.57,6.21c-.74,1.14-1.39,2.2-1.94,3.18a29.43,29.43,0,0,0-3.06,7,16.88,16.88,0,0,0-.55,4.61c0,.42,0,.82,0,1.22a14.67,14.67,0,0,1-.31,3.32,26.32,26.32,0,0,0-.62,5.68,21.08,21.08,0,0,0,3.35,11.78c2.62,3.93,7.14,7.45,14.53,9.41l.18-.69-.69.17,4,16.44a4.12,4.12,0,0,0,4,3.15,4.06,4.06,0,0,0,1.62-.34A20.24,20.24,0,0,0,316,80l-.15-.61-.69.16.37.61a25,25,0,0,0,8.23-8.58l-.63-.33L323,72a13.27,13.27,0,0,0,1.67.1A12.47,12.47,0,0,0,330,71a7.87,7.87,0,0,0,2.64-2,8.2,8.2,0,0,0,1.68-3.52,8.53,8.53,0,0,0,.22-1.86,5.17,5.17,0,0,0-1-3.25,6.52,6.52,0,0,0-3.59-2.2,12.06,12.06,0,0,0-3-.37h-.63l-.18.16,0,0a14.52,14.52,0,0,1-2,1.43,7.73,7.73,0,0,1-3.57,1.19,2.86,2.86,0,0,1-1.79-.58,9.52,9.52,0,0,1-1.36-1.42,78,78,0,0,1-7.41-11.89c-2.55-4.92-4.77-10.22-5.42-14l-.06-.35-.32-.16-.32.63-.7.13c.81,4.59,3.65,10.92,6.69,16.48,1.52,2.77,3.09,5.34,4.49,7.39.7,1,1.36,1.91,2,2.63a10.17,10.17,0,0,0,1.59,1.65,4.32,4.32,0,0,0,2.66.87A9.32,9.32,0,0,0,325,60.51,15,15,0,0,0,327.06,59l-.47-.53.05.71h.29a9.8,9.8,0,0,1,3.7.7,4.33,4.33,0,0,1,1.75,1.31,3.76,3.76,0,0,1,.73,2.39,7,7,0,0,1-.18,1.55,6.75,6.75,0,0,1-1.38,2.91,7,7,0,0,1-3.41,2.14,12.24,12.24,0,0,1-3.47.48c-.45,0-.82,0-1.07,0l-.3,0h-.09l-.5-.07-.23.45a20.86,20.86,0,0,1-4.82,5.86c-.81.7-1.54,1.24-2.06,1.61-.26.19-.47.33-.61.42l-.17.1-.05,0-.44.27.26,1.12a18.82,18.82,0,0,1-10.9,21.7,2.52,2.52,0,0,1-1.06.22,2.7,2.7,0,0,1-2.63-2.06l-4.1-16.85-.4-.1c-7.13-1.91-11.29-5.2-13.71-8.83a19.58,19.58,0,0,1-3.11-11,25,25,0,0,1,.58-5.37,16.29,16.29,0,0,0,.34-3.63c0-.41,0-.81,0-1.22a16.16,16.16,0,0,1,.5-4.25A28.42,28.42,0,0,1,283,42.35c.55-1,1.17-2,1.9-3.11a15.71,15.71,0,0,1,6-5.71,13.17,13.17,0,0,1,6-1.41,16.5,16.5,0,0,1,4.67.7c.59.18,1.06.35,1.37.48l.36.16.09,0h0l.31-.64-.7.13Z"/><path class="cls-2" d="M287,64.3a6.76,6.76,0,0,0,3.25-1.89c1.6-1.59,3.22-4.45,3.53-9.44,0-.28,0-.54,0-.8a9.71,9.71,0,0,0-1.8-5.82A12.61,12.61,0,0,0,286,42.17a17,17,0,0,0-3.54-.88l-.15,1.42h0a15.75,15.75,0,0,1,5.28,1.75,9.74,9.74,0,0,1,3.27,2.85,8.22,8.22,0,0,1,1.44,4.86c0,.23,0,.47,0,.71-.3,4.73-1.78,7.19-3.11,8.52a6.2,6.2,0,0,1-1.78,1.24,3.8,3.8,0,0,1-.55.21l-.13,0h0l.07.42-.07-.42h0l.07.42-.07-.42L287,64.3Z"/><path class="cls-2" d="M300.75,46.42l0,0a13.15,13.15,0,0,1,2-1.47,7.53,7.53,0,0,1,3.65-1.2,3.3,3.3,0,0,1,.77.08l.3-1.4a5.63,5.63,0,0,0-1.07-.11,9.17,9.17,0,0,0-4.61,1.55,15.54,15.54,0,0,0-2.06,1.52l1,1.05Z"/><path class="cls-2" d="M289.77,68.47a11.31,11.31,0,0,0,3.51.57,8.15,8.15,0,0,0,2.88-.49,6.31,6.31,0,0,0,2.71-2l-1.12-.88a4.91,4.91,0,0,1-2.1,1.53,6.75,6.75,0,0,1-2.37.4,10.44,10.44,0,0,1-2.16-.25c-.28-.06-.5-.13-.65-.17l-.17,0,0,0h0l-.48,1.34Z"/><path class="cls-2" d="M289,52.8a2.26,2.26,0,1,1-1.72-2.7A2.25,2.25,0,0,1,289,52.8Z"/><path class="cls-2" d="M306.21,51.34a2.26,2.26,0,1,1-1.72-2.7A2.25,2.25,0,0,1,306.21,51.34Z"/><path class="cls-1" d="M187.6,226.48s-3,3-7.3,7.33c-9.66,9.65-26.14,26-32,31.08-8.52,7.35-43.35,27.48-73.16-5s-3.87-69.68-1.93-72c1.42-1.71,19.9-20.27,29.66-30.05l6-5.95c4.51-5.67,7.48-2.71,7.48-2.71s16,15.74,16.9,17,.39,5.94.39,5.94-3.81,3.67-8.91,8.66c-7.48,7.31-17.73,17.47-22.74,23-8.44,9.29-12.39,21,.68,33.38s28.73,0,28.73,0,17.5-17.81,27.17-27.22c2.86-2.79,5-4.84,5.86-5.47a6.7,6.7,0,0,1,7.4-.34s11,11.7,15,14.62S187.6,226.48,187.6,226.48Z"/><path class="cls-2" d="M187.6,226.48l-1.22-1.21s-.74.75-2,2l-5.28,5.29c-4.82,4.83-11.35,11.32-17.41,17.25-3,3-5.93,5.77-8.44,8.16s-4.64,4.36-6.06,5.59a53.61,53.61,0,0,1-13,7.79,53.91,53.91,0,0,1-21.46,4.71,44.26,44.26,0,0,1-17.93-3.75A55.16,55.16,0,0,1,76.4,258.69C66,247.28,62.62,235.47,62.61,224.76a61.5,61.5,0,0,1,5.54-24.57,68.32,68.32,0,0,1,4.07-7.81c.59-1,1.1-1.76,1.51-2.34s.7-1,.79-1.08h0c0-.06.19-.22.39-.44.79-.84,2.45-2.55,4.61-4.76C86,177.12,97.22,165.9,104.08,159l4.3-4.31c1.05-1,1.64-1.64,1.64-1.64l.08-.07.05-.08a9.71,9.71,0,0,1,2.54-2.37,3,3,0,0,1,1.47-.47,1.6,1.6,0,0,1,.77.19l.17.11h0l.58-.65-.62.62,0,0,.58-.65-.62.62h0l2.51,2.47c2.27,2.25,5.69,5.64,8.63,8.59,1.47,1.47,2.82,2.84,3.83,3.89.51.52.94,1,1.25,1.3l.36.41.1.12,0,0,.27-.2-.28.19h0l.27-.2-.28.19.28-.19-.29.16v0l.28-.19-.29.16h0a3.46,3.46,0,0,1,.17.79,12.68,12.68,0,0,1,.07,1.43c0,.66,0,1.31-.07,1.79,0,.24,0,.44-.05.57v.2l1.71.19-1.19-1.24s-3.82,3.68-8.92,8.67c-3.75,3.66-8.18,8-12.32,12.18s-8,8.08-10.5,10.89A36.62,36.62,0,0,0,94.8,211a21.65,21.65,0,0,0-2.36,9.57,20,20,0,0,0,2.13,8.87,32,32,0,0,0,6.86,9,21.93,21.93,0,0,0,7.23,4.66,20.1,20.1,0,0,0,7.21,1.32,27,27,0,0,0,11.69-2.93,28.69,28.69,0,0,0,4.85-2.95l.08-.06.08-.08.77-.78c3.47-3.53,17.93-18.2,26.36-26.41,1.43-1.39,2.69-2.59,3.68-3.52.49-.46.92-.86,1.27-1.17s.62-.54.76-.64a4.47,4.47,0,0,1,2.78-1,5.64,5.64,0,0,1,1.95.37c.24.1.44.19.57.26l.13.07h0l.34-.56-.35.56h0l.34-.56-.35.56.92-1.45-1.25,1.17s2.76,2.94,6,6.25c1.63,1.65,3.39,3.4,5,4.93a47.82,47.82,0,0,0,4.17,3.65,3.24,3.24,0,0,1,1.05,1.22,3.09,3.09,0,0,1,.26,1.28,5.45,5.45,0,0,1-.45,2.06,4.77,4.77,0,0,1-.32.67l-.09.17,0,0h0l.8.5-.8-.51h0l.8.5-.8-.51,1.45.93-1.22-1.21,1.22,1.21,1.44.93a8.63,8.63,0,0,0,.72-1.44,8.88,8.88,0,0,0,.71-3.35,6.45,6.45,0,0,0-.59-2.73,6.62,6.62,0,0,0-2.12-2.53,47,47,0,0,1-3.85-3.39c-2.35-2.23-5.08-5-7.21-7.19L174.06,204l-1-1.09-.15-.16-.18-.11a7.2,7.2,0,0,0-1.33-.65,9.06,9.06,0,0,0-3.17-.6,7.93,7.93,0,0,0-4.86,1.67c-.27.21-.58.47-1,.81-1.14,1-2.9,2.7-5.06,4.8-9.69,9.44-27.19,27.24-27.19,27.24l1.22,1.21-1.06-1.35.15.19-.15-.19h0l.15.19-.15-.19a26.5,26.5,0,0,1-4.36,2.62,23.47,23.47,0,0,1-10,2.51,16.43,16.43,0,0,1-6-1.09,18.5,18.5,0,0,1-6.11-3.94,28.6,28.6,0,0,1-6.13-8,16.48,16.48,0,0,1-1.78-7.36,18.16,18.16,0,0,1,2-8.06,32.85,32.85,0,0,1,5.31-7.57c2.47-2.72,6.28-6.64,10.39-10.77s8.55-8.5,12.28-12.15c2.55-2.5,4.78-4.66,6.36-6.2l1.87-1.8.67-.65.45-.43.07-.62s.15-1.4.16-2.94a16.36,16.36,0,0,0-.13-2.08,7.91,7.91,0,0,0-.22-1,4,4,0,0,0-.5-1.06,3.42,3.42,0,0,0-.22-.28c-.28-.34-.71-.8-1.3-1.41-2.05-2.15-5.94-6-9.32-9.39l-6.26-6.19h0a4.31,4.31,0,0,0-1-.68,5,5,0,0,0-2.38-.59,6.29,6.29,0,0,0-3.21.93,13,13,0,0,0-3.49,3.2l1.35,1.07-1.22-1.21-5.94,5.95c-4.88,4.89-12,12-18,18.05-3,3-5.76,5.83-7.85,8-1,1.07-1.93,2-2.59,2.67-.34.35-.62.65-.84.89s-.39.42-.52.58h0a16.1,16.1,0,0,0-1,1.33,69.94,69.94,0,0,0-7,13.34,63.74,63.74,0,0,0-4.73,23.33c0,11.43,3.67,24.25,14.69,36.26a58.87,58.87,0,0,0,19.58,14.47,47.61,47.61,0,0,0,19.31,4,57.54,57.54,0,0,0,22.84-5,56.82,56.82,0,0,0,13.82-8.34c1.51-1.31,3.65-3.29,6.19-5.7,7.59-7.21,18.67-18.22,25.91-25.47,4.34-4.34,7.31-7.33,7.31-7.33l.13-.13.09-.15Z"/><polygon class="cls-2" points="77.69 123.94 87.79 135.87 93.65 125.71 101.35 134.06 103.88 131.73 93 119.95 87.25 129.92 80.31 121.72 77.69 123.94 77.69 123.94"/><polygon class="cls-2" points="182.95 155.4 174.65 171.09 187.73 171.09 182.29 184.6 185.48 185.88 192.82 167.65 180.35 167.65 185.99 157.01 182.95 155.41 182.95 155.4"/><polygon class="cls-2" points="176.17 264.26 176.17 282.33 188.17 277.3 188.17 291.36 191.61 291.36 191.61 272.13 179.61 277.16 179.61 264.26 176.17 264.26 176.17 264.26"/><path class="cls-2" d="M187.6,226.48s-3,3-7.3,7.33l-21.79-23.88c2.86-2.79,5-4.84,5.86-5.47a6.7,6.7,0,0,1,7.4-.34s11,11.7,15,14.62S187.6,226.48,187.6,226.48Z"/><path class="cls-3" d="M120.38,273.61s-28,14.71-33.94,16.12l-28.63,54L27,291.48,48.6,260.12s-11-22,12.16-29.87,50.07-15.46,53-6.64c2.45,7.47-3,11.89-4.67,13.07,1.58-.92,6.44-3.08,8.55,3.78,2.48,8-3.33,13.35-3.64,13.63.24-.1,5.66-2.09,9.23,5.77C126.84,267.9,120.38,273.61,120.38,273.61Z"/><path class="cls-2" d="M120.38,273.61l-.87-1.66-1.21.64c-2.71,1.41-9.57,5-16.4,8.32-3.41,1.67-6.81,3.3-9.66,4.57-1.43.64-2.72,1.19-3.8,1.61a19,19,0,0,1-2.43.82l-.82.2L57.72,339.89,29.24,291.55l21.52-31.28-.49-1-.67.33.67-.33h0l-.67.33.67-.33A23.71,23.71,0,0,1,49,256.07a26,26,0,0,1-1.19-7.45,15.92,15.92,0,0,1,2.61-9.1c2-2.89,5.25-5.58,10.9-7.5,7.88-2.66,16.18-5.3,23.78-7.26s14.49-3.24,19.43-3.23a14.81,14.81,0,0,1,5.36.79,4.07,4.07,0,0,1,1.36.83,2.44,2.44,0,0,1,.66,1,10,10,0,0,1,.53,3.14,8.53,8.53,0,0,1-1.76,5.16,11.88,11.88,0,0,1-2.73,2.65l2,3.15a5.53,5.53,0,0,1,2.57-.8,2.64,2.64,0,0,1,.81.12,2.61,2.61,0,0,1,1.18.85,7.24,7.24,0,0,1,1.27,2.55,11.65,11.65,0,0,1,.53,3.39,11.23,11.23,0,0,1-1.76,5.94,12.9,12.9,0,0,1-1.26,1.71,8.22,8.22,0,0,1-.63.65l-7.43,6.76,9.37-3.63v0h0v0a3.72,3.72,0,0,1,1.14-.17,4.51,4.51,0,0,1,2.53.8,9.49,9.49,0,0,1,3.18,4.17,10,10,0,0,1,1,4.16,10.14,10.14,0,0,1-1.67,5.41,12.39,12.39,0,0,1-1.16,1.53c-.16.18-.29.3-.37.38l-.09.09h0l.43.48-.43-.48h0l.43.48-.43-.48,1.24,1.4-.87-1.66.87,1.66,1.24,1.4a13.58,13.58,0,0,0,3.27-15.93,13.2,13.2,0,0,0-4.51-5.74,8.34,8.34,0,0,0-4.6-1.42,7.12,7.12,0,0,0-2.5.42l.68,1.75,1.26,1.38c.09-.09.45-.42.91-.95a15.85,15.85,0,0,0,2.49-3.77,14.58,14.58,0,0,0,1.47-6.35,15.15,15.15,0,0,0-.7-4.5,9.64,9.64,0,0,0-2.86-4.73,6.13,6.13,0,0,0-2-1.11,6.44,6.44,0,0,0-2-.31,9.21,9.21,0,0,0-4.45,1.31l.94,1.62,1.06,1.54a15.43,15.43,0,0,0,3.62-3.51,12.38,12.38,0,0,0,2.49-7.38,13.69,13.69,0,0,0-.72-4.3,6.21,6.21,0,0,0-1.61-2.57,8.89,8.89,0,0,0-4-2.1,21.45,21.45,0,0,0-5.27-.57c-5.54,0-12.62,1.36-20.37,3.35s-16.11,4.66-24,7.34c-6.24,2.1-10.34,5.3-12.8,8.94a19.74,19.74,0,0,0-3.25,11.2,29.51,29.51,0,0,0,1.39,8.66A28,28,0,0,0,46.92,261l1.68-.83-1.54-1.06L24.81,291.4l33.08,56.14L88.1,290.61l-1.66-.88.43,1.82a26.25,26.25,0,0,0,3.44-1.18c4.8-1.93,12.49-5.69,19-9s11.9-6.11,11.9-6.12l.2-.1.17-.15Z"/><polyline class="cls-2" points="107.63 235.37 95.39 242.23 97.22 245.49 109.46 238.63"/><polyline class="cls-2" points="113.03 252.46 103.97 257.54 105.8 260.8 114.86 255.72"/><polygon class="cls-4" points="24.01 285.36 60.89 348.84 52.69 362 14.72 291.17 24.01 285.36"/><polygon class="cls-2" points="24.01 285.36 22.52 286.22 58.89 348.81 52.8 358.57 16.99 291.77 24.92 286.82 24.01 285.36 22.52 286.22 24.01 285.36 23.1 283.9 12.45 290.56 52.58 365.43 62.9 348.87 24.6 282.96 23.1 283.9 24.01 285.36"/><path class="cls-2" d="M133.58,172.12s-3.81,3.67-8.91,8.66l-21.81-23,6-5.95c4.51-5.67,7.48-2.71,7.48-2.71s16,15.74,16.9,17S133.58,172.12,133.58,172.12Z"/></svg>