<svg id="Layer_1" data-name="Layer 1" xmlns="http://www.w3.org/2000/svg" viewBox="0 0 368 368"><defs><style>.cls-1{fill:#ef4748;}.cls-2{fill:#231f20;}.cls-3{fill:#fff;}.cls-4{fill:#2f3841;}</style></defs><path class="cls-1" d="M49.27,93.64s-11.78-51.82-11.78-54-3.19-22,19.11-26.76,95.89-4.46,112.45-6.37,31.86,5.42,31.54,20.39-4.46,55.43-6.37,65-6.69,21.34-28,21.34-20.21-1.13-21.34,0-11.19,18.83-23.5,17.27S95.68,112,91.75,111.27,56.35,119.55,49.27,93.64Z"/><path class="cls-2" d="M49.27,93.64l1.79-.41s-.19-.8-.51-2.23c-1.13-5-3.95-17.43-6.48-28.89C42.8,56.38,41.6,50.9,40.72,46.73c-.44-2.08-.8-3.83-1-5.11-.12-.64-.21-1.16-.28-1.53,0-.19,0-.34-.06-.44v-.1h0l-.69.05h.7v-.05l-.69.05h.7c0-.21,0-.41,0-.65,0-.7-.13-1.75-.13-3.07A22.92,22.92,0,0,1,42,24.22a18,18,0,0,1,5.29-5.64,26.4,26.4,0,0,1,9.66-4c5.39-1.15,14.14-2,24.39-2.7,15.39-1,34.22-1.56,50.75-2,8.27-.24,16-.46,22.38-.71s11.55-.53,14.76-.9A43.39,43.39,0,0,1,174.18,8c6.85,0,13.1,1.72,17.51,4.86a17,17,0,0,1,5.18,5.72,16.15,16.15,0,0,1,1.89,7.82v.42h0c-.16,7.37-1.27,21.23-2.58,34.38-.66,6.58-1.36,13-2,18.34s-1.28,9.66-1.74,12a35.11,35.11,0,0,1-2.07,7,19,19,0,0,1-7.4,8.92c-3.71,2.35-9,3.95-16.77,3.95-7.09,0-11.68-.13-14.69-.25-1.5-.06-2.61-.13-3.46-.17s-1.41-.08-1.9-.09a4.64,4.64,0,0,0-.73,0,2.87,2.87,0,0,0-.6.14,2.67,2.67,0,0,0-.82.46,3.83,3.83,0,0,0-.44.4h0a3.29,3.29,0,0,0-.27.31c-.14.17-.27.36-.44.59-.6.86-1.54,2.27-2.81,4a44.73,44.73,0,0,1-7.48,8,21.51,21.51,0,0,1-4.7,2.92,12.41,12.41,0,0,1-5,1.11,12,12,0,0,1-1.32-.08h0a22.92,22.92,0,0,1-8.56-3.31,85,85,0,0,1-12.21-9.45c-1.78-1.57-3.38-3-4.77-4.13a21.77,21.77,0,0,0-2-1.43,5.89,5.89,0,0,0-2-.85h0a4.74,4.74,0,0,0-1-.08c-.68,0-1.45.07-2.37.16a102.07,102.07,0,0,1-11.34.82c-5.15,0-10.83-.71-15.6-3.2A19.88,19.88,0,0,1,55.4,102,23.67,23.67,0,0,1,51,93.16l-1.77.48,1.79-.41-1.79.41-1.76.48a27.42,27.42,0,0,0,5.05,10.19,24.66,24.66,0,0,0,11.83,7.89,42.23,42.23,0,0,0,13,1.83,82.57,82.57,0,0,0,8.56-.5l3.15-.34c.88-.09,1.59-.14,2-.14h.29v0h0v0h0a2.16,2.16,0,0,1,.49.23,16.3,16.3,0,0,1,1.93,1.39c1.38,1.12,3.13,2.69,5.1,4.43a97.94,97.94,0,0,0,10.2,8.1c3.76,2.49,7.79,4.51,12,5.05h0a15,15,0,0,0,1.77.11,17.52,17.52,0,0,0,9.13-2.83,40.4,40.4,0,0,0,9.9-9.26c1.23-1.56,2.25-3,3-4.06l.91-1.32c.12-.16.21-.3.28-.38l.06-.09h0l-.48-.41.44.44,0,0-.48-.41.44.44h0l.1-.11,0,0-.53-.62.21.78a1,1,0,0,0,.32-.16l-.53-.62.21.78-.13-.5.08.51h0l-.13-.5.08.51,0-.11,0,.11h0l0-.11,0,.11h.23c.3,0,.86,0,1.7.08,2.54.14,7.65.43,18.35.43a40.39,40.39,0,0,0,13.74-2.1,22.64,22.64,0,0,0,11.75-9.13A33.08,33.08,0,0,0,196,92.19c.5-2.49,1.11-6.82,1.78-12.21,1-8.08,2.09-18.52,3-28.35s1.53-19,1.66-24.74h0v-.49a19.9,19.9,0,0,0-2.34-9.57,22.13,22.13,0,0,0-10.5-9.38,37.07,37.07,0,0,0-15.4-3.11,48.36,48.36,0,0,0-5.34.31c-4,.47-11.72.81-21.27,1.12-14.35.47-32.94.89-50,1.63C89,7.77,80.8,8.22,73.69,8.81A150,150,0,0,0,56.22,11a30.09,30.09,0,0,0-11,4.54,21.63,21.63,0,0,0-8.09,10.47,28.39,28.39,0,0,0-1.64,9.82c0,1,0,1.83.08,2.49,0,.32,0,.6.06.82s0,.38,0,.41a3.45,3.45,0,0,0,.05.6c.1.74.35,2,.72,3.88,2.59,12.75,11.06,50,11.06,50v.07Z"/><path class="cls-3" d="M92.88,44.23s-2-9.49,10.62-11.89,12.88,7.5,11.61,11.89-4.43,9.48-10.92,9.48S92.88,44.23,92.88,44.23Z"/><path class="cls-2" d="M92.88,44.23l1.79-.38-.55.12.55-.1v0l-.55.12.55-.1A7.85,7.85,0,0,1,96,38.32a8.73,8.73,0,0,1,2.68-2.38,16.27,16.27,0,0,1,5.14-1.81,18.06,18.06,0,0,1,3.26-.34,8.24,8.24,0,0,1,3.42.63A4.88,4.88,0,0,1,113,36.88a8.76,8.76,0,0,1,.74,3.69,11.86,11.86,0,0,1-.43,3.15,13.67,13.67,0,0,1-3.06,5.63,8.3,8.3,0,0,1-2.58,1.83,8.52,8.52,0,0,1-3.52.7,6.36,6.36,0,0,1-3.51-1.18,17.83,17.83,0,0,1-4.44-4.53c-.56-.78-1-1.49-1.3-2l-.33-.59-.08-.15,0,0h0l-.33.17.33-.17h0l-.33.17.33-.17-1.63.83,1.79-.38-1.79.38-1.63.83a29.63,29.63,0,0,0,3.45,5.1,19.32,19.32,0,0,0,4,3.61,10.11,10.11,0,0,0,5.51,1.77,12.15,12.15,0,0,0,5-1,12.46,12.46,0,0,0,5.1-4.31,18.7,18.7,0,0,0,2.57-5.47,15.28,15.28,0,0,0,.57-4.17,13.42,13.42,0,0,0-.45-3.51,9.1,9.1,0,0,0-3.11-4.86,10.68,10.68,0,0,0-6.78-2.07,20.55,20.55,0,0,0-3.95.41,19.55,19.55,0,0,0-6.3,2.25A11.77,11.77,0,0,0,92,38a11.5,11.5,0,0,0-1,4.81,9.08,9.08,0,0,0,.15,1.77l0,.24.11.22Z"/><path class="cls-3" d="M83.39,83.45s-2.83-9.06,7.93-19,21.81-9.07,31,0S132.81,82,127.57,82.74s-19.82.57-21.81.71S85.38,87.55,83.39,83.45Z"/><path class="cls-2" d="M83.39,83.45l1.75-.55-.94.29.94-.28h0l-.94.29.94-.28,0-.15a9.65,9.65,0,0,1-.22-2.21,15.71,15.71,0,0,1,1.34-6.18,25.18,25.18,0,0,1,6.33-8.55,27.86,27.86,0,0,1,7.42-5,17.2,17.2,0,0,1,7.08-1.58,16.7,16.7,0,0,1,7.11,1.64,25.1,25.1,0,0,1,6.87,5,34,34,0,0,1,6,7.56,12.15,12.15,0,0,1,1.81,5.51,2.49,2.49,0,0,1-.39,1.54,1.24,1.24,0,0,1-.39.32,2.21,2.21,0,0,1-.71.22c-1.19.16-3.06.28-5.17.37-3.16.13-6.89.18-10,.22l-4.09,0-1.45,0-1,0c-.28,0-.56.07-1,.12-1.33.21-3.74.64-6.49,1a65.15,65.15,0,0,1-8.38.7,15.08,15.08,0,0,1-3.68-.35,3.14,3.14,0,0,1-.92-.35l-.15-.11v0l-.07,0,.07,0h0l-.07,0,.07,0-1.65.8,1.75-.55-1.75.55-1.64.79a4,4,0,0,0,1.51,1.64,8.45,8.45,0,0,0,3,1,22,22,0,0,0,3.54.24,72.34,72.34,0,0,0,10.07-.91c1.55-.23,2.94-.46,4-.64l1.35-.22.66-.09,1.2,0c2.06,0,6.06,0,10.11-.13,2,0,4.07-.09,5.9-.18s3.47-.2,4.71-.37a5.49,5.49,0,0,0,2-.62,4.89,4.89,0,0,0,2.07-2.15,6.57,6.57,0,0,0,.63-2.93,15.58,15.58,0,0,0-2.27-7.29,37.91,37.91,0,0,0-6.59-8.39,28.74,28.74,0,0,0-7.89-5.65,20.16,20.16,0,0,0-8.66-2,20.74,20.74,0,0,0-8.57,1.9,31.44,31.44,0,0,0-8.41,5.7,28.93,28.93,0,0,0-7.22,9.8,19.46,19.46,0,0,0-1.63,7.62A11.93,11.93,0,0,0,81.65,84l0,.13.06.12Z"/><path class="cls-3" d="M155.35,33.43l2.13,38.87s6.05.53,6.47,4-5.2,3.93-5.2,3.93L147,80.9S142.82,80.58,143,77s4.89-3.61,5.42-4.67S147,41.5,147,41.5s-.65-1.24-3.93-1.59-.83-6,0-6.48S153.33,23.35,155.35,33.43Z"/><path class="cls-2" d="M155.35,33.43l-1.82.1L155.74,74l1.58.14h0a11.67,11.67,0,0,1,2.73.64,5.22,5.22,0,0,1,1.55.88,2,2,0,0,1,.39.46,1.33,1.33,0,0,1,.15.45v.15a.92.92,0,0,1-.06.3,1.41,1.41,0,0,1-.54.55,6,6,0,0,1-1.88.71l-.79.15-.22,0h0l.14,1.82-.1-1.83-11.79.64.1,1.83.14-1.83-.07,1,.09-1h0l-.07,1,.09-1H147a4,4,0,0,1-1.45-.52,1.58,1.58,0,0,1-.5-.5,1.43,1.43,0,0,1-.19-.81v-.14h0a1.41,1.41,0,0,1,.39-1,2.68,2.68,0,0,1,.78-.58,15.29,15.29,0,0,1,1.83-.77,8.31,8.31,0,0,0,1-.46,3.57,3.57,0,0,0,.58-.4,2.62,2.62,0,0,0,.61-.77h0a2.27,2.27,0,0,0,.16-.45,3,3,0,0,0,.07-.44,13.13,13.13,0,0,0,.05-1.36c0-1.61-.1-4.21-.25-7.26-.44-9.15-1.33-22.21-1.33-22.22l0-.39-.18-.34a3.75,3.75,0,0,0-1.39-1.37,9.47,9.47,0,0,0-4-1.19l-.09,0h0l-.09.23.16-.18-.07,0-.09.23.16-.18-.18.2.23-.14-.05-.06-.18.2.23-.14h0a1.38,1.38,0,0,1,0-.37,5.73,5.73,0,0,1,.49-2,6,6,0,0,1,.41-.81l.1-.14-.76-.65.48.86a1.09,1.09,0,0,0,.28-.21l-.76-.65.48.86h0a2.82,2.82,0,0,0,.37-.25c.17-.13.34-.27.54-.45A28.61,28.61,0,0,1,147.94,32a10.73,10.73,0,0,1,1.86-1,4.27,4.27,0,0,1,1.52-.35,1.81,1.81,0,0,1,.62.11,1.7,1.7,0,0,1,.78.7,6.58,6.58,0,0,1,.84,2.31l1.79-.36-1.82.1,1.82-.1,1.8-.36a8.79,8.79,0,0,0-2.09-4.5A5.11,5.11,0,0,0,151.32,27a8.37,8.37,0,0,0-3.43.83,20.5,20.5,0,0,0-4,2.56c-.54.42-1,.8-1.33,1.09l-.4.33-.09.07h0l.62.87-.52-.93-.1.06.62.87-.52-.93h0a2.62,2.62,0,0,0-.72.61,5.61,5.61,0,0,0-.69,1,12,12,0,0,0-.81,2,8.17,8.17,0,0,0-.38,2.37,4.21,4.21,0,0,0,.69,2.45,3.55,3.55,0,0,0,1.12,1,4.1,4.1,0,0,0,1.48.45,5.75,5.75,0,0,1,2.44.67.85.85,0,0,1,.2.15l.64-.59-.77.4a.88.88,0,0,0,.13.19l.64-.59-.77.4L147,41.5l-1.82.13s.1,1.45.24,3.72c.23,3.4.56,8.66.83,13.63s.5,9.67.5,11.88c0,.38,0,.68,0,.87v.14l.76.11-.75-.18v.07l.76.11-.75-.18,1.49.36-1.37-.68a2.1,2.1,0,0,0-.12.32l1.49.36-1.37-.68h0l1,.52-.79-.85a1,1,0,0,0-.25.33l1,.52-.79-.85.46.5-.41-.55-.05.05.46.5-.41-.55.11.14-.09-.15h0l.11.14-.09-.15-.3.14-1.3.5a8.28,8.28,0,0,0-2.65,1.56,5.12,5.12,0,0,0-1.67,3.57h0c0,.14,0,.27,0,.38a5.12,5.12,0,0,0,1,3.08,5.24,5.24,0,0,0,1.49,1.36,7,7,0,0,0,2.11.87,6.31,6.31,0,0,0,1,.18h.12l11.93-.64h0a12.78,12.78,0,0,0,3.12-.71,7,7,0,0,0,2.43-1.48,4.71,4.71,0,0,0,1-1.38,4.37,4.37,0,0,0,.39-1.82c0-.19,0-.39,0-.59a4.92,4.92,0,0,0-.64-1.89,6.22,6.22,0,0,0-2.19-2.12,12.11,12.11,0,0,0-3.52-1.33,15.4,15.4,0,0,0-1.78-.3l-.16,1.83,1.82-.1-2.13-39,0-.13Z"/><path class="cls-3" d="M305.29,144.15c-.37,24-15.89,38.88-27,42.85s-27.76,3.43-27.76,3.43l-.22,7.27L266.91,201c.66.11,12.79,3.43,12.33,3.91-3.16,3.31-11.79,11.14-15,13.28-13,8.57-35.63,2.07-50-3.85-12.09-5-20.58-10.72-21.9-15.39-.26-.92,8.71-1.9,9.66-2L214.5,195l-1.66-20.23s-.45-.26-1.23-.83c-4.18-3.1-17.82-15.48-21-47.21-3.75-37.6,34.55-50.46,34.55-50.46l-7.23-6.64,11,5.42,4.28-8.69L231,75.91l21.59-1.41c38.92.86,49.34,26.19,52,48.9A159.41,159.41,0,0,1,305.29,144.15Z"/><path class="cls-2" d="M305.29,144.15l-1.54,0a48,48,0,0,1-9.17,28c-5.12,7-11.58,11.54-16.76,13.39a61.33,61.33,0,0,1-14,2.82c-4.69.47-8.9.55-11.23.55l-1.43,0h-.49l-1.54,0-.3,10.11,17.85,3.51h0l.08-.45-.1.45h0l.08-.45-.1.45.74.18c1.38.37,4.25,1.16,6.74,1.92,1.25.38,2.4.75,3.22,1a8.74,8.74,0,0,1,.88.35l.08,0h0l.43-.72-.57.61a.61.61,0,0,0,.14.11l.43-.72-.57.61.93-1-1.16.7a1.68,1.68,0,0,0,.23.28l.93-1-1.16.7,1.26-.77h-1.47a1.45,1.45,0,0,0,.21.77l1.26-.77h0l-1.39-.57a1.7,1.7,0,0,0-.11.57h1.5l-1.39-.57,1.37.56-1.16-.92a1.8,1.8,0,0,0-.21.36l1.37.56-1.16-.92,1.21,1-1.12-1.06c-1.52,1.6-4.46,4.38-7.39,7-1.47,1.31-2.93,2.59-4.23,3.66s-2.42,1.94-3.13,2.41c-4.14,2.74-9.49,3.88-15.38,3.88-11.09,0-23.91-4-33.17-7.87a79.84,79.84,0,0,1-14.71-7.66,26.3,26.3,0,0,1-4.37-3.68,8,8,0,0,1-1.93-3v0l-1.34.4h1.4a1.34,1.34,0,0,0-.06-.4l-1.34.4h0l1.19.69a1.45,1.45,0,0,0,.18-.69h-1.37l1.19.69-.89-.52.55.89a1.16,1.16,0,0,0,.34-.37l-.89-.52.55.89-.09-.15.08.15h0l-.09-.15.08.15a3.12,3.12,0,0,1,.5-.18c.49-.14,1.24-.3,2.07-.45,1.25-.23,2.68-.43,3.86-.58s2.13-.25,2.36-.27h.06l14-2.13-1.84-22.47-.71-.4h0c-.05,0-.43-.26-1.06-.73h0c-1.95-1.44-6.25-5.15-10.47-12.4s-8.35-18.06-9.92-33.72c-.17-1.71-.25-3.36-.25-5a41.35,41.35,0,0,1,5.24-20.53c4.72-8.44,11.85-14.3,17.83-18A62.66,62.66,0,0,1,222.57,79c1-.44,1.75-.75,2.28-1l.61-.22.14,0,.05,0,2.46-.83-1.29-1.19,2.84,1.4,5-10.07-1.38-.68L231.75,66,229,77.58,252.64,76l-.1-1.54,0,1.54c9.57.21,17.31,1.92,23.59,4.68a40.42,40.42,0,0,1,19.73,18.19c4.14,7.57,6.19,16.27,7.16,24.66a141.36,141.36,0,0,1,.81,16.1c0,1.54,0,3,0,4.46l1.54,0,1.54,0c0-1.43,0-2.94,0-4.5a143.94,143.94,0,0,0-.83-16.45c-1.33-11.51-4.64-23.83-12.72-33.46a43.28,43.28,0,0,0-16-11.86C270.62,75,262.47,73.18,252.57,73h-.06l-19.57,1.28,5-20.88L228.26,73l-19.2-9.44,15.06,13.86,1-1.14-.49-1.45a62.63,62.63,0,0,0-17.89,10.31A51.31,51.31,0,0,0,194.45,99.6a44.4,44.4,0,0,0-5.63,22c0,1.7.08,3.46.26,5.27,1.61,16.05,5.88,27.31,10.32,35s9.06,11.68,11.3,13.33h0a14.68,14.68,0,0,0,1.39.94l.75-1.34-1.53.12,1.54,18.8-11.09,1.69.23,1.52-.13-1.53c-.28,0-1,.1-2,.22-1.45.17-3.41.44-5.06.76a17.22,17.22,0,0,0-2.19.53,4.28,4.28,0,0,0-.91.4,2.15,2.15,0,0,0-.53.44,1.58,1.58,0,0,0-.28.45,1.62,1.62,0,0,0-.15.68,1.92,1.92,0,0,0,.07.48l1.48-.44-1.48.42a11,11,0,0,0,2.62,4.3,36.47,36.47,0,0,0,8.08,6.16,93.5,93.5,0,0,0,12.09,5.93c9.49,3.91,22.54,8.09,34.35,8.1,6.26,0,12.23-1.18,17.07-4.38.9-.6,2.07-1.51,3.4-2.61,2-1.66,4.36-3.74,6.53-5.73s4.13-3.88,5.36-5.17l0,0,.05-.06a2,2,0,0,0,.23-.38,1.66,1.66,0,0,0,.12-.61,1.75,1.75,0,0,0-.2-.77,1.8,1.8,0,0,0-.47-.54,3.39,3.39,0,0,0-.57-.34c-.34-.16-.73-.31-1.21-.48-1.65-.6-4.25-1.37-6.54-2l-3-.83-1-.27-.34-.08-.27-.06-.26,1.52.3-1.51-15.27-3,.18-6-1.54,0-.05,1.54s.75,0,2,0c2.4,0,6.7-.08,11.53-.56a63.81,63.81,0,0,0,14.77-3c5.89-2.11,12.72-7,18.21-14.45a51.1,51.1,0,0,0,9.77-29.82Z"/><path class="cls-2" d="M304.5,123.4c-6.47-8.12-16.08-19.55-16.08-19.55s-8.81,8.66-24.08,12.58-29.65-3.24-29.65-3.24c1.73,6.68-4.55,14.53-4.55,14.53S207.48,117.56,206.3,139s19.54,16.83,17.77,19.53c-1.25,1.92-8.41,10.57-12.46,15.44-4.18-3.1-17.82-15.48-21-47.21-3.75-37.6,34.55-50.46,34.55-50.46l-7.23-6.64,11,5.42,4.28-8.69L231,75.91l21.59-1.41C291.46,75.36,301.88,100.69,304.5,123.4Z"/><path class="cls-2" d="M214.37,136.1a18.21,18.21,0,0,0,2.84,4.09,24.62,24.62,0,0,0,9.65,6.61l1.11-2.87a21.63,21.63,0,0,1-8.46-5.78,18.38,18.38,0,0,1-1.83-2.43c-.19-.3-.32-.54-.41-.7l-.09-.17v0l0,0h0l0,0h0l-2.8,1.28Z"/><path class="cls-2" d="M243.53,125.68l-.19-.38.19.38h0l-.19-.38.19.38a20.87,20.87,0,0,1,8.33-1.54,29.94,29.94,0,0,1,14.6,4l1.49-2.69a33,33,0,0,0-16.09-4.41,23.43,23.43,0,0,0-9.68,1.85l1.36,2.76Z"/><path class="cls-2" d="M303.71,126.17a53.07,53.07,0,0,0-5.79-2.9,32.47,32.47,0,0,0-12.1-2.91,14.22,14.22,0,0,0-4.75.75,10.48,10.48,0,0,0-5.74,4.88c-1.4,2.48-2.15,5.77-2.15,10.09A62.69,62.69,0,0,0,275,149.94l3-.69a59.92,59.92,0,0,1-1.77-13.17,21.59,21.59,0,0,1,.83-6.41,8.49,8.49,0,0,1,3.44-4.9,9.73,9.73,0,0,1,5.29-1.34,29.47,29.47,0,0,1,10.9,2.68c1.59.67,2.95,1.35,3.9,1.86l1.11.61.29.17.07,0h0l1.6-2.63Z"/><path class="cls-2" d="M276.54,158.65l.21.54-.2-.54h0l.21.54-.2-.54a12.47,12.47,0,0,1-3.86.63,8.15,8.15,0,0,1-3.27-.62,6.36,6.36,0,0,1-2.84-2.4L264,158a9.53,9.53,0,0,0,4.19,3.53,11.34,11.34,0,0,0,4.48.87,15.46,15.46,0,0,0,4.93-.83l-1.08-2.88Z"/><path class="cls-2" d="M294.26,136.23a5.57,5.57,0,1,1-5.92-5.19A5.56,5.56,0,0,1,294.26,136.23Z"/><path class="cls-2" d="M261.41,135.66a5.57,5.57,0,1,1-5.92-5.19A5.56,5.56,0,0,1,261.41,135.66Z"/><path class="cls-3" d="M161.28,330.81s-21.54,35.55-47.2,32.15-47.3-17.31-49.46-44.2,8.66-93.26,8-98.2S62.3,157.86,91.82,171c0,0,11.29-7.58,18.7.31,0,0,13.23-9.65,19.68,1.9,0,0,26.14,6.85,23.7,14s-2.39,16.26-1.42,17.09-7.08,26-11,29.67S139,247.47,139,247.47l27.4,4.21Z"/><path class="cls-2" d="M161.28,330.81l-1.56-.95v0a99.62,99.62,0,0,1-12.93,16.21,64.13,64.13,0,0,1-13.38,10.59,32,32,0,0,1-15.83,4.68,25.45,25.45,0,0,1-3.25-.21c-12.58-1.67-24.08-5.91-32.62-12.9a41,41,0,0,1-10.43-12.58,43.48,43.48,0,0,1-4.83-17.06c-.19-2.39-.28-5.12-.28-8.12,0-14.48,2.08-35,4.16-52.72,1.05-8.88,2.09-17.07,2.87-23.51.4-3.22.72-6,1-8.22s.37-3.86.37-4.93a6.29,6.29,0,0,0,0-.77h0c-.07-.55-.22-1.59-.42-3.05a159,159,0,0,1-1.59-20.77c0-6.61.65-13.31,2.51-18.12a13.71,13.71,0,0,1,3.57-5.55,8,8,0,0,1,5.44-2,17.68,17.68,0,0,1,7.1,1.79l.92.41.84-.57h0a21.09,21.09,0,0,1,3-1.54,16.58,16.58,0,0,1,6.32-1.42,9.87,9.87,0,0,1,3.63.65,9.35,9.35,0,0,1,3.41,2.36l1.11,1.17,1.3-.95-.4-.54.4.54h0l-.4-.54.4.54a22.43,22.43,0,0,1,3.07-1.75,15.69,15.69,0,0,1,6.49-1.67,7.78,7.78,0,0,1,3.93,1,9.28,9.28,0,0,1,3.51,3.76l.38.68.75.2.26.06a110.4,110.4,0,0,1,12.54,4.29,37.14,37.14,0,0,1,7.14,3.79,9.16,9.16,0,0,1,2,1.87,2.1,2.1,0,0,1,.54,1.25,1,1,0,0,1-.06.37h0A44.61,44.61,0,0,0,150,200.09a22.86,22.86,0,0,0,.18,3.09,8.3,8.3,0,0,0,.27,1.19,3.66,3.66,0,0,0,.25.6,2.43,2.43,0,0,0,.56.7h0l1.09-1.28-1.52.73a1.65,1.65,0,0,0,.43.55l1.09-1.28-1.52.73,1.27-.61-1.4.2a1.49,1.49,0,0,0,.13.41l1.27-.61-1.4.2.78-.11-.78,0v.07l.78-.11-.78,0h0a5.3,5.3,0,0,1-.07.53,53.21,53.21,0,0,1-1.52,5.92c-1.18,3.93-2.87,8.86-4.57,13.07-.85,2.11-1.7,4-2.48,5.55-.39.75-.76,1.4-1.09,1.91a6,6,0,0,1-.77,1,10.35,10.35,0,0,0-2.73,5.24,24.31,24.31,0,0,0-.57,5.52,31.84,31.84,0,0,0,.28,4.34l.19,1.34,27.09,4.16-5,77.46,1.83.12-1.56-.95,1.56.95,1.83.12,5.25-80.81-29.07-4.46-.27,1.81,1.81-.27h0a28.76,28.76,0,0,1-.23-3.8,20.21,20.21,0,0,1,.47-4.68,6.86,6.86,0,0,1,1.69-3.43,11.93,11.93,0,0,0,1.86-2.54,60.71,60.71,0,0,0,3.24-6.92c1.64-4,3.25-8.66,4.46-12.58.61-2,1.11-3.74,1.47-5.19.18-.72.33-1.36.43-1.92a8.3,8.3,0,0,0,.17-1.49,2.54,2.54,0,0,0-.06-.63,2.17,2.17,0,0,0-.16-.47,1.91,1.91,0,0,0-.5-.66h0l-.78.92,1.07-.58a1.16,1.16,0,0,0-.29-.34l-.78.92,1.07-.58-.4.21.42-.17,0,0-.4.21.42-.17v0a5.18,5.18,0,0,1-.18-1.06,20.56,20.56,0,0,1-.09-2.1,40.6,40.6,0,0,1,1.95-12.3h0a4.78,4.78,0,0,0,.25-1.54,5,5,0,0,0-.41-2,8.55,8.55,0,0,0-2.22-3,27.32,27.32,0,0,0-6.27-4,86.4,86.4,0,0,0-10.84-4.25c-3.18-1-5.46-1.64-5.49-1.64l-.46,1.77,1.6-.9a13.18,13.18,0,0,0-4.9-5.16,11.63,11.63,0,0,0-5.74-1.45,19.38,19.38,0,0,0-8.15,2.07,22.75,22.75,0,0,0-3.56,2.06l1.07,1.48,1.34-1.26a13,13,0,0,0-4.74-3.25,13.4,13.4,0,0,0-5-.91,20.35,20.35,0,0,0-7.93,1.79,22,22,0,0,0-3.42,1.8l1,1.52.75-1.68A21.28,21.28,0,0,0,84,167.23a11.62,11.62,0,0,0-7.84,2.84,15.84,15.84,0,0,0-3.71,5,34.41,34.41,0,0,0-2.88,10,79.53,79.53,0,0,0-.75,11.43,147.41,147.41,0,0,0,.93,15.67c.24,2.2.49,4.11.69,5.59s.36,2.56.42,3h0s0,.16,0,.34c0,.76-.12,2.38-.35,4.55-.79,7.64-2.79,22.42-4.59,38.47s-3.41,33.4-3.41,46.36c0,3.07.09,5.9.3,8.41a45.44,45.44,0,0,0,24,37.26,74.7,74.7,0,0,0,27,8.61,27.6,27.6,0,0,0,3.73.25,35.76,35.76,0,0,0,17.91-5.31c8.13-4.73,14.92-11.7,19.73-17.49a99.5,99.5,0,0,0,7.64-10.46l.23-.38,0-.45Z"/><path class="cls-2" d="M69,192.88a13.61,13.61,0,0,0,2.58,4.43,12.89,12.89,0,0,0,3.84,3,13,13,0,0,0,6,1.37c.42,0,.84,0,1.26,0h0A10.36,10.36,0,0,0,88.94,199a17.28,17.28,0,0,0,4.66-8.73,42.11,42.11,0,0,0,1.1-10,46.53,46.53,0,0,0-.4-6.29,17.81,17.81,0,0,0-.38-2,4.79,4.79,0,0,0-.28-.8,2.74,2.74,0,0,0-.34-.54,2.64,2.64,0,0,0-.47-.4,1.85,1.85,0,0,0-2,0l2,3-1-1.5v1.8a1.79,1.79,0,0,0,1-.3l-1-1.5v0l-.92,1.51a1.84,1.84,0,0,0,.92.25v-1.76l-.92,1.51.87-1.43L90.53,173a1.81,1.81,0,0,0,.39.33l.87-1.43L90.53,173l1-.86-1.18.57a1.19,1.19,0,0,0,.19.29l1-.86-1.18.57.44-.21-.46.19,0,0,.44-.21-.46.19,0,.05a7.64,7.64,0,0,1,.22,1,41.87,41.87,0,0,1,.48,6.56,33.73,33.73,0,0,1-1.87,11.87,11.18,11.18,0,0,1-2.69,4.14A6.69,6.69,0,0,1,82.39,198h0c-.34,0-.67,0-1,0a9.55,9.55,0,0,1-4.36-1,9.31,9.31,0,0,1-3.6-3.33,11.32,11.32,0,0,1-.77-1.44c-.08-.18-.13-.32-.17-.41l0-.09v0l-.72.24.72-.23h0l-.72.24.72-.23L69,192.88Z"/><path class="cls-2" d="M108.71,171.51s0,.05,0,.16c.08.8.42,4.38.42,8.73a48.91,48.91,0,0,1-1.43,12.9,12.22,12.22,0,0,1-2.13,4.42,4.72,4.72,0,0,1-1.33,1.13,3.69,3.69,0,0,1-1.58.46c-.54,0-1,.05-1.54.05a14.19,14.19,0,0,1-5.12-.84,8.13,8.13,0,0,1-3.66-2.67,6.2,6.2,0,0,1-.65-1.07c-.06-.13-.1-.22-.12-.28v-.05l-.06,0,.06,0h0l-.06,0,.06,0-1.18.37,1.18-.35v0l-1.18.37,1.18-.35-3.51,1a9.44,9.44,0,0,0,2.59,3.93,12.16,12.16,0,0,0,4,2.51,17.75,17.75,0,0,0,6.44,1.09c.57,0,1.17,0,1.79-.06a7.45,7.45,0,0,0,3.09-.9,9.58,9.58,0,0,0,3.69-3.93,25.93,25.93,0,0,0,2.52-8.52,66.8,66.8,0,0,0,.58-9.21,90.86,90.86,0,0,0-.46-9.3l-3.63.41Z"/><path class="cls-4" d="M139,247.47s23.9-45.87,56-49.27c0,0,10.3,21.33,48.63,19.68s31.15-14.3,31.15-14.3l14.71,3.09a51.75,51.75,0,0,1,41.11,50.65v76.79H161.28l5.14-82.43Z"/><path class="cls-2" d="M139,247.47l1.62.84.06-.11a143.8,143.8,0,0,1,16.62-24,92.37,92.37,0,0,1,17.1-15.8c6.43-4.43,13.45-7.59,20.84-8.37l-.19-1.82-1.65.79c.09.2,2.65,5.4,9.71,10.57s18.61,10.25,36.41,10.24c1.38,0,2.79,0,4.24-.09,14.09-.62,22.23-2.66,27.08-5.24a13.38,13.38,0,0,0,5-4.27,7.65,7.65,0,0,0,1.33-4.28,7,7,0,0,0-.77-3.25l-1.59.91-.38,1.79,14.71,3.09a49.93,49.93,0,0,1,39.66,48.86v75H163.23l5.12-82.16-29.06-4.46-.27,1.81,1.62.84-1.62-.84-.28,1.81,25.75,3.95-5.16,82.71H332.5V257.32a53.58,53.58,0,0,0-42.56-52.44L271.26,201l2,3.53.59-.34-.61.32,0,0,.59-.34-.61.32a3.32,3.32,0,0,1,.31,1.46,4,4,0,0,1-.73,2.27,8.28,8.28,0,0,1-2.34,2.24,27.28,27.28,0,0,1-8.94,3.48,97.74,97.74,0,0,1-17.91,2.14c-1.4.06-2.77.09-4.09.09-17.11,0-27.8-4.82-34.25-9.53a33.79,33.79,0,0,1-6.74-6.45,24,24,0,0,1-1.44-2.06l-.32-.55-.06-.13,0,0h0l-1,.49,1-.49h0l-1,.49,1-.49-.56-1.16-1.28.14c-8.45.89-16.25,4.56-23.19,9.46-10.4,7.36-18.93,17.53-24.9,25.87a139.53,139.53,0,0,0-9.4,14.91l-1.18,2.27,2.53.39Z"/><path class="cls-3" d="M150.57,196.77s20.18-52.87,5.14-56.17c-12.28-2.69-22.16,14.71-25.51,32.61A69.73,69.73,0,0,0,129,185.15"/><path class="cls-2" d="M152.28,197.43s2.7-7.08,5.4-16.23c1.35-4.58,2.7-9.68,3.72-14.71a74.31,74.31,0,0,0,1.71-14.29,21.68,21.68,0,0,0-1.41-8.51,9.13,9.13,0,0,0-2.17-3.12,7.45,7.45,0,0,0-3.43-1.76,13.87,13.87,0,0,0-2.91-.32,15,15,0,0,0-8.92,3.15c-4,2.94-7.32,7.57-10,13a75.11,75.11,0,0,0-7.13,30.44l3.66,0a68.54,68.54,0,0,1,1.2-11.63c1.52-8.13,4.44-16.17,8.24-22a26.14,26.14,0,0,1,6.19-6.92,11.41,11.41,0,0,1,6.76-2.44,9.78,9.78,0,0,1,2.12.24,3.68,3.68,0,0,1,1.76.89,6.65,6.65,0,0,1,1.76,3.26,22,22,0,0,1,.62,5.66,71.6,71.6,0,0,1-1.64,13.57,195.12,195.12,0,0,1-5.59,20.69c-.94,2.88-1.78,5.3-2.38,7-.31.85-.55,1.52-.72,2-.08.23-.15.4-.19.52l-.07.17,3.42,1.31Z"/><path class="cls-3" d="M131.08,312.57s6.49-77.28,10.2-80.68,19-29.67,6.18-38.33-45.13-18.34-44.1-3.5,16.7,18.13,16.7,18.13-26.18-8-25.56,17.11"/><path class="cls-2" d="M132.9,312.73s.11-1.21.29-3.32c.65-7.42,2.31-26,4.22-43.09,1-8.54,2-16.7,2.94-22.89.49-3.09,1-5.68,1.41-7.55a22.12,22.12,0,0,1,.61-2.17,4,4,0,0,1,.22-.52l0-.05h0l-.67-.52.57.62.1-.1-.67-.52.57.62a13,13,0,0,0,1.46-1.67,46.7,46.7,0,0,0,3.13-4.81A66.75,66.75,0,0,0,152,216.27a36.75,36.75,0,0,0,2.35-11.93A17.1,17.1,0,0,0,153,197.5a12.48,12.48,0,0,0-4.53-5.45A73.52,73.52,0,0,0,132,184.21c-6.32-2.17-12.93-3.67-18.44-3.68a22.19,22.19,0,0,0-4.5.42,10.38,10.38,0,0,0-5.37,2.7,7.34,7.34,0,0,0-1.63,2.54,9,9,0,0,0-.55,3.19q0,.39,0,.81h0a20,20,0,0,0,3.35,10,23.42,23.42,0,0,0,9.36,7.84,25.28,25.28,0,0,0,5.43,2l.91-3.54a35.71,35.71,0,0,0-9.34-1.3,24.6,24.6,0,0,0-6.19.74,17.08,17.08,0,0,0-4.64,1.92,14.67,14.67,0,0,0-5.59,6.08,23.22,23.22,0,0,0-2.17,10.55c0,.3,0,.6,0,.92l3.66-.1c0-.28,0-.55,0-.82a20.6,20.6,0,0,1,1.43-8.16,11.6,11.6,0,0,1,2.46-3.7,12.06,12.06,0,0,1,5.12-3,20.66,20.66,0,0,1,5.92-.8,31.9,31.9,0,0,1,5.87.58c.76.14,1.37.29,1.78.39l.48.13.11,0h0l.54-1.75.37-1.79,0,.14,0-.14h0l0,.14,0-.14a23.8,23.8,0,0,1-7.5-3.35,18.44,18.44,0,0,1-5.07-5,16.31,16.31,0,0,1-2.67-8.1h0a5.24,5.24,0,0,1,0-.55,4.74,4.74,0,0,1,.53-2.36,3.7,3.7,0,0,1,1-1.17,7,7,0,0,1,2.72-1.22,17.4,17.4,0,0,1,4.14-.44c4.84,0,11.2,1.39,17.25,3.48a70.07,70.07,0,0,1,15.63,7.41,8.83,8.83,0,0,1,3.22,3.88,13.52,13.52,0,0,1,1,5.38,29.77,29.77,0,0,1-1.31,8.1,59.13,59.13,0,0,1-5,11.69c-.92,1.65-1.82,3.1-2.6,4.22-.38.56-.74,1-1,1.41a7.32,7.32,0,0,1-.7.78,3.69,3.69,0,0,0-.77,1.08,14.06,14.06,0,0,0-.85,2.49c-.5,1.89-1,4.48-1.51,7.62-1.79,11-3.7,28.61-5.17,43.54s-2.49,27.14-2.49,27.15l3.64.31Z"/><polyline class="cls-2" points="294.44 254.24 294.44 334.11 298.1 334.11 298.1 254.24"/></svg>