<svg width="365" height="364" viewBox="0 0 365 364" fill="none" xmlns="http://www.w3.org/2000/svg">
<path d="M149.467 153.7C149.467 152.082 148.824 150.53 147.68 149.386C146.536 148.242 144.984 147.6 143.367 147.6H127.1C125.482 147.6 123.931 148.242 122.787 149.386C121.643 150.53 121 152.082 121 153.7V172H149.467V153.7Z" fill="#B2B2B2"/>
<path d="M135.233 147.6C139.725 147.6 143.366 143.958 143.366 139.466C143.366 134.974 139.725 131.333 135.233 131.333C130.741 131.333 127.1 134.974 127.1 139.466C127.1 143.958 130.741 147.6 135.233 147.6Z" fill="#B2B2B2"/>
<path d="M167.768 153.7V172H196.234V153.7C196.234 152.082 195.592 150.53 194.448 149.386C193.304 148.242 191.752 147.6 190.134 147.6H173.868C172.25 147.6 170.698 148.242 169.554 149.386C168.41 150.53 167.768 152.082 167.768 153.7Z" fill="#B2B2B2"/>
<path d="M182.001 147.6C186.492 147.6 190.134 143.958 190.134 139.466C190.134 134.974 186.492 131.333 182.001 131.333C177.509 131.333 173.867 134.974 173.867 139.466C173.867 143.958 177.509 147.6 182.001 147.6Z" fill="#B2B2B2"/>
<path d="M236.9 147.6H220.633C219.015 147.6 217.464 148.242 216.32 149.386C215.176 150.53 214.533 152.082 214.533 153.7V172H243V153.7C243 152.082 242.357 150.53 241.213 149.386C240.069 148.242 238.518 147.6 236.9 147.6Z" fill="#B2B2B2"/>
<path d="M228.766 147.6C233.258 147.6 236.899 143.958 236.899 139.466C236.899 134.974 233.258 131.333 228.766 131.333C224.274 131.333 220.633 134.974 220.633 139.466C220.633 143.958 224.274 147.6 228.766 147.6Z" fill="#B2B2B2"/>
<path d="M216.567 88.8729C216.501 86.9982 216.05 85.1571 215.243 83.4641C214.435 81.7711 213.288 80.2623 211.872 79.0316L209.062 81.9677C210.08 82.8195 210.911 83.8727 211.503 85.061C212.094 86.2493 212.434 87.5471 212.5 88.8729C212.5 97.1404 198.533 104.123 182 104.123C165.467 104.123 151.5 97.1404 151.5 88.8729C151.565 87.5457 151.904 86.2463 152.496 85.0565C153.088 83.8668 153.92 82.8123 154.939 81.9596L152.129 79.0234C150.712 80.2551 149.564 81.7652 148.756 83.4597C147.949 85.1542 147.498 86.9968 147.434 88.8729C147.434 99.7045 162.616 108.19 182 108.19C201.384 108.19 216.567 99.7045 216.567 88.8729Z" fill="#ED4D4D"/>
<path d="M184.033 113.033H179.967V127.267H184.033V113.033Z" fill="#ED4D4D"/>
<path d="M214.166 103.734L210.834 106.066L225.068 126.4L228.399 124.068L214.166 103.734Z" fill="#ED4D4D"/>
<path d="M161.666 87.5371L179.966 98.7997V77.7954L161.666 65.0342V87.5371Z" fill="#ED4D4D"/>
<path d="M163.588 61.3297L182 74.1682L200.412 61.3297L182 50L163.588 61.3297Z" fill="#ED4D4D"/>
<path d="M202.333 87.5371V65.0342L184.033 77.7954V98.7997L202.333 87.5371Z" fill="#ED4D4D"/>
<path d="M149.832 103.73L135.604 124.067L138.936 126.399L153.165 106.061L149.832 103.73Z" fill="#ED4D4D"/>
</svg>
