<svg id="Layer_1" data-name="Layer 1" xmlns="http://www.w3.org/2000/svg" viewBox="0 0 368 368"><defs><style>.cls-1{fill:#fff;}.cls-2{fill:#231f20;}.cls-3{fill:#2f3841;}.cls-4{fill:#ef4748;}.cls-5{fill:#f9f9fa;}</style></defs><path class="cls-1" d="M39.27,156.86s3-60.68,31.73-77.17l35.83-7.37s19,9.35,19.82,13.5-9.9,14.3-9.9,14.3l5.88,13.9S102.75,127.56,94,136.17s-11.33,14.31-11.33,14.31Z"/><path class="cls-2" d="M39.27,156.86l1.65.08v-.16a185.89,185.89,0,0,1,5.45-33.52,107.72,107.72,0,0,1,9.4-24.5c4.17-7.53,9.45-13.86,16-17.64L71,79.69l.33,1.61,35.83-7.37-.33-1.61-.72,1.47.2.11c1,.51,5.7,2.87,10.18,5.56a62.42,62.42,0,0,1,6,4.06,16.75,16.75,0,0,1,1.91,1.74,5,5,0,0,1,.48.63l.1.2,0,.07h0l0,.18a3.8,3.8,0,0,1-.31,1.24,17.52,17.52,0,0,1-2.09,3.51,59.91,59.91,0,0,1-4.59,5.39c-.7.74-1.32,1.36-1.76,1.79l-.51.5-.13.13,0,0-.84.78,6.33,15,1.51-.64-.92-1.36s-5,3.4-11.09,7.88S97.33,130.57,92.8,135c-9,8.76-11.6,14.64-11.68,14.82l1.5.67-.24-1.63L39,155.24l.23,1.62,1.65.08-1.65-.08.24,1.63L83.75,152l.37-.83-.07,0,.07,0h0l-.07,0,.07,0c.08-.16,2.59-5.59,11-13.8,4.27-4.18,11.42-9.71,17.47-14.15,3-2.22,5.77-4.17,7.76-5.57L122.7,116l.86-.59,1.11-.76-6.4-15.14-1.52.64,1.13,1.2s2.54-2.4,5.09-5.37a39.73,39.73,0,0,0,3.57-4.74,15.94,15.94,0,0,0,1.26-2.41,6.65,6.65,0,0,0,.54-2.47,4,4,0,0,0-.08-.83h0a4.11,4.11,0,0,0-.58-1.37A10.39,10.39,0,0,0,125.75,82a41.8,41.8,0,0,0-5.12-3.78c-5.84-3.76-13-7.31-13.07-7.32l-.51-.25-.55.11-9.22,1.9L70.66,78.09l-.26,0-.22.13c-7.55,4.34-13.29,11.48-17.7,19.66-6.62,12.27-10.29,26.94-12.36,38.57a182.17,182.17,0,0,0-2.49,20.28l-.1,2,2-.29Z"/><path class="cls-2" d="M107.33,114.29a9.14,9.14,0,1,1,7.11-10.79A9.13,9.13,0,0,1,107.33,114.29Z"/><path class="cls-2" d="M96.45,78.28s4.87,3.26,10.22,6.63c2.68,1.68,5.48,3.39,7.87,4.73,1.2.68,2.3,1.26,3.25,1.71.48.23.92.42,1.33.58a7.09,7.09,0,0,0,1.17.36,5.81,5.81,0,0,0,1,.09,5.63,5.63,0,0,0,3.22-1.06,10.18,10.18,0,0,0,2.75-3.09,12.9,12.9,0,0,0,.92-1.8l-3.05-1.21h0a11.22,11.22,0,0,1-1.27,2.18,5.76,5.76,0,0,1-1.27,1.25,2.37,2.37,0,0,1-1.3.45,2.58,2.58,0,0,1-.38,0,3.93,3.93,0,0,1-.61-.2A22,22,0,0,1,118,87.78c-3.31-1.73-8.27-4.8-12.36-7.42-2-1.32-3.89-2.52-5.21-3.39l-1.56-1-.57-.38-1.84,2.73Z"/><polygon class="cls-2" points="74.22 101.27 83.11 90.55 96.13 88.26 95.56 85.02 81.36 87.52 71.69 99.17 74.22 101.27 74.22 101.27"/><polygon class="cls-2" points="67.69 131.66 77.53 119.56 97.49 115.46 96.83 112.24 75.72 116.58 65.14 129.59 67.69 131.66 67.69 131.66"/><path class="cls-3" d="M358.87,298S345.55,197.65,297.7,167.15,154.63,139.61,139.83,146,76.68,173.65,50,242.71,326.81,317.21,358.87,298Z"/><path class="cls-2" d="M358.87,298l1.63-.22a346.75,346.75,0,0,0-12.71-54.26c-4.68-14.52-10.86-30-18.92-43.86s-18-26-30.29-33.87c-15.56-9.91-35.84-16.27-56.75-20.19a336.85,336.85,0,0,0-60.49-5.38,260.78,260.78,0,0,0-26.54,1.23c-3.62.39-6.78.84-9.4,1.35a32.09,32.09,0,0,0-6.22,1.74,169.11,169.11,0,0,0-16.68,8.18c-21.33,12-53.87,37.23-74,89.43a24.86,24.86,0,0,0-1.77,8.95c0,5.58,2.18,10.73,6,15.31a51.64,51.64,0,0,0,13.63,10.94c9.89,5.78,23,10.63,38.13,14.69,45.49,12.17,110,17.22,163.05,17.22,22.4,0,42.76-.9,58.82-2.56A200.25,200.25,0,0,0,347,303.62a74.27,74.27,0,0,0,7.41-1.95,27,27,0,0,0,5.3-2.29l.92-.56-.14-1.07-1.63.22-.84-1.41a23.86,23.86,0,0,1-4.64,2,94.29,94.29,0,0,1-13.78,3.1c-17,2.74-42.76,4.3-72,4.3-46,0-100.77-3.84-143.85-12.79-21.54-4.47-40.18-10.23-53.28-17.33-6.55-3.55-11.7-7.43-15.16-11.56S50,255.79,50,251.07a21.62,21.62,0,0,1,1.54-7.77C64.8,209,83.36,186.71,100.44,172.12a150.47,150.47,0,0,1,23.67-16.57,165.07,165.07,0,0,1,16.37-8A28.68,28.68,0,0,1,146,146c7.48-1.47,20.15-2.53,35.31-2.52a334,334,0,0,1,59.88,5.32c20.66,3.86,40.6,10.16,55.6,19.73,11.64,7.42,21.31,19.2,29.21,32.75,11.84,20.33,19.67,44.59,24.51,63.74,2.42,9.58,4.1,17.88,5.17,23.78.54,2.95.92,5.3,1.17,6.91.13.81.22,1.43.28,1.85s.08.62.08.62l1.63-.21-.84-1.41Z"/><path class="cls-1" d="M138.59,109.25c1.23,15.14,11.66,23.94,18.83,26s17.69,1,17.69,1l.41,4.29-19.41,3.5a28.89,28.89,0,0,0,10.71,9.7,45.29,45.29,0,0,0,41.33,1.34c10.73-5,16.47-10.54,16.47-10.54l-21-2-5.3-17.75a7.91,7.91,0,0,0,.75-.58c2.51-2.13,10.63-10.53,11.32-30.72C211.22,69.56,186.47,63,186.47,63l.46.14L184,62.4l-.29,0-.94.59H169.07C144.5,65.17,139,81.62,138.23,96.09A101.48,101.48,0,0,0,138.59,109.25Z"/><path class="cls-2" d="M138.59,109.25l-1.36.11A32.79,32.79,0,0,0,144.74,128a26.45,26.45,0,0,0,12.3,8.51A45.84,45.84,0,0,0,169,137.87c3.59,0,6.25-.26,6.28-.26l-.13-1.35-1.35.13.29,3-20.14,3.63,1,1.69a30.07,30.07,0,0,0,11.2,10.19,45.6,45.6,0,0,0,22.45,5.85,47.71,47.71,0,0,0,20.12-4.47c10.92-5.08,16.77-10.72,16.85-10.8l2.13-2.05-23-2.19-5-16.87-1.31.39.74,1.14a8.55,8.55,0,0,0,.89-.68h0a28.13,28.13,0,0,0,6.68-9c2.53-5.07,4.77-12.42,5.13-22.7,0-.4,0-.8,0-1.2a29,29,0,0,0-3.94-15A34.27,34.27,0,0,0,194.71,65a38.66,38.66,0,0,0-7.89-3.34l-.74,2.62.47.14.38-1.31.34-1.32L184.14,61l-.52,0-.35,0-.88.56H169a41.3,41.3,0,0,0-15.59,4.19,28,28,0,0,0-12.77,13.41A45.33,45.33,0,0,0,136.87,96q-.09,1.88-.09,3.69c0,3.52.23,6.82.45,9.65l1.36-.11,1.36-.11c-.22-2.8-.44-6-.44-9.43,0-1.17,0-2.35.08-3.55.35-7.1,1.9-14.56,6.21-20.42a25.12,25.12,0,0,1,8.81-7.48,38.89,38.89,0,0,1,14.58-3.89L169.07,63v1.37h14.11l1.27-.81-.73-1.15.1,1.36h.07l2.7.7.73-2.63-.47-.13-.38,1.3-.35,1.32h0a38.25,38.25,0,0,1,11.77,6,29.07,29.07,0,0,1,7.7,8.57,26.31,26.31,0,0,1,3.46,13.42c0,.37,0,.74,0,1.11-.34,9.92-2.5,16.87-4.84,21.58a25.51,25.51,0,0,1-6,8.15h0l-.47.38-.11.07,0,0,.19.29-.19-.3h0l.19.29-.19-.3-.86.56,5.86,19.61,21.9,2.08.13-1.35-1-1h0c-.26.26-5.86,5.53-16.09,10.28a45,45,0,0,1-19,4.22,42.89,42.89,0,0,1-21.11-5.5,27.61,27.61,0,0,1-10.22-9.23l-1.16.71.24,1.34L177,141.67l-.66-6.9-1.36.13h-.11c-.52.05-2.89.24-5.91.24a43.35,43.35,0,0,1-11.17-1.23,23.76,23.76,0,0,1-11-7.65A30,30,0,0,1,140,109.14Z"/><path class="cls-2" d="M193.58,99.56l.38.14-.38-.15h0l.38.14-.38-.15a9.19,9.19,0,0,1-1.38,2.23,13.33,13.33,0,0,1-4.87,3.78l1.14,2.47a16.08,16.08,0,0,0,6-4.69,12.15,12.15,0,0,0,1.68-2.81l-2.55-1Z"/><path class="cls-2" d="M179.19,87.9a24.61,24.61,0,0,0-4.55-.39,25,25,0,0,0-6.55.84,17.55,17.55,0,0,0-7,3.66l1.8,2A14.72,14.72,0,0,1,168.82,91a22.09,22.09,0,0,1,5.82-.74,23.94,23.94,0,0,1,2.93.17l.81.11.21,0h.06l.54-2.67Z"/><path class="cls-2" d="M138.45,90.46h0c.05,0,.34,0,.81,0a25.56,25.56,0,0,1,10.27,2.1,12.57,12.57,0,0,1,5,4.09,12.79,12.79,0,0,1,2.16,7.58,26.29,26.29,0,0,1-1,6.93l2.63.72a29.08,29.08,0,0,0,1.13-7.65,15.41,15.41,0,0,0-2.65-9.14A14.71,14.71,0,0,0,152.38,91a22.67,22.67,0,0,0-7.56-2.76,31.11,31.11,0,0,0-5.56-.51c-.6,0-1,0-1,0l.17,2.72Z"/><path class="cls-2" d="M162.92,119.59a5.93,5.93,0,0,0,.81,0,9.59,9.59,0,0,0,3.7-.7,6.75,6.75,0,0,0,2.12-1.39,6.42,6.42,0,0,0,1.58-2.49l-2.56-.91a3.85,3.85,0,0,1-.92,1.45,4.43,4.43,0,0,1-2,1.07,7.52,7.52,0,0,1-1.92.25l-.4,0h-.12l0,.29,0-.28h0l0,.29,0-.28-.3,2.7Z"/><circle class="cls-2" cx="146.59" cy="100.29" r="3.53"/><circle class="cls-2" cx="171.14" cy="100.04" r="3.53"/><path class="cls-2" d="M143.74,76.34s-14.15-6.45,3.47-27.8,7.66,9.35,15.12,4.61,12.66-13.76,20.46-9S182,56,193.81,58s15.41-.34,16.76,3.39,3.05,10.5,6.44,12.2,2,48.79-19,57.6c0,0-2.37-13.89-.67-18.3s9-9.79,3.37-18.29c-6.54-9.88-11.85.34-11.85.34s-1-19.61-15.25-17C159.22,80.51,152.3,80.1,143.74,76.34Z"/><path class="cls-3" d="M89.76,246.41,85.32,152.8,38.7,145s-34,113.29-24.42,161.54,60.06,27,67.34,20.5c10-9,22.57-20,29.23-41.81S114.62,212,114.62,212"/><path class="cls-2" d="M91.4,246.34,86.89,151.4l-49.35-8.23-.42,1.39S30.57,166.35,24,194.9,10.93,258.75,10.92,286a108.7,108.7,0,0,0,1.74,20.89,51.23,51.23,0,0,0,5.5,15.42A31.78,31.78,0,0,0,31.8,335.42,37.71,37.71,0,0,0,48.53,339a63.9,63.9,0,0,0,21.29-4,63.67,63.67,0,0,0,7.93-3.48,25.83,25.83,0,0,0,5-3.22c5-4.49,10.75-9.56,16.07-16.3a78.19,78.19,0,0,0,13.64-26.26c1.84-6.06,2.94-14.11,3.6-22.72s.87-17.75.87-25.89c0-14.1-.63-25.2-.63-25.22l-3.28.19,0,.49c.12,2.29.59,12.28.59,24.54,0,8.08-.21,17.16-.85,25.64s-1.75,16.38-3.48,22A74.84,74.84,0,0,1,96.21,310c-5.12,6.47-10.67,11.39-15.69,15.89a23.81,23.81,0,0,1-4.3,2.77c-6.13,3.25-17,7.12-27.69,7.1-7.07,0-14-1.64-19.82-6.07a29.73,29.73,0,0,1-7.7-9,47.51,47.51,0,0,1-5.12-14.43A104.22,104.22,0,0,1,14.21,286c0-26.75,6.5-61.94,13-90.37,3.26-14.21,6.52-26.75,9-35.73,1.22-4.49,2.24-8.09,2.95-10.57.36-1.24.64-2.2.83-2.84l.29-1L38.7,145l-.27,1.62,45.31,7.55,4.38,92.29,3.28-.15Z"/><path class="cls-4" d="M273,185.09v98a20.81,20.81,0,0,1-20.81,20.81H130.86a20.81,20.81,0,0,1-20.81-20.81v-98a20.8,20.8,0,0,1,20.81-20.82H252.22A20.8,20.8,0,0,1,273,185.09Z"/><path class="cls-2" d="M273,185.09h-1.64v98a19.17,19.17,0,0,1-19.17,19.16H130.86a19.15,19.15,0,0,1-19.17-19.16v-98a19.08,19.08,0,0,1,1.11-6.45h0a19.19,19.19,0,0,1,18.06-12.73H252.22a19.16,19.16,0,0,1,18,12.73h0a19.09,19.09,0,0,1,1.12,6.45h3.28a22.53,22.53,0,0,0-1.3-7.56h0a22.45,22.45,0,0,0-21.15-14.9H130.86a22.45,22.45,0,0,0-21.15,14.9h0a22.28,22.28,0,0,0-1.31,7.56v98a22.45,22.45,0,0,0,22.46,22.45H252.22a22.45,22.45,0,0,0,22.45-22.45v-98Z"/><path class="cls-2" d="M271.82,178.08H111.26a20.81,20.81,0,0,1,19.6-13.81H252.22A20.82,20.82,0,0,1,271.82,178.08Z"/><rect class="cls-4" x="79.15" y="82.53" width="52.79" height="44.42" rx="8.62"/><path class="cls-2" d="M123.31,127V125.8H87.77a7.48,7.48,0,0,1-7.46-7.47V91.16a7.48,7.48,0,0,1,7.46-7.47h35.54a7.48,7.48,0,0,1,7.47,7.47v27.17a7.48,7.48,0,0,1-7.47,7.47v2.32a9.79,9.79,0,0,0,9.79-9.79V91.16a9.79,9.79,0,0,0-9.79-9.79H87.77A9.78,9.78,0,0,0,78,91.16v27.17a9.78,9.78,0,0,0,9.78,9.79h35.54Z"/><polyline class="cls-2" points="79.15 92.32 131.94 92.32 131.94 90 79.15 90"/><polygon class="cls-5" points="97.23 100.12 85.73 107.79 97.31 114.29 98.45 112.27 90.17 107.62 98.52 102.05 97.23 100.12 97.23 100.12"/><polyline class="cls-5" points="108.68 96.92 98.93 116.78 101.01 117.8 110.77 97.94"/><polygon class="cls-5" points="111.95 102.1 121.49 107.39 111.93 112.98 113.1 114.98 126.18 107.33 113.07 100.07 111.95 102.1 111.95 102.1"/><path class="cls-4" d="M289,209.34l11-5.57a1.52,1.52,0,0,0,.94-1.3V190c0-.88,1-1.59,2.24-1.59h62.6c1.24,0,2.25.71,2.25,1.59v36.28c0,.88-1,1.59-2.25,1.59h-62.6c-1.24,0-2.24-.71-2.24-1.59V214.07c0-.85-1-1.55-2.15-1.59l-8.6-.26C288,212.15,287.21,210.22,289,209.34Z"/><path class="cls-2" d="M289,209.34l.62,1.23,11-5.57a3.31,3.31,0,0,0,1.18-1,2.55,2.55,0,0,0,.52-1.54V190h-.17l.15.09,0-.09h-.17l.15.09.05-.06a1.29,1.29,0,0,1,.83-.24h62.6a1.41,1.41,0,0,1,.79.21l.1.09.15-.09h-.17l0,.09.15-.09h-.17v36.28h.17l-.15-.09,0,.09h.17l-.15-.09-.05.06a1.35,1.35,0,0,1-.84.24h-62.6a1.47,1.47,0,0,1-.79-.21l-.09-.09-.15.09h.17l0-.09-.15.09h.17V214.07a2.61,2.61,0,0,0-.36-1.3,3.17,3.17,0,0,0-1.34-1.23,4.3,4.3,0,0,0-1.79-.44l-8.6-.26a1.3,1.3,0,0,1-.76-.22l-.07-.07-.13.06h.14v-.07l-.13.06h0l.14.1,0-.1h-.16l.14.1a.59.59,0,0,1,.21-.15h0l-.62-1.23-.62-1.24a3.33,3.33,0,0,0-1.23,1,2.57,2.57,0,0,0-.48,1.49,2.79,2.79,0,0,0,1.1,2.16,4,4,0,0,0,2.39.82l8.6.26a1.42,1.42,0,0,1,.75.22l.08.08.16-.09h-.18l0,.09.16-.09h-.18v12.25a2.58,2.58,0,0,0,.38,1.33,3.22,3.22,0,0,0,1.4,1.24,4.4,4.4,0,0,0,1.85.41h62.6a4.24,4.24,0,0,0,2.39-.72,3.1,3.1,0,0,0,.87-.93,2.58,2.58,0,0,0,.37-1.33V190a2.58,2.58,0,0,0-.37-1.33,3.27,3.27,0,0,0-1.4-1.24,4.41,4.41,0,0,0-1.86-.41h-62.6a4.21,4.21,0,0,0-2.38.72,3,3,0,0,0-.87.93,2.58,2.58,0,0,0-.38,1.33v12.43h.23l-.22-.07v.07h.23l-.22-.07.08,0-.07,0v0l.08,0-.07,0a.47.47,0,0,1-.2.15l-11,5.57h0Z"/><rect class="cls-1" x="306.58" y="193.16" width="55.99" height="28.99" rx="5.19"/><path class="cls-2" d="M357.38,222.15v-1.38H311.77A3.82,3.82,0,0,1,308,217V198.35a3.82,3.82,0,0,1,3.81-3.81h45.61a3.82,3.82,0,0,1,2.7,1.12,3.77,3.77,0,0,1,1.11,2.69V217a3.77,3.77,0,0,1-1.11,2.69,3.82,3.82,0,0,1-2.7,1.12v2.76A6.57,6.57,0,0,0,364,217V198.35a6.57,6.57,0,0,0-6.57-6.57H311.77a6.57,6.57,0,0,0-6.57,6.57V217a6.57,6.57,0,0,0,6.57,6.57h45.61Z"/><path class="cls-2" d="M324.55,207.44h-1.64a1.32,1.32,0,1,1-1.32-1.32,1.32,1.32,0,0,1,1.32,1.32h3.29a4.61,4.61,0,1,0-4.61,4.6,4.6,4.6,0,0,0,4.61-4.6Z"/><path class="cls-2" d="M337.54,207.44h-1.65a1.32,1.32,0,1,1-1.31-1.32,1.32,1.32,0,0,1,1.31,1.32h3.29a4.61,4.61,0,1,0-4.6,4.6,4.6,4.6,0,0,0,4.6-4.6Z"/><path class="cls-2" d="M350.52,207.44h-1.64a1.32,1.32,0,1,1-1.32-1.32,1.33,1.33,0,0,1,1.32,1.32h3.28a4.6,4.6,0,1,0-4.6,4.6,4.6,4.6,0,0,0,4.6-4.6Z"/><polyline class="cls-2" points="7.99 129.63 24.27 129.63 24.27 126.34 7.99 126.34"/><polyline class="cls-2" points="14.48 120.4 14.48 135.57 17.77 135.57 17.77 120.4"/><polyline class="cls-2" points="80.86 43.9 92.38 55.41 94.7 53.09 83.19 41.58"/><polyline class="cls-2" points="91.98 41.97 81.26 52.7 83.58 55.02 94.31 44.29"/><path class="cls-3" d="M323.85,275.27s-65.12,14.31-79.92,16.78-30.1,9.86-30.1,9.86v35.53s97.19,2,113-2.47,30.09-7.4,32.06-37"/><path class="cls-2" d="M323.49,273.67l-2.82.62c-6.33,1.38-22.37,4.88-38.43,8.3-8,1.71-16.08,3.41-22.92,4.8s-12.48,2.51-15.67,3a113.9,113.9,0,0,0-20.91,5.94c-5.73,2.18-9.59,4.05-9.62,4.07l-.93.44V339l1.61,0s21.54.43,46,.43c13.75,0,28.43-.13,40.74-.57,6.15-.21,11.71-.5,16.28-.89,2.29-.19,4.32-.41,6.07-.66a32.79,32.79,0,0,0,4.37-.84c3.93-1.11,7.83-2.13,11.53-3.54a37.12,37.12,0,0,0,7.92-4,27.21,27.21,0,0,0,9.3-11c2.39-5,3.95-11.41,4.51-19.88l-3.28-.22c-.48,7.27-1.72,12.83-3.5,17.12a26,26,0,0,1-4.83,7.79,27.32,27.32,0,0,1-10,6.66,116,116,0,0,1-12.55,4,31.4,31.4,0,0,1-3.94.75c-5.83.82-15.52,1.35-26.7,1.67s-23.92.42-35.93.42c-12.21,0-23.69-.11-32.12-.22-4.22-.05-7.67-.11-10.07-.15l-3.74-.07,0,1.65h1.64V301.91h-1.64l.72,1.48.16-.07c.84-.4,4.81-2.25,10.27-4.28a108.94,108.94,0,0,1,19.22-5.37c3.75-.63,10.59-2,18.79-3.68,24.58-5.06,61.2-13.11,61.21-13.11l-.71-3.21Z"/><path class="cls-2" d="M213.83,303.89l-.08-1.64s-16,.8-32.17,1.66c-8.06.44-16.15.88-22.27,1.25-3.07.19-5.64.36-7.47.49l-2.19.18-.67.08-.29,0-.19.05a1.62,1.62,0,0,0-.45.21,2.14,2.14,0,0,0-.59.6,4.44,4.44,0,0,0-.51.94,10.92,10.92,0,0,0-.9,4.17,6.86,6.86,0,0,0,.24,1.87,4.68,4.68,0,0,0,1.76,2.58,5.91,5.91,0,0,0,3.53,1l.69,0,15.13-1-15-2.25s-6.36-1-13.86-1.9c-3.76-.48-7.79-1-11.48-1.32s-7-.6-9.39-.6c-.8,0-1.49,0-2.1.09a7.32,7.32,0,0,0-.86.15,3,3,0,0,0-.88.34l-.63.37-.15.72a4.53,4.53,0,0,0-.08.93,6.12,6.12,0,0,0,.86,3.13,7.07,7.07,0,0,0,4,3c.35.12.82.25,1.46.42,2.37.62,7,1.69,12.74,3,8.68,1.93,20,4.33,30.48,6.36,5.21,1,10.2,1.93,14.51,2.66s7.94,1.25,10.5,1.47c10.12.89,19.2,1,23.58,1,1.74,0,2.73,0,2.74,0l1.61,0V302.16l-1.72.09.08,1.64h-1.64v28.37h1.64l0-1.65h-2.68c-4.31,0-13.31-.12-23.29-1-3.4-.3-9.21-1.22-16-2.45-10.19-1.85-22.64-4.41-33-6.64-5.15-1.11-9.77-2.14-13.31-3l-4.41-1.05c-1.14-.29-2-.52-2.28-.62a3.81,3.81,0,0,1-2.23-1.58,2.84,2.84,0,0,1-.39-1.44,1.71,1.71,0,0,1,0-.26v0l-.62-.1.61.12v0l-.62-.1.61.12-1.61-.33.83,1.42-.25-.42.17.46.08,0-.25-.42.17.46a3.24,3.24,0,0,1,.69-.11,14.2,14.2,0,0,1,1.57-.05c2.17,0,5.44.23,9.07.58,5.46.53,11.76,1.33,16.68,2l6.1.85,2.39.35.24-1.62-.11-1.64-.47,0a3.36,3.36,0,0,1-1.27-.21,1.23,1.23,0,0,1-.72-.65,2.94,2.94,0,0,1-.26-1.32,7.94,7.94,0,0,1,.41-2.31c.12-.33.24-.61.32-.78l.08-.13-.83-.58.56.83a.89.89,0,0,0,.27-.25l-.83-.58.56.83-.85-1.28.45,1.47a1.56,1.56,0,0,0,.4-.19l-.85-1.28.45,1.47-.31-1,.22,1,.09,0-.31-1,.22,1,0-.24,0,.24h0l0-.24,0,.24.33,0c.74-.08,2.35-.21,4.54-.35,7.67-.52,22.59-1.33,35.59-2,6.5-.35,12.52-.65,16.91-.88l5.23-.26,1.93-.1-.08-1.64h0Z"/><polyline class="cls-2" points="151.9 317.35 180.14 322.04 180.68 318.79 152.43 314.11"/><path class="cls-1" d="M147.65,244.78h.25c2,0,14.35-.26,29.7-6.67a90.83,90.83,0,0,0,24.23-15,101.19,101.19,0,0,0,22.76-28.59l-5-2.75a95.65,95.65,0,0,1-21.47,27,84.76,84.76,0,0,1-32.86,17.55,69.58,69.58,0,0,1-17.33,2.72h-.17l-.08,5.73Z"/><polygon class="cls-1" points="198.76 198.53 219.89 196.28 225.32 218.23 230.89 216.85 224.26 190.04 198.15 192.82 198.76 198.53 198.76 198.53"/><rect class="cls-1" x="148.23" y="250.85" width="16" height="39.71"/><rect class="cls-1" x="172.19" y="245.18" width="16" height="45.39"/><rect class="cls-1" x="196.15" y="234.08" width="16" height="56.49"/><rect class="cls-1" x="220.11" y="220.02" width="16" height="70.55"/></svg>