<svg width="369" height="368" viewBox="0 0 369 368" fill="none" xmlns="http://www.w3.org/2000/svg">
<rect x="1.07031" y="1" width="366" height="366" rx="31"/>
<path d="M142.578 78.0129L142.772 77.3457H142.355L142.578 78.0129Z" fill="black"/>
<path d="M173.668 100.721C173.723 100.721 173.805 100.721 173.86 100.721C174.299 100.666 184.895 99.5113 197.989 93.462C205.675 89.9149 212.647 85.3779 218.659 80.016C224.973 74.4066 230.243 67.8348 234.416 60.4657L237.49 75.9189C237.682 76.8263 238.478 77.4588 239.384 77.4588C239.521 77.4588 239.631 77.4588 239.768 77.4313C240.811 77.2113 241.47 76.2214 241.278 75.1765L237.215 54.8838C237.106 54.3888 236.831 53.9489 236.392 53.6464C236.035 53.399 235.596 53.289 235.157 53.344C234.8 53.3165 234.443 53.3715 234.141 53.5364L214.679 57.551C213.636 57.771 212.977 58.7883 213.196 59.8332C213.416 60.8781 214.432 61.538 215.475 61.3181L231.423 58.0459C221.761 75.3965 207.295 84.9379 196.534 89.9424C184.044 95.7442 173.668 96.8991 173.503 96.9266C172.46 97.0366 171.692 97.9715 171.801 99.0438C171.856 99.9787 172.707 100.721 173.668 100.721Z" fill="#ED4D4D"/>
<path d="M251.079 170.15H245.672V88.3193H235.487V170.15H216.959V107.512H206.775V170.123H188.246V120.683H178.062V170.15H119.318C118.247 170.15 117.396 171.003 117.396 172.075C117.396 173.147 118.247 174 119.318 174H251.079C252.15 174 253.001 173.147 253.001 172.075C253.001 171.003 252.15 170.15 251.079 170.15Z" fill="#B2B2B2"/>
<path d="M129.131 63.7586C129.131 57.3974 133.749 52 139.522 52C145.296 52 149.914 57.2046 149.914 63.7586C149.914 69.7343 145.873 78.6015 139.522 78.6015C133.364 78.6015 129.131 69.7343 129.131 63.7586Z" fill="#B2B2B2"/>
<path d="M164.155 121.78C164.348 124.864 163.578 127.756 161.653 130.069C159.729 132.189 156.842 133.731 153.379 134.117V167.08C153.379 170.164 150.877 172.67 147.798 172.67H131.441C128.362 172.67 125.86 170.164 125.86 167.08V134.117C122.396 133.539 119.51 132.189 117.585 129.876C115.661 127.756 114.699 124.864 115.084 121.78L117.97 87.468C118.355 85.3475 118.74 82.2633 122.396 81.1067C123.358 80.7212 124.128 80.5284 124.898 80.3357C126.437 79.7574 127.592 79.3719 130.479 78.9863C131.056 78.9863 131.826 79.1791 132.211 79.7574C132.595 80.3357 132.788 80.914 132.595 81.4923C131.248 85.5403 132.211 90.5522 134.905 95.3713L135.29 89.7811L134.327 87.468C134.327 87.2752 134.135 86.8897 134.135 86.6969V83.2271C134.135 82.0706 135.097 81.2995 136.059 81.2995H143.757C144.911 81.2995 145.681 82.0706 145.681 83.2271V86.6969C145.681 86.8897 145.681 87.2752 145.489 87.468L144.526 89.7811L144.911 95.7568C147.99 90.9377 148.76 86.3114 147.221 81.4923C147.028 80.914 147.221 80.1429 147.605 79.7574C147.99 79.1791 148.568 78.9863 149.337 78.9863C152.032 79.3719 153.186 79.7574 154.533 80.1429C155.303 80.3357 156.073 80.7212 157.035 80.914C160.691 81.8778 161.269 85.1548 161.461 87.468V87.8535L164.155 121.78Z" fill="#B2B2B2"/>
</svg>
