<svg id="Layer_1" data-name="Layer 1" xmlns="http://www.w3.org/2000/svg" viewBox="0 0 368 368"><defs><style>.cls-1{fill:#231f20;}.cls-2{fill:#2f3841;}.cls-3{fill:#fff;}.cls-4{fill:#ef4748;}</style></defs><path class="cls-1" d="M244.41,197.59,175.18,239a47.32,47.32,0,1,1-65.65-53.1c-.3-11.58.6-22.94,3.84-31.4,10.28-26.81,37.84-36.83,37.84-36.83l-3.51-3.26,7.52,3.26,1.75-6,1.67,5.51s35.66-9,50.94,4.25S242.16,178.3,244.41,197.59Z"/><path class="cls-2" d="M295,324.25s-10.93-87.2-17.18-100-23.43-32.7-45.92-31.57-106.54,19.16-120.28,41-17.18,50-18.43,90.58Z"/><path class="cls-1" d="M295,324.25l1.72-.22s-2.73-21.81-6.25-45.23c-1.76-11.72-3.72-23.83-5.63-33.84-.95-5-1.9-9.48-2.81-13.14-.45-1.83-.9-3.45-1.34-4.84a25.79,25.79,0,0,0-1.31-3.46,67.49,67.49,0,0,0-16.68-21,52.91,52.91,0,0,0-13.15-8.22,40.22,40.22,0,0,0-15.83-3.33c-.63,0-1.27,0-1.91,0h0c-5.78.29-15.28,1.64-26.59,3.84a404.85,404.85,0,0,0-56,15,161.53,161.53,0,0,0-24.15,10.58,63.19,63.19,0,0,0-8.91,5.93,27.51,27.51,0,0,0-6,6.44c-7,11.13-11.38,23.86-14.14,38.85s-3.93,32.26-4.55,52.59L91.42,326H297l-.25-2-1.72.22v-1.74H93.21v1.74l1.73.05c.62-20.26,1.79-37.38,4.5-52.07s6.94-27,13.66-37.63a28.3,28.3,0,0,1,7.73-7.49c6.2-4.38,15.07-8.6,25.16-12.43,15.14-5.75,33-10.64,48.94-14.18,7.95-1.76,15.42-3.19,21.8-4.22A149.07,149.07,0,0,1,232,194.44h0c.58,0,1.16-.05,1.73-.05a36.76,36.76,0,0,1,14.47,3.05A53.33,53.33,0,0,1,265.65,210a63.31,63.31,0,0,1,10.64,15,21.94,21.94,0,0,1,1.12,3c1.54,4.86,3.34,13.4,5.12,23.38,2.69,15,5.38,33.25,7.4,47.77,1,7.26,1.86,13.58,2.45,18.09.29,2.25.53,4.05.68,5.28s.25,1.91.25,1.91l1.71-.21v0Z"/><path class="cls-3" d="M214,217.38A26.14,26.14,0,0,1,187.45,229c-1.94-.35-3.24-.83-3.31-1.44-.36-3.27-1-6.85-2.24-7-2.25-.38-25.93,7.14-36.83-9.77s-13.53-33.83-11.65-42.47c0,0,26.31-8.27,35.7-31.95,0,0,10.53,26.69,23.3,24.81,6.77-5.26,17.67-7.14,22.18,0s0,20.29,0,20.29l2,31.95Z"/><path class="cls-1" d="M214,217.38l-1.41-.91a24.56,24.56,0,0,1-20.56,11.29,24.21,24.21,0,0,1-4.3-.39,10.69,10.69,0,0,1-2-.52l-.21-.1,0,0h0l-.34.47.47-.34a.59.59,0,0,0-.13-.13l-.34.47.47-.34-.92.66,1.11-.12a1.16,1.16,0,0,0-.19-.54l-.92.66,1.11-.12a32.38,32.38,0,0,0-.85-4.94,8.74,8.74,0,0,0-.79-2,3.79,3.79,0,0,0-.7-.9,3.35,3.35,0,0,0-.55-.39,2.86,2.86,0,0,0-.73-.25,3,3,0,0,0-.49,0,7.71,7.71,0,0,0-.93.07c-.58.07-1.28.19-2.11.32a64.07,64.07,0,0,1-10.28,1,31.9,31.9,0,0,1-11.81-2,21,21,0,0,1-10.09-8.32,80.36,80.36,0,0,1-9.21-19.52,55.86,55.86,0,0,1-2.73-16.18,26.44,26.44,0,0,1,.52-5.51l-1.63-.35.5,1.59a67.12,67.12,0,0,0,14.74-7.28,64.37,64.37,0,0,0,12.15-10.14,50,50,0,0,0,9.86-15.5l-1.55-.62-1.55.62a84,84,0,0,0,6.58,12.73,42.45,42.45,0,0,0,7.29,8.91,19.51,19.51,0,0,0,4.53,3.08,11.94,11.94,0,0,0,5.16,1.23,11.25,11.25,0,0,0,1.53-.11l.44-.07.35-.26a21.5,21.5,0,0,1,5.69-3.16,18.2,18.2,0,0,1,6.13-1.17,10.73,10.73,0,0,1,4.59.94,7.79,7.79,0,0,1,3.33,3,10.8,10.8,0,0,1,1.34,3.45,19.37,19.37,0,0,1,.4,4.09,36.17,36.17,0,0,1-1,7.82c-.24,1.07-.48,2-.66,2.57-.09.3-.16.54-.22.7l-.05.18,0,0h0l-.11.31,2,31.73-2.29,3.54,1.41.91,1.4.91,2.88-4.47-2-32.49-1.66.1,1.58.54s.53-1.55,1-3.84a40.3,40.3,0,0,0,1-8.56,22.43,22.43,0,0,0-.48-4.81,13.81,13.81,0,0,0-1.78-4.51,11.19,11.19,0,0,0-4.73-4.2,14,14,0,0,0-6-1.26,21.34,21.34,0,0,0-7.28,1.38,25.08,25.08,0,0,0-6.59,3.65l1,1.32-.24-1.65a7.41,7.41,0,0,1-1.05.07,8.69,8.69,0,0,1-3.73-.9,20.78,20.78,0,0,1-6.43-5.32,60.05,60.05,0,0,1-7.45-11.49c-.91-1.76-1.63-3.3-2.11-4.4-.24-.55-.43-1-.55-1.28l-.14-.34,0-.08v0l-1.55-3.92-1.56,3.92a46.55,46.55,0,0,1-9.22,14.46,63.39,63.39,0,0,1-16.89,12.76,65.88,65.88,0,0,1-6.17,2.87c-.76.31-1.36.53-1.77.67l-.46.16-.11,0h0l.11.35-.11-.35.11.35-.11-.35L132,167l-.2.94a29.83,29.83,0,0,0-.6,6.22,59.27,59.27,0,0,0,2.88,17.17,84,84,0,0,0,9.6,20.34,24.35,24.35,0,0,0,11.65,9.61,35.17,35.17,0,0,0,13.05,2.27,62,62,0,0,0,8.78-.69l3-.47,1-.15a4.36,4.36,0,0,1,.52-.05h0l0-.55-.09.54h.07l0-.55-.09.54.15-.92-.44.83a.9.9,0,0,0,.29.09l.15-.92-.44.83.31-.58-.44.49.13.09.31-.58-.44.49.18-.21-.2.19,0,0,.18-.21-.2.19,0,0,0,0h0l0,0,0,0a2.56,2.56,0,0,1,.29.59,13.5,13.5,0,0,1,.59,2.27c.17.91.31,1.93.41,2.93a2.2,2.2,0,0,0,.34.93,2.77,2.77,0,0,0,.93.89,6.6,6.6,0,0,0,1.54.65,16,16,0,0,0,1.86.43,27.24,27.24,0,0,0,4.9.45,27.93,27.93,0,0,0,23.37-12.81Z"/><path class="cls-1" d="M134.15,176.27l-.42-.35.42.35h0l-.42-.35.42.35a19.4,19.4,0,0,1,3.3-3,16.73,16.73,0,0,1,3.53-2,11.76,11.76,0,0,1,4.29-.85,11,11,0,0,1,5.46,1.49,11.4,11.4,0,0,1,5.57,7,17,17,0,0,1,.63,4.74,21.64,21.64,0,0,1-.33,3.76c-.08.47-.16.84-.22,1.09s-.06.22-.07.28l0,.06h0l.32.1-.32-.1h0l.32.1-.32-.1,3.2.94a23.62,23.62,0,0,0,.78-6.14,19.1,19.1,0,0,0-1.49-7.67,14.9,14.9,0,0,0-2.43-3.82,15.09,15.09,0,0,0-4-3.17,14.43,14.43,0,0,0-7.09-1.92,15.13,15.13,0,0,0-5.59,1.12,21.32,21.32,0,0,0-5.88,3.65,22,22,0,0,0-2.23,2.22Z"/><path class="cls-1" d="M163.46,169.41l-1-.35,1,.36h0l-1-.35,1,.36h0a10.1,10.1,0,0,1,2.32-3.23,10.2,10.2,0,0,1,3.07-2,12.28,12.28,0,0,1,4.82-.91,21.38,21.38,0,0,1,6.59,1.17l1-3.18a24.7,24.7,0,0,0-7.62-1.33,15.39,15.39,0,0,0-6.35,1.28,13.55,13.55,0,0,0-5.43,4.34,11.62,11.62,0,0,0-1.56,2.7Z"/><path class="cls-1" d="M204.73,164.74l.37.11-.37-.12h0l.37.11-.37-.12a20.34,20.34,0,0,1-1.44,3.36,14.68,14.68,0,0,1-1.71,2.54,7,7,0,0,1-2.15,1.74l1.44,3a10.2,10.2,0,0,0,3.27-2.62,19.59,19.59,0,0,0,2.86-4.65,23.35,23.35,0,0,0,.93-2.41l-3.2-1Z"/><path class="cls-1" d="M152.15,193.58a9.62,9.62,0,0,0,2.31,2.27,11.22,11.22,0,0,0,2.86,1.47,12.3,12.3,0,0,0,4.05.67,16.94,16.94,0,0,0,5.69-1.07l-1.13-3.14a13.44,13.44,0,0,1-4.56.87,9.08,9.08,0,0,1-3-.48,7.87,7.87,0,0,1-2.69-1.59,5.9,5.9,0,0,1-.63-.65l-.14-.17,0,0-.91.62.92-.61h0l-.91.62.92-.61Z"/><path class="cls-1" d="M182.45,222.1a64.64,64.64,0,0,0,7-3,43.2,43.2,0,0,0,5.62-3.36,16.68,16.68,0,0,0,4.45-4.5l-2.85-1.74a13.3,13.3,0,0,1-3.57,3.54,43.88,43.88,0,0,1-7.66,4.26c-1.17.53-2.2.94-2.92,1.22l-.85.32-.22.08,0,0h0Z"/><path class="cls-1" d="M149.8,180.5a4.07,4.07,0,1,1-4.07-4.07A4.07,4.07,0,0,1,149.8,180.5Z"/><path class="cls-1" d="M175.82,172.47a4.07,4.07,0,1,1-4.06-4.07A4.06,4.06,0,0,1,175.82,172.47Z"/><line class="cls-3" x1="154.65" y1="324.25" x2="162.55" y2="268.19"/><polyline class="cls-1" points="156.31 324.48 164.2 268.42 160.89 267.95 153 324.01"/><line class="cls-3" x1="271.69" y1="324.25" x2="263.8" y2="268.19"/><polyline class="cls-1" points="249.44 324.01 241.55 267.95 238.24 268.42 246.14 324.48"/><path class="cls-4" d="M20.79,129.15s8.49-25,22-23.74,12.88,23.57,23.1,20S83.69,84.85,97,85.91s14,74.14,14,74.14L25.8,173.81Z"/><path class="cls-1" d="M20.79,129.15l1.29.44,0-.06A65.83,65.83,0,0,1,28,117.42a32.14,32.14,0,0,1,6.23-7.51,11.92,11.92,0,0,1,7.6-3.19c.28,0,.56,0,.84,0h0a9.67,9.67,0,0,1,3.64,1.06A13.71,13.71,0,0,1,51,112.28c2,2.86,3.6,6.39,5.36,9.33a15.8,15.8,0,0,0,3,3.84,7.14,7.14,0,0,0,2,1.25,5.87,5.87,0,0,0,2.37.47,7.73,7.73,0,0,0,2.53-.45,10.58,10.58,0,0,0,4.24-3.08,48.79,48.79,0,0,0,6.34-9.94c3.07-5.87,6.13-12.65,9.42-17.87a29,29,0,0,1,5.06-6.31,10.39,10.39,0,0,1,2.55-1.7,6,6,0,0,1,2.52-.57l.44,0h0a2.85,2.85,0,0,1,1.6.71,13.13,13.13,0,0,1,3.27,5.16c1.8,4.37,3.24,10.8,4.33,17.92,1.64,10.69,2.53,23,3,32.54.24,4.79.38,8.91.45,11.83,0,1.46.07,2.62.08,3.42s0,1.21,0,1.22l1.36,0-.22-1.34L27,172.24,22.14,129l-1.35.15,1.29.44-1.29-.44-1.35.15,5.16,46.08,87.77-14.17,0-1.17s-.18-18.32-2-36.8c-.93-9.24-2.27-18.52-4.24-25.66a35.5,35.5,0,0,0-3.53-8.89,11,11,0,0,0-2.38-2.83,5.6,5.6,0,0,0-3.09-1.31h0l-.68,0A9.51,9.51,0,0,0,91,86.32c-2.85,1.94-5.27,5.13-7.54,8.85C80.09,100.75,77,107.59,74,113.26a54.53,54.53,0,0,1-4.47,7.3,10.1,10.1,0,0,1-4.16,3.58,5,5,0,0,1-1.64.31,3.63,3.63,0,0,1-2-.61,12,12,0,0,1-3.29-4c-1.64-2.79-3.25-6.43-5.56-9.56a17.28,17.28,0,0,0-4.16-4.11,12.31,12.31,0,0,0-5.89-2.09h0a10.24,10.24,0,0,0-1.1,0,12.54,12.54,0,0,0-5.16,1.14A21.7,21.7,0,0,0,29.28,111a53.1,53.1,0,0,0-7.23,11.6,65.27,65.27,0,0,0-2.55,6.14l-.1.29,0,.3Z"/><path class="cls-3" d="M69.87,241.68S63.72,220.42,63,219a115.14,115.14,0,0,1-7.32-17.84c-3-9.45-6.62-11.58-12.88-13.35s-12.82-5.05-13-7.88,3.1-3.19,5.4-3.19c0,0,1.15-6.65,11.08-2.93,0,0-.42-6,9.33-2.83,0,0,10.81-4.79,27.94,3.13,0,0,22.27-13.59,26.7-12.62s5.85,2,5.14,5.76S100.79,180.37,99.55,183s-.09,19.14-1.77,21.53l4.78,19.23Z"/><path class="cls-1" d="M69.87,241.68l1.6-.46s-1.54-5.32-3.16-10.82c-.82-2.75-1.65-5.54-2.33-7.75-.34-1.1-.64-2.05-.88-2.79-.12-.37-.23-.68-.32-.93l-.13-.35c-.05-.11-.08-.2-.14-.33-.19-.37-.54-1.05-1-2a112.42,112.42,0,0,1-6.2-15.55,33,33,0,0,0-2.51-6.13,15.28,15.28,0,0,0-5-5.6,23,23,0,0,0-6.51-2.72,40.08,40.08,0,0,1-8.41-3.39,12.65,12.65,0,0,1-2.64-1.9,3.86,3.86,0,0,1-.6-.74.81.81,0,0,1-.14-.36h0v-.11a.76.76,0,0,1,.14-.52,1.43,1.43,0,0,1,.41-.3,4.88,4.88,0,0,1,1.4-.38,13.34,13.34,0,0,1,1.79-.11h1.4l.24-1.38-1-.18,1,.2v0l-1-.18,1,.2a3.68,3.68,0,0,1,.75-1.42,3.33,3.33,0,0,1,1.17-.86,5.27,5.27,0,0,1,2.18-.41,13.81,13.81,0,0,1,4.75,1l2.46.92L48,173.68l-.93.07.93,0v0l-.93.07.93,0h0a2.31,2.31,0,0,1,.06-.46,1.85,1.85,0,0,1,.54-.95,2.21,2.21,0,0,1,.73-.39,4.72,4.72,0,0,1,1.46-.2,14.46,14.46,0,0,1,4.36.85l.61.2.58-.26-.27-.62.27.62h0l-.27-.62.27.62a22.9,22.9,0,0,1,8.31-1.29,43.53,43.53,0,0,1,18.26,4.41l.81.37.76-.46.23-.14c1.13-.68,6.33-3.8,11.85-6.73,2.75-1.47,5.59-2.89,8-3.92a32.39,32.39,0,0,1,3.23-1.22,7.75,7.75,0,0,1,2-.41h.16a20.65,20.65,0,0,1,2.21.6,5.08,5.08,0,0,1,1,.45,1.46,1.46,0,0,1,.61.56,1.77,1.77,0,0,1,.18.92,6.47,6.47,0,0,1-.14,1.3h0a3.09,3.09,0,0,1-.54,1,26.23,26.23,0,0,1-3.31,3.46c-2.15,2-4.81,4.13-7,6-1.12.95-2.14,1.84-3,2.63-.41.39-.77.77-1.08,1.13a5.52,5.52,0,0,0-.79,1.16,4.23,4.23,0,0,0-.32,1,15.47,15.47,0,0,0-.3,2.19c-.23,2.89-.21,7.12-.31,10.89,0,1.87-.13,3.63-.27,5a15.45,15.45,0,0,1-.25,1.66,3.58,3.58,0,0,1-.14.47l0,.1v0l.22.12-.21-.14v0l.22.12-.21-.14-.44.62,4.66,18.72L69.07,240.22l.8,1.46,1.6-.46-1.6.46.8,1.47,33.82-18.52L99.4,204.16l-1.62.4,1.36,1a3.81,3.81,0,0,0,.5-1,11.65,11.65,0,0,0,.46-2.2c.18-1.45.27-3.21.33-5.1.08-2.83.09-6,.17-8.54,0-1.29.1-2.45.19-3.34,0-.45.1-.83.15-1.11s.06-.25.08-.33l0-.13h0a5.74,5.74,0,0,1,.77-.91c.82-.83,2.13-2,3.62-3.23,2.25-1.9,4.9-4.06,7.1-6.1a32.3,32.3,0,0,0,2.86-3,11.33,11.33,0,0,0,1-1.41,4.8,4.8,0,0,0,.62-1.55h0a10,10,0,0,0,.2-1.91,5.38,5.38,0,0,0-.46-2.28,4.53,4.53,0,0,0-1-1.4,6.93,6.93,0,0,0-2.24-1.3,21,21,0,0,0-2.88-.81h0a4.76,4.76,0,0,0-.89-.1,11.1,11.1,0,0,0-3.19.63,58.06,58.06,0,0,0-7.11,3c-7.78,3.81-16.73,9.27-16.75,9.28l.87,1.43.7-1.52a47,47,0,0,0-19.66-4.72A25.65,25.65,0,0,0,55,169.45l.68,1.53.52-1.59a17.82,17.82,0,0,0-5.4-1,7.26,7.26,0,0,0-3.21.66,5,5,0,0,0-2.5,2.61,5.65,5.65,0,0,0-.42,2.07c0,.11,0,.19,0,.23l1.67-.13.58-1.56A16.9,16.9,0,0,0,41,171a8.5,8.5,0,0,0-3.76.8,6.84,6.84,0,0,0-3,2.84,6,6,0,0,0-.66,1.8l1.64.29v-1.67a11.55,11.55,0,0,0-4.15.61,4.76,4.76,0,0,0-2,1.39,4.09,4.09,0,0,0-.91,2.64c0,.11,0,.22,0,.32h0a4.15,4.15,0,0,0,.57,1.8A8.57,8.57,0,0,0,31,184.25a25.6,25.6,0,0,0,5.14,2.92,47.25,47.25,0,0,0,6.25,2.25,25.73,25.73,0,0,1,4,1.41,11,11,0,0,1,4.3,3.43,24.19,24.19,0,0,1,3.46,7.4,113.34,113.34,0,0,0,4.57,12.11c.69,1.57,1.32,2.89,1.82,3.91s.86,1.73,1,2.07l.37-.19-.37.17v0l.37-.19-.37.17s.07.18.15.4c.3.86.88,2.72,1.56,5,1,3.36,2.28,7.63,3.28,11.06.51,1.71.94,3.21,1.25,4.29s.5,1.72.5,1.72l.58,2,1.83-1Z"/><path class="cls-1" d="M35,178.38l.09,0a53.68,53.68,0,0,1,5.37,1.23,33.81,33.81,0,0,1,4,1.38,15.93,15.93,0,0,1,3.36,1.82l2-2.68a20,20,0,0,0-4.36-2.34,46.52,46.52,0,0,0-6.7-2.07c-1.89-.44-3.21-.65-3.24-.65L35,178.38Z"/><path class="cls-1" d="M45.72,175.38l.3.11c.69.25,2.45.92,4.33,1.7.93.39,1.9.8,2.76,1.2a21.86,21.86,0,0,1,2.12,1.1L57,176.64a30,30,0,0,0-2.86-1.46c-3.22-1.46-7.22-2.93-7.24-2.94l-1.15,3.14Z"/><path class="cls-1" d="M54.9,172.47s8.2,4,10.24,5l1.42-3c-1-.46-3.54-1.71-5.84-2.83l-3-1.48-1.32-.64-1.46,3Z"/><path class="cls-1" d="M79,201.44l-.54-.22.53.23h0l-.54-.22.53.23a3.72,3.72,0,0,1,.7-.95,3,3,0,0,1,.81-.55,2.89,2.89,0,0,1,1.19-.24l.51,0,.44-3.3A6.37,6.37,0,0,0,79,197a6.49,6.49,0,0,0-2.36,2,6,6,0,0,0-.73,1.25L79,201.44Z"/><polygon class="cls-1" points="13.45 78.66 24.45 176.82 123.85 159.5 123.28 156.22 27.38 172.93 16.76 78.28 13.45 78.66 13.45 78.66"/><polygon class="cls-1" points="11.42 84.78 15.48 79.99 21 83.19 22.68 80.3 14.74 75.71 8.87 82.62 11.42 84.78 11.42 84.78"/><polygon class="cls-1" points="119.39 155.01 122.6 157.98 121.1 163.41 124.31 164.3 126.36 156.91 121.65 152.56 119.39 155.01 119.39 155.01"/><polyline class="cls-1" points="8.31 104.3 13.39 104.3 13.39 100.96 8.31 100.96"/><polyline class="cls-1" points="10.85 124.44 15.93 124.44 15.93 121.1 10.85 121.1"/><polyline class="cls-1" points="13.39 148.19 18.47 148.19 18.47 144.85 13.39 144.85"/><polyline class="cls-1" points="15.11 167.95 20.19 167.95 20.19 164.61 15.11 164.61"/><path class="cls-3" d="M325,30.11s34.95,8.69,35.78,41.72-28,44.85-30.54,45.49-42,7.8-55.11-16.18-1.44-46.81,6.47-56c4.76-5.52,11-11.66,20.32-14.58C308.08,28.63,315.62,28.1,325,30.11Z"/><path class="cls-1" d="M325,30.11l-.4,1.62h0a56.64,56.64,0,0,1,17.4,8.5A43.06,43.06,0,0,1,353.54,52.5a38.27,38.27,0,0,1,5.54,19.37c0,.45,0,.9,0,1.35a44.83,44.83,0,0,1-4.27,19.57A46,46,0,0,1,340,110.16a49.61,49.61,0,0,1-6.79,4.1c-.91.46-1.7.8-2.29,1s-1,.39-1.12.41l-.54.11a83.44,83.44,0,0,1-15.1,1.33,62.56,62.56,0,0,1-20.94-3.25,34.6,34.6,0,0,1-9.49-5.14,27,27,0,0,1-7.16-8.41,45.13,45.13,0,0,1-5.68-21.82,49.51,49.51,0,0,1,4.05-19.27,50.58,50.58,0,0,1,7.91-13,57.55,57.55,0,0,1,8.21-8,35.54,35.54,0,0,1,11.34-6,37.27,37.27,0,0,1,11.27-1.66,52.12,52.12,0,0,1,11,1.24l.35-1.63-.4,1.62.4-1.62.35-1.63a55.13,55.13,0,0,0-11.66-1.31A40.7,40.7,0,0,0,301.39,29,39.14,39.14,0,0,0,289,35.56a61.56,61.56,0,0,0-8.68,8.49A54.17,54.17,0,0,0,271.85,58a53,53,0,0,0-4.31,20.57,48.43,48.43,0,0,0,6.09,23.41,30.25,30.25,0,0,0,8,9.45,41.32,41.32,0,0,0,16,7.32,72.88,72.88,0,0,0,16.47,1.78,92.76,92.76,0,0,0,11-.67c1.44-.17,2.65-.35,3.56-.51l1.16-.21.71-.16c.26-.07.54-.16.92-.3a43.33,43.33,0,0,0,7.11-3.58,52.07,52.07,0,0,0,15.4-14.34,46.92,46.92,0,0,0,8.38-27.5c0-.47,0-1,0-1.43a41.74,41.74,0,0,0-6.19-21.3c-5.32-8.53-13-14-19.38-17.36a56.86,56.86,0,0,0-11.47-4.64h-.06Z"/><path class="cls-3" d="M271.38,228.2l8.11-25.77s-9.1-6.51-7-16.34,6.16-13.92,6.16-13.92,5.44-34.59,12.77-44.76,12-8.11,12.88-6.54-8.49,39.54-8.49,39.54,28.16-7.61,26.77,12.68c0,0,6,.88,3.32,9.91,0,0,5.84,3.23,1.36,11.18,0,0,4.19,3.07,1.21,8.17s-7.31,4.57-7.31,4.57-1.39,6-9.83,7.09l-3.53,29.82Z"/><path class="cls-1" d="M271.38,228.2l1.59.5,8.47-26.93-1-.7-.35.48.35-.48h0l-.35.48.35-.48a18.58,18.58,0,0,1-3.39-3.41,16.19,16.19,0,0,1-2.23-3.79,12.25,12.25,0,0,1-.71-7.43,35.94,35.94,0,0,1,3.69-10.18,19.39,19.39,0,0,1,1.5-2.29c.18-.23.32-.41.41-.51l.1-.11,0,0-.4-.38.39.39h0l-.4-.38.39.39.38-.38.08-.53s0-.13.07-.39c.3-1.89,1.76-10.57,4-19.93,1.11-4.67,2.41-9.52,3.85-13.75a40.47,40.47,0,0,1,4.57-10,24.33,24.33,0,0,1,5.52-5.85,6,6,0,0,1,3.31-1.31,2.08,2.08,0,0,1,1,.22.83.83,0,0,1,.22.16l0,0h0l1.08-.58-1.22.16a1.06,1.06,0,0,0,.14.42l1.08-.58-1.22.16.42,0-.43,0v0l.42,0-.43,0h0v0c0,.14,0,.49-.09,1-.22,1.75-.86,5-1.69,8.93C299.67,137,298,144.22,296.63,150c-.69,2.88-1.29,5.39-1.73,7.18s-.7,2.86-.7,2.86l-.67,2.75,2.73-.74h.05a46.51,46.51,0,0,1,10.49-1.33,26.3,26.3,0,0,1,5.27.49,12,12,0,0,1,6.32,3.1,8.36,8.36,0,0,1,1.86,3,12.61,12.61,0,0,1,.72,4.44c0,.42,0,.85,0,1.31l-.1,1.53,1.52.23.08-.59-.11.58h0l.08-.59-.11.58a3.27,3.27,0,0,1,1.35.7,3.4,3.4,0,0,1,.83,1.16,5.59,5.59,0,0,1,.41,2.26,13.32,13.32,0,0,1-.6,3.68l-.38,1.28,1.17.65.5-.9-.51.89h0l.5-.9-.51.89h0a4.91,4.91,0,0,1,1.21,1.14,5,5,0,0,1,1,3,9.73,9.73,0,0,1-1.47,4.74l-.73,1.29,1.19.87.64-.87-.65.86h0l.64-.87-.65.86h0a4.5,4.5,0,0,1,.9,1,4,4,0,0,1,.7,2.25,5.35,5.35,0,0,1-.84,2.73,7.57,7.57,0,0,1-3.26,3.21,5.43,5.43,0,0,1-2.25.55h-.19l-.06.76.09-.76h0l-.06.76.09-.76-1.49-.17-.33,1.45h0a6.91,6.91,0,0,1-1.62,2.7,10.69,10.69,0,0,1-6.79,3.12l-1.3.16-3.42,28.9L272,226.66l-.66,1.54,1.59.5-1.59-.5-.65,1.53,38.47,16.52,3.79-32-1.65-.2.2,1.66a16,16,0,0,0,5.69-1.75,11.74,11.74,0,0,0,4.47-4.16,8.75,8.75,0,0,0,1.1-2.47l-1.63-.37-.19,1.66s.25,0,.55,0a8.71,8.71,0,0,0,3.69-.87,10.91,10.91,0,0,0,4.7-4.54,8.74,8.74,0,0,0,1.3-4.41,7.42,7.42,0,0,0-1.46-4.38,7.83,7.83,0,0,0-1.5-1.57l-1,1.35,1.45.81a13,13,0,0,0,1.91-6.37,8.19,8.19,0,0,0-1.92-5.35,7.62,7.62,0,0,0-2-1.73l-.81,1.46,1.6.46a16.61,16.61,0,0,0,.74-4.61,8.73,8.73,0,0,0-.79-3.8,6.5,6.5,0,0,0-2.82-3,6.21,6.21,0,0,0-1.8-.64l-.25,1.66,1.67.1c0-.52.05-1,.05-1.52a14.9,14.9,0,0,0-1.63-7.15,11.86,11.86,0,0,0-3.05-3.62,15.78,15.78,0,0,0-6.15-2.84,29.38,29.38,0,0,0-6.68-.72,49,49,0,0,0-11.41,1.46l.43,1.61,1.62.4s2.14-8.69,4.28-17.94c1.07-4.62,2.14-9.39,2.94-13.29.41-1.94.74-3.68,1-5.08.12-.7.22-1.32.28-1.85a10.69,10.69,0,0,0,.11-1.37,2.58,2.58,0,0,0,0-.47,2,2,0,0,0-.22-.73h0a4,4,0,0,0-1.6-1.54,5.34,5.34,0,0,0-2.57-.63,9.24,9.24,0,0,0-5.21,1.9,27.46,27.46,0,0,0-6.33,6.63,29.87,29.87,0,0,0-2.82,5.14,93,93,0,0,0-4.17,12.13A282.71,282.71,0,0,0,277,171.91l1.65.26L277.47,171c-.18.18-4.42,4.57-6.6,14.74a16.07,16.07,0,0,0-.35,3.31,15.91,15.91,0,0,0,1.27,6.18,20.87,20.87,0,0,0,4.18,6.27,17.83,17.83,0,0,0,2.55,2.29l1-1.35-1.6-.5-8.55,27.21,1.39.59Z"/><path class="cls-1" d="M279.73,173.44l-.2-.24.2.24h0l-.2-.24.2.24a24,24,0,0,1,4.17-2.64,21.72,21.72,0,0,1,9.78-2.54,16.21,16.21,0,0,1,5.9,1.08,11.86,11.86,0,0,1,4.8,3,4.48,4.48,0,0,1,1.22,2.92,4,4,0,0,1-1.36,2.91,5.46,5.46,0,0,1-3.61,1.37l-6.85.12-2.6,0,1.12,2.34h0a23.09,23.09,0,0,1,1,2.61,17,17,0,0,1,.91,5.06,6.54,6.54,0,0,1-.5,2.7l3,1.38a9.77,9.77,0,0,0,.8-4.08,20.69,20.69,0,0,0-1.12-6.24,26.19,26.19,0,0,0-1.12-2.88l-1.51.72,0,1.67h.86l6-.1a8.83,8.83,0,0,0,5.81-2.25,7.3,7.3,0,0,0,2.44-5.37,7.76,7.76,0,0,0-2-5.11,15.18,15.18,0,0,0-6.13-4,19.73,19.73,0,0,0-7.09-1.3,25.17,25.17,0,0,0-11.43,3,27.78,27.78,0,0,0-4.67,3l2.15,2.55Z"/><path class="cls-1" d="M321.28,172.06l0,0a77.87,77.87,0,0,1-6.13,6.79,38.27,38.27,0,0,1-5,4.21,14.71,14.71,0,0,1-2.3,1.27,4.46,4.46,0,0,1-1.72.41H306l0,1.67.06-1.67a14.09,14.09,0,0,1-2.34-.25A6,6,0,0,1,302,184a2.14,2.14,0,0,1-1.32-2.12c0-.14,0-.28,0-.42l-3.32-.35a6.74,6.74,0,0,0,0,.77,6,6,0,0,0,.29,1.88,5.27,5.27,0,0,0,1.84,2.58A8.55,8.55,0,0,0,303,187.8a18.42,18.42,0,0,0,2.89.31h.18a7.79,7.79,0,0,0,3.09-.71,21.61,21.61,0,0,0,5.15-3.32,63.47,63.47,0,0,0,6.64-6.51c1.76-2,2.91-3.44,2.93-3.46l-2.63-2.05Z"/><path class="cls-1" d="M324.53,182.05v0a51.2,51.2,0,0,1-5.27,6.22,27.74,27.74,0,0,1-4.72,3.85,9.12,9.12,0,0,1-4.55,1.58h-.15l.06,1.66,0-1.66a10.93,10.93,0,0,1-3-.4,4,4,0,0,1-2.19-1.36,3.36,3.36,0,0,1-.61-2.06,8.18,8.18,0,0,1,.73-3.09l-3.06-1.32a11.3,11.3,0,0,0-1,4.41,7,7,0,0,0,.54,2.78,6.37,6.37,0,0,0,3.08,3.22,12.18,12.18,0,0,0,5.42,1.15H310l0-.85v.85h0l0-.85v.85h0v0H310a12.45,12.45,0,0,0,6.49-2.19,36.39,36.39,0,0,0,7.6-6.86,51.11,51.11,0,0,0,3.21-4.06l-2.74-1.9Z"/><path class="cls-1" d="M325.86,193.29l.28.17-.28-.18h0l.28.17-.28-.18a18.82,18.82,0,0,1-2.85,3.34,13.39,13.39,0,0,1-3,2.15,7.75,7.75,0,0,1-3.5.93h-.06a4.73,4.73,0,0,1-1.95-.34,2.05,2.05,0,0,1-1.11-1.1,3.9,3.9,0,0,1-.29-1.54,4.86,4.86,0,0,1,0-.63l0-.16v0l-.51-.1.51.11h0l-.51-.1.51.11-3.26-.72a7.06,7.06,0,0,0-.15,1.53,7.71,7.71,0,0,0,.22,1.85,5.69,5.69,0,0,0,1.91,3.08,5.9,5.9,0,0,0,2,1,8.56,8.56,0,0,0,2.58.36h.09a11.22,11.22,0,0,0,5.07-1.33,18.86,18.86,0,0,0,5.15-4.16,20.62,20.62,0,0,0,1.92-2.48l-2.82-1.78Z"/><path class="cls-1" d="M321.47,205.28l-.1.56.12-.56h0l-.1.56.12-.56a2.94,2.94,0,0,1-1.08-.53,2.38,2.38,0,0,1-.6-.72,2.85,2.85,0,0,1-.27-1.31,5.93,5.93,0,0,1,.13-1.15l-3.26-.71a9,9,0,0,0-.21,1.86,6.22,6.22,0,0,0,.72,3,6.08,6.08,0,0,0,3.95,2.86l.6-3.28Z"/><path class="cls-3" d="M28.9,174.09a10.36,10.36,0,0,0-1.65.51c0-.28,0-.44,0-.46Z"/><path class="cls-1" d="M28.9,174.09l0-.24a12.13,12.13,0,0,0-1.69.53l.09.22.24,0c0-.27,0-.44,0-.44h-.23v.24l1.67-.06v-.23l0-.24,0,.24v-.24l-1.9.06v.23s0,.19,0,.47l0,.33.31-.12a11.23,11.23,0,0,1,1.16-.39l.33-.08.11,0-.05-.47Z"/><path class="cls-3" d="M38.52,162.29c-.28,0-.64.08-1.06.16v-.09Z"/><path class="cls-1" d="M38.52,162.29l0-.23c-.27,0-.65.07-1.08.15l.05.24.23,0v-.08h-.24l0,.24,1.06-.07v-.24l0-.23,0,.23,0-.24-1.06.07-.24,0,0,.32v.27l.27,0c.41-.07.77-.12,1-.15l0-.48Z"/><path class="cls-2" d="M252.49,330.4a28.93,28.93,0,0,1-9.87-36.57l28.14-66,47.52,1.55c-5.85,23.93-15.11,60.38-21.72,84.61A28.92,28.92,0,0,1,252.49,330.4Z"/><path class="cls-1" d="M252.49,330.4l.94-1.38a27.26,27.26,0,0,1-12-22.62,27,27,0,0,1,2.73-11.84l0-.05,27.7-64.94,46.38,1.51,0-1.67-1.62-.39c-5.84,23.91-15.11,60.36-21.71,84.56a27,27,0,0,1-10.05,14.74,27.62,27.62,0,0,1-16.31,5.37A27.05,27.05,0,0,1,253.42,329l-.93,1.38-.93,1.38a30.23,30.23,0,0,0,17,5.24,30.9,30.9,0,0,0,18.29-6,30.26,30.26,0,0,0,11.29-16.54c6.61-24.26,15.88-60.71,21.73-84.65l.49-2-50.72-1.65-28.58,67,1.53.66-1.5-.73a30.59,30.59,0,0,0,10.44,38.68Z"/><path class="cls-1" d="M285.36,151.55a11.14,11.14,0,0,0-1.59-.66c.16-.23.26-.35.27-.37Z"/><path class="cls-1" d="M300.3,148.64c-.23-.15-.54-.35-.91-.56l.05-.07Z"/><path class="cls-2" d="M118.06,332.57a28.93,28.93,0,0,1-31-21.8L66.5,242.08,104,212.86c10.82,22.13,27,56.07,37.44,78.92A28.92,28.92,0,0,1,118.06,332.57Z"/><path class="cls-1" d="M118.06,332.57l-.16-1.66c-.93.09-1.86.14-2.77.14A27.25,27.25,0,0,1,88.7,310.37v0L68.42,242.69,105,214.18l-1-1.32-1.5.73c10.81,22.12,27,56.06,37.42,78.88a27.19,27.19,0,0,1,2.49,11.31,27.47,27.47,0,0,1-6.83,18,27,27,0,0,1-17.69,9.09l.16,1.66.17,1.66A30.36,30.36,0,0,0,138.1,324a30.8,30.8,0,0,0,7.66-20.24A30.49,30.49,0,0,0,143,291.09c-10.44-22.87-26.64-56.82-37.46-79l-.9-1.85-40,31.18,20.91,69.79,1.6-.48-1.62.41a30.6,30.6,0,0,0,29.67,23.2c1,0,2.06-.05,3.1-.15Z"/><path class="cls-1" d="M28.9,174.09a10.36,10.36,0,0,0-1.65.51c0-.28,0-.44,0-.46Z"/><path class="cls-1" d="M38.52,162.29c-.28,0-.64.08-1.06.16v-.09Z"/><path class="cls-4" d="M354.31,96.49,310.81,75.9l-8.92-45.34s27.78-9.5,47.83,14.23S354.31,96.49,354.31,96.49Z"/><path class="cls-1" d="M354.31,96.49l.58-1.23L312,75,303.23,30.3l-1.34.26.44,1.29h0a46.12,46.12,0,0,1,29.15,1.21,43.31,43.31,0,0,1,17.19,12.61,41.08,41.08,0,0,1,10,27.14,52.39,52.39,0,0,1-2.78,16.43c-.69,2.07-1.39,3.73-1.9,4.87-.26.57-.48,1-.62,1.3s-.13.25-.17.32l0,.08v0l1.19.66.58-1.23-.58,1.23,1.19.66a55.13,55.13,0,0,0,5.86-24.34,43.8,43.8,0,0,0-10.6-28.9,45.93,45.93,0,0,0-18.27-13.38,48.72,48.72,0,0,0-31-1.26l-1.12.39,9.28,47.17,45.27,21.44.62-1.12Z"/></svg>