<svg width="365" height="364" viewBox="0 0 365 364" fill="none" xmlns="http://www.w3.org/2000/svg">
<path d="M166.358 102.62V111.78C166.358 112.364 166.163 112.754 165.773 113.144C165.383 113.534 164.799 113.728 164.409 113.728H137.514C134.786 113.728 132.252 115.677 132.252 118.601C132.252 121.329 134.396 123.473 137.125 123.473H164.409C165.383 123.473 166.358 124.447 166.358 125.422V134.581C166.358 135.556 165.383 136.53 164.409 136.53H137.125C126.99 136.725 119 128.54 119 118.601C119 108.661 126.99 100.671 136.93 100.671H164.214C165.383 100.671 166.358 101.645 166.358 102.62Z" fill="#ED4D4D"/>
<path d="M191.499 130.489C192.278 131.073 192.473 132.438 191.889 133.217C191.304 133.997 189.94 134.192 189.16 133.607L183.119 128.93V134.581C183.119 136.141 181.365 137.115 180.001 136.141L170.256 129.125C169.477 128.54 169.087 127.176 169.866 126.396C170.451 125.422 171.62 125.227 172.595 126.006L179.221 130.879V125.032C179.221 124.252 179.611 123.668 180.195 123.278C180.975 122.888 181.755 123.083 182.144 123.473L191.499 130.489Z" fill="#ED4D4D"/>
<path d="M191.499 108.076C192.278 108.661 192.473 110.025 191.889 110.805C191.304 111.584 189.94 111.779 189.16 111.194L183.119 106.517V112.169C183.119 113.728 181.365 114.702 180.001 113.728L170.256 106.712C169.477 106.127 169.087 104.958 169.866 103.984C170.451 103.009 171.62 103.009 172.595 103.594L179.221 108.271V102.424C179.221 101.645 179.611 101.06 180.195 100.67C180.975 100.281 181.755 100.476 182.144 100.865L191.499 108.076Z" fill="#ED4D4D"/>
<path d="M208.258 61.8882C208.258 55.4569 212.935 50 218.782 50C224.628 50 229.306 55.262 229.306 61.8882C229.306 67.9297 225.213 76.8946 218.782 76.8946C212.545 76.8946 208.258 67.9297 208.258 61.8882Z" fill="#B2B2B2"/>
<path d="M243.728 120.549C243.923 123.668 243.144 126.591 241.195 128.93C239.246 131.073 236.323 132.632 232.815 133.022V166.348C232.815 169.466 230.281 172 227.163 172H210.597C207.479 172 204.946 169.466 204.946 166.348V133.022C201.438 132.438 198.514 131.073 196.566 128.735C194.617 126.591 193.642 123.668 194.032 120.549L196.955 85.8593C197.345 83.7155 197.735 80.5973 201.438 79.4279C202.412 79.0382 203.192 78.8433 203.971 78.6484C205.53 78.0637 206.7 77.674 209.623 77.2842C210.208 77.2842 210.987 77.4791 211.377 78.0637C211.767 78.6484 211.962 79.2331 211.767 79.8177C210.403 83.9104 211.377 88.9775 214.105 93.8497L214.495 88.1979L213.521 85.8593C213.521 85.6644 213.326 85.2746 213.326 85.0797V81.5717C213.326 80.4024 214.3 79.6228 215.275 79.6228H223.07C224.24 79.6228 225.019 80.4024 225.019 81.5717V85.0797C225.019 85.2746 225.019 85.6644 224.824 85.8593L223.85 88.1979L224.24 94.2395C227.358 89.3672 228.137 84.6899 226.578 79.8177C226.383 79.2331 226.578 78.4535 226.968 78.0637C227.358 77.4791 227.943 77.2842 228.722 77.2842C231.45 77.674 232.62 78.0637 233.984 78.4535C234.764 78.6484 235.543 79.0382 236.518 79.2331C240.22 80.2075 240.805 83.5206 241 85.8593V86.249L243.728 120.549Z" fill="#B2B2B2"/>
</svg>
